<?xml version="1.0" encoding="UTF-8"?>
<svg width="470px" height="70px" viewBox="0 0 470 70" version="1.1" xmlns="http://www.w3.org/2000/svg" xmlns:xlink="http://www.w3.org/1999/xlink">
    <!-- Generator: Sketch 58 (84663) - https://sketch.com -->
    <title>GBS-Logo</title>
    <desc>Created with Sketch.</desc>
    <g id="GBS-Logo" stroke="none" stroke-width="1" fill="none" fill-rule="evenodd">
        <path d="M201.43,57.63 L201.43,33.33 L175.87,33.33 L175.87,37.65 L196.93,37.65 L196.93,55.74 C192.34,59.61 184.87,62.94 176.86,62.94 C160.1983,62.94 150.064066,51.031785 149.863047,34.98745 L149.86,34.32 C149.86,19.11 160.57,6.15 175.87,6.15 C185.41,6.15 191.17,9.39 196.12,13.71 L199.18,10.2 C192.88,4.98 186.4,1.92 176.14,1.92 C157.5181,1.92 145.247248,17.180157 145.003693,33.9901461 L145,34.68 C145,52.41 156.79,67.08 176.68,67.08 C186.94,67.08 195.76,62.67 201.43,57.63 Z M268.297075,49.1377996 L268.3,48.63 C268.3,39.9 261.64,35.58 254.08,33.6 C259.21,31.53 264.79,27.21 264.79,18.66 L264.79,18.48 C264.79,9.03 256.6,3 244.36,3 L218.35,3 L218.35,66 L245.71,66 C259.158437,66 268.112002,59.4780273 268.297075,49.1377996 L268.297075,49.1377996 Z M260.02,19.11 C260.02,27.48 253.27,32.07 243.82,32.07 L223.03,32.07 L223.03,7.32 L244.27,7.32 C254.211918,7.32 259.86383,11.872659 260.016811,18.6464784 L260.02,19.11 Z M263.53,48.81 C263.53,56.73 256.69,61.68 245.89,61.68 L223.03,61.68 L223.03,36.39 L244.36,36.39 C256.632143,36.39 263.368482,40.7834949 263.527132,48.3549511 L263.53,48.81 Z M325.54,49.71 C325.54,59.88 316.81,66.9 304.66,66.9 C294.58,66.9 286.84,63.57 279.28,56.82 L282.34,53.31 C289.27,59.7 295.66,62.67 304.93,62.67 C314.38,62.67 320.86,57.36 320.86,50.16 L320.86,49.98 C320.86,43.3931868 317.426719,39.5353919 303.507855,36.6653061 L303.04,36.57 C288.084348,33.5432609 281.934107,28.4912772 281.802173,19.1495269 L281.8,18.66 C281.8,9.3 290.35,2.1 302.05,2.1 C311.23,2.1 317.26,4.62 323.65,9.75 L320.68,13.44 C314.74,8.31 308.8,6.33 301.87,6.33 C292.726986,6.33 286.648262,11.495517 286.483438,17.9407197 L286.48,18.39 L286.484826,18.8160723 C286.632425,25.2237357 290.22129,29.1658065 304.84,32.16 C319.25618,35.0966292 325.401404,40.2329807 325.537679,49.2220592 L325.54,49.71 Z" id="GBS" fill="#B3B3B3" fill-rule="nonzero"></path>
    </g>
</svg>