<?xml version="1.0" encoding="UTF-8"?>
<svg width="470px" height="70px" viewBox="0 0 470 70" version="1.1" xmlns="http://www.w3.org/2000/svg" xmlns:xlink="http://www.w3.org/1999/xlink">
    <!-- Generator: Sketch 58 (84663) - https://sketch.com -->
    <title>PalletTownWavesSystem-Logo</title>
    <desc>Created with Sketch.</desc>
    <g id="PalletTownWavesSystem-Logo" stroke="none" stroke-width="1" fill="none" fill-rule="evenodd">
        <path d="M50.5,17 L50.5,7 L40.5,7 L40.5,17 L50.5,17 Z M30.5,32 L30.5,2 L55.5,2 L55.5,7 L60.5,7 L60.5,17 L55.5,17 L55.5,22 L40.5,22 L40.5,32 L30.5,32 Z M69.5,32 L69.5,7 L74.5,7 L74.5,17 L84.5,17 L84.5,7 L74.5,7 L74.5,2 L94.5,2 L94.5,7 L99.5,7 L99.5,32 L84.5,32 L84.5,22 L74.5,22 L74.5,32 L69.5,32 Z M108.5,32 L108.5,2 L118.5,2 L118.5,27 L138.5,27 L138.5,32 L108.5,32 Z M147.5,32 L147.5,2 L157.5,2 L157.5,27 L177.5,27 L177.5,32 L147.5,32 Z M186.5,32 L186.5,2 L216.5,2 L216.5,7 L196.5,7 L196.5,12 L211.5,12 L211.5,17 L196.5,17 L196.5,27 L216.5,27 L216.5,32 L186.5,32 Z M235.5,32 L235.5,7 L225.5,7 L225.5,2 L255.5,2 L255.5,7 L245.5,7 L245.5,32 L235.5,32 Z M293.5,32 L293.5,7 L283.5,7 L283.5,2 L313.5,2 L313.5,7 L303.5,7 L303.5,32 L293.5,32 Z M342.5,27 L342.5,7 L332.5,7 L332.5,27 L342.5,27 Z M327.5,32 L327.5,27 L322.5,27 L322.5,7 L327.5,7 L327.5,2 L347.5,2 L347.5,7 L352.5,7 L352.5,27 L347.5,27 L347.5,32 L327.5,32 Z M361.5,32 L361.5,2 L366.5,2 L366.5,17 L371.5,17 L371.5,12 L376.5,12 L376.5,17 L381.5,17 L381.5,2 L391.5,2 L391.5,32 L381.5,32 L381.5,27 L376.5,27 L376.5,22 L371.5,22 L371.5,27 L366.5,27 L366.5,32 L361.5,32 Z M400.5,32 L400.5,2 L405.5,2 L405.5,7 L410.5,7 L410.5,12 L415.5,12 L415.5,17 L420.5,17 L420.5,2 L430.5,2 L430.5,32 L420.5,32 L420.5,27 L415.5,27 L415.5,22 L410.5,22 L410.5,17 L405.5,17 L405.5,32 L400.5,32 Z M11,67 L11,37 L16,37 L16,52 L21,52 L21,47 L26,47 L26,52 L31,52 L31,37 L41,37 L41,67 L31,67 L31,62 L26,62 L26,57 L21,57 L21,62 L16,62 L16,67 L11,67 Z M50,67 L50,42 L55,42 L55,52 L65,52 L65,42 L55,42 L55,37 L75,37 L75,42 L80,42 L80,67 L65,67 L65,57 L55,57 L55,67 L50,67 Z M94,62 L94,57 L99,57 L99,62 L94,62 Z M89,57 L89,37 L94,37 L94,57 L89,57 Z M99,67 L99,62 L104,62 L104,57 L109,57 L109,37 L119,37 L119,57 L114,57 L114,62 L109,62 L109,67 L99,67 Z M128,67 L128,37 L158,37 L158,42 L138,42 L138,47 L153,47 L153,52 L138,52 L138,62 L158,62 L158,67 L128,67 Z M167,62 L167,57 L172,57 L172,62 L167,62 Z M172,67 L172,62 L182,62 L182,52 L172,52 L172,47 L167,47 L167,42 L172,42 L172,37 L192,37 L192,42 L177,42 L177,47 L192,47 L192,52 L197,52 L197,62 L192,62 L192,67 L172,67 Z M225,62 L225,57 L230,57 L230,62 L225,62 Z M230,67 L230,62 L240,62 L240,52 L230,52 L230,47 L225,47 L225,42 L230,42 L230,37 L250,37 L250,42 L235,42 L235,47 L250,47 L250,52 L255,52 L255,62 L250,62 L250,67 L230,67 Z M274,67 L274,52 L269,52 L269,47 L264,47 L264,37 L274,37 L274,47 L284,47 L284,37 L294,37 L294,47 L289,47 L289,52 L284,52 L284,67 L274,67 Z M303,62 L303,57 L308,57 L308,62 L303,62 Z M308,67 L308,62 L318,62 L318,52 L308,52 L308,47 L303,47 L303,42 L308,42 L308,37 L328,37 L328,42 L313,42 L313,47 L328,47 L328,52 L333,52 L333,62 L328,62 L328,67 L308,67 Z M352,67 L352,42 L342,42 L342,37 L372,37 L372,42 L362,42 L362,67 L352,67 Z M381,67 L381,37 L411,37 L411,42 L391,42 L391,47 L406,47 L406,52 L391,52 L391,62 L411,62 L411,67 L381,67 Z M420,67 L420,37 L425,37 L425,42 L430,42 L430,47 L435,47 L435,42 L440,42 L440,37 L450,37 L450,67 L440,67 L440,52 L435,52 L435,57 L430,57 L430,52 L425,52 L425,67 L420,67 Z" id="PalletTownWavesSystem" fill="#6B4B7D" fill-rule="nonzero"></path>
    </g>
</svg>