<?xml version="1.0" encoding="UTF-8"?>
<svg width="470px" height="70px" viewBox="0 0 470 70" version="1.1" xmlns="http://www.w3.org/2000/svg" xmlns:xlink="http://www.w3.org/1999/xlink">
    <!-- Generator: Sketch 58 (84663) - https://sketch.com -->
    <title>Terracillator-Logo</title>
    <desc>Created with Sketch.</desc>
    <g id="Terracillator-Logo" stroke="none" stroke-width="1" fill="none" fill-rule="evenodd">
        <path d="M99.28,55.29 L99.28,58.08 C99.28,60.5400123 98.5300075,62.474993 97.03,63.885 C95.5299925,65.295007 93.6400114,66 91.36,66 L79.12,66 C77.919994,66 77.0350028,65.7300027 76.465,65.19 C75.8949971,64.6499973 75.61,63.6600072 75.61,62.22 L75.61,2.91 L86.05,2.91 L86.05,19.65 L95.68,19.65 L95.68,25.05 L86.05,25.05 L86.05,60.69 L89.47,60.69 L89.47,55.29 L99.28,55.29 Z M126.46,48.45 C126.46,49.650006 126.160003,50.4899976 125.56,50.97 C124.959997,51.4500024 124.210004,51.69 123.31,51.69 L113.59,51.69 L113.59,60.69 L116.92,60.69 L116.92,55.29 L126.73,55.29 L126.73,58.08 C126.73,60.5400123 125.980007,62.474993 124.48,63.885 C122.979992,65.295007 121.090011,66 118.81,66 L105.67,66 C105.189998,66 104.680003,65.8800012 104.14,65.64 C103.635997,65.4159989 103.3672,64.852271 103.3336,63.9488009 L103.06,40.53 C103.06,38.0699877 103.809992,36.135007 105.31,34.725 C106.810007,33.314993 108.699989,32.61 110.98,32.61 L121.42,32.61 C123.220009,32.61 124.494996,32.9999961 125.245,33.78 C125.948129,34.5112537 126.321661,35.6643678 126.365606,37.2393736 L126.46,48.45 Z M116.38,46.38 L116.38,37.92 L112.87,37.92 L112.87,46.38 L116.38,46.38 Z M144.37,41.79 L144.37,36.39 L140.95,36.39 L140.95,66 L130.51,66 L130.51,31.08 L146.26,31.08 C148.540011,31.08 150.429993,31.784993 151.93,33.195 C153.430007,34.605007 154.18,36.5399877 154.18,39 L154.18,41.79 L144.37,41.79 Z M171.82,41.79 L171.82,36.39 L168.4,36.39 L168.4,66 L157.96,66 L157.96,31.08 L173.71,31.08 C175.990011,31.08 177.879992,31.784993 179.38,33.195 C180.880007,34.605007 181.63,36.5399877 181.63,39 L181.63,41.79 L171.82,41.79 Z M208.72,58.53 C208.72,60.9900123 208.030007,62.8499937 206.65,64.11 C205.269993,65.3700063 203.440011,66 201.16,66 L188.02,66 C187.539998,66 187.030003,65.8800012 186.49,65.64 C185.949997,65.3999988 185.68,64.7700051 185.68,63.75 L185.68,48.72 C185.68,48.0599967 185.844998,47.5050023 186.175,47.055 C186.505002,46.6049977 187.119995,46.38 188.02,46.38 L198.73,46.38 L198.73,37.92 L195.22,37.92 L195.22,43.32 L185.41,43.32 L185.41,40.53 C185.41,38.0699877 186.159992,36.135007 187.66,34.725 C189.160007,33.314993 191.049989,32.61 193.33,32.61 L203.77,32.61 C205.570009,32.61 206.844996,32.9999961 207.595,33.78 C208.345004,34.5600039 208.72,35.8199913 208.72,37.56 L208.72,58.53 Z M195.94,60.69 L199.27,60.69 L199.27,51.69 L195.94,51.69 L195.94,60.69 Z M212.86,33.51 C212.86,31.8899919 213.729991,31.08 215.47,31.08 L228.61,31.08 C230.890011,31.08 232.779992,31.784993 234.28,33.195 C235.780007,34.605007 236.53,36.5399877 236.53,39 L236.53,41.79 L226.72,41.79 L226.72,36.39 L223.3,36.39 L223.3,60.69 L226.72,60.69 L226.72,55.29 L236.53,55.29 L236.53,58.08 C236.53,60.5400123 235.780007,62.474993 234.28,63.885 C232.779992,65.295007 230.890011,66 228.61,66 L215.02,66 C214.239996,66 213.685002,65.8500015 213.355,65.55 C213.024998,65.2499985 212.86,64.6200048 212.86,63.66 L212.86,33.51 Z M242.11,66 L242.11,25.23 L252.55,25.23 L252.55,66 L242.11,66 Z M242.02,10.47 L252.55,10.47 L252.55,21 L242.02,21 L242.02,10.47 Z M269.29,66 L258.85,66 L258.85,2.91 L269.29,2.91 L269.29,66 Z M284.23,66 L273.79,66 L273.79,2.91 L284.23,2.91 L284.23,66 Z M312.04,58.53 C312.04,60.9900123 311.350007,62.8499937 309.97,64.11 C308.589993,65.3700063 306.760011,66 304.48,66 L291.34,66 C290.859998,66 290.350003,65.8800012 289.81,65.64 C289.269997,65.3999988 289,64.7700051 289,63.75 L289,48.72 C289,48.0599967 289.164998,47.5050023 289.495,47.055 C289.825002,46.6049977 290.439995,46.38 291.34,46.38 L302.05,46.38 L302.05,37.92 L298.54,37.92 L298.54,43.32 L288.73,43.32 L288.73,40.53 C288.73,38.0699877 289.479992,36.135007 290.98,34.725 C292.480007,33.314993 294.369989,32.61 296.65,32.61 L307.09,32.61 C308.890009,32.61 310.164996,32.9999961 310.915,33.78 C311.665004,34.5600039 312.04,35.8199913 312.04,37.56 L312.04,58.53 Z M299.26,60.69 L302.59,60.69 L302.59,51.69 L299.26,51.69 L299.26,60.69 Z M339.85,55.29 L339.85,58.08 C339.85,60.5400123 339.100007,62.474993 337.6,63.885 C336.099992,65.295007 334.210011,66 331.93,66 L319.69,66 C318.489994,66 317.605003,65.7300027 317.035,65.19 C316.464997,64.6499973 316.18,63.6600072 316.18,62.22 L316.18,2.91 L326.62,2.91 L326.62,19.65 L336.25,19.65 L336.25,25.05 L326.62,25.05 L326.62,60.69 L330.04,60.69 L330.04,55.29 L339.85,55.29 Z M343.09,34.5 C343.09,33.12 343.344997,32.2950013 343.855,32.025 C344.365003,31.7549987 345.129995,31.62 346.15,31.62 L358.84,31.62 C361.120011,31.62 363.009992,32.324993 364.51,33.735 C366.010007,35.1450071 366.76,37.0799877 366.76,39.54 L366.76,62.94 C366.76,63.7800042 366.445003,64.499997 365.815,65.1 C365.184997,65.700003 364.450004,66 363.61,66 L350.2,66 C348.819993,66 347.665005,65.805002 346.735,65.415 C345.804995,65.024998 345.070003,64.5150031 344.53,63.885 C343.989997,63.2549968 343.615001,62.5500039 343.405,61.77 C343.194999,60.9899961 343.09,60.2100039 343.09,59.43 L343.09,34.5 Z M356.95,36.93 L353.53,36.93 L353.53,61.41 L356.95,61.41 L356.95,36.93 Z M384.94,41.79 L384.94,36.39 L381.52,36.39 L381.52,66 L371.08,66 L371.08,31.08 L386.83,31.08 C389.110011,31.08 390.999992,31.784993 392.5,33.195 C394.000007,34.605007 394.75,36.5399877 394.75,39 L394.75,41.79 L384.94,41.79 Z" id="Terracillator" fill="#EA4F4F" fill-rule="nonzero"></path>
    </g>
</svg>