<?xml version="1.0" encoding="UTF-8"?>
<svg width="470px" height="70px" viewBox="0 0 470 70" version="1.1" xmlns="http://www.w3.org/2000/svg" xmlns:xlink="http://www.w3.org/1999/xlink">
    <!-- Generator: Sketch 58 (84663) - https://sketch.com -->
    <title>Terracillator-Logo</title>
    <desc>Created with Sketch.</desc>
    <g id="Terracillator-Logo" stroke="none" stroke-width="1" fill="none" fill-rule="evenodd">
        <path d="M6,20 L40.1796875,20 L40.1796875,26.8359375 L26.5078125,26.8359375 L26.5078125,50.7617188 L19.671875,50.7617188 L19.671875,26.8359375 L6,26.8359375 L6,20 Z M77.7773438,50.7617188 L53.8515625,50.7617188 C47.0155908,50.7617188 43.5976562,47.3437842 43.5976562,40.5078125 L43.5976562,20 L77.7773438,20 L77.7773438,26.8359375 L50.4335938,26.8359375 L50.4335938,31.9628906 L77.7773438,31.9628906 L77.7773438,38.7988281 L50.4335938,38.7988281 L50.4335938,40.5078125 C50.4335938,42.7864697 51.5729053,43.9257812 53.8515625,43.9257812 L77.7773438,43.9257812 L77.7773438,50.7617188 Z M88.03125,31.9628906 L108.539062,31.9628906 L108.539062,26.8359375 L88.03125,26.8359375 L88.03125,31.9628906 Z M88.03125,38.7988281 L88.03125,50.7617188 L81.1953125,50.7617188 L81.1953125,20 L105.121094,20 C111.957065,20 115.375,23.1217136 115.375,29.3652344 C115.375,32.3274888 114.885096,34.5035738 113.905273,35.8935547 C114.885096,37.5114013 115.375,39.6191276 115.375,42.2167969 L115.375,50.7617188 L108.539062,50.7617188 L108.539062,42.2167969 C108.539062,39.9381396 107.399751,38.7988281 105.121094,38.7988281 L88.03125,38.7988281 Z M125.628906,31.9628906 L146.136719,31.9628906 L146.136719,26.8359375 L125.628906,26.8359375 L125.628906,31.9628906 Z M125.628906,38.7988281 L125.628906,50.7617188 L118.792969,50.7617188 L118.792969,20 L142.71875,20 C149.554722,20 152.972656,23.1217136 152.972656,29.3652344 C152.972656,32.3274888 152.482752,34.5035738 151.50293,35.8935547 C152.482752,37.5114013 152.972656,39.6191276 152.972656,42.2167969 L152.972656,50.7617188 L146.136719,50.7617188 L146.136719,42.2167969 C146.136719,39.9381396 144.997407,38.7988281 142.71875,38.7988281 L125.628906,38.7988281 Z M183.734375,35.3808594 L183.734375,30.2539062 C183.734375,27.975249 182.595063,26.8359375 180.316406,26.8359375 L166.644531,26.8359375 C164.365874,26.8359375 163.226562,27.975249 163.226562,30.2539062 L163.226562,35.3808594 L183.734375,35.3808594 Z M163.226562,42.2167969 L163.226562,50.7617188 L156.390625,50.7617188 L156.390625,30.2539062 C156.390625,23.4179346 159.80856,20 166.644531,20 L180.316406,20 C187.152378,20 190.570312,23.4179346 190.570312,30.2539062 L190.570312,50.7617188 L183.734375,50.7617188 L183.734375,42.2167969 L163.226562,42.2167969 Z M228.167969,50.7617188 L204.242188,50.7617188 C197.406216,50.7617188 193.988281,47.3437842 193.988281,40.5078125 L193.988281,30.2539062 C193.988281,23.4179346 197.406216,20 204.242188,20 L228.167969,20 L228.167969,26.8359375 L204.242188,26.8359375 C201.96353,26.8359375 200.824219,27.975249 200.824219,30.2539062 L200.824219,40.5078125 C200.824219,42.7864697 201.96353,43.9257812 204.242188,43.9257812 L228.167969,43.9257812 L228.167969,50.7617188 Z M231.585938,50.7617188 L231.585938,20 L238.421875,20 L238.421875,50.7617188 L231.585938,50.7617188 Z M241.839844,20 L241.839844,40.5078125 C241.839844,47.3437842 245.257778,50.7617188 252.09375,50.7617188 L276.019531,50.7617188 L276.019531,43.9257812 L252.09375,43.9257812 C249.815093,43.9257812 248.675781,42.7864697 248.675781,40.5078125 L248.675781,20 L241.839844,20 Z M279.4375,20 L279.4375,40.5078125 C279.4375,47.3437842 282.855435,50.7617188 289.691406,50.7617188 L313.617188,50.7617188 L313.617188,43.9257812 L289.691406,43.9257812 C287.412749,43.9257812 286.273438,42.7864697 286.273438,40.5078125 L286.273438,20 L279.4375,20 Z M344.378906,35.3808594 L344.378906,30.2539062 C344.378906,27.975249 343.239595,26.8359375 340.960938,26.8359375 L327.289062,26.8359375 C325.010405,26.8359375 323.871094,27.975249 323.871094,30.2539062 L323.871094,35.3808594 L344.378906,35.3808594 Z M323.871094,42.2167969 L323.871094,50.7617188 L317.035156,50.7617188 L317.035156,30.2539062 C317.035156,23.4179346 320.453091,20 327.289062,20 L340.960938,20 C347.796909,20 351.214844,23.4179346 351.214844,30.2539062 L351.214844,50.7617188 L344.378906,50.7617188 L344.378906,42.2167969 L323.871094,42.2167969 Z M354.632812,20 L388.8125,20 L388.8125,26.8359375 L375.140625,26.8359375 L375.140625,50.7617188 L368.304688,50.7617188 L368.304688,26.8359375 L354.632812,26.8359375 L354.632812,20 Z M402.484375,50.7617188 C395.648403,50.7617188 392.230469,47.3437842 392.230469,40.5078125 L392.230469,30.2539062 C392.230469,23.4179346 395.648403,20 402.484375,20 L416.15625,20 C422.992222,20 426.410156,23.4179346 426.410156,30.2539062 L426.410156,40.5078125 C426.410156,47.3437842 423.561877,50.7617188 417.865234,50.7617188 L402.484375,50.7617188 Z M399.066406,40.5078125 C399.066406,42.7864697 400.205718,43.9257812 402.484375,43.9257812 L416.15625,43.9257812 C418.434907,43.9257812 419.574219,42.7864697 419.574219,40.5078125 L419.574219,30.2539062 C419.574219,27.975249 418.434907,26.8359375 416.15625,26.8359375 L402.484375,26.8359375 C400.205718,26.8359375 399.066406,27.975249 399.066406,30.2539062 L399.066406,40.5078125 Z M436.664062,31.9628906 L457.171875,31.9628906 L457.171875,26.8359375 L436.664062,26.8359375 L436.664062,31.9628906 Z M436.664062,38.7988281 L436.664062,50.7617188 L429.828125,50.7617188 L429.828125,20 L453.753906,20 C460.589878,20 464.007812,23.1217136 464.007812,29.3652344 C464.007812,32.3274888 463.517909,34.5035738 462.538086,35.8935547 C463.517909,37.5114013 464.007812,39.6191276 464.007812,42.2167969 L464.007812,50.7617188 L457.171875,50.7617188 L457.171875,42.2167969 C457.171875,39.9381396 456.032563,38.7988281 453.753906,38.7988281 L436.664062,38.7988281 Z" id="Terracillator" fill="#EA4F4F" fill-rule="nonzero"></path>
    </g>
</svg>