<?xml version="1.0" encoding="UTF-8"?>
<svg width="470px" height="82px" viewBox="0 0 470 82" version="1.1" xmlns="http://www.w3.org/2000/svg" xmlns:xlink="http://www.w3.org/1999/xlink">
    <!-- Generator: Sketch 58 (84663) - https://sketch.com -->
    <title>Logo</title>
    <desc>Created with Sketch.</desc>
    <g id="Logo" stroke="none" stroke-width="1" fill="none" fill-rule="evenodd">
        <path d="M161.561798,17.686747 C161.561798,21.1004187 160.682905,24.2329175 158.925094,27.0843373 C157.167282,29.9357572 154.610504,32.2650512 151.254682,34.0722892 C147.89886,35.8795271 143.903893,36.9437735 139.269663,37.2650602 L136.692884,51.7831325 C135.694127,57.3654898 132.97755,60.1566265 128.543071,60.1566265 C126.106105,60.1566265 123.858937,59.4337422 121.801498,57.9879518 C119.74406,56.5421614 118.096136,54.3333482 116.857678,51.3614458 C115.61922,48.3895434 115,44.7349614 115,40.3975904 C115,32.2449392 116.308351,25.3273377 118.925094,19.6445783 C121.541836,13.961819 125.057406,9.70483343 129.47191,6.87349398 C133.886414,4.04215452 138.750286,2.62650602 144.06367,2.62650602 C147.818995,2.62650602 151.004981,3.28915 153.621723,4.61445783 C156.238465,5.93976566 158.215973,7.73693645 159.554307,10.0060241 C160.892641,12.2751117 161.561798,14.8353271 161.561798,17.686747 Z M140.348315,31.060241 C148.538118,30.016059 152.632959,25.7389934 152.632959,18.2289157 C152.632959,15.5783 151.764054,13.419687 150.026217,11.753012 C148.288381,10.086337 145.601766,9.25301205 141.966292,9.25301205 C137.851415,9.25301205 134.265933,10.5582199 131.209738,13.1686747 C128.153543,15.7791295 125.796513,19.4035913 124.138577,24.0421687 C122.480641,28.6807461 121.651685,33.9718578 121.651685,39.9156627 C121.651685,42.4056349 121.901371,44.6144482 122.400749,46.5421687 C122.900127,48.4698892 123.539322,49.9658581 124.318352,51.0301205 C125.097382,52.0943828 125.846438,52.626506 126.565543,52.626506 C127.5643,52.626506 128.323343,51.2409777 128.842697,48.4698795 L130.820225,37.0843373 L128.826796,36.7831322 C128.740375,36.7716579 128.7257,36.771658 128.782772,36.7831325 C127.584264,36.5823283 126.805245,36.2108461 126.445693,35.6686747 C126.086141,35.1265033 125.906367,34.4337392 125.906367,33.5903614 C125.906367,32.7068229 126.156052,32.0040187 126.655431,31.4819277 C127.154809,30.9598367 127.843941,30.6987952 128.722846,30.6987952 C129.055765,30.6987952 129.319323,30.7127397 129.513525,30.7406291 L129.621723,30.7590361 C130.580529,30.9196795 131.319598,31.0200801 131.838951,31.060241 L132.192156,28.9638311 C132.675787,26.1328567 133.297125,22.6348936 134.05618,18.4698795 C134.295881,17.1044108 134.845189,16.130525 135.70412,15.5481928 C136.56305,14.9658605 137.571779,14.6746988 138.730337,14.6746988 C140.048696,14.6746988 140.9975,14.9257003 141.576779,15.4277108 C142.156058,15.9297214 142.445693,16.7228861 142.445693,17.8072289 C142.445693,18.3580062 142.416342,18.8202599 142.35764,19.194 L140.348315,31.060241 Z M190.925094,35.0963855 C191.444447,35.0963855 191.843944,35.3574271 192.123596,35.8795181 C192.403247,36.401609 192.543071,37.064253 192.543071,37.8674699 C192.543071,39.7075667 192.015265,40.8340876 190.959638,41.2470625 L190.805243,41.3012048 C188.408228,42.1445825 185.77155,42.6265054 182.895131,42.746988 C182.136076,46.1204988 180.637964,48.821275 178.400749,50.8493976 C176.163534,52.8775202 173.626731,53.8915663 170.790262,53.8915663 C168.393246,53.8915663 166.345826,53.3092428 164.64794,52.1445783 C162.950054,50.9799139 161.661677,49.4337446 160.782772,47.5060241 C159.903866,45.5783036 159.464419,43.4899711 159.464419,41.2409639 C159.464419,38.1887398 160.04369,35.4678834 161.202247,33.0783133 C162.360805,30.6887431 163.958791,28.8212919 165.996255,27.4759036 C168.033718,26.1305154 170.290874,25.4578313 172.76779,25.4578313 C175.80401,25.4578313 178.250927,26.5120377 180.108614,28.6204819 C181.966301,30.7289262 183.05493,33.3293018 183.374532,36.4216867 C185.252194,36.3012042 187.489375,35.8996018 190.086142,35.2168675 C190.405744,35.1365458 190.685392,35.0963855 190.925094,35.0963855 Z M171.269663,47.5060241 C172.548071,47.5060241 173.656674,46.983941 174.595506,45.939759 C175.534337,44.8955823 176.163544,43.3895582 176.483146,41.4216867 C175.244688,40.578309 174.295883,39.4739024 173.636704,38.1084337 C172.977525,36.7429651 172.64794,35.2971964 172.64794,33.7710843 C172.64794,33.1285108 172.707865,32.485947 172.827715,31.8433735 L172.52809,31.8433735 C170.930079,31.8433735 169.601753,32.6164581 168.543071,34.1626506 C167.484389,35.7088431 166.955056,37.8875361 166.955056,40.6987952 C166.955056,42.9076416 167.384515,44.5943717 168.243446,45.7590361 C169.102376,46.9237006 170.111105,47.5060241 171.269663,47.5060241 Z M206.086142,31.2409639 L198.775281,31.2409639 L198.70496,33.2233864 C198.675609,34.1905189 198.659303,35.013398 198.656042,35.6920325 L198.655431,35.939759 C198.655431,38.8313398 198.805242,41.0903533 199.104869,42.7168675 C199.404496,44.3433816 199.903867,45.5080286 200.602996,46.2108434 C201.302126,46.9136581 202.270905,47.2650602 203.509363,47.2650602 C204.148567,47.2650602 204.907611,47.064259 205.786517,46.6626506 C206.539865,46.3184148 207.234501,45.885667 207.870442,45.3643973 L208.183521,45.0963855 C208.622973,44.6947771 209.06242,44.4939759 209.501873,44.4939759 C209.981276,44.4939759 210.370785,44.7650575 210.670412,45.3072289 C210.970039,45.8494003 211.11985,46.5020042 211.11985,47.2650602 C211.11985,48.0281163 210.970039,48.7710807 210.670412,49.4939759 C210.370785,50.2168711 209.921351,50.8192747 209.322097,51.3012048 C207.244684,53.0281211 204.887654,53.8915663 202.250936,53.8915663 C198.455661,53.8915663 195.67916,52.2951967 193.921348,49.1024096 C192.163537,45.9096226 191.284644,41.7429976 191.284644,36.6024096 C191.284644,34.8353325 191.344569,33.0482018 191.464419,31.2409639 L189.127341,31.2409639 C187.928833,31.2409639 187.119852,31.0200825 186.700375,30.5783133 C186.280897,30.136544 186.071161,29.4337398 186.071161,28.4698795 C186.071161,26.2208723 186.970028,25.0963855 188.76779,25.0963855 L192.183521,25.0963855 C192.862675,20.6786928 193.901366,16.6425886 195.299625,12.9879518 C196.697885,9.33331506 198.385758,6.42169759 200.363296,4.25301205 C202.340834,2.08432651 204.468153,1 206.745318,1 C208.423229,1 209.741568,1.74296446 210.700375,3.22891566 C211.659181,4.71486687 212.138577,6.58231807 212.138577,8.8313253 C212.138577,15.056256 209.541849,20.4778886 204.348315,25.0963855 L211.059925,25.0963855 C211.699129,25.0963855 212.15855,25.2369464 212.438202,25.5180723 C212.717854,25.7991982 212.857678,26.3212813 212.857678,27.0843373 C212.857678,29.8554355 210.600522,31.2409639 206.086142,31.2409639 Z M205.127341,6.78313253 C204.528087,6.78313253 203.85893,7.53613705 203.11985,9.04216867 C202.38077,10.5482003 201.681651,12.6365328 201.022472,15.3072289 C200.363293,17.977925 199.813985,20.9397428 199.374532,24.1927711 C201.731597,22.1445681 203.49937,19.8453943 204.677903,17.2951807 C205.856435,14.7449672 206.445693,12.4257133 206.445693,10.3373494 C206.445693,7.96785964 206.006247,6.78313253 205.127341,6.78313253 Z M288.842697,40.1566265 C289.36205,40.1566265 289.771534,40.397588 290.071161,40.8795181 C290.370788,41.3614482 290.520599,42.0240922 290.520599,42.8674699 C290.520599,44.4337428 290.141077,45.6787102 289.382022,46.6024096 C287.46441,48.9317386 285.526851,50.7289093 283.569288,51.9939759 C281.611726,53.2590425 279.294645,53.8915663 276.617978,53.8915663 C273.661658,53.8915663 271.244704,53.018081 269.367041,51.2710843 C267.571016,49.600044 265.884671,47.0379866 264.30796,43.5848406 L264.093633,43.1084337 C262.895125,40.4578181 261.906371,38.4799262 261.127341,37.1746988 C260.348311,35.8694714 259.57928,34.9457858 258.820225,34.4036145 C258.06117,33.8614431 257.102378,33.5301211 255.94382,33.4096386 L255.284644,37.8674699 C254.445689,43.6104705 252.81774,47.7469753 250.400749,50.2771084 C247.983758,52.8072416 244.657949,54.0722892 240.423221,54.0722892 C237.666653,54.0722892 235.219736,53.3996051 233.082397,52.0542169 C230.945058,50.7088286 229.456933,48.9919783 228.617978,46.9036145 C228.338326,46.1807193 228.198502,45.3975946 228.198502,44.5542169 C228.198502,43.3493916 228.47815,42.3052253 229.037453,41.4216867 C229.596757,40.5381482 230.315851,40.0963855 231.194757,40.0963855 C231.71411,40.0963855 232.153556,40.2269063 232.513109,40.4879518 C232.872661,40.7489973 233.212233,41.2008 233.531835,41.8433735 C234.770293,44.1727024 235.858922,45.7991922 236.797753,46.7228916 C237.736584,47.646591 238.905112,48.1084337 240.303371,48.1084337 C241.901381,48.1084337 243.269657,47.3755093 244.40824,45.9096386 C245.546822,44.4437678 246.355803,42.1847542 246.835206,39.1325301 L247.674157,33.4096386 L246.715356,33.4096386 C245.7965,33.4096386 245.077406,33.148597 244.558052,32.626506 C244.038699,32.1044151 243.779026,31.3815307 243.779026,30.4578313 C243.779026,29.4136494 244.048686,28.5803244 244.588015,27.9578313 C245.127344,27.3353383 245.7965,27.0240964 246.595506,27.0240964 L248.573034,27.0240964 L249.067416,23.612952 C249.107366,23.3468884 249.142322,23.1184748 249.172285,22.9277108 L251.029963,9.37349398 C249.991256,9.25301145 249.012489,9.19277108 248.093633,9.19277108 C244.697861,9.19277108 242.121107,9.78513464 240.363296,10.9698795 C238.605484,12.1546244 237.726592,13.8513946 237.726592,16.060241 C237.726592,17.064262 237.836453,17.8775069 238.05618,18.5 C238.275906,19.1224931 238.565541,19.8152572 238.925094,20.5783133 C239.084895,20.8996 239.164794,21.2610422 239.164794,21.6626506 C239.164794,22.5461892 238.75531,23.3192738 237.93633,23.9819277 C237.117349,24.6445816 236.208494,24.9759036 235.209738,24.9759036 C233.931329,24.9759036 232.992512,24.4136602 232.393258,23.2891566 C231.194757,21.1606319 230.595506,18.8714982 230.595506,16.4216867 C230.595506,13.8915536 231.284637,11.5823398 232.662921,9.4939759 C234.041205,7.40561205 236.128575,5.72892199 238.925094,4.46385542 C241.721612,3.19878886 245.177258,2.56626506 249.292135,2.56626506 C251.089897,2.56626506 252.73782,2.66666566 254.235955,2.86746988 C255.73409,3.06827309 257.382013,3.44979639 259.179775,4.01204819 C261.137338,4.61446084 262.116105,5.73894759 262.116105,7.38554217 C262.116105,9.59438855 261.177288,10.6987952 259.299625,10.6987952 L256.962547,26.9036145 C261.636727,26.4216843 265.441933,24.4036322 268.378277,20.8493976 C271.314621,17.295163 273.761538,12.465894 275.719101,6.36144578 C276.078653,5.23694217 276.687886,4.37349699 277.546816,3.77108434 C278.405747,3.16867169 279.494375,2.86746988 280.812734,2.86746988 C281.931341,2.86746988 282.800247,3.11847139 283.419476,3.62048193 C284.038705,4.12249247 284.348315,4.83533675 284.348315,5.75903614 C284.348315,6.04016205 284.268415,6.50200482 284.108614,7.14457831 C282.111101,13.7711175 279.2547,19.032109 275.539326,22.9277108 C271.823951,26.8233127 267.769061,29.4136482 263.374532,30.6987952 C264.892642,31.0602428 266.141069,31.602406 267.11985,32.3253012 C268.098632,33.0481964 268.927587,33.9417617 269.606742,35.0060241 C270.233653,35.9884201 270.945656,37.3215511 271.742769,39.005452 L271.94382,39.4337349 C273.182278,42.0843506 274.340819,43.9618419 275.419476,45.0662651 C276.498133,46.1706883 277.756547,46.7228916 279.194757,46.7228916 C280.473165,46.7228916 281.69163,46.291169 282.850187,45.4277108 C284.008745,44.5642527 285.466908,43.0883639 287.224719,41 C287.704122,40.4377482 288.243443,40.1566265 288.842697,40.1566265 Z M311.194757,40.1566265 C311.71411,40.1566265 312.123594,40.397588 312.423221,40.8795181 C312.722848,41.3614482 312.872659,42.0240922 312.872659,42.8674699 C312.872659,44.4739036 312.493137,45.7188711 311.734082,46.6024096 C310.255923,48.4096476 308.168553,50.0762976 305.47191,51.6024096 C302.775267,53.1285141 299.888904,53.8915663 296.812734,53.8915663 C292.617957,53.8915663 289.362059,52.7469994 287.044944,50.4578313 C284.727829,48.1686633 283.569288,45.0361645 283.569288,41.060241 C283.569288,38.2891428 284.148559,35.7088473 285.307116,33.3192771 C286.465674,30.9297069 288.073648,29.0321285 290.131086,27.626506 C292.188525,26.2208765 294.515593,25.5180723 297.11236,25.5180723 C299.429475,25.5180723 301.287134,26.2108364 302.685393,27.5963855 C304.083652,28.9819346 304.782772,30.8594259 304.782772,33.2289157 C304.782772,36.0000139 303.794017,38.3795081 301.816479,40.3674699 C299.838941,42.3554316 296.493157,43.9317211 291.779026,45.0963855 C292.777783,46.9437843 294.675392,47.8674699 297.47191,47.8674699 C299.269672,47.8674699 301.317092,47.2349461 303.614232,45.9698795 C305.911372,44.704813 307.898868,43.048203 309.576779,41 C310.056182,40.4377482 310.595503,40.1566265 311.194757,40.1566265 Z M296.093633,31.4216867 C294.615473,31.4216867 293.367046,32.2851319 292.348315,34.0120482 C291.393254,35.6310322 290.885884,37.5676672 290.826194,39.8220049 L290.820225,40.3975904 C293.17729,39.8353386 295.03495,38.9919735 296.393258,37.8674699 C297.751567,36.7429663 298.430712,35.437751 298.430712,33.9518072 C298.430712,33.1887512 298.220976,32.5763075 297.801498,32.1144578 C297.38202,31.6526081 296.812734,31.4216867 296.093633,31.4216867 Z M328.992509,25.5180723 C329.911365,25.5180723 330.55056,25.638553 330.910112,25.8795181 C331.269665,26.1204831 331.449438,26.5220884 331.449438,27.0843373 L331.445543,27.2474402 C331.396205,28.3977425 330.878157,31.7770804 329.891386,37.3855422 L328.273408,47.4457831 L328.273408,47.4457831 C326.795249,57.7671199 324.757816,65.9397289 322.161049,71.9638554 C319.564282,77.9879819 316.108636,81 311.794007,81 C309.756544,81 308.098633,80.3674762 306.820225,79.1024096 C305.541816,77.8373431 304.902622,76.1807331 304.902622,74.1325301 C304.902622,72.2449705 305.332081,70.3172789 306.191011,68.3493976 C307.049942,66.3815163 308.647928,64.1225027 310.985019,61.5722892 C313.322109,59.0220756 316.627944,56.1004181 320.902622,52.8072289 L321.082397,51.4216867 L321.182756,50.8705533 C321.437801,49.4260195 321.723946,47.4812312 322.041199,45.0361446 C321.242193,47.9277253 320.123603,50.1264985 318.685393,51.6325301 C317.247184,53.1385617 315.729097,53.8915663 314.131086,53.8915663 C312.333324,53.8915663 310.865174,53.0582413 309.726592,51.3915663 C308.588009,49.7248913 308.018727,47.6465988 308.018727,45.1566265 C308.018727,42.1445633 308.218475,39.3835467 308.617978,36.873494 C309.01748,34.3634413 309.67665,31.7028253 310.595506,28.8915663 C310.995008,27.686741 311.554304,26.8232958 312.273408,26.3012048 C312.992513,25.7791139 314.131078,25.5180723 315.689139,25.5180723 C316.568044,25.5180723 317.177277,25.6586331 317.516854,25.939759 C317.856431,26.2208849 318.026217,26.6425675 318.026217,27.2048193 C318.026217,27.5261044 317.806494,28.6104325 317.367041,30.4578313 C316.967539,31.9437825 316.647941,33.2891506 316.40824,34.4939759 C316.088638,36.1405705 315.80899,37.7168599 315.569288,39.2228916 C315.329587,40.7289232 315.209738,41.9638506 315.209738,42.9277108 C315.209738,44.4538229 315.629209,45.2168675 316.468165,45.2168675 C317.067419,45.2168675 317.816475,44.6144639 318.715356,43.4096386 C319.614237,42.2048133 320.573029,40.3775223 321.59176,37.9277108 C322.483151,35.7841258 323.351589,33.2101014 324.197096,30.2055769 L324.558052,28.8915663 C324.877653,27.686741 325.367038,26.8232958 326.026217,26.3012048 C326.685397,25.7791139 327.674151,25.5180723 328.992509,25.5180723 Z M312.453184,75.1566265 C313.45194,75.1566265 314.570531,73.9919795 315.808989,71.6626506 C317.047447,69.3333217 318.285886,65.4578584 319.524345,60.0361446 C316.448174,62.6465994 314.220981,65.0260937 312.842697,67.1746988 C311.464413,69.3233039 310.775281,71.2007952 310.775281,72.8072289 C310.775281,73.4899633 310.905117,74.0522066 311.164794,74.4939759 C311.424471,74.9357452 311.85393,75.1566265 312.453184,75.1566265 Z M345.771536,55.2168675 C343.694122,55.2168675 342.106123,54.7349446 341.007491,53.7710843 C339.908858,52.8072241 339.359551,51.7228976 339.359551,50.5180723 C339.359551,49.4738904 339.739072,48.5702849 340.498127,47.8072289 C341.257182,47.0441729 342.375773,46.6626506 343.853933,46.6626506 C344.286727,46.6626506 344.781938,46.6975119 345.339574,46.7672354 L346.793539,46.9662086 C346.976123,46.9897402 347.134831,47.0090361 347.269663,47.0240964 C347.229713,45.9799145 347.000002,44.9959886 346.580524,44.0722892 C346.161047,43.1485898 345.631714,42.2550244 344.992509,41.3915663 C344.353305,40.5281081 343.75406,39.7751036 343.194757,39.1325301 C341.956298,41.5020199 340.727846,43.4698717 339.509363,45.0361446 C338.29088,46.6024175 336.962554,48.0883464 335.524345,49.4939759 C334.80524,50.2168711 334.046196,50.5783133 333.247191,50.5783133 C332.607987,50.5783133 332.088639,50.3473919 331.689139,49.8855422 C331.289636,49.4236925 331.089888,48.851409 331.089888,48.1686747 C331.089888,47.3654578 331.369535,46.6224934 331.928839,45.939759 L332.707865,44.9759036 L333.420311,44.0834416 C335.266896,41.7511437 336.68733,39.7996509 337.681648,38.2289157 C338.400753,37.0642512 339.129834,35.6787229 339.868914,34.0722892 L340.629098,32.39566 C341.235918,31.0410256 341.951311,29.4111541 342.775281,27.5060241 C343.534336,25.738947 345.112348,24.8554217 347.509363,24.8554217 C348.627971,24.8554217 349.406989,24.9558223 349.846442,25.1566265 C350.285895,25.3574297 350.505618,25.6787127 350.505618,26.1204819 C350.505618,26.3614458 350.425719,26.7429693 350.265918,27.2650602 C350.106117,27.7871512 349.886393,28.3092343 349.606742,28.8313253 C348.887637,30.2771157 348.52809,31.502003 348.52809,32.5060241 C348.52809,33.1084367 348.737826,33.7710807 349.157303,34.4939759 C349.576781,35.2168711 350.225963,36.1204765 351.104869,37.2048193 L351.672918,37.9654975 C352.674035,39.3273969 353.453469,40.5095718 354.011236,41.5120482 C354.670415,42.6967931 355,43.9919608 355,45.3975904 C355,47.0843458 354.610491,48.6807154 353.831461,50.186747 C353.052431,51.6927786 351.963802,52.9076259 350.565543,53.8313253 C349.167284,54.7550247 347.569288,55.2168675 345.771536,55.2168675 Z" id="PotKeys" fill="#52C22F" fill-rule="nonzero"></path>
    </g>
</svg>