<?xml version="1.0" encoding="UTF-8" standalone="no"?>
<!-- Created with Inkscape (http://www.inkscape.org/) -->

<svg
   xmlns:dc="http://purl.org/dc/elements/1.1/"
   xmlns:cc="http://creativecommons.org/ns#"
   xmlns:rdf="http://www.w3.org/1999/02/22-rdf-syntax-ns#"
   xmlns:svg="http://www.w3.org/2000/svg"
   xmlns="http://www.w3.org/2000/svg"
   xmlns:sodipodi="http://sodipodi.sourceforge.net/DTD/sodipodi-0.dtd"
   xmlns:inkscape="http://www.inkscape.org/namespaces/inkscape"
   viewBox="0 0 54.392418 32.242668"
   version="1.1"
   id="svg7801"
   inkscape:version="0.92.3 (2405546, 2018-03-11)"
   sodipodi:docname="2.svg">
  <defs
     id="defs7795" />
  <sodipodi:namedview
     id="base"
     pagecolor="#ffffff"
     bordercolor="#666666"
     borderopacity="1.0"
     inkscape:pageopacity="0.0"
     inkscape:pageshadow="2"
     inkscape:zoom="7.9195959"
     inkscape:cx="-7.0216302"
     inkscape:cy="21.084298"
     inkscape:document-units="mm"
     inkscape:current-layer="layer1"
     showgrid="false"
     inkscape:window-width="1920"
     inkscape:window-height="1045"
     inkscape:window-x="1920"
     inkscape:window-y="0"
     inkscape:window-maximized="1" />
  <metadata
     id="metadata7798">
    <rdf:RDF>
      <cc:Work
         rdf:about="">
        <dc:format>image/svg+xml</dc:format>
        <dc:type
           rdf:resource="http://purl.org/dc/dcmitype/StillImage" />
        <dc:title />
      </cc:Work>
    </rdf:RDF>
  </metadata>
  <g
     inkscape:label="Layer 1"
     inkscape:groupmode="layer"
     id="layer1"
     transform="translate(-246.45855,-384.44414)">
    <g
       transform="translate(202.8623,269.2608)"
       style="display:inline"
       id="g5024">
      <path
         d="m 63.76368,126.08683 h 1.054199 v -2.99206 l -1.082104,0.22324 v -0.81235 l 1.075903,-0.22325 h 1.134814 v 3.80442 h 1.0542 v 0.82476 H 63.76368 Z"
         style="font-style:normal;font-variant:normal;font-weight:bold;font-stretch:normal;font-size:6.3499999px;line-height:125%;font-family:'Noto Kufi Arabic';-inkscape-font-specification:'Noto Kufi Arabic, Bold';font-variant-ligatures:normal;font-variant-caps:normal;font-variant-numeric:normal;font-feature-settings:normal;text-align:start;letter-spacing:0px;word-spacing:0px;writing-mode:lr-tb;text-anchor:start;fill:#509eec;fill-opacity:1;stroke:none;stroke-width:0.26458332px;stroke-linecap:butt;stroke-linejoin:miter;stroke-opacity:1"
         id="path5020"
         inkscape:connector-curvature="0" />
      <rect
         y="120.86938"
         x="61.872894"
         height="7.7508163"
         width="7.2830949"
         id="rect5022"
         style="display:inline;opacity:0.98999999;fill:none;fill-opacity:1;stroke:#509eec;stroke-width:0.5;stroke-miterlimit:4;stroke-dasharray:none;stroke-opacity:1" />
    </g>
    <g
       transform="translate(174.24019,283.26276)"
       style="display:inline"
       id="g5030">
      <path
         d="m 77.730791,126.03412 h 2.037085 v 0.87747 H 76.40374 v -0.87747 l 1.68982,-1.49138 q 0.226342,-0.20464 0.334863,-0.39997 0.10852,-0.19534 0.10852,-0.40618 0,-0.32556 -0.220141,-0.524 -0.217041,-0.19844 -0.57981,-0.19844 -0.279053,0 -0.610815,0.12093 -0.331763,0.11782 -0.710034,0.35346 v -1.01699 q 0.403076,-0.13332 0.79685,-0.20154 0.393775,-0.0713 0.772046,-0.0713 0.830957,0 1.289844,0.36587 0.461987,0.36587 0.461987,1.02009 0,0.37827 -0.195337,0.70693 -0.195337,0.32557 -0.821655,0.87437 z"
         style="font-style:normal;font-variant:normal;font-weight:bold;font-stretch:normal;font-size:6.3499999px;line-height:125%;font-family:'Noto Kufi Arabic';-inkscape-font-specification:'Noto Kufi Arabic, Bold';font-variant-ligatures:normal;font-variant-caps:normal;font-variant-numeric:normal;font-feature-settings:normal;text-align:start;letter-spacing:0px;word-spacing:0px;writing-mode:lr-tb;text-anchor:start;fill:#509eec;fill-opacity:1;stroke:none;stroke-width:0.26458332px;stroke-linecap:butt;stroke-linejoin:miter;stroke-opacity:1"
         id="path5026"
         inkscape:connector-curvature="0" />
      <rect
         style="display:inline;opacity:0.98999999;fill:none;fill-opacity:1;stroke:#509eec;stroke-width:0.5;stroke-miterlimit:4;stroke-dasharray:none;stroke-opacity:1"
         id="rect5028"
         width="7.2830949"
         height="7.7508163"
         x="74.572906"
         y="120.86938" />
    </g>
    <g
       transform="translate(177.47647,283.20812)"
       style="display:inline"
       id="g5036">
      <path
         d="m 91.74131,124.41562 q 0.468189,0.12092 0.710035,0.42168 0.244946,0.29765 0.244946,0.75964 0,0.68833 -0.5271,1.048 -0.527099,0.35657 -1.53789,0.35657 -0.356568,0 -0.716236,-0.0589 -0.356567,-0.0558 -0.706933,-0.17054 v -0.92087 q 0.334863,0.16743 0.663525,0.25425 0.331763,0.0837 0.651123,0.0837 0.47439,0 0.725537,-0.16433 0.254248,-0.16433 0.254248,-0.47129 0,-0.31626 -0.260449,-0.47749 -0.257349,-0.16433 -0.762744,-0.16433 h -0.47749 v -0.76894 h 0.502295 q 0.449585,0 0.669726,-0.13953 0.220142,-0.14263 0.220142,-0.43098 0,-0.26665 -0.213941,-0.41238 -0.21394,-0.14573 -0.604614,-0.14573 -0.288354,0 -0.58291,0.0651 -0.294556,0.0651 -0.586011,0.19223 v -0.87436 q 0.353467,-0.0992 0.700733,-0.14883 0.347265,-0.0496 0.682128,-0.0496 0.902271,0 1.348755,0.29766 0.449585,0.29455 0.449585,0.88986 0,0.40618 -0.21394,0.66663 -0.213941,0.25735 -0.63252,0.36277 z"
         style="font-style:normal;font-variant:normal;font-weight:bold;font-stretch:normal;font-size:6.3499999px;line-height:125%;font-family:'Noto Kufi Arabic';-inkscape-font-specification:'Noto Kufi Arabic, Bold';font-variant-ligatures:normal;font-variant-caps:normal;font-variant-numeric:normal;font-feature-settings:normal;text-align:start;letter-spacing:0px;word-spacing:0px;writing-mode:lr-tb;text-anchor:start;fill:#509eec;fill-opacity:1;stroke:none;stroke-width:0.26458332px;stroke-linecap:butt;stroke-linejoin:miter;stroke-opacity:1"
         id="path5032"
         inkscape:connector-curvature="0" />
      <rect
         y="120.86938"
         x="87.272919"
         height="7.7508163"
         width="7.2830949"
         id="rect5034"
         style="display:inline;opacity:0.98999999;fill:none;fill-opacity:1;stroke:#509eec;stroke-width:0.5;stroke-miterlimit:4;stroke-dasharray:none;stroke-opacity:1" />
    </g>
    <g
       transform="translate(187.02809,276.36045)"
       style="display:inline"
       id="g5042">
      <path
         d="m 104.00312,123.2653 -1.30845,1.93787 h 1.30845 z m -0.19844,-0.98289 h 1.32706 v 2.92076 h 0.66043 v 0.86506 h -0.66043 v 0.84336 h -1.12862 v -0.84336 h -2.0526 v -1.02319 z"
         style="font-style:normal;font-variant:normal;font-weight:bold;font-stretch:normal;font-size:6.3499999px;line-height:125%;font-family:'Noto Kufi Arabic';-inkscape-font-specification:'Noto Kufi Arabic, Bold';font-variant-ligatures:normal;font-variant-caps:normal;font-variant-numeric:normal;font-feature-settings:normal;text-align:start;letter-spacing:0px;word-spacing:0px;writing-mode:lr-tb;text-anchor:start;fill:#509eec;fill-opacity:1;stroke:none;stroke-width:0.26458332px;stroke-linecap:butt;stroke-linejoin:miter;stroke-opacity:1"
         id="path5038"
         inkscape:connector-curvature="0" />
      <rect
         style="display:inline;opacity:0.98999999;fill:none;fill-opacity:1;stroke:#509eec;stroke-width:0.5;stroke-miterlimit:4;stroke-dasharray:none;stroke-opacity:1"
         id="rect5040"
         width="7.2830949"
         height="7.7508163"
         x="99.972931"
         y="120.86938" />
    </g>
    <path
       inkscape:connector-curvature="0"
       id="path5044"
       d="m 256.24198,407.85106 0.33073,0.0472 h 8.12649"
       style="display:inline;opacity:0.98999999;vector-effect:none;fill:none;fill-opacity:1;fill-rule:evenodd;stroke:#509eec;stroke-width:0.5;stroke-linecap:butt;stroke-linejoin:miter;stroke-miterlimit:4;stroke-dasharray:none;stroke-dashoffset:0;stroke-opacity:1" />
    <path
       inkscape:connector-curvature="0"
       id="path5046"
       d="m 272.11698,394.13989 h 5.85863 v 13.84338 h -5.85863"
       style="display:inline;opacity:0.98999999;vector-effect:none;fill:none;fill-opacity:1;fill-rule:evenodd;stroke:#509eec;stroke-width:0.5;stroke-linecap:butt;stroke-linejoin:miter;stroke-miterlimit:4;stroke-dasharray:none;stroke-dashoffset:0;stroke-opacity:1" />
    <path
       inkscape:connector-curvature="0"
       id="path5048"
       d="m 278.07111,401.08455 0.21373,-0.0461 h 8.49572"
       style="display:inline;opacity:0.98999999;vector-effect:none;fill:none;fill-opacity:1;fill-rule:evenodd;stroke:#509eec;stroke-width:0.52534163;stroke-linecap:butt;stroke-linejoin:miter;stroke-miterlimit:4;stroke-dasharray:none;stroke-dashoffset:0;stroke-opacity:1" />
    <path
       style="display:inline;opacity:0.98999999;vector-effect:none;fill:none;fill-opacity:1;fill-rule:evenodd;stroke:#509eec;stroke-width:0.39784938;stroke-linecap:butt;stroke-linejoin:miter;stroke-miterlimit:4;stroke-dasharray:none;stroke-dashoffset:0;stroke-opacity:1"
       d="m 294.36324,401.13016 0.10906,-0.0518 h 4.33524"
       id="path5050"
       inkscape:connector-curvature="0" />
  </g>
</svg>
