<?xml version="1.0" encoding="UTF-8"?>
<svg width="110px" height="70px" viewBox="0 0 110 70" version="1.1" xmlns="http://www.w3.org/2000/svg" xmlns:xlink="http://www.w3.org/1999/xlink">
    <!-- Generator: Sketch 58 (84663) - https://sketch.com -->
    <title>Algorithm/6</title>
    <desc>Created with Sketch.</desc>
    <g id="Algorithm/6" stroke="none" stroke-width="1" fill="none" fill-rule="evenodd">
        <g id="6" transform="translate(22.000000, 5.000000)">
            <g id="Operators/Line/Feedback" transform="translate(0.000000, 10.000000)" opacity="0.98999999" stroke="#C61C74">
                <g id="Group">
                    <g id="Operators/Line/Horizontal" transform="translate(2.000000, 9.000000)" stroke-width="2">
                        <path d="M0,0.5 L8,0.5" id="path4944-9"></path>
                    </g>
                    <g id="Operators/Line/Horizontal" transform="translate(1.000000, 6.500000) rotate(-90.000000) translate(-1.000000, -6.500000) translate(-3.000000, 6.000000)" stroke-width="2">
                        <path d="M0,0.5 L8,0.5" id="path4944-9"></path>
                    </g>
                    <g id="Operators/Line/Horizontal" transform="translate(4.000000, 1.500000) rotate(-180.000000) translate(-4.000000, -1.500000) translate(0.000000, 1.000000)" stroke-width="2">
                        <path d="M0,0.5 L8,0.5" id="path4944-9"></path>
                    </g>
                    <g id="Operators/Line/Horizontal" transform="translate(9.000000, 4.500000) rotate(-270.000000) translate(-9.000000, -4.500000) translate(5.000000, 4.000000)" stroke-width="2">
                        <path d="M0,0.5 L8,0.5" id="path4944-9"></path>
                    </g>
                </g>
            </g>
            <g id="Operators/Operator1" transform="translate(5.000000, 0.000000)" fill="#C61C74" opacity="0.98999999">
                <g id="Operator1">
                    <path d="M16,0 L16,16 L0,16 L0,0 L16,0 Z M9.701,3.088 L7.825,3.088 C7.74099958,3.37733478 7.63366732,3.62233233 7.503,3.823 C7.37233268,4.02366767 7.20433436,4.18233275 6.999,4.299 C6.79366564,4.41566725 6.54633478,4.49966641 6.257,4.551 C5.96766522,4.60233359 5.62233534,4.628 5.221,4.628 L5.221,4.628 L5.221,6.252 L7.097,6.252 L7.097,13 L9.701,13 L9.701,3.088 Z" id="Combined-Shape"></path>
                </g>
            </g>
            <g id="Operators/Line/Horizontal" transform="translate(21.000000, 7.500000)" opacity="0.98999999" stroke="#C61C74" stroke-width="2">
                <path d="M0,0.5 L8,0.5" id="path4944-9"></path>
            </g>
            <g id="Operators/Operator2" transform="translate(29.000000, 0.000000)" fill="#C61C74" opacity="0.98999999">
                <g id="Operator2">
                    <path d="M16,0 L16,16 L0,16 L0,0 L16,0 Z M8.133,3.088 C7.45166326,3.088 6.9010021,3.16733254 6.481,3.326 C6.0609979,3.48466746 5.7343345,3.71099853 5.501,4.005 C5.2676655,4.29900147 5.10900042,4.65366459 5.025,5.069 C4.94099958,5.48433541 4.89433338,5.94399748 4.885,6.448 L4.885,6.448 L7.321,6.448 L7.321,6.028 C7.321,5.7479986 7.34199979,5.52166753 7.384,5.349 C7.42600021,5.17633247 7.48199965,5.0433338 7.552,4.95 C7.62200035,4.8566662 7.69899958,4.79366683 7.783,4.761 C7.86700042,4.72833317 7.9556662,4.712 8.049,4.712 C8.25433436,4.712 8.41766606,4.79133254 8.539,4.95 C8.66033394,5.10866746 8.721,5.3979979 8.721,5.818 C8.721,6.1913352 8.66733387,6.49233219 8.56,6.721 C8.45266613,6.94966781 8.27300126,7.18999874 8.021,7.442 L8.021,7.442 L6.285,9.206 C5.71566382,9.79400294 5.32600105,10.3983302 5.116,11.019 C4.90599895,11.6396698 4.801,12.2999965 4.801,13 L4.801,13 L11.325,13 L11.325,11.04 L7.909,11.04 C7.9556669,10.8906659 8.04666599,10.7460007 8.182,10.606 C8.22711134,10.5593331 8.27092616,10.514222 8.31344462,10.4706665 L8.31344462,10.4706665 L8.553,10.228 L10.093,8.73 C10.4663352,8.3566648 10.7649989,7.94133562 10.989,7.484 C11.2130011,7.02666438 11.325,6.46200336 11.325,5.79 C11.325,5.4166648 11.2806671,5.0666683 11.192,4.74 C11.1033329,4.4133317 10.9400012,4.12633457 10.702,3.879 C10.4639988,3.63166543 10.1396687,3.4380007 9.729,3.298 C9.31833128,3.1579993 8.7863366,3.088 8.133,3.088 Z" id="Combined-Shape"></path>
                </g>
            </g>
            <g id="Operators/Operator3" transform="translate(29.000000, 22.000000)" fill="#C61C74" opacity="0.98999999">
                <g id="Operator3">
                    <path d="M16,0 L16,16 L0,16 L0,0 L16,0 Z M8.021,3.088 C7.00366158,3.088 6.2383359,3.33066424 5.725,3.816 C5.2116641,4.29200238 4.94100014,5.04799482 4.913,6.084 L4.913,6.084 L7.265,6.084 C7.265,5.56133072 7.31866613,5.20200098 7.426,5.006 C7.53333387,4.80999902 7.71299874,4.712 7.965,4.712 C8.18900112,4.712 8.35466613,4.78433261 8.462,4.929 C8.56933387,5.07366739 8.623,5.3559979 8.623,5.776 C8.623,6.06533478 8.5996669,6.30099909 8.553,6.483 C8.5063331,6.66500091 8.4363338,6.80733282 8.343,6.91 C8.2496662,7.01266718 8.1330007,7.08266648 7.993,7.12 C7.8529993,7.15733352 7.68500098,7.176 7.489,7.176 L7.489,7.176 L7.111,7.176 L7.111,8.8 L7.769,8.8 C8.0956683,8.8 8.33599923,8.88399916 8.49,9.052 C8.64400077,9.22000084 8.721,9.54666424 8.721,10.032 C8.721,10.3400015 8.71166676,10.5943323 8.693,10.795 C8.67433324,10.9956677 8.63933359,11.1543328 8.588,11.271 C8.53666641,11.3876673 8.4643338,11.4669998 8.371,11.509 C8.2776662,11.5510002 8.15633408,11.572 8.007,11.572 C7.7269986,11.572 7.53100056,11.4506679 7.419,11.208 C7.36299972,11.0773327 7.31866683,10.9186676 7.286,10.732 C7.25333317,10.5453324 7.237,10.3120014 7.237,10.032 L7.237,10.032 L4.801,10.032 C4.801,10.6293363 4.86633268,11.130998 4.997,11.537 C5.12766732,11.943002 5.32833198,12.2673321 5.599,12.51 C5.86966802,12.7526679 6.21266459,12.9206662 6.628,13.014 C7.04333541,13.1073338 7.5309972,13.154 8.091,13.154 C9.1643387,13.154 9.97166396,12.9090025 10.513,12.419 C11.054336,11.9289976 11.325,11.1240056 11.325,10.004 C11.325,9.46266396 11.2083345,8.99366865 10.975,8.597 C10.7416655,8.20033135 10.3356696,7.94600056 9.757,7.834 L9.757,7.834 L9.757,7.806 C10.0183346,7.74999972 10.2376658,7.6520007 10.415,7.512 C10.5923342,7.3719993 10.7346661,7.21100091 10.842,7.029 C10.9493339,6.84699909 11.0263331,6.65100105 11.073,6.441 C11.1196669,6.23099895 11.143,6.02800098 11.143,5.832 C11.143,5.39333114 11.0940005,5.00366837 10.996,4.663 C10.8979995,4.32233163 10.7300012,4.0353345 10.492,3.802 C10.2539988,3.5686655 9.93433534,3.39133394 9.533,3.27 C9.13166466,3.14866606 8.6276697,3.088 8.021,3.088 Z" id="Combined-Shape"></path>
                </g>
            </g>
            <g id="Operators/Operator4" transform="translate(29.000000, 44.000000)" fill="#C61C74" opacity="0.98999999">
                <g id="Operator4">
                    <path d="M16,0 L16,16 L0,16 L0,0 L16,0 Z M10.723,3.284 L7.895,3.284 L4.759,9.192 L4.759,11.152 L8.287,11.152 L8.287,13 L10.723,13 L10.723,11.152 L11.591,11.152 L11.591,9.276 L10.723,9.276 L10.723,3.284 Z M8.371,5.972 L8.371,9.276 L6.719,9.276 L8.343,5.972 L8.371,5.972 Z" id="Combined-Shape"></path>
                </g>
            </g>
            <g id="Group" transform="translate(45.000000, 7.000000)" stroke="#C61C74" stroke-width="2">
                <g id="Operators/Line/Horizontal" opacity="0.98999999">
                    <path d="M0,0.5 L8,0.5" id="path4944-9"></path>
                </g>
                <g id="Operators/Line/Horizontal" transform="translate(0.000000, 22.000000)" opacity="0.98999999">
                    <path d="M0,0.5 L8,0.5" id="path4944-9"></path>
                </g>
                <g id="Operators/Line/Horizontal" transform="translate(8.000000, 22.000000)" opacity="0.98999999">
                    <path d="M0,0.5 L8,0.5" id="path4944-9"></path>
                </g>
                <g id="Operators/Line/Vertical3" transform="translate(6.500000, 0.500000)" stroke-linecap="square">
                    <path d="M0.5,0 L0.5,44" id="Line"></path>
                </g>
                <g id="Operators/Line/Horizontal" transform="translate(0.000000, 44.000000)" opacity="0.98999999">
                    <path d="M0,0.5 L8,0.5" id="path4944-9"></path>
                </g>
            </g>
        </g>
    </g>
</svg>