<?xml version="1.0" encoding="UTF-8"?>
<svg width="435px" height="380px" viewBox="0 0 435 380" version="1.1" xmlns="http://www.w3.org/2000/svg" xmlns:xlink="http://www.w3.org/1999/xlink">
    <!-- Generator: Sketch 58 (84663) - https://sketch.com -->
    <title>106</title>
    <desc>Created with Sketch.</desc>
    <g id="106" stroke="none" stroke-width="1" fill="none" fill-rule="evenodd">
        <g id="bg">
            <rect id="cover" fill="#1D1D1D" x="0" y="0" width="435" height="380" rx="2"></rect>
            <g id="Logo/Panel/DarkMode" transform="translate(186.000000, 364.000000)" fill="#FFFFFF" fill-rule="nonzero">
                <g id="Logo/Print/DarkMode">
                    <path d="M1.95775432,2.29858118 L3.38562168,2.29858118 L3.38562168,4.99672234 L6.06699634,2.29858118 L7.94254488,2.29858118 L5.09623504,4.99672234 L8.08863032,8.85057471 L6.22250665,8.85057471 L4.0783494,5.98796695 L3.38562168,6.65916846 L3.38562168,8.85057471 L1.95775432,8.85057471 L1.95775432,2.29858118 Z M11.6276679,6.49470187 C11.5428437,6.54507927 11.4572353,6.5858251 11.3708403,6.61694055 C11.2844452,6.64805601 11.1658502,6.6769485 11.0150515,6.70361889 L10.7134558,6.75695941 C10.4307084,6.80437344 10.2280757,6.86215842 10.1055519,6.93031609 C9.89820375,7.04588779 9.79453125,7.2251694 9.79453125,7.46816631 C9.79453125,7.68449282 9.85814847,7.84080861 9.98538481,7.93711835 C10.1126211,8.0334281 10.2673445,8.08158226 10.4495595,8.08158226 C10.7385902,8.08158226 11.00484,8.00157228 11.248317,7.84154993 C11.4917939,7.68152758 11.618243,7.38963933 11.6276679,6.96587644 L11.6276679,6.49470187 Z M10.8124169,5.90351114 C11.0606051,5.87387737 11.2381062,5.83683571 11.3449219,5.79238506 C11.5365618,5.71533726 11.6323803,5.59532229 11.6323803,5.43233657 C11.6323803,5.23379031 11.5593383,5.09673619 11.4132522,5.02117008 C11.267166,4.94560397 11.0527524,4.90782148 10.770005,4.90782148 C10.4526995,4.90782148 10.2280758,4.98190479 10.096127,5.13007364 C10.0018779,5.23971858 9.93904603,5.3878852 9.90762965,5.57457795 L8.61171044,5.57457795 C8.63998518,5.15081505 8.76564882,4.80262349 8.98870512,4.52999282 C9.34371022,4.10326654 9.95317886,3.88990661 10.8171293,3.88990661 C11.3794825,3.88990661 11.8789955,3.99510491 12.3156832,4.20550467 C12.7523709,4.41590443 12.9707114,4.81299097 12.9707114,5.39677622 L12.9707114,7.61929777 C12.9707114,7.77339337 12.973853,7.96008331 12.9801363,8.1793732 C12.9895612,8.34532231 13.0162647,8.45792894 13.0602477,8.51719648 C13.1042306,8.57646402 13.170204,8.625359 13.2581699,8.6638829 L13.2581699,8.85057471 L11.7973155,8.85057471 C11.7564742,8.75278328 11.7281999,8.66091997 11.7124917,8.57498204 C11.6967835,8.48904411 11.6842171,8.39125414 11.6747922,8.2816092 C11.4894356,8.47126532 11.2758074,8.63276693 11.0339013,8.76611889 C10.7448706,8.92317787 10.4181451,9.00170618 10.0537151,9.00170618 C9.58875266,9.00170618 9.20469317,8.87650538 8.9015251,8.62610004 C8.59835703,8.37569469 8.44677527,8.02083563 8.44677527,7.56151221 C8.44677527,6.96587346 8.69024856,6.53470859 9.17720246,6.26800467 C9.44424169,6.1227992 9.83694056,6.01908257 10.3553108,5.95685165 L10.8124169,5.90351114 Z M15.5012882,4.00547773 L15.5012882,6.92587105 C15.5012882,7.2014651 15.5358457,7.40889837 15.6049618,7.54817708 C15.7274857,7.79413736 15.9678174,7.91711566 16.3259641,7.91711566 C16.7846433,7.91711566 17.0988023,7.74227905 17.2684508,7.39260057 C17.3564167,7.20294445 17.4003989,6.95254286 17.4003989,6.64138829 L17.4003989,4.00547773 L18.7622922,4.00547773 L18.7622922,8.85057471 L17.4569481,8.85057471 L17.4569481,8.16603807 L17.4405489,8.18737424 C17.4238355,8.21019205 17.3978858,8.24753027 17.3626995,8.29938937 C17.3124333,8.37347379 17.252743,8.4386671 17.183627,8.49497126 C16.9731372,8.67277388 16.7697192,8.79427051 16.5733669,8.8594648 C16.3770145,8.92465909 16.1468929,8.95725575 15.8829953,8.95725575 C15.1227189,8.95725575 14.6106396,8.69944583 14.346742,8.18381825 C14.199085,7.89933407 14.1252576,7.48002253 14.1252576,6.92587105 L14.1252576,4.00547773 L15.5012882,4.00547773 Z M19.5304189,4.95227191 L19.5304189,4.04992816 L20.2467088,4.04992816 L20.2467088,2.69863506 L21.575615,2.69863506 L21.575615,4.04992816 L22.4097158,4.04992816 L22.4097158,4.95227191 L21.575615,4.95227191 L21.575615,7.51261674 C21.575615,7.71116299 21.6023185,7.83488212 21.6557264,7.88377784 C21.7091342,7.93267356 21.872497,7.95712105 22.1458195,7.95712105 C22.1866608,7.95712105 22.2298577,7.95638022 22.2754114,7.95489853 C22.3209652,7.95341684 22.3657328,7.95119434 22.4097158,7.94823096 L22.4097158,8.89502514 L21.7735372,8.91725036 C21.1389263,8.937994 20.7053868,8.83427736 20.4729056,8.60609734 C20.322107,8.46089187 20.2467088,8.23716028 20.2467088,7.93489583 L20.2467088,4.95227191 L19.5304189,4.95227191 Z M25.2984375,4.92115661 C24.9874153,4.92115661 24.7462982,5.01301991 24.575079,5.19674928 C24.4038597,5.38047865 24.2962602,5.62939857 24.2522773,5.94351652 L26.3398853,5.94351652 C26.3178938,5.60865493 26.2102944,5.35454918 26.0170836,5.18119163 C25.8238729,5.00783408 25.5843266,4.92115661 25.2984375,4.92115661 Z M25.2984375,3.87657148 C25.7257003,3.87657148 26.1105452,3.95213646 26.4529837,4.10326868 C26.7954223,4.2544009 27.0781654,4.49294916 27.3012217,4.81892062 C27.5022866,5.10636818 27.6326626,5.43974307 27.6923537,5.81905532 C27.7269117,6.04130858 27.7410489,6.36134849 27.7347656,6.77918463 L24.2192902,6.77918463 C24.2381401,7.26517844 24.399932,7.60596167 24.7046709,7.80154454 C24.8900275,7.92304299 25.1130805,7.98379131 25.3738364,7.98379131 C25.6503006,7.98379131 25.8749243,7.909708 26.0477144,7.76153915 C26.1419636,7.68152798 26.2252157,7.57040301 26.2974734,7.42816092 L27.6687916,7.42816092 C27.6342335,7.71560848 27.4755832,8.00749672 27.1928358,8.30383441 C26.7530064,8.77501134 26.1372546,9.01059626 25.3455618,9.01059626 C24.6921011,9.01059626 24.1156192,8.81205299 23.6160987,8.41496049 C23.1165783,8.01786799 22.8668218,7.37186151 22.8668218,6.4769217 C22.8668218,5.63828604 23.092231,4.9952429 23.543056,4.54777299 C23.9938811,4.10030308 24.5790024,3.87657148 25.2984375,3.87657148 Z M31.4858627,3.88990661 C32.0167995,3.88990661 32.4511245,4.02103407 32.7888506,4.28329292 C33.1265767,4.54555178 33.2954372,4.98042081 33.2954372,5.58791307 L33.2954372,8.85057471 L31.9194066,8.85057471 L31.9194066,5.90351114 C31.9194066,5.64866072 31.8832783,5.45308078 31.8110206,5.31676545 C31.6790718,5.06784179 31.4277445,4.94338182 31.0570313,4.94338182 C30.6014937,4.94338182 30.2889054,5.12562677 30.119257,5.49012213 C30.0312911,5.68274162 29.9873088,5.92869822 29.9873088,6.22799928 L29.9873088,8.85057471 L28.6489777,8.85057471 L28.6489777,4.01436782 L29.9448969,4.01436782 L29.9448969,4.72112967 C30.117687,4.47220601 30.2810498,4.2929244 30.43499,4.18327945 C30.7114542,3.98769658 31.0617416,3.88990661 31.4858627,3.88990661 Z M35.9391124,3.42762213 L34.5960688,3.42762213 L34.5960688,2.25857579 L35.9391124,2.25857579 L35.9391124,3.42762213 Z M33.9504654,10.7930585 L33.9504654,9.77958872 L34.0978762,9.79004152 L34.0978762,9.79004152 L34.1106882,9.79070133 C34.1421045,9.79218302 34.1703789,9.79292385 34.195512,9.79292385 C34.3274608,9.79292385 34.4272063,9.76254969 34.4947515,9.70180047 C34.5622967,9.64105124 34.5960688,9.52325878 34.5960688,9.34841954 L34.5960688,4.02770295 L35.9391124,4.02770295 L35.9391124,9.37064476 C35.9391124,9.85960194 35.8370107,10.2211285 35.6328042,10.4552353 C35.435185,10.6817902 35.0536827,10.7987202 34.4882863,10.8060283 L34.4311336,10.8063937 C34.4077958,10.8063937 34.3780467,10.8059099 34.341886,10.8049422 L34.0479841,10.7955986 C34.0170809,10.7947519 33.9845746,10.7939052 33.9504654,10.7930585 Z M40.0483544,6.49470187 C39.9635302,6.54507927 39.8779218,6.5858251 39.7915268,6.61694055 C39.7051317,6.64805601 39.5865367,6.6769485 39.435738,6.70361889 L39.1341423,6.75695941 C38.8513949,6.80437344 38.6487622,6.86215842 38.5262384,6.93031609 C38.3188903,7.04588779 38.2152178,7.2251694 38.2152178,7.46816631 C38.2152178,7.68449282 38.278835,7.84080861 38.4060713,7.93711835 C38.5333077,8.0334281 38.688031,8.08158226 38.870246,8.08158226 C39.1592767,8.08158226 39.4255265,8.00157228 39.6690035,7.84154993 C39.9124804,7.68152758 40.0389295,7.38963933 40.0483544,6.96587644 L40.0483544,6.49470187 Z M39.2331034,5.90351114 C39.4812916,5.87387737 39.6587927,5.83683571 39.7656084,5.79238506 C39.9572483,5.71533726 40.0530668,5.59532229 40.0530668,5.43233657 C40.0530668,5.23379031 39.9800248,5.09673619 39.8339387,5.02117008 C39.6878525,4.94560397 39.4734389,4.90782148 39.1906915,4.90782148 C38.873386,4.90782148 38.6487623,4.98190479 38.5168135,5.13007364 C38.4225644,5.23971858 38.3597325,5.3878852 38.3283162,5.57457795 L37.0323969,5.57457795 C37.0606717,5.15081505 37.1863353,4.80262349 37.4093916,4.52999282 C37.7643967,4.10326654 38.3738654,3.88990661 39.2378158,3.88990661 C39.800169,3.88990661 40.299682,3.99510491 40.7363697,4.20550467 C41.1730574,4.41590443 41.3913979,4.81299097 41.3913979,5.39677622 L41.3913979,7.61929777 C41.3913979,7.77339337 41.3945395,7.96008331 41.4008228,8.1793732 C41.4102477,8.34532231 41.4369512,8.45792894 41.4809342,8.51719648 C41.5249171,8.57646402 41.5908905,8.625359 41.6788564,8.6638829 L41.6788564,8.85057471 L40.218002,8.85057471 C40.1771607,8.75278328 40.1488864,8.66091997 40.1331782,8.57498204 C40.11747,8.48904411 40.1049036,8.39125414 40.0954787,8.2816092 C39.9101221,8.47126532 39.6964939,8.63276693 39.4545878,8.76611889 C39.1655571,8.92317787 38.8388316,9.00170618 38.4744016,9.00170618 C38.0094392,9.00170618 37.6253797,8.87650538 37.3222116,8.62610004 C37.0190435,8.37569469 36.8674618,8.02083563 36.8674618,7.56151221 C36.8674618,6.96587346 37.1109351,6.53470859 37.597889,6.26800467 C37.8649282,6.1227992 38.2576271,6.01908257 38.7759973,5.95685165 L39.2331034,5.90351114 Z M44.1010472,3.43651221 L44.1010472,7.71264368 L45.4393783,7.71264368 C46.1242554,7.71264368 46.6017772,7.39408544 46.8719581,6.75695941 C47.0196151,6.40728094 47.0934425,5.99093273 47.0934425,5.5079023 C47.0934425,4.8411425 46.9827014,4.32922682 46.7612159,3.97213991 C46.5397304,3.61505299 46.0991223,3.43651221 45.4393783,3.43651221 L44.1010472,3.43651221 Z M45.6844249,2.29858118 C46.1148293,2.30450793 46.4729706,2.35192125 46.7588597,2.44082256 C47.2458136,2.59195478 47.6400833,2.86902636 47.9416805,3.27204562 C48.1835866,3.59801708 48.3485202,3.95065364 48.436486,4.32996588 C48.5244519,4.70927812 48.5684342,5.07080467 48.5684342,5.41455639 C48.5684342,6.2857892 48.3830803,7.02365897 48.012367,7.62818786 C47.5097049,8.4431165 46.733732,8.85057471 45.6844249,8.85057471 L42.6920296,8.85057471 L42.6920296,2.29858118 L45.6844249,2.29858118 Z M50.7125914,6.8280801 C50.7565744,7.12738117 50.8429681,7.35111276 50.9717753,7.49928161 C51.2073981,7.76894891 51.6110926,7.90378053 52.1828707,7.90378053 C52.5253092,7.90378053 52.80334,7.86822054 53.0169714,7.7970995 C53.4222427,7.66078416 53.6248753,7.40741924 53.6248753,7.03699713 C53.6248753,6.82067061 53.5243444,6.65324233 53.3232796,6.53470726 C53.132268,6.42491414 52.8377712,6.32715743 52.4397811,6.24143448 L51.6409408,6.07242277 C50.9183641,5.91832717 50.4188511,5.75089889 50.142387,5.5701329 C49.6742829,5.26786846 49.4402344,4.79521694 49.4402344,4.15216415 C49.4402344,3.56541553 49.6664289,3.07794734 50.1188248,2.68974497 C50.5712207,2.3015426 51.2356672,2.10744432 52.1121842,2.10744432 C52.8441858,2.10744432 53.468577,2.2904301 53.9853765,2.65640715 C54.502176,3.02238419 54.7731382,3.55356153 54.7982713,4.2499551 L53.403391,4.2499551 C53.3782579,3.85582597 53.1960456,3.57579106 52.8567487,3.40984195 C52.6305507,3.30019701 52.3493783,3.24537536 52.0132231,3.24537536 C51.6393681,3.24537536 51.340917,3.31649534 51.1178607,3.45873743 C50.8948044,3.60097952 50.7832779,3.79952279 50.7832779,4.0543732 C50.7832779,4.27783876 50.8834648,4.4472999 51.0838415,4.56276117 L51.1131483,4.57888829 C51.248867,4.65285418 51.5322436,4.73910853 51.9632861,4.83765375 L53.2148936,5.12118355 C53.7395472,5.23971862 54.1353876,5.39825691 54.4024269,5.59680316 C54.8171231,5.90499436 55.0244681,6.35097589 55.0244681,6.93476114 C55.0244681,7.53336327 54.7817802,8.03046228 54.2963971,8.4260731 C53.811014,8.82168391 53.1253618,9.01948635 52.2394199,9.01948635 C51.3346281,9.01948635 50.6230578,8.82464724 50.1046875,8.43496318 C49.5863172,8.04527912 49.327136,7.50965678 49.327136,6.8280801 L50.7125914,6.8280801 Z M60.0102227,4.38330639 C60.0102227,4.04251805 59.9151896,3.79952479 59.7251205,3.65431932 C59.5350514,3.50911386 59.2688016,3.43651221 58.926363,3.43651221 L57.5738946,3.43651221 L57.5738946,5.36566092 L58.926363,5.36566092 C59.2688016,5.36566092 59.5350514,5.28713261 59.7251205,5.13007364 C59.9151896,4.97301466 60.0102227,4.72409474 60.0102227,4.38330639 Z M61.447515,4.37441631 C61.447515,5.14785767 61.24017,5.69459251 60.8254737,6.01463721 C60.4107775,6.33468192 59.8185876,6.49470187 59.0488863,6.49470187 L57.5738946,6.49470187 L57.5738946,8.85057471 L56.13189,8.85057471 L56.13189,2.29858118 L59.1572723,2.29858118 C59.8547159,2.29858118 60.4107775,2.46749113 60.8254737,2.80531609 C61.24017,3.14314106 61.447515,3.66616923 61.447515,4.37441631 Z" id="KautenjaDSP"></path>
                </g>
            </g>
            <g id="Header" transform="translate(0.000000, 2.000000)" fill="#B3B3B3" fill-rule="nonzero">
                <path d="M202.857,3.372 L203.109,4.11 L205.539,3.282 L205.539,15 L206.457,15 L206.457,2.31 L205.737,2.31 L202.857,3.372 Z M219.957,8.682 C219.957,5.19 217.959,2.184 214.755,2.184 C211.551,2.184 209.517,5.226 209.517,8.718 C209.517,12.21 211.515,15.216 214.719,15.216 C217.923,15.216 219.957,12.174 219.957,8.682 Z M218.985,8.718 C218.985,11.67 217.365,14.37 214.755,14.37 C212.145,14.37 210.489,11.634 210.489,8.682 C210.489,5.73 212.109,3.03 214.719,3.03 C217.329,3.03 218.985,5.766 218.985,8.718 Z M231.045,3.642 C229.947,2.742 228.849,2.184 227.409,2.184 C224.277,2.184 222.279,5.208 222.279,9.024 C222.279,11.652 222.837,12.912 223.881,13.956 C224.637,14.712 225.789,15.216 227.085,15.216 C229.569,15.216 231.495,13.47 231.495,11.058 C231.495,8.79 229.479,7.224 227.157,7.224 C225.105,7.224 223.935,8.34 223.215,9.564 C223.125,5.712 224.781,3.03 227.337,3.03 C228.525,3.03 229.479,3.498 230.451,4.362 L231.045,3.642 Z M230.523,11.094 C230.523,12.894 229.191,14.37 227.157,14.37 C225.123,14.37 223.593,13.002 223.593,11.184 C223.593,9.618 225.033,8.052 227.103,8.052 C229.101,8.052 230.523,9.348 230.523,11.094 Z" id="106"></path>
            </g>
            <g id="channels" transform="translate(208.000000, 34.000000)" fill-opacity="0.5">
                <rect id="Rectangle" fill="#CA4179" x="0" y="0" width="217" height="37" rx="3"></rect>
                <rect id="Rectangle-Copy-19" fill="#DE1923" x="0" y="41" width="217" height="37" rx="3"></rect>
                <rect id="Rectangle-Copy-20" fill="#E28220" x="0" y="82" width="217" height="37" rx="3"></rect>
                <rect id="Rectangle-Copy-21" fill="#DCD715" x="1" y="123" width="217" height="37" rx="3"></rect>
                <rect id="Rectangle-Copy-22" fill="#0B7839" x="1" y="164" width="217" height="37" rx="3"></rect>
                <rect id="Rectangle-Copy-23" fill="#17999B" x="1" y="205" width="217" height="37" rx="3"></rect>
                <rect id="Rectangle-Copy-24" fill="#1E3B8C" x="1" y="246" width="217" height="37" rx="3"></rect>
                <rect id="Rectangle-Copy-25" fill="#7C2580" x="1" y="287" width="217" height="37" rx="3"></rect>
            </g>
            <g id="text" transform="translate(211.000000, 25.000000)" fill="#B3B3B3" fill-rule="nonzero">
                <path d="M186.908203,5 C185.931636,5 185.443359,4.51172363 185.443359,3.53515625 L185.443359,2.0703125 C185.443359,1.09374512 185.931636,0.60546875 186.908203,0.60546875 L188.861328,0.60546875 C189.837896,0.60546875 190.326172,1.09374512 190.326172,2.0703125 L190.326172,3.53515625 C190.326172,4.51172363 189.919275,5 189.105469,5 L186.908203,5 Z M186.419922,3.53515625 C186.419922,3.86067871 186.582681,4.0234375 186.908203,4.0234375 L188.861328,4.0234375 C189.186851,4.0234375 189.349609,3.86067871 189.349609,3.53515625 L189.349609,2.0703125 C189.349609,1.74479004 189.186851,1.58203125 188.861328,1.58203125 L186.908203,1.58203125 C186.582681,1.58203125 186.419922,1.74479004 186.419922,2.0703125 L186.419922,3.53515625 Z M190.814453,0.60546875 L190.814453,3.53515625 C190.814453,4.51172363 191.302729,5 192.279297,5 L194.232422,5 C195.208989,5 195.697266,4.51172363 195.697266,3.53515625 L195.697266,0.60546875 L194.720703,0.60546875 L194.720703,3.53515625 C194.720703,3.86067871 194.557944,4.0234375 194.232422,4.0234375 L192.279297,4.0234375 C191.953774,4.0234375 191.791016,3.86067871 191.791016,3.53515625 L191.791016,0.60546875 L190.814453,0.60546875 Z M196.185547,0.60546875 L201.068359,0.60546875 L201.068359,1.58203125 L199.115234,1.58203125 L199.115234,5 L198.138672,5 L198.138672,1.58203125 L196.185547,1.58203125 L196.185547,0.60546875 Z" id="OUT"></path>
                <path d="M151.105469,2.80273438 L151.105469,2.0703125 C151.105469,1.74479004 150.94271,1.58203125 150.617188,1.58203125 L148.664062,1.58203125 C148.33854,1.58203125 148.175781,1.74479004 148.175781,2.0703125 L148.175781,2.80273438 L151.105469,2.80273438 Z M148.175781,3.77929688 L148.175781,5 L147.199219,5 L147.199219,2.0703125 C147.199219,1.09374512 147.687495,0.60546875 148.664062,0.60546875 L150.617188,0.60546875 C151.593755,0.60546875 152.082031,1.09374512 152.082031,2.0703125 L152.082031,5 L151.105469,5 L151.105469,3.77929688 L148.175781,3.77929688 Z M156.476562,0.60546875 C157.45313,0.60546875 157.941406,1.09374512 157.941406,2.0703125 L157.941406,5 L156.964844,5 L156.964844,2.0703125 C156.964844,1.74479004 156.802085,1.58203125 156.476562,1.58203125 L155.744141,1.58203125 L155.744141,5 L154.767578,5 L154.767578,1.58203125 L153.546875,1.58203125 L153.546875,5 L152.570312,5 L152.570312,0.60546875 L156.476562,0.60546875 Z M161.847656,0.60546875 C162.824224,0.60546875 163.3125,1.05468301 163.3125,1.953125 C163.3125,2.84505654 162.824224,3.29101562 161.847656,3.29101562 L159.40625,3.29101562 L159.40625,5 L158.429688,5 L158.429688,0.60546875 L161.847656,0.60546875 Z M162.335938,1.58203125 L159.40625,1.58203125 L159.40625,2.31445312 L162.335938,2.31445312 L162.335938,1.58203125 Z" id="AMP"></path>
                <path d="M116.791016,2.80273438 L116.791016,2.0703125 C116.791016,1.74479004 116.628257,1.58203125 116.302734,1.58203125 L114.349609,1.58203125 C114.024087,1.58203125 113.861328,1.74479004 113.861328,2.0703125 L113.861328,2.80273438 L116.791016,2.80273438 Z M113.861328,3.77929688 L113.861328,5 L112.884766,5 L112.884766,2.0703125 C112.884766,1.09374512 113.373042,0.60546875 114.349609,0.60546875 L116.302734,0.60546875 C117.279302,0.60546875 117.767578,1.09374512 117.767578,2.0703125 L117.767578,5 L116.791016,5 L116.791016,3.77929688 L113.861328,3.77929688 Z M118.255859,5 L118.255859,0.60546875 L122.162109,0.60546875 C123.138677,0.60546875 123.626953,1.09374512 123.626953,2.0703125 L123.626953,5 L122.650391,5 L122.650391,2.0703125 C122.650391,1.74479004 122.487632,1.58203125 122.162109,1.58203125 L121.429688,1.58203125 L121.429688,5 L120.453125,5 L120.453125,1.58203125 L119.232422,1.58203125 L119.232422,5 L118.255859,5 Z" id="AM"></path>
                <path d="M70.0019531,5 L70.0019531,0.60546875 L74.3964844,0.60546875 L74.3964844,1.58203125 L70.9785156,1.58203125 L70.9785156,2.31445312 L73.4199219,2.31445312 L73.4199219,3.29101562 L70.9785156,3.29101562 L70.9785156,5 L70.0019531,5 Z M75.8613281,2.31445312 L78.7910156,2.31445312 L78.7910156,1.58203125 L75.8613281,1.58203125 L75.8613281,2.31445312 Z M75.8613281,3.29101562 L75.8613281,5 L74.8847656,5 L74.8847656,0.60546875 L78.3027344,0.60546875 C79.2793018,0.60546875 79.7675781,1.05142783 79.7675781,1.94335938 C79.7675781,2.36653857 79.6975918,2.67740786 79.5576172,2.87597656 C79.6975918,3.10709751 79.7675781,3.40820127 79.7675781,3.77929688 L79.7675781,5 L78.7910156,5 L78.7910156,3.77929688 C78.7910156,3.45377441 78.6282568,3.29101562 78.3027344,3.29101562 L75.8613281,3.29101562 Z M85.1386719,5 L81.7207031,5 C80.7441357,5 80.2558594,4.51172363 80.2558594,3.53515625 L80.2558594,0.60546875 L85.1386719,0.60546875 L85.1386719,1.58203125 L81.2324219,1.58203125 L81.2324219,2.31445312 L85.1386719,2.31445312 L85.1386719,3.29101562 L81.2324219,3.29101562 L81.2324219,3.53515625 C81.2324219,3.86067871 81.3951807,4.0234375 81.7207031,4.0234375 L85.1386719,4.0234375 L85.1386719,5 Z M89.0449219,4.0234375 C89.3704443,4.0234375 89.5332031,3.86067871 89.5332031,3.53515625 L89.5332031,2.0703125 C89.5332031,1.74479004 89.3704443,1.58203125 89.0449219,1.58203125 L87.0917969,1.58203125 C86.7662744,1.58203125 86.6035156,1.74479004 86.6035156,2.0703125 L86.6035156,3.53515625 C86.6035156,3.86067871 86.7662744,4.0234375 87.0917969,4.0234375 L89.0449219,4.0234375 Z M87.0917969,5 C86.1152295,5 85.6269531,4.51172363 85.6269531,3.53515625 L85.6269531,2.0703125 C85.6269531,1.09374512 86.1152295,0.60546875 87.0917969,0.60546875 L89.0449219,0.60546875 C90.0214893,0.60546875 90.5097656,1.09374512 90.5097656,2.0703125 L90.5097656,5 L87.0917969,5 Z" id="FREQ"></path>
                <path d="M38.1289062,5 L38.1289062,0.60546875 L42.5234375,0.60546875 L42.5234375,1.58203125 L39.1054688,1.58203125 L39.1054688,2.31445312 L41.546875,2.31445312 L41.546875,3.29101562 L39.1054688,3.29101562 L39.1054688,5 L38.1289062,5 Z M43.0117188,5 L43.0117188,0.60546875 L46.9179688,0.60546875 C47.8945361,0.60546875 48.3828125,1.09374512 48.3828125,2.0703125 L48.3828125,5 L47.40625,5 L47.40625,2.0703125 C47.40625,1.74479004 47.2434912,1.58203125 46.9179688,1.58203125 L46.1855469,1.58203125 L46.1855469,5 L45.2089844,5 L45.2089844,1.58203125 L43.9882812,1.58203125 L43.9882812,5 L43.0117188,5 Z" id="FM"></path>
                <path d="M1.53710938,0.60546875 L1.53710938,5 L4.95507812,5 C5.93164551,5 6.41992188,4.51172363 6.41992188,3.53515625 L6.41992188,0.60546875 L5.44335938,0.60546875 L5.44335938,3.53515625 C5.44335938,3.86067871 5.28060059,4.0234375 4.95507812,4.0234375 L2.51367188,4.0234375 L2.51367188,0.60546875 L1.53710938,0.60546875 Z M6.90820312,5 L7.88476562,0.60546875 L8.86132812,0.60546875 L7.88476562,5 L6.90820312,5 Z M10.8144531,5 C9.83788574,5 9.34960938,4.51172363 9.34960938,3.53515625 L9.34960938,2.0703125 C9.34960938,1.09374512 9.83788574,0.60546875 10.8144531,0.60546875 L12.7675781,0.60546875 C13.7441455,0.60546875 14.2324219,1.09374512 14.2324219,2.0703125 L14.2324219,3.53515625 C14.2324219,4.51172363 13.8255249,5 13.0117188,5 L10.8144531,5 Z M10.3261719,3.53515625 C10.3261719,3.86067871 10.4889307,4.0234375 10.8144531,4.0234375 L12.7675781,4.0234375 C13.0931006,4.0234375 13.2558594,3.86067871 13.2558594,3.53515625 L13.2558594,2.0703125 C13.2558594,1.74479004 13.0931006,1.58203125 12.7675781,1.58203125 L10.8144531,1.58203125 C10.4889307,1.58203125 10.3261719,1.74479004 10.3261719,2.0703125 L10.3261719,3.53515625 Z M19.6035156,5 L16.1855469,5 C15.2089795,5 14.7207031,4.51172363 14.7207031,3.53515625 L14.7207031,2.0703125 C14.7207031,1.09374512 15.2089795,0.60546875 16.1855469,0.60546875 L19.6035156,0.60546875 L19.6035156,1.58203125 L16.1855469,1.58203125 C15.8600244,1.58203125 15.6972656,1.74479004 15.6972656,2.0703125 L15.6972656,3.53515625 C15.6972656,3.86067871 15.8600244,4.0234375 16.1855469,4.0234375 L19.6035156,4.0234375 L19.6035156,5 Z M20.0917969,0.60546875 L24.9746094,0.60546875 L24.9746094,1.58203125 L23.0214844,1.58203125 L23.0214844,5 L22.0449219,5 L22.0449219,1.58203125 L20.0917969,1.58203125 L20.0917969,0.60546875 Z" id="V/OCT"></path>
            </g>
            <g id="globals" transform="translate(152.000000, 25.000000)">
                <g id="wavetable" transform="translate(0.000000, 170.000000)">
                    <rect id="Rectangle-Copy-26" fill-opacity="0.2" fill="#D8D8D8" x="0" y="11" width="50" height="152" rx="3"></rect>
                    <path d="M27,39.5 L24,39.5 L24,43.5 L27,43.5 L27,39.5 Z M27,45.5 L24,45.5 L24,49.5 L27,49.5 L27,45.5 Z M27,51.5 L24,51.5 L24,55.5 L27,55.5 L27,51.5 Z M27,57.5 L24,57.5 L24,61.5 L27,61.5 L27,57.5 Z M27,63.5 L24,63.5 L24,67.5 L27,67.5 L27,63.5 Z M27,69.5 L24,69.5 L24,73.5 L27,73.5 L27,69.5 Z M27,75.5 L24,75.5 L24,79.5 L27,79.5 L27,75.5 Z M27,81.5 L24,81.5 L24,85.5 L27,85.5 L27,81.5 Z M27,87.5 L24,87.5 L24,91.5 L27,91.5 L27,87.5 Z M27,93.5 L24,93.5 L24,97.5 L27,97.5 L27,93.5 Z M27,99.5 L24,99.5 L24,103.5 L27,103.5 L27,99.5 Z M27,105.5 L24,105.5 L24,109.5 L27,109.5 L27,105.5 Z M27,111.5 L24,111.5 L24,115.5 L27,115.5 L27,111.5 Z M27,117.5 L24,117.5 L24,121.5 L27,121.5 L27,117.5 Z M27,123.5 L24,123.5 L24,127.5 L27,127.5 L27,123.5 Z M27,129.5 L24,129.5 L24,133.5 L27,133.5 L27,129.5 Z M27,135.5 L24,135.5 L24,139.5 L27,139.5 L27,135.5 Z" id="Line-Copy-3" fill="#B3B3B3" fill-rule="nonzero"></path>
                    <path d="M1.0859375,0.60546875 L1.0859375,3.53515625 C1.0859375,4.51172363 1.57421387,5 2.55078125,5 L6.45703125,5 L6.45703125,0.60546875 L5.48046875,0.60546875 L5.48046875,4.0234375 L4.25976562,4.0234375 L4.25976562,0.60546875 L3.28320312,0.60546875 L3.28320312,4.0234375 L2.55078125,4.0234375 C2.22525879,4.0234375 2.0625,3.86067871 2.0625,3.53515625 L2.0625,0.60546875 L1.0859375,0.60546875 Z M10.8515625,2.80273438 L10.8515625,2.0703125 C10.8515625,1.74479004 10.6888037,1.58203125 10.3632812,1.58203125 L8.41015625,1.58203125 C8.08463379,1.58203125 7.921875,1.74479004 7.921875,2.0703125 L7.921875,2.80273438 L10.8515625,2.80273438 Z M7.921875,3.77929688 L7.921875,5 L6.9453125,5 L6.9453125,2.0703125 C6.9453125,1.09374512 7.43358887,0.60546875 8.41015625,0.60546875 L10.3632812,0.60546875 C11.3398486,0.60546875 11.828125,1.09374512 11.828125,2.0703125 L11.828125,5 L10.8515625,5 L10.8515625,3.77929688 L7.921875,3.77929688 Z M12.3164062,0.60546875 L12.3164062,5 L15.734375,5 C16.7109424,5 17.1992188,4.51172363 17.1992188,3.53515625 L17.1992188,0.60546875 L16.2226562,0.60546875 L16.2226562,3.53515625 C16.2226562,3.86067871 16.0598975,4.0234375 15.734375,4.0234375 L13.2929688,4.0234375 L13.2929688,0.60546875 L12.3164062,0.60546875 Z M22.5703125,5 L19.1523438,5 C18.1757764,5 17.6875,4.51172363 17.6875,3.53515625 L17.6875,0.60546875 L22.5703125,0.60546875 L22.5703125,1.58203125 L18.6640625,1.58203125 L18.6640625,2.31445312 L22.5703125,2.31445312 L22.5703125,3.29101562 L18.6640625,3.29101562 L18.6640625,3.53515625 C18.6640625,3.86067871 18.8268213,4.0234375 19.1523438,4.0234375 L22.5703125,4.0234375 L22.5703125,5 Z M23.0585938,0.60546875 L27.9414062,0.60546875 L27.9414062,1.58203125 L25.9882812,1.58203125 L25.9882812,5 L25.0117188,5 L25.0117188,1.58203125 L23.0585938,1.58203125 L23.0585938,0.60546875 Z M32.3359375,2.80273438 L32.3359375,2.0703125 C32.3359375,1.74479004 32.1731787,1.58203125 31.8476562,1.58203125 L29.8945312,1.58203125 C29.5690088,1.58203125 29.40625,1.74479004 29.40625,2.0703125 L29.40625,2.80273438 L32.3359375,2.80273438 Z M29.40625,3.77929688 L29.40625,5 L28.4296875,5 L28.4296875,2.0703125 C28.4296875,1.09374512 28.9179639,0.60546875 29.8945312,0.60546875 L31.8476562,0.60546875 C32.8242236,0.60546875 33.3125,1.09374512 33.3125,2.0703125 L33.3125,5 L32.3359375,5 L32.3359375,3.77929688 L29.40625,3.77929688 Z M34.7773438,2.31445312 L37.7070312,2.31445312 L37.7070312,1.58203125 L34.7773438,1.58203125 L34.7773438,2.31445312 Z M34.7773438,4.0234375 L37.7070312,4.0234375 L37.7070312,3.29101562 L34.7773438,3.29101562 L34.7773438,4.0234375 Z M33.8007812,5 L33.8007812,0.60546875 L37.21875,0.60546875 C38.1953174,0.60546875 38.6835938,1.04817266 38.6835938,1.93359375 C38.6835938,2.29492368 38.6054695,2.58463433 38.4492188,2.80273438 C38.6054695,3.0175792 38.6835938,3.30566226 38.6835938,3.66699219 C38.6835938,4.55566851 38.1953174,5 37.21875,5 L33.8007812,5 Z M39.171875,0.60546875 L39.171875,3.53515625 C39.171875,4.51172363 39.6601514,5 40.6367188,5 L44.0546875,5 L44.0546875,4.0234375 L40.6367188,4.0234375 C40.3111963,4.0234375 40.1484375,3.86067871 40.1484375,3.53515625 L40.1484375,0.60546875 L39.171875,0.60546875 Z M49.4257812,5 L46.0078125,5 C45.0312451,5 44.5429688,4.51172363 44.5429688,3.53515625 L44.5429688,0.60546875 L49.4257812,0.60546875 L49.4257812,1.58203125 L45.5195312,1.58203125 L45.5195312,2.31445312 L49.4257812,2.31445312 L49.4257812,3.29101562 L45.5195312,3.29101562 L45.5195312,3.53515625 C45.5195312,3.86067871 45.68229,4.0234375 46.0078125,4.0234375 L49.4257812,4.0234375 L49.4257812,5 Z" id="WAVETABLE" fill="#B3B3B3" fill-rule="nonzero"></path>
                </g>
                <g id="channels">
                    <rect id="Rectangle" fill-opacity="0.2" fill="#D8D8D8" x="0" y="9" width="50" height="152" rx="3"></rect>
                    <path d="M27,39 L24,39 L24,43 L27,43 L27,39 Z M27,45 L24,45 L24,49 L27,49 L27,45 Z M27,51 L24,51 L24,55 L27,55 L27,51 Z M27,57 L24,57 L24,61 L27,61 L27,57 Z M27,63 L24,63 L24,67 L27,67 L27,63 Z M27,69 L24,69 L24,73 L27,73 L27,69 Z M27,75 L24,75 L24,79 L27,79 L27,75 Z M27,81 L24,81 L24,85 L27,85 L27,81 Z M27,87 L24,87 L24,91 L27,91 L27,87 Z M27,93 L24,93 L24,97 L27,97 L27,93 Z M27,99 L24,99 L24,103 L27,103 L27,99 Z M27,105 L24,105 L24,109 L27,109 L27,105 Z M27,111 L24,111 L24,115 L27,115 L27,111 Z M27,117 L24,117 L24,121 L27,121 L27,117 Z M27,123 L24,123 L24,127 L27,127 L27,123 Z M27,129 L24,129 L24,133 L27,133 L27,129 Z M27,135 L24,135 L24,139 L27,139 L27,135 Z" id="Line-Copy-2" fill="#B3B3B3" fill-rule="nonzero"></path>
                    <path d="M8.3984375,5 L4.98046875,5 C4.00390137,5 3.515625,4.51172363 3.515625,3.53515625 L3.515625,2.0703125 C3.515625,1.09374512 4.00390137,0.60546875 4.98046875,0.60546875 L8.3984375,0.60546875 L8.3984375,1.58203125 L4.98046875,1.58203125 C4.65494629,1.58203125 4.4921875,1.74479004 4.4921875,2.0703125 L4.4921875,3.53515625 C4.4921875,3.86067871 4.65494629,4.0234375 4.98046875,4.0234375 L8.3984375,4.0234375 L8.3984375,5 Z M8.88671875,5 L8.88671875,0.60546875 L9.86328125,0.60546875 L9.86328125,2.31445312 L12.7929688,2.31445312 L12.7929688,0.60546875 L13.7695312,0.60546875 L13.7695312,5 L12.7929688,5 L12.7929688,3.29101562 L9.86328125,3.29101562 L9.86328125,5 L8.88671875,5 Z M18.1640625,2.80273438 L18.1640625,2.0703125 C18.1640625,1.74479004 18.0013037,1.58203125 17.6757812,1.58203125 L15.7226562,1.58203125 C15.3971338,1.58203125 15.234375,1.74479004 15.234375,2.0703125 L15.234375,2.80273438 L18.1640625,2.80273438 Z M15.234375,3.77929688 L15.234375,5 L14.2578125,5 L14.2578125,2.0703125 C14.2578125,1.09374512 14.7460889,0.60546875 15.7226562,0.60546875 L17.6757812,0.60546875 C18.6523486,0.60546875 19.140625,1.09374512 19.140625,2.0703125 L19.140625,5 L18.1640625,5 L18.1640625,3.77929688 L15.234375,3.77929688 Z M19.6289062,5 L19.6289062,0.60546875 L23.046875,0.60546875 C24.0234424,0.60546875 24.5117188,1.09374512 24.5117188,2.0703125 L24.5117188,5 L23.5351562,5 L23.5351562,2.0703125 C23.5351562,1.74479004 23.3723975,1.58203125 23.046875,1.58203125 L20.6054688,1.58203125 L20.6054688,5 L19.6289062,5 Z M25,5 L25,0.60546875 L28.4179688,0.60546875 C29.3945361,0.60546875 29.8828125,1.09374512 29.8828125,2.0703125 L29.8828125,5 L28.90625,5 L28.90625,2.0703125 C28.90625,1.74479004 28.7434912,1.58203125 28.4179688,1.58203125 L25.9765625,1.58203125 L25.9765625,5 L25,5 Z M35.2539062,5 L31.8359375,5 C30.8593701,5 30.3710938,4.51172363 30.3710938,3.53515625 L30.3710938,0.60546875 L35.2539062,0.60546875 L35.2539062,1.58203125 L31.3476562,1.58203125 L31.3476562,2.31445312 L35.2539062,2.31445312 L35.2539062,3.29101562 L31.3476562,3.29101562 L31.3476562,3.53515625 C31.3476562,3.86067871 31.510415,4.0234375 31.8359375,4.0234375 L35.2539062,4.0234375 L35.2539062,5 Z M35.7421875,0.60546875 L35.7421875,3.53515625 C35.7421875,4.51172363 36.2304639,5 37.2070312,5 L40.625,5 L40.625,4.0234375 L37.2070312,4.0234375 C36.8815088,4.0234375 36.71875,3.86067871 36.71875,3.53515625 L36.71875,0.60546875 L35.7421875,0.60546875 Z M41.1132812,5 L41.1132812,4.0234375 L45.0195312,4.0234375 L45.0195312,3.29101562 L42.578125,3.29101562 C41.6015576,3.29101562 41.1132812,2.84993931 41.1132812,1.96777344 C41.1132812,1.05956577 41.6015576,0.60546875 42.578125,0.60546875 L45.9960938,0.60546875 L45.9960938,1.58203125 L42.0898438,1.58203125 L42.0898438,2.31445312 L44.53125,2.31445312 C45.5078174,2.31445312 45.9960938,2.76203979 45.9960938,3.65722656 C45.9960938,4.55241333 45.5078174,5 44.53125,5 L41.1132812,5 Z" id="CHANNELS" fill="#B3B3B3" fill-rule="nonzero"></path>
                </g>
            </g>
        </g>
    </g>
</svg>