<?xml version="1.0" encoding="UTF-8"?>
<svg width="435px" height="380px" viewBox="0 0 435 380" version="1.1" xmlns="http://www.w3.org/2000/svg" xmlns:xlink="http://www.w3.org/1999/xlink">
    <!-- Generator: Sketch 58 (84663) - https://sketch.com -->
    <title>106</title>
    <desc>Created with Sketch.</desc>
    <g id="106" stroke="none" stroke-width="1" fill="none" fill-rule="evenodd">
        <g id="bg">
            <rect id="Background" fill="#404040" fill-rule="nonzero" x="0" y="0" width="435" height="380" rx="1"></rect>
            <g id="leads" transform="translate(2.000000, 5.000000)" fill="#E0D9C5">
                <rect id="Rectangle" x="0" y="0" width="431" height="10" rx="2"></rect>
                <rect id="Rectangle-Copy" x="0" y="20" width="431" height="10" rx="2"></rect>
                <rect id="Rectangle-Copy-3" x="0" y="40" width="431" height="10" rx="2"></rect>
                <rect id="Rectangle-Copy-2" x="0" y="60" width="431" height="10" rx="2"></rect>
                <rect id="Rectangle-Copy-7" x="0" y="140" width="431" height="10" rx="2"></rect>
                <rect id="Rectangle-Copy-6" x="0" y="80" width="431" height="10" rx="2"></rect>
                <rect id="Rectangle-Copy-5" x="0" y="100" width="431" height="10" rx="2"></rect>
                <rect id="Rectangle-Copy-4" x="0" y="120" width="431" height="10" rx="2"></rect>
                <rect id="Rectangle-Copy-15" x="0" y="160" width="431" height="10" rx="2"></rect>
                <rect id="Rectangle-Copy-14" x="0" y="180" width="431" height="10" rx="2"></rect>
                <rect id="Rectangle-Copy-13" x="0" y="200" width="431" height="10" rx="2"></rect>
                <rect id="Rectangle-Copy-12" x="0" y="220" width="431" height="10" rx="2"></rect>
                <rect id="Rectangle-Copy-11" x="0" y="300" width="431" height="10" rx="2"></rect>
                <rect id="Rectangle-Copy-10" x="0" y="240" width="431" height="10" rx="2"></rect>
                <rect id="Rectangle-Copy-9" x="0" y="260" width="431" height="10" rx="2"></rect>
                <rect id="Rectangle-Copy-8" x="0" y="280" width="431" height="10" rx="2"></rect>
                <rect id="Rectangle-Copy-18" x="0" y="320" width="431" height="10" rx="2"></rect>
                <rect id="Rectangle-Copy-17" x="0" y="340" width="431" height="10" rx="2"></rect>
                <rect id="Rectangle-Copy-16" x="0" y="360" width="431" height="10" rx="2"></rect>
            </g>
            <rect id="cover" fill="#1D1D1D" x="5" y="0" width="425" height="380" rx="2"></rect>
            <g id="KautenjaDSP/bottom/white" transform="translate(194.000000, 364.000000)" fill="#FFFFFF">
                <g id="Group-3">
                    <path d="M-2.13162821e-14,0.17 L-2.13162821e-14,7.31 L1.57,7.31 L1.57,5.01 L2.47,4.1 L4.62,7.31 L6.59,7.31 L3.53,2.99 L6.32,0.17 L4.36,0.17 L1.57,3.13 L1.57,0.17 L-2.13162821e-14,0.17 Z M7.01,3.73 C7.0300001,3.396665 7.1133326,3.1200011 7.26,2.9 C7.4066674,2.6799989 7.5933322,2.503334 7.82,2.37 C8.0466678,2.236666 8.30166525,2.14166695 8.585,2.085 C8.86833475,2.02833305 9.1533319,2 9.44,2 C9.7000013,2 9.963332,2.01833315 10.23,2.055 C10.496668,2.09166685 10.7399989,2.1633328 10.96,2.27 C11.1800011,2.3766672 11.3599993,2.52499905 11.5,2.715 C11.6400007,2.90500095 11.71,3.1566651 11.71,3.47 L11.71,6.16 C11.71,6.3933345 11.7233332,6.6166656 11.75,6.83 C11.7766668,7.0433344 11.823333,7.2033328 11.89,7.31 L10.45,7.31 C10.4233332,7.2299996 10.4016667,7.14833375 10.385,7.065 C10.3683332,6.98166625 10.3566667,6.8966671 10.35,6.81 C10.1233322,7.0433345 9.8566682,7.2066662 9.55,7.3 C9.2433318,7.3933338 8.9300016,7.44 8.61,7.44 C8.3633321,7.44 8.1333344,7.4100003 7.92,7.35 C7.7066656,7.2899997 7.5200008,7.1966673 7.36,7.07 C7.1999992,6.9433327 7.07500045,6.7833343 6.985,6.59 C6.89499955,6.3966657 6.85,6.166668 6.85,5.9 C6.85,5.6066652 6.90166615,5.36500095 7.005,5.175 C7.10833385,4.98499905 7.24166585,4.8333339 7.405,4.72 C7.56833415,4.6066661 7.75499895,4.52166695 7.965,4.465 C8.17500105,4.40833305 8.3866656,4.3633335 8.6,4.33 L8.91750001,4.28499998 L8.91750001,4.28499998 L9.23,4.25 C9.4366677,4.2299999 9.6199992,4.2000002 9.78,4.16 C9.9400008,4.1199998 10.0666662,4.06166705 10.16,3.985 C10.2533338,3.90833295 10.2966667,3.7966674 10.29,3.65 C10.29,3.4966659 10.2650002,3.37500045 10.215,3.285 C10.1649997,3.19499955 10.0983337,3.12500025 10.015,3.075 C9.93166625,3.02499975 9.83500055,2.99166675 9.725,2.975 C9.61499945,2.95833325 9.4966673,2.95 9.37,2.95 C9.0899986,2.95 8.8700008,3.0099994 8.71,3.13 C8.5499992,3.2500006 8.4566668,3.4499986 8.43,3.73 L7.01,3.73 Z M10.29,4.78 C10.2299997,4.8333336 10.1550004,4.87499985 10.065,4.905 C9.97499955,4.93500015 9.87833385,4.9599999 9.775,4.98 L9.61625002,5.00750001 L9.61625002,5.00750001 L9.45,5.03 C9.3366661,5.0433334 9.2233339,5.0599999 9.11,5.08 C9.0033328,5.1000001 8.89833385,5.1266665 8.795,5.16 C8.69166615,5.1933335 8.60166705,5.23833305 8.525,5.295 C8.44833295,5.35166695 8.3866669,5.4233329 8.34,5.51 C8.2933331,5.5966671 8.27,5.706666 8.27,5.84 C8.27,5.9666673 8.2933331,6.0733329 8.34,6.16 C8.3866669,6.2466671 8.4499996,6.31499975 8.53,6.365 C8.6100004,6.41500025 8.7033328,6.4499999 8.81,6.47 C8.9166672,6.4900001 9.0266661,6.5 9.14,6.5 C9.4200014,6.5 9.6366659,6.4533338 9.79,6.36 C9.9433341,6.2666662 10.0566663,6.15500065 10.13,6.025 C10.2033337,5.89499935 10.2483332,5.763334 10.265,5.63 L10.2872222,5.39888892 C10.2890741,5.3662964 10.29,5.3366668 10.29,5.31 L10.29,4.78 Z M17.66,7.31 L17.66,2.14 L16.24,2.14 L16.24,4.85 C16.24,5.3766693 16.1533342,5.75499885 15.98,5.985 C15.8066658,6.21500115 15.5266686,6.33 15.14,6.33 C14.7999983,6.33 14.563334,6.22500105 14.43,6.015 C14.296666,5.80499895 14.23,5.4866688 14.23,5.06 L14.23,2.14 L12.81,2.14 L12.81,5.32 C12.81,5.64 12.838333,5.93166535 12.895,6.195 C12.9516669,6.45833465 13.0499993,6.68166575 13.19,6.865 C13.3300007,7.04833425 13.5216654,7.1899995 13.765,7.29 C14.0083345,7.3900005 14.3199981,7.44 14.7,7.44 C15.0000015,7.44 15.2933319,7.373334 15.58,7.24 C15.8666681,7.106666 16.0999991,6.8900015 16.28,6.59 L16.31,6.59 L16.31,7.31 L17.66,7.31 Z M20.54,2.14 L20.54,0.59 L19.12,0.59 L19.12,2.14 L18.26,2.14 L18.26,3.09 L19.12,3.09 L19.12,6.14 C19.12,6.4000013 19.1633329,6.6099992 19.25,6.77 C19.3366671,6.9300008 19.4549992,7.0533329 19.605,7.14 C19.7550007,7.2266671 19.9283323,7.28499985 20.125,7.315 C20.3216676,7.34500015 20.5299989,7.36 20.75,7.36 C20.8900007,7.36 21.0333326,7.3566667 21.18,7.35 C21.3266674,7.3433333 21.4599994,7.3300001 21.58,7.31 L21.58,6.21 C21.513333,6.2233334 21.4433337,6.2333333 21.37,6.24 C21.2966663,6.2466667 21.2200004,6.25 21.14,6.25 C20.8999988,6.25 20.7400004,6.2100004 20.66,6.13 C20.5799996,6.0499996 20.54,5.8900012 20.54,5.65 L20.54,3.09 L21.58,3.09 L21.58,2.14 L20.54,2.14 Z M25.74,4.17 L23.43,4.17 C23.4366667,4.07 23.4583331,3.9566673 23.495,3.83 C23.5316668,3.7033327 23.5949995,3.5833339 23.685,3.47 C23.7750004,3.3566661 23.8949992,3.26166705 24.045,3.185 C24.1950007,3.10833295 24.3833322,3.07 24.61,3.07 C24.9566684,3.07 25.2149991,3.1633324 25.385,3.35 C25.5550008,3.5366676 25.673333,3.8099982 25.74,4.17 Z M23.43,5.07 L27.16,5.07 C27.1866668,4.669998 27.1533338,4.2866685 27.06,3.92 C26.9666662,3.5533315 26.815001,3.2266681 26.605,2.94 C26.3949989,2.6533319 26.1266683,2.42500085 25.8,2.255 C25.4733317,2.08499915 25.0900022,2 24.65,2 C24.2566647,2 23.8983349,2.0699993 23.575,2.21 C23.251665,2.3500007 22.9733345,2.54166545 22.74,2.785 C22.5066655,3.02833455 22.3266673,3.316665 22.2,3.65 C22.0733327,3.983335 22.01,4.3433314 22.01,4.73 C22.01,5.130002 22.071666,5.496665 22.195,5.83 C22.3183339,6.163335 22.4933322,6.4499988 22.72,6.69 C22.9466678,6.9300012 23.2233317,7.11499935 23.55,7.245 C23.8766683,7.37500065 24.2433313,7.44 24.65,7.44 C25.2366696,7.44 25.7366646,7.306668 26.15,7.04 C26.5633354,6.773332 26.869999,6.3300031 27.07,5.71 L25.82,5.71 C25.7733331,5.8700008 25.6466677,6.02166595 25.44,6.165 C25.2333323,6.30833405 24.9866681,6.38 24.7,6.38 C24.299998,6.38 23.9933344,6.2766677 23.78,6.07 C23.5666656,5.8633323 23.4500001,5.5300023 23.43,5.07 Z M28,2.14 L28,7.31 L29.42,7.31 L29.42,4.6 C29.42,4.0733307 29.5066658,3.69500115 29.68,3.465 C29.8533342,3.23499885 30.1333314,3.12 30.52,3.12 C30.8600017,3.12 31.096666,3.22499895 31.23,3.435 C31.363334,3.64500105 31.43,3.9633312 31.43,4.39 L31.43,7.31 L32.85,7.31 L32.85,4.13 C32.85,3.8099984 32.8216669,3.51833465 32.765,3.255 C32.708333,2.99166535 32.6100007,2.76833425 32.47,2.585 C32.3299993,2.40166575 32.1383345,2.25833385 31.895,2.155 C31.6516654,2.05166615 31.3400019,2 30.96,2 C30.6599985,2 30.3666681,2.06833265 30.08,2.205 C29.7933319,2.34166735 29.5600009,2.5599985 29.38,2.86 L29.35,2.86 L29.35,2.14 L28,2.14 Z M35.48,1.34 L35.48,0.17 L34.06,0.17 L34.06,1.34 L35.48,1.34 Z M33.21,7.91 L33.21,9.08 C33.343334,9.1066668 33.4933325,9.12 33.66,9.12 C34.0200018,9.12 34.3166655,9.08833365 34.55,9.025 C34.7833345,8.96166635 34.9683326,8.86500065 35.105,8.735 C35.2416673,8.60499935 35.338333,8.4433343 35.395,8.25 C35.4516669,8.0566657 35.48,7.826668 35.48,7.56 L35.48,2.14 L34.06,2.14 L34.06,7.49 C34.06,7.6833343 34.0050005,7.80833305 33.895,7.865 C33.7849994,7.92166695 33.6566674,7.95 33.51,7.95 C33.3833327,7.95 33.2833337,7.9366668 33.21,7.91 Z M36.65,3.73 C36.6700001,3.396665 36.7533326,3.1200011 36.9,2.9 C37.0466674,2.6799989 37.2333322,2.503334 37.46,2.37 C37.6866678,2.236666 37.9416652,2.14166695 38.225,2.085 C38.5083347,2.02833305 38.7933319,2 39.08,2 C39.3400013,2 39.603332,2.01833315 39.87,2.055 C40.136668,2.09166685 40.3799989,2.1633328 40.6,2.27 C40.8200011,2.3766672 40.9999993,2.52499905 41.14,2.715 C41.2800007,2.90500095 41.35,3.1566651 41.35,3.47 L41.35,6.16 C41.35,6.3933345 41.3633332,6.6166656 41.39,6.83 C41.4166668,7.0433344 41.463333,7.2033328 41.53,7.31 L40.09,7.31 C40.0633332,7.2299996 40.0416667,7.14833375 40.025,7.065 C40.0083332,6.98166625 39.9966667,6.8966671 39.99,6.81 C39.7633322,7.0433345 39.4966682,7.2066662 39.19,7.3 C38.8833318,7.3933338 38.5700016,7.44 38.25,7.44 C38.0033321,7.44 37.7733344,7.4100003 37.56,7.35 C37.3466656,7.2899997 37.1600008,7.1966673 37,7.07 C36.8399992,6.9433327 36.7150004,6.7833343 36.625,6.59 C36.5349995,6.3966657 36.49,6.166668 36.49,5.9 C36.49,5.6066652 36.5416661,5.36500095 36.645,5.175 C36.7483338,4.98499905 36.8816658,4.8333339 37.045,4.72 C37.2083341,4.6066661 37.3949989,4.52166695 37.605,4.465 C37.815001,4.40833305 38.0266656,4.3633335 38.24,4.33 C38.4533344,4.2966665 38.6633323,4.2700001 38.87,4.25 C39.0766677,4.2299999 39.2599992,4.2000002 39.42,4.16 C39.5800008,4.1199998 39.7066662,4.06166705 39.8,3.985 C39.8933338,3.90833295 39.9366667,3.7966674 39.93,3.65 C39.93,3.4966659 39.9050002,3.37500045 39.855,3.285 C39.8049997,3.19499955 39.7383337,3.12500025 39.655,3.075 C39.5716662,3.02499975 39.4750005,2.99166675 39.365,2.975 C39.2549994,2.95833325 39.1366673,2.95 39.01,2.95 C38.7299986,2.95 38.5100008,3.0099994 38.35,3.13 C38.1899992,3.2500006 38.0966668,3.4499986 38.07,3.73 L36.65,3.73 Z M39.93,4.78 C39.8699997,4.8333336 39.7950004,4.87499985 39.705,4.905 C39.6149995,4.93500015 39.5183338,4.9599999 39.415,4.98 L39.25625,5.00750001 L39.25625,5.00750001 L39.09,5.03 C38.9766661,5.0433334 38.8633339,5.0599999 38.75,5.08 C38.6433328,5.1000001 38.5383338,5.1266665 38.435,5.16 C38.3316661,5.1933335 38.241667,5.23833305 38.165,5.295 C38.0883329,5.35166695 38.0266669,5.4233329 37.98,5.51 C37.9333331,5.5966671 37.91,5.706666 37.91,5.84 C37.91,5.9666673 37.9333331,6.0733329 37.98,6.16 C38.0266669,6.2466671 38.0899996,6.31499975 38.17,6.365 C38.2500004,6.41500025 38.3433328,6.4499999 38.45,6.47 C38.5566672,6.4900001 38.6666661,6.5 38.78,6.5 C39.0600014,6.5 39.2766659,6.4533338 39.43,6.36 C39.5833341,6.2666662 39.6966663,6.15500065 39.77,6.025 C39.8433337,5.89499935 39.8883332,5.763334 39.905,5.63 L39.9272222,5.39888892 C39.9290741,5.3662964 39.93,5.3366668 39.93,5.31 L39.93,4.78 Z M44.17,5.99 L44.17,1.49 L45.29,1.49 C45.6766686,1.49 46.0016653,1.54499945 46.265,1.655 C46.5283346,1.76500055 46.7399992,1.9233323 46.9,2.13 C47.0600008,2.3366677 47.1749996,2.58499855 47.245,2.875 C47.3150003,3.16500145 47.35,3.49 47.35,3.85 C47.35,4.2433353 47.3000005,4.5766653 47.2,4.85 C47.0999995,5.1233347 46.9666675,5.34499915 46.8,5.515 C46.6333325,5.68500085 46.4433344,5.8066663 46.23,5.88 C46.0166656,5.9533337 45.7966678,5.99 45.57,5.99 L44.17,5.99 Z M42.6,0.17 L42.6,7.31 L45.68,7.31 C46.2266694,7.31 46.7016646,7.21833425 47.105,7.035 C47.5083353,6.85166575 47.8449986,6.6000016 48.115,6.28 C48.3850013,5.9599984 48.586666,5.5800022 48.72,5.14 C48.853334,4.6999978 48.92,4.2200026 48.92,3.7 C48.92,3.1066637 48.8383341,2.5900022 48.675,2.15 C48.5116658,1.7099978 48.2850014,1.3433348 47.995,1.05 C47.7049985,0.7566652 47.3616686,0.5366674 46.965,0.39 C46.5683313,0.2433326 46.1400023,0.17 45.68,0.17 L42.6,0.17 Z M51.08,4.94 L49.56,4.94 C49.5533333,5.3800022 49.6333325,5.7599984 49.8,6.08 C49.9666675,6.4000016 50.1916652,6.6633323 50.475,6.87 C50.7583347,7.0766677 51.0849981,7.22833285 51.455,7.325 C51.8250018,7.42166715 52.2066647,7.47 52.6,7.47 C53.0866691,7.47 53.5149981,7.4133339 53.885,7.3 C54.2550018,7.1866661 54.5649987,7.02833435 54.815,6.825 C55.0650012,6.62166565 55.2533327,6.3800014 55.38,6.1 C55.5066673,5.8199986 55.57,5.5166683 55.57,5.19 C55.57,4.789998 55.4850008,4.46166795 55.315,4.205 C55.1449991,3.94833205 54.9433345,3.7433341 54.71,3.59 C54.4766655,3.4366659 54.2416678,3.32500035 54.005,3.255 L53.7457997,3.18139989 C53.6285999,3.14979994 53.5300004,3.12600008 53.45,3.11 L52.365,2.83 L52.365,2.83 C52.088332,2.7566663 51.8716674,2.6833337 51.715,2.61 C51.5583325,2.5366663 51.4533336,2.4566671 51.4,2.37 C51.3466664,2.2833329 51.32,2.1700007 51.32,2.03 C51.32,1.8766659 51.353333,1.7500005 51.42,1.65 C51.486667,1.5499995 51.5716662,1.466667 51.675,1.4 C51.7783338,1.333333 51.8933327,1.2866668 52.02,1.26 C52.1466673,1.2333332 52.2733327,1.22 52.4,1.22 C52.5933343,1.22 52.7716658,1.2366665 52.935,1.27 C53.0983341,1.3033335 53.2433327,1.3599996 53.37,1.44 C53.4966673,1.5200004 53.5983329,1.6299993 53.675,1.77 C53.751667,1.9100007 53.7966666,2.0866656 53.81,2.3 L55.33,2.3 C55.33,1.8866646 55.2516674,1.53500145 55.095,1.245 C54.9383325,0.95499855 54.726668,0.7166676 54.46,0.53 C54.193332,0.3433324 53.888335,0.20833375 53.545,0.125 C53.2016649,0.04166625 52.8433352,0 52.47,0 C52.1499984,0 51.8300016,0.0433329 51.51,0.13 C51.1899984,0.2166671 50.9033346,0.3499991 50.65,0.53 C50.3966654,0.7100009 50.1916674,0.93499865 50.035,1.205 C49.8783325,1.47500135 49.8,1.7933315 49.8,2.16 C49.8,2.4866683 49.861666,2.76499885 49.985,2.995 C50.1083339,3.22500115 50.269999,3.4166659 50.47,3.57 C50.670001,3.7233341 50.8966654,3.84833285 51.15,3.945 C51.3188897,4.00944477 51.4907407,4.06722229 51.6655552,4.11833329 L51.93,4.19 C52.1900013,4.2633337 52.4466654,4.3299997 52.7,4.39 C52.9533346,4.4500003 53.179999,4.5199996 53.38,4.6 C53.580001,4.6800004 53.741666,4.7799994 53.865,4.9 C53.9883339,5.0200006 54.05,5.1766657 54.05,5.37 C54.05,5.5500009 54.0033338,5.69833275 53.91,5.815 C53.8166662,5.93166725 53.7000007,6.023333 53.56,6.09 C53.4199993,6.156667 53.2700008,6.20166655 53.11,6.225 C52.9499992,6.24833345 52.8000007,6.26 52.66,6.26 C52.4533323,6.26 52.2533343,6.23500025 52.06,6.185 C51.8666657,6.13499975 51.698334,6.05833385 51.555,5.955 C51.4116659,5.85166615 51.2966671,5.7166675 51.21,5.55 C51.1233329,5.3833325 51.08,5.1800012 51.08,4.94 Z" id="KautenjaDSP" fill-rule="nonzero"></path>
                    <path d="M59.72,0.17 C60.1666689,0.17 60.5466651,0.23499935 60.86,0.365 C61.1733349,0.49500065 61.4283323,0.6666656 61.625,0.88 C61.8216676,1.0933344 61.9649995,1.3366653 62.055,1.61 C62.1450004,1.8833347 62.19,2.1666652 62.19,2.46 C62.19,2.7466681 62.1450004,3.02833195 62.055,3.305 C61.9649995,3.58166805 61.8216676,3.8266656 61.625,4.04 C61.4283323,4.2533344 61.1733349,4.42499935 60.86,4.555 C60.5466651,4.68500065 60.1666689,4.75 59.72,4.75 L58.07,4.75 L58.07,7.31 L56.5,7.31 L56.5,0.17 L59.72,0.17 Z M59.29,1.39 L58.07,1.39 L58.07,3.53 L59.29,3.53 C59.4700009,3.53 59.6433325,3.5166668 59.81,3.49 C59.9766675,3.4633332 60.1233327,3.41166705 60.25,3.335 C60.3766673,3.25833295 60.478333,3.1500007 60.555,3.01 C60.631667,2.8699993 60.67,2.6866678 60.67,2.46 C60.67,2.2333322 60.631667,2.0500007 60.555,1.91 C60.478333,1.7699993 60.3766673,1.66166705 60.25,1.585 C60.1233327,1.50833295 59.9766675,1.4566668 59.81,1.43 C59.6433325,1.4033332 59.4700009,1.39 59.29,1.39 L59.29,1.39 Z" id="Combined-Shape" fill-rule="nonzero"></path>
                </g>
            </g>
            <g id="Header" transform="translate(0.000000, 2.000000)" fill="#B3B3B3" fill-rule="nonzero">
                <path d="M210.357,3.372 L210.609,4.11 L213.039,3.282 L213.039,15 L213.957,15 L213.957,2.31 L213.237,2.31 L210.357,3.372 Z M227.457,8.682 C227.457,5.19 225.459,2.184 222.255,2.184 C219.051,2.184 217.017,5.226 217.017,8.718 C217.017,12.21 219.015,15.216 222.219,15.216 C225.423,15.216 227.457,12.174 227.457,8.682 Z M226.485,8.718 C226.485,11.67 224.865,14.37 222.255,14.37 C219.645,14.37 217.989,11.634 217.989,8.682 C217.989,5.73 219.609,3.03 222.219,3.03 C224.829,3.03 226.485,5.766 226.485,8.718 Z M238.545,3.642 C237.447,2.742 236.349,2.184 234.909,2.184 C231.777,2.184 229.779,5.208 229.779,9.024 C229.779,11.652 230.337,12.912 231.381,13.956 C232.137,14.712 233.289,15.216 234.585,15.216 C237.069,15.216 238.995,13.47 238.995,11.058 C238.995,8.79 236.979,7.224 234.657,7.224 C232.605,7.224 231.435,8.34 230.715,9.564 C230.625,5.712 232.281,3.03 234.837,3.03 C236.025,3.03 236.979,3.498 237.951,4.362 L238.545,3.642 Z M238.023,11.094 C238.023,12.894 236.691,14.37 234.657,14.37 C232.623,14.37 231.093,13.002 231.093,11.184 C231.093,9.618 232.533,8.052 234.603,8.052 C236.601,8.052 238.023,9.348 238.023,11.094 Z" id="106"></path>
            </g>
        </g>
        <g id="channel-control" transform="translate(211.000000, 25.000000)" fill="#B3B3B3" fill-rule="nonzero">
            <g id="OUT" transform="translate(180.000000, 0.000000)">
                <g id="text">
                    <path d="M6.90820312,5 C5.93163574,5 5.44335938,4.51172363 5.44335938,3.53515625 L5.44335938,2.0703125 C5.44335938,1.09374512 5.93163574,0.60546875 6.90820312,0.60546875 L8.86132812,0.60546875 C9.83789551,0.60546875 10.3261719,1.09374512 10.3261719,2.0703125 L10.3261719,3.53515625 C10.3261719,4.51172363 9.9192749,5 9.10546875,5 L6.90820312,5 Z M6.41992188,3.53515625 C6.41992188,3.86067871 6.58268066,4.0234375 6.90820312,4.0234375 L8.86132812,4.0234375 C9.18685059,4.0234375 9.34960938,3.86067871 9.34960938,3.53515625 L9.34960938,2.0703125 C9.34960938,1.74479004 9.18685059,1.58203125 8.86132812,1.58203125 L6.90820312,1.58203125 C6.58268066,1.58203125 6.41992188,1.74479004 6.41992188,2.0703125 L6.41992188,3.53515625 Z M10.8144531,0.60546875 L10.8144531,3.53515625 C10.8144531,4.51172363 11.3027295,5 12.2792969,5 L14.2324219,5 C15.2089893,5 15.6972656,4.51172363 15.6972656,3.53515625 L15.6972656,0.60546875 L14.7207031,0.60546875 L14.7207031,3.53515625 C14.7207031,3.86067871 14.5579443,4.0234375 14.2324219,4.0234375 L12.2792969,4.0234375 C11.9537744,4.0234375 11.7910156,3.86067871 11.7910156,3.53515625 L11.7910156,0.60546875 L10.8144531,0.60546875 Z M16.1855469,0.60546875 L21.0683594,0.60546875 L21.0683594,1.58203125 L19.1152344,1.58203125 L19.1152344,5 L18.1386719,5 L18.1386719,1.58203125 L16.1855469,1.58203125 L16.1855469,0.60546875 Z" id="OUT"></path>
                </g>
            </g>
            <g id="AMP" transform="translate(139.000000, 0.000000)">
                <g id="text" transform="translate(3.000000, 0.000000)">
                    <path d="M9.10546875,2.80273438 L9.10546875,2.0703125 C9.10546875,1.74479004 8.94270996,1.58203125 8.6171875,1.58203125 L6.6640625,1.58203125 C6.33854004,1.58203125 6.17578125,1.74479004 6.17578125,2.0703125 L6.17578125,2.80273438 L9.10546875,2.80273438 Z M6.17578125,3.77929688 L6.17578125,5 L5.19921875,5 L5.19921875,2.0703125 C5.19921875,1.09374512 5.68749512,0.60546875 6.6640625,0.60546875 L8.6171875,0.60546875 C9.59375488,0.60546875 10.0820312,1.09374512 10.0820312,2.0703125 L10.0820312,5 L9.10546875,5 L9.10546875,3.77929688 L6.17578125,3.77929688 Z M10.5703125,5 L10.5703125,0.60546875 L14.4765625,0.60546875 C15.4531299,0.60546875 15.9414062,1.09374512 15.9414062,2.0703125 L15.9414062,5 L14.9648438,5 L14.9648438,2.0703125 C14.9648438,1.74479004 14.802085,1.58203125 14.4765625,1.58203125 L13.7441406,1.58203125 L13.7441406,5 L12.7675781,5 L12.7675781,1.58203125 L11.546875,1.58203125 L11.546875,5 L10.5703125,5 Z M16.4296875,5 L16.4296875,0.60546875 L19.8476562,0.60546875 C20.8242236,0.60546875 21.3125,1.05468301 21.3125,1.953125 C21.3125,2.84505654 20.8242236,3.29101562 19.8476562,3.29101562 L17.40625,3.29101562 L17.40625,5 L16.4296875,5 Z M20.3359375,2.31445312 L17.40625,2.31445312 L17.40625,1.58203125 L20.3359375,1.58203125 L20.3359375,2.31445312 Z" id="AMP"></path>
                </g>
            </g>
            <g id="AM" transform="translate(105.000000, 0.000000)">
                <g id="text">
                    <path d="M11.7910156,2.80273438 L11.7910156,2.0703125 C11.7910156,1.74479004 11.6282568,1.58203125 11.3027344,1.58203125 L9.34960938,1.58203125 C9.02408691,1.58203125 8.86132812,1.74479004 8.86132812,2.0703125 L8.86132812,2.80273438 L11.7910156,2.80273438 Z M8.86132812,3.77929688 L8.86132812,5 L7.88476562,5 L7.88476562,2.0703125 C7.88476562,1.09374512 8.37304199,0.60546875 9.34960938,0.60546875 L11.3027344,0.60546875 C12.2793018,0.60546875 12.7675781,1.09374512 12.7675781,2.0703125 L12.7675781,5 L11.7910156,5 L11.7910156,3.77929688 L8.86132812,3.77929688 Z M13.2558594,5 L13.2558594,0.60546875 L17.1621094,0.60546875 C18.1386768,0.60546875 18.6269531,1.09374512 18.6269531,2.0703125 L18.6269531,5 L17.6503906,5 L17.6503906,2.0703125 C17.6503906,1.74479004 17.4876318,1.58203125 17.1621094,1.58203125 L16.4296875,1.58203125 L16.4296875,5 L15.453125,5 L15.453125,1.58203125 L14.2324219,1.58203125 L14.2324219,5 L13.2558594,5 Z" id="AM"></path>
                </g>
            </g>
            <g id="FREQ" transform="translate(64.000000, 0.000000)">
                <g id="text" transform="translate(3.000000, 0.000000)">
                    <path d="M3.00195312,5 L3.00195312,0.60546875 L7.39648438,0.60546875 L7.39648438,1.58203125 L3.97851562,1.58203125 L3.97851562,2.31445312 L6.41992188,2.31445312 L6.41992188,3.29101562 L3.97851562,3.29101562 L3.97851562,5 L3.00195312,5 Z M8.86132812,2.31445312 L11.7910156,2.31445312 L11.7910156,1.58203125 L8.86132812,1.58203125 L8.86132812,2.31445312 Z M8.86132812,3.29101562 L8.86132812,5 L7.88476562,5 L7.88476562,0.60546875 L11.3027344,0.60546875 C12.2793018,0.60546875 12.7675781,1.05142783 12.7675781,1.94335938 C12.7675781,2.36653857 12.6975918,2.67740786 12.5576172,2.87597656 C12.6975918,3.10709751 12.7675781,3.40820127 12.7675781,3.77929688 L12.7675781,5 L11.7910156,5 L11.7910156,3.77929688 C11.7910156,3.45377441 11.6282568,3.29101562 11.3027344,3.29101562 L8.86132812,3.29101562 Z M18.1386719,5 L14.7207031,5 C13.7441357,5 13.2558594,4.51172363 13.2558594,3.53515625 L13.2558594,0.60546875 L18.1386719,0.60546875 L18.1386719,1.58203125 L14.2324219,1.58203125 L14.2324219,2.31445312 L18.1386719,2.31445312 L18.1386719,3.29101562 L14.2324219,3.29101562 L14.2324219,3.53515625 C14.2324219,3.86067871 14.3951807,4.0234375 14.7207031,4.0234375 L18.1386719,4.0234375 L18.1386719,5 Z M22.0449219,4.0234375 C22.3704443,4.0234375 22.5332031,3.86067871 22.5332031,3.53515625 L22.5332031,2.0703125 C22.5332031,1.74479004 22.3704443,1.58203125 22.0449219,1.58203125 L20.0917969,1.58203125 C19.7662744,1.58203125 19.6035156,1.74479004 19.6035156,2.0703125 L19.6035156,3.53515625 C19.6035156,3.86067871 19.7662744,4.0234375 20.0917969,4.0234375 L22.0449219,4.0234375 Z M20.0917969,5 C19.1152295,5 18.6269531,4.51172363 18.6269531,3.53515625 L18.6269531,2.0703125 C18.6269531,1.09374512 19.1152295,0.60546875 20.0917969,0.60546875 L22.0449219,0.60546875 C23.0214893,0.60546875 23.5097656,1.09374512 23.5097656,2.0703125 L23.5097656,5 L20.0917969,5 Z" id="FREQ"></path>
                </g>
            </g>
            <g id="FM" transform="translate(30.000000, 0.000000)">
                <g id="text">
                    <path d="M8.12890625,5 L8.12890625,0.60546875 L12.5234375,0.60546875 L12.5234375,1.58203125 L9.10546875,1.58203125 L9.10546875,2.31445312 L11.546875,2.31445312 L11.546875,3.29101562 L9.10546875,3.29101562 L9.10546875,5 L8.12890625,5 Z M13.0117188,5 L13.0117188,0.60546875 L16.9179688,0.60546875 C17.8945361,0.60546875 18.3828125,1.09374512 18.3828125,2.0703125 L18.3828125,5 L17.40625,5 L17.40625,2.0703125 C17.40625,1.74479004 17.2434912,1.58203125 16.9179688,1.58203125 L16.1855469,1.58203125 L16.1855469,5 L15.2089844,5 L15.2089844,1.58203125 L13.9882812,1.58203125 L13.9882812,5 L13.0117188,5 Z" id="FM"></path>
                </g>
            </g>
            <g id="V/OCT">
                <g id="text">
                    <path d="M1.53710938,0.60546875 L1.53710938,5 L4.95507812,5 C5.93164551,5 6.41992188,4.51172363 6.41992188,3.53515625 L6.41992188,0.60546875 L5.44335938,0.60546875 L5.44335938,3.53515625 C5.44335938,3.86067871 5.28060059,4.0234375 4.95507812,4.0234375 L2.51367188,4.0234375 L2.51367188,0.60546875 L1.53710938,0.60546875 Z M6.90820312,5 L7.88476562,0.60546875 L8.86132812,0.60546875 L7.88476562,5 L6.90820312,5 Z M10.8144531,5 C9.83788574,5 9.34960938,4.51172363 9.34960938,3.53515625 L9.34960938,2.0703125 C9.34960938,1.09374512 9.83788574,0.60546875 10.8144531,0.60546875 L12.7675781,0.60546875 C13.7441455,0.60546875 14.2324219,1.09374512 14.2324219,2.0703125 L14.2324219,3.53515625 C14.2324219,4.51172363 13.8255249,5 13.0117188,5 L10.8144531,5 Z M10.3261719,3.53515625 C10.3261719,3.86067871 10.4889307,4.0234375 10.8144531,4.0234375 L12.7675781,4.0234375 C13.0931006,4.0234375 13.2558594,3.86067871 13.2558594,3.53515625 L13.2558594,2.0703125 C13.2558594,1.74479004 13.0931006,1.58203125 12.7675781,1.58203125 L10.8144531,1.58203125 C10.4889307,1.58203125 10.3261719,1.74479004 10.3261719,2.0703125 L10.3261719,3.53515625 Z M19.6035156,5 L16.1855469,5 C15.2089795,5 14.7207031,4.51172363 14.7207031,3.53515625 L14.7207031,2.0703125 C14.7207031,1.09374512 15.2089795,0.60546875 16.1855469,0.60546875 L19.6035156,0.60546875 L19.6035156,1.58203125 L16.1855469,1.58203125 C15.8600244,1.58203125 15.6972656,1.74479004 15.6972656,2.0703125 L15.6972656,3.53515625 C15.6972656,3.86067871 15.8600244,4.0234375 16.1855469,4.0234375 L19.6035156,4.0234375 L19.6035156,5 Z M20.0917969,0.60546875 L24.9746094,0.60546875 L24.9746094,1.58203125 L23.0214844,1.58203125 L23.0214844,5 L22.0449219,5 L22.0449219,1.58203125 L20.0917969,1.58203125 L20.0917969,0.60546875 Z" id="V/OCT"></path>
                </g>
            </g>
        </g>
        <g id="global-control" transform="translate(155.000000, 25.000000)">
            <g id="wavetable" transform="translate(0.000000, 144.000000)">
                <g id="control" transform="translate(3.000000, 14.000000)"></g>
                <g id="text" fill="#B3B3B3" fill-rule="nonzero">
                    <path d="M0.0859375,0.60546875 L0.0859375,3.53515625 C0.0859375,4.51172363 0.574213867,5 1.55078125,5 L5.45703125,5 L5.45703125,0.60546875 L4.48046875,0.60546875 L4.48046875,4.0234375 L3.25976562,4.0234375 L3.25976562,0.60546875 L2.28320312,0.60546875 L2.28320312,4.0234375 L1.55078125,4.0234375 C1.22525879,4.0234375 1.0625,3.86067871 1.0625,3.53515625 L1.0625,0.60546875 L0.0859375,0.60546875 Z M9.8515625,2.80273438 L9.8515625,2.0703125 C9.8515625,1.74479004 9.68880371,1.58203125 9.36328125,1.58203125 L7.41015625,1.58203125 C7.08463379,1.58203125 6.921875,1.74479004 6.921875,2.0703125 L6.921875,2.80273438 L9.8515625,2.80273438 Z M6.921875,3.77929688 L6.921875,5 L5.9453125,5 L5.9453125,2.0703125 C5.9453125,1.09374512 6.43358887,0.60546875 7.41015625,0.60546875 L9.36328125,0.60546875 C10.3398486,0.60546875 10.828125,1.09374512 10.828125,2.0703125 L10.828125,5 L9.8515625,5 L9.8515625,3.77929688 L6.921875,3.77929688 Z M11.3164062,0.60546875 L11.3164062,5 L14.734375,5 C15.7109424,5 16.1992188,4.51172363 16.1992188,3.53515625 L16.1992188,0.60546875 L15.2226562,0.60546875 L15.2226562,3.53515625 C15.2226562,3.86067871 15.0598975,4.0234375 14.734375,4.0234375 L12.2929688,4.0234375 L12.2929688,0.60546875 L11.3164062,0.60546875 Z M21.5703125,5 L18.1523438,5 C17.1757764,5 16.6875,4.51172363 16.6875,3.53515625 L16.6875,0.60546875 L21.5703125,0.60546875 L21.5703125,1.58203125 L17.6640625,1.58203125 L17.6640625,2.31445312 L21.5703125,2.31445312 L21.5703125,3.29101562 L17.6640625,3.29101562 L17.6640625,3.53515625 C17.6640625,3.86067871 17.8268213,4.0234375 18.1523438,4.0234375 L21.5703125,4.0234375 L21.5703125,5 Z M22.0585938,0.60546875 L26.9414062,0.60546875 L26.9414062,1.58203125 L24.9882812,1.58203125 L24.9882812,5 L24.0117188,5 L24.0117188,1.58203125 L22.0585938,1.58203125 L22.0585938,0.60546875 Z M31.3359375,2.80273438 L31.3359375,2.0703125 C31.3359375,1.74479004 31.1731787,1.58203125 30.8476562,1.58203125 L28.8945312,1.58203125 C28.5690088,1.58203125 28.40625,1.74479004 28.40625,2.0703125 L28.40625,2.80273438 L31.3359375,2.80273438 Z M28.40625,3.77929688 L28.40625,5 L27.4296875,5 L27.4296875,2.0703125 C27.4296875,1.09374512 27.9179639,0.60546875 28.8945312,0.60546875 L30.8476562,0.60546875 C31.8242236,0.60546875 32.3125,1.09374512 32.3125,2.0703125 L32.3125,5 L31.3359375,5 L31.3359375,3.77929688 L28.40625,3.77929688 Z M33.7773438,2.31445312 L36.7070312,2.31445312 L36.7070312,1.58203125 L33.7773438,1.58203125 L33.7773438,2.31445312 Z M33.7773438,4.0234375 L36.7070312,4.0234375 L36.7070312,3.29101562 L33.7773438,3.29101562 L33.7773438,4.0234375 Z M32.8007812,5 L32.8007812,0.60546875 L36.21875,0.60546875 C37.1953174,0.60546875 37.6835938,1.04817266 37.6835938,1.93359375 C37.6835938,2.29492368 37.6054695,2.58463433 37.4492188,2.80273438 C37.6054695,3.0175792 37.6835938,3.30566226 37.6835938,3.66699219 C37.6835938,4.55566851 37.1953174,5 36.21875,5 L32.8007812,5 Z M38.171875,0.60546875 L38.171875,3.53515625 C38.171875,4.51172363 38.6601514,5 39.6367188,5 L43.0546875,5 L43.0546875,4.0234375 L39.6367188,4.0234375 C39.3111963,4.0234375 39.1484375,3.86067871 39.1484375,3.53515625 L39.1484375,0.60546875 L38.171875,0.60546875 Z M48.4257812,5 L45.0078125,5 C44.0312451,5 43.5429688,4.51172363 43.5429688,3.53515625 L43.5429688,0.60546875 L48.4257812,0.60546875 L48.4257812,1.58203125 L44.5195312,1.58203125 L44.5195312,2.31445312 L48.4257812,2.31445312 L48.4257812,3.29101562 L44.5195312,3.29101562 L44.5195312,3.53515625 C44.5195312,3.86067871 44.68229,4.0234375 45.0078125,4.0234375 L48.4257812,4.0234375 L48.4257812,5 Z" id="WAVETABLE"></path>
                </g>
            </g>
            <g id="channels" transform="translate(2.000000, 0.000000)">
                <g id="control" transform="translate(0.000000, 12.500000)"></g>
                <g id="text" fill="#B3B3B3" fill-rule="nonzero">
                    <path d="M5.3984375,5 L1.98046875,5 C1.00390137,5 0.515625,4.51172363 0.515625,3.53515625 L0.515625,2.0703125 C0.515625,1.09374512 1.00390137,0.60546875 1.98046875,0.60546875 L5.3984375,0.60546875 L5.3984375,1.58203125 L1.98046875,1.58203125 C1.65494629,1.58203125 1.4921875,1.74479004 1.4921875,2.0703125 L1.4921875,3.53515625 C1.4921875,3.86067871 1.65494629,4.0234375 1.98046875,4.0234375 L5.3984375,4.0234375 L5.3984375,5 Z M5.88671875,5 L5.88671875,0.60546875 L6.86328125,0.60546875 L6.86328125,2.31445312 L9.79296875,2.31445312 L9.79296875,0.60546875 L10.7695312,0.60546875 L10.7695312,5 L9.79296875,5 L9.79296875,3.29101562 L6.86328125,3.29101562 L6.86328125,5 L5.88671875,5 Z M15.1640625,2.80273438 L15.1640625,2.0703125 C15.1640625,1.74479004 15.0013037,1.58203125 14.6757812,1.58203125 L12.7226562,1.58203125 C12.3971338,1.58203125 12.234375,1.74479004 12.234375,2.0703125 L12.234375,2.80273438 L15.1640625,2.80273438 Z M12.234375,3.77929688 L12.234375,5 L11.2578125,5 L11.2578125,2.0703125 C11.2578125,1.09374512 11.7460889,0.60546875 12.7226562,0.60546875 L14.6757812,0.60546875 C15.6523486,0.60546875 16.140625,1.09374512 16.140625,2.0703125 L16.140625,5 L15.1640625,5 L15.1640625,3.77929688 L12.234375,3.77929688 Z M16.6289062,5 L16.6289062,0.60546875 L20.046875,0.60546875 C21.0234424,0.60546875 21.5117188,1.09374512 21.5117188,2.0703125 L21.5117188,5 L20.5351562,5 L20.5351562,2.0703125 C20.5351562,1.74479004 20.3723975,1.58203125 20.046875,1.58203125 L17.6054688,1.58203125 L17.6054688,5 L16.6289062,5 Z M22,5 L22,0.60546875 L25.4179688,0.60546875 C26.3945361,0.60546875 26.8828125,1.09374512 26.8828125,2.0703125 L26.8828125,5 L25.90625,5 L25.90625,2.0703125 C25.90625,1.74479004 25.7434912,1.58203125 25.4179688,1.58203125 L22.9765625,1.58203125 L22.9765625,5 L22,5 Z M32.2539062,5 L28.8359375,5 C27.8593701,5 27.3710938,4.51172363 27.3710938,3.53515625 L27.3710938,0.60546875 L32.2539062,0.60546875 L32.2539062,1.58203125 L28.3476562,1.58203125 L28.3476562,2.31445312 L32.2539062,2.31445312 L32.2539062,3.29101562 L28.3476562,3.29101562 L28.3476562,3.53515625 C28.3476562,3.86067871 28.510415,4.0234375 28.8359375,4.0234375 L32.2539062,4.0234375 L32.2539062,5 Z M32.7421875,0.60546875 L32.7421875,3.53515625 C32.7421875,4.51172363 33.2304639,5 34.2070312,5 L37.625,5 L37.625,4.0234375 L34.2070312,4.0234375 C33.8815088,4.0234375 33.71875,3.86067871 33.71875,3.53515625 L33.71875,0.60546875 L32.7421875,0.60546875 Z M38.1132812,5 L38.1132812,4.0234375 L42.0195312,4.0234375 L42.0195312,3.29101562 L39.578125,3.29101562 C38.6015576,3.29101562 38.1132812,2.84993931 38.1132812,1.96777344 C38.1132812,1.05956577 38.6015576,0.60546875 39.578125,0.60546875 L42.9960938,0.60546875 L42.9960938,1.58203125 L39.0898438,1.58203125 L39.0898438,2.31445312 L41.53125,2.31445312 C42.5078174,2.31445312 42.9960938,2.76203979 42.9960938,3.65722656 C42.9960938,4.55241333 42.5078174,5 41.53125,5 L38.1132812,5 Z" id="CHANNELS"></path>
                </g>
            </g>
        </g>
    </g>
</svg>