<?xml version="1.0" encoding="UTF-8"?>
<svg width="300px" height="380px" viewBox="0 0 300 380" version="1.1" xmlns="http://www.w3.org/2000/svg" xmlns:xlink="http://www.w3.org/1999/xlink">
    <!-- Generator: Sketch 58 (84663) - https://sketch.com -->
    <title>106</title>
    <desc>Created with Sketch.</desc>
    <g id="106" stroke="none" stroke-width="1" fill="none" fill-rule="evenodd">
        <g id="bg">
            <g id="ChipModule">
                <rect id="Background" fill="#404040" fill-rule="nonzero" x="0" y="0" width="300" height="380" rx="1"></rect>
                <g id="Chip" transform="translate(1.000000, 0.000000)" fill-rule="evenodd">
                    <g id="leads" stroke-width="1" transform="translate(3.000000, 5.000000)" fill="#E0D9C5">
                        <rect id="Rectangle" x="0" y="0" width="292" height="10" rx="2"></rect>
                        <rect id="Rectangle-Copy" x="0" y="20" width="292" height="10" rx="2"></rect>
                        <rect id="Rectangle-Copy-3" x="0" y="40" width="292" height="10" rx="2"></rect>
                        <rect id="Rectangle-Copy-2" x="0" y="60" width="292" height="10" rx="2"></rect>
                        <rect id="Rectangle-Copy-7" x="0" y="140" width="292" height="10" rx="2"></rect>
                        <rect id="Rectangle-Copy-6" x="0" y="80" width="292" height="10" rx="2"></rect>
                        <rect id="Rectangle-Copy-5" x="0" y="100" width="292" height="10" rx="2"></rect>
                        <rect id="Rectangle-Copy-4" x="0" y="120" width="292" height="10" rx="2"></rect>
                        <rect id="Rectangle-Copy-15" x="0" y="160" width="292" height="10" rx="2"></rect>
                        <rect id="Rectangle-Copy-14" x="0" y="180" width="292" height="10" rx="2"></rect>
                        <rect id="Rectangle-Copy-13" x="0" y="200" width="292" height="10" rx="2"></rect>
                        <rect id="Rectangle-Copy-12" x="0" y="220" width="292" height="10" rx="2"></rect>
                        <rect id="Rectangle-Copy-11" x="0" y="300" width="292" height="10" rx="2"></rect>
                        <rect id="Rectangle-Copy-10" x="0" y="240" width="292" height="10" rx="2"></rect>
                        <rect id="Rectangle-Copy-9" x="0" y="260" width="292" height="10" rx="2"></rect>
                        <rect id="Rectangle-Copy-8" x="0" y="280" width="292" height="10" rx="2"></rect>
                        <rect id="Rectangle-Copy-18" x="0" y="320" width="292" height="10" rx="2"></rect>
                        <rect id="Rectangle-Copy-17" x="0" y="340" width="292" height="10" rx="2"></rect>
                        <rect id="Rectangle-Copy-16" x="0" y="360" width="292" height="10" rx="2"></rect>
                    </g>
                    <rect id="cover" fill="#1D1D1D" x="10" y="0" width="278" height="380" rx="2"></rect>
                </g>
                <g id="KautenjaDSP/bottom/white" transform="translate(87.000000, 364.000000)" fill="#FFFFFF" fill-rule="evenodd" stroke-width="1">
                    <g id="Group-3">
                        <path d="M-2.13162821e-14,0.17 L-2.13162821e-14,7.31 L3.14,7.31 L3.14,5.01 L4.94,4.1 L9.24,7.31 L13.18,7.31 L7.06,2.99 L12.64,0.17 L8.72,0.17 L3.14,3.13 L3.14,0.17 L-2.13162821e-14,0.17 Z M14.02,3.73 C14.0600002,3.396665 14.2266652,3.1200011 14.52,2.9 C14.8133348,2.6799989 15.1866644,2.503334 15.64,2.37 C16.0933356,2.236666 16.6033305,2.14166695 17.17,2.085 C17.7366695,2.02833305 18.3066638,2 18.88,2 C19.4000026,2 19.926664,2.01833315 20.46,2.055 C20.993336,2.09166685 21.4799978,2.1633328 21.92,2.27 C22.3600022,2.3766672 22.7199986,2.52499905 23,2.715 C23.2800014,2.90500095 23.42,3.1566651 23.42,3.47 L23.42,6.16 C23.42,6.3933345 23.4466664,6.6166656 23.5,6.83 C23.5533336,7.0433344 23.646666,7.2033328 23.78,7.31 L20.9,7.31 C20.8466664,7.2299996 20.8033335,7.14833375 20.77,7.065 C20.7366665,6.98166625 20.7133334,6.8966671 20.7,6.81 C20.2466644,7.0433345 19.7133364,7.2066662 19.1,7.3 C18.4866636,7.3933338 17.8600032,7.44 17.22,7.44 C16.7266642,7.44 16.2666688,7.4100003 15.84,7.35 C15.4133312,7.2899997 15.0400016,7.1966673 14.72,7.07 C14.3999984,6.9433327 14.1500009,6.7833343 13.97,6.59 C13.7899991,6.3966657 13.7,6.166668 13.7,5.9 C13.7,5.6066652 13.8033323,5.36500095 14.01,5.175 C14.2166677,4.98499905 14.4833317,4.8333339 14.81,4.72 C15.1366683,4.6066661 15.5099979,4.52166695 15.93,4.465 C16.3500021,4.40833305 16.7733312,4.3633335 17.2,4.33 L17.835,4.28499998 L17.835,4.28499998 L18.46,4.25 C18.8733354,4.2299999 19.2399984,4.2000002 19.56,4.16 C19.8800016,4.1199998 20.1333324,4.06166705 20.32,3.985 C20.5066676,3.90833295 20.5933334,3.7966674 20.58,3.65 C20.58,3.4966659 20.5300005,3.37500045 20.43,3.285 C20.3299995,3.19499955 20.1966675,3.12500025 20.03,3.075 C19.8633325,3.02499975 19.6700011,2.99166675 19.45,2.975 C19.2299989,2.95833325 18.9933346,2.95 18.74,2.95 C18.1799972,2.95 17.7400016,3.0099994 17.42,3.13 C17.0999984,3.2500006 16.9133336,3.4499986 16.86,3.73 L14.02,3.73 Z M20.58,4.78 C20.4599994,4.8333336 20.3100009,4.87499985 20.13,4.905 C19.9499991,4.93500015 19.7566677,4.9599999 19.55,4.98 L19.2325,5.00750001 L19.2325,5.00750001 L18.9,5.03 C18.6733322,5.0433334 18.4466678,5.0599999 18.22,5.08 C18.0066656,5.1000001 17.7966677,5.1266665 17.59,5.16 C17.3833323,5.1933335 17.2033341,5.23833305 17.05,5.295 C16.8966659,5.35166695 16.7733338,5.4233329 16.68,5.51 C16.5866662,5.5966671 16.54,5.706666 16.54,5.84 C16.54,5.9666673 16.5866662,6.0733329 16.68,6.16 C16.7733338,6.2466671 16.8999992,6.31499975 17.06,6.365 C17.2200008,6.41500025 17.4066656,6.4499999 17.62,6.47 C17.8333344,6.4900001 18.0533322,6.5 18.28,6.5 C18.8400028,6.5 19.2733318,6.4533338 19.58,6.36 C19.8866682,6.2666662 20.1133326,6.15500065 20.26,6.025 C20.4066674,5.89499935 20.4966665,5.763334 20.53,5.63 L20.5744445,5.39888892 C20.5781482,5.3662964 20.58,5.3366668 20.58,5.31 L20.58,4.78 Z M35.32,7.31 L35.32,2.14 L32.48,2.14 L32.48,4.85 C32.48,5.3766693 32.3066684,5.75499885 31.96,5.985 C31.6133316,6.21500115 31.0533372,6.33 30.28,6.33 C29.5999966,6.33 29.126668,6.22500105 28.86,6.015 C28.593332,5.80499895 28.46,5.4866688 28.46,5.06 L28.46,2.14 L25.62,2.14 L25.62,5.32 C25.62,5.64 25.6766661,5.93166535 25.79,6.195 C25.9033339,6.45833465 26.0999986,6.68166575 26.38,6.865 C26.6600014,7.04833425 27.0433309,7.1899995 27.53,7.29 C28.0166691,7.3900005 28.6399962,7.44 29.4,7.44 C30.000003,7.44 30.5866638,7.373334 31.16,7.24 C31.7333362,7.106666 32.1999982,6.8900015 32.56,6.59 L32.62,6.59 L32.62,7.31 L35.32,7.31 Z M41.08,2.14 L41.08,0.59 L38.24,0.59 L38.24,2.14 L36.52,2.14 L36.52,3.09 L38.24,3.09 L38.24,6.14 C38.24,6.4000013 38.3266658,6.6099992 38.5,6.77 C38.6733342,6.9300008 38.9099985,7.0533329 39.21,7.14 C39.5100015,7.2266671 39.8566647,7.28499985 40.25,7.315 C40.6433353,7.34500015 41.0599978,7.36 41.5,7.36 C41.7800014,7.36 42.0666652,7.3566667 42.36,7.35 C42.6533348,7.3433333 42.9199988,7.3300001 43.16,7.31 L43.16,6.21 C43.026666,6.2233334 42.8866674,6.2333333 42.74,6.24 C42.5933326,6.2466667 42.4400008,6.25 42.28,6.25 C41.7999976,6.25 41.4800008,6.2100004 41.32,6.13 C41.1599992,6.0499996 41.08,5.8900012 41.08,5.65 L41.08,3.09 L43.16,3.09 L43.16,2.14 L41.08,2.14 Z M51.48,4.17 L46.86,4.17 C46.8733334,4.07 46.9166663,3.9566673 46.99,3.83 C47.0633337,3.7033327 47.1899991,3.5833339 47.37,3.47 C47.5500009,3.3566661 47.7899985,3.26166705 48.09,3.185 C48.3900015,3.10833295 48.7666644,3.07 49.22,3.07 C49.9133368,3.07 50.4299983,3.1633324 50.77,3.35 C51.1100017,3.5366676 51.346666,3.8099982 51.48,4.17 Z M46.86,5.07 L54.32,5.07 C54.3733336,4.669998 54.3066676,4.2866685 54.12,3.92 C53.9333324,3.5533315 53.6300021,3.2266681 53.21,2.94 C52.7899979,2.6533319 52.2533366,2.42500085 51.6,2.255 C50.9466634,2.08499915 50.1800044,2 49.3,2 C48.5133294,2 47.7966699,2.0699993 47.15,2.21 C46.5033301,2.3500007 45.946669,2.54166545 45.48,2.785 C45.013331,3.02833455 44.6533346,3.316665 44.4,3.65 C44.1466654,3.983335 44.02,4.3433314 44.02,4.73 C44.02,5.130002 44.1433321,5.496665 44.39,5.83 C44.6366679,6.163335 44.9866644,6.4499988 45.44,6.69 C45.8933356,6.9300012 46.4466634,7.11499935 47.1,7.245 C47.7533366,7.37500065 48.4866626,7.44 49.3,7.44 C50.4733392,7.44 51.4733292,7.306668 52.3,7.04 C53.1266708,6.773332 53.739998,6.3300031 54.14,5.71 L51.64,5.71 C51.5466662,5.8700008 51.2933354,6.02166595 50.88,6.165 C50.4666646,6.30833405 49.9733362,6.38 49.4,6.38 C48.599996,6.38 47.9866688,6.2766677 47.56,6.07 C47.1333312,5.8633323 46.9000002,5.5300023 46.86,5.07 Z M56,2.14 L56,7.31 L58.84,7.31 L58.84,4.6 C58.84,4.0733307 59.0133316,3.69500115 59.36,3.465 C59.7066684,3.23499885 60.2666628,3.12 61.04,3.12 C61.7200034,3.12 62.193332,3.22499895 62.46,3.435 C62.726668,3.64500105 62.86,3.9633312 62.86,4.39 L62.86,7.31 L65.7,7.31 L65.7,4.13 C65.7,3.8099984 65.6433339,3.51833465 65.53,3.255 C65.4166661,2.99166535 65.2200014,2.76833425 64.94,2.585 C64.6599986,2.40166575 64.2766691,2.25833385 63.79,2.155 C63.3033309,2.05166615 62.6800038,2 61.92,2 C61.319997,2 60.7333362,2.06833265 60.16,2.205 C59.5866638,2.34166735 59.1200018,2.5599985 58.76,2.86 L58.7,2.86 L58.7,2.14 L56,2.14 Z M70.96,1.34 L70.96,0.17 L68.12,0.17 L68.12,1.34 L70.96,1.34 Z M66.42,7.91 L66.42,9.08 C66.686668,9.1066668 66.986665,9.12 67.32,9.12 C68.0400036,9.12 68.633331,9.08833365 69.1,9.025 C69.566669,8.96166635 69.9366653,8.86500065 70.21,8.735 C70.4833347,8.60499935 70.6766661,8.4433343 70.79,8.25 C70.9033339,8.0566657 70.96,7.826668 70.96,7.56 L70.96,2.14 L68.12,2.14 L68.12,7.49 C68.12,7.6833343 68.0100011,7.80833305 67.79,7.865 C67.5699989,7.92166695 67.3133348,7.95 67.02,7.95 C66.7666654,7.95 66.5666674,7.9366668 66.42,7.91 Z M73.3,3.73 C73.3400002,3.396665 73.5066652,3.1200011 73.8,2.9 C74.0933348,2.6799989 74.4666644,2.503334 74.92,2.37 C75.3733356,2.236666 75.8833305,2.14166695 76.45,2.085 C77.0166695,2.02833305 77.5866638,2 78.16,2 C78.6800026,2 79.206664,2.01833315 79.74,2.055 C80.273336,2.09166685 80.7599978,2.1633328 81.2,2.27 C81.6400022,2.3766672 81.9999986,2.52499905 82.28,2.715 C82.5600014,2.90500095 82.7,3.1566651 82.7,3.47 L82.7,6.16 C82.7,6.3933345 82.7266664,6.6166656 82.78,6.83 C82.8333336,7.0433344 82.926666,7.2033328 83.06,7.31 L80.18,7.31 C80.1266664,7.2299996 80.0833335,7.14833375 80.05,7.065 C80.0166665,6.98166625 79.9933334,6.8966671 79.98,6.81 C79.5266644,7.0433345 78.9933364,7.2066662 78.38,7.3 C77.7666636,7.3933338 77.1400032,7.44 76.5,7.44 C76.0066642,7.44 75.5466688,7.4100003 75.12,7.35 C74.6933312,7.2899997 74.3200016,7.1966673 74,7.07 C73.6799984,6.9433327 73.4300009,6.7833343 73.25,6.59 C73.0699991,6.3966657 72.98,6.166668 72.98,5.9 C72.98,5.6066652 73.0833323,5.36500095 73.29,5.175 C73.4966677,4.98499905 73.7633317,4.8333339 74.09,4.72 C74.4166683,4.6066661 74.7899979,4.52166695 75.21,4.465 C75.6300021,4.40833305 76.0533312,4.3633335 76.48,4.33 C76.9066688,4.2966665 77.3266646,4.2700001 77.74,4.25 C78.1533354,4.2299999 78.5199984,4.2000002 78.84,4.16 C79.1600016,4.1199998 79.4133324,4.06166705 79.6,3.985 C79.7866676,3.90833295 79.8733334,3.7966674 79.86,3.65 C79.86,3.4966659 79.8100005,3.37500045 79.71,3.285 C79.6099995,3.19499955 79.4766675,3.12500025 79.31,3.075 C79.1433325,3.02499975 78.9500011,2.99166675 78.73,2.975 C78.5099989,2.95833325 78.2733346,2.95 78.02,2.95 C77.4599972,2.95 77.0200016,3.0099994 76.7,3.13 C76.3799984,3.2500006 76.1933336,3.4499986 76.14,3.73 L73.3,3.73 Z M79.86,4.78 C79.7399994,4.8333336 79.5900009,4.87499985 79.41,4.905 C79.2299991,4.93500015 79.0366677,4.9599999 78.83,4.98 L78.5125,5.00750001 L78.5125,5.00750001 L78.18,5.03 C77.9533322,5.0433334 77.7266678,5.0599999 77.5,5.08 C77.2866656,5.1000001 77.0766677,5.1266665 76.87,5.16 C76.6633323,5.1933335 76.4833341,5.23833305 76.33,5.295 C76.1766659,5.35166695 76.0533338,5.4233329 75.96,5.51 C75.8666662,5.5966671 75.82,5.706666 75.82,5.84 C75.82,5.9666673 75.8666662,6.0733329 75.96,6.16 C76.0533338,6.2466671 76.1799992,6.31499975 76.34,6.365 C76.5000008,6.41500025 76.6866656,6.4499999 76.9,6.47 C77.1133344,6.4900001 77.3333322,6.5 77.56,6.5 C78.1200028,6.5 78.5533318,6.4533338 78.86,6.36 C79.1666682,6.2666662 79.3933326,6.15500065 79.54,6.025 C79.6866674,5.89499935 79.7766665,5.763334 79.81,5.63 L79.8544445,5.39888892 C79.8581482,5.3662964 79.86,5.3366668 79.86,5.31 L79.86,4.78 Z M88.34,5.99 L88.34,1.49 L90.58,1.49 C91.3533372,1.49 92.0033307,1.54499945 92.53,1.655 C93.0566693,1.76500055 93.4799984,1.9233323 93.8,2.13 C94.1200016,2.3366677 94.3499993,2.58499855 94.49,2.875 C94.6300007,3.16500145 94.7,3.49 94.7,3.85 C94.7,4.2433353 94.600001,4.5766653 94.4,4.85 C94.199999,5.1233347 93.933335,5.34499915 93.6,5.515 C93.266665,5.68500085 92.8866688,5.8066663 92.46,5.88 C92.0333312,5.9533337 91.5933356,5.99 91.14,5.99 L88.34,5.99 Z M85.2,0.17 L85.2,7.31 L91.36,7.31 C92.4533388,7.31 93.4033293,7.21833425 94.21,7.035 C95.0166707,6.85166575 95.6899973,6.6000016 96.23,6.28 C96.7700027,5.9599984 97.173332,5.5800022 97.44,5.14 C97.706668,4.6999978 97.84,4.2200026 97.84,3.7 C97.84,3.1066637 97.6766683,2.5900022 97.35,2.15 C97.0233317,1.7099978 96.5700029,1.3433348 95.99,1.05 C95.4099971,0.7566652 94.7233373,0.5366674 93.93,0.39 C93.1366627,0.2433326 92.2800046,0.17 91.36,0.17 L85.2,0.17 Z M102.16,4.94 L99.12,4.94 C99.1066666,5.3800022 99.266665,5.7599984 99.6,6.08 C99.933335,6.4000016 100.38333,6.6633323 100.95,6.87 C101.516669,7.0766677 102.169996,7.22833285 102.91,7.325 C103.650004,7.42166715 104.413329,7.47 105.2,7.47 C106.173338,7.47 107.029996,7.4133339 107.77,7.3 C108.510004,7.1866661 109.129997,7.02833435 109.63,6.825 C110.130002,6.62166565 110.506665,6.3800014 110.76,6.1 C111.013335,5.8199986 111.14,5.5166683 111.14,5.19 C111.14,4.789998 110.970002,4.46166795 110.63,4.205 C110.289998,3.94833205 109.886669,3.7433341 109.42,3.59 C108.953331,3.4366659 108.483336,3.32500035 108.01,3.255 L107.491599,3.18139989 C107.2572,3.14979994 107.060001,3.12600008 106.9,3.11 L104.73,2.83 L104.73,2.83 C104.176664,2.7566663 103.743335,2.6833337 103.43,2.61 C103.116665,2.5366663 102.906667,2.4566671 102.8,2.37 C102.693333,2.2833329 102.64,2.1700007 102.64,2.03 C102.64,1.8766659 102.706666,1.7500005 102.84,1.65 C102.973334,1.5499995 103.143332,1.466667 103.35,1.4 C103.556668,1.333333 103.786665,1.2866668 104.04,1.26 C104.293335,1.2333332 104.546665,1.22 104.8,1.22 C105.186669,1.22 105.543332,1.2366665 105.87,1.27 C106.196668,1.3033335 106.486665,1.3599996 106.74,1.44 C106.993335,1.5200004 107.196666,1.6299993 107.35,1.77 C107.503334,1.9100007 107.593333,2.0866656 107.62,2.3 L110.66,2.3 C110.66,1.8866646 110.503335,1.53500145 110.19,1.245 C109.876665,0.95499855 109.453336,0.7166676 108.92,0.53 C108.386664,0.3433324 107.77667,0.20833375 107.09,0.125 C106.40333,0.04166625 105.68667,0 104.94,0 C104.299997,0 103.660003,0.0433329 103.02,0.13 C102.379997,0.2166671 101.806669,0.3499991 101.3,0.53 C100.793331,0.7100009 100.383335,0.93499865 100.07,1.205 C99.7566651,1.47500135 99.6,1.7933315 99.6,2.16 C99.6,2.4866683 99.7233321,2.76499885 99.97,2.995 C100.216668,3.22500115 100.539998,3.4166659 100.94,3.57 C101.340002,3.7233341 101.793331,3.84833285 102.3,3.945 C102.637779,4.00944477 102.981481,4.06722229 103.33111,4.11833329 L103.86,4.19 C104.380003,4.2633337 104.893331,4.3299997 105.4,4.39 C105.906669,4.4500003 106.359998,4.5199996 106.76,4.6 C107.160002,4.6800004 107.483332,4.7799994 107.73,4.9 C107.976668,5.0200006 108.1,5.1766657 108.1,5.37 C108.1,5.5500009 108.006668,5.69833275 107.82,5.815 C107.633332,5.93166725 107.400001,6.023333 107.12,6.09 C106.839999,6.156667 106.540002,6.20166655 106.22,6.225 C105.899998,6.24833345 105.600001,6.26 105.32,6.26 C104.906665,6.26 104.506669,6.23500025 104.12,6.185 C103.733331,6.13499975 103.396668,6.05833385 103.11,5.955 C102.823332,5.85166615 102.593334,5.7166675 102.42,5.55 C102.246666,5.3833325 102.16,5.1800012 102.16,4.94 Z" id="KautenjaDSP" fill-rule="nonzero"></path>
                        <path d="M119.44,0.17 C120.333338,0.17 121.09333,0.23499935 121.72,0.365 C122.34667,0.49500065 122.856665,0.6666656 123.25,0.88 C123.643335,1.0933344 123.929999,1.3366653 124.11,1.61 C124.290001,1.8833347 124.38,2.1666652 124.38,2.46 C124.38,2.7466681 124.290001,3.02833195 124.11,3.305 C123.929999,3.58166805 123.643335,3.8266656 123.25,4.04 C122.856665,4.2533344 122.34667,4.42499935 121.72,4.555 C121.09333,4.68500065 120.333338,4.75 119.44,4.75 L116.14,4.75 L116.14,7.31 L113,7.31 L113,0.17 L119.44,0.17 Z M118.58,1.39 L116.14,1.39 L116.14,3.53 L118.58,3.53 C118.940002,3.53 119.286665,3.5166668 119.62,3.49 C119.953335,3.4633332 120.246665,3.41166705 120.5,3.335 C120.753335,3.25833295 120.956666,3.1500007 121.11,3.01 C121.263334,2.8699993 121.34,2.6866678 121.34,2.46 C121.34,2.2333322 121.263334,2.0500007 121.11,1.91 C120.956666,1.7699993 120.753335,1.66166705 120.5,1.585 C120.246665,1.50833295 119.953335,1.4566668 119.62,1.43 C119.286665,1.4033332 118.940002,1.39 118.58,1.39 L118.58,1.39 Z" id="Combined-Shape" fill-rule="nonzero"></path>
                    </g>
                </g>
            </g>
            <g id="Header" transform="translate(76.000000, 2.000000)" fill="#B3B3B3" fill-rule="nonzero">
                <path d="M59.857,3.372 L60.109,4.11 L62.539,3.282 L62.539,15 L63.457,15 L63.457,2.31 L62.737,2.31 L59.857,3.372 Z M76.957,8.682 C76.957,5.19 74.959,2.184 71.755,2.184 C68.551,2.184 66.517,5.226 66.517,8.718 C66.517,12.21 68.515,15.216 71.719,15.216 C74.923,15.216 76.957,12.174 76.957,8.682 Z M75.985,8.718 C75.985,11.67 74.365,14.37 71.755,14.37 C69.145,14.37 67.489,11.634 67.489,8.682 C67.489,5.73 69.109,3.03 71.719,3.03 C74.329,3.03 75.985,5.766 75.985,8.718 Z M88.045,3.642 C86.947,2.742 85.849,2.184 84.409,2.184 C81.277,2.184 79.279,5.208 79.279,9.024 C79.279,11.652 79.837,12.912 80.881,13.956 C81.637,14.712 82.789,15.216 84.085,15.216 C86.569,15.216 88.495,13.47 88.495,11.058 C88.495,8.79 86.479,7.224 84.157,7.224 C82.105,7.224 80.935,8.34 80.215,9.564 C80.125,5.712 81.781,3.03 84.337,3.03 C85.525,3.03 86.479,3.498 87.451,4.362 L88.045,3.642 Z M87.523,11.094 C87.523,12.894 86.191,14.37 84.157,14.37 C82.123,14.37 80.593,13.002 80.593,11.184 C80.593,9.618 82.033,8.052 84.103,8.052 C86.101,8.052 87.523,9.348 87.523,11.094 Z" id="106"></path>
            </g>
        </g>
    </g>
</svg>