<?xml version="1.0" encoding="UTF-8"?>
<svg width="1080px" height="380px" viewBox="0 0 1080 380" version="1.1" xmlns="http://www.w3.org/2000/svg" xmlns:xlink="http://www.w3.org/1999/xlink">
    <!-- Generator: Sketch 58 (84663) - https://sketch.com -->
    <title>2612</title>
    <desc>Created with Sketch.</desc>
    <g id="2612" stroke="none" stroke-width="1" fill="none" fill-rule="evenodd">
        <g id="bg">
            <g fill="#1D1D1D" id="cover">
                <rect x="0" y="0" width="1080" height="380" rx="2"></rect>
            </g>
            <g id="Logo/Panel/DarkMode" transform="translate(441.000000, 364.000000)" fill="#FFFFFF" fill-rule="nonzero">
                <g id="Logo/Print/DarkMode">
                    <path d="M1.95775432,2.29858118 L3.38562168,2.29858118 L3.38562168,4.99672234 L6.06699634,2.29858118 L7.94254488,2.29858118 L5.09623504,4.99672234 L8.08863032,8.85057471 L6.22250665,8.85057471 L4.0783494,5.98796695 L3.38562168,6.65916846 L3.38562168,8.85057471 L1.95775432,8.85057471 L1.95775432,2.29858118 Z M11.6276679,6.49470187 C11.5428437,6.54507927 11.4572353,6.5858251 11.3708403,6.61694055 C11.2844452,6.64805601 11.1658502,6.6769485 11.0150515,6.70361889 L10.7134558,6.75695941 C10.4307084,6.80437344 10.2280757,6.86215842 10.1055519,6.93031609 C9.89820375,7.04588779 9.79453125,7.2251694 9.79453125,7.46816631 C9.79453125,7.68449282 9.85814847,7.84080861 9.98538481,7.93711835 C10.1126211,8.0334281 10.2673445,8.08158226 10.4495595,8.08158226 C10.7385902,8.08158226 11.00484,8.00157228 11.248317,7.84154993 C11.4917939,7.68152758 11.618243,7.38963933 11.6276679,6.96587644 L11.6276679,6.49470187 Z M10.8124169,5.90351114 C11.0606051,5.87387737 11.2381062,5.83683571 11.3449219,5.79238506 C11.5365618,5.71533726 11.6323803,5.59532229 11.6323803,5.43233657 C11.6323803,5.23379031 11.5593383,5.09673619 11.4132522,5.02117008 C11.267166,4.94560397 11.0527524,4.90782148 10.770005,4.90782148 C10.4526995,4.90782148 10.2280758,4.98190479 10.096127,5.13007364 C10.0018779,5.23971858 9.93904603,5.3878852 9.90762965,5.57457795 L8.61171044,5.57457795 C8.63998518,5.15081505 8.76564882,4.80262349 8.98870512,4.52999282 C9.34371022,4.10326654 9.95317886,3.88990661 10.8171293,3.88990661 C11.3794825,3.88990661 11.8789955,3.99510491 12.3156832,4.20550467 C12.7523709,4.41590443 12.9707114,4.81299097 12.9707114,5.39677622 L12.9707114,7.61929777 C12.9707114,7.77339337 12.973853,7.96008331 12.9801363,8.1793732 C12.9895612,8.34532231 13.0162647,8.45792894 13.0602477,8.51719648 C13.1042306,8.57646402 13.170204,8.625359 13.2581699,8.6638829 L13.2581699,8.85057471 L11.7973155,8.85057471 C11.7564742,8.75278328 11.7281999,8.66091997 11.7124917,8.57498204 C11.6967835,8.48904411 11.6842171,8.39125414 11.6747922,8.2816092 C11.4894356,8.47126532 11.2758074,8.63276693 11.0339013,8.76611889 C10.7448706,8.92317787 10.4181451,9.00170618 10.0537151,9.00170618 C9.58875266,9.00170618 9.20469317,8.87650538 8.9015251,8.62610004 C8.59835703,8.37569469 8.44677527,8.02083563 8.44677527,7.56151221 C8.44677527,6.96587346 8.69024856,6.53470859 9.17720246,6.26800467 C9.44424169,6.1227992 9.83694056,6.01908257 10.3553108,5.95685165 L10.8124169,5.90351114 Z M15.5012882,4.00547773 L15.5012882,6.92587105 C15.5012882,7.2014651 15.5358457,7.40889837 15.6049618,7.54817708 C15.7274857,7.79413736 15.9678174,7.91711566 16.3259641,7.91711566 C16.7846433,7.91711566 17.0988023,7.74227905 17.2684508,7.39260057 C17.3564167,7.20294445 17.4003989,6.95254286 17.4003989,6.64138829 L17.4003989,4.00547773 L18.7622922,4.00547773 L18.7622922,8.85057471 L17.4569481,8.85057471 L17.4569481,8.16603807 L17.4405489,8.18737424 C17.4238355,8.21019205 17.3978858,8.24753027 17.3626995,8.29938937 C17.3124333,8.37347379 17.252743,8.4386671 17.183627,8.49497126 C16.9731372,8.67277388 16.7697192,8.79427051 16.5733669,8.8594648 C16.3770145,8.92465909 16.1468929,8.95725575 15.8829953,8.95725575 C15.1227189,8.95725575 14.6106396,8.69944583 14.346742,8.18381825 C14.199085,7.89933407 14.1252576,7.48002253 14.1252576,6.92587105 L14.1252576,4.00547773 L15.5012882,4.00547773 Z M19.5304189,4.95227191 L19.5304189,4.04992816 L20.2467088,4.04992816 L20.2467088,2.69863506 L21.575615,2.69863506 L21.575615,4.04992816 L22.4097158,4.04992816 L22.4097158,4.95227191 L21.575615,4.95227191 L21.575615,7.51261674 C21.575615,7.71116299 21.6023185,7.83488212 21.6557264,7.88377784 C21.7091342,7.93267356 21.872497,7.95712105 22.1458195,7.95712105 C22.1866608,7.95712105 22.2298577,7.95638022 22.2754114,7.95489853 C22.3209652,7.95341684 22.3657328,7.95119434 22.4097158,7.94823096 L22.4097158,8.89502514 L21.7735372,8.91725036 C21.1389263,8.937994 20.7053868,8.83427736 20.4729056,8.60609734 C20.322107,8.46089187 20.2467088,8.23716028 20.2467088,7.93489583 L20.2467088,4.95227191 L19.5304189,4.95227191 Z M25.2984375,4.92115661 C24.9874153,4.92115661 24.7462982,5.01301991 24.575079,5.19674928 C24.4038597,5.38047865 24.2962602,5.62939857 24.2522773,5.94351652 L26.3398853,5.94351652 C26.3178938,5.60865493 26.2102944,5.35454918 26.0170836,5.18119163 C25.8238729,5.00783408 25.5843266,4.92115661 25.2984375,4.92115661 Z M25.2984375,3.87657148 C25.7257003,3.87657148 26.1105452,3.95213646 26.4529837,4.10326868 C26.7954223,4.2544009 27.0781654,4.49294916 27.3012217,4.81892062 C27.5022866,5.10636818 27.6326626,5.43974307 27.6923537,5.81905532 C27.7269117,6.04130858 27.7410489,6.36134849 27.7347656,6.77918463 L24.2192902,6.77918463 C24.2381401,7.26517844 24.399932,7.60596167 24.7046709,7.80154454 C24.8900275,7.92304299 25.1130805,7.98379131 25.3738364,7.98379131 C25.6503006,7.98379131 25.8749243,7.909708 26.0477144,7.76153915 C26.1419636,7.68152798 26.2252157,7.57040301 26.2974734,7.42816092 L27.6687916,7.42816092 C27.6342335,7.71560848 27.4755832,8.00749672 27.1928358,8.30383441 C26.7530064,8.77501134 26.1372546,9.01059626 25.3455618,9.01059626 C24.6921011,9.01059626 24.1156192,8.81205299 23.6160987,8.41496049 C23.1165783,8.01786799 22.8668218,7.37186151 22.8668218,6.4769217 C22.8668218,5.63828604 23.092231,4.9952429 23.543056,4.54777299 C23.9938811,4.10030308 24.5790024,3.87657148 25.2984375,3.87657148 Z M31.4858627,3.88990661 C32.0167995,3.88990661 32.4511245,4.02103407 32.7888506,4.28329292 C33.1265767,4.54555178 33.2954372,4.98042081 33.2954372,5.58791307 L33.2954372,8.85057471 L31.9194066,8.85057471 L31.9194066,5.90351114 C31.9194066,5.64866072 31.8832783,5.45308078 31.8110206,5.31676545 C31.6790718,5.06784179 31.4277445,4.94338182 31.0570313,4.94338182 C30.6014937,4.94338182 30.2889054,5.12562677 30.119257,5.49012213 C30.0312911,5.68274162 29.9873088,5.92869822 29.9873088,6.22799928 L29.9873088,8.85057471 L28.6489777,8.85057471 L28.6489777,4.01436782 L29.9448969,4.01436782 L29.9448969,4.72112967 C30.117687,4.47220601 30.2810498,4.2929244 30.43499,4.18327945 C30.7114542,3.98769658 31.0617416,3.88990661 31.4858627,3.88990661 Z M35.9391124,3.42762213 L34.5960688,3.42762213 L34.5960688,2.25857579 L35.9391124,2.25857579 L35.9391124,3.42762213 Z M33.9504654,10.7930585 L33.9504654,9.77958872 L34.0978762,9.79004152 L34.0978762,9.79004152 L34.1106882,9.79070133 C34.1421045,9.79218302 34.1703789,9.79292385 34.195512,9.79292385 C34.3274608,9.79292385 34.4272063,9.76254969 34.4947515,9.70180047 C34.5622967,9.64105124 34.5960688,9.52325878 34.5960688,9.34841954 L34.5960688,4.02770295 L35.9391124,4.02770295 L35.9391124,9.37064476 C35.9391124,9.85960194 35.8370107,10.2211285 35.6328042,10.4552353 C35.435185,10.6817902 35.0536827,10.7987202 34.4882863,10.8060283 L34.4311336,10.8063937 C34.4077958,10.8063937 34.3780467,10.8059099 34.341886,10.8049422 L34.0479841,10.7955986 C34.0170809,10.7947519 33.9845746,10.7939052 33.9504654,10.7930585 Z M40.0483544,6.49470187 C39.9635302,6.54507927 39.8779218,6.5858251 39.7915268,6.61694055 C39.7051317,6.64805601 39.5865367,6.6769485 39.435738,6.70361889 L39.1341423,6.75695941 C38.8513949,6.80437344 38.6487622,6.86215842 38.5262384,6.93031609 C38.3188903,7.04588779 38.2152178,7.2251694 38.2152178,7.46816631 C38.2152178,7.68449282 38.278835,7.84080861 38.4060713,7.93711835 C38.5333077,8.0334281 38.688031,8.08158226 38.870246,8.08158226 C39.1592767,8.08158226 39.4255265,8.00157228 39.6690035,7.84154993 C39.9124804,7.68152758 40.0389295,7.38963933 40.0483544,6.96587644 L40.0483544,6.49470187 Z M39.2331034,5.90351114 C39.4812916,5.87387737 39.6587927,5.83683571 39.7656084,5.79238506 C39.9572483,5.71533726 40.0530668,5.59532229 40.0530668,5.43233657 C40.0530668,5.23379031 39.9800248,5.09673619 39.8339387,5.02117008 C39.6878525,4.94560397 39.4734389,4.90782148 39.1906915,4.90782148 C38.873386,4.90782148 38.6487623,4.98190479 38.5168135,5.13007364 C38.4225644,5.23971858 38.3597325,5.3878852 38.3283162,5.57457795 L37.0323969,5.57457795 C37.0606717,5.15081505 37.1863353,4.80262349 37.4093916,4.52999282 C37.7643967,4.10326654 38.3738654,3.88990661 39.2378158,3.88990661 C39.800169,3.88990661 40.299682,3.99510491 40.7363697,4.20550467 C41.1730574,4.41590443 41.3913979,4.81299097 41.3913979,5.39677622 L41.3913979,7.61929777 C41.3913979,7.77339337 41.3945395,7.96008331 41.4008228,8.1793732 C41.4102477,8.34532231 41.4369512,8.45792894 41.4809342,8.51719648 C41.5249171,8.57646402 41.5908905,8.625359 41.6788564,8.6638829 L41.6788564,8.85057471 L40.218002,8.85057471 C40.1771607,8.75278328 40.1488864,8.66091997 40.1331782,8.57498204 C40.11747,8.48904411 40.1049036,8.39125414 40.0954787,8.2816092 C39.9101221,8.47126532 39.6964939,8.63276693 39.4545878,8.76611889 C39.1655571,8.92317787 38.8388316,9.00170618 38.4744016,9.00170618 C38.0094392,9.00170618 37.6253797,8.87650538 37.3222116,8.62610004 C37.0190435,8.37569469 36.8674618,8.02083563 36.8674618,7.56151221 C36.8674618,6.96587346 37.1109351,6.53470859 37.597889,6.26800467 C37.8649282,6.1227992 38.2576271,6.01908257 38.7759973,5.95685165 L39.2331034,5.90351114 Z M44.1010472,3.43651221 L44.1010472,7.71264368 L45.4393783,7.71264368 C46.1242554,7.71264368 46.6017772,7.39408544 46.8719581,6.75695941 C47.0196151,6.40728094 47.0934425,5.99093273 47.0934425,5.5079023 C47.0934425,4.8411425 46.9827014,4.32922682 46.7612159,3.97213991 C46.5397304,3.61505299 46.0991223,3.43651221 45.4393783,3.43651221 L44.1010472,3.43651221 Z M45.6844249,2.29858118 C46.1148293,2.30450793 46.4729706,2.35192125 46.7588597,2.44082256 C47.2458136,2.59195478 47.6400833,2.86902636 47.9416805,3.27204562 C48.1835866,3.59801708 48.3485202,3.95065364 48.436486,4.32996588 C48.5244519,4.70927812 48.5684342,5.07080467 48.5684342,5.41455639 C48.5684342,6.2857892 48.3830803,7.02365897 48.012367,7.62818786 C47.5097049,8.4431165 46.733732,8.85057471 45.6844249,8.85057471 L42.6920296,8.85057471 L42.6920296,2.29858118 L45.6844249,2.29858118 Z M50.7125914,6.8280801 C50.7565744,7.12738117 50.8429681,7.35111276 50.9717753,7.49928161 C51.2073981,7.76894891 51.6110926,7.90378053 52.1828707,7.90378053 C52.5253092,7.90378053 52.80334,7.86822054 53.0169714,7.7970995 C53.4222427,7.66078416 53.6248753,7.40741924 53.6248753,7.03699713 C53.6248753,6.82067061 53.5243444,6.65324233 53.3232796,6.53470726 C53.132268,6.42491414 52.8377712,6.32715743 52.4397811,6.24143448 L51.6409408,6.07242277 C50.9183641,5.91832717 50.4188511,5.75089889 50.142387,5.5701329 C49.6742829,5.26786846 49.4402344,4.79521694 49.4402344,4.15216415 C49.4402344,3.56541553 49.6664289,3.07794734 50.1188248,2.68974497 C50.5712207,2.3015426 51.2356672,2.10744432 52.1121842,2.10744432 C52.8441858,2.10744432 53.468577,2.2904301 53.9853765,2.65640715 C54.502176,3.02238419 54.7731382,3.55356153 54.7982713,4.2499551 L53.403391,4.2499551 C53.3782579,3.85582597 53.1960456,3.57579106 52.8567487,3.40984195 C52.6305507,3.30019701 52.3493783,3.24537536 52.0132231,3.24537536 C51.6393681,3.24537536 51.340917,3.31649534 51.1178607,3.45873743 C50.8948044,3.60097952 50.7832779,3.79952279 50.7832779,4.0543732 C50.7832779,4.27783876 50.8834648,4.4472999 51.0838415,4.56276117 L51.1131483,4.57888829 C51.248867,4.65285418 51.5322436,4.73910853 51.9632861,4.83765375 L53.2148936,5.12118355 C53.7395472,5.23971862 54.1353876,5.39825691 54.4024269,5.59680316 C54.8171231,5.90499436 55.0244681,6.35097589 55.0244681,6.93476114 C55.0244681,7.53336327 54.7817802,8.03046228 54.2963971,8.4260731 C53.811014,8.82168391 53.1253618,9.01948635 52.2394199,9.01948635 C51.3346281,9.01948635 50.6230578,8.82464724 50.1046875,8.43496318 C49.5863172,8.04527912 49.327136,7.50965678 49.327136,6.8280801 L50.7125914,6.8280801 Z M60.0102227,4.38330639 C60.0102227,4.04251805 59.9151896,3.79952479 59.7251205,3.65431932 C59.5350514,3.50911386 59.2688016,3.43651221 58.926363,3.43651221 L57.5738946,3.43651221 L57.5738946,5.36566092 L58.926363,5.36566092 C59.2688016,5.36566092 59.5350514,5.28713261 59.7251205,5.13007364 C59.9151896,4.97301466 60.0102227,4.72409474 60.0102227,4.38330639 Z M61.447515,4.37441631 C61.447515,5.14785767 61.24017,5.69459251 60.8254737,6.01463721 C60.4107775,6.33468192 59.8185876,6.49470187 59.0488863,6.49470187 L57.5738946,6.49470187 L57.5738946,8.85057471 L56.13189,8.85057471 L56.13189,2.29858118 L59.1572723,2.29858118 C59.8547159,2.29858118 60.4107775,2.46749113 60.8254737,2.80531609 C61.24017,3.14314106 61.447515,3.66616923 61.447515,4.37441631 Z" id="KautenjaDSP"></path>
                </g>
            </g>
            <g id="globals" transform="translate(115.000000, 93.000000)" fill-rule="nonzero">
                <g id="LFO-Frequency" transform="translate(3.000000, 111.000000)" fill="#E6E6E6">
                    <path d="M11.585,2.86 L11.585,10 L16.635,10 L16.635,8.68 L13.155,8.68 L13.155,2.86 L11.585,2.86 Z M17.515,2.86 L17.515,10 L19.085,10 L19.085,7.05 L22.075,7.05 L22.075,5.83 L19.085,5.83 L19.085,4.18 L22.535,4.18 L22.535,2.86 L17.515,2.86 Z M24.705,6.46 C24.705,6.1466651 24.7399997,5.8433348 24.81,5.55 C24.8800004,5.2566652 24.9916659,4.99500115 25.145,4.765 C25.2983341,4.53499885 25.4983321,4.35166735 25.745,4.215 C25.9916679,4.07833265 26.2916649,4.01 26.645,4.01 C26.9983351,4.01 27.2983321,4.07833265 27.545,4.215 C27.7916679,4.35166735 27.9916659,4.53499885 28.145,4.765 C28.2983341,4.99500115 28.4099997,5.2566652 28.48,5.55 C28.5500004,5.8433348 28.585,6.1466651 28.585,6.46 C28.585,6.7600015 28.5500004,7.05166525 28.48,7.335 C28.4099997,7.61833475 28.2983341,7.8733322 28.145,8.1 C27.9916659,8.3266678 27.7916679,8.50833265 27.545,8.645 C27.2983321,8.78166735 26.9983351,8.85 26.645,8.85 C26.2916649,8.85 25.9916679,8.78166735 25.745,8.645 C25.4983321,8.50833265 25.2983341,8.3266678 25.145,8.1 C24.9916659,7.8733322 24.8800004,7.61833475 24.81,7.335 C24.7399997,7.05166525 24.705,6.7600015 24.705,6.46 Z M23.135,6.46 C23.135,6.9800026 23.2149992,7.46499775 23.375,7.915 C23.5350008,8.36500225 23.7649985,8.756665 24.065,9.09 C24.3650015,9.423335 24.7333312,9.68499905 25.17,9.875 C25.6066689,10.0650009 26.0983306,10.16 26.645,10.16 C27.1983361,10.16 27.6916645,10.0650009 28.125,9.875 C28.5583355,9.68499905 28.9249985,9.423335 29.225,9.09 C29.5250015,8.756665 29.7549992,8.36500225 29.915,7.915 C30.0750008,7.46499775 30.155,6.9800026 30.155,6.46 C30.155,5.926664 30.0750008,5.43166895 29.915,4.975 C29.7549992,4.51833105 29.5250015,4.1200017 29.225,3.78 C28.9249985,3.4399983 28.5583355,3.1733343 28.125,2.98 C27.6916645,2.7866657 27.1983361,2.69 26.645,2.69 C26.0983306,2.69 25.6066689,2.7866657 25.17,2.98 C24.7333312,3.1733343 24.3650015,3.4399983 24.065,3.78 C23.7649985,4.1200017 23.5350008,4.51833105 23.375,4.975 C23.2149992,5.43166895 23.135,5.926664 23.135,6.46 Z M34.005,2.86 L34.005,10 L35.575,10 L35.575,7.05 L38.565,7.05 L38.565,5.83 L35.575,5.83 L35.575,4.18 L39.025,4.18 L39.025,2.86 L34.005,2.86 Z M41.505,6.09 L41.505,4.08 L43.225,4.08 C43.5850018,4.08 43.8549991,4.15833255 44.035,4.315 C44.2150009,4.47166745 44.305,4.7233316 44.305,5.07 C44.305,5.4300018 44.2150009,5.6899992 44.035,5.85 C43.8549991,6.0100008 43.5850018,6.09 43.225,6.09 L41.505,6.09 Z M39.935,2.86 L39.935,10 L41.505,10 L41.505,7.21 L43.075,7.21 C43.4683353,7.21 43.7516658,7.2966658 43.925,7.47 C44.0983342,7.6433342 44.2116664,7.9166648 44.265,8.29 C44.2916668,8.48111207 44.3138889,8.67814809 44.3316667,8.88111073 L44.355,9.19 C44.3750001,9.5033349 44.4283329,9.7733322 44.515,10 L46.085,10 C46.0116663,9.8999995 45.9566669,9.77833405 45.92,9.635 C45.8833332,9.49166595 45.8566668,9.3400008 45.84,9.18 L45.81875,8.94249999 L45.81875,8.94249999 L45.785,8.31 L45.785,8.31 C45.7716666,8.1299991 45.7466669,7.9500009 45.71,7.77 C45.6733332,7.5899991 45.6150004,7.42500075 45.535,7.275 C45.4549996,7.12499925 45.3516673,6.99500055 45.225,6.885 C45.0983327,6.77499945 44.9383343,6.6933336 44.745,6.64 L44.745,6.62 C45.145002,6.4599992 45.4333325,6.2266682 45.61,5.92 C45.7866676,5.6133318 45.875,5.2500021 45.875,4.83 C45.875,4.5566653 45.8266672,4.30166785 45.73,4.065 C45.6333329,3.82833215 45.4933343,3.6200009 45.31,3.44 C45.1266658,3.2599991 44.906668,3.11833385 44.65,3.015 C44.3933321,2.91166615 44.1050016,2.86 43.785,2.86 L39.935,2.86 Z M47.155,2.86 L47.155,10 L52.575,10 L52.575,8.68 L48.725,8.68 L48.725,6.93 L52.185,6.93 L52.185,5.71 L48.725,5.71 L48.725,4.18 L52.495,4.18 L52.495,2.86 L47.155,2.86 Z M58.335,8.1 C58.468334,7.9199991 58.5749996,7.696668 58.655,7.43 C58.7350004,7.163332 58.775,6.8400019 58.775,6.46 C58.775,6.1466651 58.7400004,5.8433348 58.67,5.55 C58.5999997,5.2566652 58.4883341,4.99500115 58.335,4.765 C58.1816659,4.53499885 57.9816679,4.35166735 57.735,4.215 C57.4883321,4.07833265 57.1883351,4.01 56.835,4.01 C56.4816649,4.01 56.1816679,4.07833265 55.935,4.215 C55.6883321,4.35166735 55.4883341,4.53499885 55.335,4.765 C55.1816659,4.99500115 55.0700004,5.2566652 55,5.55 C54.9299997,5.8433348 54.895,6.1466651 54.895,6.46 C54.895,6.7600015 54.9299997,7.05166525 55,7.335 C55.0700004,7.61833475 55.1816659,7.8733322 55.335,8.1 C55.4883341,8.3266678 55.6883321,8.50833265 55.935,8.645 C56.1816679,8.78166735 56.4816649,8.85 56.835,8.85 L57.0550002,8.84500002 C57.1183333,8.8416667 57.1716665,8.8366667 57.215,8.83 C57.3016671,8.8166666 57.3849996,8.7900002 57.465,8.75 L56.795,8.14 L57.525,7.36 L58.335,8.1 Z M58.565,9.75 C58.0916643,10.0233347 57.5150034,10.16 56.835,10.16 C56.2883306,10.16 55.7966689,10.0650009 55.36,9.875 C54.9233312,9.68499905 54.5550015,9.423335 54.255,9.09 C53.9549985,8.756665 53.7250008,8.36500225 53.565,7.915 C53.4049992,7.46499775 53.325,6.9800026 53.325,6.46 C53.325,5.926664 53.4049992,5.43166895 53.565,4.975 C53.7250008,4.51833105 53.9549985,4.1200017 54.255,3.78 C54.5550015,3.4399983 54.9233312,3.1733343 55.36,2.98 C55.7966689,2.7866657 56.2883306,2.69 56.835,2.69 C57.3883361,2.69 57.8816645,2.7866657 58.315,2.98 C58.7483355,3.1733343 59.1149985,3.4399983 59.415,3.78 C59.7150015,4.1200017 59.9449992,4.51833105 60.105,4.975 C60.2650008,5.43166895 60.345,5.926664 60.345,6.46 C60.345,6.9800026 60.2650008,7.4633311 60.105,7.91 C59.9449992,8.3566689 59.7150015,8.7499983 59.415,9.09 L60.305,9.9 L59.575,10.66 L58.565,9.75 Z M67.475,7.3 L67.475,2.86 L65.905,2.86 L65.905,7.3 C65.905,7.833336 65.7983344,8.22499875 65.585,8.475 C65.3716656,8.72500125 64.9850028,8.85 64.425,8.85 C64.1049984,8.85 63.850001,8.80500045 63.66,8.715 C63.4699991,8.62499955 63.3216672,8.50833405 63.215,8.365 C63.1083328,8.22166595 63.0383335,8.0566676 63.005,7.87 C62.9716665,7.6833324 62.955,7.4933343 62.955,7.3 L62.955,2.86 L61.385,2.86 L61.385,7.3 C61.385,8.2733382 61.6499974,8.993331 62.18,9.46 C62.7100027,9.926669 63.4583285,10.16 64.425,10.16 C65.3783381,10.16 66.1249973,9.92500235 66.665,9.455 C67.2050027,8.98499765 67.475,8.2666715 67.475,7.3 Z M68.825,2.86 L68.825,10 L74.245,10 L74.245,8.68 L70.395,8.68 L70.395,6.93 L73.855,6.93 L73.855,5.71 L70.395,5.71 L70.395,4.18 L74.165,4.18 L74.165,2.86 L68.825,2.86 Z M75.305,2.86 L75.305,10 L76.775,10 L76.775,5.22 L76.795,5.22 L79.765,10 L81.335,10 L81.335,2.86 L79.865,2.86 L79.865,7.65 L79.845,7.65 L76.865,2.86 L75.305,2.86 Z M87.475,5.26 L88.995,5.26 C88.9483331,4.8466646 88.8350009,4.4800016 88.655,4.16 C88.4749991,3.8399984 88.2466681,3.57166775 87.97,3.355 C87.693332,3.13833225 87.3800018,2.9733339 87.03,2.86 C86.6799983,2.7466661 86.3083353,2.69 85.915,2.69 C85.3683306,2.69 84.8766689,2.7866657 84.44,2.98 C84.0033312,3.1733343 83.6350015,3.4399983 83.335,3.78 C83.0349985,4.1200017 82.8050008,4.51833105 82.645,4.975 C82.4849992,5.43166895 82.405,5.926664 82.405,6.46 C82.405,6.9800026 82.4849992,7.46499775 82.645,7.915 C82.8050008,8.36500225 83.0349985,8.756665 83.335,9.09 C83.6350015,9.423335 84.0033312,9.68499905 84.44,9.875 C84.8766689,10.0650009 85.3683306,10.16 85.915,10.16 C86.3550022,10.16 86.7583315,10.093334 87.125,9.96 C87.4916685,9.826666 87.8116653,9.6333346 88.085,9.38 C88.3583347,9.1266654 88.5783325,8.8200018 88.745,8.46 C88.9116675,8.0999982 89.0149998,7.6966689 89.055,7.25 L87.535,7.25 C87.4749997,7.7300024 87.3100014,8.1166652 87.04,8.41 C86.7699987,8.7033348 86.3950024,8.85 85.915,8.85 C85.5616649,8.85 85.2616679,8.78166735 85.015,8.645 C84.7683321,8.50833265 84.5683341,8.3266678 84.415,8.1 C84.2616659,7.8733322 84.1500003,7.61833475 84.08,7.335 C84.0099997,7.05166525 83.975,6.7600015 83.975,6.46 C83.975,6.1466651 84.0099997,5.8433348 84.08,5.55 C84.1500003,5.2566652 84.2616659,4.99500115 84.415,4.765 C84.5683341,4.53499885 84.7683321,4.35166735 85.015,4.215 C85.2616679,4.07833265 85.5616649,4.01 85.915,4.01 C86.1083343,4.01 86.2933325,4.04166635 86.47,4.105 C86.6466675,4.16833365 86.8049993,4.2566661 86.945,4.37 C87.0850007,4.4833339 87.2016662,4.61499925 87.295,4.765 C87.3883338,4.91500075 87.4483332,5.0799991 87.475,5.26 Z M91.975,7.22 L89.355,2.86 L91.115,2.86 L92.785,5.68 L94.445,2.86 L96.195,2.86 L93.545,7.26 L93.545,10 L91.975,10 L91.975,7.22 Z" id="LFOFREQUENCY"></path>
                </g>
                <g id="Amplitude-modulation" transform="translate(3.000000, 167.000000)" fill="#E6E6E6">
                    <path d="M13.03,7.24 L13.96,4.62 L13.98,4.62 L14.88,7.24 L13.03,7.24 Z M13.18,2.86 L10.48,10 L12.06,10 L12.62,8.41 L15.29,8.41 L15.83,10 L17.46,10 L14.79,2.86 L13.18,2.86 Z M18.08,2.86 L18.08,10 L19.55,10 L19.55,4.99 L19.57,4.99 L21.32,10 L22.53,10 L24.28,4.94 L24.3,4.94 L24.3,10 L25.77,10 L25.77,2.86 L23.56,2.86 L21.98,7.77 L21.96,7.77 L20.29,2.86 L18.08,2.86 Z M28.72,6.22 L28.72,4.08 L29.94,4.08 C30.1200009,4.08 30.2933325,4.0933332 30.46,4.12 C30.6266675,4.1466668 30.7733327,4.19833295 30.9,4.275 C31.0266673,4.35166705 31.128333,4.4599993 31.205,4.6 C31.2816671,4.7400007 31.32,4.9233322 31.32,5.15 C31.32,5.3766678 31.2816671,5.5599993 31.205,5.7 C31.128333,5.8400007 31.0266673,5.94833295 30.9,6.025 C30.7733327,6.10166705 30.6266675,6.1533332 30.46,6.18 C30.2933325,6.2066668 30.1200009,6.22 29.94,6.22 L28.72,6.22 Z M27.15,2.86 L27.15,10 L28.72,10 L28.72,7.44 L30.37,7.44 C30.8166689,7.44 31.1966651,7.37500065 31.51,7.245 C31.8233349,7.11499935 32.0783324,6.9433344 32.275,6.73 C32.4716677,6.5166656 32.6149996,6.27166805 32.705,5.995 C32.7950005,5.71833195 32.84,5.4366681 32.84,5.15 C32.84,4.8566652 32.7950005,4.5733347 32.705,4.3 C32.6149996,4.0266653 32.4716677,3.7833344 32.275,3.57 C32.0783324,3.3566656 31.8233349,3.18500065 31.51,3.055 C31.1966651,2.92499935 30.8166689,2.86 30.37,2.86 L27.15,2.86 Z M33.82,2.86 L33.82,10 L38.87,10 L38.87,8.68 L35.39,8.68 L35.39,2.86 L33.82,2.86 Z M39.75,2.86 L39.75,10 L41.32,10 L41.32,2.86 L39.75,2.86 Z M44.28,4.18 L44.28,10 L45.85,10 L45.85,4.18 L47.99,4.18 L47.99,2.86 L42.14,2.86 L42.14,4.18 L44.28,4.18 Z M54.87,7.3 L54.87,2.86 L53.3,2.86 L53.3,7.3 C53.3,7.833336 53.1933344,8.22499875 52.98,8.475 C52.7666656,8.72500125 52.3800028,8.85 51.82,8.85 C51.4999984,8.85 51.245001,8.80500045 51.055,8.715 C50.8649991,8.62499955 50.7166672,8.50833405 50.61,8.365 C50.5033328,8.22166595 50.4333335,8.0566676 50.4,7.87 C50.3666665,7.6833324 50.35,7.4933343 50.35,7.3 L50.35,2.86 L48.78,2.86 L48.78,7.3 C48.78,8.2733382 49.0449974,8.993331 49.575,9.46 C50.1050027,9.926669 50.8533285,10.16 51.82,10.16 C52.7733381,10.16 53.5199973,9.92500235 54.06,9.455 C54.6000027,8.98499765 54.87,8.2666715 54.87,7.3 Z M57.79,8.68 L57.79,4.18 L58.91,4.18 C59.2966686,4.18 59.6216654,4.23499945 59.885,4.345 C60.1483347,4.45500055 60.3599992,4.6133323 60.52,4.82 C60.6800008,5.0266677 60.7949997,5.27499855 60.865,5.565 C60.9350004,5.85500145 60.97,6.18 60.97,6.54 C60.97,6.9333353 60.9200005,7.2666653 60.82,7.54 C60.7199995,7.8133347 60.5866675,8.03499915 60.42,8.205 C60.2533325,8.37500085 60.0633344,8.4966663 59.85,8.57 C59.6366656,8.6433337 59.4166678,8.68 59.19,8.68 L57.79,8.68 Z M56.22,2.86 L56.22,10 L59.3,10 C59.8466694,10 60.3216647,9.90833425 60.725,9.725 C61.1283354,9.54166575 61.4649987,9.2900016 61.735,8.97 C62.0050014,8.6499984 62.206666,8.2700022 62.34,7.83 C62.473334,7.3899978 62.54,6.9100026 62.54,6.39 C62.54,5.7966637 62.4583342,5.2800022 62.295,4.84 C62.1316659,4.3999978 61.9050015,4.0333348 61.615,3.74 C61.3249986,3.4466652 60.9816687,3.2266674 60.585,3.08 C60.1883314,2.9333326 59.7600023,2.86 59.3,2.86 L56.22,2.86 Z M63.63,2.86 L63.63,10 L69.05,10 L69.05,8.68 L65.2,8.68 L65.2,6.93 L68.66,6.93 L68.66,5.71 L65.2,5.71 L65.2,4.18 L68.97,4.18 L68.97,2.86 L63.63,2.86 Z M85.16,2.69 C85.7133361,2.69 86.2066645,2.7866657 86.64,2.98 C87.0733355,3.1733343 87.4399985,3.4399983 87.74,3.78 C88.0400015,4.1200017 88.2699992,4.51833105 88.43,4.975 C88.5900008,5.43166895 88.67,5.926664 88.67,6.46 C88.67,6.9800026 88.5900008,7.46499775 88.43,7.915 C88.2699992,8.36500225 88.0400015,8.756665 87.74,9.09 C87.4399985,9.423335 87.0733355,9.68499905 86.64,9.875 C86.2066645,10.065001 85.7133361,10.16 85.16,10.16 C84.6133306,10.16 84.1216689,10.065001 83.685,9.875 C83.2483312,9.68499905 82.8800015,9.423335 82.58,9.09 C82.2799985,8.756665 82.0500008,8.36500225 81.89,7.915 C81.7299992,7.46499775 81.65,6.9800026 81.65,6.46 C81.65,5.926664 81.7299992,5.43166895 81.89,4.975 C82.0500008,4.51833105 82.2799985,4.1200017 82.58,3.78 C82.8800015,3.4399983 83.2483312,3.1733343 83.685,2.98 C84.1216689,2.7866657 84.6133306,2.69 85.16,2.69 Z M75.1,2.86 L76.77,7.77 L76.79,7.77 L78.37,2.86 L80.58,2.86 L80.58,10 L79.11,10 L79.11,4.94 L79.09,4.94 L77.34,10 L76.13,10 L74.38,4.99 L74.36,4.99 L74.36,10 L72.89,10 L72.89,2.86 L75.1,2.86 Z M92.82,2.86 C93.2800023,2.86 93.7083313,2.9333326 94.105,3.08 C94.5016686,3.2266674 94.8449985,3.4466652 95.135,3.74 C95.4250014,4.0333348 95.6516658,4.3999978 95.815,4.84 C95.9783341,5.2800022 96.06,5.7966637 96.06,6.39 C96.06,6.9100026 95.993334,7.3899978 95.86,7.83 C95.726666,8.2700022 95.5250013,8.6499984 95.255,8.97 C94.9849986,9.2900016 94.6483353,9.54166575 94.245,9.725 C93.8416646,9.90833425 93.3666694,10 92.82,10 L89.74,10 L89.74,2.86 L92.82,2.86 Z M85.16,4.01 C84.8066649,4.01 84.5066679,4.07833265 84.26,4.215 C84.0133321,4.35166735 83.8133341,4.53499885 83.66,4.765 C83.5066659,4.99500115 83.3950004,5.2566652 83.325,5.55 C83.2549997,5.8433348 83.22,6.1466651 83.22,6.46 C83.22,6.7600015 83.2549997,7.05166525 83.325,7.335 C83.3950004,7.61833475 83.5066659,7.8733322 83.66,8.1 C83.8133341,8.3266678 84.0133321,8.50833265 84.26,8.645 C84.5066679,8.78166735 84.8066649,8.85 85.16,8.85 C85.5133351,8.85 85.8133321,8.78166735 86.06,8.645 C86.3066679,8.50833265 86.5066659,8.3266678 86.66,8.1 C86.8133341,7.8733322 86.9249997,7.61833475 86.995,7.335 C87.0650004,7.05166525 87.1,6.7600015 87.1,6.46 C87.1,6.1466651 87.0650004,5.8433348 86.995,5.55 C86.9249997,5.2566652 86.8133341,4.99500115 86.66,4.765 C86.5066659,4.53499885 86.3066679,4.35166735 86.06,4.215 C85.8133321,4.07833265 85.5133351,4.01 85.16,4.01 Z M92.43,4.18 L91.31,4.18 L91.31,8.68 L92.71,8.68 C92.9366678,8.68 93.1566656,8.6433337 93.37,8.57 C93.5833344,8.4966663 93.7733325,8.37500085 93.94,8.205 C94.1066675,8.03499915 94.2399995,7.8133347 94.34,7.54 C94.4400005,7.2666653 94.49,6.9333353 94.49,6.54 C94.49,6.18 94.4550004,5.85500145 94.385,5.565 C94.3149997,5.27499855 94.2000008,5.0266677 94.04,4.82 C93.8799992,4.6133323 93.6683347,4.45500055 93.405,4.345 C93.1416654,4.23499945 92.8166686,4.18 92.43,4.18 Z" id="AMPLITUDEMOD"></path>
                </g>
                <g id="frequency-modulation" transform="translate(3.000000, 223.000000)" fill="#E6E6E6">
                    <path d="M9.275,2.86 L9.275,10 L10.845,10 L10.845,7.05 L13.835,7.05 L13.835,5.83 L10.845,5.83 L10.845,4.18 L14.295,4.18 L14.295,2.86 L9.275,2.86 Z M16.775,6.09 L16.775,4.08 L18.495,4.08 C18.8550018,4.08 19.1249991,4.15833255 19.305,4.315 C19.4850009,4.47166745 19.575,4.7233316 19.575,5.07 C19.575,5.4300018 19.4850009,5.6899992 19.305,5.85 C19.1249991,6.0100008 18.8550018,6.09 18.495,6.09 L16.775,6.09 Z M15.205,2.86 L15.205,10 L16.775,10 L16.775,7.21 L18.345,7.21 C18.7383353,7.21 19.0216658,7.2966658 19.195,7.47 C19.3683342,7.6433342 19.4816664,7.9166648 19.535,8.29 C19.5616668,8.48111207 19.5838889,8.67814809 19.6016667,8.88111073 L19.625,9.19 C19.6450001,9.5033349 19.6983329,9.7733322 19.785,10 L21.355,10 C21.2816663,9.8999995 21.2266669,9.77833405 21.19,9.635 C21.1533332,9.49166595 21.1266667,9.3400008 21.11,9.18 L21.08875,8.94249999 L21.08875,8.94249999 L21.055,8.31 L21.055,8.31 C21.0416666,8.1299991 21.0166669,7.9500009 20.98,7.77 C20.9433332,7.5899991 20.8850004,7.42500075 20.805,7.275 C20.7249996,7.12499925 20.6216673,6.99500055 20.495,6.885 C20.3683327,6.77499945 20.2083343,6.6933336 20.015,6.64 L20.015,6.62 C20.415002,6.4599992 20.7033324,6.2266682 20.88,5.92 C21.0566676,5.6133318 21.145,5.2500021 21.145,4.83 C21.145,4.5566653 21.0966671,4.30166785 21,4.065 C20.9033328,3.82833215 20.7633342,3.6200009 20.58,3.44 C20.3966657,3.2599991 20.176668,3.11833385 19.92,3.015 C19.6633321,2.91166615 19.3750016,2.86 19.055,2.86 L15.205,2.86 Z M22.425,2.86 L22.425,10 L27.845,10 L27.845,8.68 L23.995,8.68 L23.995,6.93 L27.455,6.93 L27.455,5.71 L23.995,5.71 L23.995,4.18 L27.765,4.18 L27.765,2.86 L22.425,2.86 Z M33.605,8.1 C33.738334,7.9199991 33.8449996,7.696668 33.925,7.43 C34.0050004,7.163332 34.045,6.8400019 34.045,6.46 C34.045,6.1466651 34.0100003,5.8433348 33.94,5.55 C33.8699996,5.2566652 33.7583341,4.99500115 33.605,4.765 C33.4516659,4.53499885 33.2516679,4.35166735 33.005,4.215 C32.7583321,4.07833265 32.4583351,4.01 32.105,4.01 C31.7516649,4.01 31.4516679,4.07833265 31.205,4.215 C30.9583321,4.35166735 30.7583341,4.53499885 30.605,4.765 C30.4516659,4.99500115 30.3400003,5.2566652 30.27,5.55 C30.1999996,5.8433348 30.165,6.1466651 30.165,6.46 C30.165,6.7600015 30.1999996,7.05166525 30.27,7.335 C30.3400003,7.61833475 30.4516659,7.8733322 30.605,8.1 C30.7583341,8.3266678 30.9583321,8.50833265 31.205,8.645 C31.4516679,8.78166735 31.7516649,8.85 32.105,8.85 L32.3250001,8.84500003 C32.3883333,8.8416667 32.4416664,8.8366667 32.485,8.83 C32.5716671,8.8166666 32.6549996,8.7900002 32.735,8.75 L32.065,8.14 L32.795,7.36 L33.605,8.1 Z M33.835,9.75 C33.3616643,10.0233347 32.7850034,10.16 32.105,10.16 C31.5583306,10.16 31.0666688,10.0650009 30.63,9.875 C30.1933311,9.68499905 29.8250015,9.423335 29.525,9.09 C29.2249985,8.756665 28.9950008,8.36500225 28.835,7.915 C28.6749992,7.46499775 28.595,6.9800026 28.595,6.46 C28.595,5.926664 28.6749992,5.43166895 28.835,4.975 C28.9950008,4.51833105 29.2249985,4.1200017 29.525,3.78 C29.8250015,3.4399983 30.1933311,3.1733343 30.63,2.98 C31.0666688,2.7866657 31.5583306,2.69 32.105,2.69 C32.6583361,2.69 33.1516645,2.7866657 33.585,2.98 C34.0183355,3.1733343 34.3849985,3.4399983 34.685,3.78 C34.9850015,4.1200017 35.2149992,4.51833105 35.375,4.975 C35.5350008,5.43166895 35.615,5.926664 35.615,6.46 C35.615,6.9800026 35.5350008,7.4633311 35.375,7.91 C35.2149992,8.3566689 34.9850015,8.7499983 34.685,9.09 L35.575,9.9 L34.845,10.66 L33.835,9.75 Z M42.745,7.3 L42.745,2.86 L41.175,2.86 L41.175,7.3 C41.175,7.833336 41.0683344,8.22499875 40.855,8.475 C40.6416656,8.72500125 40.2550028,8.85 39.695,8.85 C39.3749984,8.85 39.120001,8.80500045 38.93,8.715 C38.7399991,8.62499955 38.5916672,8.50833405 38.485,8.365 C38.3783328,8.22166595 38.3083335,8.0566676 38.275,7.87 C38.2416665,7.6833324 38.225,7.4933343 38.225,7.3 L38.225,2.86 L36.655,2.86 L36.655,7.3 C36.655,8.2733382 36.9199974,8.993331 37.45,9.46 C37.9800027,9.926669 38.7283285,10.16 39.695,10.16 C40.6483381,10.16 41.3949973,9.92500235 41.935,9.455 C42.4750027,8.98499765 42.745,8.2666715 42.745,7.3 Z M44.095,2.86 L44.095,10 L49.515,10 L49.515,8.68 L45.665,8.68 L45.665,6.93 L49.125,6.93 L49.125,5.71 L45.665,5.71 L45.665,4.18 L49.435,4.18 L49.435,2.86 L44.095,2.86 Z M50.575,2.86 L50.575,10 L52.045,10 L52.045,5.22 L52.065,5.22 L55.035,10 L56.605,10 L56.605,2.86 L55.135,2.86 L55.135,7.65 L55.115,7.65 L52.135,2.86 L50.575,2.86 Z M62.745,5.26 L64.265,5.26 C64.2183331,4.8466646 64.1050009,4.4800016 63.925,4.16 C63.7449991,3.8399984 63.516668,3.57166775 63.24,3.355 C62.963332,3.13833225 62.6500018,2.9733339 62.3,2.86 C61.9499983,2.7466661 61.5783353,2.69 61.185,2.69 C60.6383306,2.69 60.1466688,2.7866657 59.71,2.98 C59.2733312,3.1733343 58.9050015,3.4399983 58.605,3.78 C58.3049985,4.1200017 58.0750008,4.51833105 57.915,4.975 C57.7549992,5.43166895 57.675,5.926664 57.675,6.46 C57.675,6.9800026 57.7549992,7.46499775 57.915,7.915 C58.0750008,8.36500225 58.3049985,8.756665 58.605,9.09 C58.9050015,9.423335 59.2733312,9.68499905 59.71,9.875 C60.1466688,10.0650009 60.6383306,10.16 61.185,10.16 C61.6250022,10.16 62.0283315,10.093334 62.395,9.96 C62.7616685,9.826666 63.0816653,9.6333346 63.355,9.38 C63.6283347,9.1266654 63.8483325,8.8200018 64.015,8.46 C64.1816675,8.0999982 64.2849998,7.6966689 64.325,7.25 L62.805,7.25 C62.7449997,7.7300024 62.5800014,8.1166652 62.31,8.41 C62.0399987,8.7033348 61.6650024,8.85 61.185,8.85 C60.8316649,8.85 60.5316679,8.78166735 60.285,8.645 C60.0383321,8.50833265 59.8383341,8.3266678 59.685,8.1 C59.5316659,7.8733322 59.4200003,7.61833475 59.35,7.335 C59.2799997,7.05166525 59.245,6.7600015 59.245,6.46 C59.245,6.1466651 59.2799997,5.8433348 59.35,5.55 C59.4200003,5.2566652 59.5316659,4.99500115 59.685,4.765 C59.8383341,4.53499885 60.0383321,4.35166735 60.285,4.215 C60.5316679,4.07833265 60.8316649,4.01 61.185,4.01 C61.3783343,4.01 61.5633325,4.04166635 61.74,4.105 C61.9166675,4.16833365 62.0749993,4.2566661 62.215,4.37 C62.3550007,4.4833339 62.4716662,4.61499925 62.565,4.765 C62.6583338,4.91500075 62.7183332,5.0799991 62.745,5.26 Z M67.245,7.22 L67.245,10 L68.815,10 L68.815,7.26 L71.465,2.86 L69.715,2.86 L68.055,5.68 L66.385,2.86 L64.625,2.86 L67.245,7.22 Z M87.115,2.69 C87.6683361,2.69 88.1616645,2.7866657 88.595,2.98 C89.0283355,3.1733343 89.3949985,3.4399983 89.695,3.78 C89.9950015,4.1200017 90.2249992,4.51833105 90.385,4.975 C90.5450008,5.43166895 90.625,5.926664 90.625,6.46 C90.625,6.9800026 90.5450008,7.46499775 90.385,7.915 C90.2249992,8.36500225 89.9950015,8.756665 89.695,9.09 C89.3949985,9.423335 89.0283355,9.68499905 88.595,9.875 C88.1616645,10.065001 87.6683361,10.16 87.115,10.16 C86.5683306,10.16 86.0766689,10.065001 85.64,9.875 C85.2033312,9.68499905 84.8350015,9.423335 84.535,9.09 C84.2349985,8.756665 84.0050008,8.36500225 83.845,7.915 C83.6849992,7.46499775 83.605,6.9800026 83.605,6.46 C83.605,5.926664 83.6849992,5.43166895 83.845,4.975 C84.0050008,4.51833105 84.2349985,4.1200017 84.535,3.78 C84.8350015,3.4399983 85.2033312,3.1733343 85.64,2.98 C86.0766689,2.7866657 86.5683306,2.69 87.115,2.69 Z M77.055,2.86 L78.725,7.77 L78.745,7.77 L80.325,2.86 L82.535,2.86 L82.535,10 L81.065,10 L81.065,4.94 L81.045,4.94 L79.295,10 L78.085,10 L76.335,4.99 L76.315,4.99 L76.315,10 L74.845,10 L74.845,2.86 L77.055,2.86 Z M94.775,2.86 C95.2350023,2.86 95.6633314,2.9333326 96.06,3.08 C96.4566687,3.2266674 96.7999986,3.4466652 97.09,3.74 C97.3800015,4.0333348 97.6066659,4.3999978 97.77,4.84 C97.9333342,5.2800022 98.015,5.7966637 98.015,6.39 C98.015,6.9100026 97.948334,7.3899978 97.815,7.83 C97.681666,8.2700022 97.4800014,8.6499984 97.21,8.97 C96.9399987,9.2900016 96.6033354,9.54166575 96.2,9.725 C95.7966647,9.90833425 95.3216694,10 94.775,10 L91.695,10 L91.695,2.86 L94.775,2.86 Z M87.115,4.01 C86.7616649,4.01 86.4616679,4.07833265 86.215,4.215 C85.9683321,4.35166735 85.7683341,4.53499885 85.615,4.765 C85.4616659,4.99500115 85.3500004,5.2566652 85.28,5.55 C85.2099997,5.8433348 85.175,6.1466651 85.175,6.46 C85.175,6.7600015 85.2099997,7.05166525 85.28,7.335 C85.3500004,7.61833475 85.4616659,7.8733322 85.615,8.1 C85.7683341,8.3266678 85.9683321,8.50833265 86.215,8.645 C86.4616679,8.78166735 86.7616649,8.85 87.115,8.85 C87.4683351,8.85 87.7683321,8.78166735 88.015,8.645 C88.2616679,8.50833265 88.4616659,8.3266678 88.615,8.1 C88.7683341,7.8733322 88.8799997,7.61833475 88.95,7.335 C89.0200004,7.05166525 89.055,6.7600015 89.055,6.46 C89.055,6.1466651 89.0200004,5.8433348 88.95,5.55 C88.8799997,5.2566652 88.7683341,4.99500115 88.615,4.765 C88.4616659,4.53499885 88.2616679,4.35166735 88.015,4.215 C87.7683321,4.07833265 87.4683351,4.01 87.115,4.01 Z M94.385,4.18 L93.265,4.18 L93.265,8.68 L94.665,8.68 C94.8916678,8.68 95.1116656,8.6433337 95.325,8.57 C95.5383344,8.4966663 95.7283325,8.37500085 95.895,8.205 C96.0616675,8.03499915 96.1949995,7.8133347 96.295,7.54 C96.3950005,7.2666653 96.445,6.9333353 96.445,6.54 C96.445,6.18 96.4100004,5.85500145 96.34,5.565 C96.2699997,5.27499855 96.1550008,5.0266677 95.995,4.82 C95.8349992,4.6133323 95.6233347,4.45500055 95.36,4.345 C95.0966654,4.23499945 94.7716686,4.18 94.385,4.18 Z" id="FREQUENCYMOD"></path>
                </g>
                <g id="Feedback" transform="translate(67.000000, 0.000000)" fill="#17569B">
                    <path d="M5.768,3.432 L5.768,12 L7.652,12 L7.652,8.46 L11.24,8.46 L11.24,6.996 L7.652,6.996 L7.652,5.016 L11.792,5.016 L11.792,3.432 L5.768,3.432 Z M14.768,10.416 L14.768,5.016 L16.112,5.016 C16.5760023,5.016 16.9659984,5.08199934 17.282,5.214 C17.5980016,5.34600066 17.851999,5.53599876 18.044,5.784 C18.236001,6.03200124 18.3739996,6.32999826 18.458,6.678 C18.5420004,7.02600174 18.584,7.41599784 18.584,7.848 C18.584,8.32000236 18.5240006,8.71999836 18.404,9.048 C18.2839994,9.37600164 18.124001,9.64199898 17.924,9.846 C17.723999,10.050001 17.4960013,10.1959996 17.24,10.284 C16.9839987,10.3720004 16.7200014,10.416 16.448,10.416 L14.768,10.416 Z M12.884,3.432 L12.884,12 L16.58,12 C17.2360033,12 17.8059976,11.8900011 18.29,11.67 C18.7740024,11.4499989 19.1779984,11.1480019 19.502,10.764 C19.8260016,10.3799981 20.0679992,9.92400264 20.228,9.396 C20.3880008,8.86799736 20.468,8.29200312 20.468,7.668 C20.468,6.95599644 20.370001,6.33600264 20.174,5.808 C19.977999,5.27999736 19.7060017,4.84000176 19.358,4.488 C19.0099983,4.13599824 18.5980024,3.87200088 18.122,3.696 C17.6459976,3.51999912 17.1320028,3.432 16.58,3.432 L12.884,3.432 Z M23.66,6.9 L23.66,4.896 L25.424,4.896 C25.5920008,4.896 25.7539992,4.90999986 25.91,4.938 C26.0660008,4.96600014 26.2039994,5.01599964 26.324,5.088 C26.4440006,5.16000036 26.5399996,5.25999936 26.612,5.388 C26.6840004,5.51600064 26.72,5.679999 26.72,5.88 C26.72,6.2400018 26.6120011,6.4999992 26.396,6.66 C26.1799989,6.8200008 25.9040017,6.9 25.568,6.9 L23.66,6.9 Z M21.776,3.432 L21.776,12 L25.928,12 C26.3120019,12 26.6859982,11.9520005 27.05,11.856 C27.4140018,11.7599995 27.7379986,11.612001 28.022,11.412 C28.3060014,11.211999 28.5319992,10.9540016 28.7,10.638 C28.8680008,10.3219984 28.952,9.94800216 28.952,9.516 C28.952,8.97999732 28.8220013,8.5220019 28.562,8.142 C28.3019987,7.7619981 27.9080026,7.49600076 27.38,7.344 C27.7640019,7.15999908 28.053999,6.92400144 28.25,6.636 C28.446001,6.34799856 28.544,5.98800216 28.544,5.556 C28.544,5.155998 28.4780007,4.82000136 28.346,4.548 C28.2139993,4.27599864 28.0280012,4.05800082 27.788,3.894 C27.5479988,3.72999918 27.2600017,3.61200036 26.924,3.54 C26.5879983,3.46799964 26.216002,3.432 25.808,3.432 L21.776,3.432 Z M23.66,10.536 L23.66,8.184 L25.712,8.184 C26.120002,8.184 26.4479988,8.27799906 26.696,8.466 C26.9440012,8.65400094 27.068,8.9679978 27.068,9.408 C27.068,9.63200112 27.0300004,9.81599928 26.954,9.96 C26.8779996,10.1040007 26.7760006,10.2179996 26.648,10.302 C26.5199994,10.3860004 26.3720008,10.4459998 26.204,10.482 C26.0359992,10.5180002 25.8600009,10.536 25.676,10.536 L23.66,10.536 Z M30.224,3.432 L32.108,3.432 L32.108,6.984 L35.456,3.432 L37.808,3.432 L34.46,6.816 L38.132,12 L35.768,12 L33.188,8.148 L32.108,9.24 L32.108,12 L30.224,12 L30.224,3.432 Z" id="FDBK"></path>
                </g>
                <g id="Algorithm" fill="#17569B">
                    <path d="M7.598,8.688 L8.714,5.544 L8.738,5.544 L9.818,8.688 L7.598,8.688 Z M7.778,3.432 L4.538,12 L6.434,12 L7.106,10.092 L10.31,10.092 L10.958,12 L12.914,12 L9.71,3.432 L7.778,3.432 Z M13.658,3.432 L13.658,12 L19.718,12 L19.718,10.416 L15.542,10.416 L15.542,3.432 L13.658,3.432 Z M24.614,3.228 C25.0540022,3.228 25.4799979,3.29399934 25.892,3.426 C26.3040021,3.55800066 26.6759983,3.75199872 27.008,4.008 C27.3400017,4.26400128 27.6139989,4.57999812 27.83,4.956 C28.0460011,5.33200188 28.1779998,5.76399756 28.226,6.252 L28.226,6.252 L26.426,6.252 C26.3139994,5.7719976 26.0980016,5.4120012 25.778,5.172 C25.4579984,4.9319988 25.0700023,4.812 24.614,4.812 C24.1899979,4.812 23.8300015,4.89399918 23.534,5.058 C23.2379985,5.22200082 22.9980009,5.44199862 22.814,5.718 C22.6299991,5.99400138 22.4960004,6.30799824 22.412,6.66 C22.3279996,7.01200176 22.286,7.37599812 22.286,7.752 C22.286,8.1120018 22.3279996,8.4619983 22.412,8.802 C22.4960004,9.1420017 22.6299991,9.44799864 22.814,9.72 C22.9980009,9.99200136 23.2379985,10.2099992 23.534,10.374 C23.8300015,10.5380008 24.1899979,10.62 24.614,10.62 C25.2380031,10.62 25.7199983,10.4620016 26.06,10.146 C26.4000017,9.82999842 26.5979997,9.372003 26.654,8.772 L26.654,8.772 L24.758,8.772 L24.758,7.368 L28.358,7.368 L28.358,12 L27.158,12 L26.966,11.028 C26.6299983,11.4600022 26.258002,11.7619991 25.85,11.934 C25.441998,12.1060009 25.0300021,12.192 24.614,12.192 C23.9579967,12.192 23.3680026,12.0780011 22.844,11.85 C22.3199974,11.6219989 21.8780018,11.308002 21.518,10.908 C21.1579982,10.507998 20.882001,10.0380027 20.69,9.498 C20.497999,8.9579973 20.402,8.37600312 20.402,7.752 C20.402,7.1119968 20.497999,6.51800274 20.69,5.97 C20.882001,5.42199726 21.1579982,4.94400204 21.518,4.536 C21.8780018,4.12799796 22.3199974,3.80800116 22.844,3.576 C23.3680026,3.34399884 23.9579967,3.228 24.614,3.228 Z M33.722,3.228 C34.3860033,3.228 34.9779974,3.34399884 35.498,3.576 C36.0180026,3.80800116 36.4579982,4.12799796 36.818,4.536 C37.1780018,4.94400204 37.453999,5.42199726 37.646,5.97 C37.838001,6.51800274 37.934,7.1119968 37.934,7.752 C37.934,8.37600312 37.838001,8.9579973 37.646,9.498 C37.453999,10.0380027 37.1780018,10.507998 36.818,10.908 C36.4579982,11.308002 36.0180026,11.6219989 35.498,11.85 C34.9779974,12.0780011 34.3860033,12.192 33.722,12.192 C33.0659967,12.192 32.4760026,12.0780011 31.952,11.85 C31.4279974,11.6219989 30.9860018,11.308002 30.626,10.908 C30.2659982,10.507998 29.990001,10.0380027 29.798,9.498 C29.605999,8.9579973 29.51,8.37600312 29.51,7.752 C29.51,7.1119968 29.605999,6.51800274 29.798,5.97 C29.990001,5.42199726 30.2659982,4.94400204 30.626,4.536 C30.9860018,4.12799796 31.4279974,3.80800116 31.952,3.576 C32.4760026,3.34399884 33.0659967,3.228 33.722,3.228 Z M33.722,4.812 C33.2979979,4.812 32.9380015,4.89399918 32.642,5.058 C32.3459985,5.22200082 32.1060009,5.44199862 31.922,5.718 C31.7379991,5.99400138 31.6040004,6.30799824 31.52,6.66 C31.4359996,7.01200176 31.394,7.37599812 31.394,7.752 C31.394,8.1120018 31.4359996,8.4619983 31.52,8.802 C31.6040004,9.1420017 31.7379991,9.44799864 31.922,9.72 C32.1060009,9.99200136 32.3459985,10.2099992 32.642,10.374 C32.9380015,10.5380008 33.2979979,10.62 33.722,10.62 C34.1460021,10.62 34.5059985,10.5380008 34.802,10.374 C35.0980015,10.2099992 35.3379991,9.99200136 35.522,9.72 C35.7060009,9.44799864 35.8399996,9.1420017 35.924,8.802 C36.0080004,8.4619983 36.05,8.1120018 36.05,7.752 C36.05,7.37599812 36.0080004,7.01200176 35.924,6.66 C35.8399996,6.30799824 35.7060009,5.99400138 35.522,5.718 C35.3379991,5.44199862 35.0980015,5.22200082 34.802,5.058 C34.5059985,4.89399918 34.1460021,4.812 33.722,4.812 Z" id="ALGO"></path>
                </g>
            </g>
            <g id="Out" transform="translate(20.000000, 305.000000)">
                <g id="Right" transform="translate(45.000000, 0.000000)">
                    <rect id="Rectangle" fill="#FF4040" x="0" y="0" width="35" height="50" rx="5"></rect>
                    <path d="M6.05866666,7.9958342 L6.06066665,7.17266581 C6.06422219,6.83222179 6.07133328,6.5353346 6.082,6.282 C6.09800008,5.9019981 6.13199974,5.60000112 6.184,5.376 C6.23600026,5.15199888 6.3119995,4.99600044 6.412,4.908 C6.5120005,4.81999956 6.64599916,4.776 6.814,4.776 C6.98200084,4.776 7.1159995,4.81999956 7.216,4.908 C7.3160005,4.99600044 7.39199974,5.15199888 7.444,5.376 C7.49600026,5.60000112 7.52999992,5.9019981 7.546,6.282 L7.55933337,6.69466687 C7.56644448,6.99155512 7.57,7.33199808 7.57,7.716 L7.56400003,8.50650037 C7.56000004,8.74549977 7.55400004,8.95999905 7.546,9.15 C7.52999992,9.5300019 7.49600026,9.83199888 7.444,10.056 C7.39199974,10.2800011 7.3160005,10.4359996 7.216,10.524 C7.1159995,10.6120004 6.98200084,10.656 6.814,10.656 C6.64599916,10.656 6.5120005,10.6120004 6.412,10.524 C6.3119995,10.4359996 6.23600026,10.2800011 6.184,10.056 C6.14239979,9.8767991 6.11231997,9.64768086 6.09376001,9.36864062 L6.082,9.15 C6.0686666,8.83333175 6.06088887,8.44861258 6.05866666,7.9958342 L6.05866666,7.9958342 Z M3.754,7.716 C3.754,8.516004 3.80599948,9.19799718 3.91,9.762 C4.01400052,10.3260028 4.1859988,10.7859982 4.426,11.142 C4.6660012,11.4980018 4.98199804,11.7519992 5.374,11.904 C5.76600196,12.0560008 6.24599716,12.132 6.814,12.132 C7.38200284,12.132 7.86199804,12.0560008 8.254,11.904 C8.64600196,11.7519992 8.9619988,11.4980018 9.202,11.142 C9.4420012,10.7859982 9.61399948,10.3260028 9.718,9.762 C9.82200052,9.19799718 9.874,8.516004 9.874,7.716 C9.874,6.915996 9.82200052,6.23400282 9.718,5.67 C9.61399948,5.10599718 9.4420012,4.64600178 9.202,4.29 C8.9619988,3.93399822 8.64600196,3.67400082 8.254,3.51 C7.86199804,3.34599918 7.38200284,3.264 6.814,3.264 C6.24599716,3.264 5.76600196,3.34599918 5.374,3.51 C4.98199804,3.67400082 4.6660012,3.93399822 4.426,4.29 C4.1859988,4.64600178 4.01400052,5.10599718 3.91,5.67 C3.80599948,6.23400282 3.754,6.915996 3.754,7.716 Z M12.514,3.432 L10.282,3.432 L10.282,9.048 C10.282,9.648003 10.3459994,10.147998 10.474,10.548 C10.6020006,10.948002 10.7879988,11.2679988 11.032,11.508 C11.2760012,11.7480012 11.5799982,11.9119996 11.944,12 C12.3080018,12.0880004 12.7219977,12.132 13.186,12.132 C13.6580024,12.132 14.0739982,12.0880004 14.434,12 C14.7940018,11.9119996 15.0959988,11.7480012 15.34,11.508 C15.5840012,11.2679988 15.7699994,10.948002 15.898,10.548 C16.0260006,10.147998 16.09,9.648003 16.09,9.048 L16.09,3.432 L13.858,3.432 L13.858,9.612 C13.858,10.0280021 13.7980006,10.3059993 13.678,10.446 C13.5579994,10.5860007 13.394001,10.656 13.186,10.656 C12.977999,10.656 12.8140006,10.5860007 12.694,10.446 C12.5739994,10.3059993 12.514,10.0280021 12.514,9.612 L12.514,3.432 Z M17.878,5.328 L17.878,12 L20.11,12 L20.11,5.328 L21.79,5.328 L21.79,3.432 L16.222,3.432 L16.222,5.328 L17.878,5.328 Z M28.954,3.432 C29.3780021,3.432 29.7399985,3.48799944 30.04,3.6 C30.3400015,3.71200056 30.5839991,3.86999898 30.772,4.074 C30.9600009,4.27800102 31.0959996,4.5199986 31.18,4.8 C31.2640004,5.0800014 31.306,5.38399836 31.306,5.712 C31.306,6.28800288 31.1900012,6.75199824 30.958,7.104 C30.7259988,7.45600176 30.3540026,7.6719996 29.842,7.752 L29.842,7.776 C30.3780027,7.82400024 30.745999,8.01199836 30.946,8.34 C31.146001,8.66800164 31.246,9.11999712 31.246,9.696 L31.246,10.776 C31.246,10.8960006 31.25,11.0099995 31.258,11.118 C31.266,11.2260005 31.2779999,11.3239996 31.294,11.412 C31.3100001,11.5000004 31.3299999,11.5679998 31.354,11.616 L31.45,11.754 C31.4820002,11.7980002 31.5339996,11.8399998 31.606,11.88 L31.606,12 L29.23,12 C29.1739997,11.8879994 29.1320001,11.7560008 29.104,11.604 C29.0759999,11.4519992 29.0560001,11.3000008 29.044,11.148 L29.029,10.9245 L29.02,10.71 C29.0173333,10.6166662 29.0155555,10.5348888 29.0146667,10.4646667 L29.014,9.792 C29.014,9.5519988 29.0020001,9.3520008 28.978,9.192 C28.9539999,9.0319992 28.9120003,8.90600046 28.852,8.814 C28.7919997,8.72199954 28.7160005,8.65800018 28.624,8.622 C28.5319995,8.58599982 28.4180007,8.568 28.282,8.568 L27.694,8.568 L27.694,12 L25.462,12 L25.462,3.432 L28.954,3.432 Z M24.898,7.62 L24.898,9.444 L21.154,9.444 L21.154,7.62 L24.898,7.62 Z M28.126,5.04 L27.694,5.04 L27.694,7.056 L28.138,7.056 C28.4580016,7.056 28.694,6.96200094 28.846,6.774 C28.9980008,6.58599906 29.074,6.34000152 29.074,6.036 C29.074,5.6759982 29.0000007,5.42000076 28.852,5.268 C28.7039993,5.11599924 28.4620017,5.04 28.126,5.04 Z" id="OUT-R" fill="#1D1D1D" fill-rule="nonzero"></path>
                </g>
                <g id="Left">
                    <rect id="Rectangle" fill="#FFFFFF" x="0" y="0" width="35" height="50" rx="5"></rect>
                    <path d="M6.72466666,7.9958342 L6.72666665,7.17266581 C6.73022219,6.83222179 6.73733328,6.5353346 6.748,6.282 C6.76400008,5.9019981 6.79799974,5.60000112 6.85,5.376 C6.90200026,5.15199888 6.9779995,4.99600044 7.078,4.908 C7.1780005,4.81999956 7.31199916,4.776 7.48,4.776 C7.64800084,4.776 7.7819995,4.81999956 7.882,4.908 C7.9820005,4.99600044 8.05799974,5.15199888 8.11,5.376 C8.16200026,5.60000112 8.19599992,5.9019981 8.212,6.282 L8.22533337,6.69466687 C8.23244448,6.99155512 8.236,7.33199808 8.236,7.716 L8.23000003,8.50650037 C8.22600004,8.74549977 8.22000004,8.95999905 8.212,9.15 C8.19599992,9.5300019 8.16200026,9.83199888 8.11,10.056 C8.05799974,10.2800011 7.9820005,10.4359996 7.882,10.524 C7.7819995,10.6120004 7.64800084,10.656 7.48,10.656 C7.31199916,10.656 7.1780005,10.6120004 7.078,10.524 C6.9779995,10.4359996 6.90200026,10.2800011 6.85,10.056 C6.80839979,9.8767991 6.77831997,9.64768086 6.75976001,9.36864062 L6.748,9.15 C6.7346666,8.83333175 6.72688887,8.44861258 6.72466666,7.9958342 L6.72466666,7.9958342 Z M4.42,7.716 C4.42,8.516004 4.47199948,9.19799718 4.576,9.762 C4.68000052,10.3260028 4.8519988,10.7859982 5.092,11.142 C5.3320012,11.4980018 5.64799804,11.7519992 6.04,11.904 C6.43200196,12.0560008 6.91199716,12.132 7.48,12.132 C8.04800284,12.132 8.52799804,12.0560008 8.92,11.904 C9.31200196,11.7519992 9.6279988,11.4980018 9.868,11.142 C10.1080012,10.7859982 10.2799995,10.3260028 10.384,9.762 C10.4880005,9.19799718 10.54,8.516004 10.54,7.716 C10.54,6.915996 10.4880005,6.23400282 10.384,5.67 C10.2799995,5.10599718 10.1080012,4.64600178 9.868,4.29 C9.6279988,3.93399822 9.31200196,3.67400082 8.92,3.51 C8.52799804,3.34599918 8.04800284,3.264 7.48,3.264 C6.91199716,3.264 6.43200196,3.34599918 6.04,3.51 C5.64799804,3.67400082 5.3320012,3.93399822 5.092,4.29 C4.8519988,4.64600178 4.68000052,5.10599718 4.576,5.67 C4.47199948,6.23400282 4.42,6.915996 4.42,7.716 Z M13.18,3.432 L10.948,3.432 L10.948,9.048 C10.948,9.648003 11.0119994,10.147998 11.14,10.548 C11.2680006,10.948002 11.4539988,11.2679988 11.698,11.508 C11.9420012,11.7480012 12.2459982,11.9119996 12.61,12 C12.9740018,12.0880004 13.3879977,12.132 13.852,12.132 C14.3240024,12.132 14.7399982,12.0880004 15.1,12 C15.4600018,11.9119996 15.7619988,11.7480012 16.006,11.508 C16.2500012,11.2679988 16.4359994,10.948002 16.564,10.548 C16.6920006,10.147998 16.756,9.648003 16.756,9.048 L16.756,3.432 L14.524,3.432 L14.524,9.612 C14.524,10.0280021 14.4640006,10.3059993 14.344,10.446 C14.2239994,10.5860007 14.060001,10.656 13.852,10.656 C13.643999,10.656 13.4800006,10.5860007 13.36,10.446 C13.2399994,10.3059993 13.18,10.0280021 13.18,9.612 L13.18,3.432 Z M18.544,5.328 L18.544,12 L20.776,12 L20.776,5.328 L22.456,5.328 L22.456,3.432 L16.888,3.432 L16.888,5.328 L18.544,5.328 Z M21.82,7.62 L21.82,9.444 L25.564,9.444 L25.564,7.62 L21.82,7.62 Z M26.128,3.432 L28.36,3.432 L28.36,10.176 L31.108,10.176 L31.108,12 L26.128,12 L26.128,3.432 Z" id="OUT-L" fill="#1D1D1D" fill-rule="nonzero"></path>
                </g>
            </g>
            <g id="notes" opacity="0.85" transform="translate(20.000000, 68.000000)">
                <g id="GATE" transform="translate(45.000000, 0.000000)">
                    <rect id="Rectangle" stroke="#E6E6E6" stroke-width="2" x="0" y="0" width="35" height="225" rx="5"></rect>
                    <path d="M15,29 L15,31 L19,31 L19,29 L15,29 Z M15,33 L15,35 L19,35 L19,33 L15,33 Z M15,37 L15,39 L19,39 L19,37 L15,37 Z M15,41 L15,43 L19,43 L19,41 L15,41 Z M15,45 L15,47 L19,47 L19,45 L15,45 Z M15,49 L15,51 L19,51 L19,49 L15,49 Z M15,53 L15,55 L19,55 L19,53 L15,53 Z M15,57 L15,59 L19,59 L19,57 L15,57 Z M15,61 L15,63 L19,63 L19,61 L15,61 Z M15,65 L15,67 L19,67 L19,65 L15,65 Z M15,69 L15,71 L19,71 L19,69 L15,69 Z M15,73 L15,75 L19,75 L19,73 L15,73 Z M15,77 L15,79 L19,79 L19,77 L15,77 Z M15,81 L15,83 L19,83 L19,81 L15,81 Z M15,85 L15,87 L19,87 L19,85 L15,85 Z M15,89 L15,91 L19,91 L19,89 L15,89 Z M15,93 L15,95 L19,95 L19,93 L15,93 Z M15,97 L15,99 L19,99 L19,97 L15,97 Z M15,101 L15,103 L19,103 L19,101 L15,101 Z M15,105 L15,107 L19,107 L19,105 L15,105 Z M15,109 L15,111 L19,111 L19,109 L15,109 Z M15,113 L15,115 L19,115 L19,113 L15,113 Z M15,117 L15,119 L19,119 L19,117 L15,117 Z M15,121 L15,123 L19,123 L19,121 L15,121 Z M15,125 L15,127 L19,127 L19,125 L15,125 Z M15,129 L15,131 L19,131 L19,129 L15,129 Z M15,133 L15,135 L19,135 L19,133 L15,133 Z M15,137 L15,139 L19,139 L19,137 L15,137 Z M15,141 L15,143 L19,143 L19,141 L15,141 Z M15,145 L15,147 L19,147 L19,145 L15,145 Z M15,149 L15,151 L19,151 L19,149 L15,149 Z M15,153 L15,155 L19,155 L19,153 L15,153 Z M15,157 L15,159 L19,159 L19,157 L15,157 Z M15,161 L15,163 L19,163 L19,161 L15,161 Z M15,165 L15,167 L19,167 L19,165 L15,165 Z M15,169 L15,171 L19,171 L19,169 L15,169 Z M15,173 L15,175 L19,175 L19,173 L15,173 Z M15,177 L15,179 L19,179 L19,177 L15,177 Z M15,181 L15,183 L19,183 L19,181 L15,181 Z M15,185 L15,187 L19,187 L19,185 L15,185 Z M15,189 L15,191 L19,191 L19,189 L15,189 Z M15,193 L15,195 L19,195 L19,193 L15,193 Z M15,197 L15,199 L19,199 L19,197 L15,197 Z M15,201 L15,203 L19,203 L19,201 L15,201 Z" id="Line-Copy-2" fill="#C8C8C8" fill-rule="nonzero"></path>
                    <path d="M9.394,7.344 L9.394,8.856 L10.186,8.856 C10.186,9.22400184 10.1680002,9.52599882 10.132,9.762 C10.0959998,9.99800118 10.0460003,10.1819993 9.982,10.314 C9.91799968,10.4460007 9.84000046,10.5359998 9.748,10.584 C9.65599954,10.6320002 9.5500006,10.656 9.43,10.656 C9.26199916,10.656 9.1280005,10.6120004 9.028,10.524 C8.9279995,10.4359996 8.85200026,10.2800011 8.8,10.056 C8.75839979,9.8767991 8.72831997,9.64768086 8.70976001,9.36864062 L8.698,9.15 C8.6846666,8.83333175 8.67688887,8.44861258 8.67466666,7.9958342 L8.67666665,7.17266581 C8.68022219,6.83222179 8.68733328,6.5353346 8.698,6.282 C8.71400008,5.9019981 8.74799974,5.60000112 8.8,5.376 C8.85200026,5.15199888 8.93199946,4.99600044 9.04,4.908 C9.14800054,4.81999956 9.29399908,4.776 9.478,4.776 C9.74200132,4.776 9.9139996,4.89999876 9.994,5.148 C10.0740004,5.35600104 10.114,5.68799772 10.114,6.144 L12.274,6.144 C12.274,5.6239974 12.2060007,5.18200182 12.07,4.818 C11.9339993,4.45399818 11.7460012,4.15600116 11.506,3.924 C11.2659988,3.69199884 10.9800017,3.52400052 10.648,3.42 C10.3159983,3.31599948 9.95400196,3.264 9.562,3.264 C8.90599672,3.264 8.37,3.36199902 7.954,3.558 C7.53799792,3.75400098 7.21200118,4.03999812 6.976,4.416 C6.73999882,4.79200188 6.58000042,5.25599724 6.496,5.808 C6.41199958,6.36000276 6.37,6.9959964 6.37,7.716 C6.37,8.42800356 6.39199978,9.05999724 6.436,9.612 C6.48000022,10.1640028 6.58599916,10.6279981 6.754,11.004 C6.92200084,11.3800019 7.16999836,11.6619991 7.498,11.85 C7.82600164,12.0380009 8.27399716,12.132 8.842,12.132 C9.03400096,12.132 9.22399906,12.1200001 9.412,12.096 C9.60000094,12.0719999 9.77599918,12.0300003 9.94,11.97 C10.1040008,11.9099997 10.2519993,11.8200006 10.384,11.7 C10.5160007,11.5799994 10.6179996,11.4280009 10.69,11.244 L10.714,11.244 L10.762,12 L12.274,12 L12.274,7.344 L9.394,7.344 Z M15.682,5.184 L15.07,8.82 L16.318,8.82 L15.706,5.184 L15.682,5.184 Z M17.098,3.432 L19.186,12 L16.81,12 L16.582,10.5 L14.806,10.5 L14.578,12 L12.238,12 L14.29,3.432 L17.098,3.432 Z M19.726,5.328 L19.726,12 L21.958,12 L21.958,5.328 L23.638,5.328 L23.638,3.432 L18.07,3.432 L18.07,5.328 L19.726,5.328 Z M23.842,3.432 L28.918,3.432 L28.918,5.256 L26.074,5.256 L26.074,6.72 L28.738,6.72 L28.738,8.472 L26.074,8.472 L26.074,10.176 L29.026,10.176 L29.026,12 L23.842,12 L23.842,3.432 Z" fill="#E6E6E6" fill-rule="nonzero"></path>
                </g>
                <g id="V/OCT">
                    <rect id="Rectangle" stroke="#E6E6E6" stroke-width="2" x="0" y="0" width="35" height="225" rx="5"></rect>
                    <path d="M16,29 L16,31 L20,31 L20,29 L16,29 Z M16,33 L16,35 L20,35 L20,33 L16,33 Z M16,37 L16,39 L20,39 L20,37 L16,37 Z M16,41 L16,43 L20,43 L20,41 L16,41 Z M16,45 L16,47 L20,47 L20,45 L16,45 Z M16,49 L16,51 L20,51 L20,49 L16,49 Z M16,53 L16,55 L20,55 L20,53 L16,53 Z M16,57 L16,59 L20,59 L20,57 L16,57 Z M16,61 L16,63 L20,63 L20,61 L16,61 Z M16,65 L16,67 L20,67 L20,65 L16,65 Z M16,69 L16,71 L20,71 L20,69 L16,69 Z M16,73 L16,75 L20,75 L20,73 L16,73 Z M16,77 L16,79 L20,79 L20,77 L16,77 Z M16,81 L16,83 L20,83 L20,81 L16,81 Z M16,85 L16,87 L20,87 L20,85 L16,85 Z M16,89 L16,91 L20,91 L20,89 L16,89 Z M16,93 L16,95 L20,95 L20,93 L16,93 Z M16,97 L16,99 L20,99 L20,97 L16,97 Z M16,101 L16,103 L20,103 L20,101 L16,101 Z M16,105 L16,107 L20,107 L20,105 L16,105 Z M16,109 L16,111 L20,111 L20,109 L16,109 Z M16,113 L16,115 L20,115 L20,113 L16,113 Z M16,117 L16,119 L20,119 L20,117 L16,117 Z M16,121 L16,123 L20,123 L20,121 L16,121 Z M16,125 L16,127 L20,127 L20,125 L16,125 Z M16,129 L16,131 L20,131 L20,129 L16,129 Z M16,133 L16,135 L20,135 L20,133 L16,133 Z M16,137 L16,139 L20,139 L20,137 L16,137 Z M16,141 L16,143 L20,143 L20,141 L16,141 Z M16,145 L16,147 L20,147 L20,145 L16,145 Z M16,149 L16,151 L20,151 L20,149 L16,149 Z M16,153 L16,155 L20,155 L20,153 L16,153 Z M16,157 L16,159 L20,159 L20,157 L16,157 Z M16,161 L16,163 L20,163 L20,161 L16,161 Z M16,165 L16,167 L20,167 L20,165 L16,165 Z M16,169 L16,171 L20,171 L20,169 L16,169 Z M16,173 L16,175 L20,175 L20,173 L16,173 Z M16,177 L16,179 L20,179 L20,177 L16,177 Z M16,181 L16,183 L20,183 L20,181 L16,181 Z M16,185 L16,187 L20,187 L20,185 L16,185 Z M16,189 L16,191 L20,191 L20,189 L16,189 Z M16,193 L16,195 L20,195 L20,193 L16,193 Z M16,197 L16,199 L20,199 L20,197 L16,197 Z M16,201 L16,203 L20,203 L20,201 L16,201 Z" id="Line-Copy-3" fill="#C8C8C8" fill-rule="nonzero"></path>
                    <path d="M3.67,3.432 L5.482,12 L8.362,12 L10.21,3.432 L7.834,3.432 L6.934,9.888 L6.91,9.888 L6.01,3.432 L3.67,3.432 Z M12.202,3.264 L9.514,12.132 L11.278,12.132 L14.002,3.264 L12.202,3.264 Z M16.0186667,7.9958342 L16.0206666,7.17266581 C16.0242222,6.83222179 16.0313333,6.5353346 16.042,6.282 C16.0580001,5.9019981 16.0919997,5.60000112 16.144,5.376 C16.1960003,5.15199888 16.2719995,4.99600044 16.372,4.908 C16.4720005,4.81999956 16.6059992,4.776 16.774,4.776 C16.9420008,4.776 17.0759995,4.81999956 17.176,4.908 C17.2760005,4.99600044 17.3519997,5.15199888 17.404,5.376 C17.4560003,5.60000112 17.4899999,5.9019981 17.506,6.282 L17.5193334,6.69466687 C17.5264445,6.99155512 17.53,7.33199808 17.53,7.716 L17.524,8.50650037 C17.52,8.74549977 17.514,8.95999905 17.506,9.15 C17.4899999,9.5300019 17.4560003,9.83199888 17.404,10.056 C17.3519997,10.2800011 17.2760005,10.4359996 17.176,10.524 C17.0759995,10.6120004 16.9420008,10.656 16.774,10.656 C16.6059992,10.656 16.4720005,10.6120004 16.372,10.524 C16.2719995,10.4359996 16.1960003,10.2800011 16.144,10.056 C16.1023998,9.8767991 16.07232,9.64768086 16.05376,9.36864062 L16.042,9.15 C16.0286666,8.83333175 16.0208889,8.44861258 16.0186667,7.9958342 L16.0186667,7.9958342 Z M13.714,7.716 C13.714,8.516004 13.7659995,9.19799718 13.87,9.762 C13.9740005,10.3260028 14.1459988,10.7859982 14.386,11.142 C14.6260012,11.4980018 14.941998,11.7519992 15.334,11.904 C15.726002,12.0560008 16.2059972,12.132 16.774,12.132 C17.3420028,12.132 17.821998,12.0560008 18.214,11.904 C18.606002,11.7519992 18.9219988,11.4980018 19.162,11.142 C19.4020012,10.7859982 19.5739995,10.3260028 19.678,9.762 C19.7820005,9.19799718 19.834,8.516004 19.834,7.716 C19.834,6.915996 19.7820005,6.23400282 19.678,5.67 C19.5739995,5.10599718 19.4020012,4.64600178 19.162,4.29 C18.9219988,3.93399822 18.606002,3.67400082 18.214,3.51 C17.821998,3.34599918 17.3420028,3.264 16.774,3.264 C16.2059972,3.264 15.726002,3.34599918 15.334,3.51 C14.941998,3.67400082 14.6260012,3.93399822 14.386,4.29 C14.1459988,4.64600178 13.9740005,5.10599718 13.87,5.67 C13.7659995,6.23400282 13.714,6.915996 13.714,7.716 Z M23.758,6.036 L23.758,6.516 L25.918,6.516 L25.918,5.976 C25.918,5.55999792 25.8680005,5.18600166 25.768,4.854 C25.6679995,4.52199834 25.5080011,4.23800118 25.288,4.002 C25.0679989,3.76599882 24.7820018,3.58400064 24.43,3.456 C24.0779982,3.32799936 23.6500025,3.264 23.146,3.264 C22.5699971,3.264 22.086,3.34199922 21.694,3.498 C21.301998,3.65400078 20.9860012,3.90799824 20.746,4.26 C20.5059988,4.61200176 20.3360005,5.07199716 20.236,5.64 C20.1359995,6.20800284 20.086,6.89999592 20.086,7.716 C20.086,8.516004 20.1279996,9.19799718 20.212,9.762 C20.2960004,10.3260028 20.4499989,10.7859982 20.674,11.142 C20.8980011,11.4980018 21.209998,11.7519992 21.61,11.904 C22.010002,12.0560008 22.5219969,12.132 23.146,12.132 C23.5060018,12.132 23.8559983,12.0940004 24.196,12.018 C24.5360017,11.9419996 24.8379987,11.7940011 25.102,11.574 C25.3660013,11.3539989 25.5779992,11.0520019 25.738,10.668 C25.8980008,10.2839981 25.978,9.792003 25.978,9.192 L25.978,8.556 L23.818,8.556 L23.8132,9.0120005 C23.8084,9.22320009 23.8000001,9.4091992 23.788,9.57 C23.7679999,9.83800134 23.7340002,10.0519992 23.686,10.212 C23.6379998,10.3720008 23.5700004,10.4859997 23.482,10.554 C23.3939996,10.6220003 23.2820007,10.656 23.146,10.656 C22.9779992,10.656 22.8440005,10.6120004 22.744,10.524 C22.6439995,10.4359996 22.5680003,10.2800011 22.516,10.056 C22.4743998,9.8767991 22.44432,9.64768086 22.42576,9.36864062 L22.414,9.15 C22.4006666,8.83333175 22.3928889,8.44861258 22.3906667,7.9958342 L22.3926666,7.17266581 C22.3962222,6.83222179 22.4033333,6.5353346 22.414,6.282 C22.4300001,5.9019981 22.4639997,5.60000112 22.516,5.376 C22.5680003,5.15199888 22.6439995,4.99600044 22.744,4.908 C22.8440005,4.81999956 22.9779992,4.776 23.146,4.776 C23.3620011,4.776 23.5179995,4.86399912 23.614,5.04 C23.7100005,5.21600088 23.758,5.54799756 23.758,6.036 Z M27.61,5.328 L25.954,5.328 L25.954,3.432 L31.522,3.432 L31.522,5.328 L29.842,5.328 L29.842,12 L27.61,12 L27.61,5.328 Z" fill="#E6E6E6" fill-rule="nonzero"></path>
                </g>
            </g>
            <g id="name" transform="translate(1.000000, 17.000000)" fill="#17569B" fill-rule="nonzero">
                <path d="M36.354,36 L18.631,36 L18.631,29.118 C18.631,27.4653251 18.865331,26.0901722 19.334,24.9925 C19.802669,23.8948278 20.3884965,22.9821703 21.0915,22.2545 C21.7945035,21.5268297 22.5591625,20.9471688 23.3855,20.5155 C24.04657,20.1701649 24.6681657,19.8643003 25.250299,19.5979004 L25.6795,19.4055 C26.3825035,19.0971651 26.968331,18.8073347 27.437,18.536 C27.905669,18.2646653 28.14,17.9193354 28.14,17.5 L28.144625,17.2918751 C28.1477083,17.214792 28.1523333,17.1300005 28.1585,17.0375 C28.1708334,16.8524991 28.1646668,16.6798341 28.14,16.5195 C28.1153332,16.3591659 28.0536672,16.2173339 27.955,16.094 C27.8563328,15.9706661 27.7083343,15.909 27.511,15.909 L19.075,15.909 L19.075,12.875 L28.658,12.875 C29.250003,12.875 29.7556646,12.8934998 30.175,12.9305 C30.5943354,12.9675002 30.9334987,13.0661659 31.1925,13.2265 C31.4515013,13.3868341 31.6364994,13.6273317 31.7475,13.948 C31.8585006,14.2686683 31.914,14.724997 31.914,15.317 L31.914,18.203 C31.914,18.8443365 31.6981688,19.3623314 31.2665,19.757 C30.8348312,20.1516686 30.2983365,20.5031651 29.657,20.8115 C29.0156635,21.1198349 28.3126705,21.4281651 27.548,21.7365 C26.7833295,22.0448349 26.0680033,22.433331 25.402,22.902 C24.6126627,23.494003 23.9466694,24.2833284 23.404,25.27 C22.8613306,26.2566716 22.59,27.6133247 22.59,29.34 L22.59,32.966 L36.354,32.966 L36.354,36 Z M36.428,19.646 C36.428,20.4600041 36.1690026,21.1568304 35.651,21.7365 C35.1329974,22.3161696 34.4916705,22.8341644 33.727,23.2905 C33.1152636,23.6555685 32.4719615,24.0008995 31.7970813,24.3264995 L31.285,24.567 C30.4216624,24.9616686 29.6385035,25.3748312 28.9355,25.8065 C28.2324965,26.2381688 27.6836686,26.7253306 27.289,27.268 C26.8943314,27.8106694 26.7956657,28.4519963 26.993,29.192 L36.354,29.192 L36.354,32.263 L23.293,32.263 L23.293,29.34 C23.293,27.7613254 23.5334976,26.5156712 24.0145,25.603 C24.4955024,24.6903288 25.0936631,23.9750026 25.809,23.457 C26.4996701,22.9389974 27.2458293,22.5196683 28.0475,22.199 C28.8491707,21.8783317 29.5891633,21.5515017 30.2675,21.2185 C30.9458367,20.8854983 31.5069978,20.4970022 31.951,20.053 C32.3950022,19.6089978 32.617,18.9923373 32.617,18.203 L32.617,15.317 C32.617,14.5769963 32.5491673,13.9973354 32.4135,13.578 C32.2778327,13.1586646 32.0558349,12.8441677 31.7475,12.6345 C31.4391651,12.4248323 31.0321692,12.2953336 30.5265,12.246 C30.0208308,12.1966664 29.3980037,12.172 28.658,12.172 L19.075,12.172 L19.075,9.101 L31.174,9.101 C32.2100052,9.101 33.0671633,9.16883266 33.7455,9.3045 C34.4238367,9.44016735 34.9603314,9.70533136 35.355,10.1 C35.7496686,10.4946686 36.0271659,11.0373299 36.1875,11.728 C36.3478341,12.4186701 36.428,13.3313277 36.428,14.466 L36.428,19.646 Z M51.117,28.526 L51.117,26.047 C51.117,25.6029978 50.9073354,25.381 50.488,25.381 L48.12,25.381 C47.7006646,25.381 47.491,25.6029978 47.491,26.047 L47.491,28.526 C47.491,28.7480011 47.5341662,28.8959996 47.6205,28.97 C47.7068338,29.0440004 47.8363325,29.081 48.009,29.081 L50.599,29.081 C50.7716675,29.081 50.9011662,29.0440004 50.9875,28.97 C51.0738338,28.8959996 51.117,28.7480011 51.117,28.526 Z M54.299,29.784 C54.299,30.2033354 54.2805002,30.5671651 54.2435,30.8755 C54.2064998,31.1838349 54.1140007,31.4366657 53.966,31.634 C53.8179993,31.8313343 53.5960015,31.9731662 53.3,32.0595 C53.0039985,32.1458338 52.5970026,32.189 52.079,32.189 L46.455,32.189 C45.9369974,32.189 45.5300015,32.1458338 45.234,32.0595 C44.9379985,31.9731662 44.7160007,31.8313343 44.568,31.634 C44.4199993,31.4366657 44.3213336,31.1838349 44.272,30.8755 C44.2226664,30.5671651 44.198,30.2033354 44.198,29.784 L44.198,22.643 L52.153,22.643 C52.6710026,22.643 53.0718319,22.6676664 53.3555,22.717 C53.6391681,22.7663336 53.8549993,22.8711659 54.003,23.0315 C54.1510007,23.1918341 54.2373332,23.4384983 54.262,23.7715 C54.2866668,24.1045017 54.299,24.5423306 54.299,25.085 L54.299,29.784 Z M58.221,31.227 C58.221,32.1890048 58.1531673,32.9783302 58.0175,33.595 C57.8818327,34.2116697 57.6228352,34.6988315 57.2405,35.0565 C56.8581648,35.4141685 56.3340033,35.6608327 55.668,35.7965 C55.0019967,35.9321673 54.1510052,36 53.115,36 L45.345,36 C44.284328,36 43.4210033,35.9198341 42.755,35.7595 C42.0889967,35.5991659 41.5710019,35.3340018 41.201,34.964 C40.8309982,34.5939981 40.5781673,34.1068364 40.4425,33.5025 C40.3068327,32.8981636 40.239,32.1396712 40.239,31.227 L40.239,12.431 C40.239,11.493662 40.5103306,10.7043365 41.053,10.063 C41.5956694,9.42166346 42.3726616,9.101 43.384,9.101 L57.296,9.101 L57.296,12.172 L46.27,12.172 C45.7026638,12.172 45.2401685,12.202833 44.8825,12.2645 C44.5248315,12.326167 44.2473343,12.4618323 44.05,12.6715 C43.8526657,12.8811677 43.7108338,13.1833314 43.6245,13.578 C43.5381662,13.9726686 43.495,14.5029967 43.495,15.169 L43.495,29.784 C43.495,30.3513362 43.525833,30.8261648 43.5875,31.2085 C43.649167,31.5908352 43.7848323,31.9114987 43.9945,32.1705 C44.2041677,32.4295013 44.5001648,32.6144994 44.8825,32.7255 C45.2648352,32.8365006 45.7889967,32.892 46.455,32.892 L52.079,32.892 C52.7450033,32.892 53.2691648,32.8365006 53.6515,32.7255 C54.0338352,32.6144994 54.3236657,32.4295013 54.521,32.1705 C54.7183343,31.9114987 54.847833,31.5908352 54.9095,31.2085 C54.971167,30.8261648 55.002,30.3513362 55.002,29.784 L55.002,25.085 L54.9962188,24.5600612 C54.9846564,24.0651862 54.9557502,23.6605016 54.9095,23.346 C54.847833,22.9266646 54.7121677,22.6121677 54.5025,22.4025 C54.2928323,22.1928323 53.9968352,22.0633336 53.6145,22.014 C53.2321648,21.9646664 52.7203365,21.94 52.079,21.94 L44.198,21.94 L44.198,15.169 C44.198,14.6756642 44.228833,14.2748349 44.2905,13.9665 C44.352167,13.6581651 44.4569993,13.4238341 44.605,13.2635 C44.7530007,13.1031659 44.9626653,12.9983336 45.234,12.949 C45.5053347,12.8996664 45.8506646,12.875 46.27,12.875 L57.296,12.875 L57.296,15.909 L49.193,15.909 C48.7489978,15.909 48.4468341,15.9829993 48.2865,16.131 C48.1261659,16.2790007 48.046,16.5749978 48.046,17.019 L48.046,19.276 L54.373,19.276 C55.7543402,19.276 56.740997,19.5288308 57.333,20.0345 C57.925003,20.5401692 58.221,21.4589933 58.221,22.791 L58.221,31.227 Z M74.242,36 L61.847,36 L61.847,32.966 L74.242,32.966 L74.242,36 Z M67.693,32.263 L61.847,32.263 L61.847,29.192 L63.993,29.192 L63.993,15.909 L61.847,15.909 L61.847,12.838 L67.693,12.838 L67.693,32.263 Z M74.242,32.263 L68.396,32.263 L68.396,12.135 L61.847,12.135 L61.847,9.101 L72.096,9.101 L72.096,29.192 L74.242,29.192 L74.242,32.263 Z M95.295,36 L77.572,36 L77.572,29.118 C77.572,27.4653251 77.806331,26.0901722 78.275,24.9925 C78.743669,23.8948278 79.3294965,22.9821703 80.0325,22.2545 C80.7355035,21.5268297 81.5001625,20.9471688 82.3265,20.5155 C82.98757,20.1701649 83.6091657,19.8643003 84.191299,19.5979004 L84.6205,19.4055 C85.3235035,19.0971651 85.909331,18.8073347 86.378,18.536 C86.846669,18.2646653 87.081,17.9193354 87.081,17.5 L87.085625,17.2918751 C87.0887083,17.214792 87.0933333,17.1300005 87.0995,17.0375 C87.1118334,16.8524991 87.1056668,16.6798341 87.081,16.5195 C87.0563332,16.3591659 86.9946672,16.2173339 86.896,16.094 C86.7973328,15.9706661 86.6493343,15.909 86.452,15.909 L78.016,15.909 L78.016,12.875 L87.599,12.875 C88.191003,12.875 88.6966646,12.8934998 89.116,12.9305 C89.5353354,12.9675002 89.8744987,13.0661659 90.1335,13.2265 C90.3925013,13.3868341 90.5774994,13.6273317 90.6885,13.948 C90.7995006,14.2686683 90.855,14.724997 90.855,15.317 L90.855,18.203 C90.855,18.8443365 90.6391688,19.3623314 90.2075,19.757 C89.7758312,20.1516686 89.2393365,20.5031651 88.598,20.8115 C87.9566635,21.1198349 87.2536705,21.4281651 86.489,21.7365 C85.7243295,22.0448349 85.0090033,22.433331 84.343,22.902 C83.5536627,23.494003 82.8876694,24.2833284 82.345,25.27 C81.8023306,26.2566716 81.531,27.6133247 81.531,29.34 L81.531,32.966 L95.295,32.966 L95.295,36 Z M95.369,19.646 C95.369,20.4600041 95.1100026,21.1568304 94.592,21.7365 C94.0739974,22.3161696 93.4326705,22.8341644 92.668,23.2905 C92.0562636,23.6555685 91.4129615,24.0008995 90.7380813,24.3264995 L90.226,24.567 C89.3626624,24.9616686 88.5795035,25.3748312 87.8765,25.8065 C87.1734965,26.2381688 86.6246686,26.7253306 86.23,27.268 C85.8353314,27.8106694 85.7366657,28.4519963 85.934,29.192 L95.295,29.192 L95.295,32.263 L82.234,32.263 L82.234,29.34 C82.234,27.7613254 82.4744976,26.5156712 82.9555,25.603 C83.4365024,24.6903288 84.0346631,23.9750026 84.75,23.457 C85.4406701,22.9389974 86.1868293,22.5196683 86.9885,22.199 C87.7901707,21.8783317 88.5301633,21.5515017 89.2085,21.2185 C89.8868367,20.8854983 90.4479978,20.4970022 90.892,20.053 C91.3360022,19.6089978 91.558,18.9923373 91.558,18.203 L91.558,15.317 C91.558,14.5769963 91.4901673,13.9973354 91.3545,13.578 C91.2188327,13.1586646 90.9968349,12.8441677 90.6885,12.6345 C90.3801651,12.4248323 89.9731692,12.2953336 89.4675,12.246 C88.9618308,12.1966664 88.3390037,12.172 87.599,12.172 L78.016,12.172 L78.016,9.101 L90.115,9.101 C91.1510052,9.101 92.0081633,9.16883266 92.6865,9.3045 C93.3648367,9.44016735 93.9013314,9.70533136 94.296,10.1 C94.6906686,10.4946686 94.9681659,11.0373299 95.1285,11.728 C95.2888341,12.4186701 95.369,13.3313277 95.369,14.466 L95.369,19.646 Z" id="2612"></path>
            </g>
        </g>
    </g>
</svg>