<?xml version="1.0" encoding="UTF-8"?>
<svg width="150px" height="380px" viewBox="0 0 150 380" version="1.1" xmlns="http://www.w3.org/2000/svg" xmlns:xlink="http://www.w3.org/1999/xlink">
    <!-- Generator: Sketch 58 (84663) - https://sketch.com -->
    <title>2A03</title>
    <desc>Created with Sketch.</desc>
    <g id="2A03" stroke="none" stroke-width="1" fill="none" fill-rule="evenodd">
        <g id="bg">
            <g id="ChipModule">
                <rect id="Background" fill="#404040" fill-rule="nonzero" x="0" y="0" width="150" height="380" rx="1"></rect>
                <g id="Chip" transform="translate(0.500000, 0.000000)" fill-rule="evenodd">
                    <g id="leads" stroke-width="1" transform="translate(1.500000, 5.000000)" fill="#E0D9C5">
                        <rect id="Rectangle" x="0" y="0" width="146" height="10" rx="2"></rect>
                        <rect id="Rectangle-Copy" x="0" y="20" width="146" height="10" rx="2"></rect>
                        <rect id="Rectangle-Copy-3" x="0" y="40" width="146" height="10" rx="2"></rect>
                        <rect id="Rectangle-Copy-2" x="0" y="60" width="146" height="10" rx="2"></rect>
                        <rect id="Rectangle-Copy-7" x="0" y="140" width="146" height="10" rx="2"></rect>
                        <rect id="Rectangle-Copy-6" x="0" y="80" width="146" height="10" rx="2"></rect>
                        <rect id="Rectangle-Copy-5" x="0" y="100" width="146" height="10" rx="2"></rect>
                        <rect id="Rectangle-Copy-4" x="0" y="120" width="146" height="10" rx="2"></rect>
                        <rect id="Rectangle-Copy-15" x="0" y="160" width="146" height="10" rx="2"></rect>
                        <rect id="Rectangle-Copy-14" x="0" y="180" width="146" height="10" rx="2"></rect>
                        <rect id="Rectangle-Copy-13" x="0" y="200" width="146" height="10" rx="2"></rect>
                        <rect id="Rectangle-Copy-12" x="0" y="220" width="146" height="10" rx="2"></rect>
                        <rect id="Rectangle-Copy-11" x="0" y="300" width="146" height="10" rx="2"></rect>
                        <rect id="Rectangle-Copy-10" x="0" y="240" width="146" height="10" rx="2"></rect>
                        <rect id="Rectangle-Copy-9" x="0" y="260" width="146" height="10" rx="2"></rect>
                        <rect id="Rectangle-Copy-8" x="0" y="280" width="146" height="10" rx="2"></rect>
                        <rect id="Rectangle-Copy-18" x="0" y="320" width="146" height="10" rx="2"></rect>
                        <rect id="Rectangle-Copy-17" x="0" y="340" width="146" height="10" rx="2"></rect>
                        <rect id="Rectangle-Copy-16" x="0" y="360" width="146" height="10" rx="2"></rect>
                    </g>
                    <rect id="cover" fill="#1D1D1D" x="5" y="0" width="139" height="380" rx="2"></rect>
                </g>
                <g id="KautenjaDSP/bottom/white" transform="translate(43.500000, 364.000000)" fill="#FFFFFF" fill-rule="evenodd" stroke-width="1">
                    <g id="Group-3">
                        <path d="M-2.13162821e-14,0.17 L-2.13162821e-14,7.31 L1.57,7.31 L1.57,5.01 L2.47,4.1 L4.62,7.31 L6.59,7.31 L3.53,2.99 L6.32,0.17 L4.36,0.17 L1.57,3.13 L1.57,0.17 L-2.13162821e-14,0.17 Z M7.01,3.73 C7.0300001,3.396665 7.1133326,3.1200011 7.26,2.9 C7.4066674,2.6799989 7.5933322,2.503334 7.82,2.37 C8.0466678,2.236666 8.30166525,2.14166695 8.585,2.085 C8.86833475,2.02833305 9.1533319,2 9.44,2 C9.7000013,2 9.963332,2.01833315 10.23,2.055 C10.496668,2.09166685 10.7399989,2.1633328 10.96,2.27 C11.1800011,2.3766672 11.3599993,2.52499905 11.5,2.715 C11.6400007,2.90500095 11.71,3.1566651 11.71,3.47 L11.71,6.16 C11.71,6.3933345 11.7233332,6.6166656 11.75,6.83 C11.7766668,7.0433344 11.823333,7.2033328 11.89,7.31 L10.45,7.31 C10.4233332,7.2299996 10.4016667,7.14833375 10.385,7.065 C10.3683332,6.98166625 10.3566667,6.8966671 10.35,6.81 C10.1233322,7.0433345 9.8566682,7.2066662 9.55,7.3 C9.2433318,7.3933338 8.9300016,7.44 8.61,7.44 C8.3633321,7.44 8.1333344,7.4100003 7.92,7.35 C7.7066656,7.2899997 7.5200008,7.1966673 7.36,7.07 C7.1999992,6.9433327 7.07500045,6.7833343 6.985,6.59 C6.89499955,6.3966657 6.85,6.166668 6.85,5.9 C6.85,5.6066652 6.90166615,5.36500095 7.005,5.175 C7.10833385,4.98499905 7.24166585,4.8333339 7.405,4.72 C7.56833415,4.6066661 7.75499895,4.52166695 7.965,4.465 C8.17500105,4.40833305 8.3866656,4.3633335 8.6,4.33 L8.91750001,4.28499998 L8.91750001,4.28499998 L9.23,4.25 C9.4366677,4.2299999 9.6199992,4.2000002 9.78,4.16 C9.9400008,4.1199998 10.0666662,4.06166705 10.16,3.985 C10.2533338,3.90833295 10.2966667,3.7966674 10.29,3.65 C10.29,3.4966659 10.2650002,3.37500045 10.215,3.285 C10.1649997,3.19499955 10.0983337,3.12500025 10.015,3.075 C9.93166625,3.02499975 9.83500055,2.99166675 9.725,2.975 C9.61499945,2.95833325 9.4966673,2.95 9.37,2.95 C9.0899986,2.95 8.8700008,3.0099994 8.71,3.13 C8.5499992,3.2500006 8.4566668,3.4499986 8.43,3.73 L7.01,3.73 Z M10.29,4.78 C10.2299997,4.8333336 10.1550004,4.87499985 10.065,4.905 C9.97499955,4.93500015 9.87833385,4.9599999 9.775,4.98 L9.61625002,5.00750001 L9.61625002,5.00750001 L9.45,5.03 C9.3366661,5.0433334 9.2233339,5.0599999 9.11,5.08 C9.0033328,5.1000001 8.89833385,5.1266665 8.795,5.16 C8.69166615,5.1933335 8.60166705,5.23833305 8.525,5.295 C8.44833295,5.35166695 8.3866669,5.4233329 8.34,5.51 C8.2933331,5.5966671 8.27,5.706666 8.27,5.84 C8.27,5.9666673 8.2933331,6.0733329 8.34,6.16 C8.3866669,6.2466671 8.4499996,6.31499975 8.53,6.365 C8.6100004,6.41500025 8.7033328,6.4499999 8.81,6.47 C8.9166672,6.4900001 9.0266661,6.5 9.14,6.5 C9.4200014,6.5 9.6366659,6.4533338 9.79,6.36 C9.9433341,6.2666662 10.0566663,6.15500065 10.13,6.025 C10.2033337,5.89499935 10.2483332,5.763334 10.265,5.63 L10.2872222,5.39888892 C10.2890741,5.3662964 10.29,5.3366668 10.29,5.31 L10.29,4.78 Z M17.66,7.31 L17.66,2.14 L16.24,2.14 L16.24,4.85 C16.24,5.3766693 16.1533342,5.75499885 15.98,5.985 C15.8066658,6.21500115 15.5266686,6.33 15.14,6.33 C14.7999983,6.33 14.563334,6.22500105 14.43,6.015 C14.296666,5.80499895 14.23,5.4866688 14.23,5.06 L14.23,2.14 L12.81,2.14 L12.81,5.32 C12.81,5.64 12.838333,5.93166535 12.895,6.195 C12.9516669,6.45833465 13.0499993,6.68166575 13.19,6.865 C13.3300007,7.04833425 13.5216654,7.1899995 13.765,7.29 C14.0083345,7.3900005 14.3199981,7.44 14.7,7.44 C15.0000015,7.44 15.2933319,7.373334 15.58,7.24 C15.8666681,7.106666 16.0999991,6.8900015 16.28,6.59 L16.31,6.59 L16.31,7.31 L17.66,7.31 Z M20.54,2.14 L20.54,0.59 L19.12,0.59 L19.12,2.14 L18.26,2.14 L18.26,3.09 L19.12,3.09 L19.12,6.14 C19.12,6.4000013 19.1633329,6.6099992 19.25,6.77 C19.3366671,6.9300008 19.4549992,7.0533329 19.605,7.14 C19.7550007,7.2266671 19.9283323,7.28499985 20.125,7.315 C20.3216676,7.34500015 20.5299989,7.36 20.75,7.36 C20.8900007,7.36 21.0333326,7.3566667 21.18,7.35 C21.3266674,7.3433333 21.4599994,7.3300001 21.58,7.31 L21.58,6.21 C21.513333,6.2233334 21.4433337,6.2333333 21.37,6.24 C21.2966663,6.2466667 21.2200004,6.25 21.14,6.25 C20.8999988,6.25 20.7400004,6.2100004 20.66,6.13 C20.5799996,6.0499996 20.54,5.8900012 20.54,5.65 L20.54,3.09 L21.58,3.09 L21.58,2.14 L20.54,2.14 Z M25.74,4.17 L23.43,4.17 C23.4366667,4.07 23.4583331,3.9566673 23.495,3.83 C23.5316668,3.7033327 23.5949995,3.5833339 23.685,3.47 C23.7750004,3.3566661 23.8949992,3.26166705 24.045,3.185 C24.1950007,3.10833295 24.3833322,3.07 24.61,3.07 C24.9566684,3.07 25.2149991,3.1633324 25.385,3.35 C25.5550008,3.5366676 25.673333,3.8099982 25.74,4.17 Z M23.43,5.07 L27.16,5.07 C27.1866668,4.669998 27.1533338,4.2866685 27.06,3.92 C26.9666662,3.5533315 26.815001,3.2266681 26.605,2.94 C26.3949989,2.6533319 26.1266683,2.42500085 25.8,2.255 C25.4733317,2.08499915 25.0900022,2 24.65,2 C24.2566647,2 23.8983349,2.0699993 23.575,2.21 C23.251665,2.3500007 22.9733345,2.54166545 22.74,2.785 C22.5066655,3.02833455 22.3266673,3.316665 22.2,3.65 C22.0733327,3.983335 22.01,4.3433314 22.01,4.73 C22.01,5.130002 22.071666,5.496665 22.195,5.83 C22.3183339,6.163335 22.4933322,6.4499988 22.72,6.69 C22.9466678,6.9300012 23.2233317,7.11499935 23.55,7.245 C23.8766683,7.37500065 24.2433313,7.44 24.65,7.44 C25.2366696,7.44 25.7366646,7.306668 26.15,7.04 C26.5633354,6.773332 26.869999,6.3300031 27.07,5.71 L25.82,5.71 C25.7733331,5.8700008 25.6466677,6.02166595 25.44,6.165 C25.2333323,6.30833405 24.9866681,6.38 24.7,6.38 C24.299998,6.38 23.9933344,6.2766677 23.78,6.07 C23.5666656,5.8633323 23.4500001,5.5300023 23.43,5.07 Z M28,2.14 L28,7.31 L29.42,7.31 L29.42,4.6 C29.42,4.0733307 29.5066658,3.69500115 29.68,3.465 C29.8533342,3.23499885 30.1333314,3.12 30.52,3.12 C30.8600017,3.12 31.096666,3.22499895 31.23,3.435 C31.363334,3.64500105 31.43,3.9633312 31.43,4.39 L31.43,7.31 L32.85,7.31 L32.85,4.13 C32.85,3.8099984 32.8216669,3.51833465 32.765,3.255 C32.708333,2.99166535 32.6100007,2.76833425 32.47,2.585 C32.3299993,2.40166575 32.1383345,2.25833385 31.895,2.155 C31.6516654,2.05166615 31.3400019,2 30.96,2 C30.6599985,2 30.3666681,2.06833265 30.08,2.205 C29.7933319,2.34166735 29.5600009,2.5599985 29.38,2.86 L29.35,2.86 L29.35,2.14 L28,2.14 Z M35.48,1.34 L35.48,0.17 L34.06,0.17 L34.06,1.34 L35.48,1.34 Z M33.21,7.91 L33.21,9.08 C33.343334,9.1066668 33.4933325,9.12 33.66,9.12 C34.0200018,9.12 34.3166655,9.08833365 34.55,9.025 C34.7833345,8.96166635 34.9683326,8.86500065 35.105,8.735 C35.2416673,8.60499935 35.338333,8.4433343 35.395,8.25 C35.4516669,8.0566657 35.48,7.826668 35.48,7.56 L35.48,2.14 L34.06,2.14 L34.06,7.49 C34.06,7.6833343 34.0050005,7.80833305 33.895,7.865 C33.7849994,7.92166695 33.6566674,7.95 33.51,7.95 C33.3833327,7.95 33.2833337,7.9366668 33.21,7.91 Z M36.65,3.73 C36.6700001,3.396665 36.7533326,3.1200011 36.9,2.9 C37.0466674,2.6799989 37.2333322,2.503334 37.46,2.37 C37.6866678,2.236666 37.9416652,2.14166695 38.225,2.085 C38.5083347,2.02833305 38.7933319,2 39.08,2 C39.3400013,2 39.603332,2.01833315 39.87,2.055 C40.136668,2.09166685 40.3799989,2.1633328 40.6,2.27 C40.8200011,2.3766672 40.9999993,2.52499905 41.14,2.715 C41.2800007,2.90500095 41.35,3.1566651 41.35,3.47 L41.35,6.16 C41.35,6.3933345 41.3633332,6.6166656 41.39,6.83 C41.4166668,7.0433344 41.463333,7.2033328 41.53,7.31 L40.09,7.31 C40.0633332,7.2299996 40.0416667,7.14833375 40.025,7.065 C40.0083332,6.98166625 39.9966667,6.8966671 39.99,6.81 C39.7633322,7.0433345 39.4966682,7.2066662 39.19,7.3 C38.8833318,7.3933338 38.5700016,7.44 38.25,7.44 C38.0033321,7.44 37.7733344,7.4100003 37.56,7.35 C37.3466656,7.2899997 37.1600008,7.1966673 37,7.07 C36.8399992,6.9433327 36.7150004,6.7833343 36.625,6.59 C36.5349995,6.3966657 36.49,6.166668 36.49,5.9 C36.49,5.6066652 36.5416661,5.36500095 36.645,5.175 C36.7483338,4.98499905 36.8816658,4.8333339 37.045,4.72 C37.2083341,4.6066661 37.3949989,4.52166695 37.605,4.465 C37.815001,4.40833305 38.0266656,4.3633335 38.24,4.33 C38.4533344,4.2966665 38.6633323,4.2700001 38.87,4.25 C39.0766677,4.2299999 39.2599992,4.2000002 39.42,4.16 C39.5800008,4.1199998 39.7066662,4.06166705 39.8,3.985 C39.8933338,3.90833295 39.9366667,3.7966674 39.93,3.65 C39.93,3.4966659 39.9050002,3.37500045 39.855,3.285 C39.8049997,3.19499955 39.7383337,3.12500025 39.655,3.075 C39.5716662,3.02499975 39.4750005,2.99166675 39.365,2.975 C39.2549994,2.95833325 39.1366673,2.95 39.01,2.95 C38.7299986,2.95 38.5100008,3.0099994 38.35,3.13 C38.1899992,3.2500006 38.0966668,3.4499986 38.07,3.73 L36.65,3.73 Z M39.93,4.78 C39.8699997,4.8333336 39.7950004,4.87499985 39.705,4.905 C39.6149995,4.93500015 39.5183338,4.9599999 39.415,4.98 L39.25625,5.00750001 L39.25625,5.00750001 L39.09,5.03 C38.9766661,5.0433334 38.8633339,5.0599999 38.75,5.08 C38.6433328,5.1000001 38.5383338,5.1266665 38.435,5.16 C38.3316661,5.1933335 38.241667,5.23833305 38.165,5.295 C38.0883329,5.35166695 38.0266669,5.4233329 37.98,5.51 C37.9333331,5.5966671 37.91,5.706666 37.91,5.84 C37.91,5.9666673 37.9333331,6.0733329 37.98,6.16 C38.0266669,6.2466671 38.0899996,6.31499975 38.17,6.365 C38.2500004,6.41500025 38.3433328,6.4499999 38.45,6.47 C38.5566672,6.4900001 38.6666661,6.5 38.78,6.5 C39.0600014,6.5 39.2766659,6.4533338 39.43,6.36 C39.5833341,6.2666662 39.6966663,6.15500065 39.77,6.025 C39.8433337,5.89499935 39.8883332,5.763334 39.905,5.63 L39.9272222,5.39888892 C39.9290741,5.3662964 39.93,5.3366668 39.93,5.31 L39.93,4.78 Z M44.17,5.99 L44.17,1.49 L45.29,1.49 C45.6766686,1.49 46.0016653,1.54499945 46.265,1.655 C46.5283346,1.76500055 46.7399992,1.9233323 46.9,2.13 C47.0600008,2.3366677 47.1749996,2.58499855 47.245,2.875 C47.3150003,3.16500145 47.35,3.49 47.35,3.85 C47.35,4.2433353 47.3000005,4.5766653 47.2,4.85 C47.0999995,5.1233347 46.9666675,5.34499915 46.8,5.515 C46.6333325,5.68500085 46.4433344,5.8066663 46.23,5.88 C46.0166656,5.9533337 45.7966678,5.99 45.57,5.99 L44.17,5.99 Z M42.6,0.17 L42.6,7.31 L45.68,7.31 C46.2266694,7.31 46.7016646,7.21833425 47.105,7.035 C47.5083353,6.85166575 47.8449986,6.6000016 48.115,6.28 C48.3850013,5.9599984 48.586666,5.5800022 48.72,5.14 C48.853334,4.6999978 48.92,4.2200026 48.92,3.7 C48.92,3.1066637 48.8383341,2.5900022 48.675,2.15 C48.5116658,1.7099978 48.2850014,1.3433348 47.995,1.05 C47.7049985,0.7566652 47.3616686,0.5366674 46.965,0.39 C46.5683313,0.2433326 46.1400023,0.17 45.68,0.17 L42.6,0.17 Z M51.08,4.94 L49.56,4.94 C49.5533333,5.3800022 49.6333325,5.7599984 49.8,6.08 C49.9666675,6.4000016 50.1916652,6.6633323 50.475,6.87 C50.7583347,7.0766677 51.0849981,7.22833285 51.455,7.325 C51.8250018,7.42166715 52.2066647,7.47 52.6,7.47 C53.0866691,7.47 53.5149981,7.4133339 53.885,7.3 C54.2550018,7.1866661 54.5649987,7.02833435 54.815,6.825 C55.0650012,6.62166565 55.2533327,6.3800014 55.38,6.1 C55.5066673,5.8199986 55.57,5.5166683 55.57,5.19 C55.57,4.789998 55.4850008,4.46166795 55.315,4.205 C55.1449991,3.94833205 54.9433345,3.7433341 54.71,3.59 C54.4766655,3.4366659 54.2416678,3.32500035 54.005,3.255 L53.7457997,3.18139989 C53.6285999,3.14979994 53.5300004,3.12600008 53.45,3.11 L52.365,2.83 L52.365,2.83 C52.088332,2.7566663 51.8716674,2.6833337 51.715,2.61 C51.5583325,2.5366663 51.4533336,2.4566671 51.4,2.37 C51.3466664,2.2833329 51.32,2.1700007 51.32,2.03 C51.32,1.8766659 51.353333,1.7500005 51.42,1.65 C51.486667,1.5499995 51.5716662,1.466667 51.675,1.4 C51.7783338,1.333333 51.8933327,1.2866668 52.02,1.26 C52.1466673,1.2333332 52.2733327,1.22 52.4,1.22 C52.5933343,1.22 52.7716658,1.2366665 52.935,1.27 C53.0983341,1.3033335 53.2433327,1.3599996 53.37,1.44 C53.4966673,1.5200004 53.5983329,1.6299993 53.675,1.77 C53.751667,1.9100007 53.7966666,2.0866656 53.81,2.3 L55.33,2.3 C55.33,1.8866646 55.2516674,1.53500145 55.095,1.245 C54.9383325,0.95499855 54.726668,0.7166676 54.46,0.53 C54.193332,0.3433324 53.888335,0.20833375 53.545,0.125 C53.2016649,0.04166625 52.8433352,0 52.47,0 C52.1499984,0 51.8300016,0.0433329 51.51,0.13 C51.1899984,0.2166671 50.9033346,0.3499991 50.65,0.53 C50.3966654,0.7100009 50.1916674,0.93499865 50.035,1.205 C49.8783325,1.47500135 49.8,1.7933315 49.8,2.16 C49.8,2.4866683 49.861666,2.76499885 49.985,2.995 C50.1083339,3.22500115 50.269999,3.4166659 50.47,3.57 C50.670001,3.7233341 50.8966654,3.84833285 51.15,3.945 C51.3188897,4.00944477 51.4907407,4.06722229 51.6655552,4.11833329 L51.93,4.19 C52.1900013,4.2633337 52.4466654,4.3299997 52.7,4.39 C52.9533346,4.4500003 53.179999,4.5199996 53.38,4.6 C53.580001,4.6800004 53.741666,4.7799994 53.865,4.9 C53.9883339,5.0200006 54.05,5.1766657 54.05,5.37 C54.05,5.5500009 54.0033338,5.69833275 53.91,5.815 C53.8166662,5.93166725 53.7000007,6.023333 53.56,6.09 C53.4199993,6.156667 53.2700008,6.20166655 53.11,6.225 C52.9499992,6.24833345 52.8000007,6.26 52.66,6.26 C52.4533323,6.26 52.2533343,6.23500025 52.06,6.185 C51.8666657,6.13499975 51.698334,6.05833385 51.555,5.955 C51.4116659,5.85166615 51.2966671,5.7166675 51.21,5.55 C51.1233329,5.3833325 51.08,5.1800012 51.08,4.94 Z" id="KautenjaDSP" fill-rule="nonzero"></path>
                        <path d="M59.72,0.17 C60.1666689,0.17 60.5466651,0.23499935 60.86,0.365 C61.1733349,0.49500065 61.4283323,0.6666656 61.625,0.88 C61.8216676,1.0933344 61.9649995,1.3366653 62.055,1.61 C62.1450004,1.8833347 62.19,2.1666652 62.19,2.46 C62.19,2.7466681 62.1450004,3.02833195 62.055,3.305 C61.9649995,3.58166805 61.8216676,3.8266656 61.625,4.04 C61.4283323,4.2533344 61.1733349,4.42499935 60.86,4.555 C60.5466651,4.68500065 60.1666689,4.75 59.72,4.75 L58.07,4.75 L58.07,7.31 L56.5,7.31 L56.5,0.17 L59.72,0.17 Z M59.29,1.39 L58.07,1.39 L58.07,3.53 L59.29,3.53 C59.4700009,3.53 59.6433325,3.5166668 59.81,3.49 C59.9766675,3.4633332 60.1233327,3.41166705 60.25,3.335 C60.3766673,3.25833295 60.478333,3.1500007 60.555,3.01 C60.631667,2.8699993 60.67,2.6866678 60.67,2.46 C60.67,2.2333322 60.631667,2.0500007 60.555,1.91 C60.478333,1.7699993 60.3766673,1.66166705 60.25,1.585 C60.1233327,1.50833295 59.9766675,1.4566668 59.81,1.43 C59.6433325,1.4033332 59.4700009,1.39 59.29,1.39 L59.29,1.39 Z" id="Combined-Shape" fill-rule="nonzero"></path>
                    </g>
                </g>
            </g>
            <g id="Header" transform="translate(0.000000, 2.000000)" fill="#B3B3B3" fill-rule="nonzero">
                <path d="M55.798,3.048 C57.31,3.048 58.642,4.11 58.642,5.748 C58.642,7.08 57.922,8.16 55.852,10.05 L51.154,14.298 L51.154,15 L59.758,15 L59.758,14.1 L52.63,14.1 L56.482,10.608 L56.9703924,10.1574429 C58.8344615,8.41125444 59.632,7.30569231 59.632,5.694 C59.632,3.714 58.03,2.22 55.888,2.22 C53.674,2.22 52.504,3.246 51.406,4.92 L52.108,5.388 C53.152,3.876 54.196,3.048 55.798,3.048 Z M74.338,15 L68.47,2.31 L67.57,2.31 L61.702,15 L62.674,15 L64.276,11.472 L71.71,11.472 L73.312,15 L74.338,15 Z M71.314,10.626 L64.672,10.626 L68.002,3.336 L71.314,10.626 Z M86.74,8.682 C86.74,5.19 84.742,2.184 81.538,2.184 C78.334,2.184 76.3,5.226 76.3,8.718 C76.3,12.21 78.298,15.216 81.502,15.216 C84.706,15.216 86.74,12.174 86.74,8.682 Z M85.768,8.718 C85.768,11.67 84.148,14.37 81.538,14.37 C78.928,14.37 77.272,11.634 77.272,8.682 C77.272,5.73 78.892,3.03 81.502,3.03 C84.112,3.03 85.768,5.766 85.768,8.718 Z M95.956,3.282 L89.35,3.282 L89.35,2.4 L97.234,2.4 L97.234,3.066 L92.968,7.944 C95.362,8.088 97.432,9.204 97.432,11.526 C97.432,13.74 95.506,15.216 93.328,15.216 C91.276,15.216 89.728,14.28 88.702,12.948 L89.422,12.354 C90.43,13.632 91.69,14.37 93.346,14.37 C95.038,14.37 96.46,13.236 96.46,11.562 C96.46,9.78 94.804,8.808 92.536,8.808 L91.852,8.808 L91.618,8.286 L95.956,3.282 Z" id="2A03"></path>
            </g>
        </g>
        <g id="Noise" transform="translate(13.000000, 278.000000)">
            <rect id="Rectangle" fill="#F3D26C" x="0" y="0" width="124" height="80" rx="5"></rect>
            <g id="Freq" transform="translate(0.000000, 19.000000)" fill="#1A1A1A" fill-rule="nonzero">
                <path d="M45.0078125,57 L45.0078125,51.7265625 L49.109375,51.7265625 C50.2812559,51.7265625 50.8671875,52.2656196 50.8671875,53.34375 C50.8671875,54.4140679 50.2812559,54.9492188 49.109375,54.9492188 L46.1796875,54.9492188 L46.1796875,57 L45.0078125,57 Z M49.6953125,53.7773438 L49.6953125,52.8984375 L46.1796875,52.8984375 L46.1796875,53.7773438 L49.6953125,53.7773438 Z M57.3125,57 L53.2109375,57 C52.0390566,57 51.453125,56.4140684 51.453125,55.2421875 L51.453125,51.7265625 L57.3125,51.7265625 L57.3125,52.8984375 L52.625,52.8984375 L52.625,53.7773438 L57.3125,53.7773438 L57.3125,54.9492188 L52.625,54.9492188 L52.625,55.2421875 C52.625,55.6328145 52.8203105,55.828125 53.2109375,55.828125 L57.3125,55.828125 L57.3125,57 Z M59.0703125,53.7773438 L62.5859375,53.7773438 L62.5859375,52.8984375 L59.0703125,52.8984375 L59.0703125,53.7773438 Z M59.0703125,54.9492188 L59.0703125,57 L57.8984375,57 L57.8984375,51.7265625 L62,51.7265625 C63.1718809,51.7265625 63.7578125,52.2617134 63.7578125,53.3320312 C63.7578125,53.8398463 63.673829,54.2128894 63.5058594,54.4511719 C63.673829,54.728517 63.7578125,55.0898415 63.7578125,55.5351562 L63.7578125,57 L62.5859375,57 L62.5859375,55.5351562 C62.5859375,55.1445293 62.390627,54.9492188 62,54.9492188 L59.0703125,54.9492188 Z M65.515625,51.7265625 L65.515625,57 L64.34375,57 L64.34375,51.7265625 L65.515625,51.7265625 Z M70.203125,51.7265625 C71.3750059,51.7265625 71.9609375,52.3124941 71.9609375,53.484375 L71.9609375,55.2421875 C71.9609375,56.4140684 71.4726611,57 70.4960938,57 L67.859375,57 C66.6874941,57 66.1015625,56.4140684 66.1015625,55.2421875 L66.1015625,53.484375 C66.1015625,52.3124941 66.6874941,51.7265625 67.859375,51.7265625 L70.203125,51.7265625 Z M76.6484375,51.7265625 C77.8203184,51.7265625 78.40625,52.3124941 78.40625,53.484375 L78.40625,55.2421875 C78.40625,56.4140684 77.8203184,57 76.6484375,57 L72.546875,57 L72.546875,51.7265625 L76.6484375,51.7265625 Z M70.203125,52.8984375 L67.859375,52.8984375 C67.468748,52.8984375 67.2734375,53.093748 67.2734375,53.484375 L67.2734375,55.2421875 C67.2734375,55.6328145 67.468748,55.828125 67.859375,55.828125 L70.203125,55.828125 C70.593752,55.828125 70.7890625,55.6328145 70.7890625,55.2421875 L70.7890625,53.484375 C70.7890625,53.093748 70.593752,52.8984375 70.203125,52.8984375 Z M76.6484375,52.8984375 L73.71875,52.8984375 L73.71875,55.828125 L76.6484375,55.828125 C77.0000018,55.828125 77.1933597,55.6699235 77.2285157,55.3535161 L77.234375,55.2421875 L77.234375,53.484375 C77.234375,53.093748 77.0390645,52.8984375 76.6484375,52.8984375 Z" id="PERIOD"></path>
            </g>
            <g id="clock-out" transform="translate(89.000000, 37.000000)">
                <rect id="Rectangle" fill="#1A1A1A" x="0" y="0" width="32" height="40" rx="5"></rect>
                <path d="M8.74902344,10 C7.67479932,10 7.13769531,9.462896 7.13769531,8.38867188 L7.13769531,6.77734375 C7.13769531,5.70311963 7.67479932,5.16601562 8.74902344,5.16601562 L10.8974609,5.16601562 C11.9716851,5.16601562 12.5087891,5.70311963 12.5087891,6.77734375 L12.5087891,8.38867188 C12.5087891,9.462896 12.0612024,10 11.1660156,10 L8.74902344,10 Z M8.21191406,8.38867188 C8.21191406,8.74674658 8.39094873,8.92578125 8.74902344,8.92578125 L10.8974609,8.92578125 C11.2555356,8.92578125 11.4345703,8.74674658 11.4345703,8.38867188 L11.4345703,6.77734375 C11.4345703,6.41926904 11.2555356,6.24023438 10.8974609,6.24023438 L8.74902344,6.24023438 C8.39094873,6.24023438 8.21191406,6.41926904 8.21191406,6.77734375 L8.21191406,8.38867188 Z M13.0458984,5.16601562 L13.0458984,8.38867188 C13.0458984,9.462896 13.5830024,10 14.6572266,10 L16.8056641,10 C17.8798882,10 18.4169922,9.462896 18.4169922,8.38867188 L18.4169922,5.16601562 L17.3427734,5.16601562 L17.3427734,8.38867188 C17.3427734,8.74674658 17.1637388,8.92578125 16.8056641,8.92578125 L14.6572266,8.92578125 C14.2991519,8.92578125 14.1201172,8.74674658 14.1201172,8.38867188 L14.1201172,5.16601562 L13.0458984,5.16601562 Z M18.9541016,5.16601562 L24.3251953,5.16601562 L24.3251953,6.24023438 L22.1767578,6.24023438 L22.1767578,10 L21.1025391,10 L21.1025391,6.24023438 L18.9541016,6.24023438 L18.9541016,5.16601562 Z" id="OUT" fill="#F3D26C" fill-rule="nonzero"></path>
            </g>
            <g id="clock-mod" transform="translate(3.000000, 37.000000)" fill="#1A1A1A" fill-rule="nonzero">
                <path d="M1.83984375,11 L1.83984375,6.60546875 L5.2578125,6.60546875 C6.23437988,6.60546875 6.72265625,7.05468301 6.72265625,7.953125 C6.72265625,8.84505654 6.23437988,9.29101562 5.2578125,9.29101562 L2.81640625,9.29101562 L2.81640625,11 L1.83984375,11 Z M5.74609375,8.31445312 L5.74609375,7.58203125 L2.81640625,7.58203125 L2.81640625,8.31445312 L5.74609375,8.31445312 Z M12.09375,11 L8.67578125,11 C7.69921387,11 7.2109375,10.5117236 7.2109375,9.53515625 L7.2109375,6.60546875 L12.09375,6.60546875 L12.09375,7.58203125 L8.1875,7.58203125 L8.1875,8.31445312 L12.09375,8.31445312 L12.09375,9.29101562 L8.1875,9.29101562 L8.1875,9.53515625 C8.1875,9.86067871 8.35025879,10.0234375 8.67578125,10.0234375 L12.09375,10.0234375 L12.09375,11 Z M13.5585938,8.31445312 L16.4882812,8.31445312 L16.4882812,7.58203125 L13.5585938,7.58203125 L13.5585938,8.31445312 Z M13.5585938,9.29101562 L13.5585938,11 L12.5820312,11 L12.5820312,6.60546875 L16,6.60546875 C16.9765674,6.60546875 17.4648438,7.05142783 17.4648438,7.94335938 C17.4648438,8.36653857 17.3948575,8.67740786 17.2548828,8.87597656 C17.3948575,9.10709751 17.4648438,9.40820127 17.4648438,9.77929688 L17.4648438,11 L16.4882812,11 L16.4882812,9.77929688 C16.4882812,9.45377441 16.3255225,9.29101562 16,9.29101562 L13.5585938,9.29101562 Z M18.9296875,6.60546875 L18.9296875,11 L17.953125,11 L17.953125,6.60546875 L18.9296875,6.60546875 Z M22.8359375,6.60546875 C23.8125049,6.60546875 24.3007812,7.09374512 24.3007812,8.0703125 L24.3007812,9.53515625 C24.3007812,10.5117236 23.8938843,11 23.0800781,11 L20.8828125,11 C19.9062451,11 19.4179688,10.5117236 19.4179688,9.53515625 L19.4179688,8.0703125 C19.4179688,7.09374512 19.9062451,6.60546875 20.8828125,6.60546875 L22.8359375,6.60546875 Z M28.2070312,6.60546875 C29.1835986,6.60546875 29.671875,7.09374512 29.671875,8.0703125 L29.671875,9.53515625 C29.671875,10.5117236 29.1835986,11 28.2070312,11 L24.7890625,11 L24.7890625,6.60546875 L28.2070312,6.60546875 Z M22.8359375,7.58203125 L20.8828125,7.58203125 C20.55729,7.58203125 20.3945312,7.74479004 20.3945312,8.0703125 L20.3945312,9.53515625 C20.3945312,9.86067871 20.55729,10.0234375 20.8828125,10.0234375 L22.8359375,10.0234375 C23.16146,10.0234375 23.3242188,9.86067871 23.3242188,9.53515625 L23.3242188,8.0703125 C23.3242188,7.74479004 23.16146,7.58203125 22.8359375,7.58203125 Z M28.2070312,7.58203125 L25.765625,7.58203125 L25.765625,10.0234375 L28.2070312,10.0234375 C28.4963845,10.0234375 28.6571345,9.89483796 28.6892844,9.63763546 L28.6953125,9.53515625 L28.6953125,8.0703125 C28.6953125,7.74479004 28.5325537,7.58203125 28.2070312,7.58203125 Z" id="PERIOD"></path>
            </g>
            <g id="LFSR" transform="translate(2.000000, 6.000000)" fill="#1A1A1A" fill-rule="nonzero">
                <path d="M6.4425,6 L6.4425,5.02 L3.9995,5.02 L3.9995,1.1 L2.9215,1.1 L2.9215,6 L6.4425,6 Z M6.523,8.08 L6.523,7.1 L2.792,7.1 L2.792,12 L3.87,12 L3.87,10.103 L6.208,10.103 L6.208,9.123 L3.87,9.123 L3.87,8.08 L6.523,8.08 Z M6.39,16.551 L6.39,16.537 C6.39,15.7332353 5.89394464,15.3697197 5.00688093,15.1138044 L4.53016119,14.9853935 C3.98238163,14.8310077 3.80584474,14.7202273 3.78192652,14.4846041 L3.779,14.409 C3.779,14.171 3.996,13.982 4.409,13.982 C4.822,13.982 5.249,14.164 5.683,14.465 L6.243,13.653 C5.746,13.254 5.137,13.03 4.423,13.03 C3.47761111,13.03 2.78821914,13.5544815 2.71453789,14.3616696 L2.708,14.521 C2.708,15.3858889 3.21130864,15.6976914 4.01635665,15.9332908 L4.62602489,16.0997479 C5.14921422,16.2557016 5.29697956,16.3841781 5.31661689,16.5891132 L5.319,16.656 C5.319,16.943 5.053,17.118 4.612,17.118 C4.052,17.118 3.59,16.887 3.149,16.523 L2.512,17.286 C3.1,17.811 3.849,18.07 4.591,18.07 C5.648,18.07 6.39,17.524 6.39,16.551 Z M6.7925,24 L5.5955,22.25 C6.174,22.0355 6.5835,21.5916429 6.63904847,20.8960102 L6.6455,20.717 C6.6455,19.709 5.9525,19.1 4.7975,19.1 L2.5575,19.1 L2.5575,24 L3.6355,24 L3.6355,22.432 L4.4825,22.432 L5.5325,24 L6.7925,24 Z M5.5535,20.787 C5.5535,21.2 5.2525,21.48 4.7275,21.48 L3.6355,21.48 L3.6355,20.073 L4.7065,20.073 C5.18775,20.073 5.49842361,20.2729861 5.54686053,20.6621748 L5.5535,20.787 Z"></path>
            </g>
            <g id="Header" fill="#1A1A1A" fill-rule="nonzero">
                <path d="M43.640625,9 L43.640625,1.96875 L49.109375,1.96875 C50.6718828,1.96875 51.453125,2.74999219 51.453125,4.3125 L51.453125,9 L49.890625,9 L49.890625,4.3125 C49.890625,3.79166406 49.6302109,3.53125 49.109375,3.53125 L45.203125,3.53125 L45.203125,9 L43.640625,9 Z M54.578125,9 C53.0156172,9 52.234375,8.21875781 52.234375,6.65625 L52.234375,4.3125 C52.234375,2.74999219 53.0156172,1.96875 54.578125,1.96875 L57.703125,1.96875 C59.2656328,1.96875 60.046875,2.74999219 60.046875,4.3125 L60.046875,6.65625 C60.046875,8.21875781 59.3958398,9 58.09375,9 L54.578125,9 Z M53.796875,6.65625 C53.796875,7.17708594 54.0572891,7.4375 54.578125,7.4375 L57.703125,7.4375 C58.2239609,7.4375 58.484375,7.17708594 58.484375,6.65625 L58.484375,4.3125 C58.484375,3.79166406 58.2239609,3.53125 57.703125,3.53125 L54.578125,3.53125 C54.0572891,3.53125 53.796875,3.79166406 53.796875,4.3125 L53.796875,6.65625 Z M60.828125,9 L60.828125,1.96875 L62.390625,1.96875 L62.390625,9 L60.828125,9 Z M63.171875,9 L68.640625,9 C70.2031328,9 70.984375,8.28386133 70.984375,6.8515625 C70.984375,5.41926367 70.2031328,4.703125 68.640625,4.703125 L64.734375,4.703125 L64.734375,3.53125 L70.984375,3.53125 L70.984375,1.96875 L65.515625,1.96875 C63.9531172,1.96875 63.171875,2.69530523 63.171875,4.1484375 C63.171875,5.55990289 63.9531172,6.265625 65.515625,6.265625 L69.421875,6.265625 L69.421875,7.4375 L63.171875,7.4375 L63.171875,9 Z M79.578125,9 L74.109375,9 C72.5468672,9 71.765625,8.21875781 71.765625,6.65625 L71.765625,1.96875 L79.578125,1.96875 L79.578125,3.53125 L73.328125,3.53125 L73.328125,4.703125 L79.578125,4.703125 L79.578125,6.265625 L73.328125,6.265625 L73.328125,6.65625 C73.328125,7.17708594 73.5885391,7.4375 74.109375,7.4375 L79.578125,7.4375 L79.578125,9 Z" id="NOISE"></path>
            </g>
        </g>
        <g id="Triangle" transform="translate(13.000000, 193.000000)">
            <rect id="Rectangle" fill="#FF8079" x="0" y="-2.84217094e-14" width="124" height="80" rx="5"></rect>
            <g id="Freq" transform="translate(0.000000, 18.000000)" fill="#1A1A1A" fill-rule="nonzero">
                <path d="M49.4023438,57 L49.4023438,51.7265625 L54.6757812,51.7265625 L54.6757812,52.8984375 L50.5742188,52.8984375 L50.5742188,53.7773438 L53.5039062,53.7773438 L53.5039062,54.9492188 L50.5742188,54.9492188 L50.5742188,57 L49.4023438,57 Z M56.4335938,53.7773438 L59.9492188,53.7773438 L59.9492188,52.8984375 L56.4335938,52.8984375 L56.4335938,53.7773438 Z M56.4335938,54.9492188 L56.4335938,57 L55.2617188,57 L55.2617188,51.7265625 L59.3632812,51.7265625 C60.5351621,51.7265625 61.1210938,52.2617134 61.1210938,53.3320312 C61.1210938,53.8398463 61.0371102,54.2128894 60.8691406,54.4511719 C61.0371102,54.728517 61.1210938,55.0898415 61.1210938,55.5351562 L61.1210938,57 L59.9492188,57 L59.9492188,55.5351562 C59.9492188,55.1445293 59.7539082,54.9492188 59.3632812,54.9492188 L56.4335938,54.9492188 Z M67.5664062,57 L63.4648438,57 C62.2929629,57 61.7070312,56.4140684 61.7070312,55.2421875 L61.7070312,51.7265625 L67.5664062,51.7265625 L67.5664062,52.8984375 L62.8789062,52.8984375 L62.8789062,53.7773438 L67.5664062,53.7773438 L67.5664062,54.9492188 L62.8789062,54.9492188 L62.8789062,55.2421875 C62.8789062,55.6328145 63.0742168,55.828125 63.4648438,55.828125 L67.5664062,55.828125 L67.5664062,57 Z M72.2539062,55.828125 C72.6445332,55.828125 72.8398438,55.6328145 72.8398438,55.2421875 L72.8398438,53.484375 C72.8398438,53.093748 72.6445332,52.8984375 72.2539062,52.8984375 L69.9101562,52.8984375 C69.5195293,52.8984375 69.3242188,53.093748 69.3242188,53.484375 L69.3242188,55.2421875 C69.3242188,55.6328145 69.5195293,55.828125 69.9101562,55.828125 L72.2539062,55.828125 Z M69.9101562,57 C68.7382754,57 68.1523438,56.4140684 68.1523438,55.2421875 L68.1523438,53.484375 C68.1523438,52.3124941 68.7382754,51.7265625 69.9101562,51.7265625 L72.2539062,51.7265625 C73.4257871,51.7265625 74.0117188,52.3124941 74.0117188,53.484375 L74.0117188,57 L69.9101562,57 Z" id="FREQ"></path>
            </g>
            <g id="out" transform="translate(89.000000, 37.000000)">
                <rect id="Rectangle" fill="#1A1A1A" x="0" y="0" width="32" height="40" rx="5"></rect>
                <path d="M8.74902344,10 C7.67479932,10 7.13769531,9.462896 7.13769531,8.38867188 L7.13769531,6.77734375 C7.13769531,5.70311963 7.67479932,5.16601562 8.74902344,5.16601562 L10.8974609,5.16601562 C11.9716851,5.16601562 12.5087891,5.70311963 12.5087891,6.77734375 L12.5087891,8.38867188 C12.5087891,9.462896 12.0612024,10 11.1660156,10 L8.74902344,10 Z M8.21191406,8.38867188 C8.21191406,8.74674658 8.39094873,8.92578125 8.74902344,8.92578125 L10.8974609,8.92578125 C11.2555356,8.92578125 11.4345703,8.74674658 11.4345703,8.38867188 L11.4345703,6.77734375 C11.4345703,6.41926904 11.2555356,6.24023438 10.8974609,6.24023438 L8.74902344,6.24023438 C8.39094873,6.24023438 8.21191406,6.41926904 8.21191406,6.77734375 L8.21191406,8.38867188 Z M13.0458984,5.16601562 L13.0458984,8.38867188 C13.0458984,9.462896 13.5830024,10 14.6572266,10 L16.8056641,10 C17.8798882,10 18.4169922,9.462896 18.4169922,8.38867188 L18.4169922,5.16601562 L17.3427734,5.16601562 L17.3427734,8.38867188 C17.3427734,8.74674658 17.1637388,8.92578125 16.8056641,8.92578125 L14.6572266,8.92578125 C14.2991519,8.92578125 14.1201172,8.74674658 14.1201172,8.38867188 L14.1201172,5.16601562 L13.0458984,5.16601562 Z M18.9541016,5.16601562 L24.3251953,5.16601562 L24.3251953,6.24023438 L22.1767578,6.24023438 L22.1767578,10 L21.1025391,10 L21.1025391,6.24023438 L18.9541016,6.24023438 L18.9541016,5.16601562 Z" id="OUT" fill="#FF8079" fill-rule="nonzero"></path>
            </g>
            <g id="VOCT" transform="translate(3.000000, 37.000000)" fill="#1A1A1A" fill-rule="nonzero">
                <path d="M2.84082031,6.16601562 L2.84082031,11 L6.60058594,11 C7.67481006,11 8.21191406,10.462896 8.21191406,9.38867188 L8.21191406,6.16601562 L7.13769531,6.16601562 L7.13769531,9.38867188 C7.13769531,9.74674658 6.95866064,9.92578125 6.60058594,9.92578125 L3.91503906,9.92578125 L3.91503906,6.16601562 L2.84082031,6.16601562 Z M8.74902344,11 L9.82324219,6.16601562 L10.8974609,6.16601562 L9.82324219,11 L8.74902344,11 Z M13.0458984,11 C11.9716743,11 11.4345703,10.462896 11.4345703,9.38867188 L11.4345703,7.77734375 C11.4345703,6.70311963 11.9716743,6.16601562 13.0458984,6.16601562 L15.1943359,6.16601562 C16.2685601,6.16601562 16.8056641,6.70311963 16.8056641,7.77734375 L16.8056641,9.38867188 C16.8056641,10.462896 16.3580774,11 15.4628906,11 L13.0458984,11 Z M12.5087891,9.38867188 C12.5087891,9.74674658 12.6878237,9.92578125 13.0458984,9.92578125 L15.1943359,9.92578125 C15.5524106,9.92578125 15.7314453,9.74674658 15.7314453,9.38867188 L15.7314453,7.77734375 C15.7314453,7.41926904 15.5524106,7.24023438 15.1943359,7.24023438 L13.0458984,7.24023438 C12.6878237,7.24023438 12.5087891,7.41926904 12.5087891,7.77734375 L12.5087891,9.38867188 Z M22.7138672,11 L18.9541016,11 C17.8798774,11 17.3427734,10.462896 17.3427734,9.38867188 L17.3427734,7.77734375 C17.3427734,6.70311963 17.8798774,6.16601562 18.9541016,6.16601562 L22.7138672,6.16601562 L22.7138672,7.24023438 L18.9541016,7.24023438 C18.5960269,7.24023438 18.4169922,7.41926904 18.4169922,7.77734375 L18.4169922,9.38867188 C18.4169922,9.74674658 18.5960269,9.92578125 18.9541016,9.92578125 L22.7138672,9.92578125 L22.7138672,11 Z M23.2509766,6.16601562 L28.6220703,6.16601562 L28.6220703,7.24023438 L26.4736328,7.24023438 L26.4736328,11 L25.3994141,11 L25.3994141,7.24023438 L23.2509766,7.24023438 L23.2509766,6.16601562 Z" id="V/OCT"></path>
            </g>
            <g id="Mod" transform="translate(2.000000, 10.000000)" fill="#1A1A1A" fill-rule="nonzero">
                <path d="M6.95,8 L6.95,3.1 L5.788,3.1 L4.5,5.172 L3.212,3.1 L2.05,3.1 L2.05,8 L3.107,8 L3.107,4.822 L4.472,6.894 L4.5,6.894 L5.879,4.801 L5.879,8 L6.95,8 Z M7.104,11.55 L7.104,11.536 C7.104,10.143 6.019,9.016 4.507,9.016 C3.05315385,9.016 1.98114941,10.0709186 1.90083819,11.3904382 L1.896,11.564 C1.896,12.957 2.981,14.084 4.493,14.084 C6.005,14.084 7.104,12.943 7.104,11.55 Z M5.977,11.564 C5.977,12.404 5.375,13.09 4.507,13.09 C3.68722222,13.09 3.09222222,12.4656173 3.02864129,11.6886077 L3.023,11.536 C3.023,10.696 3.625,10.01 4.493,10.01 C5.31277778,10.01 5.90777778,10.6343827 5.97135871,11.4113923 L5.977,11.564 Z M6.866,17.55 L6.866,17.536 C6.866,16.157 5.802,15.1 4.262,15.1 L2.351,15.1 L2.351,20 L4.262,20 C5.802,20 6.866,18.929 6.866,17.55 Z M5.739,17.564 C5.739,18.432 5.144,19.027 4.262,19.027 L3.429,19.027 L3.429,16.073 L4.262,16.073 C5.09211765,16.073 5.66800692,16.6124602 5.73288622,17.3995834 L5.739,17.564 Z" id="MOD"></path>
            </g>
            <g id="Header" fill="#1A1A1A" fill-rule="nonzero">
                <path d="M30.75,1.96875 L38.5625,1.96875 L38.5625,3.53125 L35.4375,3.53125 L35.4375,9 L33.875,9 L33.875,3.53125 L30.75,3.53125 L30.75,1.96875 Z M40.90625,4.703125 L45.59375,4.703125 L45.59375,3.53125 L40.90625,3.53125 L40.90625,4.703125 Z M40.90625,6.265625 L40.90625,9 L39.34375,9 L39.34375,1.96875 L44.8125,1.96875 C46.3750078,1.96875 47.15625,2.68228453 47.15625,4.109375 C47.15625,4.78646172 47.044272,5.28385258 46.8203125,5.6015625 C47.044272,5.97135602 47.15625,6.45312203 47.15625,7.046875 L47.15625,9 L45.59375,9 L45.59375,7.046875 C45.59375,6.52603906 45.3333359,6.265625 44.8125,6.265625 L40.90625,6.265625 Z M47.9375,9 L47.9375,1.96875 L49.5,1.96875 L49.5,9 L47.9375,9 Z M56.53125,5.484375 L56.53125,4.3125 C56.53125,3.79166406 56.2708359,3.53125 55.75,3.53125 L52.625,3.53125 C52.1041641,3.53125 51.84375,3.79166406 51.84375,4.3125 L51.84375,5.484375 L56.53125,5.484375 Z M51.84375,7.046875 L51.84375,9 L50.28125,9 L50.28125,4.3125 C50.28125,2.74999219 51.0624922,1.96875 52.625,1.96875 L55.75,1.96875 C57.3125078,1.96875 58.09375,2.74999219 58.09375,4.3125 L58.09375,9 L56.53125,9 L56.53125,7.046875 L51.84375,7.046875 Z M58.875,9 L58.875,1.96875 L64.34375,1.96875 C65.9062578,1.96875 66.6875,2.74999219 66.6875,4.3125 L66.6875,9 L65.125,9 L65.125,4.3125 C65.125,3.79166406 64.8645859,3.53125 64.34375,3.53125 L60.4375,3.53125 L60.4375,9 L58.875,9 Z M75.28125,4.703125 L75.28125,9 L69.8125,9 C68.2499922,9 67.46875,8.21875781 67.46875,6.65625 L67.46875,4.3125 C67.46875,2.74999219 68.2499922,1.96875 69.8125,1.96875 L75.28125,1.96875 L75.28125,3.53125 L69.8125,3.53125 C69.2916641,3.53125 69.03125,3.79166406 69.03125,4.3125 L69.03125,6.65625 C69.03125,7.17708594 69.2916641,7.4375 69.8125,7.4375 L73.71875,7.4375 L73.71875,6.265625 L71.765625,6.265625 L71.765625,4.703125 L75.28125,4.703125 Z M75.28125,4.703125 L75.28125,9 L69.8125,9 C68.2499922,9 67.46875,8.21875781 67.46875,6.65625 L67.46875,4.3125 C67.46875,2.74999219 68.2499922,1.96875 69.8125,1.96875 L75.28125,1.96875 L75.28125,3.53125 L69.8125,3.53125 C69.2916641,3.53125 69.03125,3.79166406 69.03125,4.3125 L69.03125,6.65625 C69.03125,7.17708594 69.2916641,7.4375 69.8125,7.4375 L73.71875,7.4375 L73.71875,6.265625 L71.765625,6.265625 L71.765625,4.703125 L75.28125,4.703125 Z M76.0625,1.96875 L76.0625,6.65625 C76.0625,8.21875781 76.8437422,9 78.40625,9 L83.875,9 L83.875,7.4375 L78.40625,7.4375 C77.8854141,7.4375 77.625,7.17708594 77.625,6.65625 L77.625,1.96875 L76.0625,1.96875 Z M92.46875,9 L87,9 C85.4374922,9 84.65625,8.21875781 84.65625,6.65625 L84.65625,1.96875 L92.46875,1.96875 L92.46875,3.53125 L86.21875,3.53125 L86.21875,4.703125 L92.46875,4.703125 L92.46875,6.265625 L86.21875,6.265625 L86.21875,6.65625 C86.21875,7.17708594 86.4791641,7.4375 87,7.4375 L92.46875,7.4375 L92.46875,9 Z" id="TRIANGLE"></path>
            </g>
        </g>
        <g id="Pulse2" transform="translate(13.000000, 108.000000)">
            <rect id="bg" fill="#5B986E" x="0" y="-2.84217094e-14" width="124" height="80" rx="5"></rect>
            <g id="Freq" transform="translate(0.000000, 18.000000)" fill="#1A1A1A" fill-rule="nonzero">
                <path d="M49.4023438,58 L49.4023438,52.7265625 L54.6757812,52.7265625 L54.6757812,53.8984375 L50.5742188,53.8984375 L50.5742188,54.7773438 L53.5039062,54.7773438 L53.5039062,55.9492188 L50.5742188,55.9492188 L50.5742188,58 L49.4023438,58 Z M56.4335938,54.7773438 L59.9492188,54.7773438 L59.9492188,53.8984375 L56.4335938,53.8984375 L56.4335938,54.7773438 Z M56.4335938,55.9492188 L56.4335938,58 L55.2617188,58 L55.2617188,52.7265625 L59.3632812,52.7265625 C60.5351621,52.7265625 61.1210938,53.2617134 61.1210938,54.3320312 C61.1210938,54.8398463 61.0371102,55.2128894 60.8691406,55.4511719 C61.0371102,55.728517 61.1210938,56.0898415 61.1210938,56.5351562 L61.1210938,58 L59.9492188,58 L59.9492188,56.5351562 C59.9492188,56.1445293 59.7539082,55.9492188 59.3632812,55.9492188 L56.4335938,55.9492188 Z M67.5664062,58 L63.4648438,58 C62.2929629,58 61.7070312,57.4140684 61.7070312,56.2421875 L61.7070312,52.7265625 L67.5664062,52.7265625 L67.5664062,53.8984375 L62.8789062,53.8984375 L62.8789062,54.7773438 L67.5664062,54.7773438 L67.5664062,55.9492188 L62.8789062,55.9492188 L62.8789062,56.2421875 C62.8789062,56.6328145 63.0742168,56.828125 63.4648438,56.828125 L67.5664062,56.828125 L67.5664062,58 Z M72.2539062,56.828125 C72.6445332,56.828125 72.8398438,56.6328145 72.8398438,56.2421875 L72.8398438,54.484375 C72.8398438,54.093748 72.6445332,53.8984375 72.2539062,53.8984375 L69.9101562,53.8984375 C69.5195293,53.8984375 69.3242188,54.093748 69.3242188,54.484375 L69.3242188,56.2421875 C69.3242188,56.6328145 69.5195293,56.828125 69.9101562,56.828125 L72.2539062,56.828125 Z M69.9101562,58 C68.7382754,58 68.1523438,57.4140684 68.1523438,56.2421875 L68.1523438,54.484375 C68.1523438,53.3124941 68.7382754,52.7265625 69.9101562,52.7265625 L72.2539062,52.7265625 C73.4257871,52.7265625 74.0117188,53.3124941 74.0117188,54.484375 L74.0117188,58 L69.9101562,58 Z" id="FREQ"></path>
            </g>
            <g id="Out" transform="translate(89.000000, 37.000000)">
                <rect id="Rectangle" fill="#1A1A1A" x="0" y="0" width="32" height="40" rx="5"></rect>
                <path d="M8.74902344,10 C7.67479932,10 7.13769531,9.462896 7.13769531,8.38867188 L7.13769531,6.77734375 C7.13769531,5.70311963 7.67479932,5.16601562 8.74902344,5.16601562 L10.8974609,5.16601562 C11.9716851,5.16601562 12.5087891,5.70311963 12.5087891,6.77734375 L12.5087891,8.38867188 C12.5087891,9.462896 12.0612024,10 11.1660156,10 L8.74902344,10 Z M8.21191406,8.38867188 C8.21191406,8.74674658 8.39094873,8.92578125 8.74902344,8.92578125 L10.8974609,8.92578125 C11.2555356,8.92578125 11.4345703,8.74674658 11.4345703,8.38867188 L11.4345703,6.77734375 C11.4345703,6.41926904 11.2555356,6.24023438 10.8974609,6.24023438 L8.74902344,6.24023438 C8.39094873,6.24023438 8.21191406,6.41926904 8.21191406,6.77734375 L8.21191406,8.38867188 Z M13.0458984,5.16601562 L13.0458984,8.38867188 C13.0458984,9.462896 13.5830024,10 14.6572266,10 L16.8056641,10 C17.8798882,10 18.4169922,9.462896 18.4169922,8.38867188 L18.4169922,5.16601562 L17.3427734,5.16601562 L17.3427734,8.38867188 C17.3427734,8.74674658 17.1637388,8.92578125 16.8056641,8.92578125 L14.6572266,8.92578125 C14.2991519,8.92578125 14.1201172,8.74674658 14.1201172,8.38867188 L14.1201172,5.16601562 L13.0458984,5.16601562 Z M18.9541016,5.16601562 L24.3251953,5.16601562 L24.3251953,6.24023438 L22.1767578,6.24023438 L22.1767578,10 L21.1025391,10 L21.1025391,6.24023438 L18.9541016,6.24023438 L18.9541016,5.16601562 Z" id="OUT" fill="#5B986E" fill-rule="nonzero"></path>
            </g>
            <g id="PW" transform="translate(88.000000, 9.000000)" fill="#1A1A1A" fill-rule="nonzero">
                <path d="M30.628,7.808 L30.628,7.794 C30.628,6.793 29.921,6.1 28.752,6.1 L26.75,6.1 L26.75,11 L27.828,11 L27.828,9.53 L28.647,9.53 C29.746,9.53 30.628,8.942 30.628,7.808 Z M29.536,7.829 C29.536,8.249 29.221,8.571 28.682,8.571 L27.828,8.571 L27.828,7.073 L28.661,7.073 C29.1585385,7.073 29.4831065,7.29368639 29.530096,7.70753072 L29.536,7.829 Z M32.217,12.1 L30.544,17.035 L29.606,17.035 L28.5,13.829 L27.394,17.035 L26.456,17.035 L24.783,12.1 L25.938,12.1 L26.953,15.418 L28.052,12.086 L28.976,12.086 L30.075,15.418 L31.09,12.1 L32.217,12.1 Z"></path>
            </g>
            <g id="VOCT" transform="translate(3.000000, 37.000000)" fill="#1A1A1A" fill-rule="nonzero">
                <path d="M2.84082031,6.16601562 L2.84082031,11 L6.60058594,11 C7.67481006,11 8.21191406,10.462896 8.21191406,9.38867188 L8.21191406,6.16601562 L7.13769531,6.16601562 L7.13769531,9.38867188 C7.13769531,9.74674658 6.95866064,9.92578125 6.60058594,9.92578125 L3.91503906,9.92578125 L3.91503906,6.16601562 L2.84082031,6.16601562 Z M8.74902344,11 L9.82324219,6.16601562 L10.8974609,6.16601562 L9.82324219,11 L8.74902344,11 Z M13.0458984,11 C11.9716743,11 11.4345703,10.462896 11.4345703,9.38867188 L11.4345703,7.77734375 C11.4345703,6.70311963 11.9716743,6.16601562 13.0458984,6.16601562 L15.1943359,6.16601562 C16.2685601,6.16601562 16.8056641,6.70311963 16.8056641,7.77734375 L16.8056641,9.38867188 C16.8056641,10.462896 16.3580774,11 15.4628906,11 L13.0458984,11 Z M12.5087891,9.38867188 C12.5087891,9.74674658 12.6878237,9.92578125 13.0458984,9.92578125 L15.1943359,9.92578125 C15.5524106,9.92578125 15.7314453,9.74674658 15.7314453,9.38867188 L15.7314453,7.77734375 C15.7314453,7.41926904 15.5524106,7.24023438 15.1943359,7.24023438 L13.0458984,7.24023438 C12.6878237,7.24023438 12.5087891,7.41926904 12.5087891,7.77734375 L12.5087891,9.38867188 Z M22.7138672,11 L18.9541016,11 C17.8798774,11 17.3427734,10.462896 17.3427734,9.38867188 L17.3427734,7.77734375 C17.3427734,6.70311963 17.8798774,6.16601562 18.9541016,6.16601562 L22.7138672,6.16601562 L22.7138672,7.24023438 L18.9541016,7.24023438 C18.5960269,7.24023438 18.4169922,7.41926904 18.4169922,7.77734375 L18.4169922,9.38867188 C18.4169922,9.74674658 18.5960269,9.92578125 18.9541016,9.92578125 L22.7138672,9.92578125 L22.7138672,11 Z M23.2509766,6.16601562 L28.6220703,6.16601562 L28.6220703,7.24023438 L26.4736328,7.24023438 L26.4736328,11 L25.3994141,11 L25.3994141,7.24023438 L23.2509766,7.24023438 L23.2509766,6.16601562 Z" id="V/OCT"></path>
            </g>
            <g id="Mod" transform="translate(2.000000, 11.000000)" fill="#1A1A1A" fill-rule="nonzero">
                <path d="M6.95,8 L6.95,3.1 L5.788,3.1 L4.5,5.172 L3.212,3.1 L2.05,3.1 L2.05,8 L3.107,8 L3.107,4.822 L4.472,6.894 L4.5,6.894 L5.879,4.801 L5.879,8 L6.95,8 Z M7.104,11.55 L7.104,11.536 C7.104,10.143 6.019,9.016 4.507,9.016 C3.05315385,9.016 1.98114941,10.0709186 1.90083819,11.3904382 L1.896,11.564 C1.896,12.957 2.981,14.084 4.493,14.084 C6.005,14.084 7.104,12.943 7.104,11.55 Z M5.977,11.564 C5.977,12.404 5.375,13.09 4.507,13.09 C3.68722222,13.09 3.09222222,12.4656173 3.02864129,11.6886077 L3.023,11.536 C3.023,10.696 3.625,10.01 4.493,10.01 C5.31277778,10.01 5.90777778,10.6343827 5.97135871,11.4113923 L5.977,11.564 Z M6.866,17.55 L6.866,17.536 C6.866,16.157 5.802,15.1 4.262,15.1 L2.351,15.1 L2.351,20 L4.262,20 C5.802,20 6.866,18.929 6.866,17.55 Z M5.739,17.564 C5.739,18.432 5.144,19.027 4.262,19.027 L3.429,19.027 L3.429,16.073 L4.262,16.073 C5.09211765,16.073 5.66800692,16.6124602 5.73288622,17.3995834 L5.739,17.564 Z" id="MOD"></path>
            </g>
            <g id="Header" fill="#1A1A1A" fill-rule="nonzero">
                <path d="M40.515625,9 L40.515625,1.96875 L45.984375,1.96875 C47.5468828,1.96875 48.328125,2.68749281 48.328125,4.125 C48.328125,5.55209047 47.5468828,6.265625 45.984375,6.265625 L42.078125,6.265625 L42.078125,9 L40.515625,9 Z M46.765625,4.703125 L46.765625,3.53125 L42.078125,3.53125 L42.078125,4.703125 L46.765625,4.703125 Z M49.109375,1.96875 L49.109375,6.65625 C49.109375,8.21875781 49.8906172,9 51.453125,9 L54.578125,9 C56.1406328,9 56.921875,8.21875781 56.921875,6.65625 L56.921875,1.96875 L55.359375,1.96875 L55.359375,6.65625 C55.359375,7.17708594 55.0989609,7.4375 54.578125,7.4375 L51.453125,7.4375 C50.9322891,7.4375 50.671875,7.17708594 50.671875,6.65625 L50.671875,1.96875 L49.109375,1.96875 Z M57.703125,1.96875 L57.703125,6.65625 C57.703125,8.21875781 58.4843672,9 60.046875,9 L65.515625,9 L65.515625,7.4375 L60.046875,7.4375 C59.5260391,7.4375 59.265625,7.17708594 59.265625,6.65625 L59.265625,1.96875 L57.703125,1.96875 Z M66.296875,9 L71.765625,9 C73.3281328,9 74.109375,8.28386133 74.109375,6.8515625 C74.109375,5.41926367 73.3281328,4.703125 71.765625,4.703125 L67.859375,4.703125 L67.859375,3.53125 L74.109375,3.53125 L74.109375,1.96875 L68.640625,1.96875 C67.0781172,1.96875 66.296875,2.69530523 66.296875,4.1484375 C66.296875,5.55990289 67.0781172,6.265625 68.640625,6.265625 L72.546875,6.265625 L72.546875,7.4375 L66.296875,7.4375 L66.296875,9 Z M82.703125,9 L77.234375,9 C75.6718672,9 74.890625,8.21875781 74.890625,6.65625 L74.890625,1.96875 L82.703125,1.96875 L82.703125,3.53125 L76.453125,3.53125 L76.453125,4.703125 L82.703125,4.703125 L82.703125,6.265625 L76.453125,6.265625 L76.453125,6.65625 C76.453125,7.17708594 76.7135391,7.4375 77.234375,7.4375 L82.703125,7.4375 L82.703125,9 Z" id="PULSE"></path>
            </g>
        </g>
        <g id="Pulse1" transform="translate(13.000000, 23.000000)">
            <rect id="bg" fill="#586AB6" x="0" y="7.10542736e-15" width="124" height="80" rx="5"></rect>
            <g id="Freq" transform="translate(0.000000, 19.000000)" fill="#1A1A1A" fill-rule="nonzero">
                <path d="M49.4023438,56 L49.4023438,50.7265625 L54.6757812,50.7265625 L54.6757812,51.8984375 L50.5742188,51.8984375 L50.5742188,52.7773438 L53.5039062,52.7773438 L53.5039062,53.9492188 L50.5742188,53.9492188 L50.5742188,56 L49.4023438,56 Z M56.4335938,52.7773438 L59.9492188,52.7773438 L59.9492188,51.8984375 L56.4335938,51.8984375 L56.4335938,52.7773438 Z M56.4335938,53.9492188 L56.4335938,56 L55.2617188,56 L55.2617188,50.7265625 L59.3632812,50.7265625 C60.5351621,50.7265625 61.1210938,51.2617134 61.1210938,52.3320312 C61.1210938,52.8398463 61.0371102,53.2128894 60.8691406,53.4511719 C61.0371102,53.728517 61.1210938,54.0898415 61.1210938,54.5351562 L61.1210938,56 L59.9492188,56 L59.9492188,54.5351562 C59.9492188,54.1445293 59.7539082,53.9492188 59.3632812,53.9492188 L56.4335938,53.9492188 Z M67.5664062,56 L63.4648438,56 C62.2929629,56 61.7070312,55.4140684 61.7070312,54.2421875 L61.7070312,50.7265625 L67.5664062,50.7265625 L67.5664062,51.8984375 L62.8789062,51.8984375 L62.8789062,52.7773438 L67.5664062,52.7773438 L67.5664062,53.9492188 L62.8789062,53.9492188 L62.8789062,54.2421875 C62.8789062,54.6328145 63.0742168,54.828125 63.4648438,54.828125 L67.5664062,54.828125 L67.5664062,56 Z M72.2539062,54.828125 C72.6445332,54.828125 72.8398438,54.6328145 72.8398438,54.2421875 L72.8398438,52.484375 C72.8398438,52.093748 72.6445332,51.8984375 72.2539062,51.8984375 L69.9101562,51.8984375 C69.5195293,51.8984375 69.3242188,52.093748 69.3242188,52.484375 L69.3242188,54.2421875 C69.3242188,54.6328145 69.5195293,54.828125 69.9101562,54.828125 L72.2539062,54.828125 Z M69.9101562,56 C68.7382754,56 68.1523438,55.4140684 68.1523438,54.2421875 L68.1523438,52.484375 C68.1523438,51.3124941 68.7382754,50.7265625 69.9101562,50.7265625 L72.2539062,50.7265625 C73.4257871,50.7265625 74.0117188,51.3124941 74.0117188,52.484375 L74.0117188,56 L69.9101562,56 Z" id="FREQ"></path>
            </g>
            <g id="Out" transform="translate(89.000000, 37.000000)">
                <rect id="Rectangle" fill="#1A1A1A" x="0" y="0" width="32" height="40" rx="5"></rect>
                <path d="M8.74902344,9 C7.67479932,9 7.13769531,8.462896 7.13769531,7.38867188 L7.13769531,5.77734375 C7.13769531,4.70311963 7.67479932,4.16601562 8.74902344,4.16601562 L10.8974609,4.16601562 C11.9716851,4.16601562 12.5087891,4.70311963 12.5087891,5.77734375 L12.5087891,7.38867188 C12.5087891,8.462896 12.0612024,9 11.1660156,9 L8.74902344,9 Z M8.21191406,7.38867188 C8.21191406,7.74674658 8.39094873,7.92578125 8.74902344,7.92578125 L10.8974609,7.92578125 C11.2555356,7.92578125 11.4345703,7.74674658 11.4345703,7.38867188 L11.4345703,5.77734375 C11.4345703,5.41926904 11.2555356,5.24023438 10.8974609,5.24023438 L8.74902344,5.24023438 C8.39094873,5.24023438 8.21191406,5.41926904 8.21191406,5.77734375 L8.21191406,7.38867188 Z M13.0458984,4.16601562 L13.0458984,7.38867188 C13.0458984,8.462896 13.5830024,9 14.6572266,9 L16.8056641,9 C17.8798882,9 18.4169922,8.462896 18.4169922,7.38867188 L18.4169922,4.16601562 L17.3427734,4.16601562 L17.3427734,7.38867188 C17.3427734,7.74674658 17.1637388,7.92578125 16.8056641,7.92578125 L14.6572266,7.92578125 C14.2991519,7.92578125 14.1201172,7.74674658 14.1201172,7.38867188 L14.1201172,4.16601562 L13.0458984,4.16601562 Z M18.9541016,4.16601562 L24.3251953,4.16601562 L24.3251953,5.24023438 L22.1767578,5.24023438 L22.1767578,9 L21.1025391,9 L21.1025391,5.24023438 L18.9541016,5.24023438 L18.9541016,4.16601562 Z" id="OUT" fill="#586AB6" fill-rule="nonzero"></path>
            </g>
            <g id="PW" transform="translate(88.000000, 9.000000)" fill="#1A1A1A" fill-rule="nonzero">
                <path d="M31.628,6.808 L31.628,6.794 C31.628,5.793 30.921,5.1 29.752,5.1 L27.75,5.1 L27.75,10 L28.828,10 L28.828,8.53 L29.647,8.53 C30.746,8.53 31.628,7.942 31.628,6.808 Z M30.536,6.829 C30.536,7.249 30.221,7.571 29.682,7.571 L28.828,7.571 L28.828,6.073 L29.661,6.073 C30.1585385,6.073 30.4831065,6.29368639 30.530096,6.70753072 L30.536,6.829 Z M33.217,11.1 L31.544,16.035 L30.606,16.035 L29.5,12.829 L28.394,16.035 L27.456,16.035 L25.783,11.1 L26.938,11.1 L27.953,14.418 L29.052,11.086 L29.976,11.086 L31.075,14.418 L32.09,11.1 L33.217,11.1 Z"></path>
            </g>
            <g id="VOCT" transform="translate(3.000000, 37.000000)" fill="#1A1A1A">
                <text id="V/OCT" font-family="NesController, Nes Controller" font-size="11" font-weight="normal">
                    <tspan x="2.84082031" y="11">V/OCT</tspan>
                </text>
                <path d="M2.84082031,6.16601562 L2.84082031,11 L6.60058594,11 C7.67481006,11 8.21191406,10.462896 8.21191406,9.38867188 L8.21191406,6.16601562 L7.13769531,6.16601562 L7.13769531,9.38867188 C7.13769531,9.74674658 6.95866064,9.92578125 6.60058594,9.92578125 L3.91503906,9.92578125 L3.91503906,6.16601562 L2.84082031,6.16601562 Z M8.74902344,11 L9.82324219,6.16601562 L10.8974609,6.16601562 L9.82324219,11 L8.74902344,11 Z M13.0458984,11 C11.9716743,11 11.4345703,10.462896 11.4345703,9.38867188 L11.4345703,7.77734375 C11.4345703,6.70311963 11.9716743,6.16601562 13.0458984,6.16601562 L15.1943359,6.16601562 C16.2685601,6.16601562 16.8056641,6.70311963 16.8056641,7.77734375 L16.8056641,9.38867188 C16.8056641,10.462896 16.3580774,11 15.4628906,11 L13.0458984,11 Z M12.5087891,9.38867188 C12.5087891,9.74674658 12.6878237,9.92578125 13.0458984,9.92578125 L15.1943359,9.92578125 C15.5524106,9.92578125 15.7314453,9.74674658 15.7314453,9.38867188 L15.7314453,7.77734375 C15.7314453,7.41926904 15.5524106,7.24023438 15.1943359,7.24023438 L13.0458984,7.24023438 C12.6878237,7.24023438 12.5087891,7.41926904 12.5087891,7.77734375 L12.5087891,9.38867188 Z M22.7138672,11 L18.9541016,11 C17.8798774,11 17.3427734,10.462896 17.3427734,9.38867188 L17.3427734,7.77734375 C17.3427734,6.70311963 17.8798774,6.16601562 18.9541016,6.16601562 L22.7138672,6.16601562 L22.7138672,7.24023438 L18.9541016,7.24023438 C18.5960269,7.24023438 18.4169922,7.41926904 18.4169922,7.77734375 L18.4169922,9.38867188 C18.4169922,9.74674658 18.5960269,9.92578125 18.9541016,9.92578125 L22.7138672,9.92578125 L22.7138672,11 Z M23.2509766,6.16601562 L28.6220703,6.16601562 L28.6220703,7.24023438 L26.4736328,7.24023438 L26.4736328,11 L25.3994141,11 L25.3994141,7.24023438 L23.2509766,7.24023438 L23.2509766,6.16601562 Z" id="V/OCT" fill-rule="nonzero"></path>
            </g>
            <g id="Mod" transform="translate(2.000000, 9.000000)" fill="#1A1A1A" fill-rule="nonzero">
                <path d="M6.95,9 L6.95,4.1 L5.788,4.1 L4.5,6.172 L3.212,4.1 L2.05,4.1 L2.05,9 L3.107,9 L3.107,5.822 L4.472,7.894 L4.5,7.894 L5.879,5.801 L5.879,9 L6.95,9 Z M7.104,12.55 L7.104,12.536 C7.104,11.143 6.019,10.016 4.507,10.016 C3.05315385,10.016 1.98114941,11.0709186 1.90083819,12.3904382 L1.896,12.564 C1.896,13.957 2.981,15.084 4.493,15.084 C6.005,15.084 7.104,13.943 7.104,12.55 Z M5.977,12.564 C5.977,13.404 5.375,14.09 4.507,14.09 C3.68722222,14.09 3.09222222,13.4656173 3.02864129,12.6886077 L3.023,12.536 C3.023,11.696 3.625,11.01 4.493,11.01 C5.31277778,11.01 5.90777778,11.6343827 5.97135871,12.4113923 L5.977,12.564 Z M6.866,18.55 L6.866,18.536 C6.866,17.157 5.802,16.1 4.262,16.1 L2.351,16.1 L2.351,21 L4.262,21 C5.802,21 6.866,19.929 6.866,18.55 Z M5.739,18.564 C5.739,19.432 5.144,20.027 4.262,20.027 L3.429,20.027 L3.429,17.073 L4.262,17.073 C5.09211765,17.073 5.66800692,17.6124602 5.73288622,18.3995834 L5.739,18.564 Z" id="MOD"></path>
            </g>
            <g id="Header" fill="#1A1A1A">
                <text id="PULSE" font-family="NesController, Nes Controller" font-size="16" font-weight="normal">
                    <tspan x="40.515625" y="9">PULSE</tspan>
                </text>
                <path d="M40.515625,9 L40.515625,1.96875 L45.984375,1.96875 C47.5468828,1.96875 48.328125,2.68749281 48.328125,4.125 C48.328125,5.55209047 47.5468828,6.265625 45.984375,6.265625 L42.078125,6.265625 L42.078125,9 L40.515625,9 Z M46.765625,4.703125 L46.765625,3.53125 L42.078125,3.53125 L42.078125,4.703125 L46.765625,4.703125 Z M49.109375,1.96875 L49.109375,6.65625 C49.109375,8.21875781 49.8906172,9 51.453125,9 L54.578125,9 C56.1406328,9 56.921875,8.21875781 56.921875,6.65625 L56.921875,1.96875 L55.359375,1.96875 L55.359375,6.65625 C55.359375,7.17708594 55.0989609,7.4375 54.578125,7.4375 L51.453125,7.4375 C50.9322891,7.4375 50.671875,7.17708594 50.671875,6.65625 L50.671875,1.96875 L49.109375,1.96875 Z M57.703125,1.96875 L57.703125,6.65625 C57.703125,8.21875781 58.4843672,9 60.046875,9 L65.515625,9 L65.515625,7.4375 L60.046875,7.4375 C59.5260391,7.4375 59.265625,7.17708594 59.265625,6.65625 L59.265625,1.96875 L57.703125,1.96875 Z M66.296875,9 L71.765625,9 C73.3281328,9 74.109375,8.28386133 74.109375,6.8515625 C74.109375,5.41926367 73.3281328,4.703125 71.765625,4.703125 L67.859375,4.703125 L67.859375,3.53125 L74.109375,3.53125 L74.109375,1.96875 L68.640625,1.96875 C67.0781172,1.96875 66.296875,2.69530523 66.296875,4.1484375 C66.296875,5.55990289 67.0781172,6.265625 68.640625,6.265625 L72.546875,6.265625 L72.546875,7.4375 L66.296875,7.4375 L66.296875,9 Z M82.703125,9 L77.234375,9 C75.6718672,9 74.890625,8.21875781 74.890625,6.65625 L74.890625,1.96875 L82.703125,1.96875 L82.703125,3.53125 L76.453125,3.53125 L76.453125,4.703125 L82.703125,4.703125 L82.703125,6.265625 L76.453125,6.265625 L76.453125,6.65625 C76.453125,7.17708594 76.7135391,7.4375 77.234375,7.4375 L82.703125,7.4375 L82.703125,9 Z" id="PULSE" fill-rule="nonzero"></path>
            </g>
        </g>
    </g>
</svg>