<?xml version="1.0" encoding="UTF-8"?>
<svg width="210px" height="380px" viewBox="0 0 210 380" version="1.1" xmlns="http://www.w3.org/2000/svg" xmlns:xlink="http://www.w3.org/1999/xlink">
    <!-- Generator: Sketch 58 (84663) - https://sketch.com -->
    <title>2A03</title>
    <desc>Created with Sketch.</desc>
    <g id="2A03" stroke="none" stroke-width="1" fill="none" fill-rule="evenodd">
        <g id="bg">
            <rect id="Background" fill="#404040" fill-rule="nonzero" x="0" y="0" width="210" height="380" rx="1"></rect>
            <path d="M206.5,365 C207.604569,365 208.5,365.895431 208.5,367 L208.5,373 C208.5,374.104569 207.604569,375 206.5,375 L3.5,375 C2.3954305,375 1.5,374.104569 1.5,373 L1.5,367 C1.5,365.895431 2.3954305,365 3.5,365 L206.5,365 Z M206.5,345 C207.604569,345 208.5,345.895431 208.5,347 L208.5,353 C208.5,354.104569 207.604569,355 206.5,355 L3.5,355 C2.3954305,355 1.5,354.104569 1.5,353 L1.5,347 C1.5,345.895431 2.3954305,345 3.5,345 L206.5,345 Z M206.5,325 C207.604569,325 208.5,325.895431 208.5,327 L208.5,333 C208.5,334.104569 207.604569,335 206.5,335 L3.5,335 C2.3954305,335 1.5,334.104569 1.5,333 L1.5,327 C1.5,325.895431 2.3954305,325 3.5,325 L206.5,325 Z M206.5,305 C207.604569,305 208.5,305.895431 208.5,307 L208.5,313 C208.5,314.104569 207.604569,315 206.5,315 L3.5,315 C2.3954305,315 1.5,314.104569 1.5,313 L1.5,307 C1.5,305.895431 2.3954305,305 3.5,305 L206.5,305 Z M206.5,285 C207.604569,285 208.5,285.895431 208.5,287 L208.5,293 C208.5,294.104569 207.604569,295 206.5,295 L3.5,295 C2.3954305,295 1.5,294.104569 1.5,293 L1.5,287 C1.5,285.895431 2.3954305,285 3.5,285 L206.5,285 Z M206.5,265 C207.604569,265 208.5,265.895431 208.5,267 L208.5,273 C208.5,274.104569 207.604569,275 206.5,275 L3.5,275 C2.3954305,275 1.5,274.104569 1.5,273 L1.5,267 C1.5,265.895431 2.3954305,265 3.5,265 L206.5,265 Z M206.5,245 C207.604569,245 208.5,245.895431 208.5,247 L208.5,253 C208.5,254.104569 207.604569,255 206.5,255 L3.5,255 C2.3954305,255 1.5,254.104569 1.5,253 L1.5,247 C1.5,245.895431 2.3954305,245 3.5,245 L206.5,245 Z M206.5,225 C207.604569,225 208.5,225.895431 208.5,227 L208.5,233 C208.5,234.104569 207.604569,235 206.5,235 L3.5,235 C2.3954305,235 1.5,234.104569 1.5,233 L1.5,227 C1.5,225.895431 2.3954305,225 3.5,225 L206.5,225 Z M206.5,205 C207.604569,205 208.5,205.895431 208.5,207 L208.5,213 C208.5,214.104569 207.604569,215 206.5,215 L3.5,215 C2.3954305,215 1.5,214.104569 1.5,213 L1.5,207 C1.5,205.895431 2.3954305,205 3.5,205 L206.5,205 Z M206.5,185 C207.604569,185 208.5,185.895431 208.5,187 L208.5,193 C208.5,194.104569 207.604569,195 206.5,195 L3.5,195 C2.3954305,195 1.5,194.104569 1.5,193 L1.5,187 C1.5,185.895431 2.3954305,185 3.5,185 L206.5,185 Z M206.5,165 C207.604569,165 208.5,165.895431 208.5,167 L208.5,173 C208.5,174.104569 207.604569,175 206.5,175 L3.5,175 C2.3954305,175 1.5,174.104569 1.5,173 L1.5,167 C1.5,165.895431 2.3954305,165 3.5,165 L206.5,165 Z M206.5,145 C207.604569,145 208.5,145.895431 208.5,147 L208.5,153 C208.5,154.104569 207.604569,155 206.5,155 L3.5,155 C2.3954305,155 1.5,154.104569 1.5,153 L1.5,147 C1.5,145.895431 2.3954305,145 3.5,145 L206.5,145 Z M206.5,125 C207.604569,125 208.5,125.895431 208.5,127 L208.5,133 C208.5,134.104569 207.604569,135 206.5,135 L3.5,135 C2.3954305,135 1.5,134.104569 1.5,133 L1.5,127 C1.5,125.895431 2.3954305,125 3.5,125 L206.5,125 Z M206.5,105 C207.604569,105 208.5,105.895431 208.5,107 L208.5,113 C208.5,114.104569 207.604569,115 206.5,115 L3.5,115 C2.3954305,115 1.5,114.104569 1.5,113 L1.5,107 C1.5,105.895431 2.3954305,105 3.5,105 L206.5,105 Z M206.5,85 C207.604569,85 208.5,85.8954305 208.5,87 L208.5,93 C208.5,94.1045695 207.604569,95 206.5,95 L3.5,95 C2.3954305,95 1.5,94.1045695 1.5,93 L1.5,87 C1.5,85.8954305 2.3954305,85 3.5,85 L206.5,85 Z M206.5,65 C207.604569,65 208.5,65.8954305 208.5,67 L208.5,73 C208.5,74.1045695 207.604569,75 206.5,75 L3.5,75 C2.3954305,75 1.5,74.1045695 1.5,73 L1.5,67 C1.5,65.8954305 2.3954305,65 3.5,65 L206.5,65 Z M206.5,45 C207.604569,45 208.5,45.8954305 208.5,47 L208.5,53 C208.5,54.1045695 207.604569,55 206.5,55 L3.5,55 C2.3954305,55 1.5,54.1045695 1.5,53 L1.5,47 C1.5,45.8954305 2.3954305,45 3.5,45 L206.5,45 Z M206.5,25 C207.604569,25 208.5,25.8954305 208.5,27 L208.5,33 C208.5,34.1045695 207.604569,35 206.5,35 L3.5,35 C2.3954305,35 1.5,34.1045695 1.5,33 L1.5,27 C1.5,25.8954305 2.3954305,25 3.5,25 L206.5,25 Z M206.5,5 C207.604569,5 208.5,5.8954305 208.5,7 L208.5,13 C208.5,14.1045695 207.604569,15 206.5,15 L3.5,15 C2.3954305,15 1.5,14.1045695 1.5,13 L1.5,7 C1.5,5.8954305 2.3954305,5 3.5,5 L206.5,5 Z" id="leads" fill="#E0D9C5"></path>
            <rect id="cover" fill="#1D1D1D" x="5" y="0" width="200" height="380" rx="2"></rect>
            <g id="Header" transform="translate(81.000000, 4.000000)"></g>
            <path d="M86.298,5.048 C87.81,5.048 89.142,6.11 89.142,7.748 C89.142,9.08 88.422,10.16 86.352,12.05 L81.654,16.298 L81.654,17 L90.258,17 L90.258,16.1 L83.13,16.1 L86.982,12.608 L87.4703924,12.1574429 C89.3344615,10.4112544 90.132,9.30569231 90.132,7.694 C90.132,5.714 88.53,4.22 86.388,4.22 C84.174,4.22 83.004,5.246 81.906,6.92 L82.608,7.388 C83.652,5.876 84.696,5.048 86.298,5.048 Z M104.838,17 L98.97,4.31 L98.07,4.31 L92.202,17 L93.174,17 L94.776,13.472 L102.21,13.472 L103.812,17 L104.838,17 Z M101.814,12.626 L95.172,12.626 L98.502,5.336 L101.814,12.626 Z M117.24,10.682 C117.24,7.19 115.242,4.184 112.038,4.184 C108.834,4.184 106.8,7.226 106.8,10.718 C106.8,14.21 108.798,17.216 112.002,17.216 C115.206,17.216 117.24,14.174 117.24,10.682 Z M116.268,10.718 C116.268,13.67 114.648,16.37 112.038,16.37 C109.428,16.37 107.772,13.634 107.772,10.682 C107.772,7.73 109.392,5.03 112.002,5.03 C114.612,5.03 116.268,7.766 116.268,10.718 Z M126.456,5.282 L119.85,5.282 L119.85,4.4 L127.734,4.4 L127.734,5.066 L123.468,9.944 C125.862,10.088 127.932,11.204 127.932,13.526 C127.932,15.74 126.006,17.216 123.828,17.216 C121.776,17.216 120.228,16.28 119.202,14.948 L119.922,14.354 C120.93,15.632 122.19,16.37 123.846,16.37 C125.538,16.37 126.96,15.236 126.96,13.562 C126.96,11.78 125.304,10.808 123.036,10.808 L122.352,10.808 L122.118,10.286 L126.456,5.282 Z" id="2A03" fill="#B3B3B3" fill-rule="nonzero"></path>
            <g id="KautenjaDSP/bottom/white" transform="translate(74.000000, 364.000000)" fill="#FFFFFF">
                <g id="Group-3">
                    <path d="M-2.13162821e-14,0.17 L-2.13162821e-14,7.31 L1.57,7.31 L1.57,5.01 L2.47,4.1 L4.62,7.31 L6.59,7.31 L3.53,2.99 L6.32,0.17 L4.36,0.17 L1.57,3.13 L1.57,0.17 L-2.13162821e-14,0.17 Z M7.01,3.73 C7.0300001,3.396665 7.1133326,3.1200011 7.26,2.9 C7.4066674,2.6799989 7.5933322,2.503334 7.82,2.37 C8.0466678,2.236666 8.30166525,2.14166695 8.585,2.085 C8.86833475,2.02833305 9.1533319,2 9.44,2 C9.7000013,2 9.963332,2.01833315 10.23,2.055 C10.496668,2.09166685 10.7399989,2.1633328 10.96,2.27 C11.1800011,2.3766672 11.3599993,2.52499905 11.5,2.715 C11.6400007,2.90500095 11.71,3.1566651 11.71,3.47 L11.71,6.16 C11.71,6.3933345 11.7233332,6.6166656 11.75,6.83 C11.7766668,7.0433344 11.823333,7.2033328 11.89,7.31 L10.45,7.31 C10.4233332,7.2299996 10.4016667,7.14833375 10.385,7.065 C10.3683332,6.98166625 10.3566667,6.8966671 10.35,6.81 C10.1233322,7.0433345 9.8566682,7.2066662 9.55,7.3 C9.2433318,7.3933338 8.9300016,7.44 8.61,7.44 C8.3633321,7.44 8.1333344,7.4100003 7.92,7.35 C7.7066656,7.2899997 7.5200008,7.1966673 7.36,7.07 C7.1999992,6.9433327 7.07500045,6.7833343 6.985,6.59 C6.89499955,6.3966657 6.85,6.166668 6.85,5.9 C6.85,5.6066652 6.90166615,5.36500095 7.005,5.175 C7.10833385,4.98499905 7.24166585,4.8333339 7.405,4.72 C7.56833415,4.6066661 7.75499895,4.52166695 7.965,4.465 C8.17500105,4.40833305 8.3866656,4.3633335 8.6,4.33 L8.91750001,4.28499998 L8.91750001,4.28499998 L9.23,4.25 C9.4366677,4.2299999 9.6199992,4.2000002 9.78,4.16 C9.9400008,4.1199998 10.0666662,4.06166705 10.16,3.985 C10.2533338,3.90833295 10.2966667,3.7966674 10.29,3.65 C10.29,3.4966659 10.2650002,3.37500045 10.215,3.285 C10.1649997,3.19499955 10.0983337,3.12500025 10.015,3.075 C9.93166625,3.02499975 9.83500055,2.99166675 9.725,2.975 C9.61499945,2.95833325 9.4966673,2.95 9.37,2.95 C9.0899986,2.95 8.8700008,3.0099994 8.71,3.13 C8.5499992,3.2500006 8.4566668,3.4499986 8.43,3.73 L7.01,3.73 Z M10.29,4.78 C10.2299997,4.8333336 10.1550004,4.87499985 10.065,4.905 C9.97499955,4.93500015 9.87833385,4.9599999 9.775,4.98 L9.61625002,5.00750001 L9.61625002,5.00750001 L9.45,5.03 C9.3366661,5.0433334 9.2233339,5.0599999 9.11,5.08 C9.0033328,5.1000001 8.89833385,5.1266665 8.795,5.16 C8.69166615,5.1933335 8.60166705,5.23833305 8.525,5.295 C8.44833295,5.35166695 8.3866669,5.4233329 8.34,5.51 C8.2933331,5.5966671 8.27,5.706666 8.27,5.84 C8.27,5.9666673 8.2933331,6.0733329 8.34,6.16 C8.3866669,6.2466671 8.4499996,6.31499975 8.53,6.365 C8.6100004,6.41500025 8.7033328,6.4499999 8.81,6.47 C8.9166672,6.4900001 9.0266661,6.5 9.14,6.5 C9.4200014,6.5 9.6366659,6.4533338 9.79,6.36 C9.9433341,6.2666662 10.0566663,6.15500065 10.13,6.025 C10.2033337,5.89499935 10.2483332,5.763334 10.265,5.63 L10.2872222,5.39888892 C10.2890741,5.3662964 10.29,5.3366668 10.29,5.31 L10.29,4.78 Z M17.66,7.31 L17.66,2.14 L16.24,2.14 L16.24,4.85 C16.24,5.3766693 16.1533342,5.75499885 15.98,5.985 C15.8066658,6.21500115 15.5266686,6.33 15.14,6.33 C14.7999983,6.33 14.563334,6.22500105 14.43,6.015 C14.296666,5.80499895 14.23,5.4866688 14.23,5.06 L14.23,2.14 L12.81,2.14 L12.81,5.32 C12.81,5.64 12.838333,5.93166535 12.895,6.195 C12.9516669,6.45833465 13.0499993,6.68166575 13.19,6.865 C13.3300007,7.04833425 13.5216654,7.1899995 13.765,7.29 C14.0083345,7.3900005 14.3199981,7.44 14.7,7.44 C15.0000015,7.44 15.2933319,7.373334 15.58,7.24 C15.8666681,7.106666 16.0999991,6.8900015 16.28,6.59 L16.31,6.59 L16.31,7.31 L17.66,7.31 Z M20.54,2.14 L20.54,0.59 L19.12,0.59 L19.12,2.14 L18.26,2.14 L18.26,3.09 L19.12,3.09 L19.12,6.14 C19.12,6.4000013 19.1633329,6.6099992 19.25,6.77 C19.3366671,6.9300008 19.4549992,7.0533329 19.605,7.14 C19.7550007,7.2266671 19.9283323,7.28499985 20.125,7.315 C20.3216676,7.34500015 20.5299989,7.36 20.75,7.36 C20.8900007,7.36 21.0333326,7.3566667 21.18,7.35 C21.3266674,7.3433333 21.4599994,7.3300001 21.58,7.31 L21.58,6.21 C21.513333,6.2233334 21.4433337,6.2333333 21.37,6.24 C21.2966663,6.2466667 21.2200004,6.25 21.14,6.25 C20.8999988,6.25 20.7400004,6.2100004 20.66,6.13 C20.5799996,6.0499996 20.54,5.8900012 20.54,5.65 L20.54,3.09 L21.58,3.09 L21.58,2.14 L20.54,2.14 Z M25.74,4.17 L23.43,4.17 C23.4366667,4.07 23.4583331,3.9566673 23.495,3.83 C23.5316668,3.7033327 23.5949995,3.5833339 23.685,3.47 C23.7750004,3.3566661 23.8949992,3.26166705 24.045,3.185 C24.1950007,3.10833295 24.3833322,3.07 24.61,3.07 C24.9566684,3.07 25.2149991,3.1633324 25.385,3.35 C25.5550008,3.5366676 25.673333,3.8099982 25.74,4.17 Z M23.43,5.07 L27.16,5.07 C27.1866668,4.669998 27.1533338,4.2866685 27.06,3.92 C26.9666662,3.5533315 26.815001,3.2266681 26.605,2.94 C26.3949989,2.6533319 26.1266683,2.42500085 25.8,2.255 C25.4733317,2.08499915 25.0900022,2 24.65,2 C24.2566647,2 23.8983349,2.0699993 23.575,2.21 C23.251665,2.3500007 22.9733345,2.54166545 22.74,2.785 C22.5066655,3.02833455 22.3266673,3.316665 22.2,3.65 C22.0733327,3.983335 22.01,4.3433314 22.01,4.73 C22.01,5.130002 22.071666,5.496665 22.195,5.83 C22.3183339,6.163335 22.4933322,6.4499988 22.72,6.69 C22.9466678,6.9300012 23.2233317,7.11499935 23.55,7.245 C23.8766683,7.37500065 24.2433313,7.44 24.65,7.44 C25.2366696,7.44 25.7366646,7.306668 26.15,7.04 C26.5633354,6.773332 26.869999,6.3300031 27.07,5.71 L25.82,5.71 C25.7733331,5.8700008 25.6466677,6.02166595 25.44,6.165 C25.2333323,6.30833405 24.9866681,6.38 24.7,6.38 C24.299998,6.38 23.9933344,6.2766677 23.78,6.07 C23.5666656,5.8633323 23.4500001,5.5300023 23.43,5.07 Z M28,2.14 L28,7.31 L29.42,7.31 L29.42,4.6 C29.42,4.0733307 29.5066658,3.69500115 29.68,3.465 C29.8533342,3.23499885 30.1333314,3.12 30.52,3.12 C30.8600017,3.12 31.096666,3.22499895 31.23,3.435 C31.363334,3.64500105 31.43,3.9633312 31.43,4.39 L31.43,7.31 L32.85,7.31 L32.85,4.13 C32.85,3.8099984 32.8216669,3.51833465 32.765,3.255 C32.708333,2.99166535 32.6100007,2.76833425 32.47,2.585 C32.3299993,2.40166575 32.1383345,2.25833385 31.895,2.155 C31.6516654,2.05166615 31.3400019,2 30.96,2 C30.6599985,2 30.3666681,2.06833265 30.08,2.205 C29.7933319,2.34166735 29.5600009,2.5599985 29.38,2.86 L29.35,2.86 L29.35,2.14 L28,2.14 Z M35.48,1.34 L35.48,0.17 L34.06,0.17 L34.06,1.34 L35.48,1.34 Z M33.21,7.91 L33.21,9.08 C33.343334,9.1066668 33.4933325,9.12 33.66,9.12 C34.0200018,9.12 34.3166655,9.08833365 34.55,9.025 C34.7833345,8.96166635 34.9683326,8.86500065 35.105,8.735 C35.2416673,8.60499935 35.338333,8.4433343 35.395,8.25 C35.4516669,8.0566657 35.48,7.826668 35.48,7.56 L35.48,2.14 L34.06,2.14 L34.06,7.49 C34.06,7.6833343 34.0050005,7.80833305 33.895,7.865 C33.7849994,7.92166695 33.6566674,7.95 33.51,7.95 C33.3833327,7.95 33.2833337,7.9366668 33.21,7.91 Z M36.65,3.73 C36.6700001,3.396665 36.7533326,3.1200011 36.9,2.9 C37.0466674,2.6799989 37.2333322,2.503334 37.46,2.37 C37.6866678,2.236666 37.9416652,2.14166695 38.225,2.085 C38.5083347,2.02833305 38.7933319,2 39.08,2 C39.3400013,2 39.603332,2.01833315 39.87,2.055 C40.136668,2.09166685 40.3799989,2.1633328 40.6,2.27 C40.8200011,2.3766672 40.9999993,2.52499905 41.14,2.715 C41.2800007,2.90500095 41.35,3.1566651 41.35,3.47 L41.35,6.16 C41.35,6.3933345 41.3633332,6.6166656 41.39,6.83 C41.4166668,7.0433344 41.463333,7.2033328 41.53,7.31 L40.09,7.31 C40.0633332,7.2299996 40.0416667,7.14833375 40.025,7.065 C40.0083332,6.98166625 39.9966667,6.8966671 39.99,6.81 C39.7633322,7.0433345 39.4966682,7.2066662 39.19,7.3 C38.8833318,7.3933338 38.5700016,7.44 38.25,7.44 C38.0033321,7.44 37.7733344,7.4100003 37.56,7.35 C37.3466656,7.2899997 37.1600008,7.1966673 37,7.07 C36.8399992,6.9433327 36.7150004,6.7833343 36.625,6.59 C36.5349995,6.3966657 36.49,6.166668 36.49,5.9 C36.49,5.6066652 36.5416661,5.36500095 36.645,5.175 C36.7483338,4.98499905 36.8816658,4.8333339 37.045,4.72 C37.2083341,4.6066661 37.3949989,4.52166695 37.605,4.465 C37.815001,4.40833305 38.0266656,4.3633335 38.24,4.33 C38.4533344,4.2966665 38.6633323,4.2700001 38.87,4.25 C39.0766677,4.2299999 39.2599992,4.2000002 39.42,4.16 C39.5800008,4.1199998 39.7066662,4.06166705 39.8,3.985 C39.8933338,3.90833295 39.9366667,3.7966674 39.93,3.65 C39.93,3.4966659 39.9050002,3.37500045 39.855,3.285 C39.8049997,3.19499955 39.7383337,3.12500025 39.655,3.075 C39.5716662,3.02499975 39.4750005,2.99166675 39.365,2.975 C39.2549994,2.95833325 39.1366673,2.95 39.01,2.95 C38.7299986,2.95 38.5100008,3.0099994 38.35,3.13 C38.1899992,3.2500006 38.0966668,3.4499986 38.07,3.73 L36.65,3.73 Z M39.93,4.78 C39.8699997,4.8333336 39.7950004,4.87499985 39.705,4.905 C39.6149995,4.93500015 39.5183338,4.9599999 39.415,4.98 L39.25625,5.00750001 L39.25625,5.00750001 L39.09,5.03 C38.9766661,5.0433334 38.8633339,5.0599999 38.75,5.08 C38.6433328,5.1000001 38.5383338,5.1266665 38.435,5.16 C38.3316661,5.1933335 38.241667,5.23833305 38.165,5.295 C38.0883329,5.35166695 38.0266669,5.4233329 37.98,5.51 C37.9333331,5.5966671 37.91,5.706666 37.91,5.84 C37.91,5.9666673 37.9333331,6.0733329 37.98,6.16 C38.0266669,6.2466671 38.0899996,6.31499975 38.17,6.365 C38.2500004,6.41500025 38.3433328,6.4499999 38.45,6.47 C38.5566672,6.4900001 38.6666661,6.5 38.78,6.5 C39.0600014,6.5 39.2766659,6.4533338 39.43,6.36 C39.5833341,6.2666662 39.6966663,6.15500065 39.77,6.025 C39.8433337,5.89499935 39.8883332,5.763334 39.905,5.63 L39.9272222,5.39888892 C39.9290741,5.3662964 39.93,5.3366668 39.93,5.31 L39.93,4.78 Z M44.17,5.99 L44.17,1.49 L45.29,1.49 C45.6766686,1.49 46.0016653,1.54499945 46.265,1.655 C46.5283346,1.76500055 46.7399992,1.9233323 46.9,2.13 C47.0600008,2.3366677 47.1749996,2.58499855 47.245,2.875 C47.3150003,3.16500145 47.35,3.49 47.35,3.85 C47.35,4.2433353 47.3000005,4.5766653 47.2,4.85 C47.0999995,5.1233347 46.9666675,5.34499915 46.8,5.515 C46.6333325,5.68500085 46.4433344,5.8066663 46.23,5.88 C46.0166656,5.9533337 45.7966678,5.99 45.57,5.99 L44.17,5.99 Z M42.6,0.17 L42.6,7.31 L45.68,7.31 C46.2266694,7.31 46.7016646,7.21833425 47.105,7.035 C47.5083353,6.85166575 47.8449986,6.6000016 48.115,6.28 C48.3850013,5.9599984 48.586666,5.5800022 48.72,5.14 C48.853334,4.6999978 48.92,4.2200026 48.92,3.7 C48.92,3.1066637 48.8383341,2.5900022 48.675,2.15 C48.5116658,1.7099978 48.2850014,1.3433348 47.995,1.05 C47.7049985,0.7566652 47.3616686,0.5366674 46.965,0.39 C46.5683313,0.2433326 46.1400023,0.17 45.68,0.17 L42.6,0.17 Z M51.08,4.94 L49.56,4.94 C49.5533333,5.3800022 49.6333325,5.7599984 49.8,6.08 C49.9666675,6.4000016 50.1916652,6.6633323 50.475,6.87 C50.7583347,7.0766677 51.0849981,7.22833285 51.455,7.325 C51.8250018,7.42166715 52.2066647,7.47 52.6,7.47 C53.0866691,7.47 53.5149981,7.4133339 53.885,7.3 C54.2550018,7.1866661 54.5649987,7.02833435 54.815,6.825 C55.0650012,6.62166565 55.2533327,6.3800014 55.38,6.1 C55.5066673,5.8199986 55.57,5.5166683 55.57,5.19 C55.57,4.789998 55.4850008,4.46166795 55.315,4.205 C55.1449991,3.94833205 54.9433345,3.7433341 54.71,3.59 C54.4766655,3.4366659 54.2416678,3.32500035 54.005,3.255 L53.7457997,3.18139989 C53.6285999,3.14979994 53.5300004,3.12600008 53.45,3.11 L52.365,2.83 L52.365,2.83 C52.088332,2.7566663 51.8716674,2.6833337 51.715,2.61 C51.5583325,2.5366663 51.4533336,2.4566671 51.4,2.37 C51.3466664,2.2833329 51.32,2.1700007 51.32,2.03 C51.32,1.8766659 51.353333,1.7500005 51.42,1.65 C51.486667,1.5499995 51.5716662,1.466667 51.675,1.4 C51.7783338,1.333333 51.8933327,1.2866668 52.02,1.26 C52.1466673,1.2333332 52.2733327,1.22 52.4,1.22 C52.5933343,1.22 52.7716658,1.2366665 52.935,1.27 C53.0983341,1.3033335 53.2433327,1.3599996 53.37,1.44 C53.4966673,1.5200004 53.5983329,1.6299993 53.675,1.77 C53.751667,1.9100007 53.7966666,2.0866656 53.81,2.3 L55.33,2.3 C55.33,1.8866646 55.2516674,1.53500145 55.095,1.245 C54.9383325,0.95499855 54.726668,0.7166676 54.46,0.53 C54.193332,0.3433324 53.888335,0.20833375 53.545,0.125 C53.2016649,0.04166625 52.8433352,0 52.47,0 C52.1499984,0 51.8300016,0.0433329 51.51,0.13 C51.1899984,0.2166671 50.9033346,0.3499991 50.65,0.53 C50.3966654,0.7100009 50.1916674,0.93499865 50.035,1.205 C49.8783325,1.47500135 49.8,1.7933315 49.8,2.16 C49.8,2.4866683 49.861666,2.76499885 49.985,2.995 C50.1083339,3.22500115 50.269999,3.4166659 50.47,3.57 C50.670001,3.7233341 50.8966654,3.84833285 51.15,3.945 C51.3188897,4.00944477 51.4907407,4.06722229 51.6655552,4.11833329 L51.93,4.19 C52.1900013,4.2633337 52.4466654,4.3299997 52.7,4.39 C52.9533346,4.4500003 53.179999,4.5199996 53.38,4.6 C53.580001,4.6800004 53.741666,4.7799994 53.865,4.9 C53.9883339,5.0200006 54.05,5.1766657 54.05,5.37 C54.05,5.5500009 54.0033338,5.69833275 53.91,5.815 C53.8166662,5.93166725 53.7000007,6.023333 53.56,6.09 C53.4199993,6.156667 53.2700008,6.20166655 53.11,6.225 C52.9499992,6.24833345 52.8000007,6.26 52.66,6.26 C52.4533323,6.26 52.2533343,6.23500025 52.06,6.185 C51.8666657,6.13499975 51.698334,6.05833385 51.555,5.955 C51.4116659,5.85166615 51.2966671,5.7166675 51.21,5.55 C51.1233329,5.3833325 51.08,5.1800012 51.08,4.94 Z" id="KautenjaDSP" fill-rule="nonzero"></path>
                    <path d="M59.72,0.17 C60.1666689,0.17 60.5466651,0.23499935 60.86,0.365 C61.1733349,0.49500065 61.4283323,0.6666656 61.625,0.88 C61.8216676,1.0933344 61.9649995,1.3366653 62.055,1.61 C62.1450004,1.8833347 62.19,2.1666652 62.19,2.46 C62.19,2.7466681 62.1450004,3.02833195 62.055,3.305 C61.9649995,3.58166805 61.8216676,3.8266656 61.625,4.04 C61.4283323,4.2533344 61.1733349,4.42499935 60.86,4.555 C60.5466651,4.68500065 60.1666689,4.75 59.72,4.75 L58.07,4.75 L58.07,7.31 L56.5,7.31 L56.5,0.17 L59.72,0.17 Z M59.29,1.39 L58.07,1.39 L58.07,3.53 L59.29,3.53 C59.4700009,3.53 59.6433325,3.5166668 59.81,3.49 C59.9766675,3.4633332 60.1233327,3.41166705 60.25,3.335 C60.3766673,3.25833295 60.478333,3.1500007 60.555,3.01 C60.631667,2.8699993 60.67,2.6866678 60.67,2.46 C60.67,2.2333322 60.631667,2.0500007 60.555,1.91 C60.478333,1.7699993 60.3766673,1.66166705 60.25,1.585 C60.1233327,1.50833295 59.9766675,1.4566668 59.81,1.43 C59.6433325,1.4033332 59.4700009,1.39 59.29,1.39 L59.29,1.39 Z" id="Combined-Shape" fill-rule="nonzero"></path>
                </g>
            </g>
        </g>
        <rect id="Rectangle" fill="#A2A0A5" x="13" y="278" width="185" height="80" rx="5"></rect>
        <path d="M15,355 L15,324.238281 L38.9257812,324.238281 C45.7617529,324.238281 49.1796875,327.656216 49.1796875,334.492188 L49.1796875,355 L42.34375,355 L42.34375,334.492188 C42.34375,332.21353 41.2044385,331.074219 38.9257812,331.074219 L21.8359375,331.074219 L21.8359375,355 L15,355 Z M62.8515625,355 C56.0155908,355 52.5976562,351.582065 52.5976562,344.746094 L52.5976562,334.492188 C52.5976562,327.656216 56.0155908,324.238281 62.8515625,324.238281 L76.5234375,324.238281 C83.3594092,324.238281 86.7773438,327.656216 86.7773438,334.492188 L86.7773438,344.746094 C86.7773438,351.582065 83.9290649,355 78.2324219,355 L62.8515625,355 Z M59.4335938,344.746094 C59.4335938,347.024751 60.5729053,348.164062 62.8515625,348.164062 L76.5234375,348.164062 C78.8020947,348.164062 79.9414062,347.024751 79.9414062,344.746094 L79.9414062,334.492188 C79.9414062,332.21353 78.8020947,331.074219 76.5234375,331.074219 L62.8515625,331.074219 C60.5729053,331.074219 59.4335938,332.21353 59.4335938,334.492188 L59.4335938,344.746094 Z M90.1953125,355 L90.1953125,324.238281 L97.03125,324.238281 L97.03125,355 L90.1953125,355 Z M100.449219,355 L124.375,355 C131.210972,355 134.628906,351.866893 134.628906,345.600586 C134.628906,339.334279 131.210972,336.201172 124.375,336.201172 L107.285156,336.201172 L107.285156,331.074219 L134.628906,331.074219 L134.628906,324.238281 L110.703125,324.238281 C103.867153,324.238281 100.449219,327.41696 100.449219,333.774414 C100.449219,339.949575 103.867153,343.037109 110.703125,343.037109 L127.792969,343.037109 L127.792969,348.164062 L100.449219,348.164062 L100.449219,355 Z M172.226562,355 L148.300781,355 C141.46481,355 138.046875,351.582065 138.046875,344.746094 L138.046875,324.238281 L172.226562,324.238281 L172.226562,331.074219 L144.882812,331.074219 L144.882812,336.201172 L172.226562,336.201172 L172.226562,343.037109 L144.882812,343.037109 L144.882812,344.746094 C144.882812,347.024751 146.022124,348.164062 148.300781,348.164062 L172.226562,348.164062 L172.226562,355 Z" id="NOISE" fill="#C63933" fill-rule="nonzero"></path>
        <path d="M153.006836,306.166016 L153.006836,311 L156.766602,311 C157.840826,311 158.37793,310.462896 158.37793,309.388672 L158.37793,306.166016 L157.303711,306.166016 L157.303711,309.388672 C157.303711,309.746747 157.124676,309.925781 156.766602,309.925781 L154.081055,309.925781 L154.081055,306.166016 L153.006836,306.166016 Z M160.526367,311 C159.452143,311 158.915039,310.462896 158.915039,309.388672 L158.915039,307.777344 C158.915039,306.70312 159.452143,306.166016 160.526367,306.166016 L162.674805,306.166016 C163.749029,306.166016 164.286133,306.70312 164.286133,307.777344 L164.286133,309.388672 C164.286133,310.462896 163.838546,311 162.943359,311 L160.526367,311 Z M159.989258,309.388672 C159.989258,309.746747 160.168292,309.925781 160.526367,309.925781 L162.674805,309.925781 C163.032879,309.925781 163.211914,309.746747 163.211914,309.388672 L163.211914,307.777344 C163.211914,307.419269 163.032879,307.240234 162.674805,307.240234 L160.526367,307.240234 C160.168292,307.240234 159.989258,307.419269 159.989258,307.777344 L159.989258,309.388672 Z M164.823242,306.166016 L164.823242,309.388672 C164.823242,310.462896 165.360346,311 166.43457,311 L170.194336,311 L170.194336,309.925781 L166.43457,309.925781 C166.076496,309.925781 165.897461,309.746747 165.897461,309.388672 L165.897461,306.166016 L164.823242,306.166016 Z M170.731445,306.166016 L170.731445,309.388672 C170.731445,310.462896 171.268549,311 172.342773,311 L174.491211,311 C175.565435,311 176.102539,310.462896 176.102539,309.388672 L176.102539,306.166016 L175.02832,306.166016 L175.02832,309.388672 C175.02832,309.746747 174.849286,309.925781 174.491211,309.925781 L172.342773,309.925781 C171.984699,309.925781 171.805664,309.746747 171.805664,309.388672 L171.805664,306.166016 L170.731445,306.166016 Z M176.639648,311 L176.639648,306.166016 L180.936523,306.166016 C182.010748,306.166016 182.547852,306.70312 182.547852,307.777344 L182.547852,311 L181.473633,311 L181.473633,307.777344 C181.473633,307.419269 181.294598,307.240234 180.936523,307.240234 L180.130859,307.240234 L180.130859,311 L179.056641,311 L179.056641,307.240234 L177.713867,307.240234 L177.713867,311 L176.639648,311 Z M188.456055,311 L184.696289,311 C183.622065,311 183.084961,310.462896 183.084961,309.388672 L183.084961,306.166016 L188.456055,306.166016 L188.456055,307.240234 L184.15918,307.240234 L184.15918,308.045898 L188.456055,308.045898 L188.456055,309.120117 L184.15918,309.120117 L184.15918,309.388672 C184.15918,309.746747 184.338214,309.925781 184.696289,309.925781 L188.456055,309.925781 L188.456055,311 Z" id="VOLUME-Copy" fill="#1D1D1D" fill-rule="nonzero"></path>
        <rect id="Rectangle" fill="#1A1A1A" x="162" y="315" width="32" height="40" rx="5"></rect>
        <path d="M170.749023,325 C169.674799,325 169.137695,324.462896 169.137695,323.388672 L169.137695,321.777344 C169.137695,320.70312 169.674799,320.166016 170.749023,320.166016 L172.897461,320.166016 C173.971685,320.166016 174.508789,320.70312 174.508789,321.777344 L174.508789,323.388672 C174.508789,324.462896 174.061202,325 173.166016,325 L170.749023,325 Z M170.211914,323.388672 C170.211914,323.746747 170.390949,323.925781 170.749023,323.925781 L172.897461,323.925781 C173.255536,323.925781 173.43457,323.746747 173.43457,323.388672 L173.43457,321.777344 C173.43457,321.419269 173.255536,321.240234 172.897461,321.240234 L170.749023,321.240234 C170.390949,321.240234 170.211914,321.419269 170.211914,321.777344 L170.211914,323.388672 Z M175.045898,320.166016 L175.045898,323.388672 C175.045898,324.462896 175.583002,325 176.657227,325 L178.805664,325 C179.879888,325 180.416992,324.462896 180.416992,323.388672 L180.416992,320.166016 L179.342773,320.166016 L179.342773,323.388672 C179.342773,323.746747 179.163739,323.925781 178.805664,323.925781 L176.657227,323.925781 C176.299152,323.925781 176.120117,323.746747 176.120117,323.388672 L176.120117,320.166016 L175.045898,320.166016 Z M180.954102,320.166016 L186.325195,320.166016 L186.325195,321.240234 L184.176758,321.240234 L184.176758,325 L183.102539,325 L183.102539,321.240234 L180.954102,321.240234 L180.954102,320.166016 Z" id="OUT" fill="#F0433F" fill-rule="nonzero"></path>
        <path d="M58.0078125,292 L58.0078125,286.726562 L62.109375,286.726562 C63.2812559,286.726562 63.8671875,287.26562 63.8671875,288.34375 C63.8671875,289.414068 63.2812559,289.949219 62.109375,289.949219 L59.1796875,289.949219 L59.1796875,292 L58.0078125,292 Z M62.6953125,288.777344 L62.6953125,287.898438 L59.1796875,287.898438 L59.1796875,288.777344 L62.6953125,288.777344 Z M70.3125,292 L66.2109375,292 C65.0390566,292 64.453125,291.414068 64.453125,290.242188 L64.453125,286.726562 L70.3125,286.726562 L70.3125,287.898438 L65.625,287.898438 L65.625,288.777344 L70.3125,288.777344 L70.3125,289.949219 L65.625,289.949219 L65.625,290.242188 C65.625,290.632814 65.8203105,290.828125 66.2109375,290.828125 L70.3125,290.828125 L70.3125,292 Z M72.0703125,288.777344 L75.5859375,288.777344 L75.5859375,287.898438 L72.0703125,287.898438 L72.0703125,288.777344 Z M72.0703125,289.949219 L72.0703125,292 L70.8984375,292 L70.8984375,286.726562 L75,286.726562 C76.1718809,286.726562 76.7578125,287.261713 76.7578125,288.332031 C76.7578125,288.839846 76.673829,289.212889 76.5058594,289.451172 C76.673829,289.728517 76.7578125,290.089842 76.7578125,290.535156 L76.7578125,292 L75.5859375,292 L75.5859375,290.535156 C75.5859375,290.144529 75.390627,289.949219 75,289.949219 L72.0703125,289.949219 Z M78.515625,286.726562 L78.515625,292 L77.34375,292 L77.34375,286.726562 L78.515625,286.726562 Z M83.203125,286.726562 C84.3750059,286.726562 84.9609375,287.312494 84.9609375,288.484375 L84.9609375,290.242188 C84.9609375,291.414068 84.4726611,292 83.4960938,292 L80.859375,292 C79.6874941,292 79.1015625,291.414068 79.1015625,290.242188 L79.1015625,288.484375 C79.1015625,287.312494 79.6874941,286.726562 80.859375,286.726562 L83.203125,286.726562 Z M89.6484375,286.726562 C90.8203184,286.726562 91.40625,287.312494 91.40625,288.484375 L91.40625,290.242188 C91.40625,291.414068 90.8203184,292 89.6484375,292 L85.546875,292 L85.546875,286.726562 L89.6484375,286.726562 Z M83.203125,287.898438 L80.859375,287.898438 C80.468748,287.898438 80.2734375,288.093748 80.2734375,288.484375 L80.2734375,290.242188 C80.2734375,290.632814 80.468748,290.828125 80.859375,290.828125 L83.203125,290.828125 C83.593752,290.828125 83.7890625,290.632814 83.7890625,290.242188 L83.7890625,288.484375 C83.7890625,288.093748 83.593752,287.898438 83.203125,287.898438 Z M89.6484375,287.898438 L86.71875,287.898438 L86.71875,290.828125 L89.6484375,290.828125 C90.0000018,290.828125 90.1933597,290.669923 90.2285157,290.353516 L90.234375,290.242188 L90.234375,288.484375 C90.234375,288.093748 90.0390645,287.898438 89.6484375,287.898438 Z" id="PERIOD" fill="#1A1A1A" fill-rule="nonzero"></path>
        <path d="M64.5,325.5 L37.5,339.5" id="Line" stroke="#000000" stroke-width="5" stroke-linecap="square"></path>
        <path d="M26.376,314 L26.376,313.02 L23.933,313.02 L23.933,309.1 L22.855,309.1 L22.855,314 L26.376,314 Z M30.919,310.08 L30.919,309.1 L27.188,309.1 L27.188,314 L28.266,314 L28.266,312.103 L30.604,312.103 L30.604,311.123 L28.266,311.123 L28.266,310.08 L30.919,310.08 Z M35.322,312.551 L35.322,312.537 C35.322,311.733235 34.8259446,311.36972 33.9388809,311.113804 L33.4621612,310.985393 C32.9143816,310.831008 32.7378447,310.720227 32.7139265,310.484604 L32.711,310.409 C32.711,310.171 32.928,309.982 33.341,309.982 C33.754,309.982 34.181,310.164 34.615,310.465 L35.175,309.653 C34.678,309.254 34.069,309.03 33.355,309.03 C32.4096111,309.03 31.7202191,309.554481 31.6465379,310.36167 L31.64,310.521 C31.64,311.385889 32.1433086,311.697691 32.9483567,311.933291 L33.5580249,312.099748 C34.0812142,312.255702 34.2289796,312.384178 34.2486169,312.589113 L34.251,312.656 C34.251,312.943 33.985,313.118 33.544,313.118 C32.984,313.118 32.522,312.887 32.081,312.523 L31.444,313.286 C32.032,313.811 32.781,314.07 33.523,314.07 C34.58,314.07 35.322,313.524 35.322,312.551 Z M40.495,314 L39.298,312.25 C39.8765,312.0355 40.286,311.591643 40.3415485,310.89601 L40.348,310.717 C40.348,309.709 39.655,309.1 38.5,309.1 L36.26,309.1 L36.26,314 L37.338,314 L37.338,312.432 L38.185,312.432 L39.235,314 L40.495,314 Z M39.256,310.787 C39.256,311.2 38.955,311.48 38.43,311.48 L37.338,311.48 L37.338,310.073 L38.409,310.073 C38.89025,310.073 39.2009236,310.272986 39.2493605,310.662175 L39.256,310.787 Z" id="LFSR" fill="#1A1A1A" fill-rule="nonzero"></path>
        <path d="M115.038,285.808 L115.038,285.794 C115.038,284.793 114.331,284.1 113.162,284.1 L111.16,284.1 L111.16,289 L112.238,289 L112.238,287.53 L113.057,287.53 C114.156,287.53 115.038,286.942 115.038,285.808 Z M113.946,285.829 C113.946,286.249 113.631,286.571 113.092,286.571 L112.238,286.571 L112.238,285.073 L113.071,285.073 C113.568538,285.073 113.893107,285.293686 113.940096,285.707531 L113.946,285.829 Z M122.857,284.1 L121.73,284.1 L120.715,287.418 L119.616,284.086 L118.692,284.086 L117.593,287.418 L116.578,284.1 L115.423,284.1 L117.096,289.035 L118.034,289.035 L119.14,285.829 L120.246,289.035 L121.184,289.035 L122.857,284.1 Z M125.23,284.996 C124.852,284.996 124.593,285.206 124.229,285.654 L123.473,285.045 C123.956,284.387 124.425,284.03 125.3,284.03 C126.343,284.03 126.987,284.632 126.987,285.549 C126.987,286.368 126.567,286.781 125.699,287.453 L124.901,288.069 L127.036,288.069 L127.036,289 L123.41,289 L123.41,288.146 L125.041,286.809 L125.315199,286.575083 C125.722722,286.212444 125.888,285.971333 125.888,285.633 C125.888,285.22 125.615,284.996 125.23,284.996 Z" id="PW2" fill="#1A1A1A" fill-rule="nonzero"></path>
        <path d="M118.5,337.5 L118.5,306.5" id="Line-2" stroke="#000000" stroke-width="3" stroke-linecap="square"></path>
        <rect id="Rectangle" fill="#A2A0A5" x="13" y="193" width="185" height="80" rx="5"></rect>
        <path d="M15,251.224609 L36.9726562,251.224609 L36.9726562,255.619141 L28.1835938,255.619141 L28.1835938,271 L23.7890625,271 L23.7890625,255.619141 L15,255.619141 L15,251.224609 Z M43.5644531,258.915039 L56.7480469,258.915039 L56.7480469,255.619141 L43.5644531,255.619141 L43.5644531,258.915039 Z M43.5644531,263.30957 L43.5644531,271 L39.1699219,271 L39.1699219,251.224609 L54.5507812,251.224609 C58.9453345,251.224609 61.1425781,253.231425 61.1425781,257.245117 C61.1425781,259.149424 60.8276399,260.548335 60.1977539,261.441895 C60.8276399,262.481939 61.1425781,263.836906 61.1425781,265.506836 L61.1425781,271 L56.7480469,271 L56.7480469,265.506836 C56.7480469,264.041985 56.0156323,263.30957 54.5507812,263.30957 L43.5644531,263.30957 Z M63.3398438,271 L63.3398438,251.224609 L67.734375,251.224609 L67.734375,271 L63.3398438,271 Z M87.5097656,261.112305 L87.5097656,257.816406 C87.5097656,256.351555 86.7773511,255.619141 85.3125,255.619141 L76.5234375,255.619141 C75.0585864,255.619141 74.3261719,256.351555 74.3261719,257.816406 L74.3261719,261.112305 L87.5097656,261.112305 Z M74.3261719,265.506836 L74.3261719,271 L69.9316406,271 L69.9316406,257.816406 C69.9316406,253.421853 72.1288843,251.224609 76.5234375,251.224609 L85.3125,251.224609 C89.7070532,251.224609 91.9042969,253.421853 91.9042969,257.816406 L91.9042969,271 L87.5097656,271 L87.5097656,265.506836 L74.3261719,265.506836 Z M94.1015625,271 L94.1015625,251.224609 L109.482422,251.224609 C113.876975,251.224609 116.074219,253.421853 116.074219,257.816406 L116.074219,271 L111.679688,271 L111.679688,257.816406 C111.679688,256.351555 110.947273,255.619141 109.482422,255.619141 L98.4960938,255.619141 L98.4960938,271 L94.1015625,271 Z M140.244141,258.915039 L140.244141,271 L124.863281,271 C120.468728,271 118.271484,268.802756 118.271484,264.408203 L118.271484,257.816406 C118.271484,253.421853 120.468728,251.224609 124.863281,251.224609 L140.244141,251.224609 L140.244141,255.619141 L124.863281,255.619141 C123.39843,255.619141 122.666016,256.351555 122.666016,257.816406 L122.666016,264.408203 C122.666016,265.873054 123.39843,266.605469 124.863281,266.605469 L135.849609,266.605469 L135.849609,263.30957 L130.356445,263.30957 L130.356445,258.915039 L140.244141,258.915039 Z M140.244141,258.915039 L140.244141,271 L124.863281,271 C120.468728,271 118.271484,268.802756 118.271484,264.408203 L118.271484,257.816406 C118.271484,253.421853 120.468728,251.224609 124.863281,251.224609 L140.244141,251.224609 L140.244141,255.619141 L124.863281,255.619141 C123.39843,255.619141 122.666016,256.351555 122.666016,257.816406 L122.666016,264.408203 C122.666016,265.873054 123.39843,266.605469 124.863281,266.605469 L135.849609,266.605469 L135.849609,263.30957 L130.356445,263.30957 L130.356445,258.915039 L140.244141,258.915039 Z M142.441406,251.224609 L142.441406,264.408203 C142.441406,268.802756 144.63865,271 149.033203,271 L164.414062,271 L164.414062,266.605469 L149.033203,266.605469 C147.568352,266.605469 146.835938,265.873054 146.835938,264.408203 L146.835938,251.224609 L142.441406,251.224609 Z M188.583984,271 L173.203125,271 C168.808572,271 166.611328,268.802756 166.611328,264.408203 L166.611328,251.224609 L188.583984,251.224609 L188.583984,255.619141 L171.005859,255.619141 L171.005859,258.915039 L188.583984,258.915039 L188.583984,263.30957 L171.005859,263.30957 L171.005859,264.408203 C171.005859,265.873054 171.738274,266.605469 173.203125,266.605469 L188.583984,266.605469 L188.583984,271 Z" id="TRIANGLE" fill="#C63933" fill-rule="nonzero"></path>
        <rect id="Rectangle" fill="#1A1A1A" x="162" y="230" width="32" height="40" rx="5"></rect>
        <path d="M170.749023,240 C169.674799,240 169.137695,239.462896 169.137695,238.388672 L169.137695,236.777344 C169.137695,235.70312 169.674799,235.166016 170.749023,235.166016 L172.897461,235.166016 C173.971685,235.166016 174.508789,235.70312 174.508789,236.777344 L174.508789,238.388672 C174.508789,239.462896 174.061202,240 173.166016,240 L170.749023,240 Z M170.211914,238.388672 C170.211914,238.746747 170.390949,238.925781 170.749023,238.925781 L172.897461,238.925781 C173.255536,238.925781 173.43457,238.746747 173.43457,238.388672 L173.43457,236.777344 C173.43457,236.419269 173.255536,236.240234 172.897461,236.240234 L170.749023,236.240234 C170.390949,236.240234 170.211914,236.419269 170.211914,236.777344 L170.211914,238.388672 Z M175.045898,235.166016 L175.045898,238.388672 C175.045898,239.462896 175.583002,240 176.657227,240 L178.805664,240 C179.879888,240 180.416992,239.462896 180.416992,238.388672 L180.416992,235.166016 L179.342773,235.166016 L179.342773,238.388672 C179.342773,238.746747 179.163739,238.925781 178.805664,238.925781 L176.657227,238.925781 C176.299152,238.925781 176.120117,238.746747 176.120117,238.388672 L176.120117,235.166016 L175.045898,235.166016 Z M180.954102,235.166016 L186.325195,235.166016 L186.325195,236.240234 L184.176758,236.240234 L184.176758,240 L183.102539,240 L183.102539,236.240234 L180.954102,236.240234 L180.954102,235.166016 Z" id="OUT" fill="#F0433F" fill-rule="nonzero"></path>
        <path d="M18.8408203,235.166016 L18.8408203,240 L22.6005859,240 C23.6748101,240 24.2119141,239.462896 24.2119141,238.388672 L24.2119141,235.166016 L23.1376953,235.166016 L23.1376953,238.388672 C23.1376953,238.746747 22.9586606,238.925781 22.6005859,238.925781 L19.9150391,238.925781 L19.9150391,235.166016 L18.8408203,235.166016 Z M24.7490234,240 L25.8232422,235.166016 L26.8974609,235.166016 L25.8232422,240 L24.7490234,240 Z M29.0458984,240 C27.9716743,240 27.4345703,239.462896 27.4345703,238.388672 L27.4345703,236.777344 C27.4345703,235.70312 27.9716743,235.166016 29.0458984,235.166016 L31.1943359,235.166016 C32.2685601,235.166016 32.8056641,235.70312 32.8056641,236.777344 L32.8056641,238.388672 C32.8056641,239.462896 32.3580774,240 31.4628906,240 L29.0458984,240 Z M28.5087891,238.388672 C28.5087891,238.746747 28.6878237,238.925781 29.0458984,238.925781 L31.1943359,238.925781 C31.5524106,238.925781 31.7314453,238.746747 31.7314453,238.388672 L31.7314453,236.777344 C31.7314453,236.419269 31.5524106,236.240234 31.1943359,236.240234 L29.0458984,236.240234 C28.6878237,236.240234 28.5087891,236.419269 28.5087891,236.777344 L28.5087891,238.388672 Z M38.7138672,240 L34.9541016,240 C33.8798774,240 33.3427734,239.462896 33.3427734,238.388672 L33.3427734,236.777344 C33.3427734,235.70312 33.8798774,235.166016 34.9541016,235.166016 L38.7138672,235.166016 L38.7138672,236.240234 L34.9541016,236.240234 C34.5960269,236.240234 34.4169922,236.419269 34.4169922,236.777344 L34.4169922,238.388672 C34.4169922,238.746747 34.5960269,238.925781 34.9541016,238.925781 L38.7138672,238.925781 L38.7138672,240 Z M39.2509766,235.166016 L44.6220703,235.166016 L44.6220703,236.240234 L42.4736328,236.240234 L42.4736328,240 L41.3994141,240 L41.3994141,236.240234 L39.2509766,236.240234 L39.2509766,235.166016 Z" id="V/OCT" fill="#1A1A1A" fill-rule="nonzero"></path>
        <path d="M27.238,229 L27.238,224.1 L26.076,224.1 L24.788,226.172 L23.5,224.1 L22.338,224.1 L22.338,229 L23.395,229 L23.395,225.822 L24.76,227.894 L24.788,227.894 L26.167,225.801 L26.167,229 L27.238,229 Z M33.405,226.55 L33.405,226.536 C33.405,225.143 32.32,224.016 30.808,224.016 C29.3541538,224.016 28.2821494,225.070919 28.2018382,226.390438 L28.197,226.564 C28.197,227.957 29.282,229.084 30.794,229.084 C32.306,229.084 33.405,227.943 33.405,226.55 Z M32.278,226.564 C32.278,227.404 31.676,228.09 30.808,228.09 C29.9882222,228.09 29.3932222,227.465617 29.3296413,226.688608 L29.324,226.536 C29.324,225.696 29.926,225.01 30.794,225.01 C31.6137778,225.01 32.2087778,225.634383 32.2723587,226.411392 L32.278,226.564 Z M38.879,226.55 L38.879,226.536 C38.879,225.157 37.815,224.1 36.275,224.1 L34.364,224.1 L34.364,229 L36.275,229 C37.815,229 38.879,227.929 38.879,226.55 Z M37.752,226.564 C37.752,227.432 37.157,228.027 36.275,228.027 L35.442,228.027 L35.442,225.073 L36.275,225.073 C37.1051176,225.073 37.6810069,225.61246 37.7458862,226.399583 L37.752,226.564 Z" id="MOD" fill="#1A1A1A" fill-rule="nonzero"></path>
        <path d="M175.7415,197.808 L175.7415,197.794 C175.7415,196.793 175.0345,196.1 173.8655,196.1 L171.8635,196.1 L171.8635,201 L172.9415,201 L172.9415,199.53 L173.7605,199.53 C174.8595,199.53 175.7415,198.942 175.7415,197.808 Z M174.6495,197.829 C174.6495,198.249 174.3345,198.571 173.7955,198.571 L172.9415,198.571 L172.9415,197.073 L173.7745,197.073 C174.272038,197.073 174.596607,197.293686 174.643596,197.707531 L174.6495,197.829 Z M183.5605,196.1 L182.4335,196.1 L181.4185,199.418 L180.3195,196.086 L179.3955,196.086 L178.2965,199.418 L177.2815,196.1 L176.1265,196.1 L177.7995,201.035 L178.7375,201.035 L179.8435,197.829 L180.9495,201.035 L181.8875,201.035 L183.5605,196.1 Z M183.9385,196.485 L185.3455,196.065 L186.0805,196.065 L186.0805,201 L185.0165,201 L185.0165,197.157 L184.1625,197.367 L183.9385,196.485 Z" id="PW1" fill="#1A1A1A" fill-rule="nonzero"></path>
        <path d="M146.5,216.5 L179.5,216.5" id="Line-3" stroke="#000000" stroke-width="3" stroke-linecap="square"></path>
        <rect id="bg" fill="#A2A0A5" x="13" y="108" width="185" height="80" rx="5"></rect>
        <path d="M15,186 L15,159.632812 L35.5078125,159.632812 C41.3672168,159.632812 44.296875,162.328098 44.296875,167.71875 C44.296875,173.070339 41.3672168,175.746094 35.5078125,175.746094 L20.859375,175.746094 L20.859375,186 L15,186 Z M38.4375,169.886719 L38.4375,165.492188 L20.859375,165.492188 L20.859375,169.886719 L38.4375,169.886719 Z M47.2265625,159.632812 L47.2265625,177.210938 C47.2265625,183.070342 50.1562207,186 56.015625,186 L67.734375,186 C73.5937793,186 76.5234375,183.070342 76.5234375,177.210938 L76.5234375,159.632812 L70.6640625,159.632812 L70.6640625,177.210938 C70.6640625,179.164072 69.6875098,180.140625 67.734375,180.140625 L56.015625,180.140625 C54.0624902,180.140625 53.0859375,179.164072 53.0859375,177.210938 L53.0859375,159.632812 L47.2265625,159.632812 Z M79.453125,159.632812 L79.453125,177.210938 C79.453125,183.070342 82.3827832,186 88.2421875,186 L108.75,186 L108.75,180.140625 L88.2421875,180.140625 C86.2890527,180.140625 85.3125,179.164072 85.3125,177.210938 L85.3125,159.632812 L79.453125,159.632812 Z M111.679688,186 L132.1875,186 C138.046904,186 140.976562,183.31448 140.976562,177.943359 C140.976562,172.572239 138.046904,169.886719 132.1875,169.886719 L117.539062,169.886719 L117.539062,165.492188 L140.976562,165.492188 L140.976562,159.632812 L120.46875,159.632812 C114.609346,159.632812 111.679688,162.357395 111.679688,167.806641 C111.679688,173.099636 114.609346,175.746094 120.46875,175.746094 L135.117188,175.746094 L135.117188,180.140625 L111.679688,180.140625 L111.679688,186 Z M173.203125,186 L152.695312,186 C146.835908,186 143.90625,183.070342 143.90625,177.210938 L143.90625,159.632812 L173.203125,159.632812 L173.203125,165.492188 L149.765625,165.492188 L149.765625,169.886719 L173.203125,169.886719 L173.203125,175.746094 L149.765625,175.746094 L149.765625,177.210938 C149.765625,179.164072 150.742178,180.140625 152.695312,180.140625 L173.203125,180.140625 L173.203125,186 Z" id="PULSE" fill="#C63933" fill-rule="nonzero"></path>
        <rect id="Rectangle" fill="#1A1A1A" x="162" y="145" width="32" height="40" rx="5"></rect>
        <path d="M170.749023,155 C169.674799,155 169.137695,154.462896 169.137695,153.388672 L169.137695,151.777344 C169.137695,150.70312 169.674799,150.166016 170.749023,150.166016 L172.897461,150.166016 C173.971685,150.166016 174.508789,150.70312 174.508789,151.777344 L174.508789,153.388672 C174.508789,154.462896 174.061202,155 173.166016,155 L170.749023,155 Z M170.211914,153.388672 C170.211914,153.746747 170.390949,153.925781 170.749023,153.925781 L172.897461,153.925781 C173.255536,153.925781 173.43457,153.746747 173.43457,153.388672 L173.43457,151.777344 C173.43457,151.419269 173.255536,151.240234 172.897461,151.240234 L170.749023,151.240234 C170.390949,151.240234 170.211914,151.419269 170.211914,151.777344 L170.211914,153.388672 Z M175.045898,150.166016 L175.045898,153.388672 C175.045898,154.462896 175.583002,155 176.657227,155 L178.805664,155 C179.879888,155 180.416992,154.462896 180.416992,153.388672 L180.416992,150.166016 L179.342773,150.166016 L179.342773,153.388672 C179.342773,153.746747 179.163739,153.925781 178.805664,153.925781 L176.657227,153.925781 C176.299152,153.925781 176.120117,153.746747 176.120117,153.388672 L176.120117,150.166016 L175.045898,150.166016 Z M180.954102,150.166016 L186.325195,150.166016 L186.325195,151.240234 L184.176758,151.240234 L184.176758,155 L183.102539,155 L183.102539,151.240234 L180.954102,151.240234 L180.954102,150.166016 Z" id="OUT" fill="#F0433F" fill-rule="nonzero"></path>
        <path d="M152.006836,136.166016 L152.006836,141 L155.766602,141 C156.840826,141 157.37793,140.462896 157.37793,139.388672 L157.37793,136.166016 L156.303711,136.166016 L156.303711,139.388672 C156.303711,139.746747 156.124676,139.925781 155.766602,139.925781 L153.081055,139.925781 L153.081055,136.166016 L152.006836,136.166016 Z M159.526367,141 C158.452143,141 157.915039,140.462896 157.915039,139.388672 L157.915039,137.777344 C157.915039,136.70312 158.452143,136.166016 159.526367,136.166016 L161.674805,136.166016 C162.749029,136.166016 163.286133,136.70312 163.286133,137.777344 L163.286133,139.388672 C163.286133,140.462896 162.838546,141 161.943359,141 L159.526367,141 Z M158.989258,139.388672 C158.989258,139.746747 159.168292,139.925781 159.526367,139.925781 L161.674805,139.925781 C162.032879,139.925781 162.211914,139.746747 162.211914,139.388672 L162.211914,137.777344 C162.211914,137.419269 162.032879,137.240234 161.674805,137.240234 L159.526367,137.240234 C159.168292,137.240234 158.989258,137.419269 158.989258,137.777344 L158.989258,139.388672 Z M163.823242,136.166016 L163.823242,139.388672 C163.823242,140.462896 164.360346,141 165.43457,141 L169.194336,141 L169.194336,139.925781 L165.43457,139.925781 C165.076496,139.925781 164.897461,139.746747 164.897461,139.388672 L164.897461,136.166016 L163.823242,136.166016 Z M169.731445,136.166016 L169.731445,139.388672 C169.731445,140.462896 170.268549,141 171.342773,141 L173.491211,141 C174.565435,141 175.102539,140.462896 175.102539,139.388672 L175.102539,136.166016 L174.02832,136.166016 L174.02832,139.388672 C174.02832,139.746747 173.849286,139.925781 173.491211,139.925781 L171.342773,139.925781 C170.984699,139.925781 170.805664,139.746747 170.805664,139.388672 L170.805664,136.166016 L169.731445,136.166016 Z M175.639648,141 L175.639648,136.166016 L179.936523,136.166016 C181.010748,136.166016 181.547852,136.70312 181.547852,137.777344 L181.547852,141 L180.473633,141 L180.473633,137.777344 C180.473633,137.419269 180.294598,137.240234 179.936523,137.240234 L179.130859,137.240234 L179.130859,141 L178.056641,141 L178.056641,137.240234 L176.713867,137.240234 L176.713867,141 L175.639648,141 Z M187.456055,141 L183.696289,141 C182.622065,141 182.084961,140.462896 182.084961,139.388672 L182.084961,136.166016 L187.456055,136.166016 L187.456055,137.240234 L183.15918,137.240234 L183.15918,138.045898 L187.456055,138.045898 L187.456055,139.120117 L183.15918,139.120117 L183.15918,139.388672 C183.15918,139.746747 183.338214,139.925781 183.696289,139.925781 L187.456055,139.925781 L187.456055,141 Z" id="VOLUME" fill="#1D1D1D" fill-rule="nonzero"></path>
        <path d="M18.8408203,150.166016 L18.8408203,155 L22.6005859,155 C23.6748101,155 24.2119141,154.462896 24.2119141,153.388672 L24.2119141,150.166016 L23.1376953,150.166016 L23.1376953,153.388672 C23.1376953,153.746747 22.9586606,153.925781 22.6005859,153.925781 L19.9150391,153.925781 L19.9150391,150.166016 L18.8408203,150.166016 Z M24.7490234,155 L25.8232422,150.166016 L26.8974609,150.166016 L25.8232422,155 L24.7490234,155 Z M29.0458984,155 C27.9716743,155 27.4345703,154.462896 27.4345703,153.388672 L27.4345703,151.777344 C27.4345703,150.70312 27.9716743,150.166016 29.0458984,150.166016 L31.1943359,150.166016 C32.2685601,150.166016 32.8056641,150.70312 32.8056641,151.777344 L32.8056641,153.388672 C32.8056641,154.462896 32.3580774,155 31.4628906,155 L29.0458984,155 Z M28.5087891,153.388672 C28.5087891,153.746747 28.6878237,153.925781 29.0458984,153.925781 L31.1943359,153.925781 C31.5524106,153.925781 31.7314453,153.746747 31.7314453,153.388672 L31.7314453,151.777344 C31.7314453,151.419269 31.5524106,151.240234 31.1943359,151.240234 L29.0458984,151.240234 C28.6878237,151.240234 28.5087891,151.419269 28.5087891,151.777344 L28.5087891,153.388672 Z M38.7138672,155 L34.9541016,155 C33.8798774,155 33.3427734,154.462896 33.3427734,153.388672 L33.3427734,151.777344 C33.3427734,150.70312 33.8798774,150.166016 34.9541016,150.166016 L38.7138672,150.166016 L38.7138672,151.240234 L34.9541016,151.240234 C34.5960269,151.240234 34.4169922,151.419269 34.4169922,151.777344 L34.4169922,153.388672 C34.4169922,153.746747 34.5960269,153.925781 34.9541016,153.925781 L38.7138672,153.925781 L38.7138672,155 Z M39.2509766,150.166016 L44.6220703,150.166016 L44.6220703,151.240234 L42.4736328,151.240234 L42.4736328,155 L41.3994141,155 L41.3994141,151.240234 L39.2509766,151.240234 L39.2509766,150.166016 Z" id="V/OCT" fill="#1A1A1A" fill-rule="nonzero"></path>
        <path d="M27.238,144 L27.238,139.1 L26.076,139.1 L24.788,141.172 L23.5,139.1 L22.338,139.1 L22.338,144 L23.395,144 L23.395,140.822 L24.76,142.894 L24.788,142.894 L26.167,140.801 L26.167,144 L27.238,144 Z M33.405,141.55 L33.405,141.536 C33.405,140.143 32.32,139.016 30.808,139.016 C29.3541538,139.016 28.2821494,140.070919 28.2018382,141.390438 L28.197,141.564 C28.197,142.957 29.282,144.084 30.794,144.084 C32.306,144.084 33.405,142.943 33.405,141.55 Z M32.278,141.564 C32.278,142.404 31.676,143.09 30.808,143.09 C29.9882222,143.09 29.3932222,142.465617 29.3296413,141.688608 L29.324,141.536 C29.324,140.696 29.926,140.01 30.794,140.01 C31.6137778,140.01 32.2087778,140.634383 32.2723587,141.411392 L32.278,141.564 Z M38.879,141.55 L38.879,141.536 C38.879,140.157 37.815,139.1 36.275,139.1 L34.364,139.1 L34.364,144 L36.275,144 C37.815,144 38.879,142.929 38.879,141.55 Z M37.752,141.564 C37.752,142.432 37.157,143.027 36.275,143.027 L35.442,143.027 L35.442,140.073 L36.275,140.073 C37.1051176,140.073 37.6810069,140.61246 37.7458862,141.399583 L37.752,141.564 Z" id="MOD" fill="#1A1A1A" fill-rule="nonzero"></path>
        <rect id="bg" fill="#A2A0A5" x="13" y="23" width="185" height="80" rx="5"></rect>
        <path d="M15,100 L15,73.6328125 L35.5078125,73.6328125 C41.3672168,73.6328125 44.296875,76.328098 44.296875,81.71875 C44.296875,87.0703393 41.3672168,89.7460938 35.5078125,89.7460938 L20.859375,89.7460938 L20.859375,100 L15,100 Z M38.4375,83.8867188 L38.4375,79.4921875 L20.859375,79.4921875 L20.859375,83.8867188 L38.4375,83.8867188 Z M47.2265625,73.6328125 L47.2265625,91.2109375 C47.2265625,97.0703418 50.1562207,100 56.015625,100 L67.734375,100 C73.5937793,100 76.5234375,97.0703418 76.5234375,91.2109375 L76.5234375,73.6328125 L70.6640625,73.6328125 L70.6640625,91.2109375 C70.6640625,93.1640723 69.6875098,94.140625 67.734375,94.140625 L56.015625,94.140625 C54.0624902,94.140625 53.0859375,93.1640723 53.0859375,91.2109375 L53.0859375,73.6328125 L47.2265625,73.6328125 Z M79.453125,73.6328125 L79.453125,91.2109375 C79.453125,97.0703418 82.3827832,100 88.2421875,100 L108.75,100 L108.75,94.140625 L88.2421875,94.140625 C86.2890527,94.140625 85.3125,93.1640723 85.3125,91.2109375 L85.3125,73.6328125 L79.453125,73.6328125 Z M111.679688,100 L132.1875,100 C138.046904,100 140.976562,97.31448 140.976562,91.9433594 C140.976562,86.5722388 138.046904,83.8867188 132.1875,83.8867188 L117.539062,83.8867188 L117.539062,79.4921875 L140.976562,79.4921875 L140.976562,73.6328125 L120.46875,73.6328125 C114.609346,73.6328125 111.679688,76.3573946 111.679688,81.8066406 C111.679688,87.0996358 114.609346,89.7460938 120.46875,89.7460938 L135.117188,89.7460938 L135.117188,94.140625 L111.679688,94.140625 L111.679688,100 Z M173.203125,100 L152.695312,100 C146.835908,100 143.90625,97.0703418 143.90625,91.2109375 L143.90625,73.6328125 L173.203125,73.6328125 L173.203125,79.4921875 L149.765625,79.4921875 L149.765625,83.8867188 L173.203125,83.8867188 L173.203125,89.7460938 L149.765625,89.7460938 L149.765625,91.2109375 C149.765625,93.1640723 150.742178,94.140625 152.695312,94.140625 L173.203125,94.140625 L173.203125,100 Z" id="PULSE" fill="#C63933" fill-rule="nonzero"></path>
        <rect id="Rectangle" fill="#1A1A1A" x="162" y="60" width="32" height="40" rx="5"></rect>
        <path d="M170.749023,69 C169.674799,69 169.137695,68.462896 169.137695,67.3886719 L169.137695,65.7773438 C169.137695,64.7031196 169.674799,64.1660156 170.749023,64.1660156 L172.897461,64.1660156 C173.971685,64.1660156 174.508789,64.7031196 174.508789,65.7773438 L174.508789,67.3886719 C174.508789,68.462896 174.061202,69 173.166016,69 L170.749023,69 Z M170.211914,67.3886719 C170.211914,67.7467466 170.390949,67.9257812 170.749023,67.9257812 L172.897461,67.9257812 C173.255536,67.9257812 173.43457,67.7467466 173.43457,67.3886719 L173.43457,65.7773438 C173.43457,65.419269 173.255536,65.2402344 172.897461,65.2402344 L170.749023,65.2402344 C170.390949,65.2402344 170.211914,65.419269 170.211914,65.7773438 L170.211914,67.3886719 Z M175.045898,64.1660156 L175.045898,67.3886719 C175.045898,68.462896 175.583002,69 176.657227,69 L178.805664,69 C179.879888,69 180.416992,68.462896 180.416992,67.3886719 L180.416992,64.1660156 L179.342773,64.1660156 L179.342773,67.3886719 C179.342773,67.7467466 179.163739,67.9257812 178.805664,67.9257812 L176.657227,67.9257812 C176.299152,67.9257812 176.120117,67.7467466 176.120117,67.3886719 L176.120117,64.1660156 L175.045898,64.1660156 Z M180.954102,64.1660156 L186.325195,64.1660156 L186.325195,65.2402344 L184.176758,65.2402344 L184.176758,69 L183.102539,69 L183.102539,65.2402344 L180.954102,65.2402344 L180.954102,64.1660156 Z" id="OUT" fill="#F0433F" fill-rule="nonzero"></path>
        <path d="M152.006836,51.1660156 L152.006836,56 L155.766602,56 C156.840826,56 157.37793,55.462896 157.37793,54.3886719 L157.37793,51.1660156 L156.303711,51.1660156 L156.303711,54.3886719 C156.303711,54.7467466 156.124676,54.9257812 155.766602,54.9257812 L153.081055,54.9257812 L153.081055,51.1660156 L152.006836,51.1660156 Z M159.526367,56 C158.452143,56 157.915039,55.462896 157.915039,54.3886719 L157.915039,52.7773438 C157.915039,51.7031196 158.452143,51.1660156 159.526367,51.1660156 L161.674805,51.1660156 C162.749029,51.1660156 163.286133,51.7031196 163.286133,52.7773438 L163.286133,54.3886719 C163.286133,55.462896 162.838546,56 161.943359,56 L159.526367,56 Z M158.989258,54.3886719 C158.989258,54.7467466 159.168292,54.9257812 159.526367,54.9257812 L161.674805,54.9257812 C162.032879,54.9257812 162.211914,54.7467466 162.211914,54.3886719 L162.211914,52.7773438 C162.211914,52.419269 162.032879,52.2402344 161.674805,52.2402344 L159.526367,52.2402344 C159.168292,52.2402344 158.989258,52.419269 158.989258,52.7773438 L158.989258,54.3886719 Z M163.823242,51.1660156 L163.823242,54.3886719 C163.823242,55.462896 164.360346,56 165.43457,56 L169.194336,56 L169.194336,54.9257812 L165.43457,54.9257812 C165.076496,54.9257812 164.897461,54.7467466 164.897461,54.3886719 L164.897461,51.1660156 L163.823242,51.1660156 Z M169.731445,51.1660156 L169.731445,54.3886719 C169.731445,55.462896 170.268549,56 171.342773,56 L173.491211,56 C174.565435,56 175.102539,55.462896 175.102539,54.3886719 L175.102539,51.1660156 L174.02832,51.1660156 L174.02832,54.3886719 C174.02832,54.7467466 173.849286,54.9257812 173.491211,54.9257812 L171.342773,54.9257812 C170.984699,54.9257812 170.805664,54.7467466 170.805664,54.3886719 L170.805664,51.1660156 L169.731445,51.1660156 Z M175.639648,56 L175.639648,51.1660156 L179.936523,51.1660156 C181.010748,51.1660156 181.547852,51.7031196 181.547852,52.7773438 L181.547852,56 L180.473633,56 L180.473633,52.7773438 C180.473633,52.419269 180.294598,52.2402344 179.936523,52.2402344 L179.130859,52.2402344 L179.130859,56 L178.056641,56 L178.056641,52.2402344 L176.713867,52.2402344 L176.713867,56 L175.639648,56 Z M187.456055,56 L183.696289,56 C182.622065,56 182.084961,55.462896 182.084961,54.3886719 L182.084961,51.1660156 L187.456055,51.1660156 L187.456055,52.2402344 L183.15918,52.2402344 L183.15918,53.0458984 L187.456055,53.0458984 L187.456055,54.1201172 L183.15918,54.1201172 L183.15918,54.3886719 C183.15918,54.7467466 183.338214,54.9257812 183.696289,54.9257812 L187.456055,54.9257812 L187.456055,56 Z" id="VOLUME" fill="#1D1D1D" fill-rule="nonzero"></path>
        <path d="M18.8408203,66.1660156 L18.8408203,71 L22.6005859,71 C23.6748101,71 24.2119141,70.462896 24.2119141,69.3886719 L24.2119141,66.1660156 L23.1376953,66.1660156 L23.1376953,69.3886719 C23.1376953,69.7467466 22.9586606,69.9257812 22.6005859,69.9257812 L19.9150391,69.9257812 L19.9150391,66.1660156 L18.8408203,66.1660156 Z M24.7490234,71 L25.8232422,66.1660156 L26.8974609,66.1660156 L25.8232422,71 L24.7490234,71 Z M29.0458984,71 C27.9716743,71 27.4345703,70.462896 27.4345703,69.3886719 L27.4345703,67.7773438 C27.4345703,66.7031196 27.9716743,66.1660156 29.0458984,66.1660156 L31.1943359,66.1660156 C32.2685601,66.1660156 32.8056641,66.7031196 32.8056641,67.7773438 L32.8056641,69.3886719 C32.8056641,70.462896 32.3580774,71 31.4628906,71 L29.0458984,71 Z M28.5087891,69.3886719 C28.5087891,69.7467466 28.6878237,69.9257812 29.0458984,69.9257812 L31.1943359,69.9257812 C31.5524106,69.9257812 31.7314453,69.7467466 31.7314453,69.3886719 L31.7314453,67.7773438 C31.7314453,67.419269 31.5524106,67.2402344 31.1943359,67.2402344 L29.0458984,67.2402344 C28.6878237,67.2402344 28.5087891,67.419269 28.5087891,67.7773438 L28.5087891,69.3886719 Z M38.7138672,71 L34.9541016,71 C33.8798774,71 33.3427734,70.462896 33.3427734,69.3886719 L33.3427734,67.7773438 C33.3427734,66.7031196 33.8798774,66.1660156 34.9541016,66.1660156 L38.7138672,66.1660156 L38.7138672,67.2402344 L34.9541016,67.2402344 C34.5960269,67.2402344 34.4169922,67.419269 34.4169922,67.7773438 L34.4169922,69.3886719 C34.4169922,69.7467466 34.5960269,69.9257812 34.9541016,69.9257812 L38.7138672,69.9257812 L38.7138672,71 Z M39.2509766,66.1660156 L44.6220703,66.1660156 L44.6220703,67.2402344 L42.4736328,67.2402344 L42.4736328,71 L41.3994141,71 L41.3994141,67.2402344 L39.2509766,67.2402344 L39.2509766,66.1660156 Z" id="V/OCT" fill="#1A1A1A" fill-rule="nonzero"></path>
        <path d="M27.238,59 L27.238,54.1 L26.076,54.1 L24.788,56.172 L23.5,54.1 L22.338,54.1 L22.338,59 L23.395,59 L23.395,55.822 L24.76,57.894 L24.788,57.894 L26.167,55.801 L26.167,59 L27.238,59 Z M33.405,56.55 L33.405,56.536 C33.405,55.143 32.32,54.016 30.808,54.016 C29.3541538,54.016 28.2821494,55.0709186 28.2018382,56.3904382 L28.197,56.564 C28.197,57.957 29.282,59.084 30.794,59.084 C32.306,59.084 33.405,57.943 33.405,56.55 Z M32.278,56.564 C32.278,57.404 31.676,58.09 30.808,58.09 C29.9882222,58.09 29.3932222,57.4656173 29.3296413,56.6886077 L29.324,56.536 C29.324,55.696 29.926,55.01 30.794,55.01 C31.6137778,55.01 32.2087778,55.6343827 32.2723587,56.4113923 L32.278,56.564 Z M38.879,56.55 L38.879,56.536 C38.879,55.157 37.815,54.1 36.275,54.1 L34.364,54.1 L34.364,59 L36.275,59 C37.815,59 38.879,57.929 38.879,56.55 Z M37.752,56.564 C37.752,57.432 37.157,58.027 36.275,58.027 L35.442,58.027 L35.442,55.073 L36.275,55.073 C37.1051176,55.073 37.6810069,55.6124602 37.7458862,56.3995834 L37.752,56.564 Z" id="MOD" fill="#1A1A1A" fill-rule="nonzero"></path>
    </g>
</svg>