<?xml version="1.0" encoding="UTF-8"?>
<svg width="240px" height="380px" viewBox="0 0 240 380" version="1.1" xmlns="http://www.w3.org/2000/svg" xmlns:xlink="http://www.w3.org/1999/xlink">
    <!-- Generator: Sketch 58 (84663) - https://sketch.com -->
    <title>AY_3_8910</title>
    <desc>Created with Sketch.</desc>
    <g id="AY_3_8910" stroke="none" stroke-width="1" fill="none" fill-rule="evenodd">
        <g id="bg">
            <g id="chip">
                <rect id="Background" fill="#404040" fill-rule="nonzero" x="0" y="0" width="240" height="380" rx="1"></rect>
                <path d="M236,365 C237.104569,365 238,365.895431 238,367 L238,373 C238,374.104569 237.104569,375 236,375 L4,375 C2.8954305,375 2,374.104569 2,373 L2,367 C2,365.895431 2.8954305,365 4,365 L236,365 Z M236,345 C237.104569,345 238,345.895431 238,347 L238,353 C238,354.104569 237.104569,355 236,355 L4,355 C2.8954305,355 2,354.104569 2,353 L2,347 C2,345.895431 2.8954305,345 4,345 L236,345 Z M236,325 C237.104569,325 238,325.895431 238,327 L238,333 C238,334.104569 237.104569,335 236,335 L4,335 C2.8954305,335 2,334.104569 2,333 L2,327 C2,325.895431 2.8954305,325 4,325 L236,325 Z M236,305 C237.104569,305 238,305.895431 238,307 L238,313 C238,314.104569 237.104569,315 236,315 L4,315 C2.8954305,315 2,314.104569 2,313 L2,307 C2,305.895431 2.8954305,305 4,305 L236,305 Z M236,285 C237.104569,285 238,285.895431 238,287 L238,293 C238,294.104569 237.104569,295 236,295 L4,295 C2.8954305,295 2,294.104569 2,293 L2,287 C2,285.895431 2.8954305,285 4,285 L236,285 Z M236,265 C237.104569,265 238,265.895431 238,267 L238,273 C238,274.104569 237.104569,275 236,275 L4,275 C2.8954305,275 2,274.104569 2,273 L2,267 C2,265.895431 2.8954305,265 4,265 L236,265 Z M236,245 C237.104569,245 238,245.895431 238,247 L238,253 C238,254.104569 237.104569,255 236,255 L4,255 C2.8954305,255 2,254.104569 2,253 L2,247 C2,245.895431 2.8954305,245 4,245 L236,245 Z M236,225 C237.104569,225 238,225.895431 238,227 L238,233 C238,234.104569 237.104569,235 236,235 L4,235 C2.8954305,235 2,234.104569 2,233 L2,227 C2,225.895431 2.8954305,225 4,225 L236,225 Z M236,205 C237.104569,205 238,205.895431 238,207 L238,213 C238,214.104569 237.104569,215 236,215 L4,215 C2.8954305,215 2,214.104569 2,213 L2,207 C2,205.895431 2.8954305,205 4,205 L236,205 Z M236,185 C237.104569,185 238,185.895431 238,187 L238,193 C238,194.104569 237.104569,195 236,195 L4,195 C2.8954305,195 2,194.104569 2,193 L2,187 C2,185.895431 2.8954305,185 4,185 L236,185 Z M236,165 C237.104569,165 238,165.895431 238,167 L238,173 C238,174.104569 237.104569,175 236,175 L4,175 C2.8954305,175 2,174.104569 2,173 L2,167 C2,165.895431 2.8954305,165 4,165 L236,165 Z M236,145 C237.104569,145 238,145.895431 238,147 L238,153 C238,154.104569 237.104569,155 236,155 L4,155 C2.8954305,155 2,154.104569 2,153 L2,147 C2,145.895431 2.8954305,145 4,145 L236,145 Z M236,125 C237.104569,125 238,125.895431 238,127 L238,133 C238,134.104569 237.104569,135 236,135 L4,135 C2.8954305,135 2,134.104569 2,133 L2,127 C2,125.895431 2.8954305,125 4,125 L236,125 Z M236,105 C237.104569,105 238,105.895431 238,107 L238,113 C238,114.104569 237.104569,115 236,115 L4,115 C2.8954305,115 2,114.104569 2,113 L2,107 C2,105.895431 2.8954305,105 4,105 L236,105 Z M236,85 C237.104569,85 238,85.8954305 238,87 L238,93 C238,94.1045695 237.104569,95 236,95 L4,95 C2.8954305,95 2,94.1045695 2,93 L2,87 C2,85.8954305 2.8954305,85 4,85 L236,85 Z M236,65 C237.104569,65 238,65.8954305 238,67 L238,73 C238,74.1045695 237.104569,75 236,75 L4,75 C2.8954305,75 2,74.1045695 2,73 L2,67 C2,65.8954305 2.8954305,65 4,65 L236,65 Z M236,45 C237.104569,45 238,45.8954305 238,47 L238,53 C238,54.1045695 237.104569,55 236,55 L4,55 C2.8954305,55 2,54.1045695 2,53 L2,47 C2,45.8954305 2.8954305,45 4,45 L236,45 Z M236,25 C237.104569,25 238,25.8954305 238,27 L238,33 C238,34.1045695 237.104569,35 236,35 L4,35 C2.8954305,35 2,34.1045695 2,33 L2,27 C2,25.8954305 2.8954305,25 4,25 L236,25 Z M236,5 C237.104569,5 238,5.8954305 238,7 L238,13 C238,14.1045695 237.104569,15 236,15 L4,15 C2.8954305,15 2,14.1045695 2,13 L2,7 C2,5.8954305 2.8954305,5 4,5 L236,5 Z" id="leads" fill="#E0D9C5"></path>
                <rect id="cover" fill="#1D1D1D" x="5" y="0" width="230" height="380" rx="2"></rect>
            </g>
            <g id="Logo/Panel/DarkMode" transform="translate(89.000000, 364.000000)" fill="#FFFFFF" fill-rule="nonzero">
                <g id="Logo/Print/DarkMode">
                    <path d="M1.95775432,2.29858118 L3.38562168,2.29858118 L3.38562168,4.99672234 L6.06699634,2.29858118 L7.94254488,2.29858118 L5.09623504,4.99672234 L8.08863032,8.85057471 L6.22250665,8.85057471 L4.0783494,5.98796695 L3.38562168,6.65916846 L3.38562168,8.85057471 L1.95775432,8.85057471 L1.95775432,2.29858118 Z M11.6276679,6.49470187 C11.5428437,6.54507927 11.4572353,6.5858251 11.3708403,6.61694055 C11.2844452,6.64805601 11.1658502,6.6769485 11.0150515,6.70361889 L10.7134558,6.75695941 C10.4307084,6.80437344 10.2280757,6.86215842 10.1055519,6.93031609 C9.89820375,7.04588779 9.79453125,7.2251694 9.79453125,7.46816631 C9.79453125,7.68449282 9.85814847,7.84080861 9.98538481,7.93711835 C10.1126211,8.0334281 10.2673445,8.08158226 10.4495595,8.08158226 C10.7385902,8.08158226 11.00484,8.00157228 11.248317,7.84154993 C11.4917939,7.68152758 11.618243,7.38963933 11.6276679,6.96587644 L11.6276679,6.49470187 Z M10.8124169,5.90351114 C11.0606051,5.87387737 11.2381062,5.83683571 11.3449219,5.79238506 C11.5365618,5.71533726 11.6323803,5.59532229 11.6323803,5.43233657 C11.6323803,5.23379031 11.5593383,5.09673619 11.4132522,5.02117008 C11.267166,4.94560397 11.0527524,4.90782148 10.770005,4.90782148 C10.4526995,4.90782148 10.2280758,4.98190479 10.096127,5.13007364 C10.0018779,5.23971858 9.93904603,5.3878852 9.90762965,5.57457795 L8.61171044,5.57457795 C8.63998518,5.15081505 8.76564882,4.80262349 8.98870512,4.52999282 C9.34371022,4.10326654 9.95317886,3.88990661 10.8171293,3.88990661 C11.3794825,3.88990661 11.8789955,3.99510491 12.3156832,4.20550467 C12.7523709,4.41590443 12.9707114,4.81299097 12.9707114,5.39677622 L12.9707114,7.61929777 C12.9707114,7.77339337 12.973853,7.96008331 12.9801363,8.1793732 C12.9895612,8.34532231 13.0162647,8.45792894 13.0602477,8.51719648 C13.1042306,8.57646402 13.170204,8.625359 13.2581699,8.6638829 L13.2581699,8.85057471 L11.7973155,8.85057471 C11.7564742,8.75278328 11.7281999,8.66091997 11.7124917,8.57498204 C11.6967835,8.48904411 11.6842171,8.39125414 11.6747922,8.2816092 C11.4894356,8.47126532 11.2758074,8.63276693 11.0339013,8.76611889 C10.7448706,8.92317787 10.4181451,9.00170618 10.0537151,9.00170618 C9.58875266,9.00170618 9.20469317,8.87650538 8.9015251,8.62610004 C8.59835703,8.37569469 8.44677527,8.02083563 8.44677527,7.56151221 C8.44677527,6.96587346 8.69024856,6.53470859 9.17720246,6.26800467 C9.44424169,6.1227992 9.83694056,6.01908257 10.3553108,5.95685165 L10.8124169,5.90351114 Z M15.5012882,4.00547773 L15.5012882,6.92587105 C15.5012882,7.2014651 15.5358457,7.40889837 15.6049618,7.54817708 C15.7274857,7.79413736 15.9678174,7.91711566 16.3259641,7.91711566 C16.7846433,7.91711566 17.0988023,7.74227905 17.2684508,7.39260057 C17.3564167,7.20294445 17.4003989,6.95254286 17.4003989,6.64138829 L17.4003989,4.00547773 L18.7622922,4.00547773 L18.7622922,8.85057471 L17.4569481,8.85057471 L17.4569481,8.16603807 L17.4405489,8.18737424 C17.4238355,8.21019205 17.3978858,8.24753027 17.3626995,8.29938937 C17.3124333,8.37347379 17.252743,8.4386671 17.183627,8.49497126 C16.9731372,8.67277388 16.7697192,8.79427051 16.5733669,8.8594648 C16.3770145,8.92465909 16.1468929,8.95725575 15.8829953,8.95725575 C15.1227189,8.95725575 14.6106396,8.69944583 14.346742,8.18381825 C14.199085,7.89933407 14.1252576,7.48002253 14.1252576,6.92587105 L14.1252576,4.00547773 L15.5012882,4.00547773 Z M19.5304189,4.95227191 L19.5304189,4.04992816 L20.2467088,4.04992816 L20.2467088,2.69863506 L21.575615,2.69863506 L21.575615,4.04992816 L22.4097158,4.04992816 L22.4097158,4.95227191 L21.575615,4.95227191 L21.575615,7.51261674 C21.575615,7.71116299 21.6023185,7.83488212 21.6557264,7.88377784 C21.7091342,7.93267356 21.872497,7.95712105 22.1458195,7.95712105 C22.1866608,7.95712105 22.2298577,7.95638022 22.2754114,7.95489853 C22.3209652,7.95341684 22.3657328,7.95119434 22.4097158,7.94823096 L22.4097158,8.89502514 L21.7735372,8.91725036 C21.1389263,8.937994 20.7053868,8.83427736 20.4729056,8.60609734 C20.322107,8.46089187 20.2467088,8.23716028 20.2467088,7.93489583 L20.2467088,4.95227191 L19.5304189,4.95227191 Z M25.2984375,4.92115661 C24.9874153,4.92115661 24.7462982,5.01301991 24.575079,5.19674928 C24.4038597,5.38047865 24.2962602,5.62939857 24.2522773,5.94351652 L26.3398853,5.94351652 C26.3178938,5.60865493 26.2102944,5.35454918 26.0170836,5.18119163 C25.8238729,5.00783408 25.5843266,4.92115661 25.2984375,4.92115661 Z M25.2984375,3.87657148 C25.7257003,3.87657148 26.1105452,3.95213646 26.4529837,4.10326868 C26.7954223,4.2544009 27.0781654,4.49294916 27.3012217,4.81892062 C27.5022866,5.10636818 27.6326626,5.43974307 27.6923537,5.81905532 C27.7269117,6.04130858 27.7410489,6.36134849 27.7347656,6.77918463 L24.2192902,6.77918463 C24.2381401,7.26517844 24.399932,7.60596167 24.7046709,7.80154454 C24.8900275,7.92304299 25.1130805,7.98379131 25.3738364,7.98379131 C25.6503006,7.98379131 25.8749243,7.909708 26.0477144,7.76153915 C26.1419636,7.68152798 26.2252157,7.57040301 26.2974734,7.42816092 L27.6687916,7.42816092 C27.6342335,7.71560848 27.4755832,8.00749672 27.1928358,8.30383441 C26.7530064,8.77501134 26.1372546,9.01059626 25.3455618,9.01059626 C24.6921011,9.01059626 24.1156192,8.81205299 23.6160987,8.41496049 C23.1165783,8.01786799 22.8668218,7.37186151 22.8668218,6.4769217 C22.8668218,5.63828604 23.092231,4.9952429 23.543056,4.54777299 C23.9938811,4.10030308 24.5790024,3.87657148 25.2984375,3.87657148 Z M31.4858627,3.88990661 C32.0167995,3.88990661 32.4511245,4.02103407 32.7888506,4.28329292 C33.1265767,4.54555178 33.2954372,4.98042081 33.2954372,5.58791307 L33.2954372,8.85057471 L31.9194066,8.85057471 L31.9194066,5.90351114 C31.9194066,5.64866072 31.8832783,5.45308078 31.8110206,5.31676545 C31.6790718,5.06784179 31.4277445,4.94338182 31.0570313,4.94338182 C30.6014937,4.94338182 30.2889054,5.12562677 30.119257,5.49012213 C30.0312911,5.68274162 29.9873088,5.92869822 29.9873088,6.22799928 L29.9873088,8.85057471 L28.6489777,8.85057471 L28.6489777,4.01436782 L29.9448969,4.01436782 L29.9448969,4.72112967 C30.117687,4.47220601 30.2810498,4.2929244 30.43499,4.18327945 C30.7114542,3.98769658 31.0617416,3.88990661 31.4858627,3.88990661 Z M35.9391124,3.42762213 L34.5960688,3.42762213 L34.5960688,2.25857579 L35.9391124,2.25857579 L35.9391124,3.42762213 Z M33.9504654,10.7930585 L33.9504654,9.77958872 L34.0978762,9.79004152 L34.0978762,9.79004152 L34.1106882,9.79070133 C34.1421045,9.79218302 34.1703789,9.79292385 34.195512,9.79292385 C34.3274608,9.79292385 34.4272063,9.76254969 34.4947515,9.70180047 C34.5622967,9.64105124 34.5960688,9.52325878 34.5960688,9.34841954 L34.5960688,4.02770295 L35.9391124,4.02770295 L35.9391124,9.37064476 C35.9391124,9.85960194 35.8370107,10.2211285 35.6328042,10.4552353 C35.435185,10.6817902 35.0536827,10.7987202 34.4882863,10.8060283 L34.4311336,10.8063937 C34.4077958,10.8063937 34.3780467,10.8059099 34.341886,10.8049422 L34.0479841,10.7955986 C34.0170809,10.7947519 33.9845746,10.7939052 33.9504654,10.7930585 Z M40.0483544,6.49470187 C39.9635302,6.54507927 39.8779218,6.5858251 39.7915268,6.61694055 C39.7051317,6.64805601 39.5865367,6.6769485 39.435738,6.70361889 L39.1341423,6.75695941 C38.8513949,6.80437344 38.6487622,6.86215842 38.5262384,6.93031609 C38.3188903,7.04588779 38.2152178,7.2251694 38.2152178,7.46816631 C38.2152178,7.68449282 38.278835,7.84080861 38.4060713,7.93711835 C38.5333077,8.0334281 38.688031,8.08158226 38.870246,8.08158226 C39.1592767,8.08158226 39.4255265,8.00157228 39.6690035,7.84154993 C39.9124804,7.68152758 40.0389295,7.38963933 40.0483544,6.96587644 L40.0483544,6.49470187 Z M39.2331034,5.90351114 C39.4812916,5.87387737 39.6587927,5.83683571 39.7656084,5.79238506 C39.9572483,5.71533726 40.0530668,5.59532229 40.0530668,5.43233657 C40.0530668,5.23379031 39.9800248,5.09673619 39.8339387,5.02117008 C39.6878525,4.94560397 39.4734389,4.90782148 39.1906915,4.90782148 C38.873386,4.90782148 38.6487623,4.98190479 38.5168135,5.13007364 C38.4225644,5.23971858 38.3597325,5.3878852 38.3283162,5.57457795 L37.0323969,5.57457795 C37.0606717,5.15081505 37.1863353,4.80262349 37.4093916,4.52999282 C37.7643967,4.10326654 38.3738654,3.88990661 39.2378158,3.88990661 C39.800169,3.88990661 40.299682,3.99510491 40.7363697,4.20550467 C41.1730574,4.41590443 41.3913979,4.81299097 41.3913979,5.39677622 L41.3913979,7.61929777 C41.3913979,7.77339337 41.3945395,7.96008331 41.4008228,8.1793732 C41.4102477,8.34532231 41.4369512,8.45792894 41.4809342,8.51719648 C41.5249171,8.57646402 41.5908905,8.625359 41.6788564,8.6638829 L41.6788564,8.85057471 L40.218002,8.85057471 C40.1771607,8.75278328 40.1488864,8.66091997 40.1331782,8.57498204 C40.11747,8.48904411 40.1049036,8.39125414 40.0954787,8.2816092 C39.9101221,8.47126532 39.6964939,8.63276693 39.4545878,8.76611889 C39.1655571,8.92317787 38.8388316,9.00170618 38.4744016,9.00170618 C38.0094392,9.00170618 37.6253797,8.87650538 37.3222116,8.62610004 C37.0190435,8.37569469 36.8674618,8.02083563 36.8674618,7.56151221 C36.8674618,6.96587346 37.1109351,6.53470859 37.597889,6.26800467 C37.8649282,6.1227992 38.2576271,6.01908257 38.7759973,5.95685165 L39.2331034,5.90351114 Z M44.1010472,3.43651221 L44.1010472,7.71264368 L45.4393783,7.71264368 C46.1242554,7.71264368 46.6017772,7.39408544 46.8719581,6.75695941 C47.0196151,6.40728094 47.0934425,5.99093273 47.0934425,5.5079023 C47.0934425,4.8411425 46.9827014,4.32922682 46.7612159,3.97213991 C46.5397304,3.61505299 46.0991223,3.43651221 45.4393783,3.43651221 L44.1010472,3.43651221 Z M45.6844249,2.29858118 C46.1148293,2.30450793 46.4729706,2.35192125 46.7588597,2.44082256 C47.2458136,2.59195478 47.6400833,2.86902636 47.9416805,3.27204562 C48.1835866,3.59801708 48.3485202,3.95065364 48.436486,4.32996588 C48.5244519,4.70927812 48.5684342,5.07080467 48.5684342,5.41455639 C48.5684342,6.2857892 48.3830803,7.02365897 48.012367,7.62818786 C47.5097049,8.4431165 46.733732,8.85057471 45.6844249,8.85057471 L42.6920296,8.85057471 L42.6920296,2.29858118 L45.6844249,2.29858118 Z M50.7125914,6.8280801 C50.7565744,7.12738117 50.8429681,7.35111276 50.9717753,7.49928161 C51.2073981,7.76894891 51.6110926,7.90378053 52.1828707,7.90378053 C52.5253092,7.90378053 52.80334,7.86822054 53.0169714,7.7970995 C53.4222427,7.66078416 53.6248753,7.40741924 53.6248753,7.03699713 C53.6248753,6.82067061 53.5243444,6.65324233 53.3232796,6.53470726 C53.132268,6.42491414 52.8377712,6.32715743 52.4397811,6.24143448 L51.6409408,6.07242277 C50.9183641,5.91832717 50.4188511,5.75089889 50.142387,5.5701329 C49.6742829,5.26786846 49.4402344,4.79521694 49.4402344,4.15216415 C49.4402344,3.56541553 49.6664289,3.07794734 50.1188248,2.68974497 C50.5712207,2.3015426 51.2356672,2.10744432 52.1121842,2.10744432 C52.8441858,2.10744432 53.468577,2.2904301 53.9853765,2.65640715 C54.502176,3.02238419 54.7731382,3.55356153 54.7982713,4.2499551 L53.403391,4.2499551 C53.3782579,3.85582597 53.1960456,3.57579106 52.8567487,3.40984195 C52.6305507,3.30019701 52.3493783,3.24537536 52.0132231,3.24537536 C51.6393681,3.24537536 51.340917,3.31649534 51.1178607,3.45873743 C50.8948044,3.60097952 50.7832779,3.79952279 50.7832779,4.0543732 C50.7832779,4.27783876 50.8834648,4.4472999 51.0838415,4.56276117 L51.1131483,4.57888829 C51.248867,4.65285418 51.5322436,4.73910853 51.9632861,4.83765375 L53.2148936,5.12118355 C53.7395472,5.23971862 54.1353876,5.39825691 54.4024269,5.59680316 C54.8171231,5.90499436 55.0244681,6.35097589 55.0244681,6.93476114 C55.0244681,7.53336327 54.7817802,8.03046228 54.2963971,8.4260731 C53.811014,8.82168391 53.1253618,9.01948635 52.2394199,9.01948635 C51.3346281,9.01948635 50.6230578,8.82464724 50.1046875,8.43496318 C49.5863172,8.04527912 49.327136,7.50965678 49.327136,6.8280801 L50.7125914,6.8280801 Z M60.0102227,4.38330639 C60.0102227,4.04251805 59.9151896,3.79952479 59.7251205,3.65431932 C59.5350514,3.50911386 59.2688016,3.43651221 58.926363,3.43651221 L57.5738946,3.43651221 L57.5738946,5.36566092 L58.926363,5.36566092 C59.2688016,5.36566092 59.5350514,5.28713261 59.7251205,5.13007364 C59.9151896,4.97301466 60.0102227,4.72409474 60.0102227,4.38330639 Z M61.447515,4.37441631 C61.447515,5.14785767 61.24017,5.69459251 60.8254737,6.01463721 C60.4107775,6.33468192 59.8185876,6.49470187 59.0488863,6.49470187 L57.5738946,6.49470187 L57.5738946,8.85057471 L56.13189,8.85057471 L56.13189,2.29858118 L59.1572723,2.29858118 C59.8547159,2.29858118 60.4107775,2.46749113 60.8254737,2.80531609 C61.24017,3.14314106 61.447515,3.66616923 61.447515,4.37441631 Z" id="KautenjaDSP"></path>
                </g>
            </g>
            <g id="tone3" transform="translate(13.000000, 245.000000)">
                <rect id="bg" fill="#717171" x="0" y="-2.84217094e-14" width="214" height="107" rx="2"></rect>
                <g id="waveart" transform="translate(78.000000, 14.000000)" stroke="#F0ECEB" stroke-width="5">
                    <polyline id="Path-2" points="2.33146835e-15 70.6684687 11.5976576 85.1799632 24.7212399 72.9279848 37.6615107 81.2016299 43.8820513 62.7031511 57.0551091 70.6684687 69.693516 60.3632629 73.820819 75.5668017 91 42.5"></polyline>
                    <polyline id="Path-3" points="17.5 21 30.9464957 21 30.9464957 0 42.1666667 0 42.1666667 21 50.6747692 21 50.6747692 0 61.9268267 0 61.9268267 21 70.2816068 21 70.2816068 0 81.6218298 0 81.6218298 21 91.5 21"></polyline>
                </g>
                <g id="Header" fill="#1D1D1D" fill-rule="nonzero">
                    <path d="M19.5703125,70.9257812 C19.5703125,74.3242357 20.117182,77.1367076 21.2109375,79.3632812 C23.2421977,83.4648643 26.933567,85.515625 32.2851562,85.515625 C35.5664227,85.515625 38.4277222,84.3925894 40.8691406,82.1464844 C43.3105591,79.9003794 44.53125,76.6679898 44.53125,72.4492188 C44.53125,66.8632533 42.2656477,63.1328219 37.734375,61.2578125 C35.1562371,60.2031197 31.0937777,59.6757812 25.546875,59.6757812 L25.546875,47.7226562 C30.9765896,47.6445309 34.7656143,47.1171924 36.9140625,46.140625 C40.6250186,44.4999918 42.4804688,41.1797125 42.4804688,36.1796875 C42.4804688,32.9374838 41.5332126,30.3007914 39.6386719,28.2695312 C37.7441312,26.2382711 35.0781422,25.2226562 31.640625,25.2226562 C27.6952928,25.2226562 24.7949312,26.4726438 22.9394531,28.9726562 C21.0839751,31.4726687 20.1953121,34.8124791 20.2734375,38.9921875 L4.6875,38.9921875 C4.84375078,34.7734164 5.5663998,30.7695502 6.85546875,26.9804688 C8.22266309,23.6601396 10.3710791,20.5937641 13.3007812,17.78125 C15.4882922,15.7890525 18.0859225,14.2656303 21.09375,13.2109375 C24.1015775,12.1562447 27.7929469,11.6289062 32.1679688,11.6289062 C40.2930094,11.6289062 46.8456782,13.7284946 51.8261719,17.9277344 C56.8066655,22.1269741 59.296875,27.7616834 59.296875,34.8320312 C59.296875,39.8320563 57.8125148,44.0507641 54.84375,47.4882812 C52.9687406,49.6367295 51.0156352,51.1015586 48.984375,51.8828125 C50.5078201,51.8828125 52.6952982,53.1913932 55.546875,55.8085937 C59.8047088,59.753926 61.9335938,65.1444971 61.9335938,71.9804688 C61.9335938,79.1680047 59.4433843,85.4863009 54.4628906,90.9355469 C49.482397,96.3847929 42.1094238,99.109375 32.34375,99.109375 C20.3124398,99.109375 11.9531484,95.183633 7.265625,87.3320312 C4.8046752,83.1523229 3.43750137,77.6836275 3.1640625,70.9257812 L19.5703125,70.9257812 Z" id="3"></path>
                </g>
                <g id="Out" transform="translate(154.000000, 74.000000)">
                    <rect id="Rectangle" stroke="#F0ECEB" fill="#1D1D1D" x="0" y="0" width="40" height="29"></rect>
                    <path d="M7.03369141,9.35546875 C7.39111507,9.35546875 7.67480364,9.22363413 7.88476562,8.95996094 C8.09472761,8.69628774 8.19970703,8.32129149 8.19970703,7.83496094 C8.19970703,7.35058352 8.09472761,6.97607554 7.88476562,6.71142578 C7.67480364,6.44677602 7.39111507,6.31445312 7.03369141,6.31445312 C6.67626774,6.31445312 6.39111435,6.44628774 6.17822266,6.70996094 C5.96533097,6.97363413 5.85888672,7.34863038 5.85888672,7.83496094 C5.85888672,8.32129149 5.96533097,8.69628774 6.17822266,8.95996094 C6.39111435,9.22363413 6.67626774,9.35546875 7.03369141,9.35546875 Z M9.10205078,7.83496094 C9.10205078,8.61035544 8.88427952,9.2040995 8.44873047,9.61621094 C8.12255696,9.95215012 7.65088199,10.1201172 7.03369141,10.1201172 C6.41650082,10.1201172 5.94482585,9.95215012 5.61865234,9.61621094 C5.18115016,9.2040995 4.96240234,8.61035544 4.96240234,7.83496094 C4.96240234,7.04394136 5.18115016,6.45019729 5.61865234,6.05371094 C5.94482585,5.71777176 6.41650082,5.54980469 7.03369141,5.54980469 C7.65088199,5.54980469 8.12255696,5.71777176 8.44873047,6.05371094 C8.88427952,6.45019729 9.10205078,7.04394136 9.10205078,7.83496094 Z M5.29052734,12.6816406 L6.20751953,12.6816406 L6.20751953,15.3359375 C6.20751953,15.632814 6.24267543,15.8496087 6.31298828,15.9863281 C6.42236383,16.2285168 6.6606427,16.3496094 7.02783203,16.3496094 C7.39306823,16.3496094 7.63037055,16.2285168 7.73974609,15.9863281 C7.81005895,15.8496087 7.84521484,15.632814 7.84521484,15.3359375 L7.84521484,12.6816406 L8.76220703,12.6816406 L8.76220703,15.3359375 C8.76220703,15.7949242 8.69091868,16.1523425 8.54833984,16.4082031 C8.28271352,16.8769555 7.77588265,17.1113281 7.02783203,17.1113281 C6.27978142,17.1113281 5.77197399,16.8769555 5.50439453,16.4082031 C5.36181569,16.1523425 5.29052734,15.7949242 5.29052734,15.3359375 L5.29052734,12.6816406 Z M8.76220703,19.6816406 L8.76220703,20.4462891 L7.47021484,20.4462891 L7.47021484,24 L6.56201172,24 L6.56201172,20.4462891 L5.26416016,20.4462891 L5.26416016,19.6816406 L8.76220703,19.6816406 Z" id="OUT" fill="#E1E1E1" fill-rule="nonzero"></path>
                </g>
                <g id="Level" transform="translate(169.000000, 1.000000)" fill="#F0ECEB" fill-rule="nonzero">
                    <path d="M10.109,8 L10.109,7.02 L7.666,7.02 L7.666,3.1 L6.588,3.1 L6.588,8 L10.109,8 Z M14.652,8 L14.652,7.041 L11.992,7.041 L11.992,6.012 L14.302,6.012 L14.302,5.053 L11.992,5.053 L11.992,4.059 L14.617,4.059 L14.617,3.1 L10.921,3.1 L10.921,8 L14.652,8 Z M20.105,3.1 L18.943,3.1 L17.662,6.551 L16.381,3.1 L15.191,3.1 L17.172,8.035 L18.124,8.035 L20.105,3.1 Z M24.592,8 L24.592,7.041 L21.932,7.041 L21.932,6.012 L24.242,6.012 L24.242,5.053 L21.932,5.053 L21.932,4.059 L24.557,4.059 L24.557,3.1 L20.861,3.1 L20.861,8 L24.592,8 Z M29.072,8 L25.551,8 L25.551,3.1 L26.629,3.1 L26.629,7.02 L29.072,7.02 L29.072,8 Z" id="LEVEL"></path>
                </g>
                <g id="Freq" transform="translate(34.000000, 7.000000)"></g>
                <g id="VOCT" transform="translate(3.000000, 65.000000)" fill="#F0ECEB" fill-rule="nonzero">
                    <path d="M7.78808594,0.961914062 L8.88183594,0.961914062 L7.16259766,6 L6.16796875,6 L4.46582031,0.961914062 L5.59033203,0.961914062 L6.68408203,4.78662109 L7.78808594,0.961914062 Z M10.5429688,0.808105469 L11.3530273,0.808105469 L9.39453125,6 L8.59130859,6 L10.5429688,0.808105469 Z M13.6806641,5.24804688 C14.0976583,5.24804688 14.4286283,5.09423982 14.673584,4.78662109 C14.9185396,4.47900237 15.0410156,4.04150674 15.0410156,3.47412109 C15.0410156,2.9090141 14.9185396,2.47208813 14.673584,2.16333008 C14.4286283,1.85457202 14.0976583,1.70019531 13.6806641,1.70019531 C13.2636698,1.70019531 12.9309908,1.85400237 12.6826172,2.16162109 C12.4342435,2.46923982 12.3100586,2.90673544 12.3100586,3.47412109 C12.3100586,4.04150674 12.4342435,4.47900237 12.6826172,4.78662109 C12.9309908,5.09423982 13.2636698,5.24804688 13.6806641,5.24804688 Z M16.09375,3.47412109 C16.09375,4.37874801 15.8396835,5.07144942 15.331543,5.55224609 C14.9510072,5.94417514 14.4007197,6.14013672 13.6806641,6.14013672 C12.9606084,6.14013672 12.4103209,5.94417514 12.0297852,5.55224609 C11.5193659,5.07144942 11.2641602,4.37874801 11.2641602,3.47412109 C11.2641602,2.55126492 11.5193659,1.85856351 12.0297852,1.39599609 C12.4103209,1.00406705 12.9606084,0.808105469 13.6806641,0.808105469 C14.4007197,0.808105469 14.9510072,1.00406705 15.331543,1.39599609 C15.8396835,1.85856351 16.09375,2.55126492 16.09375,3.47412109 Z M16.6782227,3.52197266 C16.6782227,2.64241097 16.9140601,1.96452061 17.3857422,1.48828125 C17.7959005,1.07356563 18.3177052,0.866210938 18.9511719,0.866210938 C19.7988324,0.866210938 20.4186178,1.14420295 20.8105469,1.70019531 C21.0270193,2.01237135 21.1432291,2.32568202 21.1591797,2.64013672 L20.1064453,2.64013672 C20.0380856,2.39859905 19.9503586,2.21630921 19.8432617,2.09326172 C19.6518545,1.87451062 19.3681659,1.76513672 18.9921875,1.76513672 C18.6093731,1.76513672 18.3074555,1.91951343 18.0864258,2.22827148 C17.865396,2.53702954 17.7548828,2.97395551 17.7548828,3.5390625 C17.7548828,4.10416949 17.8716622,4.52742372 18.1052246,4.80883789 C18.338787,5.09025206 18.6355776,5.23095703 18.9956055,5.23095703 C19.3647479,5.23095703 19.6461579,5.11019001 19.8398438,4.86865234 C19.9469406,4.73876888 20.0358069,4.54394661 20.1064453,4.28417969 L21.1489258,4.28417969 C21.0577795,4.83333608 20.8247903,5.2799462 20.4499512,5.62402344 C20.0751121,5.96810068 19.5948923,6.14013672 19.0092773,6.14013672 C18.2846643,6.14013672 17.7150086,5.90771717 17.300293,5.44287109 C16.8855774,4.97574636 16.6782227,4.33545329 16.6782227,3.52197266 Z M25.612793,0.961914062 L25.612793,1.85400391 L24.1054688,1.85400391 L24.1054688,6 L23.0458984,6 L23.0458984,1.85400391 L21.5317383,1.85400391 L21.5317383,0.961914062 L25.612793,0.961914062 Z" id="V/OCT"></path>
                </g>
                <g id="Mod" transform="translate(2.000000, 4.000000)" fill="#F0ECEB" fill-rule="nonzero">
                    <path d="M11.738,33 L11.738,28.1 L10.576,28.1 L9.288,30.172 L8,28.1 L6.838,28.1 L6.838,33 L7.895,33 L7.895,29.822 L9.26,31.894 L9.288,31.894 L10.667,29.801 L10.667,33 L11.738,33 Z M17.905,30.55 L17.905,30.536 C17.905,29.143 16.82,28.016 15.308,28.016 C13.8541538,28.016 12.7821494,29.0709186 12.7018382,30.3904382 L12.697,30.564 C12.697,31.957 13.782,33.084 15.294,33.084 C16.806,33.084 17.905,31.943 17.905,30.55 Z M16.778,30.564 C16.778,31.404 16.176,32.09 15.308,32.09 C14.4882222,32.09 13.8932222,31.4656173 13.8296413,30.6886077 L13.824,30.536 C13.824,29.696 14.426,29.01 15.294,29.01 C16.1137778,29.01 16.7087778,29.6343827 16.7723587,30.4113923 L16.778,30.564 Z M23.379,30.55 L23.379,30.536 C23.379,29.157 22.315,28.1 20.775,28.1 L18.864,28.1 L18.864,33 L20.775,33 C22.315,33 23.379,31.929 23.379,30.55 Z M22.252,30.564 C22.252,31.432 21.657,32.027 20.775,32.027 L19.942,32.027 L19.942,29.073 L20.775,29.073 C21.6051176,29.073 22.1810069,29.6124602 22.2458862,30.3995834 L22.252,30.564 Z" id="MOD"></path>
                </g>
            </g>
            <g id="tone2" transform="translate(13.000000, 134.000000)">
                <rect id="bg" fill="#717171" x="0" y="0" width="214" height="107" rx="2"></rect>
                <g id="waveart" transform="translate(78.000000, 15.000000)" stroke="#F0ECEB" stroke-width="5">
                    <polyline id="Path-2" points="2.33146835e-15 70.6684687 11.5976576 85.1799632 24.7212399 72.9279848 37.6615107 81.2016299 43.8820513 62.7031511 57.0551091 70.6684687 69.693516 60.3632629 73.820819 75.5668017 91 42.5"></polyline>
                    <polyline id="Path-3" points="17.5 21 30.9464957 21 30.9464957 0 42.1666667 0 42.1666667 21 50.6747692 21 50.6747692 0 61.9268267 0 61.9268267 21 70.2816068 21 70.2816068 0 81.6218298 0 81.6218298 21 91.5 21"></polyline>
                </g>
                <g id="Header" fill="#1D1D1D" fill-rule="nonzero">
                    <path d="M3.75,97 C3.90625078,90.9062195 5.21483145,85.3398689 7.67578125,80.3007812 C10.0089635,74.7546923 15.4505839,68.8903473 24.000801,62.7075773 L26.4565583,60.9401964 C33.0741997,56.1444411 37.4193713,52.6565933 39.4921875,50.4765625 C42.9687674,46.7656064 44.7070312,42.7031471 44.7070312,38.2890625 C44.7070312,34.6952945 43.7109475,31.7070432 41.71875,29.3242188 C39.7265525,26.9413943 36.8750186,25.75 33.1640625,25.75 C28.0859121,25.75 24.6289154,27.6445123 22.7929688,31.4335938 C21.738276,33.6211047 21.1132822,37.0976324 20.9179688,41.8632812 L4.6875,41.8632812 C4.96093887,34.6366826 6.26951953,28.7968973 8.61328125,24.34375 C13.0664285,15.8671451 20.9765057,11.6289062 32.34375,11.6289062 C41.3281699,11.6289062 48.4765359,14.1191157 53.7890625,19.0996094 C59.1015891,24.080103 61.7578125,30.671834 61.7578125,38.875 C61.7578125,45.1640939 59.8828313,50.7499756 56.1328125,55.6328125 C53.7538944,58.7669428 49.8967052,62.2477906 44.5611354,66.0754539 L37.3242188,71.21875 C33.1445104,74.1875148 30.2832108,76.3359309 28.7402344,77.6640625 C27.1972579,78.9921941 25.8984428,80.5351475 24.84375,82.2929688 L61.9335938,82.2929688 L61.9335938,97 L3.75,97 Z" id="2"></path>
                </g>
                <g id="Out" transform="translate(154.000000, 74.000000)">
                    <rect id="Rectangle" stroke="#F0ECEB" fill="#1D1D1D" x="0" y="0" width="40" height="29"></rect>
                    <path d="M7.03369141,9.35546875 C7.39111507,9.35546875 7.67480364,9.22363413 7.88476562,8.95996094 C8.09472761,8.69628774 8.19970703,8.32129149 8.19970703,7.83496094 C8.19970703,7.35058352 8.09472761,6.97607554 7.88476562,6.71142578 C7.67480364,6.44677602 7.39111507,6.31445312 7.03369141,6.31445312 C6.67626774,6.31445312 6.39111435,6.44628774 6.17822266,6.70996094 C5.96533097,6.97363413 5.85888672,7.34863038 5.85888672,7.83496094 C5.85888672,8.32129149 5.96533097,8.69628774 6.17822266,8.95996094 C6.39111435,9.22363413 6.67626774,9.35546875 7.03369141,9.35546875 Z M9.10205078,7.83496094 C9.10205078,8.61035544 8.88427952,9.2040995 8.44873047,9.61621094 C8.12255696,9.95215012 7.65088199,10.1201172 7.03369141,10.1201172 C6.41650082,10.1201172 5.94482585,9.95215012 5.61865234,9.61621094 C5.18115016,9.2040995 4.96240234,8.61035544 4.96240234,7.83496094 C4.96240234,7.04394136 5.18115016,6.45019729 5.61865234,6.05371094 C5.94482585,5.71777176 6.41650082,5.54980469 7.03369141,5.54980469 C7.65088199,5.54980469 8.12255696,5.71777176 8.44873047,6.05371094 C8.88427952,6.45019729 9.10205078,7.04394136 9.10205078,7.83496094 Z M5.29052734,12.6816406 L6.20751953,12.6816406 L6.20751953,15.3359375 C6.20751953,15.632814 6.24267543,15.8496087 6.31298828,15.9863281 C6.42236383,16.2285168 6.6606427,16.3496094 7.02783203,16.3496094 C7.39306823,16.3496094 7.63037055,16.2285168 7.73974609,15.9863281 C7.81005895,15.8496087 7.84521484,15.632814 7.84521484,15.3359375 L7.84521484,12.6816406 L8.76220703,12.6816406 L8.76220703,15.3359375 C8.76220703,15.7949242 8.69091868,16.1523425 8.54833984,16.4082031 C8.28271352,16.8769555 7.77588265,17.1113281 7.02783203,17.1113281 C6.27978142,17.1113281 5.77197399,16.8769555 5.50439453,16.4082031 C5.36181569,16.1523425 5.29052734,15.7949242 5.29052734,15.3359375 L5.29052734,12.6816406 Z M8.76220703,19.6816406 L8.76220703,20.4462891 L7.47021484,20.4462891 L7.47021484,24 L6.56201172,24 L6.56201172,20.4462891 L5.26416016,20.4462891 L5.26416016,19.6816406 L8.76220703,19.6816406 Z" id="OUT" fill="#E1E1E1" fill-rule="nonzero"></path>
                </g>
                <g id="Level" transform="translate(169.000000, 2.000000)" fill="#F0ECEB" fill-rule="nonzero">
                    <path d="M10.109,7 L10.109,6.02 L7.666,6.02 L7.666,2.1 L6.588,2.1 L6.588,7 L10.109,7 Z M14.652,7 L14.652,6.041 L11.992,6.041 L11.992,5.012 L14.302,5.012 L14.302,4.053 L11.992,4.053 L11.992,3.059 L14.617,3.059 L14.617,2.1 L10.921,2.1 L10.921,7 L14.652,7 Z M20.105,2.1 L18.943,2.1 L17.662,5.551 L16.381,2.1 L15.191,2.1 L17.172,7.035 L18.124,7.035 L20.105,2.1 Z M24.592,7 L24.592,6.041 L21.932,6.041 L21.932,5.012 L24.242,5.012 L24.242,4.053 L21.932,4.053 L21.932,3.059 L24.557,3.059 L24.557,2.1 L20.861,2.1 L20.861,7 L24.592,7 Z M29.072,7 L25.551,7 L25.551,2.1 L26.629,2.1 L26.629,6.02 L29.072,6.02 L29.072,7 Z" id="LEVEL"></path>
                </g>
                <g id="Freq" transform="translate(34.000000, 7.000000)"></g>
                <g id="VOCT" transform="translate(3.000000, 65.000000)" fill="#F0ECEB" fill-rule="nonzero">
                    <path d="M7.78808594,0.961914062 L8.88183594,0.961914062 L7.16259766,6 L6.16796875,6 L4.46582031,0.961914062 L5.59033203,0.961914062 L6.68408203,4.78662109 L7.78808594,0.961914062 Z M10.5429688,0.808105469 L11.3530273,0.808105469 L9.39453125,6 L8.59130859,6 L10.5429688,0.808105469 Z M13.6806641,5.24804688 C14.0976583,5.24804688 14.4286283,5.09423982 14.673584,4.78662109 C14.9185396,4.47900237 15.0410156,4.04150674 15.0410156,3.47412109 C15.0410156,2.9090141 14.9185396,2.47208813 14.673584,2.16333008 C14.4286283,1.85457202 14.0976583,1.70019531 13.6806641,1.70019531 C13.2636698,1.70019531 12.9309908,1.85400237 12.6826172,2.16162109 C12.4342435,2.46923982 12.3100586,2.90673544 12.3100586,3.47412109 C12.3100586,4.04150674 12.4342435,4.47900237 12.6826172,4.78662109 C12.9309908,5.09423982 13.2636698,5.24804688 13.6806641,5.24804688 Z M16.09375,3.47412109 C16.09375,4.37874801 15.8396835,5.07144942 15.331543,5.55224609 C14.9510072,5.94417514 14.4007197,6.14013672 13.6806641,6.14013672 C12.9606084,6.14013672 12.4103209,5.94417514 12.0297852,5.55224609 C11.5193659,5.07144942 11.2641602,4.37874801 11.2641602,3.47412109 C11.2641602,2.55126492 11.5193659,1.85856351 12.0297852,1.39599609 C12.4103209,1.00406705 12.9606084,0.808105469 13.6806641,0.808105469 C14.4007197,0.808105469 14.9510072,1.00406705 15.331543,1.39599609 C15.8396835,1.85856351 16.09375,2.55126492 16.09375,3.47412109 Z M16.6782227,3.52197266 C16.6782227,2.64241097 16.9140601,1.96452061 17.3857422,1.48828125 C17.7959005,1.07356563 18.3177052,0.866210938 18.9511719,0.866210938 C19.7988324,0.866210938 20.4186178,1.14420295 20.8105469,1.70019531 C21.0270193,2.01237135 21.1432291,2.32568202 21.1591797,2.64013672 L20.1064453,2.64013672 C20.0380856,2.39859905 19.9503586,2.21630921 19.8432617,2.09326172 C19.6518545,1.87451062 19.3681659,1.76513672 18.9921875,1.76513672 C18.6093731,1.76513672 18.3074555,1.91951343 18.0864258,2.22827148 C17.865396,2.53702954 17.7548828,2.97395551 17.7548828,3.5390625 C17.7548828,4.10416949 17.8716622,4.52742372 18.1052246,4.80883789 C18.338787,5.09025206 18.6355776,5.23095703 18.9956055,5.23095703 C19.3647479,5.23095703 19.6461579,5.11019001 19.8398438,4.86865234 C19.9469406,4.73876888 20.0358069,4.54394661 20.1064453,4.28417969 L21.1489258,4.28417969 C21.0577795,4.83333608 20.8247903,5.2799462 20.4499512,5.62402344 C20.0751121,5.96810068 19.5948923,6.14013672 19.0092773,6.14013672 C18.2846643,6.14013672 17.7150086,5.90771717 17.300293,5.44287109 C16.8855774,4.97574636 16.6782227,4.33545329 16.6782227,3.52197266 Z M25.612793,0.961914062 L25.612793,1.85400391 L24.1054688,1.85400391 L24.1054688,6 L23.0458984,6 L23.0458984,1.85400391 L21.5317383,1.85400391 L21.5317383,0.961914062 L25.612793,0.961914062 Z" id="V/OCT"></path>
                </g>
                <g id="Mod" transform="translate(2.000000, 4.000000)" fill="#F0ECEB" fill-rule="nonzero">
                    <path d="M11.738,33 L11.738,28.1 L10.576,28.1 L9.288,30.172 L8,28.1 L6.838,28.1 L6.838,33 L7.895,33 L7.895,29.822 L9.26,31.894 L9.288,31.894 L10.667,29.801 L10.667,33 L11.738,33 Z M17.905,30.55 L17.905,30.536 C17.905,29.143 16.82,28.016 15.308,28.016 C13.8541538,28.016 12.7821494,29.0709186 12.7018382,30.3904382 L12.697,30.564 C12.697,31.957 13.782,33.084 15.294,33.084 C16.806,33.084 17.905,31.943 17.905,30.55 Z M16.778,30.564 C16.778,31.404 16.176,32.09 15.308,32.09 C14.4882222,32.09 13.8932222,31.4656173 13.8296413,30.6886077 L13.824,30.536 C13.824,29.696 14.426,29.01 15.294,29.01 C16.1137778,29.01 16.7087778,29.6343827 16.7723587,30.4113923 L16.778,30.564 Z M23.379,30.55 L23.379,30.536 C23.379,29.157 22.315,28.1 20.775,28.1 L18.864,28.1 L18.864,33 L20.775,33 C22.315,33 23.379,31.929 23.379,30.55 Z M22.252,30.564 C22.252,31.432 21.657,32.027 20.775,32.027 L19.942,32.027 L19.942,29.073 L20.775,29.073 C21.6051176,29.073 22.1810069,29.6124602 22.2458862,30.3995834 L22.252,30.564 Z" id="MOD"></path>
                </g>
            </g>
            <g id="tone1" transform="translate(13.000000, 23.000000)">
                <rect id="bg" fill="#717171" x="0" y="0" width="214" height="107" rx="2"></rect>
                <g id="waveart" transform="translate(78.000000, 14.000000)" stroke="#F0ECEB" stroke-width="5">
                    <polyline id="Path-2" points="2.33146835e-15 70.6684687 11.5976576 85.1799632 24.7212399 72.9279848 37.6615107 81.2016299 43.8820513 62.7031511 57.0551091 70.6684687 69.693516 60.3632629 73.820819 75.5668017 92 42.5"></polyline>
                    <polyline id="Path-3" points="17.5 21 30.9464957 21 30.9464957 0 42.1666667 0 42.1666667 21 50.6747692 21 50.6747692 0 61.9268267 0 61.9268267 21 70.2816068 21 70.2816068 0 81.6218298 0 81.6218298 21 91.5 21"></polyline>
                </g>
                <g id="Header" fill="#1D1D1D" fill-rule="nonzero">
                    <path d="M8.3203125,38.40625 L8.3203125,27.0390625 L9.85488893,26.9652342 C14.3162304,26.7332026 17.4960843,26.4062521 19.3945312,25.984375 C22.753923,25.2421838 25.4882707,23.7578236 27.5976562,21.53125 C29.042976,20.0078049 30.136715,17.9765752 30.8789062,15.4375 C31.3085959,13.9140549 31.5234375,12.7812537 31.5234375,12.0390625 L45.4101562,12.0390625 L45.4101562,97 L28.3007812,97 L28.3007812,38.40625 L8.3203125,38.40625 Z" id="1"></path>
                </g>
                <g id="Out" transform="translate(154.000000, 74.000000)">
                    <rect id="Rectangle" stroke="#F0ECEB" fill="#1D1D1D" x="0" y="0" width="40" height="29"></rect>
                    <path d="M7.03369141,9.35546875 C7.39111507,9.35546875 7.67480364,9.22363413 7.88476562,8.95996094 C8.09472761,8.69628774 8.19970703,8.32129149 8.19970703,7.83496094 C8.19970703,7.35058352 8.09472761,6.97607554 7.88476562,6.71142578 C7.67480364,6.44677602 7.39111507,6.31445312 7.03369141,6.31445312 C6.67626774,6.31445312 6.39111435,6.44628774 6.17822266,6.70996094 C5.96533097,6.97363413 5.85888672,7.34863038 5.85888672,7.83496094 C5.85888672,8.32129149 5.96533097,8.69628774 6.17822266,8.95996094 C6.39111435,9.22363413 6.67626774,9.35546875 7.03369141,9.35546875 Z M9.10205078,7.83496094 C9.10205078,8.61035544 8.88427952,9.2040995 8.44873047,9.61621094 C8.12255696,9.95215012 7.65088199,10.1201172 7.03369141,10.1201172 C6.41650082,10.1201172 5.94482585,9.95215012 5.61865234,9.61621094 C5.18115016,9.2040995 4.96240234,8.61035544 4.96240234,7.83496094 C4.96240234,7.04394136 5.18115016,6.45019729 5.61865234,6.05371094 C5.94482585,5.71777176 6.41650082,5.54980469 7.03369141,5.54980469 C7.65088199,5.54980469 8.12255696,5.71777176 8.44873047,6.05371094 C8.88427952,6.45019729 9.10205078,7.04394136 9.10205078,7.83496094 Z M5.29052734,12.6816406 L6.20751953,12.6816406 L6.20751953,15.3359375 C6.20751953,15.632814 6.24267543,15.8496087 6.31298828,15.9863281 C6.42236383,16.2285168 6.6606427,16.3496094 7.02783203,16.3496094 C7.39306823,16.3496094 7.63037055,16.2285168 7.73974609,15.9863281 C7.81005895,15.8496087 7.84521484,15.632814 7.84521484,15.3359375 L7.84521484,12.6816406 L8.76220703,12.6816406 L8.76220703,15.3359375 C8.76220703,15.7949242 8.69091868,16.1523425 8.54833984,16.4082031 C8.28271352,16.8769555 7.77588265,17.1113281 7.02783203,17.1113281 C6.27978142,17.1113281 5.77197399,16.8769555 5.50439453,16.4082031 C5.36181569,16.1523425 5.29052734,15.7949242 5.29052734,15.3359375 L5.29052734,12.6816406 Z M8.76220703,19.6816406 L8.76220703,20.4462891 L7.47021484,20.4462891 L7.47021484,24 L6.56201172,24 L6.56201172,20.4462891 L5.26416016,20.4462891 L5.26416016,19.6816406 L8.76220703,19.6816406 Z" id="OUT" fill="#E1E1E1" fill-rule="nonzero"></path>
                </g>
                <g id="Level" transform="translate(169.000000, 1.000000)" fill="#F0ECEB" fill-rule="nonzero">
                    <path d="M10.109,8 L10.109,7.02 L7.666,7.02 L7.666,3.1 L6.588,3.1 L6.588,8 L10.109,8 Z M14.652,8 L14.652,7.041 L11.992,7.041 L11.992,6.012 L14.302,6.012 L14.302,5.053 L11.992,5.053 L11.992,4.059 L14.617,4.059 L14.617,3.1 L10.921,3.1 L10.921,8 L14.652,8 Z M20.105,3.1 L18.943,3.1 L17.662,6.551 L16.381,3.1 L15.191,3.1 L17.172,8.035 L18.124,8.035 L20.105,3.1 Z M24.592,8 L24.592,7.041 L21.932,7.041 L21.932,6.012 L24.242,6.012 L24.242,5.053 L21.932,5.053 L21.932,4.059 L24.557,4.059 L24.557,3.1 L20.861,3.1 L20.861,8 L24.592,8 Z M29.072,8 L25.551,8 L25.551,3.1 L26.629,3.1 L26.629,7.02 L29.072,7.02 L29.072,8 Z" id="LEVEL"></path>
                </g>
                <g id="Freq" transform="translate(34.000000, 6.000000)"></g>
                <g id="VOCT" transform="translate(3.000000, 65.000000)" fill="#F0ECEB" fill-rule="nonzero">
                    <path d="M7.78808594,0.961914062 L8.88183594,0.961914062 L7.16259766,6 L6.16796875,6 L4.46582031,0.961914062 L5.59033203,0.961914062 L6.68408203,4.78662109 L7.78808594,0.961914062 Z M10.5429688,0.808105469 L11.3530273,0.808105469 L9.39453125,6 L8.59130859,6 L10.5429688,0.808105469 Z M13.6806641,5.24804688 C14.0976583,5.24804688 14.4286283,5.09423982 14.673584,4.78662109 C14.9185396,4.47900237 15.0410156,4.04150674 15.0410156,3.47412109 C15.0410156,2.9090141 14.9185396,2.47208813 14.673584,2.16333008 C14.4286283,1.85457202 14.0976583,1.70019531 13.6806641,1.70019531 C13.2636698,1.70019531 12.9309908,1.85400237 12.6826172,2.16162109 C12.4342435,2.46923982 12.3100586,2.90673544 12.3100586,3.47412109 C12.3100586,4.04150674 12.4342435,4.47900237 12.6826172,4.78662109 C12.9309908,5.09423982 13.2636698,5.24804688 13.6806641,5.24804688 Z M16.09375,3.47412109 C16.09375,4.37874801 15.8396835,5.07144942 15.331543,5.55224609 C14.9510072,5.94417514 14.4007197,6.14013672 13.6806641,6.14013672 C12.9606084,6.14013672 12.4103209,5.94417514 12.0297852,5.55224609 C11.5193659,5.07144942 11.2641602,4.37874801 11.2641602,3.47412109 C11.2641602,2.55126492 11.5193659,1.85856351 12.0297852,1.39599609 C12.4103209,1.00406705 12.9606084,0.808105469 13.6806641,0.808105469 C14.4007197,0.808105469 14.9510072,1.00406705 15.331543,1.39599609 C15.8396835,1.85856351 16.09375,2.55126492 16.09375,3.47412109 Z M16.6782227,3.52197266 C16.6782227,2.64241097 16.9140601,1.96452061 17.3857422,1.48828125 C17.7959005,1.07356563 18.3177052,0.866210938 18.9511719,0.866210938 C19.7988324,0.866210938 20.4186178,1.14420295 20.8105469,1.70019531 C21.0270193,2.01237135 21.1432291,2.32568202 21.1591797,2.64013672 L20.1064453,2.64013672 C20.0380856,2.39859905 19.9503586,2.21630921 19.8432617,2.09326172 C19.6518545,1.87451062 19.3681659,1.76513672 18.9921875,1.76513672 C18.6093731,1.76513672 18.3074555,1.91951343 18.0864258,2.22827148 C17.865396,2.53702954 17.7548828,2.97395551 17.7548828,3.5390625 C17.7548828,4.10416949 17.8716622,4.52742372 18.1052246,4.80883789 C18.338787,5.09025206 18.6355776,5.23095703 18.9956055,5.23095703 C19.3647479,5.23095703 19.6461579,5.11019001 19.8398438,4.86865234 C19.9469406,4.73876888 20.0358069,4.54394661 20.1064453,4.28417969 L21.1489258,4.28417969 C21.0577795,4.83333608 20.8247903,5.2799462 20.4499512,5.62402344 C20.0751121,5.96810068 19.5948923,6.14013672 19.0092773,6.14013672 C18.2846643,6.14013672 17.7150086,5.90771717 17.300293,5.44287109 C16.8855774,4.97574636 16.6782227,4.33545329 16.6782227,3.52197266 Z M25.612793,0.961914062 L25.612793,1.85400391 L24.1054688,1.85400391 L24.1054688,6 L23.0458984,6 L23.0458984,1.85400391 L21.5317383,1.85400391 L21.5317383,0.961914062 L25.612793,0.961914062 Z" id="V/OCT"></path>
                </g>
                <g id="Mod" transform="translate(2.000000, 4.000000)" fill="#F0ECEB" fill-rule="nonzero">
                    <path d="M11.738,33 L11.738,28.1 L10.576,28.1 L9.288,30.172 L8,28.1 L6.838,28.1 L6.838,33 L7.895,33 L7.895,29.822 L9.26,31.894 L9.288,31.894 L10.667,29.801 L10.667,33 L11.738,33 Z M17.905,30.55 L17.905,30.536 C17.905,29.143 16.82,28.016 15.308,28.016 C13.8541538,28.016 12.7821494,29.0709186 12.7018382,30.3904382 L12.697,30.564 C12.697,31.957 13.782,33.084 15.294,33.084 C16.806,33.084 17.905,31.943 17.905,30.55 Z M16.778,30.564 C16.778,31.404 16.176,32.09 15.308,32.09 C14.4882222,32.09 13.8932222,31.4656173 13.8296413,30.6886077 L13.824,30.536 C13.824,29.696 14.426,29.01 15.294,29.01 C16.1137778,29.01 16.7087778,29.6343827 16.7723587,30.4113923 L16.778,30.564 Z M23.379,30.55 L23.379,30.536 C23.379,29.157 22.315,28.1 20.775,28.1 L18.864,28.1 L18.864,33 L20.775,33 C22.315,33 23.379,31.929 23.379,30.55 Z M22.252,30.564 C22.252,31.432 21.657,32.027 20.775,32.027 L19.942,32.027 L19.942,29.073 L20.775,29.073 C21.6051176,29.073 22.1810069,29.6124602 22.2458862,30.3995834 L22.252,30.564 Z" id="MOD"></path>
                </g>
            </g>
            <path d="M88.032,17 L82.164,4.31 L81.264,4.31 L75.396,17 L76.368,17 L77.97,13.472 L85.404,13.472 L87.006,17 L88.032,17 Z M85.008,12.626 L78.366,12.626 L81.696,5.336 L85.008,12.626 Z M99.156,4.4 L98.04,4.4 L93.306,11.168 L88.59,4.4 L87.42,4.4 L92.82,12.014 L92.82,17 L93.756,17 L93.756,11.996 L99.156,4.4 Z M104.376,12.158 L104.376,11.15 L99.552,11.15 L99.552,12.158 L104.376,12.158 Z M113.682,5.282 L109.344,10.286 L109.578,10.808 L110.262,10.808 C112.53,10.808 114.186,11.78 114.186,13.562 C114.186,15.236 112.764,16.37 111.072,16.37 C109.416,16.37 108.156,15.632 107.148,14.354 L106.428,14.948 C107.454,16.28 109.002,17.216 111.054,17.216 C113.232,17.216 115.158,15.74 115.158,13.526 C115.158,11.204 113.088,10.088 110.694,9.944 L114.96,5.066 L114.96,4.4 L107.076,4.4 L107.076,5.282 L113.682,5.282 Z M122.52,12.158 L122.52,11.15 L117.696,11.15 L117.696,12.158 L122.52,12.158 Z M134.13,13.616 C134.13,12.122 132.924,11.006 131.34,10.484 C132.582,9.98 133.698,9.044 133.698,7.532 C133.698,5.552 131.628,4.22 129.45,4.22 C127.272,4.22 125.202,5.552 125.202,7.532 C125.202,9.044 126.318,9.98 127.56,10.484 C125.976,11.006 124.77,12.122 124.77,13.616 C124.77,15.722 126.804,17.18 129.45,17.18 C132.096,17.18 134.13,15.722 134.13,13.616 Z M132.726,7.532 C132.726,9.098 131.232,10.142 129.45,10.142 C127.668,10.142 126.174,9.098 126.174,7.532 C126.174,6.092 127.614,5.066 129.45,5.066 C131.286,5.066 132.726,6.092 132.726,7.532 Z M133.158,13.652 C133.158,15.092 131.772,16.334 129.45,16.334 C127.128,16.334 125.742,15.092 125.742,13.652 C125.742,12.068 127.398,10.934 129.45,10.934 C131.502,10.934 133.158,12.068 133.158,13.652 Z M145.434,10.394 C145.434,7.856 144.858,6.47 143.85,5.462 C143.094,4.706 141.996,4.184 140.646,4.184 C138.018,4.184 136.218,6.092 136.218,8.432 C136.218,10.61 138.036,12.302 140.574,12.302 C142.554,12.302 143.778,11.168 144.498,9.872 C144.642,13.652 142.86,16.37 140.322,16.37 C139.17,16.37 138.162,15.884 137.1,14.93 L136.506,15.65 C137.55,16.532 138.738,17.216 140.304,17.216 C143.238,17.216 145.434,14.372 145.434,10.394 Z M144.12,8.252 C144.12,9.854 142.752,11.474 140.61,11.474 C138.612,11.474 137.19,10.178 137.19,8.396 C137.19,6.632 138.468,5.03 140.538,5.03 C142.626,5.03 144.12,6.452 144.12,8.252 Z M147.126,5.372 L147.378,6.11 L149.808,5.282 L149.808,17 L150.726,17 L150.726,4.31 L150.006,4.31 L147.126,5.372 Z M164.226,10.682 C164.226,7.19 162.228,4.184 159.024,4.184 C155.82,4.184 153.786,7.226 153.786,10.718 C153.786,14.21 155.784,17.216 158.988,17.216 C162.192,17.216 164.226,14.174 164.226,10.682 Z M163.254,10.718 C163.254,13.67 161.634,16.37 159.024,16.37 C156.414,16.37 154.758,13.634 154.758,10.682 C154.758,7.73 156.378,5.03 158.988,5.03 C161.598,5.03 163.254,7.766 163.254,10.718 Z" id="AY-3-8910" fill="#B3B3B3" fill-rule="nonzero"></path>
        </g>
    </g>
</svg>