<?xml version="1.0" encoding="UTF-8"?>
<svg width="150px" height="380px" viewBox="0 0 150 380" version="1.1" xmlns="http://www.w3.org/2000/svg" xmlns:xlink="http://www.w3.org/1999/xlink">
    <!-- Generator: Sketch 61.2 (89653) - https://sketch.com -->
    <title>Blocks</title>
    <desc>Created with Sketch.</desc>
    <g id="Blocks" stroke="none" stroke-width="1" fill="none" fill-rule="evenodd">
        <g id="bg">
            <rect id="cover" fill="#E6E6E6" x="0" y="0" width="150" height="380" rx="2"></rect>
            <path d="M32,29 C34.7614237,29 37,31.2385763 37,34 L37,346 C37,348.761424 34.7614237,351 32,351 L12,351 C9.23857625,351 7,348.761424 7,346 L7,34 C7,31.2385763 9.23857625,29 12,29 L32,29 Z M67,29 C69.7614237,29 72,31.2385763 72,34 L72,346 C72,348.761424 69.7614237,351 67,351 L47,351 C44.2385763,351 42,348.761424 42,346 L42,34 C42,31.2385763 44.2385763,29 47,29 L67,29 Z M102,29 C104.761424,29 107,31.2385763 107,34 L107,346 C107,348.761424 104.761424,351 102,351 L82,351 C79.2385763,351 77,348.761424 77,346 L77,34 C77,31.2385763 79.2385763,29 82,29 L102,29 Z M137,29 C139.761424,29 142,31.2385763 142,34 L142,346 C142,348.761424 139.761424,351 137,351 L117,351 C114.238576,351 112,348.761424 112,346 L112,34 C112,31.2385763 114.238576,29 117,29 L137,29 Z" id="voice-lanes" fill="#898989"></path>
            <g id="Normal" transform="translate(36.000000, 78.000000)">
                <g fill="#000000">
                    <polygon id="Triangle" transform="translate(4.500000, 4.500000) rotate(-270.000000) translate(-4.500000, -4.500000) " points="4.5 0 9 9 0 9"></polygon>
                    <polygon id="Triangle-Copy" transform="translate(39.500000, 4.500000) rotate(-270.000000) translate(-39.500000, -4.500000) " points="39.5 0 44 9 35 9"></polygon>
                    <polygon id="Triangle-Copy-3" transform="translate(74.500000, 4.500000) rotate(-270.000000) translate(-74.500000, -4.500000) " points="74.5 0 79 9 70 9"></polygon>
                </g>
                <g id="Normal-Copy" transform="translate(0.000000, 28.000000)" fill="#000000">
                    <polygon id="Triangle" transform="translate(4.500000, 4.500000) rotate(-270.000000) translate(-4.500000, -4.500000) " points="4.5 0 9 9 0 9"></polygon>
                    <polygon id="Triangle-Copy" transform="translate(39.500000, 4.500000) rotate(-270.000000) translate(-39.500000, -4.500000) " points="39.5 0 44 9 35 9"></polygon>
                    <polygon id="Triangle-Copy-4" transform="translate(74.500000, 4.500000) rotate(-270.000000) translate(-74.500000, -4.500000) " points="74.5 0 79 9 70 9"></polygon>
                </g>
                <g id="Normal-Copy-2" transform="translate(0.000000, 139.000000)" fill="#000000">
                    <polygon id="Triangle" transform="translate(4.500000, 4.500000) rotate(-270.000000) translate(-4.500000, -4.500000) " points="4.5 0 9 9 0 9"></polygon>
                    <polygon id="Triangle-Copy" transform="translate(39.500000, 4.500000) rotate(-270.000000) translate(-39.500000, -4.500000) " points="39.5 0 44 9 35 9"></polygon>
                    <polygon id="Triangle-Copy-2" transform="translate(74.500000, 4.500000) rotate(-270.000000) translate(-74.500000, -4.500000) " points="74.5 0 79 9 70 9"></polygon>
                </g>
                <g id="Normal-Copy-4" transform="translate(0.000000, 254.000000)" stroke="#1D1D1D" stroke-width="2">
                    <polygon id="Triangle" transform="translate(4.500000, 4.500000) rotate(-270.000000) translate(-4.500000, -4.500000) " points="4.5 0 9 9 0 9"></polygon>
                    <polygon id="Triangle-Copy" transform="translate(39.500000, 4.500000) rotate(-270.000000) translate(-39.500000, -4.500000) " points="39.5 0 44 9 35 9"></polygon>
                    <polygon id="Triangle-Copy-2" transform="translate(74.500000, 4.500000) rotate(-270.000000) translate(-74.500000, -4.500000) " points="74.5 0 79 9 70 9"></polygon>
                </g>
            </g>
            <g id="Logo/Panel/LightMode" transform="translate(43.000000, 364.000000)" fill="#000000" fill-rule="nonzero">
                <g id="Logo/Print/LightMode" transform="translate(0.000000, -0.000000)">
                    <path d="M1.95775432,2.18314699 L3.38562168,2.18314699 L3.38562168,4.8949551 L6.06699634,2.18314699 L7.94254488,2.18314699 L5.09623504,4.8949551 L8.08863032,8.76832845 L6.22250665,8.76832845 L4.0783494,5.89122067 L3.38562168,6.56582203 L3.38562168,8.76832845 L1.95775432,8.76832845 L1.95775432,2.18314699 Z M11.6276679,6.40052236 C11.5428437,6.45115495 11.4572353,6.49210716 11.3708403,6.52338022 C11.2844452,6.55465329 11.1658502,6.58369213 11.0150515,6.61049762 L10.7134558,6.66410832 C10.4307084,6.71176252 10.2280757,6.7698402 10.1055519,6.83834311 C9.89820375,6.95450021 9.79453125,7.13468994 9.79453125,7.37891771 C9.79453125,7.59633998 9.85814847,7.75344755 9.98538481,7.85024514 C10.1126211,7.94704273 10.2673445,7.9954408 10.4495595,7.9954408 C10.7385902,7.9954408 11.00484,7.91502555 11.248317,7.75419263 C11.4917939,7.59335972 11.618243,7.29999297 11.6276679,6.87408358 L11.6276679,6.40052236 Z M10.8124169,5.80633706 C11.0606051,5.77655319 11.2381062,5.7393239 11.3449219,5.69464809 C11.5365618,5.61721002 11.6323803,5.49658715 11.6323803,5.33277584 C11.6323803,5.13322389 11.5593383,4.99547554 11.4132522,4.91952667 C11.267166,4.84357779 11.0527524,4.80560392 10.770005,4.80560392 C10.4526995,4.80560392 10.2280758,4.88006249 10.096127,5.02898185 C10.0018779,5.13918219 9.93904603,5.28809932 9.90762965,5.47573772 L8.61171044,5.47573772 C8.63998518,5.04982833 8.76564882,4.69987307 8.98870512,4.42586144 C9.34371022,3.99697366 9.95317886,3.78253299 10.8171293,3.78253299 C11.3794825,3.78253299 11.8789955,3.88826416 12.3156832,4.09972966 C12.7523709,4.31119516 12.9707114,4.71029307 12.9707114,5.29703537 L12.9707114,7.5308147 C12.9707114,7.68569084 12.973853,7.87332643 12.9801363,8.09372709 C12.9895612,8.26051678 13.0162647,8.3736938 13.0602477,8.43326155 C13.1042306,8.49282929 13.170204,8.54197195 13.2581699,8.58069098 L13.2581699,8.76832845 L11.7973155,8.76832845 C11.7564742,8.67004166 11.7281999,8.57771304 11.7124917,8.49133981 C11.6967835,8.40496658 11.6842171,8.30668127 11.6747922,8.19648094 C11.4894356,8.38709773 11.2758074,8.5494174 11.0339013,8.68344483 C10.7448706,8.84129936 10.4181451,8.92022544 10.0537151,8.92022544 C9.58875266,8.92022544 9.20469317,8.79439046 8.9015251,8.54271673 C8.59835703,8.291043 8.44677527,7.93438647 8.44677527,7.47273644 C8.44677527,6.87408058 8.69024856,6.44073173 9.17720246,6.17267687 C9.44424169,6.02673589 9.83694056,5.9224939 10.3553108,5.85994776 L10.8124169,5.80633706 Z M15.5012882,3.89868952 L15.5012882,6.83387555 C15.5012882,7.11086557 15.5358457,7.31934956 15.6049618,7.45933376 C15.7274857,7.70653991 15.9678174,7.83014113 16.3259641,7.83014113 C16.7846433,7.83014113 17.0988023,7.65441891 17.2684508,7.30296921 C17.3564167,7.11235242 17.4003989,6.86068247 17.4003989,6.5479518 L17.4003989,3.89868952 L18.7622922,3.89868952 L18.7622922,8.76832845 L17.4569481,8.76832845 L17.4569481,8.08032441 L17.4405489,8.10176866 C17.4238355,8.12470204 17.3978858,8.16222939 17.3626995,8.21435117 C17.3124333,8.28881086 17.252743,8.35433439 17.183627,8.41092375 C16.9731372,8.58962699 16.7697192,8.71173904 16.5733669,8.77726356 C16.3770145,8.84278808 16.1468929,8.87554985 15.8829953,8.87554985 C15.1227189,8.87554985 14.6106396,8.61643404 14.346742,8.09819465 C14.199085,7.81226946 14.1252576,7.39083398 14.1252576,6.83387555 L14.1252576,3.89868952 L15.5012882,3.89868952 Z M19.5304189,4.85027951 L19.5304189,3.9433651 L20.2467088,3.9433651 L20.2467088,2.58522727 L21.575615,2.58522727 L21.575615,3.9433651 L22.4097158,3.9433651 L22.4097158,4.85027951 L21.575615,4.85027951 L21.575615,7.42359329 C21.575615,7.62314524 21.6023185,7.74749105 21.6557264,7.79663444 C21.7091342,7.84577783 21.872497,7.87034916 22.1458195,7.87034916 C22.1866608,7.87034916 22.2298577,7.86960457 22.2754114,7.86811538 C22.3209652,7.86662618 22.3657328,7.86439243 22.4097158,7.86141404 L22.4097158,8.81300403 L21.7735372,8.83534183 C21.1389263,8.85619054 20.7053868,8.75194854 20.4729056,8.52261272 C20.322107,8.37667174 20.2467088,8.15180687 20.2467088,7.84801136 L20.2467088,4.85027951 L19.5304189,4.85027951 Z M25.2984375,4.8190066 C24.9874153,4.8190066 24.7462982,4.91133522 24.575079,5.09599523 C24.4038597,5.28065525 24.2962602,5.53083603 24.2522773,5.84654509 L26.3398853,5.84654509 C26.3178938,5.50998732 26.2102944,5.25459444 26.0170836,5.08035878 C25.8238729,4.90612312 25.5843266,4.8190066 25.2984375,4.8190066 Z M25.2984375,3.76913032 C25.7257003,3.76913032 26.1105452,3.84507805 26.4529837,3.99697581 C26.7954223,4.14887356 27.0781654,4.38863014 27.3012217,4.71625275 C27.5022866,5.00515632 27.6326626,5.34021987 27.6923537,5.72145345 C27.7269117,5.9448325 27.7410489,6.2664935 27.7347656,6.68644611 L24.2192902,6.68644611 C24.2381401,7.17490164 24.399932,7.51741104 24.7046709,7.7139846 C24.8900275,7.83609848 25.1130805,7.89715451 25.3738364,7.89715451 C25.6503006,7.89715451 25.8749243,7.82269594 26.0477144,7.67377658 C26.1419636,7.59336012 26.2252157,7.48167227 26.2974734,7.33870968 L27.6687916,7.33870968 C27.6342335,7.62761325 27.4755832,7.92098 27.1928358,8.21881873 C26.7530064,8.69238232 26.1372546,8.92916056 25.3455618,8.92916056 C24.6921011,8.92916056 24.1156192,8.7296116 23.6160987,8.3305077 C23.1165783,7.9314038 22.8668218,7.2821251 22.8668218,6.38265213 C22.8668218,5.53976851 23.092231,4.89346816 23.543056,4.44373167 C23.9938811,3.99399519 24.5790024,3.76913032 25.2984375,3.76913032 Z M31.4858627,3.78253299 C32.0167995,3.78253299 32.4511245,3.91432465 32.7888506,4.17791193 C33.1265767,4.44149921 33.2954372,4.87857099 33.2954372,5.4891404 L33.2954372,8.76832845 L31.9194066,8.76832845 L31.9194066,5.80633706 C31.9194066,5.55019575 31.8832783,5.35362514 31.8110206,5.21661932 C31.6790718,4.96643478 31.4277445,4.84134439 31.0570313,4.84134439 C30.6014937,4.84134439 30.2889054,5.02451246 30.119257,5.39085411 C30.0312911,5.58444928 29.9873088,5.83165172 29.9873088,6.13246884 L29.9873088,8.76832845 L28.6489777,8.76832845 L28.6489777,3.90762463 L29.9448969,3.90762463 L29.9448969,4.61796646 C30.117687,4.36778192 30.2810498,4.18759219 30.43499,4.07739186 C30.7114542,3.8808183 31.0617416,3.78253299 31.4858627,3.78253299 Z M35.9391124,3.31790689 L34.5960688,3.31790689 L34.5960688,2.14293897 L35.9391124,2.14293897 L35.9391124,3.31790689 Z M33.9504654,10.7206516 L33.9504654,9.7020482 L34.0978762,9.71255395 L34.0978762,9.71255395 L34.1106882,9.7132171 C34.1421045,9.71470629 34.1703789,9.71545088 34.195512,9.71545088 C34.3274608,9.71545088 34.4272063,9.68492287 34.4947515,9.62386593 C34.5622967,9.56280899 34.5960688,9.44441987 34.5960688,9.26869501 L34.5960688,3.92102731 L35.9391124,3.92102731 L35.9391124,9.29103281 C35.9391124,9.78246672 35.8370107,10.1458245 35.6328042,10.3811171 C35.435185,10.6088196 35.0536827,10.7263419 34.4882863,10.733687 L34.4311336,10.7340543 C34.4077958,10.7340543 34.3780467,10.733568 34.341886,10.7325955 L34.0479841,10.7232045 C34.0170809,10.7223535 33.9845746,10.7215025 33.9504654,10.7206516 Z M40.0483544,6.40052236 C39.9635302,6.45115495 39.8779218,6.49210716 39.7915268,6.52338022 C39.7051317,6.55465329 39.5865367,6.58369213 39.435738,6.61049762 L39.1341423,6.66410832 C38.8513949,6.71176252 38.6487622,6.7698402 38.5262384,6.83834311 C38.3188903,6.95450021 38.2152178,7.13468994 38.2152178,7.37891771 C38.2152178,7.59633998 38.278835,7.75344755 38.4060713,7.85024514 C38.5333077,7.94704273 38.688031,7.9954408 38.870246,7.9954408 C39.1592767,7.9954408 39.4255265,7.91502555 39.6690035,7.75419263 C39.9124804,7.59335972 40.0389295,7.29999297 40.0483544,6.87408358 L40.0483544,6.40052236 Z M39.2331034,5.80633706 C39.4812916,5.77655319 39.6587927,5.7393239 39.7656084,5.69464809 C39.9572483,5.61721002 40.0530668,5.49658715 40.0530668,5.33277584 C40.0530668,5.13322389 39.9800248,4.99547554 39.8339387,4.91952667 C39.6878525,4.84357779 39.4734389,4.80560392 39.1906915,4.80560392 C38.873386,4.80560392 38.6487623,4.88006249 38.5168135,5.02898185 C38.4225644,5.13918219 38.3597325,5.28809932 38.3283162,5.47573772 L37.0323969,5.47573772 C37.0606717,5.04982833 37.1863353,4.69987307 37.4093916,4.42586144 C37.7643967,3.99697366 38.3738654,3.78253299 39.2378158,3.78253299 C39.800169,3.78253299 40.299682,3.88826416 40.7363697,4.09972966 C41.1730574,4.31119516 41.3913979,4.71029307 41.3913979,5.29703537 L41.3913979,7.5308147 C41.3913979,7.68569084 41.3945395,7.87332643 41.4008228,8.09372709 C41.4102477,8.26051678 41.4369512,8.3736938 41.4809342,8.43326155 C41.5249171,8.49282929 41.5908905,8.54197195 41.6788564,8.58069098 L41.6788564,8.76832845 L40.218002,8.76832845 C40.1771607,8.67004166 40.1488864,8.57771304 40.1331782,8.49133981 C40.11747,8.40496658 40.1049036,8.30668127 40.0954787,8.19648094 C39.9101221,8.38709773 39.6964939,8.5494174 39.4545878,8.68344483 C39.1655571,8.84129936 38.8388316,8.92022544 38.4744016,8.92022544 C38.0094392,8.92022544 37.6253797,8.79439046 37.3222116,8.54271673 C37.0190435,8.291043 36.8674618,7.93438647 36.8674618,7.47273644 C36.8674618,6.87408058 37.1109351,6.44073173 37.597889,6.17267687 C37.8649282,6.02673589 38.2576271,5.9224939 38.7759973,5.85994776 L39.2331034,5.80633706 Z M44.1010472,3.32684201 L44.1010472,7.62463343 L45.4393783,7.62463343 C46.1242554,7.62463343 46.6017772,7.3044616 46.8719581,6.66410832 C47.0196151,6.31265862 47.0934425,5.89420147 47.0934425,5.40872434 C47.0934425,4.73858719 46.9827014,4.2240785 46.7612159,3.86518283 C46.5397304,3.50628715 46.0991223,3.32684201 45.4393783,3.32684201 L44.1010472,3.32684201 Z M45.6844249,2.18314699 C46.1148293,2.18910377 46.4729706,2.23675725 46.7588597,2.32610887 C47.2458136,2.47800662 47.6400833,2.75648166 47.9416805,3.16154234 C48.1835866,3.48916494 48.3485202,3.84358772 48.436486,4.2248213 C48.5244519,4.60605488 48.5684342,4.96941268 48.5684342,5.31490561 C48.5684342,6.19055148 48.3830803,6.9321588 48.012367,7.53974982 C47.5097049,8.35880633 46.733732,8.76832845 45.6844249,8.76832845 L42.6920296,8.76832845 L42.6920296,2.18314699 L45.6844249,2.18314699 Z M50.7125914,6.73558926 C50.7565744,7.03640638 50.8429681,7.26127125 50.9717753,7.41019062 C51.2073981,7.68122386 51.6110926,7.81673845 52.1828707,7.81673845 C52.5253092,7.81673845 52.80334,7.78099834 53.0169714,7.70951705 C53.4222427,7.57251123 53.6248753,7.31786293 53.6248753,6.94556452 C53.6248753,6.72814224 53.5243444,6.55986588 53.3232796,6.44073039 C53.132268,6.33038114 52.8377712,6.23212925 52.4397811,6.14597209 L51.6409408,5.97610429 C50.9183641,5.82122815 50.4188511,5.65295179 50.142387,5.47127016 C49.6742829,5.16747465 49.4402344,4.692429 49.4402344,4.04611895 C49.4402344,3.45639826 49.6664289,2.9664609 50.1188248,2.57629216 C50.5712207,2.18612342 51.2356672,1.99104197 52.1121842,1.99104197 C52.8441858,1.99104197 53.468577,2.17495463 53.9853765,2.54278547 C54.502176,2.9106163 54.7731382,3.44448422 54.7982713,4.14440524 L53.403391,4.14440524 C53.3782579,3.74827973 53.1960456,3.46682635 52.8567487,3.30003666 C52.6305507,3.18983633 52.3493783,3.13473699 52.0132231,3.13473699 C51.6393681,3.13473699 51.340917,3.20621721 51.1178607,3.3491798 C50.8948044,3.49214239 50.7832779,3.69169135 50.7832779,3.94783266 C50.7832779,4.17243014 50.8834648,4.34274965 51.0838415,4.45879577 L51.1131483,4.47500458 C51.248867,4.54934513 51.5322436,4.63603639 51.9632861,4.73508077 L53.2148936,5.02004674 C53.7395472,5.13918223 54.1353876,5.29852356 54.4024269,5.49807551 C54.8171231,5.8078278 55.0244681,6.25606836 55.0244681,6.84281067 C55.0244681,7.44444491 54.7817802,7.94406189 54.2963971,8.34167659 C53.811014,8.7392913 53.1253618,8.93809567 52.2394199,8.93809567 C51.3346281,8.93809567 50.6230578,8.74226965 50.1046875,8.35061171 C49.5863172,7.95895378 49.327136,7.42061834 49.327136,6.73558926 L50.7125914,6.73558926 Z M60.0102227,4.278432 C60.0102227,3.93591746 59.9151896,3.69169336 59.7251205,3.54575238 C59.5350514,3.3998114 59.2688016,3.32684201 58.926363,3.32684201 L57.5738946,3.32684201 L57.5738946,5.26576246 L58.926363,5.26576246 C59.2688016,5.26576246 59.5350514,5.18683638 59.7251205,5.02898185 C59.9151896,4.87112733 60.0102227,4.62094654 60.0102227,4.278432 Z M61.447515,4.26949688 C61.447515,5.04685598 61.24017,5.5963602 60.8254737,5.91802603 C60.4107775,6.23969186 59.8185876,6.40052236 59.0488863,6.40052236 L57.5738946,6.40052236 L57.5738946,8.76832845 L56.13189,8.76832845 L56.13189,2.18314699 L59.1572723,2.18314699 C59.8547159,2.18314699 60.4107775,2.35291253 60.8254737,2.69244868 C61.24017,3.03198484 61.447515,3.55766231 61.447515,4.26949688 Z" id="KautenjaDSP"></path>
                </g>
            </g>
            <path d="M51.007,15.665 L47.0078125,15.6640625 L47.0078125,11.6640625 L51.0078125,11.6640625 L51.007,15.665 Z M51.0078125,6.3359375 L51.007,10.336 L52.34375,10.3359375 L52.34375,6.3359375 L51.0078125,6.3359375 Z M51.0078125,6.3359375 L51.0078125,5 L44.34375,5 L44.34375,17 L51.0078125,17 L51.0078125,15.6640625 L52.34375,15.6640625 L52.34375,11.6640625 L51.0078125,11.6640625 L51.0078125,10.3359375 L47.0078125,10.3359375 L47.0078125,6.3359375 L51.0078125,6.3359375 Z M60.3359375,17 L60.3359375,5 L57.671875,5 L57.671875,17 L60.3359375,17 Z M72.335,15.665 L68.3359375,15.6640625 L68.3359375,10.3359375 L72.3359375,10.3359375 L72.335,15.665 Z M72.3359375,15.6640625 L73.671875,15.6640625 L73.671875,10.3359375 L72.3359375,10.3359375 L72.3359375,9 L67,9 L67,10.3359375 L65.671875,10.3359375 L65.671875,15.6640625 L67,15.6640625 L67,17 L72.3359375,17 L72.3359375,15.6640625 Z M84.3359375,17 L84.3359375,15.6640625 L79,15.6640625 L79,10.3359375 L84.3359375,10.3359375 L84.3359375,9 L77.6640625,9 L77.6640625,10.3359375 L76.3359375,10.3359375 L76.3359375,15.6640625 L77.6640625,15.6640625 L77.6640625,17 L84.3359375,17 Z M89.6640625,17 L89.6640625,13 L91,13 L91,14.3359375 L92.328125,14.3359375 L92.328125,15.6640625 L93.6640625,15.6640625 L93.6640625,17 L95,17 L95,14.3359375 L93.6640625,14.3359375 L93.6640625,13 L92.328125,13 L92.328125,11.6640625 L93.6640625,11.6640625 L93.6640625,10.3359375 L95,10.3359375 L95,9 L92.328125,9 L92.328125,10.3359375 L91,10.3359375 L91,11.6640625 L89.6640625,11.6640625 L89.6640625,5 L87,5 L87,17 L89.6640625,17 Z M104.328125,13 L104.328125,11.6640625 L100.328125,11.6640625 L100.328125,10.3359375 L105.664062,10.3359375 L105.664062,9 L98.9921875,9 L98.9921875,10.3359375 L97.6640625,10.3359375 L97.6640625,11.6640625 L98.9921875,11.6640625 L98.9921875,13 L104.328125,13 Z M104.328125,15.6640625 L97.6640625,15.6640625 L97.6640625,17 L104.328125,17 L104.328125,15.6640625 Z M104.328125,13 L104.328125,15.6640625 L105.664062,15.6640625 L105.664062,13 L104.328125,13 Z" id="Blocks" fill="#000000" fill-rule="nonzero"></path>
        </g>
        <g id="Voice-1" transform="translate(7.000000, 38.000000)">
            <g id="Output" transform="translate(0.000000, 269.000000)">
                <rect id="Rectangle" fill="#1D1D1D" x="0" y="0" width="30" height="44" rx="4"></rect>
                <path d="M6.16601562,10 L7.30273438,5.71875 L8.44335938,10 L9.66992188,10 L11.0605469,4.2734375 L9.89648438,4.2734375 L9.01757812,8.2734375 L8.01367188,4.2734375 L6.63867188,4.2734375 L5.59179688,8.20703125 L4.72851562,4.2734375 L3.54492188,4.2734375 L4.91210938,10 L6.16601562,10 Z M11.8535156,10 L12.3261719,8.69921875 L14.6152344,8.69921875 L15.1152344,10 L16.3730469,10 L14.0800781,4.2734375 L12.8574219,4.2734375 L10.6269531,10 L11.8535156,10 Z M14.2441406,7.734375 L12.6816406,7.734375 L13.4550781,5.609375 L14.2441406,7.734375 Z M19.0878906,10 L21.1386719,4.2734375 L19.9121094,4.2734375 L18.5097656,8.51171875 L17.0605469,4.2734375 L15.8066406,4.2734375 L17.8535156,10 L19.0878906,10 Z M26.0839844,10 L26.0839844,9.03515625 L22.8847656,9.03515625 L22.8847656,7.4765625 L25.7597656,7.4765625 L25.7597656,6.51171875 L22.8847656,6.51171875 L22.8847656,5.2421875 L25.9746094,5.2421875 L25.9746094,4.2734375 L21.7285156,4.2734375 L21.7285156,10 L26.0839844,10 Z" id="WAVE" fill="#FFFFFF" fill-rule="nonzero"></path>
            </g>
            <g id="Shape" transform="translate(0.000000, 229.000000)" fill="#000000" fill-rule="nonzero">
                <path d="M3.87109375,7.1015625 C4.36848958,7.1015625 4.78385417,7.03190104 5.1171875,6.89257812 C5.45052083,6.75325521 5.70833333,6.54036458 5.890625,6.25390625 C6.07291667,5.96744792 6.1640625,5.66015625 6.1640625,5.33203125 C6.1640625,4.97005208 6.08789062,4.66601562 5.93554688,4.41992188 C5.78320312,4.17382812 5.57226562,3.97981771 5.30273438,3.83789062 C5.03320312,3.69596354 4.6171875,3.55859375 4.0546875,3.42578125 C3.4921875,3.29296875 3.13802083,3.16536458 2.9921875,3.04296875 C2.87760417,2.94661458 2.8203125,2.83072917 2.8203125,2.6953125 C2.8203125,2.546875 2.88151042,2.42838542 3.00390625,2.33984375 C3.19401042,2.20182292 3.45703125,2.1328125 3.79296875,2.1328125 C4.11848958,2.1328125 4.36263021,2.19726562 4.52539062,2.32617188 C4.68815104,2.45507812 4.79427083,2.66666667 4.84375,2.9609375 L4.84375,2.9609375 L6,2.91015625 C5.98177083,2.38411458 5.79101562,1.96354167 5.42773438,1.6484375 C5.06445312,1.33333333 4.5234375,1.17578125 3.8046875,1.17578125 C3.36458333,1.17578125 2.98893229,1.2421875 2.67773438,1.375 C2.36653646,1.5078125 2.12825521,1.70117188 1.96289062,1.95507812 C1.79752604,2.20898438 1.71484375,2.48177083 1.71484375,2.7734375 C1.71484375,3.2265625 1.890625,3.61067708 2.2421875,3.92578125 C2.4921875,4.14973958 2.92708333,4.33854167 3.546875,4.4921875 C4.02864583,4.61197917 4.33723958,4.6953125 4.47265625,4.7421875 C4.67057292,4.8125 4.80924479,4.89518229 4.88867188,4.99023438 C4.96809896,5.08528646 5.0078125,5.20052083 5.0078125,5.3359375 C5.0078125,5.546875 4.91341146,5.73111979 4.72460938,5.88867188 C4.53580729,6.04622396 4.25520833,6.125 3.8828125,6.125 C3.53125,6.125 3.25195312,6.03645833 3.04492188,5.859375 C2.83789062,5.68229167 2.70052083,5.40494792 2.6328125,5.02734375 L2.6328125,5.02734375 L1.5078125,5.13671875 C1.58333333,5.77734375 1.81510417,6.26497396 2.203125,6.59960938 C2.59114583,6.93424479 3.14713542,7.1015625 3.87109375,7.1015625 Z M8.296875,7 L8.296875,4.49609375 L10.5625,4.49609375 L10.5625,7 L11.71875,7 L11.71875,1.2734375 L10.5625,1.2734375 L10.5625,3.52734375 L8.296875,3.52734375 L8.296875,1.2734375 L7.140625,1.2734375 L7.140625,7 L8.296875,7 Z M13.5585938,7 L14.03125,5.69921875 L16.3203125,5.69921875 L16.8203125,7 L18.078125,7 L15.7851562,1.2734375 L14.5625,1.2734375 L12.3320312,7 L13.5585938,7 Z M15.9492188,4.734375 L14.3867188,4.734375 L15.1601562,2.609375 L15.9492188,4.734375 Z M19.8476562,7 L19.8476562,4.83984375 L20.6015625,4.83984375 C21.125,4.83984375 21.5247396,4.8125 21.8007812,4.7578125 C22.0039062,4.71354167 22.203776,4.62304688 22.4003906,4.48632812 C22.5970052,4.34960938 22.7591146,4.16145833 22.8867188,3.921875 C23.0143229,3.68229167 23.078125,3.38671875 23.078125,3.03515625 C23.078125,2.57942708 22.9674479,2.20768229 22.7460938,1.91992188 C22.5247396,1.63216146 22.25,1.4453125 21.921875,1.359375 C21.7083333,1.30208333 21.25,1.2734375 20.546875,1.2734375 L20.546875,1.2734375 L18.6914062,1.2734375 L18.6914062,7 L19.8476562,7 Z M20.4804688,3.8671875 L19.8476562,3.8671875 L19.8476562,2.2421875 L20.5762915,2.24298469 C20.8993144,2.24617347 21.1199777,2.25892857 21.2382812,2.28125 C21.4257812,2.31510417 21.5807292,2.39973958 21.703125,2.53515625 C21.8255208,2.67057292 21.8867188,2.84244792 21.8867188,3.05078125 C21.8867188,3.22005208 21.843099,3.36848958 21.7558594,3.49609375 C21.6686198,3.62369792 21.5481771,3.71744792 21.3945312,3.77734375 C21.2408854,3.83723958 20.9361979,3.8671875 20.4804688,3.8671875 L20.4804688,3.8671875 Z M28.3828125,7 L28.3828125,6.03515625 L25.1835938,6.03515625 L25.1835938,4.4765625 L28.0585938,4.4765625 L28.0585938,3.51171875 L25.1835938,3.51171875 L25.1835938,2.2421875 L28.2734375,2.2421875 L28.2734375,1.2734375 L24.0273438,1.2734375 L24.0273438,7 L28.3828125,7 Z" id="SHAPE"></path>
            </g>
            <g id="Amplifier" transform="translate(0.000000, 139.000000)" fill-rule="nonzero">
                <path d="M15.5,0 L13.5,0 L13.5,3 L15.5,3 L15.5,0 Z M15.5,4 L13.5,4 L13.5,7 L15.5,7 L15.5,4 Z M15.5,8 L13.5,8 L13.5,11 L15.5,11 L15.5,8 Z M15.5,12 L13.5,12 L13.5,15 L15.5,15 L15.5,12 Z M15.5,16 L13.5,16 L13.5,19 L15.5,19 L15.5,16 Z M15.5,20 L13.5,20 L13.5,23 L15.5,23 L15.5,20 Z M15.5,24 L13.5,24 L13.5,27 L15.5,27 L15.5,24 Z M15.5,28 L13.5,28 L13.5,31 L15.5,31 L15.5,28 Z M15.5,32 L13.5,32 L13.5,35 L15.5,35 L15.5,32 Z M15.5,36 L13.5,36 L13.5,39 L15.5,39 L15.5,36 Z M15.5,40 L13.5,40 L13.5,43 L15.5,43 L15.5,40 Z" id="Line-Copy-15" fill="#E6E6E6"></path>
                <path d="M11.8574219,26 L10.5996094,26 L10.0996094,24.6992188 L7.81054688,24.6992188 L7.33789062,26 L6.11132812,26 L8.34179688,20.2734375 L9.56445312,20.2734375 L11.8574219,26 Z M9.72851562,23.734375 L8.93945312,21.609375 L8.16601562,23.734375 L9.72851562,23.734375 Z M14.1855469,20.2734375 L15.2246094,24.1796875 L16.2519531,20.2734375 L17.9863281,20.2734375 L17.9863281,26 L16.9121094,26 L16.9121094,21.4921875 L15.7753906,26 L14.6621094,26 L13.5292969,21.4921875 L13.5292969,26 L12.4550781,26 L12.4550781,20.2734375 L14.1855469,20.2734375 Z M20.9902344,20.2734375 C21.6933629,20.2734375 22.1516916,20.302083 22.3652344,20.359375 C22.693361,20.4453129 22.9680979,20.63216 23.1894531,20.9199219 C23.4108084,21.2076837 23.5214844,21.5794248 23.5214844,22.0351562 C23.5214844,22.3867205 23.4576829,22.6822905 23.3300781,22.921875 C23.2024733,23.1614595 23.0403656,23.3496087 22.84375,23.4863281 C22.6471344,23.6230476 22.4472666,23.7135414 22.2441406,23.7578125 C22.0075323,23.8046877 21.6800478,23.8314733 21.2616796,23.8381697 L20.2910156,23.8398438 L20.2910156,26 L19.1347656,26 L19.1347656,20.2734375 L20.9902344,20.2734375 Z M20.8496094,21.2421875 L20.2910156,21.2421875 L20.2910156,22.8671875 L20.9238281,22.8671875 C21.3795596,22.8671875 21.684244,22.8372399 21.8378906,22.7773438 C21.9915372,22.7174476 22.1119787,22.6236986 22.1992188,22.4960938 C22.2864588,22.3684889 22.3300781,22.2200529 22.3300781,22.0507812 C22.3300781,21.8424469 22.2688808,21.6705736 22.1464844,21.5351562 C22.0240879,21.3997389 21.8691416,21.3151043 21.6816406,21.28125 C21.5436191,21.2552082 21.2662781,21.2421875 20.8496094,21.2421875 Z" id="AMP" fill="#000000"></path>
            </g>
            <g id="Frequency-Mod" transform="translate(0.000000, 72.000000)" fill-rule="nonzero">
                <path d="M15.5,0.5 L13.5,0.5 L13.5,3.5 L15.5,3.5 L15.5,0.5 Z M15.5,4.5 L13.5,4.5 L13.5,7.5 L15.5,7.5 L15.5,4.5 Z M15.5,8.5 L13.5,8.5 L13.5,11.5 L15.5,11.5 L15.5,8.5 Z M15.5,12.5 L13.5,12.5 L13.5,15.5 L15.5,15.5 L15.5,12.5 Z M15.5,16.5 L13.5,16.5 L13.5,19.5 L15.5,19.5 L15.5,16.5 Z M15.5,20.5 L13.5,20.5 L13.5,23.5 L15.5,23.5 L15.5,20.5 Z M15.5,24.5 L13.5,24.5 L13.5,27.5 L15.5,27.5 L15.5,24.5 Z M15.5,28.5 L13.5,28.5 L13.5,31.5 L15.5,31.5 L15.5,28.5 Z" id="Line-Copy-7" fill="#E6E6E6"></path>
                <path d="M15.4492188,19.1757812 C16.292973,19.1757812 16.9680964,19.4374974 17.4746094,19.9609375 C17.9811223,20.4843776 18.234375,21.2122349 18.234375,22.1445312 C18.234375,23.069015 17.9830754,23.7923151 17.4804688,24.3144531 C16.9778621,24.8365912 16.3059938,25.0976562 15.4648438,25.0976562 C14.613277,25.0976562 13.9362004,24.8378932 13.4335938,24.3183594 C12.9309871,23.7988255 12.6796875,23.0833379 12.6796875,22.171875 C12.6796875,21.5885387 12.7669262,21.0989603 12.9414062,20.703125 C13.0716152,20.4114569 13.2493478,20.1497407 13.4746094,19.9179688 C13.6998709,19.6861968 13.9466132,19.5143235 14.2148438,19.4023438 C14.5716164,19.2513013 14.9830706,19.1757812 15.4492188,19.1757812 Z M7.96484375,19.2734375 L9.00390625,23.1796875 L10.03125,19.2734375 L11.765625,19.2734375 L11.765625,25 L10.6914062,25 L10.6914062,20.4921875 L9.5546875,25 L8.44140625,25 L7.30859375,20.4921875 L7.30859375,25 L6.234375,25 L6.234375,19.2734375 L7.96484375,19.2734375 Z M21.2460938,19.2734375 C21.7226586,19.2734375 22.0859362,19.3098955 22.3359375,19.3828125 C22.6718767,19.4817713 22.9596342,19.6575508 23.1992188,19.9101562 C23.4388033,20.1627617 23.6210931,20.4720034 23.7460938,20.8378906 C23.8710944,21.2037779 23.9335938,21.6549452 23.9335938,22.1914062 C23.9335938,22.6627628 23.8750006,23.0690087 23.7578125,23.4101562 C23.6145826,23.826825 23.4101576,24.1640612 23.1445312,24.421875 C22.9440094,24.6171885 22.6731788,24.7695307 22.3320312,24.8789062 C22.0768216,24.9596358 21.7356792,25 21.3085938,25 L19.1328125,25 L19.1328125,19.2734375 L21.2460938,19.2734375 Z M15.4609375,20.1640625 C14.9843726,20.1640625 14.6002619,20.3274723 14.3085938,20.6542969 C14.0169256,20.9811214 13.8710938,21.473955 13.8710938,22.1328125 C13.8710938,22.7812532 14.0208318,23.2727848 14.3203125,23.6074219 C14.6197932,23.942059 14.9999977,24.109375 15.4609375,24.109375 C15.9218773,24.109375 16.3001287,23.943361 16.5957031,23.6113281 C16.8912775,23.2792952 17.0390625,22.7812533 17.0390625,22.1171875 C17.0390625,21.4609342 16.8951837,20.9713558 16.6074219,20.6484375 C16.31966,20.3255192 15.9375024,20.1640625 15.4609375,20.1640625 Z M20.8085938,20.2421875 L20.2890625,20.2421875 L20.2890625,24.0351562 L21.1523438,24.0351562 C21.475262,24.0351562 21.7083326,24.0169273 21.8515625,23.9804688 C22.0390634,23.9335935 22.1946608,23.8541672 22.3183594,23.7421875 C22.4420579,23.6302078 22.5429684,23.4459648 22.6210938,23.1894531 C22.6992191,22.9329414 22.7382812,22.5833355 22.7382812,22.140625 C22.7382812,21.6979145 22.6992191,21.3580741 22.6210938,21.1210938 C22.5429684,20.8841134 22.4335945,20.6992194 22.2929688,20.5664062 C22.152343,20.4335931 21.9739594,20.3437502 21.7578125,20.296875 C21.5963534,20.2604165 21.2799503,20.2421875 20.8085938,20.2421875 Z" id="MOD" fill="#000000"></path>
            </g>
            <g id="Frequency" fill-rule="nonzero">
                <path d="M15.5,0 L13.5,0 L13.5,3 L15.5,3 L15.5,0 Z M15.5,4 L13.5,4 L13.5,7 L15.5,7 L15.5,4 Z M15.5,8 L13.5,8 L13.5,11 L15.5,11 L15.5,8 Z M15.5,12 L13.5,12 L13.5,15 L15.5,15 L15.5,12 Z M15.5,16 L13.5,16 L13.5,19 L15.5,19 L15.5,16 Z M15.5,20 L13.5,20 L13.5,23 L15.5,23 L15.5,20 Z M15.5,24 L13.5,24 L13.5,27 L15.5,27 L15.5,24 Z M15.5,28 L13.5,28 L13.5,31 L15.5,31 L15.5,28 Z M15.5,32 L13.5,32 L13.5,35 L15.5,35 L15.5,32 Z M15.5,36 L13.5,36 L13.5,39 L15.5,39 L15.5,36 Z" id="Line-Copy-11" fill="#E6E6E6"></path>
                <path d="M5.93164062,26 L3.88476562,20.2734375 L5.13867188,20.2734375 L6.58789062,24.5117188 L7.99023438,20.2734375 L9.21679688,20.2734375 L7.16601562,26 L5.93164062,26 Z M9.57226562,23.171875 C9.57226562,22.5885387 9.65950434,22.0989603 9.83398438,21.703125 C9.96419336,21.4114569 10.141926,21.1497407 10.3671875,20.9179688 C10.592449,20.6861968 10.8391914,20.5143235 11.1074219,20.4023438 C11.4641945,20.2513013 11.8756487,20.1757812 12.3417969,20.1757812 C13.1855511,20.1757812 13.8606746,20.4374974 14.3671875,20.9609375 C14.8737004,21.4843776 15.1269531,22.2122349 15.1269531,23.1445312 C15.1269531,24.069015 14.8756536,24.7923151 14.3730469,25.3144531 C13.8704402,25.8365912 13.1985719,26.0976562 12.3574219,26.0976562 C11.5058551,26.0976562 10.8287786,25.8378932 10.3261719,25.3183594 C9.8235652,24.7988255 9.57226562,24.0833379 9.57226562,23.171875 Z M10.7636719,23.1328125 C10.7636719,23.7812532 10.91341,24.2727848 11.2128906,24.6074219 C11.5123713,24.942059 11.8925758,25.109375 12.3535156,25.109375 C12.8144554,25.109375 13.1927069,24.943361 13.4882812,24.6113281 C13.7838556,24.2792952 13.9316406,23.7812533 13.9316406,23.1171875 C13.9316406,22.4609342 13.7877619,21.9713558 13.5,21.6484375 C13.2122381,21.3255192 12.8300805,21.1640625 12.3535156,21.1640625 C11.8769507,21.1640625 11.49284,21.3274723 11.2011719,21.6542969 C10.9095037,21.9811214 10.7636719,22.473955 10.7636719,23.1328125 Z M19.6933594,23.8945312 L20.8144531,24.25 C20.6425773,24.8750031 20.3567728,25.3391912 19.9570312,25.6425781 C19.5572897,25.9459651 19.0501333,26.0976562 18.4355469,26.0976562 C17.6751264,26.0976562 17.0501327,25.8378932 16.5605469,25.3183594 C16.0709611,24.7988255 15.8261719,24.0885462 15.8261719,23.1875 C15.8261719,22.2343702 16.0722632,21.4941433 16.5644531,20.9667969 C17.0566431,20.4394505 17.703772,20.1757812 18.5058594,20.1757812 C19.2063837,20.1757812 19.7753884,20.3828104 20.2128906,20.796875 C20.4733086,21.0416679 20.6686191,21.3932269 20.7988281,21.8515625 L19.6542969,22.125 C19.5865882,21.8281235 19.4453136,21.5937509 19.2304688,21.421875 C19.0156239,21.2499991 18.7545588,21.1640625 18.4472656,21.1640625 C18.0227843,21.1640625 17.6783867,21.3164047 17.4140625,21.6210938 C17.1497383,21.9257828 17.0175781,22.4192674 17.0175781,23.1015625 C17.0175781,23.8255245 17.1477852,24.3411443 17.4082031,24.6484375 C17.6686211,24.9557307 18.0071594,25.109375 18.4238281,25.109375 C18.7311213,25.109375 18.9954416,25.0117197 19.2167969,24.8164062 C19.4381521,24.6210928 19.5970047,24.3138042 19.6933594,23.8945312 Z M23.0957031,26 L23.0957031,21.2421875 L21.3964844,21.2421875 L21.3964844,20.2734375 L25.9472656,20.2734375 L25.9472656,21.2421875 L24.2519531,21.2421875 L24.2519531,26 L23.0957031,26 Z" id="VOCT" fill="#000000"></path>
            </g>
        </g>
        <g id="Voice-2" transform="translate(42.000000, 38.000000)">
            <g id="Output" transform="translate(0.000000, 269.000000)">
                <rect id="Rectangle" fill="#1D1D1D" x="0" y="0" width="30" height="44" rx="4"></rect>
                <path d="M6.16601562,10 L7.30273438,5.71875 L8.44335938,10 L9.66992188,10 L11.0605469,4.2734375 L9.89648438,4.2734375 L9.01757812,8.2734375 L8.01367188,4.2734375 L6.63867188,4.2734375 L5.59179688,8.20703125 L4.72851562,4.2734375 L3.54492188,4.2734375 L4.91210938,10 L6.16601562,10 Z M11.8535156,10 L12.3261719,8.69921875 L14.6152344,8.69921875 L15.1152344,10 L16.3730469,10 L14.0800781,4.2734375 L12.8574219,4.2734375 L10.6269531,10 L11.8535156,10 Z M14.2441406,7.734375 L12.6816406,7.734375 L13.4550781,5.609375 L14.2441406,7.734375 Z M19.0878906,10 L21.1386719,4.2734375 L19.9121094,4.2734375 L18.5097656,8.51171875 L17.0605469,4.2734375 L15.8066406,4.2734375 L17.8535156,10 L19.0878906,10 Z M26.0839844,10 L26.0839844,9.03515625 L22.8847656,9.03515625 L22.8847656,7.4765625 L25.7597656,7.4765625 L25.7597656,6.51171875 L22.8847656,6.51171875 L22.8847656,5.2421875 L25.9746094,5.2421875 L25.9746094,4.2734375 L21.7285156,4.2734375 L21.7285156,10 L26.0839844,10 Z" id="WAVE" fill="#FFFFFF" fill-rule="nonzero"></path>
            </g>
            <g id="Shape" transform="translate(0.000000, 229.000000)" fill="#000000" fill-rule="nonzero">
                <path d="M3.87109375,7.1015625 C4.36848958,7.1015625 4.78385417,7.03190104 5.1171875,6.89257812 C5.45052083,6.75325521 5.70833333,6.54036458 5.890625,6.25390625 C6.07291667,5.96744792 6.1640625,5.66015625 6.1640625,5.33203125 C6.1640625,4.97005208 6.08789062,4.66601562 5.93554688,4.41992188 C5.78320312,4.17382812 5.57226562,3.97981771 5.30273438,3.83789062 C5.03320312,3.69596354 4.6171875,3.55859375 4.0546875,3.42578125 C3.4921875,3.29296875 3.13802083,3.16536458 2.9921875,3.04296875 C2.87760417,2.94661458 2.8203125,2.83072917 2.8203125,2.6953125 C2.8203125,2.546875 2.88151042,2.42838542 3.00390625,2.33984375 C3.19401042,2.20182292 3.45703125,2.1328125 3.79296875,2.1328125 C4.11848958,2.1328125 4.36263021,2.19726562 4.52539062,2.32617188 C4.68815104,2.45507812 4.79427083,2.66666667 4.84375,2.9609375 L4.84375,2.9609375 L6,2.91015625 C5.98177083,2.38411458 5.79101562,1.96354167 5.42773438,1.6484375 C5.06445312,1.33333333 4.5234375,1.17578125 3.8046875,1.17578125 C3.36458333,1.17578125 2.98893229,1.2421875 2.67773438,1.375 C2.36653646,1.5078125 2.12825521,1.70117188 1.96289062,1.95507812 C1.79752604,2.20898438 1.71484375,2.48177083 1.71484375,2.7734375 C1.71484375,3.2265625 1.890625,3.61067708 2.2421875,3.92578125 C2.4921875,4.14973958 2.92708333,4.33854167 3.546875,4.4921875 C4.02864583,4.61197917 4.33723958,4.6953125 4.47265625,4.7421875 C4.67057292,4.8125 4.80924479,4.89518229 4.88867188,4.99023438 C4.96809896,5.08528646 5.0078125,5.20052083 5.0078125,5.3359375 C5.0078125,5.546875 4.91341146,5.73111979 4.72460938,5.88867188 C4.53580729,6.04622396 4.25520833,6.125 3.8828125,6.125 C3.53125,6.125 3.25195312,6.03645833 3.04492188,5.859375 C2.83789062,5.68229167 2.70052083,5.40494792 2.6328125,5.02734375 L2.6328125,5.02734375 L1.5078125,5.13671875 C1.58333333,5.77734375 1.81510417,6.26497396 2.203125,6.59960938 C2.59114583,6.93424479 3.14713542,7.1015625 3.87109375,7.1015625 Z M8.296875,7 L8.296875,4.49609375 L10.5625,4.49609375 L10.5625,7 L11.71875,7 L11.71875,1.2734375 L10.5625,1.2734375 L10.5625,3.52734375 L8.296875,3.52734375 L8.296875,1.2734375 L7.140625,1.2734375 L7.140625,7 L8.296875,7 Z M13.5585938,7 L14.03125,5.69921875 L16.3203125,5.69921875 L16.8203125,7 L18.078125,7 L15.7851562,1.2734375 L14.5625,1.2734375 L12.3320312,7 L13.5585938,7 Z M15.9492188,4.734375 L14.3867188,4.734375 L15.1601562,2.609375 L15.9492188,4.734375 Z M19.8476562,7 L19.8476562,4.83984375 L20.6015625,4.83984375 C21.125,4.83984375 21.5247396,4.8125 21.8007812,4.7578125 C22.0039062,4.71354167 22.203776,4.62304688 22.4003906,4.48632812 C22.5970052,4.34960938 22.7591146,4.16145833 22.8867188,3.921875 C23.0143229,3.68229167 23.078125,3.38671875 23.078125,3.03515625 C23.078125,2.57942708 22.9674479,2.20768229 22.7460938,1.91992188 C22.5247396,1.63216146 22.25,1.4453125 21.921875,1.359375 C21.7083333,1.30208333 21.25,1.2734375 20.546875,1.2734375 L20.546875,1.2734375 L18.6914062,1.2734375 L18.6914062,7 L19.8476562,7 Z M20.4804688,3.8671875 L19.8476562,3.8671875 L19.8476562,2.2421875 L20.5762915,2.24298469 C20.8993144,2.24617347 21.1199777,2.25892857 21.2382812,2.28125 C21.4257812,2.31510417 21.5807292,2.39973958 21.703125,2.53515625 C21.8255208,2.67057292 21.8867188,2.84244792 21.8867188,3.05078125 C21.8867188,3.22005208 21.843099,3.36848958 21.7558594,3.49609375 C21.6686198,3.62369792 21.5481771,3.71744792 21.3945312,3.77734375 C21.2408854,3.83723958 20.9361979,3.8671875 20.4804688,3.8671875 L20.4804688,3.8671875 Z M28.3828125,7 L28.3828125,6.03515625 L25.1835938,6.03515625 L25.1835938,4.4765625 L28.0585938,4.4765625 L28.0585938,3.51171875 L25.1835938,3.51171875 L25.1835938,2.2421875 L28.2734375,2.2421875 L28.2734375,1.2734375 L24.0273438,1.2734375 L24.0273438,7 L28.3828125,7 Z" id="SHAPE"></path>
            </g>
            <g id="Amplifier" transform="translate(0.000000, 139.000000)" fill-rule="nonzero">
                <path d="M15.5,0 L13.5,0 L13.5,3 L15.5,3 L15.5,0 Z M15.5,4 L13.5,4 L13.5,7 L15.5,7 L15.5,4 Z M15.5,8 L13.5,8 L13.5,11 L15.5,11 L15.5,8 Z M15.5,12 L13.5,12 L13.5,15 L15.5,15 L15.5,12 Z M15.5,16 L13.5,16 L13.5,19 L15.5,19 L15.5,16 Z M15.5,20 L13.5,20 L13.5,23 L15.5,23 L15.5,20 Z M15.5,24 L13.5,24 L13.5,27 L15.5,27 L15.5,24 Z M15.5,28 L13.5,28 L13.5,31 L15.5,31 L15.5,28 Z M15.5,32 L13.5,32 L13.5,35 L15.5,35 L15.5,32 Z M15.5,36 L13.5,36 L13.5,39 L15.5,39 L15.5,36 Z M15.5,40 L13.5,40 L13.5,43 L15.5,43 L15.5,40 Z" id="Line-Copy-15" fill="#E6E6E6"></path>
                <path d="M11.8574219,26 L10.5996094,26 L10.0996094,24.6992188 L7.81054688,24.6992188 L7.33789062,26 L6.11132812,26 L8.34179688,20.2734375 L9.56445312,20.2734375 L11.8574219,26 Z M9.72851562,23.734375 L8.93945312,21.609375 L8.16601562,23.734375 L9.72851562,23.734375 Z M14.1855469,20.2734375 L15.2246094,24.1796875 L16.2519531,20.2734375 L17.9863281,20.2734375 L17.9863281,26 L16.9121094,26 L16.9121094,21.4921875 L15.7753906,26 L14.6621094,26 L13.5292969,21.4921875 L13.5292969,26 L12.4550781,26 L12.4550781,20.2734375 L14.1855469,20.2734375 Z M20.9902344,20.2734375 C21.6933629,20.2734375 22.1516916,20.302083 22.3652344,20.359375 C22.693361,20.4453129 22.9680979,20.63216 23.1894531,20.9199219 C23.4108084,21.2076837 23.5214844,21.5794248 23.5214844,22.0351562 C23.5214844,22.3867205 23.4576829,22.6822905 23.3300781,22.921875 C23.2024733,23.1614595 23.0403656,23.3496087 22.84375,23.4863281 C22.6471344,23.6230476 22.4472666,23.7135414 22.2441406,23.7578125 C22.0075323,23.8046877 21.6800478,23.8314733 21.2616796,23.8381697 L20.2910156,23.8398438 L20.2910156,26 L19.1347656,26 L19.1347656,20.2734375 L20.9902344,20.2734375 Z M20.8496094,21.2421875 L20.2910156,21.2421875 L20.2910156,22.8671875 L20.9238281,22.8671875 C21.3795596,22.8671875 21.684244,22.8372399 21.8378906,22.7773438 C21.9915372,22.7174476 22.1119787,22.6236986 22.1992188,22.4960938 C22.2864588,22.3684889 22.3300781,22.2200529 22.3300781,22.0507812 C22.3300781,21.8424469 22.2688808,21.6705736 22.1464844,21.5351562 C22.0240879,21.3997389 21.8691416,21.3151043 21.6816406,21.28125 C21.5436191,21.2552082 21.2662781,21.2421875 20.8496094,21.2421875 Z" id="AMP" fill="#000000"></path>
            </g>
            <g id="Frequency-Mod" transform="translate(0.000000, 72.000000)" fill-rule="nonzero">
                <path d="M15.5,0.5 L13.5,0.5 L13.5,3.5 L15.5,3.5 L15.5,0.5 Z M15.5,4.5 L13.5,4.5 L13.5,7.5 L15.5,7.5 L15.5,4.5 Z M15.5,8.5 L13.5,8.5 L13.5,11.5 L15.5,11.5 L15.5,8.5 Z M15.5,12.5 L13.5,12.5 L13.5,15.5 L15.5,15.5 L15.5,12.5 Z M15.5,16.5 L13.5,16.5 L13.5,19.5 L15.5,19.5 L15.5,16.5 Z M15.5,20.5 L13.5,20.5 L13.5,23.5 L15.5,23.5 L15.5,20.5 Z M15.5,24.5 L13.5,24.5 L13.5,27.5 L15.5,27.5 L15.5,24.5 Z M15.5,28.5 L13.5,28.5 L13.5,31.5 L15.5,31.5 L15.5,28.5 Z" id="Line-Copy-7" fill="#E6E6E6"></path>
                <path d="M15.4492188,19.1757812 C16.292973,19.1757812 16.9680964,19.4374974 17.4746094,19.9609375 C17.9811223,20.4843776 18.234375,21.2122349 18.234375,22.1445312 C18.234375,23.069015 17.9830754,23.7923151 17.4804688,24.3144531 C16.9778621,24.8365912 16.3059938,25.0976562 15.4648438,25.0976562 C14.613277,25.0976562 13.9362004,24.8378932 13.4335938,24.3183594 C12.9309871,23.7988255 12.6796875,23.0833379 12.6796875,22.171875 C12.6796875,21.5885387 12.7669262,21.0989603 12.9414062,20.703125 C13.0716152,20.4114569 13.2493478,20.1497407 13.4746094,19.9179688 C13.6998709,19.6861968 13.9466132,19.5143235 14.2148438,19.4023438 C14.5716164,19.2513013 14.9830706,19.1757812 15.4492188,19.1757812 Z M7.96484375,19.2734375 L9.00390625,23.1796875 L10.03125,19.2734375 L11.765625,19.2734375 L11.765625,25 L10.6914062,25 L10.6914062,20.4921875 L9.5546875,25 L8.44140625,25 L7.30859375,20.4921875 L7.30859375,25 L6.234375,25 L6.234375,19.2734375 L7.96484375,19.2734375 Z M21.2460938,19.2734375 C21.7226586,19.2734375 22.0859362,19.3098955 22.3359375,19.3828125 C22.6718767,19.4817713 22.9596342,19.6575508 23.1992188,19.9101562 C23.4388033,20.1627617 23.6210931,20.4720034 23.7460938,20.8378906 C23.8710944,21.2037779 23.9335938,21.6549452 23.9335938,22.1914062 C23.9335938,22.6627628 23.8750006,23.0690087 23.7578125,23.4101562 C23.6145826,23.826825 23.4101576,24.1640612 23.1445312,24.421875 C22.9440094,24.6171885 22.6731788,24.7695307 22.3320312,24.8789062 C22.0768216,24.9596358 21.7356792,25 21.3085938,25 L19.1328125,25 L19.1328125,19.2734375 L21.2460938,19.2734375 Z M15.4609375,20.1640625 C14.9843726,20.1640625 14.6002619,20.3274723 14.3085938,20.6542969 C14.0169256,20.9811214 13.8710938,21.473955 13.8710938,22.1328125 C13.8710938,22.7812532 14.0208318,23.2727848 14.3203125,23.6074219 C14.6197932,23.942059 14.9999977,24.109375 15.4609375,24.109375 C15.9218773,24.109375 16.3001287,23.943361 16.5957031,23.6113281 C16.8912775,23.2792952 17.0390625,22.7812533 17.0390625,22.1171875 C17.0390625,21.4609342 16.8951837,20.9713558 16.6074219,20.6484375 C16.31966,20.3255192 15.9375024,20.1640625 15.4609375,20.1640625 Z M20.8085938,20.2421875 L20.2890625,20.2421875 L20.2890625,24.0351562 L21.1523438,24.0351562 C21.475262,24.0351562 21.7083326,24.0169273 21.8515625,23.9804688 C22.0390634,23.9335935 22.1946608,23.8541672 22.3183594,23.7421875 C22.4420579,23.6302078 22.5429684,23.4459648 22.6210938,23.1894531 C22.6992191,22.9329414 22.7382812,22.5833355 22.7382812,22.140625 C22.7382812,21.6979145 22.6992191,21.3580741 22.6210938,21.1210938 C22.5429684,20.8841134 22.4335945,20.6992194 22.2929688,20.5664062 C22.152343,20.4335931 21.9739594,20.3437502 21.7578125,20.296875 C21.5963534,20.2604165 21.2799503,20.2421875 20.8085938,20.2421875 Z" id="MOD" fill="#000000"></path>
            </g>
            <g id="Frequency" fill-rule="nonzero">
                <path d="M15.5,0 L13.5,0 L13.5,3 L15.5,3 L15.5,0 Z M15.5,4 L13.5,4 L13.5,7 L15.5,7 L15.5,4 Z M15.5,8 L13.5,8 L13.5,11 L15.5,11 L15.5,8 Z M15.5,12 L13.5,12 L13.5,15 L15.5,15 L15.5,12 Z M15.5,16 L13.5,16 L13.5,19 L15.5,19 L15.5,16 Z M15.5,20 L13.5,20 L13.5,23 L15.5,23 L15.5,20 Z M15.5,24 L13.5,24 L13.5,27 L15.5,27 L15.5,24 Z M15.5,28 L13.5,28 L13.5,31 L15.5,31 L15.5,28 Z M15.5,32 L13.5,32 L13.5,35 L15.5,35 L15.5,32 Z M15.5,36 L13.5,36 L13.5,39 L15.5,39 L15.5,36 Z" id="Line-Copy-11" fill="#E6E6E6"></path>
                <path d="M5.93164062,26 L3.88476562,20.2734375 L5.13867188,20.2734375 L6.58789062,24.5117188 L7.99023438,20.2734375 L9.21679688,20.2734375 L7.16601562,26 L5.93164062,26 Z M9.57226562,23.171875 C9.57226562,22.5885387 9.65950434,22.0989603 9.83398438,21.703125 C9.96419336,21.4114569 10.141926,21.1497407 10.3671875,20.9179688 C10.592449,20.6861968 10.8391914,20.5143235 11.1074219,20.4023438 C11.4641945,20.2513013 11.8756487,20.1757812 12.3417969,20.1757812 C13.1855511,20.1757812 13.8606746,20.4374974 14.3671875,20.9609375 C14.8737004,21.4843776 15.1269531,22.2122349 15.1269531,23.1445312 C15.1269531,24.069015 14.8756536,24.7923151 14.3730469,25.3144531 C13.8704402,25.8365912 13.1985719,26.0976562 12.3574219,26.0976562 C11.5058551,26.0976562 10.8287786,25.8378932 10.3261719,25.3183594 C9.8235652,24.7988255 9.57226562,24.0833379 9.57226562,23.171875 Z M10.7636719,23.1328125 C10.7636719,23.7812532 10.91341,24.2727848 11.2128906,24.6074219 C11.5123713,24.942059 11.8925758,25.109375 12.3535156,25.109375 C12.8144554,25.109375 13.1927069,24.943361 13.4882812,24.6113281 C13.7838556,24.2792952 13.9316406,23.7812533 13.9316406,23.1171875 C13.9316406,22.4609342 13.7877619,21.9713558 13.5,21.6484375 C13.2122381,21.3255192 12.8300805,21.1640625 12.3535156,21.1640625 C11.8769507,21.1640625 11.49284,21.3274723 11.2011719,21.6542969 C10.9095037,21.9811214 10.7636719,22.473955 10.7636719,23.1328125 Z M19.6933594,23.8945312 L20.8144531,24.25 C20.6425773,24.8750031 20.3567728,25.3391912 19.9570312,25.6425781 C19.5572897,25.9459651 19.0501333,26.0976562 18.4355469,26.0976562 C17.6751264,26.0976562 17.0501327,25.8378932 16.5605469,25.3183594 C16.0709611,24.7988255 15.8261719,24.0885462 15.8261719,23.1875 C15.8261719,22.2343702 16.0722632,21.4941433 16.5644531,20.9667969 C17.0566431,20.4394505 17.703772,20.1757812 18.5058594,20.1757812 C19.2063837,20.1757812 19.7753884,20.3828104 20.2128906,20.796875 C20.4733086,21.0416679 20.6686191,21.3932269 20.7988281,21.8515625 L19.6542969,22.125 C19.5865882,21.8281235 19.4453136,21.5937509 19.2304688,21.421875 C19.0156239,21.2499991 18.7545588,21.1640625 18.4472656,21.1640625 C18.0227843,21.1640625 17.6783867,21.3164047 17.4140625,21.6210938 C17.1497383,21.9257828 17.0175781,22.4192674 17.0175781,23.1015625 C17.0175781,23.8255245 17.1477852,24.3411443 17.4082031,24.6484375 C17.6686211,24.9557307 18.0071594,25.109375 18.4238281,25.109375 C18.7311213,25.109375 18.9954416,25.0117197 19.2167969,24.8164062 C19.4381521,24.6210928 19.5970047,24.3138042 19.6933594,23.8945312 Z M23.0957031,26 L23.0957031,21.2421875 L21.3964844,21.2421875 L21.3964844,20.2734375 L25.9472656,20.2734375 L25.9472656,21.2421875 L24.2519531,21.2421875 L24.2519531,26 L23.0957031,26 Z" id="VOCT" fill="#000000"></path>
            </g>
        </g>
        <g id="Voice-3" transform="translate(77.000000, 38.000000)">
            <g id="Output" transform="translate(0.000000, 269.000000)">
                <rect id="Rectangle" fill="#1D1D1D" x="0" y="0" width="30" height="44" rx="4"></rect>
                <path d="M6.16601562,10 L7.30273438,5.71875 L8.44335938,10 L9.66992188,10 L11.0605469,4.2734375 L9.89648438,4.2734375 L9.01757812,8.2734375 L8.01367188,4.2734375 L6.63867188,4.2734375 L5.59179688,8.20703125 L4.72851562,4.2734375 L3.54492188,4.2734375 L4.91210938,10 L6.16601562,10 Z M11.8535156,10 L12.3261719,8.69921875 L14.6152344,8.69921875 L15.1152344,10 L16.3730469,10 L14.0800781,4.2734375 L12.8574219,4.2734375 L10.6269531,10 L11.8535156,10 Z M14.2441406,7.734375 L12.6816406,7.734375 L13.4550781,5.609375 L14.2441406,7.734375 Z M19.0878906,10 L21.1386719,4.2734375 L19.9121094,4.2734375 L18.5097656,8.51171875 L17.0605469,4.2734375 L15.8066406,4.2734375 L17.8535156,10 L19.0878906,10 Z M26.0839844,10 L26.0839844,9.03515625 L22.8847656,9.03515625 L22.8847656,7.4765625 L25.7597656,7.4765625 L25.7597656,6.51171875 L22.8847656,6.51171875 L22.8847656,5.2421875 L25.9746094,5.2421875 L25.9746094,4.2734375 L21.7285156,4.2734375 L21.7285156,10 L26.0839844,10 Z" id="WAVE" fill="#FFFFFF" fill-rule="nonzero"></path>
            </g>
            <g id="Shape" transform="translate(0.000000, 229.000000)" fill="#000000" fill-rule="nonzero">
                <path d="M3.87109375,7.1015625 C4.36848958,7.1015625 4.78385417,7.03190104 5.1171875,6.89257812 C5.45052083,6.75325521 5.70833333,6.54036458 5.890625,6.25390625 C6.07291667,5.96744792 6.1640625,5.66015625 6.1640625,5.33203125 C6.1640625,4.97005208 6.08789062,4.66601562 5.93554688,4.41992188 C5.78320312,4.17382812 5.57226562,3.97981771 5.30273438,3.83789062 C5.03320312,3.69596354 4.6171875,3.55859375 4.0546875,3.42578125 C3.4921875,3.29296875 3.13802083,3.16536458 2.9921875,3.04296875 C2.87760417,2.94661458 2.8203125,2.83072917 2.8203125,2.6953125 C2.8203125,2.546875 2.88151042,2.42838542 3.00390625,2.33984375 C3.19401042,2.20182292 3.45703125,2.1328125 3.79296875,2.1328125 C4.11848958,2.1328125 4.36263021,2.19726562 4.52539062,2.32617188 C4.68815104,2.45507812 4.79427083,2.66666667 4.84375,2.9609375 L4.84375,2.9609375 L6,2.91015625 C5.98177083,2.38411458 5.79101562,1.96354167 5.42773438,1.6484375 C5.06445312,1.33333333 4.5234375,1.17578125 3.8046875,1.17578125 C3.36458333,1.17578125 2.98893229,1.2421875 2.67773438,1.375 C2.36653646,1.5078125 2.12825521,1.70117188 1.96289062,1.95507812 C1.79752604,2.20898438 1.71484375,2.48177083 1.71484375,2.7734375 C1.71484375,3.2265625 1.890625,3.61067708 2.2421875,3.92578125 C2.4921875,4.14973958 2.92708333,4.33854167 3.546875,4.4921875 C4.02864583,4.61197917 4.33723958,4.6953125 4.47265625,4.7421875 C4.67057292,4.8125 4.80924479,4.89518229 4.88867188,4.99023438 C4.96809896,5.08528646 5.0078125,5.20052083 5.0078125,5.3359375 C5.0078125,5.546875 4.91341146,5.73111979 4.72460938,5.88867188 C4.53580729,6.04622396 4.25520833,6.125 3.8828125,6.125 C3.53125,6.125 3.25195312,6.03645833 3.04492188,5.859375 C2.83789062,5.68229167 2.70052083,5.40494792 2.6328125,5.02734375 L2.6328125,5.02734375 L1.5078125,5.13671875 C1.58333333,5.77734375 1.81510417,6.26497396 2.203125,6.59960938 C2.59114583,6.93424479 3.14713542,7.1015625 3.87109375,7.1015625 Z M8.296875,7 L8.296875,4.49609375 L10.5625,4.49609375 L10.5625,7 L11.71875,7 L11.71875,1.2734375 L10.5625,1.2734375 L10.5625,3.52734375 L8.296875,3.52734375 L8.296875,1.2734375 L7.140625,1.2734375 L7.140625,7 L8.296875,7 Z M13.5585938,7 L14.03125,5.69921875 L16.3203125,5.69921875 L16.8203125,7 L18.078125,7 L15.7851562,1.2734375 L14.5625,1.2734375 L12.3320312,7 L13.5585938,7 Z M15.9492188,4.734375 L14.3867188,4.734375 L15.1601562,2.609375 L15.9492188,4.734375 Z M19.8476562,7 L19.8476562,4.83984375 L20.6015625,4.83984375 C21.125,4.83984375 21.5247396,4.8125 21.8007812,4.7578125 C22.0039062,4.71354167 22.203776,4.62304688 22.4003906,4.48632812 C22.5970052,4.34960938 22.7591146,4.16145833 22.8867188,3.921875 C23.0143229,3.68229167 23.078125,3.38671875 23.078125,3.03515625 C23.078125,2.57942708 22.9674479,2.20768229 22.7460938,1.91992188 C22.5247396,1.63216146 22.25,1.4453125 21.921875,1.359375 C21.7083333,1.30208333 21.25,1.2734375 20.546875,1.2734375 L20.546875,1.2734375 L18.6914062,1.2734375 L18.6914062,7 L19.8476562,7 Z M20.4804688,3.8671875 L19.8476562,3.8671875 L19.8476562,2.2421875 L20.5762915,2.24298469 C20.8993144,2.24617347 21.1199777,2.25892857 21.2382812,2.28125 C21.4257812,2.31510417 21.5807292,2.39973958 21.703125,2.53515625 C21.8255208,2.67057292 21.8867188,2.84244792 21.8867188,3.05078125 C21.8867188,3.22005208 21.843099,3.36848958 21.7558594,3.49609375 C21.6686198,3.62369792 21.5481771,3.71744792 21.3945312,3.77734375 C21.2408854,3.83723958 20.9361979,3.8671875 20.4804688,3.8671875 L20.4804688,3.8671875 Z M28.3828125,7 L28.3828125,6.03515625 L25.1835938,6.03515625 L25.1835938,4.4765625 L28.0585938,4.4765625 L28.0585938,3.51171875 L25.1835938,3.51171875 L25.1835938,2.2421875 L28.2734375,2.2421875 L28.2734375,1.2734375 L24.0273438,1.2734375 L24.0273438,7 L28.3828125,7 Z" id="SHAPE"></path>
            </g>
            <g id="Amplifier" transform="translate(0.000000, 139.000000)" fill-rule="nonzero">
                <path d="M15.5,0 L13.5,0 L13.5,3 L15.5,3 L15.5,0 Z M15.5,4 L13.5,4 L13.5,7 L15.5,7 L15.5,4 Z M15.5,8 L13.5,8 L13.5,11 L15.5,11 L15.5,8 Z M15.5,12 L13.5,12 L13.5,15 L15.5,15 L15.5,12 Z M15.5,16 L13.5,16 L13.5,19 L15.5,19 L15.5,16 Z M15.5,20 L13.5,20 L13.5,23 L15.5,23 L15.5,20 Z M15.5,24 L13.5,24 L13.5,27 L15.5,27 L15.5,24 Z M15.5,28 L13.5,28 L13.5,31 L15.5,31 L15.5,28 Z M15.5,32 L13.5,32 L13.5,35 L15.5,35 L15.5,32 Z M15.5,36 L13.5,36 L13.5,39 L15.5,39 L15.5,36 Z M15.5,40 L13.5,40 L13.5,43 L15.5,43 L15.5,40 Z" id="Line-Copy-15" fill="#E6E6E6"></path>
                <path d="M11.8574219,26 L10.5996094,26 L10.0996094,24.6992188 L7.81054688,24.6992188 L7.33789062,26 L6.11132812,26 L8.34179688,20.2734375 L9.56445312,20.2734375 L11.8574219,26 Z M9.72851562,23.734375 L8.93945312,21.609375 L8.16601562,23.734375 L9.72851562,23.734375 Z M14.1855469,20.2734375 L15.2246094,24.1796875 L16.2519531,20.2734375 L17.9863281,20.2734375 L17.9863281,26 L16.9121094,26 L16.9121094,21.4921875 L15.7753906,26 L14.6621094,26 L13.5292969,21.4921875 L13.5292969,26 L12.4550781,26 L12.4550781,20.2734375 L14.1855469,20.2734375 Z M20.9902344,20.2734375 C21.6933629,20.2734375 22.1516916,20.302083 22.3652344,20.359375 C22.693361,20.4453129 22.9680979,20.63216 23.1894531,20.9199219 C23.4108084,21.2076837 23.5214844,21.5794248 23.5214844,22.0351562 C23.5214844,22.3867205 23.4576829,22.6822905 23.3300781,22.921875 C23.2024733,23.1614595 23.0403656,23.3496087 22.84375,23.4863281 C22.6471344,23.6230476 22.4472666,23.7135414 22.2441406,23.7578125 C22.0075323,23.8046877 21.6800478,23.8314733 21.2616796,23.8381697 L20.2910156,23.8398438 L20.2910156,26 L19.1347656,26 L19.1347656,20.2734375 L20.9902344,20.2734375 Z M20.8496094,21.2421875 L20.2910156,21.2421875 L20.2910156,22.8671875 L20.9238281,22.8671875 C21.3795596,22.8671875 21.684244,22.8372399 21.8378906,22.7773438 C21.9915372,22.7174476 22.1119787,22.6236986 22.1992188,22.4960938 C22.2864588,22.3684889 22.3300781,22.2200529 22.3300781,22.0507812 C22.3300781,21.8424469 22.2688808,21.6705736 22.1464844,21.5351562 C22.0240879,21.3997389 21.8691416,21.3151043 21.6816406,21.28125 C21.5436191,21.2552082 21.2662781,21.2421875 20.8496094,21.2421875 Z" id="AMP" fill="#000000"></path>
            </g>
            <g id="Frequency-Mod" transform="translate(0.000000, 72.000000)" fill-rule="nonzero">
                <path d="M15.5,0.5 L13.5,0.5 L13.5,3.5 L15.5,3.5 L15.5,0.5 Z M15.5,4.5 L13.5,4.5 L13.5,7.5 L15.5,7.5 L15.5,4.5 Z M15.5,8.5 L13.5,8.5 L13.5,11.5 L15.5,11.5 L15.5,8.5 Z M15.5,12.5 L13.5,12.5 L13.5,15.5 L15.5,15.5 L15.5,12.5 Z M15.5,16.5 L13.5,16.5 L13.5,19.5 L15.5,19.5 L15.5,16.5 Z M15.5,20.5 L13.5,20.5 L13.5,23.5 L15.5,23.5 L15.5,20.5 Z M15.5,24.5 L13.5,24.5 L13.5,27.5 L15.5,27.5 L15.5,24.5 Z M15.5,28.5 L13.5,28.5 L13.5,31.5 L15.5,31.5 L15.5,28.5 Z" id="Line-Copy-7" fill="#E6E6E6"></path>
                <path d="M15.4492188,19.1757812 C16.292973,19.1757812 16.9680964,19.4374974 17.4746094,19.9609375 C17.9811223,20.4843776 18.234375,21.2122349 18.234375,22.1445312 C18.234375,23.069015 17.9830754,23.7923151 17.4804688,24.3144531 C16.9778621,24.8365912 16.3059938,25.0976562 15.4648438,25.0976562 C14.613277,25.0976562 13.9362004,24.8378932 13.4335938,24.3183594 C12.9309871,23.7988255 12.6796875,23.0833379 12.6796875,22.171875 C12.6796875,21.5885387 12.7669262,21.0989603 12.9414062,20.703125 C13.0716152,20.4114569 13.2493478,20.1497407 13.4746094,19.9179688 C13.6998709,19.6861968 13.9466132,19.5143235 14.2148438,19.4023438 C14.5716164,19.2513013 14.9830706,19.1757812 15.4492188,19.1757812 Z M7.96484375,19.2734375 L9.00390625,23.1796875 L10.03125,19.2734375 L11.765625,19.2734375 L11.765625,25 L10.6914062,25 L10.6914062,20.4921875 L9.5546875,25 L8.44140625,25 L7.30859375,20.4921875 L7.30859375,25 L6.234375,25 L6.234375,19.2734375 L7.96484375,19.2734375 Z M21.2460938,19.2734375 C21.7226586,19.2734375 22.0859362,19.3098955 22.3359375,19.3828125 C22.6718767,19.4817713 22.9596342,19.6575508 23.1992188,19.9101562 C23.4388033,20.1627617 23.6210931,20.4720034 23.7460938,20.8378906 C23.8710944,21.2037779 23.9335938,21.6549452 23.9335938,22.1914062 C23.9335938,22.6627628 23.8750006,23.0690087 23.7578125,23.4101562 C23.6145826,23.826825 23.4101576,24.1640612 23.1445312,24.421875 C22.9440094,24.6171885 22.6731788,24.7695307 22.3320312,24.8789062 C22.0768216,24.9596358 21.7356792,25 21.3085938,25 L19.1328125,25 L19.1328125,19.2734375 L21.2460938,19.2734375 Z M15.4609375,20.1640625 C14.9843726,20.1640625 14.6002619,20.3274723 14.3085938,20.6542969 C14.0169256,20.9811214 13.8710938,21.473955 13.8710938,22.1328125 C13.8710938,22.7812532 14.0208318,23.2727848 14.3203125,23.6074219 C14.6197932,23.942059 14.9999977,24.109375 15.4609375,24.109375 C15.9218773,24.109375 16.3001287,23.943361 16.5957031,23.6113281 C16.8912775,23.2792952 17.0390625,22.7812533 17.0390625,22.1171875 C17.0390625,21.4609342 16.8951837,20.9713558 16.6074219,20.6484375 C16.31966,20.3255192 15.9375024,20.1640625 15.4609375,20.1640625 Z M20.8085938,20.2421875 L20.2890625,20.2421875 L20.2890625,24.0351562 L21.1523438,24.0351562 C21.475262,24.0351562 21.7083326,24.0169273 21.8515625,23.9804688 C22.0390634,23.9335935 22.1946608,23.8541672 22.3183594,23.7421875 C22.4420579,23.6302078 22.5429684,23.4459648 22.6210938,23.1894531 C22.6992191,22.9329414 22.7382812,22.5833355 22.7382812,22.140625 C22.7382812,21.6979145 22.6992191,21.3580741 22.6210938,21.1210938 C22.5429684,20.8841134 22.4335945,20.6992194 22.2929688,20.5664062 C22.152343,20.4335931 21.9739594,20.3437502 21.7578125,20.296875 C21.5963534,20.2604165 21.2799503,20.2421875 20.8085938,20.2421875 Z" id="MOD" fill="#000000"></path>
            </g>
            <g id="Frequency" fill-rule="nonzero">
                <path d="M15.5,0 L13.5,0 L13.5,3 L15.5,3 L15.5,0 Z M15.5,4 L13.5,4 L13.5,7 L15.5,7 L15.5,4 Z M15.5,8 L13.5,8 L13.5,11 L15.5,11 L15.5,8 Z M15.5,12 L13.5,12 L13.5,15 L15.5,15 L15.5,12 Z M15.5,16 L13.5,16 L13.5,19 L15.5,19 L15.5,16 Z M15.5,20 L13.5,20 L13.5,23 L15.5,23 L15.5,20 Z M15.5,24 L13.5,24 L13.5,27 L15.5,27 L15.5,24 Z M15.5,28 L13.5,28 L13.5,31 L15.5,31 L15.5,28 Z M15.5,32 L13.5,32 L13.5,35 L15.5,35 L15.5,32 Z M15.5,36 L13.5,36 L13.5,39 L15.5,39 L15.5,36 Z" id="Line-Copy-11" fill="#E6E6E6"></path>
                <path d="M5.93164062,26 L3.88476562,20.2734375 L5.13867188,20.2734375 L6.58789062,24.5117188 L7.99023438,20.2734375 L9.21679688,20.2734375 L7.16601562,26 L5.93164062,26 Z M9.57226562,23.171875 C9.57226562,22.5885387 9.65950434,22.0989603 9.83398438,21.703125 C9.96419336,21.4114569 10.141926,21.1497407 10.3671875,20.9179688 C10.592449,20.6861968 10.8391914,20.5143235 11.1074219,20.4023438 C11.4641945,20.2513013 11.8756487,20.1757812 12.3417969,20.1757812 C13.1855511,20.1757812 13.8606746,20.4374974 14.3671875,20.9609375 C14.8737004,21.4843776 15.1269531,22.2122349 15.1269531,23.1445312 C15.1269531,24.069015 14.8756536,24.7923151 14.3730469,25.3144531 C13.8704402,25.8365912 13.1985719,26.0976562 12.3574219,26.0976562 C11.5058551,26.0976562 10.8287786,25.8378932 10.3261719,25.3183594 C9.8235652,24.7988255 9.57226562,24.0833379 9.57226562,23.171875 Z M10.7636719,23.1328125 C10.7636719,23.7812532 10.91341,24.2727848 11.2128906,24.6074219 C11.5123713,24.942059 11.8925758,25.109375 12.3535156,25.109375 C12.8144554,25.109375 13.1927069,24.943361 13.4882812,24.6113281 C13.7838556,24.2792952 13.9316406,23.7812533 13.9316406,23.1171875 C13.9316406,22.4609342 13.7877619,21.9713558 13.5,21.6484375 C13.2122381,21.3255192 12.8300805,21.1640625 12.3535156,21.1640625 C11.8769507,21.1640625 11.49284,21.3274723 11.2011719,21.6542969 C10.9095037,21.9811214 10.7636719,22.473955 10.7636719,23.1328125 Z M19.6933594,23.8945312 L20.8144531,24.25 C20.6425773,24.8750031 20.3567728,25.3391912 19.9570312,25.6425781 C19.5572897,25.9459651 19.0501333,26.0976562 18.4355469,26.0976562 C17.6751264,26.0976562 17.0501327,25.8378932 16.5605469,25.3183594 C16.0709611,24.7988255 15.8261719,24.0885462 15.8261719,23.1875 C15.8261719,22.2343702 16.0722632,21.4941433 16.5644531,20.9667969 C17.0566431,20.4394505 17.703772,20.1757812 18.5058594,20.1757812 C19.2063837,20.1757812 19.7753884,20.3828104 20.2128906,20.796875 C20.4733086,21.0416679 20.6686191,21.3932269 20.7988281,21.8515625 L19.6542969,22.125 C19.5865882,21.8281235 19.4453136,21.5937509 19.2304688,21.421875 C19.0156239,21.2499991 18.7545588,21.1640625 18.4472656,21.1640625 C18.0227843,21.1640625 17.6783867,21.3164047 17.4140625,21.6210938 C17.1497383,21.9257828 17.0175781,22.4192674 17.0175781,23.1015625 C17.0175781,23.8255245 17.1477852,24.3411443 17.4082031,24.6484375 C17.6686211,24.9557307 18.0071594,25.109375 18.4238281,25.109375 C18.7311213,25.109375 18.9954416,25.0117197 19.2167969,24.8164062 C19.4381521,24.6210928 19.5970047,24.3138042 19.6933594,23.8945312 Z M23.0957031,26 L23.0957031,21.2421875 L21.3964844,21.2421875 L21.3964844,20.2734375 L25.9472656,20.2734375 L25.9472656,21.2421875 L24.2519531,21.2421875 L24.2519531,26 L23.0957031,26 Z" id="VOCT" fill="#000000"></path>
            </g>
        </g>
        <g id="Voice-4" transform="translate(112.000000, 38.000000)">
            <g id="Output" transform="translate(0.000000, 269.000000)">
                <rect id="Rectangle" fill="#1D1D1D" x="0" y="0" width="30" height="44" rx="4"></rect>
                <path d="M6.16601562,10 L7.30273438,5.71875 L8.44335938,10 L9.66992188,10 L11.0605469,4.2734375 L9.89648438,4.2734375 L9.01757812,8.2734375 L8.01367188,4.2734375 L6.63867188,4.2734375 L5.59179688,8.20703125 L4.72851562,4.2734375 L3.54492188,4.2734375 L4.91210938,10 L6.16601562,10 Z M11.8535156,10 L12.3261719,8.69921875 L14.6152344,8.69921875 L15.1152344,10 L16.3730469,10 L14.0800781,4.2734375 L12.8574219,4.2734375 L10.6269531,10 L11.8535156,10 Z M14.2441406,7.734375 L12.6816406,7.734375 L13.4550781,5.609375 L14.2441406,7.734375 Z M19.0878906,10 L21.1386719,4.2734375 L19.9121094,4.2734375 L18.5097656,8.51171875 L17.0605469,4.2734375 L15.8066406,4.2734375 L17.8535156,10 L19.0878906,10 Z M26.0839844,10 L26.0839844,9.03515625 L22.8847656,9.03515625 L22.8847656,7.4765625 L25.7597656,7.4765625 L25.7597656,6.51171875 L22.8847656,6.51171875 L22.8847656,5.2421875 L25.9746094,5.2421875 L25.9746094,4.2734375 L21.7285156,4.2734375 L21.7285156,10 L26.0839844,10 Z" id="WAVE" fill="#FFFFFF" fill-rule="nonzero"></path>
            </g>
            <g id="Shape" transform="translate(0.000000, 229.000000)" fill="#000000" fill-rule="nonzero">
                <path d="M3.87109375,7.1015625 C4.36848958,7.1015625 4.78385417,7.03190104 5.1171875,6.89257812 C5.45052083,6.75325521 5.70833333,6.54036458 5.890625,6.25390625 C6.07291667,5.96744792 6.1640625,5.66015625 6.1640625,5.33203125 C6.1640625,4.97005208 6.08789062,4.66601562 5.93554688,4.41992188 C5.78320312,4.17382812 5.57226562,3.97981771 5.30273438,3.83789062 C5.03320312,3.69596354 4.6171875,3.55859375 4.0546875,3.42578125 C3.4921875,3.29296875 3.13802083,3.16536458 2.9921875,3.04296875 C2.87760417,2.94661458 2.8203125,2.83072917 2.8203125,2.6953125 C2.8203125,2.546875 2.88151042,2.42838542 3.00390625,2.33984375 C3.19401042,2.20182292 3.45703125,2.1328125 3.79296875,2.1328125 C4.11848958,2.1328125 4.36263021,2.19726562 4.52539062,2.32617188 C4.68815104,2.45507812 4.79427083,2.66666667 4.84375,2.9609375 L4.84375,2.9609375 L6,2.91015625 C5.98177083,2.38411458 5.79101562,1.96354167 5.42773438,1.6484375 C5.06445312,1.33333333 4.5234375,1.17578125 3.8046875,1.17578125 C3.36458333,1.17578125 2.98893229,1.2421875 2.67773438,1.375 C2.36653646,1.5078125 2.12825521,1.70117188 1.96289062,1.95507812 C1.79752604,2.20898438 1.71484375,2.48177083 1.71484375,2.7734375 C1.71484375,3.2265625 1.890625,3.61067708 2.2421875,3.92578125 C2.4921875,4.14973958 2.92708333,4.33854167 3.546875,4.4921875 C4.02864583,4.61197917 4.33723958,4.6953125 4.47265625,4.7421875 C4.67057292,4.8125 4.80924479,4.89518229 4.88867188,4.99023438 C4.96809896,5.08528646 5.0078125,5.20052083 5.0078125,5.3359375 C5.0078125,5.546875 4.91341146,5.73111979 4.72460938,5.88867188 C4.53580729,6.04622396 4.25520833,6.125 3.8828125,6.125 C3.53125,6.125 3.25195312,6.03645833 3.04492188,5.859375 C2.83789062,5.68229167 2.70052083,5.40494792 2.6328125,5.02734375 L2.6328125,5.02734375 L1.5078125,5.13671875 C1.58333333,5.77734375 1.81510417,6.26497396 2.203125,6.59960938 C2.59114583,6.93424479 3.14713542,7.1015625 3.87109375,7.1015625 Z M8.296875,7 L8.296875,4.49609375 L10.5625,4.49609375 L10.5625,7 L11.71875,7 L11.71875,1.2734375 L10.5625,1.2734375 L10.5625,3.52734375 L8.296875,3.52734375 L8.296875,1.2734375 L7.140625,1.2734375 L7.140625,7 L8.296875,7 Z M13.5585938,7 L14.03125,5.69921875 L16.3203125,5.69921875 L16.8203125,7 L18.078125,7 L15.7851562,1.2734375 L14.5625,1.2734375 L12.3320312,7 L13.5585938,7 Z M15.9492188,4.734375 L14.3867188,4.734375 L15.1601562,2.609375 L15.9492188,4.734375 Z M19.8476562,7 L19.8476562,4.83984375 L20.6015625,4.83984375 C21.125,4.83984375 21.5247396,4.8125 21.8007812,4.7578125 C22.0039062,4.71354167 22.203776,4.62304688 22.4003906,4.48632812 C22.5970052,4.34960938 22.7591146,4.16145833 22.8867188,3.921875 C23.0143229,3.68229167 23.078125,3.38671875 23.078125,3.03515625 C23.078125,2.57942708 22.9674479,2.20768229 22.7460938,1.91992188 C22.5247396,1.63216146 22.25,1.4453125 21.921875,1.359375 C21.7083333,1.30208333 21.25,1.2734375 20.546875,1.2734375 L20.546875,1.2734375 L18.6914062,1.2734375 L18.6914062,7 L19.8476562,7 Z M20.4804688,3.8671875 L19.8476562,3.8671875 L19.8476562,2.2421875 L20.5762915,2.24298469 C20.8993144,2.24617347 21.1199777,2.25892857 21.2382812,2.28125 C21.4257812,2.31510417 21.5807292,2.39973958 21.703125,2.53515625 C21.8255208,2.67057292 21.8867188,2.84244792 21.8867188,3.05078125 C21.8867188,3.22005208 21.843099,3.36848958 21.7558594,3.49609375 C21.6686198,3.62369792 21.5481771,3.71744792 21.3945312,3.77734375 C21.2408854,3.83723958 20.9361979,3.8671875 20.4804688,3.8671875 L20.4804688,3.8671875 Z M28.3828125,7 L28.3828125,6.03515625 L25.1835938,6.03515625 L25.1835938,4.4765625 L28.0585938,4.4765625 L28.0585938,3.51171875 L25.1835938,3.51171875 L25.1835938,2.2421875 L28.2734375,2.2421875 L28.2734375,1.2734375 L24.0273438,1.2734375 L24.0273438,7 L28.3828125,7 Z" id="SHAPE"></path>
            </g>
            <g id="Amplifier" transform="translate(0.000000, 139.000000)" fill-rule="nonzero">
                <path d="M15.5,0 L13.5,0 L13.5,3 L15.5,3 L15.5,0 Z M15.5,4 L13.5,4 L13.5,7 L15.5,7 L15.5,4 Z M15.5,8 L13.5,8 L13.5,11 L15.5,11 L15.5,8 Z M15.5,12 L13.5,12 L13.5,15 L15.5,15 L15.5,12 Z M15.5,16 L13.5,16 L13.5,19 L15.5,19 L15.5,16 Z M15.5,20 L13.5,20 L13.5,23 L15.5,23 L15.5,20 Z M15.5,24 L13.5,24 L13.5,27 L15.5,27 L15.5,24 Z M15.5,28 L13.5,28 L13.5,31 L15.5,31 L15.5,28 Z M15.5,32 L13.5,32 L13.5,35 L15.5,35 L15.5,32 Z M15.5,36 L13.5,36 L13.5,39 L15.5,39 L15.5,36 Z M15.5,40 L13.5,40 L13.5,43 L15.5,43 L15.5,40 Z" id="Line-Copy-15" fill="#E6E6E6"></path>
                <path d="M11.8574219,26 L10.5996094,26 L10.0996094,24.6992188 L7.81054688,24.6992188 L7.33789062,26 L6.11132812,26 L8.34179688,20.2734375 L9.56445312,20.2734375 L11.8574219,26 Z M9.72851562,23.734375 L8.93945312,21.609375 L8.16601562,23.734375 L9.72851562,23.734375 Z M14.1855469,20.2734375 L15.2246094,24.1796875 L16.2519531,20.2734375 L17.9863281,20.2734375 L17.9863281,26 L16.9121094,26 L16.9121094,21.4921875 L15.7753906,26 L14.6621094,26 L13.5292969,21.4921875 L13.5292969,26 L12.4550781,26 L12.4550781,20.2734375 L14.1855469,20.2734375 Z M20.9902344,20.2734375 C21.6933629,20.2734375 22.1516916,20.302083 22.3652344,20.359375 C22.693361,20.4453129 22.9680979,20.63216 23.1894531,20.9199219 C23.4108084,21.2076837 23.5214844,21.5794248 23.5214844,22.0351562 C23.5214844,22.3867205 23.4576829,22.6822905 23.3300781,22.921875 C23.2024733,23.1614595 23.0403656,23.3496087 22.84375,23.4863281 C22.6471344,23.6230476 22.4472666,23.7135414 22.2441406,23.7578125 C22.0075323,23.8046877 21.6800478,23.8314733 21.2616796,23.8381697 L20.2910156,23.8398438 L20.2910156,26 L19.1347656,26 L19.1347656,20.2734375 L20.9902344,20.2734375 Z M20.8496094,21.2421875 L20.2910156,21.2421875 L20.2910156,22.8671875 L20.9238281,22.8671875 C21.3795596,22.8671875 21.684244,22.8372399 21.8378906,22.7773438 C21.9915372,22.7174476 22.1119787,22.6236986 22.1992188,22.4960938 C22.2864588,22.3684889 22.3300781,22.2200529 22.3300781,22.0507812 C22.3300781,21.8424469 22.2688808,21.6705736 22.1464844,21.5351562 C22.0240879,21.3997389 21.8691416,21.3151043 21.6816406,21.28125 C21.5436191,21.2552082 21.2662781,21.2421875 20.8496094,21.2421875 Z" id="AMP" fill="#000000"></path>
            </g>
            <g id="Frequency-Mod" transform="translate(0.000000, 72.000000)" fill-rule="nonzero">
                <path d="M15.5,0.5 L13.5,0.5 L13.5,3.5 L15.5,3.5 L15.5,0.5 Z M15.5,4.5 L13.5,4.5 L13.5,7.5 L15.5,7.5 L15.5,4.5 Z M15.5,8.5 L13.5,8.5 L13.5,11.5 L15.5,11.5 L15.5,8.5 Z M15.5,12.5 L13.5,12.5 L13.5,15.5 L15.5,15.5 L15.5,12.5 Z M15.5,16.5 L13.5,16.5 L13.5,19.5 L15.5,19.5 L15.5,16.5 Z M15.5,20.5 L13.5,20.5 L13.5,23.5 L15.5,23.5 L15.5,20.5 Z M15.5,24.5 L13.5,24.5 L13.5,27.5 L15.5,27.5 L15.5,24.5 Z M15.5,28.5 L13.5,28.5 L13.5,31.5 L15.5,31.5 L15.5,28.5 Z" id="Line-Copy-7" fill="#E6E6E6"></path>
                <path d="M15.4492188,19.1757812 C16.292973,19.1757812 16.9680964,19.4374974 17.4746094,19.9609375 C17.9811223,20.4843776 18.234375,21.2122349 18.234375,22.1445312 C18.234375,23.069015 17.9830754,23.7923151 17.4804688,24.3144531 C16.9778621,24.8365912 16.3059938,25.0976562 15.4648438,25.0976562 C14.613277,25.0976562 13.9362004,24.8378932 13.4335938,24.3183594 C12.9309871,23.7988255 12.6796875,23.0833379 12.6796875,22.171875 C12.6796875,21.5885387 12.7669262,21.0989603 12.9414062,20.703125 C13.0716152,20.4114569 13.2493478,20.1497407 13.4746094,19.9179688 C13.6998709,19.6861968 13.9466132,19.5143235 14.2148438,19.4023438 C14.5716164,19.2513013 14.9830706,19.1757812 15.4492188,19.1757812 Z M7.96484375,19.2734375 L9.00390625,23.1796875 L10.03125,19.2734375 L11.765625,19.2734375 L11.765625,25 L10.6914062,25 L10.6914062,20.4921875 L9.5546875,25 L8.44140625,25 L7.30859375,20.4921875 L7.30859375,25 L6.234375,25 L6.234375,19.2734375 L7.96484375,19.2734375 Z M21.2460938,19.2734375 C21.7226586,19.2734375 22.0859362,19.3098955 22.3359375,19.3828125 C22.6718767,19.4817713 22.9596342,19.6575508 23.1992188,19.9101562 C23.4388033,20.1627617 23.6210931,20.4720034 23.7460938,20.8378906 C23.8710944,21.2037779 23.9335938,21.6549452 23.9335938,22.1914062 C23.9335938,22.6627628 23.8750006,23.0690087 23.7578125,23.4101562 C23.6145826,23.826825 23.4101576,24.1640612 23.1445312,24.421875 C22.9440094,24.6171885 22.6731788,24.7695307 22.3320312,24.8789062 C22.0768216,24.9596358 21.7356792,25 21.3085938,25 L19.1328125,25 L19.1328125,19.2734375 L21.2460938,19.2734375 Z M15.4609375,20.1640625 C14.9843726,20.1640625 14.6002619,20.3274723 14.3085938,20.6542969 C14.0169256,20.9811214 13.8710938,21.473955 13.8710938,22.1328125 C13.8710938,22.7812532 14.0208318,23.2727848 14.3203125,23.6074219 C14.6197932,23.942059 14.9999977,24.109375 15.4609375,24.109375 C15.9218773,24.109375 16.3001287,23.943361 16.5957031,23.6113281 C16.8912775,23.2792952 17.0390625,22.7812533 17.0390625,22.1171875 C17.0390625,21.4609342 16.8951837,20.9713558 16.6074219,20.6484375 C16.31966,20.3255192 15.9375024,20.1640625 15.4609375,20.1640625 Z M20.8085938,20.2421875 L20.2890625,20.2421875 L20.2890625,24.0351562 L21.1523438,24.0351562 C21.475262,24.0351562 21.7083326,24.0169273 21.8515625,23.9804688 C22.0390634,23.9335935 22.1946608,23.8541672 22.3183594,23.7421875 C22.4420579,23.6302078 22.5429684,23.4459648 22.6210938,23.1894531 C22.6992191,22.9329414 22.7382812,22.5833355 22.7382812,22.140625 C22.7382812,21.6979145 22.6992191,21.3580741 22.6210938,21.1210938 C22.5429684,20.8841134 22.4335945,20.6992194 22.2929688,20.5664062 C22.152343,20.4335931 21.9739594,20.3437502 21.7578125,20.296875 C21.5963534,20.2604165 21.2799503,20.2421875 20.8085938,20.2421875 Z" id="MOD" fill="#000000"></path>
            </g>
            <g id="Frequency" fill-rule="nonzero">
                <path d="M15.5,0 L13.5,0 L13.5,3 L15.5,3 L15.5,0 Z M15.5,4 L13.5,4 L13.5,7 L15.5,7 L15.5,4 Z M15.5,8 L13.5,8 L13.5,11 L15.5,11 L15.5,8 Z M15.5,12 L13.5,12 L13.5,15 L15.5,15 L15.5,12 Z M15.5,16 L13.5,16 L13.5,19 L15.5,19 L15.5,16 Z M15.5,20 L13.5,20 L13.5,23 L15.5,23 L15.5,20 Z M15.5,24 L13.5,24 L13.5,27 L15.5,27 L15.5,24 Z M15.5,28 L13.5,28 L13.5,31 L15.5,31 L15.5,28 Z M15.5,32 L13.5,32 L13.5,35 L15.5,35 L15.5,32 Z M15.5,36 L13.5,36 L13.5,39 L15.5,39 L15.5,36 Z" id="Line-Copy-11" fill="#E6E6E6"></path>
                <path d="M5.93164062,26 L3.88476562,20.2734375 L5.13867188,20.2734375 L6.58789062,24.5117188 L7.99023438,20.2734375 L9.21679688,20.2734375 L7.16601562,26 L5.93164062,26 Z M9.57226562,23.171875 C9.57226562,22.5885387 9.65950434,22.0989603 9.83398438,21.703125 C9.96419336,21.4114569 10.141926,21.1497407 10.3671875,20.9179688 C10.592449,20.6861968 10.8391914,20.5143235 11.1074219,20.4023438 C11.4641945,20.2513013 11.8756487,20.1757812 12.3417969,20.1757812 C13.1855511,20.1757812 13.8606746,20.4374974 14.3671875,20.9609375 C14.8737004,21.4843776 15.1269531,22.2122349 15.1269531,23.1445312 C15.1269531,24.069015 14.8756536,24.7923151 14.3730469,25.3144531 C13.8704402,25.8365912 13.1985719,26.0976562 12.3574219,26.0976562 C11.5058551,26.0976562 10.8287786,25.8378932 10.3261719,25.3183594 C9.8235652,24.7988255 9.57226562,24.0833379 9.57226562,23.171875 Z M10.7636719,23.1328125 C10.7636719,23.7812532 10.91341,24.2727848 11.2128906,24.6074219 C11.5123713,24.942059 11.8925758,25.109375 12.3535156,25.109375 C12.8144554,25.109375 13.1927069,24.943361 13.4882812,24.6113281 C13.7838556,24.2792952 13.9316406,23.7812533 13.9316406,23.1171875 C13.9316406,22.4609342 13.7877619,21.9713558 13.5,21.6484375 C13.2122381,21.3255192 12.8300805,21.1640625 12.3535156,21.1640625 C11.8769507,21.1640625 11.49284,21.3274723 11.2011719,21.6542969 C10.9095037,21.9811214 10.7636719,22.473955 10.7636719,23.1328125 Z M19.6933594,23.8945312 L20.8144531,24.25 C20.6425773,24.8750031 20.3567728,25.3391912 19.9570312,25.6425781 C19.5572897,25.9459651 19.0501333,26.0976562 18.4355469,26.0976562 C17.6751264,26.0976562 17.0501327,25.8378932 16.5605469,25.3183594 C16.0709611,24.7988255 15.8261719,24.0885462 15.8261719,23.1875 C15.8261719,22.2343702 16.0722632,21.4941433 16.5644531,20.9667969 C17.0566431,20.4394505 17.703772,20.1757812 18.5058594,20.1757812 C19.2063837,20.1757812 19.7753884,20.3828104 20.2128906,20.796875 C20.4733086,21.0416679 20.6686191,21.3932269 20.7988281,21.8515625 L19.6542969,22.125 C19.5865882,21.8281235 19.4453136,21.5937509 19.2304688,21.421875 C19.0156239,21.2499991 18.7545588,21.1640625 18.4472656,21.1640625 C18.0227843,21.1640625 17.6783867,21.3164047 17.4140625,21.6210938 C17.1497383,21.9257828 17.0175781,22.4192674 17.0175781,23.1015625 C17.0175781,23.8255245 17.1477852,24.3411443 17.4082031,24.6484375 C17.6686211,24.9557307 18.0071594,25.109375 18.4238281,25.109375 C18.7311213,25.109375 18.9954416,25.0117197 19.2167969,24.8164062 C19.4381521,24.6210928 19.5970047,24.3138042 19.6933594,23.8945312 Z M23.0957031,26 L23.0957031,21.2421875 L21.3964844,21.2421875 L21.3964844,20.2734375 L25.9472656,20.2734375 L25.9472656,21.2421875 L24.2519531,21.2421875 L24.2519531,26 L23.0957031,26 Z" id="VOCT" fill="#000000"></path>
            </g>
        </g>
    </g>
</svg>