<?xml version="1.0" encoding="UTF-8"?>
<svg width="480px" height="380px" viewBox="0 0 480 380" version="1.1" xmlns="http://www.w3.org/2000/svg" xmlns:xlink="http://www.w3.org/1999/xlink">
    <!-- Generator: Sketch 58 (84663) - https://sketch.com -->
    <title>2612-Envelope</title>
    <desc>Created with Sketch.</desc>
    <g id="2612-Envelope" stroke="none" stroke-width="1" fill="none" fill-rule="evenodd">
        <rect id="Rectangle" fill="#1D1D1D" x="0" y="0" width="480" height="380"></rect>
        <g id="Logo/Panel/DarkMode" transform="translate(207.000000, 364.000000)" fill="#FFFFFF" fill-rule="nonzero">
            <g id="Logo/Print/DarkMode">
                <path d="M2.01990525,2.5075431 L3.49310173,2.5075431 L3.49310173,5.45096983 L6.2595994,2.5075431 L8.19468916,2.5075431 L5.25802028,5.45096983 L8.34541223,9.65517241 L6.42004654,9.65517241 L4.20782081,6.53232759 L3.49310173,7.26454741 L3.49310173,9.65517241 L2.01990525,9.65517241 L2.01990525,2.5075431 Z M11.9968002,7.08512931 C11.9092831,7.14008648 11.8209571,7.18453647 11.7318193,7.2184806 C11.6426816,7.25242474 11.5203216,7.28394382 11.3647357,7.31303879 L11.0535655,7.37122845 C10.761842,7.42295284 10.5527766,7.48599101 10.426363,7.56034483 C10.2124324,7.68642304 10.1054688,7.88200298 10.1054688,8.14709052 C10.1054688,8.38308308 10.1711056,8.55360939 10.3023812,8.65867457 C10.4336567,8.76373975 10.5932919,8.81627155 10.7812916,8.81627155 C11.0794978,8.81627155 11.3542,8.72898794 11.6054064,8.5544181 C11.8566128,8.37984827 11.9870761,8.06142473 11.9968002,7.59913793 L11.9968002,7.08512931 Z M11.1556682,6.44019397 C11.4117354,6.40786622 11.5948715,6.36745714 11.7050781,6.31896552 C11.9028019,6.23491337 12.0016622,6.10398796 12.0016622,5.92618534 C12.0016622,5.70958943 11.9263015,5.56007584 11.7755776,5.47764009 C11.6248538,5.39520433 11.4036334,5.35398707 11.1119099,5.35398707 C10.7845313,5.35398707 10.5527766,5.43480523 10.416639,5.59644397 C10.3193978,5.71605663 10.2545713,5.87769295 10.2221576,6.08135776 L8.88509807,6.08135776 C8.91427043,5.61907096 9.04392338,5.23922562 9.27406084,4.94181034 C9.64033594,4.47629078 10.2691528,4.24353448 11.1605303,4.24353448 C11.7407359,4.24353448 12.2561065,4.35829627 12.7066572,4.58782328 C13.157208,4.81735029 13.3824801,5.25053561 13.3824801,5.88739224 L13.3824801,8.31196121 C13.3824801,8.4800655 13.3857214,8.68372725 13.3922041,8.92295259 C13.4019282,9.10398797 13.4294795,9.22683157 13.4748587,9.29148707 C13.5202379,9.35614256 13.5883057,9.40948255 13.6790642,9.45150862 L13.6790642,9.65517241 L12.1718334,9.65517241 C12.1296956,9.54849085 12.1005237,9.44827633 12.0843168,9.35452586 C12.06811,9.26077539 12.0551447,9.15409543 12.0454205,9.03448276 C11.8541796,9.24138034 11.6337695,9.41756393 11.3841838,9.56303879 C11.0859776,9.73437586 10.7488799,9.8200431 10.3728807,9.8200431 C9.89315751,9.8200431 9.49690565,9.68346042 9.1841132,9.41029095 C8.87132074,9.13712148 8.71492686,8.75000251 8.71492686,8.24892241 C8.71492686,7.59913468 8.96612947,7.12877301 9.46854222,6.83782328 C9.74405889,6.67941731 10.1492244,6.56627189 10.6840509,6.49838362 L11.1556682,6.44019397 Z M15.9933926,4.36961207 L15.9933926,7.55549569 C15.9933926,7.85614374 16.0290472,8.08243459 16.1003574,8.234375 C16.2267709,8.50269531 16.4747322,8.63685345 16.8442487,8.63685345 C17.3174891,8.63685345 17.6416215,8.4461226 17.8166556,8.06465517 C17.907414,7.85775759 17.9527926,7.58459221 17.9527926,7.24515086 L17.9527926,4.36961207 L19.3579205,4.36961207 L19.3579205,9.65517241 L18.011137,9.65517241 L18.011137,8.90840517 L17.9942171,8.93168099 C17.9769731,8.95657315 17.9501996,8.99730575 17.9138963,9.05387931 C17.8620343,9.13469868 17.8004492,9.20581866 17.729139,9.26724138 C17.511967,9.46120787 17.3020913,9.59374964 17.0995055,9.66487069 C16.8969197,9.73599173 16.6594927,9.77155172 16.3872174,9.77155172 C15.6028053,9.77155172 15.0744694,9.49030454 14.8021941,8.92780172 C14.6498496,8.61745534 14.5736785,8.16002457 14.5736785,7.55549569 L14.5736785,4.36961207 L15.9933926,4.36961207 Z M20.1504322,5.40247845 L20.1504322,4.41810345 L20.8894614,4.41810345 L20.8894614,2.94396552 L22.2605552,2.94396552 L22.2605552,4.41810345 L23.1211353,4.41810345 L23.1211353,5.40247845 L22.2605552,5.40247845 L22.2605552,8.1955819 C22.2605552,8.41217781 22.2881064,8.54714413 22.3432098,8.60048491 C22.3983131,8.6538257 22.566862,8.68049569 22.8488614,8.68049569 C22.8909992,8.68049569 22.9355674,8.67968751 22.9825673,8.67807112 C23.0295672,8.67645473 23.0757561,8.67403019 23.1211353,8.67079741 L23.1211353,9.70366379 L22.4647606,9.72790948 C21.8100034,9.75053891 21.3627007,9.63739349 21.1228391,9.38846983 C20.9672532,9.23006386 20.8894614,8.98599303 20.8894614,8.65625 L20.8894614,5.40247845 L20.1504322,5.40247845 Z M26.1015625,5.36853448 C25.7806666,5.36853448 25.531895,5.468749 25.3552402,5.66918103 C25.1785854,5.86961307 25.06757,6.14116208 25.0221908,6.48383621 L27.1760721,6.48383621 C27.1533825,6.11853266 27.0423672,5.84132638 26.8430228,5.65220905 C26.6436784,5.46309173 26.3965274,5.36853448 26.1015625,5.36853448 Z M26.1015625,4.22898707 C26.5423892,4.22898707 26.9394514,4.31142159 27.292761,4.4762931 C27.6460706,4.64116462 27.9377897,4.90139908 28.1679272,5.25700431 C28.375375,5.57058346 28.50989,5.93426517 28.5714761,6.34806034 C28.6071312,6.59051845 28.6217171,6.93965289 28.6152344,7.39547414 L24.9881566,7.39547414 C25.0076048,7.9256492 25.174533,8.29741273 25.4889461,8.51077586 C25.6801871,8.64331963 25.9103211,8.70959052 26.1793551,8.70959052 C26.4645958,8.70959052 26.6963505,8.62877236 26.874626,8.46713362 C26.9718672,8.3798487 27.0577623,8.25862147 27.1323138,8.10344828 L28.5471659,8.10344828 C28.5115108,8.41702743 28.3478239,8.73545097 28.0561004,9.05872845 C27.6023082,9.57273964 26.9670087,9.82974138 26.1501828,9.82974138 C25.4759773,9.82974138 24.8811944,9.61314872 24.3658162,9.1799569 C23.8504379,8.74676508 23.5927527,8.04203074 23.5927527,7.06573276 C23.5927527,6.15085749 23.8253177,5.44935589 24.2904546,4.9612069 C24.7555916,4.4730579 25.3592882,4.22898707 26.1015625,4.22898707 Z M32.4854139,4.24353448 C33.0332059,4.24353448 33.4813189,4.38658262 33.8297665,4.67268319 C34.178214,4.95878376 34.3524352,5.43318634 34.3524352,6.09590517 L34.3524352,9.65517241 L32.9327211,9.65517241 L32.9327211,6.44019397 C32.9327211,6.16217533 32.8954459,5.9488154 32.8208943,5.80010776 C32.6847566,5.52855468 32.4254507,5.39278017 32.0429688,5.39278017 C31.5729697,5.39278017 31.250458,5.59159284 31.0754239,5.98922414 C30.9846654,6.1993545 30.9392869,6.46767078 30.9392869,6.79418103 L30.9392869,9.65517241 L29.5584691,9.65517241 L29.5584691,4.37931034 L30.8955286,4.37931034 L30.8955286,5.15032328 C31.0738041,4.87877019 31.2423529,4.68319025 31.4011802,4.56357759 C31.686421,4.35021445 32.0478286,4.24353448 32.4854139,4.24353448 Z M37.0800366,3.73922414 L35.6943567,3.73922414 L35.6943567,2.46390086 L37.0800366,2.46390086 L37.0800366,3.73922414 Z M35.028258,11.7742457 L35.028258,10.6686422 L35.1803485,10.6800453 L35.1803485,10.6800453 L35.1935672,10.6807651 C35.2259809,10.6823815 35.2551528,10.6831897 35.2810838,10.6831897 C35.4172214,10.6831897 35.5201335,10.6500542 35.589823,10.5837823 C35.6595125,10.5175104 35.6943567,10.3890096 35.6943567,10.1982759 L35.6943567,4.39385776 L37.0800366,4.39385776 L37.0800366,10.2225216 C37.0800366,10.7559294 36.9746935,11.150322 36.7640043,11.4057112 C36.5601115,11.6528621 36.166498,11.780422 35.5831525,11.7883945 L35.5241855,11.7887931 C35.5001067,11.7887931 35.4694132,11.7882653 35.4321046,11.7872097 L35.1288725,11.7770166 C35.0969882,11.776093 35.06345,11.7751693 35.028258,11.7742457 Z M41.3197307,7.08512931 C41.2322137,7.14008648 41.1438876,7.18453647 41.0547498,7.2184806 C40.9656121,7.25242474 40.8432521,7.28394382 40.6876662,7.31303879 L40.376496,7.37122845 C40.0847725,7.42295284 39.8757071,7.48599101 39.7492936,7.56034483 C39.535363,7.68642304 39.4283993,7.88200298 39.4283993,8.14709052 C39.4283993,8.38308308 39.4940361,8.55360939 39.6253117,8.65867457 C39.7565873,8.76373975 39.9162225,8.81627155 40.1042221,8.81627155 C40.4024284,8.81627155 40.6771306,8.72898794 40.9283369,8.5544181 C41.1795433,8.37984827 41.3100066,8.06142473 41.3197307,7.59913793 L41.3197307,7.08512931 Z M40.4785987,6.44019397 C40.7346659,6.40786622 40.917802,6.36745714 41.0280086,6.31896552 C41.2257324,6.23491337 41.3245928,6.10398796 41.3245928,5.92618534 C41.3245928,5.70958943 41.249232,5.56007584 41.0985081,5.47764009 C40.9477843,5.39520433 40.726564,5.35398707 40.4348404,5.35398707 C40.1074618,5.35398707 39.8757071,5.43480523 39.7395695,5.59644397 C39.6423283,5.71605663 39.5775018,5.87769295 39.5450881,6.08135776 L38.2080286,6.08135776 C38.2372009,5.61907096 38.3668539,5.23922562 38.5969914,4.94181034 C38.9632665,4.47629078 39.5920833,4.24353448 40.4834608,4.24353448 C41.0636665,4.24353448 41.579037,4.35829627 42.0295878,4.58782328 C42.4801386,4.81735029 42.7054106,5.25053561 42.7054106,5.88739224 L42.7054106,8.31196121 C42.7054106,8.4800655 42.7086519,8.68372725 42.7151346,8.92295259 C42.7248588,9.10398797 42.75241,9.22683157 42.7977892,9.29148707 C42.8431684,9.35614256 42.9112362,9.40948255 43.0019947,9.45150862 L43.0019947,9.65517241 L41.494764,9.65517241 C41.4526261,9.54849085 41.4234542,9.44827633 41.4072473,9.35452586 C41.3910405,9.26077539 41.3780752,9.15409543 41.3683511,9.03448276 C41.1771101,9.24138034 40.9567001,9.41756393 40.7071144,9.56303879 C40.4089081,9.73437586 40.0718104,9.8200431 39.6958112,9.8200431 C39.216088,9.8200431 38.8198362,9.68346042 38.5070437,9.41029095 C38.1942513,9.13712148 38.0378574,8.75000251 38.0378574,8.24892241 C38.0378574,7.59913468 38.28906,7.12877301 38.7914727,6.83782328 C39.0669894,6.67941731 39.4721549,6.56627189 40.0069814,6.49838362 L40.4785987,6.44019397 Z M45.5010805,3.74892241 L45.5010805,8.4137931 L46.8818983,8.4137931 C47.5885175,8.4137931 48.0811987,8.06627503 48.3599568,7.37122845 C48.5123013,6.98976102 48.5884724,6.53556298 48.5884724,6.00862069 C48.5884724,5.28124636 48.4742157,4.7227929 48.245699,4.33324353 C48.0171822,3.94369417 47.5625865,3.74892241 46.8818983,3.74892241 L45.5010805,3.74892241 Z M47.1347241,2.5075431 C47.5787921,2.51400865 47.948303,2.56573227 48.243268,2.66271552 C48.7456807,2.82758703 49.1524669,3.12984694 49.4636386,3.56950431 C49.7132243,3.92510954 49.8833938,4.30980397 49.9741523,4.72359914 C50.0649107,5.13739431 50.1102892,5.53178692 50.1102892,5.90678879 C50.1102892,6.85722458 49.9190511,7.66217343 49.5365691,8.32165948 C49.0179495,9.21067255 48.2173425,9.65517241 47.1347241,9.65517241 L44.0473321,9.65517241 L44.0473321,2.5075431 L47.1347241,2.5075431 Z M52.322515,7.44881466 C52.3678942,7.77532491 52.4570306,8.01939574 52.5899269,8.18103448 C52.8330298,8.47521699 53.2495399,8.62230603 53.8394697,8.62230603 C54.1927794,8.62230603 54.4796365,8.58351332 54.7000499,8.50592672 C55.1181869,8.35721908 55.3272523,8.08082099 55.3272523,7.67672414 C55.3272523,7.44073158 55.22353,7.25808254 55.0160821,7.12877155 C54.8190067,7.00899725 54.5151608,6.90235356 54.104536,6.80883762 L53.2803358,6.62446121 C52.5348201,6.45635692 52.0194496,6.27370788 51.7342088,6.07650862 C51.2512443,5.74676559 51.0097656,5.23114575 51.0097656,4.52963362 C51.0097656,3.88954421 51.243141,3.35776074 51.7098986,2.93426724 C52.1766563,2.51077374 52.8621963,2.29903017 53.7665392,2.29903017 C54.521779,2.29903017 55.1659922,2.49865102 55.699198,2.89789871 C56.2324038,3.29714639 56.511968,3.87661258 56.5378989,4.63631466 L55.0987367,4.63631466 C55.0728057,4.20635561 54.8848089,3.90086297 54.5347407,3.71982759 C54.3013619,3.60021492 54.0112634,3.54040948 53.6644365,3.54040948 C53.2787132,3.54040948 52.9707874,3.61799491 52.7406499,3.7731681 C52.5105125,3.92834129 52.3954455,4.14493395 52.3954455,4.42295259 C52.3954455,4.66673319 52.4988129,4.85159989 52.7055507,4.97755764 L52.7357879,4.99515086 C52.8758152,5.07584092 53.1681879,5.16993658 53.6129142,5.27744046 L54.9042553,5.58674569 C55.4455645,5.71605668 55.8539714,5.88900754 56.129488,6.10560345 C56.5573492,6.44181203 56.7712766,6.92833733 56.7712766,7.56519397 C56.7712766,8.21821447 56.5208843,8.76050431 56.0200923,9.19207974 C55.5193002,9.62365518 54.8118812,9.83943966 53.8978142,9.83943966 C52.9642989,9.83943966 52.230139,9.6268879 51.6953125,9.20177802 C51.160486,8.77666813 50.8930768,8.19235286 50.8930768,7.44881466 L52.322515,7.44881466 Z M61.9153092,4.78178879 C61.9153092,4.41001969 61.8172591,4.14493614 61.6211561,3.98653017 C61.425053,3.82812421 61.1503508,3.74892241 60.7970412,3.74892241 L59.4016373,3.74892241 L59.4016373,5.85344828 L60.7970412,5.85344828 C61.1503508,5.85344828 61.425053,5.76778103 61.6211561,5.59644397 C61.8172591,5.4251069 61.9153092,5.15355789 61.9153092,4.78178879 Z M63.3982297,4.77209052 C63.3982297,5.61584474 63.1843023,6.21228274 62.7564412,6.56142241 C62.32858,6.91056209 61.7175904,7.08512931 60.9234541,7.08512931 L59.4016373,7.08512931 L59.4016373,9.65517241 L57.9138547,9.65517241 L57.9138547,2.5075431 L61.0352809,2.5075431 C61.7548656,2.5075431 62.32858,2.6918085 62.7564412,3.06034483 C63.1843023,3.42888115 63.3982297,3.99945734 63.3982297,4.77209052 Z" id="KautenjaDSP"></path>
            </g>
        </g>
        <g id="Group-5" transform="translate(7.000000, 21.000000)">
            <path d="M20.3499107,290.691636 L34.3200546,254.903565 C46.7491639,258.86631 54.6126496,262.875467 57.9105117,266.931036 C61.2083739,270.986605 63.0455198,278.906805 63.4219495,290.691636 L20.3499107,290.691636 Z" id="Path-2" fill="#929292"></path>
            <g id="Group-8" transform="translate(120.500000, 37.500000)">
                <path d="M-1.0658141e-14,0.5 L35,0.5 C36.4688458,7.83806589 36.4688458,13.0928778 35,16.2644356 C33.5311542,19.4359934 29.5284247,22.8239463 22.9918114,26.428294 L-1.0658141e-14,0.5 Z" id="Path-3" fill="#929292"></path>
                <path d="M0,0.5 L70,0.5" id="Line-3" stroke="#929292" stroke-width="3" stroke-linecap="square"></path>
            </g>
            <g id="Group-6" transform="translate(243.500000, 162.500000)">
                <path d="M44.0212676,0.5 L1.0658141e-14,0.5 L46.6132499,17.9157124 C48.7823908,14.2121189 49.7105674,11.3095001 49.3977795,9.20785621 C49.0849916,7.10621231 47.292821,4.20359357 44.0212676,0.5 Z" id="Path-4" fill="#929292"></path>
                <path d="M0,0.5 L70,0.5" id="Line-3-Copy" stroke="#929292" stroke-width="3" stroke-linecap="square"></path>
            </g>
            <g id="Group" transform="translate(369.500000, 205.500000)">
                <path d="M-7.10542736e-15,0.5 L39.8014326,0.5 C41.3749371,9.508568 41.3749371,15.9252347 39.8014326,19.75 C38.2279281,23.5747653 33.9949968,27.4472141 27.1026385,31.3673464 L-7.10542736e-15,0.5 Z" id="Path-5" fill="#929292"></path>
                <path d="M0,0.5 L70,0.5" id="Line-3-Copy-2" stroke="#929292" stroke-width="3" stroke-linecap="square"></path>
            </g>
            <g id="Group-9" transform="translate(240.000000, 162.500000)" fill="#929292" fill-rule="nonzero">
                <path d="M1.50838563,124.508351 L5.50835062,124.491614 L5.4874303,119.491658 L1.48746532,119.508394 L1.50838563,124.508351 Z M1.47909719,117.508412 L5.47906217,117.491676 L5.45814186,112.491719 L1.45817687,112.508456 L1.47909719,117.508412 Z M1.44980874,110.508473 L5.44977373,110.491737 L5.42885341,105.491781 L1.42888842,105.508517 L1.44980874,110.508473 Z M1.42052029,103.508534 L5.42048528,103.491798 L5.39956496,98.491842 L1.39959998,98.5085782 L1.42052029,103.508534 Z M1.39123185,96.5085957 L5.39119683,96.4918595 L5.37027652,91.4919032 L1.37031153,91.5086395 L1.39123185,96.5085957 Z M1.3619434,89.508657 L5.36190839,89.4919207 L5.34098807,84.4919645 L1.34102308,84.5087008 L1.3619434,89.508657 Z M1.33265495,82.5087183 L5.33261994,82.491982 L5.31169962,77.4920258 L1.31173464,77.508762 L1.33265495,82.5087183 Z M1.30336651,75.5087795 L5.3033315,75.4920433 L5.28241118,70.492087 L1.28244619,70.5088233 L1.30336651,75.5087795 Z M1.27407806,68.5088408 L5.27404305,68.4921045 L5.25312273,63.4921483 L1.25315774,63.5088846 L1.27407806,68.5088408 Z M1.24478962,61.5089021 L5.2447546,61.4921658 L5.22383428,56.4922096 L1.2238693,56.5089458 L1.24478962,61.5089021 Z M1.21550117,54.5089633 L5.21546616,54.4922271 L5.19454584,49.4922709 L1.19458085,49.5090071 L1.21550117,54.5089633 Z M1.18621272,47.5090246 L5.18617771,47.4922884 L5.16525739,42.4923321 L1.1652924,42.5090684 L1.18621272,47.5090246 Z M1.15692428,40.5090859 L5.15688926,40.4923496 L5.13596894,35.4923934 L1.13600396,35.5091297 L1.15692428,40.5090859 Z M1.12763583,33.5091472 L5.12760082,33.4924109 L5.1066805,28.4924547 L1.10671551,28.5091909 L1.12763583,33.5091472 Z M1.09834738,26.5092084 L5.09831237,26.4924722 L5.07739205,21.4925159 L1.07742706,21.5092522 L1.09834738,26.5092084 Z M1.06905894,19.5092697 L5.06902392,19.4925335 L5.0481036,14.4925772 L1.04813862,14.5093135 L1.06905894,19.5092697 Z M1.03977049,12.509331 L5.03973548,12.4925947 L5.01881516,7.49263849 L1.01885017,7.50937475 L1.03977049,12.509331 Z M1.01048204,5.50939226 L5.01044703,5.492656 L4.98952671,0.492699767 L0.989561724,0.509436022 L1.01048204,5.50939226 Z" id="Line-2-Copy-2"></path>
            </g>
            <g id="Group-10" transform="translate(117.000000, 40.500000)" fill="#929292" fill-rule="nonzero">
                <path d="M0.5,246.5 L4.5,246.5 L4.5,241.5 L0.5,241.5 L0.5,246.5 Z M0.5,239.5 L4.5,239.5 L4.5,234.5 L0.5,234.5 L0.5,239.5 Z M0.5,232.5 L4.5,232.5 L4.5,227.5 L0.5,227.5 L0.5,232.5 Z M0.5,225.5 L4.5,225.5 L4.5,220.5 L0.5,220.5 L0.5,225.5 Z M0.5,218.5 L4.5,218.5 L4.5,213.5 L0.5,213.5 L0.5,218.5 Z M0.5,211.5 L4.5,211.5 L4.5,206.5 L0.5,206.5 L0.5,211.5 Z M0.5,204.5 L4.5,204.5 L4.5,199.5 L0.5,199.5 L0.5,204.5 Z M0.5,197.5 L4.5,197.5 L4.5,192.5 L0.5,192.5 L0.5,197.5 Z M0.5,190.5 L4.5,190.5 L4.5,185.5 L0.5,185.5 L0.5,190.5 Z M0.5,183.5 L4.5,183.5 L4.5,178.5 L0.5,178.5 L0.5,183.5 Z M0.5,176.5 L4.5,176.5 L4.5,171.5 L0.5,171.5 L0.5,176.5 Z M0.5,169.5 L4.5,169.5 L4.5,164.5 L0.5,164.5 L0.5,169.5 Z M0.5,162.5 L4.5,162.5 L4.5,157.5 L0.5,157.5 L0.5,162.5 Z M0.5,155.5 L4.5,155.5 L4.5,150.5 L0.5,150.5 L0.5,155.5 Z M0.5,148.5 L4.5,148.5 L4.5,143.5 L0.5,143.5 L0.5,148.5 Z M0.5,141.5 L4.5,141.5 L4.5,136.5 L0.5,136.5 L0.5,141.5 Z M0.5,134.5 L4.5,134.5 L4.5,129.5 L0.5,129.5 L0.5,134.5 Z M0.5,127.5 L4.5,127.5 L4.5,122.5 L0.5,122.5 L0.5,127.5 Z M0.5,120.5 L4.5,120.5 L4.5,115.5 L0.5,115.5 L0.5,120.5 Z M0.5,113.5 L4.5,113.5 L4.5,108.5 L0.5,108.5 L0.5,113.5 Z M0.5,106.5 L4.5,106.5 L4.5,101.5 L0.5,101.5 L0.5,106.5 Z M0.5,99.5 L4.5,99.5 L4.5,94.5 L0.5,94.5 L0.5,99.5 Z M0.5,92.5 L4.5,92.5 L4.5,87.5 L0.5,87.5 L0.5,92.5 Z M0.5,85.5 L4.5,85.5 L4.5,80.5 L0.5,80.5 L0.5,85.5 Z M0.5,78.5 L4.5,78.5 L4.5,73.5 L0.5,73.5 L0.5,78.5 Z M0.5,71.5 L4.5,71.5 L4.5,66.5 L0.5,66.5 L0.5,71.5 Z M0.5,64.5 L4.5,64.5 L4.5,59.5 L0.5,59.5 L0.5,64.5 Z M0.5,57.5 L4.5,57.5 L4.5,52.5 L0.5,52.5 L0.5,57.5 Z M0.5,50.5 L4.5,50.5 L4.5,45.5 L0.5,45.5 L0.5,50.5 Z M0.5,43.5 L4.5,43.5 L4.5,38.5 L0.5,38.5 L0.5,43.5 Z M0.5,36.5 L4.5,36.5 L4.5,31.5 L0.5,31.5 L0.5,36.5 Z M0.5,29.5 L4.5,29.5 L4.5,24.5 L0.5,24.5 L0.5,29.5 Z M0.5,22.5 L4.5,22.5 L4.5,17.5 L0.5,17.5 L0.5,22.5 Z M0.5,15.5 L4.5,15.5 L4.5,10.5 L0.5,10.5 L0.5,15.5 Z M0.5,8.5 L4.5,8.5 L4.5,3.5 L0.5,3.5 L0.5,8.5 Z" id="Line-2-Copy-3"></path>
            </g>
            <g id="Group-4" transform="translate(52.500000, 0.000000)" fill="#FFFFFF" fill-rule="nonzero">
                <g id="Group-2" transform="translate(10.058594, 5.449219)">
                    <path d="M16.8867188,247.335938 L22.3242188,247.347656 C24.0195397,247.347656 25.3339797,247.767574 26.2675781,248.607422 C27.2011765,249.44727 27.6679688,250.468744 27.6679688,251.671875 C27.6679688,252.421879 27.4492209,253.103513 27.0117188,253.716797 C26.5742166,254.330081 25.9140669,254.874998 25.03125,255.351562 C25.539065,255.796877 26.0820284,256.367184 26.6601562,257.0625 C27.019533,257.507815 27.5039032,258.20312 28.1132812,259.148438 C28.7226593,259.148438 29.124999,259.210937 29.3203125,259.335938 C29.6718768,259.578126 29.8476562,259.917967 29.8476562,260.355469 C29.8476562,260.707033 29.7265637,260.99414 29.484375,261.216797 C29.2421863,261.439454 28.8320341,261.550781 28.2539062,261.550781 L26.8828125,261.550781 C24.9374903,258.542954 23.3242252,256.734378 22.0429688,256.125 L19.6640625,256.125 L19.6640625,259.148438 L20.53125,259.148438 C21.1093779,259.148438 21.5214831,259.259765 21.7675781,259.482422 C22.0136731,259.705079 22.1367188,259.996092 22.1367188,260.355469 C22.1367188,260.707033 22.0136731,260.99414 21.7675781,261.216797 C21.5214831,261.439454 21.1093779,261.550781 20.53125,261.550781 L16.8867188,261.550781 C16.3085909,261.550781 15.8964856,261.439454 15.6503906,261.216797 C15.5358487,261.113164 15.4479633,260.994723 15.3867339,260.861473 C15.3295251,260.993656 15.2425465,261.112321 15.1289062,261.216797 C14.8867175,261.439454 14.4765654,261.550781 13.8984375,261.550781 L10.6640625,261.550781 C10.0859346,261.550781 9.67382936,261.439454 9.42773438,261.216797 C9.18163939,260.99414 9.05859375,260.703127 9.05859375,260.34375 C9.05859375,259.992186 9.18163939,259.705079 9.42773438,259.482422 C9.67382936,259.259765 10.0859346,259.148438 10.6640625,259.148438 L11.25,259.148438 L10.6757812,257.683594 L4.83984375,257.683594 L4.25390625,259.148438 L4.83984375,259.148438 C5.41797164,259.148438 5.83007689,259.259765 6.07617188,259.482422 C6.32226686,259.705079 6.4453125,259.996092 6.4453125,260.355469 C6.4453125,260.707033 6.32226686,260.99414 6.07617188,261.216797 C5.83007689,261.439454 5.41797164,261.550781 4.83984375,261.550781 L1.60546875,261.550781 C1.02734086,261.550781 0.615235605,261.439454 0.369140625,261.216797 C0.123045645,260.99414 0,260.703127 0,260.34375 C0,259.984373 0.128904961,259.691407 0.38671875,259.464844 C0.644532539,259.23828 1.07030953,259.132812 1.6640625,259.148438 L5.4375,249.75 L3.8671875,249.75 C3.28905961,249.75 2.87695436,249.638673 2.63085938,249.416016 C2.38476439,249.193358 2.26171875,248.902346 2.26171875,248.542969 C2.26171875,248.183592 2.38476439,247.892579 2.63085938,247.669922 C2.87695436,247.447265 3.28905961,247.335938 3.8671875,247.335938 L9.05859375,247.347656 L13.8398438,259.148438 C14.4023466,259.148438 14.7734366,259.210937 14.953125,259.335938 C15.1534499,259.479649 15.2979411,259.648847 15.3865995,259.843535 C15.4473844,259.707914 15.5377825,259.587932 15.65625,259.482422 C15.9062512,259.259765 16.3164034,259.148438 16.8867188,259.148438 L17.2617188,259.148438 L17.2617188,249.75 L16.8867188,249.75 C16.3085909,249.75 15.8964856,249.638673 15.6503906,249.416016 C15.4042956,249.193358 15.28125,248.902346 15.28125,248.542969 C15.28125,248.183592 15.4042956,247.892579 15.6503906,247.669922 C15.8964856,247.447265 16.3085909,247.335938 16.8867188,247.335938 Z M7.74609375,250.523438 L5.80078125,255.28125 L9.6796875,255.28125 L7.74609375,250.523438 Z M22.4179688,249.75 L19.6640625,249.75 L19.6640625,253.722656 L21.5390625,253.722656 C22.2343785,253.722656 22.855466,253.617189 23.4023438,253.40625 C24.1367224,253.124999 24.6308581,252.828127 24.8847656,252.515625 C25.1386731,252.203123 25.265625,251.894533 25.265625,251.589844 C25.265625,251.136716 25.0234399,250.716799 24.5390625,250.330078 C24.0546851,249.943357 23.3476609,249.75 22.4179688,249.75 Z" id="Combined-Shape"></path>
                    <path d="M75.90625,183.75 L75.90625,193.148438 L77.5234375,193.148438 C78.1015654,193.148438 78.5136706,193.259765 78.7597656,193.482422 C79.0058606,193.705079 79.1289062,193.996092 79.1289062,194.355469 C79.1289062,194.707033 79.0058606,194.99414 78.7597656,195.216797 C78.5136706,195.439454 78.1015654,195.550781 77.5234375,195.550781 L71.8984375,195.550781 C71.3203096,195.550781 70.9082044,195.439454 70.6621094,195.216797 C70.4160144,194.99414 70.2929688,194.703127 70.2929688,194.34375 C70.2929688,193.992186 70.4160144,193.705079 70.6621094,193.482422 C70.9082044,193.259765 71.3203096,193.148438 71.8984375,193.148438 L73.5039062,193.148438 L73.5039062,183.75 L70.9023438,183.75 L70.9023438,186.023438 C70.9023438,186.601565 70.7910167,187.013671 70.5683594,187.259766 C70.345702,187.505861 70.0546893,187.628906 69.6953125,187.628906 C69.3437482,187.628906 69.0566417,187.505861 68.8339844,187.259766 C68.611327,187.013671 68.5,186.601565 68.5,186.023438 L68.5,181.335938 L80.9453125,181.347656 L80.9453125,186.023438 C80.9453125,186.601565 80.8339855,187.013671 80.6113281,187.259766 C80.3886708,187.505861 80.097658,187.628906 79.7382812,187.628906 C79.386717,187.628906 79.0996105,187.505861 78.8769531,187.259766 C78.6542958,187.013671 78.5429688,186.601565 78.5429688,186.023438 L78.5429688,183.75 L75.90625,183.75 Z M88.140625,183.75 L88.140625,193.148438 L93.3203125,193.148438 L93.3203125,190.875 C93.3203125,190.296872 93.4316395,189.884767 93.6542969,189.638672 C93.8769542,189.392577 94.167967,189.269531 94.5273438,189.269531 C94.878908,189.269531 95.1660145,189.392577 95.3886719,189.638672 C95.6113292,189.884767 95.7226562,190.296872 95.7226562,190.875 L95.7226562,195.550781 L84.34375,195.550781 C83.7656221,195.550781 83.3535169,195.439454 83.1074219,195.216797 C82.8613269,194.99414 82.7382812,194.703127 82.7382812,194.34375 C82.7382812,193.992186 82.8613269,193.705079 83.1074219,193.482422 C83.3535169,193.259765 83.7656221,193.148438 84.34375,193.148438 L85.7382812,193.148438 L85.7382812,183.75 L84.34375,183.75 C83.7656221,183.75 83.3535169,183.638673 83.1074219,183.416016 C82.8613269,183.193358 82.7382812,182.902346 82.7382812,182.542969 C82.7382812,182.183592 82.8613269,181.892579 83.1074219,181.669922 C83.3535169,181.447265 83.7656221,181.335938 84.34375,181.335938 L89.546875,181.347656 C90.1250029,181.347656 90.5371081,181.45703 90.7832031,181.675781 C91.0292981,181.894532 91.1523438,182.183592 91.1523438,182.542969 C91.1523438,182.902346 91.0292981,183.193358 90.7832031,183.416016 C90.5371081,183.638673 90.1250029,183.75 89.546875,183.75 L88.140625,183.75 Z" id="TL"></path>
                    <path d="M87.1660156,13.1484375 L87.1660156,3.75 C86.6582006,3.74218746 86.2832043,3.62695424 86.0410156,3.40429688 C85.7988269,3.18163951 85.6777344,2.89453301 85.6777344,2.54296875 C85.6777344,2.18359195 85.80078,1.89257924 86.046875,1.66992188 C86.29297,1.44726451 86.7050752,1.3359375 87.2832031,1.3359375 L92.3105469,1.34765625 C93.0918008,1.34765625 93.855465,1.49218605 94.6015625,1.78125 C95.34766,2.07031395 95.9472634,2.43749777 96.4003906,2.8828125 C96.7441423,3.21875168 97.1015606,3.67968457 97.4726562,4.265625 C97.8437519,4.85156543 98.1230459,5.43359086 98.3105469,6.01171875 C98.4980478,6.58984664 98.5917969,7.29687082 98.5917969,8.1328125 L98.5917969,9.28125 C98.5917969,10.2968801 98.4199236,11.1972617 98.0761719,11.9824219 C97.7324202,12.7675821 97.2812528,13.4082006 96.7226562,13.9042969 C96.1640597,14.4003931 95.6386743,14.7656238 95.1464844,15 C94.3652305,15.3671893 93.3535218,15.5507812 92.1113281,15.5507812 L87.2832031,15.5507812 C86.7050752,15.5507812 86.29297,15.4394542 86.046875,15.2167969 C85.80078,14.9941395 85.6777344,14.7031268 85.6777344,14.34375 C85.6777344,13.9921857 85.80078,13.7031261 86.046875,13.4765625 C86.29297,13.2499989 86.6660131,13.140625 87.1660156,13.1484375 Z M89.5683594,13.1484375 L92.1230469,13.1484375 C93.0761766,13.1484375 93.7949195,13.0117201 94.2792969,12.7382812 C94.9121125,12.3789045 95.3886703,11.9218778 95.7089844,11.3671875 C96.0292985,10.8124972 96.1894531,10.0937544 96.1894531,9.2109375 L96.1894531,8.07421875 C96.1894531,7.31640246 96.0449233,6.6523466 95.7558594,6.08203125 C95.3027321,5.1914018 94.7929716,4.58007979 94.2265625,4.24804688 C93.6601534,3.91601396 92.9511761,3.75 92.0996094,3.75 L89.5683594,3.75 L89.5683594,13.1484375 Z M108.166016,0 L108.166016,13.1484375 L110.591797,13.1484375 C111.169925,13.1484375 111.58203,13.2597645 111.828125,13.4824219 C112.07422,13.7050792 112.197266,13.996092 112.197266,14.3554688 C112.197266,14.707033 112.07422,14.9941395 111.828125,15.2167969 C111.58203,15.4394542 111.169925,15.5507812 110.591797,15.5507812 L103.337891,15.5507812 C102.759763,15.5507812 102.347657,15.4394542 102.101562,15.2167969 C101.855468,14.9941395 101.732422,14.7031268 101.732422,14.34375 C101.732422,13.9921857 101.855468,13.7050792 102.101562,13.4824219 C102.347657,13.2597645 102.759763,13.1484375 103.337891,13.1484375 L105.763672,13.1484375 L105.763672,3.12890625 L103.619141,3.69140625 C103.275389,3.78515672 103.017579,3.83203125 102.845703,3.83203125 C102.541014,3.83203125 102.277345,3.71093871 102.054688,3.46875 C101.83203,3.22656129 101.720703,2.92968926 101.720703,2.578125 C101.720703,2.2578109 101.802734,2.00586029 101.966797,1.82226562 C102.13086,1.63867096 102.474607,1.4765632 102.998047,1.3359375 L108.166016,0 Z M116.087891,1.3359375 L121.525391,1.34765625 C123.220712,1.34765625 124.535152,1.76757393 125.46875,2.60742188 C126.402348,3.44726982 126.869141,4.46874398 126.869141,5.671875 C126.869141,6.42187875 126.650393,7.10351256 126.212891,7.71679688 C125.775388,8.33008119 125.115239,8.87499762 124.232422,9.3515625 C124.740237,9.79687723 125.2832,10.367184 125.861328,11.0625 C126.220705,11.5078147 126.705075,12.2031203 127.314453,13.1484375 C127.923831,13.1484375 128.326171,13.2109369 128.521484,13.3359375 C128.873049,13.5781262 129.048828,13.9179666 129.048828,14.3554688 C129.048828,14.707033 128.927736,14.9941395 128.685547,15.2167969 C128.443358,15.4394542 128.033206,15.5507812 127.455078,15.5507812 L126.083984,15.5507812 C124.138662,12.5429537 122.525397,10.734378 121.244141,10.125 L118.865234,10.125 L118.865234,13.1484375 L119.732422,13.1484375 C120.31055,13.1484375 120.722655,13.2597645 120.96875,13.4824219 C121.214845,13.7050792 121.337891,13.996092 121.337891,14.3554688 C121.337891,14.707033 121.214845,14.9941395 120.96875,15.2167969 C120.722655,15.4394542 120.31055,15.5507812 119.732422,15.5507812 L116.087891,15.5507812 C115.509763,15.5507812 115.097657,15.4394542 114.851562,15.2167969 C114.605468,14.9941395 114.482422,14.7031268 114.482422,14.34375 C114.482422,13.9921857 114.607421,13.7050792 114.857422,13.4824219 C115.107423,13.2597645 115.517575,13.1484375 116.087891,13.1484375 L116.462891,13.1484375 L116.462891,3.75 L116.087891,3.75 C115.509763,3.75 115.097657,3.63867299 114.851562,3.41601562 C114.605468,3.19335826 114.482422,2.90234555 114.482422,2.54296875 C114.482422,2.18359195 114.605468,1.89257924 114.851562,1.66992188 C115.097657,1.44726451 115.509763,1.3359375 116.087891,1.3359375 Z M121.619141,3.75 L118.865234,3.75 L118.865234,7.72265625 L120.740234,7.72265625 C121.43555,7.72265625 122.056638,7.61718855 122.603516,7.40625 C123.337894,7.12499859 123.83203,6.82812656 124.085938,6.515625 C124.339845,6.20312344 124.466797,5.89453277 124.466797,5.58984375 C124.466797,5.13671648 124.224612,4.71679881 123.740234,4.33007812 C123.255857,3.94335744 122.548833,3.75 121.619141,3.75 Z" id="D1R"></path>
                    <path d="M221.166016,139.148438 L221.166016,129.75 C220.658201,129.742187 220.283204,129.626954 220.041016,129.404297 C219.798827,129.18164 219.677734,128.894533 219.677734,128.542969 C219.677734,128.183592 219.80078,127.892579 220.046875,127.669922 C220.29297,127.447265 220.705075,127.335938 221.283203,127.335938 L226.310547,127.347656 C227.091801,127.347656 227.855465,127.492186 228.601562,127.78125 C229.34766,128.070314 229.947263,128.437498 230.400391,128.882812 C230.744142,129.218752 231.101561,129.679685 231.472656,130.265625 C231.843752,130.851565 232.123046,131.433591 232.310547,132.011719 C232.498048,132.589847 232.591797,133.296871 232.591797,134.132812 L232.591797,135.28125 C232.591797,136.29688 232.419924,137.197262 232.076172,137.982422 C231.73242,138.767582 231.281253,139.408201 230.722656,139.904297 C230.16406,140.400393 229.638674,140.765624 229.146484,141 C228.36523,141.367189 227.353522,141.550781 226.111328,141.550781 L221.283203,141.550781 C220.705075,141.550781 220.29297,141.439454 220.046875,141.216797 C219.80078,140.99414 219.677734,140.703127 219.677734,140.34375 C219.677734,139.992186 219.80078,139.703126 220.046875,139.476562 C220.29297,139.249999 220.666013,139.140625 221.166016,139.148438 Z M223.568359,139.148438 L226.123047,139.148438 C227.076177,139.148438 227.794919,139.01172 228.279297,138.738281 C228.912113,138.378904 229.38867,137.921878 229.708984,137.367188 C230.029298,136.812497 230.189453,136.093754 230.189453,135.210938 L230.189453,134.074219 C230.189453,133.316402 230.044923,132.652347 229.755859,132.082031 C229.302732,131.191402 228.792972,130.58008 228.226562,130.248047 C227.660153,129.916014 226.951176,129.75 226.099609,129.75 L223.568359,129.75 L223.568359,139.148438 Z M240.771484,126 C242.287117,126 243.529297,126.45898 244.498047,127.376953 C245.466802,128.294926 245.951172,129.406243 245.951172,130.710938 C245.951172,131.375003 245.812501,131.990232 245.535156,132.556641 C245.277621,133.082592 244.684963,133.795466 243.757166,134.695282 L243.172986,135.246914 C242.27477,136.074832 240.782874,137.375331 238.697266,139.148438 L243.958984,139.148438 C244.248048,138.914061 244.521483,138.796875 244.779297,138.796875 C245.146486,138.796875 245.437499,138.917968 245.652344,139.160156 C245.867189,139.402345 245.974609,139.816403 245.974609,140.402344 L245.974609,141.550781 L235.029297,141.550781 L235.029297,139.007812 L236.104451,138.117796 C239.792831,135.053092 242.047708,133.052906 242.869141,132.117188 C243.322268,131.593747 243.548828,131.097659 243.548828,130.628906 C243.548828,130.042966 243.292971,129.525393 242.78125,129.076172 C242.269529,128.626951 241.587895,128.402344 240.736328,128.402344 C239.876949,128.402344 239.162112,128.652341 238.591797,129.152344 C238.337331,129.380023 238.125917,129.702406 237.95755,130.119499 L237.876953,130.335938 C237.767578,130.664064 237.617188,130.898437 237.425781,131.039062 C237.234374,131.179688 236.998048,131.25 236.716797,131.25 C236.38867,131.25 236.10547,131.132814 235.867188,130.898438 C235.628905,130.664061 235.509766,130.390627 235.509766,130.078125 C235.509766,129.609373 235.72656,129.023441 236.160156,128.320312 C236.593752,127.617184 237.226558,127.05469 238.058594,126.632812 C238.890629,126.210935 239.794917,126 240.771484,126 Z M250.087891,127.335938 L255.525391,127.347656 C257.220712,127.347656 258.535152,127.767574 259.46875,128.607422 C260.402348,129.44727 260.869141,130.468744 260.869141,131.671875 C260.869141,132.421879 260.650393,133.103513 260.212891,133.716797 C259.775388,134.330081 259.115239,134.874998 258.232422,135.351562 C258.740237,135.796877 259.2832,136.367184 259.861328,137.0625 C260.220705,137.507815 260.705075,138.20312 261.314453,139.148438 C261.923831,139.148438 262.326171,139.210937 262.521484,139.335938 C262.873049,139.578126 263.048828,139.917967 263.048828,140.355469 C263.048828,140.707033 262.927736,140.99414 262.685547,141.216797 C262.443358,141.439454 262.033206,141.550781 261.455078,141.550781 L260.083984,141.550781 C258.138662,138.542954 256.525397,136.734378 255.244141,136.125 L252.865234,136.125 L252.865234,139.148438 L253.732422,139.148438 C254.31055,139.148438 254.722655,139.259765 254.96875,139.482422 C255.214845,139.705079 255.337891,139.996092 255.337891,140.355469 C255.337891,140.707033 255.214845,140.99414 254.96875,141.216797 C254.722655,141.439454 254.31055,141.550781 253.732422,141.550781 L250.087891,141.550781 C249.509763,141.550781 249.097657,141.439454 248.851562,141.216797 C248.605468,140.99414 248.482422,140.703127 248.482422,140.34375 C248.482422,139.992186 248.607421,139.705079 248.857422,139.482422 C249.107423,139.259765 249.517575,139.148438 250.087891,139.148438 L250.462891,139.148438 L250.462891,129.75 L250.087891,129.75 C249.509763,129.75 249.097657,129.638673 248.851562,129.416016 C248.605468,129.193358 248.482422,128.902346 248.482422,128.542969 C248.482422,128.183592 248.605468,127.892579 248.851562,127.669922 C249.097657,127.447265 249.509763,127.335938 250.087891,127.335938 Z M255.619141,129.75 L252.865234,129.75 L252.865234,133.722656 L254.740234,133.722656 C255.43555,133.722656 256.056638,133.617189 256.603516,133.40625 C257.337894,133.124999 257.83203,132.828127 258.085938,132.515625 C258.339845,132.203123 258.466797,131.894533 258.466797,131.589844 C258.466797,131.136716 258.224612,130.716799 257.740234,130.330078 C257.255857,129.943357 256.548833,129.75 255.619141,129.75 Z" id="D2R"></path>
                    <path d="M353.886719,173.335938 L359.324219,173.347656 C361.01954,173.347656 362.33398,173.767574 363.267578,174.607422 C364.201177,175.44727 364.667969,176.468744 364.667969,177.671875 C364.667969,178.421879 364.449221,179.103513 364.011719,179.716797 C363.574217,180.330081 362.914067,180.874998 362.03125,181.351562 C362.539065,181.796877 363.082028,182.367184 363.660156,183.0625 C364.019533,183.507815 364.503903,184.20312 365.113281,185.148438 C365.722659,185.148438 366.124999,185.210937 366.320312,185.335938 C366.671877,185.578126 366.847656,185.917967 366.847656,186.355469 C366.847656,186.707033 366.726564,186.99414 366.484375,187.216797 C366.242186,187.439454 365.832034,187.550781 365.253906,187.550781 L363.882812,187.550781 C361.93749,184.542954 360.324225,182.734378 359.042969,182.125 L356.664062,182.125 L356.664062,185.148438 L357.53125,185.148438 C358.109378,185.148438 358.521483,185.259765 358.767578,185.482422 C359.013673,185.705079 359.136719,185.996092 359.136719,186.355469 C359.136719,186.707033 359.013673,186.99414 358.767578,187.216797 C358.521483,187.439454 358.109378,187.550781 357.53125,187.550781 L353.886719,187.550781 C353.308591,187.550781 352.896486,187.439454 352.650391,187.216797 C352.519972,187.098799 352.424111,186.961603 352.362809,186.805208 C352.306251,186.960486 352.211424,187.097839 352.082031,187.216797 C351.839843,187.439454 351.42969,187.550781 350.851562,187.550781 L349.480469,187.550781 C347.535147,184.542954 345.921881,182.734378 344.640625,182.125 L342.261719,182.125 L342.261719,185.148438 L343.128906,185.148438 C343.707034,185.148438 344.119139,185.259765 344.365234,185.482422 C344.611329,185.705079 344.734375,185.996092 344.734375,186.355469 C344.734375,186.707033 344.611329,186.99414 344.365234,187.216797 C344.119139,187.439454 343.707034,187.550781 343.128906,187.550781 L339.484375,187.550781 C338.906247,187.550781 338.494142,187.439454 338.248047,187.216797 C338.001952,186.99414 337.878906,186.703127 337.878906,186.34375 C337.878906,185.992186 338.003905,185.705079 338.253906,185.482422 C338.503908,185.259765 338.91406,185.148438 339.484375,185.148438 L339.859375,185.148438 L339.859375,175.75 L339.484375,175.75 C338.906247,175.75 338.494142,175.638673 338.248047,175.416016 C338.001952,175.193358 337.878906,174.902346 337.878906,174.542969 C337.878906,174.183592 338.001952,173.892579 338.248047,173.669922 C338.494142,173.447265 338.906247,173.335938 339.484375,173.335938 L344.921875,173.347656 C346.617196,173.347656 347.931636,173.767574 348.865234,174.607422 C349.798833,175.44727 350.265625,176.468744 350.265625,177.671875 C350.265625,178.421879 350.046877,179.103513 349.609375,179.716797 C349.171873,180.330081 348.511723,180.874998 347.628906,181.351562 C348.136721,181.796877 348.679685,182.367184 349.257812,183.0625 L349.488438,183.359688 C349.815938,183.795937 350.223435,184.392184 350.710938,185.148438 C351.320316,185.148438 351.722655,185.210937 351.917969,185.335938 C352.13379,185.484614 352.283365,185.670092 352.366696,185.892374 C352.42565,185.737539 352.523264,185.600862 352.65625,185.482422 C352.906251,185.259765 353.316403,185.148438 353.886719,185.148438 L354.261719,185.148438 L354.261719,175.75 L353.886719,175.75 C353.308591,175.75 352.896486,175.638673 352.650391,175.416016 C352.404296,175.193358 352.28125,174.902346 352.28125,174.542969 C352.28125,174.183592 352.404296,173.892579 352.650391,173.669922 C352.896486,173.447265 353.308591,173.335938 353.886719,173.335938 Z M345.015625,175.75 L342.261719,175.75 L342.261719,179.722656 L344.136719,179.722656 C344.832035,179.722656 345.453122,179.617189 346,179.40625 C346.734379,179.124999 347.228514,178.828127 347.482422,178.515625 C347.736329,178.203123 347.863281,177.894533 347.863281,177.589844 C347.863281,177.136716 347.621096,176.716799 347.136719,176.330078 C346.652341,175.943357 345.945317,175.75 345.015625,175.75 Z M359.417969,175.75 L356.664062,175.75 L356.664062,179.722656 L358.539062,179.722656 C359.234378,179.722656 359.855466,179.617189 360.402344,179.40625 C361.136722,179.124999 361.630858,178.828127 361.884766,178.515625 C362.138673,178.203123 362.265625,177.894533 362.265625,177.589844 C362.265625,177.136716 362.02344,176.716799 361.539062,176.330078 C361.054685,175.943357 360.347661,175.75 359.417969,175.75 Z" id="Combined-Shape"></path>
                    <path d="M196.230469,235.941406 C196.01953,236.191408 195.84961,236.351562 195.720703,236.421875 C195.591796,236.492188 195.433595,236.527344 195.246094,236.527344 C194.878904,236.527344 194.583985,236.404298 194.361328,236.158203 C194.138671,235.912108 194.027344,235.503909 194.027344,234.933594 L194.027344,233.316406 C194.027344,232.738278 194.138671,232.326173 194.361328,232.080078 C194.583985,231.833983 194.878904,231.710938 195.246094,231.710938 C195.527344,231.710938 195.763671,231.785156 195.955078,231.933594 C196.146485,232.082032 196.292968,232.330076 196.394531,232.677734 C196.496094,233.025392 196.601562,233.261718 196.710938,233.386719 C196.937501,233.628907 197.339841,233.874999 197.917969,234.125 C198.496097,234.375001 199.128903,234.5 199.816406,234.5 C200.886724,234.5 201.765622,234.250002 202.453125,233.75 C202.890627,233.445311 203.109375,233.070315 203.109375,232.625 C203.109375,232.328124 203.003907,232.048829 202.792969,231.787109 C202.58203,231.525389 202.238284,231.308595 201.761719,231.136719 L201.590028,231.079581 C201.258113,230.979267 200.697373,230.853528 199.9078,230.702362 L199.664062,230.65625 C198.351556,230.414061 197.359378,230.121095 196.6875,229.777344 C196.015622,229.433592 195.484377,228.949222 195.09375,228.324219 C194.703123,227.699216 194.507812,227.023441 194.507812,226.296875 C194.507812,225.148432 194.988276,224.142582 195.949219,223.279297 C196.910161,222.416011 198.160149,221.984375 199.699219,221.984375 C200.316409,221.984375 200.888669,222.052734 201.416016,222.189453 C201.943362,222.326173 202.421873,222.535155 202.851562,222.816406 C203.164064,222.511717 203.476561,222.359375 203.789062,222.359375 C204.140627,222.359375 204.427733,222.482421 204.650391,222.728516 C204.873048,222.974611 204.984375,223.38281 204.984375,223.953125 L204.984375,225.757812 C204.984375,226.33594 204.873048,226.748046 204.650391,226.994141 C204.427733,227.240236 204.140627,227.363281 203.789062,227.363281 C203.492186,227.363281 203.234376,227.273438 203.015625,227.09375 C202.868303,226.97991 202.752551,226.768496 202.668367,226.459503 L202.628906,226.296875 C202.542968,225.898436 202.433594,225.613282 202.300781,225.441406 C202.074218,225.14453 201.734377,224.894532 201.28125,224.691406 C200.828123,224.48828 200.30469,224.386719 199.710938,224.386719 C198.843746,224.386719 198.158206,224.587889 197.654297,224.990234 C197.150388,225.39258 196.898438,225.812498 196.898438,226.25 C196.898438,226.546876 197.001952,226.833983 197.208984,227.111328 C197.416017,227.388673 197.718748,227.605468 198.117188,227.761719 L198.249167,227.809011 C198.538298,227.902205 199.086862,228.03111 199.894868,228.195729 L200.361328,228.289062 C201.591803,228.531251 202.537106,228.796874 203.197266,229.085938 C203.857425,229.375001 204.406248,229.828122 204.84375,230.445312 C205.281252,231.062503 205.5,231.796871 205.5,232.648438 C205.5,233.835943 205.082035,234.785153 204.246094,235.496094 C203.136713,236.433598 201.722665,236.902344 200.003906,236.902344 C199.33984,236.902344 198.693363,236.822266 198.064453,236.662109 C197.435544,236.501952 196.824222,236.26172 196.230469,235.941406 Z M213.140625,224.75 L213.140625,234.148438 L218.320312,234.148438 L218.320312,231.875 C218.320312,231.296872 218.43164,230.884767 218.654297,230.638672 C218.876954,230.392577 219.167967,230.269531 219.527344,230.269531 C219.878908,230.269531 220.166015,230.392577 220.388672,230.638672 C220.611329,230.884767 220.722656,231.296872 220.722656,231.875 L220.722656,236.550781 L209.34375,236.550781 C208.765622,236.550781 208.353517,236.439454 208.107422,236.216797 C207.861327,235.99414 207.738281,235.703127 207.738281,235.34375 C207.738281,234.992186 207.861327,234.705079 208.107422,234.482422 C208.353517,234.259765 208.765622,234.148438 209.34375,234.148438 L210.738281,234.148438 L210.738281,224.75 L209.34375,224.75 C208.765622,224.75 208.353517,224.638673 208.107422,224.416016 C207.861327,224.193358 207.738281,223.902346 207.738281,223.542969 C207.738281,223.183592 207.861327,222.892579 208.107422,222.669922 C208.353517,222.447265 208.765622,222.335938 209.34375,222.335938 L214.546875,222.347656 C215.125003,222.347656 215.537108,222.45703 215.783203,222.675781 C216.029298,222.894532 216.152344,223.183592 216.152344,223.542969 C216.152344,223.902346 216.029298,224.193358 215.783203,224.416016 C215.537108,224.638673 215.125003,224.75 214.546875,224.75 L213.140625,224.75 Z" id="SL"></path>
                </g>
            </g>
            <g id="Group-7-Copy" transform="translate(253.000000, 216.000000)" fill-rule="nonzero">
                <polygon id="Line-4-Copy-2" fill="#929292" points="113 0.5 120 14.5 114 14.5 114 101 112 101 112 14.5 106 14.5"></polygon>
                <path d="M4.69921875,102.9375 L4.69921875,105.597656 L5.56640625,105.597656 C6.14453414,105.597656 6.55663939,105.708983 6.80273438,105.931641 C7.04882936,106.154298 7.171875,106.445311 7.171875,106.804688 C7.171875,107.156252 7.04882936,107.443358 6.80273438,107.666016 C6.55663939,107.888673 6.14453414,108 5.56640625,108 L1.921875,108 C1.34374711,108 0.931641855,107.888673 0.685546875,107.666016 C0.439451895,107.443358 0.31640625,107.152346 0.31640625,106.792969 C0.31640625,106.441404 0.441405,106.154298 0.69140625,105.931641 C0.9414075,105.708983 1.35155965,105.597656 1.921875,105.597656 L2.296875,105.597656 L2.296875,96.1992188 L1.921875,96.1992188 C1.34374711,96.1992188 0.931641855,96.0878917 0.685546875,95.8652344 C0.439451895,95.642577 0.31640625,95.3515643 0.31640625,94.9921875 C0.31640625,94.6328107 0.439451895,94.341798 0.685546875,94.1191406 C0.931641855,93.8964833 1.34374711,93.7851562 1.921875,93.7851562 L5.56640625,93.796875 C6.14453414,93.796875 6.55663939,93.9062489 6.80273438,94.125 C7.04882936,94.3437511 7.171875,94.6328107 7.171875,94.9921875 C7.171875,95.3515643 7.04882936,95.642577 6.80273438,95.8652344 C6.55663939,96.0878917 6.14453414,96.1992188 5.56640625,96.1992188 L4.69921875,96.1992188 L4.69921875,99.7617188 L8.96484375,96.09375 C8.7148425,95.9140616 8.54296922,95.7460945 8.44921875,95.5898438 C8.35546828,95.433593 8.30859375,95.2421886 8.30859375,95.015625 C8.30859375,94.6484357 8.43163939,94.3515636 8.67773438,94.125 C8.92382936,93.8984364 9.33593461,93.7851562 9.9140625,93.7851562 L12.3632812,93.796875 C12.9414091,93.796875 13.3535144,93.9062489 13.5996094,94.125 C13.8457044,94.3437511 13.96875,94.6328107 13.96875,94.9921875 C13.96875,95.3437518 13.8457044,95.6328114 13.5996094,95.859375 C13.3535144,96.0859386 12.9687526,96.1992188 12.4453125,96.1992188 L8.1328125,99.9726562 C8.93750402,100.433596 9.69335584,101.136714 10.4003906,102.082031 C11.1074254,103.027348 11.7343723,104.199212 12.28125,105.597656 L12.9257812,105.597656 C13.4960966,105.597656 13.9042956,105.708983 14.1503906,105.931641 C14.3964856,106.154298 14.5195312,106.445311 14.5195312,106.804688 C14.5195312,107.156252 14.3984387,107.443358 14.15625,107.666016 C13.9140613,107.888673 13.5039091,108 12.9257812,108 L10.7460938,108 C10.2460913,106.804682 9.69922172,105.664068 9.10546875,104.578125 C8.62109133,103.695308 8.16211154,103.052736 7.72851562,102.650391 C7.29491971,102.248045 6.77734676,101.925782 6.17578125,101.683594 L4.69921875,102.9375 Z M27.6328125,103.898438 L17.7773438,103.898438 C18.027345,104.523441 18.4706999,105.027342 19.1074219,105.410156 C19.7441438,105.792971 20.6054633,105.984375 21.6914062,105.984375 C22.5078166,105.984375 23.5703884,105.823542 24.8791489,105.501872 L25.2421875,105.410156 C25.8515655,105.253905 26.2734363,105.175781 26.5078125,105.175781 C26.8281266,105.175781 27.0976552,105.289061 27.3164062,105.515625 C27.5351573,105.742189 27.6445312,106.027342 27.6445312,106.371094 C27.6445312,106.683595 27.5273449,106.949218 27.2929688,107.167969 C26.9804672,107.457033 26.2187561,107.732421 25.0078125,107.994141 C23.7968689,108.255861 22.6328181,108.386719 21.515625,108.386719 C19.5937404,108.386719 18.0566464,107.843755 16.9042969,106.757812 C15.7519474,105.67187 15.1757812,104.335945 15.1757812,102.75 C15.1757812,101.062492 15.7988219,99.6894584 17.0449219,98.6308594 C18.2910219,97.5722603 19.7265544,97.0429688 21.3515625,97.0429688 C22.3281299,97.0429688 23.2246053,97.214842 24.0410156,97.5585938 C24.857426,97.9023455 25.4648418,98.2734355 25.8632812,98.671875 C26.4257841,99.2500029 26.8906232,99.9648395 27.2578125,100.816406 C27.5078138,101.410159 27.6328125,102.097652 27.6328125,102.878906 L27.6328125,103.898438 Z M24.9726562,101.496094 C24.6054669,100.80859 24.125003,100.294924 23.53125,99.9550781 C22.937497,99.6152327 22.2304729,99.4453125 21.4101562,99.4453125 C20.5976522,99.4453125 19.8945342,99.6152327 19.3007812,99.9550781 C18.7070283,100.294924 18.2226581,100.80859 17.8476562,101.496094 L24.9726562,101.496094 Z M34.6640625,107.917969 L30.5039062,99.7617188 C30.1132793,99.7148435 29.8164073,99.5820323 29.6132812,99.3632812 C29.4101552,99.1445302 29.3085938,98.8789078 29.3085938,98.5664062 C29.3085938,98.2070295 29.4316394,97.9160167 29.6777344,97.6933594 C29.9238294,97.470702 30.3359346,97.359375 30.9140625,97.359375 L33.1054688,97.359375 C33.6835966,97.359375 34.0957019,97.470702 34.3417969,97.6933594 C34.5878919,97.9160167 34.7109375,98.2070295 34.7109375,98.5664062 C34.7109375,98.9179705 34.5878919,99.205077 34.3417969,99.4277344 C34.0957019,99.6503917 33.7070339,99.7617188 33.1757812,99.7617188 L36.0117188,105.28125 L38.8242188,99.7617188 C38.3085938,99.7617188 37.9277356,99.6503917 37.6816406,99.4277344 C37.4355456,99.205077 37.3125,98.9140643 37.3125,98.5546875 C37.3125,98.2031232 37.4355456,97.9160167 37.6816406,97.6933594 C37.9277356,97.470702 38.3398409,97.359375 38.9179688,97.359375 L41.1796875,97.359375 C41.7500029,97.359375 42.1582019,97.470702 42.4042969,97.6933594 C42.6503919,97.9160167 42.7734375,98.2070295 42.7734375,98.5664062 C42.7734375,98.8867204 42.6679698,99.158202 42.4570312,99.3808594 C42.2460927,99.6035167 41.9335958,99.7304686 41.5195312,99.7617188 L36.0117188,110.613281 C36.6132843,110.613281 37.0078116,110.671874 37.1953125,110.789062 C37.5703144,111.031251 37.7578125,111.374998 37.7578125,111.820312 C37.7578125,112.171877 37.6347669,112.458983 37.3886719,112.681641 C37.1425769,112.904298 36.7304716,113.015625 36.1523438,113.015625 L30.9140625,113.015625 C30.3359346,113.015625 29.9238294,112.904298 29.6777344,112.681641 C29.4316394,112.458983 29.3085938,112.171877 29.3085938,111.820312 C29.3085938,111.460936 29.4316394,111.169923 29.6777344,110.947266 C29.9238294,110.724608 30.3359346,110.613281 30.9140625,110.613281 L33.3046875,110.613281 L34.6640625,107.917969 Z M55.4414062,102.28125 L45.4101562,102.28125 L45.4101562,100.089844 L55.4414062,100.089844 L55.4414062,102.28125 Z M71.0507812,102.878906 C71.0507812,103.800786 70.7949244,104.693355 70.2832031,105.556641 C69.7714818,106.419926 69.0097707,107.107419 67.9980469,107.619141 C66.9863231,108.130862 65.929693,108.386719 64.828125,108.386719 C63.7343695,108.386719 62.687505,108.134768 61.6875,107.630859 C60.687495,107.126951 59.9257839,106.441411 59.4023438,105.574219 C58.8789036,104.707027 58.6171875,103.800786 58.6171875,102.855469 C58.6171875,101.894526 58.8828098,100.951177 59.4140625,100.025391 C59.9453152,99.0996047 60.7089794,98.3710964 61.7050781,97.8398438 C62.7011769,97.3085911 63.7421821,97.0429688 64.828125,97.0429688 C65.9218805,97.0429688 66.9746043,97.3144504 67.9863281,97.8574219 C68.9980519,98.4003933 69.7617162,99.1308548 70.2773438,100.048828 C70.7929713,100.966801 71.0507812,101.910151 71.0507812,102.878906 Z M68.6484375,102.890625 C68.6484375,102.117184 68.3710965,101.406253 67.8164062,100.757812 C67.05859,99.8828081 66.0625062,99.4453125 64.828125,99.4453125 C63.7421821,99.4453125 62.8359411,99.7929653 62.109375,100.488281 C61.3828089,101.183597 61.0195312,101.988277 61.0195312,102.902344 C61.0195312,103.652348 61.3867151,104.353512 62.1210938,105.005859 C62.8554724,105.658206 63.7578071,105.984375 64.828125,105.984375 C65.9062554,105.984375 66.8124963,105.658206 67.546875,105.005859 C68.2812537,104.353512 68.6484375,103.648441 68.6484375,102.890625 Z M79.1953125,99.7617188 L79.1953125,105.597656 L82.6171875,105.597656 C83.1953154,105.597656 83.6074206,105.708983 83.8535156,105.931641 C84.0996106,106.154298 84.2226562,106.445311 84.2226562,106.804688 C84.2226562,107.156252 84.0996106,107.443358 83.8535156,107.666016 C83.6074206,107.888673 83.1953154,108 82.6171875,108 L75.3632812,108 C74.7851534,108 74.3730481,107.888673 74.1269531,107.666016 C73.8808581,107.443358 73.7578125,107.152346 73.7578125,106.792969 C73.7578125,106.441404 73.8808581,106.154298 74.1269531,105.931641 C74.3730481,105.708983 74.7851534,105.597656 75.3632812,105.597656 L76.7929688,105.597656 L76.7929688,99.7617188 L75.6445312,99.7617188 C75.0664034,99.7617188 74.6542981,99.6503917 74.4082031,99.4277344 C74.1621081,99.205077 74.0390625,98.9140643 74.0390625,98.5546875 C74.0390625,98.2031232 74.1621081,97.9160167 74.4082031,97.6933594 C74.6542981,97.470702 75.0664034,97.359375 75.6445312,97.359375 L76.7929688,97.359375 L76.7929688,96.4453125 C76.7929688,95.3984323 77.1855429,94.5293003 77.9707031,93.8378906 C78.7558633,93.1464809 79.8945238,92.8007812 81.3867188,92.8007812 C82.0507846,92.8007812 82.818355,92.8613275 83.6894531,92.9824219 C84.5605512,93.1035162 85.1191394,93.2734364 85.3652344,93.4921875 C85.6113294,93.7109386 85.734375,93.9921858 85.734375,94.3359375 C85.734375,94.7031268 85.6250011,95.001952 85.40625,95.2324219 C85.1874989,95.4628918 84.9179704,95.578125 84.5976562,95.578125 C84.449218,95.578125 84.226564,95.5507815 83.9296875,95.4960938 C82.937495,95.3007812 82.0585976,95.203125 81.2929688,95.203125 C80.4960898,95.203125 79.9472671,95.3222644 79.6464844,95.5605469 C79.3457016,95.7988293 79.1953125,96.0937482 79.1953125,96.4453125 L79.1953125,97.359375 L82.8984375,97.359375 C83.4765654,97.359375 83.8886706,97.470702 84.1347656,97.6933594 C84.3808606,97.9160167 84.5039062,98.2070295 84.5039062,98.5664062 C84.5039062,98.9179705 84.3808606,99.205077 84.1347656,99.4277344 C83.8886706,99.6503917 83.4765654,99.7617188 82.8984375,99.7617188 L79.1953125,99.7617188 Z M93.5976562,99.7617188 L93.5976562,105.597656 L97.0195312,105.597656 C97.5976591,105.597656 98.0097644,105.708983 98.2558594,105.931641 C98.5019544,106.154298 98.625,106.445311 98.625,106.804688 C98.625,107.156252 98.5019544,107.443358 98.2558594,107.666016 C98.0097644,107.888673 97.5976591,108 97.0195312,108 L89.765625,108 C89.1874971,108 88.7753919,107.888673 88.5292969,107.666016 C88.2832019,107.443358 88.1601562,107.152346 88.1601562,106.792969 C88.1601562,106.441404 88.2832019,106.154298 88.5292969,105.931641 C88.7753919,105.708983 89.1874971,105.597656 89.765625,105.597656 L91.1953125,105.597656 L91.1953125,99.7617188 L90.046875,99.7617188 C89.4687471,99.7617188 89.0566419,99.6503917 88.8105469,99.4277344 C88.5644519,99.205077 88.4414062,98.9140643 88.4414062,98.5546875 C88.4414062,98.2031232 88.5644519,97.9160167 88.8105469,97.6933594 C89.0566419,97.470702 89.4687471,97.359375 90.046875,97.359375 L91.1953125,97.359375 L91.1953125,96.4453125 C91.1953125,95.3984323 91.5878867,94.5293003 92.3730469,93.8378906 C93.1582071,93.1464809 94.2968675,92.8007812 95.7890625,92.8007812 C96.4531283,92.8007812 97.2206988,92.8613275 98.0917969,92.9824219 C98.962895,93.1035162 99.5214831,93.2734364 99.7675781,93.4921875 C100.013673,93.7109386 100.136719,93.9921858 100.136719,94.3359375 C100.136719,94.7031268 100.027345,95.001952 99.8085938,95.2324219 C99.5898427,95.4628918 99.3203141,95.578125 99,95.578125 C98.8515618,95.578125 98.6289077,95.5507815 98.3320312,95.4960938 C97.3398388,95.3007812 96.4609413,95.203125 95.6953125,95.203125 C94.8984335,95.203125 94.3496109,95.3222644 94.0488281,95.5605469 C93.7480454,95.7988293 93.5976562,96.0937482 93.5976562,96.4453125 L93.5976562,97.359375 L97.3007812,97.359375 C97.8789091,97.359375 98.2910144,97.470702 98.5371094,97.6933594 C98.7832044,97.9160167 98.90625,98.2070295 98.90625,98.5664062 C98.90625,98.9179705 98.7832044,99.205077 98.5371094,99.4277344 C98.2910144,99.6503917 97.8789091,99.7617188 97.3007812,99.7617188 L93.5976562,99.7617188 Z" id="Key-off" fill="#FFFFFF"></path>
            </g>
            <g id="Group-7" transform="translate(13.500000, 296.000000)" fill-rule="nonzero">
                <polygon id="Line-4-Copy" fill="#929292" points="7 0.5 14 14.5 8 14.5 8 24.5 6 24.5 6 14.5 0 14.5"></polygon>
                <path d="M19.1992188,28.9375 L19.1992188,31.5976562 L20.0664062,31.5976562 C20.6445341,31.5976562 21.0566394,31.7089833 21.3027344,31.9316406 C21.5488294,32.154298 21.671875,32.4453107 21.671875,32.8046875 C21.671875,33.1562518 21.5488294,33.4433583 21.3027344,33.6660156 C21.0566394,33.888673 20.6445341,34 20.0664062,34 L16.421875,34 C15.8437471,34 15.4316419,33.888673 15.1855469,33.6660156 C14.9394519,33.4433583 14.8164062,33.1523455 14.8164062,32.7929688 C14.8164062,32.4414045 14.941405,32.154298 15.1914062,31.9316406 C15.4414075,31.7089833 15.8515596,31.5976562 16.421875,31.5976562 L16.796875,31.5976562 L16.796875,22.1992188 L16.421875,22.1992188 C15.8437471,22.1992188 15.4316419,22.0878917 15.1855469,21.8652344 C14.9394519,21.642577 14.8164062,21.3515643 14.8164062,20.9921875 C14.8164062,20.6328107 14.9394519,20.341798 15.1855469,20.1191406 C15.4316419,19.8964833 15.8437471,19.7851562 16.421875,19.7851562 L20.0664062,19.796875 C20.6445341,19.796875 21.0566394,19.9062489 21.3027344,20.125 C21.5488294,20.3437511 21.671875,20.6328107 21.671875,20.9921875 C21.671875,21.3515643 21.5488294,21.642577 21.3027344,21.8652344 C21.0566394,22.0878917 20.6445341,22.1992188 20.0664062,22.1992188 L19.1992188,22.1992188 L19.1992188,25.7617188 L23.4648438,22.09375 C23.2148425,21.9140616 23.0429692,21.7460945 22.9492188,21.5898438 C22.8554683,21.433593 22.8085938,21.2421886 22.8085938,21.015625 C22.8085938,20.6484357 22.9316394,20.3515636 23.1777344,20.125 C23.4238294,19.8984364 23.8359346,19.7851562 24.4140625,19.7851562 L26.8632812,19.796875 C27.4414091,19.796875 27.8535144,19.9062489 28.0996094,20.125 C28.3457044,20.3437511 28.46875,20.6328107 28.46875,20.9921875 C28.46875,21.3437518 28.3457044,21.6328114 28.0996094,21.859375 C27.8535144,22.0859386 27.4687526,22.1992188 26.9453125,22.1992188 L22.6328125,25.9726562 C23.437504,26.4335961 24.1933558,27.136714 24.9003906,28.0820312 C25.6074254,29.0273485 26.2343723,30.1992118 26.78125,31.5976562 L27.4257812,31.5976562 C27.9960966,31.5976562 28.4042956,31.7089833 28.6503906,31.9316406 C28.8964856,32.154298 29.0195312,32.4453107 29.0195312,32.8046875 C29.0195312,33.1562518 28.8984387,33.4433583 28.65625,33.6660156 C28.4140613,33.888673 28.0039091,34 27.4257812,34 L25.2460938,34 C24.7460912,32.8046815 24.1992217,31.6640679 23.6054688,30.578125 C23.1210913,29.6953081 22.6621115,29.0527364 22.2285156,28.6503906 C21.7949197,28.2480449 21.2773468,27.9257825 20.6757812,27.6835938 L19.1992188,28.9375 Z M42.1328125,29.8984375 L32.2773438,29.8984375 C32.527345,30.5234406 32.9706999,31.0273418 33.6074219,31.4101562 C34.2441438,31.7929707 35.1054633,31.984375 36.1914062,31.984375 C37.0078166,31.984375 38.0703884,31.8235422 39.3791489,31.5018721 L39.7421875,31.4101562 C40.3515655,31.2539055 40.7734363,31.1757812 41.0078125,31.1757812 C41.3281266,31.1757812 41.5976552,31.2890614 41.8164062,31.515625 C42.0351573,31.7421886 42.1445312,32.027342 42.1445312,32.3710938 C42.1445312,32.6835953 42.0273449,32.9492177 41.7929688,33.1679688 C41.4804672,33.4570327 40.7187561,33.7324206 39.5078125,33.9941406 C38.2968689,34.2558607 37.1328181,34.3867188 36.015625,34.3867188 C34.0937404,34.3867188 32.5566464,33.8437554 31.4042969,32.7578125 C30.2519474,31.6718696 29.6757812,30.3359454 29.6757812,28.75 C29.6757812,27.0624916 30.2988219,25.6894584 31.5449219,24.6308594 C32.7910219,23.5722603 34.2265544,23.0429688 35.8515625,23.0429688 C36.8281299,23.0429688 37.7246053,23.214842 38.5410156,23.5585938 C39.357426,23.9023455 39.9648418,24.2734355 40.3632812,24.671875 C40.9257841,25.2500029 41.3906232,25.9648395 41.7578125,26.8164062 C42.0078137,27.4101592 42.1328125,28.0976523 42.1328125,28.8789062 L42.1328125,29.8984375 Z M39.4726562,27.4960938 C39.1054669,26.8085903 38.625003,26.2949236 38.03125,25.9550781 C37.437497,25.6152327 36.7304729,25.4453125 35.9101562,25.4453125 C35.0976522,25.4453125 34.3945342,25.6152327 33.8007812,25.9550781 C33.2070283,26.2949236 32.7226581,26.8085903 32.3476562,27.4960938 L39.4726562,27.4960938 Z M49.1640625,33.9179688 L45.0039062,25.7617188 C44.6132793,25.7148435 44.3164073,25.5820323 44.1132812,25.3632812 C43.9101552,25.1445302 43.8085938,24.8789078 43.8085938,24.5664062 C43.8085938,24.2070295 43.9316394,23.9160167 44.1777344,23.6933594 C44.4238294,23.470702 44.8359346,23.359375 45.4140625,23.359375 L47.6054688,23.359375 C48.1835966,23.359375 48.5957019,23.470702 48.8417969,23.6933594 C49.0878919,23.9160167 49.2109375,24.2070295 49.2109375,24.5664062 C49.2109375,24.9179705 49.0878919,25.205077 48.8417969,25.4277344 C48.5957019,25.6503917 48.2070339,25.7617188 47.6757812,25.7617188 L50.5117188,31.28125 L53.3242188,25.7617188 C52.8085938,25.7617188 52.4277356,25.6503917 52.1816406,25.4277344 C51.9355456,25.205077 51.8125,24.9140643 51.8125,24.5546875 C51.8125,24.2031232 51.9355456,23.9160167 52.1816406,23.6933594 C52.4277356,23.470702 52.8398409,23.359375 53.4179688,23.359375 L55.6796875,23.359375 C56.2500029,23.359375 56.6582019,23.470702 56.9042969,23.6933594 C57.1503919,23.9160167 57.2734375,24.2070295 57.2734375,24.5664062 C57.2734375,24.8867204 57.1679698,25.158202 56.9570312,25.3808594 C56.7460927,25.6035167 56.4335958,25.7304686 56.0195312,25.7617188 L50.5117188,36.6132812 C51.1132843,36.6132812 51.5078116,36.6718744 51.6953125,36.7890625 C52.0703144,37.0312512 52.2578125,37.3749978 52.2578125,37.8203125 C52.2578125,38.1718768 52.1347669,38.4589833 51.8886719,38.6816406 C51.6425769,38.904298 51.2304716,39.015625 50.6523438,39.015625 L45.4140625,39.015625 C44.8359346,39.015625 44.4238294,38.904298 44.1777344,38.6816406 C43.9316394,38.4589833 43.8085938,38.1718768 43.8085938,37.8203125 C43.8085938,37.4609357 43.9316394,37.169923 44.1777344,36.9472656 C44.4238294,36.7246083 44.8359346,36.6132812 45.4140625,36.6132812 L47.8046875,36.6132812 L49.1640625,33.9179688 Z M69.9414062,28.28125 L59.9101562,28.28125 L59.9101562,26.0898438 L69.9414062,26.0898438 L69.9414062,28.28125 Z M85.5507812,28.8789062 C85.5507812,29.8007859 85.2949244,30.6933551 84.7832031,31.5566406 C84.2714818,32.4199262 83.5097707,33.1074193 82.4980469,33.6191406 C81.4863231,34.1308619 80.429693,34.3867188 79.328125,34.3867188 C78.2343695,34.3867188 77.187505,34.1347681 76.1875,33.6308594 C75.187495,33.1269506 74.4257839,32.4414106 73.9023438,31.5742188 C73.3789036,30.7070269 73.1171875,29.800786 73.1171875,28.8554688 C73.1171875,27.8945264 73.3828098,26.9511765 73.9140625,26.0253906 C74.4453152,25.0996047 75.2089794,24.3710964 76.2050781,23.8398438 C77.2011769,23.3085911 78.2421821,23.0429688 79.328125,23.0429688 C80.4218805,23.0429688 81.4746043,23.3144504 82.4863281,23.8574219 C83.4980519,24.4003933 84.2617162,25.1308548 84.7773438,26.0488281 C85.2929713,26.9668015 85.5507812,27.9101514 85.5507812,28.8789062 Z M83.1484375,28.890625 C83.1484375,28.1171836 82.8710965,27.4062532 82.3164062,26.7578125 C81.55859,25.8828081 80.5625062,25.4453125 79.328125,25.4453125 C78.2421821,25.4453125 77.3359411,25.7929653 76.609375,26.4882812 C75.8828089,27.1835972 75.5195312,27.9882767 75.5195312,28.9023438 C75.5195312,29.6523475 75.8867151,30.3535124 76.6210938,31.0058594 C77.3554724,31.6582064 78.2578071,31.984375 79.328125,31.984375 C80.4062554,31.984375 81.3124963,31.6582064 82.046875,31.0058594 C82.7812537,30.3535124 83.1484375,29.6484413 83.1484375,28.890625 Z M91.28125,23.359375 L91.28125,24.1679688 C91.7187522,23.7929669 92.2011692,23.5117197 92.7285156,23.3242188 C93.255862,23.1367178 93.8281219,23.0429688 94.4453125,23.0429688 C95.8671946,23.0429688 96.9921834,23.4843706 97.8203125,24.3671875 C98.4765658,25.070316 98.8046875,25.9921818 98.8046875,27.1328125 L98.8046875,31.5976562 C99.3125025,31.5976562 99.6874988,31.7089833 99.9296875,31.9316406 C100.171876,32.154298 100.292969,32.4453107 100.292969,32.8046875 C100.292969,33.1562518 100.169923,33.4433583 99.9238281,33.6660156 C99.6777331,33.888673 99.2656279,34 98.6875,34 L96.5195312,34 C95.9414034,34 95.5292981,33.888673 95.2832031,33.6660156 C95.0371081,33.4433583 94.9140625,33.1523455 94.9140625,32.7929688 C94.9140625,32.4414045 95.035155,32.154298 95.2773438,31.9316406 C95.5195325,31.7089833 95.8945287,31.5976562 96.4023438,31.5976562 L96.4023438,27.0625 C96.4023438,26.5390599 96.2617202,26.1562512 95.9804688,25.9140625 C95.6132794,25.6015609 95.0625037,25.4453125 94.328125,25.4453125 C93.7734347,25.4453125 93.2871115,25.5527333 92.8691406,25.7675781 C92.4511698,25.9824229 91.9218782,26.4374965 91.28125,27.1328125 L91.28125,31.5976562 C91.8984406,31.5976562 92.2968741,31.6562494 92.4765625,31.7734375 C92.8593769,32.0078137 93.0507812,32.3515602 93.0507812,32.8046875 C93.0507812,33.1562518 92.9277356,33.4433583 92.6816406,33.6660156 C92.4355456,33.888673 92.0234404,34 91.4453125,34 L88.7148438,34 C88.1367159,34 87.7246106,33.888673 87.4785156,33.6660156 C87.2324206,33.4433583 87.109375,33.1523455 87.109375,32.7929688 C87.109375,32.3554666 87.2968731,32.0156262 87.671875,31.7734375 C87.8593759,31.6562494 88.2617157,31.5976562 88.8789062,31.5976562 L88.8789062,25.7617188 C88.3710912,25.7617188 87.996095,25.6484386 87.7539062,25.421875 C87.5117175,25.1953114 87.390625,24.9062518 87.390625,24.5546875 C87.390625,24.2031232 87.5136706,23.9160167 87.7597656,23.6933594 C88.0058606,23.470702 88.4179659,23.359375 88.9960938,23.359375 L91.28125,23.359375 Z" id="Key-on" fill="#FFFFFF"></path>
            </g>
            <g id="Envelope" transform="translate(0.000000, 40.691636)" stroke="#FFFFFF" stroke-width="5">
                <path d="M0.5,250.308364 L464.5,250.308364" id="Line" stroke-linecap="square"></path>
                <polyline id="Path" points="20.3499107 250 119.296647 0 246.218944 125 368.207795 165.308364 445.349911 250"></polyline>
            </g>
        </g>
    </g>
</svg>