<?xml version="1.0" encoding="UTF-8"?>
<svg width="480px" height="380px" viewBox="0 0 480 380" version="1.1" xmlns="http://www.w3.org/2000/svg" xmlns:xlink="http://www.w3.org/1999/xlink">
    <!-- Generator: Sketch 58 (84663) - https://sketch.com -->
    <title>BossFight-Envelope</title>
    <desc>Created with Sketch.</desc>
    <g id="BossFight-Envelope" stroke="none" stroke-width="1" fill="none" fill-rule="evenodd">
        <rect id="Rectangle" fill="#E6E6E6" x="0" y="0" width="480" height="380"></rect>
        <g id="Logo/Panel/LightMode" transform="translate(207.000000, 364.000000)" fill="#000000" fill-rule="nonzero">
            <g id="Logo/Print/LightMode" transform="translate(0.000000, -0.000000)">
                <path d="M2.01990525,2.40146169 L3.49310173,2.40146169 L3.49310173,5.3844506 L6.2595994,2.40146169 L8.19468916,2.40146169 L5.25802028,5.3844506 L8.34541223,9.64516129 L6.42004654,9.64516129 L4.20782081,6.48034274 L3.49310173,7.22240423 L3.49310173,9.64516129 L2.01990525,9.64516129 L2.01990525,2.40146169 Z M11.9968002,7.0405746 C11.9092831,7.09627044 11.8209571,7.14131787 11.7318193,7.17571825 C11.6426816,7.21011862 11.5203216,7.24206134 11.3647357,7.27154738 L11.0535655,7.33051915 C10.761842,7.38293877 10.5527766,7.44682422 10.426363,7.52217742 C10.2124324,7.64995024 10.1054688,7.84815894 10.1054688,8.11680948 C10.1054688,8.35597398 10.1711056,8.52879231 10.3023812,8.63526966 C10.4336567,8.741747 10.5932919,8.79498488 10.7812916,8.79498488 C11.0794978,8.79498488 11.3542,8.7065281 11.6054064,8.5296119 C11.8566128,8.35269569 11.9870761,8.02999226 11.9968002,7.56149194 L11.9968002,7.0405746 Z M11.1556682,6.38697077 C11.4117354,6.35420851 11.5948715,6.31325629 11.7050781,6.2641129 C11.9028019,6.17893103 12.0016622,6.04624586 12.0016622,5.86605343 C12.0016622,5.64654628 11.9263015,5.4950231 11.7755776,5.41147933 C11.6248538,5.32793557 11.4036334,5.28616431 11.1119099,5.28616431 C10.7845313,5.28616431 10.5527766,5.36806874 10.416639,5.53188004 C10.3193978,5.6531004 10.2545713,5.81690925 10.2221576,6.02331149 L8.88509807,6.02331149 C8.91427043,5.55481117 9.04392338,5.16986038 9.27406084,4.86844758 C9.64033594,4.39667103 10.2691528,4.16078629 11.1605303,4.16078629 C11.7407359,4.16078629 12.2561065,4.27709057 12.7066572,4.50970262 C13.157208,4.74231467 13.3824801,5.18132238 13.3824801,5.82673891 L13.3824801,8.28389617 C13.3824801,8.45425992 13.3857214,8.66065907 13.3922041,8.9030998 C13.4019282,9.08656846 13.4294795,9.21106318 13.4748587,9.2765877 C13.5202379,9.34211222 13.5883057,9.39616914 13.6790642,9.43876008 L13.6790642,9.64516129 L12.1718334,9.64516129 C12.1296956,9.53704583 12.1005237,9.43548435 12.0843168,9.34047379 C12.06811,9.24546323 12.0551447,9.1373494 12.0454205,9.01612903 C11.8541796,9.2258075 11.6337695,9.40435914 11.3841838,9.55178931 C11.0859776,9.7254293 10.7488799,9.81224798 10.3728807,9.81224798 C9.89315751,9.81224798 9.49690565,9.67382951 9.1841132,9.39698841 C8.87132074,9.12014731 8.71492686,8.72782512 8.71492686,8.22001008 C8.71492686,7.56148864 8.96612947,7.0848049 9.46854222,6.78994456 C9.74405889,6.62940948 10.1492244,6.51474329 10.6840509,6.44594254 L11.1556682,6.38697077 Z M15.9933926,4.28855847 L15.9933926,7.5172631 C15.9933926,7.82195213 16.0290472,8.05128451 16.1003574,8.20526714 C16.2267709,8.4771939 16.4747322,8.61315524 16.8442487,8.61315524 C17.3174891,8.61315524 17.6416215,8.4198608 17.8166556,8.03326613 C17.907414,7.82358766 17.9527926,7.54675071 17.9527926,7.20274698 L17.9527926,4.28855847 L19.3579205,4.28855847 L19.3579205,9.64516129 L18.011137,9.64516129 L18.011137,8.88835685 L17.9942171,8.91194552 C17.9769731,8.93717225 17.9501996,8.97845233 17.9138963,9.03578629 C17.8620343,9.11769194 17.8004492,9.18976783 17.729139,9.25201613 C17.511967,9.44858969 17.3020913,9.58291295 17.0995055,9.65498992 C16.8969197,9.72706689 16.6594927,9.76310484 16.3872174,9.76310484 C15.6028053,9.76310484 15.0744694,9.47807745 14.8021941,8.90801411 C14.6498496,8.59349641 14.5736785,8.12991738 14.5736785,7.5172631 L14.5736785,4.28855847 L15.9933926,4.28855847 Z M20.1504322,5.33530746 L20.1504322,4.33770161 L20.8894614,4.33770161 L20.8894614,2.84375 L22.2605552,2.84375 L22.2605552,4.33770161 L23.1211353,4.33770161 L23.1211353,5.33530746 L22.2605552,5.33530746 L22.2605552,8.16595262 C22.2605552,8.38545977 22.2881064,8.52224015 22.3432098,8.57629788 C22.3983131,8.63035561 22.566862,8.65738407 22.8488614,8.65738407 C22.8909992,8.65738407 22.9355674,8.65656503 22.9825673,8.65492692 C23.0295672,8.6532888 23.0757561,8.65083167 23.1211353,8.64755544 L23.1211353,9.69430444 L22.4647606,9.71887601 C21.8100034,9.74180959 21.3627007,9.6271434 21.1228391,9.37487399 C20.9672532,9.21433892 20.8894614,8.96698756 20.8894614,8.6328125 L20.8894614,5.33530746 L20.1504322,5.33530746 Z M26.1015625,5.30090726 C25.7806666,5.30090726 25.531895,5.40246874 25.3552402,5.60559476 C25.1785854,5.80872077 25.06757,6.08391963 25.0221908,6.4311996 L27.1760721,6.4311996 C27.1533825,6.06098605 27.0423672,5.78005388 26.8430228,5.58839466 C26.6436784,5.39673543 26.3965274,5.30090726 26.1015625,5.30090726 Z M26.1015625,4.14604335 C26.5423892,4.14604335 26.9394514,4.22958586 27.292761,4.39667339 C27.6460706,4.56376092 27.9377897,4.82749316 28.1679272,5.18787802 C28.375375,5.50567195 28.50989,5.87424185 28.5714761,6.29359879 C28.6071312,6.53931574 28.6217171,6.89314285 28.6152344,7.35509073 L24.9881566,7.35509073 C25.0076048,7.8923918 25.174533,8.26915214 25.4889461,8.48538306 C25.6801871,8.61970833 25.9103211,8.68686996 26.1793551,8.68686996 C26.4645958,8.68686996 26.6963505,8.60496554 26.874626,8.44115423 C26.9718672,8.35269613 27.0577623,8.2298395 27.1323138,8.07258065 L28.5471659,8.07258065 C28.5115108,8.39037457 28.3478239,8.713078 28.0561004,9.0407006 C27.6023082,9.56162055 26.9670087,9.82207661 26.1501828,9.82207661 C25.4759773,9.82207661 24.8811944,9.60257276 24.3658162,9.16355847 C23.8504379,8.72454418 23.5927527,8.01033761 23.5927527,7.02091734 C23.5927527,6.09374536 23.8253177,5.38281497 24.2904546,4.88810484 C24.7555916,4.3933947 25.3592882,4.14604335 26.1015625,4.14604335 Z M32.4854139,4.16078629 C33.0332059,4.16078629 33.4813189,4.30575712 33.8297665,4.59570312 C34.178214,4.88564913 34.3524352,5.36642809 34.3524352,6.03805444 L34.3524352,9.64516129 L32.9327211,9.64516129 L32.9327211,6.38697077 C32.9327211,6.10521533 32.8954459,5.88898765 32.8208943,5.73828125 C32.6847566,5.46307826 32.4254507,5.32547883 32.0429688,5.32547883 C31.5729697,5.32547883 31.250458,5.52696371 31.0754239,5.92993952 C30.9846654,6.14289421 30.9392869,6.41481689 30.9392869,6.74571573 L30.9392869,9.64516129 L29.5584691,9.64516129 L29.5584691,4.2983871 L30.8955286,4.2983871 L30.8955286,5.0797631 C31.0738041,4.80456012 31.2423529,4.60635141 31.4011802,4.48513105 C31.686421,4.26890013 32.0478286,4.16078629 32.4854139,4.16078629 Z M37.0800366,3.64969758 L35.6943567,3.64969758 L35.6943567,2.35723286 L37.0800366,2.35723286 L37.0800366,3.64969758 Z M35.028258,11.7927167 L35.028258,10.672253 L35.1803485,10.6838093 L35.1803485,10.6838093 L35.1935672,10.6845388 C35.2259809,10.6861769 35.2551528,10.686996 35.2810838,10.686996 C35.4172214,10.686996 35.5201335,10.6534152 35.589823,10.5862525 C35.6595125,10.5190899 35.6943567,10.3888619 35.6943567,10.1955645 L35.6943567,4.31313004 L37.0800366,4.31313004 L37.0800366,10.2201361 C37.0800366,10.7607134 36.9746935,11.160407 36.7640043,11.4192288 C36.5601115,11.6697016 36.166498,11.798976 35.5831525,11.8070557 L35.5241855,11.8074597 C35.5001067,11.8074597 35.4694132,11.8069248 35.4321046,11.805855 L35.1288725,11.7955249 C35.0969882,11.7945889 35.06345,11.7936528 35.028258,11.7927167 Z M41.3197307,7.0405746 C41.2322137,7.09627044 41.1438876,7.14131787 41.0547498,7.17571825 C40.9656121,7.21011862 40.8432521,7.24206134 40.6876662,7.27154738 L40.376496,7.33051915 C40.0847725,7.38293877 39.8757071,7.44682422 39.7492936,7.52217742 C39.535363,7.64995024 39.4283993,7.84815894 39.4283993,8.11680948 C39.4283993,8.35597398 39.4940361,8.52879231 39.6253117,8.63526966 C39.7565873,8.741747 39.9162225,8.79498488 40.1042221,8.79498488 C40.4024284,8.79498488 40.6771306,8.7065281 40.9283369,8.5296119 C41.1795433,8.35269569 41.3100066,8.02999226 41.3197307,7.56149194 L41.3197307,7.0405746 Z M40.4785987,6.38697077 C40.7346659,6.35420851 40.917802,6.31325629 41.0280086,6.2641129 C41.2257324,6.17893103 41.3245928,6.04624586 41.3245928,5.86605343 C41.3245928,5.64654628 41.249232,5.4950231 41.0985081,5.41147933 C40.9477843,5.32793557 40.726564,5.28616431 40.4348404,5.28616431 C40.1074618,5.28616431 39.8757071,5.36806874 39.7395695,5.53188004 C39.6423283,5.6531004 39.5775018,5.81690925 39.5450881,6.02331149 L38.2080286,6.02331149 C38.2372009,5.55481117 38.3668539,5.16986038 38.5969914,4.86844758 C38.9632665,4.39667103 39.5920833,4.16078629 40.4834608,4.16078629 C41.0636665,4.16078629 41.579037,4.27709057 42.0295878,4.50970262 C42.4801386,4.74231467 42.7054106,5.18132238 42.7054106,5.82673891 L42.7054106,8.28389617 C42.7054106,8.45425992 42.7086519,8.66065907 42.7151346,8.9030998 C42.7248588,9.08656846 42.75241,9.21106318 42.7977892,9.2765877 C42.8431684,9.34211222 42.9112362,9.39616914 43.0019947,9.43876008 L43.0019947,9.64516129 L41.494764,9.64516129 C41.4526261,9.53704583 41.4234542,9.43548435 41.4072473,9.34047379 C41.3910405,9.24546323 41.3780752,9.1373494 41.3683511,9.01612903 C41.1771101,9.2258075 40.9567001,9.40435914 40.7071144,9.55178931 C40.4089081,9.7254293 40.0718104,9.81224798 39.6958112,9.81224798 C39.216088,9.81224798 38.8198362,9.67382951 38.5070437,9.39698841 C38.1942513,9.12014731 38.0378574,8.72782512 38.0378574,8.22001008 C38.0378574,7.56148864 38.28906,7.0848049 38.7914727,6.78994456 C39.0669894,6.62940948 39.4721549,6.51474329 40.0069814,6.44594254 L40.4785987,6.38697077 Z M45.5010805,3.65952621 L45.5010805,8.38709677 L46.8818983,8.38709677 C47.5885175,8.38709677 48.0811987,8.03490776 48.3599568,7.33051915 C48.5123013,6.94392448 48.5884724,6.48362162 48.5884724,5.94959677 C48.5884724,5.21244591 48.4742157,4.64648635 48.245699,4.25170111 C48.0171822,3.85691587 47.5625865,3.65952621 46.8818983,3.65952621 L45.5010805,3.65952621 Z M47.1347241,2.40146169 C47.5787921,2.40801415 47.948303,2.46043298 48.243268,2.55871976 C48.7456807,2.72580729 49.1524669,3.03212983 49.4636386,3.47769657 C49.7132243,3.83808144 49.8833938,4.22794649 49.9741523,4.64730343 C50.0649107,5.06666036 50.1102892,5.46635395 50.1102892,5.84639617 C50.1102892,6.80960663 49.9190511,7.62537468 49.5365691,8.2937248 C49.0179495,9.19468696 48.2173425,9.64516129 47.1347241,9.64516129 L44.0473321,9.64516129 L44.0473321,2.40146169 L47.1347241,2.40146169 Z M52.322515,7.40914819 C52.3678942,7.74004702 52.4570306,7.98739837 52.5899269,8.15120968 C52.8330298,8.44934625 53.2495399,8.5984123 53.8394697,8.5984123 C54.1927794,8.5984123 54.4796365,8.55909818 54.7000499,8.48046875 C55.1181869,8.32976235 55.3272523,8.04964923 55.3272523,7.64012097 C55.3272523,7.40095647 55.22353,7.21585247 55.0160821,7.08480343 C54.8190067,6.96341925 54.5151608,6.85534218 54.104536,6.7605693 L53.2803358,6.57371472 C52.5348201,6.40335096 52.0194496,6.21824697 51.7342088,6.01839718 C51.2512443,5.68422212 51.0097656,5.1616719 51.0097656,4.45073085 C51.0097656,3.80203809 51.243141,3.26310698 51.7098986,2.83392137 C52.1766563,2.40473576 52.8621963,2.19014617 53.7665392,2.19014617 C54.521779,2.19014617 55.1659922,2.39245009 55.699198,2.79706401 C56.2324038,3.20167793 56.511968,3.78893264 56.5378989,4.55884577 L55.0987367,4.55884577 C55.0728057,4.1231077 54.8848089,3.81350898 54.5347407,3.63004032 C54.3013619,3.50881996 54.0112634,3.44821069 53.6644365,3.44821069 C53.2787132,3.44821069 52.9707874,3.52683893 52.7406499,3.68409778 C52.5105125,3.84135663 52.3954455,4.06086049 52.3954455,4.34261593 C52.3954455,4.58967316 52.4988129,4.77702462 52.7055507,4.90467535 L52.7357879,4.92250504 C52.8758152,5.00427964 53.1681879,5.09964003 53.6129142,5.20858885 L54.9042553,5.52205141 C55.4455645,5.65310045 55.8539714,5.82837592 56.129488,6.04788306 C56.5573492,6.38861057 56.7712766,6.8816752 56.7712766,7.52709173 C56.7712766,8.1888894 56.5208843,8.73846808 56.0200923,9.17584425 C55.5193002,9.61322043 54.8118812,9.83190524 53.8978142,9.83190524 C52.9642989,9.83190524 52.230139,9.61649661 51.6953125,9.18567288 C51.160486,8.75484916 50.8930768,8.16268018 50.8930768,7.40914819 L52.322515,7.40914819 Z M61.9153092,4.7062752 C61.9153092,4.3295092 61.8172591,4.0608627 61.6211561,3.90032762 C61.425053,3.73979254 61.1503508,3.65952621 60.7970412,3.65952621 L59.4016373,3.65952621 L59.4016373,5.79233871 L60.7970412,5.79233871 C61.1503508,5.79233871 61.425053,5.70552002 61.6211561,5.53188004 C61.8172591,5.35824006 61.9153092,5.0830412 61.9153092,4.7062752 Z M63.3982297,4.69644657 C63.3982297,5.55154157 63.1843023,6.15599621 62.7564412,6.50982863 C62.32858,6.86366104 61.7175904,7.0405746 60.9234541,7.0405746 L59.4016373,7.0405746 L59.4016373,9.64516129 L57.9138547,9.64516129 L57.9138547,2.40146169 L61.0352809,2.40146169 C61.7548656,2.40146169 62.32858,2.58820378 62.7564412,2.96169355 C63.1843023,3.33518332 63.3982297,3.91342854 63.3982297,4.69644657 Z" id="KautenjaDSP"></path>
            </g>
        </g>
        <g id="Group-5" transform="translate(7.000000, 21.000000)">
            <path d="M20.3499107,290.691636 L34.3200546,254.903565 C46.7491639,258.86631 54.6126496,262.875467 57.9105117,266.931036 C61.2083739,270.986605 63.0455198,278.906805 63.4219495,290.691636 L20.3499107,290.691636 Z" id="Path-2" fill="#929292"></path>
            <g id="Group-8" transform="translate(120.500000, 37.500000)">
                <path d="M-1.0658141e-14,0.5 L35,0.5 C36.4688458,7.83806589 36.4688458,13.0928778 35,16.2644356 C33.5311542,19.4359934 29.5284247,22.8239463 22.9918114,26.428294 L-1.0658141e-14,0.5 Z" id="Path-3" fill="#929292"></path>
                <path d="M0,0.5 L70,0.5" id="Line-3" stroke="#929292" stroke-width="3" stroke-linecap="square"></path>
            </g>
            <g id="Group-6" transform="translate(243.500000, 162.500000)">
                <path d="M44.0212676,0.5 L1.0658141e-14,0.5 L46.6132499,17.9157124 C48.7823908,14.2121189 49.7105674,11.3095001 49.3977795,9.20785621 C49.0849916,7.10621231 47.292821,4.20359357 44.0212676,0.5 Z" id="Path-4" fill="#929292"></path>
                <path d="M0,0.5 L70,0.5" id="Line-3-Copy" stroke="#929292" stroke-width="3" stroke-linecap="square"></path>
            </g>
            <g id="Group" transform="translate(369.500000, 205.500000)">
                <path d="M-7.10542736e-15,0.5 L39.8014326,0.5 C41.3749371,9.508568 41.3749371,15.9252347 39.8014326,19.75 C38.2279281,23.5747653 33.9949968,27.4472141 27.1026385,31.3673464 L-7.10542736e-15,0.5 Z" id="Path-5" fill="#929292"></path>
                <path d="M0,0.5 L70,0.5" id="Line-3-Copy-2" stroke="#929292" stroke-width="3" stroke-linecap="square"></path>
            </g>
            <g id="Group-9" transform="translate(240.000000, 162.500000)" fill="#929292" fill-rule="nonzero">
                <path d="M1.50838563,124.508351 L5.50835062,124.491614 L5.4874303,119.491658 L1.48746532,119.508394 L1.50838563,124.508351 Z M1.47909719,117.508412 L5.47906217,117.491676 L5.45814186,112.491719 L1.45817687,112.508456 L1.47909719,117.508412 Z M1.44980874,110.508473 L5.44977373,110.491737 L5.42885341,105.491781 L1.42888842,105.508517 L1.44980874,110.508473 Z M1.42052029,103.508534 L5.42048528,103.491798 L5.39956496,98.491842 L1.39959998,98.5085782 L1.42052029,103.508534 Z M1.39123185,96.5085957 L5.39119683,96.4918595 L5.37027652,91.4919032 L1.37031153,91.5086395 L1.39123185,96.5085957 Z M1.3619434,89.508657 L5.36190839,89.4919207 L5.34098807,84.4919645 L1.34102308,84.5087008 L1.3619434,89.508657 Z M1.33265495,82.5087183 L5.33261994,82.491982 L5.31169962,77.4920258 L1.31173464,77.508762 L1.33265495,82.5087183 Z M1.30336651,75.5087795 L5.3033315,75.4920433 L5.28241118,70.492087 L1.28244619,70.5088233 L1.30336651,75.5087795 Z M1.27407806,68.5088408 L5.27404305,68.4921045 L5.25312273,63.4921483 L1.25315774,63.5088846 L1.27407806,68.5088408 Z M1.24478962,61.5089021 L5.2447546,61.4921658 L5.22383428,56.4922096 L1.2238693,56.5089458 L1.24478962,61.5089021 Z M1.21550117,54.5089633 L5.21546616,54.4922271 L5.19454584,49.4922709 L1.19458085,49.5090071 L1.21550117,54.5089633 Z M1.18621272,47.5090246 L5.18617771,47.4922884 L5.16525739,42.4923321 L1.1652924,42.5090684 L1.18621272,47.5090246 Z M1.15692428,40.5090859 L5.15688926,40.4923496 L5.13596894,35.4923934 L1.13600396,35.5091297 L1.15692428,40.5090859 Z M1.12763583,33.5091472 L5.12760082,33.4924109 L5.1066805,28.4924547 L1.10671551,28.5091909 L1.12763583,33.5091472 Z M1.09834738,26.5092084 L5.09831237,26.4924722 L5.07739205,21.4925159 L1.07742706,21.5092522 L1.09834738,26.5092084 Z M1.06905894,19.5092697 L5.06902392,19.4925335 L5.0481036,14.4925772 L1.04813862,14.5093135 L1.06905894,19.5092697 Z M1.03977049,12.509331 L5.03973548,12.4925947 L5.01881516,7.49263849 L1.01885017,7.50937475 L1.03977049,12.509331 Z M1.01048204,5.50939226 L5.01044703,5.492656 L4.98952671,0.492699767 L0.989561724,0.509436022 L1.01048204,5.50939226 Z" id="Line-2-Copy-2"></path>
            </g>
            <g id="Group-10" transform="translate(117.000000, 40.500000)" fill="#929292" fill-rule="nonzero">
                <path d="M0.5,246.5 L4.5,246.5 L4.5,241.5 L0.5,241.5 L0.5,246.5 Z M0.5,239.5 L4.5,239.5 L4.5,234.5 L0.5,234.5 L0.5,239.5 Z M0.5,232.5 L4.5,232.5 L4.5,227.5 L0.5,227.5 L0.5,232.5 Z M0.5,225.5 L4.5,225.5 L4.5,220.5 L0.5,220.5 L0.5,225.5 Z M0.5,218.5 L4.5,218.5 L4.5,213.5 L0.5,213.5 L0.5,218.5 Z M0.5,211.5 L4.5,211.5 L4.5,206.5 L0.5,206.5 L0.5,211.5 Z M0.5,204.5 L4.5,204.5 L4.5,199.5 L0.5,199.5 L0.5,204.5 Z M0.5,197.5 L4.5,197.5 L4.5,192.5 L0.5,192.5 L0.5,197.5 Z M0.5,190.5 L4.5,190.5 L4.5,185.5 L0.5,185.5 L0.5,190.5 Z M0.5,183.5 L4.5,183.5 L4.5,178.5 L0.5,178.5 L0.5,183.5 Z M0.5,176.5 L4.5,176.5 L4.5,171.5 L0.5,171.5 L0.5,176.5 Z M0.5,169.5 L4.5,169.5 L4.5,164.5 L0.5,164.5 L0.5,169.5 Z M0.5,162.5 L4.5,162.5 L4.5,157.5 L0.5,157.5 L0.5,162.5 Z M0.5,155.5 L4.5,155.5 L4.5,150.5 L0.5,150.5 L0.5,155.5 Z M0.5,148.5 L4.5,148.5 L4.5,143.5 L0.5,143.5 L0.5,148.5 Z M0.5,141.5 L4.5,141.5 L4.5,136.5 L0.5,136.5 L0.5,141.5 Z M0.5,134.5 L4.5,134.5 L4.5,129.5 L0.5,129.5 L0.5,134.5 Z M0.5,127.5 L4.5,127.5 L4.5,122.5 L0.5,122.5 L0.5,127.5 Z M0.5,120.5 L4.5,120.5 L4.5,115.5 L0.5,115.5 L0.5,120.5 Z M0.5,113.5 L4.5,113.5 L4.5,108.5 L0.5,108.5 L0.5,113.5 Z M0.5,106.5 L4.5,106.5 L4.5,101.5 L0.5,101.5 L0.5,106.5 Z M0.5,99.5 L4.5,99.5 L4.5,94.5 L0.5,94.5 L0.5,99.5 Z M0.5,92.5 L4.5,92.5 L4.5,87.5 L0.5,87.5 L0.5,92.5 Z M0.5,85.5 L4.5,85.5 L4.5,80.5 L0.5,80.5 L0.5,85.5 Z M0.5,78.5 L4.5,78.5 L4.5,73.5 L0.5,73.5 L0.5,78.5 Z M0.5,71.5 L4.5,71.5 L4.5,66.5 L0.5,66.5 L0.5,71.5 Z M0.5,64.5 L4.5,64.5 L4.5,59.5 L0.5,59.5 L0.5,64.5 Z M0.5,57.5 L4.5,57.5 L4.5,52.5 L0.5,52.5 L0.5,57.5 Z M0.5,50.5 L4.5,50.5 L4.5,45.5 L0.5,45.5 L0.5,50.5 Z M0.5,43.5 L4.5,43.5 L4.5,38.5 L0.5,38.5 L0.5,43.5 Z M0.5,36.5 L4.5,36.5 L4.5,31.5 L0.5,31.5 L0.5,36.5 Z M0.5,29.5 L4.5,29.5 L4.5,24.5 L0.5,24.5 L0.5,29.5 Z M0.5,22.5 L4.5,22.5 L4.5,17.5 L0.5,17.5 L0.5,22.5 Z M0.5,15.5 L4.5,15.5 L4.5,10.5 L0.5,10.5 L0.5,15.5 Z M0.5,8.5 L4.5,8.5 L4.5,3.5 L0.5,3.5 L0.5,8.5 Z" id="Line-2-Copy-3"></path>
            </g>
            <g id="Group-4" transform="translate(52.500000, 0.000000)" fill="#000000" fill-rule="nonzero">
                <g id="Group-2" transform="translate(10.058594, 5.449219)">
                    <path d="M16.8867188,247.335938 L22.3242188,247.347656 C24.0195397,247.347656 25.3339797,247.767574 26.2675781,248.607422 C27.2011765,249.44727 27.6679688,250.468744 27.6679688,251.671875 C27.6679688,252.421879 27.4492209,253.103513 27.0117188,253.716797 C26.5742166,254.330081 25.9140669,254.874998 25.03125,255.351562 C25.539065,255.796877 26.0820284,256.367184 26.6601562,257.0625 C27.019533,257.507815 27.5039032,258.20312 28.1132812,259.148438 C28.7226593,259.148438 29.124999,259.210937 29.3203125,259.335938 C29.6718768,259.578126 29.8476562,259.917967 29.8476562,260.355469 C29.8476562,260.707033 29.7265637,260.99414 29.484375,261.216797 C29.2421863,261.439454 28.8320341,261.550781 28.2539062,261.550781 L26.8828125,261.550781 C24.9374903,258.542954 23.3242252,256.734378 22.0429688,256.125 L19.6640625,256.125 L19.6640625,259.148438 L20.53125,259.148438 C21.1093779,259.148438 21.5214831,259.259765 21.7675781,259.482422 C22.0136731,259.705079 22.1367188,259.996092 22.1367188,260.355469 C22.1367188,260.707033 22.0136731,260.99414 21.7675781,261.216797 C21.5214831,261.439454 21.1093779,261.550781 20.53125,261.550781 L16.8867188,261.550781 C16.3085909,261.550781 15.8964856,261.439454 15.6503906,261.216797 C15.5358487,261.113164 15.4479633,260.994723 15.3867339,260.861473 C15.3295251,260.993656 15.2425465,261.112321 15.1289062,261.216797 C14.8867175,261.439454 14.4765654,261.550781 13.8984375,261.550781 L10.6640625,261.550781 C10.0859346,261.550781 9.67382936,261.439454 9.42773438,261.216797 C9.18163939,260.99414 9.05859375,260.703127 9.05859375,260.34375 C9.05859375,259.992186 9.18163939,259.705079 9.42773438,259.482422 C9.67382936,259.259765 10.0859346,259.148438 10.6640625,259.148438 L11.25,259.148438 L10.6757812,257.683594 L4.83984375,257.683594 L4.25390625,259.148438 L4.83984375,259.148438 C5.41797164,259.148438 5.83007689,259.259765 6.07617188,259.482422 C6.32226686,259.705079 6.4453125,259.996092 6.4453125,260.355469 C6.4453125,260.707033 6.32226686,260.99414 6.07617188,261.216797 C5.83007689,261.439454 5.41797164,261.550781 4.83984375,261.550781 L1.60546875,261.550781 C1.02734086,261.550781 0.615235605,261.439454 0.369140625,261.216797 C0.123045645,260.99414 0,260.703127 0,260.34375 C0,259.984373 0.128904961,259.691407 0.38671875,259.464844 C0.644532539,259.23828 1.07030953,259.132812 1.6640625,259.148438 L5.4375,249.75 L3.8671875,249.75 C3.28905961,249.75 2.87695436,249.638673 2.63085938,249.416016 C2.38476439,249.193358 2.26171875,248.902346 2.26171875,248.542969 C2.26171875,248.183592 2.38476439,247.892579 2.63085938,247.669922 C2.87695436,247.447265 3.28905961,247.335938 3.8671875,247.335938 L9.05859375,247.347656 L13.8398438,259.148438 C14.4023466,259.148438 14.7734366,259.210937 14.953125,259.335938 C15.1534499,259.479649 15.2979411,259.648847 15.3865995,259.843535 C15.4473844,259.707914 15.5377825,259.587932 15.65625,259.482422 C15.9062512,259.259765 16.3164034,259.148438 16.8867188,259.148438 L17.2617188,259.148438 L17.2617188,249.75 L16.8867188,249.75 C16.3085909,249.75 15.8964856,249.638673 15.6503906,249.416016 C15.4042956,249.193358 15.28125,248.902346 15.28125,248.542969 C15.28125,248.183592 15.4042956,247.892579 15.6503906,247.669922 C15.8964856,247.447265 16.3085909,247.335938 16.8867188,247.335938 Z M7.74609375,250.523438 L5.80078125,255.28125 L9.6796875,255.28125 L7.74609375,250.523438 Z M22.4179688,249.75 L19.6640625,249.75 L19.6640625,253.722656 L21.5390625,253.722656 C22.2343785,253.722656 22.855466,253.617189 23.4023438,253.40625 C24.1367224,253.124999 24.6308581,252.828127 24.8847656,252.515625 C25.1386731,252.203123 25.265625,251.894533 25.265625,251.589844 C25.265625,251.136716 25.0234399,250.716799 24.5390625,250.330078 C24.0546851,249.943357 23.3476609,249.75 22.4179688,249.75 Z" id="Combined-Shape"></path>
                    <path d="M75.90625,183.75 L75.90625,193.148438 L77.5234375,193.148438 C78.1015654,193.148438 78.5136706,193.259765 78.7597656,193.482422 C79.0058606,193.705079 79.1289062,193.996092 79.1289062,194.355469 C79.1289062,194.707033 79.0058606,194.99414 78.7597656,195.216797 C78.5136706,195.439454 78.1015654,195.550781 77.5234375,195.550781 L71.8984375,195.550781 C71.3203096,195.550781 70.9082044,195.439454 70.6621094,195.216797 C70.4160144,194.99414 70.2929688,194.703127 70.2929688,194.34375 C70.2929688,193.992186 70.4160144,193.705079 70.6621094,193.482422 C70.9082044,193.259765 71.3203096,193.148438 71.8984375,193.148438 L73.5039062,193.148438 L73.5039062,183.75 L70.9023438,183.75 L70.9023438,186.023438 C70.9023438,186.601565 70.7910167,187.013671 70.5683594,187.259766 C70.345702,187.505861 70.0546893,187.628906 69.6953125,187.628906 C69.3437482,187.628906 69.0566417,187.505861 68.8339844,187.259766 C68.611327,187.013671 68.5,186.601565 68.5,186.023438 L68.5,181.335938 L80.9453125,181.347656 L80.9453125,186.023438 C80.9453125,186.601565 80.8339855,187.013671 80.6113281,187.259766 C80.3886708,187.505861 80.097658,187.628906 79.7382812,187.628906 C79.386717,187.628906 79.0996105,187.505861 78.8769531,187.259766 C78.6542958,187.013671 78.5429688,186.601565 78.5429688,186.023438 L78.5429688,183.75 L75.90625,183.75 Z M88.140625,183.75 L88.140625,193.148438 L93.3203125,193.148438 L93.3203125,190.875 C93.3203125,190.296872 93.4316395,189.884767 93.6542969,189.638672 C93.8769542,189.392577 94.167967,189.269531 94.5273438,189.269531 C94.878908,189.269531 95.1660145,189.392577 95.3886719,189.638672 C95.6113292,189.884767 95.7226562,190.296872 95.7226562,190.875 L95.7226562,195.550781 L84.34375,195.550781 C83.7656221,195.550781 83.3535169,195.439454 83.1074219,195.216797 C82.8613269,194.99414 82.7382812,194.703127 82.7382812,194.34375 C82.7382812,193.992186 82.8613269,193.705079 83.1074219,193.482422 C83.3535169,193.259765 83.7656221,193.148438 84.34375,193.148438 L85.7382812,193.148438 L85.7382812,183.75 L84.34375,183.75 C83.7656221,183.75 83.3535169,183.638673 83.1074219,183.416016 C82.8613269,183.193358 82.7382812,182.902346 82.7382812,182.542969 C82.7382812,182.183592 82.8613269,181.892579 83.1074219,181.669922 C83.3535169,181.447265 83.7656221,181.335938 84.34375,181.335938 L89.546875,181.347656 C90.1250029,181.347656 90.5371081,181.45703 90.7832031,181.675781 C91.0292981,181.894532 91.1523438,182.183592 91.1523438,182.542969 C91.1523438,182.902346 91.0292981,183.193358 90.7832031,183.416016 C90.5371081,183.638673 90.1250029,183.75 89.546875,183.75 L88.140625,183.75 Z" id="TL"></path>
                    <path d="M87.1660156,13.1484375 L87.1660156,3.75 C86.6582006,3.74218746 86.2832043,3.62695424 86.0410156,3.40429688 C85.7988269,3.18163951 85.6777344,2.89453301 85.6777344,2.54296875 C85.6777344,2.18359195 85.80078,1.89257924 86.046875,1.66992188 C86.29297,1.44726451 86.7050752,1.3359375 87.2832031,1.3359375 L92.3105469,1.34765625 C93.0918008,1.34765625 93.855465,1.49218605 94.6015625,1.78125 C95.34766,2.07031395 95.9472634,2.43749777 96.4003906,2.8828125 C96.7441423,3.21875168 97.1015606,3.67968457 97.4726562,4.265625 C97.8437519,4.85156543 98.1230459,5.43359086 98.3105469,6.01171875 C98.4980478,6.58984664 98.5917969,7.29687082 98.5917969,8.1328125 L98.5917969,9.28125 C98.5917969,10.2968801 98.4199236,11.1972617 98.0761719,11.9824219 C97.7324202,12.7675821 97.2812528,13.4082006 96.7226562,13.9042969 C96.1640597,14.4003931 95.6386743,14.7656238 95.1464844,15 C94.3652305,15.3671893 93.3535218,15.5507812 92.1113281,15.5507812 L87.2832031,15.5507812 C86.7050752,15.5507812 86.29297,15.4394542 86.046875,15.2167969 C85.80078,14.9941395 85.6777344,14.7031268 85.6777344,14.34375 C85.6777344,13.9921857 85.80078,13.7031261 86.046875,13.4765625 C86.29297,13.2499989 86.6660131,13.140625 87.1660156,13.1484375 Z M89.5683594,13.1484375 L92.1230469,13.1484375 C93.0761766,13.1484375 93.7949195,13.0117201 94.2792969,12.7382812 C94.9121125,12.3789045 95.3886703,11.9218778 95.7089844,11.3671875 C96.0292985,10.8124972 96.1894531,10.0937544 96.1894531,9.2109375 L96.1894531,8.07421875 C96.1894531,7.31640246 96.0449233,6.6523466 95.7558594,6.08203125 C95.3027321,5.1914018 94.7929716,4.58007979 94.2265625,4.24804688 C93.6601534,3.91601396 92.9511761,3.75 92.0996094,3.75 L89.5683594,3.75 L89.5683594,13.1484375 Z M108.166016,0 L108.166016,13.1484375 L110.591797,13.1484375 C111.169925,13.1484375 111.58203,13.2597645 111.828125,13.4824219 C112.07422,13.7050792 112.197266,13.996092 112.197266,14.3554688 C112.197266,14.707033 112.07422,14.9941395 111.828125,15.2167969 C111.58203,15.4394542 111.169925,15.5507812 110.591797,15.5507812 L103.337891,15.5507812 C102.759763,15.5507812 102.347657,15.4394542 102.101562,15.2167969 C101.855468,14.9941395 101.732422,14.7031268 101.732422,14.34375 C101.732422,13.9921857 101.855468,13.7050792 102.101562,13.4824219 C102.347657,13.2597645 102.759763,13.1484375 103.337891,13.1484375 L105.763672,13.1484375 L105.763672,3.12890625 L103.619141,3.69140625 C103.275389,3.78515672 103.017579,3.83203125 102.845703,3.83203125 C102.541014,3.83203125 102.277345,3.71093871 102.054688,3.46875 C101.83203,3.22656129 101.720703,2.92968926 101.720703,2.578125 C101.720703,2.2578109 101.802734,2.00586029 101.966797,1.82226562 C102.13086,1.63867096 102.474607,1.4765632 102.998047,1.3359375 L108.166016,0 Z M116.087891,1.3359375 L121.525391,1.34765625 C123.220712,1.34765625 124.535152,1.76757393 125.46875,2.60742188 C126.402348,3.44726982 126.869141,4.46874398 126.869141,5.671875 C126.869141,6.42187875 126.650393,7.10351256 126.212891,7.71679688 C125.775388,8.33008119 125.115239,8.87499762 124.232422,9.3515625 C124.740237,9.79687723 125.2832,10.367184 125.861328,11.0625 C126.220705,11.5078147 126.705075,12.2031203 127.314453,13.1484375 C127.923831,13.1484375 128.326171,13.2109369 128.521484,13.3359375 C128.873049,13.5781262 129.048828,13.9179666 129.048828,14.3554688 C129.048828,14.707033 128.927736,14.9941395 128.685547,15.2167969 C128.443358,15.4394542 128.033206,15.5507812 127.455078,15.5507812 L126.083984,15.5507812 C124.138662,12.5429537 122.525397,10.734378 121.244141,10.125 L118.865234,10.125 L118.865234,13.1484375 L119.732422,13.1484375 C120.31055,13.1484375 120.722655,13.2597645 120.96875,13.4824219 C121.214845,13.7050792 121.337891,13.996092 121.337891,14.3554688 C121.337891,14.707033 121.214845,14.9941395 120.96875,15.2167969 C120.722655,15.4394542 120.31055,15.5507812 119.732422,15.5507812 L116.087891,15.5507812 C115.509763,15.5507812 115.097657,15.4394542 114.851562,15.2167969 C114.605468,14.9941395 114.482422,14.7031268 114.482422,14.34375 C114.482422,13.9921857 114.607421,13.7050792 114.857422,13.4824219 C115.107423,13.2597645 115.517575,13.1484375 116.087891,13.1484375 L116.462891,13.1484375 L116.462891,3.75 L116.087891,3.75 C115.509763,3.75 115.097657,3.63867299 114.851562,3.41601562 C114.605468,3.19335826 114.482422,2.90234555 114.482422,2.54296875 C114.482422,2.18359195 114.605468,1.89257924 114.851562,1.66992188 C115.097657,1.44726451 115.509763,1.3359375 116.087891,1.3359375 Z M121.619141,3.75 L118.865234,3.75 L118.865234,7.72265625 L120.740234,7.72265625 C121.43555,7.72265625 122.056638,7.61718855 122.603516,7.40625 C123.337894,7.12499859 123.83203,6.82812656 124.085938,6.515625 C124.339845,6.20312344 124.466797,5.89453277 124.466797,5.58984375 C124.466797,5.13671648 124.224612,4.71679881 123.740234,4.33007812 C123.255857,3.94335744 122.548833,3.75 121.619141,3.75 Z" id="D1R"></path>
                    <path d="M221.166016,139.148438 L221.166016,129.75 C220.658201,129.742187 220.283204,129.626954 220.041016,129.404297 C219.798827,129.18164 219.677734,128.894533 219.677734,128.542969 C219.677734,128.183592 219.80078,127.892579 220.046875,127.669922 C220.29297,127.447265 220.705075,127.335938 221.283203,127.335938 L226.310547,127.347656 C227.091801,127.347656 227.855465,127.492186 228.601562,127.78125 C229.34766,128.070314 229.947263,128.437498 230.400391,128.882812 C230.744142,129.218752 231.101561,129.679685 231.472656,130.265625 C231.843752,130.851565 232.123046,131.433591 232.310547,132.011719 C232.498048,132.589847 232.591797,133.296871 232.591797,134.132812 L232.591797,135.28125 C232.591797,136.29688 232.419924,137.197262 232.076172,137.982422 C231.73242,138.767582 231.281253,139.408201 230.722656,139.904297 C230.16406,140.400393 229.638674,140.765624 229.146484,141 C228.36523,141.367189 227.353522,141.550781 226.111328,141.550781 L221.283203,141.550781 C220.705075,141.550781 220.29297,141.439454 220.046875,141.216797 C219.80078,140.99414 219.677734,140.703127 219.677734,140.34375 C219.677734,139.992186 219.80078,139.703126 220.046875,139.476562 C220.29297,139.249999 220.666013,139.140625 221.166016,139.148438 Z M223.568359,139.148438 L226.123047,139.148438 C227.076177,139.148438 227.794919,139.01172 228.279297,138.738281 C228.912113,138.378904 229.38867,137.921878 229.708984,137.367188 C230.029298,136.812497 230.189453,136.093754 230.189453,135.210938 L230.189453,134.074219 C230.189453,133.316402 230.044923,132.652347 229.755859,132.082031 C229.302732,131.191402 228.792972,130.58008 228.226562,130.248047 C227.660153,129.916014 226.951176,129.75 226.099609,129.75 L223.568359,129.75 L223.568359,139.148438 Z M240.771484,126 C242.287117,126 243.529297,126.45898 244.498047,127.376953 C245.466802,128.294926 245.951172,129.406243 245.951172,130.710938 C245.951172,131.375003 245.812501,131.990232 245.535156,132.556641 C245.277621,133.082592 244.684963,133.795466 243.757166,134.695282 L243.172986,135.246914 C242.27477,136.074832 240.782874,137.375331 238.697266,139.148438 L243.958984,139.148438 C244.248048,138.914061 244.521483,138.796875 244.779297,138.796875 C245.146486,138.796875 245.437499,138.917968 245.652344,139.160156 C245.867189,139.402345 245.974609,139.816403 245.974609,140.402344 L245.974609,141.550781 L235.029297,141.550781 L235.029297,139.007812 L236.104451,138.117796 C239.792831,135.053092 242.047708,133.052906 242.869141,132.117188 C243.322268,131.593747 243.548828,131.097659 243.548828,130.628906 C243.548828,130.042966 243.292971,129.525393 242.78125,129.076172 C242.269529,128.626951 241.587895,128.402344 240.736328,128.402344 C239.876949,128.402344 239.162112,128.652341 238.591797,129.152344 C238.337331,129.380023 238.125917,129.702406 237.95755,130.119499 L237.876953,130.335938 C237.767578,130.664064 237.617188,130.898437 237.425781,131.039062 C237.234374,131.179688 236.998048,131.25 236.716797,131.25 C236.38867,131.25 236.10547,131.132814 235.867188,130.898438 C235.628905,130.664061 235.509766,130.390627 235.509766,130.078125 C235.509766,129.609373 235.72656,129.023441 236.160156,128.320312 C236.593752,127.617184 237.226558,127.05469 238.058594,126.632812 C238.890629,126.210935 239.794917,126 240.771484,126 Z M250.087891,127.335938 L255.525391,127.347656 C257.220712,127.347656 258.535152,127.767574 259.46875,128.607422 C260.402348,129.44727 260.869141,130.468744 260.869141,131.671875 C260.869141,132.421879 260.650393,133.103513 260.212891,133.716797 C259.775388,134.330081 259.115239,134.874998 258.232422,135.351562 C258.740237,135.796877 259.2832,136.367184 259.861328,137.0625 C260.220705,137.507815 260.705075,138.20312 261.314453,139.148438 C261.923831,139.148438 262.326171,139.210937 262.521484,139.335938 C262.873049,139.578126 263.048828,139.917967 263.048828,140.355469 C263.048828,140.707033 262.927736,140.99414 262.685547,141.216797 C262.443358,141.439454 262.033206,141.550781 261.455078,141.550781 L260.083984,141.550781 C258.138662,138.542954 256.525397,136.734378 255.244141,136.125 L252.865234,136.125 L252.865234,139.148438 L253.732422,139.148438 C254.31055,139.148438 254.722655,139.259765 254.96875,139.482422 C255.214845,139.705079 255.337891,139.996092 255.337891,140.355469 C255.337891,140.707033 255.214845,140.99414 254.96875,141.216797 C254.722655,141.439454 254.31055,141.550781 253.732422,141.550781 L250.087891,141.550781 C249.509763,141.550781 249.097657,141.439454 248.851562,141.216797 C248.605468,140.99414 248.482422,140.703127 248.482422,140.34375 C248.482422,139.992186 248.607421,139.705079 248.857422,139.482422 C249.107423,139.259765 249.517575,139.148438 250.087891,139.148438 L250.462891,139.148438 L250.462891,129.75 L250.087891,129.75 C249.509763,129.75 249.097657,129.638673 248.851562,129.416016 C248.605468,129.193358 248.482422,128.902346 248.482422,128.542969 C248.482422,128.183592 248.605468,127.892579 248.851562,127.669922 C249.097657,127.447265 249.509763,127.335938 250.087891,127.335938 Z M255.619141,129.75 L252.865234,129.75 L252.865234,133.722656 L254.740234,133.722656 C255.43555,133.722656 256.056638,133.617189 256.603516,133.40625 C257.337894,133.124999 257.83203,132.828127 258.085938,132.515625 C258.339845,132.203123 258.466797,131.894533 258.466797,131.589844 C258.466797,131.136716 258.224612,130.716799 257.740234,130.330078 C257.255857,129.943357 256.548833,129.75 255.619141,129.75 Z" id="D2R"></path>
                    <path d="M353.886719,173.335938 L359.324219,173.347656 C361.01954,173.347656 362.33398,173.767574 363.267578,174.607422 C364.201177,175.44727 364.667969,176.468744 364.667969,177.671875 C364.667969,178.421879 364.449221,179.103513 364.011719,179.716797 C363.574217,180.330081 362.914067,180.874998 362.03125,181.351562 C362.539065,181.796877 363.082028,182.367184 363.660156,183.0625 C364.019533,183.507815 364.503903,184.20312 365.113281,185.148438 C365.722659,185.148438 366.124999,185.210937 366.320312,185.335938 C366.671877,185.578126 366.847656,185.917967 366.847656,186.355469 C366.847656,186.707033 366.726564,186.99414 366.484375,187.216797 C366.242186,187.439454 365.832034,187.550781 365.253906,187.550781 L363.882812,187.550781 C361.93749,184.542954 360.324225,182.734378 359.042969,182.125 L356.664062,182.125 L356.664062,185.148438 L357.53125,185.148438 C358.109378,185.148438 358.521483,185.259765 358.767578,185.482422 C359.013673,185.705079 359.136719,185.996092 359.136719,186.355469 C359.136719,186.707033 359.013673,186.99414 358.767578,187.216797 C358.521483,187.439454 358.109378,187.550781 357.53125,187.550781 L353.886719,187.550781 C353.308591,187.550781 352.896486,187.439454 352.650391,187.216797 C352.519972,187.098799 352.424111,186.961603 352.362809,186.805208 C352.306251,186.960486 352.211424,187.097839 352.082031,187.216797 C351.839843,187.439454 351.42969,187.550781 350.851562,187.550781 L349.480469,187.550781 C347.535147,184.542954 345.921881,182.734378 344.640625,182.125 L342.261719,182.125 L342.261719,185.148438 L343.128906,185.148438 C343.707034,185.148438 344.119139,185.259765 344.365234,185.482422 C344.611329,185.705079 344.734375,185.996092 344.734375,186.355469 C344.734375,186.707033 344.611329,186.99414 344.365234,187.216797 C344.119139,187.439454 343.707034,187.550781 343.128906,187.550781 L339.484375,187.550781 C338.906247,187.550781 338.494142,187.439454 338.248047,187.216797 C338.001952,186.99414 337.878906,186.703127 337.878906,186.34375 C337.878906,185.992186 338.003905,185.705079 338.253906,185.482422 C338.503908,185.259765 338.91406,185.148438 339.484375,185.148438 L339.859375,185.148438 L339.859375,175.75 L339.484375,175.75 C338.906247,175.75 338.494142,175.638673 338.248047,175.416016 C338.001952,175.193358 337.878906,174.902346 337.878906,174.542969 C337.878906,174.183592 338.001952,173.892579 338.248047,173.669922 C338.494142,173.447265 338.906247,173.335938 339.484375,173.335938 L344.921875,173.347656 C346.617196,173.347656 347.931636,173.767574 348.865234,174.607422 C349.798833,175.44727 350.265625,176.468744 350.265625,177.671875 C350.265625,178.421879 350.046877,179.103513 349.609375,179.716797 C349.171873,180.330081 348.511723,180.874998 347.628906,181.351562 C348.136721,181.796877 348.679685,182.367184 349.257812,183.0625 L349.488438,183.359688 C349.815938,183.795937 350.223435,184.392184 350.710938,185.148438 C351.320316,185.148438 351.722655,185.210937 351.917969,185.335938 C352.13379,185.484614 352.283365,185.670092 352.366696,185.892374 C352.42565,185.737539 352.523264,185.600862 352.65625,185.482422 C352.906251,185.259765 353.316403,185.148438 353.886719,185.148438 L354.261719,185.148438 L354.261719,175.75 L353.886719,175.75 C353.308591,175.75 352.896486,175.638673 352.650391,175.416016 C352.404296,175.193358 352.28125,174.902346 352.28125,174.542969 C352.28125,174.183592 352.404296,173.892579 352.650391,173.669922 C352.896486,173.447265 353.308591,173.335938 353.886719,173.335938 Z M345.015625,175.75 L342.261719,175.75 L342.261719,179.722656 L344.136719,179.722656 C344.832035,179.722656 345.453122,179.617189 346,179.40625 C346.734379,179.124999 347.228514,178.828127 347.482422,178.515625 C347.736329,178.203123 347.863281,177.894533 347.863281,177.589844 C347.863281,177.136716 347.621096,176.716799 347.136719,176.330078 C346.652341,175.943357 345.945317,175.75 345.015625,175.75 Z M359.417969,175.75 L356.664062,175.75 L356.664062,179.722656 L358.539062,179.722656 C359.234378,179.722656 359.855466,179.617189 360.402344,179.40625 C361.136722,179.124999 361.630858,178.828127 361.884766,178.515625 C362.138673,178.203123 362.265625,177.894533 362.265625,177.589844 C362.265625,177.136716 362.02344,176.716799 361.539062,176.330078 C361.054685,175.943357 360.347661,175.75 359.417969,175.75 Z" id="Combined-Shape"></path>
                    <path d="M196.230469,235.941406 C196.01953,236.191408 195.84961,236.351562 195.720703,236.421875 C195.591796,236.492188 195.433595,236.527344 195.246094,236.527344 C194.878904,236.527344 194.583985,236.404298 194.361328,236.158203 C194.138671,235.912108 194.027344,235.503909 194.027344,234.933594 L194.027344,233.316406 C194.027344,232.738278 194.138671,232.326173 194.361328,232.080078 C194.583985,231.833983 194.878904,231.710938 195.246094,231.710938 C195.527344,231.710938 195.763671,231.785156 195.955078,231.933594 C196.146485,232.082032 196.292968,232.330076 196.394531,232.677734 C196.496094,233.025392 196.601562,233.261718 196.710938,233.386719 C196.937501,233.628907 197.339841,233.874999 197.917969,234.125 C198.496097,234.375001 199.128903,234.5 199.816406,234.5 C200.886724,234.5 201.765622,234.250002 202.453125,233.75 C202.890627,233.445311 203.109375,233.070315 203.109375,232.625 C203.109375,232.328124 203.003907,232.048829 202.792969,231.787109 C202.58203,231.525389 202.238284,231.308595 201.761719,231.136719 L201.590028,231.079581 C201.258113,230.979267 200.697373,230.853528 199.9078,230.702362 L199.664062,230.65625 C198.351556,230.414061 197.359378,230.121095 196.6875,229.777344 C196.015622,229.433592 195.484377,228.949222 195.09375,228.324219 C194.703123,227.699216 194.507812,227.023441 194.507812,226.296875 C194.507812,225.148432 194.988276,224.142582 195.949219,223.279297 C196.910161,222.416011 198.160149,221.984375 199.699219,221.984375 C200.316409,221.984375 200.888669,222.052734 201.416016,222.189453 C201.943362,222.326173 202.421873,222.535155 202.851562,222.816406 C203.164064,222.511717 203.476561,222.359375 203.789062,222.359375 C204.140627,222.359375 204.427733,222.482421 204.650391,222.728516 C204.873048,222.974611 204.984375,223.38281 204.984375,223.953125 L204.984375,225.757812 C204.984375,226.33594 204.873048,226.748046 204.650391,226.994141 C204.427733,227.240236 204.140627,227.363281 203.789062,227.363281 C203.492186,227.363281 203.234376,227.273438 203.015625,227.09375 C202.868303,226.97991 202.752551,226.768496 202.668367,226.459503 L202.628906,226.296875 C202.542968,225.898436 202.433594,225.613282 202.300781,225.441406 C202.074218,225.14453 201.734377,224.894532 201.28125,224.691406 C200.828123,224.48828 200.30469,224.386719 199.710938,224.386719 C198.843746,224.386719 198.158206,224.587889 197.654297,224.990234 C197.150388,225.39258 196.898438,225.812498 196.898438,226.25 C196.898438,226.546876 197.001952,226.833983 197.208984,227.111328 C197.416017,227.388673 197.718748,227.605468 198.117188,227.761719 L198.249167,227.809011 C198.538298,227.902205 199.086862,228.03111 199.894868,228.195729 L200.361328,228.289062 C201.591803,228.531251 202.537106,228.796874 203.197266,229.085938 C203.857425,229.375001 204.406248,229.828122 204.84375,230.445312 C205.281252,231.062503 205.5,231.796871 205.5,232.648438 C205.5,233.835943 205.082035,234.785153 204.246094,235.496094 C203.136713,236.433598 201.722665,236.902344 200.003906,236.902344 C199.33984,236.902344 198.693363,236.822266 198.064453,236.662109 C197.435544,236.501952 196.824222,236.26172 196.230469,235.941406 Z M213.140625,224.75 L213.140625,234.148438 L218.320312,234.148438 L218.320312,231.875 C218.320312,231.296872 218.43164,230.884767 218.654297,230.638672 C218.876954,230.392577 219.167967,230.269531 219.527344,230.269531 C219.878908,230.269531 220.166015,230.392577 220.388672,230.638672 C220.611329,230.884767 220.722656,231.296872 220.722656,231.875 L220.722656,236.550781 L209.34375,236.550781 C208.765622,236.550781 208.353517,236.439454 208.107422,236.216797 C207.861327,235.99414 207.738281,235.703127 207.738281,235.34375 C207.738281,234.992186 207.861327,234.705079 208.107422,234.482422 C208.353517,234.259765 208.765622,234.148438 209.34375,234.148438 L210.738281,234.148438 L210.738281,224.75 L209.34375,224.75 C208.765622,224.75 208.353517,224.638673 208.107422,224.416016 C207.861327,224.193358 207.738281,223.902346 207.738281,223.542969 C207.738281,223.183592 207.861327,222.892579 208.107422,222.669922 C208.353517,222.447265 208.765622,222.335938 209.34375,222.335938 L214.546875,222.347656 C215.125003,222.347656 215.537108,222.45703 215.783203,222.675781 C216.029298,222.894532 216.152344,223.183592 216.152344,223.542969 C216.152344,223.902346 216.029298,224.193358 215.783203,224.416016 C215.537108,224.638673 215.125003,224.75 214.546875,224.75 L213.140625,224.75 Z" id="SL"></path>
                </g>
            </g>
            <g id="Group-7-Copy" transform="translate(253.000000, 216.000000)" fill-rule="nonzero">
                <polygon id="Line-4-Copy-2" fill="#929292" points="113 0.5 120 14.5 114 14.5 114 101 112 101 112 14.5 106 14.5"></polygon>
                <path d="M4.69921875,102.9375 L4.69921875,105.597656 L5.56640625,105.597656 C6.14453414,105.597656 6.55663939,105.708983 6.80273438,105.931641 C7.04882936,106.154298 7.171875,106.445311 7.171875,106.804688 C7.171875,107.156252 7.04882936,107.443358 6.80273438,107.666016 C6.55663939,107.888673 6.14453414,108 5.56640625,108 L1.921875,108 C1.34374711,108 0.931641855,107.888673 0.685546875,107.666016 C0.439451895,107.443358 0.31640625,107.152346 0.31640625,106.792969 C0.31640625,106.441404 0.441405,106.154298 0.69140625,105.931641 C0.9414075,105.708983 1.35155965,105.597656 1.921875,105.597656 L2.296875,105.597656 L2.296875,96.1992188 L1.921875,96.1992188 C1.34374711,96.1992188 0.931641855,96.0878917 0.685546875,95.8652344 C0.439451895,95.642577 0.31640625,95.3515643 0.31640625,94.9921875 C0.31640625,94.6328107 0.439451895,94.341798 0.685546875,94.1191406 C0.931641855,93.8964833 1.34374711,93.7851562 1.921875,93.7851562 L5.56640625,93.796875 C6.14453414,93.796875 6.55663939,93.9062489 6.80273438,94.125 C7.04882936,94.3437511 7.171875,94.6328107 7.171875,94.9921875 C7.171875,95.3515643 7.04882936,95.642577 6.80273438,95.8652344 C6.55663939,96.0878917 6.14453414,96.1992188 5.56640625,96.1992188 L4.69921875,96.1992188 L4.69921875,99.7617188 L8.96484375,96.09375 C8.7148425,95.9140616 8.54296922,95.7460945 8.44921875,95.5898438 C8.35546828,95.433593 8.30859375,95.2421886 8.30859375,95.015625 C8.30859375,94.6484357 8.43163939,94.3515636 8.67773438,94.125 C8.92382936,93.8984364 9.33593461,93.7851562 9.9140625,93.7851562 L12.3632812,93.796875 C12.9414091,93.796875 13.3535144,93.9062489 13.5996094,94.125 C13.8457044,94.3437511 13.96875,94.6328107 13.96875,94.9921875 C13.96875,95.3437518 13.8457044,95.6328114 13.5996094,95.859375 C13.3535144,96.0859386 12.9687526,96.1992188 12.4453125,96.1992188 L8.1328125,99.9726562 C8.93750402,100.433596 9.69335584,101.136714 10.4003906,102.082031 C11.1074254,103.027348 11.7343723,104.199212 12.28125,105.597656 L12.9257812,105.597656 C13.4960966,105.597656 13.9042956,105.708983 14.1503906,105.931641 C14.3964856,106.154298 14.5195312,106.445311 14.5195312,106.804688 C14.5195312,107.156252 14.3984387,107.443358 14.15625,107.666016 C13.9140613,107.888673 13.5039091,108 12.9257812,108 L10.7460938,108 C10.2460913,106.804682 9.69922172,105.664068 9.10546875,104.578125 C8.62109133,103.695308 8.16211154,103.052736 7.72851562,102.650391 C7.29491971,102.248045 6.77734676,101.925782 6.17578125,101.683594 L4.69921875,102.9375 Z M27.6328125,103.898438 L17.7773438,103.898438 C18.027345,104.523441 18.4706999,105.027342 19.1074219,105.410156 C19.7441438,105.792971 20.6054633,105.984375 21.6914062,105.984375 C22.5078166,105.984375 23.5703884,105.823542 24.8791489,105.501872 L25.2421875,105.410156 C25.8515655,105.253905 26.2734363,105.175781 26.5078125,105.175781 C26.8281266,105.175781 27.0976552,105.289061 27.3164062,105.515625 C27.5351573,105.742189 27.6445312,106.027342 27.6445312,106.371094 C27.6445312,106.683595 27.5273449,106.949218 27.2929688,107.167969 C26.9804672,107.457033 26.2187561,107.732421 25.0078125,107.994141 C23.7968689,108.255861 22.6328181,108.386719 21.515625,108.386719 C19.5937404,108.386719 18.0566464,107.843755 16.9042969,106.757812 C15.7519474,105.67187 15.1757812,104.335945 15.1757812,102.75 C15.1757812,101.062492 15.7988219,99.6894584 17.0449219,98.6308594 C18.2910219,97.5722603 19.7265544,97.0429688 21.3515625,97.0429688 C22.3281299,97.0429688 23.2246053,97.214842 24.0410156,97.5585938 C24.857426,97.9023455 25.4648418,98.2734355 25.8632812,98.671875 C26.4257841,99.2500029 26.8906232,99.9648395 27.2578125,100.816406 C27.5078138,101.410159 27.6328125,102.097652 27.6328125,102.878906 L27.6328125,103.898438 Z M24.9726562,101.496094 C24.6054669,100.80859 24.125003,100.294924 23.53125,99.9550781 C22.937497,99.6152327 22.2304729,99.4453125 21.4101562,99.4453125 C20.5976522,99.4453125 19.8945342,99.6152327 19.3007812,99.9550781 C18.7070283,100.294924 18.2226581,100.80859 17.8476562,101.496094 L24.9726562,101.496094 Z M34.6640625,107.917969 L30.5039062,99.7617188 C30.1132793,99.7148435 29.8164073,99.5820323 29.6132812,99.3632812 C29.4101552,99.1445302 29.3085938,98.8789078 29.3085938,98.5664062 C29.3085938,98.2070295 29.4316394,97.9160167 29.6777344,97.6933594 C29.9238294,97.470702 30.3359346,97.359375 30.9140625,97.359375 L33.1054688,97.359375 C33.6835966,97.359375 34.0957019,97.470702 34.3417969,97.6933594 C34.5878919,97.9160167 34.7109375,98.2070295 34.7109375,98.5664062 C34.7109375,98.9179705 34.5878919,99.205077 34.3417969,99.4277344 C34.0957019,99.6503917 33.7070339,99.7617188 33.1757812,99.7617188 L36.0117188,105.28125 L38.8242188,99.7617188 C38.3085938,99.7617188 37.9277356,99.6503917 37.6816406,99.4277344 C37.4355456,99.205077 37.3125,98.9140643 37.3125,98.5546875 C37.3125,98.2031232 37.4355456,97.9160167 37.6816406,97.6933594 C37.9277356,97.470702 38.3398409,97.359375 38.9179688,97.359375 L41.1796875,97.359375 C41.7500029,97.359375 42.1582019,97.470702 42.4042969,97.6933594 C42.6503919,97.9160167 42.7734375,98.2070295 42.7734375,98.5664062 C42.7734375,98.8867204 42.6679698,99.158202 42.4570312,99.3808594 C42.2460927,99.6035167 41.9335958,99.7304686 41.5195312,99.7617188 L36.0117188,110.613281 C36.6132843,110.613281 37.0078116,110.671874 37.1953125,110.789062 C37.5703144,111.031251 37.7578125,111.374998 37.7578125,111.820312 C37.7578125,112.171877 37.6347669,112.458983 37.3886719,112.681641 C37.1425769,112.904298 36.7304716,113.015625 36.1523438,113.015625 L30.9140625,113.015625 C30.3359346,113.015625 29.9238294,112.904298 29.6777344,112.681641 C29.4316394,112.458983 29.3085938,112.171877 29.3085938,111.820312 C29.3085938,111.460936 29.4316394,111.169923 29.6777344,110.947266 C29.9238294,110.724608 30.3359346,110.613281 30.9140625,110.613281 L33.3046875,110.613281 L34.6640625,107.917969 Z M55.4414062,102.28125 L45.4101562,102.28125 L45.4101562,100.089844 L55.4414062,100.089844 L55.4414062,102.28125 Z M71.0507812,102.878906 C71.0507812,103.800786 70.7949244,104.693355 70.2832031,105.556641 C69.7714818,106.419926 69.0097707,107.107419 67.9980469,107.619141 C66.9863231,108.130862 65.929693,108.386719 64.828125,108.386719 C63.7343695,108.386719 62.687505,108.134768 61.6875,107.630859 C60.687495,107.126951 59.9257839,106.441411 59.4023438,105.574219 C58.8789036,104.707027 58.6171875,103.800786 58.6171875,102.855469 C58.6171875,101.894526 58.8828098,100.951177 59.4140625,100.025391 C59.9453152,99.0996047 60.7089794,98.3710964 61.7050781,97.8398438 C62.7011769,97.3085911 63.7421821,97.0429688 64.828125,97.0429688 C65.9218805,97.0429688 66.9746043,97.3144504 67.9863281,97.8574219 C68.9980519,98.4003933 69.7617162,99.1308548 70.2773438,100.048828 C70.7929713,100.966801 71.0507812,101.910151 71.0507812,102.878906 Z M68.6484375,102.890625 C68.6484375,102.117184 68.3710965,101.406253 67.8164062,100.757812 C67.05859,99.8828081 66.0625062,99.4453125 64.828125,99.4453125 C63.7421821,99.4453125 62.8359411,99.7929653 62.109375,100.488281 C61.3828089,101.183597 61.0195312,101.988277 61.0195312,102.902344 C61.0195312,103.652348 61.3867151,104.353512 62.1210938,105.005859 C62.8554724,105.658206 63.7578071,105.984375 64.828125,105.984375 C65.9062554,105.984375 66.8124963,105.658206 67.546875,105.005859 C68.2812537,104.353512 68.6484375,103.648441 68.6484375,102.890625 Z M79.1953125,99.7617188 L79.1953125,105.597656 L82.6171875,105.597656 C83.1953154,105.597656 83.6074206,105.708983 83.8535156,105.931641 C84.0996106,106.154298 84.2226562,106.445311 84.2226562,106.804688 C84.2226562,107.156252 84.0996106,107.443358 83.8535156,107.666016 C83.6074206,107.888673 83.1953154,108 82.6171875,108 L75.3632812,108 C74.7851534,108 74.3730481,107.888673 74.1269531,107.666016 C73.8808581,107.443358 73.7578125,107.152346 73.7578125,106.792969 C73.7578125,106.441404 73.8808581,106.154298 74.1269531,105.931641 C74.3730481,105.708983 74.7851534,105.597656 75.3632812,105.597656 L76.7929688,105.597656 L76.7929688,99.7617188 L75.6445312,99.7617188 C75.0664034,99.7617188 74.6542981,99.6503917 74.4082031,99.4277344 C74.1621081,99.205077 74.0390625,98.9140643 74.0390625,98.5546875 C74.0390625,98.2031232 74.1621081,97.9160167 74.4082031,97.6933594 C74.6542981,97.470702 75.0664034,97.359375 75.6445312,97.359375 L76.7929688,97.359375 L76.7929688,96.4453125 C76.7929688,95.3984323 77.1855429,94.5293003 77.9707031,93.8378906 C78.7558633,93.1464809 79.8945238,92.8007812 81.3867188,92.8007812 C82.0507846,92.8007812 82.818355,92.8613275 83.6894531,92.9824219 C84.5605512,93.1035162 85.1191394,93.2734364 85.3652344,93.4921875 C85.6113294,93.7109386 85.734375,93.9921858 85.734375,94.3359375 C85.734375,94.7031268 85.6250011,95.001952 85.40625,95.2324219 C85.1874989,95.4628918 84.9179704,95.578125 84.5976562,95.578125 C84.449218,95.578125 84.226564,95.5507815 83.9296875,95.4960938 C82.937495,95.3007812 82.0585976,95.203125 81.2929688,95.203125 C80.4960898,95.203125 79.9472671,95.3222644 79.6464844,95.5605469 C79.3457016,95.7988293 79.1953125,96.0937482 79.1953125,96.4453125 L79.1953125,97.359375 L82.8984375,97.359375 C83.4765654,97.359375 83.8886706,97.470702 84.1347656,97.6933594 C84.3808606,97.9160167 84.5039062,98.2070295 84.5039062,98.5664062 C84.5039062,98.9179705 84.3808606,99.205077 84.1347656,99.4277344 C83.8886706,99.6503917 83.4765654,99.7617188 82.8984375,99.7617188 L79.1953125,99.7617188 Z M93.5976562,99.7617188 L93.5976562,105.597656 L97.0195312,105.597656 C97.5976591,105.597656 98.0097644,105.708983 98.2558594,105.931641 C98.5019544,106.154298 98.625,106.445311 98.625,106.804688 C98.625,107.156252 98.5019544,107.443358 98.2558594,107.666016 C98.0097644,107.888673 97.5976591,108 97.0195312,108 L89.765625,108 C89.1874971,108 88.7753919,107.888673 88.5292969,107.666016 C88.2832019,107.443358 88.1601562,107.152346 88.1601562,106.792969 C88.1601562,106.441404 88.2832019,106.154298 88.5292969,105.931641 C88.7753919,105.708983 89.1874971,105.597656 89.765625,105.597656 L91.1953125,105.597656 L91.1953125,99.7617188 L90.046875,99.7617188 C89.4687471,99.7617188 89.0566419,99.6503917 88.8105469,99.4277344 C88.5644519,99.205077 88.4414062,98.9140643 88.4414062,98.5546875 C88.4414062,98.2031232 88.5644519,97.9160167 88.8105469,97.6933594 C89.0566419,97.470702 89.4687471,97.359375 90.046875,97.359375 L91.1953125,97.359375 L91.1953125,96.4453125 C91.1953125,95.3984323 91.5878867,94.5293003 92.3730469,93.8378906 C93.1582071,93.1464809 94.2968675,92.8007812 95.7890625,92.8007812 C96.4531283,92.8007812 97.2206988,92.8613275 98.0917969,92.9824219 C98.962895,93.1035162 99.5214831,93.2734364 99.7675781,93.4921875 C100.013673,93.7109386 100.136719,93.9921858 100.136719,94.3359375 C100.136719,94.7031268 100.027345,95.001952 99.8085938,95.2324219 C99.5898427,95.4628918 99.3203141,95.578125 99,95.578125 C98.8515618,95.578125 98.6289077,95.5507815 98.3320312,95.4960938 C97.3398388,95.3007812 96.4609413,95.203125 95.6953125,95.203125 C94.8984335,95.203125 94.3496109,95.3222644 94.0488281,95.5605469 C93.7480454,95.7988293 93.5976562,96.0937482 93.5976562,96.4453125 L93.5976562,97.359375 L97.3007812,97.359375 C97.8789091,97.359375 98.2910144,97.470702 98.5371094,97.6933594 C98.7832044,97.9160167 98.90625,98.2070295 98.90625,98.5664062 C98.90625,98.9179705 98.7832044,99.205077 98.5371094,99.4277344 C98.2910144,99.6503917 97.8789091,99.7617188 97.3007812,99.7617188 L93.5976562,99.7617188 Z" id="Key-off" fill="#000000"></path>
            </g>
            <g id="Group-7" transform="translate(13.500000, 296.000000)" fill-rule="nonzero">
                <polygon id="Line-4-Copy" fill="#929292" points="7 0.5 14 14.5 8 14.5 8 24.5 6 24.5 6 14.5 0 14.5"></polygon>
                <path d="M19.1992188,28.9375 L19.1992188,31.5976562 L20.0664062,31.5976562 C20.6445341,31.5976562 21.0566394,31.7089833 21.3027344,31.9316406 C21.5488294,32.154298 21.671875,32.4453107 21.671875,32.8046875 C21.671875,33.1562518 21.5488294,33.4433583 21.3027344,33.6660156 C21.0566394,33.888673 20.6445341,34 20.0664062,34 L16.421875,34 C15.8437471,34 15.4316419,33.888673 15.1855469,33.6660156 C14.9394519,33.4433583 14.8164062,33.1523455 14.8164062,32.7929688 C14.8164062,32.4414045 14.941405,32.154298 15.1914062,31.9316406 C15.4414075,31.7089833 15.8515596,31.5976562 16.421875,31.5976562 L16.796875,31.5976562 L16.796875,22.1992188 L16.421875,22.1992188 C15.8437471,22.1992188 15.4316419,22.0878917 15.1855469,21.8652344 C14.9394519,21.642577 14.8164062,21.3515643 14.8164062,20.9921875 C14.8164062,20.6328107 14.9394519,20.341798 15.1855469,20.1191406 C15.4316419,19.8964833 15.8437471,19.7851562 16.421875,19.7851562 L20.0664062,19.796875 C20.6445341,19.796875 21.0566394,19.9062489 21.3027344,20.125 C21.5488294,20.3437511 21.671875,20.6328107 21.671875,20.9921875 C21.671875,21.3515643 21.5488294,21.642577 21.3027344,21.8652344 C21.0566394,22.0878917 20.6445341,22.1992188 20.0664062,22.1992188 L19.1992188,22.1992188 L19.1992188,25.7617188 L23.4648438,22.09375 C23.2148425,21.9140616 23.0429692,21.7460945 22.9492188,21.5898438 C22.8554683,21.433593 22.8085938,21.2421886 22.8085938,21.015625 C22.8085938,20.6484357 22.9316394,20.3515636 23.1777344,20.125 C23.4238294,19.8984364 23.8359346,19.7851562 24.4140625,19.7851562 L26.8632812,19.796875 C27.4414091,19.796875 27.8535144,19.9062489 28.0996094,20.125 C28.3457044,20.3437511 28.46875,20.6328107 28.46875,20.9921875 C28.46875,21.3437518 28.3457044,21.6328114 28.0996094,21.859375 C27.8535144,22.0859386 27.4687526,22.1992188 26.9453125,22.1992188 L22.6328125,25.9726562 C23.437504,26.4335961 24.1933558,27.136714 24.9003906,28.0820312 C25.6074254,29.0273485 26.2343723,30.1992118 26.78125,31.5976562 L27.4257812,31.5976562 C27.9960966,31.5976562 28.4042956,31.7089833 28.6503906,31.9316406 C28.8964856,32.154298 29.0195312,32.4453107 29.0195312,32.8046875 C29.0195312,33.1562518 28.8984387,33.4433583 28.65625,33.6660156 C28.4140613,33.888673 28.0039091,34 27.4257812,34 L25.2460938,34 C24.7460912,32.8046815 24.1992217,31.6640679 23.6054688,30.578125 C23.1210913,29.6953081 22.6621115,29.0527364 22.2285156,28.6503906 C21.7949197,28.2480449 21.2773468,27.9257825 20.6757812,27.6835938 L19.1992188,28.9375 Z M42.1328125,29.8984375 L32.2773438,29.8984375 C32.527345,30.5234406 32.9706999,31.0273418 33.6074219,31.4101562 C34.2441438,31.7929707 35.1054633,31.984375 36.1914062,31.984375 C37.0078166,31.984375 38.0703884,31.8235422 39.3791489,31.5018721 L39.7421875,31.4101562 C40.3515655,31.2539055 40.7734363,31.1757812 41.0078125,31.1757812 C41.3281266,31.1757812 41.5976552,31.2890614 41.8164062,31.515625 C42.0351573,31.7421886 42.1445312,32.027342 42.1445312,32.3710938 C42.1445312,32.6835953 42.0273449,32.9492177 41.7929688,33.1679688 C41.4804672,33.4570327 40.7187561,33.7324206 39.5078125,33.9941406 C38.2968689,34.2558607 37.1328181,34.3867188 36.015625,34.3867188 C34.0937404,34.3867188 32.5566464,33.8437554 31.4042969,32.7578125 C30.2519474,31.6718696 29.6757812,30.3359454 29.6757812,28.75 C29.6757812,27.0624916 30.2988219,25.6894584 31.5449219,24.6308594 C32.7910219,23.5722603 34.2265544,23.0429688 35.8515625,23.0429688 C36.8281299,23.0429688 37.7246053,23.214842 38.5410156,23.5585938 C39.357426,23.9023455 39.9648418,24.2734355 40.3632812,24.671875 C40.9257841,25.2500029 41.3906232,25.9648395 41.7578125,26.8164062 C42.0078137,27.4101592 42.1328125,28.0976523 42.1328125,28.8789062 L42.1328125,29.8984375 Z M39.4726562,27.4960938 C39.1054669,26.8085903 38.625003,26.2949236 38.03125,25.9550781 C37.437497,25.6152327 36.7304729,25.4453125 35.9101562,25.4453125 C35.0976522,25.4453125 34.3945342,25.6152327 33.8007812,25.9550781 C33.2070283,26.2949236 32.7226581,26.8085903 32.3476562,27.4960938 L39.4726562,27.4960938 Z M49.1640625,33.9179688 L45.0039062,25.7617188 C44.6132793,25.7148435 44.3164073,25.5820323 44.1132812,25.3632812 C43.9101552,25.1445302 43.8085938,24.8789078 43.8085938,24.5664062 C43.8085938,24.2070295 43.9316394,23.9160167 44.1777344,23.6933594 C44.4238294,23.470702 44.8359346,23.359375 45.4140625,23.359375 L47.6054688,23.359375 C48.1835966,23.359375 48.5957019,23.470702 48.8417969,23.6933594 C49.0878919,23.9160167 49.2109375,24.2070295 49.2109375,24.5664062 C49.2109375,24.9179705 49.0878919,25.205077 48.8417969,25.4277344 C48.5957019,25.6503917 48.2070339,25.7617188 47.6757812,25.7617188 L50.5117188,31.28125 L53.3242188,25.7617188 C52.8085938,25.7617188 52.4277356,25.6503917 52.1816406,25.4277344 C51.9355456,25.205077 51.8125,24.9140643 51.8125,24.5546875 C51.8125,24.2031232 51.9355456,23.9160167 52.1816406,23.6933594 C52.4277356,23.470702 52.8398409,23.359375 53.4179688,23.359375 L55.6796875,23.359375 C56.2500029,23.359375 56.6582019,23.470702 56.9042969,23.6933594 C57.1503919,23.9160167 57.2734375,24.2070295 57.2734375,24.5664062 C57.2734375,24.8867204 57.1679698,25.158202 56.9570312,25.3808594 C56.7460927,25.6035167 56.4335958,25.7304686 56.0195312,25.7617188 L50.5117188,36.6132812 C51.1132843,36.6132812 51.5078116,36.6718744 51.6953125,36.7890625 C52.0703144,37.0312512 52.2578125,37.3749978 52.2578125,37.8203125 C52.2578125,38.1718768 52.1347669,38.4589833 51.8886719,38.6816406 C51.6425769,38.904298 51.2304716,39.015625 50.6523438,39.015625 L45.4140625,39.015625 C44.8359346,39.015625 44.4238294,38.904298 44.1777344,38.6816406 C43.9316394,38.4589833 43.8085938,38.1718768 43.8085938,37.8203125 C43.8085938,37.4609357 43.9316394,37.169923 44.1777344,36.9472656 C44.4238294,36.7246083 44.8359346,36.6132812 45.4140625,36.6132812 L47.8046875,36.6132812 L49.1640625,33.9179688 Z M69.9414062,28.28125 L59.9101562,28.28125 L59.9101562,26.0898438 L69.9414062,26.0898438 L69.9414062,28.28125 Z M85.5507812,28.8789062 C85.5507812,29.8007859 85.2949244,30.6933551 84.7832031,31.5566406 C84.2714818,32.4199262 83.5097707,33.1074193 82.4980469,33.6191406 C81.4863231,34.1308619 80.429693,34.3867188 79.328125,34.3867188 C78.2343695,34.3867188 77.187505,34.1347681 76.1875,33.6308594 C75.187495,33.1269506 74.4257839,32.4414106 73.9023438,31.5742188 C73.3789036,30.7070269 73.1171875,29.800786 73.1171875,28.8554688 C73.1171875,27.8945264 73.3828098,26.9511765 73.9140625,26.0253906 C74.4453152,25.0996047 75.2089794,24.3710964 76.2050781,23.8398438 C77.2011769,23.3085911 78.2421821,23.0429688 79.328125,23.0429688 C80.4218805,23.0429688 81.4746043,23.3144504 82.4863281,23.8574219 C83.4980519,24.4003933 84.2617162,25.1308548 84.7773438,26.0488281 C85.2929713,26.9668015 85.5507812,27.9101514 85.5507812,28.8789062 Z M83.1484375,28.890625 C83.1484375,28.1171836 82.8710965,27.4062532 82.3164062,26.7578125 C81.55859,25.8828081 80.5625062,25.4453125 79.328125,25.4453125 C78.2421821,25.4453125 77.3359411,25.7929653 76.609375,26.4882812 C75.8828089,27.1835972 75.5195312,27.9882767 75.5195312,28.9023438 C75.5195312,29.6523475 75.8867151,30.3535124 76.6210938,31.0058594 C77.3554724,31.6582064 78.2578071,31.984375 79.328125,31.984375 C80.4062554,31.984375 81.3124963,31.6582064 82.046875,31.0058594 C82.7812537,30.3535124 83.1484375,29.6484413 83.1484375,28.890625 Z M91.28125,23.359375 L91.28125,24.1679688 C91.7187522,23.7929669 92.2011692,23.5117197 92.7285156,23.3242188 C93.255862,23.1367178 93.8281219,23.0429688 94.4453125,23.0429688 C95.8671946,23.0429688 96.9921834,23.4843706 97.8203125,24.3671875 C98.4765658,25.070316 98.8046875,25.9921818 98.8046875,27.1328125 L98.8046875,31.5976562 C99.3125025,31.5976562 99.6874988,31.7089833 99.9296875,31.9316406 C100.171876,32.154298 100.292969,32.4453107 100.292969,32.8046875 C100.292969,33.1562518 100.169923,33.4433583 99.9238281,33.6660156 C99.6777331,33.888673 99.2656279,34 98.6875,34 L96.5195312,34 C95.9414034,34 95.5292981,33.888673 95.2832031,33.6660156 C95.0371081,33.4433583 94.9140625,33.1523455 94.9140625,32.7929688 C94.9140625,32.4414045 95.035155,32.154298 95.2773438,31.9316406 C95.5195325,31.7089833 95.8945287,31.5976562 96.4023438,31.5976562 L96.4023438,27.0625 C96.4023438,26.5390599 96.2617202,26.1562512 95.9804688,25.9140625 C95.6132794,25.6015609 95.0625037,25.4453125 94.328125,25.4453125 C93.7734347,25.4453125 93.2871115,25.5527333 92.8691406,25.7675781 C92.4511698,25.9824229 91.9218782,26.4374965 91.28125,27.1328125 L91.28125,31.5976562 C91.8984406,31.5976562 92.2968741,31.6562494 92.4765625,31.7734375 C92.8593769,32.0078137 93.0507812,32.3515602 93.0507812,32.8046875 C93.0507812,33.1562518 92.9277356,33.4433583 92.6816406,33.6660156 C92.4355456,33.888673 92.0234404,34 91.4453125,34 L88.7148438,34 C88.1367159,34 87.7246106,33.888673 87.4785156,33.6660156 C87.2324206,33.4433583 87.109375,33.1523455 87.109375,32.7929688 C87.109375,32.3554666 87.2968731,32.0156262 87.671875,31.7734375 C87.8593759,31.6562494 88.2617157,31.5976562 88.8789062,31.5976562 L88.8789062,25.7617188 C88.3710912,25.7617188 87.996095,25.6484386 87.7539062,25.421875 C87.5117175,25.1953114 87.390625,24.9062518 87.390625,24.5546875 C87.390625,24.2031232 87.5136706,23.9160167 87.7597656,23.6933594 C88.0058606,23.470702 88.4179659,23.359375 88.9960938,23.359375 L91.28125,23.359375 Z" id="Key-on" fill="#000000"></path>
            </g>
            <g id="Envelope" transform="translate(0.000000, 40.691636)" stroke="#000000" stroke-width="5">
                <path d="M0.5,250.308364 L464.5,250.308364" id="Line" stroke-linecap="square"></path>
                <polyline id="Path" points="20.3499107 250 119.296647 0 246.218944 125 368.207795 165.308364 445.349911 250"></polyline>
            </g>
        </g>
        <path d="M162.263,4.002 L162.263,2.247 L167.346,2.247 C167.918003,2.247 168.455331,2.35533225 168.958,2.572 C169.460669,2.78866775 169.898331,3.08766476 170.271,3.469 C170.643669,3.85033524 170.936166,4.29666411 171.1485,4.808 C171.360834,5.31933589 171.467,5.86966372 171.467,6.459 C171.467,6.85766866 171.389001,7.24333147 171.233,7.616 C171.076999,7.98866853 170.882001,8.32666515 170.648,8.63 C170.882001,8.95066827 171.076999,9.29299818 171.233,9.657 C171.389001,10.0210018 171.467,10.397998 171.467,10.788 C171.467,11.3773363 171.360834,11.9276641 171.1485,12.439 C170.936166,12.9503359 170.643669,13.3966648 170.271,13.778 C169.898331,14.1593352 169.460669,14.4583322 168.958,14.675 C168.455331,14.8916677 167.918003,15 167.346,15 L162.263,15 L162.263,13.245 L167.346,13.245 C167.710002,13.245 168.037165,13.1843339 168.3275,13.063 C168.617835,12.9416661 168.866999,12.7726678 169.075,12.556 C169.283001,12.3393323 169.443333,12.0793349 169.556,11.776 C169.668667,11.4726651 169.725,11.1433351 169.725,10.788 C169.725,10.2853308 169.621001,9.86500169 169.413,9.527 C169.204999,9.18899831 168.906002,8.8900013 168.516,8.63 C168.906002,8.36133199 169.204999,8.05800169 169.413,7.72 C169.621001,7.38199831 169.725,6.96166918 169.725,6.459 C169.725,6.10366489 169.668667,5.77433485 169.556,5.471 C169.443333,5.16766515 169.283001,4.90766775 169.075,4.691 C168.866999,4.47433225 168.617835,4.30533394 168.3275,4.184 C168.037165,4.06266606 167.710002,4.002 167.346,4.002 L162.263,4.002 Z M167.346,6.706 C167.398,6.706 167.437,6.67783361 167.463,6.6215 C167.489,6.56516638 167.502,6.51100026 167.502,6.459 C167.502,6.40699974 167.489,6.35283362 167.463,6.2965 C167.437,6.24016639 167.398,6.212 167.346,6.212 L162.263,6.212 L162.263,4.47 L167.346,4.47 C167.892003,4.47 168.344832,4.63466502 168.7045,4.964 C169.064168,5.29333498 169.244,5.79166333 169.244,6.459 C169.244,7.12633667 169.064168,7.62466502 168.7045,7.954 C168.344832,8.28333498 167.892003,8.448 167.346,8.448 L162.263,8.448 L162.263,6.706 L167.346,6.706 Z M167.346,11.035 C167.398,11.035 167.437,11.0068336 167.463,10.9505 C167.489,10.8941664 167.502,10.8400003 167.502,10.788 C167.502,10.7359997 167.489,10.6818336 167.463,10.6255 C167.437,10.5691664 167.398,10.541 167.346,10.541 L162.263,10.541 L162.263,8.799 L167.346,8.799 C167.892003,8.799 168.344832,8.96366502 168.7045,9.293 C169.064168,9.62233498 169.244,10.1206633 169.244,10.788 C169.244,11.4553367 169.064168,11.953665 168.7045,12.283 C168.344832,12.612335 167.892003,12.777 167.346,12.777 L162.263,12.777 L162.263,11.035 L167.346,11.035 Z M175.666,15 C175.041997,15 174.504669,14.9263341 174.054,14.779 C173.603331,14.6316659 173.228501,14.3998349 172.9295,14.0835 C172.630499,13.7671651 172.409501,13.3598358 172.2665,12.8615 C172.123499,12.3631642 172.052,11.7673368 172.052,11.074 L172.052,6.173 C172.052,5.45366307 172.123499,4.84483583 172.2665,4.3465 C172.409501,3.84816418 172.630499,3.44300156 172.9295,3.131 C173.228501,2.81899844 173.603331,2.59366736 174.054,2.455 C174.504669,2.31633264 175.041997,2.247 175.666,2.247 L177.33,2.247 C177.96267,2.247 178.506498,2.31633264 178.9615,2.455 C179.416502,2.59366736 179.791332,2.81899844 180.086,3.131 C180.380668,3.44300156 180.597333,3.84816418 180.736,4.3465 C180.874667,4.84483583 180.944,5.45366307 180.944,6.173 L180.944,11.074 C180.944,11.7673368 180.874667,12.3631642 180.736,12.8615 C180.597333,13.3598358 180.380668,13.7671651 180.086,14.0835 C179.791332,14.3998349 179.416502,14.6316659 178.9615,14.779 C178.506498,14.9263341 177.96267,15 177.33,15 L175.666,15 Z M177.512,13.271 C177.841335,13.271 178.118666,13.2255005 178.344,13.1345 C178.569334,13.0434995 178.753499,12.9156675 178.8965,12.751 C179.039501,12.5863325 179.1435,12.3913345 179.2085,12.166 C179.2735,11.9406655 179.306,11.6980013 179.306,11.438 L179.306,5.809 C179.306,5.5489987 179.2735,5.30633446 179.2085,5.081 C179.1435,4.85566554 179.039501,4.66066749 178.8965,4.496 C178.753499,4.33133251 178.567168,4.20350046 178.3375,4.1125 C178.107832,4.02149954 177.828335,3.976 177.499,3.976 L175.497,3.976 C175.167665,3.976 174.888168,4.02149954 174.6585,4.1125 C174.428832,4.20350046 174.242501,4.33133251 174.0995,4.496 C173.956499,4.66066749 173.8525,4.85566554 173.7875,5.081 C173.7225,5.30633446 173.69,5.5489987 173.69,5.809 L173.69,11.438 C173.69,11.6980013 173.7225,11.9406655 173.7875,12.166 C173.8525,12.3913345 173.956499,12.5863325 174.0995,12.751 C174.242501,12.9156675 174.426666,13.0434995 174.652,13.1345 C174.877334,13.2255005 175.154665,13.271 175.484,13.271 L177.512,13.271 Z M175.653,12.803 C175.349665,12.803 175.100501,12.7748336 174.9055,12.7185 C174.710499,12.6621664 174.558834,12.5690006 174.4505,12.439 C174.342166,12.3089994 174.266334,12.1421677 174.223,11.9385 C174.179666,11.7348323 174.158,11.4813348 174.158,11.178 L174.158,6.069 C174.158,5.84366554 174.179666,5.63133433 174.223,5.432 C174.266334,5.23266567 174.344333,5.05933407 174.457,4.912 C174.569667,4.76466593 174.723499,4.64983374 174.9185,4.5675 C175.113501,4.48516625 175.362665,4.444 175.666,4.444 L177.33,4.444 C177.633335,4.444 177.882499,4.48516625 178.0775,4.5675 C178.272501,4.64983374 178.426333,4.76466593 178.539,4.912 C178.651667,5.05933407 178.729666,5.23266567 178.773,5.432 C178.816334,5.63133433 178.838,5.84366554 178.838,6.069 L178.838,11.178 C178.838,11.4813348 178.816334,11.7348323 178.773,11.9385 C178.729666,12.1421677 178.653834,12.3089994 178.5455,12.439 C178.437166,12.5690006 178.285501,12.6621664 178.0905,12.7185 C177.895499,12.7748336 177.646335,12.803 177.343,12.803 L175.653,12.803 Z M176.914,11.074 C177.018001,11.074 177.085167,11.043667 177.1155,10.983 C177.145833,10.922333 177.161,10.8400005 177.161,10.736 L177.161,6.511 C177.161,6.40699948 177.145833,6.32466697 177.1155,6.264 C177.085167,6.20333303 177.018001,6.173 176.914,6.173 L176.082,6.173 C175.977999,6.173 175.910833,6.20333303 175.8805,6.264 C175.850167,6.32466697 175.835,6.40699948 175.835,6.511 L175.835,10.736 C175.835,10.8400005 175.850167,10.922333 175.8805,10.983 C175.910833,11.043667 175.977999,11.074 176.082,11.074 L176.914,11.074 Z M185.832,6.186 C185.762666,6.186 185.7085,6.20766645 185.6695,6.251 C185.6305,6.29433355 185.611,6.34633303 185.611,6.407 C185.611,6.45900026 185.624,6.50883309 185.65,6.5565 C185.667333,6.58827794 185.690444,6.61138898 185.719333,6.62583337 L185.7917,6.64802 L185.7917,6.64802 L186.677,6.849 L186.677,6.849 C186.902334,6.90100026 187.129832,6.95949967 187.3595,7.0245 L187.6091,7.10146005 C187.7209,7.13941997 187.8132,7.17659982 187.886,7.213 C188.146001,7.36033407 188.401665,7.53799896 188.653,7.746 C188.904335,7.95400104 189.129666,8.20316521 189.329,8.4935 C189.528334,8.78383478 189.688666,9.1218314 189.81,9.5075 C189.931334,9.89316859 189.992,10.3329975 189.992,10.827 C189.992,11.4163363 189.885834,11.9644975 189.6735,12.4715 C189.461166,12.9785025 189.173002,13.4183315 188.809,13.791 C188.444998,14.1636685 188.013836,14.4583322 187.5155,14.675 C187.017164,14.8916677 186.482003,15 185.91,15 L181.503,15 L181.503,13.271 L185.91,13.271 C186.274002,13.271 186.605499,13.2103339 186.9045,13.089 C187.203501,12.9676661 187.461332,12.7986677 187.678,12.582 C187.894668,12.3653322 188.061499,12.1075015 188.1785,11.8085 C188.295501,11.5094985 188.354,11.1823351 188.354,10.827 C188.354,10.3763311 188.271667,10.0080014 188.107,9.722 C187.942333,9.43599857 187.738668,9.20850084 187.496,9.0395 C187.253332,8.87049916 186.991168,8.74483375 186.7095,8.6625 C186.427832,8.58016626 186.170001,8.51300026 185.936,8.461 C185.675999,8.40899974 185.422501,8.33750045 185.1755,8.2465 C184.928499,8.15549954 184.709668,8.03200078 184.519,7.876 C184.328332,7.71999922 184.174501,7.52500117 184.0575,7.291 C183.940499,7.05699883 183.882,6.7666684 183.882,6.42 C183.882,6.09066502 183.929666,5.80250123 184.025,5.5555 C184.120334,5.30849876 184.252499,5.10266749 184.4215,4.938 C184.590501,4.77333251 184.789832,4.64983374 185.0195,4.5675 C185.249168,4.48516625 185.498332,4.444 185.767,4.444 L190.07,4.444 L190.07,6.173 L185.832,6.186 Z M185.767,3.976 C185.411665,3.976 185.088835,4.03666606 184.7985,4.158 C184.508165,4.27933394 184.261168,4.44833225 184.0575,4.665 C183.853832,4.88166775 183.695667,5.1394985 183.583,5.4385 C183.470333,5.73750149 183.414,6.06466489 183.414,6.42 C183.414,6.79266853 183.478999,7.11766528 183.609,7.395 C183.739001,7.67233472 183.905832,7.91066567 184.1095,8.11 C184.313168,8.30933433 184.540665,8.46749941 184.792,8.5845 C185.043335,8.70150058 185.290332,8.78166645 185.533,8.825 C185.767001,8.86833355 186.022665,8.92683296 186.3,9.0005 C186.577335,9.07416704 186.832999,9.18249928 187.067,9.3255 C187.301001,9.46850071 187.495999,9.66133212 187.652,9.904 C187.808001,10.1466679 187.886,10.4543315 187.886,10.827 C187.886,11.156335 187.834001,11.4444988 187.73,11.6915 C187.625999,11.9385012 187.483001,12.1443325 187.301,12.309 C187.118999,12.4736675 186.908835,12.5971663 186.6705,12.6795 C186.432165,12.7618337 186.178668,12.803 185.91,12.803 L181.503,12.803 L181.503,11.074 L185.754,11.074 C185.823334,11.074 185.8775,11.0501669 185.9165,11.0025 C185.9555,10.9548331 185.975,10.9050003 185.975,10.853 C185.975,10.7316661 185.923001,10.6493335 185.819,10.606 L185.68796,10.5763601 L185.68796,10.5763601 L185.507,10.541 C185.324999,10.5063332 185.119168,10.4630003 184.8895,10.411 C184.659832,10.3589997 184.432334,10.3005003 184.207,10.2355 C183.981666,10.1704997 183.808334,10.1033337 183.687,10.034 C183.435665,9.89533264 183.188668,9.72200104 182.946,9.514 C182.703332,9.30599896 182.488834,9.05683478 182.3025,8.7665 C182.116166,8.47616521 181.966667,8.13816859 181.854,7.7525 C181.741333,7.3668314 181.685,6.92266918 181.685,6.42 C181.685,5.83933043 181.791166,5.29333589 182.0035,4.782 C182.215834,4.27066411 182.503998,3.82866853 182.868,3.456 C183.232002,3.08333147 183.663164,2.78866775 184.1615,2.572 C184.659836,2.35533225 185.194997,2.247 185.767,2.247 L190.07,2.247 L190.07,3.976 L185.767,3.976 Z M194.88,6.186 C194.810666,6.186 194.7565,6.20766645 194.7175,6.251 C194.6785,6.29433355 194.659,6.34633303 194.659,6.407 C194.659,6.45900026 194.672,6.50883309 194.698,6.5565 C194.715333,6.58827794 194.738444,6.61138898 194.767333,6.62583337 L194.8397,6.64802 L194.8397,6.64802 L195.725,6.849 L195.725,6.849 C195.950334,6.90100026 196.177832,6.95949967 196.4075,7.0245 L196.6571,7.10146005 C196.7689,7.13941997 196.8612,7.17659982 196.934,7.213 C197.194001,7.36033407 197.449665,7.53799896 197.701,7.746 C197.952335,7.95400104 198.177666,8.20316521 198.377,8.4935 C198.576334,8.78383478 198.736666,9.1218314 198.858,9.5075 C198.979334,9.89316859 199.04,10.3329975 199.04,10.827 C199.04,11.4163363 198.933834,11.9644975 198.7215,12.4715 C198.509166,12.9785025 198.221002,13.4183315 197.857,13.791 C197.492998,14.1636685 197.061836,14.4583322 196.5635,14.675 C196.065164,14.8916677 195.530003,15 194.958,15 L190.551,15 L190.551,13.271 L194.958,13.271 C195.322002,13.271 195.653499,13.2103339 195.9525,13.089 C196.251501,12.9676661 196.509332,12.7986677 196.726,12.582 C196.942668,12.3653322 197.109499,12.1075015 197.2265,11.8085 C197.343501,11.5094985 197.402,11.1823351 197.402,10.827 C197.402,10.3763311 197.319667,10.0080014 197.155,9.722 C196.990333,9.43599857 196.786668,9.20850084 196.544,9.0395 C196.301332,8.87049916 196.039168,8.74483375 195.7575,8.6625 C195.475832,8.58016626 195.218001,8.51300026 194.984,8.461 C194.723999,8.40899974 194.470501,8.33750045 194.2235,8.2465 C193.976499,8.15549954 193.757668,8.03200078 193.567,7.876 C193.376332,7.71999922 193.222501,7.52500117 193.1055,7.291 C192.988499,7.05699883 192.93,6.7666684 192.93,6.42 C192.93,6.09066502 192.977666,5.80250123 193.073,5.5555 C193.168334,5.30849876 193.300499,5.10266749 193.4695,4.938 C193.638501,4.77333251 193.837832,4.64983374 194.0675,4.5675 C194.297168,4.48516625 194.546332,4.444 194.815,4.444 L199.118,4.444 L199.118,6.173 L194.88,6.186 Z M194.815,3.976 C194.459665,3.976 194.136835,4.03666606 193.8465,4.158 C193.556165,4.27933394 193.309168,4.44833225 193.1055,4.665 C192.901832,4.88166775 192.743667,5.1394985 192.631,5.4385 C192.518333,5.73750149 192.462,6.06466489 192.462,6.42 C192.462,6.79266853 192.526999,7.11766528 192.657,7.395 C192.787001,7.67233472 192.953832,7.91066567 193.1575,8.11 C193.361168,8.30933433 193.588665,8.46749941 193.84,8.5845 C194.091335,8.70150058 194.338332,8.78166645 194.581,8.825 C194.815001,8.86833355 195.070665,8.92683296 195.348,9.0005 C195.625335,9.07416704 195.880999,9.18249928 196.115,9.3255 C196.349001,9.46850071 196.543999,9.66133212 196.7,9.904 C196.856001,10.1466679 196.934,10.4543315 196.934,10.827 C196.934,11.156335 196.882001,11.4444988 196.778,11.6915 C196.673999,11.9385012 196.531001,12.1443325 196.349,12.309 C196.166999,12.4736675 195.956835,12.5971663 195.7185,12.6795 C195.480165,12.7618337 195.226668,12.803 194.958,12.803 L190.551,12.803 L190.551,11.074 L194.802,11.074 C194.871334,11.074 194.9255,11.0501669 194.9645,11.0025 C195.0035,10.9548331 195.023,10.9050003 195.023,10.853 C195.023,10.7316661 194.971001,10.6493335 194.867,10.606 L194.73596,10.5763601 L194.73596,10.5763601 L194.555,10.541 C194.372999,10.5063332 194.167168,10.4630003 193.9375,10.411 C193.707832,10.3589997 193.480334,10.3005003 193.255,10.2355 C193.029666,10.1704997 192.856334,10.1033337 192.735,10.034 C192.483665,9.89533264 192.236668,9.72200104 191.994,9.514 C191.751332,9.30599896 191.536834,9.05683478 191.3505,8.7665 C191.164166,8.47616521 191.014667,8.13816859 190.902,7.7525 C190.789333,7.3668314 190.733,6.92266918 190.733,6.42 C190.733,5.83933043 190.839166,5.29333589 191.0515,4.782 C191.263834,4.27066411 191.551998,3.82866853 191.916,3.456 C192.280002,3.08333147 192.711164,2.78866775 193.2095,2.572 C193.707836,2.35533225 194.242997,2.247 194.815,2.247 L199.118,2.247 L199.118,3.976 L194.815,3.976 Z M202.134,6.173 C202.134,5.62699727 202.233666,5.1135024 202.433,4.6325 C202.632334,4.1514976 202.898832,3.73550176 203.2325,3.3845 C203.566168,3.03349824 203.951831,2.75616768 204.3895,2.5525 C204.827169,2.34883231 205.279998,2.247 205.748,2.247 L210.675,2.247 L210.675,3.976 L205.956,3.976 C205.626665,3.976 205.332001,4.04099935 205.072,4.171 C204.811999,4.30100065 204.593168,4.46999896 204.4155,4.678 C204.237832,4.88600104 204.101334,5.12216534 204.006,5.3865 C203.910666,5.65083466 203.863,5.9129987 203.863,6.173 L203.863,15 L202.134,15 L202.134,6.173 Z M204.331,8.409 L204.331,6.433 C204.331,6.20766554 204.367833,5.97583452 204.4415,5.7375 C204.515167,5.49916547 204.625666,5.28466762 204.773,5.094 C204.920334,4.90333238 205.106666,4.74733394 205.332,4.626 C205.557334,4.50466606 205.821665,4.444 206.125,4.444 L210.675,4.444 L210.675,6.173 L206.164,6.173 C206.112,6.173 206.057834,6.20333303 206.0015,6.264 C205.945166,6.32466697 205.917,6.40699948 205.917,6.511 L205.917,6.693 L209.687,6.693 L209.687,8.409 L204.331,8.409 Z M204.331,8.838 L209.687,8.838 L209.687,10.567 L205.917,10.567 L205.917,15 L204.331,15 L204.331,8.838 Z M211.871,15 L211.871,2.247 L213.6,2.247 L213.6,15 L211.871,15 Z M214.068,15 L214.068,2.247 L215.797,2.247 L215.797,15 L214.068,15 Z M226.535,15 L220.685,15 C220.216998,15 219.764169,14.8981677 219.3265,14.6945 C218.888831,14.4908323 218.503168,14.2135018 218.1695,13.8625 C217.835832,13.5114982 217.569334,13.0955024 217.37,12.6145 C217.170666,12.1334976 217.071,11.6200027 217.071,11.074 L217.071,6.173 C217.071,5.62699727 217.170666,5.1135024 217.37,4.6325 C217.569334,4.1514976 217.835832,3.73550176 218.1695,3.3845 C218.503168,3.03349824 218.888831,2.75616768 219.3265,2.5525 C219.764169,2.34883231 220.216998,2.247 220.685,2.247 L226.535,2.247 L226.535,3.976 L220.893,3.976 C220.563665,3.976 220.269001,4.04099935 220.009,4.171 C219.748999,4.30100065 219.530168,4.46999896 219.3525,4.678 C219.174832,4.88600104 219.038334,5.12216534 218.943,5.3865 C218.847666,5.65083466 218.8,5.9129987 218.8,6.173 L218.8,11.074 C218.8,11.3340013 218.847666,11.5961653 218.943,11.8605 C219.038334,12.1248347 219.174832,12.360999 219.3525,12.569 C219.530168,12.777001 219.748999,12.9459994 220.009,13.076 C220.269001,13.2060007 220.563665,13.271 220.893,13.271 L225.079,13.271 L225.079,8.409 L221.205,8.409 L221.205,6.693 L226.535,6.693 L226.535,15 Z M221.101,11.074 L222.531,11.074 C222.591667,11.074 222.637167,11.0480003 222.6675,10.996 C222.697833,10.944 222.713,10.887667 222.713,10.827 C222.713,10.7576663 222.697833,10.6970003 222.6675,10.645 C222.637167,10.5929997 222.591667,10.567 222.531,10.567 L221.205,10.567 L221.205,8.838 L224.624,8.838 L224.624,12.803 L221.062,12.803 C220.758665,12.803 220.494334,12.7423339 220.269,12.621 C220.043666,12.4996661 219.857334,12.3436676 219.71,12.153 C219.562666,11.9623324 219.452167,11.7478345 219.3785,11.5095 C219.304833,11.2711655 219.268,11.0393345 219.268,10.814 L219.268,6.433 C219.268,6.20766554 219.304833,5.97583452 219.3785,5.7375 C219.452167,5.49916547 219.562666,5.28466762 219.71,5.094 C219.857334,4.90333238 220.043666,4.74733394 220.269,4.626 C220.494334,4.50466606 220.758665,4.444 221.062,4.444 L226.535,4.444 L226.535,6.173 L221.101,6.173 C221.049,6.173 220.994834,6.20333303 220.9385,6.264 C220.882166,6.32466697 220.854,6.40699948 220.854,6.511 L220.854,10.736 C220.854,10.8400005 220.882166,10.922333 220.9385,10.983 C220.994834,11.043667 221.049,11.074 221.101,11.074 Z M234.335,8.838 L234.335,15 L232.606,15 L232.606,10.567 L231.033,10.567 L231.033,15 L229.304,15 L229.304,8.838 L234.335,8.838 Z M229.304,2.247 L231.033,2.247 L231.033,6.641 L232.606,6.641 L232.606,2.247 L234.335,2.247 L234.335,8.37 L229.304,8.37 L229.304,2.247 Z M234.803,2.247 L236.532,2.247 L236.532,15 L234.803,15 L234.803,2.247 Z M227.107,2.247 L228.836,2.247 L228.836,15 L227.107,15 L227.107,2.247 Z M246.035,2.247 L246.035,3.976 L237.143,3.976 L237.143,2.247 L246.035,2.247 Z M241.368,4.444 L241.368,15 L239.639,15 L239.639,6.173 L237.143,6.173 L237.143,4.444 L241.368,4.444 Z M241.836,4.444 L246.035,4.444 L246.035,6.173 L243.565,6.173 L243.565,15 L241.836,15 L241.836,4.444 Z M249.09,6.173 C249.09,5.62699727 249.189666,5.1135024 249.389,4.6325 C249.588334,4.1514976 249.854832,3.73550176 250.1885,3.3845 C250.522168,3.03349824 250.907831,2.75616768 251.3455,2.5525 C251.783169,2.34883231 252.235998,2.247 252.704,2.247 L257.631,2.247 L257.631,3.976 L252.912,3.976 C252.582665,3.976 252.288001,4.04099935 252.028,4.171 C251.767999,4.30100065 251.549168,4.46999896 251.3715,4.678 C251.193832,4.88600104 251.057334,5.12216534 250.962,5.3865 C250.866666,5.65083466 250.819,5.9129987 250.819,6.173 L250.819,11.074 C250.819,11.3340013 250.866666,11.5961653 250.962,11.8605 C251.057334,12.1248347 251.193832,12.360999 251.3715,12.569 C251.549168,12.777001 251.767999,12.9459994 252.028,13.076 C252.288001,13.2060007 252.582665,13.271 252.912,13.271 L257.631,13.271 L257.631,15 L252.704,15 C252.235998,15 251.783169,14.8981677 251.3455,14.6945 C250.907831,14.4908323 250.522168,14.2135018 250.1885,13.8625 C249.854832,13.5114982 249.588334,13.0955024 249.389,12.6145 C249.189666,12.1334976 249.09,11.6200027 249.09,11.074 L249.09,6.173 Z M251.287,8.409 L251.287,6.433 C251.287,6.20766554 251.323833,5.97583452 251.3975,5.7375 C251.471167,5.49916547 251.581666,5.28466762 251.729,5.094 C251.876334,4.90333238 252.062666,4.74733394 252.288,4.626 C252.513334,4.50466606 252.777665,4.444 253.081,4.444 L257.631,4.444 L257.631,6.173 L253.12,6.173 C253.068,6.173 253.013834,6.20333303 252.9575,6.264 C252.901166,6.32466697 252.873,6.40699948 252.873,6.511 L252.873,6.693 L256.643,6.693 L256.643,8.409 L251.287,8.409 Z M251.287,8.838 L256.643,8.838 L256.643,10.567 L252.873,10.567 L252.873,10.736 C252.873,10.8400005 252.901166,10.922333 252.9575,10.983 C253.013834,11.043667 253.068,11.074 253.12,11.074 L257.631,11.074 L257.631,12.803 L253.081,12.803 C252.777665,12.803 252.513334,12.7423339 252.288,12.621 C252.062666,12.4996661 251.876334,12.3436676 251.729,12.153 C251.581666,11.9623324 251.471167,11.7478345 251.3975,11.5095 C251.323833,11.2711655 251.287,11.0393345 251.287,10.814 L251.287,8.838 Z M266.991,15 L266.991,6.173 C266.991,5.45366307 266.921667,4.84483583 266.783,4.3465 C266.644333,3.84816418 266.427668,3.44300156 266.133,3.131 C265.838332,2.81899844 265.463502,2.59366736 265.0085,2.455 C264.553498,2.31633264 264.00967,2.247 263.377,2.247 L258.19,2.247 L258.19,3.976 L263.546,3.976 C263.875335,3.976 264.154832,4.02149954 264.3845,4.1125 C264.614168,4.20350046 264.800499,4.33133251 264.9435,4.496 C265.086501,4.66066749 265.1905,4.85566554 265.2555,5.081 C265.3205,5.30633446 265.353,5.5489987 265.353,5.809 L265.353,15 L266.991,15 Z M262.909,6.173 C263.013001,6.173 263.0975,6.20333303 263.1625,6.264 C263.2275,6.32466697 263.26,6.40699948 263.26,6.511 L263.26,15 L264.885,15 L264.885,6.069 C264.885,5.84366554 264.863334,5.63133433 264.82,5.432 C264.776666,5.23266567 264.698667,5.05933407 264.586,4.912 C264.473333,4.76466593 264.319501,4.64983374 264.1245,4.5675 C263.929499,4.48516625 263.680335,4.444 263.377,4.444 L258.19,4.444 L258.19,6.173 L262.909,6.173 Z M262.116,6.589 L260.296,6.589 L260.296,15 L262.116,15 L262.116,6.589 Z M259.828,15 L259.828,6.589 L258.19,6.589 L258.19,15 L259.828,15 Z M277.456,2.247 L279.185,2.247 L275.168,13.583 C275.098666,13.7650009 275.007667,13.9404992 274.895,14.1095 C274.782333,14.2785008 274.643667,14.430166 274.479,14.5645 C274.314333,14.698834 274.117168,14.8049996 273.8875,14.883 C273.657832,14.9610004 273.395668,15 273.101,15 C272.814999,15 272.557168,14.9610004 272.3275,14.883 C272.097832,14.8049996 271.898501,14.698834 271.7295,14.5645 C271.560499,14.430166 271.417501,14.2785008 271.3005,14.1095 C271.183499,13.9404992 271.094667,13.7650009 271.034,13.583 L267.017,2.247 L268.746,2.247 L272.49,12.933 C272.516,13.0196671 272.593999,13.0976663 272.724,13.167 C272.854001,13.2363337 272.979666,13.271 273.101,13.271 C273.239667,13.271 273.367499,13.2363337 273.4845,13.167 C273.601501,13.0976663 273.673,13.0196671 273.699,12.933 L277.456,2.247 Z M275.259,2.247 L276.988,2.247 L273.413,12.608 C273.395667,12.6600003 273.3545,12.7054998 273.2895,12.7445 C273.2245,12.7835002 273.161667,12.803 273.101,12.803 C273.040333,12.803 272.975334,12.7835002 272.906,12.7445 C272.836666,12.7054998 272.793333,12.6600003 272.776,12.608 L269.214,2.247 L270.878,2.247 L273.101,8.916 L275.259,2.247 Z M278.73,6.173 C278.73,5.62699727 278.829666,5.1135024 279.029,4.6325 C279.228334,4.1514976 279.494832,3.73550176 279.8285,3.3845 C280.162168,3.03349824 280.547831,2.75616768 280.9855,2.5525 C281.423169,2.34883231 281.875998,2.247 282.344,2.247 L287.271,2.247 L287.271,3.976 L282.552,3.976 C282.222665,3.976 281.928001,4.04099935 281.668,4.171 C281.407999,4.30100065 281.189168,4.46999896 281.0115,4.678 C280.833832,4.88600104 280.697334,5.12216534 280.602,5.3865 C280.506666,5.65083466 280.459,5.9129987 280.459,6.173 L280.459,11.074 C280.459,11.3340013 280.506666,11.5961653 280.602,11.8605 C280.697334,12.1248347 280.833832,12.360999 281.0115,12.569 C281.189168,12.777001 281.407999,12.9459994 281.668,13.076 C281.928001,13.2060007 282.222665,13.271 282.552,13.271 L287.271,13.271 L287.271,15 L282.344,15 C281.875998,15 281.423169,14.8981677 280.9855,14.6945 C280.547831,14.4908323 280.162168,14.2135018 279.8285,13.8625 C279.494832,13.5114982 279.228334,13.0955024 279.029,12.6145 C278.829666,12.1334976 278.73,11.6200027 278.73,11.074 L278.73,6.173 Z M280.927,8.409 L280.927,6.433 C280.927,6.20766554 280.963833,5.97583452 281.0375,5.7375 C281.111167,5.49916547 281.221666,5.28466762 281.369,5.094 C281.516334,4.90333238 281.702666,4.74733394 281.928,4.626 C282.153334,4.50466606 282.417665,4.444 282.721,4.444 L287.271,4.444 L287.271,6.173 L282.76,6.173 C282.708,6.173 282.653834,6.20333303 282.5975,6.264 C282.541166,6.32466697 282.513,6.40699948 282.513,6.511 L282.513,6.693 L286.283,6.693 L286.283,8.409 L280.927,8.409 Z M280.927,8.838 L286.283,8.838 L286.283,10.567 L282.513,10.567 L282.513,10.736 C282.513,10.8400005 282.541166,10.922333 282.5975,10.983 C282.653834,11.043667 282.708,11.074 282.76,11.074 L287.271,11.074 L287.271,12.803 L282.721,12.803 C282.417665,12.803 282.153334,12.7423339 281.928,12.621 C281.702666,12.4996661 281.516334,12.3436676 281.369,12.153 C281.221666,11.9623324 281.111167,11.7478345 281.0375,11.5095 C280.963833,11.2711655 280.927,11.0393345 280.927,10.814 L280.927,8.838 Z M296.371,15 L291.444,15 C290.975998,15 290.523169,14.8981677 290.0855,14.6945 C289.647831,14.4908323 289.262168,14.2135018 288.9285,13.8625 C288.594832,13.5114982 288.328334,13.0955024 288.129,12.6145 C287.929666,12.1334976 287.83,11.6200027 287.83,11.074 L287.83,2.247 L289.559,2.247 L289.559,11.074 C289.559,11.3340013 289.606666,11.5961653 289.702,11.8605 C289.797334,12.1248347 289.933832,12.360999 290.1115,12.569 C290.289168,12.777001 290.507999,12.9459994 290.768,13.076 C291.028001,13.2060007 291.322665,13.271 291.652,13.271 L296.371,13.271 L296.371,15 Z M292.055,11.074 L296.371,11.074 L296.371,12.803 L291.821,12.803 C291.517665,12.803 291.253334,12.7423339 291.028,12.621 C290.802666,12.4996661 290.616334,12.3436676 290.469,12.153 C290.321666,11.9623324 290.211167,11.7478345 290.1375,11.5095 C290.063833,11.2711655 290.027,11.0393345 290.027,10.814 L290.027,2.247 L291.808,2.247 L291.808,10.736 C291.808,10.8400005 291.836166,10.9201664 291.8925,10.9765 C291.948834,11.0328336 292.003,11.061 292.055,11.061 L292.055,11.074 Z M300.531,15 L302.195,15 C302.82767,15 303.371498,14.9263341 303.8265,14.779 C304.281502,14.6316659 304.656332,14.3998349 304.951,14.0835 C305.245668,13.7671651 305.462333,13.3598358 305.601,12.8615 C305.739667,12.3631642 305.809,11.7673368 305.809,11.074 L305.809,6.173 C305.809,5.45366307 305.739667,4.84483583 305.601,4.3465 C305.462333,3.84816418 305.245668,3.44300156 304.951,3.131 C304.656332,2.81899844 304.281502,2.59366736 303.8265,2.455 C303.371498,2.31633264 302.82767,2.247 302.195,2.247 L300.531,2.247 C299.906997,2.247 299.369669,2.31633264 298.919,2.455 C298.468331,2.59366736 298.093501,2.81899844 297.7945,3.131 C297.495499,3.44300156 297.274501,3.84816418 297.1315,4.3465 C296.988499,4.84483583 296.917,5.45366307 296.917,6.173 L296.917,11.074 C296.917,11.7673368 296.988499,12.3631642 297.1315,12.8615 C297.274501,13.3598358 297.495499,13.7671651 297.7945,14.0835 C298.093501,14.3998349 298.468331,14.6316659 298.919,14.779 C299.369669,14.9263341 299.906997,15 300.531,15 Z M302.377,13.271 L300.349,13.271 C300.019665,13.271 299.742334,13.2255005 299.517,13.1345 C299.291666,13.0434995 299.107501,12.9156675 298.9645,12.751 C298.821499,12.5863325 298.7175,12.3913345 298.6525,12.166 C298.5875,11.9406655 298.555,11.6980013 298.555,11.438 L298.555,5.809 C298.555,5.5489987 298.5875,5.30633446 298.6525,5.081 C298.7175,4.85566554 298.821499,4.66066749 298.9645,4.496 C299.107501,4.33133251 299.293832,4.20350046 299.5235,4.1125 C299.753168,4.02149954 300.032665,3.976 300.362,3.976 L302.364,3.976 C302.693335,3.976 302.972832,4.02149954 303.2025,4.1125 C303.432168,4.20350046 303.618499,4.33133251 303.7615,4.496 C303.904501,4.66066749 304.0085,4.85566554 304.0735,5.081 C304.1385,5.30633446 304.171,5.5489987 304.171,5.809 L304.171,11.438 C304.171,11.6980013 304.1385,11.9406655 304.0735,12.166 C304.0085,12.3913345 303.904501,12.5863325 303.7615,12.751 C303.618499,12.9156675 303.434334,13.0434995 303.209,13.1345 C302.983666,13.2255005 302.706335,13.271 302.377,13.271 Z M302.208,12.803 C302.511335,12.803 302.760499,12.7748336 302.9555,12.7185 C303.150501,12.6621664 303.302166,12.5690006 303.4105,12.439 C303.518834,12.3089994 303.594666,12.1421677 303.638,11.9385 C303.681334,11.7348323 303.703,11.4813348 303.703,11.178 L303.703,6.069 C303.703,5.84366554 303.681334,5.63133433 303.638,5.432 C303.594666,5.23266567 303.516667,5.05933407 303.404,4.912 C303.291333,4.76466593 303.137501,4.64983374 302.9425,4.5675 C302.747499,4.48516625 302.498335,4.444 302.195,4.444 L300.531,4.444 C300.227665,4.444 299.978501,4.48516625 299.7835,4.5675 C299.588499,4.64983374 299.434667,4.76466593 299.322,4.912 C299.209333,5.05933407 299.131334,5.23266567 299.088,5.432 C299.044666,5.63133433 299.023,5.84366554 299.023,6.069 L299.023,11.178 C299.023,11.4813348 299.044666,11.7348323 299.088,11.9385 C299.131334,12.1421677 299.207166,12.3089994 299.3155,12.439 C299.423834,12.5690006 299.575499,12.6621664 299.7705,12.7185 C299.965501,12.7748336 300.214665,12.803 300.518,12.803 L302.208,12.803 Z M300.947,11.074 C300.842999,11.074 300.775833,11.043667 300.7455,10.983 C300.715167,10.922333 300.7,10.8400005 300.7,10.736 L300.7,6.511 C300.7,6.40699948 300.715167,6.32466697 300.7455,6.264 C300.775833,6.20333303 300.842999,6.173 300.947,6.173 L301.779,6.173 C301.883001,6.173 301.950167,6.20333303 301.9805,6.264 C302.010833,6.32466697 302.026,6.40699948 302.026,6.511 L302.026,10.736 C302.026,10.8400005 302.010833,10.922333 301.9805,10.983 C301.950167,11.043667 301.883001,11.074 301.779,11.074 L300.947,11.074 Z M308.565,15 L310.294,15 L310.294,10.671 L311.451,10.671 C312.023003,10.671 312.560331,10.5626677 313.063,10.346 C313.565669,10.1293323 314.001165,9.83033524 314.3695,9.449 C314.737835,9.06766476 315.030332,8.62133589 315.247,8.11 C315.463668,7.59866411 315.572,7.04833628 315.572,6.459 C315.572,5.86966372 315.465834,5.31933589 315.2535,4.808 C315.041166,4.29666411 314.748669,3.85033524 314.376,3.469 C314.003331,3.08766476 313.565669,2.78866775 313.063,2.572 C312.560331,2.35533225 312.023003,2.247 311.451,2.247 L306.368,2.247 L306.368,4.002 L311.451,4.002 C311.815002,4.002 312.142165,4.06266606 312.4325,4.184 C312.722835,4.30533394 312.971999,4.47433225 313.18,4.691 C313.388001,4.90766775 313.548333,5.16766515 313.661,5.471 C313.773667,5.77433485 313.83,6.10366489 313.83,6.459 C313.83,6.81433511 313.773667,7.14366515 313.661,7.447 C313.548333,7.75033485 313.388001,8.01033225 313.18,8.227 C312.971999,8.44366775 312.722835,8.61266606 312.4325,8.734 C312.142165,8.85533394 311.815002,8.916 311.451,8.916 L308.565,8.916 L308.565,15 Z M306.368,15 L308.097,15 L308.097,8.448 L311.451,8.448 C311.997003,8.448 312.449832,8.28333498 312.8095,7.954 C313.169168,7.62466502 313.349,7.12633667 313.349,6.459 C313.349,5.79166333 313.169168,5.29333498 312.8095,4.964 C312.449832,4.63466502 311.997003,4.47 311.451,4.47 L306.368,4.47 L306.368,6.212 L311.451,6.212 C311.503,6.212 311.542,6.24016639 311.568,6.2965 C311.594,6.35283362 311.607,6.40699974 311.607,6.459 C311.607,6.51100026 311.594,6.56516638 311.568,6.6215 C311.542,6.67783361 311.503,6.706 311.451,6.706 L306.368,6.706 L306.368,15 Z M315.637,6.173 C315.637,5.62699727 315.736666,5.1135024 315.936,4.6325 C316.135334,4.1514976 316.401832,3.73550176 316.7355,3.3845 C317.069168,3.03349824 317.454831,2.75616768 317.8925,2.5525 C318.330169,2.34883231 318.782998,2.247 319.251,2.247 L324.178,2.247 L324.178,3.976 L319.459,3.976 C319.129665,3.976 318.835001,4.04099935 318.575,4.171 C318.314999,4.30100065 318.096168,4.46999896 317.9185,4.678 C317.740832,4.88600104 317.604334,5.12216534 317.509,5.3865 C317.413666,5.65083466 317.366,5.9129987 317.366,6.173 L317.366,11.074 C317.366,11.3340013 317.413666,11.5961653 317.509,11.8605 C317.604334,12.1248347 317.740832,12.360999 317.9185,12.569 C318.096168,12.777001 318.314999,12.9459994 318.575,13.076 C318.835001,13.2060007 319.129665,13.271 319.459,13.271 L324.178,13.271 L324.178,15 L319.251,15 C318.782998,15 318.330169,14.8981677 317.8925,14.6945 C317.454831,14.4908323 317.069168,14.2135018 316.7355,13.8625 C316.401832,13.5114982 316.135334,13.0955024 315.936,12.6145 C315.736666,12.1334976 315.637,11.6200027 315.637,11.074 L315.637,6.173 Z M317.834,8.409 L317.834,6.433 C317.834,6.20766554 317.870833,5.97583452 317.9445,5.7375 C318.018167,5.49916547 318.128666,5.28466762 318.276,5.094 C318.423334,4.90333238 318.609666,4.74733394 318.835,4.626 C319.060334,4.50466606 319.324665,4.444 319.628,4.444 L324.178,4.444 L324.178,6.173 L319.667,6.173 C319.615,6.173 319.560834,6.20333303 319.5045,6.264 C319.448166,6.32466697 319.42,6.40699948 319.42,6.511 L319.42,6.693 L323.19,6.693 L323.19,8.409 L317.834,8.409 Z M317.834,8.838 L323.19,8.838 L323.19,10.567 L319.42,10.567 L319.42,10.736 C319.42,10.8400005 319.448166,10.922333 319.5045,10.983 C319.560834,11.043667 319.615,11.074 319.667,11.074 L324.178,11.074 L324.178,12.803 L319.628,12.803 C319.324665,12.803 319.060334,12.7423339 318.835,12.621 C318.609666,12.4996661 318.423334,12.3436676 318.276,12.153 C318.128666,11.9623324 318.018167,11.7478345 317.9445,11.5095 C317.870833,11.2711655 317.834,11.0393345 317.834,10.814 L317.834,8.838 Z" id="BOSSFIGHTEnvelope" fill="#0D3B99" fill-rule="nonzero"></path>
    </g>
</svg>