<?xml version="1.0" encoding="UTF-8"?>
<svg width="210px" height="380px" viewBox="0 0 210 380" version="1.1" xmlns="http://www.w3.org/2000/svg" xmlns:xlink="http://www.w3.org/1999/xlink">
    <!-- Generator: Sketch 58 (84663) - https://sketch.com -->
    <title>FME7</title>
    <desc>Created with Sketch.</desc>
    <g id="FME7" stroke="none" stroke-width="1" fill="none" fill-rule="evenodd">
        <g id="bg">
            <g id="chip">
                <rect id="Background" fill="#404040" fill-rule="nonzero" x="0" y="0" width="210" height="380" rx="1"></rect>
                <path d="M206,365 C207.104569,365 208,365.895431 208,367 L208,373 C208,374.104569 207.104569,375 206,375 L4,375 C2.8954305,375 2,374.104569 2,373 L2,367 C2,365.895431 2.8954305,365 4,365 L206,365 Z M206,345 C207.104569,345 208,345.895431 208,347 L208,353 C208,354.104569 207.104569,355 206,355 L4,355 C2.8954305,355 2,354.104569 2,353 L2,347 C2,345.895431 2.8954305,345 4,345 L206,345 Z M206,325 C207.104569,325 208,325.895431 208,327 L208,333 C208,334.104569 207.104569,335 206,335 L4,335 C2.8954305,335 2,334.104569 2,333 L2,327 C2,325.895431 2.8954305,325 4,325 L206,325 Z M206,305 C207.104569,305 208,305.895431 208,307 L208,313 C208,314.104569 207.104569,315 206,315 L4,315 C2.8954305,315 2,314.104569 2,313 L2,307 C2,305.895431 2.8954305,305 4,305 L206,305 Z M206,285 C207.104569,285 208,285.895431 208,287 L208,293 C208,294.104569 207.104569,295 206,295 L4,295 C2.8954305,295 2,294.104569 2,293 L2,287 C2,285.895431 2.8954305,285 4,285 L206,285 Z M206,265 C207.104569,265 208,265.895431 208,267 L208,273 C208,274.104569 207.104569,275 206,275 L4,275 C2.8954305,275 2,274.104569 2,273 L2,267 C2,265.895431 2.8954305,265 4,265 L206,265 Z M206,245 C207.104569,245 208,245.895431 208,247 L208,253 C208,254.104569 207.104569,255 206,255 L4,255 C2.8954305,255 2,254.104569 2,253 L2,247 C2,245.895431 2.8954305,245 4,245 L206,245 Z M206,225 C207.104569,225 208,225.895431 208,227 L208,233 C208,234.104569 207.104569,235 206,235 L4,235 C2.8954305,235 2,234.104569 2,233 L2,227 C2,225.895431 2.8954305,225 4,225 L206,225 Z M206,205 C207.104569,205 208,205.895431 208,207 L208,213 C208,214.104569 207.104569,215 206,215 L4,215 C2.8954305,215 2,214.104569 2,213 L2,207 C2,205.895431 2.8954305,205 4,205 L206,205 Z M206,185 C207.104569,185 208,185.895431 208,187 L208,193 C208,194.104569 207.104569,195 206,195 L4,195 C2.8954305,195 2,194.104569 2,193 L2,187 C2,185.895431 2.8954305,185 4,185 L206,185 Z M206,165 C207.104569,165 208,165.895431 208,167 L208,173 C208,174.104569 207.104569,175 206,175 L4,175 C2.8954305,175 2,174.104569 2,173 L2,167 C2,165.895431 2.8954305,165 4,165 L206,165 Z M206,145 C207.104569,145 208,145.895431 208,147 L208,153 C208,154.104569 207.104569,155 206,155 L4,155 C2.8954305,155 2,154.104569 2,153 L2,147 C2,145.895431 2.8954305,145 4,145 L206,145 Z M206,125 C207.104569,125 208,125.895431 208,127 L208,133 C208,134.104569 207.104569,135 206,135 L4,135 C2.8954305,135 2,134.104569 2,133 L2,127 C2,125.895431 2.8954305,125 4,125 L206,125 Z M206,105 C207.104569,105 208,105.895431 208,107 L208,113 C208,114.104569 207.104569,115 206,115 L4,115 C2.8954305,115 2,114.104569 2,113 L2,107 C2,105.895431 2.8954305,105 4,105 L206,105 Z M206,85 C207.104569,85 208,85.8954305 208,87 L208,93 C208,94.1045695 207.104569,95 206,95 L4,95 C2.8954305,95 2,94.1045695 2,93 L2,87 C2,85.8954305 2.8954305,85 4,85 L206,85 Z M206,65 C207.104569,65 208,65.8954305 208,67 L208,73 C208,74.1045695 207.104569,75 206,75 L4,75 C2.8954305,75 2,74.1045695 2,73 L2,67 C2,65.8954305 2.8954305,65 4,65 L206,65 Z M206,45 C207.104569,45 208,45.8954305 208,47 L208,53 C208,54.1045695 207.104569,55 206,55 L4,55 C2.8954305,55 2,54.1045695 2,53 L2,47 C2,45.8954305 2.8954305,45 4,45 L206,45 Z M206,25 C207.104569,25 208,25.8954305 208,27 L208,33 C208,34.1045695 207.104569,35 206,35 L4,35 C2.8954305,35 2,34.1045695 2,33 L2,27 C2,25.8954305 2.8954305,25 4,25 L206,25 Z M206,5 C207.104569,5 208,5.8954305 208,7 L208,13 C208,14.1045695 207.104569,15 206,15 L4,15 C2.8954305,15 2,14.1045695 2,13 L2,7 C2,5.8954305 2.8954305,5 4,5 L206,5 Z" id="leads" fill="#E0D9C5"></path>
                <rect id="cover" fill="#1D1D1D" x="5" y="0" width="200" height="380" rx="2"></rect>
            </g>
            <g id="branding" transform="translate(74.000000, 4.000000)">
                <g id="KautenjaDSP/bottom/white" transform="translate(0.000000, 360.000000)" fill="#FFFFFF">
                    <g id="Group-3">
                        <path d="M-2.13162821e-14,0.17 L-2.13162821e-14,7.31 L1.57,7.31 L1.57,5.01 L2.47,4.1 L4.62,7.31 L6.59,7.31 L3.53,2.99 L6.32,0.17 L4.36,0.17 L1.57,3.13 L1.57,0.17 L-2.13162821e-14,0.17 Z M7.01,3.73 C7.0300001,3.396665 7.1133326,3.1200011 7.26,2.9 C7.4066674,2.6799989 7.5933322,2.503334 7.82,2.37 C8.0466678,2.236666 8.30166525,2.14166695 8.585,2.085 C8.86833475,2.02833305 9.1533319,2 9.44,2 C9.7000013,2 9.963332,2.01833315 10.23,2.055 C10.496668,2.09166685 10.7399989,2.1633328 10.96,2.27 C11.1800011,2.3766672 11.3599993,2.52499905 11.5,2.715 C11.6400007,2.90500095 11.71,3.1566651 11.71,3.47 L11.71,6.16 C11.71,6.3933345 11.7233332,6.6166656 11.75,6.83 C11.7766668,7.0433344 11.823333,7.2033328 11.89,7.31 L10.45,7.31 C10.4233332,7.2299996 10.4016667,7.14833375 10.385,7.065 C10.3683332,6.98166625 10.3566667,6.8966671 10.35,6.81 C10.1233322,7.0433345 9.8566682,7.2066662 9.55,7.3 C9.2433318,7.3933338 8.9300016,7.44 8.61,7.44 C8.3633321,7.44 8.1333344,7.4100003 7.92,7.35 C7.7066656,7.2899997 7.5200008,7.1966673 7.36,7.07 C7.1999992,6.9433327 7.07500045,6.7833343 6.985,6.59 C6.89499955,6.3966657 6.85,6.166668 6.85,5.9 C6.85,5.6066652 6.90166615,5.36500095 7.005,5.175 C7.10833385,4.98499905 7.24166585,4.8333339 7.405,4.72 C7.56833415,4.6066661 7.75499895,4.52166695 7.965,4.465 C8.17500105,4.40833305 8.3866656,4.3633335 8.6,4.33 L8.91750001,4.28499998 L8.91750001,4.28499998 L9.23,4.25 C9.4366677,4.2299999 9.6199992,4.2000002 9.78,4.16 C9.9400008,4.1199998 10.0666662,4.06166705 10.16,3.985 C10.2533338,3.90833295 10.2966667,3.7966674 10.29,3.65 C10.29,3.4966659 10.2650002,3.37500045 10.215,3.285 C10.1649997,3.19499955 10.0983337,3.12500025 10.015,3.075 C9.93166625,3.02499975 9.83500055,2.99166675 9.725,2.975 C9.61499945,2.95833325 9.4966673,2.95 9.37,2.95 C9.0899986,2.95 8.8700008,3.0099994 8.71,3.13 C8.5499992,3.2500006 8.4566668,3.4499986 8.43,3.73 L7.01,3.73 Z M10.29,4.78 C10.2299997,4.8333336 10.1550004,4.87499985 10.065,4.905 C9.97499955,4.93500015 9.87833385,4.9599999 9.775,4.98 L9.61625002,5.00750001 L9.61625002,5.00750001 L9.45,5.03 C9.3366661,5.0433334 9.2233339,5.0599999 9.11,5.08 C9.0033328,5.1000001 8.89833385,5.1266665 8.795,5.16 C8.69166615,5.1933335 8.60166705,5.23833305 8.525,5.295 C8.44833295,5.35166695 8.3866669,5.4233329 8.34,5.51 C8.2933331,5.5966671 8.27,5.706666 8.27,5.84 C8.27,5.9666673 8.2933331,6.0733329 8.34,6.16 C8.3866669,6.2466671 8.4499996,6.31499975 8.53,6.365 C8.6100004,6.41500025 8.7033328,6.4499999 8.81,6.47 C8.9166672,6.4900001 9.0266661,6.5 9.14,6.5 C9.4200014,6.5 9.6366659,6.4533338 9.79,6.36 C9.9433341,6.2666662 10.0566663,6.15500065 10.13,6.025 C10.2033337,5.89499935 10.2483332,5.763334 10.265,5.63 L10.2872222,5.39888892 C10.2890741,5.3662964 10.29,5.3366668 10.29,5.31 L10.29,4.78 Z M17.66,7.31 L17.66,2.14 L16.24,2.14 L16.24,4.85 C16.24,5.3766693 16.1533342,5.75499885 15.98,5.985 C15.8066658,6.21500115 15.5266686,6.33 15.14,6.33 C14.7999983,6.33 14.563334,6.22500105 14.43,6.015 C14.296666,5.80499895 14.23,5.4866688 14.23,5.06 L14.23,2.14 L12.81,2.14 L12.81,5.32 C12.81,5.64 12.838333,5.93166535 12.895,6.195 C12.9516669,6.45833465 13.0499993,6.68166575 13.19,6.865 C13.3300007,7.04833425 13.5216654,7.1899995 13.765,7.29 C14.0083345,7.3900005 14.3199981,7.44 14.7,7.44 C15.0000015,7.44 15.2933319,7.373334 15.58,7.24 C15.8666681,7.106666 16.0999991,6.8900015 16.28,6.59 L16.31,6.59 L16.31,7.31 L17.66,7.31 Z M20.54,2.14 L20.54,0.59 L19.12,0.59 L19.12,2.14 L18.26,2.14 L18.26,3.09 L19.12,3.09 L19.12,6.14 C19.12,6.4000013 19.1633329,6.6099992 19.25,6.77 C19.3366671,6.9300008 19.4549992,7.0533329 19.605,7.14 C19.7550007,7.2266671 19.9283323,7.28499985 20.125,7.315 C20.3216676,7.34500015 20.5299989,7.36 20.75,7.36 C20.8900007,7.36 21.0333326,7.3566667 21.18,7.35 C21.3266674,7.3433333 21.4599994,7.3300001 21.58,7.31 L21.58,6.21 C21.513333,6.2233334 21.4433337,6.2333333 21.37,6.24 C21.2966663,6.2466667 21.2200004,6.25 21.14,6.25 C20.8999988,6.25 20.7400004,6.2100004 20.66,6.13 C20.5799996,6.0499996 20.54,5.8900012 20.54,5.65 L20.54,3.09 L21.58,3.09 L21.58,2.14 L20.54,2.14 Z M25.74,4.17 L23.43,4.17 C23.4366667,4.07 23.4583331,3.9566673 23.495,3.83 C23.5316668,3.7033327 23.5949995,3.5833339 23.685,3.47 C23.7750004,3.3566661 23.8949992,3.26166705 24.045,3.185 C24.1950007,3.10833295 24.3833322,3.07 24.61,3.07 C24.9566684,3.07 25.2149991,3.1633324 25.385,3.35 C25.5550008,3.5366676 25.673333,3.8099982 25.74,4.17 Z M23.43,5.07 L27.16,5.07 C27.1866668,4.669998 27.1533338,4.2866685 27.06,3.92 C26.9666662,3.5533315 26.815001,3.2266681 26.605,2.94 C26.3949989,2.6533319 26.1266683,2.42500085 25.8,2.255 C25.4733317,2.08499915 25.0900022,2 24.65,2 C24.2566647,2 23.8983349,2.0699993 23.575,2.21 C23.251665,2.3500007 22.9733345,2.54166545 22.74,2.785 C22.5066655,3.02833455 22.3266673,3.316665 22.2,3.65 C22.0733327,3.983335 22.01,4.3433314 22.01,4.73 C22.01,5.130002 22.071666,5.496665 22.195,5.83 C22.3183339,6.163335 22.4933322,6.4499988 22.72,6.69 C22.9466678,6.9300012 23.2233317,7.11499935 23.55,7.245 C23.8766683,7.37500065 24.2433313,7.44 24.65,7.44 C25.2366696,7.44 25.7366646,7.306668 26.15,7.04 C26.5633354,6.773332 26.869999,6.3300031 27.07,5.71 L25.82,5.71 C25.7733331,5.8700008 25.6466677,6.02166595 25.44,6.165 C25.2333323,6.30833405 24.9866681,6.38 24.7,6.38 C24.299998,6.38 23.9933344,6.2766677 23.78,6.07 C23.5666656,5.8633323 23.4500001,5.5300023 23.43,5.07 Z M28,2.14 L28,7.31 L29.42,7.31 L29.42,4.6 C29.42,4.0733307 29.5066658,3.69500115 29.68,3.465 C29.8533342,3.23499885 30.1333314,3.12 30.52,3.12 C30.8600017,3.12 31.096666,3.22499895 31.23,3.435 C31.363334,3.64500105 31.43,3.9633312 31.43,4.39 L31.43,7.31 L32.85,7.31 L32.85,4.13 C32.85,3.8099984 32.8216669,3.51833465 32.765,3.255 C32.708333,2.99166535 32.6100007,2.76833425 32.47,2.585 C32.3299993,2.40166575 32.1383345,2.25833385 31.895,2.155 C31.6516654,2.05166615 31.3400019,2 30.96,2 C30.6599985,2 30.3666681,2.06833265 30.08,2.205 C29.7933319,2.34166735 29.5600009,2.5599985 29.38,2.86 L29.35,2.86 L29.35,2.14 L28,2.14 Z M35.48,1.34 L35.48,0.17 L34.06,0.17 L34.06,1.34 L35.48,1.34 Z M33.21,7.91 L33.21,9.08 C33.343334,9.1066668 33.4933325,9.12 33.66,9.12 C34.0200018,9.12 34.3166655,9.08833365 34.55,9.025 C34.7833345,8.96166635 34.9683326,8.86500065 35.105,8.735 C35.2416673,8.60499935 35.338333,8.4433343 35.395,8.25 C35.4516669,8.0566657 35.48,7.826668 35.48,7.56 L35.48,2.14 L34.06,2.14 L34.06,7.49 C34.06,7.6833343 34.0050005,7.80833305 33.895,7.865 C33.7849994,7.92166695 33.6566674,7.95 33.51,7.95 C33.3833327,7.95 33.2833337,7.9366668 33.21,7.91 Z M36.65,3.73 C36.6700001,3.396665 36.7533326,3.1200011 36.9,2.9 C37.0466674,2.6799989 37.2333322,2.503334 37.46,2.37 C37.6866678,2.236666 37.9416652,2.14166695 38.225,2.085 C38.5083347,2.02833305 38.7933319,2 39.08,2 C39.3400013,2 39.603332,2.01833315 39.87,2.055 C40.136668,2.09166685 40.3799989,2.1633328 40.6,2.27 C40.8200011,2.3766672 40.9999993,2.52499905 41.14,2.715 C41.2800007,2.90500095 41.35,3.1566651 41.35,3.47 L41.35,6.16 C41.35,6.3933345 41.3633332,6.6166656 41.39,6.83 C41.4166668,7.0433344 41.463333,7.2033328 41.53,7.31 L40.09,7.31 C40.0633332,7.2299996 40.0416667,7.14833375 40.025,7.065 C40.0083332,6.98166625 39.9966667,6.8966671 39.99,6.81 C39.7633322,7.0433345 39.4966682,7.2066662 39.19,7.3 C38.8833318,7.3933338 38.5700016,7.44 38.25,7.44 C38.0033321,7.44 37.7733344,7.4100003 37.56,7.35 C37.3466656,7.2899997 37.1600008,7.1966673 37,7.07 C36.8399992,6.9433327 36.7150004,6.7833343 36.625,6.59 C36.5349995,6.3966657 36.49,6.166668 36.49,5.9 C36.49,5.6066652 36.5416661,5.36500095 36.645,5.175 C36.7483338,4.98499905 36.8816658,4.8333339 37.045,4.72 C37.2083341,4.6066661 37.3949989,4.52166695 37.605,4.465 C37.815001,4.40833305 38.0266656,4.3633335 38.24,4.33 C38.4533344,4.2966665 38.6633323,4.2700001 38.87,4.25 C39.0766677,4.2299999 39.2599992,4.2000002 39.42,4.16 C39.5800008,4.1199998 39.7066662,4.06166705 39.8,3.985 C39.8933338,3.90833295 39.9366667,3.7966674 39.93,3.65 C39.93,3.4966659 39.9050002,3.37500045 39.855,3.285 C39.8049997,3.19499955 39.7383337,3.12500025 39.655,3.075 C39.5716662,3.02499975 39.4750005,2.99166675 39.365,2.975 C39.2549994,2.95833325 39.1366673,2.95 39.01,2.95 C38.7299986,2.95 38.5100008,3.0099994 38.35,3.13 C38.1899992,3.2500006 38.0966668,3.4499986 38.07,3.73 L36.65,3.73 Z M39.93,4.78 C39.8699997,4.8333336 39.7950004,4.87499985 39.705,4.905 C39.6149995,4.93500015 39.5183338,4.9599999 39.415,4.98 L39.25625,5.00750001 L39.25625,5.00750001 L39.09,5.03 C38.9766661,5.0433334 38.8633339,5.0599999 38.75,5.08 C38.6433328,5.1000001 38.5383338,5.1266665 38.435,5.16 C38.3316661,5.1933335 38.241667,5.23833305 38.165,5.295 C38.0883329,5.35166695 38.0266669,5.4233329 37.98,5.51 C37.9333331,5.5966671 37.91,5.706666 37.91,5.84 C37.91,5.9666673 37.9333331,6.0733329 37.98,6.16 C38.0266669,6.2466671 38.0899996,6.31499975 38.17,6.365 C38.2500004,6.41500025 38.3433328,6.4499999 38.45,6.47 C38.5566672,6.4900001 38.6666661,6.5 38.78,6.5 C39.0600014,6.5 39.2766659,6.4533338 39.43,6.36 C39.5833341,6.2666662 39.6966663,6.15500065 39.77,6.025 C39.8433337,5.89499935 39.8883332,5.763334 39.905,5.63 L39.9272222,5.39888892 C39.9290741,5.3662964 39.93,5.3366668 39.93,5.31 L39.93,4.78 Z M44.17,5.99 L44.17,1.49 L45.29,1.49 C45.6766686,1.49 46.0016653,1.54499945 46.265,1.655 C46.5283346,1.76500055 46.7399992,1.9233323 46.9,2.13 C47.0600008,2.3366677 47.1749996,2.58499855 47.245,2.875 C47.3150003,3.16500145 47.35,3.49 47.35,3.85 C47.35,4.2433353 47.3000005,4.5766653 47.2,4.85 C47.0999995,5.1233347 46.9666675,5.34499915 46.8,5.515 C46.6333325,5.68500085 46.4433344,5.8066663 46.23,5.88 C46.0166656,5.9533337 45.7966678,5.99 45.57,5.99 L44.17,5.99 Z M42.6,0.17 L42.6,7.31 L45.68,7.31 C46.2266694,7.31 46.7016646,7.21833425 47.105,7.035 C47.5083353,6.85166575 47.8449986,6.6000016 48.115,6.28 C48.3850013,5.9599984 48.586666,5.5800022 48.72,5.14 C48.853334,4.6999978 48.92,4.2200026 48.92,3.7 C48.92,3.1066637 48.8383341,2.5900022 48.675,2.15 C48.5116658,1.7099978 48.2850014,1.3433348 47.995,1.05 C47.7049985,0.7566652 47.3616686,0.5366674 46.965,0.39 C46.5683313,0.2433326 46.1400023,0.17 45.68,0.17 L42.6,0.17 Z M51.08,4.94 L49.56,4.94 C49.5533333,5.3800022 49.6333325,5.7599984 49.8,6.08 C49.9666675,6.4000016 50.1916652,6.6633323 50.475,6.87 C50.7583347,7.0766677 51.0849981,7.22833285 51.455,7.325 C51.8250018,7.42166715 52.2066647,7.47 52.6,7.47 C53.0866691,7.47 53.5149981,7.4133339 53.885,7.3 C54.2550018,7.1866661 54.5649987,7.02833435 54.815,6.825 C55.0650012,6.62166565 55.2533327,6.3800014 55.38,6.1 C55.5066673,5.8199986 55.57,5.5166683 55.57,5.19 C55.57,4.789998 55.4850008,4.46166795 55.315,4.205 C55.1449991,3.94833205 54.9433345,3.7433341 54.71,3.59 C54.4766655,3.4366659 54.2416678,3.32500035 54.005,3.255 L53.7457997,3.18139989 C53.6285999,3.14979994 53.5300004,3.12600008 53.45,3.11 L52.365,2.83 L52.365,2.83 C52.088332,2.7566663 51.8716674,2.6833337 51.715,2.61 C51.5583325,2.5366663 51.4533336,2.4566671 51.4,2.37 C51.3466664,2.2833329 51.32,2.1700007 51.32,2.03 C51.32,1.8766659 51.353333,1.7500005 51.42,1.65 C51.486667,1.5499995 51.5716662,1.466667 51.675,1.4 C51.7783338,1.333333 51.8933327,1.2866668 52.02,1.26 C52.1466673,1.2333332 52.2733327,1.22 52.4,1.22 C52.5933343,1.22 52.7716658,1.2366665 52.935,1.27 C53.0983341,1.3033335 53.2433327,1.3599996 53.37,1.44 C53.4966673,1.5200004 53.5983329,1.6299993 53.675,1.77 C53.751667,1.9100007 53.7966666,2.0866656 53.81,2.3 L55.33,2.3 C55.33,1.8866646 55.2516674,1.53500145 55.095,1.245 C54.9383325,0.95499855 54.726668,0.7166676 54.46,0.53 C54.193332,0.3433324 53.888335,0.20833375 53.545,0.125 C53.2016649,0.04166625 52.8433352,0 52.47,0 C52.1499984,0 51.8300016,0.0433329 51.51,0.13 C51.1899984,0.2166671 50.9033346,0.3499991 50.65,0.53 C50.3966654,0.7100009 50.1916674,0.93499865 50.035,1.205 C49.8783325,1.47500135 49.8,1.7933315 49.8,2.16 C49.8,2.4866683 49.861666,2.76499885 49.985,2.995 C50.1083339,3.22500115 50.269999,3.4166659 50.47,3.57 C50.670001,3.7233341 50.8966654,3.84833285 51.15,3.945 C51.3188897,4.00944477 51.4907407,4.06722229 51.6655552,4.11833329 L51.93,4.19 C52.1900013,4.2633337 52.4466654,4.3299997 52.7,4.39 C52.9533346,4.4500003 53.179999,4.5199996 53.38,4.6 C53.580001,4.6800004 53.741666,4.7799994 53.865,4.9 C53.9883339,5.0200006 54.05,5.1766657 54.05,5.37 C54.05,5.5500009 54.0033338,5.69833275 53.91,5.815 C53.8166662,5.93166725 53.7000007,6.023333 53.56,6.09 C53.4199993,6.156667 53.2700008,6.20166655 53.11,6.225 C52.9499992,6.24833345 52.8000007,6.26 52.66,6.26 C52.4533323,6.26 52.2533343,6.23500025 52.06,6.185 C51.8666657,6.13499975 51.698334,6.05833385 51.555,5.955 C51.4116659,5.85166615 51.2966671,5.7166675 51.21,5.55 C51.1233329,5.3833325 51.08,5.1800012 51.08,4.94 Z" id="KautenjaDSP" fill-rule="nonzero"></path>
                        <path d="M59.72,0.17 C60.1666689,0.17 60.5466651,0.23499935 60.86,0.365 C61.1733349,0.49500065 61.4283323,0.6666656 61.625,0.88 C61.8216676,1.0933344 61.9649995,1.3366653 62.055,1.61 C62.1450004,1.8833347 62.19,2.1666652 62.19,2.46 C62.19,2.7466681 62.1450004,3.02833195 62.055,3.305 C61.9649995,3.58166805 61.8216676,3.8266656 61.625,4.04 C61.4283323,4.2533344 61.1733349,4.42499935 60.86,4.555 C60.5466651,4.68500065 60.1666689,4.75 59.72,4.75 L58.07,4.75 L58.07,7.31 L56.5,7.31 L56.5,0.17 L59.72,0.17 Z M59.29,1.39 L58.07,1.39 L58.07,3.53 L59.29,3.53 C59.4700009,3.53 59.6433325,3.5166668 59.81,3.49 C59.9766675,3.4633332 60.1233327,3.41166705 60.25,3.335 C60.3766673,3.25833295 60.478333,3.1500007 60.555,3.01 C60.631667,2.8699993 60.67,2.6866678 60.67,2.46 C60.67,2.2333322 60.631667,2.0500007 60.555,1.91 C60.478333,1.7699993 60.3766673,1.66166705 60.25,1.585 C60.1233327,1.50833295 59.9766675,1.4566668 59.81,1.43 C59.6433325,1.4033332 59.4700009,1.39 59.29,1.39 L59.29,1.39 Z" id="Combined-Shape" fill-rule="nonzero"></path>
                    </g>
                </g>
                <path d="M16.717,1.264 L16.717,0.4 L7.843,0.4 L7.843,13 L8.779,13 L8.779,7.294 L15.907,7.294 L15.907,6.43 L8.779,6.43 L8.779,1.264 L16.717,1.264 Z M31.531,13 L31.531,0.4 L30.649,0.4 L25.591,7.852 L20.533,0.4 L19.651,0.4 L19.651,13 L20.551,13 L20.551,2.056 L25.537,9.31 L25.609,9.31 L30.595,2.056 L30.595,13 L31.531,13 Z M44.329,13 L44.329,12.136 L36.211,12.136 L36.211,7.078 L43.429,7.078 L43.429,6.214 L36.211,6.214 L36.211,1.264 L44.239,1.264 L44.239,0.4 L35.275,0.4 L35.275,13 L44.329,13 Z M46.687,1.3 L46.687,0.4 L55.039,0.4 L55.039,1.084 L49.297,13 L48.271,13 L53.995,1.3 L46.687,1.3 Z" id="FME7" fill="#B3B3B3" fill-rule="nonzero"></path>
            </g>
        </g>
        <g id="tone3" transform="translate(13.000000, 245.000000)">
            <rect id="bg" fill="#A2A0A5" x="0" y="-2.84217094e-14" width="184" height="107" rx="5"></rect>
            <g id="Header" transform="translate(2.000000, 8.000000)" fill="#F0433F" fill-rule="nonzero">
                <path d="M0.69140625,0.646484375 L42.1953125,0.646484375 L42.1953125,8.94726562 L25.59375,8.94726562 L25.59375,38 L17.2929688,38 L17.2929688,8.94726562 L0.69140625,8.94726562 L0.69140625,0.646484375 Z M58.796875,38 C50.4960522,38 46.3457031,33.8496509 46.3457031,25.5488281 L46.3457031,13.0976562 C46.3457031,4.7968335 50.4960522,0.646484375 58.796875,0.646484375 L75.3984375,0.646484375 C83.6992603,0.646484375 87.8496094,4.7968335 87.8496094,13.0976562 L87.8496094,25.5488281 C87.8496094,33.8496509 84.3909851,38 77.4736328,38 L58.796875,38 Z M54.6464844,25.5488281 C54.6464844,28.315769 56.0299341,29.6992188 58.796875,29.6992188 L75.3984375,29.6992188 C78.1653784,29.6992188 79.5488281,28.315769 79.5488281,25.5488281 L79.5488281,13.0976562 C79.5488281,10.3307153 78.1653784,8.94726562 75.3984375,8.94726562 L58.796875,8.94726562 C56.0299341,8.94726562 54.6464844,10.3307153 54.6464844,13.0976562 L54.6464844,25.5488281 Z M92,38 L92,0.646484375 L121.052734,0.646484375 C129.353557,0.646484375 133.503906,4.7968335 133.503906,13.0976562 L133.503906,38 L125.203125,38 L125.203125,13.0976562 C125.203125,10.3307153 123.819675,8.94726562 121.052734,8.94726562 L100.300781,8.94726562 L100.300781,38 L92,38 Z M179.158203,38 L150.105469,38 C141.804646,38 137.654297,33.8496509 137.654297,25.5488281 L137.654297,0.646484375 L179.158203,0.646484375 L179.158203,8.94726562 L145.955078,8.94726562 L145.955078,15.1728516 L179.158203,15.1728516 L179.158203,23.4736328 L145.955078,23.4736328 L145.955078,25.5488281 C145.955078,28.315769 147.338528,29.6992188 150.105469,29.6992188 L179.158203,29.6992188 L179.158203,38 Z" id="TONE"></path>
            </g>
            <g id="Out" transform="translate(124.000000, 74.000000)">
                <rect id="bg" fill="#1A1A1A" x="0" y="0" width="40" height="29" rx="5"></rect>
                <path d="M7.03369141,9.35546875 C7.39111507,9.35546875 7.67480364,9.22363413 7.88476562,8.95996094 C8.09472761,8.69628774 8.19970703,8.32129149 8.19970703,7.83496094 C8.19970703,7.35058352 8.09472761,6.97607554 7.88476562,6.71142578 C7.67480364,6.44677602 7.39111507,6.31445312 7.03369141,6.31445312 C6.67626774,6.31445312 6.39111435,6.44628774 6.17822266,6.70996094 C5.96533097,6.97363413 5.85888672,7.34863038 5.85888672,7.83496094 C5.85888672,8.32129149 5.96533097,8.69628774 6.17822266,8.95996094 C6.39111435,9.22363413 6.67626774,9.35546875 7.03369141,9.35546875 Z M9.10205078,7.83496094 C9.10205078,8.61035544 8.88427952,9.2040995 8.44873047,9.61621094 C8.12255696,9.95215012 7.65088199,10.1201172 7.03369141,10.1201172 C6.41650082,10.1201172 5.94482585,9.95215012 5.61865234,9.61621094 C5.18115016,9.2040995 4.96240234,8.61035544 4.96240234,7.83496094 C4.96240234,7.04394136 5.18115016,6.45019729 5.61865234,6.05371094 C5.94482585,5.71777176 6.41650082,5.54980469 7.03369141,5.54980469 C7.65088199,5.54980469 8.12255696,5.71777176 8.44873047,6.05371094 C8.88427952,6.45019729 9.10205078,7.04394136 9.10205078,7.83496094 Z M5.29052734,12.6816406 L6.20751953,12.6816406 L6.20751953,15.3359375 C6.20751953,15.632814 6.24267543,15.8496087 6.31298828,15.9863281 C6.42236383,16.2285168 6.6606427,16.3496094 7.02783203,16.3496094 C7.39306823,16.3496094 7.63037055,16.2285168 7.73974609,15.9863281 C7.81005895,15.8496087 7.84521484,15.632814 7.84521484,15.3359375 L7.84521484,12.6816406 L8.76220703,12.6816406 L8.76220703,15.3359375 C8.76220703,15.7949242 8.69091868,16.1523425 8.54833984,16.4082031 C8.28271352,16.8769555 7.77588265,17.1113281 7.02783203,17.1113281 C6.27978142,17.1113281 5.77197399,16.8769555 5.50439453,16.4082031 C5.36181569,16.1523425 5.29052734,15.7949242 5.29052734,15.3359375 L5.29052734,12.6816406 Z M8.76220703,19.6816406 L8.76220703,20.4462891 L7.47021484,20.4462891 L7.47021484,24 L6.56201172,24 L6.56201172,20.4462891 L5.26416016,20.4462891 L5.26416016,19.6816406 L8.76220703,19.6816406 Z" id="OUT" fill="#F0433F" fill-rule="nonzero"></path>
            </g>
            <g id="Level" transform="translate(145.000000, 4.000000)" fill="#1A1A1A" fill-rule="nonzero">
                <path d="M4.109,5 L4.109,4.02 L1.666,4.02 L1.666,0.1 L0.588,0.1 L0.588,5 L4.109,5 Z M8.652,5 L8.652,4.041 L5.992,4.041 L5.992,3.012 L8.302,3.012 L8.302,2.053 L5.992,2.053 L5.992,1.059 L8.617,1.059 L8.617,0.1 L4.921,0.1 L4.921,5 L8.652,5 Z M14.105,0.1 L12.943,0.1 L11.662,3.551 L10.381,0.1 L9.191,0.1 L11.172,5.035 L12.124,5.035 L14.105,0.1 Z M18.592,5 L18.592,4.041 L15.932,4.041 L15.932,3.012 L18.242,3.012 L18.242,2.053 L15.932,2.053 L15.932,1.059 L18.557,1.059 L18.557,0.1 L14.861,0.1 L14.861,5 L18.592,5 Z M23.072,5 L19.551,5 L19.551,0.1 L20.629,0.1 L20.629,4.02 L23.072,4.02 L23.072,5 Z" id="LEVEL"></path>
            </g>
            <g id="VOCT" transform="translate(7.000000, 65.000000)" fill="#1A1A1A" fill-rule="nonzero">
                <path d="M3.78808594,0.961914062 L4.88183594,0.961914062 L3.16259766,6 L2.16796875,6 L0.465820312,0.961914062 L1.59033203,0.961914062 L2.68408203,4.78662109 L3.78808594,0.961914062 Z M6.54296875,0.808105469 L7.35302734,0.808105469 L5.39453125,6 L4.59130859,6 L6.54296875,0.808105469 Z M9.68066406,5.24804688 C10.0976583,5.24804688 10.4286283,5.09423982 10.673584,4.78662109 C10.9185396,4.47900237 11.0410156,4.04150674 11.0410156,3.47412109 C11.0410156,2.9090141 10.9185396,2.47208813 10.673584,2.16333008 C10.4286283,1.85457202 10.0976583,1.70019531 9.68066406,1.70019531 C9.26366979,1.70019531 8.93099083,1.85400237 8.68261719,2.16162109 C8.43424355,2.46923982 8.31005859,2.90673544 8.31005859,3.47412109 C8.31005859,4.04150674 8.43424355,4.47900237 8.68261719,4.78662109 C8.93099083,5.09423982 9.26366979,5.24804688 9.68066406,5.24804688 Z M12.09375,3.47412109 C12.09375,4.37874801 11.8396835,5.07144942 11.331543,5.55224609 C10.9510072,5.94417514 10.4007197,6.14013672 9.68066406,6.14013672 C8.96060838,6.14013672 8.41032091,5.94417514 8.02978516,5.55224609 C7.51936594,5.07144942 7.26416016,4.37874801 7.26416016,3.47412109 C7.26416016,2.55126492 7.51936594,1.85856351 8.02978516,1.39599609 C8.41032091,1.00406705 8.96060838,0.808105469 9.68066406,0.808105469 C10.4007197,0.808105469 10.9510072,1.00406705 11.331543,1.39599609 C11.8396835,1.85856351 12.09375,2.55126492 12.09375,3.47412109 Z M12.6782227,3.52197266 C12.6782227,2.64241097 12.9140601,1.96452061 13.3857422,1.48828125 C13.7959005,1.07356563 14.3177052,0.866210938 14.9511719,0.866210938 C15.7988324,0.866210938 16.4186178,1.14420295 16.8105469,1.70019531 C17.0270193,2.01237135 17.1432291,2.32568202 17.1591797,2.64013672 L16.1064453,2.64013672 C16.0380856,2.39859905 15.9503586,2.21630921 15.8432617,2.09326172 C15.6518545,1.87451062 15.3681659,1.76513672 14.9921875,1.76513672 C14.6093731,1.76513672 14.3074555,1.91951343 14.0864258,2.22827148 C13.865396,2.53702954 13.7548828,2.97395551 13.7548828,3.5390625 C13.7548828,4.10416949 13.8716622,4.52742372 14.1052246,4.80883789 C14.338787,5.09025206 14.6355776,5.23095703 14.9956055,5.23095703 C15.3647479,5.23095703 15.6461579,5.11019001 15.8398438,4.86865234 C15.9469406,4.73876888 16.0358069,4.54394661 16.1064453,4.28417969 L17.1489258,4.28417969 C17.0577795,4.83333608 16.8247903,5.2799462 16.4499512,5.62402344 C16.0751121,5.96810068 15.5948923,6.14013672 15.0092773,6.14013672 C14.2846643,6.14013672 13.7150086,5.90771717 13.300293,5.44287109 C12.8855774,4.97574636 12.6782227,4.33545329 12.6782227,3.52197266 Z M21.612793,0.961914062 L21.612793,1.85400391 L20.1054688,1.85400391 L20.1054688,6 L19.0458984,6 L19.0458984,1.85400391 L17.5317383,1.85400391 L17.5317383,0.961914062 L21.612793,0.961914062 Z" id="V/OCT"></path>
            </g>
            <g id="Mod" transform="translate(8.000000, 32.000000)" fill="#1A1A1A" fill-rule="nonzero">
                <path d="M5.738,5 L5.738,0.1 L4.576,0.1 L3.288,2.172 L2,0.1 L0.838,0.1 L0.838,5 L1.895,5 L1.895,1.822 L3.26,3.894 L3.288,3.894 L4.667,1.801 L4.667,5 L5.738,5 Z M11.905,2.55 L11.905,2.536 C11.905,1.143 10.82,0.016 9.308,0.016 C7.85415385,0.016 6.78214941,1.07091864 6.70183819,2.39043815 L6.697,2.564 C6.697,3.957 7.782,5.084 9.294,5.084 C10.806,5.084 11.905,3.943 11.905,2.55 Z M10.778,2.564 C10.778,3.404 10.176,4.09 9.308,4.09 C8.48822222,4.09 7.89322222,3.46561728 7.82964129,2.68860768 L7.824,2.536 C7.824,1.696 8.426,1.01 9.294,1.01 C10.1137778,1.01 10.7087778,1.63438272 10.7723587,2.41139232 L10.778,2.564 Z M17.379,2.55 L17.379,2.536 C17.379,1.157 16.315,0.1 14.775,0.1 L12.864,0.1 L12.864,5 L14.775,5 C16.315,5 17.379,3.929 17.379,2.55 Z M16.252,2.564 C16.252,3.432 15.657,4.027 14.775,4.027 L13.942,4.027 L13.942,1.073 L14.775,1.073 C15.6051176,1.073 16.1810069,1.61246021 16.2458862,2.39958335 L16.252,2.564 Z" id="MOD"></path>
            </g>
        </g>
        <g id="tone2" transform="translate(13.000000, 134.000000)">
            <rect id="bg" fill="#A2A0A5" x="0" y="0" width="184" height="107" rx="5"></rect>
            <g id="Header" transform="translate(2.000000, 8.000000)" fill="#F0433F" fill-rule="nonzero">
                <path d="M0.69140625,0.646484375 L42.1953125,0.646484375 L42.1953125,8.94726562 L25.59375,8.94726562 L25.59375,38 L17.2929688,38 L17.2929688,8.94726562 L0.69140625,8.94726562 L0.69140625,0.646484375 Z M58.796875,38 C50.4960522,38 46.3457031,33.8496509 46.3457031,25.5488281 L46.3457031,13.0976562 C46.3457031,4.7968335 50.4960522,0.646484375 58.796875,0.646484375 L75.3984375,0.646484375 C83.6992603,0.646484375 87.8496094,4.7968335 87.8496094,13.0976562 L87.8496094,25.5488281 C87.8496094,33.8496509 84.3909851,38 77.4736328,38 L58.796875,38 Z M54.6464844,25.5488281 C54.6464844,28.315769 56.0299341,29.6992188 58.796875,29.6992188 L75.3984375,29.6992188 C78.1653784,29.6992188 79.5488281,28.315769 79.5488281,25.5488281 L79.5488281,13.0976562 C79.5488281,10.3307153 78.1653784,8.94726562 75.3984375,8.94726562 L58.796875,8.94726562 C56.0299341,8.94726562 54.6464844,10.3307153 54.6464844,13.0976562 L54.6464844,25.5488281 Z M92,38 L92,0.646484375 L121.052734,0.646484375 C129.353557,0.646484375 133.503906,4.7968335 133.503906,13.0976562 L133.503906,38 L125.203125,38 L125.203125,13.0976562 C125.203125,10.3307153 123.819675,8.94726562 121.052734,8.94726562 L100.300781,8.94726562 L100.300781,38 L92,38 Z M179.158203,38 L150.105469,38 C141.804646,38 137.654297,33.8496509 137.654297,25.5488281 L137.654297,0.646484375 L179.158203,0.646484375 L179.158203,8.94726562 L145.955078,8.94726562 L145.955078,15.1728516 L179.158203,15.1728516 L179.158203,23.4736328 L145.955078,23.4736328 L145.955078,25.5488281 C145.955078,28.315769 147.338528,29.6992188 150.105469,29.6992188 L179.158203,29.6992188 L179.158203,38 Z" id="TONE"></path>
            </g>
            <g id="Out" transform="translate(124.000000, 74.000000)">
                <rect id="bg" fill="#1A1A1A" x="0" y="0" width="40" height="29" rx="5"></rect>
                <path d="M7.03369141,9.35546875 C7.39111507,9.35546875 7.67480364,9.22363413 7.88476562,8.95996094 C8.09472761,8.69628774 8.19970703,8.32129149 8.19970703,7.83496094 C8.19970703,7.35058352 8.09472761,6.97607554 7.88476562,6.71142578 C7.67480364,6.44677602 7.39111507,6.31445312 7.03369141,6.31445312 C6.67626774,6.31445312 6.39111435,6.44628774 6.17822266,6.70996094 C5.96533097,6.97363413 5.85888672,7.34863038 5.85888672,7.83496094 C5.85888672,8.32129149 5.96533097,8.69628774 6.17822266,8.95996094 C6.39111435,9.22363413 6.67626774,9.35546875 7.03369141,9.35546875 Z M9.10205078,7.83496094 C9.10205078,8.61035544 8.88427952,9.2040995 8.44873047,9.61621094 C8.12255696,9.95215012 7.65088199,10.1201172 7.03369141,10.1201172 C6.41650082,10.1201172 5.94482585,9.95215012 5.61865234,9.61621094 C5.18115016,9.2040995 4.96240234,8.61035544 4.96240234,7.83496094 C4.96240234,7.04394136 5.18115016,6.45019729 5.61865234,6.05371094 C5.94482585,5.71777176 6.41650082,5.54980469 7.03369141,5.54980469 C7.65088199,5.54980469 8.12255696,5.71777176 8.44873047,6.05371094 C8.88427952,6.45019729 9.10205078,7.04394136 9.10205078,7.83496094 Z M5.29052734,12.6816406 L6.20751953,12.6816406 L6.20751953,15.3359375 C6.20751953,15.632814 6.24267543,15.8496087 6.31298828,15.9863281 C6.42236383,16.2285168 6.6606427,16.3496094 7.02783203,16.3496094 C7.39306823,16.3496094 7.63037055,16.2285168 7.73974609,15.9863281 C7.81005895,15.8496087 7.84521484,15.632814 7.84521484,15.3359375 L7.84521484,12.6816406 L8.76220703,12.6816406 L8.76220703,15.3359375 C8.76220703,15.7949242 8.69091868,16.1523425 8.54833984,16.4082031 C8.28271352,16.8769555 7.77588265,17.1113281 7.02783203,17.1113281 C6.27978142,17.1113281 5.77197399,16.8769555 5.50439453,16.4082031 C5.36181569,16.1523425 5.29052734,15.7949242 5.29052734,15.3359375 L5.29052734,12.6816406 Z M8.76220703,19.6816406 L8.76220703,20.4462891 L7.47021484,20.4462891 L7.47021484,24 L6.56201172,24 L6.56201172,20.4462891 L5.26416016,20.4462891 L5.26416016,19.6816406 L8.76220703,19.6816406 Z" id="OUT" fill="#F0433F" fill-rule="nonzero"></path>
            </g>
            <g id="Level" transform="translate(145.000000, 4.000000)" fill="#1A1A1A" fill-rule="nonzero">
                <path d="M4.109,5 L4.109,4.02 L1.666,4.02 L1.666,0.1 L0.588,0.1 L0.588,5 L4.109,5 Z M8.652,5 L8.652,4.041 L5.992,4.041 L5.992,3.012 L8.302,3.012 L8.302,2.053 L5.992,2.053 L5.992,1.059 L8.617,1.059 L8.617,0.1 L4.921,0.1 L4.921,5 L8.652,5 Z M14.105,0.1 L12.943,0.1 L11.662,3.551 L10.381,0.1 L9.191,0.1 L11.172,5.035 L12.124,5.035 L14.105,0.1 Z M18.592,5 L18.592,4.041 L15.932,4.041 L15.932,3.012 L18.242,3.012 L18.242,2.053 L15.932,2.053 L15.932,1.059 L18.557,1.059 L18.557,0.1 L14.861,0.1 L14.861,5 L18.592,5 Z M23.072,5 L19.551,5 L19.551,0.1 L20.629,0.1 L20.629,4.02 L23.072,4.02 L23.072,5 Z" id="LEVEL"></path>
            </g>
            <g id="VOCT" transform="translate(7.000000, 65.000000)" fill="#1A1A1A" fill-rule="nonzero">
                <path d="M3.78808594,0.961914062 L4.88183594,0.961914062 L3.16259766,6 L2.16796875,6 L0.465820312,0.961914062 L1.59033203,0.961914062 L2.68408203,4.78662109 L3.78808594,0.961914062 Z M6.54296875,0.808105469 L7.35302734,0.808105469 L5.39453125,6 L4.59130859,6 L6.54296875,0.808105469 Z M9.68066406,5.24804688 C10.0976583,5.24804688 10.4286283,5.09423982 10.673584,4.78662109 C10.9185396,4.47900237 11.0410156,4.04150674 11.0410156,3.47412109 C11.0410156,2.9090141 10.9185396,2.47208813 10.673584,2.16333008 C10.4286283,1.85457202 10.0976583,1.70019531 9.68066406,1.70019531 C9.26366979,1.70019531 8.93099083,1.85400237 8.68261719,2.16162109 C8.43424355,2.46923982 8.31005859,2.90673544 8.31005859,3.47412109 C8.31005859,4.04150674 8.43424355,4.47900237 8.68261719,4.78662109 C8.93099083,5.09423982 9.26366979,5.24804688 9.68066406,5.24804688 Z M12.09375,3.47412109 C12.09375,4.37874801 11.8396835,5.07144942 11.331543,5.55224609 C10.9510072,5.94417514 10.4007197,6.14013672 9.68066406,6.14013672 C8.96060838,6.14013672 8.41032091,5.94417514 8.02978516,5.55224609 C7.51936594,5.07144942 7.26416016,4.37874801 7.26416016,3.47412109 C7.26416016,2.55126492 7.51936594,1.85856351 8.02978516,1.39599609 C8.41032091,1.00406705 8.96060838,0.808105469 9.68066406,0.808105469 C10.4007197,0.808105469 10.9510072,1.00406705 11.331543,1.39599609 C11.8396835,1.85856351 12.09375,2.55126492 12.09375,3.47412109 Z M12.6782227,3.52197266 C12.6782227,2.64241097 12.9140601,1.96452061 13.3857422,1.48828125 C13.7959005,1.07356563 14.3177052,0.866210938 14.9511719,0.866210938 C15.7988324,0.866210938 16.4186178,1.14420295 16.8105469,1.70019531 C17.0270193,2.01237135 17.1432291,2.32568202 17.1591797,2.64013672 L16.1064453,2.64013672 C16.0380856,2.39859905 15.9503586,2.21630921 15.8432617,2.09326172 C15.6518545,1.87451062 15.3681659,1.76513672 14.9921875,1.76513672 C14.6093731,1.76513672 14.3074555,1.91951343 14.0864258,2.22827148 C13.865396,2.53702954 13.7548828,2.97395551 13.7548828,3.5390625 C13.7548828,4.10416949 13.8716622,4.52742372 14.1052246,4.80883789 C14.338787,5.09025206 14.6355776,5.23095703 14.9956055,5.23095703 C15.3647479,5.23095703 15.6461579,5.11019001 15.8398438,4.86865234 C15.9469406,4.73876888 16.0358069,4.54394661 16.1064453,4.28417969 L17.1489258,4.28417969 C17.0577795,4.83333608 16.8247903,5.2799462 16.4499512,5.62402344 C16.0751121,5.96810068 15.5948923,6.14013672 15.0092773,6.14013672 C14.2846643,6.14013672 13.7150086,5.90771717 13.300293,5.44287109 C12.8855774,4.97574636 12.6782227,4.33545329 12.6782227,3.52197266 Z M21.612793,0.961914062 L21.612793,1.85400391 L20.1054688,1.85400391 L20.1054688,6 L19.0458984,6 L19.0458984,1.85400391 L17.5317383,1.85400391 L17.5317383,0.961914062 L21.612793,0.961914062 Z" id="V/OCT"></path>
            </g>
            <g id="Mod" transform="translate(8.000000, 32.000000)" fill="#1A1A1A" fill-rule="nonzero">
                <path d="M5.738,5 L5.738,0.1 L4.576,0.1 L3.288,2.172 L2,0.1 L0.838,0.1 L0.838,5 L1.895,5 L1.895,1.822 L3.26,3.894 L3.288,3.894 L4.667,1.801 L4.667,5 L5.738,5 Z M11.905,2.55 L11.905,2.536 C11.905,1.143 10.82,0.016 9.308,0.016 C7.85415385,0.016 6.78214941,1.07091864 6.70183819,2.39043815 L6.697,2.564 C6.697,3.957 7.782,5.084 9.294,5.084 C10.806,5.084 11.905,3.943 11.905,2.55 Z M10.778,2.564 C10.778,3.404 10.176,4.09 9.308,4.09 C8.48822222,4.09 7.89322222,3.46561728 7.82964129,2.68860768 L7.824,2.536 C7.824,1.696 8.426,1.01 9.294,1.01 C10.1137778,1.01 10.7087778,1.63438272 10.7723587,2.41139232 L10.778,2.564 Z M17.379,2.55 L17.379,2.536 C17.379,1.157 16.315,0.1 14.775,0.1 L12.864,0.1 L12.864,5 L14.775,5 C16.315,5 17.379,3.929 17.379,2.55 Z M16.252,2.564 C16.252,3.432 15.657,4.027 14.775,4.027 L13.942,4.027 L13.942,1.073 L14.775,1.073 C15.6051176,1.073 16.1810069,1.61246021 16.2458862,2.39958335 L16.252,2.564 Z" id="MOD"></path>
            </g>
        </g>
        <g id="tone1" transform="translate(13.000000, 23.000000)">
            <rect id="bg" fill="#A2A0A5" x="0" y="0" width="184" height="107" rx="5"></rect>
            <g id="Header" transform="translate(2.000000, 8.000000)" fill="#F0433F" fill-rule="nonzero">
                <path d="M0.69140625,0.646484375 L42.1953125,0.646484375 L42.1953125,8.94726562 L25.59375,8.94726562 L25.59375,38 L17.2929688,38 L17.2929688,8.94726562 L0.69140625,8.94726562 L0.69140625,0.646484375 Z M58.796875,38 C50.4960522,38 46.3457031,33.8496509 46.3457031,25.5488281 L46.3457031,13.0976562 C46.3457031,4.7968335 50.4960522,0.646484375 58.796875,0.646484375 L75.3984375,0.646484375 C83.6992603,0.646484375 87.8496094,4.7968335 87.8496094,13.0976562 L87.8496094,25.5488281 C87.8496094,33.8496509 84.3909851,38 77.4736328,38 L58.796875,38 Z M54.6464844,25.5488281 C54.6464844,28.315769 56.0299341,29.6992188 58.796875,29.6992188 L75.3984375,29.6992188 C78.1653784,29.6992188 79.5488281,28.315769 79.5488281,25.5488281 L79.5488281,13.0976562 C79.5488281,10.3307153 78.1653784,8.94726562 75.3984375,8.94726562 L58.796875,8.94726562 C56.0299341,8.94726562 54.6464844,10.3307153 54.6464844,13.0976562 L54.6464844,25.5488281 Z M92,38 L92,0.646484375 L121.052734,0.646484375 C129.353557,0.646484375 133.503906,4.7968335 133.503906,13.0976562 L133.503906,38 L125.203125,38 L125.203125,13.0976562 C125.203125,10.3307153 123.819675,8.94726562 121.052734,8.94726562 L100.300781,8.94726562 L100.300781,38 L92,38 Z M179.158203,38 L150.105469,38 C141.804646,38 137.654297,33.8496509 137.654297,25.5488281 L137.654297,0.646484375 L179.158203,0.646484375 L179.158203,8.94726562 L145.955078,8.94726562 L145.955078,15.1728516 L179.158203,15.1728516 L179.158203,23.4736328 L145.955078,23.4736328 L145.955078,25.5488281 C145.955078,28.315769 147.338528,29.6992188 150.105469,29.6992188 L179.158203,29.6992188 L179.158203,38 Z" id="TONE"></path>
            </g>
            <g id="Out" transform="translate(124.000000, 74.000000)">
                <rect id="bg" fill="#1A1A1A" x="0" y="0" width="40" height="29" rx="5"></rect>
                <path d="M7.03369141,9.35546875 C7.39111507,9.35546875 7.67480364,9.22363413 7.88476562,8.95996094 C8.09472761,8.69628774 8.19970703,8.32129149 8.19970703,7.83496094 C8.19970703,7.35058352 8.09472761,6.97607554 7.88476562,6.71142578 C7.67480364,6.44677602 7.39111507,6.31445312 7.03369141,6.31445312 C6.67626774,6.31445312 6.39111435,6.44628774 6.17822266,6.70996094 C5.96533097,6.97363413 5.85888672,7.34863038 5.85888672,7.83496094 C5.85888672,8.32129149 5.96533097,8.69628774 6.17822266,8.95996094 C6.39111435,9.22363413 6.67626774,9.35546875 7.03369141,9.35546875 Z M9.10205078,7.83496094 C9.10205078,8.61035544 8.88427952,9.2040995 8.44873047,9.61621094 C8.12255696,9.95215012 7.65088199,10.1201172 7.03369141,10.1201172 C6.41650082,10.1201172 5.94482585,9.95215012 5.61865234,9.61621094 C5.18115016,9.2040995 4.96240234,8.61035544 4.96240234,7.83496094 C4.96240234,7.04394136 5.18115016,6.45019729 5.61865234,6.05371094 C5.94482585,5.71777176 6.41650082,5.54980469 7.03369141,5.54980469 C7.65088199,5.54980469 8.12255696,5.71777176 8.44873047,6.05371094 C8.88427952,6.45019729 9.10205078,7.04394136 9.10205078,7.83496094 Z M5.29052734,12.6816406 L6.20751953,12.6816406 L6.20751953,15.3359375 C6.20751953,15.632814 6.24267543,15.8496087 6.31298828,15.9863281 C6.42236383,16.2285168 6.6606427,16.3496094 7.02783203,16.3496094 C7.39306823,16.3496094 7.63037055,16.2285168 7.73974609,15.9863281 C7.81005895,15.8496087 7.84521484,15.632814 7.84521484,15.3359375 L7.84521484,12.6816406 L8.76220703,12.6816406 L8.76220703,15.3359375 C8.76220703,15.7949242 8.69091868,16.1523425 8.54833984,16.4082031 C8.28271352,16.8769555 7.77588265,17.1113281 7.02783203,17.1113281 C6.27978142,17.1113281 5.77197399,16.8769555 5.50439453,16.4082031 C5.36181569,16.1523425 5.29052734,15.7949242 5.29052734,15.3359375 L5.29052734,12.6816406 Z M8.76220703,19.6816406 L8.76220703,20.4462891 L7.47021484,20.4462891 L7.47021484,24 L6.56201172,24 L6.56201172,20.4462891 L5.26416016,20.4462891 L5.26416016,19.6816406 L8.76220703,19.6816406 Z" id="OUT" fill="#F0433F" fill-rule="nonzero"></path>
            </g>
            <g id="Level" transform="translate(145.000000, 4.000000)" fill="#1A1A1A" fill-rule="nonzero">
                <path d="M4.109,5 L4.109,4.02 L1.666,4.02 L1.666,0.1 L0.588,0.1 L0.588,5 L4.109,5 Z M8.652,5 L8.652,4.041 L5.992,4.041 L5.992,3.012 L8.302,3.012 L8.302,2.053 L5.992,2.053 L5.992,1.059 L8.617,1.059 L8.617,0.1 L4.921,0.1 L4.921,5 L8.652,5 Z M14.105,0.1 L12.943,0.1 L11.662,3.551 L10.381,0.1 L9.191,0.1 L11.172,5.035 L12.124,5.035 L14.105,0.1 Z M18.592,5 L18.592,4.041 L15.932,4.041 L15.932,3.012 L18.242,3.012 L18.242,2.053 L15.932,2.053 L15.932,1.059 L18.557,1.059 L18.557,0.1 L14.861,0.1 L14.861,5 L18.592,5 Z M23.072,5 L19.551,5 L19.551,0.1 L20.629,0.1 L20.629,4.02 L23.072,4.02 L23.072,5 Z" id="LEVEL"></path>
            </g>
            <g id="VOCT" transform="translate(7.000000, 65.000000)" fill="#1A1A1A" fill-rule="nonzero">
                <path d="M3.78808594,0.961914062 L4.88183594,0.961914062 L3.16259766,6 L2.16796875,6 L0.465820312,0.961914062 L1.59033203,0.961914062 L2.68408203,4.78662109 L3.78808594,0.961914062 Z M6.54296875,0.808105469 L7.35302734,0.808105469 L5.39453125,6 L4.59130859,6 L6.54296875,0.808105469 Z M9.68066406,5.24804688 C10.0976583,5.24804688 10.4286283,5.09423982 10.673584,4.78662109 C10.9185396,4.47900237 11.0410156,4.04150674 11.0410156,3.47412109 C11.0410156,2.9090141 10.9185396,2.47208813 10.673584,2.16333008 C10.4286283,1.85457202 10.0976583,1.70019531 9.68066406,1.70019531 C9.26366979,1.70019531 8.93099083,1.85400237 8.68261719,2.16162109 C8.43424355,2.46923982 8.31005859,2.90673544 8.31005859,3.47412109 C8.31005859,4.04150674 8.43424355,4.47900237 8.68261719,4.78662109 C8.93099083,5.09423982 9.26366979,5.24804688 9.68066406,5.24804688 Z M12.09375,3.47412109 C12.09375,4.37874801 11.8396835,5.07144942 11.331543,5.55224609 C10.9510072,5.94417514 10.4007197,6.14013672 9.68066406,6.14013672 C8.96060838,6.14013672 8.41032091,5.94417514 8.02978516,5.55224609 C7.51936594,5.07144942 7.26416016,4.37874801 7.26416016,3.47412109 C7.26416016,2.55126492 7.51936594,1.85856351 8.02978516,1.39599609 C8.41032091,1.00406705 8.96060838,0.808105469 9.68066406,0.808105469 C10.4007197,0.808105469 10.9510072,1.00406705 11.331543,1.39599609 C11.8396835,1.85856351 12.09375,2.55126492 12.09375,3.47412109 Z M12.6782227,3.52197266 C12.6782227,2.64241097 12.9140601,1.96452061 13.3857422,1.48828125 C13.7959005,1.07356563 14.3177052,0.866210938 14.9511719,0.866210938 C15.7988324,0.866210938 16.4186178,1.14420295 16.8105469,1.70019531 C17.0270193,2.01237135 17.1432291,2.32568202 17.1591797,2.64013672 L16.1064453,2.64013672 C16.0380856,2.39859905 15.9503586,2.21630921 15.8432617,2.09326172 C15.6518545,1.87451062 15.3681659,1.76513672 14.9921875,1.76513672 C14.6093731,1.76513672 14.3074555,1.91951343 14.0864258,2.22827148 C13.865396,2.53702954 13.7548828,2.97395551 13.7548828,3.5390625 C13.7548828,4.10416949 13.8716622,4.52742372 14.1052246,4.80883789 C14.338787,5.09025206 14.6355776,5.23095703 14.9956055,5.23095703 C15.3647479,5.23095703 15.6461579,5.11019001 15.8398438,4.86865234 C15.9469406,4.73876888 16.0358069,4.54394661 16.1064453,4.28417969 L17.1489258,4.28417969 C17.0577795,4.83333608 16.8247903,5.2799462 16.4499512,5.62402344 C16.0751121,5.96810068 15.5948923,6.14013672 15.0092773,6.14013672 C14.2846643,6.14013672 13.7150086,5.90771717 13.300293,5.44287109 C12.8855774,4.97574636 12.6782227,4.33545329 12.6782227,3.52197266 Z M21.612793,0.961914062 L21.612793,1.85400391 L20.1054688,1.85400391 L20.1054688,6 L19.0458984,6 L19.0458984,1.85400391 L17.5317383,1.85400391 L17.5317383,0.961914062 L21.612793,0.961914062 Z" id="V/OCT"></path>
            </g>
            <g id="Mod" transform="translate(8.000000, 32.000000)" fill="#1A1A1A" fill-rule="nonzero">
                <path d="M5.738,5 L5.738,0.1 L4.576,0.1 L3.288,2.172 L2,0.1 L0.838,0.1 L0.838,5 L1.895,5 L1.895,1.822 L3.26,3.894 L3.288,3.894 L4.667,1.801 L4.667,5 L5.738,5 Z M11.905,2.55 L11.905,2.536 C11.905,1.143 10.82,0.016 9.308,0.016 C7.85415385,0.016 6.78214941,1.07091864 6.70183819,2.39043815 L6.697,2.564 C6.697,3.957 7.782,5.084 9.294,5.084 C10.806,5.084 11.905,3.943 11.905,2.55 Z M10.778,2.564 C10.778,3.404 10.176,4.09 9.308,4.09 C8.48822222,4.09 7.89322222,3.46561728 7.82964129,2.68860768 L7.824,2.536 C7.824,1.696 8.426,1.01 9.294,1.01 C10.1137778,1.01 10.7087778,1.63438272 10.7723587,2.41139232 L10.778,2.564 Z M17.379,2.55 L17.379,2.536 C17.379,1.157 16.315,0.1 14.775,0.1 L12.864,0.1 L12.864,5 L14.775,5 C16.315,5 17.379,3.929 17.379,2.55 Z M16.252,2.564 C16.252,3.432 15.657,4.027 14.775,4.027 L13.942,4.027 L13.942,1.073 L14.775,1.073 C15.6051176,1.073 16.1810069,1.61246021 16.2458862,2.39958335 L16.252,2.564 Z" id="MOD"></path>
            </g>
        </g>
    </g>
</svg>