<?xml version="1.0" encoding="UTF-8"?>
<svg width="120px" height="380px" viewBox="0 0 120 380" version="1.1" xmlns="http://www.w3.org/2000/svg" xmlns:xlink="http://www.w3.org/1999/xlink">
    <!-- Generator: Sketch 58 (84663) - https://sketch.com -->
    <title>Gleeokillator</title>
    <desc>Created with Sketch.</desc>
    <g id="Gleeokillator" stroke="none" stroke-width="1" fill="none" fill-rule="evenodd">
        <g id="bg">
            <rect id="cover" fill="#E6E6E6" x="0" y="0" width="120" height="380" rx="2"></rect>
            <g id="Logo/Panel/LightMode" transform="translate(15.000000, 364.000000)" fill="#000000" fill-rule="nonzero">
                <g id="Logo/Print/LightMode" transform="translate(0.000000, -0.000000)">
                    <path d="M1.95775432,2.21673387 L3.38562168,2.21673387 L3.38562168,4.9702621 L6.06699634,2.21673387 L7.94254488,2.21673387 L5.09623504,4.9702621 L8.08863032,8.90322581 L6.22250665,8.90322581 L4.0783494,5.98185484 L3.38562168,6.66683468 L3.38562168,8.90322581 L1.95775432,8.90322581 L1.95775432,2.21673387 Z M11.6276679,6.49899194 C11.5428437,6.55040348 11.4572353,6.59198573 11.3708403,6.62373992 C11.2844452,6.65549411 11.1658502,6.6849797 11.0150515,6.71219758 L10.7134558,6.76663306 C10.4307084,6.8150204 10.2280757,6.87399159 10.1055519,6.94354839 C9.89820375,7.06149253 9.79453125,7.24445441 9.79453125,7.49243952 C9.79453125,7.71320675 9.85814847,7.87273136 9.98538481,7.97101815 C10.1126211,8.06930493 10.2673445,8.11844758 10.4495595,8.11844758 C10.7385902,8.11844758 11.00484,8.03679517 11.248317,7.8734879 C11.4917939,7.71018064 11.618243,7.41230055 11.6276679,6.97983871 L11.6276679,6.49899194 Z M10.8124169,5.89566532 C11.0606051,5.86542324 11.2381062,5.82762119 11.3449219,5.78225806 C11.5365618,5.70362864 11.6323803,5.58115003 11.6323803,5.41481855 C11.6323803,5.21219657 11.5593383,5.07232901 11.4132522,4.99521169 C11.267166,4.91809437 11.0527524,4.87953629 10.770005,4.87953629 C10.4526995,4.87953629 10.2280758,4.95514037 10.096127,5.10635081 C10.0018779,5.21824653 9.93904603,5.36945469 9.90762965,5.55997984 L8.61171044,5.55997984 C8.63998518,5.127518 8.76564882,4.77217881 8.98870512,4.49395161 C9.34371022,4.05846556 9.95317886,3.84072581 10.8171293,3.84072581 C11.3794825,3.84072581 11.8789955,3.9480836 12.3156832,4.16280242 C12.7523709,4.37752123 12.9707114,4.78275912 12.9707114,5.37852823 L12.9707114,7.64667339 C12.9707114,7.80393224 12.973853,7.99445453 12.9801363,8.21824597 C12.9895612,8.38760165 13.0162647,8.50251986 13.0602477,8.56300403 C13.1042306,8.62348821 13.170204,8.6733869 13.2581699,8.71270161 L13.2581699,8.90322581 L11.7973155,8.90322581 C11.7564742,8.80342692 11.7281999,8.70967786 11.7124917,8.62197581 C11.6967835,8.53427376 11.6842171,8.43447637 11.6747922,8.32258065 C11.4894356,8.51613 11.2758074,8.6809469 11.0339013,8.81703629 C10.7448706,8.97731935 10.4181451,9.05745968 10.0537151,9.05745968 C9.58875266,9.05745968 9.20469317,8.92968878 8.9015251,8.67414315 C8.59835703,8.41859751 8.44677527,8.05645396 8.44677527,7.58770161 C8.44677527,6.97983567 8.69024856,6.53981991 9.17720246,6.26764113 C9.44424169,6.1194549 9.83694056,6.01360919 10.3553108,5.95010081 L10.8124169,5.89566532 Z M15.5012882,3.95866935 L15.5012882,6.9390121 C15.5012882,7.2202635 15.5358457,7.43195493 15.6049618,7.57409274 C15.7274857,7.82510206 15.9678174,7.95060484 16.3259641,7.95060484 C16.7846433,7.95060484 17.0988023,7.7721792 17.2684508,7.41532258 C17.3564167,7.22177323 17.4003989,6.96623143 17.4003989,6.64868952 L17.4003989,3.95866935 L18.7622922,3.95866935 L18.7622922,8.90322581 L17.4569481,8.90322581 L17.4569481,8.2046371 L17.4405489,8.22641125 C17.4238355,8.24969746 17.3978858,8.28780215 17.3626995,8.34072581 C17.3124333,8.41633102 17.252743,8.48286262 17.183627,8.54032258 C16.9731372,8.7217751 16.7697192,8.8457658 16.5733669,8.91229839 C16.3770145,8.97883098 16.1468929,9.01209677 15.8829953,9.01209677 C15.1227189,9.01209677 14.6106396,8.74899457 14.346742,8.22278226 C14.199085,7.93245823 14.1252576,7.50453912 14.1252576,6.9390121 L14.1252576,3.95866935 L15.5012882,3.95866935 Z M19.5304189,4.92489919 L19.5304189,4.00403226 L20.2467088,4.00403226 L20.2467088,2.625 L21.575615,2.625 L21.575615,4.00403226 L22.4097158,4.00403226 L22.4097158,4.92489919 L21.575615,4.92489919 L21.575615,7.53780242 C21.575615,7.7404244 21.6023185,7.86668322 21.6557264,7.91658266 C21.7091342,7.9664821 21.872497,7.99143145 22.1458195,7.99143145 C22.1866608,7.99143145 22.2298577,7.99067541 22.2754114,7.98916331 C22.3209652,7.9876512 22.3657328,7.98538308 22.4097158,7.98235887 L22.4097158,8.94858871 L21.7735372,8.97127016 C21.1389263,8.99243962 20.7053868,8.88659391 20.4729056,8.65372984 C20.322107,8.50554361 20.2467088,8.27721928 20.2467088,7.96875 L20.2467088,4.92489919 L19.5304189,4.92489919 Z M25.2984375,4.89314516 C24.9874153,4.89314516 24.7462982,4.98689422 24.575079,5.17439516 C24.4038597,5.3618961 24.2962602,5.61592582 24.2522773,5.93649194 L26.3398853,5.93649194 C26.3178938,5.59475636 26.2102944,5.33543435 26.0170836,5.15851815 C25.8238729,4.98160194 25.5843266,4.89314516 25.2984375,4.89314516 Z M25.2984375,3.82711694 C25.7257003,3.82711694 26.1105452,3.9042331 26.4529837,4.05846774 C26.7954223,4.21270238 27.0781654,4.45614753 27.3012217,4.78881048 C27.5022866,5.08215872 27.6326626,5.4223771 27.6923537,5.80947581 C27.7269117,6.03629146 27.7410489,6.36290109 27.7347656,6.78931452 L24.2192902,6.78931452 C24.2381401,7.28528474 24.399932,7.63306352 24.7046709,7.83266129 C24.8900275,7.95665385 25.1130805,8.01864919 25.3738364,8.01864919 C25.6503006,8.01864919 25.8749243,7.94304511 26.0477144,7.79183468 C26.1419636,7.71018104 26.2252157,7.59677492 26.2974734,7.4516129 L27.6687916,7.4516129 C27.6342335,7.74496114 27.4755832,8.04284123 27.1928358,8.3452621 C26.7530064,8.82611128 26.1372546,9.06653226 25.3455618,9.06653226 C24.6921011,9.06653226 24.1156192,8.86391332 23.6160987,8.45866935 C23.1165783,8.05342539 22.8668218,7.39415779 22.8668218,6.48084677 C22.8668218,5.62499572 23.092231,4.96875228 23.543056,4.51209677 C23.9938811,4.05544127 24.5790024,3.82711694 25.2984375,3.82711694 Z M31.4858627,3.84072581 C32.0167995,3.84072581 32.4511245,3.97454503 32.7888506,4.2421875 C33.1265767,4.50982997 33.2954372,4.95362593 33.2954372,5.57358871 L33.2954372,8.90322581 L31.9194066,8.90322581 L31.9194066,5.89566532 C31.9194066,5.63558338 31.8832783,5.4359886 31.8110206,5.296875 C31.6790718,5.04284147 31.4277445,4.91582661 31.0570313,4.91582661 C30.6014937,4.91582661 30.2889054,5.10181266 30.119257,5.47379032 C30.0312911,5.67036389 29.9873088,5.92136944 29.9873088,6.22681452 L29.9873088,8.90322581 L28.6489777,8.90322581 L28.6489777,3.96774194 L29.9448969,3.96774194 L29.9448969,4.6890121 C30.117687,4.43497857 30.2810498,4.25201669 30.43499,4.14012097 C30.7114542,3.9405232 31.0617416,3.84072581 31.4858627,3.84072581 Z M35.9391124,3.36895161 L34.5960688,3.36895161 L34.5960688,2.17590726 L35.9391124,2.17590726 L35.9391124,3.36895161 Z M33.9504654,10.8855847 L33.9504654,9.85131048 L34.0978762,9.86197785 L34.0978762,9.86197785 L34.1106882,9.86265121 C34.1421045,9.86416331 34.1703789,9.86491935 34.195512,9.86491935 C34.3274608,9.86491935 34.4272063,9.83392168 34.4947515,9.7719254 C34.5622967,9.70992913 34.5960688,9.58971863 34.5960688,9.41129032 L34.5960688,3.98135081 L35.9391124,3.98135081 L35.9391124,9.43397177 C35.9391124,9.9329662 35.8370107,10.3019141 35.6328042,10.5408266 C35.435185,10.7720322 35.0536827,10.8913625 34.4882863,10.8988206 L34.4311336,10.8991935 C34.4077958,10.8991935 34.3780467,10.8986998 34.341886,10.8977123 L34.0479841,10.8881768 C34.0170809,10.8873128 33.9845746,10.8864487 33.9504654,10.8855847 Z M40.0483544,6.49899194 C39.9635302,6.55040348 39.8779218,6.59198573 39.7915268,6.62373992 C39.7051317,6.65549411 39.5865367,6.6849797 39.435738,6.71219758 L39.1341423,6.76663306 C38.8513949,6.8150204 38.6487622,6.87399159 38.5262384,6.94354839 C38.3188903,7.06149253 38.2152178,7.24445441 38.2152178,7.49243952 C38.2152178,7.71320675 38.278835,7.87273136 38.4060713,7.97101815 C38.5333077,8.06930493 38.688031,8.11844758 38.870246,8.11844758 C39.1592767,8.11844758 39.4255265,8.03679517 39.6690035,7.8734879 C39.9124804,7.71018064 40.0389295,7.41230055 40.0483544,6.97983871 L40.0483544,6.49899194 Z M39.2331034,5.89566532 C39.4812916,5.86542324 39.6587927,5.82762119 39.7656084,5.78225806 C39.9572483,5.70362864 40.0530668,5.58115003 40.0530668,5.41481855 C40.0530668,5.21219657 39.9800248,5.07232901 39.8339387,4.99521169 C39.6878525,4.91809437 39.4734389,4.87953629 39.1906915,4.87953629 C38.873386,4.87953629 38.6487623,4.95514037 38.5168135,5.10635081 C38.4225644,5.21824653 38.3597325,5.36945469 38.3283162,5.55997984 L37.0323969,5.55997984 C37.0606717,5.127518 37.1863353,4.77217881 37.4093916,4.49395161 C37.7643967,4.05846556 38.3738654,3.84072581 39.2378158,3.84072581 C39.800169,3.84072581 40.299682,3.9480836 40.7363697,4.16280242 C41.1730574,4.37752123 41.3913979,4.78275912 41.3913979,5.37852823 L41.3913979,7.64667339 C41.3913979,7.80393224 41.3945395,7.99445453 41.4008228,8.21824597 C41.4102477,8.38760165 41.4369512,8.50251986 41.4809342,8.56300403 C41.5249171,8.62348821 41.5908905,8.6733869 41.6788564,8.71270161 L41.6788564,8.90322581 L40.218002,8.90322581 C40.1771607,8.80342692 40.1488864,8.70967786 40.1331782,8.62197581 C40.11747,8.53427376 40.1049036,8.43447637 40.0954787,8.32258065 C39.9101221,8.51613 39.6964939,8.6809469 39.4545878,8.81703629 C39.1655571,8.97731935 38.8388316,9.05745968 38.4744016,9.05745968 C38.0094392,9.05745968 37.6253797,8.92968878 37.3222116,8.67414315 C37.0190435,8.41859751 36.8674618,8.05645396 36.8674618,7.58770161 C36.8674618,6.97983567 37.1109351,6.53981991 37.597889,6.26764113 C37.8649282,6.1194549 38.2576271,6.01360919 38.7759973,5.95010081 L39.2331034,5.89566532 Z M44.1010472,3.37802419 L44.1010472,7.74193548 L45.4393783,7.74193548 C46.1242554,7.74193548 46.6017772,7.41683793 46.8719581,6.76663306 C47.0196151,6.40977644 47.0934425,5.9848815 47.0934425,5.49193548 C47.0934425,4.81148853 46.9827014,4.28906432 46.7612159,3.92464718 C46.5397304,3.56023003 46.0991223,3.37802419 45.4393783,3.37802419 L44.1010472,3.37802419 Z M45.6844249,2.21673387 C46.1148293,2.22278229 46.4729706,2.2711689 46.7588597,2.36189516 C47.2458136,2.5161298 47.6400833,2.79888907 47.9416805,3.21018145 C48.1835866,3.54284441 48.3485202,3.90271984 48.436486,4.28981855 C48.5244519,4.67691726 48.5684342,5.04586518 48.5684342,5.39667339 C48.5684342,6.28579074 48.3830803,7.0388074 48.012367,7.65574597 C47.5097049,8.48740335 46.733732,8.90322581 45.6844249,8.90322581 L42.6920296,8.90322581 L42.6920296,2.21673387 L45.6844249,2.21673387 Z M50.7125914,6.83921371 C50.7565744,7.14465879 50.8429681,7.37298311 50.9717753,7.52419355 C51.2073981,7.79939654 51.6110926,7.93699597 52.1828707,7.93699597 C52.5253092,7.93699597 52.80334,7.90070601 53.0169714,7.828125 C53.4222427,7.6890114 53.6248753,7.43044544 53.6248753,7.05241935 C53.6248753,6.83165212 53.5243444,6.6607869 53.3232796,6.53981855 C53.132268,6.42777162 52.8377712,6.32800817 52.4397811,6.24052551 L51.6409408,6.06804435 C50.9183641,5.9107855 50.4188511,5.73992028 50.142387,5.55544355 C49.6742829,5.24697426 49.4402344,4.76462022 49.4402344,4.10836694 C49.4402344,3.50957362 49.6664289,3.01209876 50.1188248,2.61592742 C50.5712207,2.21975608 51.2356672,2.02167339 52.1121842,2.02167339 C52.8441858,2.02167339 53.468577,2.20841547 53.9853765,2.58190524 C54.502176,2.95539501 54.7731382,3.49747629 54.7982713,4.20816532 L53.403391,4.20816532 C53.3782579,3.80594557 53.1960456,3.52016214 52.8567487,3.35080645 C52.6305507,3.23891073 52.3493783,3.18296371 52.0132231,3.18296371 C51.6393681,3.18296371 51.340917,3.25554363 51.1178607,3.40070565 C50.8948044,3.54586766 50.7832779,3.7484866 50.7832779,4.00856855 C50.7832779,4.23662137 50.8834648,4.40956118 51.0838415,4.52739263 L51.1131483,4.54385081 C51.248867,4.61933505 51.5322436,4.70736003 51.9632861,4.80792817 L53.2148936,5.09727823 C53.7395472,5.21824657 54.1353876,5.38003931 54.4024269,5.58266129 C54.8171231,5.89717899 55.0244681,6.35231557 55.0244681,6.94808468 C55.0244681,7.55897483 54.7817802,8.06627822 54.2963971,8.47001008 C53.811014,8.87374194 53.1253618,9.07560484 52.2394199,9.07560484 C51.3346281,9.07560484 50.6230578,8.8767661 50.1046875,8.47908266 C49.5863172,8.08139922 49.327136,7.5347817 49.327136,6.83921371 L50.7125914,6.83921371 Z M60.0102227,4.34425403 C60.0102227,3.99647004 59.9151896,3.74848864 59.7251205,3.60030242 C59.5350514,3.45211619 59.2688016,3.37802419 58.926363,3.37802419 L57.5738946,3.37802419 L57.5738946,5.34677419 L58.926363,5.34677419 C59.2688016,5.34677419 59.5350514,5.26663387 59.7251205,5.10635081 C59.9151896,4.94606775 60.0102227,4.69203803 60.0102227,4.34425403 Z M61.447515,4.33518145 C61.447515,5.12449991 61.24017,5.68245804 60.8254737,6.00907258 C60.4107775,6.33568712 59.8185876,6.49899194 59.0488863,6.49899194 L57.5738946,6.49899194 L57.5738946,8.90322581 L56.13189,8.90322581 L56.13189,2.21673387 L59.1572723,2.21673387 C59.8547159,2.21673387 60.4107775,2.38911118 60.8254737,2.73387097 C61.24017,3.07863076 61.447515,3.61239558 61.447515,4.33518145 Z" id="KautenjaDSP"></path>
                </g>
            </g>
            <path d="M40.7519531,9.00683594 L37.8740234,9.00683594 L37.8740234,8.00195312 C37.8740234,7.36848642 37.84668,6.97200601 37.7919922,6.8125 C37.7373044,6.65299399 37.6074229,6.57324219 37.4023438,6.57324219 C37.2246085,6.57324219 37.1038415,6.64160088 37.0400391,6.77832031 C36.9833258,6.8998487 36.9518188,7.19061245 36.9455174,7.65061897 L36.9443359,13.1425781 C36.9443359,13.6393254 36.9762367,13.9663078 37.0400391,14.1235352 C37.1038415,14.2807625 37.2314444,14.359375 37.4228516,14.359375 C37.632488,14.359375 37.774902,14.2705087 37.8500977,14.0927734 C37.9158939,13.9372551 37.9529038,13.6526405 37.9611283,13.2389228 L37.9628906,11.7412109 L37.3818359,11.7412109 L37.3818359,10.0595703 L40.7519531,10.0595703 L40.7519531,16 L38.9404297,16 L38.6738281,15.2070312 C38.4778636,15.5488298 38.230633,15.8051749 37.9321289,15.9760742 C37.6336248,16.1469735 37.2815775,16.2324219 36.8759766,16.2324219 C36.3929012,16.2324219 35.9405946,16.1150728 35.519043,15.8803711 C35.0974914,15.6456694 34.7773448,15.355145 34.5585938,15.0087891 C34.3398427,14.6624332 34.2031253,14.2989928 34.1484375,13.918457 C34.1005857,13.5854882 34.0736694,13.1068522 34.067688,12.4825373 L34.0664062,8.91796875 C34.0664062,7.8606718 34.1233718,7.09277583 34.2373047,6.61425781 C34.3512375,6.13573979 34.67822,5.69710486 35.2182617,5.29833984 C35.7583035,4.89957483 36.4567014,4.70019531 37.3134766,4.70019531 C38.1565797,4.70019531 38.856117,4.87337066 39.4121094,5.21972656 C39.9681017,5.56608246 40.3304028,5.97737392 40.4990234,6.45361328 C40.6676441,6.92985264 40.7519531,7.62141474 40.7519531,8.52832031 L40.7519531,9.00683594 Z M44.7441406,4.93261719 L44.7441406,13.7851562 L46.4941406,13.7851562 L46.4941406,16 L41.8662109,16 L41.8662109,4.93261719 L44.7441406,4.93261719 Z M47.1914062,4.93261719 L51.9902344,4.93261719 L51.9902344,7.14746094 L50.0693359,7.14746094 L50.0693359,9.24609375 L51.8671875,9.24609375 L51.8671875,11.3515625 L50.0693359,11.3515625 L50.0693359,13.7851562 L52.1816406,13.7851562 L52.1816406,16 L47.1914062,16 L47.1914062,4.93261719 Z M53.0087891,4.93261719 L57.8076172,4.93261719 L57.8076172,7.14746094 L55.8867188,7.14746094 L55.8867188,9.24609375 L57.6845703,9.24609375 L57.6845703,11.3515625 L55.8867188,11.3515625 L55.8867188,13.7851562 L57.9990234,13.7851562 L57.9990234,16 L53.0087891,16 L53.0087891,4.93261719 Z M65.4023438,9.51953125 L65.4023438,11.4130859 L65.4001601,11.9420184 C65.3928811,12.7784727 65.3674047,13.3894295 65.3237305,13.7749023 C65.2713214,14.2374698 65.1072605,14.6601543 64.831543,15.0429688 C64.5558254,15.4257832 64.1832706,15.7197255 63.7138672,15.9248047 C63.2444638,16.1298838 62.6975943,16.2324219 62.0732422,16.2324219 C61.4807913,16.2324219 60.9487328,16.1355804 60.4770508,15.9418945 C60.0053687,15.7482087 59.625978,15.4576842 59.3388672,15.0703125 C59.0517564,14.6829408 58.8808596,14.2613955 58.8261719,13.8056641 L58.8011067,13.549316 C58.7669269,13.1220703 58.7481282,12.5025673 58.7447103,11.6907971 L58.7441406,9.51953125 C58.7441406,8.40754652 58.7703448,7.62028226 58.8227539,7.15771484 C58.875163,6.69514743 59.0392239,6.27246285 59.3149414,5.88964844 C59.5906589,5.50683402 59.9632138,5.21289165 60.4326172,5.0078125 C60.9020206,4.80273335 61.4488901,4.70019531 62.0732422,4.70019531 C62.6656931,4.70019531 63.1977515,4.79703679 63.6694336,4.99072266 C64.1411156,5.18440852 64.5205064,5.47493296 64.8076172,5.86230469 C65.094728,6.24967642 65.2656247,6.67122168 65.3203125,7.12695312 L65.3453777,7.38330118 C65.3833552,7.85801866 65.4023438,8.57009074 65.4023438,9.51953125 Z M62.5244141,12.8623047 L62.5244141,7.77636719 C62.5244141,7.26139065 62.4959313,6.93212962 62.4389648,6.78857422 C62.3819984,6.64501881 62.2646493,6.57324219 62.0869141,6.57324219 C61.9365227,6.57324219 61.8214522,6.63134708 61.7416992,6.74755859 C61.6708077,6.85085772 61.6314239,7.13329463 61.6235472,7.59487654 L61.6220703,12.9443359 C61.6220703,13.5869173 61.6482745,13.9833977 61.7006836,14.1337891 C61.7530927,14.2841804 61.874999,14.359375 62.0664062,14.359375 C62.2623708,14.359375 62.387695,14.2727873 62.4423828,14.0996094 C62.4970706,13.9264314 62.5244141,13.5140007 62.5244141,12.8623047 Z M73.3320312,4.93261719 L71.6845703,9.9296875 L73.4892578,16 L70.515625,16 L69.3535156,11.2558594 L69.3535156,16 L66.4755859,16 L66.4755859,4.93261719 L69.3535156,4.93261719 L69.3535156,9.23242188 L70.6318359,4.93261719 L73.3320312,4.93261719 Z M76.8662109,4.93261719 L76.8662109,16 L73.9882812,16 L73.9882812,4.93261719 L76.8662109,4.93261719 Z M80.8994141,4.93261719 L80.8994141,13.7851562 L82.6494141,13.7851562 L82.6494141,16 L78.0214844,16 L78.0214844,4.93261719 L80.8994141,4.93261719 Z M86.2246094,4.93261719 L86.2246094,13.7851562 L87.9746094,13.7851562 L87.9746094,16 L83.3466797,16 L83.3466797,4.93261719 L86.2246094,4.93261719 Z M93.9902344,4.93261719 L95.6376953,16 L92.6914062,16 L92.5478516,14.0107422 L91.515625,14.0107422 L91.3447266,16 L88.3642578,16 L89.8271484,4.93261719 L93.9902344,4.93261719 Z M91.4814453,12.0488281 L92.4658203,12.0488281 L92.3465019,10.9578452 C92.2404414,9.929782 92.1343814,8.74624841 92.0283203,7.40722656 L91.8757929,8.53684204 C91.6721386,10.0820685 91.5406904,11.2527223 91.4814453,12.0488281 Z M105.057617,4.70019531 C105.650068,4.70019531 106.182127,4.79703679 106.653809,4.99072266 C107.125491,5.18440852 107.504881,5.47493296 107.791992,5.86230469 C108.079103,6.24967642 108.25,6.67122168 108.304688,7.12695312 L108.329753,7.38330118 C108.363932,7.81054691 108.382731,8.43004987 108.386149,9.24182014 L108.386719,11.4130859 L108.384535,11.9420184 C108.377256,12.7784727 108.35178,13.3894295 108.308105,13.7749023 C108.255696,14.2374698 108.091635,14.6601543 107.815918,15.0429688 C107.5402,15.4257832 107.167646,15.7197255 106.698242,15.9248047 C106.228839,16.1298838 105.681969,16.2324219 105.057617,16.2324219 C104.465166,16.2324219 103.933108,16.1355804 103.461426,15.9418945 C102.989744,15.7482087 102.610353,15.4576842 102.323242,15.0703125 C102.036131,14.6829408 101.865235,14.2613955 101.810547,13.8056641 L101.785482,13.549316 C101.747504,13.0745985 101.728516,12.3625264 101.728516,11.4130859 L101.730699,8.99059882 C101.737978,8.15414446 101.763455,7.54318769 101.807129,7.15771484 C101.859538,6.69514743 102.023599,6.27246285 102.299316,5.88964844 C102.575034,5.50683402 102.947589,5.21289165 103.416992,5.0078125 C103.886396,4.80273335 104.433265,4.70019531 105.057617,4.70019531 Z M101.154297,4.93261719 L101.154297,7.14746094 L99.4453125,7.14746094 L99.4453125,16 L96.5673828,16 L96.5673828,7.14746094 L94.8652344,7.14746094 L94.8652344,4.93261719 L101.154297,4.93261719 Z M111.49707,4.93261719 C112.85515,4.93261719 113.774574,4.98502552 114.255371,5.08984375 C114.736168,5.19466198 115.128091,5.46240019 115.431152,5.89306641 C115.734214,6.32373262 115.885742,7.01073747 115.885742,7.95410156 C115.885742,8.81543399 115.778647,9.39420425 115.564453,9.69042969 C115.350259,9.98665513 114.928714,10.1643877 114.299805,10.2236328 C114.869469,10.3649096 115.252278,10.5540353 115.448242,10.7910156 C115.644207,11.027996 115.766113,11.2456045 115.813965,11.4438477 C115.857829,11.6255706 115.881588,12.0992791 115.885244,12.8649859 L115.885742,16 L113.212891,16 L113.212891,12.3222656 C113.212891,11.7298147 113.166179,11.3629564 113.072754,11.2216797 C112.979329,11.0804029 112.734377,11.0097656 112.337891,11.0097656 L112.337891,16 L109.459961,16 L109.459961,4.93261719 L111.49707,4.93261719 Z M105.071289,6.57324219 C104.920898,6.57324219 104.805827,6.63134708 104.726074,6.74755859 C104.655183,6.85085772 104.615799,7.13329463 104.607922,7.59487654 L104.606445,12.9443359 C104.606445,13.5869173 104.632649,13.9833977 104.685059,14.1337891 C104.737468,14.2841804 104.859374,14.359375 105.050781,14.359375 C105.246746,14.359375 105.37207,14.2727873 105.426758,14.0996094 C105.481446,13.9264314 105.508789,13.5140007 105.508789,12.8623047 L105.508789,7.77636719 C105.508789,7.26139065 105.480306,6.93212962 105.42334,6.78857422 C105.366373,6.64501881 105.249024,6.57324219 105.071289,6.57324219 Z M112.337891,6.82617188 L112.337891,9.28710938 C112.66146,9.28710938 112.888183,9.24267623 113.018066,9.15380859 C113.133518,9.07481514 113.197658,8.83828831 113.210485,8.44422203 L113.212891,8.2890625 L113.212891,7.68066406 C113.212891,7.32975085 113.150228,7.09960992 113.024902,6.99023438 C112.899576,6.88085883 112.670575,6.82617188 112.337891,6.82617188 Z" id="GLEEOKILLATOR" fill="#E4000F" fill-rule="nonzero"></path>
        </g>
        <g id="Group" transform="translate(10.000000, 29.000000)">
            <path d="M25,0 C27.7614237,-5.07265313e-16 30,2.23857625 30,5 L30,317 C30,319.761424 27.7614237,322 25,322 L5,322 C2.23857625,322 -2.32635838e-15,319.761424 0,317 L0,5 C-3.38176876e-16,2.23857625 2.23857625,5.07265313e-16 5,0 L25,0 Z M60,0 C62.7614237,-5.07265313e-16 65,2.23857625 65,5 L65,317 C65,319.761424 62.7614237,322 60,322 L40,322 C37.2385763,322 35,319.761424 35,317 L35,5 C35,2.23857625 37.2385763,5.07265313e-16 40,0 L60,0 Z M95,0 C97.7614237,-5.07265313e-16 100,2.23857625 100,5 L100,317 C100,319.761424 97.7614237,322 95,322 L75,322 C72.2385763,322 70,319.761424 70,317 L70,5 C70,2.23857625 72.2385763,5.07265313e-16 75,0 L95,0 Z" id="voice-lanes" fill="#E4000F"></path>
            <g id="Output" transform="translate(0.000000, 264.000000)">
                <g id="Normal" transform="translate(28.000000, 38.000000)" stroke="#1D1D1D" stroke-width="2">
                    <polygon id="Triangle" transform="translate(4.500000, 4.500000) rotate(-270.000000) translate(-4.500000, -4.500000) " points="4.5 0 9 9 0 9"></polygon>
                    <polygon id="Triangle-Copy" transform="translate(39.500000, 4.500000) rotate(-270.000000) translate(-39.500000, -4.500000) " points="39.5 0 44 9 35 9"></polygon>
                </g>
                <g id="Tone-3-Out" transform="translate(70.000000, 0.000000)">
                    <rect id="Rectangle-Copy-2" fill="#1D1D1D" x="0" y="0" width="30" height="58" rx="4"></rect>
                    <path d="M5.69921875,23.75 L5.69921875,18.9921875 L4,18.9921875 L4,18.0234375 L8.55078125,18.0234375 L8.55078125,18.9921875 L6.85546875,18.9921875 L6.85546875,23.75 L5.69921875,23.75 Z M8.44140625,21.6171875 C8.44140625,21.2526023 8.5312491,20.8997413 8.7109375,20.5585938 C8.8906259,20.2174462 9.14518064,19.9570321 9.47460938,19.7773438 C9.80403811,19.5976554 10.171873,19.5078125 10.578125,19.5078125 C11.2057323,19.5078125 11.7200501,19.7115865 12.1210938,20.1191406 C12.5221374,20.5266947 12.7226562,21.0416636 12.7226562,21.6640625 C12.7226562,22.2916698 12.5201843,22.8118469 12.1152344,23.2246094 C11.7102844,23.6373719 11.2005239,23.84375 10.5859375,23.84375 C10.2057273,23.84375 9.84310068,23.7578134 9.49804688,23.5859375 C9.15299307,23.4140616 8.8906259,23.162111 8.7109375,22.8300781 C8.5312491,22.4980452 8.44140625,22.0937524 8.44140625,21.6171875 Z M9.56640625,21.6757812 C9.56640625,22.0872416 9.66406152,22.4023438 9.859375,22.6210938 C10.0546885,22.8398448 10.2955715,22.9492188 10.5820312,22.9492188 C10.868491,22.9492188 11.108723,22.8398448 11.3027344,22.6210938 C11.4967458,22.4023438 11.59375,22.0846375 11.59375,21.6679688 C11.59375,21.2617167 11.4967458,20.9492198 11.3027344,20.7304688 C11.108723,20.5117177 10.868491,20.4023438 10.5820312,20.4023438 C10.2955715,20.4023438 10.0546885,20.5117177 9.859375,20.7304688 C9.66406152,20.9492198 9.56640625,21.2643209 9.56640625,21.6757812 Z M17.3554688,23.75 L16.2578125,23.75 L16.2578125,21.6328125 C16.2578125,21.1848936 16.2343752,20.8951829 16.1875,20.7636719 C16.1406248,20.6321608 16.0644537,20.5299483 15.9589844,20.4570312 C15.8535151,20.3841142 15.7265632,20.3476562 15.578125,20.3476562 C15.3880199,20.3476562 15.2174487,20.3997391 15.0664062,20.5039062 C14.9153638,20.6080734 14.8118492,20.7460929 14.7558594,20.9179688 C14.6998695,21.0898446 14.671875,21.4075498 14.671875,21.8710938 L14.671875,23.75 L13.5742188,23.75 L13.5742188,19.6015625 L14.59375,19.6015625 L14.59375,20.2109375 C14.955731,19.7421852 15.4114556,19.5078125 15.9609375,19.5078125 C16.2031262,19.5078125 16.4244782,19.5514319 16.625,19.6386719 C16.8255218,19.7259119 16.977213,19.8372389 17.0800781,19.9726562 C17.1829432,20.1080736 17.2545571,20.2617179 17.2949219,20.4335938 C17.3352867,20.6054696 17.3554688,20.8515609 17.3554688,21.171875 L17.3554688,23.75 Z M20.8710938,22.4296875 L21.9648438,22.6132812 C21.824218,23.0143249 21.6022151,23.3196604 21.2988281,23.5292969 C20.9954412,23.7389333 20.6158877,23.84375 20.1601562,23.84375 C19.4387985,23.84375 18.9049496,23.6080753 18.5585938,23.1367188 C18.2851549,22.7591127 18.1484375,22.282555 18.1484375,21.7070312 C18.1484375,21.0195278 18.3281232,20.4811217 18.6875,20.0917969 C19.0468768,19.702472 19.5012993,19.5078125 20.0507812,19.5078125 C20.6679718,19.5078125 21.1549461,19.7115865 21.5117188,20.1191406 C21.8684914,20.5266947 22.0390626,21.1510375 22.0234375,21.9921875 L19.2734375,21.9921875 C19.28125,22.31771 19.3697908,22.5709626 19.5390625,22.7519531 C19.7083342,22.9329436 19.9192696,23.0234375 20.171875,23.0234375 C20.3437509,23.0234375 20.4882807,22.976563 20.6054688,22.8828125 C20.7226568,22.789062 20.8111976,22.6380219 20.8710938,22.4296875 Z M20.9335938,21.3203125 C20.9257812,21.0026026 20.8437508,20.7610685 20.6875,20.5957031 C20.5312492,20.4303377 20.341147,20.3476562 20.1171875,20.3476562 C19.877603,20.3476562 19.6796883,20.434895 19.5234375,20.609375 C19.3671867,20.783855 19.2903646,21.0208318 19.2929688,21.3203125 L20.9335938,21.3203125 Z M22.6445312,22.2304688 L23.7070312,22.1015625 C23.7408856,22.3723972 23.8320305,22.5794264 23.9804688,22.7226562 C24.128907,22.8658861 24.3085927,22.9375 24.5195312,22.9375 C24.7460949,22.9375 24.9368482,22.8515634 25.0917969,22.6796875 C25.2467456,22.5078116 25.3242188,22.2760431 25.3242188,21.984375 C25.3242188,21.708332 25.2500007,21.4895841 25.1015625,21.328125 C24.9531243,21.1666659 24.7721365,21.0859375 24.5585938,21.0859375 C24.417968,21.0859375 24.250001,21.113281 24.0546875,21.1679688 L24.1757812,20.2734375 C24.4726577,20.28125 24.699218,20.2167976 24.8554688,20.0800781 C25.0117195,19.9433587 25.0898438,19.7617199 25.0898438,19.5351562 C25.0898438,19.342447 25.0325527,19.1888027 24.9179688,19.0742188 C24.8033848,18.9596348 24.6510426,18.9023438 24.4609375,18.9023438 C24.2734366,18.9023438 24.1132819,18.9674473 23.9804688,19.0976562 C23.8476556,19.2278652 23.7669272,19.4179675 23.7382812,19.6679688 L22.7265625,19.4960938 C22.7968754,19.1497379 22.9029941,18.8730479 23.0449219,18.6660156 C23.1868497,18.4589833 23.3847644,18.2962246 23.6386719,18.1777344 C23.8925794,18.0592442 24.1770818,18 24.4921875,18 C25.0312527,18 25.46354,18.1718733 25.7890625,18.515625 C26.057293,18.7968764 26.1914062,19.1145816 26.1914062,19.46875 C26.1914062,19.9713567 25.9166694,20.3723943 25.3671875,20.671875 C25.6953141,20.7421879 25.9576813,20.8997384 26.1542969,21.1445312 C26.3509124,21.3893241 26.4492188,21.6848941 26.4492188,22.03125 C26.4492188,22.5338567 26.2656268,22.9622378 25.8984375,23.3164062 C25.5312482,23.6705747 25.0742215,23.8476562 24.5273438,23.8476562 C24.009112,23.8476562 23.5794288,23.6985692 23.2382812,23.4003906 C22.8971337,23.1022121 22.699219,22.712242 22.6445312,22.2304688 Z" id="Tone3" fill="#FFFFFF" fill-rule="nonzero"></path>
                </g>
                <g id="Tone-2-Out" transform="translate(35.000000, 0.000000)">
                    <rect id="Rectangle-Copy" fill="#1D1D1D" x="0" y="0" width="30" height="58" rx="4"></rect>
                    <path d="M5.69921875,23.75 L5.69921875,18.9921875 L4,18.9921875 L4,18.0234375 L8.55078125,18.0234375 L8.55078125,18.9921875 L6.85546875,18.9921875 L6.85546875,23.75 L5.69921875,23.75 Z M8.44140625,21.6171875 C8.44140625,21.2526023 8.5312491,20.8997413 8.7109375,20.5585938 C8.8906259,20.2174462 9.14518064,19.9570321 9.47460938,19.7773438 C9.80403811,19.5976554 10.171873,19.5078125 10.578125,19.5078125 C11.2057323,19.5078125 11.7200501,19.7115865 12.1210938,20.1191406 C12.5221374,20.5266947 12.7226562,21.0416636 12.7226562,21.6640625 C12.7226562,22.2916698 12.5201843,22.8118469 12.1152344,23.2246094 C11.7102844,23.6373719 11.2005239,23.84375 10.5859375,23.84375 C10.2057273,23.84375 9.84310068,23.7578134 9.49804688,23.5859375 C9.15299307,23.4140616 8.8906259,23.162111 8.7109375,22.8300781 C8.5312491,22.4980452 8.44140625,22.0937524 8.44140625,21.6171875 Z M9.56640625,21.6757812 C9.56640625,22.0872416 9.66406152,22.4023438 9.859375,22.6210938 C10.0546885,22.8398448 10.2955715,22.9492188 10.5820312,22.9492188 C10.868491,22.9492188 11.108723,22.8398448 11.3027344,22.6210938 C11.4967458,22.4023438 11.59375,22.0846375 11.59375,21.6679688 C11.59375,21.2617167 11.4967458,20.9492198 11.3027344,20.7304688 C11.108723,20.5117177 10.868491,20.4023438 10.5820312,20.4023438 C10.2955715,20.4023438 10.0546885,20.5117177 9.859375,20.7304688 C9.66406152,20.9492198 9.56640625,21.2643209 9.56640625,21.6757812 Z M17.3554688,23.75 L16.2578125,23.75 L16.2578125,21.6328125 C16.2578125,21.1848936 16.2343752,20.8951829 16.1875,20.7636719 C16.1406248,20.6321608 16.0644537,20.5299483 15.9589844,20.4570312 C15.8535151,20.3841142 15.7265632,20.3476562 15.578125,20.3476562 C15.3880199,20.3476562 15.2174487,20.3997391 15.0664062,20.5039062 C14.9153638,20.6080734 14.8118492,20.7460929 14.7558594,20.9179688 C14.6998695,21.0898446 14.671875,21.4075498 14.671875,21.8710938 L14.671875,23.75 L13.5742188,23.75 L13.5742188,19.6015625 L14.59375,19.6015625 L14.59375,20.2109375 C14.955731,19.7421852 15.4114556,19.5078125 15.9609375,19.5078125 C16.2031262,19.5078125 16.4244782,19.5514319 16.625,19.6386719 C16.8255218,19.7259119 16.977213,19.8372389 17.0800781,19.9726562 C17.1829432,20.1080736 17.2545571,20.2617179 17.2949219,20.4335938 C17.3352867,20.6054696 17.3554688,20.8515609 17.3554688,21.171875 L17.3554688,23.75 Z M20.8710938,22.4296875 L21.9648438,22.6132812 C21.824218,23.0143249 21.6022151,23.3196604 21.2988281,23.5292969 C20.9954412,23.7389333 20.6158877,23.84375 20.1601562,23.84375 C19.4387985,23.84375 18.9049496,23.6080753 18.5585938,23.1367188 C18.2851549,22.7591127 18.1484375,22.282555 18.1484375,21.7070312 C18.1484375,21.0195278 18.3281232,20.4811217 18.6875,20.0917969 C19.0468768,19.702472 19.5012993,19.5078125 20.0507812,19.5078125 C20.6679718,19.5078125 21.1549461,19.7115865 21.5117188,20.1191406 C21.8684914,20.5266947 22.0390626,21.1510375 22.0234375,21.9921875 L19.2734375,21.9921875 C19.28125,22.31771 19.3697908,22.5709626 19.5390625,22.7519531 C19.7083342,22.9329436 19.9192696,23.0234375 20.171875,23.0234375 C20.3437509,23.0234375 20.4882807,22.976563 20.6054688,22.8828125 C20.7226568,22.789062 20.8111976,22.6380219 20.8710938,22.4296875 Z M20.9335938,21.3203125 C20.9257812,21.0026026 20.8437508,20.7610685 20.6875,20.5957031 C20.5312492,20.4303377 20.341147,20.3476562 20.1171875,20.3476562 C19.877603,20.3476562 19.6796883,20.434895 19.5234375,20.609375 C19.3671867,20.783855 19.2903646,21.0208318 19.2929688,21.3203125 L20.9335938,21.3203125 Z M26.390625,22.7304688 L26.390625,23.75 L22.5429688,23.75 C22.5846356,23.3645814 22.7096344,22.9993507 22.9179688,22.6542969 C23.1031549,22.3475824 23.4488307,21.9518811 23.955005,21.4671834 L24.4538493,20.9959482 C24.7725225,20.6887527 24.9754047,20.4713548 25.0625,20.34375 C25.2135424,20.1171864 25.2890625,19.8932303 25.2890625,19.671875 C25.2890625,19.4270821 25.2233079,19.2389329 25.0917969,19.1074219 C24.9602858,18.9759108 24.778647,18.9101562 24.546875,18.9101562 C24.3177072,18.9101562 24.1354173,18.979166 24,19.1171875 C23.8645827,19.255209 23.7864584,19.4843734 23.765625,19.8046875 L22.671875,19.6953125 C22.7369795,19.0911428 22.9414045,18.6575534 23.2851562,18.3945312 C23.628908,18.1315091 24.0585912,18 24.5742188,18 C25.1393257,18 25.5833317,18.1523422 25.90625,18.4570312 C26.2291683,18.7617203 26.390625,19.1406227 26.390625,19.59375 C26.390625,19.8515638 26.3444015,20.097004 26.2519531,20.3300781 C26.1595047,20.5631522 26.0130218,20.8072904 25.8125,21.0625 C25.6986601,21.20759 25.5063787,21.4072057 25.235651,21.6613516 L24.6694331,22.1894535 C24.5597329,22.294922 24.4817711,22.3736977 24.4355469,22.4257812 C24.3430985,22.5299484 24.2682295,22.6315099 24.2109375,22.7304688 L26.390625,22.7304688 Z" id="Tone2" fill="#FFFFFF" fill-rule="nonzero"></path>
                </g>
                <g id="Tone-1-Out">
                    <rect id="Rectangle" fill="#1D1D1D" x="0" y="0" width="30" height="58" rx="4"></rect>
                    <path d="M5.69921875,23.75 L5.69921875,18.9921875 L4,18.9921875 L4,18.0234375 L8.55078125,18.0234375 L8.55078125,18.9921875 L6.85546875,18.9921875 L6.85546875,23.75 L5.69921875,23.75 Z M8.44140625,21.6171875 C8.44140625,21.2526023 8.5312491,20.8997413 8.7109375,20.5585938 C8.8906259,20.2174462 9.14518064,19.9570321 9.47460938,19.7773438 C9.80403811,19.5976554 10.171873,19.5078125 10.578125,19.5078125 C11.2057323,19.5078125 11.7200501,19.7115865 12.1210938,20.1191406 C12.5221374,20.5266947 12.7226562,21.0416636 12.7226562,21.6640625 C12.7226562,22.2916698 12.5201843,22.8118469 12.1152344,23.2246094 C11.7102844,23.6373719 11.2005239,23.84375 10.5859375,23.84375 C10.2057273,23.84375 9.84310068,23.7578134 9.49804688,23.5859375 C9.15299307,23.4140616 8.8906259,23.162111 8.7109375,22.8300781 C8.5312491,22.4980452 8.44140625,22.0937524 8.44140625,21.6171875 Z M9.56640625,21.6757812 C9.56640625,22.0872416 9.66406152,22.4023438 9.859375,22.6210938 C10.0546885,22.8398448 10.2955715,22.9492188 10.5820312,22.9492188 C10.868491,22.9492188 11.108723,22.8398448 11.3027344,22.6210938 C11.4967458,22.4023438 11.59375,22.0846375 11.59375,21.6679688 C11.59375,21.2617167 11.4967458,20.9492198 11.3027344,20.7304688 C11.108723,20.5117177 10.868491,20.4023438 10.5820312,20.4023438 C10.2955715,20.4023438 10.0546885,20.5117177 9.859375,20.7304688 C9.66406152,20.9492198 9.56640625,21.2643209 9.56640625,21.6757812 Z M17.3554688,23.75 L16.2578125,23.75 L16.2578125,21.6328125 C16.2578125,21.1848936 16.2343752,20.8951829 16.1875,20.7636719 C16.1406248,20.6321608 16.0644537,20.5299483 15.9589844,20.4570312 C15.8535151,20.3841142 15.7265632,20.3476562 15.578125,20.3476562 C15.3880199,20.3476562 15.2174487,20.3997391 15.0664062,20.5039062 C14.9153638,20.6080734 14.8118492,20.7460929 14.7558594,20.9179688 C14.6998695,21.0898446 14.671875,21.4075498 14.671875,21.8710938 L14.671875,23.75 L13.5742188,23.75 L13.5742188,19.6015625 L14.59375,19.6015625 L14.59375,20.2109375 C14.955731,19.7421852 15.4114556,19.5078125 15.9609375,19.5078125 C16.2031262,19.5078125 16.4244782,19.5514319 16.625,19.6386719 C16.8255218,19.7259119 16.977213,19.8372389 17.0800781,19.9726562 C17.1829432,20.1080736 17.2545571,20.2617179 17.2949219,20.4335938 C17.3352867,20.6054696 17.3554688,20.8515609 17.3554688,21.171875 L17.3554688,23.75 Z M20.8710938,22.4296875 L21.9648438,22.6132812 C21.824218,23.0143249 21.6022151,23.3196604 21.2988281,23.5292969 C20.9954412,23.7389333 20.6158877,23.84375 20.1601562,23.84375 C19.4387985,23.84375 18.9049496,23.6080753 18.5585938,23.1367188 C18.2851549,22.7591127 18.1484375,22.282555 18.1484375,21.7070312 C18.1484375,21.0195278 18.3281232,20.4811217 18.6875,20.0917969 C19.0468768,19.702472 19.5012993,19.5078125 20.0507812,19.5078125 C20.6679718,19.5078125 21.1549461,19.7115865 21.5117188,20.1191406 C21.8684914,20.5266947 22.0390626,21.1510375 22.0234375,21.9921875 L19.2734375,21.9921875 C19.28125,22.31771 19.3697908,22.5709626 19.5390625,22.7519531 C19.7083342,22.9329436 19.9192696,23.0234375 20.171875,23.0234375 C20.3437509,23.0234375 20.4882807,22.976563 20.6054688,22.8828125 C20.7226568,22.789062 20.8111976,22.6380219 20.8710938,22.4296875 Z M20.9335938,21.3203125 C20.9257812,21.0026026 20.8437508,20.7610685 20.6875,20.5957031 C20.5312492,20.4303377 20.341147,20.3476562 20.1171875,20.3476562 C19.877603,20.3476562 19.6796883,20.434895 19.5234375,20.609375 C19.3671867,20.783855 19.2903646,21.0208318 19.2929688,21.3203125 L20.9335938,21.3203125 Z M25.4921875,23.75 L24.3945312,23.75 L24.3945312,19.6132812 C23.9934876,19.9882831 23.5208361,20.2656241 22.9765625,20.4453125 L22.9765625,19.4492188 C23.2630223,19.3554683 23.5742171,19.1777357 23.9101562,18.9160156 C24.2460954,18.6542956 24.4765625,18.3489601 24.6015625,18 L25.4921875,18 L25.4921875,23.75 Z" id="Tone1" fill="#FFFFFF" fill-rule="nonzero"></path>
                </g>
            </g>
            <g id="Amplifier" transform="translate(0.000000, 182.000000)">
                <g id="Normal" transform="translate(28.000000, 60.000000)" fill="#000000">
                    <polygon id="Triangle" transform="translate(4.500000, 4.500000) rotate(-270.000000) translate(-4.500000, -4.500000) " points="4.5 0 9 9 0 9"></polygon>
                    <polygon id="Triangle-Copy" transform="translate(39.500000, 4.500000) rotate(-270.000000) translate(-39.500000, -4.500000) " points="39.5 0 44 9 35 9"></polygon>
                </g>
                <g id="Amp3" transform="translate(70.000000, 0.000000)" fill-rule="nonzero">
                    <path d="M15.5,19 L13.5,19 L13.5,22 L15.5,22 L15.5,19 Z M15.5,23 L13.5,23 L13.5,26 L15.5,26 L15.5,23 Z M15.5,27 L13.5,27 L13.5,30 L15.5,30 L15.5,27 Z M15.5,31 L13.5,31 L13.5,34 L15.5,34 L15.5,31 Z M15.5,35 L13.5,35 L13.5,38 L15.5,38 L15.5,35 Z M15.5,39 L13.5,39 L13.5,42 L15.5,42 L15.5,39 Z M15.5,43 L13.5,43 L13.5,46 L15.5,46 L15.5,43 Z M15.5,47 L13.5,47 L13.5,50 L15.5,50 L15.5,47 Z M15.5,51 L13.5,51 L13.5,54 L15.5,54 L15.5,51 Z M15.5,55 L13.5,55 L13.5,58 L15.5,58 L15.5,55 Z M15.5,59 L13.5,59 L13.5,62 L15.5,62 L15.5,59 Z" id="Line-Copy-17" fill="#E6E6E6"></path>
                    <path d="M8.74609375,5.75 L7.48828125,5.75 L6.98828125,4.44921875 L4.69921875,4.44921875 L4.2265625,5.75 L3,5.75 L5.23046875,0.0234375 L6.453125,0.0234375 L8.74609375,5.75 Z M6.6171875,3.484375 L5.828125,1.359375 L5.0546875,3.484375 L6.6171875,3.484375 Z M9.34375,5.75 L9.34375,0.0234375 L11.0742188,0.0234375 L12.1132812,3.9296875 L13.140625,0.0234375 L14.875,0.0234375 L14.875,5.75 L13.8007812,5.75 L13.8007812,1.2421875 L12.6640625,5.75 L11.5507812,5.75 L10.4179688,1.2421875 L10.4179688,5.75 L9.34375,5.75 Z M16.0234375,5.75 L16.0234375,0.0234375 L17.8789062,0.0234375 C18.5820348,0.0234375 19.0403635,0.0520830469 19.2539062,0.109375 C19.5820329,0.19531293 19.8567697,0.38216002 20.078125,0.669921875 C20.2994803,0.95768373 20.4101562,1.3294248 20.4101562,1.78515625 C20.4101562,2.13672051 20.3463548,2.43229047 20.21875,2.671875 C20.0911452,2.91145953 19.9290374,3.09960869 19.7324219,3.23632812 C19.5358063,3.37304756 19.3359385,3.46354145 19.1328125,3.5078125 C18.8962042,3.55468773 18.5687197,3.58147328 18.1503515,3.58816966 L17.1796875,3.58984375 L17.1796875,5.75 L16.0234375,5.75 Z M17.1796875,0.9921875 L17.1796875,2.6171875 L17.8125,2.6171875 L18.1259774,2.61157231 C18.4111338,2.60034191 18.6113275,2.57226585 18.7265625,2.52734375 C18.8802091,2.46744762 19.0006506,2.37369855 19.0878906,2.24609375 C19.1751306,2.11848895 19.21875,1.97005293 19.21875,1.80078125 C19.21875,1.59244688 19.1575527,1.42057359 19.0351562,1.28515625 C18.9127598,1.14973891 18.7578134,1.06510434 18.5703125,1.03125 C18.4520083,1.00892846 18.231347,0.996173438 17.9083233,0.992984687 L17.1796875,0.9921875 Z M21.078125,4.23046875 L22.140625,4.1015625 C22.1744793,4.37239719 22.2656243,4.57942637 22.4140625,4.72265625 C22.5625007,4.86588613 22.7421864,4.9375 22.953125,4.9375 C23.1796886,4.9375 23.3704419,4.85156336 23.5253906,4.6796875 C23.6803393,4.50781164 23.7578125,4.27604313 23.7578125,3.984375 C23.7578125,3.70833195 23.6835945,3.48958414 23.5351562,3.328125 C23.386718,3.16666586 23.2057302,3.0859375 22.9921875,3.0859375 C22.8515618,3.0859375 22.6835947,3.11328098 22.4882812,3.16796875 L22.609375,2.2734375 C22.9062515,2.28125004 23.1328117,2.21679756 23.2890625,2.08007812 C23.4453133,1.94335869 23.5234375,1.76171988 23.5234375,1.53515625 C23.5234375,1.34244695 23.4661464,1.18880266 23.3515625,1.07421875 C23.2369786,0.959634844 23.0846364,0.90234375 22.8945312,0.90234375 C22.7070303,0.90234375 22.5468757,0.967447266 22.4140625,1.09765625 C22.2812493,1.22786523 22.200521,1.4179675 22.171875,1.66796875 L21.1601562,1.49609375 C21.2304691,1.14973785 21.3365878,0.87304791 21.4785156,0.666015625 C21.6204434,0.45898334 21.8183581,0.296224551 22.0722656,0.177734375 C22.3261731,0.0592441992 22.6106755,0 22.9257812,0 C23.4648464,0 23.8971338,0.171873281 24.2226562,0.515625 C24.4908868,0.796876406 24.625,1.11458156 24.625,1.46875 C24.625,1.97135668 24.3502632,2.37239434 23.8007812,2.671875 C24.1289079,2.74218785 24.3912751,2.89973836 24.5878906,3.14453125 C24.7845062,3.38932414 24.8828125,3.6848941 24.8828125,4.03125 C24.8828125,4.53385668 24.6992206,4.96223781 24.3320312,5.31640625 C23.9648419,5.67057469 23.5078152,5.84765625 22.9609375,5.84765625 C22.4427057,5.84765625 22.0130225,5.6985692 21.671875,5.40039062 C21.3307275,5.10221205 21.1328128,4.71224199 21.078125,4.23046875 Z" id="AMP3" fill="#FFFFFF"></path>
                </g>
                <g id="Amp2" transform="translate(35.000000, 0.000000)" fill-rule="nonzero">
                    <path d="M15.5,19 L13.5,19 L13.5,22 L15.5,22 L15.5,19 Z M15.5,23 L13.5,23 L13.5,26 L15.5,26 L15.5,23 Z M15.5,27 L13.5,27 L13.5,30 L15.5,30 L15.5,27 Z M15.5,31 L13.5,31 L13.5,34 L15.5,34 L15.5,31 Z M15.5,35 L13.5,35 L13.5,38 L15.5,38 L15.5,35 Z M15.5,39 L13.5,39 L13.5,42 L15.5,42 L15.5,39 Z M15.5,43 L13.5,43 L13.5,46 L15.5,46 L15.5,43 Z M15.5,47 L13.5,47 L13.5,50 L15.5,50 L15.5,47 Z M15.5,51 L13.5,51 L13.5,54 L15.5,54 L15.5,51 Z M15.5,55 L13.5,55 L13.5,58 L15.5,58 L15.5,55 Z M15.5,59 L13.5,59 L13.5,62 L15.5,62 L15.5,59 Z" id="Line-Copy-18" fill="#E6E6E6"></path>
                    <path d="M9.24609375,5.75 L7.98828125,5.75 L7.48828125,4.44921875 L5.19921875,4.44921875 L4.7265625,5.75 L3.5,5.75 L5.73046875,0.0234375 L6.953125,0.0234375 L9.24609375,5.75 Z M7.1171875,3.484375 L6.328125,1.359375 L5.5546875,3.484375 L7.1171875,3.484375 Z M9.84375,5.75 L9.84375,0.0234375 L11.5742188,0.0234375 L12.6132812,3.9296875 L13.640625,0.0234375 L15.375,0.0234375 L15.375,5.75 L14.3007812,5.75 L14.3007812,1.2421875 L13.1640625,5.75 L12.0507812,5.75 L10.9179688,1.2421875 L10.9179688,5.75 L9.84375,5.75 Z M16.5234375,5.75 L16.5234375,0.0234375 L18.3789062,0.0234375 C19.0820348,0.0234375 19.5403635,0.0520830469 19.7539062,0.109375 C20.0820329,0.19531293 20.3567697,0.38216002 20.578125,0.669921875 C20.7994803,0.95768373 20.9101562,1.3294248 20.9101562,1.78515625 C20.9101562,2.13672051 20.8463548,2.43229047 20.71875,2.671875 C20.5911452,2.91145953 20.4290374,3.09960869 20.2324219,3.23632812 C20.0358063,3.37304756 19.8359385,3.46354145 19.6328125,3.5078125 C19.3962042,3.55468773 19.0687197,3.58147328 18.6503515,3.58816966 L17.6796875,3.58984375 L17.6796875,5.75 L16.5234375,5.75 Z M17.6796875,0.9921875 L17.6796875,2.6171875 L18.3125,2.6171875 L18.6259774,2.61157231 C18.9111338,2.60034191 19.1113275,2.57226585 19.2265625,2.52734375 C19.3802091,2.46744762 19.5006506,2.37369855 19.5878906,2.24609375 C19.6751306,2.11848895 19.71875,1.97005293 19.71875,1.80078125 C19.71875,1.59244688 19.6575527,1.42057359 19.5351562,1.28515625 C19.4127598,1.14973891 19.2578134,1.06510434 19.0703125,1.03125 C18.9520083,1.00892846 18.731347,0.996173438 18.4083233,0.992984687 L17.6796875,0.9921875 Z M25.3242188,4.73046875 L25.3242188,5.75 L21.4765625,5.75 C21.5182294,5.36458141 21.6432281,4.99935068 21.8515625,4.65429688 C22.0367486,4.34758238 22.3824245,3.95188109 22.8885988,3.46718337 L23.3874431,2.99594824 C23.7061163,2.68875275 23.9089984,2.4713548 23.9960938,2.34375 C24.1471362,2.11718637 24.2226562,1.89323027 24.2226562,1.671875 C24.2226562,1.42708211 24.1569017,1.23893295 24.0253906,1.10742188 C23.8938796,0.975910801 23.7122407,0.91015625 23.4804688,0.91015625 C23.2513009,0.91015625 23.0690111,0.979165977 22.9335938,1.1171875 C22.7981764,1.25520902 22.7200522,1.4843734 22.6992188,1.8046875 L21.6054688,1.6953125 C21.6705732,1.09114281 21.8749983,0.657553398 22.21875,0.39453125 C22.5625017,0.131509102 22.9921849,0 23.5078125,0 C24.0729195,0 24.5169255,0.152342227 24.8398438,0.45703125 C25.162762,0.761720273 25.3242188,1.14062273 25.3242188,1.59375 C25.3242188,1.85156379 25.2779953,2.09700404 25.1855469,2.33007812 C25.0930985,2.56315221 24.9466156,2.80729039 24.7460938,3.0625 C24.6512272,3.18340834 24.5018873,3.34218172 24.2980714,3.5388228 L23.6030269,4.18945353 C23.4933266,4.29492201 23.4153648,4.37369766 23.3691406,4.42578125 C23.2766922,4.52994844 23.2018232,4.63150992 23.1445312,4.73046875 L25.3242188,4.73046875 Z" id="AMP2" fill="#FFFFFF"></path>
                </g>
                <g id="Amp1" fill-rule="nonzero">
                    <path d="M15.5,20 L13.5,20 L13.5,23 L15.5,23 L15.5,20 Z M15.5,24 L13.5,24 L13.5,27 L15.5,27 L15.5,24 Z M15.5,28 L13.5,28 L13.5,31 L15.5,31 L15.5,28 Z M15.5,32 L13.5,32 L13.5,35 L15.5,35 L15.5,32 Z M15.5,36 L13.5,36 L13.5,39 L15.5,39 L15.5,36 Z M15.5,40 L13.5,40 L13.5,43 L15.5,43 L15.5,40 Z M15.5,44 L13.5,44 L13.5,47 L15.5,47 L15.5,44 Z M15.5,48 L13.5,48 L13.5,51 L15.5,51 L15.5,48 Z M15.5,52 L13.5,52 L13.5,55 L15.5,55 L15.5,52 Z M15.5,56 L13.5,56 L13.5,59 L15.5,59 L15.5,56 Z M15.5,60 L13.5,60 L13.5,63 L15.5,63 L15.5,60 Z" id="Line-Copy-15" fill="#E6E6E6"></path>
                    <path d="M10.7460938,5.75 L9.48828125,5.75 L8.98828125,4.44921875 L6.69921875,4.44921875 L6.2265625,5.75 L5,5.75 L7.23046875,0.0234375 L8.453125,0.0234375 L10.7460938,5.75 Z M8.6171875,3.484375 L7.828125,1.359375 L7.0546875,3.484375 L8.6171875,3.484375 Z M11.34375,5.75 L11.34375,0.0234375 L13.0742188,0.0234375 L14.1132812,3.9296875 L15.140625,0.0234375 L16.875,0.0234375 L16.875,5.75 L15.8007812,5.75 L15.8007812,1.2421875 L14.6640625,5.75 L13.5507812,5.75 L12.4179688,1.2421875 L12.4179688,5.75 L11.34375,5.75 Z M18.0234375,5.75 L18.0234375,0.0234375 L19.8789062,0.0234375 C20.5820348,0.0234375 21.0403635,0.0520830469 21.2539062,0.109375 C21.5820329,0.19531293 21.8567697,0.38216002 22.078125,0.669921875 C22.2994803,0.95768373 22.4101562,1.3294248 22.4101562,1.78515625 C22.4101562,2.13672051 22.3463548,2.43229047 22.21875,2.671875 C22.0911452,2.91145953 21.9290374,3.09960869 21.7324219,3.23632812 C21.5358063,3.37304756 21.3359385,3.46354145 21.1328125,3.5078125 C20.8962042,3.55468773 20.5687197,3.58147328 20.1503515,3.58816966 L19.1796875,3.58984375 L19.1796875,5.75 L18.0234375,5.75 Z M19.1796875,0.9921875 L19.1796875,2.6171875 L19.8125,2.6171875 L20.1259774,2.61157231 C20.4111338,2.60034191 20.6113275,2.57226585 20.7265625,2.52734375 C20.8802091,2.46744762 21.0006506,2.37369855 21.0878906,2.24609375 C21.1751306,2.11848895 21.21875,1.97005293 21.21875,1.80078125 C21.21875,1.59244688 21.1575527,1.42057359 21.0351562,1.28515625 C20.9127598,1.14973891 20.7578134,1.06510434 20.5703125,1.03125 C20.4520083,1.00892846 20.231347,0.996173438 19.9083233,0.992984687 L19.1796875,0.9921875 Z M25.9257812,5.75 L24.828125,5.75 L24.828125,1.61328125 C24.4270813,1.98828313 23.9544298,2.2656241 23.4101562,2.4453125 L23.4101562,1.44921875 C23.696616,1.35546828 24.0078108,1.17773568 24.34375,0.916015625 C24.6796892,0.654295566 24.9101562,0.348960078 25.0351562,0 L25.9257812,0 L25.9257812,5.75 Z" id="AMP1" fill="#FFFFFF"></path>
                </g>
            </g>
            <g id="Frequency-Mod" transform="translate(0.000000, 87.000000)">
                <g id="Normal" transform="translate(28.000000, 21.000000)" fill="#000000">
                    <polygon id="Triangle" transform="translate(4.500000, 4.500000) rotate(-270.000000) translate(-4.500000, -4.500000) " points="4.5 0 9 9 0 9"></polygon>
                    <polygon id="Triangle-Copy" transform="translate(39.500000, 4.500000) rotate(-270.000000) translate(-39.500000, -4.500000) " points="39.5 0 44 9 35 9"></polygon>
                </g>
                <g id="Mod3" transform="translate(70.000000, 0.000000)" fill-rule="nonzero">
                    <path d="M15.5,26 L13.5,26 L13.5,29 L15.5,29 L15.5,26 Z M15.5,30 L13.5,30 L13.5,33 L15.5,33 L15.5,30 Z M15.5,34 L13.5,34 L13.5,37 L15.5,37 L15.5,34 Z M15.5,38 L13.5,38 L13.5,41 L15.5,41 L15.5,38 Z M15.5,42 L13.5,42 L13.5,45 L15.5,45 L15.5,42 Z M15.5,46 L13.5,46 L13.5,49 L15.5,49 L15.5,46 Z M15.5,50 L13.5,50 L13.5,53 L15.5,53 L15.5,50 Z M15.5,54 L13.5,54 L13.5,57 L15.5,57 L15.5,54 Z" id="Line-Copy-5" fill="#E6E6E6"></path>
                    <path d="M4.00976562,7 L4.00976562,1.2734375 L5.74023438,1.2734375 L6.77929688,5.1796875 L7.80664062,1.2734375 L9.54101562,1.2734375 L9.54101562,7 L8.46679688,7 L8.46679688,2.4921875 L7.33007812,7 L6.21679688,7 L5.08398438,2.4921875 L5.08398438,7 L4.00976562,7 Z M10.4550781,4.171875 C10.4550781,3.58853875 10.5423168,3.09896031 10.7167969,2.703125 C10.8470059,2.41145687 11.0247385,2.14974074 11.25,1.91796875 C11.4752615,1.68619676 11.7220039,1.51432348 11.9902344,1.40234375 C12.347007,1.25130133 12.7584612,1.17578125 13.2246094,1.17578125 C14.0683636,1.17578125 14.7434871,1.43749738 15.25,1.9609375 C15.7565129,2.48437762 16.0097656,3.21223492 16.0097656,4.14453125 C16.0097656,5.06901504 15.7584661,5.7923151 15.2558594,6.31445312 C14.7532527,6.83659115 14.0813844,7.09765625 13.2402344,7.09765625 C12.3886676,7.09765625 11.7115911,6.83789322 11.2089844,6.31835938 C10.7063777,5.79882553 10.4550781,5.08333789 10.4550781,4.171875 Z M11.6464844,4.1328125 C11.6464844,4.78125324 11.7962225,5.27278479 12.0957031,5.60742188 C12.3951838,5.94205896 12.7753883,6.109375 13.2363281,6.109375 C13.6972679,6.109375 14.0755194,5.94336104 14.3710938,5.61132812 C14.6666681,5.27929521 14.8144531,4.78125332 14.8144531,4.1171875 C14.8144531,3.46093422 14.6705744,2.97135578 14.3828125,2.6484375 C14.0950506,2.32551922 13.712893,2.1640625 13.2363281,2.1640625 C12.7597632,2.1640625 12.3756525,2.32747232 12.0839844,2.65429688 C11.7923162,2.98112143 11.6464844,3.47395504 11.6464844,4.1328125 Z M16.9082031,1.2734375 L19.0214844,1.2734375 C19.4980493,1.2734375 19.8613269,1.30989547 20.1113281,1.3828125 C20.4472673,1.48177133 20.7350248,1.65755082 20.9746094,1.91015625 C21.2141939,2.16276168 21.3964838,2.47200338 21.5214844,2.83789062 C21.646485,3.20377787 21.7089844,3.65494523 21.7089844,4.19140625 C21.7089844,4.66276277 21.6503912,5.06900871 21.5332031,5.41015625 C21.3899732,5.826825 21.1855482,6.16406121 20.9199219,6.421875 C20.7194,6.61718848 20.4485694,6.7695307 20.1074219,6.87890625 C19.8522123,6.95963582 19.5110698,7 19.0839844,7 L16.9082031,7 L16.9082031,1.2734375 Z M18.0644531,2.2421875 L18.0644531,6.03515625 L18.9277344,6.03515625 L19.2207037,6.0290799 C19.3960507,6.02097809 19.5314665,6.00477443 19.6269531,5.98046875 C19.8144541,5.93359352 19.9700515,5.85416723 20.09375,5.7421875 C20.2174485,5.63020777 20.318359,5.44596482 20.3964844,5.18945312 C20.4746098,4.93294143 20.5136719,4.58333555 20.5136719,4.140625 C20.5136719,3.69791445 20.4746098,3.3580741 20.3964844,3.12109375 C20.318359,2.8841134 20.2089851,2.69921941 20.0683594,2.56640625 C19.9277337,2.43359309 19.74935,2.34375023 19.5332031,2.296875 L19.3830566,2.27294914 C19.2038579,2.2524413 18.9375018,2.2421875 18.5839844,2.2421875 L18.0644531,2.2421875 Z M22.4082031,5.48046875 L23.4707031,5.3515625 C23.5045575,5.62239719 23.5957024,5.82942637 23.7441406,5.97265625 C23.8925789,6.11588613 24.0722646,6.1875 24.2832031,6.1875 C24.5097668,6.1875 24.7005201,6.10156336 24.8554688,5.9296875 C25.0104174,5.75781164 25.0878906,5.52604313 25.0878906,5.234375 C25.0878906,4.95833195 25.0136726,4.73958414 24.8652344,4.578125 C24.7167961,4.41666586 24.5358084,4.3359375 24.3222656,4.3359375 C24.1816399,4.3359375 24.0136729,4.36328098 23.8183594,4.41796875 L23.9394531,3.5234375 C24.2363296,3.53125004 24.4628898,3.46679756 24.6191406,3.33007812 C24.7753914,3.19335869 24.8535156,3.01171988 24.8535156,2.78515625 C24.8535156,2.59244695 24.7962245,2.43880266 24.6816406,2.32421875 C24.5670567,2.20963484 24.4147145,2.15234375 24.2246094,2.15234375 C24.0371084,2.15234375 23.8769538,2.21744727 23.7441406,2.34765625 C23.6113275,2.47786523 23.5305991,2.6679675 23.5019531,2.91796875 L22.4902344,2.74609375 C22.5605472,2.39973785 22.666666,2.12304791 22.8085938,1.91601562 C22.9505215,1.70898334 23.1484362,1.54622455 23.4023438,1.42773438 C23.6562513,1.3092442 23.9407536,1.25 24.2558594,1.25 C24.7949246,1.25 25.2272119,1.42187328 25.5527344,1.765625 C25.8209649,2.04687641 25.9550781,2.36458156 25.9550781,2.71875 C25.9550781,3.22135668 25.6803413,3.62239434 25.1308594,3.921875 C25.458986,3.99218785 25.7213532,4.14973836 25.9179688,4.39453125 C26.1145843,4.63932414 26.2128906,4.9348941 26.2128906,5.28125 C26.2128906,5.78385668 26.0292987,6.21223781 25.6621094,6.56640625 C25.29492,6.92057469 24.8378934,7.09765625 24.2910156,7.09765625 C23.7727839,7.09765625 23.3431007,6.9485692 23.0019531,6.65039062 C22.6608056,6.35221205 22.4628909,5.96224199 22.4082031,5.48046875 Z" id="MOD3" fill="#FFFFFF"></path>
                </g>
                <g id="Mod2" transform="translate(35.000000, 0.000000)" fill-rule="nonzero">
                    <path d="M15.5,26 L13.5,26 L13.5,29 L15.5,29 L15.5,26 Z M15.5,30 L13.5,30 L13.5,33 L15.5,33 L15.5,30 Z M15.5,34 L13.5,34 L13.5,37 L15.5,37 L15.5,34 Z M15.5,38 L13.5,38 L13.5,41 L15.5,41 L15.5,38 Z M15.5,42 L13.5,42 L13.5,45 L15.5,45 L15.5,42 Z M15.5,46 L13.5,46 L13.5,49 L15.5,49 L15.5,46 Z M15.5,50 L13.5,50 L13.5,53 L15.5,53 L15.5,50 Z M15.5,54 L13.5,54 L13.5,57 L15.5,57 L15.5,54 Z" id="Line-Copy-6" fill="#E6E6E6"></path>
                    <path d="M4.00976562,7 L4.00976562,1.2734375 L5.74023438,1.2734375 L6.77929688,5.1796875 L7.80664062,1.2734375 L9.54101562,1.2734375 L9.54101562,7 L8.46679688,7 L8.46679688,2.4921875 L7.33007812,7 L6.21679688,7 L5.08398438,2.4921875 L5.08398438,7 L4.00976562,7 Z M10.4550781,4.171875 C10.4550781,3.58853875 10.5423168,3.09896031 10.7167969,2.703125 C10.8470059,2.41145687 11.0247385,2.14974074 11.25,1.91796875 C11.4752615,1.68619676 11.7220039,1.51432348 11.9902344,1.40234375 C12.347007,1.25130133 12.7584612,1.17578125 13.2246094,1.17578125 C14.0683636,1.17578125 14.7434871,1.43749738 15.25,1.9609375 C15.7565129,2.48437762 16.0097656,3.21223492 16.0097656,4.14453125 C16.0097656,5.06901504 15.7584661,5.7923151 15.2558594,6.31445312 C14.7532527,6.83659115 14.0813844,7.09765625 13.2402344,7.09765625 C12.3886676,7.09765625 11.7115911,6.83789322 11.2089844,6.31835938 C10.7063777,5.79882553 10.4550781,5.08333789 10.4550781,4.171875 Z M11.6464844,4.1328125 C11.6464844,4.78125324 11.7962225,5.27278479 12.0957031,5.60742188 C12.3951838,5.94205896 12.7753883,6.109375 13.2363281,6.109375 C13.6972679,6.109375 14.0755194,5.94336104 14.3710938,5.61132812 C14.6666681,5.27929521 14.8144531,4.78125332 14.8144531,4.1171875 C14.8144531,3.46093422 14.6705744,2.97135578 14.3828125,2.6484375 C14.0950506,2.32551922 13.712893,2.1640625 13.2363281,2.1640625 C12.7597632,2.1640625 12.3756525,2.32747232 12.0839844,2.65429688 C11.7923162,2.98112143 11.6464844,3.47395504 11.6464844,4.1328125 Z M16.9082031,1.2734375 L19.0214844,1.2734375 C19.4980493,1.2734375 19.8613269,1.30989547 20.1113281,1.3828125 C20.4472673,1.48177133 20.7350248,1.65755082 20.9746094,1.91015625 C21.2141939,2.16276168 21.3964838,2.47200338 21.5214844,2.83789062 C21.646485,3.20377787 21.7089844,3.65494523 21.7089844,4.19140625 C21.7089844,4.66276277 21.6503912,5.06900871 21.5332031,5.41015625 C21.3899732,5.826825 21.1855482,6.16406121 20.9199219,6.421875 C20.7194,6.61718848 20.4485694,6.7695307 20.1074219,6.87890625 C19.8522123,6.95963582 19.5110698,7 19.0839844,7 L16.9082031,7 L16.9082031,1.2734375 Z M18.0644531,2.2421875 L18.0644531,6.03515625 L18.9277344,6.03515625 L19.2207037,6.0290799 C19.3960507,6.02097809 19.5314665,6.00477443 19.6269531,5.98046875 C19.8144541,5.93359352 19.9700515,5.85416723 20.09375,5.7421875 C20.2174485,5.63020777 20.318359,5.44596482 20.3964844,5.18945312 C20.4746098,4.93294143 20.5136719,4.58333555 20.5136719,4.140625 C20.5136719,3.69791445 20.4746098,3.3580741 20.3964844,3.12109375 C20.318359,2.8841134 20.2089851,2.69921941 20.0683594,2.56640625 C19.9277337,2.43359309 19.74935,2.34375023 19.5332031,2.296875 L19.3830566,2.27294914 C19.2038579,2.2524413 18.9375018,2.2421875 18.5839844,2.2421875 L18.0644531,2.2421875 Z M26.1542969,5.98046875 L26.1542969,7 L22.3066406,7 C22.3483075,6.61458141 22.4733063,6.24935068 22.6816406,5.90429688 C22.8668267,5.59758238 23.2125026,5.20188109 23.7186769,4.71718337 L24.2175212,4.24594824 C24.5361944,3.93875275 24.7390765,3.7213548 24.8261719,3.59375 C24.9772143,3.36718637 25.0527344,3.14323027 25.0527344,2.921875 C25.0527344,2.67708211 24.9869798,2.48893295 24.8554688,2.35742188 C24.7239577,2.2259108 24.5423189,2.16015625 24.3105469,2.16015625 C24.0813791,2.16015625 23.8990892,2.22916598 23.7636719,2.3671875 C23.6282545,2.50520902 23.5501303,2.7343734 23.5292969,3.0546875 L22.4355469,2.9453125 C22.5006514,2.34114281 22.7050764,1.9075534 23.0488281,1.64453125 C23.3925798,1.3815091 23.822263,1.25 24.3378906,1.25 C24.9029976,1.25 25.3470036,1.40234223 25.6699219,1.70703125 C25.9928402,2.01172027 26.1542969,2.39062273 26.1542969,2.84375 C26.1542969,3.10156379 26.1080734,3.34700404 26.015625,3.58007812 C25.9231766,3.81315221 25.7766937,4.05729039 25.5761719,4.3125 C25.4813053,4.43340834 25.3319654,4.59218172 25.1281496,4.7888228 L24.3567808,5.51354999 C24.2864074,5.58264158 24.2338869,5.63671855 24.1992188,5.67578125 C24.1067704,5.77994844 24.0319013,5.88150992 23.9746094,5.98046875 L26.1542969,5.98046875 Z" id="MOD2" fill="#FFFFFF"></path>
                </g>
                <g id="Mod1" fill-rule="nonzero">
                    <path d="M15.5,25.5 L13.5,25.5 L13.5,28.5 L15.5,28.5 L15.5,25.5 Z M15.5,29.5 L13.5,29.5 L13.5,32.5 L15.5,32.5 L15.5,29.5 Z M15.5,33.5 L13.5,33.5 L13.5,36.5 L15.5,36.5 L15.5,33.5 Z M15.5,37.5 L13.5,37.5 L13.5,40.5 L15.5,40.5 L15.5,37.5 Z M15.5,41.5 L13.5,41.5 L13.5,44.5 L15.5,44.5 L15.5,41.5 Z M15.5,45.5 L13.5,45.5 L13.5,48.5 L15.5,48.5 L15.5,45.5 Z M15.5,49.5 L13.5,49.5 L13.5,52.5 L15.5,52.5 L15.5,49.5 Z M15.5,53.5 L13.5,53.5 L13.5,56.5 L15.5,56.5 L15.5,53.5 Z" id="Line-Copy-7" fill="#E6E6E6"></path>
                    <path d="M4.00976562,7 L4.00976562,1.2734375 L5.74023438,1.2734375 L6.77929688,5.1796875 L7.80664062,1.2734375 L9.54101562,1.2734375 L9.54101562,7 L8.46679688,7 L8.46679688,2.4921875 L7.33007812,7 L6.21679688,7 L5.08398438,2.4921875 L5.08398438,7 L4.00976562,7 Z M10.4550781,4.171875 C10.4550781,3.58853875 10.5423168,3.09896031 10.7167969,2.703125 C10.8470059,2.41145687 11.0247385,2.14974074 11.25,1.91796875 C11.4752615,1.68619676 11.7220039,1.51432348 11.9902344,1.40234375 C12.347007,1.25130133 12.7584612,1.17578125 13.2246094,1.17578125 C14.0683636,1.17578125 14.7434871,1.43749738 15.25,1.9609375 C15.7565129,2.48437762 16.0097656,3.21223492 16.0097656,4.14453125 C16.0097656,5.06901504 15.7584661,5.7923151 15.2558594,6.31445312 C14.7532527,6.83659115 14.0813844,7.09765625 13.2402344,7.09765625 C12.3886676,7.09765625 11.7115911,6.83789322 11.2089844,6.31835938 C10.7063777,5.79882553 10.4550781,5.08333789 10.4550781,4.171875 Z M11.6464844,4.1328125 C11.6464844,4.78125324 11.7962225,5.27278479 12.0957031,5.60742188 C12.3951838,5.94205896 12.7753883,6.109375 13.2363281,6.109375 C13.6972679,6.109375 14.0755194,5.94336104 14.3710938,5.61132812 C14.6666681,5.27929521 14.8144531,4.78125332 14.8144531,4.1171875 C14.8144531,3.46093422 14.6705744,2.97135578 14.3828125,2.6484375 C14.0950506,2.32551922 13.712893,2.1640625 13.2363281,2.1640625 C12.7597632,2.1640625 12.3756525,2.32747232 12.0839844,2.65429688 C11.7923162,2.98112143 11.6464844,3.47395504 11.6464844,4.1328125 Z M16.9082031,1.2734375 L19.0214844,1.2734375 C19.4980493,1.2734375 19.8613269,1.30989547 20.1113281,1.3828125 C20.4472673,1.48177133 20.7350248,1.65755082 20.9746094,1.91015625 C21.2141939,2.16276168 21.3964838,2.47200338 21.5214844,2.83789062 C21.646485,3.20377787 21.7089844,3.65494523 21.7089844,4.19140625 C21.7089844,4.66276277 21.6503912,5.06900871 21.5332031,5.41015625 C21.3899732,5.826825 21.1855482,6.16406121 20.9199219,6.421875 C20.7194,6.61718848 20.4485694,6.7695307 20.1074219,6.87890625 C19.8522123,6.95963582 19.5110698,7 19.0839844,7 L16.9082031,7 L16.9082031,1.2734375 Z M18.0644531,2.2421875 L18.0644531,6.03515625 L18.9277344,6.03515625 L19.2207037,6.0290799 C19.3960507,6.02097809 19.5314665,6.00477443 19.6269531,5.98046875 C19.8144541,5.93359352 19.9700515,5.85416723 20.09375,5.7421875 C20.2174485,5.63020777 20.318359,5.44596482 20.3964844,5.18945312 C20.4746098,4.93294143 20.5136719,4.58333555 20.5136719,4.140625 C20.5136719,3.69791445 20.4746098,3.3580741 20.3964844,3.12109375 C20.318359,2.8841134 20.2089851,2.69921941 20.0683594,2.56640625 C19.9277337,2.43359309 19.74935,2.34375023 19.5332031,2.296875 L19.3830566,2.27294914 C19.2038579,2.2524413 18.9375018,2.2421875 18.5839844,2.2421875 L18.0644531,2.2421875 Z M25.2558594,7 L24.1582031,7 L24.1582031,2.86328125 C23.7571595,3.23828313 23.2845079,3.5156241 22.7402344,3.6953125 L22.7402344,2.69921875 C23.0266941,2.60546828 23.3378889,2.42773568 23.6738281,2.16601562 C24.0097673,1.90429557 24.2402344,1.59896008 24.3652344,1.25 L25.2558594,1.25 L25.2558594,7 Z" id="MOD1" fill="#FFFFFF"></path>
                </g>
            </g>
            <g id="Frequency" transform="translate(0.000000, 4.000000)">
                <g id="Normal" transform="translate(28.000000, 60.000000)" fill="#000000">
                    <polygon id="Triangle" transform="translate(4.500000, 4.500000) rotate(-270.000000) translate(-4.500000, -4.500000) " points="4.5 0 9 9 0 9"></polygon>
                    <polygon id="Triangle-Copy" transform="translate(39.500000, 4.500000) rotate(-270.000000) translate(-39.500000, -4.500000) " points="39.5 0 44 9 35 9"></polygon>
                </g>
                <g id="Voct3" transform="translate(70.000000, 0.000000)" fill-rule="nonzero">
                    <path d="M15.5,19 L13.5,19 L13.5,22 L15.5,22 L15.5,19 Z M15.5,23 L13.5,23 L13.5,26 L15.5,26 L15.5,23 Z M15.5,27 L13.5,27 L13.5,30 L15.5,30 L15.5,27 Z M15.5,31 L13.5,31 L13.5,34 L15.5,34 L15.5,31 Z M15.5,35 L13.5,35 L13.5,38 L15.5,38 L15.5,35 Z M15.5,39 L13.5,39 L13.5,42 L15.5,42 L15.5,39 Z M15.5,43 L13.5,43 L13.5,46 L15.5,46 L15.5,43 Z M15.5,47 L13.5,47 L13.5,50 L15.5,50 L15.5,47 Z M15.5,51 L13.5,51 L13.5,54 L15.5,54 L15.5,51 Z M15.5,55 L13.5,55 L13.5,58 L15.5,58 L15.5,55 Z" id="Line-Copy-12" fill="#E6E6E6"></path>
                    <path d="M3.70703125,6.82421875 L1.66015625,1.09765625 L2.9140625,1.09765625 L4.36328125,5.3359375 L5.765625,1.09765625 L6.9921875,1.09765625 L4.94140625,6.82421875 L3.70703125,6.82421875 Z M7.34765625,3.99609375 C7.34765625,3.4127575 7.43489496,2.92317906 7.609375,2.52734375 C7.73958398,2.23567562 7.91731658,1.97395949 8.14257812,1.7421875 C8.36783967,1.51041551 8.61458199,1.33854223 8.8828125,1.2265625 C9.23958512,1.07552008 9.65103934,1 10.1171875,1 C10.9609417,1 11.6360652,1.26171613 12.1425781,1.78515625 C12.6490911,2.30859637 12.9023438,3.03645367 12.9023438,3.96875 C12.9023438,4.89323379 12.6510442,5.61653385 12.1484375,6.13867188 C11.6458308,6.6608099 10.9739625,6.921875 10.1328125,6.921875 C9.28124574,6.921875 8.60416918,6.66211197 8.1015625,6.14257812 C7.59895582,5.62304428 7.34765625,4.90755664 7.34765625,3.99609375 Z M8.5390625,3.95703125 C8.5390625,4.60547199 8.68880059,5.09700354 8.98828125,5.43164062 C9.28776191,5.76627771 9.66796645,5.93359375 10.1289062,5.93359375 C10.5898461,5.93359375 10.9680975,5.76757979 11.2636719,5.43554688 C11.5592463,5.10351396 11.7070312,4.60547207 11.7070312,3.94140625 C11.7070312,3.28515297 11.5631525,2.79557453 11.2753906,2.47265625 C10.9876288,2.14973797 10.6054711,1.98828125 10.1289062,1.98828125 C9.65234137,1.98828125 9.26823063,2.15169107 8.9765625,2.47851562 C8.68489437,2.80534018 8.5390625,3.29817379 8.5390625,3.95703125 Z M17.46875,4.71875 L18.5898438,5.07421875 C18.4179679,5.69922188 18.1321635,6.16340994 17.7324219,6.46679688 C17.3326803,6.77018381 16.8255239,6.921875 16.2109375,6.921875 C15.450517,6.921875 14.8255233,6.66211197 14.3359375,6.14257812 C13.8463517,5.62304428 13.6015625,4.91276492 13.6015625,4.01171875 C13.6015625,3.05858898 13.8476538,2.31836201 14.3398438,1.79101562 C14.8320337,1.26366924 15.4791627,1 16.28125,1 C16.9817743,1 17.5507791,1.20702918 17.9882812,1.62109375 C18.2486992,1.86588664 18.4440098,2.21744562 18.5742188,2.67578125 L17.4296875,2.94921875 C17.3619788,2.65234227 17.2207042,2.41796961 17.0058594,2.24609375 C16.7910146,2.07421789 16.5299495,1.98828125 16.2226562,1.98828125 C15.798175,1.98828125 15.4537774,2.14062348 15.1894531,2.4453125 C14.9251289,2.75000152 14.7929688,3.24348617 14.7929688,3.92578125 C14.7929688,4.6497432 14.9231758,5.16536305 15.1835938,5.47265625 C15.4440117,5.77994945 15.78255,5.93359375 16.1992188,5.93359375 C16.506512,5.93359375 16.7708322,5.83593848 16.9921875,5.640625 C17.2135428,5.44531152 17.3723954,5.13802293 17.46875,4.71875 Z M20.8710938,6.82421875 L20.8710938,2.06640625 L19.171875,2.06640625 L19.171875,1.09765625 L23.7226562,1.09765625 L23.7226562,2.06640625 L22.0273438,2.06640625 L22.0273438,6.82421875 L20.8710938,6.82421875 Z M24.1875,5.3046875 L25.25,5.17578125 C25.2838543,5.44661594 25.3749993,5.65364512 25.5234375,5.796875 C25.6718757,5.94010488 25.8515614,6.01171875 26.0625,6.01171875 C26.2890636,6.01171875 26.4798169,5.92578211 26.6347656,5.75390625 C26.7897143,5.58203039 26.8671875,5.35026188 26.8671875,5.05859375 C26.8671875,4.7825507 26.7929695,4.56380289 26.6445312,4.40234375 C26.496093,4.24088461 26.3151052,4.16015625 26.1015625,4.16015625 C25.9609368,4.16015625 25.7929697,4.18749973 25.5976562,4.2421875 L25.71875,3.34765625 C26.0156265,3.35546879 26.2421867,3.29101631 26.3984375,3.15429688 C26.5546883,3.01757744 26.6328125,2.83593863 26.6328125,2.609375 C26.6328125,2.4166657 26.5755214,2.26302141 26.4609375,2.1484375 C26.3463536,2.03385359 26.1940114,1.9765625 26.0039062,1.9765625 C25.8164053,1.9765625 25.6562507,2.04166602 25.5234375,2.171875 C25.3906243,2.30208398 25.309896,2.49218625 25.28125,2.7421875 L24.2695312,2.5703125 C24.3398441,2.2239566 24.4459628,1.94726666 24.5878906,1.74023438 C24.7298184,1.53320209 24.9277331,1.3704433 25.1816406,1.25195312 C25.4355481,1.13346295 25.7200505,1.07421875 26.0351562,1.07421875 C26.5742214,1.07421875 27.0065088,1.24609203 27.3320312,1.58984375 C27.6002618,1.87109516 27.734375,2.18880031 27.734375,2.54296875 C27.734375,3.04557543 27.4596382,3.44661309 26.9101562,3.74609375 C27.2382829,3.8164066 27.5006501,3.97395711 27.6972656,4.21875 C27.8938812,4.46354289 27.9921875,4.75911285 27.9921875,5.10546875 C27.9921875,5.60807543 27.8085956,6.03645656 27.4414062,6.390625 C27.0742169,6.74479344 26.6171902,6.921875 26.0703125,6.921875 C25.5520807,6.921875 25.1223975,6.77278795 24.78125,6.47460938 C24.4401025,6.1764308 24.2421878,5.78646074 24.1875,5.3046875 Z" id="VOCT3" fill="#FFFFFF"></path>
                </g>
                <g id="Voct2" transform="translate(35.000000, 0.000000)" fill-rule="nonzero">
                    <path d="M15.5,19 L13.5,19 L13.5,22 L15.5,22 L15.5,19 Z M15.5,23 L13.5,23 L13.5,26 L15.5,26 L15.5,23 Z M15.5,27 L13.5,27 L13.5,30 L15.5,30 L15.5,27 Z M15.5,31 L13.5,31 L13.5,34 L15.5,34 L15.5,31 Z M15.5,35 L13.5,35 L13.5,38 L15.5,38 L15.5,35 Z M15.5,39 L13.5,39 L13.5,42 L15.5,42 L15.5,39 Z M15.5,43 L13.5,43 L13.5,46 L15.5,46 L15.5,43 Z M15.5,47 L13.5,47 L13.5,50 L15.5,50 L15.5,47 Z M15.5,51 L13.5,51 L13.5,54 L15.5,54 L15.5,51 Z M15.5,55 L13.5,55 L13.5,58 L15.5,58 L15.5,55 Z" id="Line-Copy-13" fill="#E6E6E6"></path>
                    <path d="M3.70703125,6.82421875 L1.66015625,1.09765625 L2.9140625,1.09765625 L4.36328125,5.3359375 L5.765625,1.09765625 L6.9921875,1.09765625 L4.94140625,6.82421875 L3.70703125,6.82421875 Z M7.34765625,3.99609375 C7.34765625,3.4127575 7.43489496,2.92317906 7.609375,2.52734375 C7.73958398,2.23567562 7.91731658,1.97395949 8.14257812,1.7421875 C8.36783967,1.51041551 8.61458199,1.33854223 8.8828125,1.2265625 C9.23958512,1.07552008 9.65103934,1 10.1171875,1 C10.9609417,1 11.6360652,1.26171613 12.1425781,1.78515625 C12.6490911,2.30859637 12.9023438,3.03645367 12.9023438,3.96875 C12.9023438,4.89323379 12.6510442,5.61653385 12.1484375,6.13867188 C11.6458308,6.6608099 10.9739625,6.921875 10.1328125,6.921875 C9.28124574,6.921875 8.60416918,6.66211197 8.1015625,6.14257812 C7.59895582,5.62304428 7.34765625,4.90755664 7.34765625,3.99609375 Z M8.5390625,3.95703125 C8.5390625,4.60547199 8.68880059,5.09700354 8.98828125,5.43164062 C9.28776191,5.76627771 9.66796645,5.93359375 10.1289062,5.93359375 C10.5898461,5.93359375 10.9680975,5.76757979 11.2636719,5.43554688 C11.5592463,5.10351396 11.7070312,4.60547207 11.7070312,3.94140625 C11.7070312,3.28515297 11.5631525,2.79557453 11.2753906,2.47265625 C10.9876288,2.14973797 10.6054711,1.98828125 10.1289062,1.98828125 C9.65234137,1.98828125 9.26823063,2.15169107 8.9765625,2.47851562 C8.68489437,2.80534018 8.5390625,3.29817379 8.5390625,3.95703125 Z M17.46875,4.71875 L18.5898438,5.07421875 C18.4179679,5.69922188 18.1321635,6.16340994 17.7324219,6.46679688 C17.3326803,6.77018381 16.8255239,6.921875 16.2109375,6.921875 C15.450517,6.921875 14.8255233,6.66211197 14.3359375,6.14257812 C13.8463517,5.62304428 13.6015625,4.91276492 13.6015625,4.01171875 C13.6015625,3.05858898 13.8476538,2.31836201 14.3398438,1.79101562 C14.8320337,1.26366924 15.4791627,1 16.28125,1 C16.9817743,1 17.5507791,1.20702918 17.9882812,1.62109375 C18.2486992,1.86588664 18.4440098,2.21744562 18.5742188,2.67578125 L17.4296875,2.94921875 C17.3619788,2.65234227 17.2207042,2.41796961 17.0058594,2.24609375 C16.7910146,2.07421789 16.5299495,1.98828125 16.2226562,1.98828125 C15.798175,1.98828125 15.4537774,2.14062348 15.1894531,2.4453125 C14.9251289,2.75000152 14.7929688,3.24348617 14.7929688,3.92578125 C14.7929688,4.6497432 14.9231758,5.16536305 15.1835938,5.47265625 C15.4440117,5.77994945 15.78255,5.93359375 16.1992188,5.93359375 C16.506512,5.93359375 16.7708322,5.83593848 16.9921875,5.640625 C17.2135428,5.44531152 17.3723954,5.13802293 17.46875,4.71875 Z M20.8710938,6.82421875 L20.8710938,2.06640625 L19.171875,2.06640625 L19.171875,1.09765625 L23.7226562,1.09765625 L23.7226562,2.06640625 L22.0273438,2.06640625 L22.0273438,6.82421875 L20.8710938,6.82421875 Z M27.9335938,5.8046875 L27.9335938,6.82421875 L24.0859375,6.82421875 C24.1276044,6.43880016 24.2526031,6.07356943 24.4609375,5.72851562 C24.6461236,5.42180113 24.9917995,5.02609984 25.4979738,4.54140212 L25.6953125,4.35546875 C26.1901066,3.89452895 26.493489,3.58203207 26.6054688,3.41796875 C26.7565112,3.19140512 26.8320312,2.96744902 26.8320312,2.74609375 C26.8320312,2.50130086 26.7662767,2.3131517 26.6347656,2.18164062 C26.5032546,2.05012955 26.3216157,1.984375 26.0898438,1.984375 C25.8606759,1.984375 25.6783861,2.05338473 25.5429688,2.19140625 C25.4075514,2.32942777 25.3294272,2.55859215 25.3085938,2.87890625 L24.2148438,2.76953125 C24.2799482,2.16536156 24.4843733,1.73177215 24.828125,1.46875 C25.1718767,1.20572785 25.6015599,1.07421875 26.1171875,1.07421875 C26.6822945,1.07421875 27.1263005,1.22656098 27.4492188,1.53125 C27.772137,1.83593902 27.9335938,2.21484148 27.9335938,2.66796875 C27.9335938,2.92578254 27.8873703,3.17122279 27.7949219,3.40429688 C27.7024735,3.63737096 27.5559906,3.88150914 27.3554688,4.13671875 C27.2416289,4.28180876 27.0493474,4.48142442 26.7786198,4.73557034 L26.2124019,5.26367228 C26.1027016,5.36914076 26.0247398,5.44791641 25.9785156,5.5 C25.8860672,5.60416719 25.8111982,5.70572867 25.7539062,5.8046875 L27.9335938,5.8046875 Z" id="VOCT2" fill="#FFFFFF"></path>
                </g>
                <g id="Voct1" fill-rule="nonzero">
                    <path d="M15.5,20 L13.5,20 L13.5,23 L15.5,23 L15.5,20 Z M15.5,24 L13.5,24 L13.5,27 L15.5,27 L15.5,24 Z M15.5,28 L13.5,28 L13.5,31 L15.5,31 L15.5,28 Z M15.5,32 L13.5,32 L13.5,35 L15.5,35 L15.5,32 Z M15.5,36 L13.5,36 L13.5,39 L15.5,39 L15.5,36 Z M15.5,40 L13.5,40 L13.5,43 L15.5,43 L15.5,40 Z M15.5,44 L13.5,44 L13.5,47 L15.5,47 L15.5,44 Z M15.5,48 L13.5,48 L13.5,51 L15.5,51 L15.5,48 Z M15.5,52 L13.5,52 L13.5,55 L15.5,55 L15.5,52 Z M15.5,56 L13.5,56 L13.5,59 L15.5,59 L15.5,56 Z" id="Line-Copy-11" fill="#E6E6E6"></path>
                    <path d="M3.70703125,6.82421875 L1.66015625,1.09765625 L2.9140625,1.09765625 L4.36328125,5.3359375 L5.765625,1.09765625 L6.9921875,1.09765625 L4.94140625,6.82421875 L3.70703125,6.82421875 Z M7.34765625,3.99609375 C7.34765625,3.4127575 7.43489496,2.92317906 7.609375,2.52734375 C7.73958398,2.23567562 7.91731658,1.97395949 8.14257812,1.7421875 C8.36783967,1.51041551 8.61458199,1.33854223 8.8828125,1.2265625 C9.23958512,1.07552008 9.65103934,1 10.1171875,1 C10.9609417,1 11.6360652,1.26171613 12.1425781,1.78515625 C12.6490911,2.30859637 12.9023438,3.03645367 12.9023438,3.96875 C12.9023438,4.89323379 12.6510442,5.61653385 12.1484375,6.13867188 C11.6458308,6.6608099 10.9739625,6.921875 10.1328125,6.921875 C9.28124574,6.921875 8.60416918,6.66211197 8.1015625,6.14257812 C7.59895582,5.62304428 7.34765625,4.90755664 7.34765625,3.99609375 Z M8.5390625,3.95703125 C8.5390625,4.60547199 8.68880059,5.09700354 8.98828125,5.43164062 C9.28776191,5.76627771 9.66796645,5.93359375 10.1289062,5.93359375 C10.5898461,5.93359375 10.9680975,5.76757979 11.2636719,5.43554688 C11.5592463,5.10351396 11.7070312,4.60547207 11.7070312,3.94140625 C11.7070312,3.28515297 11.5631525,2.79557453 11.2753906,2.47265625 C10.9876288,2.14973797 10.6054711,1.98828125 10.1289062,1.98828125 C9.65234137,1.98828125 9.26823063,2.15169107 8.9765625,2.47851562 C8.68489437,2.80534018 8.5390625,3.29817379 8.5390625,3.95703125 Z M17.46875,4.71875 L18.5898438,5.07421875 C18.4179679,5.69922188 18.1321635,6.16340994 17.7324219,6.46679688 C17.3326803,6.77018381 16.8255239,6.921875 16.2109375,6.921875 C15.450517,6.921875 14.8255233,6.66211197 14.3359375,6.14257812 C13.8463517,5.62304428 13.6015625,4.91276492 13.6015625,4.01171875 C13.6015625,3.05858898 13.8476538,2.31836201 14.3398438,1.79101562 C14.8320337,1.26366924 15.4791627,1 16.28125,1 C16.9817743,1 17.5507791,1.20702918 17.9882812,1.62109375 C18.2486992,1.86588664 18.4440098,2.21744562 18.5742188,2.67578125 L17.4296875,2.94921875 C17.3619788,2.65234227 17.2207042,2.41796961 17.0058594,2.24609375 C16.7910146,2.07421789 16.5299495,1.98828125 16.2226562,1.98828125 C15.798175,1.98828125 15.4537774,2.14062348 15.1894531,2.4453125 C14.9251289,2.75000152 14.7929688,3.24348617 14.7929688,3.92578125 C14.7929688,4.6497432 14.9231758,5.16536305 15.1835938,5.47265625 C15.4440117,5.77994945 15.78255,5.93359375 16.1992188,5.93359375 C16.506512,5.93359375 16.7708322,5.83593848 16.9921875,5.640625 C17.2135428,5.44531152 17.3723954,5.13802293 17.46875,4.71875 Z M20.8710938,6.82421875 L20.8710938,2.06640625 L19.171875,2.06640625 L19.171875,1.09765625 L23.7226562,1.09765625 L23.7226562,2.06640625 L22.0273438,2.06640625 L22.0273438,6.82421875 L20.8710938,6.82421875 Z M27.0351562,6.82421875 L25.9375,6.82421875 L25.9375,2.6875 C25.5364563,3.06250188 25.0638048,3.33984285 24.5195312,3.51953125 L24.5195312,2.5234375 C24.805991,2.42968703 25.1171858,2.25195443 25.453125,1.99023438 C25.7890642,1.72851432 26.0195312,1.42317883 26.1445312,1.07421875 L27.0351562,1.07421875 L27.0351562,6.82421875 Z" id="VOCT1" fill="#FFFFFF"></path>
                </g>
            </g>
        </g>
    </g>
</svg>