<?xml version="1.0" encoding="UTF-8"?>
<svg width="150px" height="380px" viewBox="0 0 150 380" version="1.1" xmlns="http://www.w3.org/2000/svg" xmlns:xlink="http://www.w3.org/1999/xlink">
    <!-- Generator: Sketch 61.2 (89653) - https://sketch.com -->
    <title>InfiniteStairs</title>
    <desc>Created with Sketch.</desc>
    <g id="InfiniteStairs" stroke="none" stroke-width="1" fill="none" fill-rule="evenodd">
        <g id="bg">
            <rect id="cover" fill="#E6E6E6" x="0" y="0" width="150" height="380" rx="2"></rect>
            <path d="M32,29 C34.7614237,29 37,31.2385763 37,34 L37,346 C37,348.761424 34.7614237,351 32,351 L12,351 C9.23857625,351 7,348.761424 7,346 L7,34 C7,31.2385763 9.23857625,29 12,29 L32,29 Z M67,29 C69.7614237,29 72,31.2385763 72,34 L72,346 C72,348.761424 69.7614237,351 67,351 L47,351 C44.2385763,351 42,348.761424 42,346 L42,34 C42,31.2385763 44.2385763,29 47,29 L67,29 Z M102,29 C104.761424,29 107,31.2385763 107,34 L107,346 C107,348.761424 104.761424,351 102,351 L82,351 C79.2385763,351 77,348.761424 77,346 L77,34 C77,31.2385763 79.2385763,29 82,29 L102,29 Z M137,29 C139.761424,29 142,31.2385763 142,34 L142,346 C142,348.761424 139.761424,351 137,351 L117,351 C114.238576,351 112,348.761424 112,346 L112,34 C112,31.2385763 114.238576,29 117,29 L137,29 Z" id="voice-lanes" fill="#EA4F4F"></path>
            <g id="Normal" transform="translate(36.000000, 78.000000)">
                <g fill="#000000">
                    <polygon id="Triangle" transform="translate(4.500000, 4.500000) rotate(-270.000000) translate(-4.500000, -4.500000) " points="4.5 0 9 9 0 9"></polygon>
                    <polygon id="Triangle-Copy" transform="translate(39.500000, 4.500000) rotate(-270.000000) translate(-39.500000, -4.500000) " points="39.5 0 44 9 35 9"></polygon>
                </g>
                <g id="Normal-Copy" transform="translate(0.000000, 28.000000)" fill="#000000">
                    <polygon id="Triangle" transform="translate(4.500000, 4.500000) rotate(-270.000000) translate(-4.500000, -4.500000) " points="4.5 0 9 9 0 9"></polygon>
                    <polygon id="Triangle-Copy" transform="translate(39.500000, 4.500000) rotate(-270.000000) translate(-39.500000, -4.500000) " points="39.5 0 44 9 35 9"></polygon>
                </g>
                <g id="Normal-Copy-2" transform="translate(0.000000, 139.000000)" fill="#000000">
                    <polygon id="Triangle" transform="translate(4.500000, 4.500000) rotate(-270.000000) translate(-4.500000, -4.500000) " points="4.5 0 9 9 0 9"></polygon>
                    <polygon id="Triangle-Copy" transform="translate(39.500000, 4.500000) rotate(-270.000000) translate(-39.500000, -4.500000) " points="39.5 0 44 9 35 9"></polygon>
                    <polygon id="Line-2-Copy" fill-rule="nonzero" points="74 4 74 5 40 5 40 4"></polygon>
                    <polygon id="Triangle-Copy-2" transform="translate(74.500000, 4.500000) rotate(-270.000000) translate(-74.500000, -4.500000) " points="74.5 0 79 9 70 9"></polygon>
                </g>
                <g id="Normal-Copy-3" transform="translate(0.000000, 211.000000)" fill="#000000">
                    <polygon id="Triangle" transform="translate(4.500000, 4.500000) rotate(-270.000000) translate(-4.500000, -4.500000) " points="4.5 0 9 9 0 9"></polygon>
                </g>
                <g id="Normal-Copy-4" transform="translate(0.000000, 254.000000)" stroke="#1D1D1D" stroke-width="2">
                    <polygon id="Triangle" transform="translate(4.500000, 4.500000) rotate(-270.000000) translate(-4.500000, -4.500000) " points="4.5 0 9 9 0 9"></polygon>
                    <polygon id="Triangle-Copy" transform="translate(39.500000, 4.500000) rotate(-270.000000) translate(-39.500000, -4.500000) " points="39.5 0 44 9 35 9"></polygon>
                    <polygon id="Triangle-Copy-2" transform="translate(74.500000, 4.500000) rotate(-270.000000) translate(-74.500000, -4.500000) " points="74.5 0 79 9 70 9"></polygon>
                </g>
            </g>
            <g id="Logo/Panel/LightMode" transform="translate(43.000000, 364.000000)" fill="#000000" fill-rule="nonzero">
                <g id="Logo/Print/LightMode" transform="translate(0.000000, -0.000000)">
                    <path d="M1.95775432,2.18314699 L3.38562168,2.18314699 L3.38562168,4.8949551 L6.06699634,2.18314699 L7.94254488,2.18314699 L5.09623504,4.8949551 L8.08863032,8.76832845 L6.22250665,8.76832845 L4.0783494,5.89122067 L3.38562168,6.56582203 L3.38562168,8.76832845 L1.95775432,8.76832845 L1.95775432,2.18314699 Z M11.6276679,6.40052236 C11.5428437,6.45115495 11.4572353,6.49210716 11.3708403,6.52338022 C11.2844452,6.55465329 11.1658502,6.58369213 11.0150515,6.61049762 L10.7134558,6.66410832 C10.4307084,6.71176252 10.2280757,6.7698402 10.1055519,6.83834311 C9.89820375,6.95450021 9.79453125,7.13468994 9.79453125,7.37891771 C9.79453125,7.59633998 9.85814847,7.75344755 9.98538481,7.85024514 C10.1126211,7.94704273 10.2673445,7.9954408 10.4495595,7.9954408 C10.7385902,7.9954408 11.00484,7.91502555 11.248317,7.75419263 C11.4917939,7.59335972 11.618243,7.29999297 11.6276679,6.87408358 L11.6276679,6.40052236 Z M10.8124169,5.80633706 C11.0606051,5.77655319 11.2381062,5.7393239 11.3449219,5.69464809 C11.5365618,5.61721002 11.6323803,5.49658715 11.6323803,5.33277584 C11.6323803,5.13322389 11.5593383,4.99547554 11.4132522,4.91952667 C11.267166,4.84357779 11.0527524,4.80560392 10.770005,4.80560392 C10.4526995,4.80560392 10.2280758,4.88006249 10.096127,5.02898185 C10.0018779,5.13918219 9.93904603,5.28809932 9.90762965,5.47573772 L8.61171044,5.47573772 C8.63998518,5.04982833 8.76564882,4.69987307 8.98870512,4.42586144 C9.34371022,3.99697366 9.95317886,3.78253299 10.8171293,3.78253299 C11.3794825,3.78253299 11.8789955,3.88826416 12.3156832,4.09972966 C12.7523709,4.31119516 12.9707114,4.71029307 12.9707114,5.29703537 L12.9707114,7.5308147 C12.9707114,7.68569084 12.973853,7.87332643 12.9801363,8.09372709 C12.9895612,8.26051678 13.0162647,8.3736938 13.0602477,8.43326155 C13.1042306,8.49282929 13.170204,8.54197195 13.2581699,8.58069098 L13.2581699,8.76832845 L11.7973155,8.76832845 C11.7564742,8.67004166 11.7281999,8.57771304 11.7124917,8.49133981 C11.6967835,8.40496658 11.6842171,8.30668127 11.6747922,8.19648094 C11.4894356,8.38709773 11.2758074,8.5494174 11.0339013,8.68344483 C10.7448706,8.84129936 10.4181451,8.92022544 10.0537151,8.92022544 C9.58875266,8.92022544 9.20469317,8.79439046 8.9015251,8.54271673 C8.59835703,8.291043 8.44677527,7.93438647 8.44677527,7.47273644 C8.44677527,6.87408058 8.69024856,6.44073173 9.17720246,6.17267687 C9.44424169,6.02673589 9.83694056,5.9224939 10.3553108,5.85994776 L10.8124169,5.80633706 Z M15.5012882,3.89868952 L15.5012882,6.83387555 C15.5012882,7.11086557 15.5358457,7.31934956 15.6049618,7.45933376 C15.7274857,7.70653991 15.9678174,7.83014113 16.3259641,7.83014113 C16.7846433,7.83014113 17.0988023,7.65441891 17.2684508,7.30296921 C17.3564167,7.11235242 17.4003989,6.86068247 17.4003989,6.5479518 L17.4003989,3.89868952 L18.7622922,3.89868952 L18.7622922,8.76832845 L17.4569481,8.76832845 L17.4569481,8.08032441 L17.4405489,8.10176866 C17.4238355,8.12470204 17.3978858,8.16222939 17.3626995,8.21435117 C17.3124333,8.28881086 17.252743,8.35433439 17.183627,8.41092375 C16.9731372,8.58962699 16.7697192,8.71173904 16.5733669,8.77726356 C16.3770145,8.84278808 16.1468929,8.87554985 15.8829953,8.87554985 C15.1227189,8.87554985 14.6106396,8.61643404 14.346742,8.09819465 C14.199085,7.81226946 14.1252576,7.39083398 14.1252576,6.83387555 L14.1252576,3.89868952 L15.5012882,3.89868952 Z M19.5304189,4.85027951 L19.5304189,3.9433651 L20.2467088,3.9433651 L20.2467088,2.58522727 L21.575615,2.58522727 L21.575615,3.9433651 L22.4097158,3.9433651 L22.4097158,4.85027951 L21.575615,4.85027951 L21.575615,7.42359329 C21.575615,7.62314524 21.6023185,7.74749105 21.6557264,7.79663444 C21.7091342,7.84577783 21.872497,7.87034916 22.1458195,7.87034916 C22.1866608,7.87034916 22.2298577,7.86960457 22.2754114,7.86811538 C22.3209652,7.86662618 22.3657328,7.86439243 22.4097158,7.86141404 L22.4097158,8.81300403 L21.7735372,8.83534183 C21.1389263,8.85619054 20.7053868,8.75194854 20.4729056,8.52261272 C20.322107,8.37667174 20.2467088,8.15180687 20.2467088,7.84801136 L20.2467088,4.85027951 L19.5304189,4.85027951 Z M25.2984375,4.8190066 C24.9874153,4.8190066 24.7462982,4.91133522 24.575079,5.09599523 C24.4038597,5.28065525 24.2962602,5.53083603 24.2522773,5.84654509 L26.3398853,5.84654509 C26.3178938,5.50998732 26.2102944,5.25459444 26.0170836,5.08035878 C25.8238729,4.90612312 25.5843266,4.8190066 25.2984375,4.8190066 Z M25.2984375,3.76913032 C25.7257003,3.76913032 26.1105452,3.84507805 26.4529837,3.99697581 C26.7954223,4.14887356 27.0781654,4.38863014 27.3012217,4.71625275 C27.5022866,5.00515632 27.6326626,5.34021987 27.6923537,5.72145345 C27.7269117,5.9448325 27.7410489,6.2664935 27.7347656,6.68644611 L24.2192902,6.68644611 C24.2381401,7.17490164 24.399932,7.51741104 24.7046709,7.7139846 C24.8900275,7.83609848 25.1130805,7.89715451 25.3738364,7.89715451 C25.6503006,7.89715451 25.8749243,7.82269594 26.0477144,7.67377658 C26.1419636,7.59336012 26.2252157,7.48167227 26.2974734,7.33870968 L27.6687916,7.33870968 C27.6342335,7.62761325 27.4755832,7.92098 27.1928358,8.21881873 C26.7530064,8.69238232 26.1372546,8.92916056 25.3455618,8.92916056 C24.6921011,8.92916056 24.1156192,8.7296116 23.6160987,8.3305077 C23.1165783,7.9314038 22.8668218,7.2821251 22.8668218,6.38265213 C22.8668218,5.53976851 23.092231,4.89346816 23.543056,4.44373167 C23.9938811,3.99399519 24.5790024,3.76913032 25.2984375,3.76913032 Z M31.4858627,3.78253299 C32.0167995,3.78253299 32.4511245,3.91432465 32.7888506,4.17791193 C33.1265767,4.44149921 33.2954372,4.87857099 33.2954372,5.4891404 L33.2954372,8.76832845 L31.9194066,8.76832845 L31.9194066,5.80633706 C31.9194066,5.55019575 31.8832783,5.35362514 31.8110206,5.21661932 C31.6790718,4.96643478 31.4277445,4.84134439 31.0570313,4.84134439 C30.6014937,4.84134439 30.2889054,5.02451246 30.119257,5.39085411 C30.0312911,5.58444928 29.9873088,5.83165172 29.9873088,6.13246884 L29.9873088,8.76832845 L28.6489777,8.76832845 L28.6489777,3.90762463 L29.9448969,3.90762463 L29.9448969,4.61796646 C30.117687,4.36778192 30.2810498,4.18759219 30.43499,4.07739186 C30.7114542,3.8808183 31.0617416,3.78253299 31.4858627,3.78253299 Z M35.9391124,3.31790689 L34.5960688,3.31790689 L34.5960688,2.14293897 L35.9391124,2.14293897 L35.9391124,3.31790689 Z M33.9504654,10.7206516 L33.9504654,9.7020482 L34.0978762,9.71255395 L34.0978762,9.71255395 L34.1106882,9.7132171 C34.1421045,9.71470629 34.1703789,9.71545088 34.195512,9.71545088 C34.3274608,9.71545088 34.4272063,9.68492287 34.4947515,9.62386593 C34.5622967,9.56280899 34.5960688,9.44441987 34.5960688,9.26869501 L34.5960688,3.92102731 L35.9391124,3.92102731 L35.9391124,9.29103281 C35.9391124,9.78246672 35.8370107,10.1458245 35.6328042,10.3811171 C35.435185,10.6088196 35.0536827,10.7263419 34.4882863,10.733687 L34.4311336,10.7340543 C34.4077958,10.7340543 34.3780467,10.733568 34.341886,10.7325955 L34.0479841,10.7232045 C34.0170809,10.7223535 33.9845746,10.7215025 33.9504654,10.7206516 Z M40.0483544,6.40052236 C39.9635302,6.45115495 39.8779218,6.49210716 39.7915268,6.52338022 C39.7051317,6.55465329 39.5865367,6.58369213 39.435738,6.61049762 L39.1341423,6.66410832 C38.8513949,6.71176252 38.6487622,6.7698402 38.5262384,6.83834311 C38.3188903,6.95450021 38.2152178,7.13468994 38.2152178,7.37891771 C38.2152178,7.59633998 38.278835,7.75344755 38.4060713,7.85024514 C38.5333077,7.94704273 38.688031,7.9954408 38.870246,7.9954408 C39.1592767,7.9954408 39.4255265,7.91502555 39.6690035,7.75419263 C39.9124804,7.59335972 40.0389295,7.29999297 40.0483544,6.87408358 L40.0483544,6.40052236 Z M39.2331034,5.80633706 C39.4812916,5.77655319 39.6587927,5.7393239 39.7656084,5.69464809 C39.9572483,5.61721002 40.0530668,5.49658715 40.0530668,5.33277584 C40.0530668,5.13322389 39.9800248,4.99547554 39.8339387,4.91952667 C39.6878525,4.84357779 39.4734389,4.80560392 39.1906915,4.80560392 C38.873386,4.80560392 38.6487623,4.88006249 38.5168135,5.02898185 C38.4225644,5.13918219 38.3597325,5.28809932 38.3283162,5.47573772 L37.0323969,5.47573772 C37.0606717,5.04982833 37.1863353,4.69987307 37.4093916,4.42586144 C37.7643967,3.99697366 38.3738654,3.78253299 39.2378158,3.78253299 C39.800169,3.78253299 40.299682,3.88826416 40.7363697,4.09972966 C41.1730574,4.31119516 41.3913979,4.71029307 41.3913979,5.29703537 L41.3913979,7.5308147 C41.3913979,7.68569084 41.3945395,7.87332643 41.4008228,8.09372709 C41.4102477,8.26051678 41.4369512,8.3736938 41.4809342,8.43326155 C41.5249171,8.49282929 41.5908905,8.54197195 41.6788564,8.58069098 L41.6788564,8.76832845 L40.218002,8.76832845 C40.1771607,8.67004166 40.1488864,8.57771304 40.1331782,8.49133981 C40.11747,8.40496658 40.1049036,8.30668127 40.0954787,8.19648094 C39.9101221,8.38709773 39.6964939,8.5494174 39.4545878,8.68344483 C39.1655571,8.84129936 38.8388316,8.92022544 38.4744016,8.92022544 C38.0094392,8.92022544 37.6253797,8.79439046 37.3222116,8.54271673 C37.0190435,8.291043 36.8674618,7.93438647 36.8674618,7.47273644 C36.8674618,6.87408058 37.1109351,6.44073173 37.597889,6.17267687 C37.8649282,6.02673589 38.2576271,5.9224939 38.7759973,5.85994776 L39.2331034,5.80633706 Z M44.1010472,3.32684201 L44.1010472,7.62463343 L45.4393783,7.62463343 C46.1242554,7.62463343 46.6017772,7.3044616 46.8719581,6.66410832 C47.0196151,6.31265862 47.0934425,5.89420147 47.0934425,5.40872434 C47.0934425,4.73858719 46.9827014,4.2240785 46.7612159,3.86518283 C46.5397304,3.50628715 46.0991223,3.32684201 45.4393783,3.32684201 L44.1010472,3.32684201 Z M45.6844249,2.18314699 C46.1148293,2.18910377 46.4729706,2.23675725 46.7588597,2.32610887 C47.2458136,2.47800662 47.6400833,2.75648166 47.9416805,3.16154234 C48.1835866,3.48916494 48.3485202,3.84358772 48.436486,4.2248213 C48.5244519,4.60605488 48.5684342,4.96941268 48.5684342,5.31490561 C48.5684342,6.19055148 48.3830803,6.9321588 48.012367,7.53974982 C47.5097049,8.35880633 46.733732,8.76832845 45.6844249,8.76832845 L42.6920296,8.76832845 L42.6920296,2.18314699 L45.6844249,2.18314699 Z M50.7125914,6.73558926 C50.7565744,7.03640638 50.8429681,7.26127125 50.9717753,7.41019062 C51.2073981,7.68122386 51.6110926,7.81673845 52.1828707,7.81673845 C52.5253092,7.81673845 52.80334,7.78099834 53.0169714,7.70951705 C53.4222427,7.57251123 53.6248753,7.31786293 53.6248753,6.94556452 C53.6248753,6.72814224 53.5243444,6.55986588 53.3232796,6.44073039 C53.132268,6.33038114 52.8377712,6.23212925 52.4397811,6.14597209 L51.6409408,5.97610429 C50.9183641,5.82122815 50.4188511,5.65295179 50.142387,5.47127016 C49.6742829,5.16747465 49.4402344,4.692429 49.4402344,4.04611895 C49.4402344,3.45639826 49.6664289,2.9664609 50.1188248,2.57629216 C50.5712207,2.18612342 51.2356672,1.99104197 52.1121842,1.99104197 C52.8441858,1.99104197 53.468577,2.17495463 53.9853765,2.54278547 C54.502176,2.9106163 54.7731382,3.44448422 54.7982713,4.14440524 L53.403391,4.14440524 C53.3782579,3.74827973 53.1960456,3.46682635 52.8567487,3.30003666 C52.6305507,3.18983633 52.3493783,3.13473699 52.0132231,3.13473699 C51.6393681,3.13473699 51.340917,3.20621721 51.1178607,3.3491798 C50.8948044,3.49214239 50.7832779,3.69169135 50.7832779,3.94783266 C50.7832779,4.17243014 50.8834648,4.34274965 51.0838415,4.45879577 L51.1131483,4.47500458 C51.248867,4.54934513 51.5322436,4.63603639 51.9632861,4.73508077 L53.2148936,5.02004674 C53.7395472,5.13918223 54.1353876,5.29852356 54.4024269,5.49807551 C54.8171231,5.8078278 55.0244681,6.25606836 55.0244681,6.84281067 C55.0244681,7.44444491 54.7817802,7.94406189 54.2963971,8.34167659 C53.811014,8.7392913 53.1253618,8.93809567 52.2394199,8.93809567 C51.3346281,8.93809567 50.6230578,8.74226965 50.1046875,8.35061171 C49.5863172,7.95895378 49.327136,7.42061834 49.327136,6.73558926 L50.7125914,6.73558926 Z M60.0102227,4.278432 C60.0102227,3.93591746 59.9151896,3.69169336 59.7251205,3.54575238 C59.5350514,3.3998114 59.2688016,3.32684201 58.926363,3.32684201 L57.5738946,3.32684201 L57.5738946,5.26576246 L58.926363,5.26576246 C59.2688016,5.26576246 59.5350514,5.18683638 59.7251205,5.02898185 C59.9151896,4.87112733 60.0102227,4.62094654 60.0102227,4.278432 Z M61.447515,4.26949688 C61.447515,5.04685598 61.24017,5.5963602 60.8254737,5.91802603 C60.4107775,6.23969186 59.8185876,6.40052236 59.0488863,6.40052236 L57.5738946,6.40052236 L57.5738946,8.76832845 L56.13189,8.76832845 L56.13189,2.18314699 L59.1572723,2.18314699 C59.8547159,2.18314699 60.4107775,2.35291253 60.8254737,2.69244868 C61.24017,3.03198484 61.447515,3.55766231 61.447515,4.26949688 Z" id="KautenjaDSP"></path>
                </g>
            </g>
            <path d="M54.6588281,11.5625 C55.2525811,10.3437439 55.9029652,9.42969055 56.61,8.8203125 C57.3170348,8.21093445 58.080699,7.90625 58.9010156,7.90625 C60.0572714,7.90625 61.0357772,8.38866705 61.8365625,9.35351562 C62.6373478,10.3183642 63.0377344,11.4921806 63.0377344,12.875 C63.0377344,14.3750075 62.604145,15.6699164 61.7369531,16.7597656 C60.8697613,17.8496148 59.8385216,18.3945312 58.6432031,18.3945312 C57.9244495,18.3945312 57.1822656,18.0800813 56.4166406,17.4511719 C55.6510118,16.8222625 54.8658634,15.8750063 54.0611719,14.609375 C53.4596064,15.8281311 52.805316,16.7421845 52.0982813,17.3515625 C51.3912465,17.9609405 50.6314884,18.265625 49.8189844,18.265625 C48.6705411,18.265625 47.6939884,17.7832079 46.8892969,16.8183594 C46.0846054,15.8535108 45.6822656,14.6796944 45.6822656,13.296875 C45.6822656,11.7968675 46.115855,10.5019586 46.9830469,9.41210937 C47.8502387,8.32226018 48.8814784,7.77734375 50.0767969,7.77734375 C50.7877379,7.77734375 51.5260118,8.09374684 52.2916406,8.7265625 C53.0572695,9.35937816 53.8463241,10.3046812 54.6588281,11.5625 Z M53.3111719,13.5898437 L53.0416406,13.2148437 L52.6675958,12.7144035 C51.9482062,11.7639867 51.4010156,11.1163522 51.0260156,10.7714844 C50.5885134,10.3691386 50.154924,10.1679687 49.7252344,10.1679687 C49.1002313,10.1679687 48.5670335,10.4921843 48.125625,11.140625 C47.6842165,11.7890657 47.4635156,12.5781204 47.4635156,13.5078125 C47.4635156,14.3906294 47.7057007,15.1269502 48.1900781,15.7167969 C48.6744555,16.3066436 49.2799182,16.6015625 50.0064844,16.6015625 C50.5533621,16.6015625 51.1021847,16.351565 51.6529688,15.8515625 C52.2037528,15.35156 52.7564816,14.5976613 53.3111719,13.5898437 Z M55.4088281,12.5820312 L55.6900781,12.9570312 C56.4322693,13.9726613 57.0787472,14.7343725 57.6295313,15.2421875 C58.1803153,15.7500025 58.6353888,16.0039062 58.9947656,16.0039062 C59.6275813,16.0039062 60.1627322,15.6796907 60.6002344,15.03125 C61.0377366,14.3828093 61.2564844,13.5937546 61.2564844,12.6640625 C61.2564844,11.7812456 61.0142993,11.0449248 60.5299219,10.4550781 C60.0455445,9.86523143 59.4400818,9.5703125 58.7135156,9.5703125 C58.1588254,9.5703125 57.6060965,9.82226311 57.0553125,10.3261719 C56.5045285,10.8300806 55.9557059,11.5820262 55.4088281,12.5820312 Z M66.2872969,12.416 C66.2872969,11.9519977 66.3872959,11.616001 66.5872969,11.408 C66.7872979,11.199999 67.1272945,11.096 67.6072969,11.096 L70.3912969,11.096 C70.9992999,11.096 71.5032949,11.2839981 71.9032969,11.66 C72.3032989,12.0360019 72.5032969,12.5519967 72.5032969,13.208 L72.5032969,13.952 L69.8872969,13.952 L69.8872969,12.512 L68.9512969,12.512 L68.9512969,14.768 L71.8072969,14.768 C72.0472981,14.768 72.2112964,14.8279994 72.2992969,14.948 C72.3872973,15.0680006 72.4312969,15.2159991 72.4312969,15.392 L72.4312969,19.4 C72.4312969,19.6720014 72.3592976,19.8399997 72.2152969,19.904 C72.0712962,19.9680003 71.9352975,20 71.8072969,20 L68.3032969,20 C67.6952938,20 67.1912969,19.8120019 66.7912969,19.436 C66.3912949,19.0599981 66.1912969,18.5440033 66.1912969,17.888 L66.1912969,17.144 L68.8072969,17.144 L68.8072969,18.584 L69.6952969,18.584 L69.6952969,16.184 L67.1032969,16.184 C66.8632957,16.184 66.6632977,16.1200006 66.5032969,15.992 C66.3432961,15.8639994 66.2632969,15.6400016 66.2632969,15.32 L66.2872969,12.416 Z M79.8232969,17.144 L79.8232969,17.888 C79.8232969,18.5440033 79.6232989,19.0599981 79.2232969,19.436 C78.8232949,19.8120019 78.3192999,20 77.7112969,20 L74.4472969,20 C74.1272953,20 73.8912976,19.9280007 73.7392969,19.784 C73.5872961,19.6399993 73.5112969,19.3760019 73.5112969,18.992 L73.5112969,3.176 L76.2952969,3.176 L76.2952969,7.64 L78.8632969,7.64 L78.8632969,9.08 L76.2952969,9.08 L76.2952969,18.584 L77.2072969,18.584 L77.2072969,17.144 L79.8232969,17.144 Z M87.0472969,18.008 C87.0472969,18.6640033 86.8632987,19.1599983 86.4952969,19.496 C86.127295,19.8320017 85.6392999,20 85.0312969,20 L81.5272969,20 C81.3992962,20 81.2632976,19.9680003 81.1192969,19.904 C80.9752962,19.8399997 80.9032969,19.6720014 80.9032969,19.4 L80.9032969,15.392 C80.9032969,15.2159991 80.9472964,15.0680006 81.0352969,14.948 C81.1232973,14.8279994 81.2872957,14.768 81.5272969,14.768 L84.3832969,14.768 L84.3832969,12.512 L83.4472969,12.512 L83.4472969,13.952 L80.8312969,13.952 L80.8312969,13.208 C80.8312969,12.5519967 81.0312949,12.0360019 81.4312969,11.66 C81.8312969,11.2839981 82.3352938,11.096 82.9432969,11.096 L85.7272969,11.096 C86.2072993,11.096 86.5472959,11.199999 86.7472969,11.408 C86.9472979,11.616001 87.0472969,11.9519977 87.0472969,12.416 L87.0472969,18.008 Z M83.6392969,18.584 L84.5272969,18.584 L84.5272969,16.184 L83.6392969,16.184 L83.6392969,18.584 Z M88.6312969,20 L88.6312969,9.128 L91.4152969,9.128 L91.4152969,20 L88.6312969,20 Z M88.6072969,5.192 L91.4152969,5.192 L91.4152969,8 L88.6072969,8 L88.6072969,5.192 Z M96.7912969,13.544 L96.7912969,12.104 L95.8792969,12.104 L95.8792969,20 L93.0952969,20 L93.0952969,10.688 L97.2952969,10.688 C97.9032999,10.688 98.4072949,10.8759981 98.8072969,11.252 C99.2072989,11.6280019 99.4072969,12.1439967 99.4072969,12.8 L99.4072969,13.544 L96.7912969,13.544 Z M100.247297,12.416 C100.247297,11.9519977 100.347296,11.616001 100.547297,11.408 C100.747298,11.199999 101.087294,11.096 101.567297,11.096 L104.351297,11.096 C104.9593,11.096 105.463295,11.2839981 105.863297,11.66 C106.263299,12.0360019 106.463297,12.5519967 106.463297,13.208 L106.463297,13.952 L103.847297,13.952 L103.847297,12.512 L102.911297,12.512 L102.911297,14.768 L105.767297,14.768 C106.007298,14.768 106.171296,14.8279994 106.259297,14.948 C106.347297,15.0680006 106.391297,15.2159991 106.391297,15.392 L106.391297,19.4 C106.391297,19.6720014 106.319298,19.8399997 106.175297,19.904 C106.031296,19.9680003 105.895298,20 105.767297,20 L102.263297,20 C101.655294,20 101.151297,19.8120019 100.751297,19.436 C100.351295,19.0599981 100.151297,18.5440033 100.151297,17.888 L100.151297,17.144 L102.767297,17.144 L102.767297,18.584 L103.655297,18.584 L103.655297,16.184 L101.063297,16.184 C100.823296,16.184 100.623298,16.1200006 100.463297,15.992 C100.303296,15.8639994 100.223297,15.6400016 100.223297,15.32 L100.247297,12.416 Z" id="∞Stairs" fill="#EA4F4F" fill-rule="nonzero"></path>
        </g>
        <g id="Noise" transform="translate(112.000000, 38.000000)">
            <g id="Output" transform="translate(0.000000, 269.000000)">
                <rect id="Rectangle" fill="#1D1D1D" x="0" y="0" width="30" height="44" rx="4"></rect>
                <path d="M3.14648438,10 L3.14648438,4.2734375 L4.27148438,4.2734375 L6.61523438,8.09765625 L6.61523438,4.2734375 L7.68945312,4.2734375 L7.68945312,10 L6.52929688,10 L4.22070312,6.265625 L4.22070312,10 L3.14648438,10 Z M8.67773438,7.171875 C8.67773438,6.58853875 8.76497309,6.09896031 8.93945312,5.703125 C9.06966211,5.41145687 9.24739471,5.14974074 9.47265625,4.91796875 C9.69791779,4.68619676 9.94466012,4.51432348 10.2128906,4.40234375 C10.5696632,4.25130133 10.9811175,4.17578125 11.4472656,4.17578125 C12.2910198,4.17578125 12.9661433,4.43749738 13.4726562,4.9609375 C13.9791692,5.48437762 14.2324219,6.21223492 14.2324219,7.14453125 C14.2324219,8.06901504 13.9811223,8.7923151 13.4785156,9.31445312 C12.9759089,9.83659115 12.3040407,10.0976562 11.4628906,10.0976562 C10.6113239,10.0976562 9.9342473,9.83789322 9.43164062,9.31835938 C8.92903395,8.79882553 8.67773438,8.08333789 8.67773438,7.171875 Z M9.86914062,7.1328125 C9.86914062,7.78125324 10.0188787,8.27278479 10.3183594,8.60742188 C10.61784,8.94205896 10.9980446,9.109375 11.4589844,9.109375 C11.9199242,9.109375 12.2981756,8.94336104 12.59375,8.61132812 C12.8893244,8.27929521 13.0371094,7.78125332 13.0371094,7.1171875 C13.0371094,6.46093422 12.8932306,5.97135578 12.6054688,5.6484375 C12.3177069,5.32551922 11.9355493,5.1640625 11.4589844,5.1640625 C10.9824195,5.1640625 10.5983088,5.32747232 10.3066406,5.65429688 C10.0149725,5.98112143 9.86914062,6.47395504 9.86914062,7.1328125 Z M15.0996094,10 L15.0996094,4.2734375 L16.2558594,4.2734375 L16.2558594,10 L15.0996094,10 Z M17.0644531,8.13671875 L18.1894531,8.02734375 C18.2571618,8.4049498 18.3945302,8.68229078 18.6015625,8.859375 C18.8085948,9.03645922 19.0878889,9.125 19.4394531,9.125 C19.8118508,9.125 20.092447,9.04622475 20.28125,8.88867188 C20.470053,8.731119 20.5644531,8.54687605 20.5644531,8.3359375 C20.5644531,8.20052016 20.52474,8.08528693 20.4453125,7.99023438 C20.365885,7.89518182 20.2272145,7.81250035 20.0292969,7.7421875 C19.8938795,7.69531227 19.5852889,7.61197977 19.1035156,7.4921875 C18.4837209,7.3385409 18.0488294,7.1497407 17.7988281,6.92578125 C17.4472639,6.61067551 17.2714844,6.22656477 17.2714844,5.7734375 C17.2714844,5.48176938 17.3541658,5.20898564 17.5195312,4.95507812 C17.6848967,4.70117061 17.9231755,4.50781316 18.234375,4.375 C18.5455745,4.24218684 18.9212218,4.17578125 19.3613281,4.17578125 C20.0800817,4.17578125 20.6210919,4.33333176 20.984375,4.6484375 C21.3476581,4.96354324 21.5384114,5.38411195 21.5566406,5.91015625 L20.4003906,5.9609375 C20.3509112,5.6666652 20.2447925,5.45507877 20.0820312,5.32617188 C19.91927,5.19726498 19.6751318,5.1328125 19.3496094,5.1328125 C19.0136702,5.1328125 18.750652,5.20182223 18.5605469,5.33984375 C18.4381504,5.42838586 18.3769531,5.54687426 18.3769531,5.6953125 C18.3769531,5.83072984 18.4342442,5.9466141 18.5488281,6.04296875 C18.6784584,6.15176559 18.9726944,6.26467617 19.4315435,6.38170316 L19.6113281,6.42578125 C20.1738309,6.55859441 20.5898424,6.69596283 20.859375,6.83789062 C21.1289076,6.97981842 21.339843,7.17382689 21.4921875,7.41992188 C21.644532,7.66601686 21.7207031,7.97005027 21.7207031,8.33203125 C21.7207031,8.66015789 21.6295582,8.96744648 21.4472656,9.25390625 C21.264973,9.54036602 21.0071631,9.75325451 20.6738281,9.89257812 C20.3404931,10.0319017 19.9251327,10.1015625 19.4277344,10.1015625 C18.7037724,10.1015625 18.1477884,9.93424646 17.7597656,9.59960938 C17.3717429,9.26497229 17.1399743,8.77734695 17.0644531,8.13671875 Z M22.6933594,10 L22.6933594,4.2734375 L26.9394531,4.2734375 L26.9394531,5.2421875 L23.8496094,5.2421875 L23.8496094,6.51171875 L26.7246094,6.51171875 L26.7246094,7.4765625 L23.8496094,7.4765625 L23.8496094,9.03515625 L27.0488281,9.03515625 L27.0488281,10 L22.6933594,10 Z" id="NOISE" fill="#FFFFFF" fill-rule="nonzero"></path>
            </g>
            <g id="Sync" transform="translate(0.000000, 211.000000)" fill="#000000" fill-rule="nonzero">
                <path d="M4.17578125,5.13671875 L5.30078125,5.02734375 C5.36848992,5.4049498 5.50585834,5.68229078 5.71289062,5.859375 C5.91992291,6.03645922 6.19921699,6.125 6.55078125,6.125 C6.92317895,6.125 7.2037751,6.04622475 7.39257812,5.88867188 C7.58138115,5.731119 7.67578125,5.54687605 7.67578125,5.3359375 C7.67578125,5.20052016 7.63606811,5.08528693 7.55664062,4.99023438 C7.47721314,4.89518182 7.33854266,4.81250035 7.140625,4.7421875 C7.00520766,4.69531227 6.69661699,4.61197977 6.21484375,4.4921875 C5.59504898,4.3385409 5.1601575,4.1497407 4.91015625,3.92578125 C4.55859199,3.61067551 4.3828125,3.22656477 4.3828125,2.7734375 C4.3828125,2.48176938 4.46549396,2.20898564 4.63085938,1.95507812 C4.79622479,1.70117061 5.03450365,1.50781316 5.34570312,1.375 C5.6569026,1.24218684 6.03254988,1.17578125 6.47265625,1.17578125 C7.19140984,1.17578125 7.73242006,1.33333176 8.09570312,1.6484375 C8.45898619,1.96354324 8.64973949,2.38411195 8.66796875,2.91015625 L7.51171875,2.9609375 C7.46223934,2.6666652 7.35612061,2.45507877 7.19335938,2.32617188 C7.03059814,2.19726498 6.78645996,2.1328125 6.4609375,2.1328125 C6.12499832,2.1328125 5.86198012,2.20182223 5.671875,2.33984375 C5.54947855,2.42838586 5.48828125,2.54687426 5.48828125,2.6953125 C5.48828125,2.83072984 5.54557234,2.9466141 5.66015625,3.04296875 C5.78978653,3.15176559 6.08402248,3.26467617 6.54287158,3.38170316 L6.72265625,3.42578125 C7.28515906,3.55859441 7.70117053,3.69596283 7.97070312,3.83789062 C8.24023572,3.97981842 8.45117111,4.17382689 8.60351562,4.41992188 C8.75586014,4.66601686 8.83203125,4.97005027 8.83203125,5.33203125 C8.83203125,5.66015789 8.74088633,5.96744648 8.55859375,6.25390625 C8.37630117,6.54036602 8.11849125,6.75325451 7.78515625,6.89257812 C7.45182125,7.03190174 7.03646082,7.1015625 6.5390625,7.1015625 C5.81510055,7.1015625 5.25911652,6.93424646 4.87109375,6.59960938 C4.48307098,6.26497229 4.25130246,5.77734695 4.17578125,5.13671875 Z M11.3085938,7 L11.3085938,4.58984375 L9.2109375,1.2734375 L10.5664062,1.2734375 L11.9140625,3.5390625 L13.234375,1.2734375 L14.5664062,1.2734375 L12.4609375,4.59765625 L12.4609375,7 L11.3085938,7 Z M15.1523438,7 L15.1523438,1.2734375 L16.2773438,1.2734375 L18.6210938,5.09765625 L18.6210938,1.2734375 L19.6953125,1.2734375 L19.6953125,7 L18.5351562,7 L16.2265625,3.265625 L16.2265625,7 L15.1523438,7 Z M24.5820312,4.89453125 L25.703125,5.25 C25.5312491,5.87500313 25.2454447,6.33919119 24.8457031,6.64257812 C24.4459615,6.94596506 23.9388052,7.09765625 23.3242188,7.09765625 C22.5637983,7.09765625 21.9388045,6.83789322 21.4492188,6.31835938 C20.959633,5.79882553 20.7148438,5.08854617 20.7148438,4.1875 C20.7148438,3.23437023 20.960935,2.49414326 21.453125,1.96679688 C21.945315,1.43945049 22.5924439,1.17578125 23.3945312,1.17578125 C24.0950556,1.17578125 24.6640603,1.38281043 25.1015625,1.796875 C25.3619805,2.04166789 25.557291,2.39322687 25.6875,2.8515625 L24.5429688,3.125 C24.4752601,2.82812352 24.3339854,2.59375086 24.1191406,2.421875 C23.9042958,2.24999914 23.6432307,2.1640625 23.3359375,2.1640625 C22.9114562,2.1640625 22.5670586,2.31640473 22.3027344,2.62109375 C22.0384101,2.92578277 21.90625,3.41926742 21.90625,4.1015625 C21.90625,4.82552445 22.036457,5.3411443 22.296875,5.6484375 C22.557293,5.9557307 22.8958313,6.109375 23.3125,6.109375 C23.6197932,6.109375 23.8841135,6.01171973 24.1054688,5.81640625 C24.326824,5.62109277 24.4856766,5.31380418 24.5820312,4.89453125 Z" id="SYNC"></path>
            </g>
            <g id="Amplifier" transform="translate(0.000000, 139.000000)" fill-rule="nonzero">
                <path d="M15.5,0 L13.5,0 L13.5,3 L15.5,3 L15.5,0 Z M15.5,4 L13.5,4 L13.5,7 L15.5,7 L15.5,4 Z M15.5,8 L13.5,8 L13.5,11 L15.5,11 L15.5,8 Z M15.5,12 L13.5,12 L13.5,15 L15.5,15 L15.5,12 Z M15.5,16 L13.5,16 L13.5,19 L15.5,19 L15.5,16 Z M15.5,20 L13.5,20 L13.5,23 L15.5,23 L15.5,20 Z M15.5,24 L13.5,24 L13.5,27 L15.5,27 L15.5,24 Z M15.5,28 L13.5,28 L13.5,31 L15.5,31 L15.5,28 Z M15.5,32 L13.5,32 L13.5,35 L15.5,35 L15.5,32 Z M15.5,36 L13.5,36 L13.5,39 L15.5,39 L15.5,36 Z M15.5,40 L13.5,40 L13.5,43 L15.5,43 L15.5,40 Z" id="Line-Copy-15" fill="#E6E6E6"></path>
                <path d="M11.8574219,26 L10.5996094,26 L10.0996094,24.6992188 L7.81054688,24.6992188 L7.33789062,26 L6.11132812,26 L8.34179688,20.2734375 L9.56445312,20.2734375 L11.8574219,26 Z M9.72851562,23.734375 L8.93945312,21.609375 L8.16601562,23.734375 L9.72851562,23.734375 Z M14.1855469,20.2734375 L15.2246094,24.1796875 L16.2519531,20.2734375 L17.9863281,20.2734375 L17.9863281,26 L16.9121094,26 L16.9121094,21.4921875 L15.7753906,26 L14.6621094,26 L13.5292969,21.4921875 L13.5292969,26 L12.4550781,26 L12.4550781,20.2734375 L14.1855469,20.2734375 Z M20.9902344,20.2734375 C21.6933629,20.2734375 22.1516916,20.302083 22.3652344,20.359375 C22.693361,20.4453129 22.9680979,20.63216 23.1894531,20.9199219 C23.4108084,21.2076837 23.5214844,21.5794248 23.5214844,22.0351562 C23.5214844,22.3867205 23.4576829,22.6822905 23.3300781,22.921875 C23.2024733,23.1614595 23.0403656,23.3496087 22.84375,23.4863281 C22.6471344,23.6230476 22.4472666,23.7135414 22.2441406,23.7578125 C22.0075323,23.8046877 21.6800478,23.8314733 21.2616796,23.8381697 L20.2910156,23.8398438 L20.2910156,26 L19.1347656,26 L19.1347656,20.2734375 L20.9902344,20.2734375 Z M20.8496094,21.2421875 L20.2910156,21.2421875 L20.2910156,22.8671875 L20.9238281,22.8671875 C21.3795596,22.8671875 21.684244,22.8372399 21.8378906,22.7773438 C21.9915372,22.7174476 22.1119787,22.6236986 22.1992188,22.4960938 C22.2864588,22.3684889 22.3300781,22.2200529 22.3300781,22.0507812 C22.3300781,21.8424469 22.2688808,21.6705736 22.1464844,21.5351562 C22.0240879,21.3997389 21.8691416,21.3151043 21.6816406,21.28125 C21.5436191,21.2552082 21.2662781,21.2421875 20.8496094,21.2421875 Z" id="AMP" fill="#000000"></path>
            </g>
            <g id="Frequency-Mod" transform="translate(0.000000, 72.000000)" fill-rule="nonzero">
                <path d="M15.5,0.5 L13.5,0.5 L13.5,3.5 L15.5,3.5 L15.5,0.5 Z M15.5,4.5 L13.5,4.5 L13.5,7.5 L15.5,7.5 L15.5,4.5 Z M15.5,8.5 L13.5,8.5 L13.5,11.5 L15.5,11.5 L15.5,8.5 Z M15.5,12.5 L13.5,12.5 L13.5,15.5 L15.5,15.5 L15.5,12.5 Z M15.5,16.5 L13.5,16.5 L13.5,19.5 L15.5,19.5 L15.5,16.5 Z M15.5,20.5 L13.5,20.5 L13.5,23.5 L15.5,23.5 L15.5,20.5 Z M15.5,24.5 L13.5,24.5 L13.5,27.5 L15.5,27.5 L15.5,24.5 Z M15.5,28.5 L13.5,28.5 L13.5,31.5 L15.5,31.5 L15.5,28.5 Z" id="Line-Copy-7" fill="#E6E6E6"></path>
                <path d="M5.16992188,25 L5.16992188,19.3203125 L6.32617188,19.3203125 L6.32617188,24.0351562 L9.20117188,24.0351562 L9.20117188,25 L5.16992188,25 Z M10.0332031,25 L10.0332031,19.2734375 L13.9589844,19.2734375 L13.9589844,20.2421875 L11.1894531,20.2421875 L11.1894531,21.5976562 L13.5800781,21.5976562 L13.5800781,22.5664062 L11.1894531,22.5664062 L11.1894531,25 L10.0332031,25 Z M16.9160156,19.1757812 C17.6347692,19.1757812 18.1757794,19.3333318 18.5390625,19.6484375 C18.9023456,19.9635432 19.0930989,20.384112 19.1113281,20.9101562 L17.9550781,20.9609375 C17.9055987,20.6666652 17.79948,20.4550788 17.6367188,20.3261719 C17.4739575,20.197265 17.2298193,20.1328125 16.9042969,20.1328125 C16.5683577,20.1328125 16.3053395,20.2018222 16.1152344,20.3398438 C15.9928379,20.4283859 15.9316406,20.5468743 15.9316406,20.6953125 C15.9316406,20.8307298 15.9889317,20.9466141 16.1035156,21.0429688 C16.2169421,21.138166 16.4563948,21.2365128 16.8218788,21.338011 L17.1660156,21.4257812 C17.7285184,21.5585944 18.1445299,21.6959628 18.4140625,21.8378906 C18.6835951,21.9798184 18.8945305,22.1738269 19.046875,22.4199219 C19.1992195,22.6660169 19.2753906,22.9700503 19.2753906,23.3320312 C19.2753906,23.6601579 19.1842457,23.9674465 19.0019531,24.2539062 C18.8196605,24.540366 18.5618506,24.7532545 18.2285156,24.8925781 C17.8951806,25.0319017 17.4798202,25.1015625 16.9824219,25.1015625 C16.2584599,25.1015625 15.7024759,24.9342465 15.3144531,24.5996094 C14.9264304,24.2649723 14.6946618,23.777347 14.6191406,23.1367188 L15.7441406,23.0273438 C15.8118493,23.4049498 15.9492177,23.6822908 16.15625,23.859375 C16.3632823,24.0364592 16.6425764,24.125 16.9941406,24.125 C17.3665383,24.125 17.6471345,24.0462247 17.8359375,23.8886719 C18.0247405,23.731119 18.1191406,23.5468761 18.1191406,23.3359375 C18.1191406,23.2005202 18.0794275,23.0852869 18,22.9902344 C17.936458,22.9141923 17.8350005,22.8460678 17.6956253,22.7858595 L17.5839844,22.7421875 C17.448567,22.6953123 17.1399764,22.6119798 16.6582031,22.4921875 C16.0384084,22.3385409 15.6035169,22.1497407 15.3535156,21.9257812 C15.0019514,21.6106755 14.8261719,21.2265648 14.8261719,20.7734375 C14.8261719,20.4817694 14.9088533,20.2089856 15.0742188,19.9550781 C15.2395842,19.7011706 15.477863,19.5078132 15.7890625,19.375 C16.100262,19.2421868 16.4759093,19.1757812 16.9160156,19.1757812 Z M22.6855469,19.2734375 C23.2975291,19.2734375 23.7421861,19.3248693 24.0195312,19.4277344 C24.2968764,19.5305995 24.5188794,19.7135404 24.6855469,19.9765625 C24.8522144,20.2395846 24.9355469,20.5403629 24.9355469,20.8789062 C24.9355469,21.3085959 24.8092461,21.6634101 24.5566406,21.9433594 C24.3040352,22.2233087 23.9264348,22.3997392 23.4238281,22.4726562 C23.6738294,22.6184903 23.8802075,22.778645 24.0429688,22.953125 C24.20573,23.127605 24.4251288,23.4374978 24.7011719,23.8828125 L25.4003906,25 L24.0175781,25 L22.976562,23.4508048 C22.7890619,23.1785878 22.6542973,22.9990239 22.5722656,22.9121094 C22.4628901,22.7962234 22.3470058,22.7167971 22.2246094,22.6738281 C22.1266922,22.639453 21.9829434,22.6188281 21.7933598,22.6119531 L21.4082031,22.609375 L21.4082031,25 L20.2519531,25 L20.2519531,19.2734375 L22.6855469,19.2734375 Z M21.4082031,20.2421875 L21.4082031,21.6953125 L22.4408524,21.6944445 C22.892757,21.6898149 23.1800486,21.6666669 23.3027344,21.625 C23.4407559,21.5781248 23.5488277,21.4973964 23.6269531,21.3828125 C23.7050785,21.2682286 23.7441406,21.1250009 23.7441406,20.953125 C23.7441406,20.7604157 23.6927088,20.6048183 23.5898438,20.4863281 C23.4869787,20.3678379 23.3417978,20.2929689 23.1542969,20.2617188 C23.1074216,20.2552083 23.0136722,20.2503255 22.8730476,20.2470703 L22.75879,20.2449341 L21.4082031,20.2421875 Z" id="LFSR" fill="#000000"></path>
            </g>
            <g id="Frequency" fill-rule="nonzero">
                <path d="M15.5,0 L13.5,0 L13.5,3 L15.5,3 L15.5,0 Z M15.5,4 L13.5,4 L13.5,7 L15.5,7 L15.5,4 Z M15.5,8 L13.5,8 L13.5,11 L15.5,11 L15.5,8 Z M15.5,12 L13.5,12 L13.5,15 L15.5,15 L15.5,12 Z M15.5,16 L13.5,16 L13.5,19 L15.5,19 L15.5,16 Z M15.5,20 L13.5,20 L13.5,23 L15.5,23 L15.5,20 Z M15.5,24 L13.5,24 L13.5,27 L15.5,27 L15.5,24 Z M15.5,28 L13.5,28 L13.5,31 L15.5,31 L15.5,28 Z M15.5,32 L13.5,32 L13.5,35 L15.5,35 L15.5,32 Z M15.5,36 L13.5,36 L13.5,39 L15.5,39 L15.5,36 Z" id="Line-Copy-11" fill="#E6E6E6"></path>
                <path d="M2.09033203,25 L2.09033203,19.9892578 L3.71386719,19.9892578 C4.32910464,19.9892578 4.73014229,20.0143227 4.91699219,20.0644531 C5.204103,20.1396488 5.44449773,20.30314 5.63818359,20.5549316 C5.83186946,20.8067233 5.92871094,21.1319967 5.92871094,21.5307617 C5.92871094,21.8383804 5.87288467,22.0970042 5.76123047,22.3066406 C5.64957626,22.5162771 5.50773198,22.6809076 5.33569336,22.8005371 C5.16365474,22.9201666 4.98877042,22.9993488 4.81103516,23.0380859 C4.56949749,23.0859377 4.21972885,23.1098633 3.76171875,23.1098633 L3.10205078,23.1098633 L3.10205078,25 L2.09033203,25 Z M3.10205078,20.8369141 L3.10205078,22.2587891 L3.65576172,22.2587891 C4.05452673,22.2587891 4.32112563,22.2325849 4.45556641,22.1801758 C4.59000718,22.1277667 4.6953935,22.0457362 4.77172852,21.934082 C4.84806353,21.8224278 4.88623047,21.6925463 4.88623047,21.5444336 C4.88623047,21.362141 4.83268283,21.2117519 4.72558594,21.0932617 C4.61848905,20.9747715 4.48291098,20.9007163 4.31884766,20.8710938 C4.21533151,20.8515624 4.02225287,20.8404018 3.73960713,20.8376116 L3.10205078,20.8369141 Z M6.75927734,25 L6.75927734,19.9892578 L10.4746094,19.9892578 L10.4746094,20.8369141 L7.77099609,20.8369141 L7.77099609,21.9477539 L10.2866211,21.9477539 L10.2866211,22.7919922 L7.77099609,22.7919922 L7.77099609,24.1557617 L10.5703125,24.1557617 L10.5703125,25 L6.75927734,25 Z M11.4316406,25 L11.4316406,19.9892578 L13.5610352,19.9892578 C14.0965196,19.9892578 14.4855945,20.0342606 14.7282715,20.1242676 C14.9709485,20.2142745 15.1652011,20.3743478 15.3110352,20.6044922 C15.4568692,20.8346366 15.5297852,21.0978175 15.5297852,21.394043 C15.5297852,21.7700214 15.4192719,22.0804838 15.1982422,22.3254395 C14.9772124,22.5703951 14.6468121,22.7247718 14.2070312,22.7885742 C14.4257823,22.916179 14.6063632,23.0563143 14.7487793,23.2089844 C14.8708502,23.3398444 15.029331,23.5577555 15.2242254,23.8627226 L15.9365234,25 L14.7265625,25 L13.8156733,23.6444542 C13.6516108,23.4062644 13.5336918,23.2491459 13.4619141,23.1730957 C13.3662105,23.0716955 13.2648117,23.0021975 13.1577148,22.9645996 C13.0720373,22.9345213 12.9462571,22.9164745 12.7803715,22.910459 L12.4433594,22.9082031 L12.4433594,25 L11.4316406,25 Z M12.4433594,20.8369141 L12.4433594,22.1083984 L13.1918945,22.1083984 C13.6772485,22.1083984 13.9803054,22.0878908 14.1010742,22.046875 C14.2218431,22.0058592 14.3164059,21.9352219 14.3847656,21.8349609 C14.4531253,21.7347 14.4873047,21.6093758 14.4873047,21.4589844 C14.4873047,21.2903637 14.4423019,21.154216 14.3522949,21.0505371 C14.262288,20.9468582 14.1352547,20.8813478 13.9711914,20.8540039 C13.9096677,20.8454589 13.7558604,20.8401184 13.5097664,20.8379822 L12.4433594,20.8369141 Z M20.6464844,19.9038086 C21.3847693,19.9038086 21.9755023,20.1328102 22.4187012,20.5908203 C22.8619,21.0488304 23.0834961,21.6857056 23.0834961,22.5014648 C23.0834961,23.3103882 22.863609,23.9432757 22.4238281,24.4001465 C21.9840473,24.8570173 21.3961625,25.0854492 20.6601562,25.0854492 C19.9150353,25.0854492 19.3225933,24.8581566 18.8828125,24.4035645 C18.4430317,23.9489723 18.2231445,23.3229207 18.2231445,22.5253906 C18.2231445,22.0149714 18.2994784,21.5865903 18.4521484,21.2402344 C18.5660813,20.9850248 18.7215973,20.7560231 18.9187012,20.5532227 C19.115805,20.3504222 19.3317046,20.200033 19.5664062,20.1020508 C19.8785823,19.9698887 20.2386047,19.9038086 20.6464844,19.9038086 Z M17.4643555,19.9892578 L17.4643555,25 L16.4526367,25 L16.4526367,19.9892578 L17.4643555,19.9892578 Z M25.71875,19.9892578 C26.1357443,19.9892578 26.4536122,20.0211585 26.6723633,20.0849609 C26.9663101,20.1715499 27.2180979,20.325357 27.4277344,20.5463867 C27.6373708,20.7674165 27.7968745,21.038003 27.90625,21.3581543 C28.0156255,21.6783056 28.0703125,22.0730771 28.0703125,22.5424805 C28.0703125,22.9549174 28.0190435,23.3103826 27.9165039,23.6088867 C27.7911778,23.9734719 27.6123058,24.2685536 27.3798828,24.4941406 C27.2044262,24.6650399 26.9674494,24.7983394 26.6689453,24.894043 C26.4456369,24.9646813 26.1471373,25 25.7734375,25 L23.8696289,25 L23.8696289,19.9892578 L25.71875,19.9892578 Z M20.6567383,20.7685547 C20.239744,20.7685547 19.9036471,20.9115383 19.6484375,21.1975098 C19.3932279,21.4834812 19.265625,21.9147107 19.265625,22.4912109 C19.265625,23.0585966 19.3966458,23.4886867 19.6586914,23.7814941 C19.920737,24.0743016 20.253416,24.2207031 20.6567383,24.2207031 C21.0600606,24.2207031 21.3910306,24.0754409 21.6496582,23.7849121 C21.9082858,23.4943833 22.0375977,23.0585967 22.0375977,22.4775391 C22.0375977,21.9033174 21.9117037,21.4749363 21.6599121,21.1923828 C21.4081205,20.9098293 21.0737326,20.7685547 20.6567383,20.7685547 Z M25.3359375,20.8369141 L24.8813477,20.8369141 L24.8813477,24.1557617 L25.6367188,24.1557617 C25.9192722,24.1557617 26.123209,24.1398114 26.2485352,24.1079102 C26.4125985,24.0668943 26.5487462,23.9973963 26.6569824,23.8994141 C26.7652186,23.8014318 26.8535153,23.6402192 26.921875,23.4157715 C26.9902347,23.1913237 27.0244141,22.8854186 27.0244141,22.4980469 C27.0244141,22.1106751 26.9902347,21.8133148 26.921875,21.605957 C26.8535153,21.3985992 26.7578131,21.236817 26.6347656,21.1206055 C26.5117181,21.004394 26.3556325,20.9257815 26.1665039,20.8847656 C26.0252272,20.8528644 25.7483745,20.8369141 25.3359375,20.8369141 Z" id="PERIOD" fill="#000000"></path>
            </g>
        </g>
        <g id="Triangle" transform="translate(77.000000, 38.000000)">
            <g id="Output" transform="translate(0.000000, 269.000000)">
                <rect id="Rectangle" fill="#1D1D1D" x="0" y="0" width="30" height="44" rx="4"></rect>
                <path d="M3.09570312,10 L3.09570312,5.2421875 L1.39648438,5.2421875 L1.39648438,4.2734375 L5.94726562,4.2734375 L5.94726562,5.2421875 L4.25195312,5.2421875 L4.25195312,10 L3.09570312,10 Z M6.69726562,10 L6.69726562,4.2734375 L9.13085938,4.2734375 C9.7428416,4.2734375 10.1874986,4.32486928 10.4648438,4.42773438 C10.7421889,4.53059947 10.9641919,4.71354035 11.1308594,4.9765625 C11.2975269,5.23958465 11.3808594,5.54036289 11.3808594,5.87890625 C11.3808594,6.3085959 11.2545586,6.66341006 11.0019531,6.94335938 C10.7493477,7.22330869 10.3717473,7.39973922 9.86914062,7.47265625 C10.1191419,7.61849031 10.32552,7.77864496 10.4882812,7.953125 C10.6510425,8.12760504 10.8704413,8.43749777 11.1464844,8.8828125 L11.8457031,10 L10.4628906,10 L9.62695312,8.75390625 C9.33007664,8.30859152 9.12695367,8.02799537 9.01757812,7.91210938 C8.90820258,7.79622338 8.79231832,7.71679709 8.66992188,7.67382812 C8.57200472,7.63945295 8.42825586,7.61882806 8.23867233,7.6119531 L7.85351562,7.609375 L7.85351562,10 L6.69726562,10 Z M7.85351562,5.2421875 L7.85351562,6.6953125 L8.70898438,6.6953125 C9.26367465,6.6953125 9.61002535,6.67187523 9.74804688,6.625 C9.8860684,6.57812477 9.99414023,6.49739641 10.0722656,6.3828125 C10.150391,6.26822859 10.1894531,6.12500086 10.1894531,5.953125 C10.1894531,5.7604157 10.1380213,5.6048183 10.0351562,5.48632812 C9.93229115,5.36783795 9.78711031,5.29296891 9.59960938,5.26171875 L9.41503947,5.24981687 C9.29785238,5.24574786 9.13379031,5.24330647 8.92285222,5.24249267 L7.85351562,5.2421875 Z M12.4824219,10 L12.4824219,4.2734375 L13.6074219,4.2734375 L15.9511719,8.09765625 L15.9511719,4.2734375 L17.0253906,4.2734375 L17.0253906,10 L15.8652344,10 L13.5566406,6.265625 L13.5566406,10 L12.4824219,10 Z M20.9121094,7.89453125 L20.9121094,6.9296875 L23.4042969,6.9296875 L23.4042969,9.2109375 C23.1621082,9.44531367 22.8112002,9.65169182 22.3515625,9.83007812 C21.8919248,10.0084644 21.4264346,10.0976562 20.9550781,10.0976562 C20.3561168,10.0976562 19.8339866,9.97200646 19.3886719,9.72070312 C18.9433571,9.46939979 18.6087251,9.11002838 18.3847656,8.64257812 C18.1608062,8.17512787 18.0488281,7.66666941 18.0488281,7.1171875 C18.0488281,6.52083035 18.1738269,5.99088773 18.4238281,5.52734375 C18.6738294,5.06379977 19.0397111,4.70833457 19.5214844,4.4609375 C19.8886737,4.27083238 20.3457004,4.17578125 20.8925781,4.17578125 C21.6035192,4.17578125 22.1588522,4.3248683 22.5585938,4.62304688 C22.9583353,4.92122545 23.2154942,5.3333307 23.3300781,5.859375 L22.1816406,6.07421875 C22.1009111,5.79296734 21.9492199,5.57096436 21.7265625,5.40820312 C21.5039051,5.24544189 21.2259131,5.1640625 20.8925781,5.1640625 C20.3873673,5.1640625 19.9856786,5.32421715 19.6875,5.64453125 C19.3893214,5.96484535 19.2402344,6.44010102 19.2402344,7.0703125 C19.2402344,7.7500034 19.3912745,8.25976393 19.6933594,8.59960938 C19.9954442,8.93945482 20.3912736,9.109375 20.8808594,9.109375 C21.1230481,9.109375 21.3658842,9.06184943 21.609375,8.96679688 C21.8528658,8.87174432 22.0618481,8.75651109 22.2363281,8.62109375 L22.2363281,7.89453125 L20.9121094,7.89453125 Z M24.5019531,10 L24.5019531,4.3203125 L25.6582031,4.3203125 L25.6582031,9.03515625 L28.5332031,9.03515625 L28.5332031,10 L24.5019531,10 Z" id="TRNGL" fill="#FFFFFF" fill-rule="nonzero"></path>
            </g>
            <g id="Sync" transform="translate(0.000000, 211.000000)" fill="#000000" fill-rule="nonzero">
                <path d="M4.17578125,5.13671875 L5.30078125,5.02734375 C5.36848992,5.4049498 5.50585834,5.68229078 5.71289062,5.859375 C5.91992291,6.03645922 6.19921699,6.125 6.55078125,6.125 C6.92317895,6.125 7.2037751,6.04622475 7.39257812,5.88867188 C7.58138115,5.731119 7.67578125,5.54687605 7.67578125,5.3359375 C7.67578125,5.20052016 7.63606811,5.08528693 7.55664062,4.99023438 C7.47721314,4.89518182 7.33854266,4.81250035 7.140625,4.7421875 C7.00520766,4.69531227 6.69661699,4.61197977 6.21484375,4.4921875 C5.59504898,4.3385409 5.1601575,4.1497407 4.91015625,3.92578125 C4.55859199,3.61067551 4.3828125,3.22656477 4.3828125,2.7734375 C4.3828125,2.48176938 4.46549396,2.20898564 4.63085938,1.95507812 C4.79622479,1.70117061 5.03450365,1.50781316 5.34570312,1.375 C5.6569026,1.24218684 6.03254988,1.17578125 6.47265625,1.17578125 C7.19140984,1.17578125 7.73242006,1.33333176 8.09570312,1.6484375 C8.45898619,1.96354324 8.64973949,2.38411195 8.66796875,2.91015625 L7.51171875,2.9609375 C7.46223934,2.6666652 7.35612061,2.45507877 7.19335938,2.32617188 C7.03059814,2.19726498 6.78645996,2.1328125 6.4609375,2.1328125 C6.12499832,2.1328125 5.86198012,2.20182223 5.671875,2.33984375 C5.54947855,2.42838586 5.48828125,2.54687426 5.48828125,2.6953125 C5.48828125,2.83072984 5.54557234,2.9466141 5.66015625,3.04296875 C5.78978653,3.15176559 6.08402248,3.26467617 6.54287158,3.38170316 L6.72265625,3.42578125 C7.28515906,3.55859441 7.70117053,3.69596283 7.97070312,3.83789062 C8.24023572,3.97981842 8.45117111,4.17382689 8.60351562,4.41992188 C8.75586014,4.66601686 8.83203125,4.97005027 8.83203125,5.33203125 C8.83203125,5.66015789 8.74088633,5.96744648 8.55859375,6.25390625 C8.37630117,6.54036602 8.11849125,6.75325451 7.78515625,6.89257812 C7.45182125,7.03190174 7.03646082,7.1015625 6.5390625,7.1015625 C5.81510055,7.1015625 5.25911652,6.93424646 4.87109375,6.59960938 C4.48307098,6.26497229 4.25130246,5.77734695 4.17578125,5.13671875 Z M11.3085938,7 L11.3085938,4.58984375 L9.2109375,1.2734375 L10.5664062,1.2734375 L11.9140625,3.5390625 L13.234375,1.2734375 L14.5664062,1.2734375 L12.4609375,4.59765625 L12.4609375,7 L11.3085938,7 Z M15.1523438,7 L15.1523438,1.2734375 L16.2773438,1.2734375 L18.6210938,5.09765625 L18.6210938,1.2734375 L19.6953125,1.2734375 L19.6953125,7 L18.5351562,7 L16.2265625,3.265625 L16.2265625,7 L15.1523438,7 Z M24.5820312,4.89453125 L25.703125,5.25 C25.5312491,5.87500313 25.2454447,6.33919119 24.8457031,6.64257812 C24.4459615,6.94596506 23.9388052,7.09765625 23.3242188,7.09765625 C22.5637983,7.09765625 21.9388045,6.83789322 21.4492188,6.31835938 C20.959633,5.79882553 20.7148438,5.08854617 20.7148438,4.1875 C20.7148438,3.23437023 20.960935,2.49414326 21.453125,1.96679688 C21.945315,1.43945049 22.5924439,1.17578125 23.3945312,1.17578125 C24.0950556,1.17578125 24.6640603,1.38281043 25.1015625,1.796875 C25.3619805,2.04166789 25.557291,2.39322687 25.6875,2.8515625 L24.5429688,3.125 C24.4752601,2.82812352 24.3339854,2.59375086 24.1191406,2.421875 C23.9042958,2.24999914 23.6432307,2.1640625 23.3359375,2.1640625 C22.9114562,2.1640625 22.5670586,2.31640473 22.3027344,2.62109375 C22.0384101,2.92578277 21.90625,3.41926742 21.90625,4.1015625 C21.90625,4.82552445 22.036457,5.3411443 22.296875,5.6484375 C22.557293,5.9557307 22.8958313,6.109375 23.3125,6.109375 C23.6197932,6.109375 23.8841135,6.01171973 24.1054688,5.81640625 C24.326824,5.62109277 24.4856766,5.31380418 24.5820312,4.89453125 Z" id="SYNC"></path>
            </g>
            <g id="Frequency-Mod" transform="translate(0.000000, 72.000000)" fill-rule="nonzero">
                <path d="M15.5,0.5 L13.5,0.5 L13.5,3.5 L15.5,3.5 L15.5,0.5 Z M15.5,4.5 L13.5,4.5 L13.5,7.5 L15.5,7.5 L15.5,4.5 Z M15.5,8.5 L13.5,8.5 L13.5,11.5 L15.5,11.5 L15.5,8.5 Z M15.5,12.5 L13.5,12.5 L13.5,15.5 L15.5,15.5 L15.5,12.5 Z M15.5,16.5 L13.5,16.5 L13.5,19.5 L15.5,19.5 L15.5,16.5 Z M15.5,20.5 L13.5,20.5 L13.5,23.5 L15.5,23.5 L15.5,20.5 Z M15.5,24.5 L13.5,24.5 L13.5,27.5 L15.5,27.5 L15.5,24.5 Z M15.5,28.5 L13.5,28.5 L13.5,31.5 L15.5,31.5 L15.5,28.5 Z" id="Line-Copy-7" fill="#E6E6E6"></path>
                <path d="M15.4492188,19.1757812 C16.292973,19.1757812 16.9680964,19.4374974 17.4746094,19.9609375 C17.9811223,20.4843776 18.234375,21.2122349 18.234375,22.1445312 C18.234375,23.069015 17.9830754,23.7923151 17.4804688,24.3144531 C16.9778621,24.8365912 16.3059938,25.0976562 15.4648438,25.0976562 C14.613277,25.0976562 13.9362004,24.8378932 13.4335938,24.3183594 C12.9309871,23.7988255 12.6796875,23.0833379 12.6796875,22.171875 C12.6796875,21.5885387 12.7669262,21.0989603 12.9414062,20.703125 C13.0716152,20.4114569 13.2493478,20.1497407 13.4746094,19.9179688 C13.6998709,19.6861968 13.9466132,19.5143235 14.2148438,19.4023438 C14.5716164,19.2513013 14.9830706,19.1757812 15.4492188,19.1757812 Z M7.96484375,19.2734375 L9.00390625,23.1796875 L10.03125,19.2734375 L11.765625,19.2734375 L11.765625,25 L10.6914062,25 L10.6914062,20.4921875 L9.5546875,25 L8.44140625,25 L7.30859375,20.4921875 L7.30859375,25 L6.234375,25 L6.234375,19.2734375 L7.96484375,19.2734375 Z M21.2460938,19.2734375 C21.7226586,19.2734375 22.0859362,19.3098955 22.3359375,19.3828125 C22.6718767,19.4817713 22.9596342,19.6575508 23.1992188,19.9101562 C23.4388033,20.1627617 23.6210931,20.4720034 23.7460938,20.8378906 C23.8710944,21.2037779 23.9335938,21.6549452 23.9335938,22.1914062 C23.9335938,22.6627628 23.8750006,23.0690087 23.7578125,23.4101562 C23.6145826,23.826825 23.4101576,24.1640612 23.1445312,24.421875 C22.9440094,24.6171885 22.6731788,24.7695307 22.3320312,24.8789062 C22.0768216,24.9596358 21.7356792,25 21.3085938,25 L19.1328125,25 L19.1328125,19.2734375 L21.2460938,19.2734375 Z M15.4609375,20.1640625 C14.9843726,20.1640625 14.6002619,20.3274723 14.3085938,20.6542969 C14.0169256,20.9811214 13.8710938,21.473955 13.8710938,22.1328125 C13.8710938,22.7812532 14.0208318,23.2727848 14.3203125,23.6074219 C14.6197932,23.942059 14.9999977,24.109375 15.4609375,24.109375 C15.9218773,24.109375 16.3001287,23.943361 16.5957031,23.6113281 C16.8912775,23.2792952 17.0390625,22.7812533 17.0390625,22.1171875 C17.0390625,21.4609342 16.8951837,20.9713558 16.6074219,20.6484375 C16.31966,20.3255192 15.9375024,20.1640625 15.4609375,20.1640625 Z M20.8085938,20.2421875 L20.2890625,20.2421875 L20.2890625,24.0351562 L21.1523438,24.0351562 C21.475262,24.0351562 21.7083326,24.0169273 21.8515625,23.9804688 C22.0390634,23.9335935 22.1946608,23.8541672 22.3183594,23.7421875 C22.4420579,23.6302078 22.5429684,23.4459648 22.6210938,23.1894531 C22.6992191,22.9329414 22.7382812,22.5833355 22.7382812,22.140625 C22.7382812,21.6979145 22.6992191,21.3580741 22.6210938,21.1210938 C22.5429684,20.8841134 22.4335945,20.6992194 22.2929688,20.5664062 C22.152343,20.4335931 21.9739594,20.3437502 21.7578125,20.296875 C21.5963534,20.2604165 21.2799503,20.2421875 20.8085938,20.2421875 Z" id="MOD" fill="#000000"></path>
            </g>
            <g id="Frequency" fill-rule="nonzero">
                <path d="M15.5,0 L13.5,0 L13.5,3 L15.5,3 L15.5,0 Z M15.5,4 L13.5,4 L13.5,7 L15.5,7 L15.5,4 Z M15.5,8 L13.5,8 L13.5,11 L15.5,11 L15.5,8 Z M15.5,12 L13.5,12 L13.5,15 L15.5,15 L15.5,12 Z M15.5,16 L13.5,16 L13.5,19 L15.5,19 L15.5,16 Z M15.5,20 L13.5,20 L13.5,23 L15.5,23 L15.5,20 Z M15.5,24 L13.5,24 L13.5,27 L15.5,27 L15.5,24 Z M15.5,28 L13.5,28 L13.5,31 L15.5,31 L15.5,28 Z M15.5,32 L13.5,32 L13.5,35 L15.5,35 L15.5,32 Z M15.5,36 L13.5,36 L13.5,39 L15.5,39 L15.5,36 Z" id="Line-Copy-11" fill="#E6E6E6"></path>
                <path d="M5.93164062,26 L3.88476562,20.2734375 L5.13867188,20.2734375 L6.58789062,24.5117188 L7.99023438,20.2734375 L9.21679688,20.2734375 L7.16601562,26 L5.93164062,26 Z M9.57226562,23.171875 C9.57226562,22.5885387 9.65950434,22.0989603 9.83398438,21.703125 C9.96419336,21.4114569 10.141926,21.1497407 10.3671875,20.9179688 C10.592449,20.6861968 10.8391914,20.5143235 11.1074219,20.4023438 C11.4641945,20.2513013 11.8756487,20.1757812 12.3417969,20.1757812 C13.1855511,20.1757812 13.8606746,20.4374974 14.3671875,20.9609375 C14.8737004,21.4843776 15.1269531,22.2122349 15.1269531,23.1445312 C15.1269531,24.069015 14.8756536,24.7923151 14.3730469,25.3144531 C13.8704402,25.8365912 13.1985719,26.0976562 12.3574219,26.0976562 C11.5058551,26.0976562 10.8287786,25.8378932 10.3261719,25.3183594 C9.8235652,24.7988255 9.57226562,24.0833379 9.57226562,23.171875 Z M10.7636719,23.1328125 C10.7636719,23.7812532 10.91341,24.2727848 11.2128906,24.6074219 C11.5123713,24.942059 11.8925758,25.109375 12.3535156,25.109375 C12.8144554,25.109375 13.1927069,24.943361 13.4882812,24.6113281 C13.7838556,24.2792952 13.9316406,23.7812533 13.9316406,23.1171875 C13.9316406,22.4609342 13.7877619,21.9713558 13.5,21.6484375 C13.2122381,21.3255192 12.8300805,21.1640625 12.3535156,21.1640625 C11.8769507,21.1640625 11.49284,21.3274723 11.2011719,21.6542969 C10.9095037,21.9811214 10.7636719,22.473955 10.7636719,23.1328125 Z M19.6933594,23.8945312 L20.8144531,24.25 C20.6425773,24.8750031 20.3567728,25.3391912 19.9570312,25.6425781 C19.5572897,25.9459651 19.0501333,26.0976562 18.4355469,26.0976562 C17.6751264,26.0976562 17.0501327,25.8378932 16.5605469,25.3183594 C16.0709611,24.7988255 15.8261719,24.0885462 15.8261719,23.1875 C15.8261719,22.2343702 16.0722632,21.4941433 16.5644531,20.9667969 C17.0566431,20.4394505 17.703772,20.1757812 18.5058594,20.1757812 C19.2063837,20.1757812 19.7753884,20.3828104 20.2128906,20.796875 C20.4733086,21.0416679 20.6686191,21.3932269 20.7988281,21.8515625 L19.6542969,22.125 C19.5865882,21.8281235 19.4453136,21.5937509 19.2304688,21.421875 C19.0156239,21.2499991 18.7545588,21.1640625 18.4472656,21.1640625 C18.0227843,21.1640625 17.6783867,21.3164047 17.4140625,21.6210938 C17.1497383,21.9257828 17.0175781,22.4192674 17.0175781,23.1015625 C17.0175781,23.8255245 17.1477852,24.3411443 17.4082031,24.6484375 C17.6686211,24.9557307 18.0071594,25.109375 18.4238281,25.109375 C18.7311213,25.109375 18.9954416,25.0117197 19.2167969,24.8164062 C19.4381521,24.6210928 19.5970047,24.3138042 19.6933594,23.8945312 Z M23.0957031,26 L23.0957031,21.2421875 L21.3964844,21.2421875 L21.3964844,20.2734375 L25.9472656,20.2734375 L25.9472656,21.2421875 L24.2519531,21.2421875 L24.2519531,26 L23.0957031,26 Z" id="VOCT" fill="#000000"></path>
            </g>
        </g>
        <g id="Tone-2" transform="translate(42.000000, 38.000000)">
            <g id="Output" transform="translate(0.000000, 269.000000)">
                <rect id="Rectangle" fill="#1D1D1D" x="0" y="0" width="30" height="44" rx="4"></rect>
                <path d="M3.60742188,10 L3.60742188,5.2421875 L1.90820312,5.2421875 L1.90820312,4.2734375 L6.45898438,4.2734375 L6.45898438,5.2421875 L4.76367188,5.2421875 L4.76367188,10 L3.60742188,10 Z M6.82617188,7.171875 C6.82617188,6.58853875 6.91341059,6.09896031 7.08789062,5.703125 C7.21809961,5.41145687 7.39583221,5.14974074 7.62109375,4.91796875 C7.84635529,4.68619676 8.09309762,4.51432348 8.36132812,4.40234375 C8.71810074,4.25130133 9.12955496,4.17578125 9.59570312,4.17578125 C10.4394573,4.17578125 11.1145808,4.43749738 11.6210938,4.9609375 C12.1276067,5.48437762 12.3808594,6.21223492 12.3808594,7.14453125 C12.3808594,8.06901504 12.1295598,8.7923151 11.6269531,9.31445312 C11.1243464,9.83659115 10.4524782,10.0976562 9.61132812,10.0976562 C8.75976137,10.0976562 8.0826848,9.83789322 7.58007812,9.31835938 C7.07747145,8.79882553 6.82617188,8.08333789 6.82617188,7.171875 Z M8.01757812,7.1328125 C8.01757812,7.78125324 8.16731621,8.27278479 8.46679688,8.60742188 C8.76627754,8.94205896 9.14648207,9.109375 9.60742188,9.109375 C10.0683617,9.109375 10.4466131,8.94336104 10.7421875,8.61132812 C11.0377619,8.27929521 11.1855469,7.78125332 11.1855469,7.1171875 C11.1855469,6.46093422 11.0416681,5.97135578 10.7539062,5.6484375 C10.4661444,5.32551922 10.0839868,5.1640625 9.60742188,5.1640625 C9.13085699,5.1640625 8.74674625,5.32747232 8.45507812,5.65429688 C8.16341,5.98112143 8.01757812,6.47395504 8.01757812,7.1328125 Z M13.2949219,10 L13.2949219,4.2734375 L14.4199219,4.2734375 L16.7636719,8.09765625 L16.7636719,4.2734375 L17.8378906,4.2734375 L17.8378906,10 L16.6777344,10 L14.3691406,6.265625 L14.3691406,10 L13.2949219,10 Z M19.0605469,10 L19.0605469,4.2734375 L23.3066406,4.2734375 L23.3066406,5.2421875 L20.2167969,5.2421875 L20.2167969,6.51171875 L23.0917969,6.51171875 L23.0917969,7.4765625 L20.2167969,7.4765625 L20.2167969,9.03515625 L23.4160156,9.03515625 L23.4160156,10 L19.0605469,10 Z M27.8613281,8.98046875 L27.8613281,10 L24.0136719,10 C24.0553388,9.61458141 24.1803375,9.24935068 24.3886719,8.90429688 C24.573858,8.59758238 24.9195339,8.20188109 25.4257081,7.71718337 L25.9245524,7.24594824 C26.2432256,6.93875275 26.4461078,6.7213548 26.5332031,6.59375 C26.6842455,6.36718637 26.7597656,6.14323027 26.7597656,5.921875 C26.7597656,5.67708211 26.6940111,5.48893295 26.5625,5.35742188 C26.4309889,5.2259108 26.2493501,5.16015625 26.0175781,5.16015625 C25.7884103,5.16015625 25.6061205,5.22916598 25.4707031,5.3671875 C25.3352858,5.50520902 25.2571616,5.7343734 25.2363281,6.0546875 L24.1425781,5.9453125 C24.2076826,5.34114281 24.4121077,4.9075534 24.7558594,4.64453125 C25.0996111,4.3815091 25.5292943,4.25 26.0449219,4.25 C26.6100289,4.25 27.0540348,4.40234223 27.3769531,4.70703125 C27.6998714,5.01172027 27.8613281,5.39062273 27.8613281,5.84375 C27.8613281,6.10156379 27.8151046,6.34700404 27.7226562,6.58007812 C27.6302079,6.81315221 27.483725,7.05729039 27.2832031,7.3125 C27.1883366,7.43340834 27.0389967,7.59218172 26.8351808,7.7888228 L26.063812,8.51354999 C25.9934387,8.58264158 25.9409181,8.63671855 25.90625,8.67578125 C25.8138016,8.77994844 25.7389326,8.88150992 25.6816406,8.98046875 L27.8613281,8.98046875 Z" id="TONE2" fill="#FFFFFF" fill-rule="nonzero"></path>
            </g>
            <g id="PW" transform="translate(0.000000, 210.000000)" fill-rule="nonzero">
                <path d="M15.5,0 L13.5,0 L13.5,3 L15.5,3 L15.5,0 Z M15.5,4 L13.5,4 L13.5,7 L15.5,7 L15.5,4 Z M15.5,8 L13.5,8 L13.5,11 L15.5,11 L15.5,8 Z M15.5,12 L13.5,12 L13.5,15 L15.5,15 L15.5,12 Z M15.5,16 L13.5,16 L13.5,19 L15.5,19 L15.5,16 Z M15.5,20 L13.5,20 L13.5,23 L15.5,23 L15.5,20 Z M15.5,24 L13.5,24 L13.5,27 L15.5,27 L15.5,24 Z M15.5,28 L13.5,28 L13.5,31 L15.5,31 L15.5,28 Z M15.5,32 L13.5,32 L13.5,35 L15.5,35 L15.5,32 Z M15.5,36 L13.5,36 L13.5,39 L15.5,39 L15.5,36 Z M15.5,40 L13.5,40 L13.5,43 L15.5,43 L15.5,40 Z" id="Line-Copy-15" fill="#E6E6E6"></path>
                <path d="M9.13867188,26 L9.13867188,20.2734375 L10.9941406,20.2734375 C11.6972691,20.2734375 12.1555979,20.302083 12.3691406,20.359375 C12.6972673,20.4453129 12.9720041,20.63216 13.1933594,20.9199219 C13.4147146,21.2076837 13.5253906,21.5794248 13.5253906,22.0351562 C13.5253906,22.3867205 13.4615892,22.6822905 13.3339844,22.921875 C13.2063796,23.1614595 13.0442718,23.3496087 12.8476562,23.4863281 C12.6510407,23.6230476 12.4511729,23.7135414 12.2480469,23.7578125 C12.0114385,23.8046877 11.6839541,23.8314733 11.2655859,23.8381697 L10.2949219,23.8398438 L10.2949219,26 L9.13867188,26 Z M10.2949219,21.2421875 L10.2949219,22.8671875 L10.9277344,22.8671875 L11.2412118,22.8615723 C11.5263682,22.8503419 11.7265619,22.8222658 11.8417969,22.7773438 C11.9954435,22.7174476 12.115885,22.6236986 12.203125,22.4960938 C12.290365,22.3684889 12.3339844,22.2200529 12.3339844,22.0507812 C12.3339844,21.8424469 12.2727871,21.6705736 12.1503906,21.5351562 C12.0279942,21.3997389 11.8730478,21.3151043 11.6855469,21.28125 C11.5672427,21.2589285 11.3465814,21.2461734 11.0235577,21.2429847 L10.2949219,21.2421875 Z M15.2871094,26 L13.9199219,20.2734375 L15.1035156,20.2734375 L15.9667969,24.2070312 L17.0136719,20.2734375 L18.3886719,20.2734375 L19.3925781,24.2734375 L20.2714844,20.2734375 L21.4355469,20.2734375 L20.0449219,26 L18.8183594,26 L17.6777344,21.71875 L16.5410156,26 L15.2871094,26 Z" fill="#000000"></path>
            </g>
            <g id="Amplifier" transform="translate(0.000000, 139.000000)" fill-rule="nonzero">
                <path d="M15.5,0 L13.5,0 L13.5,3 L15.5,3 L15.5,0 Z M15.5,4 L13.5,4 L13.5,7 L15.5,7 L15.5,4 Z M15.5,8 L13.5,8 L13.5,11 L15.5,11 L15.5,8 Z M15.5,12 L13.5,12 L13.5,15 L15.5,15 L15.5,12 Z M15.5,16 L13.5,16 L13.5,19 L15.5,19 L15.5,16 Z M15.5,20 L13.5,20 L13.5,23 L15.5,23 L15.5,20 Z M15.5,24 L13.5,24 L13.5,27 L15.5,27 L15.5,24 Z M15.5,28 L13.5,28 L13.5,31 L15.5,31 L15.5,28 Z M15.5,32 L13.5,32 L13.5,35 L15.5,35 L15.5,32 Z M15.5,36 L13.5,36 L13.5,39 L15.5,39 L15.5,36 Z M15.5,40 L13.5,40 L13.5,43 L15.5,43 L15.5,40 Z" id="Line-Copy-15" fill="#E6E6E6"></path>
                <path d="M11.8574219,26 L10.5996094,26 L10.0996094,24.6992188 L7.81054688,24.6992188 L7.33789062,26 L6.11132812,26 L8.34179688,20.2734375 L9.56445312,20.2734375 L11.8574219,26 Z M9.72851562,23.734375 L8.93945312,21.609375 L8.16601562,23.734375 L9.72851562,23.734375 Z M14.1855469,20.2734375 L15.2246094,24.1796875 L16.2519531,20.2734375 L17.9863281,20.2734375 L17.9863281,26 L16.9121094,26 L16.9121094,21.4921875 L15.7753906,26 L14.6621094,26 L13.5292969,21.4921875 L13.5292969,26 L12.4550781,26 L12.4550781,20.2734375 L14.1855469,20.2734375 Z M20.9902344,20.2734375 C21.6933629,20.2734375 22.1516916,20.302083 22.3652344,20.359375 C22.693361,20.4453129 22.9680979,20.63216 23.1894531,20.9199219 C23.4108084,21.2076837 23.5214844,21.5794248 23.5214844,22.0351562 C23.5214844,22.3867205 23.4576829,22.6822905 23.3300781,22.921875 C23.2024733,23.1614595 23.0403656,23.3496087 22.84375,23.4863281 C22.6471344,23.6230476 22.4472666,23.7135414 22.2441406,23.7578125 C22.0075323,23.8046877 21.6800478,23.8314733 21.2616796,23.8381697 L20.2910156,23.8398438 L20.2910156,26 L19.1347656,26 L19.1347656,20.2734375 L20.9902344,20.2734375 Z M20.8496094,21.2421875 L20.2910156,21.2421875 L20.2910156,22.8671875 L20.9238281,22.8671875 C21.3795596,22.8671875 21.684244,22.8372399 21.8378906,22.7773438 C21.9915372,22.7174476 22.1119787,22.6236986 22.1992188,22.4960938 C22.2864588,22.3684889 22.3300781,22.2200529 22.3300781,22.0507812 C22.3300781,21.8424469 22.2688808,21.6705736 22.1464844,21.5351562 C22.0240879,21.3997389 21.8691416,21.3151043 21.6816406,21.28125 C21.5436191,21.2552082 21.2662781,21.2421875 20.8496094,21.2421875 Z" id="AMP" fill="#000000"></path>
            </g>
            <g id="Frequency-Mod" transform="translate(0.000000, 72.000000)" fill-rule="nonzero">
                <path d="M15.5,0.5 L13.5,0.5 L13.5,3.5 L15.5,3.5 L15.5,0.5 Z M15.5,4.5 L13.5,4.5 L13.5,7.5 L15.5,7.5 L15.5,4.5 Z M15.5,8.5 L13.5,8.5 L13.5,11.5 L15.5,11.5 L15.5,8.5 Z M15.5,12.5 L13.5,12.5 L13.5,15.5 L15.5,15.5 L15.5,12.5 Z M15.5,16.5 L13.5,16.5 L13.5,19.5 L15.5,19.5 L15.5,16.5 Z M15.5,20.5 L13.5,20.5 L13.5,23.5 L15.5,23.5 L15.5,20.5 Z M15.5,24.5 L13.5,24.5 L13.5,27.5 L15.5,27.5 L15.5,24.5 Z M15.5,28.5 L13.5,28.5 L13.5,31.5 L15.5,31.5 L15.5,28.5 Z" id="Line-Copy-7" fill="#E6E6E6"></path>
                <path d="M15.4492188,19.1757812 C16.292973,19.1757812 16.9680964,19.4374974 17.4746094,19.9609375 C17.9811223,20.4843776 18.234375,21.2122349 18.234375,22.1445312 C18.234375,23.069015 17.9830754,23.7923151 17.4804688,24.3144531 C16.9778621,24.8365912 16.3059938,25.0976562 15.4648438,25.0976562 C14.613277,25.0976562 13.9362004,24.8378932 13.4335938,24.3183594 C12.9309871,23.7988255 12.6796875,23.0833379 12.6796875,22.171875 C12.6796875,21.5885387 12.7669262,21.0989603 12.9414062,20.703125 C13.0716152,20.4114569 13.2493478,20.1497407 13.4746094,19.9179688 C13.6998709,19.6861968 13.9466132,19.5143235 14.2148438,19.4023438 C14.5716164,19.2513013 14.9830706,19.1757812 15.4492188,19.1757812 Z M7.96484375,19.2734375 L9.00390625,23.1796875 L10.03125,19.2734375 L11.765625,19.2734375 L11.765625,25 L10.6914062,25 L10.6914062,20.4921875 L9.5546875,25 L8.44140625,25 L7.30859375,20.4921875 L7.30859375,25 L6.234375,25 L6.234375,19.2734375 L7.96484375,19.2734375 Z M21.2460938,19.2734375 C21.7226586,19.2734375 22.0859362,19.3098955 22.3359375,19.3828125 C22.6718767,19.4817713 22.9596342,19.6575508 23.1992188,19.9101562 C23.4388033,20.1627617 23.6210931,20.4720034 23.7460938,20.8378906 C23.8710944,21.2037779 23.9335938,21.6549452 23.9335938,22.1914062 C23.9335938,22.6627628 23.8750006,23.0690087 23.7578125,23.4101562 C23.6145826,23.826825 23.4101576,24.1640612 23.1445312,24.421875 C22.9440094,24.6171885 22.6731788,24.7695307 22.3320312,24.8789062 C22.0768216,24.9596358 21.7356792,25 21.3085938,25 L19.1328125,25 L19.1328125,19.2734375 L21.2460938,19.2734375 Z M15.4609375,20.1640625 C14.9843726,20.1640625 14.6002619,20.3274723 14.3085938,20.6542969 C14.0169256,20.9811214 13.8710938,21.473955 13.8710938,22.1328125 C13.8710938,22.7812532 14.0208318,23.2727848 14.3203125,23.6074219 C14.6197932,23.942059 14.9999977,24.109375 15.4609375,24.109375 C15.9218773,24.109375 16.3001287,23.943361 16.5957031,23.6113281 C16.8912775,23.2792952 17.0390625,22.7812533 17.0390625,22.1171875 C17.0390625,21.4609342 16.8951837,20.9713558 16.6074219,20.6484375 C16.31966,20.3255192 15.9375024,20.1640625 15.4609375,20.1640625 Z M20.8085938,20.2421875 L20.2890625,20.2421875 L20.2890625,24.0351562 L21.1523438,24.0351562 C21.475262,24.0351562 21.7083326,24.0169273 21.8515625,23.9804688 C22.0390634,23.9335935 22.1946608,23.8541672 22.3183594,23.7421875 C22.4420579,23.6302078 22.5429684,23.4459648 22.6210938,23.1894531 C22.6992191,22.9329414 22.7382812,22.5833355 22.7382812,22.140625 C22.7382812,21.6979145 22.6992191,21.3580741 22.6210938,21.1210938 C22.5429684,20.8841134 22.4335945,20.6992194 22.2929688,20.5664062 C22.152343,20.4335931 21.9739594,20.3437502 21.7578125,20.296875 C21.5963534,20.2604165 21.2799503,20.2421875 20.8085938,20.2421875 Z" id="MOD" fill="#000000"></path>
            </g>
            <g id="Frequency" fill-rule="nonzero">
                <path d="M15.5,0 L13.5,0 L13.5,3 L15.5,3 L15.5,0 Z M15.5,4 L13.5,4 L13.5,7 L15.5,7 L15.5,4 Z M15.5,8 L13.5,8 L13.5,11 L15.5,11 L15.5,8 Z M15.5,12 L13.5,12 L13.5,15 L15.5,15 L15.5,12 Z M15.5,16 L13.5,16 L13.5,19 L15.5,19 L15.5,16 Z M15.5,20 L13.5,20 L13.5,23 L15.5,23 L15.5,20 Z M15.5,24 L13.5,24 L13.5,27 L15.5,27 L15.5,24 Z M15.5,28 L13.5,28 L13.5,31 L15.5,31 L15.5,28 Z M15.5,32 L13.5,32 L13.5,35 L15.5,35 L15.5,32 Z M15.5,36 L13.5,36 L13.5,39 L15.5,39 L15.5,36 Z" id="Line-Copy-11" fill="#E6E6E6"></path>
                <path d="M5.93164062,26 L3.88476562,20.2734375 L5.13867188,20.2734375 L6.58789062,24.5117188 L7.99023438,20.2734375 L9.21679688,20.2734375 L7.16601562,26 L5.93164062,26 Z M9.57226562,23.171875 C9.57226562,22.5885387 9.65950434,22.0989603 9.83398438,21.703125 C9.96419336,21.4114569 10.141926,21.1497407 10.3671875,20.9179688 C10.592449,20.6861968 10.8391914,20.5143235 11.1074219,20.4023438 C11.4641945,20.2513013 11.8756487,20.1757812 12.3417969,20.1757812 C13.1855511,20.1757812 13.8606746,20.4374974 14.3671875,20.9609375 C14.8737004,21.4843776 15.1269531,22.2122349 15.1269531,23.1445312 C15.1269531,24.069015 14.8756536,24.7923151 14.3730469,25.3144531 C13.8704402,25.8365912 13.1985719,26.0976562 12.3574219,26.0976562 C11.5058551,26.0976562 10.8287786,25.8378932 10.3261719,25.3183594 C9.8235652,24.7988255 9.57226562,24.0833379 9.57226562,23.171875 Z M10.7636719,23.1328125 C10.7636719,23.7812532 10.91341,24.2727848 11.2128906,24.6074219 C11.5123713,24.942059 11.8925758,25.109375 12.3535156,25.109375 C12.8144554,25.109375 13.1927069,24.943361 13.4882812,24.6113281 C13.7838556,24.2792952 13.9316406,23.7812533 13.9316406,23.1171875 C13.9316406,22.4609342 13.7877619,21.9713558 13.5,21.6484375 C13.2122381,21.3255192 12.8300805,21.1640625 12.3535156,21.1640625 C11.8769507,21.1640625 11.49284,21.3274723 11.2011719,21.6542969 C10.9095037,21.9811214 10.7636719,22.473955 10.7636719,23.1328125 Z M19.6933594,23.8945312 L20.8144531,24.25 C20.6425773,24.8750031 20.3567728,25.3391912 19.9570312,25.6425781 C19.5572897,25.9459651 19.0501333,26.0976562 18.4355469,26.0976562 C17.6751264,26.0976562 17.0501327,25.8378932 16.5605469,25.3183594 C16.0709611,24.7988255 15.8261719,24.0885462 15.8261719,23.1875 C15.8261719,22.2343702 16.0722632,21.4941433 16.5644531,20.9667969 C17.0566431,20.4394505 17.703772,20.1757812 18.5058594,20.1757812 C19.2063837,20.1757812 19.7753884,20.3828104 20.2128906,20.796875 C20.4733086,21.0416679 20.6686191,21.3932269 20.7988281,21.8515625 L19.6542969,22.125 C19.5865882,21.8281235 19.4453136,21.5937509 19.2304688,21.421875 C19.0156239,21.2499991 18.7545588,21.1640625 18.4472656,21.1640625 C18.0227843,21.1640625 17.6783867,21.3164047 17.4140625,21.6210938 C17.1497383,21.9257828 17.0175781,22.4192674 17.0175781,23.1015625 C17.0175781,23.8255245 17.1477852,24.3411443 17.4082031,24.6484375 C17.6686211,24.9557307 18.0071594,25.109375 18.4238281,25.109375 C18.7311213,25.109375 18.9954416,25.0117197 19.2167969,24.8164062 C19.4381521,24.6210928 19.5970047,24.3138042 19.6933594,23.8945312 Z M23.0957031,26 L23.0957031,21.2421875 L21.3964844,21.2421875 L21.3964844,20.2734375 L25.9472656,20.2734375 L25.9472656,21.2421875 L24.2519531,21.2421875 L24.2519531,26 L23.0957031,26 Z" id="VOCT" fill="#000000"></path>
            </g>
        </g>
        <g id="Tone-1" transform="translate(7.000000, 38.000000)">
            <g id="Output" transform="translate(0.000000, 269.000000)">
                <rect id="Rectangle" fill="#1D1D1D" x="0" y="0" width="30" height="44" rx="4"></rect>
                <path d="M3.60742188,10 L3.60742188,5.2421875 L1.90820312,5.2421875 L1.90820312,4.2734375 L6.45898438,4.2734375 L6.45898438,5.2421875 L4.76367188,5.2421875 L4.76367188,10 L3.60742188,10 Z M6.82617188,7.171875 C6.82617188,6.58853875 6.91341059,6.09896031 7.08789062,5.703125 C7.21809961,5.41145687 7.39583221,5.14974074 7.62109375,4.91796875 C7.84635529,4.68619676 8.09309762,4.51432348 8.36132812,4.40234375 C8.71810074,4.25130133 9.12955496,4.17578125 9.59570312,4.17578125 C10.4394573,4.17578125 11.1145808,4.43749738 11.6210938,4.9609375 C12.1276067,5.48437762 12.3808594,6.21223492 12.3808594,7.14453125 C12.3808594,8.06901504 12.1295598,8.7923151 11.6269531,9.31445312 C11.1243464,9.83659115 10.4524782,10.0976562 9.61132812,10.0976562 C8.75976137,10.0976562 8.0826848,9.83789322 7.58007812,9.31835938 C7.07747145,8.79882553 6.82617188,8.08333789 6.82617188,7.171875 Z M8.01757812,7.1328125 C8.01757812,7.78125324 8.16731621,8.27278479 8.46679688,8.60742188 C8.76627754,8.94205896 9.14648207,9.109375 9.60742188,9.109375 C10.0683617,9.109375 10.4466131,8.94336104 10.7421875,8.61132812 C11.0377619,8.27929521 11.1855469,7.78125332 11.1855469,7.1171875 C11.1855469,6.46093422 11.0416681,5.97135578 10.7539062,5.6484375 C10.4661444,5.32551922 10.0839868,5.1640625 9.60742188,5.1640625 C9.13085699,5.1640625 8.74674625,5.32747232 8.45507812,5.65429688 C8.16341,5.98112143 8.01757812,6.47395504 8.01757812,7.1328125 Z M13.2949219,10 L13.2949219,4.2734375 L14.4199219,4.2734375 L16.7636719,8.09765625 L16.7636719,4.2734375 L17.8378906,4.2734375 L17.8378906,10 L16.6777344,10 L14.3691406,6.265625 L14.3691406,10 L13.2949219,10 Z M19.0605469,10 L19.0605469,4.2734375 L23.3066406,4.2734375 L23.3066406,5.2421875 L20.2167969,5.2421875 L20.2167969,6.51171875 L23.0917969,6.51171875 L23.0917969,7.4765625 L20.2167969,7.4765625 L20.2167969,9.03515625 L23.4160156,9.03515625 L23.4160156,10 L19.0605469,10 Z M26.9628906,10 L25.8652344,10 L25.8652344,5.86328125 C25.4641907,6.23828313 24.9915392,6.5156241 24.4472656,6.6953125 L24.4472656,5.69921875 C24.7337254,5.60546828 25.0449202,5.42773568 25.3808594,5.16601562 C25.7167986,4.90429557 25.9472656,4.59896008 26.0722656,4.25 L26.9628906,4.25 L26.9628906,10 Z" id="TONE1" fill="#FFFFFF" fill-rule="nonzero"></path>
            </g>
            <g id="PW" transform="translate(0.000000, 210.000000)" fill-rule="nonzero">
                <path d="M15.5,0 L13.5,0 L13.5,3 L15.5,3 L15.5,0 Z M15.5,4 L13.5,4 L13.5,7 L15.5,7 L15.5,4 Z M15.5,8 L13.5,8 L13.5,11 L15.5,11 L15.5,8 Z M15.5,12 L13.5,12 L13.5,15 L15.5,15 L15.5,12 Z M15.5,16 L13.5,16 L13.5,19 L15.5,19 L15.5,16 Z M15.5,20 L13.5,20 L13.5,23 L15.5,23 L15.5,20 Z M15.5,24 L13.5,24 L13.5,27 L15.5,27 L15.5,24 Z M15.5,28 L13.5,28 L13.5,31 L15.5,31 L15.5,28 Z M15.5,32 L13.5,32 L13.5,35 L15.5,35 L15.5,32 Z M15.5,36 L13.5,36 L13.5,39 L15.5,39 L15.5,36 Z M15.5,40 L13.5,40 L13.5,43 L15.5,43 L15.5,40 Z" id="Line-Copy-15" fill="#E6E6E6"></path>
                <path d="M9.13867188,26 L9.13867188,20.2734375 L10.9941406,20.2734375 C11.6972691,20.2734375 12.1555979,20.302083 12.3691406,20.359375 C12.6972673,20.4453129 12.9720041,20.63216 13.1933594,20.9199219 C13.4147146,21.2076837 13.5253906,21.5794248 13.5253906,22.0351562 C13.5253906,22.3867205 13.4615892,22.6822905 13.3339844,22.921875 C13.2063796,23.1614595 13.0442718,23.3496087 12.8476562,23.4863281 C12.6510407,23.6230476 12.4511729,23.7135414 12.2480469,23.7578125 C12.0114385,23.8046877 11.6839541,23.8314733 11.2655859,23.8381697 L10.2949219,23.8398438 L10.2949219,26 L9.13867188,26 Z M10.2949219,21.2421875 L10.2949219,22.8671875 L10.9277344,22.8671875 L11.2412118,22.8615723 C11.5263682,22.8503419 11.7265619,22.8222658 11.8417969,22.7773438 C11.9954435,22.7174476 12.115885,22.6236986 12.203125,22.4960938 C12.290365,22.3684889 12.3339844,22.2200529 12.3339844,22.0507812 C12.3339844,21.8424469 12.2727871,21.6705736 12.1503906,21.5351562 C12.0279942,21.3997389 11.8730478,21.3151043 11.6855469,21.28125 C11.5672427,21.2589285 11.3465814,21.2461734 11.0235577,21.2429847 L10.2949219,21.2421875 Z M15.2871094,26 L13.9199219,20.2734375 L15.1035156,20.2734375 L15.9667969,24.2070312 L17.0136719,20.2734375 L18.3886719,20.2734375 L19.3925781,24.2734375 L20.2714844,20.2734375 L21.4355469,20.2734375 L20.0449219,26 L18.8183594,26 L17.6777344,21.71875 L16.5410156,26 L15.2871094,26 Z" fill="#000000"></path>
            </g>
            <g id="Amplifier" transform="translate(0.000000, 139.000000)" fill-rule="nonzero">
                <path d="M15.5,0 L13.5,0 L13.5,3 L15.5,3 L15.5,0 Z M15.5,4 L13.5,4 L13.5,7 L15.5,7 L15.5,4 Z M15.5,8 L13.5,8 L13.5,11 L15.5,11 L15.5,8 Z M15.5,12 L13.5,12 L13.5,15 L15.5,15 L15.5,12 Z M15.5,16 L13.5,16 L13.5,19 L15.5,19 L15.5,16 Z M15.5,20 L13.5,20 L13.5,23 L15.5,23 L15.5,20 Z M15.5,24 L13.5,24 L13.5,27 L15.5,27 L15.5,24 Z M15.5,28 L13.5,28 L13.5,31 L15.5,31 L15.5,28 Z M15.5,32 L13.5,32 L13.5,35 L15.5,35 L15.5,32 Z M15.5,36 L13.5,36 L13.5,39 L15.5,39 L15.5,36 Z M15.5,40 L13.5,40 L13.5,43 L15.5,43 L15.5,40 Z" id="Line-Copy-15" fill="#E6E6E6"></path>
                <path d="M11.8574219,26 L10.5996094,26 L10.0996094,24.6992188 L7.81054688,24.6992188 L7.33789062,26 L6.11132812,26 L8.34179688,20.2734375 L9.56445312,20.2734375 L11.8574219,26 Z M9.72851562,23.734375 L8.93945312,21.609375 L8.16601562,23.734375 L9.72851562,23.734375 Z M14.1855469,20.2734375 L15.2246094,24.1796875 L16.2519531,20.2734375 L17.9863281,20.2734375 L17.9863281,26 L16.9121094,26 L16.9121094,21.4921875 L15.7753906,26 L14.6621094,26 L13.5292969,21.4921875 L13.5292969,26 L12.4550781,26 L12.4550781,20.2734375 L14.1855469,20.2734375 Z M20.9902344,20.2734375 C21.6933629,20.2734375 22.1516916,20.302083 22.3652344,20.359375 C22.693361,20.4453129 22.9680979,20.63216 23.1894531,20.9199219 C23.4108084,21.2076837 23.5214844,21.5794248 23.5214844,22.0351562 C23.5214844,22.3867205 23.4576829,22.6822905 23.3300781,22.921875 C23.2024733,23.1614595 23.0403656,23.3496087 22.84375,23.4863281 C22.6471344,23.6230476 22.4472666,23.7135414 22.2441406,23.7578125 C22.0075323,23.8046877 21.6800478,23.8314733 21.2616796,23.8381697 L20.2910156,23.8398438 L20.2910156,26 L19.1347656,26 L19.1347656,20.2734375 L20.9902344,20.2734375 Z M20.8496094,21.2421875 L20.2910156,21.2421875 L20.2910156,22.8671875 L20.9238281,22.8671875 C21.3795596,22.8671875 21.684244,22.8372399 21.8378906,22.7773438 C21.9915372,22.7174476 22.1119787,22.6236986 22.1992188,22.4960938 C22.2864588,22.3684889 22.3300781,22.2200529 22.3300781,22.0507812 C22.3300781,21.8424469 22.2688808,21.6705736 22.1464844,21.5351562 C22.0240879,21.3997389 21.8691416,21.3151043 21.6816406,21.28125 C21.5436191,21.2552082 21.2662781,21.2421875 20.8496094,21.2421875 Z" id="AMP" fill="#000000"></path>
            </g>
            <g id="Frequency-Mod" transform="translate(0.000000, 72.000000)" fill-rule="nonzero">
                <path d="M15.5,0.5 L13.5,0.5 L13.5,3.5 L15.5,3.5 L15.5,0.5 Z M15.5,4.5 L13.5,4.5 L13.5,7.5 L15.5,7.5 L15.5,4.5 Z M15.5,8.5 L13.5,8.5 L13.5,11.5 L15.5,11.5 L15.5,8.5 Z M15.5,12.5 L13.5,12.5 L13.5,15.5 L15.5,15.5 L15.5,12.5 Z M15.5,16.5 L13.5,16.5 L13.5,19.5 L15.5,19.5 L15.5,16.5 Z M15.5,20.5 L13.5,20.5 L13.5,23.5 L15.5,23.5 L15.5,20.5 Z M15.5,24.5 L13.5,24.5 L13.5,27.5 L15.5,27.5 L15.5,24.5 Z M15.5,28.5 L13.5,28.5 L13.5,31.5 L15.5,31.5 L15.5,28.5 Z" id="Line-Copy-7" fill="#E6E6E6"></path>
                <path d="M15.4492188,19.1757812 C16.292973,19.1757812 16.9680964,19.4374974 17.4746094,19.9609375 C17.9811223,20.4843776 18.234375,21.2122349 18.234375,22.1445312 C18.234375,23.069015 17.9830754,23.7923151 17.4804688,24.3144531 C16.9778621,24.8365912 16.3059938,25.0976562 15.4648438,25.0976562 C14.613277,25.0976562 13.9362004,24.8378932 13.4335938,24.3183594 C12.9309871,23.7988255 12.6796875,23.0833379 12.6796875,22.171875 C12.6796875,21.5885387 12.7669262,21.0989603 12.9414062,20.703125 C13.0716152,20.4114569 13.2493478,20.1497407 13.4746094,19.9179688 C13.6998709,19.6861968 13.9466132,19.5143235 14.2148438,19.4023438 C14.5716164,19.2513013 14.9830706,19.1757812 15.4492188,19.1757812 Z M7.96484375,19.2734375 L9.00390625,23.1796875 L10.03125,19.2734375 L11.765625,19.2734375 L11.765625,25 L10.6914062,25 L10.6914062,20.4921875 L9.5546875,25 L8.44140625,25 L7.30859375,20.4921875 L7.30859375,25 L6.234375,25 L6.234375,19.2734375 L7.96484375,19.2734375 Z M21.2460938,19.2734375 C21.7226586,19.2734375 22.0859362,19.3098955 22.3359375,19.3828125 C22.6718767,19.4817713 22.9596342,19.6575508 23.1992188,19.9101562 C23.4388033,20.1627617 23.6210931,20.4720034 23.7460938,20.8378906 C23.8710944,21.2037779 23.9335938,21.6549452 23.9335938,22.1914062 C23.9335938,22.6627628 23.8750006,23.0690087 23.7578125,23.4101562 C23.6145826,23.826825 23.4101576,24.1640612 23.1445312,24.421875 C22.9440094,24.6171885 22.6731788,24.7695307 22.3320312,24.8789062 C22.0768216,24.9596358 21.7356792,25 21.3085938,25 L19.1328125,25 L19.1328125,19.2734375 L21.2460938,19.2734375 Z M15.4609375,20.1640625 C14.9843726,20.1640625 14.6002619,20.3274723 14.3085938,20.6542969 C14.0169256,20.9811214 13.8710938,21.473955 13.8710938,22.1328125 C13.8710938,22.7812532 14.0208318,23.2727848 14.3203125,23.6074219 C14.6197932,23.942059 14.9999977,24.109375 15.4609375,24.109375 C15.9218773,24.109375 16.3001287,23.943361 16.5957031,23.6113281 C16.8912775,23.2792952 17.0390625,22.7812533 17.0390625,22.1171875 C17.0390625,21.4609342 16.8951837,20.9713558 16.6074219,20.6484375 C16.31966,20.3255192 15.9375024,20.1640625 15.4609375,20.1640625 Z M20.8085938,20.2421875 L20.2890625,20.2421875 L20.2890625,24.0351562 L21.1523438,24.0351562 C21.475262,24.0351562 21.7083326,24.0169273 21.8515625,23.9804688 C22.0390634,23.9335935 22.1946608,23.8541672 22.3183594,23.7421875 C22.4420579,23.6302078 22.5429684,23.4459648 22.6210938,23.1894531 C22.6992191,22.9329414 22.7382812,22.5833355 22.7382812,22.140625 C22.7382812,21.6979145 22.6992191,21.3580741 22.6210938,21.1210938 C22.5429684,20.8841134 22.4335945,20.6992194 22.2929688,20.5664062 C22.152343,20.4335931 21.9739594,20.3437502 21.7578125,20.296875 C21.5963534,20.2604165 21.2799503,20.2421875 20.8085938,20.2421875 Z" id="MOD" fill="#000000"></path>
            </g>
            <g id="Frequency" fill-rule="nonzero">
                <path d="M15.5,0 L13.5,0 L13.5,3 L15.5,3 L15.5,0 Z M15.5,4 L13.5,4 L13.5,7 L15.5,7 L15.5,4 Z M15.5,8 L13.5,8 L13.5,11 L15.5,11 L15.5,8 Z M15.5,12 L13.5,12 L13.5,15 L15.5,15 L15.5,12 Z M15.5,16 L13.5,16 L13.5,19 L15.5,19 L15.5,16 Z M15.5,20 L13.5,20 L13.5,23 L15.5,23 L15.5,20 Z M15.5,24 L13.5,24 L13.5,27 L15.5,27 L15.5,24 Z M15.5,28 L13.5,28 L13.5,31 L15.5,31 L15.5,28 Z M15.5,32 L13.5,32 L13.5,35 L15.5,35 L15.5,32 Z M15.5,36 L13.5,36 L13.5,39 L15.5,39 L15.5,36 Z" id="Line-Copy-11" fill="#E6E6E6"></path>
                <path d="M5.93164062,26 L3.88476562,20.2734375 L5.13867188,20.2734375 L6.58789062,24.5117188 L7.99023438,20.2734375 L9.21679688,20.2734375 L7.16601562,26 L5.93164062,26 Z M9.57226562,23.171875 C9.57226562,22.5885387 9.65950434,22.0989603 9.83398438,21.703125 C9.96419336,21.4114569 10.141926,21.1497407 10.3671875,20.9179688 C10.592449,20.6861968 10.8391914,20.5143235 11.1074219,20.4023438 C11.4641945,20.2513013 11.8756487,20.1757812 12.3417969,20.1757812 C13.1855511,20.1757812 13.8606746,20.4374974 14.3671875,20.9609375 C14.8737004,21.4843776 15.1269531,22.2122349 15.1269531,23.1445312 C15.1269531,24.069015 14.8756536,24.7923151 14.3730469,25.3144531 C13.8704402,25.8365912 13.1985719,26.0976562 12.3574219,26.0976562 C11.5058551,26.0976562 10.8287786,25.8378932 10.3261719,25.3183594 C9.8235652,24.7988255 9.57226562,24.0833379 9.57226562,23.171875 Z M10.7636719,23.1328125 C10.7636719,23.7812532 10.91341,24.2727848 11.2128906,24.6074219 C11.5123713,24.942059 11.8925758,25.109375 12.3535156,25.109375 C12.8144554,25.109375 13.1927069,24.943361 13.4882812,24.6113281 C13.7838556,24.2792952 13.9316406,23.7812533 13.9316406,23.1171875 C13.9316406,22.4609342 13.7877619,21.9713558 13.5,21.6484375 C13.2122381,21.3255192 12.8300805,21.1640625 12.3535156,21.1640625 C11.8769507,21.1640625 11.49284,21.3274723 11.2011719,21.6542969 C10.9095037,21.9811214 10.7636719,22.473955 10.7636719,23.1328125 Z M19.6933594,23.8945312 L20.8144531,24.25 C20.6425773,24.8750031 20.3567728,25.3391912 19.9570312,25.6425781 C19.5572897,25.9459651 19.0501333,26.0976562 18.4355469,26.0976562 C17.6751264,26.0976562 17.0501327,25.8378932 16.5605469,25.3183594 C16.0709611,24.7988255 15.8261719,24.0885462 15.8261719,23.1875 C15.8261719,22.2343702 16.0722632,21.4941433 16.5644531,20.9667969 C17.0566431,20.4394505 17.703772,20.1757812 18.5058594,20.1757812 C19.2063837,20.1757812 19.7753884,20.3828104 20.2128906,20.796875 C20.4733086,21.0416679 20.6686191,21.3932269 20.7988281,21.8515625 L19.6542969,22.125 C19.5865882,21.8281235 19.4453136,21.5937509 19.2304688,21.421875 C19.0156239,21.2499991 18.7545588,21.1640625 18.4472656,21.1640625 C18.0227843,21.1640625 17.6783867,21.3164047 17.4140625,21.6210938 C17.1497383,21.9257828 17.0175781,22.4192674 17.0175781,23.1015625 C17.0175781,23.8255245 17.1477852,24.3411443 17.4082031,24.6484375 C17.6686211,24.9557307 18.0071594,25.109375 18.4238281,25.109375 C18.7311213,25.109375 18.9954416,25.0117197 19.2167969,24.8164062 C19.4381521,24.6210928 19.5970047,24.3138042 19.6933594,23.8945312 Z M23.0957031,26 L23.0957031,21.2421875 L21.3964844,21.2421875 L21.3964844,20.2734375 L25.9472656,20.2734375 L25.9472656,21.2421875 L24.2519531,21.2421875 L24.2519531,26 L23.0957031,26 Z" id="VOCT" fill="#000000"></path>
            </g>
        </g>
    </g>
</svg>