<?xml version="1.0" encoding="UTF-8"?>
<svg width="150px" height="380px" viewBox="0 0 150 380" version="1.1" xmlns="http://www.w3.org/2000/svg" xmlns:xlink="http://www.w3.org/1999/xlink">
    <!-- Generator: Sketch 58 (84663) - https://sketch.com -->
    <title>MegaTone</title>
    <desc>Created with Sketch.</desc>
    <g id="MegaTone" stroke="none" stroke-width="1" fill="none" fill-rule="evenodd">
        <g id="bg">
            <rect id="cover" fill="#E6E6E6" x="0" y="0" width="150" height="380" rx="2"></rect>
            <path d="M32,29 C34.7614237,29 37,31.2385763 37,34 L37,346 C37,348.761424 34.7614237,351 32,351 L12,351 C9.23857625,351 7,348.761424 7,346 L7,34 C7,31.2385763 9.23857625,29 12,29 L32,29 Z M67,29 C69.7614237,29 72,31.2385763 72,34 L72,346 C72,348.761424 69.7614237,351 67,351 L47,351 C44.2385763,351 42,348.761424 42,346 L42,34 C42,31.2385763 44.2385763,29 47,29 L67,29 Z M102,29 C104.761424,29 107,31.2385763 107,34 L107,346 C107,348.761424 104.761424,351 102,351 L82,351 C79.2385763,351 77,348.761424 77,346 L77,34 C77,31.2385763 79.2385763,29 82,29 L102,29 Z M137,29 C139.761424,29 142,31.2385763 142,34 L142,346 C142,348.761424 139.761424,351 137,351 L117,351 C114.238576,351 112,348.761424 112,346 L112,34 C112,31.2385763 114.238576,29 117,29 L137,29 Z" id="voice-lanes" fill="#C41C73"></path>
            <g id="Logo/Panel/LightMode" transform="translate(43.000000, 364.000000)" fill="#000000" fill-rule="nonzero">
                <g id="Logo/Print/LightMode" transform="translate(0.000000, -0.000000)">
                    <path d="M1.95775432,2.21673387 L3.38562168,2.21673387 L3.38562168,4.9702621 L6.06699634,2.21673387 L7.94254488,2.21673387 L5.09623504,4.9702621 L8.08863032,8.90322581 L6.22250665,8.90322581 L4.0783494,5.98185484 L3.38562168,6.66683468 L3.38562168,8.90322581 L1.95775432,8.90322581 L1.95775432,2.21673387 Z M11.6276679,6.49899194 C11.5428437,6.55040348 11.4572353,6.59198573 11.3708403,6.62373992 C11.2844452,6.65549411 11.1658502,6.6849797 11.0150515,6.71219758 L10.7134558,6.76663306 C10.4307084,6.8150204 10.2280757,6.87399159 10.1055519,6.94354839 C9.89820375,7.06149253 9.79453125,7.24445441 9.79453125,7.49243952 C9.79453125,7.71320675 9.85814847,7.87273136 9.98538481,7.97101815 C10.1126211,8.06930493 10.2673445,8.11844758 10.4495595,8.11844758 C10.7385902,8.11844758 11.00484,8.03679517 11.248317,7.8734879 C11.4917939,7.71018064 11.618243,7.41230055 11.6276679,6.97983871 L11.6276679,6.49899194 Z M10.8124169,5.89566532 C11.0606051,5.86542324 11.2381062,5.82762119 11.3449219,5.78225806 C11.5365618,5.70362864 11.6323803,5.58115003 11.6323803,5.41481855 C11.6323803,5.21219657 11.5593383,5.07232901 11.4132522,4.99521169 C11.267166,4.91809437 11.0527524,4.87953629 10.770005,4.87953629 C10.4526995,4.87953629 10.2280758,4.95514037 10.096127,5.10635081 C10.0018779,5.21824653 9.93904603,5.36945469 9.90762965,5.55997984 L8.61171044,5.55997984 C8.63998518,5.127518 8.76564882,4.77217881 8.98870512,4.49395161 C9.34371022,4.05846556 9.95317886,3.84072581 10.8171293,3.84072581 C11.3794825,3.84072581 11.8789955,3.9480836 12.3156832,4.16280242 C12.7523709,4.37752123 12.9707114,4.78275912 12.9707114,5.37852823 L12.9707114,7.64667339 C12.9707114,7.80393224 12.973853,7.99445453 12.9801363,8.21824597 C12.9895612,8.38760165 13.0162647,8.50251986 13.0602477,8.56300403 C13.1042306,8.62348821 13.170204,8.6733869 13.2581699,8.71270161 L13.2581699,8.90322581 L11.7973155,8.90322581 C11.7564742,8.80342692 11.7281999,8.70967786 11.7124917,8.62197581 C11.6967835,8.53427376 11.6842171,8.43447637 11.6747922,8.32258065 C11.4894356,8.51613 11.2758074,8.6809469 11.0339013,8.81703629 C10.7448706,8.97731935 10.4181451,9.05745968 10.0537151,9.05745968 C9.58875266,9.05745968 9.20469317,8.92968878 8.9015251,8.67414315 C8.59835703,8.41859751 8.44677527,8.05645396 8.44677527,7.58770161 C8.44677527,6.97983567 8.69024856,6.53981991 9.17720246,6.26764113 C9.44424169,6.1194549 9.83694056,6.01360919 10.3553108,5.95010081 L10.8124169,5.89566532 Z M15.5012882,3.95866935 L15.5012882,6.9390121 C15.5012882,7.2202635 15.5358457,7.43195493 15.6049618,7.57409274 C15.7274857,7.82510206 15.9678174,7.95060484 16.3259641,7.95060484 C16.7846433,7.95060484 17.0988023,7.7721792 17.2684508,7.41532258 C17.3564167,7.22177323 17.4003989,6.96623143 17.4003989,6.64868952 L17.4003989,3.95866935 L18.7622922,3.95866935 L18.7622922,8.90322581 L17.4569481,8.90322581 L17.4569481,8.2046371 L17.4405489,8.22641125 C17.4238355,8.24969746 17.3978858,8.28780215 17.3626995,8.34072581 C17.3124333,8.41633102 17.252743,8.48286262 17.183627,8.54032258 C16.9731372,8.7217751 16.7697192,8.8457658 16.5733669,8.91229839 C16.3770145,8.97883098 16.1468929,9.01209677 15.8829953,9.01209677 C15.1227189,9.01209677 14.6106396,8.74899457 14.346742,8.22278226 C14.199085,7.93245823 14.1252576,7.50453912 14.1252576,6.9390121 L14.1252576,3.95866935 L15.5012882,3.95866935 Z M19.5304189,4.92489919 L19.5304189,4.00403226 L20.2467088,4.00403226 L20.2467088,2.625 L21.575615,2.625 L21.575615,4.00403226 L22.4097158,4.00403226 L22.4097158,4.92489919 L21.575615,4.92489919 L21.575615,7.53780242 C21.575615,7.7404244 21.6023185,7.86668322 21.6557264,7.91658266 C21.7091342,7.9664821 21.872497,7.99143145 22.1458195,7.99143145 C22.1866608,7.99143145 22.2298577,7.99067541 22.2754114,7.98916331 C22.3209652,7.9876512 22.3657328,7.98538308 22.4097158,7.98235887 L22.4097158,8.94858871 L21.7735372,8.97127016 C21.1389263,8.99243962 20.7053868,8.88659391 20.4729056,8.65372984 C20.322107,8.50554361 20.2467088,8.27721928 20.2467088,7.96875 L20.2467088,4.92489919 L19.5304189,4.92489919 Z M25.2984375,4.89314516 C24.9874153,4.89314516 24.7462982,4.98689422 24.575079,5.17439516 C24.4038597,5.3618961 24.2962602,5.61592582 24.2522773,5.93649194 L26.3398853,5.93649194 C26.3178938,5.59475636 26.2102944,5.33543435 26.0170836,5.15851815 C25.8238729,4.98160194 25.5843266,4.89314516 25.2984375,4.89314516 Z M25.2984375,3.82711694 C25.7257003,3.82711694 26.1105452,3.9042331 26.4529837,4.05846774 C26.7954223,4.21270238 27.0781654,4.45614753 27.3012217,4.78881048 C27.5022866,5.08215872 27.6326626,5.4223771 27.6923537,5.80947581 C27.7269117,6.03629146 27.7410489,6.36290109 27.7347656,6.78931452 L24.2192902,6.78931452 C24.2381401,7.28528474 24.399932,7.63306352 24.7046709,7.83266129 C24.8900275,7.95665385 25.1130805,8.01864919 25.3738364,8.01864919 C25.6503006,8.01864919 25.8749243,7.94304511 26.0477144,7.79183468 C26.1419636,7.71018104 26.2252157,7.59677492 26.2974734,7.4516129 L27.6687916,7.4516129 C27.6342335,7.74496114 27.4755832,8.04284123 27.1928358,8.3452621 C26.7530064,8.82611128 26.1372546,9.06653226 25.3455618,9.06653226 C24.6921011,9.06653226 24.1156192,8.86391332 23.6160987,8.45866935 C23.1165783,8.05342539 22.8668218,7.39415779 22.8668218,6.48084677 C22.8668218,5.62499572 23.092231,4.96875228 23.543056,4.51209677 C23.9938811,4.05544127 24.5790024,3.82711694 25.2984375,3.82711694 Z M31.4858627,3.84072581 C32.0167995,3.84072581 32.4511245,3.97454503 32.7888506,4.2421875 C33.1265767,4.50982997 33.2954372,4.95362593 33.2954372,5.57358871 L33.2954372,8.90322581 L31.9194066,8.90322581 L31.9194066,5.89566532 C31.9194066,5.63558338 31.8832783,5.4359886 31.8110206,5.296875 C31.6790718,5.04284147 31.4277445,4.91582661 31.0570313,4.91582661 C30.6014937,4.91582661 30.2889054,5.10181266 30.119257,5.47379032 C30.0312911,5.67036389 29.9873088,5.92136944 29.9873088,6.22681452 L29.9873088,8.90322581 L28.6489777,8.90322581 L28.6489777,3.96774194 L29.9448969,3.96774194 L29.9448969,4.6890121 C30.117687,4.43497857 30.2810498,4.25201669 30.43499,4.14012097 C30.7114542,3.9405232 31.0617416,3.84072581 31.4858627,3.84072581 Z M35.9391124,3.36895161 L34.5960688,3.36895161 L34.5960688,2.17590726 L35.9391124,2.17590726 L35.9391124,3.36895161 Z M33.9504654,10.8855847 L33.9504654,9.85131048 L34.0978762,9.86197785 L34.0978762,9.86197785 L34.1106882,9.86265121 C34.1421045,9.86416331 34.1703789,9.86491935 34.195512,9.86491935 C34.3274608,9.86491935 34.4272063,9.83392168 34.4947515,9.7719254 C34.5622967,9.70992913 34.5960688,9.58971863 34.5960688,9.41129032 L34.5960688,3.98135081 L35.9391124,3.98135081 L35.9391124,9.43397177 C35.9391124,9.9329662 35.8370107,10.3019141 35.6328042,10.5408266 C35.435185,10.7720322 35.0536827,10.8913625 34.4882863,10.8988206 L34.4311336,10.8991935 C34.4077958,10.8991935 34.3780467,10.8986998 34.341886,10.8977123 L34.0479841,10.8881768 C34.0170809,10.8873128 33.9845746,10.8864487 33.9504654,10.8855847 Z M40.0483544,6.49899194 C39.9635302,6.55040348 39.8779218,6.59198573 39.7915268,6.62373992 C39.7051317,6.65549411 39.5865367,6.6849797 39.435738,6.71219758 L39.1341423,6.76663306 C38.8513949,6.8150204 38.6487622,6.87399159 38.5262384,6.94354839 C38.3188903,7.06149253 38.2152178,7.24445441 38.2152178,7.49243952 C38.2152178,7.71320675 38.278835,7.87273136 38.4060713,7.97101815 C38.5333077,8.06930493 38.688031,8.11844758 38.870246,8.11844758 C39.1592767,8.11844758 39.4255265,8.03679517 39.6690035,7.8734879 C39.9124804,7.71018064 40.0389295,7.41230055 40.0483544,6.97983871 L40.0483544,6.49899194 Z M39.2331034,5.89566532 C39.4812916,5.86542324 39.6587927,5.82762119 39.7656084,5.78225806 C39.9572483,5.70362864 40.0530668,5.58115003 40.0530668,5.41481855 C40.0530668,5.21219657 39.9800248,5.07232901 39.8339387,4.99521169 C39.6878525,4.91809437 39.4734389,4.87953629 39.1906915,4.87953629 C38.873386,4.87953629 38.6487623,4.95514037 38.5168135,5.10635081 C38.4225644,5.21824653 38.3597325,5.36945469 38.3283162,5.55997984 L37.0323969,5.55997984 C37.0606717,5.127518 37.1863353,4.77217881 37.4093916,4.49395161 C37.7643967,4.05846556 38.3738654,3.84072581 39.2378158,3.84072581 C39.800169,3.84072581 40.299682,3.9480836 40.7363697,4.16280242 C41.1730574,4.37752123 41.3913979,4.78275912 41.3913979,5.37852823 L41.3913979,7.64667339 C41.3913979,7.80393224 41.3945395,7.99445453 41.4008228,8.21824597 C41.4102477,8.38760165 41.4369512,8.50251986 41.4809342,8.56300403 C41.5249171,8.62348821 41.5908905,8.6733869 41.6788564,8.71270161 L41.6788564,8.90322581 L40.218002,8.90322581 C40.1771607,8.80342692 40.1488864,8.70967786 40.1331782,8.62197581 C40.11747,8.53427376 40.1049036,8.43447637 40.0954787,8.32258065 C39.9101221,8.51613 39.6964939,8.6809469 39.4545878,8.81703629 C39.1655571,8.97731935 38.8388316,9.05745968 38.4744016,9.05745968 C38.0094392,9.05745968 37.6253797,8.92968878 37.3222116,8.67414315 C37.0190435,8.41859751 36.8674618,8.05645396 36.8674618,7.58770161 C36.8674618,6.97983567 37.1109351,6.53981991 37.597889,6.26764113 C37.8649282,6.1194549 38.2576271,6.01360919 38.7759973,5.95010081 L39.2331034,5.89566532 Z M44.1010472,3.37802419 L44.1010472,7.74193548 L45.4393783,7.74193548 C46.1242554,7.74193548 46.6017772,7.41683793 46.8719581,6.76663306 C47.0196151,6.40977644 47.0934425,5.9848815 47.0934425,5.49193548 C47.0934425,4.81148853 46.9827014,4.28906432 46.7612159,3.92464718 C46.5397304,3.56023003 46.0991223,3.37802419 45.4393783,3.37802419 L44.1010472,3.37802419 Z M45.6844249,2.21673387 C46.1148293,2.22278229 46.4729706,2.2711689 46.7588597,2.36189516 C47.2458136,2.5161298 47.6400833,2.79888907 47.9416805,3.21018145 C48.1835866,3.54284441 48.3485202,3.90271984 48.436486,4.28981855 C48.5244519,4.67691726 48.5684342,5.04586518 48.5684342,5.39667339 C48.5684342,6.28579074 48.3830803,7.0388074 48.012367,7.65574597 C47.5097049,8.48740335 46.733732,8.90322581 45.6844249,8.90322581 L42.6920296,8.90322581 L42.6920296,2.21673387 L45.6844249,2.21673387 Z M50.7125914,6.83921371 C50.7565744,7.14465879 50.8429681,7.37298311 50.9717753,7.52419355 C51.2073981,7.79939654 51.6110926,7.93699597 52.1828707,7.93699597 C52.5253092,7.93699597 52.80334,7.90070601 53.0169714,7.828125 C53.4222427,7.6890114 53.6248753,7.43044544 53.6248753,7.05241935 C53.6248753,6.83165212 53.5243444,6.6607869 53.3232796,6.53981855 C53.132268,6.42777162 52.8377712,6.32800817 52.4397811,6.24052551 L51.6409408,6.06804435 C50.9183641,5.9107855 50.4188511,5.73992028 50.142387,5.55544355 C49.6742829,5.24697426 49.4402344,4.76462022 49.4402344,4.10836694 C49.4402344,3.50957362 49.6664289,3.01209876 50.1188248,2.61592742 C50.5712207,2.21975608 51.2356672,2.02167339 52.1121842,2.02167339 C52.8441858,2.02167339 53.468577,2.20841547 53.9853765,2.58190524 C54.502176,2.95539501 54.7731382,3.49747629 54.7982713,4.20816532 L53.403391,4.20816532 C53.3782579,3.80594557 53.1960456,3.52016214 52.8567487,3.35080645 C52.6305507,3.23891073 52.3493783,3.18296371 52.0132231,3.18296371 C51.6393681,3.18296371 51.340917,3.25554363 51.1178607,3.40070565 C50.8948044,3.54586766 50.7832779,3.7484866 50.7832779,4.00856855 C50.7832779,4.23662137 50.8834648,4.40956118 51.0838415,4.52739263 L51.1131483,4.54385081 C51.248867,4.61933505 51.5322436,4.70736003 51.9632861,4.80792817 L53.2148936,5.09727823 C53.7395472,5.21824657 54.1353876,5.38003931 54.4024269,5.58266129 C54.8171231,5.89717899 55.0244681,6.35231557 55.0244681,6.94808468 C55.0244681,7.55897483 54.7817802,8.06627822 54.2963971,8.47001008 C53.811014,8.87374194 53.1253618,9.07560484 52.2394199,9.07560484 C51.3346281,9.07560484 50.6230578,8.8767661 50.1046875,8.47908266 C49.5863172,8.08139922 49.327136,7.5347817 49.327136,6.83921371 L50.7125914,6.83921371 Z M60.0102227,4.34425403 C60.0102227,3.99647004 59.9151896,3.74848864 59.7251205,3.60030242 C59.5350514,3.45211619 59.2688016,3.37802419 58.926363,3.37802419 L57.5738946,3.37802419 L57.5738946,5.34677419 L58.926363,5.34677419 C59.2688016,5.34677419 59.5350514,5.26663387 59.7251205,5.10635081 C59.9151896,4.94606775 60.0102227,4.69203803 60.0102227,4.34425403 Z M61.447515,4.33518145 C61.447515,5.12449991 61.24017,5.68245804 60.8254737,6.00907258 C60.4107775,6.33568712 59.8185876,6.49899194 59.0488863,6.49899194 L57.5738946,6.49899194 L57.5738946,8.90322581 L56.13189,8.90322581 L56.13189,2.21673387 L59.1572723,2.21673387 C59.8547159,2.21673387 60.4107775,2.38911118 60.8254737,2.73387097 C61.24017,3.07863076 61.447515,3.61239558 61.447515,4.33518145 Z" id="KautenjaDSP"></path>
                </g>
            </g>
            <path d="M45.327,4.78 L45.4063335,5.00400047 C45.4498891,5.13466704 45.4747777,5.22799972 45.481,5.284 C45.4996668,5.46133422 45.4343341,5.61066606 45.285,5.732 C45.285,5.74133338 45.2756668,5.75533324 45.257,5.774 C45.3410004,6.21266886 45.3596669,6.62333142 45.313,7.006 C45.2663331,7.38866858 45.205667,7.75733156 45.131,8.112 L45.5568808,7.40093849 C45.8665606,6.89591207 46.1259323,6.50293474 46.335,6.222 C46.9510031,5.39132918 47.5249973,4.79866844 48.057,4.444 C48.2343342,4.34133282 48.451332,4.26433359 48.708,4.213 C48.9646679,4.16166641 49.2096655,4.15466648 49.443,4.192 C49.6763345,4.22933352 49.8699992,4.32266592 50.024,4.472 C50.1780008,4.62133408 50.2456668,4.84533184 50.227,5.144 C49.9656654,6.9640091 49.6856682,8.66032547 49.387,10.233 C49.0883318,11.8056745 48.7010024,13.3059929 48.225,14.734 L48.225,14.762 L48.211,14.762 C48.0989994,15.0980017 47.8190022,15.3359993 47.371,15.476 C46.9323311,15.6066673 46.5403351,15.6160006 46.195,15.504 C45.8169981,15.3947995 45.6242195,15.2024412 45.6166599,14.9269204 L45.635,14.482 L45.68456,14.1569198 C45.6881067,14.1294799 45.691,14.1049333 45.69324,14.08328 L45.698,14.027 C45.7026667,13.9476663 45.7096666,13.8893335 45.719,13.852 C45.7376668,13.6093321 45.777333,13.3830011 45.838,13.173 L45.9167501,12.8877499 C45.9389167,12.8025834 45.9569999,12.7273337 45.971,12.662 L46.0985556,12.0918889 C46.1037407,12.0644075 46.1078889,12.0397779 46.111,12.018 L45.8897648,12.3132108 C45.6494025,12.6245527 45.4711487,12.8201477 45.355,12.9 C44.9816648,13.1613346 44.5476691,13.2826668 44.053,13.264 C43.7449985,13.2453332 43.5676669,13.1753339 43.521,13.054 L43.4369998,12.8284439 C43.3996665,12.7335551 43.3693333,12.6654999 43.346,12.6242778 L43.325,12.592 C43.2689997,12.517333 43.2223335,12.3913342 43.185,12.214 L43.0530988,12.7684481 C42.8559417,13.5536062 42.66191,14.1294527 42.471,14.496 C42.3776662,14.6733342 42.2843338,14.8319993 42.191,14.972 C42.0603327,15.2800015 41.761669,15.4946661 41.295,15.616 C40.8563311,15.7373339 40.4363353,15.7280007 40.035,15.588 C39.6243313,15.4573327 39.4283332,15.2240017 39.447,14.888 C39.4656668,14.5519983 39.5333327,14.1296692 39.65,13.621 C39.7375004,13.2394981 39.8368123,12.8409381 39.9479372,12.4253133 L40.5155544,10.3321351 C40.7606753,9.45431811 40.9481562,8.84027626 41.078,8.49 L41.2425717,8.05457051 C41.373524,7.71552306 41.4889995,7.4360011 41.589,7.216 C41.9250017,6.49732974 42.2236654,5.9746683 42.485,5.648 C42.7743348,5.05999706 43.2549966,4.70533394 43.927,4.584 C44.4590027,4.48133282 44.9256647,4.5466655 45.327,4.78 Z M52.663,13.236 L53.0932867,13.277143 C53.4237627,13.3057144 53.683999,13.32 53.874,13.32 C54.1400013,13.32 54.543664,13.282667 55.085,13.208 C55.2530008,13.2640003 55.3509999,13.3339996 55.379,13.418 C55.3976668,13.4740003 55.4080371,13.531037 55.4101112,13.589111 L55.407,13.677 C55.3976666,13.7656671 55.4023332,13.8519996 55.421,13.936 C55.4396668,14.0200004 55.5283325,14.0899997 55.687,14.146 C55.7710004,14.1740001 55.7966668,14.255666 55.764,14.391 C55.7313332,14.526334 55.6543339,14.6733325 55.533,14.832 C55.2249985,15.2333353 54.8610021,15.5133325 54.441,15.672 L53.9641239,15.7848753 C53.5143738,15.8846254 53.1460014,15.9449999 52.859,15.966 C52.2243302,16.0126669 51.5336704,15.9893335 50.787,15.896 C49.9656626,15.7466659 49.5689999,15.4060027 49.597,14.874 C49.597,12.9139902 50.026329,10.9446766 50.885,8.966 C51.1650014,8.32199678 51.4823316,7.64533688 51.837,6.936 C51.911667,6.78666592 51.9559999,6.6186676 51.97,6.432 C51.9840001,6.2453324 51.9956666,6.06333422 52.005,5.886 C52.0143334,5.70866578 52.0423331,5.5500007 52.089,5.41 C52.1356669,5.2699993 52.2336659,5.17200028 52.383,5.116 C54.324343,4.34132946 55.859661,4.04266578 56.989,4.22 C57.381002,4.22933338 57.6399994,4.36233205 57.766,4.619 C57.8920006,4.87566795 57.9060005,5.16266508 57.808,5.48 C57.7099995,5.79733492 57.5186681,6.0959986 57.234,6.376 C56.9493319,6.6560014 56.5923355,6.82866634 56.163,6.894 L55.6838878,7.03555585 C55.4121842,7.11851875 55.2358893,7.17866648 55.155,7.216 C54.9683324,7.30560045 54.82348,7.41909292 54.7204401,7.5564797 L54.651,7.664 C54.5203327,7.86933436 54.3990006,8.0653324 54.287,8.252 C54.1749994,8.4386676 54.0956669,8.63933226 54.049,8.854 L53.993,9.162 C54.1703342,9.24600042 54.387332,9.27166683 54.644,9.239 L55.358,9.141 L55.358,9.141 C55.5773344,9.10833317 55.754666,9.10599986 55.89,9.134 C56.025334,9.16200014 56.0533337,9.29966543 55.974,9.547 C55.8946663,9.79433457 55.750001,10.0719985 55.54,10.38 C55.3299989,10.6880015 55.0336686,10.9119993 54.651,11.052 L54.2164401,11.1416 L54.2164401,11.1416 L53.951,11.206 L53.951,11.206 L53.6252863,11.2331428 C53.5570958,11.2377143 53.4790004,11.2426666 53.391,11.248 C52.9523311,11.9946704 52.6863338,12.5733313 52.593,12.984 C52.5556665,13.1520008 52.5789996,13.236 52.663,13.236 Z M63.402061,11.8198781 C63.0575273,12.016117 62.7211756,12.0214906 62.393,11.836 C62.2809994,11.7675552 62.1772962,11.696 62.081889,11.6213335 L61.945,11.507 C61.8143327,11.3903327 61.6930006,11.3366666 61.581,11.346 C61.3756656,11.2339994 61.3289994,11.0146683 61.441,10.688 C61.4876669,10.5573327 61.5739994,10.4336672 61.7,10.317 C61.8260006,10.2003328 61.986999,10.1186669 62.183,10.072 C63.116338,9.67066466 63.9796627,9.57733226 64.773,9.792 C65.1276684,9.8853338 65.372666,10.0743319 65.508,10.359 C65.643334,10.6436681 65.7016668,10.9633316 65.683,11.318 C65.6643332,11.6726684 65.587334,12.0319982 65.452,12.396 C65.316666,12.7600018 65.1696675,13.0516656 65.011,13.271 C64.8523325,13.4903344 64.6306681,13.7493318 64.346,14.048 C64.0613319,14.3466682 63.7043355,14.6359986 63.275,14.916 C62.2203281,15.5973367 61.091006,15.9240001 59.887,15.896 C58.1416579,15.8679999 57.1103349,15.154007 56.793,13.754 C56.6903328,13.3059978 56.6436666,12.8020028 56.653,12.242 C56.7463338,10.6179919 57.2316623,9.10134038 58.109,7.692 C58.5290021,7.01999664 59.0936631,6.3573366 59.803,5.704 C60.2510022,5.30266466 60.7549972,4.99466774 61.315,4.78 C61.6136682,4.65866606 61.9729979,4.54200056 62.393,4.43 C63.7370067,4.15933198 64.7823296,4.3273303 65.529,4.934 C65.8836684,5.22333478 66.1193327,5.64333058 66.236,6.194 C66.3526672,6.74466942 66.2896679,7.36066326 66.047,8.042 C65.9443328,8.35933492 65.7670013,8.59733254 65.515,8.756 C65.2629987,8.91466746 65.0040013,9.00566655 64.738,9.029 C64.4719987,9.05233345 64.2316677,9.01966711 64.017,8.931 C63.8023323,8.84233289 63.6856668,8.71400084 63.667,8.546 L63.541,8.266 C63.3169989,7.92999832 62.9296694,7.88799874 62.379,8.14 C61.9029976,8.35466774 61.4270024,8.72799734 60.951,9.26 C60.4469975,9.82933618 60.1203341,10.3426644 59.971,10.8 C59.8029992,11.3040025 59.719,11.6353325 59.719,11.794 C59.7003332,12.1486684 59.826332,12.4659986 60.097,12.746 C60.489002,12.9980013 60.880998,13.1123334 61.273,13.089 C61.665002,13.0656665 62.0149985,12.9770008 62.323,12.823 C62.6310015,12.6689992 62.882999,12.494001 63.079,12.298 C63.275001,12.101999 63.373,11.9620004 63.373,11.878 L63.402061,11.8198781 L63.402061,11.8198781 Z M73.523,5.508 C73.8403349,5.67600084 74.0409996,5.9233317 74.125,6.25 C74.0005549,6.94689237 73.8844073,7.6406667 73.7765557,8.3313322 L73.5098748,10.1070017 C73.3996248,10.8175016 73.2920005,11.4334974 73.187,11.955 L73.0102498,12.8667507 C72.9863332,12.9968337 72.9651875,13.1159791 72.9468125,13.2241873 L72.9,13.516 C72.8486664,13.8613351 72.7903337,14.2066649 72.725,14.552 L72.641,14.846 L72.585,15.133 L72.585,15.133 C72.5663332,15.2216671 72.5476668,15.3173328 72.529,15.42 C72.2676654,15.7186682 71.9130022,15.868 71.465,15.868 C70.9889976,15.868 70.6110014,15.7466679 70.331,15.504 C70.1816659,15.3878513 70.14295,15.1574007 70.2148517,14.8126425 L70.247,14.678 C70.2936669,14.5099992 70.3239999,14.2930013 70.338,14.027 C70.3520001,13.7609987 70.3683332,13.5393342 70.387,13.362 L70.387,13.334 C70.1069986,13.4366672 69.8550011,13.5696659 69.631,13.733 L69.211,14.041 L69.211,14.041 C69.1549997,14.0830002 69.0803338,14.1156666 68.987,14.139 C68.8936662,14.1623335 68.809667,14.1786666 68.735,14.188 C68.5576658,14.1973334 68.4363337,14.2253331 68.371,14.272 C67.829664,15.2426715 67.3443355,15.7839994 66.915,15.896 C66.644332,15.9800001 66.373668,16.0010002 66.103,15.959 C65.832332,15.9169998 65.6176675,15.7560014 65.459,15.476 C65.1603318,15.1959986 65.2349978,14.4306729 65.683,13.18 C65.9256679,12.51733 66.2733311,11.7216713 66.726,10.793 C67.1786689,9.86432869 67.6149979,9.05467012 68.035,8.364 C68.9403379,6.87999258 69.9343279,5.62933842 71.017,4.612 L71.3903331,4.44711125 C71.4556663,4.41703721 71.5225552,4.38566683 71.591,4.353 C71.7963344,4.25499951 71.9993323,4.20133338 72.2,4.192 C72.4006677,4.18266662 72.6083323,4.20599972 72.823,4.262 C73.0376677,4.31800028 73.2196659,4.40199944 73.369,4.514 C73.7143351,4.77533464 73.7656679,5.10666466 73.523,5.508 Z M70.527,9.19 C70.3799993,9.6100021 70.2330002,10.0050622 70.0860003,10.3751869 L69.61644,11.5223999 C69.5514802,11.6829329 69.4910003,11.8341326 69.435,11.976 L70.541,11.934 C70.615667,11.3366637 70.6996662,10.7440029 70.793,10.156 C70.8863338,9.56799706 70.9749996,8.98000294 71.059,8.392 L70.527,9.19 Z M70.149,11.99 C70.2796673,11.99 70.4103327,11.9806668 70.541,11.962 L70.541,11.948 L70.1221197,11.98496 C70.1008397,11.98832 70.1097998,11.99 70.149,11.99 Z M83.173667,10.6841103 L82.917,11.416 C82.7489992,11.9013358 82.5789259,12.3742223 82.4067781,12.834666 L82.147,13.516 C81.8856654,14.1880034 81.6686675,14.6989982 81.496,15.049 C81.3233325,15.3990017 81.1716673,15.6393327 81.041,15.77 C80.9103327,15.9006673 80.777334,15.9893331 80.642,16.036 C80.506666,16.0826669 80.371334,16.1013334 80.236,16.092 L79.823,16.064 L79.823,16.064 C79.0389961,15.9426661 78.7963318,15.378005 79.095,14.37 L80.0399999,10.4553203 L80.0399999,10.4553203 L80.075,10.317 C80.1310003,10.0976656 80.1916663,9.88066774 80.257,9.666 L80.3672499,9.3230001 C80.4080832,9.20166707 80.4529998,9.07333401 80.502,8.938 L80.887,7.86 L80.887,7.86 C80.5323316,7.9066669 80.2150014,7.86933394 79.935,7.748 C79.5243313,7.57066578 79.356333,7.18800294 79.431,6.6 C79.4683335,6.32933198 79.6129987,6.0773345 79.865,5.844 C79.9956673,5.72266606 80.1496658,5.5920007 80.327,5.452 C80.6910018,5.16266522 81.4143279,4.8546683 82.497,4.528 C83.6170056,4.19199832 84.5783293,4.03333324 85.381,4.052 C85.5956677,4.01466648 85.8173322,4.04033289 86.046,4.129 C86.2746678,4.21766711 86.4589993,4.33666592 86.599,4.486 C86.7390007,4.63533408 86.8113333,4.79866578 86.816,4.976 C86.8206667,5.15333422 86.7063345,5.3119993 86.473,5.452 C86.3609994,5.52666704 86.2816669,5.65033247 86.235,5.823 C86.1883331,5.99566753 86.1370003,6.17766571 86.081,6.369 C86.0249997,6.56033429 85.9433339,6.73533254 85.836,6.894 C85.7286661,7.05266746 85.5583345,7.14599986 85.325,7.174 C85.2036661,7.23933366 85.0333344,7.28599986 84.814,7.314 L84.4998398,7.35684001 C84.4479467,7.36467999 84.4080001,7.37139997 84.38,7.377 C84.3099996,7.39100007 84.2703334,7.41666648 84.261,7.454 L83.659,9.253 C83.5034437,9.72278013 83.3416667,10.1998147 83.173667,10.6841103 Z M87.915,5.732 C88.5030029,5.05999664 89.1563297,4.64000084 89.875,4.472 C90.3696691,4.35066606 90.8363311,4.36933254 91.275,4.528 C91.6203351,4.16399818 92.0683306,4.03333282 92.619,4.136 C93.1230025,4.2293338 93.5523316,4.51399762 93.907,4.99 C93.9210001,5.03900024 93.9468124,5.10637475 93.9844374,5.19212477 L94.026,5.284 C94.086667,5.41466732 94.1449997,5.55933254 94.201,5.718 C94.6116687,6.67000476 94.6443351,7.92065892 94.299,9.47 C93.8696645,11.3926763 93.1090055,13.0213267 92.017,14.356 C91.6809983,14.7666687 91.3030021,15.107332 90.883,15.378 C90.2109966,15.8913359 89.408338,16.1200003 88.475,16.064 C87.8963304,16.0359999 87.411002,15.8913346 87.019,15.63 C85.4603255,14.8553295 84.951664,13.2406789 85.493,10.786 C85.9410022,8.76998992 86.7483275,7.0853401 87.915,5.732 Z M88.083,13.166 L88.069,13.25 L88.097,13.404 C88.1530003,13.6933348 88.2463327,13.9149992 88.377,14.069 C88.5076673,14.2230008 88.6149996,14.3186665 88.699,14.356 C88.7923338,14.281333 88.8856662,14.2113337 88.979,14.146 C89.0723338,14.0806663 89.156333,14.0013338 89.231,13.908 C89.8656698,13.1239961 90.3603316,12.0973397 90.715,10.828 C91.0696684,9.55866032 91.2003338,8.38267208 91.107,7.3 C90.7429982,7.766669 90.3603353,8.3033303 89.959,8.91 L89.6355708,9.40828667 C89.3831899,9.80542924 89.1736675,10.1573318 89.007,10.464 C88.4749973,11.4626717 88.1670004,12.3633293 88.083,13.166 Z M94.971,9.568 L95.1917145,8.8424278 C95.2812381,8.55480934 95.359333,8.31366764 95.426,8.119 L95.59925,7.63424987 C95.6564165,7.48141692 95.7129997,7.33733401 95.769,7.202 C95.8810006,6.93133198 96.0093326,6.67000126 96.154,6.418 C96.2986674,6.16599874 96.4573325,5.93500105 96.63,5.725 C96.8026675,5.51499895 96.986999,5.34933394 97.183,5.228 C97.379001,5.10666606 97.5843323,5.046 97.799,5.046 C98.0136677,5.046 98.2376655,5.12999916 98.471,5.298 L98.7961118,6.12866839 C98.9807043,6.61400137 99.1009997,6.96244339 99.157,7.174 C99.2690006,7.640669 99.3716662,8.29866242 99.465,9.148 C99.5210003,9.00488817 99.5821851,8.85659264 99.6485554,8.7031114 L99.752,8.469 C99.8593339,8.23099881 99.9643328,7.99066788 100.067,7.748 C100.356335,7.13199692 100.538333,6.66533492 100.613,6.348 C100.818334,5.6946634 101.242997,5.2046683 101.887,4.878 C102.447003,4.5979986 102.969664,4.50933282 103.455,4.612 C103.651001,4.64933352 103.788666,4.72866606 103.868,4.85 C103.931467,4.94706715 103.94416,5.04711978 103.90608,5.15015981 L103.868,5.228 C103.788666,5.35866732 103.760667,5.48233275 103.784,5.599 C103.807333,5.71566725 103.828333,5.85333254 103.847,6.012 C103.875,6.44133548 103.800334,6.82166501 103.623,7.153 C103.445666,7.48433499 103.263668,7.89499755 103.077,8.385 C102.890332,8.87500245 102.701334,9.39533058 102.51,9.946 L101.929,11.626 C101.781999,12.0530021 101.637625,12.4511248 101.495875,12.8203744 L101.355,13.18 C100.944331,14.2533387 100.608335,14.8459994 100.347,14.958 C99.9923316,15.1726677 99.7310008,15.2986665 99.563,15.336 C99.3483323,15.3733335 99.045002,15.3733335 98.653,15.336 C98.4323928,15.3190302 98.2387857,15.0590879 98.0721737,14.556166 L98.023,14.398 C97.9349996,14.1179986 97.8538573,13.7454303 97.7795715,13.2802865 L97.6264283,12.286855 C97.5388093,11.7516167 97.4750002,11.4473337 97.435,11.374 L97.2101065,12.092288 C96.977011,12.8218126 96.7998694,13.3227614 96.6786787,13.5951427 L96.644,13.67 C96.4899992,13.9873349 96.3733337,14.1973328 96.294,14.3 L96.1627501,14.4784999 C96.1149168,14.5461664 96.0630003,14.6219996 96.007,14.706 C95.8856661,15.0420017 95.5963356,15.2893325 95.139,15.448 C94.746998,15.5973341 94.3923349,15.6206672 94.075,15.518 C93.7296649,15.4059994 93.6269993,15.1913349 93.767,14.874 C93.8696672,13.7539944 94.2709965,11.9853454 94.971,9.568 Z M106.003,13.236 L106.433287,13.277143 C106.763763,13.3057144 107.023999,13.32 107.214,13.32 C107.480001,13.32 107.883664,13.282667 108.425,13.208 C108.593001,13.2640003 108.691,13.3339996 108.719,13.418 C108.737667,13.4740003 108.748037,13.531037 108.750111,13.589111 L108.747,13.677 C108.737667,13.7656671 108.742333,13.8519996 108.761,13.936 C108.779667,14.0200004 108.868333,14.0899997 109.027,14.146 C109.111,14.1740001 109.136667,14.255666 109.104,14.391 C109.071333,14.526334 108.994334,14.6733325 108.873,14.832 C108.564998,15.2333353 108.201002,15.5133325 107.781,15.672 L107.304124,15.7848753 C106.854374,15.8846254 106.486001,15.9449999 106.199,15.966 C105.56433,16.0126669 104.87367,15.9893335 104.127,15.896 C103.36433,15.7573326 102.967833,15.4536927 102.9375,14.9850719 L102.937,14.874 C102.937,12.9139902 103.366329,10.9446766 104.225,8.966 C104.505001,8.32199678 104.822332,7.64533688 105.177,6.936 C105.251667,6.78666592 105.296,6.6186676 105.31,6.432 L105.345,5.886 L105.345,5.886 C105.354333,5.70866578 105.382333,5.5500007 105.429,5.41 C105.475667,5.2699993 105.573666,5.17200028 105.723,5.116 C107.664343,4.34132946 109.199661,4.04266578 110.329,4.22 C110.721002,4.22933338 110.979999,4.36233205 111.106,4.619 C111.232001,4.87566795 111.246,5.16266508 111.148,5.48 C111.05,5.79733492 110.858668,6.0959986 110.574,6.376 C110.289332,6.6560014 109.932335,6.82866634 109.503,6.894 L109.023888,7.03555585 C108.752184,7.11851875 108.575889,7.17866648 108.495,7.216 C108.308332,7.30560045 108.16348,7.41909292 108.06044,7.5564797 L107.991,7.664 C107.860333,7.86933436 107.739001,8.0653324 107.627,8.252 C107.514999,8.4386676 107.435667,8.63933226 107.389,8.854 L107.333,9.162 C107.510334,9.24600042 107.727332,9.27166683 107.984,9.239 L108.698,9.141 L108.698,9.141 C108.917334,9.10833317 109.094666,9.10599986 109.23,9.134 C109.365334,9.16200014 109.393334,9.29966543 109.314,9.547 C109.234666,9.79433457 109.090001,10.0719985 108.88,10.38 C108.669999,10.6880015 108.373669,10.9119993 107.991,11.052 L107.55644,11.1416 L107.55644,11.1416 L107.291,11.206 L107.291,11.206 L106.965286,11.2331428 C106.897096,11.2377143 106.819,11.2426666 106.731,11.248 C106.292331,11.9946704 106.026334,12.5733313 105.933,12.984 C105.895666,13.1520008 105.919,13.236 106.003,13.236 Z" id="MEGATONE" fill="#0D3B99" fill-rule="nonzero"></path>
        </g>
        <g id="Output" transform="translate(7.000000, 293.000000)">
            <g id="Normal" transform="translate(28.000000, 38.000000)" stroke="#1D1D1D" stroke-width="2">
                <polygon id="Triangle" transform="translate(4.500000, 4.500000) rotate(-270.000000) translate(-4.500000, -4.500000) " points="4.5 0 9 9 0 9"></polygon>
                <polygon id="Triangle-Copy" transform="translate(39.500000, 4.500000) rotate(-270.000000) translate(-39.500000, -4.500000) " points="39.5 0 44 9 35 9"></polygon>
                <polygon id="Triangle-Copy-2" transform="translate(74.500000, 4.500000) rotate(-270.000000) translate(-74.500000, -4.500000) " points="74.5 0 79 9 70 9"></polygon>
            </g>
            <g id="Noise" transform="translate(105.000000, 0.000000)">
                <rect id="Rectangle-Copy-3" fill="#1D1D1D" x="0" y="0" width="30" height="58" rx="4"></rect>
                <path d="M2.14648438,24 L2.14648438,18.2734375 L3.27148438,18.2734375 L5.61523438,22.0976562 L5.61523438,18.2734375 L6.68945312,18.2734375 L6.68945312,24 L5.52929688,24 L3.22070312,20.265625 L3.22070312,24 L2.14648438,24 Z M7.67773438,21.171875 C7.67773438,20.5885387 7.76497309,20.0989603 7.93945312,19.703125 C8.06966211,19.4114569 8.24739471,19.1497407 8.47265625,18.9179688 C8.69791779,18.6861968 8.94466012,18.5143235 9.21289062,18.4023438 C9.56966324,18.2513013 9.98111746,18.1757812 10.4472656,18.1757812 C11.2910198,18.1757812 11.9661433,18.4374974 12.4726562,18.9609375 C12.9791692,19.4843776 13.2324219,20.2122349 13.2324219,21.1445312 C13.2324219,22.069015 12.9811223,22.7923151 12.4785156,23.3144531 C11.9759089,23.8365912 11.3040407,24.0976562 10.4628906,24.0976562 C9.61132387,24.0976562 8.9342473,23.8378932 8.43164062,23.3183594 C7.92903395,22.7988255 7.67773438,22.0833379 7.67773438,21.171875 Z M8.86914062,21.1328125 C8.86914062,21.7812532 9.01887871,22.2727848 9.31835938,22.6074219 C9.61784004,22.942059 9.99804457,23.109375 10.4589844,23.109375 C10.9199242,23.109375 11.2981756,22.943361 11.59375,22.6113281 C11.8893244,22.2792952 12.0371094,21.7812533 12.0371094,21.1171875 C12.0371094,20.4609342 11.8932306,19.9713558 11.6054688,19.6484375 C11.3177069,19.3255192 10.9355493,19.1640625 10.4589844,19.1640625 C9.98241949,19.1640625 9.59830875,19.3274723 9.30664062,19.6542969 C9.0149725,19.9811214 8.86914062,20.473955 8.86914062,21.1328125 Z M14.0996094,24 L14.0996094,18.2734375 L15.2558594,18.2734375 L15.2558594,24 L14.0996094,24 Z M16.0644531,22.1367188 L17.1894531,22.0273438 C17.2571618,22.4049498 17.3945302,22.6822908 17.6015625,22.859375 C17.8085948,23.0364592 18.0878889,23.125 18.4394531,23.125 C18.8118508,23.125 19.092447,23.0462247 19.28125,22.8886719 C19.470053,22.731119 19.5644531,22.5468761 19.5644531,22.3359375 C19.5644531,22.2005202 19.52474,22.0852869 19.4453125,21.9902344 C19.365885,21.8951818 19.2272145,21.8125004 19.0292969,21.7421875 C18.8938795,21.6953123 18.5852889,21.6119798 18.1035156,21.4921875 C17.4837209,21.3385409 17.0488294,21.1497407 16.7988281,20.9257812 C16.4472639,20.6106755 16.2714844,20.2265648 16.2714844,19.7734375 C16.2714844,19.4817694 16.3541658,19.2089856 16.5195312,18.9550781 C16.6848967,18.7011706 16.9231755,18.5078132 17.234375,18.375 C17.5455745,18.2421868 17.9212218,18.1757812 18.3613281,18.1757812 C19.0800817,18.1757812 19.6210919,18.3333318 19.984375,18.6484375 C20.3476581,18.9635432 20.5384114,19.384112 20.5566406,19.9101562 L19.4003906,19.9609375 C19.3509112,19.6666652 19.2447925,19.4550788 19.0820312,19.3261719 C18.91927,19.197265 18.6751318,19.1328125 18.3496094,19.1328125 C18.0136702,19.1328125 17.750652,19.2018222 17.5605469,19.3398438 C17.4381504,19.4283859 17.3769531,19.5468743 17.3769531,19.6953125 C17.3769531,19.8307298 17.4342442,19.9466141 17.5488281,20.0429688 C17.6784584,20.1517656 17.9726944,20.2646762 18.4315435,20.3817032 L18.6113281,20.4257812 C19.1738309,20.5585944 19.5898424,20.6959628 19.859375,20.8378906 C20.1289076,20.9798184 20.339843,21.1738269 20.4921875,21.4199219 C20.644532,21.6660169 20.7207031,21.9700503 20.7207031,22.3320312 C20.7207031,22.6601579 20.6295582,22.9674465 20.4472656,23.2539062 C20.264973,23.540366 20.0071631,23.7532545 19.6738281,23.8925781 C19.3404931,24.0319017 18.9251327,24.1015625 18.4277344,24.1015625 C17.7037724,24.1015625 17.1477884,23.9342465 16.7597656,23.5996094 C16.3717429,23.2649723 16.1399743,22.777347 16.0644531,22.1367188 Z M21.6933594,24 L21.6933594,18.2734375 L25.9394531,18.2734375 L25.9394531,19.2421875 L22.8496094,19.2421875 L22.8496094,20.5117188 L25.7246094,20.5117188 L25.7246094,21.4765625 L22.8496094,21.4765625 L22.8496094,23.0351562 L26.0488281,23.0351562 L26.0488281,24 L21.6933594,24 Z" id="NOISE" fill="#FFFFFF" fill-rule="nonzero"></path>
            </g>
            <g id="Tone-3-Out" transform="translate(70.000000, 0.000000)">
                <rect id="Rectangle-Copy-2" fill="#1D1D1D" x="0" y="0" width="30" height="58" rx="4"></rect>
                <path d="M3.60742188,24 L3.60742188,19.2421875 L1.90820312,19.2421875 L1.90820312,18.2734375 L6.45898438,18.2734375 L6.45898438,19.2421875 L4.76367188,19.2421875 L4.76367188,24 L3.60742188,24 Z M6.82617188,21.171875 C6.82617188,20.5885387 6.91341059,20.0989603 7.08789062,19.703125 C7.21809961,19.4114569 7.39583221,19.1497407 7.62109375,18.9179688 C7.84635529,18.6861968 8.09309762,18.5143235 8.36132812,18.4023438 C8.71810074,18.2513013 9.12955496,18.1757812 9.59570312,18.1757812 C10.4394573,18.1757812 11.1145808,18.4374974 11.6210938,18.9609375 C12.1276067,19.4843776 12.3808594,20.2122349 12.3808594,21.1445312 C12.3808594,22.069015 12.1295598,22.7923151 11.6269531,23.3144531 C11.1243464,23.8365912 10.4524782,24.0976562 9.61132812,24.0976562 C8.75976137,24.0976562 8.0826848,23.8378932 7.58007812,23.3183594 C7.07747145,22.7988255 6.82617188,22.0833379 6.82617188,21.171875 Z M8.01757812,21.1328125 C8.01757812,21.7812532 8.16731621,22.2727848 8.46679688,22.6074219 C8.76627754,22.942059 9.14648207,23.109375 9.60742188,23.109375 C10.0683617,23.109375 10.4466131,22.943361 10.7421875,22.6113281 C11.0377619,22.2792952 11.1855469,21.7812533 11.1855469,21.1171875 C11.1855469,20.4609342 11.0416681,19.9713558 10.7539062,19.6484375 C10.4661444,19.3255192 10.0839868,19.1640625 9.60742188,19.1640625 C9.13085699,19.1640625 8.74674625,19.3274723 8.45507812,19.6542969 C8.16341,19.9811214 8.01757812,20.473955 8.01757812,21.1328125 Z M13.2949219,24 L13.2949219,18.2734375 L14.4199219,18.2734375 L16.7636719,22.0976562 L16.7636719,18.2734375 L17.8378906,18.2734375 L17.8378906,24 L16.6777344,24 L14.3691406,20.265625 L14.3691406,24 L13.2949219,24 Z M19.0605469,24 L19.0605469,18.2734375 L23.3066406,18.2734375 L23.3066406,19.2421875 L20.2167969,19.2421875 L20.2167969,20.5117188 L23.0917969,20.5117188 L23.0917969,21.4765625 L20.2167969,21.4765625 L20.2167969,23.0351562 L23.4160156,23.0351562 L23.4160156,24 L19.0605469,24 Z M24.1152344,22.4804688 L25.1777344,22.3515625 C25.2115887,22.6223972 25.3027336,22.8294264 25.4511719,22.9726562 C25.5996101,23.1158861 25.7792958,23.1875 25.9902344,23.1875 C26.216798,23.1875 26.4075513,23.1015634 26.5625,22.9296875 C26.7174487,22.7578116 26.7949219,22.5260431 26.7949219,22.234375 C26.7949219,21.958332 26.7207039,21.7395841 26.5722656,21.578125 C26.4238274,21.4166659 26.2428396,21.3359375 26.0292969,21.3359375 C25.8886712,21.3359375 25.7207041,21.363281 25.5253906,21.4179688 L25.6464844,20.5234375 C25.9433609,20.53125 26.1699211,20.4667976 26.3261719,20.3300781 C26.4824227,20.1933587 26.5605469,20.0117199 26.5605469,19.7851562 C26.5605469,19.592447 26.5032558,19.4388027 26.3886719,19.3242188 C26.274088,19.2096348 26.1217457,19.1523438 25.9316406,19.1523438 C25.7441397,19.1523438 25.583985,19.2174473 25.4511719,19.3476562 C25.3183587,19.4778652 25.2376304,19.6679675 25.2089844,19.9179688 L24.1972656,19.7460938 C24.2675785,19.3997379 24.3736972,19.1230479 24.515625,18.9160156 C24.6575528,18.7089833 24.8554675,18.5462246 25.109375,18.4277344 C25.3632825,18.3092442 25.6477849,18.25 25.9628906,18.25 C26.5019558,18.25 26.9342432,18.4218733 27.2597656,18.765625 C27.5279961,19.0468764 27.6621094,19.3645816 27.6621094,19.71875 C27.6621094,20.2213567 27.3873725,20.6223943 26.8378906,20.921875 C27.1660173,20.9921879 27.4283844,21.1497384 27.625,21.3945312 C27.8216156,21.6393241 27.9199219,21.9348941 27.9199219,22.28125 C27.9199219,22.7838567 27.73633,23.2122378 27.3691406,23.5664062 C27.0019513,23.9205747 26.5449246,24.0976562 25.9980469,24.0976562 C25.4798151,24.0976562 25.0501319,23.9485692 24.7089844,23.6503906 C24.3678368,23.3522121 24.1699221,22.962242 24.1152344,22.4804688 Z" id="TONE3" fill="#FFFFFF" fill-rule="nonzero"></path>
            </g>
            <g id="Tone-2-Out" transform="translate(35.000000, 0.000000)">
                <rect id="Rectangle-Copy" fill="#1D1D1D" x="0" y="0" width="30" height="58" rx="4"></rect>
                <path d="M3.60742188,24 L3.60742188,19.2421875 L1.90820312,19.2421875 L1.90820312,18.2734375 L6.45898438,18.2734375 L6.45898438,19.2421875 L4.76367188,19.2421875 L4.76367188,24 L3.60742188,24 Z M6.82617188,21.171875 C6.82617188,20.5885387 6.91341059,20.0989603 7.08789062,19.703125 C7.21809961,19.4114569 7.39583221,19.1497407 7.62109375,18.9179688 C7.84635529,18.6861968 8.09309762,18.5143235 8.36132812,18.4023438 C8.71810074,18.2513013 9.12955496,18.1757812 9.59570312,18.1757812 C10.4394573,18.1757812 11.1145808,18.4374974 11.6210938,18.9609375 C12.1276067,19.4843776 12.3808594,20.2122349 12.3808594,21.1445312 C12.3808594,22.069015 12.1295598,22.7923151 11.6269531,23.3144531 C11.1243464,23.8365912 10.4524782,24.0976562 9.61132812,24.0976562 C8.75976137,24.0976562 8.0826848,23.8378932 7.58007812,23.3183594 C7.07747145,22.7988255 6.82617188,22.0833379 6.82617188,21.171875 Z M8.01757812,21.1328125 C8.01757812,21.7812532 8.16731621,22.2727848 8.46679688,22.6074219 C8.76627754,22.942059 9.14648207,23.109375 9.60742188,23.109375 C10.0683617,23.109375 10.4466131,22.943361 10.7421875,22.6113281 C11.0377619,22.2792952 11.1855469,21.7812533 11.1855469,21.1171875 C11.1855469,20.4609342 11.0416681,19.9713558 10.7539062,19.6484375 C10.4661444,19.3255192 10.0839868,19.1640625 9.60742188,19.1640625 C9.13085699,19.1640625 8.74674625,19.3274723 8.45507812,19.6542969 C8.16341,19.9811214 8.01757812,20.473955 8.01757812,21.1328125 Z M13.2949219,24 L13.2949219,18.2734375 L14.4199219,18.2734375 L16.7636719,22.0976562 L16.7636719,18.2734375 L17.8378906,18.2734375 L17.8378906,24 L16.6777344,24 L14.3691406,20.265625 L14.3691406,24 L13.2949219,24 Z M19.0605469,24 L19.0605469,18.2734375 L23.3066406,18.2734375 L23.3066406,19.2421875 L20.2167969,19.2421875 L20.2167969,20.5117188 L23.0917969,20.5117188 L23.0917969,21.4765625 L20.2167969,21.4765625 L20.2167969,23.0351562 L23.4160156,23.0351562 L23.4160156,24 L19.0605469,24 Z M27.8613281,22.9804688 L27.8613281,24 L24.0136719,24 C24.0553388,23.6145814 24.1803375,23.2493507 24.3886719,22.9042969 C24.573858,22.5975824 24.9195339,22.2018811 25.4257081,21.7171834 L25.9245524,21.2459482 C26.2432256,20.9387527 26.4461078,20.7213548 26.5332031,20.59375 C26.6842455,20.3671864 26.7597656,20.1432303 26.7597656,19.921875 C26.7597656,19.6770821 26.6940111,19.4889329 26.5625,19.3574219 C26.4309889,19.2259108 26.2493501,19.1601562 26.0175781,19.1601562 C25.7884103,19.1601562 25.6061205,19.229166 25.4707031,19.3671875 C25.3352858,19.505209 25.2571616,19.7343734 25.2363281,20.0546875 L24.1425781,19.9453125 C24.2076826,19.3411428 24.4121077,18.9075534 24.7558594,18.6445312 C25.0996111,18.3815091 25.5292943,18.25 26.0449219,18.25 C26.6100289,18.25 27.0540348,18.4023422 27.3769531,18.7070312 C27.6998714,19.0117203 27.8613281,19.3906227 27.8613281,19.84375 C27.8613281,20.1015638 27.8151046,20.347004 27.7226562,20.5800781 C27.6302079,20.8131522 27.483725,21.0572904 27.2832031,21.3125 C27.1883366,21.4334083 27.0389967,21.5921817 26.8351808,21.7888228 L26.063812,22.51355 C25.9934387,22.5826416 25.9409181,22.6367186 25.90625,22.6757812 C25.8138016,22.7799484 25.7389326,22.8815099 25.6816406,22.9804688 L27.8613281,22.9804688 Z" id="TONE2" fill="#FFFFFF" fill-rule="nonzero"></path>
            </g>
            <g id="Tone-1-Out">
                <rect id="Rectangle" fill="#1D1D1D" x="0" y="0" width="30" height="58" rx="4"></rect>
                <path d="M3.60742188,24 L3.60742188,19.2421875 L1.90820312,19.2421875 L1.90820312,18.2734375 L6.45898438,18.2734375 L6.45898438,19.2421875 L4.76367188,19.2421875 L4.76367188,24 L3.60742188,24 Z M6.82617188,21.171875 C6.82617188,20.5885387 6.91341059,20.0989603 7.08789062,19.703125 C7.21809961,19.4114569 7.39583221,19.1497407 7.62109375,18.9179688 C7.84635529,18.6861968 8.09309762,18.5143235 8.36132812,18.4023438 C8.71810074,18.2513013 9.12955496,18.1757812 9.59570312,18.1757812 C10.4394573,18.1757812 11.1145808,18.4374974 11.6210938,18.9609375 C12.1276067,19.4843776 12.3808594,20.2122349 12.3808594,21.1445312 C12.3808594,22.069015 12.1295598,22.7923151 11.6269531,23.3144531 C11.1243464,23.8365912 10.4524782,24.0976562 9.61132812,24.0976562 C8.75976137,24.0976562 8.0826848,23.8378932 7.58007812,23.3183594 C7.07747145,22.7988255 6.82617188,22.0833379 6.82617188,21.171875 Z M8.01757812,21.1328125 C8.01757812,21.7812532 8.16731621,22.2727848 8.46679688,22.6074219 C8.76627754,22.942059 9.14648207,23.109375 9.60742188,23.109375 C10.0683617,23.109375 10.4466131,22.943361 10.7421875,22.6113281 C11.0377619,22.2792952 11.1855469,21.7812533 11.1855469,21.1171875 C11.1855469,20.4609342 11.0416681,19.9713558 10.7539062,19.6484375 C10.4661444,19.3255192 10.0839868,19.1640625 9.60742188,19.1640625 C9.13085699,19.1640625 8.74674625,19.3274723 8.45507812,19.6542969 C8.16341,19.9811214 8.01757812,20.473955 8.01757812,21.1328125 Z M13.2949219,24 L13.2949219,18.2734375 L14.4199219,18.2734375 L16.7636719,22.0976562 L16.7636719,18.2734375 L17.8378906,18.2734375 L17.8378906,24 L16.6777344,24 L14.3691406,20.265625 L14.3691406,24 L13.2949219,24 Z M19.0605469,24 L19.0605469,18.2734375 L23.3066406,18.2734375 L23.3066406,19.2421875 L20.2167969,19.2421875 L20.2167969,20.5117188 L23.0917969,20.5117188 L23.0917969,21.4765625 L20.2167969,21.4765625 L20.2167969,23.0351562 L23.4160156,23.0351562 L23.4160156,24 L19.0605469,24 Z M26.9628906,24 L25.8652344,24 L25.8652344,19.8632812 C25.4641907,20.2382831 24.9915392,20.5156241 24.4472656,20.6953125 L24.4472656,19.6992188 C24.7337254,19.6054683 25.0449202,19.4277357 25.3808594,19.1660156 C25.7167986,18.9042956 25.9472656,18.5989601 26.0722656,18.25 L26.9628906,18.25 L26.9628906,24 Z" id="TONE1" fill="#FFFFFF" fill-rule="nonzero"></path>
            </g>
        </g>
        <g id="Amplifier" transform="translate(13.000000, 212.000000)">
            <g id="Normal" transform="translate(22.000000, 59.000000)" fill="#000000">
                <polygon id="Triangle" transform="translate(4.500000, 4.500000) rotate(-270.000000) translate(-4.500000, -4.500000) " points="4.5 0 9 9 0 9"></polygon>
                <polygon id="Triangle-Copy" transform="translate(39.500000, 4.500000) rotate(-270.000000) translate(-39.500000, -4.500000) " points="39.5 0 44 9 35 9"></polygon>
                <polygon id="Triangle-Copy-2" transform="translate(74.500000, 4.500000) rotate(-270.000000) translate(-74.500000, -4.500000) " points="74.5 0 79 9 70 9"></polygon>
            </g>
            <g id="Amp4" transform="translate(105.000000, 0.000000)" fill-rule="nonzero">
                <path d="M9.5,18 L7.5,18 L7.5,21 L9.5,21 L9.5,18 Z M9.5,22 L7.5,22 L7.5,25 L9.5,25 L9.5,22 Z M9.5,26 L7.5,26 L7.5,29 L9.5,29 L9.5,26 Z M9.5,30 L7.5,30 L7.5,33 L9.5,33 L9.5,30 Z M9.5,34 L7.5,34 L7.5,37 L9.5,37 L9.5,34 Z M9.5,38 L7.5,38 L7.5,41 L9.5,41 L9.5,38 Z M9.5,42 L7.5,42 L7.5,45 L9.5,45 L9.5,42 Z M9.5,46 L7.5,46 L7.5,49 L9.5,49 L9.5,46 Z M9.5,50 L7.5,50 L7.5,53 L9.5,53 L9.5,50 Z M9.5,54 L7.5,54 L7.5,57 L9.5,57 L9.5,54 Z M9.5,58 L7.5,58 L7.5,61 L9.5,61 L9.5,58 Z" id="Line-Copy-16" fill="#E6E6E6"></path>
                <path d="M5.85742188,6 L4.59960938,6 L4.09960938,4.69921875 L1.81054687,4.69921875 L1.33789062,6 L0.111328125,6 L2.34179688,0.2734375 L3.56445313,0.2734375 L5.85742188,6 Z M3.72851562,3.734375 L2.93945312,1.609375 L2.16601562,3.734375 L3.72851562,3.734375 Z M8.18554688,0.2734375 L9.22460938,4.1796875 L10.2519531,0.2734375 L11.9863281,0.2734375 L11.9863281,6 L10.9121094,6 L10.9121094,1.4921875 L9.77539062,6 L8.66210938,6 L7.52929688,1.4921875 L7.52929688,6 L6.45507812,6 L6.45507812,0.2734375 L8.18554688,0.2734375 Z M14.9902344,0.2734375 C15.6933629,0.2734375 16.1516916,0.302083047 16.3652344,0.359375 C16.693361,0.44531293 16.9680979,0.63216002 17.1894531,0.919921875 C17.4108084,1.20768373 17.5214844,1.5794248 17.5214844,2.03515625 C17.5214844,2.38672051 17.4576829,2.68229047 17.3300781,2.921875 C17.2024733,3.16145953 17.0403656,3.34960869 16.84375,3.48632812 C16.6471344,3.62304756 16.4472666,3.71354145 16.2441406,3.7578125 C16.0075323,3.80468773 15.6800478,3.83147328 15.2616796,3.83816966 L14.2910156,3.83984375 L14.2910156,6 L13.1347656,6 L13.1347656,0.2734375 L14.9902344,0.2734375 Z M14.8496094,1.2421875 L14.2910156,1.2421875 L14.2910156,2.8671875 L14.9238281,2.8671875 C15.3795596,2.8671875 15.684244,2.83723988 15.8378906,2.77734375 C15.9915372,2.71744762 16.1119787,2.62369855 16.1992188,2.49609375 C16.2864588,2.36848895 16.3300781,2.22005293 16.3300781,2.05078125 C16.3300781,1.84244688 16.2688808,1.67057359 16.1464844,1.53515625 C16.0240879,1.39973891 15.8691416,1.31510434 15.6816406,1.28125 C15.5436191,1.2552082 15.2662781,1.2421875 14.8496094,1.2421875 Z" id="AMP" fill="#FFFFFF"></path>
            </g>
            <g id="Amp3" transform="translate(70.000000, 0.000000)" fill-rule="nonzero">
                <path d="M9.5,18 L7.5,18 L7.5,21 L9.5,21 L9.5,18 Z M9.5,22 L7.5,22 L7.5,25 L9.5,25 L9.5,22 Z M9.5,26 L7.5,26 L7.5,29 L9.5,29 L9.5,26 Z M9.5,30 L7.5,30 L7.5,33 L9.5,33 L9.5,30 Z M9.5,34 L7.5,34 L7.5,37 L9.5,37 L9.5,34 Z M9.5,38 L7.5,38 L7.5,41 L9.5,41 L9.5,38 Z M9.5,42 L7.5,42 L7.5,45 L9.5,45 L9.5,42 Z M9.5,46 L7.5,46 L7.5,49 L9.5,49 L9.5,46 Z M9.5,50 L7.5,50 L7.5,53 L9.5,53 L9.5,50 Z M9.5,54 L7.5,54 L7.5,57 L9.5,57 L9.5,54 Z M9.5,58 L7.5,58 L7.5,61 L9.5,61 L9.5,58 Z" id="Line-Copy-17" fill="#E6E6E6"></path>
                <path d="M5.85742188,6 L4.59960938,6 L4.09960938,4.69921875 L1.81054687,4.69921875 L1.33789062,6 L0.111328125,6 L2.34179688,0.2734375 L3.56445313,0.2734375 L5.85742188,6 Z M3.72851562,3.734375 L2.93945312,1.609375 L2.16601562,3.734375 L3.72851562,3.734375 Z M8.18554688,0.2734375 L9.22460938,4.1796875 L10.2519531,0.2734375 L11.9863281,0.2734375 L11.9863281,6 L10.9121094,6 L10.9121094,1.4921875 L9.77539062,6 L8.66210938,6 L7.52929688,1.4921875 L7.52929688,6 L6.45507812,6 L6.45507812,0.2734375 L8.18554688,0.2734375 Z M14.9902344,0.2734375 C15.6933629,0.2734375 16.1516916,0.302083047 16.3652344,0.359375 C16.693361,0.44531293 16.9680979,0.63216002 17.1894531,0.919921875 C17.4108084,1.20768373 17.5214844,1.5794248 17.5214844,2.03515625 C17.5214844,2.38672051 17.4576829,2.68229047 17.3300781,2.921875 C17.2024733,3.16145953 17.0403656,3.34960869 16.84375,3.48632812 C16.6471344,3.62304756 16.4472666,3.71354145 16.2441406,3.7578125 C16.0075323,3.80468773 15.6800478,3.83147328 15.2616796,3.83816966 L14.2910156,3.83984375 L14.2910156,6 L13.1347656,6 L13.1347656,0.2734375 L14.9902344,0.2734375 Z M14.8496094,1.2421875 L14.2910156,1.2421875 L14.2910156,2.8671875 L14.9238281,2.8671875 C15.3795596,2.8671875 15.684244,2.83723988 15.8378906,2.77734375 C15.9915372,2.71744762 16.1119787,2.62369855 16.1992188,2.49609375 C16.2864588,2.36848895 16.3300781,2.22005293 16.3300781,2.05078125 C16.3300781,1.84244688 16.2688808,1.67057359 16.1464844,1.53515625 C16.0240879,1.39973891 15.8691416,1.31510434 15.6816406,1.28125 C15.5436191,1.2552082 15.2662781,1.2421875 14.8496094,1.2421875 Z" id="AMP" fill="#FFFFFF"></path>
            </g>
            <g id="Amp2" transform="translate(35.000000, 0.000000)" fill-rule="nonzero">
                <path d="M9.5,18 L7.5,18 L7.5,21 L9.5,21 L9.5,18 Z M9.5,22 L7.5,22 L7.5,25 L9.5,25 L9.5,22 Z M9.5,26 L7.5,26 L7.5,29 L9.5,29 L9.5,26 Z M9.5,30 L7.5,30 L7.5,33 L9.5,33 L9.5,30 Z M9.5,34 L7.5,34 L7.5,37 L9.5,37 L9.5,34 Z M9.5,38 L7.5,38 L7.5,41 L9.5,41 L9.5,38 Z M9.5,42 L7.5,42 L7.5,45 L9.5,45 L9.5,42 Z M9.5,46 L7.5,46 L7.5,49 L9.5,49 L9.5,46 Z M9.5,50 L7.5,50 L7.5,53 L9.5,53 L9.5,50 Z M9.5,54 L7.5,54 L7.5,57 L9.5,57 L9.5,54 Z M9.5,58 L7.5,58 L7.5,61 L9.5,61 L9.5,58 Z" id="Line-Copy-18" fill="#E6E6E6"></path>
                <path d="M5.85742188,6 L4.59960938,6 L4.09960938,4.69921875 L1.81054687,4.69921875 L1.33789062,6 L0.111328125,6 L2.34179688,0.2734375 L3.56445313,0.2734375 L5.85742188,6 Z M3.72851562,3.734375 L2.93945312,1.609375 L2.16601562,3.734375 L3.72851562,3.734375 Z M8.18554688,0.2734375 L9.22460938,4.1796875 L10.2519531,0.2734375 L11.9863281,0.2734375 L11.9863281,6 L10.9121094,6 L10.9121094,1.4921875 L9.77539062,6 L8.66210938,6 L7.52929688,1.4921875 L7.52929688,6 L6.45507812,6 L6.45507812,0.2734375 L8.18554688,0.2734375 Z M14.9902344,0.2734375 C15.6933629,0.2734375 16.1516916,0.302083047 16.3652344,0.359375 C16.693361,0.44531293 16.9680979,0.63216002 17.1894531,0.919921875 C17.4108084,1.20768373 17.5214844,1.5794248 17.5214844,2.03515625 C17.5214844,2.38672051 17.4576829,2.68229047 17.3300781,2.921875 C17.2024733,3.16145953 17.0403656,3.34960869 16.84375,3.48632812 C16.6471344,3.62304756 16.4472666,3.71354145 16.2441406,3.7578125 C16.0075323,3.80468773 15.6800478,3.83147328 15.2616796,3.83816966 L14.2910156,3.83984375 L14.2910156,6 L13.1347656,6 L13.1347656,0.2734375 L14.9902344,0.2734375 Z M14.8496094,1.2421875 L14.2910156,1.2421875 L14.2910156,2.8671875 L14.9238281,2.8671875 C15.3795596,2.8671875 15.684244,2.83723988 15.8378906,2.77734375 C15.9915372,2.71744762 16.1119787,2.62369855 16.1992188,2.49609375 C16.2864588,2.36848895 16.3300781,2.22005293 16.3300781,2.05078125 C16.3300781,1.84244688 16.2688808,1.67057359 16.1464844,1.53515625 C16.0240879,1.39973891 15.8691416,1.31510434 15.6816406,1.28125 C15.5436191,1.2552082 15.2662781,1.2421875 14.8496094,1.2421875 Z" id="AMP" fill="#FFFFFF"></path>
            </g>
            <g id="Amp1" fill-rule="nonzero">
                <path d="M9.5,19 L7.5,19 L7.5,22 L9.5,22 L9.5,19 Z M9.5,23 L7.5,23 L7.5,26 L9.5,26 L9.5,23 Z M9.5,27 L7.5,27 L7.5,30 L9.5,30 L9.5,27 Z M9.5,31 L7.5,31 L7.5,34 L9.5,34 L9.5,31 Z M9.5,35 L7.5,35 L7.5,38 L9.5,38 L9.5,35 Z M9.5,39 L7.5,39 L7.5,42 L9.5,42 L9.5,39 Z M9.5,43 L7.5,43 L7.5,46 L9.5,46 L9.5,43 Z M9.5,47 L7.5,47 L7.5,50 L9.5,50 L9.5,47 Z M9.5,51 L7.5,51 L7.5,54 L9.5,54 L9.5,51 Z M9.5,55 L7.5,55 L7.5,58 L9.5,58 L9.5,55 Z M9.5,59 L7.5,59 L7.5,62 L9.5,62 L9.5,59 Z" id="Line-Copy-15" fill="#E6E6E6"></path>
                <path d="M5.85742188,6 L4.59960938,6 L4.09960938,4.69921875 L1.81054687,4.69921875 L1.33789062,6 L0.111328125,6 L2.34179688,0.2734375 L3.56445313,0.2734375 L5.85742188,6 Z M3.72851562,3.734375 L2.93945312,1.609375 L2.16601562,3.734375 L3.72851562,3.734375 Z M8.18554688,0.2734375 L9.22460938,4.1796875 L10.2519531,0.2734375 L11.9863281,0.2734375 L11.9863281,6 L10.9121094,6 L10.9121094,1.4921875 L9.77539062,6 L8.66210938,6 L7.52929688,1.4921875 L7.52929688,6 L6.45507812,6 L6.45507812,0.2734375 L8.18554688,0.2734375 Z M14.9902344,0.2734375 C15.6933629,0.2734375 16.1516916,0.302083047 16.3652344,0.359375 C16.693361,0.44531293 16.9680979,0.63216002 17.1894531,0.919921875 C17.4108084,1.20768373 17.5214844,1.5794248 17.5214844,2.03515625 C17.5214844,2.38672051 17.4576829,2.68229047 17.3300781,2.921875 C17.2024733,3.16145953 17.0403656,3.34960869 16.84375,3.48632812 C16.6471344,3.62304756 16.4472666,3.71354145 16.2441406,3.7578125 C16.0075323,3.80468773 15.6800478,3.83147328 15.2616796,3.83816966 L14.2910156,3.83984375 L14.2910156,6 L13.1347656,6 L13.1347656,0.2734375 L14.9902344,0.2734375 Z M14.8496094,1.2421875 L14.2910156,1.2421875 L14.2910156,2.8671875 L14.9238281,2.8671875 C15.3795596,2.8671875 15.684244,2.83723988 15.8378906,2.77734375 C15.9915372,2.71744762 16.1119787,2.62369855 16.1992188,2.49609375 C16.2864588,2.36848895 16.3300781,2.22005293 16.3300781,2.05078125 C16.3300781,1.84244688 16.2688808,1.67057359 16.1464844,1.53515625 C16.0240879,1.39973891 15.8691416,1.31510434 15.6816406,1.28125 C15.5436191,1.2552082 15.2662781,1.2421875 14.8496094,1.2421875 Z" id="AMP" fill="#FFFFFF"></path>
            </g>
        </g>
        <g id="Frequency-Mod-/-LFSR" transform="translate(13.000000, 117.000000)">
            <g id="Normal" transform="translate(22.000000, 20.000000)" fill="#000000">
                <polygon id="Triangle" transform="translate(4.500000, 4.500000) rotate(-270.000000) translate(-4.500000, -4.500000) " points="4.5 0 9 9 0 9"></polygon>
                <polygon id="Triangle-Copy" transform="translate(39.500000, 4.500000) rotate(-270.000000) translate(-39.500000, -4.500000) " points="39.5 0 44 9 35 9"></polygon>
            </g>
            <g id="Mod4" transform="translate(104.000000, 0.000000)" fill-rule="nonzero">
                <path d="M10.5,25 L8.5,25 L8.5,28 L10.5,28 L10.5,25 Z M10.5,29 L8.5,29 L8.5,32 L10.5,32 L10.5,29 Z M10.5,33 L8.5,33 L8.5,36 L10.5,36 L10.5,33 Z M10.5,37 L8.5,37 L8.5,40 L10.5,40 L10.5,37 Z M10.5,41 L8.5,41 L8.5,44 L10.5,44 L10.5,41 Z M10.5,45 L8.5,45 L8.5,48 L10.5,48 L10.5,45 Z M10.5,49 L8.5,49 L8.5,52 L10.5,52 L10.5,49 Z M10.5,53 L8.5,53 L8.5,56 L10.5,56 L10.5,53 Z" id="Line-Copy-4" fill="#E6E6E6"></path>
                <path d="M0.169921875,6 L0.169921875,0.3203125 L1.32617188,0.3203125 L1.32617188,5.03515625 L4.20117188,5.03515625 L4.20117188,6 L0.169921875,6 Z M5.03320312,6 L5.03320312,0.2734375 L8.95898438,0.2734375 L8.95898438,1.2421875 L6.18945312,1.2421875 L6.18945312,2.59765625 L8.58007812,2.59765625 L8.58007812,3.56640625 L6.18945312,3.56640625 L6.18945312,6 L5.03320312,6 Z M11.9160156,0.17578125 C12.6347692,0.17578125 13.1757794,0.333331758 13.5390625,0.6484375 C13.9023456,0.963543242 14.0930989,1.38411195 14.1113281,1.91015625 L12.9550781,1.9609375 C12.9055987,1.6666652 12.79948,1.45507877 12.6367188,1.32617188 C12.4739575,1.19726498 12.2298193,1.1328125 11.9042969,1.1328125 C11.5683577,1.1328125 11.3053395,1.20182223 11.1152344,1.33984375 C10.9928379,1.42838586 10.9316406,1.54687426 10.9316406,1.6953125 C10.9316406,1.83072984 10.9889317,1.9466141 11.1035156,2.04296875 C11.2169421,2.13816599 11.4563948,2.2365128 11.8218788,2.33801099 L12.1660156,2.42578125 C12.7285184,2.55859441 13.1445299,2.69596283 13.4140625,2.83789062 C13.6835951,2.97981842 13.8945305,3.17382689 14.046875,3.41992188 C14.1992195,3.66601686 14.2753906,3.97005027 14.2753906,4.33203125 C14.2753906,4.66015789 14.1842457,4.96744648 14.0019531,5.25390625 C13.8196605,5.54036602 13.5618506,5.75325451 13.2285156,5.89257812 C12.8951806,6.03190174 12.4798202,6.1015625 11.9824219,6.1015625 C11.2584599,6.1015625 10.7024759,5.93424646 10.3144531,5.59960938 C9.92643035,5.26497229 9.69466184,4.77734695 9.61914062,4.13671875 L10.7441406,4.02734375 C10.8118493,4.4049498 10.9492177,4.68229078 11.15625,4.859375 C11.3632823,5.03645922 11.6425764,5.125 11.9941406,5.125 C12.3665383,5.125 12.6471345,5.04622475 12.8359375,4.88867188 C13.0247405,4.731119 13.1191406,4.54687605 13.1191406,4.3359375 C13.1191406,4.20052016 13.0794275,4.08528693 13,3.99023438 C12.936458,3.91419233 12.8350005,3.84606778 12.6956253,3.78585946 L12.5839844,3.7421875 C12.448567,3.69531227 12.1399764,3.61197977 11.6582031,3.4921875 C11.0384084,3.3385409 10.6035169,3.1497407 10.3535156,2.92578125 C10.0019514,2.61067551 9.82617188,2.22656477 9.82617188,1.7734375 C9.82617188,1.48176938 9.90885334,1.20898564 10.0742188,0.955078125 C10.2395842,0.701170605 10.477863,0.507813164 10.7890625,0.375 C11.100262,0.242186836 11.4759093,0.17578125 11.9160156,0.17578125 Z M17.6855469,0.2734375 C18.2975291,0.2734375 18.7421861,0.324869277 19.0195312,0.427734375 C19.2968764,0.530599473 19.5188794,0.713540352 19.6855469,0.9765625 C19.8522144,1.23958465 19.9355469,1.54036289 19.9355469,1.87890625 C19.9355469,2.3085959 19.8092461,2.66341006 19.5566406,2.94335938 C19.3040352,3.22330869 18.9264348,3.39973922 18.4238281,3.47265625 C18.6738294,3.61849031 18.8802075,3.77864496 19.0429688,3.953125 C19.20573,4.12760504 19.4251288,4.43749777 19.7011719,4.8828125 L20.4003906,6 L19.0175781,6 L17.976562,4.45080481 C17.7890619,4.17858783 17.6542973,3.99902387 17.5722656,3.91210938 C17.4628901,3.79622338 17.3470058,3.71679709 17.2246094,3.67382812 C17.1266922,3.63945295 16.9829434,3.61882806 16.7933598,3.6119531 L16.4082031,3.609375 L16.4082031,6 L15.2519531,6 L15.2519531,0.2734375 L17.6855469,0.2734375 Z M16.4082031,1.2421875 L16.4082031,2.6953125 L17.4408524,2.69444445 C17.892757,2.68981486 18.1800486,2.66666688 18.3027344,2.625 C18.4407559,2.57812477 18.5488277,2.49739641 18.6269531,2.3828125 C18.7050785,2.26822859 18.7441406,2.12500086 18.7441406,1.953125 C18.7441406,1.7604157 18.6927088,1.6048183 18.5898438,1.48632812 C18.4869787,1.36783795 18.3417978,1.29296891 18.1542969,1.26171875 C18.1074216,1.2552083 18.0136722,1.25032549 17.8730476,1.24707029 L17.75879,1.24493406 L16.4082031,1.2421875 Z" id="LFSR" fill="#FFFFFF"></path>
            </g>
            <g id="Mod3" transform="translate(70.000000, 0.000000)" fill-rule="nonzero">
                <path d="M9.5,25 L7.5,25 L7.5,28 L9.5,28 L9.5,25 Z M9.5,29 L7.5,29 L7.5,32 L9.5,32 L9.5,29 Z M9.5,33 L7.5,33 L7.5,36 L9.5,36 L9.5,33 Z M9.5,37 L7.5,37 L7.5,40 L9.5,40 L9.5,37 Z M9.5,41 L7.5,41 L7.5,44 L9.5,44 L9.5,41 Z M9.5,45 L7.5,45 L7.5,48 L9.5,48 L9.5,45 Z M9.5,49 L7.5,49 L7.5,52 L9.5,52 L9.5,49 Z M9.5,53 L7.5,53 L7.5,56 L9.5,56 L9.5,53 Z" id="Line-Copy-5" fill="#E6E6E6"></path>
                <path d="M9.44921875,0.17578125 C10.292973,0.17578125 10.9680964,0.437497383 11.4746094,0.9609375 C11.9811223,1.48437762 12.234375,2.21223492 12.234375,3.14453125 C12.234375,4.06901504 11.9830754,4.7923151 11.4804688,5.31445312 C10.9778621,5.83659115 10.3059938,6.09765625 9.46484375,6.09765625 C8.61327699,6.09765625 7.93620043,5.83789322 7.43359375,5.31835938 C6.93098707,4.79882553 6.6796875,4.08333789 6.6796875,3.171875 C6.6796875,2.58853875 6.76692621,2.09896031 6.94140625,1.703125 C7.07161523,1.41145687 7.24934783,1.14974074 7.47460938,0.91796875 C7.69987092,0.686196758 7.94661324,0.514323477 8.21484375,0.40234375 C8.57161637,0.251301328 8.98307059,0.17578125 9.44921875,0.17578125 Z M1.96484375,0.2734375 L3.00390625,4.1796875 L4.03125,0.2734375 L5.765625,0.2734375 L5.765625,6 L4.69140625,6 L4.69140625,1.4921875 L3.5546875,6 L2.44140625,6 L1.30859375,1.4921875 L1.30859375,6 L0.234375,6 L0.234375,0.2734375 L1.96484375,0.2734375 Z M15.2460938,0.2734375 C15.7226586,0.2734375 16.0859362,0.309895469 16.3359375,0.3828125 C16.6718767,0.481771328 16.9596342,0.65755082 17.1992188,0.91015625 C17.4388033,1.16276168 17.6210931,1.47200338 17.7460938,1.83789062 C17.8710944,2.20377787 17.9335938,2.65494523 17.9335938,3.19140625 C17.9335938,3.66276277 17.8750006,4.06900871 17.7578125,4.41015625 C17.6145826,4.826825 17.4101576,5.16406121 17.1445312,5.421875 C16.9440094,5.61718848 16.6731788,5.7695307 16.3320312,5.87890625 C16.0768216,5.95963582 15.7356792,6 15.3085938,6 L13.1328125,6 L13.1328125,0.2734375 L15.2460938,0.2734375 Z M9.4609375,1.1640625 C8.98437262,1.1640625 8.60026188,1.32747232 8.30859375,1.65429688 C8.01692563,1.98112143 7.87109375,2.47395504 7.87109375,3.1328125 C7.87109375,3.78125324 8.02083184,4.27278479 8.3203125,4.60742188 C8.61979316,4.94205896 8.9999977,5.109375 9.4609375,5.109375 C9.9218773,5.109375 10.3001287,4.94336104 10.5957031,4.61132812 C10.8912775,4.27929521 11.0390625,3.78125332 11.0390625,3.1171875 C11.0390625,2.46093422 10.8951837,1.97135578 10.6074219,1.6484375 C10.31966,1.32551922 9.93750238,1.1640625 9.4609375,1.1640625 Z M14.8085938,1.2421875 L14.2890625,1.2421875 L14.2890625,5.03515625 L15.1523438,5.03515625 C15.475262,5.03515625 15.7083326,5.01692727 15.8515625,4.98046875 C16.0390634,4.93359352 16.1946608,4.85416723 16.3183594,4.7421875 C16.4420579,4.63020777 16.5429684,4.44596482 16.6210938,4.18945312 C16.6992191,3.93294143 16.7382812,3.58333555 16.7382812,3.140625 C16.7382812,2.69791445 16.6992191,2.3580741 16.6210938,2.12109375 C16.5429684,1.8841134 16.4335945,1.69921941 16.2929688,1.56640625 C16.152343,1.43359309 15.9739594,1.34375023 15.7578125,1.296875 C15.5963534,1.26041648 15.2799503,1.2421875 14.8085938,1.2421875 Z" id="MOD" fill="#FFFFFF"></path>
            </g>
            <g id="Mod2" transform="translate(35.000000, 0.000000)" fill-rule="nonzero">
                <path d="M9.5,25 L7.5,25 L7.5,28 L9.5,28 L9.5,25 Z M9.5,29 L7.5,29 L7.5,32 L9.5,32 L9.5,29 Z M9.5,33 L7.5,33 L7.5,36 L9.5,36 L9.5,33 Z M9.5,37 L7.5,37 L7.5,40 L9.5,40 L9.5,37 Z M9.5,41 L7.5,41 L7.5,44 L9.5,44 L9.5,41 Z M9.5,45 L7.5,45 L7.5,48 L9.5,48 L9.5,45 Z M9.5,49 L7.5,49 L7.5,52 L9.5,52 L9.5,49 Z M9.5,53 L7.5,53 L7.5,56 L9.5,56 L9.5,53 Z" id="Line-Copy-6" fill="#E6E6E6"></path>
                <path d="M9.44921875,0.17578125 C10.292973,0.17578125 10.9680964,0.437497383 11.4746094,0.9609375 C11.9811223,1.48437762 12.234375,2.21223492 12.234375,3.14453125 C12.234375,4.06901504 11.9830754,4.7923151 11.4804688,5.31445312 C10.9778621,5.83659115 10.3059938,6.09765625 9.46484375,6.09765625 C8.61327699,6.09765625 7.93620043,5.83789322 7.43359375,5.31835938 C6.93098707,4.79882553 6.6796875,4.08333789 6.6796875,3.171875 C6.6796875,2.58853875 6.76692621,2.09896031 6.94140625,1.703125 C7.07161523,1.41145687 7.24934783,1.14974074 7.47460938,0.91796875 C7.69987092,0.686196758 7.94661324,0.514323477 8.21484375,0.40234375 C8.57161637,0.251301328 8.98307059,0.17578125 9.44921875,0.17578125 Z M1.96484375,0.2734375 L3.00390625,4.1796875 L4.03125,0.2734375 L5.765625,0.2734375 L5.765625,6 L4.69140625,6 L4.69140625,1.4921875 L3.5546875,6 L2.44140625,6 L1.30859375,1.4921875 L1.30859375,6 L0.234375,6 L0.234375,0.2734375 L1.96484375,0.2734375 Z M15.2460938,0.2734375 C15.7226586,0.2734375 16.0859362,0.309895469 16.3359375,0.3828125 C16.6718767,0.481771328 16.9596342,0.65755082 17.1992188,0.91015625 C17.4388033,1.16276168 17.6210931,1.47200338 17.7460938,1.83789062 C17.8710944,2.20377787 17.9335938,2.65494523 17.9335938,3.19140625 C17.9335938,3.66276277 17.8750006,4.06900871 17.7578125,4.41015625 C17.6145826,4.826825 17.4101576,5.16406121 17.1445312,5.421875 C16.9440094,5.61718848 16.6731788,5.7695307 16.3320312,5.87890625 C16.0768216,5.95963582 15.7356792,6 15.3085938,6 L13.1328125,6 L13.1328125,0.2734375 L15.2460938,0.2734375 Z M9.4609375,1.1640625 C8.98437262,1.1640625 8.60026188,1.32747232 8.30859375,1.65429688 C8.01692563,1.98112143 7.87109375,2.47395504 7.87109375,3.1328125 C7.87109375,3.78125324 8.02083184,4.27278479 8.3203125,4.60742188 C8.61979316,4.94205896 8.9999977,5.109375 9.4609375,5.109375 C9.9218773,5.109375 10.3001287,4.94336104 10.5957031,4.61132812 C10.8912775,4.27929521 11.0390625,3.78125332 11.0390625,3.1171875 C11.0390625,2.46093422 10.8951837,1.97135578 10.6074219,1.6484375 C10.31966,1.32551922 9.93750238,1.1640625 9.4609375,1.1640625 Z M14.8085938,1.2421875 L14.2890625,1.2421875 L14.2890625,5.03515625 L15.1523438,5.03515625 C15.475262,5.03515625 15.7083326,5.01692727 15.8515625,4.98046875 C16.0390634,4.93359352 16.1946608,4.85416723 16.3183594,4.7421875 C16.4420579,4.63020777 16.5429684,4.44596482 16.6210938,4.18945312 C16.6992191,3.93294143 16.7382812,3.58333555 16.7382812,3.140625 C16.7382812,2.69791445 16.6992191,2.3580741 16.6210938,2.12109375 C16.5429684,1.8841134 16.4335945,1.69921941 16.2929688,1.56640625 C16.152343,1.43359309 15.9739594,1.34375023 15.7578125,1.296875 C15.5963534,1.26041648 15.2799503,1.2421875 14.8085938,1.2421875 Z" id="MOD" fill="#FFFFFF"></path>
            </g>
            <g id="Mod1" fill-rule="nonzero">
                <path d="M9.5,24.5 L7.5,24.5 L7.5,27.5 L9.5,27.5 L9.5,24.5 Z M9.5,28.5 L7.5,28.5 L7.5,31.5 L9.5,31.5 L9.5,28.5 Z M9.5,32.5 L7.5,32.5 L7.5,35.5 L9.5,35.5 L9.5,32.5 Z M9.5,36.5 L7.5,36.5 L7.5,39.5 L9.5,39.5 L9.5,36.5 Z M9.5,40.5 L7.5,40.5 L7.5,43.5 L9.5,43.5 L9.5,40.5 Z M9.5,44.5 L7.5,44.5 L7.5,47.5 L9.5,47.5 L9.5,44.5 Z M9.5,48.5 L7.5,48.5 L7.5,51.5 L9.5,51.5 L9.5,48.5 Z M9.5,52.5 L7.5,52.5 L7.5,55.5 L9.5,55.5 L9.5,52.5 Z" id="Line-Copy-7" fill="#E6E6E6"></path>
                <path d="M9.44921875,0.17578125 C10.292973,0.17578125 10.9680964,0.437497383 11.4746094,0.9609375 C11.9811223,1.48437762 12.234375,2.21223492 12.234375,3.14453125 C12.234375,4.06901504 11.9830754,4.7923151 11.4804688,5.31445312 C10.9778621,5.83659115 10.3059938,6.09765625 9.46484375,6.09765625 C8.61327699,6.09765625 7.93620043,5.83789322 7.43359375,5.31835938 C6.93098707,4.79882553 6.6796875,4.08333789 6.6796875,3.171875 C6.6796875,2.58853875 6.76692621,2.09896031 6.94140625,1.703125 C7.07161523,1.41145687 7.24934783,1.14974074 7.47460938,0.91796875 C7.69987092,0.686196758 7.94661324,0.514323477 8.21484375,0.40234375 C8.57161637,0.251301328 8.98307059,0.17578125 9.44921875,0.17578125 Z M1.96484375,0.2734375 L3.00390625,4.1796875 L4.03125,0.2734375 L5.765625,0.2734375 L5.765625,6 L4.69140625,6 L4.69140625,1.4921875 L3.5546875,6 L2.44140625,6 L1.30859375,1.4921875 L1.30859375,6 L0.234375,6 L0.234375,0.2734375 L1.96484375,0.2734375 Z M15.2460938,0.2734375 C15.7226586,0.2734375 16.0859362,0.309895469 16.3359375,0.3828125 C16.6718767,0.481771328 16.9596342,0.65755082 17.1992188,0.91015625 C17.4388033,1.16276168 17.6210931,1.47200338 17.7460938,1.83789062 C17.8710944,2.20377787 17.9335938,2.65494523 17.9335938,3.19140625 C17.9335938,3.66276277 17.8750006,4.06900871 17.7578125,4.41015625 C17.6145826,4.826825 17.4101576,5.16406121 17.1445312,5.421875 C16.9440094,5.61718848 16.6731788,5.7695307 16.3320312,5.87890625 C16.0768216,5.95963582 15.7356792,6 15.3085938,6 L13.1328125,6 L13.1328125,0.2734375 L15.2460938,0.2734375 Z M9.4609375,1.1640625 C8.98437262,1.1640625 8.60026188,1.32747232 8.30859375,1.65429688 C8.01692563,1.98112143 7.87109375,2.47395504 7.87109375,3.1328125 C7.87109375,3.78125324 8.02083184,4.27278479 8.3203125,4.60742188 C8.61979316,4.94205896 8.9999977,5.109375 9.4609375,5.109375 C9.9218773,5.109375 10.3001287,4.94336104 10.5957031,4.61132812 C10.8912775,4.27929521 11.0390625,3.78125332 11.0390625,3.1171875 C11.0390625,2.46093422 10.8951837,1.97135578 10.6074219,1.6484375 C10.31966,1.32551922 9.93750238,1.1640625 9.4609375,1.1640625 Z M14.8085938,1.2421875 L14.2890625,1.2421875 L14.2890625,5.03515625 L15.1523438,5.03515625 C15.475262,5.03515625 15.7083326,5.01692727 15.8515625,4.98046875 C16.0390634,4.93359352 16.1946608,4.85416723 16.3183594,4.7421875 C16.4420579,4.63020777 16.5429684,4.44596482 16.6210938,4.18945312 C16.6992191,3.93294143 16.7382812,3.58333555 16.7382812,3.140625 C16.7382812,2.69791445 16.6992191,2.3580741 16.6210938,2.12109375 C16.5429684,1.8841134 16.4335945,1.69921941 16.2929688,1.56640625 C16.152343,1.43359309 15.9739594,1.34375023 15.7578125,1.296875 C15.5963534,1.26041648 15.2799503,1.2421875 14.8085938,1.2421875 Z" id="MOD" fill="#FFFFFF"></path>
            </g>
        </g>
        <g id="Frequency-/-Noise-Mode" transform="translate(10.000000, 34.000000)">
            <g id="Normal" transform="translate(25.000000, 59.000000)" fill="#000000">
                <polygon id="Triangle" transform="translate(4.500000, 4.500000) rotate(-270.000000) translate(-4.500000, -4.500000) " points="4.5 0 9 9 0 9"></polygon>
                <polygon id="Triangle-Copy" transform="translate(39.500000, 4.500000) rotate(-270.000000) translate(-39.500000, -4.500000) " points="39.5 0 44 9 35 9"></polygon>
            </g>
            <g id="Period" transform="translate(104.000000, 0.000000)" fill-rule="nonzero">
                <path d="M13.5,18 L11.5,18 L11.5,21 L13.5,21 L13.5,18 Z M13.5,22 L11.5,22 L11.5,25 L13.5,25 L13.5,22 Z M13.5,26 L11.5,26 L11.5,29 L13.5,29 L13.5,26 Z M13.5,30 L11.5,30 L11.5,33 L13.5,33 L13.5,30 Z M13.5,34 L11.5,34 L11.5,37 L13.5,37 L13.5,34 Z M13.5,38 L11.5,38 L11.5,41 L13.5,41 L13.5,38 Z M13.5,42 L11.5,42 L11.5,45 L13.5,45 L13.5,42 Z M13.5,46 L11.5,46 L11.5,49 L13.5,49 L13.5,46 Z M13.5,50 L11.5,50 L11.5,53 L13.5,53 L13.5,50 Z M13.5,54 L11.5,54 L11.5,57 L13.5,57 L13.5,54 Z" id="Line-Copy-14" fill="#E6E6E6"></path>
                <path d="M0.590332031,6 L0.590332031,0.989257812 L2.21386719,0.989257812 C2.82910464,0.989257812 3.23014229,1.01432267 3.41699219,1.06445312 C3.704103,1.13964881 3.94449773,1.30314002 4.13818359,1.55493164 C4.33186946,1.80672326 4.42871094,2.1319967 4.42871094,2.53076172 C4.42871094,2.83838044 4.37288467,3.09700416 4.26123047,3.30664062 C4.14957626,3.51627709 4.00773198,3.6809076 3.83569336,3.80053711 C3.66365474,3.92016661 3.48877042,3.99934876 3.31103516,4.03808594 C3.06949749,4.08593774 2.71972885,4.10986328 2.26171875,4.10986328 L1.60205078,4.10986328 L1.60205078,6 L0.590332031,6 Z M1.60205078,1.83691406 L1.60205078,3.25878906 L2.15576172,3.25878906 C2.55452673,3.25878906 2.82112563,3.2325849 2.95556641,3.18017578 C3.09000718,3.12776667 3.1953935,3.04573624 3.27172852,2.93408203 C3.34806353,2.82242783 3.38623047,2.69254631 3.38623047,2.54443359 C3.38623047,2.36214102 3.33268283,2.21175189 3.22558594,2.09326172 C3.11848905,1.97477154 2.98291098,1.90071629 2.81884766,1.87109375 C2.71533151,1.8515624 2.52225287,1.84040176 2.23960713,1.8376116 L1.60205078,1.83691406 Z M5.25927734,6 L5.25927734,0.989257812 L8.97460938,0.989257812 L8.97460938,1.83691406 L6.27099609,1.83691406 L6.27099609,2.94775391 L8.78662109,2.94775391 L8.78662109,3.79199219 L6.27099609,3.79199219 L6.27099609,5.15576172 L9.0703125,5.15576172 L9.0703125,6 L5.25927734,6 Z M9.93164062,6 L9.93164062,0.989257812 L12.0610352,0.989257812 C12.5965196,0.989257812 12.9855945,1.03426062 13.2282715,1.12426758 C13.4709485,1.21427454 13.6652011,1.37434781 13.8110352,1.60449219 C13.9568692,1.83463657 14.0297852,2.09781753 14.0297852,2.39404297 C14.0297852,2.77002141 13.9192719,3.0804838 13.6982422,3.32543945 C13.4772124,3.5703951 13.1468121,3.72477182 12.7070312,3.78857422 C12.9257823,3.91617902 13.1063632,4.05631434 13.2487793,4.20898438 C13.3708502,4.3398444 13.529331,4.55775545 13.7242254,4.86272264 L14.4365234,6 L13.2265625,6 L12.3156733,4.64445421 C12.1516108,4.40626435 12.0336918,4.24914589 11.9619141,4.1730957 C11.8662105,4.07169546 11.7648117,4.00219745 11.6577148,3.96459961 C11.5720373,3.93452133 11.4462571,3.91647455 11.2803715,3.91045897 L10.9433594,3.90820312 L10.9433594,6 L9.93164062,6 Z M10.9433594,1.83691406 L10.9433594,3.10839844 L11.6918945,3.10839844 C12.1772485,3.10839844 12.4803054,3.08789083 12.6010742,3.046875 C12.7218431,3.00585917 12.8164059,2.93522186 12.8847656,2.83496094 C12.9531253,2.73470002 12.9873047,2.60937575 12.9873047,2.45898438 C12.9873047,2.29036374 12.9423019,2.15421601 12.8522949,2.05053711 C12.762288,1.94685821 12.6352547,1.88134779 12.4711914,1.85400391 C12.4096677,1.84545894 12.2558604,1.84011839 12.0097664,1.83798217 L10.9433594,1.83691406 Z M19.1464844,0.903808594 C19.8847693,0.903808594 20.4755023,1.13281021 20.9187012,1.59082031 C21.3619,2.04883042 21.5834961,2.68570556 21.5834961,3.50146484 C21.5834961,4.31038816 21.363609,4.94327571 20.9238281,5.40014648 C20.4840473,5.85701726 19.8961625,6.08544922 19.1601562,6.08544922 C18.4150353,6.08544922 17.8225933,5.85815657 17.3828125,5.40356445 C16.9430317,4.94897234 16.7231445,4.32292065 16.7231445,3.52539062 C16.7231445,3.01497141 16.7994784,2.58659027 16.9521484,2.24023438 C17.0660813,1.98502477 17.2215973,1.75602315 17.4187012,1.55322266 C17.615805,1.35042216 17.8317046,1.20003304 18.0664062,1.10205078 C18.3785823,0.969888662 18.7386047,0.903808594 19.1464844,0.903808594 Z M15.9643555,0.989257812 L15.9643555,6 L14.9526367,6 L14.9526367,0.989257812 L15.9643555,0.989257812 Z M24.21875,0.989257812 C24.6357443,0.989257812 24.9536122,1.02115854 25.1723633,1.08496094 C25.4663101,1.17154991 25.7180979,1.32535697 25.9277344,1.54638672 C26.1373708,1.76741647 26.2968745,2.03800296 26.40625,2.3581543 C26.5156255,2.67830564 26.5703125,3.07307708 26.5703125,3.54248047 C26.5703125,3.95491743 26.5190435,4.31038262 26.4165039,4.60888672 C26.2911778,4.97347188 26.1123058,5.26855356 25.8798828,5.49414062 C25.7044262,5.66503992 25.4674494,5.79833937 25.1689453,5.89404297 C24.9456369,5.96468134 24.6471373,6 24.2734375,6 L22.3696289,6 L22.3696289,0.989257812 L24.21875,0.989257812 Z M19.1567383,1.76855469 C18.739744,1.76855469 18.4036471,1.91153828 18.1484375,2.19750977 C17.8932279,2.48348125 17.765625,2.91471066 17.765625,3.49121094 C17.765625,4.05859659 17.8966458,4.48868669 18.1586914,4.78149414 C18.420737,5.07430159 18.753416,5.22070312 19.1567383,5.22070312 C19.5600606,5.22070312 19.8910306,5.07544091 20.1496582,4.78491211 C20.4082858,4.49438331 20.5375977,4.05859666 20.5375977,3.47753906 C20.5375977,2.90331744 20.4117037,2.47493631 20.1599121,2.19238281 C19.9081205,1.90982932 19.5737326,1.76855469 19.1567383,1.76855469 Z M23.8359375,1.83691406 L23.3813477,1.83691406 L23.3813477,5.15576172 L24.1367188,5.15576172 C24.4192722,5.15576172 24.623209,5.13981136 24.7485352,5.10791016 C24.9125985,5.06689433 25.0487462,4.99739632 25.1569824,4.89941406 C25.2652186,4.8014318 25.3535153,4.64021922 25.421875,4.41577148 C25.4902347,4.19132375 25.5244141,3.8854186 25.5244141,3.49804688 C25.5244141,3.11067515 25.4902347,2.81331484 25.421875,2.60595703 C25.3535153,2.39859922 25.2578131,2.23681699 25.1347656,2.12060547 C25.0117181,2.00439395 24.8556325,1.92578146 24.6665039,1.88476562 C24.5252272,1.85286442 24.2483745,1.83691406 23.8359375,1.83691406 Z" id="PERIOD" fill="#FFFFFF"></path>
            </g>
            <g id="Voct3" transform="translate(70.000000, 0.000000)" fill-rule="nonzero">
                <path d="M12.5,18 L10.5,18 L10.5,21 L12.5,21 L12.5,18 Z M12.5,22 L10.5,22 L10.5,25 L12.5,25 L12.5,22 Z M12.5,26 L10.5,26 L10.5,29 L12.5,29 L12.5,26 Z M12.5,30 L10.5,30 L10.5,33 L12.5,33 L12.5,30 Z M12.5,34 L10.5,34 L10.5,37 L12.5,37 L12.5,34 Z M12.5,38 L10.5,38 L10.5,41 L12.5,41 L12.5,38 Z M12.5,42 L10.5,42 L10.5,45 L12.5,45 L12.5,42 Z M12.5,46 L10.5,46 L10.5,49 L12.5,49 L12.5,46 Z M12.5,50 L10.5,50 L10.5,53 L12.5,53 L12.5,50 Z M12.5,54 L10.5,54 L10.5,57 L12.5,57 L12.5,54 Z" id="Line-Copy-12" fill="#E6E6E6"></path>
                <path d="M2.93164062,6 L0.884765625,0.2734375 L2.13867188,0.2734375 L3.58789062,4.51171875 L4.99023438,0.2734375 L6.21679688,0.2734375 L4.16601562,6 L2.93164062,6 Z M6.57226562,3.171875 C6.57226562,2.58853875 6.65950434,2.09896031 6.83398438,1.703125 C6.96419336,1.41145687 7.14192596,1.14974074 7.3671875,0.91796875 C7.59244904,0.686196758 7.83919137,0.514323477 8.10742188,0.40234375 C8.46419449,0.251301328 8.87564871,0.17578125 9.34179688,0.17578125 C10.1855511,0.17578125 10.8606746,0.437497383 11.3671875,0.9609375 C11.8737004,1.48437762 12.1269531,2.21223492 12.1269531,3.14453125 C12.1269531,4.06901504 11.8756536,4.7923151 11.3730469,5.31445312 C10.8704402,5.83659115 10.1985719,6.09765625 9.35742188,6.09765625 C8.50585512,6.09765625 7.82877855,5.83789322 7.32617188,5.31835938 C6.8235652,4.79882553 6.57226562,4.08333789 6.57226562,3.171875 Z M7.76367188,3.1328125 C7.76367188,3.78125324 7.91340996,4.27278479 8.21289062,4.60742188 C8.51237129,4.94205896 8.89257582,5.109375 9.35351562,5.109375 C9.81445543,5.109375 10.1927069,4.94336104 10.4882812,4.61132812 C10.7838556,4.27929521 10.9316406,3.78125332 10.9316406,3.1171875 C10.9316406,2.46093422 10.7877619,1.97135578 10.5,1.6484375 C10.2122381,1.32551922 9.83008051,1.1640625 9.35351562,1.1640625 C8.87695074,1.1640625 8.49284,1.32747232 8.20117188,1.65429688 C7.90950375,1.98112143 7.76367188,2.47395504 7.76367188,3.1328125 Z M16.6933594,3.89453125 L17.8144531,4.25 C17.6425773,4.87500313 17.3567728,5.33919119 16.9570312,5.64257812 C16.5572897,5.94596506 16.0501333,6.09765625 15.4355469,6.09765625 C14.6751264,6.09765625 14.0501327,5.83789322 13.5605469,5.31835938 C13.0709611,4.79882553 12.8261719,4.08854617 12.8261719,3.1875 C12.8261719,2.23437023 13.0722632,1.49414326 13.5644531,0.966796875 C14.0566431,0.439450488 14.703772,0.17578125 15.5058594,0.17578125 C16.2063837,0.17578125 16.7753884,0.38281043 17.2128906,0.796875 C17.4733086,1.04166789 17.6686191,1.39322687 17.7988281,1.8515625 L16.6542969,2.125 C16.5865882,1.82812352 16.4453136,1.59375086 16.2304688,1.421875 C16.0156239,1.24999914 15.7545588,1.1640625 15.4472656,1.1640625 C15.0227843,1.1640625 14.6783867,1.31640473 14.4140625,1.62109375 C14.1497383,1.92578277 14.0175781,2.41926742 14.0175781,3.1015625 C14.0175781,3.82552445 14.1477852,4.3411443 14.4082031,4.6484375 C14.6686211,4.9557307 15.0071594,5.109375 15.4238281,5.109375 C15.7311213,5.109375 15.9954416,5.01171973 16.2167969,4.81640625 C16.4381521,4.62109277 16.5970047,4.31380418 16.6933594,3.89453125 Z M20.0957031,6 L20.0957031,1.2421875 L18.3964844,1.2421875 L18.3964844,0.2734375 L22.9472656,0.2734375 L22.9472656,1.2421875 L21.2519531,1.2421875 L21.2519531,6 L20.0957031,6 Z" id="VOCT" fill="#FFFFFF"></path>
            </g>
            <g id="Voct2" transform="translate(35.000000, 0.000000)" fill-rule="nonzero">
                <path d="M12.5,18 L10.5,18 L10.5,21 L12.5,21 L12.5,18 Z M12.5,22 L10.5,22 L10.5,25 L12.5,25 L12.5,22 Z M12.5,26 L10.5,26 L10.5,29 L12.5,29 L12.5,26 Z M12.5,30 L10.5,30 L10.5,33 L12.5,33 L12.5,30 Z M12.5,34 L10.5,34 L10.5,37 L12.5,37 L12.5,34 Z M12.5,38 L10.5,38 L10.5,41 L12.5,41 L12.5,38 Z M12.5,42 L10.5,42 L10.5,45 L12.5,45 L12.5,42 Z M12.5,46 L10.5,46 L10.5,49 L12.5,49 L12.5,46 Z M12.5,50 L10.5,50 L10.5,53 L12.5,53 L12.5,50 Z M12.5,54 L10.5,54 L10.5,57 L12.5,57 L12.5,54 Z" id="Line-Copy-13" fill="#E6E6E6"></path>
                <path d="M2.93164062,6 L0.884765625,0.2734375 L2.13867188,0.2734375 L3.58789062,4.51171875 L4.99023438,0.2734375 L6.21679688,0.2734375 L4.16601562,6 L2.93164062,6 Z M6.57226562,3.171875 C6.57226562,2.58853875 6.65950434,2.09896031 6.83398438,1.703125 C6.96419336,1.41145687 7.14192596,1.14974074 7.3671875,0.91796875 C7.59244904,0.686196758 7.83919137,0.514323477 8.10742188,0.40234375 C8.46419449,0.251301328 8.87564871,0.17578125 9.34179688,0.17578125 C10.1855511,0.17578125 10.8606746,0.437497383 11.3671875,0.9609375 C11.8737004,1.48437762 12.1269531,2.21223492 12.1269531,3.14453125 C12.1269531,4.06901504 11.8756536,4.7923151 11.3730469,5.31445312 C10.8704402,5.83659115 10.1985719,6.09765625 9.35742188,6.09765625 C8.50585512,6.09765625 7.82877855,5.83789322 7.32617188,5.31835938 C6.8235652,4.79882553 6.57226562,4.08333789 6.57226562,3.171875 Z M7.76367188,3.1328125 C7.76367188,3.78125324 7.91340996,4.27278479 8.21289062,4.60742188 C8.51237129,4.94205896 8.89257582,5.109375 9.35351562,5.109375 C9.81445543,5.109375 10.1927069,4.94336104 10.4882812,4.61132812 C10.7838556,4.27929521 10.9316406,3.78125332 10.9316406,3.1171875 C10.9316406,2.46093422 10.7877619,1.97135578 10.5,1.6484375 C10.2122381,1.32551922 9.83008051,1.1640625 9.35351562,1.1640625 C8.87695074,1.1640625 8.49284,1.32747232 8.20117188,1.65429688 C7.90950375,1.98112143 7.76367188,2.47395504 7.76367188,3.1328125 Z M16.6933594,3.89453125 L17.8144531,4.25 C17.6425773,4.87500313 17.3567728,5.33919119 16.9570312,5.64257812 C16.5572897,5.94596506 16.0501333,6.09765625 15.4355469,6.09765625 C14.6751264,6.09765625 14.0501327,5.83789322 13.5605469,5.31835938 C13.0709611,4.79882553 12.8261719,4.08854617 12.8261719,3.1875 C12.8261719,2.23437023 13.0722632,1.49414326 13.5644531,0.966796875 C14.0566431,0.439450488 14.703772,0.17578125 15.5058594,0.17578125 C16.2063837,0.17578125 16.7753884,0.38281043 17.2128906,0.796875 C17.4733086,1.04166789 17.6686191,1.39322687 17.7988281,1.8515625 L16.6542969,2.125 C16.5865882,1.82812352 16.4453136,1.59375086 16.2304688,1.421875 C16.0156239,1.24999914 15.7545588,1.1640625 15.4472656,1.1640625 C15.0227843,1.1640625 14.6783867,1.31640473 14.4140625,1.62109375 C14.1497383,1.92578277 14.0175781,2.41926742 14.0175781,3.1015625 C14.0175781,3.82552445 14.1477852,4.3411443 14.4082031,4.6484375 C14.6686211,4.9557307 15.0071594,5.109375 15.4238281,5.109375 C15.7311213,5.109375 15.9954416,5.01171973 16.2167969,4.81640625 C16.4381521,4.62109277 16.5970047,4.31380418 16.6933594,3.89453125 Z M20.0957031,6 L20.0957031,1.2421875 L18.3964844,1.2421875 L18.3964844,0.2734375 L22.9472656,0.2734375 L22.9472656,1.2421875 L21.2519531,1.2421875 L21.2519531,6 L20.0957031,6 Z" id="VOCT" fill="#FFFFFF"></path>
            </g>
            <g id="Voct1" fill-rule="nonzero">
                <path d="M12.5,19 L10.5,19 L10.5,22 L12.5,22 L12.5,19 Z M12.5,23 L10.5,23 L10.5,26 L12.5,26 L12.5,23 Z M12.5,27 L10.5,27 L10.5,30 L12.5,30 L12.5,27 Z M12.5,31 L10.5,31 L10.5,34 L12.5,34 L12.5,31 Z M12.5,35 L10.5,35 L10.5,38 L12.5,38 L12.5,35 Z M12.5,39 L10.5,39 L10.5,42 L12.5,42 L12.5,39 Z M12.5,43 L10.5,43 L10.5,46 L12.5,46 L12.5,43 Z M12.5,47 L10.5,47 L10.5,50 L12.5,50 L12.5,47 Z M12.5,51 L10.5,51 L10.5,54 L12.5,54 L12.5,51 Z M12.5,55 L10.5,55 L10.5,58 L12.5,58 L12.5,55 Z" id="Line-Copy-11" fill="#E6E6E6"></path>
                <path d="M2.93164062,6 L0.884765625,0.2734375 L2.13867188,0.2734375 L3.58789062,4.51171875 L4.99023438,0.2734375 L6.21679688,0.2734375 L4.16601562,6 L2.93164062,6 Z M6.57226562,3.171875 C6.57226562,2.58853875 6.65950434,2.09896031 6.83398438,1.703125 C6.96419336,1.41145687 7.14192596,1.14974074 7.3671875,0.91796875 C7.59244904,0.686196758 7.83919137,0.514323477 8.10742188,0.40234375 C8.46419449,0.251301328 8.87564871,0.17578125 9.34179688,0.17578125 C10.1855511,0.17578125 10.8606746,0.437497383 11.3671875,0.9609375 C11.8737004,1.48437762 12.1269531,2.21223492 12.1269531,3.14453125 C12.1269531,4.06901504 11.8756536,4.7923151 11.3730469,5.31445312 C10.8704402,5.83659115 10.1985719,6.09765625 9.35742188,6.09765625 C8.50585512,6.09765625 7.82877855,5.83789322 7.32617188,5.31835938 C6.8235652,4.79882553 6.57226562,4.08333789 6.57226562,3.171875 Z M7.76367188,3.1328125 C7.76367188,3.78125324 7.91340996,4.27278479 8.21289062,4.60742188 C8.51237129,4.94205896 8.89257582,5.109375 9.35351562,5.109375 C9.81445543,5.109375 10.1927069,4.94336104 10.4882812,4.61132812 C10.7838556,4.27929521 10.9316406,3.78125332 10.9316406,3.1171875 C10.9316406,2.46093422 10.7877619,1.97135578 10.5,1.6484375 C10.2122381,1.32551922 9.83008051,1.1640625 9.35351562,1.1640625 C8.87695074,1.1640625 8.49284,1.32747232 8.20117188,1.65429688 C7.90950375,1.98112143 7.76367188,2.47395504 7.76367188,3.1328125 Z M16.6933594,3.89453125 L17.8144531,4.25 C17.6425773,4.87500313 17.3567728,5.33919119 16.9570312,5.64257812 C16.5572897,5.94596506 16.0501333,6.09765625 15.4355469,6.09765625 C14.6751264,6.09765625 14.0501327,5.83789322 13.5605469,5.31835938 C13.0709611,4.79882553 12.8261719,4.08854617 12.8261719,3.1875 C12.8261719,2.23437023 13.0722632,1.49414326 13.5644531,0.966796875 C14.0566431,0.439450488 14.703772,0.17578125 15.5058594,0.17578125 C16.2063837,0.17578125 16.7753884,0.38281043 17.2128906,0.796875 C17.4733086,1.04166789 17.6686191,1.39322687 17.7988281,1.8515625 L16.6542969,2.125 C16.5865882,1.82812352 16.4453136,1.59375086 16.2304688,1.421875 C16.0156239,1.24999914 15.7545588,1.1640625 15.4472656,1.1640625 C15.0227843,1.1640625 14.6783867,1.31640473 14.4140625,1.62109375 C14.1497383,1.92578277 14.0175781,2.41926742 14.0175781,3.1015625 C14.0175781,3.82552445 14.1477852,4.3411443 14.4082031,4.6484375 C14.6686211,4.9557307 15.0071594,5.109375 15.4238281,5.109375 C15.7311213,5.109375 15.9954416,5.01171973 16.2167969,4.81640625 C16.4381521,4.62109277 16.5970047,4.31380418 16.6933594,3.89453125 Z M20.0957031,6 L20.0957031,1.2421875 L18.3964844,1.2421875 L18.3964844,0.2734375 L22.9472656,0.2734375 L22.9472656,1.2421875 L21.2519531,1.2421875 L21.2519531,6 L20.0957031,6 Z" id="VOCT" fill="#FFFFFF"></path>
            </g>
        </g>
    </g>
</svg>