<?xml version="1.0" encoding="UTF-8"?>
<svg width="270px" height="380px" viewBox="0 0 270 380" version="1.1" xmlns="http://www.w3.org/2000/svg" xmlns:xlink="http://www.w3.org/1999/xlink">
    <!-- Generator: Sketch 58 (84663) - https://sketch.com -->
    <title>POKEY</title>
    <desc>Created with Sketch.</desc>
    <g id="POKEY" stroke="none" stroke-width="1" fill="none" fill-rule="evenodd">
        <g id="bg" transform="translate(0.000000, -6.000000)">
            <rect id="cover" fill="#1D1D1D" x="0" y="6" width="270" height="380" rx="2"></rect>
            <g id="Logo/Panel/DarkMode" transform="translate(104.000000, 370.000000)" fill="#FFFFFF" fill-rule="nonzero">
                <g id="Logo/Print/DarkMode">
                    <path d="M1.95775432,2.29858118 L3.38562168,2.29858118 L3.38562168,4.99672234 L6.06699634,2.29858118 L7.94254488,2.29858118 L5.09623504,4.99672234 L8.08863032,8.85057471 L6.22250665,8.85057471 L4.0783494,5.98796695 L3.38562168,6.65916846 L3.38562168,8.85057471 L1.95775432,8.85057471 L1.95775432,2.29858118 Z M11.6276679,6.49470187 C11.5428437,6.54507927 11.4572353,6.5858251 11.3708403,6.61694055 C11.2844452,6.64805601 11.1658502,6.6769485 11.0150515,6.70361889 L10.7134558,6.75695941 C10.4307084,6.80437344 10.2280757,6.86215842 10.1055519,6.93031609 C9.89820375,7.04588779 9.79453125,7.2251694 9.79453125,7.46816631 C9.79453125,7.68449282 9.85814847,7.84080861 9.98538481,7.93711835 C10.1126211,8.0334281 10.2673445,8.08158226 10.4495595,8.08158226 C10.7385902,8.08158226 11.00484,8.00157228 11.248317,7.84154993 C11.4917939,7.68152758 11.618243,7.38963933 11.6276679,6.96587644 L11.6276679,6.49470187 Z M10.8124169,5.90351114 C11.0606051,5.87387737 11.2381062,5.83683571 11.3449219,5.79238506 C11.5365618,5.71533726 11.6323803,5.59532229 11.6323803,5.43233657 C11.6323803,5.23379031 11.5593383,5.09673619 11.4132522,5.02117008 C11.267166,4.94560397 11.0527524,4.90782148 10.770005,4.90782148 C10.4526995,4.90782148 10.2280758,4.98190479 10.096127,5.13007364 C10.0018779,5.23971858 9.93904603,5.3878852 9.90762965,5.57457795 L8.61171044,5.57457795 C8.63998518,5.15081505 8.76564882,4.80262349 8.98870512,4.52999282 C9.34371022,4.10326654 9.95317886,3.88990661 10.8171293,3.88990661 C11.3794825,3.88990661 11.8789955,3.99510491 12.3156832,4.20550467 C12.7523709,4.41590443 12.9707114,4.81299097 12.9707114,5.39677622 L12.9707114,7.61929777 C12.9707114,7.77339337 12.973853,7.96008331 12.9801363,8.1793732 C12.9895612,8.34532231 13.0162647,8.45792894 13.0602477,8.51719648 C13.1042306,8.57646402 13.170204,8.625359 13.2581699,8.6638829 L13.2581699,8.85057471 L11.7973155,8.85057471 C11.7564742,8.75278328 11.7281999,8.66091997 11.7124917,8.57498204 C11.6967835,8.48904411 11.6842171,8.39125414 11.6747922,8.2816092 C11.4894356,8.47126532 11.2758074,8.63276693 11.0339013,8.76611889 C10.7448706,8.92317787 10.4181451,9.00170618 10.0537151,9.00170618 C9.58875266,9.00170618 9.20469317,8.87650538 8.9015251,8.62610004 C8.59835703,8.37569469 8.44677527,8.02083563 8.44677527,7.56151221 C8.44677527,6.96587346 8.69024856,6.53470859 9.17720246,6.26800467 C9.44424169,6.1227992 9.83694056,6.01908257 10.3553108,5.95685165 L10.8124169,5.90351114 Z M15.5012882,4.00547773 L15.5012882,6.92587105 C15.5012882,7.2014651 15.5358457,7.40889837 15.6049618,7.54817708 C15.7274857,7.79413736 15.9678174,7.91711566 16.3259641,7.91711566 C16.7846433,7.91711566 17.0988023,7.74227905 17.2684508,7.39260057 C17.3564167,7.20294445 17.4003989,6.95254286 17.4003989,6.64138829 L17.4003989,4.00547773 L18.7622922,4.00547773 L18.7622922,8.85057471 L17.4569481,8.85057471 L17.4569481,8.16603807 L17.4405489,8.18737424 C17.4238355,8.21019205 17.3978858,8.24753027 17.3626995,8.29938937 C17.3124333,8.37347379 17.252743,8.4386671 17.183627,8.49497126 C16.9731372,8.67277388 16.7697192,8.79427051 16.5733669,8.8594648 C16.3770145,8.92465909 16.1468929,8.95725575 15.8829953,8.95725575 C15.1227189,8.95725575 14.6106396,8.69944583 14.346742,8.18381825 C14.199085,7.89933407 14.1252576,7.48002253 14.1252576,6.92587105 L14.1252576,4.00547773 L15.5012882,4.00547773 Z M19.5304189,4.95227191 L19.5304189,4.04992816 L20.2467088,4.04992816 L20.2467088,2.69863506 L21.575615,2.69863506 L21.575615,4.04992816 L22.4097158,4.04992816 L22.4097158,4.95227191 L21.575615,4.95227191 L21.575615,7.51261674 C21.575615,7.71116299 21.6023185,7.83488212 21.6557264,7.88377784 C21.7091342,7.93267356 21.872497,7.95712105 22.1458195,7.95712105 C22.1866608,7.95712105 22.2298577,7.95638022 22.2754114,7.95489853 C22.3209652,7.95341684 22.3657328,7.95119434 22.4097158,7.94823096 L22.4097158,8.89502514 L21.7735372,8.91725036 C21.1389263,8.937994 20.7053868,8.83427736 20.4729056,8.60609734 C20.322107,8.46089187 20.2467088,8.23716028 20.2467088,7.93489583 L20.2467088,4.95227191 L19.5304189,4.95227191 Z M25.2984375,4.92115661 C24.9874153,4.92115661 24.7462982,5.01301991 24.575079,5.19674928 C24.4038597,5.38047865 24.2962602,5.62939857 24.2522773,5.94351652 L26.3398853,5.94351652 C26.3178938,5.60865493 26.2102944,5.35454918 26.0170836,5.18119163 C25.8238729,5.00783408 25.5843266,4.92115661 25.2984375,4.92115661 Z M25.2984375,3.87657148 C25.7257003,3.87657148 26.1105452,3.95213646 26.4529837,4.10326868 C26.7954223,4.2544009 27.0781654,4.49294916 27.3012217,4.81892062 C27.5022866,5.10636818 27.6326626,5.43974307 27.6923537,5.81905532 C27.7269117,6.04130858 27.7410489,6.36134849 27.7347656,6.77918463 L24.2192902,6.77918463 C24.2381401,7.26517844 24.399932,7.60596167 24.7046709,7.80154454 C24.8900275,7.92304299 25.1130805,7.98379131 25.3738364,7.98379131 C25.6503006,7.98379131 25.8749243,7.909708 26.0477144,7.76153915 C26.1419636,7.68152798 26.2252157,7.57040301 26.2974734,7.42816092 L27.6687916,7.42816092 C27.6342335,7.71560848 27.4755832,8.00749672 27.1928358,8.30383441 C26.7530064,8.77501134 26.1372546,9.01059626 25.3455618,9.01059626 C24.6921011,9.01059626 24.1156192,8.81205299 23.6160987,8.41496049 C23.1165783,8.01786799 22.8668218,7.37186151 22.8668218,6.4769217 C22.8668218,5.63828604 23.092231,4.9952429 23.543056,4.54777299 C23.9938811,4.10030308 24.5790024,3.87657148 25.2984375,3.87657148 Z M31.4858627,3.88990661 C32.0167995,3.88990661 32.4511245,4.02103407 32.7888506,4.28329292 C33.1265767,4.54555178 33.2954372,4.98042081 33.2954372,5.58791307 L33.2954372,8.85057471 L31.9194066,8.85057471 L31.9194066,5.90351114 C31.9194066,5.64866072 31.8832783,5.45308078 31.8110206,5.31676545 C31.6790718,5.06784179 31.4277445,4.94338182 31.0570313,4.94338182 C30.6014937,4.94338182 30.2889054,5.12562677 30.119257,5.49012213 C30.0312911,5.68274162 29.9873088,5.92869822 29.9873088,6.22799928 L29.9873088,8.85057471 L28.6489777,8.85057471 L28.6489777,4.01436782 L29.9448969,4.01436782 L29.9448969,4.72112967 C30.117687,4.47220601 30.2810498,4.2929244 30.43499,4.18327945 C30.7114542,3.98769658 31.0617416,3.88990661 31.4858627,3.88990661 Z M35.9391124,3.42762213 L34.5960688,3.42762213 L34.5960688,2.25857579 L35.9391124,2.25857579 L35.9391124,3.42762213 Z M33.9504654,10.7930585 L33.9504654,9.77958872 L34.0978762,9.79004152 L34.0978762,9.79004152 L34.1106882,9.79070133 C34.1421045,9.79218302 34.1703789,9.79292385 34.195512,9.79292385 C34.3274608,9.79292385 34.4272063,9.76254969 34.4947515,9.70180047 C34.5622967,9.64105124 34.5960688,9.52325878 34.5960688,9.34841954 L34.5960688,4.02770295 L35.9391124,4.02770295 L35.9391124,9.37064476 C35.9391124,9.85960194 35.8370107,10.2211285 35.6328042,10.4552353 C35.435185,10.6817902 35.0536827,10.7987202 34.4882863,10.8060283 L34.4311336,10.8063937 C34.4077958,10.8063937 34.3780467,10.8059099 34.341886,10.8049422 L34.0479841,10.7955986 C34.0170809,10.7947519 33.9845746,10.7939052 33.9504654,10.7930585 Z M40.0483544,6.49470187 C39.9635302,6.54507927 39.8779218,6.5858251 39.7915268,6.61694055 C39.7051317,6.64805601 39.5865367,6.6769485 39.435738,6.70361889 L39.1341423,6.75695941 C38.8513949,6.80437344 38.6487622,6.86215842 38.5262384,6.93031609 C38.3188903,7.04588779 38.2152178,7.2251694 38.2152178,7.46816631 C38.2152178,7.68449282 38.278835,7.84080861 38.4060713,7.93711835 C38.5333077,8.0334281 38.688031,8.08158226 38.870246,8.08158226 C39.1592767,8.08158226 39.4255265,8.00157228 39.6690035,7.84154993 C39.9124804,7.68152758 40.0389295,7.38963933 40.0483544,6.96587644 L40.0483544,6.49470187 Z M39.2331034,5.90351114 C39.4812916,5.87387737 39.6587927,5.83683571 39.7656084,5.79238506 C39.9572483,5.71533726 40.0530668,5.59532229 40.0530668,5.43233657 C40.0530668,5.23379031 39.9800248,5.09673619 39.8339387,5.02117008 C39.6878525,4.94560397 39.4734389,4.90782148 39.1906915,4.90782148 C38.873386,4.90782148 38.6487623,4.98190479 38.5168135,5.13007364 C38.4225644,5.23971858 38.3597325,5.3878852 38.3283162,5.57457795 L37.0323969,5.57457795 C37.0606717,5.15081505 37.1863353,4.80262349 37.4093916,4.52999282 C37.7643967,4.10326654 38.3738654,3.88990661 39.2378158,3.88990661 C39.800169,3.88990661 40.299682,3.99510491 40.7363697,4.20550467 C41.1730574,4.41590443 41.3913979,4.81299097 41.3913979,5.39677622 L41.3913979,7.61929777 C41.3913979,7.77339337 41.3945395,7.96008331 41.4008228,8.1793732 C41.4102477,8.34532231 41.4369512,8.45792894 41.4809342,8.51719648 C41.5249171,8.57646402 41.5908905,8.625359 41.6788564,8.6638829 L41.6788564,8.85057471 L40.218002,8.85057471 C40.1771607,8.75278328 40.1488864,8.66091997 40.1331782,8.57498204 C40.11747,8.48904411 40.1049036,8.39125414 40.0954787,8.2816092 C39.9101221,8.47126532 39.6964939,8.63276693 39.4545878,8.76611889 C39.1655571,8.92317787 38.8388316,9.00170618 38.4744016,9.00170618 C38.0094392,9.00170618 37.6253797,8.87650538 37.3222116,8.62610004 C37.0190435,8.37569469 36.8674618,8.02083563 36.8674618,7.56151221 C36.8674618,6.96587346 37.1109351,6.53470859 37.597889,6.26800467 C37.8649282,6.1227992 38.2576271,6.01908257 38.7759973,5.95685165 L39.2331034,5.90351114 Z M44.1010472,3.43651221 L44.1010472,7.71264368 L45.4393783,7.71264368 C46.1242554,7.71264368 46.6017772,7.39408544 46.8719581,6.75695941 C47.0196151,6.40728094 47.0934425,5.99093273 47.0934425,5.5079023 C47.0934425,4.8411425 46.9827014,4.32922682 46.7612159,3.97213991 C46.5397304,3.61505299 46.0991223,3.43651221 45.4393783,3.43651221 L44.1010472,3.43651221 Z M45.6844249,2.29858118 C46.1148293,2.30450793 46.4729706,2.35192125 46.7588597,2.44082256 C47.2458136,2.59195478 47.6400833,2.86902636 47.9416805,3.27204562 C48.1835866,3.59801708 48.3485202,3.95065364 48.436486,4.32996588 C48.5244519,4.70927812 48.5684342,5.07080467 48.5684342,5.41455639 C48.5684342,6.2857892 48.3830803,7.02365897 48.012367,7.62818786 C47.5097049,8.4431165 46.733732,8.85057471 45.6844249,8.85057471 L42.6920296,8.85057471 L42.6920296,2.29858118 L45.6844249,2.29858118 Z M50.7125914,6.8280801 C50.7565744,7.12738117 50.8429681,7.35111276 50.9717753,7.49928161 C51.2073981,7.76894891 51.6110926,7.90378053 52.1828707,7.90378053 C52.5253092,7.90378053 52.80334,7.86822054 53.0169714,7.7970995 C53.4222427,7.66078416 53.6248753,7.40741924 53.6248753,7.03699713 C53.6248753,6.82067061 53.5243444,6.65324233 53.3232796,6.53470726 C53.132268,6.42491414 52.8377712,6.32715743 52.4397811,6.24143448 L51.6409408,6.07242277 C50.9183641,5.91832717 50.4188511,5.75089889 50.142387,5.5701329 C49.6742829,5.26786846 49.4402344,4.79521694 49.4402344,4.15216415 C49.4402344,3.56541553 49.6664289,3.07794734 50.1188248,2.68974497 C50.5712207,2.3015426 51.2356672,2.10744432 52.1121842,2.10744432 C52.8441858,2.10744432 53.468577,2.2904301 53.9853765,2.65640715 C54.502176,3.02238419 54.7731382,3.55356153 54.7982713,4.2499551 L53.403391,4.2499551 C53.3782579,3.85582597 53.1960456,3.57579106 52.8567487,3.40984195 C52.6305507,3.30019701 52.3493783,3.24537536 52.0132231,3.24537536 C51.6393681,3.24537536 51.340917,3.31649534 51.1178607,3.45873743 C50.8948044,3.60097952 50.7832779,3.79952279 50.7832779,4.0543732 C50.7832779,4.27783876 50.8834648,4.4472999 51.0838415,4.56276117 L51.1131483,4.57888829 C51.248867,4.65285418 51.5322436,4.73910853 51.9632861,4.83765375 L53.2148936,5.12118355 C53.7395472,5.23971862 54.1353876,5.39825691 54.4024269,5.59680316 C54.8171231,5.90499436 55.0244681,6.35097589 55.0244681,6.93476114 C55.0244681,7.53336327 54.7817802,8.03046228 54.2963971,8.4260731 C53.811014,8.82168391 53.1253618,9.01948635 52.2394199,9.01948635 C51.3346281,9.01948635 50.6230578,8.82464724 50.1046875,8.43496318 C49.5863172,8.04527912 49.327136,7.50965678 49.327136,6.8280801 L50.7125914,6.8280801 Z M60.0102227,4.38330639 C60.0102227,4.04251805 59.9151896,3.79952479 59.7251205,3.65431932 C59.5350514,3.50911386 59.2688016,3.43651221 58.926363,3.43651221 L57.5738946,3.43651221 L57.5738946,5.36566092 L58.926363,5.36566092 C59.2688016,5.36566092 59.5350514,5.28713261 59.7251205,5.13007364 C59.9151896,4.97301466 60.0102227,4.72409474 60.0102227,4.38330639 Z M61.447515,4.37441631 C61.447515,5.14785767 61.24017,5.69459251 60.8254737,6.01463721 C60.4107775,6.33468192 59.8185876,6.49470187 59.0488863,6.49470187 L57.5738946,6.49470187 L57.5738946,8.85057471 L56.13189,8.85057471 L56.13189,2.29858118 L59.1572723,2.29858118 C59.8547159,2.29858118 60.4107775,2.46749113 60.8254737,2.80531609 C61.24017,3.14314106 61.447515,3.66616923 61.447515,4.37441631 Z" id="KautenjaDSP"></path>
                </g>
            </g>
            <g id="Audio-Control-Register" transform="translate(211.000000, 27.000000)" fill="#FFFFFF" fill-rule="nonzero">
                <path d="M0.75,5.25 L0.75,0 L2.25,0 L2.25,4.5 L5.25,4.5 L5.25,5.25 L0.75,5.25 Z M6.75,5.25 L6.75,4.5 L6,4.5 L6,0.75 L6.75,0.75 L6.75,0 L10.5,0 L10.5,0.75 L11.25,0.75 L11.25,4.5 L10.5,4.5 L10.5,5.25 L6.75,5.25 Z M7.5,4.5 L9.75,4.5 L9.75,0.75 L7.5,0.75 L7.5,4.5 Z M12.75,5.25 L12.75,4.5 L12,4.5 L12,0 L13.5,0 L13.5,3 L14.25,3 L14.25,0 L15,0 L15,3 L15.75,3 L15.75,0 L17.25,0 L17.25,4.5 L16.5,4.5 L16.5,5.25 L15.75,5.25 L15.75,4.5 L15,4.5 L15,3.75 L14.25,3.75 L14.25,4.5 L13.5,4.5 L13.5,5.25 L12.75,5.25 Z M24,5.25 L24,0 L29.25,0 L29.25,0.75 L25.5,0.75 L25.5,2.25 L28.5,2.25 L28.5,3 L25.5,3 L25.5,5.25 L24,5.25 Z M30,5.25 L30,0 L34.5,0 L34.5,0.75 L35.25,0.75 L35.25,3 L33.75,3 L33.75,3.75 L34.5,3.75 L34.5,4.5 L35.25,4.5 L35.25,5.25 L33,5.25 L33,4.5 L32.25,4.5 L32.25,3.75 L31.5,3.75 L31.5,5.25 L30,5.25 Z M31.5,3 L33,3 L33,2.25 L33.75,2.25 L33.75,0.75 L31.5,0.75 L31.5,3 Z M36,5.25 L36,0 L41.25,0 L41.25,0.75 L37.5,0.75 L37.5,2.25 L40.5,2.25 L40.5,3 L37.5,3 L37.5,4.5 L41.25,4.5 L41.25,5.25 L36,5.25 Z M47.25,0.75 L47.25,3.75 L46.5,3.75 L46.5,4.5 L45.75,4.5 L45.75,5.25 L42.75,5.25 L42.75,4.5 L42,4.5 L42,0.75 L42.75,0.75 L42.75,0 L46.5,0 L46.5,0.75 L47.25,0.75 Z M45.75,0.75 L43.5,0.75 L43.5,4.5 L45,4.5 L45,3.75 L44.25,3.75 L44.25,3 L45.75,3 L45.75,0.75 Z M46.5,5.25 L46.5,4.5 L47.25,4.5 L47.25,5.25 L46.5,5.25 Z" id="LOWFREQ"></path>
                <path d="M0,48 L0,41 L2,41 L2,44 L5,44 L5,41 L7,41 L7,48 L5,48 L5,45 L2,45 L2,48 L0,48 Z M8,48 L8,41 L14,41 L14,42 L15,42 L15,45 L14,45 L14,46 L10,46 L10,48 L8,48 Z M10,45 L13,45 L13,42 L10,42 L10,45 Z M28,48 L28,46 L24,46 L24,44 L25,44 L25,43 L26,43 L26,42 L27,42 L27,41 L30,41 L30,45 L31,45 L31,46 L30,46 L30,48 L28,48 Z M26,45 L28,45 L28,43 L27,43 L27,44 L26,44 L26,45 Z M33,48 L33,47 L34,47 L34,46 L35,46 L35,45 L36,45 L36,44 L35,44 L35,43 L34,43 L34,42 L33,42 L33,41 L35,41 L35,42 L36,42 L36,43 L37,43 L37,44 L38,44 L38,45 L37,45 L37,46 L36,46 L36,47 L35,47 L35,48 L33,48 Z M40,48 L40,46 L41,46 L41,45 L42,45 L42,44 L44,44 L44,43 L45,43 L45,42 L42,42 L42,43 L40,43 L40,42 L41,42 L41,41 L46,41 L46,42 L47,42 L47,44 L46,44 L46,45 L45,45 L45,46 L43,46 L43,47 L47,47 L47,48 L40,48 Z" id="HP4&gt;2"></path>
                <path d="M0,91 L0,84 L2,84 L2,87 L5,87 L5,84 L7,84 L7,91 L5,91 L5,88 L2,88 L2,91 L0,91 Z M8,91 L8,84 L14,84 L14,85 L15,85 L15,88 L14,88 L14,89 L10,89 L10,91 L8,91 Z M10,88 L13,88 L13,85 L10,85 L10,88 Z M25,91 L25,90 L24,90 L24,89 L26,89 L26,90 L29,90 L29,88 L26,88 L26,87 L27,87 L27,86 L28,86 L28,85 L25,85 L25,84 L31,84 L31,85 L30,85 L30,86 L29,86 L29,87 L30,87 L30,88 L31,88 L31,90 L30,90 L30,91 L25,91 Z M33,91 L33,90 L34,90 L34,89 L35,89 L35,88 L36,88 L36,87 L35,87 L35,86 L34,86 L34,85 L33,85 L33,84 L35,84 L35,85 L36,85 L36,86 L37,86 L37,87 L38,87 L38,88 L37,88 L37,89 L36,89 L36,90 L35,90 L35,91 L33,91 Z M41,91 L41,90 L43,90 L43,86 L42,86 L42,85 L43,85 L43,84 L45,84 L45,90 L47,90 L47,91 L41,91 Z" id="HP3&gt;1"></path>
                <path d="M0,222 L0,217 L1,217 L1,216 L2,216 L2,215 L5,215 L5,216 L6,216 L6,217 L7,217 L7,222 L5,222 L5,220 L2,220 L2,222 L0,222 Z M2,219 L5,219 L5,217 L4,217 L4,216 L3,216 L3,217 L2,217 L2,219 Z M9,222 L9,221 L8,221 L8,215 L10,215 L10,221 L13,221 L13,215 L15,215 L15,221 L14,221 L14,222 L9,222 Z M16,222 L16,215 L21,215 L21,216 L22,216 L22,217 L23,217 L23,220 L22,220 L22,221 L21,221 L21,222 L16,222 Z M18,221 L20,221 L20,220 L21,220 L21,217 L20,217 L20,216 L18,216 L18,221 Z M25,222 L25,221 L24,221 L24,220 L26,220 L26,221 L29,221 L29,219 L26,219 L26,218 L27,218 L27,217 L28,217 L28,216 L25,216 L25,215 L31,215 L31,216 L30,216 L30,217 L29,217 L29,218 L30,218 L30,219 L31,219 L31,221 L30,221 L30,222 L25,222 Z M32,222 L32,215 L34,215 L34,218 L37,218 L37,215 L39,215 L39,222 L37,222 L37,219 L34,219 L34,222 L32,222 Z M41,222 L41,221 L43,221 L43,216 L41,216 L41,215 L47,215 L47,216 L45,216 L45,221 L47,221 L47,222 L41,222 Z" id="AUD3HI"></path>
                <path d="M0,265 L0,260 L1,260 L1,259 L2,259 L2,258 L5,258 L5,259 L6,259 L6,260 L7,260 L7,265 L5,265 L5,263 L2,263 L2,265 L0,265 Z M2,262 L5,262 L5,260 L4,260 L4,259 L3,259 L3,260 L2,260 L2,262 Z M9,265 L9,264 L8,264 L8,258 L10,258 L10,264 L13,264 L13,258 L15,258 L15,264 L14,264 L14,265 L9,265 Z M16,265 L16,258 L21,258 L21,259 L22,259 L22,260 L23,260 L23,263 L22,263 L22,264 L21,264 L21,265 L16,265 Z M18,264 L20,264 L20,263 L21,263 L21,260 L20,260 L20,259 L18,259 L18,264 Z M25,265 L25,264 L27,264 L27,260 L26,260 L26,259 L27,259 L27,258 L29,258 L29,264 L31,264 L31,265 L25,265 Z M32,265 L32,258 L34,258 L34,261 L37,261 L37,258 L39,258 L39,265 L37,265 L37,262 L34,262 L34,265 L32,265 Z M41,265 L41,264 L43,264 L43,259 L41,259 L41,258 L47,258 L47,259 L45,259 L45,264 L47,264 L47,265 L41,265 Z" id="AUD1HI"></path>
                <path d="M1.5,306.5 L1.5,296 L4.5,296 L4.5,305 L10.5,305 L10.5,306.5 L1.5,306.5 Z M12,306.5 L12,296 L22.5,296 L22.5,297.5 L15,297.5 L15,300.5 L21,300.5 L21,302 L15,302 L15,306.5 L12,306.5 Z M33,296 L33,297.5 L34.5,297.5 L34.5,299 L31.5,299 L31.5,297.5 L27,297.5 L27,300.5 L33,300.5 L33,302 L34.5,302 L34.5,305 L33,305 L33,306.5 L25.5,306.5 L25.5,305 L24,305 L24,303.5 L27,303.5 L27,305 L31.5,305 L31.5,302 L25.5,302 L25.5,300.5 L24,300.5 L24,297.5 L25.5,297.5 L25.5,296 L33,296 Z M45,296 L45,297.5 L46.5,297.5 L46.5,302 L43.5,302 L43.5,303.5 L45,303.5 L45,305 L46.5,305 L46.5,306.5 L42,306.5 L42,305 L40.5,305 L40.5,303.5 L39,303.5 L39,306.5 L36,306.5 L36,296 L45,296 Z M43.5,297.5 L39,297.5 L39,302 L42,302 L42,300.5 L43.5,300.5 L43.5,297.5 Z" id="LFSR"></path>
            </g>
            <g id="AUD4" transform="translate(13.000000, 255.000000)">
                <rect id="bg" fill="#717171" x="0" y="29" width="193" height="81" rx="2"></rect>
                <g id="Header" transform="translate(2.000000, 0.000000)" fill="#1D1D1D" fill-rule="nonzero">
                    <path d="M0,74 L0,44 L6,44 L6,38 L12,38 L12,32 L30,32 L30,38 L36,38 L36,44 L42,44 L42,74 L30,74 L30,62 L12,62 L12,74 L0,74 Z M12,56 L30,56 L30,44 L24,44 L24,38 L18,38 L18,44 L12,44 L12,56 Z M54,74 L54,68 L48,68 L48,32 L60,32 L60,68 L78,68 L78,32 L90,32 L90,68 L84,68 L84,74 L54,74 Z M96,74 L96,32 L126,32 L126,38 L132,38 L132,44 L138,44 L138,62 L132,62 L132,68 L126,68 L126,74 L96,74 Z M108,68 L120,68 L120,62 L126,62 L126,44 L120,44 L120,38 L108,38 L108,68 Z M168,74 L168,62 L144,62 L144,50 L150,50 L150,44 L156,44 L156,38 L162,38 L162,32 L180,32 L180,56 L186,56 L186,62 L180,62 L180,74 L168,74 Z M156,56 L156,50 L162,50 L162,44 L168,44 L168,56 L156,56 Z" id="AUD4"></path>
                </g>
                <g id="Out" transform="translate(149.000000, 77.000000)">
                    <rect id="Rectangle" stroke="#F0ECEB" fill="#1D1D1D" x="0" y="0" width="40" height="29"></rect>
                    <path d="M4.75,9.25 L4.75,8.5 L4,8.5 L4,4.75 L4.75,4.75 L4.75,4 L8.5,4 L8.5,4.75 L9.25,4.75 L9.25,8.5 L8.5,8.5 L8.5,9.25 L4.75,9.25 Z M5.5,8.5 L7.75,8.5 L7.75,4.75 L5.5,4.75 L5.5,8.5 Z M4.75,17.25 L4.75,16.5 L4,16.5 L4,12 L5.5,12 L5.5,16.5 L7.75,16.5 L7.75,12 L9.25,12 L9.25,16.5 L8.5,16.5 L8.5,17.25 L4.75,17.25 Z M6.25,25.25 L6.25,20.75 L4.75,20.75 L4.75,20 L9.25,20 L9.25,20.75 L7.75,20.75 L7.75,25.25 L6.25,25.25 Z" id="OUT" fill="#E1E1E1" fill-rule="nonzero"></path>
                </g>
                <g id="Level" transform="translate(131.000000, 30.000000)" fill="#F0ECEB" fill-rule="nonzero">
                    <path d="M18,37 L18,30 L20,30 L20,36 L24,36 L24,37 L18,37 Z M25,37 L25,30 L32,30 L32,31 L27,31 L27,33 L31,33 L31,34 L27,34 L27,36 L32,36 L32,37 L25,37 Z M36,37 L36,36 L35,36 L35,35 L34,35 L34,34 L33,34 L33,30 L35,30 L35,33 L36,33 L36,34 L37,34 L37,33 L38,33 L38,30 L40,30 L40,34 L39,34 L39,35 L38,35 L38,36 L37,36 L37,37 L36,37 Z M41,37 L41,30 L48,30 L48,31 L43,31 L43,33 L47,33 L47,34 L43,34 L43,36 L48,36 L48,37 L41,37 Z M50,37 L50,30 L52,30 L52,36 L56,36 L56,37 L50,37 Z" id="LEVEL"></path>
                </g>
                <g id="Noise" transform="translate(94.000000, 34.000000)" fill="#F0ECEB" fill-rule="nonzero">
                    <path d="M4.5,39.25 L4.5,34 L6,34 L6,34.75 L6.75,34.75 L6.75,35.5 L7.5,35.5 L7.5,36.25 L8.25,36.25 L8.25,34 L9.75,34 L9.75,39.25 L8.25,39.25 L8.25,37.75 L7.5,37.75 L7.5,37 L6.75,37 L6.75,36.25 L6,36.25 L6,39.25 L4.5,39.25 Z M11.25,39.25 L11.25,38.5 L10.5,38.5 L10.5,34.75 L11.25,34.75 L11.25,34 L15,34 L15,34.75 L15.75,34.75 L15.75,38.5 L15,38.5 L15,39.25 L11.25,39.25 Z M12,38.5 L14.25,38.5 L14.25,34.75 L12,34.75 L12,38.5 Z M17.25,39.25 L17.25,38.5 L18.75,38.5 L18.75,34.75 L17.25,34.75 L17.25,34 L21.75,34 L21.75,34.75 L20.25,34.75 L20.25,38.5 L21.75,38.5 L21.75,39.25 L17.25,39.25 Z M23.25,39.25 L23.25,38.5 L22.5,38.5 L22.5,37.75 L24,37.75 L24,38.5 L26.25,38.5 L26.25,37 L23.25,37 L23.25,36.25 L22.5,36.25 L22.5,34.75 L23.25,34.75 L23.25,34 L27,34 L27,34.75 L27.75,34.75 L27.75,35.5 L26.25,35.5 L26.25,34.75 L24,34.75 L24,36.25 L27,36.25 L27,37 L27.75,37 L27.75,38.5 L27,38.5 L27,39.25 L23.25,39.25 Z M28.5,39.25 L28.5,34 L33.75,34 L33.75,34.75 L30,34.75 L30,36.25 L33,36.25 L33,37 L30,37 L30,38.5 L33.75,38.5 L33.75,39.25 L28.5,39.25 Z" id="NOISE"></path>
                </g>
                <g id="Freq" transform="translate(33.000000, 45.000000)"></g>
                <g id="VOCT" transform="translate(2.000000, 71.000000)" fill="#F0ECEB" fill-rule="nonzero">
                    <path d="M3.25,5.25 L3.25,4.5 L2.5,4.5 L2.5,3.75 L1.75,3.75 L1.75,3 L1,3 L1,0 L2.5,0 L2.5,2.25 L3.25,2.25 L3.25,3 L4,3 L4,2.25 L4.75,2.25 L4.75,0 L6.25,0 L6.25,3 L5.5,3 L5.5,3.75 L4.75,3.75 L4.75,4.5 L4,4.5 L4,5.25 L3.25,5.25 Z M12.25,0 L12.25,0.75 L11.5,0.75 L11.5,0 L12.25,0 Z M10.75,0.75 L11.5,0.75 L11.5,1.5 L10.75,1.5 L10.75,0.75 Z M10,1.5 L10.75,1.5 L10.75,2.25 L10,2.25 L10,1.5 Z M9.25,2.25 L10,2.25 L10,3 L9.25,3 L9.25,2.25 Z M8.5,3 L9.25,3 L9.25,3.75 L8.5,3.75 L8.5,3 Z M7.75,3.75 L8.5,3.75 L8.5,4.5 L7.75,4.5 L7.75,3.75 Z M7,4.5 L7.75,4.5 L7.75,5.25 L7,5.25 L7,4.5 Z M13.75,5.25 L13.75,4.5 L13,4.5 L13,0.75 L13.75,0.75 L13.75,0 L17.5,0 L17.5,0.75 L18.25,0.75 L18.25,4.5 L17.5,4.5 L17.5,5.25 L13.75,5.25 Z M14.5,4.5 L16.75,4.5 L16.75,0.75 L14.5,0.75 L14.5,4.5 Z M20.5,5.25 L20.5,4.5 L19.75,4.5 L19.75,3.75 L19,3.75 L19,1.5 L19.75,1.5 L19.75,0.75 L20.5,0.75 L20.5,0 L23.5,0 L23.5,0.75 L24.25,0.75 L24.25,1.5 L22.75,1.5 L22.75,0.75 L21.25,0.75 L21.25,1.5 L20.5,1.5 L20.5,3.75 L21.25,3.75 L21.25,4.5 L22.75,4.5 L22.75,3.75 L24.25,3.75 L24.25,4.5 L23.5,4.5 L23.5,5.25 L20.5,5.25 Z M27.25,5.25 L27.25,0.75 L25.75,0.75 L25.75,0 L30.25,0 L30.25,0.75 L28.75,0.75 L28.75,5.25 L27.25,5.25 Z" id="V/OCT"></path>
                </g>
                <g id="Mod" transform="translate(3.000000, 34.000000)" fill="#F0ECEB" fill-rule="nonzero">
                    <path d="M5,0 L5,1 L6,1 L6,2 L7,2 L7,1 L8,1 L8,0 L10,0 L10,7 L8,7 L8,3 L7,3 L7,5 L6,5 L6,3 L5,3 L5,7 L3,7 L3,0 L5,0 Z M17,0 L17,1 L18,1 L18,6 L17,6 L17,7 L12,7 L12,6 L11,6 L11,1 L12,1 L12,0 L17,0 Z M24,0 L24,1 L25,1 L25,2 L26,2 L26,5 L25,5 L25,6 L24,6 L24,7 L19,7 L19,0 L24,0 Z M16,1 L13,1 L13,6 L16,6 L16,1 Z M23,1 L21,1 L21,6 L23,6 L23,5 L24,5 L24,2 L23,2 L23,1 Z" id="MOD"></path>
                </g>
            </g>
            <g id="AUD3" transform="translate(13.000000, 170.000000)">
                <rect id="bg" fill="#717171" x="0" y="29" width="193" height="81" rx="2"></rect>
                <g id="Header" transform="translate(2.000000, 0.000000)" fill="#1D1D1D" fill-rule="nonzero">
                    <path d="M0,74 L0,44 L6,44 L6,38 L12,38 L12,32 L30,32 L30,38 L36,38 L36,44 L42,44 L42,74 L30,74 L30,62 L12,62 L12,74 L0,74 Z M12,56 L30,56 L30,44 L24,44 L24,38 L18,38 L18,44 L12,44 L12,56 Z M54,74 L54,68 L48,68 L48,32 L60,32 L60,68 L78,68 L78,32 L90,32 L90,68 L84,68 L84,74 L54,74 Z M96,74 L96,32 L126,32 L126,38 L132,38 L132,44 L138,44 L138,62 L132,62 L132,68 L126,68 L126,74 L96,74 Z M108,68 L120,68 L120,62 L126,62 L126,44 L120,44 L120,38 L108,38 L108,68 Z M150,74 L150,68 L144,68 L144,62 L156,62 L156,68 L174,68 L174,56 L156,56 L156,50 L162,50 L162,44 L168,44 L168,38 L150,38 L150,32 L186,32 L186,38 L180,38 L180,44 L174,44 L174,50 L180,50 L180,56 L186,56 L186,68 L180,68 L180,74 L150,74 Z" id="AUD3"></path>
                </g>
                <g id="Out" transform="translate(149.000000, 77.000000)">
                    <rect id="Rectangle" stroke="#F0ECEB" fill="#1D1D1D" x="0" y="0" width="40" height="29"></rect>
                    <path d="M4.75,9.25 L4.75,8.5 L4,8.5 L4,4.75 L4.75,4.75 L4.75,4 L8.5,4 L8.5,4.75 L9.25,4.75 L9.25,8.5 L8.5,8.5 L8.5,9.25 L4.75,9.25 Z M5.5,8.5 L7.75,8.5 L7.75,4.75 L5.5,4.75 L5.5,8.5 Z M4.75,17.25 L4.75,16.5 L4,16.5 L4,12 L5.5,12 L5.5,16.5 L7.75,16.5 L7.75,12 L9.25,12 L9.25,16.5 L8.5,16.5 L8.5,17.25 L4.75,17.25 Z M6.25,25.25 L6.25,20.75 L4.75,20.75 L4.75,20 L9.25,20 L9.25,20.75 L7.75,20.75 L7.75,25.25 L6.25,25.25 Z" id="OUT" fill="#E1E1E1" fill-rule="nonzero"></path>
                </g>
                <g id="Level" transform="translate(131.000000, 30.000000)" fill="#F0ECEB" fill-rule="nonzero">
                    <path d="M18,37 L18,30 L20,30 L20,36 L24,36 L24,37 L18,37 Z M25,37 L25,30 L32,30 L32,31 L27,31 L27,33 L31,33 L31,34 L27,34 L27,36 L32,36 L32,37 L25,37 Z M36,37 L36,36 L35,36 L35,35 L34,35 L34,34 L33,34 L33,30 L35,30 L35,33 L36,33 L36,34 L37,34 L37,33 L38,33 L38,30 L40,30 L40,34 L39,34 L39,35 L38,35 L38,36 L37,36 L37,37 L36,37 Z M41,37 L41,30 L48,30 L48,31 L43,31 L43,33 L47,33 L47,34 L43,34 L43,36 L48,36 L48,37 L41,37 Z M50,37 L50,30 L52,30 L52,36 L56,36 L56,37 L50,37 Z" id="LEVEL"></path>
                </g>
                <g id="Noise" transform="translate(94.000000, 34.000000)" fill="#F0ECEB" fill-rule="nonzero">
                    <path d="M4.5,39.25 L4.5,34 L6,34 L6,34.75 L6.75,34.75 L6.75,35.5 L7.5,35.5 L7.5,36.25 L8.25,36.25 L8.25,34 L9.75,34 L9.75,39.25 L8.25,39.25 L8.25,37.75 L7.5,37.75 L7.5,37 L6.75,37 L6.75,36.25 L6,36.25 L6,39.25 L4.5,39.25 Z M11.25,39.25 L11.25,38.5 L10.5,38.5 L10.5,34.75 L11.25,34.75 L11.25,34 L15,34 L15,34.75 L15.75,34.75 L15.75,38.5 L15,38.5 L15,39.25 L11.25,39.25 Z M12,38.5 L14.25,38.5 L14.25,34.75 L12,34.75 L12,38.5 Z M17.25,39.25 L17.25,38.5 L18.75,38.5 L18.75,34.75 L17.25,34.75 L17.25,34 L21.75,34 L21.75,34.75 L20.25,34.75 L20.25,38.5 L21.75,38.5 L21.75,39.25 L17.25,39.25 Z M23.25,39.25 L23.25,38.5 L22.5,38.5 L22.5,37.75 L24,37.75 L24,38.5 L26.25,38.5 L26.25,37 L23.25,37 L23.25,36.25 L22.5,36.25 L22.5,34.75 L23.25,34.75 L23.25,34 L27,34 L27,34.75 L27.75,34.75 L27.75,35.5 L26.25,35.5 L26.25,34.75 L24,34.75 L24,36.25 L27,36.25 L27,37 L27.75,37 L27.75,38.5 L27,38.5 L27,39.25 L23.25,39.25 Z M28.5,39.25 L28.5,34 L33.75,34 L33.75,34.75 L30,34.75 L30,36.25 L33,36.25 L33,37 L30,37 L30,38.5 L33.75,38.5 L33.75,39.25 L28.5,39.25 Z" id="NOISE"></path>
                </g>
                <g id="Freq" transform="translate(33.000000, 45.000000)"></g>
                <g id="VOCT" transform="translate(2.000000, 71.000000)" fill="#F0ECEB" fill-rule="nonzero">
                    <path d="M3.25,5.25 L3.25,4.5 L2.5,4.5 L2.5,3.75 L1.75,3.75 L1.75,3 L1,3 L1,5.68434189e-14 L2.5,5.68434189e-14 L2.5,2.25 L3.25,2.25 L3.25,3 L4,3 L4,2.25 L4.75,2.25 L4.75,5.68434189e-14 L6.25,5.68434189e-14 L6.25,3 L5.5,3 L5.5,3.75 L4.75,3.75 L4.75,4.5 L4,4.5 L4,5.25 L3.25,5.25 Z M12.25,5.68434189e-14 L12.25,0.75 L11.5,0.75 L11.5,5.68434189e-14 L12.25,5.68434189e-14 Z M10.75,0.75 L11.5,0.75 L11.5,1.5 L10.75,1.5 L10.75,0.75 Z M10,1.5 L10.75,1.5 L10.75,2.25 L10,2.25 L10,1.5 Z M9.25,2.25 L10,2.25 L10,3 L9.25,3 L9.25,2.25 Z M8.5,3 L9.25,3 L9.25,3.75 L8.5,3.75 L8.5,3 Z M7.75,3.75 L8.5,3.75 L8.5,4.5 L7.75,4.5 L7.75,3.75 Z M7,4.5 L7.75,4.5 L7.75,5.25 L7,5.25 L7,4.5 Z M13.75,5.25 L13.75,4.5 L13,4.5 L13,0.75 L13.75,0.75 L13.75,5.68434189e-14 L17.5,5.68434189e-14 L17.5,0.75 L18.25,0.75 L18.25,4.5 L17.5,4.5 L17.5,5.25 L13.75,5.25 Z M14.5,4.5 L16.75,4.5 L16.75,0.75 L14.5,0.75 L14.5,4.5 Z M20.5,5.25 L20.5,4.5 L19.75,4.5 L19.75,3.75 L19,3.75 L19,1.5 L19.75,1.5 L19.75,0.75 L20.5,0.75 L20.5,5.68434189e-14 L23.5,5.68434189e-14 L23.5,0.75 L24.25,0.75 L24.25,1.5 L22.75,1.5 L22.75,0.75 L21.25,0.75 L21.25,1.5 L20.5,1.5 L20.5,3.75 L21.25,3.75 L21.25,4.5 L22.75,4.5 L22.75,3.75 L24.25,3.75 L24.25,4.5 L23.5,4.5 L23.5,5.25 L20.5,5.25 Z M27.25,5.25 L27.25,0.75 L25.75,0.75 L25.75,5.68434189e-14 L30.25,5.68434189e-14 L30.25,0.75 L28.75,0.75 L28.75,5.25 L27.25,5.25 Z" id="V/OCT"></path>
                </g>
                <g id="Mod" transform="translate(3.000000, 34.000000)" fill="#F0ECEB" fill-rule="nonzero">
                    <path d="M5,0 L5,1 L6,1 L6,2 L7,2 L7,1 L8,1 L8,0 L10,0 L10,7 L8,7 L8,3 L7,3 L7,5 L6,5 L6,3 L5,3 L5,7 L3,7 L3,0 L5,0 Z M17,0 L17,1 L18,1 L18,6 L17,6 L17,7 L12,7 L12,6 L11,6 L11,1 L12,1 L12,0 L17,0 Z M24,0 L24,1 L25,1 L25,2 L26,2 L26,5 L25,5 L25,6 L24,6 L24,7 L19,7 L19,0 L24,0 Z M16,1 L13,1 L13,6 L16,6 L16,1 Z M23,1 L21,1 L21,6 L23,6 L23,5 L24,5 L24,2 L23,2 L23,1 Z" id="MOD"></path>
                </g>
            </g>
            <g id="AUD2" transform="translate(13.000000, 85.000000)">
                <rect id="bg" fill="#717171" x="0" y="29" width="193" height="81" rx="2"></rect>
                <g id="Header" transform="translate(2.000000, 0.000000)" fill="#1D1D1D" fill-rule="nonzero">
                    <path d="M0,74 L0,44 L6,44 L6,38 L12,38 L12,32 L30,32 L30,38 L36,38 L36,44 L42,44 L42,74 L30,74 L30,62 L12,62 L12,74 L0,74 Z M12,56 L30,56 L30,44 L24,44 L24,38 L18,38 L18,44 L12,44 L12,56 Z M54,74 L54,68 L48,68 L48,32 L60,32 L60,68 L78,68 L78,32 L90,32 L90,68 L84,68 L84,74 L54,74 Z M96,74 L96,32 L126,32 L126,38 L132,38 L132,44 L138,44 L138,62 L132,62 L132,68 L126,68 L126,74 L96,74 Z M108,68 L120,68 L120,62 L126,62 L126,44 L120,44 L120,38 L108,38 L108,68 Z M144,74 L144,62 L150,62 L150,56 L156,56 L156,50 L168,50 L168,44 L174,44 L174,38 L156,38 L156,44 L144,44 L144,38 L150,38 L150,32 L180,32 L180,38 L186,38 L186,50 L180,50 L180,56 L174,56 L174,62 L162,62 L162,68 L186,68 L186,74 L144,74 Z" id="AUD2"></path>
                </g>
                <g id="Out" transform="translate(149.000000, 77.000000)">
                    <rect id="Rectangle" stroke="#F0ECEB" fill="#1D1D1D" x="0" y="0" width="40" height="29"></rect>
                    <path d="M4.75,9.25 L4.75,8.5 L4,8.5 L4,4.75 L4.75,4.75 L4.75,4 L8.5,4 L8.5,4.75 L9.25,4.75 L9.25,8.5 L8.5,8.5 L8.5,9.25 L4.75,9.25 Z M5.5,8.5 L7.75,8.5 L7.75,4.75 L5.5,4.75 L5.5,8.5 Z M4.75,17.25 L4.75,16.5 L4,16.5 L4,12 L5.5,12 L5.5,16.5 L7.75,16.5 L7.75,12 L9.25,12 L9.25,16.5 L8.5,16.5 L8.5,17.25 L4.75,17.25 Z M6.25,25.25 L6.25,20.75 L4.75,20.75 L4.75,20 L9.25,20 L9.25,20.75 L7.75,20.75 L7.75,25.25 L6.25,25.25 Z" id="OUT" fill="#E1E1E1" fill-rule="nonzero"></path>
                </g>
                <g id="Level" transform="translate(131.000000, 30.000000)" fill="#F0ECEB" fill-rule="nonzero">
                    <path d="M18,37 L18,30 L20,30 L20,36 L24,36 L24,37 L18,37 Z M25,37 L25,30 L32,30 L32,31 L27,31 L27,33 L31,33 L31,34 L27,34 L27,36 L32,36 L32,37 L25,37 Z M36,37 L36,36 L35,36 L35,35 L34,35 L34,34 L33,34 L33,30 L35,30 L35,33 L36,33 L36,34 L37,34 L37,33 L38,33 L38,30 L40,30 L40,34 L39,34 L39,35 L38,35 L38,36 L37,36 L37,37 L36,37 Z M41,37 L41,30 L48,30 L48,31 L43,31 L43,33 L47,33 L47,34 L43,34 L43,36 L48,36 L48,37 L41,37 Z M50,37 L50,30 L52,30 L52,36 L56,36 L56,37 L50,37 Z" id="LEVEL"></path>
                </g>
                <g id="Noise" transform="translate(94.000000, 68.000000)" fill="#F0ECEB" fill-rule="nonzero">
                    <path d="M4.5,5.25 L4.5,0 L6,0 L6,0.75 L6.75,0.75 L6.75,1.5 L7.5,1.5 L7.5,2.25 L8.25,2.25 L8.25,0 L9.75,0 L9.75,5.25 L8.25,5.25 L8.25,3.75 L7.5,3.75 L7.5,3 L6.75,3 L6.75,2.25 L6,2.25 L6,5.25 L4.5,5.25 Z M11.25,5.25 L11.25,4.5 L10.5,4.5 L10.5,0.75 L11.25,0.75 L11.25,0 L15,0 L15,0.75 L15.75,0.75 L15.75,4.5 L15,4.5 L15,5.25 L11.25,5.25 Z M12,4.5 L14.25,4.5 L14.25,0.75 L12,0.75 L12,4.5 Z M17.25,5.25 L17.25,4.5 L18.75,4.5 L18.75,0.75 L17.25,0.75 L17.25,0 L21.75,0 L21.75,0.75 L20.25,0.75 L20.25,4.5 L21.75,4.5 L21.75,5.25 L17.25,5.25 Z M23.25,5.25 L23.25,4.5 L22.5,4.5 L22.5,3.75 L24,3.75 L24,4.5 L26.25,4.5 L26.25,3 L23.25,3 L23.25,2.25 L22.5,2.25 L22.5,0.75 L23.25,0.75 L23.25,0 L27,0 L27,0.75 L27.75,0.75 L27.75,1.5 L26.25,1.5 L26.25,0.75 L24,0.75 L24,2.25 L27,2.25 L27,3 L27.75,3 L27.75,4.5 L27,4.5 L27,5.25 L23.25,5.25 Z M28.5,5.25 L28.5,0 L33.75,0 L33.75,0.75 L30,0.75 L30,2.25 L33,2.25 L33,3 L30,3 L30,4.5 L33.75,4.5 L33.75,5.25 L28.5,5.25 Z" id="NOISE"></path>
                </g>
                <g id="Freq" transform="translate(33.000000, 45.000000)"></g>
                <g id="VOCT" transform="translate(2.000000, 71.000000)" fill="#F0ECEB" fill-rule="nonzero">
                    <path d="M3.25,5.25 L3.25,4.5 L2.5,4.5 L2.5,3.75 L1.75,3.75 L1.75,3 L1,3 L1,0 L2.5,0 L2.5,2.25 L3.25,2.25 L3.25,3 L4,3 L4,2.25 L4.75,2.25 L4.75,0 L6.25,0 L6.25,3 L5.5,3 L5.5,3.75 L4.75,3.75 L4.75,4.5 L4,4.5 L4,5.25 L3.25,5.25 Z M12.25,0 L12.25,0.75 L11.5,0.75 L11.5,0 L12.25,0 Z M10.75,0.75 L11.5,0.75 L11.5,1.5 L10.75,1.5 L10.75,0.75 Z M10,1.5 L10.75,1.5 L10.75,2.25 L10,2.25 L10,1.5 Z M9.25,2.25 L10,2.25 L10,3 L9.25,3 L9.25,2.25 Z M8.5,3 L9.25,3 L9.25,3.75 L8.5,3.75 L8.5,3 Z M7.75,3.75 L8.5,3.75 L8.5,4.5 L7.75,4.5 L7.75,3.75 Z M7,4.5 L7.75,4.5 L7.75,5.25 L7,5.25 L7,4.5 Z M13.75,5.25 L13.75,4.5 L13,4.5 L13,0.75 L13.75,0.75 L13.75,0 L17.5,0 L17.5,0.75 L18.25,0.75 L18.25,4.5 L17.5,4.5 L17.5,5.25 L13.75,5.25 Z M14.5,4.5 L16.75,4.5 L16.75,0.75 L14.5,0.75 L14.5,4.5 Z M20.5,5.25 L20.5,4.5 L19.75,4.5 L19.75,3.75 L19,3.75 L19,1.5 L19.75,1.5 L19.75,0.75 L20.5,0.75 L20.5,0 L23.5,0 L23.5,0.75 L24.25,0.75 L24.25,1.5 L22.75,1.5 L22.75,0.75 L21.25,0.75 L21.25,1.5 L20.5,1.5 L20.5,3.75 L21.25,3.75 L21.25,4.5 L22.75,4.5 L22.75,3.75 L24.25,3.75 L24.25,4.5 L23.5,4.5 L23.5,5.25 L20.5,5.25 Z M27.25,5.25 L27.25,0.75 L25.75,0.75 L25.75,0 L30.25,0 L30.25,0.75 L28.75,0.75 L28.75,5.25 L27.25,5.25 Z" id="V/OCT"></path>
                </g>
                <g id="Mod" transform="translate(3.000000, 34.000000)" fill="#F0ECEB" fill-rule="nonzero">
                    <path d="M5,0 L5,1 L6,1 L6,2 L7,2 L7,1 L8,1 L8,0 L10,0 L10,7 L8,7 L8,3 L7,3 L7,5 L6,5 L6,3 L5,3 L5,7 L3,7 L3,0 L5,0 Z M17,0 L17,1 L18,1 L18,6 L17,6 L17,7 L12,7 L12,6 L11,6 L11,1 L12,1 L12,0 L17,0 Z M24,0 L24,1 L25,1 L25,2 L26,2 L26,5 L25,5 L25,6 L24,6 L24,7 L19,7 L19,0 L24,0 Z M16,1 L13,1 L13,6 L16,6 L16,1 Z M23,1 L21,1 L21,6 L23,6 L23,5 L24,5 L24,2 L23,2 L23,1 Z" id="MOD"></path>
                </g>
            </g>
            <g id="AUD1" transform="translate(13.000000, 0.000000)">
                <rect id="bg" fill="#717171" x="0" y="29" width="193" height="81" rx="2"></rect>
                <g id="Header" transform="translate(2.000000, 0.000000)" fill="#1D1D1D" fill-rule="nonzero">
                    <path d="M0,74 L0,44 L6,44 L6,38 L12,38 L12,32 L30,32 L30,38 L36,38 L36,44 L42,44 L42,74 L30,74 L30,62 L12,62 L12,74 L0,74 Z M12,56 L30,56 L30,44 L24,44 L24,38 L18,38 L18,44 L12,44 L12,56 Z M54,74 L54,68 L48,68 L48,32 L60,32 L60,68 L78,68 L78,32 L90,32 L90,68 L84,68 L84,74 L54,74 Z M96,74 L96,32 L126,32 L126,38 L132,38 L132,44 L138,44 L138,62 L132,62 L132,68 L126,68 L126,74 L96,74 Z M108,68 L120,68 L120,62 L126,62 L126,44 L120,44 L120,38 L108,38 L108,68 Z M150,74 L150,68 L162,68 L162,44 L156,44 L156,38 L162,38 L162,32 L174,32 L174,68 L186,68 L186,74 L150,74 Z" id="AUD1"></path>
                </g>
                <g id="Out" transform="translate(149.000000, 77.000000)">
                    <rect id="Rectangle" stroke="#F0ECEB" fill="#1D1D1D" x="0" y="0" width="40" height="29"></rect>
                    <path d="M4.75,9.25 L4.75,8.5 L4,8.5 L4,4.75 L4.75,4.75 L4.75,4 L8.5,4 L8.5,4.75 L9.25,4.75 L9.25,8.5 L8.5,8.5 L8.5,9.25 L4.75,9.25 Z M5.5,8.5 L7.75,8.5 L7.75,4.75 L5.5,4.75 L5.5,8.5 Z M4.75,17.25 L4.75,16.5 L4,16.5 L4,12 L5.5,12 L5.5,16.5 L7.75,16.5 L7.75,12 L9.25,12 L9.25,16.5 L8.5,16.5 L8.5,17.25 L4.75,17.25 Z M6.25,25.25 L6.25,20.75 L4.75,20.75 L4.75,20 L9.25,20 L9.25,20.75 L7.75,20.75 L7.75,25.25 L6.25,25.25 Z" id="OUT" fill="#E1E1E1" fill-rule="nonzero"></path>
                </g>
                <g id="Level" transform="translate(131.000000, 30.000000)" fill="#F0ECEB" fill-rule="nonzero">
                    <path d="M18,37 L18,30 L20,30 L20,36 L24,36 L24,37 L18,37 Z M25,37 L25,30 L32,30 L32,31 L27,31 L27,33 L31,33 L31,34 L27,34 L27,36 L32,36 L32,37 L25,37 Z M36,37 L36,36 L35,36 L35,35 L34,35 L34,34 L33,34 L33,30 L35,30 L35,33 L36,33 L36,34 L37,34 L37,33 L38,33 L38,30 L40,30 L40,34 L39,34 L39,35 L38,35 L38,36 L37,36 L37,37 L36,37 Z M41,37 L41,30 L48,30 L48,31 L43,31 L43,33 L47,33 L47,34 L43,34 L43,36 L48,36 L48,37 L41,37 Z M50,37 L50,30 L52,30 L52,36 L56,36 L56,37 L50,37 Z" id="LEVEL"></path>
                </g>
                <g id="Noise" transform="translate(94.000000, 34.000000)" fill="#F0ECEB" fill-rule="nonzero">
                    <path d="M4.5,39.25 L4.5,34 L6,34 L6,34.75 L6.75,34.75 L6.75,35.5 L7.5,35.5 L7.5,36.25 L8.25,36.25 L8.25,34 L9.75,34 L9.75,39.25 L8.25,39.25 L8.25,37.75 L7.5,37.75 L7.5,37 L6.75,37 L6.75,36.25 L6,36.25 L6,39.25 L4.5,39.25 Z M11.25,39.25 L11.25,38.5 L10.5,38.5 L10.5,34.75 L11.25,34.75 L11.25,34 L15,34 L15,34.75 L15.75,34.75 L15.75,38.5 L15,38.5 L15,39.25 L11.25,39.25 Z M12,38.5 L14.25,38.5 L14.25,34.75 L12,34.75 L12,38.5 Z M17.25,39.25 L17.25,38.5 L18.75,38.5 L18.75,34.75 L17.25,34.75 L17.25,34 L21.75,34 L21.75,34.75 L20.25,34.75 L20.25,38.5 L21.75,38.5 L21.75,39.25 L17.25,39.25 Z M23.25,39.25 L23.25,38.5 L22.5,38.5 L22.5,37.75 L24,37.75 L24,38.5 L26.25,38.5 L26.25,37 L23.25,37 L23.25,36.25 L22.5,36.25 L22.5,34.75 L23.25,34.75 L23.25,34 L27,34 L27,34.75 L27.75,34.75 L27.75,35.5 L26.25,35.5 L26.25,34.75 L24,34.75 L24,36.25 L27,36.25 L27,37 L27.75,37 L27.75,38.5 L27,38.5 L27,39.25 L23.25,39.25 Z M28.5,39.25 L28.5,34 L33.75,34 L33.75,34.75 L30,34.75 L30,36.25 L33,36.25 L33,37 L30,37 L30,38.5 L33.75,38.5 L33.75,39.25 L28.5,39.25 Z" id="NOISE"></path>
                </g>
                <g id="Freq" transform="translate(33.000000, 45.000000)"></g>
                <g id="VOCT" transform="translate(2.000000, 71.000000)" fill="#F0ECEB" fill-rule="nonzero">
                    <path d="M3.25,5.25 L3.25,4.5 L2.5,4.5 L2.5,3.75 L1.75,3.75 L1.75,3 L1,3 L1,6.39488462e-14 L2.5,6.39488462e-14 L2.5,2.25 L3.25,2.25 L3.25,3 L4,3 L4,2.25 L4.75,2.25 L4.75,6.39488462e-14 L6.25,6.39488462e-14 L6.25,3 L5.5,3 L5.5,3.75 L4.75,3.75 L4.75,4.5 L4,4.5 L4,5.25 L3.25,5.25 Z M12.25,6.39488462e-14 L12.25,0.75 L11.5,0.75 L11.5,6.39488462e-14 L12.25,6.39488462e-14 Z M10.75,0.75 L11.5,0.75 L11.5,1.5 L10.75,1.5 L10.75,0.75 Z M10,1.5 L10.75,1.5 L10.75,2.25 L10,2.25 L10,1.5 Z M9.25,2.25 L10,2.25 L10,3 L9.25,3 L9.25,2.25 Z M8.5,3 L9.25,3 L9.25,3.75 L8.5,3.75 L8.5,3 Z M7.75,3.75 L8.5,3.75 L8.5,4.5 L7.75,4.5 L7.75,3.75 Z M7,4.5 L7.75,4.5 L7.75,5.25 L7,5.25 L7,4.5 Z M13.75,5.25 L13.75,4.5 L13,4.5 L13,0.75 L13.75,0.75 L13.75,6.39488462e-14 L17.5,6.39488462e-14 L17.5,0.75 L18.25,0.75 L18.25,4.5 L17.5,4.5 L17.5,5.25 L13.75,5.25 Z M14.5,4.5 L16.75,4.5 L16.75,0.75 L14.5,0.75 L14.5,4.5 Z M20.5,5.25 L20.5,4.5 L19.75,4.5 L19.75,3.75 L19,3.75 L19,1.5 L19.75,1.5 L19.75,0.75 L20.5,0.75 L20.5,6.39488462e-14 L23.5,6.39488462e-14 L23.5,0.75 L24.25,0.75 L24.25,1.5 L22.75,1.5 L22.75,0.75 L21.25,0.75 L21.25,1.5 L20.5,1.5 L20.5,3.75 L21.25,3.75 L21.25,4.5 L22.75,4.5 L22.75,3.75 L24.25,3.75 L24.25,4.5 L23.5,4.5 L23.5,5.25 L20.5,5.25 Z M27.25,5.25 L27.25,0.75 L25.75,0.75 L25.75,6.39488462e-14 L30.25,6.39488462e-14 L30.25,0.75 L28.75,0.75 L28.75,5.25 L27.25,5.25 Z" id="V/OCT"></path>
                </g>
                <g id="Mod" transform="translate(3.000000, 34.000000)" fill="#F0ECEB" fill-rule="nonzero">
                    <path d="M5,0 L5,1 L6,1 L6,2 L7,2 L7,1 L8,1 L8,0 L10,0 L10,7 L8,7 L8,3 L7,3 L7,5 L6,5 L6,3 L5,3 L5,7 L3,7 L3,0 L5,0 Z M17,0 L17,1 L18,1 L18,6 L17,6 L17,7 L12,7 L12,6 L11,6 L11,1 L12,1 L12,0 L17,0 Z M24,0 L24,1 L25,1 L25,2 L26,2 L26,5 L25,5 L25,6 L24,6 L24,7 L19,7 L19,0 L24,0 Z M16,1 L13,1 L13,6 L16,6 L16,1 Z M23,1 L21,1 L21,6 L23,6 L23,5 L24,5 L24,2 L23,2 L23,1 Z" id="MOD"></path>
                </g>
            </g>
            <path d="M113.553,14.288 L113.553,14.252 C113.553,11.822 111.645,10.4 108.873,10.4 L104.301,10.4 L104.301,23 L105.237,23 L105.237,18.302 L108.639,18.302 C111.267,18.302 113.553,16.934 113.553,14.288 Z M112.617,14.342 C112.617,16.214 111.033,17.438 108.693,17.438 L105.237,17.438 L105.237,11.264 L108.801,11.264 C110.9934,11.264 112.513,12.23956 112.611871,14.1093833 L112.617,14.342 Z M128.439,16.7 C128.457,16.682 128.457,16.682 128.439,16.664 C128.439,13.226 125.937,10.184 122.121,10.184 C118.387957,10.184 115.877952,13.1296285 115.770585,16.4763209 L115.767,16.736 C115.767,20.174 118.269,23.216 122.085,23.216 C125.901,23.216 128.439,20.138 128.439,16.7 Z M127.467,16.736 C127.467,19.85 125.235,22.37 122.121,22.37 C119.081143,22.37 116.84748,19.9342653 116.742838,16.9214526 L116.739,16.664 C116.739,13.55 118.971,11.03 122.085,11.03 C125.124857,11.03 127.35852,13.4657347 127.463162,16.4785474 L127.467,16.736 Z M142.101,23 L136.359,15.962 L141.867,10.4 L140.589,10.4 L132.561,18.68 L132.561,10.4 L131.625,10.4 L131.625,23 L132.561,23 L132.561,19.796 L135.693,16.628 L140.877,23 L142.101,23 Z M153.549,23 L153.549,22.136 L145.431,22.136 L145.431,17.078 L152.649,17.078 L152.649,16.214 L145.431,16.214 L145.431,11.264 L153.459,11.264 L153.459,10.4 L144.495,10.4 L144.495,23 L153.549,23 Z M166.995,10.4 L161.595,17.996 L161.595,23 L160.659,23 L160.659,18.014 L155.259,10.4 L156.429,10.4 L161.145,17.168 L165.879,10.4 L166.995,10.4 Z" id="POKEY" fill="#B3B3B3" fill-rule="nonzero"></path>
        </g>
    </g>
</svg>