<?xml version="1.0" encoding="UTF-8"?>
<svg width="120px" height="380px" viewBox="0 0 120 380" version="1.1" xmlns="http://www.w3.org/2000/svg" xmlns:xlink="http://www.w3.org/1999/xlink">
    <!-- Generator: Sketch 58 (84663) - https://sketch.com -->
    <title>Pulses</title>
    <desc>Created with Sketch.</desc>
    <g id="Pulses" stroke="none" stroke-width="1" fill="none" fill-rule="evenodd">
        <g id="bg">
            <rect id="cover" fill="#E6E6E6" x="0" y="0" width="120" height="380" rx="2"></rect>
            <g id="Logo/Panel/LightMode" transform="translate(15.000000, 364.000000)" fill="#000000" fill-rule="nonzero">
                <g id="Logo/Print/LightMode" transform="translate(0.000000, -0.000000)">
                    <path d="M1.95775432,2.21673387 L3.38562168,2.21673387 L3.38562168,4.9702621 L6.06699634,2.21673387 L7.94254488,2.21673387 L5.09623504,4.9702621 L8.08863032,8.90322581 L6.22250665,8.90322581 L4.0783494,5.98185484 L3.38562168,6.66683468 L3.38562168,8.90322581 L1.95775432,8.90322581 L1.95775432,2.21673387 Z M11.6276679,6.49899194 C11.5428437,6.55040348 11.4572353,6.59198573 11.3708403,6.62373992 C11.2844452,6.65549411 11.1658502,6.6849797 11.0150515,6.71219758 L10.7134558,6.76663306 C10.4307084,6.8150204 10.2280757,6.87399159 10.1055519,6.94354839 C9.89820375,7.06149253 9.79453125,7.24445441 9.79453125,7.49243952 C9.79453125,7.71320675 9.85814847,7.87273136 9.98538481,7.97101815 C10.1126211,8.06930493 10.2673445,8.11844758 10.4495595,8.11844758 C10.7385902,8.11844758 11.00484,8.03679517 11.248317,7.8734879 C11.4917939,7.71018064 11.618243,7.41230055 11.6276679,6.97983871 L11.6276679,6.49899194 Z M10.8124169,5.89566532 C11.0606051,5.86542324 11.2381062,5.82762119 11.3449219,5.78225806 C11.5365618,5.70362864 11.6323803,5.58115003 11.6323803,5.41481855 C11.6323803,5.21219657 11.5593383,5.07232901 11.4132522,4.99521169 C11.267166,4.91809437 11.0527524,4.87953629 10.770005,4.87953629 C10.4526995,4.87953629 10.2280758,4.95514037 10.096127,5.10635081 C10.0018779,5.21824653 9.93904603,5.36945469 9.90762965,5.55997984 L8.61171044,5.55997984 C8.63998518,5.127518 8.76564882,4.77217881 8.98870512,4.49395161 C9.34371022,4.05846556 9.95317886,3.84072581 10.8171293,3.84072581 C11.3794825,3.84072581 11.8789955,3.9480836 12.3156832,4.16280242 C12.7523709,4.37752123 12.9707114,4.78275912 12.9707114,5.37852823 L12.9707114,7.64667339 C12.9707114,7.80393224 12.973853,7.99445453 12.9801363,8.21824597 C12.9895612,8.38760165 13.0162647,8.50251986 13.0602477,8.56300403 C13.1042306,8.62348821 13.170204,8.6733869 13.2581699,8.71270161 L13.2581699,8.90322581 L11.7973155,8.90322581 C11.7564742,8.80342692 11.7281999,8.70967786 11.7124917,8.62197581 C11.6967835,8.53427376 11.6842171,8.43447637 11.6747922,8.32258065 C11.4894356,8.51613 11.2758074,8.6809469 11.0339013,8.81703629 C10.7448706,8.97731935 10.4181451,9.05745968 10.0537151,9.05745968 C9.58875266,9.05745968 9.20469317,8.92968878 8.9015251,8.67414315 C8.59835703,8.41859751 8.44677527,8.05645396 8.44677527,7.58770161 C8.44677527,6.97983567 8.69024856,6.53981991 9.17720246,6.26764113 C9.44424169,6.1194549 9.83694056,6.01360919 10.3553108,5.95010081 L10.8124169,5.89566532 Z M15.5012882,3.95866935 L15.5012882,6.9390121 C15.5012882,7.2202635 15.5358457,7.43195493 15.6049618,7.57409274 C15.7274857,7.82510206 15.9678174,7.95060484 16.3259641,7.95060484 C16.7846433,7.95060484 17.0988023,7.7721792 17.2684508,7.41532258 C17.3564167,7.22177323 17.4003989,6.96623143 17.4003989,6.64868952 L17.4003989,3.95866935 L18.7622922,3.95866935 L18.7622922,8.90322581 L17.4569481,8.90322581 L17.4569481,8.2046371 L17.4405489,8.22641125 C17.4238355,8.24969746 17.3978858,8.28780215 17.3626995,8.34072581 C17.3124333,8.41633102 17.252743,8.48286262 17.183627,8.54032258 C16.9731372,8.7217751 16.7697192,8.8457658 16.5733669,8.91229839 C16.3770145,8.97883098 16.1468929,9.01209677 15.8829953,9.01209677 C15.1227189,9.01209677 14.6106396,8.74899457 14.346742,8.22278226 C14.199085,7.93245823 14.1252576,7.50453912 14.1252576,6.9390121 L14.1252576,3.95866935 L15.5012882,3.95866935 Z M19.5304189,4.92489919 L19.5304189,4.00403226 L20.2467088,4.00403226 L20.2467088,2.625 L21.575615,2.625 L21.575615,4.00403226 L22.4097158,4.00403226 L22.4097158,4.92489919 L21.575615,4.92489919 L21.575615,7.53780242 C21.575615,7.7404244 21.6023185,7.86668322 21.6557264,7.91658266 C21.7091342,7.9664821 21.872497,7.99143145 22.1458195,7.99143145 C22.1866608,7.99143145 22.2298577,7.99067541 22.2754114,7.98916331 C22.3209652,7.9876512 22.3657328,7.98538308 22.4097158,7.98235887 L22.4097158,8.94858871 L21.7735372,8.97127016 C21.1389263,8.99243962 20.7053868,8.88659391 20.4729056,8.65372984 C20.322107,8.50554361 20.2467088,8.27721928 20.2467088,7.96875 L20.2467088,4.92489919 L19.5304189,4.92489919 Z M25.2984375,4.89314516 C24.9874153,4.89314516 24.7462982,4.98689422 24.575079,5.17439516 C24.4038597,5.3618961 24.2962602,5.61592582 24.2522773,5.93649194 L26.3398853,5.93649194 C26.3178938,5.59475636 26.2102944,5.33543435 26.0170836,5.15851815 C25.8238729,4.98160194 25.5843266,4.89314516 25.2984375,4.89314516 Z M25.2984375,3.82711694 C25.7257003,3.82711694 26.1105452,3.9042331 26.4529837,4.05846774 C26.7954223,4.21270238 27.0781654,4.45614753 27.3012217,4.78881048 C27.5022866,5.08215872 27.6326626,5.4223771 27.6923537,5.80947581 C27.7269117,6.03629146 27.7410489,6.36290109 27.7347656,6.78931452 L24.2192902,6.78931452 C24.2381401,7.28528474 24.399932,7.63306352 24.7046709,7.83266129 C24.8900275,7.95665385 25.1130805,8.01864919 25.3738364,8.01864919 C25.6503006,8.01864919 25.8749243,7.94304511 26.0477144,7.79183468 C26.1419636,7.71018104 26.2252157,7.59677492 26.2974734,7.4516129 L27.6687916,7.4516129 C27.6342335,7.74496114 27.4755832,8.04284123 27.1928358,8.3452621 C26.7530064,8.82611128 26.1372546,9.06653226 25.3455618,9.06653226 C24.6921011,9.06653226 24.1156192,8.86391332 23.6160987,8.45866935 C23.1165783,8.05342539 22.8668218,7.39415779 22.8668218,6.48084677 C22.8668218,5.62499572 23.092231,4.96875228 23.543056,4.51209677 C23.9938811,4.05544127 24.5790024,3.82711694 25.2984375,3.82711694 Z M31.4858627,3.84072581 C32.0167995,3.84072581 32.4511245,3.97454503 32.7888506,4.2421875 C33.1265767,4.50982997 33.2954372,4.95362593 33.2954372,5.57358871 L33.2954372,8.90322581 L31.9194066,8.90322581 L31.9194066,5.89566532 C31.9194066,5.63558338 31.8832783,5.4359886 31.8110206,5.296875 C31.6790718,5.04284147 31.4277445,4.91582661 31.0570313,4.91582661 C30.6014937,4.91582661 30.2889054,5.10181266 30.119257,5.47379032 C30.0312911,5.67036389 29.9873088,5.92136944 29.9873088,6.22681452 L29.9873088,8.90322581 L28.6489777,8.90322581 L28.6489777,3.96774194 L29.9448969,3.96774194 L29.9448969,4.6890121 C30.117687,4.43497857 30.2810498,4.25201669 30.43499,4.14012097 C30.7114542,3.9405232 31.0617416,3.84072581 31.4858627,3.84072581 Z M35.9391124,3.36895161 L34.5960688,3.36895161 L34.5960688,2.17590726 L35.9391124,2.17590726 L35.9391124,3.36895161 Z M33.9504654,10.8855847 L33.9504654,9.85131048 L34.0978762,9.86197785 L34.0978762,9.86197785 L34.1106882,9.86265121 C34.1421045,9.86416331 34.1703789,9.86491935 34.195512,9.86491935 C34.3274608,9.86491935 34.4272063,9.83392168 34.4947515,9.7719254 C34.5622967,9.70992913 34.5960688,9.58971863 34.5960688,9.41129032 L34.5960688,3.98135081 L35.9391124,3.98135081 L35.9391124,9.43397177 C35.9391124,9.9329662 35.8370107,10.3019141 35.6328042,10.5408266 C35.435185,10.7720322 35.0536827,10.8913625 34.4882863,10.8988206 L34.4311336,10.8991935 C34.4077958,10.8991935 34.3780467,10.8986998 34.341886,10.8977123 L34.0479841,10.8881768 C34.0170809,10.8873128 33.9845746,10.8864487 33.9504654,10.8855847 Z M40.0483544,6.49899194 C39.9635302,6.55040348 39.8779218,6.59198573 39.7915268,6.62373992 C39.7051317,6.65549411 39.5865367,6.6849797 39.435738,6.71219758 L39.1341423,6.76663306 C38.8513949,6.8150204 38.6487622,6.87399159 38.5262384,6.94354839 C38.3188903,7.06149253 38.2152178,7.24445441 38.2152178,7.49243952 C38.2152178,7.71320675 38.278835,7.87273136 38.4060713,7.97101815 C38.5333077,8.06930493 38.688031,8.11844758 38.870246,8.11844758 C39.1592767,8.11844758 39.4255265,8.03679517 39.6690035,7.8734879 C39.9124804,7.71018064 40.0389295,7.41230055 40.0483544,6.97983871 L40.0483544,6.49899194 Z M39.2331034,5.89566532 C39.4812916,5.86542324 39.6587927,5.82762119 39.7656084,5.78225806 C39.9572483,5.70362864 40.0530668,5.58115003 40.0530668,5.41481855 C40.0530668,5.21219657 39.9800248,5.07232901 39.8339387,4.99521169 C39.6878525,4.91809437 39.4734389,4.87953629 39.1906915,4.87953629 C38.873386,4.87953629 38.6487623,4.95514037 38.5168135,5.10635081 C38.4225644,5.21824653 38.3597325,5.36945469 38.3283162,5.55997984 L37.0323969,5.55997984 C37.0606717,5.127518 37.1863353,4.77217881 37.4093916,4.49395161 C37.7643967,4.05846556 38.3738654,3.84072581 39.2378158,3.84072581 C39.800169,3.84072581 40.299682,3.9480836 40.7363697,4.16280242 C41.1730574,4.37752123 41.3913979,4.78275912 41.3913979,5.37852823 L41.3913979,7.64667339 C41.3913979,7.80393224 41.3945395,7.99445453 41.4008228,8.21824597 C41.4102477,8.38760165 41.4369512,8.50251986 41.4809342,8.56300403 C41.5249171,8.62348821 41.5908905,8.6733869 41.6788564,8.71270161 L41.6788564,8.90322581 L40.218002,8.90322581 C40.1771607,8.80342692 40.1488864,8.70967786 40.1331782,8.62197581 C40.11747,8.53427376 40.1049036,8.43447637 40.0954787,8.32258065 C39.9101221,8.51613 39.6964939,8.6809469 39.4545878,8.81703629 C39.1655571,8.97731935 38.8388316,9.05745968 38.4744016,9.05745968 C38.0094392,9.05745968 37.6253797,8.92968878 37.3222116,8.67414315 C37.0190435,8.41859751 36.8674618,8.05645396 36.8674618,7.58770161 C36.8674618,6.97983567 37.1109351,6.53981991 37.597889,6.26764113 C37.8649282,6.1194549 38.2576271,6.01360919 38.7759973,5.95010081 L39.2331034,5.89566532 Z M44.1010472,3.37802419 L44.1010472,7.74193548 L45.4393783,7.74193548 C46.1242554,7.74193548 46.6017772,7.41683793 46.8719581,6.76663306 C47.0196151,6.40977644 47.0934425,5.9848815 47.0934425,5.49193548 C47.0934425,4.81148853 46.9827014,4.28906432 46.7612159,3.92464718 C46.5397304,3.56023003 46.0991223,3.37802419 45.4393783,3.37802419 L44.1010472,3.37802419 Z M45.6844249,2.21673387 C46.1148293,2.22278229 46.4729706,2.2711689 46.7588597,2.36189516 C47.2458136,2.5161298 47.6400833,2.79888907 47.9416805,3.21018145 C48.1835866,3.54284441 48.3485202,3.90271984 48.436486,4.28981855 C48.5244519,4.67691726 48.5684342,5.04586518 48.5684342,5.39667339 C48.5684342,6.28579074 48.3830803,7.0388074 48.012367,7.65574597 C47.5097049,8.48740335 46.733732,8.90322581 45.6844249,8.90322581 L42.6920296,8.90322581 L42.6920296,2.21673387 L45.6844249,2.21673387 Z M50.7125914,6.83921371 C50.7565744,7.14465879 50.8429681,7.37298311 50.9717753,7.52419355 C51.2073981,7.79939654 51.6110926,7.93699597 52.1828707,7.93699597 C52.5253092,7.93699597 52.80334,7.90070601 53.0169714,7.828125 C53.4222427,7.6890114 53.6248753,7.43044544 53.6248753,7.05241935 C53.6248753,6.83165212 53.5243444,6.6607869 53.3232796,6.53981855 C53.132268,6.42777162 52.8377712,6.32800817 52.4397811,6.24052551 L51.6409408,6.06804435 C50.9183641,5.9107855 50.4188511,5.73992028 50.142387,5.55544355 C49.6742829,5.24697426 49.4402344,4.76462022 49.4402344,4.10836694 C49.4402344,3.50957362 49.6664289,3.01209876 50.1188248,2.61592742 C50.5712207,2.21975608 51.2356672,2.02167339 52.1121842,2.02167339 C52.8441858,2.02167339 53.468577,2.20841547 53.9853765,2.58190524 C54.502176,2.95539501 54.7731382,3.49747629 54.7982713,4.20816532 L53.403391,4.20816532 C53.3782579,3.80594557 53.1960456,3.52016214 52.8567487,3.35080645 C52.6305507,3.23891073 52.3493783,3.18296371 52.0132231,3.18296371 C51.6393681,3.18296371 51.340917,3.25554363 51.1178607,3.40070565 C50.8948044,3.54586766 50.7832779,3.7484866 50.7832779,4.00856855 C50.7832779,4.23662137 50.8834648,4.40956118 51.0838415,4.52739263 L51.1131483,4.54385081 C51.248867,4.61933505 51.5322436,4.70736003 51.9632861,4.80792817 L53.2148936,5.09727823 C53.7395472,5.21824657 54.1353876,5.38003931 54.4024269,5.58266129 C54.8171231,5.89717899 55.0244681,6.35231557 55.0244681,6.94808468 C55.0244681,7.55897483 54.7817802,8.06627822 54.2963971,8.47001008 C53.811014,8.87374194 53.1253618,9.07560484 52.2394199,9.07560484 C51.3346281,9.07560484 50.6230578,8.8767661 50.1046875,8.47908266 C49.5863172,8.08139922 49.327136,7.5347817 49.327136,6.83921371 L50.7125914,6.83921371 Z M60.0102227,4.34425403 C60.0102227,3.99647004 59.9151896,3.74848864 59.7251205,3.60030242 C59.5350514,3.45211619 59.2688016,3.37802419 58.926363,3.37802419 L57.5738946,3.37802419 L57.5738946,5.34677419 L58.926363,5.34677419 C59.2688016,5.34677419 59.5350514,5.26663387 59.7251205,5.10635081 C59.9151896,4.94606775 60.0102227,4.69203803 60.0102227,4.34425403 Z M61.447515,4.33518145 C61.447515,5.12449991 61.24017,5.68245804 60.8254737,6.00907258 C60.4107775,6.33568712 59.8185876,6.49899194 59.0488863,6.49899194 L57.5738946,6.49899194 L57.5738946,8.90322581 L56.13189,8.90322581 L56.13189,2.21673387 L59.1572723,2.21673387 C59.8547159,2.21673387 60.4107775,2.38911118 60.8254737,2.73387097 C61.24017,3.07863076 61.447515,3.61239558 61.447515,4.33518145 Z" id="KautenjaDSP"></path>
                </g>
            </g>
            <path d="M43.3095703,3.60839844 L47.8642578,3.60839844 C49.0960348,3.60839844 50.0431282,3.70507716 50.7055664,3.8984375 C51.3680046,4.09179784 51.865721,4.37109192 52.1987305,4.73632812 C52.5317399,5.10156433 52.7573236,5.54377996 52.8754883,6.06298828 C52.9829107,6.53499585 53.041504,7.24225741 53.0512695,8.18479109 L53.0527344,9.98925781 C53.0527344,11.0992894 52.9381522,11.9085261 52.7089844,12.4169922 C52.4798166,12.9254583 52.0590851,13.3157538 51.4467773,13.5878906 C50.8344696,13.8600274 50.0341846,13.9960938 49.0458984,13.9960938 L47.8320312,13.9960938 L47.8320312,21 L43.3095703,21 L43.3095703,3.60839844 Z M47.8320312,6.58398438 L47.8320312,11.0097656 L48.0659722,11.0193142 C48.1009837,11.02011 48.1340059,11.0205078 48.1650391,11.0205078 C48.5804057,11.0205078 48.8686515,10.9184581 49.0297852,10.7143555 C49.1909188,10.5102529 49.2714844,10.0859407 49.2714844,9.44140625 L49.2714844,8.01269531 C49.2714844,7.4182913 49.1783863,7.03157642 48.9921875,6.85253906 C48.8059887,6.67350171 48.4192738,6.58398438 47.8320312,6.58398438 Z M60.1103516,3.60839844 L64.6328125,3.60839844 L64.6328125,15.2314453 C64.6328125,16.5491602 64.5898442,17.4747695 64.5039062,18.0083008 C64.4179683,18.5418321 64.1637391,19.0896782 63.7412109,19.6518555 C63.3186828,20.2140328 62.761885,20.6401353 62.0708008,20.9301758 C61.3797166,21.2202163 60.5651089,21.3652344 59.6269531,21.3652344 C58.5885365,21.3652344 57.671879,21.1933611 56.8769531,20.8496094 C56.0820273,20.5058577 55.4876322,20.058271 55.09375,19.5068359 C54.6998678,18.9554009 54.4671228,18.3735382 54.3955078,17.7612305 L54.3717188,17.5170961 C54.3196803,16.8820558 54.2919268,15.7892598 54.2884576,14.2386866 L54.2880859,3.60839844 L58.8105469,3.60839844 L58.8105469,16.6494141 C58.8105469,17.4085324 58.8517248,17.8937164 58.934082,18.1049805 C59.0164392,18.3162445 59.1829415,18.421875 59.4335938,18.421875 C59.7200535,18.421875 59.9044592,18.3055025 59.9868164,18.0727539 C60.0691736,17.8400053 60.1103516,17.2903689 60.1103516,16.4238281 L60.1103516,3.60839844 Z M70.90625,3.60839844 L70.90625,17.5195312 L73.65625,17.5195312 L73.65625,21 L66.3837891,21 L66.3837891,3.60839844 L70.90625,3.60839844 Z M84.1835938,8.87207031 L79.9833984,8.87207031 L79.9833984,7.58300781 C79.9833984,6.9814423 79.929688,6.59830812 79.8222656,6.43359375 C79.7148432,6.26887938 79.5358085,6.18652344 79.2851562,6.18652344 C79.0130195,6.18652344 78.8071296,6.29752493 78.6674805,6.51953125 C78.5278313,6.74153757 78.4580078,7.07812274 78.4580078,7.52929688 C78.4580078,8.1093779 78.5367831,8.54622249 78.6943359,8.83984375 C78.8296882,9.10410288 79.1883664,9.4176646 79.77038,9.78053664 L79.9726562,9.90332031 C81.9850361,11.0992898 83.2526016,12.0803998 83.7753906,12.8466797 C84.2981797,13.6129596 84.5595703,14.8482988 84.5595703,16.5527344 C84.5595703,17.7916729 84.4145522,18.7047497 84.1245117,19.2919922 C83.8344712,19.8792347 83.2740927,20.37158 82.4433594,20.769043 C81.6126261,21.1665059 80.6458388,21.3652344 79.5429688,21.3652344 C78.3326762,21.3652344 77.2996462,21.13607 76.4438477,20.6777344 C75.5880491,20.2193987 75.0276706,19.6357457 74.7626953,18.9267578 C74.49772,18.2177699 74.3652344,17.2115951 74.3652344,15.9082031 L74.3652344,14.7695312 L78.5654297,14.7695312 L78.5654297,16.8857422 C78.5654297,17.5374382 78.6245111,17.9563793 78.7426758,18.1425781 C78.8608404,18.328777 79.070311,18.421875 79.3710938,18.421875 C79.6718765,18.421875 79.8956698,18.3037121 80.0424805,18.0673828 C80.1892911,17.8310535 80.2626953,17.4801456 80.2626953,17.0146484 C80.2626953,15.9905548 80.1230483,15.3209651 79.84375,15.0058594 L79.6953323,14.85788 C79.4052205,14.5896907 78.901364,14.2137165 78.1837549,13.7299517 L77.2689118,13.1200563 C76.3981349,12.5316463 75.8062237,12.0931934 75.4931641,11.8046875 C75.1279279,11.4680973 74.8253593,11.0026071 74.5854492,10.4082031 C74.3455392,9.81379911 74.2255859,9.05469212 74.2255859,8.13085938 C74.2255859,6.79882146 74.3956689,5.82487287 74.7358398,5.20898438 C75.0760108,4.59309588 75.6256472,4.11149262 76.3847656,3.76416016 C77.143884,3.41682769 78.0605415,3.24316406 79.1347656,3.24316406 C80.3092507,3.24316406 81.3100545,3.43294081 82.137207,3.8125 C82.9643596,4.19205919 83.5122057,4.67008175 83.7807617,5.24658203 C84.0286596,5.77873613 84.1621413,6.65412093 84.1812102,7.87275953 L84.1835938,8.87207031 Z M85.9775391,3.60839844 L93.5185547,3.60839844 L93.5185547,7.08886719 L90.5,7.08886719 L90.5,10.3867188 L93.3251953,10.3867188 L93.3251953,13.6953125 L90.5,13.6953125 L90.5,17.5195312 L93.8193359,17.5195312 L93.8193359,21 L85.9775391,21 L85.9775391,3.60839844 Z M104.701172,8.87207031 L100.500977,8.87207031 L100.500977,7.58300781 C100.500977,6.9814423 100.447266,6.59830812 100.339844,6.43359375 C100.232421,6.26887938 100.053387,6.18652344 99.8027344,6.18652344 C99.5305976,6.18652344 99.3247077,6.29752493 99.1850586,6.51953125 C99.0454095,6.74153757 98.9755859,7.07812274 98.9755859,7.52929688 C98.9755859,8.1093779 99.0543612,8.54622249 99.2119141,8.83984375 C99.3472663,9.10410288 99.7059446,9.4176646 100.287958,9.78053664 L100.490234,9.90332031 C102.502614,11.0992898 103.77018,12.0803998 104.292969,12.8466797 C104.815758,13.6129596 105.077148,14.8482988 105.077148,16.5527344 C105.077148,17.7916729 104.93213,18.7047497 104.64209,19.2919922 C104.352049,19.8792347 103.791671,20.37158 102.960938,20.769043 C102.130204,21.1665059 101.163417,21.3652344 100.060547,21.3652344 C98.8502544,21.3652344 97.8172243,21.13607 96.9614258,20.6777344 C96.1056272,20.2193987 95.5452487,19.6357457 95.2802734,18.9267578 C95.0152982,18.2177699 94.8828125,17.2115951 94.8828125,15.9082031 L94.8828125,14.7695312 L99.0830078,14.7695312 L99.0830078,16.8857422 C99.0830078,17.5374382 99.1420893,17.9563793 99.2602539,18.1425781 C99.3784186,18.328777 99.5878891,18.421875 99.8886719,18.421875 C100.189455,18.421875 100.413248,18.3037121 100.560059,18.0673828 C100.706869,17.8310535 100.780273,17.4801456 100.780273,17.0146484 C100.780273,15.9905548 100.640626,15.3209651 100.361328,15.0058594 C100.136253,14.7582763 99.6525477,14.3802749 98.9102032,13.8718474 L97.7864899,13.1200563 C96.915713,12.5316463 96.3238018,12.0931934 96.0107422,11.8046875 C95.645506,11.4680973 95.3429374,11.0026071 95.1030273,10.4082031 C94.8631173,9.81379911 94.7431641,9.05469212 94.7431641,8.13085938 C94.7431641,6.79882146 94.913247,5.82487287 95.253418,5.20898438 C95.5935889,4.59309588 96.1432254,4.11149262 96.9023438,3.76416016 C97.6614621,3.41682769 98.5781196,3.24316406 99.6523438,3.24316406 C100.826829,3.24316406 101.827633,3.43294081 102.654785,3.8125 C103.481938,4.19205919 104.029784,4.67008175 104.29834,5.24658203 C104.566896,5.82308231 104.701172,6.80240194 104.701172,8.18457031 L104.701172,8.87207031 Z" id="PULSES" fill="#E4000F" fill-rule="nonzero"></path>
        </g>
        <g id="Group" transform="translate(10.000000, 29.000000)">
            <path d="M25,0 C27.7614237,-5.07265313e-16 30,2.23857625 30,5 L30,317 C30,319.761424 27.7614237,322 25,322 L5,322 C2.23857625,322 -2.32635838e-15,319.761424 0,317 L0,5 C-3.38176876e-16,2.23857625 2.23857625,5.07265313e-16 5,0 L25,0 Z M60,0 C62.7614237,-5.07265313e-16 65,2.23857625 65,5 L65,317 C65,319.761424 62.7614237,322 60,322 L40,322 C37.2385763,322 35,319.761424 35,317 L35,5 C35,2.23857625 37.2385763,5.07265313e-16 40,0 L60,0 Z M95,0 C97.7614237,-5.07265313e-16 100,2.23857625 100,5 L100,317 C100,319.761424 97.7614237,322 95,322 L75,322 C72.2385763,322 70,319.761424 70,317 L70,5 C70,2.23857625 72.2385763,5.07265313e-16 75,0 L95,0 Z" id="voice-lanes" fill="#E4000F"></path>
            <g id="Output" transform="translate(0.000000, 264.000000)">
                <g id="Normal" transform="translate(28.000000, 38.000000)" stroke="#1D1D1D" stroke-width="2">
                    <polygon id="Triangle" transform="translate(4.500000, 4.500000) rotate(-270.000000) translate(-4.500000, -4.500000) " points="4.5 0 9 9 0 9"></polygon>
                    <polygon id="Triangle-Copy" transform="translate(39.500000, 4.500000) rotate(-270.000000) translate(-39.500000, -4.500000) " points="39.5 0 44 9 35 9"></polygon>
                </g>
                <g id="Tone-3-Out" transform="translate(70.000000, 0.000000)">
                    <rect id="Rectangle-Copy-2" fill="#1D1D1D" x="0" y="0" width="30" height="58" rx="4"></rect>
                    <path d="M3.60742188,24 L3.60742188,19.2421875 L1.90820312,19.2421875 L1.90820312,18.2734375 L6.45898438,18.2734375 L6.45898438,19.2421875 L4.76367188,19.2421875 L4.76367188,24 L3.60742188,24 Z M6.82617188,21.171875 C6.82617188,20.5885387 6.91341059,20.0989603 7.08789062,19.703125 C7.21809961,19.4114569 7.39583221,19.1497407 7.62109375,18.9179688 C7.84635529,18.6861968 8.09309762,18.5143235 8.36132812,18.4023438 C8.71810074,18.2513013 9.12955496,18.1757812 9.59570312,18.1757812 C10.4394573,18.1757812 11.1145808,18.4374974 11.6210938,18.9609375 C12.1276067,19.4843776 12.3808594,20.2122349 12.3808594,21.1445312 C12.3808594,22.069015 12.1295598,22.7923151 11.6269531,23.3144531 C11.1243464,23.8365912 10.4524782,24.0976562 9.61132812,24.0976562 C8.75976137,24.0976562 8.0826848,23.8378932 7.58007812,23.3183594 C7.07747145,22.7988255 6.82617188,22.0833379 6.82617188,21.171875 Z M8.01757812,21.1328125 C8.01757812,21.7812532 8.16731621,22.2727848 8.46679688,22.6074219 C8.76627754,22.942059 9.14648207,23.109375 9.60742188,23.109375 C10.0683617,23.109375 10.4466131,22.943361 10.7421875,22.6113281 C11.0377619,22.2792952 11.1855469,21.7812533 11.1855469,21.1171875 C11.1855469,20.4609342 11.0416681,19.9713558 10.7539062,19.6484375 C10.4661444,19.3255192 10.0839868,19.1640625 9.60742188,19.1640625 C9.13085699,19.1640625 8.74674625,19.3274723 8.45507812,19.6542969 C8.16341,19.9811214 8.01757812,20.473955 8.01757812,21.1328125 Z M13.2949219,24 L13.2949219,18.2734375 L14.4199219,18.2734375 L16.7636719,22.0976562 L16.7636719,18.2734375 L17.8378906,18.2734375 L17.8378906,24 L16.6777344,24 L14.3691406,20.265625 L14.3691406,24 L13.2949219,24 Z M19.0605469,24 L19.0605469,18.2734375 L23.3066406,18.2734375 L23.3066406,19.2421875 L20.2167969,19.2421875 L20.2167969,20.5117188 L23.0917969,20.5117188 L23.0917969,21.4765625 L20.2167969,21.4765625 L20.2167969,23.0351562 L23.4160156,23.0351562 L23.4160156,24 L19.0605469,24 Z M24.1152344,22.4804688 L25.1777344,22.3515625 C25.2115887,22.6223972 25.3027336,22.8294264 25.4511719,22.9726562 C25.5996101,23.1158861 25.7792958,23.1875 25.9902344,23.1875 C26.216798,23.1875 26.4075513,23.1015634 26.5625,22.9296875 C26.7174487,22.7578116 26.7949219,22.5260431 26.7949219,22.234375 C26.7949219,21.958332 26.7207039,21.7395841 26.5722656,21.578125 C26.4238274,21.4166659 26.2428396,21.3359375 26.0292969,21.3359375 C25.8886712,21.3359375 25.7207041,21.363281 25.5253906,21.4179688 L25.6464844,20.5234375 C25.9433609,20.53125 26.1699211,20.4667976 26.3261719,20.3300781 C26.4824227,20.1933587 26.5605469,20.0117199 26.5605469,19.7851562 C26.5605469,19.592447 26.5032558,19.4388027 26.3886719,19.3242188 C26.274088,19.2096348 26.1217457,19.1523438 25.9316406,19.1523438 C25.7441397,19.1523438 25.583985,19.2174473 25.4511719,19.3476562 C25.3183587,19.4778652 25.2376304,19.6679675 25.2089844,19.9179688 L24.1972656,19.7460938 C24.2675785,19.3997379 24.3736972,19.1230479 24.515625,18.9160156 C24.6575528,18.7089833 24.8554675,18.5462246 25.109375,18.4277344 C25.3632825,18.3092442 25.6477849,18.25 25.9628906,18.25 C26.5019558,18.25 26.9342432,18.4218733 27.2597656,18.765625 C27.5279961,19.0468764 27.6621094,19.3645816 27.6621094,19.71875 C27.6621094,20.2213567 27.3873725,20.6223943 26.8378906,20.921875 C27.1660173,20.9921879 27.4283844,21.1497384 27.625,21.3945312 C27.8216156,21.6393241 27.9199219,21.9348941 27.9199219,22.28125 C27.9199219,22.7838567 27.73633,23.2122378 27.3691406,23.5664062 C27.0019513,23.9205747 26.5449246,24.0976562 25.9980469,24.0976562 C25.4798151,24.0976562 25.0501319,23.9485692 24.7089844,23.6503906 C24.3678368,23.3522121 24.1699221,22.962242 24.1152344,22.4804688 Z" id="TONE3" fill="#FFFFFF" fill-rule="nonzero"></path>
                </g>
                <g id="Tone-2-Out" transform="translate(35.000000, 0.000000)">
                    <rect id="Rectangle-Copy" fill="#1D1D1D" x="0" y="0" width="30" height="58" rx="4"></rect>
                    <path d="M3.60742188,24 L3.60742188,19.2421875 L1.90820312,19.2421875 L1.90820312,18.2734375 L6.45898438,18.2734375 L6.45898438,19.2421875 L4.76367188,19.2421875 L4.76367188,24 L3.60742188,24 Z M6.82617188,21.171875 C6.82617188,20.5885387 6.91341059,20.0989603 7.08789062,19.703125 C7.21809961,19.4114569 7.39583221,19.1497407 7.62109375,18.9179688 C7.84635529,18.6861968 8.09309762,18.5143235 8.36132812,18.4023438 C8.71810074,18.2513013 9.12955496,18.1757812 9.59570312,18.1757812 C10.4394573,18.1757812 11.1145808,18.4374974 11.6210938,18.9609375 C12.1276067,19.4843776 12.3808594,20.2122349 12.3808594,21.1445312 C12.3808594,22.069015 12.1295598,22.7923151 11.6269531,23.3144531 C11.1243464,23.8365912 10.4524782,24.0976562 9.61132812,24.0976562 C8.75976137,24.0976562 8.0826848,23.8378932 7.58007812,23.3183594 C7.07747145,22.7988255 6.82617188,22.0833379 6.82617188,21.171875 Z M8.01757812,21.1328125 C8.01757812,21.7812532 8.16731621,22.2727848 8.46679688,22.6074219 C8.76627754,22.942059 9.14648207,23.109375 9.60742188,23.109375 C10.0683617,23.109375 10.4466131,22.943361 10.7421875,22.6113281 C11.0377619,22.2792952 11.1855469,21.7812533 11.1855469,21.1171875 C11.1855469,20.4609342 11.0416681,19.9713558 10.7539062,19.6484375 C10.4661444,19.3255192 10.0839868,19.1640625 9.60742188,19.1640625 C9.13085699,19.1640625 8.74674625,19.3274723 8.45507812,19.6542969 C8.16341,19.9811214 8.01757812,20.473955 8.01757812,21.1328125 Z M13.2949219,24 L13.2949219,18.2734375 L14.4199219,18.2734375 L16.7636719,22.0976562 L16.7636719,18.2734375 L17.8378906,18.2734375 L17.8378906,24 L16.6777344,24 L14.3691406,20.265625 L14.3691406,24 L13.2949219,24 Z M19.0605469,24 L19.0605469,18.2734375 L23.3066406,18.2734375 L23.3066406,19.2421875 L20.2167969,19.2421875 L20.2167969,20.5117188 L23.0917969,20.5117188 L23.0917969,21.4765625 L20.2167969,21.4765625 L20.2167969,23.0351562 L23.4160156,23.0351562 L23.4160156,24 L19.0605469,24 Z M27.8613281,22.9804688 L27.8613281,24 L24.0136719,24 C24.0553388,23.6145814 24.1803375,23.2493507 24.3886719,22.9042969 C24.573858,22.5975824 24.9195339,22.2018811 25.4257081,21.7171834 L25.9245524,21.2459482 C26.2432256,20.9387527 26.4461078,20.7213548 26.5332031,20.59375 C26.6842455,20.3671864 26.7597656,20.1432303 26.7597656,19.921875 C26.7597656,19.6770821 26.6940111,19.4889329 26.5625,19.3574219 C26.4309889,19.2259108 26.2493501,19.1601562 26.0175781,19.1601562 C25.7884103,19.1601562 25.6061205,19.229166 25.4707031,19.3671875 C25.3352858,19.505209 25.2571616,19.7343734 25.2363281,20.0546875 L24.1425781,19.9453125 C24.2076826,19.3411428 24.4121077,18.9075534 24.7558594,18.6445312 C25.0996111,18.3815091 25.5292943,18.25 26.0449219,18.25 C26.6100289,18.25 27.0540348,18.4023422 27.3769531,18.7070312 C27.6998714,19.0117203 27.8613281,19.3906227 27.8613281,19.84375 C27.8613281,20.1015638 27.8151046,20.347004 27.7226562,20.5800781 C27.6302079,20.8131522 27.483725,21.0572904 27.2832031,21.3125 C27.1883366,21.4334083 27.0389967,21.5921817 26.8351808,21.7888228 L26.063812,22.51355 C25.9934387,22.5826416 25.9409181,22.6367186 25.90625,22.6757812 C25.8138016,22.7799484 25.7389326,22.8815099 25.6816406,22.9804688 L27.8613281,22.9804688 Z" id="TONE2" fill="#FFFFFF" fill-rule="nonzero"></path>
                </g>
                <g id="Tone-1-Out">
                    <rect id="Rectangle" fill="#1D1D1D" x="0" y="0" width="30" height="58" rx="4"></rect>
                    <path d="M3.60742188,24 L3.60742188,19.2421875 L1.90820312,19.2421875 L1.90820312,18.2734375 L6.45898438,18.2734375 L6.45898438,19.2421875 L4.76367188,19.2421875 L4.76367188,24 L3.60742188,24 Z M6.82617188,21.171875 C6.82617188,20.5885387 6.91341059,20.0989603 7.08789062,19.703125 C7.21809961,19.4114569 7.39583221,19.1497407 7.62109375,18.9179688 C7.84635529,18.6861968 8.09309762,18.5143235 8.36132812,18.4023438 C8.71810074,18.2513013 9.12955496,18.1757812 9.59570312,18.1757812 C10.4394573,18.1757812 11.1145808,18.4374974 11.6210938,18.9609375 C12.1276067,19.4843776 12.3808594,20.2122349 12.3808594,21.1445312 C12.3808594,22.069015 12.1295598,22.7923151 11.6269531,23.3144531 C11.1243464,23.8365912 10.4524782,24.0976562 9.61132812,24.0976562 C8.75976137,24.0976562 8.0826848,23.8378932 7.58007812,23.3183594 C7.07747145,22.7988255 6.82617188,22.0833379 6.82617188,21.171875 Z M8.01757812,21.1328125 C8.01757812,21.7812532 8.16731621,22.2727848 8.46679688,22.6074219 C8.76627754,22.942059 9.14648207,23.109375 9.60742188,23.109375 C10.0683617,23.109375 10.4466131,22.943361 10.7421875,22.6113281 C11.0377619,22.2792952 11.1855469,21.7812533 11.1855469,21.1171875 C11.1855469,20.4609342 11.0416681,19.9713558 10.7539062,19.6484375 C10.4661444,19.3255192 10.0839868,19.1640625 9.60742188,19.1640625 C9.13085699,19.1640625 8.74674625,19.3274723 8.45507812,19.6542969 C8.16341,19.9811214 8.01757812,20.473955 8.01757812,21.1328125 Z M13.2949219,24 L13.2949219,18.2734375 L14.4199219,18.2734375 L16.7636719,22.0976562 L16.7636719,18.2734375 L17.8378906,18.2734375 L17.8378906,24 L16.6777344,24 L14.3691406,20.265625 L14.3691406,24 L13.2949219,24 Z M19.0605469,24 L19.0605469,18.2734375 L23.3066406,18.2734375 L23.3066406,19.2421875 L20.2167969,19.2421875 L20.2167969,20.5117188 L23.0917969,20.5117188 L23.0917969,21.4765625 L20.2167969,21.4765625 L20.2167969,23.0351562 L23.4160156,23.0351562 L23.4160156,24 L19.0605469,24 Z M26.9628906,24 L25.8652344,24 L25.8652344,19.8632812 C25.4641907,20.2382831 24.9915392,20.5156241 24.4472656,20.6953125 L24.4472656,19.6992188 C24.7337254,19.6054683 25.0449202,19.4277357 25.3808594,19.1660156 C25.7167986,18.9042956 25.9472656,18.5989601 26.0722656,18.25 L26.9628906,18.25 L26.9628906,24 Z" id="TONE1" fill="#FFFFFF" fill-rule="nonzero"></path>
                </g>
            </g>
            <g id="Amplifier" transform="translate(6.000000, 183.000000)">
                <g id="Normal" transform="translate(22.000000, 59.000000)" fill="#000000">
                    <polygon id="Triangle" transform="translate(4.500000, 4.500000) rotate(-270.000000) translate(-4.500000, -4.500000) " points="4.5 0 9 9 0 9"></polygon>
                    <polygon id="Triangle-Copy" transform="translate(39.500000, 4.500000) rotate(-270.000000) translate(-39.500000, -4.500000) " points="39.5 0 44 9 35 9"></polygon>
                </g>
                <g id="Amp3" transform="translate(70.000000, 0.000000)" fill-rule="nonzero">
                    <path d="M9.5,18 L7.5,18 L7.5,21 L9.5,21 L9.5,18 Z M9.5,22 L7.5,22 L7.5,25 L9.5,25 L9.5,22 Z M9.5,26 L7.5,26 L7.5,29 L9.5,29 L9.5,26 Z M9.5,30 L7.5,30 L7.5,33 L9.5,33 L9.5,30 Z M9.5,34 L7.5,34 L7.5,37 L9.5,37 L9.5,34 Z M9.5,38 L7.5,38 L7.5,41 L9.5,41 L9.5,38 Z M9.5,42 L7.5,42 L7.5,45 L9.5,45 L9.5,42 Z M9.5,46 L7.5,46 L7.5,49 L9.5,49 L9.5,46 Z M9.5,50 L7.5,50 L7.5,53 L9.5,53 L9.5,50 Z M9.5,54 L7.5,54 L7.5,57 L9.5,57 L9.5,54 Z M9.5,58 L7.5,58 L7.5,61 L9.5,61 L9.5,58 Z" id="Line-Copy-17" fill="#E6E6E6"></path>
                    <path d="M5.85742188,6 L4.59960938,6 L4.09960938,4.69921875 L1.81054687,4.69921875 L1.33789062,6 L0.111328125,6 L2.34179688,0.2734375 L3.56445313,0.2734375 L5.85742188,6 Z M3.72851562,3.734375 L2.93945312,1.609375 L2.16601562,3.734375 L3.72851562,3.734375 Z M8.18554688,0.2734375 L9.22460938,4.1796875 L10.2519531,0.2734375 L11.9863281,0.2734375 L11.9863281,6 L10.9121094,6 L10.9121094,1.4921875 L9.77539062,6 L8.66210938,6 L7.52929688,1.4921875 L7.52929688,6 L6.45507812,6 L6.45507812,0.2734375 L8.18554688,0.2734375 Z M14.9902344,0.2734375 C15.6933629,0.2734375 16.1516916,0.302083047 16.3652344,0.359375 C16.693361,0.44531293 16.9680979,0.63216002 17.1894531,0.919921875 C17.4108084,1.20768373 17.5214844,1.5794248 17.5214844,2.03515625 C17.5214844,2.38672051 17.4576829,2.68229047 17.3300781,2.921875 C17.2024733,3.16145953 17.0403656,3.34960869 16.84375,3.48632812 C16.6471344,3.62304756 16.4472666,3.71354145 16.2441406,3.7578125 C16.0075323,3.80468773 15.6800478,3.83147328 15.2616796,3.83816966 L14.2910156,3.83984375 L14.2910156,6 L13.1347656,6 L13.1347656,0.2734375 L14.9902344,0.2734375 Z M14.8496094,1.2421875 L14.2910156,1.2421875 L14.2910156,2.8671875 L14.9238281,2.8671875 C15.3795596,2.8671875 15.684244,2.83723988 15.8378906,2.77734375 C15.9915372,2.71744762 16.1119787,2.62369855 16.1992188,2.49609375 C16.2864588,2.36848895 16.3300781,2.22005293 16.3300781,2.05078125 C16.3300781,1.84244688 16.2688808,1.67057359 16.1464844,1.53515625 C16.0240879,1.39973891 15.8691416,1.31510434 15.6816406,1.28125 C15.5436191,1.2552082 15.2662781,1.2421875 14.8496094,1.2421875 Z" id="AMP" fill="#FFFFFF"></path>
                </g>
                <g id="Amp2" transform="translate(35.000000, 0.000000)" fill-rule="nonzero">
                    <path d="M9.5,18 L7.5,18 L7.5,21 L9.5,21 L9.5,18 Z M9.5,22 L7.5,22 L7.5,25 L9.5,25 L9.5,22 Z M9.5,26 L7.5,26 L7.5,29 L9.5,29 L9.5,26 Z M9.5,30 L7.5,30 L7.5,33 L9.5,33 L9.5,30 Z M9.5,34 L7.5,34 L7.5,37 L9.5,37 L9.5,34 Z M9.5,38 L7.5,38 L7.5,41 L9.5,41 L9.5,38 Z M9.5,42 L7.5,42 L7.5,45 L9.5,45 L9.5,42 Z M9.5,46 L7.5,46 L7.5,49 L9.5,49 L9.5,46 Z M9.5,50 L7.5,50 L7.5,53 L9.5,53 L9.5,50 Z M9.5,54 L7.5,54 L7.5,57 L9.5,57 L9.5,54 Z M9.5,58 L7.5,58 L7.5,61 L9.5,61 L9.5,58 Z" id="Line-Copy-18" fill="#E6E6E6"></path>
                    <path d="M5.85742188,6 L4.59960938,6 L4.09960938,4.69921875 L1.81054687,4.69921875 L1.33789062,6 L0.111328125,6 L2.34179688,0.2734375 L3.56445313,0.2734375 L5.85742188,6 Z M3.72851562,3.734375 L2.93945312,1.609375 L2.16601562,3.734375 L3.72851562,3.734375 Z M8.18554688,0.2734375 L9.22460938,4.1796875 L10.2519531,0.2734375 L11.9863281,0.2734375 L11.9863281,6 L10.9121094,6 L10.9121094,1.4921875 L9.77539062,6 L8.66210938,6 L7.52929688,1.4921875 L7.52929688,6 L6.45507812,6 L6.45507812,0.2734375 L8.18554688,0.2734375 Z M14.9902344,0.2734375 C15.6933629,0.2734375 16.1516916,0.302083047 16.3652344,0.359375 C16.693361,0.44531293 16.9680979,0.63216002 17.1894531,0.919921875 C17.4108084,1.20768373 17.5214844,1.5794248 17.5214844,2.03515625 C17.5214844,2.38672051 17.4576829,2.68229047 17.3300781,2.921875 C17.2024733,3.16145953 17.0403656,3.34960869 16.84375,3.48632812 C16.6471344,3.62304756 16.4472666,3.71354145 16.2441406,3.7578125 C16.0075323,3.80468773 15.6800478,3.83147328 15.2616796,3.83816966 L14.2910156,3.83984375 L14.2910156,6 L13.1347656,6 L13.1347656,0.2734375 L14.9902344,0.2734375 Z M14.8496094,1.2421875 L14.2910156,1.2421875 L14.2910156,2.8671875 L14.9238281,2.8671875 C15.3795596,2.8671875 15.684244,2.83723988 15.8378906,2.77734375 C15.9915372,2.71744762 16.1119787,2.62369855 16.1992188,2.49609375 C16.2864588,2.36848895 16.3300781,2.22005293 16.3300781,2.05078125 C16.3300781,1.84244688 16.2688808,1.67057359 16.1464844,1.53515625 C16.0240879,1.39973891 15.8691416,1.31510434 15.6816406,1.28125 C15.5436191,1.2552082 15.2662781,1.2421875 14.8496094,1.2421875 Z" id="AMP" fill="#FFFFFF"></path>
                </g>
                <g id="Amp1" fill-rule="nonzero">
                    <path d="M9.5,19 L7.5,19 L7.5,22 L9.5,22 L9.5,19 Z M9.5,23 L7.5,23 L7.5,26 L9.5,26 L9.5,23 Z M9.5,27 L7.5,27 L7.5,30 L9.5,30 L9.5,27 Z M9.5,31 L7.5,31 L7.5,34 L9.5,34 L9.5,31 Z M9.5,35 L7.5,35 L7.5,38 L9.5,38 L9.5,35 Z M9.5,39 L7.5,39 L7.5,42 L9.5,42 L9.5,39 Z M9.5,43 L7.5,43 L7.5,46 L9.5,46 L9.5,43 Z M9.5,47 L7.5,47 L7.5,50 L9.5,50 L9.5,47 Z M9.5,51 L7.5,51 L7.5,54 L9.5,54 L9.5,51 Z M9.5,55 L7.5,55 L7.5,58 L9.5,58 L9.5,55 Z M9.5,59 L7.5,59 L7.5,62 L9.5,62 L9.5,59 Z" id="Line-Copy-15" fill="#E6E6E6"></path>
                    <path d="M5.85742188,6 L4.59960938,6 L4.09960938,4.69921875 L1.81054687,4.69921875 L1.33789062,6 L0.111328125,6 L2.34179688,0.2734375 L3.56445313,0.2734375 L5.85742188,6 Z M3.72851562,3.734375 L2.93945312,1.609375 L2.16601562,3.734375 L3.72851562,3.734375 Z M8.18554688,0.2734375 L9.22460938,4.1796875 L10.2519531,0.2734375 L11.9863281,0.2734375 L11.9863281,6 L10.9121094,6 L10.9121094,1.4921875 L9.77539062,6 L8.66210938,6 L7.52929688,1.4921875 L7.52929688,6 L6.45507812,6 L6.45507812,0.2734375 L8.18554688,0.2734375 Z M14.9902344,0.2734375 C15.6933629,0.2734375 16.1516916,0.302083047 16.3652344,0.359375 C16.693361,0.44531293 16.9680979,0.63216002 17.1894531,0.919921875 C17.4108084,1.20768373 17.5214844,1.5794248 17.5214844,2.03515625 C17.5214844,2.38672051 17.4576829,2.68229047 17.3300781,2.921875 C17.2024733,3.16145953 17.0403656,3.34960869 16.84375,3.48632812 C16.6471344,3.62304756 16.4472666,3.71354145 16.2441406,3.7578125 C16.0075323,3.80468773 15.6800478,3.83147328 15.2616796,3.83816966 L14.2910156,3.83984375 L14.2910156,6 L13.1347656,6 L13.1347656,0.2734375 L14.9902344,0.2734375 Z M14.8496094,1.2421875 L14.2910156,1.2421875 L14.2910156,2.8671875 L14.9238281,2.8671875 C15.3795596,2.8671875 15.684244,2.83723988 15.8378906,2.77734375 C15.9915372,2.71744762 16.1119787,2.62369855 16.1992188,2.49609375 C16.2864588,2.36848895 16.3300781,2.22005293 16.3300781,2.05078125 C16.3300781,1.84244688 16.2688808,1.67057359 16.1464844,1.53515625 C16.0240879,1.39973891 15.8691416,1.31510434 15.6816406,1.28125 C15.5436191,1.2552082 15.2662781,1.2421875 14.8496094,1.2421875 Z" id="AMP" fill="#FFFFFF"></path>
                </g>
            </g>
            <g id="Frequency-Mod" transform="translate(6.000000, 88.000000)">
                <g id="Normal" transform="translate(22.000000, 20.000000)" fill="#000000">
                    <polygon id="Triangle" transform="translate(4.500000, 4.500000) rotate(-270.000000) translate(-4.500000, -4.500000) " points="4.5 0 9 9 0 9"></polygon>
                    <polygon id="Triangle-Copy" transform="translate(39.500000, 4.500000) rotate(-270.000000) translate(-39.500000, -4.500000) " points="39.5 0 44 9 35 9"></polygon>
                </g>
                <g id="Mod3" transform="translate(70.000000, 0.000000)" fill-rule="nonzero">
                    <path d="M9.5,25 L7.5,25 L7.5,28 L9.5,28 L9.5,25 Z M9.5,29 L7.5,29 L7.5,32 L9.5,32 L9.5,29 Z M9.5,33 L7.5,33 L7.5,36 L9.5,36 L9.5,33 Z M9.5,37 L7.5,37 L7.5,40 L9.5,40 L9.5,37 Z M9.5,41 L7.5,41 L7.5,44 L9.5,44 L9.5,41 Z M9.5,45 L7.5,45 L7.5,48 L9.5,48 L9.5,45 Z M9.5,49 L7.5,49 L7.5,52 L9.5,52 L9.5,49 Z M9.5,53 L7.5,53 L7.5,56 L9.5,56 L9.5,53 Z" id="Line-Copy-5" fill="#E6E6E6"></path>
                    <path d="M9.44921875,0.17578125 C10.292973,0.17578125 10.9680964,0.437497383 11.4746094,0.9609375 C11.9811223,1.48437762 12.234375,2.21223492 12.234375,3.14453125 C12.234375,4.06901504 11.9830754,4.7923151 11.4804688,5.31445312 C10.9778621,5.83659115 10.3059938,6.09765625 9.46484375,6.09765625 C8.61327699,6.09765625 7.93620043,5.83789322 7.43359375,5.31835938 C6.93098707,4.79882553 6.6796875,4.08333789 6.6796875,3.171875 C6.6796875,2.58853875 6.76692621,2.09896031 6.94140625,1.703125 C7.07161523,1.41145687 7.24934783,1.14974074 7.47460938,0.91796875 C7.69987092,0.686196758 7.94661324,0.514323477 8.21484375,0.40234375 C8.57161637,0.251301328 8.98307059,0.17578125 9.44921875,0.17578125 Z M1.96484375,0.2734375 L3.00390625,4.1796875 L4.03125,0.2734375 L5.765625,0.2734375 L5.765625,6 L4.69140625,6 L4.69140625,1.4921875 L3.5546875,6 L2.44140625,6 L1.30859375,1.4921875 L1.30859375,6 L0.234375,6 L0.234375,0.2734375 L1.96484375,0.2734375 Z M15.2460938,0.2734375 C15.7226586,0.2734375 16.0859362,0.309895469 16.3359375,0.3828125 C16.6718767,0.481771328 16.9596342,0.65755082 17.1992188,0.91015625 C17.4388033,1.16276168 17.6210931,1.47200338 17.7460938,1.83789062 C17.8710944,2.20377787 17.9335938,2.65494523 17.9335938,3.19140625 C17.9335938,3.66276277 17.8750006,4.06900871 17.7578125,4.41015625 C17.6145826,4.826825 17.4101576,5.16406121 17.1445312,5.421875 C16.9440094,5.61718848 16.6731788,5.7695307 16.3320312,5.87890625 C16.0768216,5.95963582 15.7356792,6 15.3085938,6 L13.1328125,6 L13.1328125,0.2734375 L15.2460938,0.2734375 Z M9.4609375,1.1640625 C8.98437262,1.1640625 8.60026188,1.32747232 8.30859375,1.65429688 C8.01692563,1.98112143 7.87109375,2.47395504 7.87109375,3.1328125 C7.87109375,3.78125324 8.02083184,4.27278479 8.3203125,4.60742188 C8.61979316,4.94205896 8.9999977,5.109375 9.4609375,5.109375 C9.9218773,5.109375 10.3001287,4.94336104 10.5957031,4.61132812 C10.8912775,4.27929521 11.0390625,3.78125332 11.0390625,3.1171875 C11.0390625,2.46093422 10.8951837,1.97135578 10.6074219,1.6484375 C10.31966,1.32551922 9.93750238,1.1640625 9.4609375,1.1640625 Z M14.8085938,1.2421875 L14.2890625,1.2421875 L14.2890625,5.03515625 L15.1523438,5.03515625 C15.475262,5.03515625 15.7083326,5.01692727 15.8515625,4.98046875 C16.0390634,4.93359352 16.1946608,4.85416723 16.3183594,4.7421875 C16.4420579,4.63020777 16.5429684,4.44596482 16.6210938,4.18945312 C16.6992191,3.93294143 16.7382812,3.58333555 16.7382812,3.140625 C16.7382812,2.69791445 16.6992191,2.3580741 16.6210938,2.12109375 C16.5429684,1.8841134 16.4335945,1.69921941 16.2929688,1.56640625 C16.152343,1.43359309 15.9739594,1.34375023 15.7578125,1.296875 C15.5963534,1.26041648 15.2799503,1.2421875 14.8085938,1.2421875 Z" id="MOD" fill="#FFFFFF"></path>
                </g>
                <g id="Mod2" transform="translate(35.000000, 0.000000)" fill-rule="nonzero">
                    <path d="M9.5,25 L7.5,25 L7.5,28 L9.5,28 L9.5,25 Z M9.5,29 L7.5,29 L7.5,32 L9.5,32 L9.5,29 Z M9.5,33 L7.5,33 L7.5,36 L9.5,36 L9.5,33 Z M9.5,37 L7.5,37 L7.5,40 L9.5,40 L9.5,37 Z M9.5,41 L7.5,41 L7.5,44 L9.5,44 L9.5,41 Z M9.5,45 L7.5,45 L7.5,48 L9.5,48 L9.5,45 Z M9.5,49 L7.5,49 L7.5,52 L9.5,52 L9.5,49 Z M9.5,53 L7.5,53 L7.5,56 L9.5,56 L9.5,53 Z" id="Line-Copy-6" fill="#E6E6E6"></path>
                    <path d="M9.44921875,0.17578125 C10.292973,0.17578125 10.9680964,0.437497383 11.4746094,0.9609375 C11.9811223,1.48437762 12.234375,2.21223492 12.234375,3.14453125 C12.234375,4.06901504 11.9830754,4.7923151 11.4804688,5.31445312 C10.9778621,5.83659115 10.3059938,6.09765625 9.46484375,6.09765625 C8.61327699,6.09765625 7.93620043,5.83789322 7.43359375,5.31835938 C6.93098707,4.79882553 6.6796875,4.08333789 6.6796875,3.171875 C6.6796875,2.58853875 6.76692621,2.09896031 6.94140625,1.703125 C7.07161523,1.41145687 7.24934783,1.14974074 7.47460938,0.91796875 C7.69987092,0.686196758 7.94661324,0.514323477 8.21484375,0.40234375 C8.57161637,0.251301328 8.98307059,0.17578125 9.44921875,0.17578125 Z M1.96484375,0.2734375 L3.00390625,4.1796875 L4.03125,0.2734375 L5.765625,0.2734375 L5.765625,6 L4.69140625,6 L4.69140625,1.4921875 L3.5546875,6 L2.44140625,6 L1.30859375,1.4921875 L1.30859375,6 L0.234375,6 L0.234375,0.2734375 L1.96484375,0.2734375 Z M15.2460938,0.2734375 C15.7226586,0.2734375 16.0859362,0.309895469 16.3359375,0.3828125 C16.6718767,0.481771328 16.9596342,0.65755082 17.1992188,0.91015625 C17.4388033,1.16276168 17.6210931,1.47200338 17.7460938,1.83789062 C17.8710944,2.20377787 17.9335938,2.65494523 17.9335938,3.19140625 C17.9335938,3.66276277 17.8750006,4.06900871 17.7578125,4.41015625 C17.6145826,4.826825 17.4101576,5.16406121 17.1445312,5.421875 C16.9440094,5.61718848 16.6731788,5.7695307 16.3320312,5.87890625 C16.0768216,5.95963582 15.7356792,6 15.3085938,6 L13.1328125,6 L13.1328125,0.2734375 L15.2460938,0.2734375 Z M9.4609375,1.1640625 C8.98437262,1.1640625 8.60026188,1.32747232 8.30859375,1.65429688 C8.01692563,1.98112143 7.87109375,2.47395504 7.87109375,3.1328125 C7.87109375,3.78125324 8.02083184,4.27278479 8.3203125,4.60742188 C8.61979316,4.94205896 8.9999977,5.109375 9.4609375,5.109375 C9.9218773,5.109375 10.3001287,4.94336104 10.5957031,4.61132812 C10.8912775,4.27929521 11.0390625,3.78125332 11.0390625,3.1171875 C11.0390625,2.46093422 10.8951837,1.97135578 10.6074219,1.6484375 C10.31966,1.32551922 9.93750238,1.1640625 9.4609375,1.1640625 Z M14.8085938,1.2421875 L14.2890625,1.2421875 L14.2890625,5.03515625 L15.1523438,5.03515625 C15.475262,5.03515625 15.7083326,5.01692727 15.8515625,4.98046875 C16.0390634,4.93359352 16.1946608,4.85416723 16.3183594,4.7421875 C16.4420579,4.63020777 16.5429684,4.44596482 16.6210938,4.18945312 C16.6992191,3.93294143 16.7382812,3.58333555 16.7382812,3.140625 C16.7382812,2.69791445 16.6992191,2.3580741 16.6210938,2.12109375 C16.5429684,1.8841134 16.4335945,1.69921941 16.2929688,1.56640625 C16.152343,1.43359309 15.9739594,1.34375023 15.7578125,1.296875 C15.5963534,1.26041648 15.2799503,1.2421875 14.8085938,1.2421875 Z" id="MOD" fill="#FFFFFF"></path>
                </g>
                <g id="Mod1" fill-rule="nonzero">
                    <path d="M9.5,24.5 L7.5,24.5 L7.5,27.5 L9.5,27.5 L9.5,24.5 Z M9.5,28.5 L7.5,28.5 L7.5,31.5 L9.5,31.5 L9.5,28.5 Z M9.5,32.5 L7.5,32.5 L7.5,35.5 L9.5,35.5 L9.5,32.5 Z M9.5,36.5 L7.5,36.5 L7.5,39.5 L9.5,39.5 L9.5,36.5 Z M9.5,40.5 L7.5,40.5 L7.5,43.5 L9.5,43.5 L9.5,40.5 Z M9.5,44.5 L7.5,44.5 L7.5,47.5 L9.5,47.5 L9.5,44.5 Z M9.5,48.5 L7.5,48.5 L7.5,51.5 L9.5,51.5 L9.5,48.5 Z M9.5,52.5 L7.5,52.5 L7.5,55.5 L9.5,55.5 L9.5,52.5 Z" id="Line-Copy-7" fill="#E6E6E6"></path>
                    <path d="M9.44921875,0.17578125 C10.292973,0.17578125 10.9680964,0.437497383 11.4746094,0.9609375 C11.9811223,1.48437762 12.234375,2.21223492 12.234375,3.14453125 C12.234375,4.06901504 11.9830754,4.7923151 11.4804688,5.31445312 C10.9778621,5.83659115 10.3059938,6.09765625 9.46484375,6.09765625 C8.61327699,6.09765625 7.93620043,5.83789322 7.43359375,5.31835938 C6.93098707,4.79882553 6.6796875,4.08333789 6.6796875,3.171875 C6.6796875,2.58853875 6.76692621,2.09896031 6.94140625,1.703125 C7.07161523,1.41145687 7.24934783,1.14974074 7.47460938,0.91796875 C7.69987092,0.686196758 7.94661324,0.514323477 8.21484375,0.40234375 C8.57161637,0.251301328 8.98307059,0.17578125 9.44921875,0.17578125 Z M1.96484375,0.2734375 L3.00390625,4.1796875 L4.03125,0.2734375 L5.765625,0.2734375 L5.765625,6 L4.69140625,6 L4.69140625,1.4921875 L3.5546875,6 L2.44140625,6 L1.30859375,1.4921875 L1.30859375,6 L0.234375,6 L0.234375,0.2734375 L1.96484375,0.2734375 Z M15.2460938,0.2734375 C15.7226586,0.2734375 16.0859362,0.309895469 16.3359375,0.3828125 C16.6718767,0.481771328 16.9596342,0.65755082 17.1992188,0.91015625 C17.4388033,1.16276168 17.6210931,1.47200338 17.7460938,1.83789062 C17.8710944,2.20377787 17.9335938,2.65494523 17.9335938,3.19140625 C17.9335938,3.66276277 17.8750006,4.06900871 17.7578125,4.41015625 C17.6145826,4.826825 17.4101576,5.16406121 17.1445312,5.421875 C16.9440094,5.61718848 16.6731788,5.7695307 16.3320312,5.87890625 C16.0768216,5.95963582 15.7356792,6 15.3085938,6 L13.1328125,6 L13.1328125,0.2734375 L15.2460938,0.2734375 Z M9.4609375,1.1640625 C8.98437262,1.1640625 8.60026188,1.32747232 8.30859375,1.65429688 C8.01692563,1.98112143 7.87109375,2.47395504 7.87109375,3.1328125 C7.87109375,3.78125324 8.02083184,4.27278479 8.3203125,4.60742188 C8.61979316,4.94205896 8.9999977,5.109375 9.4609375,5.109375 C9.9218773,5.109375 10.3001287,4.94336104 10.5957031,4.61132812 C10.8912775,4.27929521 11.0390625,3.78125332 11.0390625,3.1171875 C11.0390625,2.46093422 10.8951837,1.97135578 10.6074219,1.6484375 C10.31966,1.32551922 9.93750238,1.1640625 9.4609375,1.1640625 Z M14.8085938,1.2421875 L14.2890625,1.2421875 L14.2890625,5.03515625 L15.1523438,5.03515625 C15.475262,5.03515625 15.7083326,5.01692727 15.8515625,4.98046875 C16.0390634,4.93359352 16.1946608,4.85416723 16.3183594,4.7421875 C16.4420579,4.63020777 16.5429684,4.44596482 16.6210938,4.18945312 C16.6992191,3.93294143 16.7382812,3.58333555 16.7382812,3.140625 C16.7382812,2.69791445 16.6992191,2.3580741 16.6210938,2.12109375 C16.5429684,1.8841134 16.4335945,1.69921941 16.2929688,1.56640625 C16.152343,1.43359309 15.9739594,1.34375023 15.7578125,1.296875 C15.5963534,1.26041648 15.2799503,1.2421875 14.8085938,1.2421875 Z" id="MOD" fill="#FFFFFF"></path>
                </g>
            </g>
            <g id="Frequency" transform="translate(3.000000, 5.000000)">
                <g id="Normal" transform="translate(25.000000, 59.000000)" fill="#000000">
                    <polygon id="Triangle" transform="translate(4.500000, 4.500000) rotate(-270.000000) translate(-4.500000, -4.500000) " points="4.5 0 9 9 0 9"></polygon>
                    <polygon id="Triangle-Copy" transform="translate(39.500000, 4.500000) rotate(-270.000000) translate(-39.500000, -4.500000) " points="39.5 0 44 9 35 9"></polygon>
                </g>
                <g id="Voct3" transform="translate(70.000000, 0.000000)" fill-rule="nonzero">
                    <path d="M12.5,18 L10.5,18 L10.5,21 L12.5,21 L12.5,18 Z M12.5,22 L10.5,22 L10.5,25 L12.5,25 L12.5,22 Z M12.5,26 L10.5,26 L10.5,29 L12.5,29 L12.5,26 Z M12.5,30 L10.5,30 L10.5,33 L12.5,33 L12.5,30 Z M12.5,34 L10.5,34 L10.5,37 L12.5,37 L12.5,34 Z M12.5,38 L10.5,38 L10.5,41 L12.5,41 L12.5,38 Z M12.5,42 L10.5,42 L10.5,45 L12.5,45 L12.5,42 Z M12.5,46 L10.5,46 L10.5,49 L12.5,49 L12.5,46 Z M12.5,50 L10.5,50 L10.5,53 L12.5,53 L12.5,50 Z M12.5,54 L10.5,54 L10.5,57 L12.5,57 L12.5,54 Z" id="Line-Copy-12" fill="#E6E6E6"></path>
                    <path d="M2.93164062,6 L0.884765625,0.2734375 L2.13867188,0.2734375 L3.58789062,4.51171875 L4.99023438,0.2734375 L6.21679688,0.2734375 L4.16601562,6 L2.93164062,6 Z M6.57226562,3.171875 C6.57226562,2.58853875 6.65950434,2.09896031 6.83398438,1.703125 C6.96419336,1.41145687 7.14192596,1.14974074 7.3671875,0.91796875 C7.59244904,0.686196758 7.83919137,0.514323477 8.10742188,0.40234375 C8.46419449,0.251301328 8.87564871,0.17578125 9.34179688,0.17578125 C10.1855511,0.17578125 10.8606746,0.437497383 11.3671875,0.9609375 C11.8737004,1.48437762 12.1269531,2.21223492 12.1269531,3.14453125 C12.1269531,4.06901504 11.8756536,4.7923151 11.3730469,5.31445312 C10.8704402,5.83659115 10.1985719,6.09765625 9.35742188,6.09765625 C8.50585512,6.09765625 7.82877855,5.83789322 7.32617188,5.31835938 C6.8235652,4.79882553 6.57226562,4.08333789 6.57226562,3.171875 Z M7.76367188,3.1328125 C7.76367188,3.78125324 7.91340996,4.27278479 8.21289062,4.60742188 C8.51237129,4.94205896 8.89257582,5.109375 9.35351562,5.109375 C9.81445543,5.109375 10.1927069,4.94336104 10.4882812,4.61132812 C10.7838556,4.27929521 10.9316406,3.78125332 10.9316406,3.1171875 C10.9316406,2.46093422 10.7877619,1.97135578 10.5,1.6484375 C10.2122381,1.32551922 9.83008051,1.1640625 9.35351562,1.1640625 C8.87695074,1.1640625 8.49284,1.32747232 8.20117188,1.65429688 C7.90950375,1.98112143 7.76367188,2.47395504 7.76367188,3.1328125 Z M16.6933594,3.89453125 L17.8144531,4.25 C17.6425773,4.87500313 17.3567728,5.33919119 16.9570312,5.64257812 C16.5572897,5.94596506 16.0501333,6.09765625 15.4355469,6.09765625 C14.6751264,6.09765625 14.0501327,5.83789322 13.5605469,5.31835938 C13.0709611,4.79882553 12.8261719,4.08854617 12.8261719,3.1875 C12.8261719,2.23437023 13.0722632,1.49414326 13.5644531,0.966796875 C14.0566431,0.439450488 14.703772,0.17578125 15.5058594,0.17578125 C16.2063837,0.17578125 16.7753884,0.38281043 17.2128906,0.796875 C17.4733086,1.04166789 17.6686191,1.39322687 17.7988281,1.8515625 L16.6542969,2.125 C16.5865882,1.82812352 16.4453136,1.59375086 16.2304688,1.421875 C16.0156239,1.24999914 15.7545588,1.1640625 15.4472656,1.1640625 C15.0227843,1.1640625 14.6783867,1.31640473 14.4140625,1.62109375 C14.1497383,1.92578277 14.0175781,2.41926742 14.0175781,3.1015625 C14.0175781,3.82552445 14.1477852,4.3411443 14.4082031,4.6484375 C14.6686211,4.9557307 15.0071594,5.109375 15.4238281,5.109375 C15.7311213,5.109375 15.9954416,5.01171973 16.2167969,4.81640625 C16.4381521,4.62109277 16.5970047,4.31380418 16.6933594,3.89453125 Z M20.0957031,6 L20.0957031,1.2421875 L18.3964844,1.2421875 L18.3964844,0.2734375 L22.9472656,0.2734375 L22.9472656,1.2421875 L21.2519531,1.2421875 L21.2519531,6 L20.0957031,6 Z" id="VOCT" fill="#FFFFFF"></path>
                </g>
                <g id="Voct2" transform="translate(35.000000, 0.000000)" fill-rule="nonzero">
                    <path d="M12.5,18 L10.5,18 L10.5,21 L12.5,21 L12.5,18 Z M12.5,22 L10.5,22 L10.5,25 L12.5,25 L12.5,22 Z M12.5,26 L10.5,26 L10.5,29 L12.5,29 L12.5,26 Z M12.5,30 L10.5,30 L10.5,33 L12.5,33 L12.5,30 Z M12.5,34 L10.5,34 L10.5,37 L12.5,37 L12.5,34 Z M12.5,38 L10.5,38 L10.5,41 L12.5,41 L12.5,38 Z M12.5,42 L10.5,42 L10.5,45 L12.5,45 L12.5,42 Z M12.5,46 L10.5,46 L10.5,49 L12.5,49 L12.5,46 Z M12.5,50 L10.5,50 L10.5,53 L12.5,53 L12.5,50 Z M12.5,54 L10.5,54 L10.5,57 L12.5,57 L12.5,54 Z" id="Line-Copy-13" fill="#E6E6E6"></path>
                    <path d="M2.93164062,6 L0.884765625,0.2734375 L2.13867188,0.2734375 L3.58789062,4.51171875 L4.99023438,0.2734375 L6.21679688,0.2734375 L4.16601562,6 L2.93164062,6 Z M6.57226562,3.171875 C6.57226562,2.58853875 6.65950434,2.09896031 6.83398438,1.703125 C6.96419336,1.41145687 7.14192596,1.14974074 7.3671875,0.91796875 C7.59244904,0.686196758 7.83919137,0.514323477 8.10742188,0.40234375 C8.46419449,0.251301328 8.87564871,0.17578125 9.34179688,0.17578125 C10.1855511,0.17578125 10.8606746,0.437497383 11.3671875,0.9609375 C11.8737004,1.48437762 12.1269531,2.21223492 12.1269531,3.14453125 C12.1269531,4.06901504 11.8756536,4.7923151 11.3730469,5.31445312 C10.8704402,5.83659115 10.1985719,6.09765625 9.35742188,6.09765625 C8.50585512,6.09765625 7.82877855,5.83789322 7.32617188,5.31835938 C6.8235652,4.79882553 6.57226562,4.08333789 6.57226562,3.171875 Z M7.76367188,3.1328125 C7.76367188,3.78125324 7.91340996,4.27278479 8.21289062,4.60742188 C8.51237129,4.94205896 8.89257582,5.109375 9.35351562,5.109375 C9.81445543,5.109375 10.1927069,4.94336104 10.4882812,4.61132812 C10.7838556,4.27929521 10.9316406,3.78125332 10.9316406,3.1171875 C10.9316406,2.46093422 10.7877619,1.97135578 10.5,1.6484375 C10.2122381,1.32551922 9.83008051,1.1640625 9.35351562,1.1640625 C8.87695074,1.1640625 8.49284,1.32747232 8.20117188,1.65429688 C7.90950375,1.98112143 7.76367188,2.47395504 7.76367188,3.1328125 Z M16.6933594,3.89453125 L17.8144531,4.25 C17.6425773,4.87500313 17.3567728,5.33919119 16.9570312,5.64257812 C16.5572897,5.94596506 16.0501333,6.09765625 15.4355469,6.09765625 C14.6751264,6.09765625 14.0501327,5.83789322 13.5605469,5.31835938 C13.0709611,4.79882553 12.8261719,4.08854617 12.8261719,3.1875 C12.8261719,2.23437023 13.0722632,1.49414326 13.5644531,0.966796875 C14.0566431,0.439450488 14.703772,0.17578125 15.5058594,0.17578125 C16.2063837,0.17578125 16.7753884,0.38281043 17.2128906,0.796875 C17.4733086,1.04166789 17.6686191,1.39322687 17.7988281,1.8515625 L16.6542969,2.125 C16.5865882,1.82812352 16.4453136,1.59375086 16.2304688,1.421875 C16.0156239,1.24999914 15.7545588,1.1640625 15.4472656,1.1640625 C15.0227843,1.1640625 14.6783867,1.31640473 14.4140625,1.62109375 C14.1497383,1.92578277 14.0175781,2.41926742 14.0175781,3.1015625 C14.0175781,3.82552445 14.1477852,4.3411443 14.4082031,4.6484375 C14.6686211,4.9557307 15.0071594,5.109375 15.4238281,5.109375 C15.7311213,5.109375 15.9954416,5.01171973 16.2167969,4.81640625 C16.4381521,4.62109277 16.5970047,4.31380418 16.6933594,3.89453125 Z M20.0957031,6 L20.0957031,1.2421875 L18.3964844,1.2421875 L18.3964844,0.2734375 L22.9472656,0.2734375 L22.9472656,1.2421875 L21.2519531,1.2421875 L21.2519531,6 L20.0957031,6 Z" id="VOCT" fill="#FFFFFF"></path>
                </g>
                <g id="Voct1" fill-rule="nonzero">
                    <path d="M12.5,19 L10.5,19 L10.5,22 L12.5,22 L12.5,19 Z M12.5,23 L10.5,23 L10.5,26 L12.5,26 L12.5,23 Z M12.5,27 L10.5,27 L10.5,30 L12.5,30 L12.5,27 Z M12.5,31 L10.5,31 L10.5,34 L12.5,34 L12.5,31 Z M12.5,35 L10.5,35 L10.5,38 L12.5,38 L12.5,35 Z M12.5,39 L10.5,39 L10.5,42 L12.5,42 L12.5,39 Z M12.5,43 L10.5,43 L10.5,46 L12.5,46 L12.5,43 Z M12.5,47 L10.5,47 L10.5,50 L12.5,50 L12.5,47 Z M12.5,51 L10.5,51 L10.5,54 L12.5,54 L12.5,51 Z M12.5,55 L10.5,55 L10.5,58 L12.5,58 L12.5,55 Z" id="Line-Copy-11" fill="#E6E6E6"></path>
                    <path d="M2.93164062,6 L0.884765625,0.2734375 L2.13867188,0.2734375 L3.58789062,4.51171875 L4.99023438,0.2734375 L6.21679688,0.2734375 L4.16601562,6 L2.93164062,6 Z M6.57226562,3.171875 C6.57226562,2.58853875 6.65950434,2.09896031 6.83398438,1.703125 C6.96419336,1.41145687 7.14192596,1.14974074 7.3671875,0.91796875 C7.59244904,0.686196758 7.83919137,0.514323477 8.10742188,0.40234375 C8.46419449,0.251301328 8.87564871,0.17578125 9.34179688,0.17578125 C10.1855511,0.17578125 10.8606746,0.437497383 11.3671875,0.9609375 C11.8737004,1.48437762 12.1269531,2.21223492 12.1269531,3.14453125 C12.1269531,4.06901504 11.8756536,4.7923151 11.3730469,5.31445312 C10.8704402,5.83659115 10.1985719,6.09765625 9.35742188,6.09765625 C8.50585512,6.09765625 7.82877855,5.83789322 7.32617188,5.31835938 C6.8235652,4.79882553 6.57226562,4.08333789 6.57226562,3.171875 Z M7.76367188,3.1328125 C7.76367188,3.78125324 7.91340996,4.27278479 8.21289062,4.60742188 C8.51237129,4.94205896 8.89257582,5.109375 9.35351562,5.109375 C9.81445543,5.109375 10.1927069,4.94336104 10.4882812,4.61132812 C10.7838556,4.27929521 10.9316406,3.78125332 10.9316406,3.1171875 C10.9316406,2.46093422 10.7877619,1.97135578 10.5,1.6484375 C10.2122381,1.32551922 9.83008051,1.1640625 9.35351562,1.1640625 C8.87695074,1.1640625 8.49284,1.32747232 8.20117188,1.65429688 C7.90950375,1.98112143 7.76367188,2.47395504 7.76367188,3.1328125 Z M16.6933594,3.89453125 L17.8144531,4.25 C17.6425773,4.87500313 17.3567728,5.33919119 16.9570312,5.64257812 C16.5572897,5.94596506 16.0501333,6.09765625 15.4355469,6.09765625 C14.6751264,6.09765625 14.0501327,5.83789322 13.5605469,5.31835938 C13.0709611,4.79882553 12.8261719,4.08854617 12.8261719,3.1875 C12.8261719,2.23437023 13.0722632,1.49414326 13.5644531,0.966796875 C14.0566431,0.439450488 14.703772,0.17578125 15.5058594,0.17578125 C16.2063837,0.17578125 16.7753884,0.38281043 17.2128906,0.796875 C17.4733086,1.04166789 17.6686191,1.39322687 17.7988281,1.8515625 L16.6542969,2.125 C16.5865882,1.82812352 16.4453136,1.59375086 16.2304688,1.421875 C16.0156239,1.24999914 15.7545588,1.1640625 15.4472656,1.1640625 C15.0227843,1.1640625 14.6783867,1.31640473 14.4140625,1.62109375 C14.1497383,1.92578277 14.0175781,2.41926742 14.0175781,3.1015625 C14.0175781,3.82552445 14.1477852,4.3411443 14.4082031,4.6484375 C14.6686211,4.9557307 15.0071594,5.109375 15.4238281,5.109375 C15.7311213,5.109375 15.9954416,5.01171973 16.2167969,4.81640625 C16.4381521,4.62109277 16.5970047,4.31380418 16.6933594,3.89453125 Z M20.0957031,6 L20.0957031,1.2421875 L18.3964844,1.2421875 L18.3964844,0.2734375 L22.9472656,0.2734375 L22.9472656,1.2421875 L21.2519531,1.2421875 L21.2519531,6 L20.0957031,6 Z" id="VOCT" fill="#FFFFFF"></path>
                </g>
            </g>
        </g>
    </g>
</svg>