<?xml version="1.0" encoding="UTF-8"?>
<svg width="1050px" height="380px" viewBox="0 0 1050 380" version="1.1" xmlns="http://www.w3.org/2000/svg" xmlns:xlink="http://www.w3.org/1999/xlink">
    <!-- Generator: Sketch 58 (84663) - https://sketch.com -->
    <title>S-SMP</title>
    <desc>Created with Sketch.</desc>
    <g id="S-SMP" stroke="none" stroke-width="1" fill="none" fill-rule="evenodd">
        <g id="bg" fill-rule="nonzero">
            <g fill="#404040" id="Background">
                <rect x="0" y="0" width="1050" height="380" rx="1"></rect>
            </g>
            <g id="Logo/Panel/DarkMode" transform="translate(419.000000, 364.000000)" fill="#FFFFFF">
                <g id="Logo/Print/DarkMode">
                    <path d="M1.95775432,2.29858118 L3.38562168,2.29858118 L3.38562168,4.99672234 L6.06699634,2.29858118 L7.94254488,2.29858118 L5.09623504,4.99672234 L8.08863032,8.85057471 L6.22250665,8.85057471 L4.0783494,5.98796695 L3.38562168,6.65916846 L3.38562168,8.85057471 L1.95775432,8.85057471 L1.95775432,2.29858118 Z M11.6276679,6.49470187 C11.5428437,6.54507927 11.4572353,6.5858251 11.3708403,6.61694055 C11.2844452,6.64805601 11.1658502,6.6769485 11.0150515,6.70361889 L10.7134558,6.75695941 C10.4307084,6.80437344 10.2280757,6.86215842 10.1055519,6.93031609 C9.89820375,7.04588779 9.79453125,7.2251694 9.79453125,7.46816631 C9.79453125,7.68449282 9.85814847,7.84080861 9.98538481,7.93711835 C10.1126211,8.0334281 10.2673445,8.08158226 10.4495595,8.08158226 C10.7385902,8.08158226 11.00484,8.00157228 11.248317,7.84154993 C11.4917939,7.68152758 11.618243,7.38963933 11.6276679,6.96587644 L11.6276679,6.49470187 Z M10.8124169,5.90351114 C11.0606051,5.87387737 11.2381062,5.83683571 11.3449219,5.79238506 C11.5365618,5.71533726 11.6323803,5.59532229 11.6323803,5.43233657 C11.6323803,5.23379031 11.5593383,5.09673619 11.4132522,5.02117008 C11.267166,4.94560397 11.0527524,4.90782148 10.770005,4.90782148 C10.4526995,4.90782148 10.2280758,4.98190479 10.096127,5.13007364 C10.0018779,5.23971858 9.93904603,5.3878852 9.90762965,5.57457795 L8.61171044,5.57457795 C8.63998518,5.15081505 8.76564882,4.80262349 8.98870512,4.52999282 C9.34371022,4.10326654 9.95317886,3.88990661 10.8171293,3.88990661 C11.3794825,3.88990661 11.8789955,3.99510491 12.3156832,4.20550467 C12.7523709,4.41590443 12.9707114,4.81299097 12.9707114,5.39677622 L12.9707114,7.61929777 C12.9707114,7.77339337 12.973853,7.96008331 12.9801363,8.1793732 C12.9895612,8.34532231 13.0162647,8.45792894 13.0602477,8.51719648 C13.1042306,8.57646402 13.170204,8.625359 13.2581699,8.6638829 L13.2581699,8.85057471 L11.7973155,8.85057471 C11.7564742,8.75278328 11.7281999,8.66091997 11.7124917,8.57498204 C11.6967835,8.48904411 11.6842171,8.39125414 11.6747922,8.2816092 C11.4894356,8.47126532 11.2758074,8.63276693 11.0339013,8.76611889 C10.7448706,8.92317787 10.4181451,9.00170618 10.0537151,9.00170618 C9.58875266,9.00170618 9.20469317,8.87650538 8.9015251,8.62610004 C8.59835703,8.37569469 8.44677527,8.02083563 8.44677527,7.56151221 C8.44677527,6.96587346 8.69024856,6.53470859 9.17720246,6.26800467 C9.44424169,6.1227992 9.83694056,6.01908257 10.3553108,5.95685165 L10.8124169,5.90351114 Z M15.5012882,4.00547773 L15.5012882,6.92587105 C15.5012882,7.2014651 15.5358457,7.40889837 15.6049618,7.54817708 C15.7274857,7.79413736 15.9678174,7.91711566 16.3259641,7.91711566 C16.7846433,7.91711566 17.0988023,7.74227905 17.2684508,7.39260057 C17.3564167,7.20294445 17.4003989,6.95254286 17.4003989,6.64138829 L17.4003989,4.00547773 L18.7622922,4.00547773 L18.7622922,8.85057471 L17.4569481,8.85057471 L17.4569481,8.16603807 L17.4405489,8.18737424 C17.4238355,8.21019205 17.3978858,8.24753027 17.3626995,8.29938937 C17.3124333,8.37347379 17.252743,8.4386671 17.183627,8.49497126 C16.9731372,8.67277388 16.7697192,8.79427051 16.5733669,8.8594648 C16.3770145,8.92465909 16.1468929,8.95725575 15.8829953,8.95725575 C15.1227189,8.95725575 14.6106396,8.69944583 14.346742,8.18381825 C14.199085,7.89933407 14.1252576,7.48002253 14.1252576,6.92587105 L14.1252576,4.00547773 L15.5012882,4.00547773 Z M19.5304189,4.95227191 L19.5304189,4.04992816 L20.2467088,4.04992816 L20.2467088,2.69863506 L21.575615,2.69863506 L21.575615,4.04992816 L22.4097158,4.04992816 L22.4097158,4.95227191 L21.575615,4.95227191 L21.575615,7.51261674 C21.575615,7.71116299 21.6023185,7.83488212 21.6557264,7.88377784 C21.7091342,7.93267356 21.872497,7.95712105 22.1458195,7.95712105 C22.1866608,7.95712105 22.2298577,7.95638022 22.2754114,7.95489853 C22.3209652,7.95341684 22.3657328,7.95119434 22.4097158,7.94823096 L22.4097158,8.89502514 L21.7735372,8.91725036 C21.1389263,8.937994 20.7053868,8.83427736 20.4729056,8.60609734 C20.322107,8.46089187 20.2467088,8.23716028 20.2467088,7.93489583 L20.2467088,4.95227191 L19.5304189,4.95227191 Z M25.2984375,4.92115661 C24.9874153,4.92115661 24.7462982,5.01301991 24.575079,5.19674928 C24.4038597,5.38047865 24.2962602,5.62939857 24.2522773,5.94351652 L26.3398853,5.94351652 C26.3178938,5.60865493 26.2102944,5.35454918 26.0170836,5.18119163 C25.8238729,5.00783408 25.5843266,4.92115661 25.2984375,4.92115661 Z M25.2984375,3.87657148 C25.7257003,3.87657148 26.1105452,3.95213646 26.4529837,4.10326868 C26.7954223,4.2544009 27.0781654,4.49294916 27.3012217,4.81892062 C27.5022866,5.10636818 27.6326626,5.43974307 27.6923537,5.81905532 C27.7269117,6.04130858 27.7410489,6.36134849 27.7347656,6.77918463 L24.2192902,6.77918463 C24.2381401,7.26517844 24.399932,7.60596167 24.7046709,7.80154454 C24.8900275,7.92304299 25.1130805,7.98379131 25.3738364,7.98379131 C25.6503006,7.98379131 25.8749243,7.909708 26.0477144,7.76153915 C26.1419636,7.68152798 26.2252157,7.57040301 26.2974734,7.42816092 L27.6687916,7.42816092 C27.6342335,7.71560848 27.4755832,8.00749672 27.1928358,8.30383441 C26.7530064,8.77501134 26.1372546,9.01059626 25.3455618,9.01059626 C24.6921011,9.01059626 24.1156192,8.81205299 23.6160987,8.41496049 C23.1165783,8.01786799 22.8668218,7.37186151 22.8668218,6.4769217 C22.8668218,5.63828604 23.092231,4.9952429 23.543056,4.54777299 C23.9938811,4.10030308 24.5790024,3.87657148 25.2984375,3.87657148 Z M31.4858627,3.88990661 C32.0167995,3.88990661 32.4511245,4.02103407 32.7888506,4.28329292 C33.1265767,4.54555178 33.2954372,4.98042081 33.2954372,5.58791307 L33.2954372,8.85057471 L31.9194066,8.85057471 L31.9194066,5.90351114 C31.9194066,5.64866072 31.8832783,5.45308078 31.8110206,5.31676545 C31.6790718,5.06784179 31.4277445,4.94338182 31.0570313,4.94338182 C30.6014937,4.94338182 30.2889054,5.12562677 30.119257,5.49012213 C30.0312911,5.68274162 29.9873088,5.92869822 29.9873088,6.22799928 L29.9873088,8.85057471 L28.6489777,8.85057471 L28.6489777,4.01436782 L29.9448969,4.01436782 L29.9448969,4.72112967 C30.117687,4.47220601 30.2810498,4.2929244 30.43499,4.18327945 C30.7114542,3.98769658 31.0617416,3.88990661 31.4858627,3.88990661 Z M35.9391124,3.42762213 L34.5960688,3.42762213 L34.5960688,2.25857579 L35.9391124,2.25857579 L35.9391124,3.42762213 Z M33.9504654,10.7930585 L33.9504654,9.77958872 L34.0978762,9.79004152 L34.0978762,9.79004152 L34.1106882,9.79070133 C34.1421045,9.79218302 34.1703789,9.79292385 34.195512,9.79292385 C34.3274608,9.79292385 34.4272063,9.76254969 34.4947515,9.70180047 C34.5622967,9.64105124 34.5960688,9.52325878 34.5960688,9.34841954 L34.5960688,4.02770295 L35.9391124,4.02770295 L35.9391124,9.37064476 C35.9391124,9.85960194 35.8370107,10.2211285 35.6328042,10.4552353 C35.435185,10.6817902 35.0536827,10.7987202 34.4882863,10.8060283 L34.4311336,10.8063937 C34.4077958,10.8063937 34.3780467,10.8059099 34.341886,10.8049422 L34.0479841,10.7955986 C34.0170809,10.7947519 33.9845746,10.7939052 33.9504654,10.7930585 Z M40.0483544,6.49470187 C39.9635302,6.54507927 39.8779218,6.5858251 39.7915268,6.61694055 C39.7051317,6.64805601 39.5865367,6.6769485 39.435738,6.70361889 L39.1341423,6.75695941 C38.8513949,6.80437344 38.6487622,6.86215842 38.5262384,6.93031609 C38.3188903,7.04588779 38.2152178,7.2251694 38.2152178,7.46816631 C38.2152178,7.68449282 38.278835,7.84080861 38.4060713,7.93711835 C38.5333077,8.0334281 38.688031,8.08158226 38.870246,8.08158226 C39.1592767,8.08158226 39.4255265,8.00157228 39.6690035,7.84154993 C39.9124804,7.68152758 40.0389295,7.38963933 40.0483544,6.96587644 L40.0483544,6.49470187 Z M39.2331034,5.90351114 C39.4812916,5.87387737 39.6587927,5.83683571 39.7656084,5.79238506 C39.9572483,5.71533726 40.0530668,5.59532229 40.0530668,5.43233657 C40.0530668,5.23379031 39.9800248,5.09673619 39.8339387,5.02117008 C39.6878525,4.94560397 39.4734389,4.90782148 39.1906915,4.90782148 C38.873386,4.90782148 38.6487623,4.98190479 38.5168135,5.13007364 C38.4225644,5.23971858 38.3597325,5.3878852 38.3283162,5.57457795 L37.0323969,5.57457795 C37.0606717,5.15081505 37.1863353,4.80262349 37.4093916,4.52999282 C37.7643967,4.10326654 38.3738654,3.88990661 39.2378158,3.88990661 C39.800169,3.88990661 40.299682,3.99510491 40.7363697,4.20550467 C41.1730574,4.41590443 41.3913979,4.81299097 41.3913979,5.39677622 L41.3913979,7.61929777 C41.3913979,7.77339337 41.3945395,7.96008331 41.4008228,8.1793732 C41.4102477,8.34532231 41.4369512,8.45792894 41.4809342,8.51719648 C41.5249171,8.57646402 41.5908905,8.625359 41.6788564,8.6638829 L41.6788564,8.85057471 L40.218002,8.85057471 C40.1771607,8.75278328 40.1488864,8.66091997 40.1331782,8.57498204 C40.11747,8.48904411 40.1049036,8.39125414 40.0954787,8.2816092 C39.9101221,8.47126532 39.6964939,8.63276693 39.4545878,8.76611889 C39.1655571,8.92317787 38.8388316,9.00170618 38.4744016,9.00170618 C38.0094392,9.00170618 37.6253797,8.87650538 37.3222116,8.62610004 C37.0190435,8.37569469 36.8674618,8.02083563 36.8674618,7.56151221 C36.8674618,6.96587346 37.1109351,6.53470859 37.597889,6.26800467 C37.8649282,6.1227992 38.2576271,6.01908257 38.7759973,5.95685165 L39.2331034,5.90351114 Z M44.1010472,3.43651221 L44.1010472,7.71264368 L45.4393783,7.71264368 C46.1242554,7.71264368 46.6017772,7.39408544 46.8719581,6.75695941 C47.0196151,6.40728094 47.0934425,5.99093273 47.0934425,5.5079023 C47.0934425,4.8411425 46.9827014,4.32922682 46.7612159,3.97213991 C46.5397304,3.61505299 46.0991223,3.43651221 45.4393783,3.43651221 L44.1010472,3.43651221 Z M45.6844249,2.29858118 C46.1148293,2.30450793 46.4729706,2.35192125 46.7588597,2.44082256 C47.2458136,2.59195478 47.6400833,2.86902636 47.9416805,3.27204562 C48.1835866,3.59801708 48.3485202,3.95065364 48.436486,4.32996588 C48.5244519,4.70927812 48.5684342,5.07080467 48.5684342,5.41455639 C48.5684342,6.2857892 48.3830803,7.02365897 48.012367,7.62818786 C47.5097049,8.4431165 46.733732,8.85057471 45.6844249,8.85057471 L42.6920296,8.85057471 L42.6920296,2.29858118 L45.6844249,2.29858118 Z M50.7125914,6.8280801 C50.7565744,7.12738117 50.8429681,7.35111276 50.9717753,7.49928161 C51.2073981,7.76894891 51.6110926,7.90378053 52.1828707,7.90378053 C52.5253092,7.90378053 52.80334,7.86822054 53.0169714,7.7970995 C53.4222427,7.66078416 53.6248753,7.40741924 53.6248753,7.03699713 C53.6248753,6.82067061 53.5243444,6.65324233 53.3232796,6.53470726 C53.132268,6.42491414 52.8377712,6.32715743 52.4397811,6.24143448 L51.6409408,6.07242277 C50.9183641,5.91832717 50.4188511,5.75089889 50.142387,5.5701329 C49.6742829,5.26786846 49.4402344,4.79521694 49.4402344,4.15216415 C49.4402344,3.56541553 49.6664289,3.07794734 50.1188248,2.68974497 C50.5712207,2.3015426 51.2356672,2.10744432 52.1121842,2.10744432 C52.8441858,2.10744432 53.468577,2.2904301 53.9853765,2.65640715 C54.502176,3.02238419 54.7731382,3.55356153 54.7982713,4.2499551 L53.403391,4.2499551 C53.3782579,3.85582597 53.1960456,3.57579106 52.8567487,3.40984195 C52.6305507,3.30019701 52.3493783,3.24537536 52.0132231,3.24537536 C51.6393681,3.24537536 51.340917,3.31649534 51.1178607,3.45873743 C50.8948044,3.60097952 50.7832779,3.79952279 50.7832779,4.0543732 C50.7832779,4.27783876 50.8834648,4.4472999 51.0838415,4.56276117 L51.1131483,4.57888829 C51.248867,4.65285418 51.5322436,4.73910853 51.9632861,4.83765375 L53.2148936,5.12118355 C53.7395472,5.23971862 54.1353876,5.39825691 54.4024269,5.59680316 C54.8171231,5.90499436 55.0244681,6.35097589 55.0244681,6.93476114 C55.0244681,7.53336327 54.7817802,8.03046228 54.2963971,8.4260731 C53.811014,8.82168391 53.1253618,9.01948635 52.2394199,9.01948635 C51.3346281,9.01948635 50.6230578,8.82464724 50.1046875,8.43496318 C49.5863172,8.04527912 49.327136,7.50965678 49.327136,6.8280801 L50.7125914,6.8280801 Z M60.0102227,4.38330639 C60.0102227,4.04251805 59.9151896,3.79952479 59.7251205,3.65431932 C59.5350514,3.50911386 59.2688016,3.43651221 58.926363,3.43651221 L57.5738946,3.43651221 L57.5738946,5.36566092 L58.926363,5.36566092 C59.2688016,5.36566092 59.5350514,5.28713261 59.7251205,5.13007364 C59.9151896,4.97301466 60.0102227,4.72409474 60.0102227,4.38330639 Z M61.447515,4.37441631 C61.447515,5.14785767 61.24017,5.69459251 60.8254737,6.01463721 C60.4107775,6.33468192 59.8185876,6.49470187 59.0488863,6.49470187 L57.5738946,6.49470187 L57.5738946,8.85057471 L56.13189,8.85057471 L56.13189,2.29858118 L59.1572723,2.29858118 C59.8547159,2.29858118 60.4107775,2.46749113 60.8254737,2.80531609 C61.24017,3.14314106 61.447515,3.66616923 61.447515,4.37441631 Z" id="KautenjaDSP"></path>
                </g>
            </g>
            <path d="M334.26,13.742 L334.26,13.706 C334.26,11.9292258 333.113694,10.894179 330.396927,10.2909001 L330.12,10.232 C327.225375,9.639125 326.493,8.86043164 326.450053,7.60135559 L326.448,7.442 C326.448,6.128 327.672,5.066 329.526,5.066 C330.912,5.066 332.1,5.462 333.288,6.488 L333.882,5.75 C332.604,4.724 331.398,4.22 329.562,4.22 C327.297484,4.22 325.622978,5.56859521 325.517302,7.35222114 L325.512,7.568 C325.512,9.41445161 326.658306,10.4348887 329.472955,11.0534661 L329.76,11.114 C332.529677,11.6714194 333.276462,12.4142706 333.32176,13.6688266 L333.324,13.832 C333.324,15.272 332.028,16.334 330.138,16.334 C328.284,16.334 327.006,15.74 325.62,14.462 L325.008,15.164 C326.52,16.514 328.068,17.18 330.084,17.18 C332.514,17.18 334.26,15.776 334.26,13.742 Z M341.55,12.158 L341.55,11.15 L336.726,11.15 L336.726,12.158 L341.55,12.158 Z M353.124,13.742 L353.124,13.706 C353.124,11.9292258 351.977694,10.894179 349.260927,10.2909001 L348.984,10.232 C346.089375,9.639125 345.357,8.86043164 345.314053,7.60135559 L345.312,7.442 C345.312,6.128 346.536,5.066 348.39,5.066 C349.776,5.066 350.964,5.462 352.152,6.488 L352.746,5.75 C351.468,4.724 350.262,4.22 348.426,4.22 C346.161484,4.22 344.486978,5.56859521 344.381302,7.35222114 L344.376,7.568 C344.376,9.41445161 345.522306,10.4348887 348.336955,11.0534661 L348.624,11.114 C351.393677,11.6714194 352.140462,12.4142706 352.18576,13.6688266 L352.188,13.832 C352.188,15.272 350.892,16.334 349.002,16.334 C347.148,16.334 345.87,15.74 344.484,14.462 L343.872,15.164 C345.384,16.514 346.932,17.18 348.948,17.18 C351.378,17.18 353.124,15.776 353.124,13.742 Z M368.082,17 L368.082,4.4 L367.2,4.4 L362.142,11.852 L357.084,4.4 L356.202,4.4 L356.202,17 L357.102,17 L357.102,6.056 L362.088,13.31 L362.16,13.31 L367.146,6.056 L367.146,17 L368.082,17 Z M381.078,8.288 L381.078,8.252 C381.078,5.822 379.17,4.4 376.398,4.4 L371.826,4.4 L371.826,17 L372.762,17 L372.762,12.302 L376.164,12.302 C378.792,12.302 381.078,10.934 381.078,8.288 Z M380.142,8.342 C380.142,10.214 378.558,11.438 376.218,11.438 L372.762,11.438 L372.762,5.264 L376.326,5.264 C378.5184,5.264 380.038,6.23956 380.136871,8.10938333 L380.142,8.342 Z M394.02,4.724 L393.642,4.13 C390.474,5.93 388.656,8.576 388.656,11.834 C388.656,15.092 390.474,17.738 393.642,19.538 L394.02,18.944 C391.176,17.198 389.592,14.84 389.592,11.834 C389.592,8.828 391.176,6.47 394.02,4.724 Z M404.478,17 L404.478,7.82 L403.596,7.82 L403.596,13.13 C403.596,15.038 402.21,16.406 400.41,16.406 C398.556,16.406 397.494,15.164 397.494,13.274 L397.494,7.82 L396.612,7.82 L396.612,13.436 C396.612,15.632 397.962,17.216 400.284,17.216 C401.958,17.216 402.984,16.37 403.596,15.29 L403.596,17 L404.478,17 Z M415.692,17 L415.692,11.384 C415.692,9.188 414.342,7.604 412.02,7.604 C410.346,7.604 409.32,8.45 408.708,9.53 L408.708,7.82 L407.826,7.82 L407.826,17 L408.708,17 L408.708,11.69 C408.708,9.782 410.094,8.414 411.894,8.414 C413.748,8.414 414.81,9.656 414.81,11.546 L414.81,17 L415.692,17 Z M427.392,17 L427.392,3.86 L426.51,3.86 L426.51,9.8 C425.754,8.648 424.566,7.604 422.73,7.604 C420.5775,7.604 418.390972,9.32240278 418.271159,12.1637222 L418.266,12.446 C418.266,15.434 420.516,17.216 422.73,17.216 C424.548,17.216 425.718,16.154 426.51,14.948 L426.51,17 L427.392,17 Z M426.564,12.428 C426.564,14.768 424.728,16.37 422.82,16.37 C420.954187,16.37 419.324871,14.9172383 419.224861,12.6335729 L419.22,12.374 C419.22,9.908 420.822,8.45 422.82,8.45 C424.668375,8.45 426.44918,9.93654687 426.558675,12.1732298 L426.564,12.428 Z M431.046,12.77 L438.66,12.77 C438.669,12.698 438.6735,12.6485 438.67575,12.60125 L438.678,12.41 C438.678,9.692 437.04,7.604 434.466,7.604 C432.052971,7.604 430.217471,9.60836245 430.114555,12.1650165 L430.11,12.428 C430.11,15.29 432.198,17.216 434.61,17.216 C436.374,17.216 437.472,16.496 438.408,15.488 L437.796,14.948 C437.04,15.758 436.068,16.388 434.646,16.388 C432.846,16.388 431.208,15.056 431.046,12.77 Z M431.046,11.978 C431.208,9.944 432.612,8.414 434.43,8.414 C436.536,8.414 437.598,10.124 437.724,11.978 L431.046,11.978 Z M446.202,8.648 L446.202,7.676 C444.384,7.604 442.854,8.792 442.134,10.43 L442.134,7.82 L441.252,7.82 L441.252,17 L442.134,17 L442.134,13.238 C442.134,10.3378824 443.880545,8.74343426 445.925329,8.65215194 L446.202,8.648 Z M462.384,17 L462.384,3.86 L461.502,3.86 L461.502,9.8 C460.746,8.648 459.558,7.604 457.722,7.604 C455.5695,7.604 453.382972,9.32240278 453.263159,12.1637222 L453.258,12.446 C453.258,15.434 455.508,17.216 457.722,17.216 C459.54,17.216 460.71,16.154 461.502,14.948 L461.502,17 L462.384,17 Z M461.556,12.428 C461.556,14.768 459.72,16.37 457.812,16.37 C455.946187,16.37 454.316871,14.9172383 454.216861,12.6335729 L454.212,12.374 C454.212,9.908 455.814,8.45 457.812,8.45 C459.660375,8.45 461.44118,9.93654687 461.550675,12.1732298 L461.556,12.428 Z M466.038,12.77 L473.652,12.77 C473.661,12.698 473.6655,12.6485 473.66775,12.60125 L473.67,12.41 C473.67,9.692 472.032,7.604 469.458,7.604 C467.044971,7.604 465.209471,9.60836245 465.106555,12.1650165 L465.102,12.428 C465.102,15.29 467.19,17.216 469.602,17.216 C471.366,17.216 472.464,16.496 473.4,15.488 L472.788,14.948 C472.032,15.758 471.06,16.388 469.638,16.388 C467.838,16.388 466.2,15.056 466.038,12.77 Z M466.038,11.978 C466.2,9.944 467.604,8.414 469.422,8.414 C471.528,8.414 472.59,10.124 472.716,11.978 L466.038,11.978 Z M483.858,7.82 L482.868,7.82 L479.358,16.01 L475.884,7.82 L474.858,7.82 L478.98,17.072 L479.736,17.072 L483.858,7.82 Z M486.036,12.77 L493.65,12.77 C493.659,12.698 493.6635,12.6485 493.66575,12.60125 L493.668,12.41 C493.668,9.692 492.03,7.604 489.456,7.604 C487.042971,7.604 485.207471,9.60836245 485.104555,12.1650165 L485.1,12.428 C485.1,15.29 487.188,17.216 489.6,17.216 C491.364,17.216 492.462,16.496 493.398,15.488 L492.786,14.948 C492.03,15.758 491.058,16.388 489.636,16.388 C487.836,16.388 486.198,15.056 486.036,12.77 Z M486.036,11.978 C486.198,9.944 487.602,8.414 489.42,8.414 C491.526,8.414 492.588,10.124 492.714,11.978 L486.036,11.978 Z M497.25,17 L497.25,3.86 L496.368,3.86 L496.368,17 L497.25,17 Z M509.526,12.41 L509.526,12.374 C509.526,9.8 507.546,7.604 504.828,7.604 C502.165946,7.604 500.202539,9.71698174 500.098354,12.2020841 L500.094,12.446 C500.094,15.02 502.074,17.216 504.792,17.216 C507.528,17.216 509.526,14.984 509.526,12.41 Z M508.572,12.446 C508.572,14.606 507.006,16.388 504.828,16.388 C502.770375,16.388 501.151957,14.7325273 501.052815,12.616204 L501.048,12.374 C501.048,10.214 502.614,8.432 504.792,8.432 C506.849625,8.432 508.468043,10.0874727 508.567185,12.203796 L508.572,12.446 Z M521.37,12.41 L521.37,12.374 C521.37,9.386 519.12,7.604 516.906,7.604 C515.088,7.604 513.918,8.666 513.126,9.872 L513.126,7.82 L512.244,7.82 L512.244,19.88 L513.126,19.88 L513.126,15.02 C513.882,16.172 515.07,17.216 516.906,17.216 C519.12,17.216 521.37,15.398 521.37,12.41 Z M520.416,12.446 C520.416,14.912 518.814,16.37 516.816,16.37 C514.967625,16.37 513.18682,14.8834531 513.077325,12.6467702 L513.072,12.392 C513.072,10.052 514.908,8.45 516.816,8.45 C518.681812,8.45 520.311129,9.90276172 520.411139,12.1864271 L520.416,12.446 Z M538.002,17 L538.002,11.438 C538.002,9.134 536.652,7.604 534.474,7.604 C532.746,7.604 531.756,8.558 531.162,9.584 C530.658,8.522 529.668,7.604 528.066,7.604 C526.428,7.604 525.6,8.504 525.006,9.458 L525.006,7.82 L524.124,7.82 L524.124,17 L525.006,17 L525.006,11.708 C525.006,9.854 526.302,8.414 527.94,8.414 C529.578,8.414 530.622,9.584 530.622,11.492 L530.622,17 L531.504,17 L531.504,11.654 C531.504,9.602 532.854,8.414 534.402,8.414 C536.094,8.414 537.12,9.566 537.12,11.546 L537.12,17 L538.002,17 Z M541.548,12.77 L549.162,12.77 C549.171,12.698 549.1755,12.6485 549.17775,12.60125 L549.18,12.41 C549.18,9.692 547.542,7.604 544.968,7.604 C542.554971,7.604 540.719471,9.60836245 540.616555,12.1650165 L540.612,12.428 C540.612,15.29 542.7,17.216 545.112,17.216 C546.876,17.216 547.974,16.496 548.91,15.488 L548.298,14.948 C547.542,15.758 546.57,16.388 545.148,16.388 C543.348,16.388 541.71,15.056 541.548,12.77 Z M541.548,11.978 C541.71,9.944 543.114,8.414 544.932,8.414 C547.038,8.414 548.1,10.124 548.226,11.978 L541.548,11.978 Z M559.62,17 L559.62,11.384 C559.62,9.188 558.27,7.604 555.948,7.604 C554.274,7.604 553.248,8.45 552.636,9.53 L552.636,7.82 L551.754,7.82 L551.754,17 L552.636,17 L552.636,11.69 C552.636,9.782 554.022,8.414 555.822,8.414 C557.676,8.414 558.738,9.656 558.738,11.546 L558.738,17 L559.62,17 Z M567.342,16.838 L567.342,16.01 C566.82,16.244 566.442,16.334 565.992,16.334 C564.93,16.334 564.156,15.866 564.156,14.552 L564.156,8.63 L567.378,8.63 L567.378,7.82 L564.156,7.82 L564.156,4.886 L563.274,4.886 L563.274,7.82 L561.942,7.82 L561.942,8.63 L563.274,8.63 L563.274,14.642 C563.274,16.388 564.426,17.162 565.848,17.162 C566.424,17.162 566.874,17.054 567.342,16.838 Z M569.412,4.724 L569.79,4.13 C572.958,5.93 574.776,8.576 574.776,11.834 C574.776,15.092 572.958,17.738 569.79,19.538 L569.412,18.944 C572.256,17.198 573.84,14.84 573.84,11.834 C573.84,8.828 572.256,6.47 569.412,4.724 Z" id="S-SMP(underdevelopment)" fill="#B3B3B3"></path>
        </g>
    </g>
</svg>