<?xml version="1.0" encoding="UTF-8"?>
<svg width="240px" height="380px" viewBox="0 0 240 380" version="1.1" xmlns="http://www.w3.org/2000/svg" xmlns:xlink="http://www.w3.org/1999/xlink">
    <!-- Generator: Sketch 58 (84663) - https://sketch.com -->
    <title>S-SMP-ADSR-Light</title>
    <desc>Created with Sketch.</desc>
    <g id="S-SMP-ADSR-Light" stroke="none" stroke-width="1" fill="none" fill-rule="evenodd">
        <g id="bg" fill-rule="nonzero">
            <g fill="#C5C6BF" id="Background">
                <rect x="0" y="0" width="240" height="380" rx="1"></rect>
            </g>
            <g id="Logo/Panel/LightMode" transform="translate(88.000000, 364.000000)" fill="#000000">
                <g id="Logo/Print/LightMode" transform="translate(0.000000, -0.000000)">
                    <path d="M1.95775432,2.21673387 L3.38562168,2.21673387 L3.38562168,4.9702621 L6.06699634,2.21673387 L7.94254488,2.21673387 L5.09623504,4.9702621 L8.08863032,8.90322581 L6.22250665,8.90322581 L4.0783494,5.98185484 L3.38562168,6.66683468 L3.38562168,8.90322581 L1.95775432,8.90322581 L1.95775432,2.21673387 Z M11.6276679,6.49899194 C11.5428437,6.55040348 11.4572353,6.59198573 11.3708403,6.62373992 C11.2844452,6.65549411 11.1658502,6.6849797 11.0150515,6.71219758 L10.7134558,6.76663306 C10.4307084,6.8150204 10.2280757,6.87399159 10.1055519,6.94354839 C9.89820375,7.06149253 9.79453125,7.24445441 9.79453125,7.49243952 C9.79453125,7.71320675 9.85814847,7.87273136 9.98538481,7.97101815 C10.1126211,8.06930493 10.2673445,8.11844758 10.4495595,8.11844758 C10.7385902,8.11844758 11.00484,8.03679517 11.248317,7.8734879 C11.4917939,7.71018064 11.618243,7.41230055 11.6276679,6.97983871 L11.6276679,6.49899194 Z M10.8124169,5.89566532 C11.0606051,5.86542324 11.2381062,5.82762119 11.3449219,5.78225806 C11.5365618,5.70362864 11.6323803,5.58115003 11.6323803,5.41481855 C11.6323803,5.21219657 11.5593383,5.07232901 11.4132522,4.99521169 C11.267166,4.91809437 11.0527524,4.87953629 10.770005,4.87953629 C10.4526995,4.87953629 10.2280758,4.95514037 10.096127,5.10635081 C10.0018779,5.21824653 9.93904603,5.36945469 9.90762965,5.55997984 L8.61171044,5.55997984 C8.63998518,5.127518 8.76564882,4.77217881 8.98870512,4.49395161 C9.34371022,4.05846556 9.95317886,3.84072581 10.8171293,3.84072581 C11.3794825,3.84072581 11.8789955,3.9480836 12.3156832,4.16280242 C12.7523709,4.37752123 12.9707114,4.78275912 12.9707114,5.37852823 L12.9707114,7.64667339 C12.9707114,7.80393224 12.973853,7.99445453 12.9801363,8.21824597 C12.9895612,8.38760165 13.0162647,8.50251986 13.0602477,8.56300403 C13.1042306,8.62348821 13.170204,8.6733869 13.2581699,8.71270161 L13.2581699,8.90322581 L11.7973155,8.90322581 C11.7564742,8.80342692 11.7281999,8.70967786 11.7124917,8.62197581 C11.6967835,8.53427376 11.6842171,8.43447637 11.6747922,8.32258065 C11.4894356,8.51613 11.2758074,8.6809469 11.0339013,8.81703629 C10.7448706,8.97731935 10.4181451,9.05745968 10.0537151,9.05745968 C9.58875266,9.05745968 9.20469317,8.92968878 8.9015251,8.67414315 C8.59835703,8.41859751 8.44677527,8.05645396 8.44677527,7.58770161 C8.44677527,6.97983567 8.69024856,6.53981991 9.17720246,6.26764113 C9.44424169,6.1194549 9.83694056,6.01360919 10.3553108,5.95010081 L10.8124169,5.89566532 Z M15.5012882,3.95866935 L15.5012882,6.9390121 C15.5012882,7.2202635 15.5358457,7.43195493 15.6049618,7.57409274 C15.7274857,7.82510206 15.9678174,7.95060484 16.3259641,7.95060484 C16.7846433,7.95060484 17.0988023,7.7721792 17.2684508,7.41532258 C17.3564167,7.22177323 17.4003989,6.96623143 17.4003989,6.64868952 L17.4003989,3.95866935 L18.7622922,3.95866935 L18.7622922,8.90322581 L17.4569481,8.90322581 L17.4569481,8.2046371 L17.4405489,8.22641125 C17.4238355,8.24969746 17.3978858,8.28780215 17.3626995,8.34072581 C17.3124333,8.41633102 17.252743,8.48286262 17.183627,8.54032258 C16.9731372,8.7217751 16.7697192,8.8457658 16.5733669,8.91229839 C16.3770145,8.97883098 16.1468929,9.01209677 15.8829953,9.01209677 C15.1227189,9.01209677 14.6106396,8.74899457 14.346742,8.22278226 C14.199085,7.93245823 14.1252576,7.50453912 14.1252576,6.9390121 L14.1252576,3.95866935 L15.5012882,3.95866935 Z M19.5304189,4.92489919 L19.5304189,4.00403226 L20.2467088,4.00403226 L20.2467088,2.625 L21.575615,2.625 L21.575615,4.00403226 L22.4097158,4.00403226 L22.4097158,4.92489919 L21.575615,4.92489919 L21.575615,7.53780242 C21.575615,7.7404244 21.6023185,7.86668322 21.6557264,7.91658266 C21.7091342,7.9664821 21.872497,7.99143145 22.1458195,7.99143145 C22.1866608,7.99143145 22.2298577,7.99067541 22.2754114,7.98916331 C22.3209652,7.9876512 22.3657328,7.98538308 22.4097158,7.98235887 L22.4097158,8.94858871 L21.7735372,8.97127016 C21.1389263,8.99243962 20.7053868,8.88659391 20.4729056,8.65372984 C20.322107,8.50554361 20.2467088,8.27721928 20.2467088,7.96875 L20.2467088,4.92489919 L19.5304189,4.92489919 Z M25.2984375,4.89314516 C24.9874153,4.89314516 24.7462982,4.98689422 24.575079,5.17439516 C24.4038597,5.3618961 24.2962602,5.61592582 24.2522773,5.93649194 L26.3398853,5.93649194 C26.3178938,5.59475636 26.2102944,5.33543435 26.0170836,5.15851815 C25.8238729,4.98160194 25.5843266,4.89314516 25.2984375,4.89314516 Z M25.2984375,3.82711694 C25.7257003,3.82711694 26.1105452,3.9042331 26.4529837,4.05846774 C26.7954223,4.21270238 27.0781654,4.45614753 27.3012217,4.78881048 C27.5022866,5.08215872 27.6326626,5.4223771 27.6923537,5.80947581 C27.7269117,6.03629146 27.7410489,6.36290109 27.7347656,6.78931452 L24.2192902,6.78931452 C24.2381401,7.28528474 24.399932,7.63306352 24.7046709,7.83266129 C24.8900275,7.95665385 25.1130805,8.01864919 25.3738364,8.01864919 C25.6503006,8.01864919 25.8749243,7.94304511 26.0477144,7.79183468 C26.1419636,7.71018104 26.2252157,7.59677492 26.2974734,7.4516129 L27.6687916,7.4516129 C27.6342335,7.74496114 27.4755832,8.04284123 27.1928358,8.3452621 C26.7530064,8.82611128 26.1372546,9.06653226 25.3455618,9.06653226 C24.6921011,9.06653226 24.1156192,8.86391332 23.6160987,8.45866935 C23.1165783,8.05342539 22.8668218,7.39415779 22.8668218,6.48084677 C22.8668218,5.62499572 23.092231,4.96875228 23.543056,4.51209677 C23.9938811,4.05544127 24.5790024,3.82711694 25.2984375,3.82711694 Z M31.4858627,3.84072581 C32.0167995,3.84072581 32.4511245,3.97454503 32.7888506,4.2421875 C33.1265767,4.50982997 33.2954372,4.95362593 33.2954372,5.57358871 L33.2954372,8.90322581 L31.9194066,8.90322581 L31.9194066,5.89566532 C31.9194066,5.63558338 31.8832783,5.4359886 31.8110206,5.296875 C31.6790718,5.04284147 31.4277445,4.91582661 31.0570313,4.91582661 C30.6014937,4.91582661 30.2889054,5.10181266 30.119257,5.47379032 C30.0312911,5.67036389 29.9873088,5.92136944 29.9873088,6.22681452 L29.9873088,8.90322581 L28.6489777,8.90322581 L28.6489777,3.96774194 L29.9448969,3.96774194 L29.9448969,4.6890121 C30.117687,4.43497857 30.2810498,4.25201669 30.43499,4.14012097 C30.7114542,3.9405232 31.0617416,3.84072581 31.4858627,3.84072581 Z M35.9391124,3.36895161 L34.5960688,3.36895161 L34.5960688,2.17590726 L35.9391124,2.17590726 L35.9391124,3.36895161 Z M33.9504654,10.8855847 L33.9504654,9.85131048 L34.0978762,9.86197785 L34.0978762,9.86197785 L34.1106882,9.86265121 C34.1421045,9.86416331 34.1703789,9.86491935 34.195512,9.86491935 C34.3274608,9.86491935 34.4272063,9.83392168 34.4947515,9.7719254 C34.5622967,9.70992913 34.5960688,9.58971863 34.5960688,9.41129032 L34.5960688,3.98135081 L35.9391124,3.98135081 L35.9391124,9.43397177 C35.9391124,9.9329662 35.8370107,10.3019141 35.6328042,10.5408266 C35.435185,10.7720322 35.0536827,10.8913625 34.4882863,10.8988206 L34.4311336,10.8991935 C34.4077958,10.8991935 34.3780467,10.8986998 34.341886,10.8977123 L34.0479841,10.8881768 C34.0170809,10.8873128 33.9845746,10.8864487 33.9504654,10.8855847 Z M40.0483544,6.49899194 C39.9635302,6.55040348 39.8779218,6.59198573 39.7915268,6.62373992 C39.7051317,6.65549411 39.5865367,6.6849797 39.435738,6.71219758 L39.1341423,6.76663306 C38.8513949,6.8150204 38.6487622,6.87399159 38.5262384,6.94354839 C38.3188903,7.06149253 38.2152178,7.24445441 38.2152178,7.49243952 C38.2152178,7.71320675 38.278835,7.87273136 38.4060713,7.97101815 C38.5333077,8.06930493 38.688031,8.11844758 38.870246,8.11844758 C39.1592767,8.11844758 39.4255265,8.03679517 39.6690035,7.8734879 C39.9124804,7.71018064 40.0389295,7.41230055 40.0483544,6.97983871 L40.0483544,6.49899194 Z M39.2331034,5.89566532 C39.4812916,5.86542324 39.6587927,5.82762119 39.7656084,5.78225806 C39.9572483,5.70362864 40.0530668,5.58115003 40.0530668,5.41481855 C40.0530668,5.21219657 39.9800248,5.07232901 39.8339387,4.99521169 C39.6878525,4.91809437 39.4734389,4.87953629 39.1906915,4.87953629 C38.873386,4.87953629 38.6487623,4.95514037 38.5168135,5.10635081 C38.4225644,5.21824653 38.3597325,5.36945469 38.3283162,5.55997984 L37.0323969,5.55997984 C37.0606717,5.127518 37.1863353,4.77217881 37.4093916,4.49395161 C37.7643967,4.05846556 38.3738654,3.84072581 39.2378158,3.84072581 C39.800169,3.84072581 40.299682,3.9480836 40.7363697,4.16280242 C41.1730574,4.37752123 41.3913979,4.78275912 41.3913979,5.37852823 L41.3913979,7.64667339 C41.3913979,7.80393224 41.3945395,7.99445453 41.4008228,8.21824597 C41.4102477,8.38760165 41.4369512,8.50251986 41.4809342,8.56300403 C41.5249171,8.62348821 41.5908905,8.6733869 41.6788564,8.71270161 L41.6788564,8.90322581 L40.218002,8.90322581 C40.1771607,8.80342692 40.1488864,8.70967786 40.1331782,8.62197581 C40.11747,8.53427376 40.1049036,8.43447637 40.0954787,8.32258065 C39.9101221,8.51613 39.6964939,8.6809469 39.4545878,8.81703629 C39.1655571,8.97731935 38.8388316,9.05745968 38.4744016,9.05745968 C38.0094392,9.05745968 37.6253797,8.92968878 37.3222116,8.67414315 C37.0190435,8.41859751 36.8674618,8.05645396 36.8674618,7.58770161 C36.8674618,6.97983567 37.1109351,6.53981991 37.597889,6.26764113 C37.8649282,6.1194549 38.2576271,6.01360919 38.7759973,5.95010081 L39.2331034,5.89566532 Z M44.1010472,3.37802419 L44.1010472,7.74193548 L45.4393783,7.74193548 C46.1242554,7.74193548 46.6017772,7.41683793 46.8719581,6.76663306 C47.0196151,6.40977644 47.0934425,5.9848815 47.0934425,5.49193548 C47.0934425,4.81148853 46.9827014,4.28906432 46.7612159,3.92464718 C46.5397304,3.56023003 46.0991223,3.37802419 45.4393783,3.37802419 L44.1010472,3.37802419 Z M45.6844249,2.21673387 C46.1148293,2.22278229 46.4729706,2.2711689 46.7588597,2.36189516 C47.2458136,2.5161298 47.6400833,2.79888907 47.9416805,3.21018145 C48.1835866,3.54284441 48.3485202,3.90271984 48.436486,4.28981855 C48.5244519,4.67691726 48.5684342,5.04586518 48.5684342,5.39667339 C48.5684342,6.28579074 48.3830803,7.0388074 48.012367,7.65574597 C47.5097049,8.48740335 46.733732,8.90322581 45.6844249,8.90322581 L42.6920296,8.90322581 L42.6920296,2.21673387 L45.6844249,2.21673387 Z M50.7125914,6.83921371 C50.7565744,7.14465879 50.8429681,7.37298311 50.9717753,7.52419355 C51.2073981,7.79939654 51.6110926,7.93699597 52.1828707,7.93699597 C52.5253092,7.93699597 52.80334,7.90070601 53.0169714,7.828125 C53.4222427,7.6890114 53.6248753,7.43044544 53.6248753,7.05241935 C53.6248753,6.83165212 53.5243444,6.6607869 53.3232796,6.53981855 C53.132268,6.42777162 52.8377712,6.32800817 52.4397811,6.24052551 L51.6409408,6.06804435 C50.9183641,5.9107855 50.4188511,5.73992028 50.142387,5.55544355 C49.6742829,5.24697426 49.4402344,4.76462022 49.4402344,4.10836694 C49.4402344,3.50957362 49.6664289,3.01209876 50.1188248,2.61592742 C50.5712207,2.21975608 51.2356672,2.02167339 52.1121842,2.02167339 C52.8441858,2.02167339 53.468577,2.20841547 53.9853765,2.58190524 C54.502176,2.95539501 54.7731382,3.49747629 54.7982713,4.20816532 L53.403391,4.20816532 C53.3782579,3.80594557 53.1960456,3.52016214 52.8567487,3.35080645 C52.6305507,3.23891073 52.3493783,3.18296371 52.0132231,3.18296371 C51.6393681,3.18296371 51.340917,3.25554363 51.1178607,3.40070565 C50.8948044,3.54586766 50.7832779,3.7484866 50.7832779,4.00856855 C50.7832779,4.23662137 50.8834648,4.40956118 51.0838415,4.52739263 L51.1131483,4.54385081 C51.248867,4.61933505 51.5322436,4.70736003 51.9632861,4.80792817 L53.2148936,5.09727823 C53.7395472,5.21824657 54.1353876,5.38003931 54.4024269,5.58266129 C54.8171231,5.89717899 55.0244681,6.35231557 55.0244681,6.94808468 C55.0244681,7.55897483 54.7817802,8.06627822 54.2963971,8.47001008 C53.811014,8.87374194 53.1253618,9.07560484 52.2394199,9.07560484 C51.3346281,9.07560484 50.6230578,8.8767661 50.1046875,8.47908266 C49.5863172,8.08139922 49.327136,7.5347817 49.327136,6.83921371 L50.7125914,6.83921371 Z M60.0102227,4.34425403 C60.0102227,3.99647004 59.9151896,3.74848864 59.7251205,3.60030242 C59.5350514,3.45211619 59.2688016,3.37802419 58.926363,3.37802419 L57.5738946,3.37802419 L57.5738946,5.34677419 L58.926363,5.34677419 C59.2688016,5.34677419 59.5350514,5.26663387 59.7251205,5.10635081 C59.9151896,4.94606775 60.0102227,4.69203803 60.0102227,4.34425403 Z M61.447515,4.33518145 C61.447515,5.12449991 61.24017,5.68245804 60.8254737,6.00907258 C60.4107775,6.33568712 59.8185876,6.49899194 59.0488863,6.49899194 L57.5738946,6.49899194 L57.5738946,8.90322581 L56.13189,8.90322581 L56.13189,2.21673387 L59.1572723,2.21673387 C59.8547159,2.21673387 60.4107775,2.38911118 60.8254737,2.73387097 C61.24017,3.07863076 61.447515,3.61239558 61.447515,4.33518145 Z" id="KautenjaDSP"></path>
                </g>
            </g>
            <path d="M80.4341016,12.9511719 L82.0551953,12.9511719 L81.5278516,15.9492188 L81.5278516,15.9980469 C81.5278516,16.1087245 81.5669137,16.2063798 81.6450391,16.2910156 C81.7231645,16.3756515 81.8175646,16.4179688 81.9282422,16.4179688 L82.8266797,16.4179688 C82.9699096,16.4179688 83.1001166,16.3723963 83.2173047,16.28125 C83.3410032,16.1835933 83.4158723,16.0664069 83.4419141,15.9296875 L83.7934766,13.9570312 C83.8064975,13.8984372 83.8130078,13.8365889 83.8130078,13.7714844 C83.8130078,13.548269 83.7269117,13.2676591 83.5547174,12.9296482 L81.7524609,9.55273438 L81.7524609,9.55273438 C81.5050639,9.06445068 81.3813672,8.58593984 81.3813672,8.1171875 L81.3813672,8.02929688 C81.3813672,7.91861924 81.3911327,7.80468809 81.4106641,7.6875 L81.8305859,5.265625 C81.8956904,4.90103984 82.0779803,4.5983085 82.3774609,4.35742188 C82.6639207,4.11653525 82.9926935,3.99609375 83.3637891,3.99609375 L85.7075391,3.99609375 C86.0460824,3.99609375 86.3390482,4.11979043 86.5864453,4.3671875 C86.8403528,4.61458457 86.9673047,4.92057109 86.9673047,5.28515625 C86.9673047,5.34158014 86.9644112,5.39076975 86.9586242,5.43272567 L86.3325391,8.92773438 L84.6919141,8.92773438 L85.2094922,6.03710938 C85.2225131,6.01757803 85.2290234,5.99153662 85.2290234,5.95898438 C85.2290234,5.86132764 85.1867062,5.77018271 85.1020703,5.68554688 C85.0174345,5.61393193 84.9197792,5.578125 84.8091016,5.578125 L83.9106641,5.578125 C83.7674342,5.578125 83.6404823,5.62369746 83.5298047,5.71484375 C83.4191271,5.79947959 83.3507684,5.90690039 83.3247266,6.03710938 L83.0415234,7.58984375 C83.0219921,7.70703184 83.0122266,7.82747334 83.0122266,7.95117188 C83.0122266,8.40690332 83.1619646,8.87890381 83.4614453,9.3671875 L84.0160703,10.2798328 C84.7690742,11.5316108 85.1668783,12.2560359 85.2094922,12.453125 C85.3787639,12.7656266 85.4633984,13.10742 85.4633984,13.4785156 C85.456888,13.6477873 85.4373569,13.826822 85.4048047,14.015625 L84.9067578,16.7207031 C84.8416533,17.0852883 84.6626187,17.3912748 84.3696484,17.6386719 C84.0766782,17.8795585 83.7413951,18 83.3637891,18 L81.0298047,18 C80.6847509,18 80.3950402,17.8763033 80.1606641,17.6289062 C79.9327983,17.3815092 79.8188672,17.0787778 79.8188672,16.7207031 L79.8188672,16.4960938 L80.4341016,12.9511719 Z M94.2405859,12.92 L94.2405859,10.88 L88.7605859,10.88 L88.7605859,12.92 L94.2405859,12.92 Z M96.4635547,12.9511719 L98.0846484,12.9511719 L97.5573047,15.9492188 L97.5573047,15.9980469 C97.5573047,16.1087245 97.5963668,16.2063798 97.6744922,16.2910156 C97.7526176,16.3756515 97.8470177,16.4179688 97.9576953,16.4179688 L98.8561328,16.4179688 C98.9993627,16.4179688 99.1295697,16.3723963 99.2467578,16.28125 C99.3704563,16.1835933 99.4453254,16.0664069 99.4713672,15.9296875 L99.8229297,13.9570312 C99.8359506,13.8984372 99.8424609,13.8365889 99.8424609,13.7714844 C99.8424609,13.548269 99.7563649,13.2676591 99.5841705,12.9296482 L98.6608203,11.2128906 L98.6608203,11.2128906 L97.7819141,9.55273438 L97.7819141,9.55273438 C97.534517,9.06445068 97.4108203,8.58593984 97.4108203,8.1171875 L97.4108203,8.02929688 C97.4108203,7.91861924 97.4205858,7.80468809 97.4401172,7.6875 L97.8600391,5.265625 C97.9251436,4.90103984 98.1074334,4.5983085 98.4069141,4.35742188 C98.6933738,4.11653525 99.0221466,3.99609375 99.3932422,3.99609375 L101.736992,3.99609375 C102.075536,3.99609375 102.368501,4.11979043 102.615898,4.3671875 C102.869806,4.61458457 102.996758,4.92057109 102.996758,5.28515625 C102.996758,5.34158014 102.993864,5.39076975 102.988077,5.43272567 L102.361992,8.92773438 L100.721367,8.92773438 L101.238945,6.03710938 C101.251966,6.01757803 101.258477,5.99153662 101.258477,5.95898438 C101.258477,5.86132764 101.216159,5.77018271 101.131523,5.68554688 C101.046888,5.61393193 100.949232,5.578125 100.838555,5.578125 L99.9401172,5.578125 C99.7968873,5.578125 99.6699354,5.62369746 99.5592578,5.71484375 C99.4485802,5.79947959 99.3802215,5.90690039 99.3541797,6.03710938 L99.0709766,7.58984375 C99.0514452,7.70703184 99.0416797,7.82747334 99.0416797,7.95117188 C99.0416797,8.40690332 99.1914178,8.87890381 99.4908984,9.3671875 L100.045523,10.2798328 C100.798527,11.5316108 101.196331,12.2560359 101.238945,12.453125 C101.408217,12.7656266 101.492852,13.10742 101.492852,13.4785156 C101.486341,13.6477873 101.46681,13.826822 101.434258,14.015625 L100.936211,16.7207031 C100.871106,17.0852883 100.692072,17.3912748 100.399102,17.6386719 C100.106131,17.8795585 99.7708482,18 99.3932422,18 L97.0592578,18 C96.714204,18 96.4244934,17.8763033 96.1901172,17.6289062 C95.9622515,17.3815092 95.8483203,17.0787778 95.8483203,16.7207031 L95.8483203,16.4960938 L96.4635547,12.9511719 Z M104.393242,3.99609375 L106.404961,3.99609375 L106.297539,14.0839844 L109.676445,3.99609375 L112.000664,3.99609375 L109.461602,18 L107.772148,18 L109.324883,9.25976562 L106.375664,18 L104.949883,18 L105.057305,9.15234375 L103.533867,18 L101.844414,18 L104.393242,3.99609375 Z M113.172539,3.99609375 L116.85418,3.99609375 C117.199233,3.99609375 117.495454,4.12304561 117.742852,4.37695312 C117.983738,4.61783975 118.10418,4.89452969 118.10418,5.20703125 C118.10418,5.26345514 118.099839,5.32421871 118.091159,5.38932278 L117.176445,10.4511719 C117.111341,10.8222675 116.935561,11.128254 116.649102,11.3691406 C116.362642,11.6100272 116.033869,11.7304688 115.662773,11.7304688 L113.465508,11.7304688 L112.32293,18.0097656 L110.633477,18.0097656 L113.172539,3.99609375 Z M115.096367,10.1484375 C115.239597,10.1484375 115.366549,10.102865 115.477227,10.0117188 C115.581394,9.92708291 115.646497,9.81640693 115.672539,9.6796875 L116.365898,6.03710938 L116.365898,5.97851562 C116.365898,5.86132754 116.326836,5.76367227 116.248711,5.68554688 C116.170586,5.61393193 116.076185,5.578125 115.965508,5.578125 L114.569023,5.578125 L113.719414,10.1484375 L115.096367,10.1484375 Z M122.856992,12.6 C122.856992,9.7 123.676992,6.26 125.836992,4.32 C125.836992,4.14 125.736992,3.96 125.496992,3.94 C122.376992,5.64 120.916992,9.2 120.916992,12.6 C120.916992,16 122.376992,19.56 125.496992,21.26 C125.736992,21.24 125.836992,21.06 125.836992,20.88 C123.676992,18.94 122.856992,15.5 122.856992,12.6 Z M126.359258,18 L130.978398,3.99609375 L132.658086,3.99609375 L132.218633,18 L130.626836,18 L130.744023,15.6953125 L128.829961,15.6953125 L128.146367,18 L126.359258,18 Z M130.822148,14.1132812 L131.134648,7.91210938 L129.298711,14.1132812 L130.822148,14.1132812 Z M133.165898,18 L135.704961,3.99609375 L139.503789,3.99609375 C139.855353,3.99609375 140.154829,4.12304561 140.402227,4.37695312 C140.636603,4.61783975 140.753789,4.89127451 140.753789,5.19726562 C140.753789,5.28190146 140.744024,5.37955674 140.724492,5.49023438 L138.703008,16.7207031 C138.637903,17.0852883 138.462124,17.3912748 138.175664,17.6386719 C137.889204,17.8795585 137.560432,18 137.189336,18 L133.165898,18 Z M136.62293,16.4179688 C136.76616,16.4179688 136.893111,16.3723963 137.003789,16.28125 C137.107956,16.1901037 137.17306,16.0729174 137.199102,15.9296875 L139.005742,6.03710938 C139.012253,6.01757803 139.015508,5.9947918 139.015508,5.96875 C139.015508,5.85807236 138.976446,5.76367227 138.89832,5.68554688 C138.820195,5.61393193 138.72254,5.578125 138.605352,5.578125 L137.09168,5.578125 L135.109258,16.4179688 L136.62293,16.4179688 Z M140.636602,12.9511719 L142.257695,12.9511719 L141.730352,15.9492188 L141.730352,15.9980469 C141.730352,16.1087245 141.769414,16.2063798 141.847539,16.2910156 C141.925664,16.3756515 142.020065,16.4179688 142.130742,16.4179688 L143.02918,16.4179688 C143.17241,16.4179688 143.302617,16.3723963 143.419805,16.28125 C143.543503,16.1835933 143.618372,16.0664069 143.644414,15.9296875 L143.995977,13.9570312 C144.008997,13.8984372 144.015508,13.8365889 144.015508,13.7714844 C144.015508,13.548269 143.929412,13.2676591 143.757217,12.9296482 L142.833867,11.2128906 L142.833867,11.2128906 L141.954961,9.55273438 L141.954961,9.55273438 C141.707564,9.06445068 141.583867,8.58593984 141.583867,8.1171875 L141.583867,8.02929688 C141.583867,7.91861924 141.593633,7.80468809 141.613164,7.6875 L142.033086,5.265625 C142.09819,4.90103984 142.28048,4.5983085 142.579961,4.35742188 C142.866421,4.11653525 143.195193,3.99609375 143.566289,3.99609375 L145.910039,3.99609375 C146.248582,3.99609375 146.541548,4.11979043 146.788945,4.3671875 C147.042853,4.61458457 147.169805,4.92057109 147.169805,5.28515625 C147.169805,5.34158014 147.166911,5.39076975 147.161124,5.43272567 L146.535039,8.92773438 L144.894414,8.92773438 L145.411992,6.03710938 C145.425013,6.01757803 145.431523,5.99153662 145.431523,5.95898438 C145.431523,5.86132764 145.389206,5.77018271 145.30457,5.68554688 C145.219934,5.61393193 145.122279,5.578125 145.011602,5.578125 L144.113164,5.578125 C143.969934,5.578125 143.842982,5.62369746 143.732305,5.71484375 C143.621627,5.79947959 143.553268,5.90690039 143.527227,6.03710938 L143.244023,7.58984375 C143.224492,7.70703184 143.214727,7.82747334 143.214727,7.95117188 C143.214727,8.40690332 143.364465,8.87890381 143.663945,9.3671875 L144.21857,10.2798328 C144.971574,11.5316108 145.369378,12.2560359 145.411992,12.453125 C145.581264,12.7656266 145.665898,13.10742 145.665898,13.4785156 C145.659388,13.6477873 145.639857,13.826822 145.607305,14.015625 L145.109258,16.7207031 C145.044153,17.0852883 144.865119,17.3912748 144.572148,17.6386719 C144.279178,17.8795585 143.943895,18 143.566289,18 L141.232305,18 C140.887251,18 140.59754,17.8763033 140.363164,17.6289062 C140.135298,17.3815092 140.021367,17.0787778 140.021367,16.7207031 L140.021367,16.4960938 L140.636602,12.9511719 Z M146.027227,18 L148.536992,3.99609375 L152.296758,3.99609375 C152.635301,3.99609375 152.928267,4.11979043 153.175664,4.3671875 C153.423061,4.60807412 153.553268,4.90429512 153.566289,5.25585938 L153.527227,5.49023438 L153.527227,5.49023438 L152.745977,9.90429688 C152.635299,10.5162791 152.273974,10.9069002 151.661992,11.0761719 C151.889858,11.1608077 152.062382,11.3105458 152.17957,11.5253906 C152.270717,11.6946623 152.316289,11.8834625 152.316289,12.0917969 C152.316289,12.13737 152.313034,12.1861977 152.306523,12.2382812 L152.302183,12.4032118 C152.300736,12.4256365 152.298928,12.4455294 152.296758,12.4628906 L151.281133,18 L149.562383,18 L150.587773,12.2675781 L150.587773,12.21875 C150.587773,12.1080724 150.548711,12.0136723 150.470586,11.9355469 C150.392461,11.8574215 150.29806,11.8183594 150.187383,11.8183594 L148.829961,11.8183594 L147.736211,18 L146.027227,18 Z M149.132695,10.1484375 L150.490117,10.1484375 C150.633347,10.1484375 150.760299,10.0996099 150.870977,10.0019531 C150.975144,9.91080684 151.040247,9.79687568 151.066289,9.66015625 L151.730352,6.03710938 L151.730352,5.97851562 C151.730352,5.86132754 151.691289,5.76367227 151.613164,5.68554688 C151.528528,5.61393193 151.427618,5.578125 151.31043,5.578125 L149.962773,5.578125 L149.132695,10.1484375 Z M158.188867,12.6 C158.188867,9 157.088867,6.32 155.108867,4.24 C155.108867,4.04 155.188867,3.96 155.388867,3.94 C157.848867,5.56 159.508867,8.86 159.508867,12.6 C159.508867,16.34 157.848867,19.64 155.388867,21.26 C155.188867,21.24 155.108867,21.16 155.108867,20.96 C157.088867,18.88 158.188867,16.2 158.188867,12.6 Z" id="S-SMP(ADSR)" fill="#FF5050"></path>
        </g>
        <g id="right" transform="translate(15.000000, 196.000000)">
            <g id="Sliders" transform="translate(41.000000, 107.000000)" fill="#FF5050" fill-rule="nonzero">
                <g id="text">
                    <path d="M142.136914,5.97070312 L143.10957,5.97070312 L142.793164,7.76953125 L142.793164,7.79882812 C142.793164,7.86523471 142.816601,7.92382787 142.863477,7.97460938 C142.910352,8.02539088 142.966992,8.05078125 143.033398,8.05078125 L143.572461,8.05078125 C143.658399,8.05078125 143.736523,8.02343777 143.806836,7.96875 C143.881055,7.91015596 143.925976,7.83984416 143.941602,7.7578125 L144.152539,6.57421875 C144.160352,6.53906232 144.164258,6.50195332 144.164258,6.46289062 C144.164258,6.33789 144.119258,6.18289117 144.029258,5.99789103 L142.92793,3.93164062 L142.92793,3.93164062 C142.779491,3.63867041 142.705273,3.35156391 142.705273,3.0703125 L142.705273,3.01757812 C142.705273,2.95117154 142.711133,2.88281285 142.722852,2.8125 L142.974805,1.359375 C143.013867,1.14062391 143.123241,0.958985098 143.30293,0.814453125 C143.474806,0.669921152 143.672069,0.59765625 143.894727,0.59765625 L145.300977,0.59765625 C145.504103,0.59765625 145.679882,0.671874258 145.82832,0.8203125 C145.980665,0.968750742 146.056836,1.15234266 146.056836,1.37109375 C146.056836,1.42187525 146.05293,1.46289047 146.045117,1.49414062 L145.675977,3.55664062 L144.691602,3.55664062 L145.002148,1.82226562 C145.009961,1.81054682 145.013867,1.79492197 145.013867,1.77539062 C145.013867,1.71679658 144.988477,1.66210963 144.937695,1.61132812 C144.886914,1.56835916 144.828321,1.546875 144.761914,1.546875 L144.222852,1.546875 C144.136914,1.546875 144.060743,1.57421848 143.994336,1.62890625 C143.927929,1.67968775 143.886914,1.74414023 143.871289,1.82226562 L143.701367,2.75390625 C143.689648,2.8242191 143.683789,2.896484 143.683789,2.97070312 C143.683789,3.24414199 143.773632,3.52734229 143.95332,3.8203125 L144.486273,4.70356977 C144.808707,5.24974287 144.980664,5.57250927 145.002148,5.671875 C145.103711,5.85937594 145.154492,6.06445201 145.154492,6.28710938 C145.150586,6.38867238 145.138867,6.49609318 145.119336,6.609375 L144.820508,8.23242188 C144.781445,8.45117297 144.674024,8.63476488 144.498242,8.78320312 C144.32246,8.9277351 144.12129,9 143.894727,9 L142.494336,9 C142.287304,9 142.113477,8.92578199 141.972852,8.77734375 C141.836132,8.62890551 141.767773,8.4472667 141.767773,8.23242188 L141.767773,8.09765625 L142.136914,5.97070312 Z M146.571289,0.59765625 L147.543945,0.59765625 L146.254883,7.78125 L146.254883,7.81054688 C146.254883,7.87695346 146.276367,7.93554662 146.319336,7.98632812 C146.370117,8.03710963 146.428711,8.0625 146.495117,8.0625 L147.03418,8.0625 C147.237306,8.0625 147.356445,7.96484473 147.391602,7.76953125 L148.692383,0.59765625 L149.688477,0.59765625 L148.288086,8.24414062 C148.249023,8.45898545 148.141602,8.63867115 147.96582,8.78320312 C147.790038,8.9277351 147.588868,9 147.362305,9 L145.950195,9 C145.750976,9 145.579102,8.92578199 145.43457,8.77734375 C145.290038,8.62890551 145.217773,8.45117291 145.217773,8.24414062 L145.217773,8.09765625 L146.571289,0.59765625 Z M149.066211,5.97070312 L150.038867,5.97070312 L149.722461,7.76953125 L149.722461,7.79882812 C149.722461,7.86523471 149.745898,7.92382787 149.792773,7.97460938 C149.839649,8.02539088 149.896289,8.05078125 149.962695,8.05078125 L150.501758,8.05078125 C150.587696,8.05078125 150.66582,8.02343777 150.736133,7.96875 C150.810352,7.91015596 150.855273,7.83984416 150.870898,7.7578125 L151.081836,6.57421875 C151.089648,6.53906232 151.093555,6.50195332 151.093555,6.46289062 C151.093555,6.33789 151.048555,6.18289117 150.958555,5.99789103 L149.857227,3.93164062 L149.857227,3.93164062 C149.708788,3.63867041 149.63457,3.35156391 149.63457,3.0703125 L149.63457,3.01757812 C149.63457,2.95117154 149.64043,2.88281285 149.652148,2.8125 L149.904102,1.359375 C149.943164,1.14062391 150.052538,0.958985098 150.232227,0.814453125 C150.404102,0.669921152 150.601366,0.59765625 150.824023,0.59765625 L152.230273,0.59765625 C152.433399,0.59765625 152.609179,0.671874258 152.757617,0.8203125 C152.909962,0.968750742 152.986133,1.15234266 152.986133,1.37109375 L152.983203,1.43994144 L152.983203,1.43994144 L152.605273,3.55664062 L151.620898,3.55664062 L151.931445,1.82226562 C151.939258,1.81054682 151.943164,1.79492197 151.943164,1.77539062 C151.943164,1.71679658 151.917774,1.66210963 151.866992,1.61132812 C151.816211,1.56835916 151.757618,1.546875 151.691211,1.546875 L151.152148,1.546875 C151.066211,1.546875 150.990039,1.57421848 150.923633,1.62890625 C150.857226,1.67968775 150.816211,1.74414023 150.800586,1.82226562 L150.630664,2.75390625 C150.618945,2.8242191 150.613086,2.896484 150.613086,2.97070312 C150.613086,3.24414199 150.702929,3.52734229 150.882617,3.8203125 L151.41557,4.70356977 C151.738004,5.24974287 151.909961,5.57250927 151.931445,5.671875 C152.033008,5.85937594 152.083789,6.06445201 152.083789,6.28710938 C152.079883,6.38867238 152.068164,6.49609318 152.048633,6.609375 L151.749805,8.23242188 C151.710742,8.45117297 151.603321,8.63476488 151.427539,8.78320312 C151.251757,8.9277351 151.050587,9 150.824023,9 L149.423633,9 C149.216601,9 149.042774,8.92578199 148.902148,8.77734375 C148.765429,8.62890551 148.69707,8.4472667 148.69707,8.23242188 L148.69707,8.09765625 L149.066211,5.97070312 Z M152.52207,9 L153.881445,1.546875 L153.160742,1.546875 L153.330664,0.59765625 L155.774023,0.59765625 L155.592383,1.546875 L154.895117,1.546875 L153.547461,9 L152.52207,9 Z M154.255273,9 L157.026758,0.59765625 L158.03457,0.59765625 L157.770898,9 L156.81582,9 L156.886133,7.6171875 L155.737695,7.6171875 L155.327539,9 L154.255273,9 Z M156.933008,6.66796875 L157.120508,2.94726562 L156.018945,6.66796875 L156.933008,6.66796875 Z M158.982617,9 L157.968945,9 L159.498242,0.59765625 L160.506055,0.59765625 L158.982617,9 Z M159.385742,9 L160.90918,0.59765625 L161.922852,0.59765625 L162.044105,1.8421202 C162.267958,4.22174909 162.379883,5.94558618 162.379883,7.01367188 L162.406982,6.55197051 C162.499267,5.36123583 162.794919,3.37647874 163.293945,0.59765625 L164.307617,0.59765625 L162.78418,9 L161.770508,9 L161.65585,7.81670458 C161.431506,5.42835803 161.319336,3.73491266 161.319336,2.73632812 L161.304861,2.99031633 C161.229824,4.04630486 160.929964,6.0495165 160.405273,9 L159.385742,9 Z M149.679111,14.8457004 C149.817441,14.8978945 149.919886,14.9873372 149.989648,15.1152344 C150.044336,15.2167974 150.07168,15.3300775 150.07168,15.4550781 C150.07168,15.482422 150.069727,15.5117186 150.06582,15.5429688 L150.063216,15.6419271 C150.062348,15.6553819 150.061263,15.6673177 150.059961,15.6777344 L149.450586,19 L148.419336,19 L149.03457,15.5605469 L149.03457,15.53125 C149.03457,15.4648434 149.011133,15.4082034 148.964258,15.3613281 C148.917383,15.3144529 148.860743,15.2910156 148.794336,15.2910156 L147.979883,15.2910156 L147.323633,19 L146.298242,19 L147.804102,10.5976562 L150.059961,10.5976562 C150.263087,10.5976562 150.438866,10.6718743 150.587305,10.8203125 C150.735743,10.9648445 150.813867,11.1425771 150.82168,11.3535156 L150.798242,11.4941406 L150.798242,11.4941406 L150.329492,14.1425781 C150.263086,14.5097642 150.046295,14.744136 149.679111,14.8457004 Z M148.161523,14.2890625 L148.975977,14.2890625 C149.061914,14.2890625 149.138086,14.2597659 149.204492,14.2011719 C149.266993,14.1464841 149.306055,14.0781254 149.32168,13.9960938 L149.720117,11.8222656 L149.720117,11.7871094 C149.720117,11.7167965 149.69668,11.6582034 149.649805,11.6113281 C149.599023,11.5683592 149.538477,11.546875 149.468164,11.546875 L148.65957,11.546875 L148.161523,14.2890625 Z M149.642773,19 L152.414258,10.5976562 L153.42207,10.5976562 L153.158398,19 L152.20332,19 L152.273633,17.6171875 L151.125195,17.6171875 L150.715039,19 L149.642773,19 Z M152.320508,16.6679688 L152.508008,12.9472656 L151.406445,16.6679688 L152.320508,16.6679688 Z M153.883789,19 L155.243164,11.546875 L154.522461,11.546875 L154.692383,10.5976562 L157.135742,10.5976562 L156.954102,11.546875 L156.256836,11.546875 L154.90918,19 L153.883789,19 Z M157.345508,10.5976562 L159.624805,10.5976562 L159.460742,11.5351562 L158.195117,11.5351562 L157.720508,14.2011719 L158.980273,14.2011719 L158.804492,15.1386719 L157.550586,15.1386719 L157.029102,18.0625 L158.271289,18.0625 L158.101367,19 L155.82207,19 L157.345508,10.5976562 Z" id="sustainrate"></path>
                    <path d="M108.136914,5.97070312 L109.10957,5.97070312 L108.793164,7.76953125 L108.793164,7.79882812 C108.793164,7.86523471 108.816601,7.92382787 108.863477,7.97460938 C108.910352,8.02539088 108.966992,8.05078125 109.033398,8.05078125 L109.572461,8.05078125 C109.658399,8.05078125 109.736523,8.02343777 109.806836,7.96875 C109.881055,7.91015596 109.925976,7.83984416 109.941602,7.7578125 L110.152539,6.57421875 C110.160352,6.53906232 110.164258,6.50195332 110.164258,6.46289062 C110.164258,6.33789 110.119258,6.18289117 110.029258,5.99789103 L108.92793,3.93164062 L108.92793,3.93164062 C108.779491,3.63867041 108.705273,3.35156391 108.705273,3.0703125 L108.705273,3.01757812 C108.705273,2.95117154 108.711133,2.88281285 108.722852,2.8125 L108.974805,1.359375 C109.013867,1.14062391 109.123241,0.958985098 109.30293,0.814453125 C109.474806,0.669921152 109.672069,0.59765625 109.894727,0.59765625 L111.300977,0.59765625 C111.504103,0.59765625 111.679882,0.671874258 111.82832,0.8203125 C111.980665,0.968750742 112.056836,1.15234266 112.056836,1.37109375 C112.056836,1.42187525 112.05293,1.46289047 112.045117,1.49414062 L111.675977,3.55664062 L110.691602,3.55664062 L111.002148,1.82226562 C111.009961,1.81054682 111.013867,1.79492197 111.013867,1.77539062 C111.013867,1.71679658 110.988477,1.66210963 110.937695,1.61132812 C110.886914,1.56835916 110.828321,1.546875 110.761914,1.546875 L110.222852,1.546875 C110.136914,1.546875 110.060743,1.57421848 109.994336,1.62890625 C109.927929,1.67968775 109.886914,1.74414023 109.871289,1.82226562 L109.701367,2.75390625 C109.689648,2.8242191 109.683789,2.896484 109.683789,2.97070312 C109.683789,3.24414199 109.773632,3.52734229 109.95332,3.8203125 L110.486273,4.70356977 C110.808707,5.24974287 110.980664,5.57250927 111.002148,5.671875 C111.103711,5.85937594 111.154492,6.06445201 111.154492,6.28710938 C111.150586,6.38867238 111.138867,6.49609318 111.119336,6.609375 L110.820508,8.23242188 C110.781445,8.45117297 110.674024,8.63476488 110.498242,8.78320312 C110.32246,8.9277351 110.12129,9 109.894727,9 L108.494336,9 C108.287304,9 108.113477,8.92578199 107.972852,8.77734375 C107.836132,8.62890551 107.767773,8.4472667 107.767773,8.23242188 L107.767773,8.09765625 L108.136914,5.97070312 Z M112.571289,0.59765625 L113.543945,0.59765625 L112.254883,7.78125 L112.254883,7.81054688 C112.254883,7.87695346 112.276367,7.93554662 112.319336,7.98632812 C112.370117,8.03710963 112.428711,8.0625 112.495117,8.0625 L113.03418,8.0625 C113.237306,8.0625 113.356445,7.96484473 113.391602,7.76953125 L114.692383,0.59765625 L115.688477,0.59765625 L114.288086,8.24414062 C114.249023,8.45898545 114.141602,8.63867115 113.96582,8.78320312 C113.790038,8.9277351 113.588868,9 113.362305,9 L111.950195,9 C111.750976,9 111.579102,8.92578199 111.43457,8.77734375 C111.290038,8.62890551 111.217773,8.45117291 111.217773,8.24414062 L111.217773,8.09765625 L112.571289,0.59765625 Z M115.066211,5.97070312 L116.038867,5.97070312 L115.722461,7.76953125 L115.722461,7.79882812 C115.722461,7.86523471 115.745898,7.92382787 115.792773,7.97460938 C115.839649,8.02539088 115.896289,8.05078125 115.962695,8.05078125 L116.501758,8.05078125 C116.587696,8.05078125 116.66582,8.02343777 116.736133,7.96875 C116.810352,7.91015596 116.855273,7.83984416 116.870898,7.7578125 L117.081836,6.57421875 C117.089648,6.53906232 117.093555,6.50195332 117.093555,6.46289062 C117.093555,6.33789 117.048555,6.18289117 116.958555,5.99789103 L115.857227,3.93164062 L115.857227,3.93164062 C115.708788,3.63867041 115.63457,3.35156391 115.63457,3.0703125 L115.63457,3.01757812 C115.63457,2.95117154 115.64043,2.88281285 115.652148,2.8125 L115.904102,1.359375 C115.943164,1.14062391 116.052538,0.958985098 116.232227,0.814453125 C116.404102,0.669921152 116.601366,0.59765625 116.824023,0.59765625 L118.230273,0.59765625 C118.433399,0.59765625 118.609179,0.671874258 118.757617,0.8203125 C118.909962,0.968750742 118.986133,1.15234266 118.986133,1.37109375 L118.983203,1.43994144 L118.983203,1.43994144 L118.605273,3.55664062 L117.620898,3.55664062 L117.931445,1.82226562 C117.939258,1.81054682 117.943164,1.79492197 117.943164,1.77539062 C117.943164,1.71679658 117.917774,1.66210963 117.866992,1.61132812 C117.816211,1.56835916 117.757618,1.546875 117.691211,1.546875 L117.152148,1.546875 C117.066211,1.546875 116.990039,1.57421848 116.923633,1.62890625 C116.857226,1.67968775 116.816211,1.74414023 116.800586,1.82226562 L116.630664,2.75390625 C116.618945,2.8242191 116.613086,2.896484 116.613086,2.97070312 C116.613086,3.24414199 116.702929,3.52734229 116.882617,3.8203125 L117.41557,4.70356977 C117.738004,5.24974287 117.909961,5.57250927 117.931445,5.671875 C118.033008,5.85937594 118.083789,6.06445201 118.083789,6.28710938 C118.079883,6.38867238 118.068164,6.49609318 118.048633,6.609375 L117.749805,8.23242188 C117.710742,8.45117297 117.603321,8.63476488 117.427539,8.78320312 C117.251757,8.9277351 117.050587,9 116.824023,9 L115.423633,9 C115.216601,9 115.042774,8.92578199 114.902148,8.77734375 C114.765429,8.62890551 114.69707,8.4472667 114.69707,8.23242188 L114.69707,8.09765625 L115.066211,5.97070312 Z M118.52207,9 L119.881445,1.546875 L119.160742,1.546875 L119.330664,0.59765625 L121.774023,0.59765625 L121.592383,1.546875 L120.895117,1.546875 L119.547461,9 L118.52207,9 Z M120.255273,9 L123.026758,0.59765625 L124.03457,0.59765625 L123.770898,9 L122.81582,9 L122.886133,7.6171875 L121.737695,7.6171875 L121.327539,9 L120.255273,9 Z M122.933008,6.66796875 L123.120508,2.94726562 L122.018945,6.66796875 L122.933008,6.66796875 Z M124.982617,9 L123.968945,9 L125.498242,0.59765625 L126.506055,0.59765625 L124.982617,9 Z M125.385742,9 L126.90918,0.59765625 L127.922852,0.59765625 L128.044105,1.8421202 C128.267958,4.22174909 128.379883,5.94558618 128.379883,7.01367188 L128.406982,6.55197051 C128.499267,5.36123583 128.794919,3.37647874 129.293945,0.59765625 L130.307617,0.59765625 L128.78418,9 L127.770508,9 L127.65585,7.81670458 C127.431506,5.42835803 127.319336,3.73491266 127.319336,2.73632812 L127.304861,2.99031633 C127.229824,4.04630486 126.929964,6.0495165 126.405273,9 L125.385742,9 Z M112.486328,18.0625 L113.728516,18.0625 L113.558594,19 L111.279297,19 L112.802734,10.5976562 L113.822266,10.5976562 L112.486328,18.0625 Z M115.485156,10.5976562 L117.764453,10.5976562 L117.600391,11.5351562 L116.334766,11.5351562 L115.860156,14.2011719 L117.119922,14.2011719 L116.944141,15.1386719 L115.690234,15.1386719 L115.16875,18.0625 L116.410938,18.0625 L116.241016,19 L113.961719,19 L115.485156,10.5976562 Z M117.968359,10.5976562 L118.923438,10.5976562 L118.630469,16.6503906 L120.411719,10.5976562 L121.483984,10.5976562 L118.718359,19 L117.646094,19 L117.968359,10.5976562 Z M121.676172,10.5976562 L123.955469,10.5976562 L123.791406,11.5351562 L122.525781,11.5351562 L122.051172,14.2011719 L123.310937,14.2011719 L123.135156,15.1386719 L121.88125,15.1386719 L121.359766,18.0625 L122.601953,18.0625 L122.432031,19 L120.152734,19 L121.676172,10.5976562 Z M124.042187,18.0625 L125.284375,18.0625 L125.114453,19 L122.835156,19 L124.358594,10.5976562 L125.378125,10.5976562 L124.042187,18.0625 Z" id="sustainlevel"></path>
                    <path d="M76.0195312,14 L77.5429688,5.59765625 L79.8222656,5.59765625 C80.0332042,5.59765625 80.2128899,5.67382736 80.3613281,5.82617188 C80.5019538,5.97070385 80.5722656,6.13476471 80.5722656,6.31835938 C80.5722656,6.36914088 80.5664063,6.42773404 80.5546875,6.49414062 L79.3417969,13.2324219 C79.3027342,13.451173 79.1972665,13.6347649 79.0253906,13.7832031 C78.8535148,13.9277351 78.6562511,14 78.4335938,14 L76.0195312,14 Z M78.09375,13.0507812 C78.1796879,13.0507812 78.255859,13.0234378 78.3222656,12.96875 C78.3847659,12.9140622 78.423828,12.8437504 78.4394531,12.7578125 L79.5234375,6.82226562 C79.5273438,6.81054682 79.5292969,6.79687508 79.5292969,6.78125 C79.5292969,6.71484342 79.5058596,6.65820336 79.4589844,6.61132812 C79.4121091,6.56835916 79.353516,6.546875 79.2832031,6.546875 L78.375,6.546875 L77.1855469,13.0507812 L78.09375,13.0507812 Z M81.1980469,5.59765625 L83.4773438,5.59765625 L83.3132813,6.53515625 L82.0476563,6.53515625 L81.5730469,9.20117188 L82.8328125,9.20117188 L82.6570313,10.1386719 L81.403125,10.1386719 L80.8816406,13.0625 L82.1238281,13.0625 L81.9539063,14 L79.6746094,14 L81.1980469,5.59765625 Z M82.5152344,13.0859375 L83.7222656,6.359375 C83.7613283,6.14062391 83.8687491,5.9589851 84.0445313,5.81445312 C84.2203134,5.66992115 84.417577,5.59765625 84.6363281,5.59765625 L86.0601563,5.59765625 C86.2632823,5.59765625 86.4371087,5.67187426 86.5816406,5.8203125 C86.7300789,5.96875074 86.8042969,6.15038955 86.8042969,6.36523438 L86.7990886,6.45898437 L86.7990886,6.45898437 L86.4175781,8.5859375 L85.4449219,8.5859375 L85.7613281,6.82226562 L85.7613281,6.78710938 C85.7613281,6.71679652 85.7378909,6.65820336 85.6910156,6.61132812 C85.6441404,6.56835916 85.5855472,6.546875 85.5152344,6.546875 L84.9703125,6.546875 C84.8882808,6.546875 84.8121097,6.57421848 84.7417969,6.62890625 C84.6753903,6.67968775 84.6343751,6.74414023 84.61875,6.82226562 L83.5464844,12.7695312 L83.5464844,12.7988281 C83.5464844,12.8652347 83.5699216,12.9238279 83.6167969,12.9746094 C83.6636721,13.0253909 83.7222653,13.0507812 83.7925781,13.0507812 L84.3316406,13.0507812 C84.5347666,13.0507812 84.6539061,12.953126 84.6890625,12.7578125 L85.0054688,11 L85.9839844,11 L85.5855469,13.2324219 C85.5464842,13.451173 85.4371103,13.6347649 85.2574219,13.7832031 C85.0816397,13.9277351 84.882423,14 84.6597656,14 L83.259375,14 C83.0523427,14 82.8765632,13.925782 82.7320313,13.7773438 C82.5874993,13.6249992 82.5152344,13.4433604 82.5152344,13.2324219 L82.5152344,13.0859375 Z M85.6253906,14 L88.396875,5.59765625 L89.4046875,5.59765625 L89.1410156,14 L88.1859375,14 L88.25625,12.6171875 L87.1078125,12.6171875 L86.6976562,14 L85.6253906,14 Z M88.303125,11.6679688 L88.490625,7.94726562 L87.3890625,11.6679688 L88.303125,11.6679688 Z M90.8742187,10.7539062 L90.6339844,5.59765625 L91.6417969,5.59765625 L91.6300781,9.33007812 L93.1359375,5.59765625 L94.2023437,5.59765625 L91.8878906,10.7363281 L91.2960937,14 L90.2824219,14 L90.8742187,10.7539062 Z" id="decay"></path>
                    <path d="M40.728125,14 L43.4996094,5.59765625 L44.5074219,5.59765625 L44.24375,14 L43.2886719,14 L43.3589844,12.6171875 L42.2105469,12.6171875 L41.8003906,14 L40.728125,14 Z M43.4058594,11.6679688 L43.5933594,7.94726562 L42.4917969,11.6679688 L43.4058594,11.6679688 Z M44.9691406,14 L46.3285156,6.546875 L45.6078125,6.546875 L45.7777344,5.59765625 L48.2210937,5.59765625 L48.0394531,6.546875 L47.3421875,6.546875 L45.9945312,14 L44.9691406,14 Z M47.4347656,14 L48.7941406,6.546875 L48.0734375,6.546875 L48.2433594,5.59765625 L50.6867187,5.59765625 L50.5050781,6.546875 L49.8078125,6.546875 L48.4601562,14 L47.4347656,14 Z M49.1679687,14 L51.9394531,5.59765625 L52.9472656,5.59765625 L52.6835937,14 L51.7285156,14 L51.7988281,12.6171875 L50.6503906,12.6171875 L50.2402344,14 L49.1679687,14 Z M51.8457031,11.6679688 L52.0332031,7.94726562 L50.9316406,11.6679688 L51.8457031,11.6679688 Z M53.0398437,13.0859375 L54.246875,6.359375 C54.2859377,6.14062391 54.3933585,5.9589851 54.5691406,5.81445312 C54.7449228,5.66992115 54.9421864,5.59765625 55.1609375,5.59765625 L56.5847656,5.59765625 C56.7878916,5.59765625 56.961718,5.67187426 57.10625,5.8203125 C57.2546882,5.96875074 57.3289062,6.15038955 57.3289062,6.36523438 C57.3289062,6.41992215 57.325,6.46289047 57.3171875,6.49414062 L56.9421875,8.5859375 L55.9695312,8.5859375 L56.2859375,6.82226562 L56.2859375,6.78710938 C56.2859375,6.71679652 56.2625002,6.65820336 56.215625,6.61132812 C56.1687498,6.56835916 56.1101566,6.546875 56.0398437,6.546875 L55.4949219,6.546875 C55.4128902,6.546875 55.3367191,6.57421848 55.2664062,6.62890625 C55.1999997,6.67968775 55.1589845,6.74414023 55.1433594,6.82226562 L54.0710937,12.7695312 L54.0710937,12.7988281 C54.0710937,12.8652347 54.094531,12.9238279 54.1414062,12.9746094 C54.1882815,13.0253909 54.2468746,13.0507812 54.3171875,13.0507812 L54.85625,13.0507812 C55.059376,13.0507812 55.1785154,12.953126 55.2136719,12.7578125 L55.5300781,11 L56.5085937,11 L56.1101562,13.2324219 C56.0710936,13.451173 55.9617196,13.6347649 55.7820312,13.7832031 C55.6062491,13.9277351 55.4070324,14 55.184375,14 L53.7839844,14 C53.5769521,14 53.4011726,13.925782 53.2566406,13.7773438 C53.1121087,13.6249992 53.0398437,13.4433604 53.0398437,13.2324219 L53.0398437,13.0859375 Z M56.3550781,14 L57.884375,5.59765625 L58.8921875,5.59765625 L58.2359375,9.20117188 L60.2105469,5.59765625 L61.30625,5.59765625 L58.9742187,9.81054688 L59.7535156,14 L58.68125,14 L58.0660156,10.1386719 L57.36875,14 L56.3550781,14 Z" id="attack"></path>
                    <path d="M9.62792969,9 L10.9873047,1.546875 L10.2666016,1.546875 L10.4365234,0.59765625 L12.8798828,0.59765625 L12.6982422,1.546875 L12.0009766,1.546875 L10.6533203,9 L9.62792969,9 Z M11.7244141,8.23242188 L11.7244141,8.0859375 L12.9314453,1.359375 C12.970508,1.14062391 13.0779288,0.958985098 13.2537109,0.814453125 C13.4294931,0.669921152 13.6267567,0.59765625 13.8455078,0.59765625 L15.2693359,0.59765625 C15.472462,0.59765625 15.6462883,0.671874258 15.7908203,0.8203125 C15.9392586,0.968750742 16.0134766,1.15038955 16.0134766,1.36523438 C16.0134766,1.40169289 16.0117405,1.43294276 16.0082682,1.45898437 L14.7947266,8.23242188 C14.7556639,8.45117297 14.64629,8.63476488 14.4666016,8.78320312 C14.2908194,8.9277351 14.0916027,9 13.8689453,9 L12.4685547,9 C12.2615224,9 12.0857429,8.92578199 11.9412109,8.77734375 C11.796679,8.62499924 11.7244141,8.44336043 11.7244141,8.23242188 Z M12.7556641,7.76953125 L12.7556641,7.79882812 C12.7556641,7.86523471 12.7791013,7.92382787 12.8259766,7.97460938 C12.8728518,8.02539088 12.931445,8.05078125 13.0017578,8.05078125 L13.5408203,8.05078125 C13.7439463,8.05078125 13.8630858,7.95312598 13.8982422,7.7578125 L14.9705078,1.82226562 L14.9705078,1.78710938 C14.9705078,1.71679652 14.9470705,1.65820336 14.9001953,1.61132812 C14.8533201,1.56835916 14.7947269,1.546875 14.7244141,1.546875 L14.1794922,1.546875 C14.0974605,1.546875 14.0212894,1.57421848 13.9509766,1.62890625 C13.88457,1.67968775 13.8435548,1.74414023 13.8279297,1.82226562 L12.7556641,7.76953125 Z M15.5669922,9 L16.9263672,1.546875 L16.2056641,1.546875 L16.3755859,0.59765625 L18.8189453,0.59765625 L18.6373047,1.546875 L17.9400391,1.546875 L16.5923828,9 L15.5669922,9 Z M17.3001953,9 L20.0716797,0.59765625 L21.0794922,0.59765625 L20.8158203,9 L19.8607422,9 L19.9310547,7.6171875 L18.7826172,7.6171875 L18.3724609,9 L17.3001953,9 Z M19.9779297,6.66796875 L20.1654297,2.94726562 L19.0638672,6.66796875 L19.9779297,6.66796875 Z M22.2208984,8.0625 L23.4630859,8.0625 L23.2931641,9 L21.0138672,9 L22.5373047,0.59765625 L23.5568359,0.59765625 L22.2208984,8.0625 Z M10.4863281,18.0625 L11.7285156,18.0625 L11.5585938,19 L9.27929688,19 L10.8027344,10.5976562 L11.8222656,10.5976562 L10.4863281,18.0625 Z M13.4851563,10.5976562 L15.7644531,10.5976562 L15.6003906,11.5351562 L14.3347656,11.5351562 L13.8601563,14.2011719 L15.1199219,14.2011719 L14.9441406,15.1386719 L13.6902344,15.1386719 L13.16875,18.0625 L14.4109375,18.0625 L14.2410156,19 L11.9617188,19 L13.4851563,10.5976562 Z M15.9683594,10.5976562 L16.9234375,10.5976562 L16.6304687,16.6503906 L18.4117187,10.5976562 L19.4839844,10.5976562 L16.7183594,19 L15.6460938,19 L15.9683594,10.5976562 Z M19.6761719,10.5976562 L21.9554688,10.5976562 L21.7914063,11.5351562 L20.5257813,11.5351562 L20.0511719,14.2011719 L21.3109375,14.2011719 L21.1351563,15.1386719 L19.88125,15.1386719 L19.3597656,18.0625 L20.6019531,18.0625 L20.4320313,19 L18.1527344,19 L19.6761719,10.5976562 Z M22.0421875,18.0625 L23.284375,18.0625 L23.1144531,19 L20.8351563,19 L22.3585938,10.5976562 L23.378125,10.5976562 L22.0421875,18.0625 Z" id="Totallevel"></path>
                </g>
            </g>
            <g id="Ports">
                <g id="Out" transform="translate(0.000000, 110.000000)">
                    <rect id="Rectangle" fill="#FF5050" x="0" y="0" width="34" height="45" rx="5"></rect>
                    <path d="M9.60058594,14.8486328 L9.60058594,14.6289062 L11.4111328,4.5390625 C11.4697269,4.21093586 11.6308581,3.93847765 11.8945312,3.72167969 C12.1582044,3.50488173 12.4540999,3.39648438 12.7822266,3.39648438 L14.9179688,3.39648438 C15.2226578,3.39648438 15.4833974,3.50781139 15.7001953,3.73046875 C15.9228527,3.95312611 16.0341797,4.22558433 16.0341797,4.54785156 C16.0341797,4.60253934 16.0315755,4.64941414 16.0263672,4.68847655 L14.2060547,14.8486328 C14.1474606,15.1767595 13.9833998,15.4521473 13.7138672,15.6748047 C13.450194,15.8916026 13.1513689,16 12.8173828,16 L10.7167969,16 C10.4062484,16 10.1425792,15.888673 9.92578125,15.6660156 C9.70898329,15.4374989 9.60058594,15.1650406 9.60058594,14.8486328 Z M11.1474609,14.1542969 L11.1474609,14.1982422 C11.1474609,14.2978521 11.1826168,14.3857418 11.2529297,14.4619141 C11.3232425,14.5380863 11.4111323,14.5761719 11.5166016,14.5761719 L12.3251953,14.5761719 C12.6298843,14.5761719 12.8085935,14.429689 12.8613281,14.1367188 L14.4697266,5.23339844 L14.4697266,5.18066406 C14.4697266,5.07519479 14.4345707,4.98730504 14.3642578,4.91699219 C14.293945,4.85253874 14.2060552,4.8203125 14.1005859,4.8203125 L13.2832031,4.8203125 C13.1601556,4.8203125 13.045899,4.86132771 12.9404297,4.94335938 C12.8408198,5.01953163 12.779297,5.11621035 12.7558594,5.23339844 L11.1474609,14.1542969 Z M17.2822266,3.39648438 L18.7412109,3.39648438 L16.8076172,14.171875 L16.8076172,14.2158203 C16.8076172,14.3154302 16.8398434,14.4033199 16.9042969,14.4794922 C16.9804691,14.5556644 17.0683589,14.59375 17.1679688,14.59375 L17.9765625,14.59375 C18.2812515,14.59375 18.4599607,14.4472671 18.5126953,14.1542969 L20.4638672,3.39648438 L21.9580078,3.39648438 L19.8574219,14.8662109 C19.7988278,15.1884782 19.6376966,15.4580067 19.3740234,15.6748047 C19.1103502,15.8916026 18.8085954,16 18.46875,16 L16.3505859,16 C16.0517563,16 15.7939464,15.888673 15.5771484,15.6660156 C15.3603505,15.4433583 15.2519531,15.1767594 15.2519531,14.8662109 L15.2519531,14.6464844 L17.2822266,3.39648438 Z M21.4746094,16 L23.5136719,4.8203125 L22.4326172,4.8203125 L22.6875,3.39648438 L26.3525391,3.39648438 L26.0800781,4.8203125 L25.0341797,4.8203125 L23.0126953,16 L21.4746094,16 Z" id="OUT" fill="#C5C6BF" fill-rule="nonzero"></path>
                </g>
                <g id="Retrig" transform="translate(0.000000, 55.000000)">
                    <rect id="Rectangle" stroke="#FF5050" stroke-width="2" x="0" y="0" width="34" height="45" rx="5"></rect>
                    <path d="M2,15.6035156 L4.25878906,3 L7.64257812,3 C7.94726715,3 8.21093639,3.11132701 8.43359375,3.33398438 C8.65625111,3.55078233 8.77343744,3.81738123 8.78515625,4.13378906 L8.75,4.34472656 L8.75,4.34472656 L8.046875,8.31738281 C7.94726513,8.86816682 7.62207307,9.2197258 7.07128906,9.37207031 C7.27636821,9.44824257 7.4316401,9.58300685 7.53710938,9.77636719 C7.61914104,9.9287117 7.66015625,10.0986319 7.66015625,10.2861328 C7.66015625,10.3271486 7.65722659,10.3710935 7.65136719,10.4179688 L7.64746095,10.5664062 C7.64615887,10.5865885 7.64453126,10.6044921 7.64257812,10.6201172 L6.72851562,15.6035156 L5.18164062,15.6035156 L6.10449219,10.4443359 L6.10449219,10.4003906 C6.10449219,10.3007808 6.06933629,10.2158207 5.99902344,10.1455078 C5.92871059,10.075195 5.8437505,10.0400391 5.74414062,10.0400391 L4.52246094,10.0400391 L3.53808594,15.6035156 L2,15.6035156 Z M4.79492188,8.53710938 L6.01660156,8.53710938 C6.14550846,8.53710938 6.25976513,8.4931645 6.359375,8.40527344 C6.45312547,8.32324178 6.51171863,8.22070374 6.53515625,8.09765625 L7.1328125,4.83691406 L7.1328125,4.78417969 C7.1328125,4.67871041 7.0976566,4.59082066 7.02734375,4.52050781 C6.95117149,4.45605437 6.86035209,4.42382812 6.75488281,4.42382812 L5.54199219,4.42382812 L4.79492188,8.53710938 Z M10.0595703,3 L13.4785156,3 L13.2324219,4.40625 L11.3339844,4.40625 L10.6220703,8.40527344 L12.5117188,8.40527344 L12.2480469,9.81152344 L10.3671875,9.81152344 L9.58496094,14.1972656 L11.4482422,14.1972656 L11.1933594,15.6035156 L7.77441406,15.6035156 L10.0595703,3 Z M13.0390625,15.6035156 L15.078125,4.42382812 L13.9970703,4.42382812 L14.2519531,3 L17.9169922,3 L17.6445312,4.42382812 L16.5986328,4.42382812 L14.5771484,15.6035156 L13.0390625,15.6035156 Z M16.4052734,15.6035156 L18.6640625,3 L22.0478516,3 C22.3525406,3 22.6162098,3.11132701 22.8388672,3.33398438 C23.0615246,3.55078233 23.1787109,3.81738123 23.1904297,4.13378906 L23.1552734,4.34472656 L23.1552734,4.34472656 L22.4521484,8.31738281 C22.3525386,8.86816682 22.0273465,9.2197258 21.4765625,9.37207031 C21.6816417,9.44824257 21.8369135,9.58300685 21.9423828,9.77636719 C22.0244145,9.9287117 22.0654297,10.0986319 22.0654297,10.2861328 C22.0654297,10.3271486 22.0625,10.3710935 22.0566406,10.4179688 L22.0527344,10.5664062 C22.0514323,10.5865885 22.0498047,10.6044921 22.0478516,10.6201172 L21.1337891,15.6035156 L19.5869141,15.6035156 L20.5097656,10.4443359 L20.5097656,10.4003906 C20.5097656,10.3007808 20.4746097,10.2158207 20.4042969,10.1455078 C20.333984,10.075195 20.2490239,10.0400391 20.1494141,10.0400391 L18.9277344,10.0400391 L17.9433594,15.6035156 L16.4052734,15.6035156 Z M19.2001953,8.53710938 L20.421875,8.53710938 C20.5507819,8.53710938 20.6650386,8.4931645 20.7646484,8.40527344 C20.8583989,8.32324178 20.9169921,8.22070374 20.9404297,8.09765625 L21.5380859,4.83691406 L21.5380859,4.78417969 C21.5380859,4.67871041 21.50293,4.59082066 21.4326172,4.52050781 C21.3564449,4.45605437 21.2656255,4.42382812 21.1601562,4.42382812 L19.9472656,4.42382812 L19.2001953,8.53710938 Z M23.7001953,15.6035156 L22.1796875,15.6035156 L24.4736328,3 L25.9853516,3 L23.7001953,15.6035156 Z M24.9921875,14.2324219 L26.8027344,4.14257812 C26.8613284,3.81445148 27.0224596,3.54199327 27.2861328,3.32519531 C27.549806,3.10839735 27.8457015,3 28.1738281,3 L30.3095703,3 C30.6142593,3 30.8749989,3.11132701 31.0917969,3.33398438 C31.3144542,3.55664174 31.4257812,3.82909995 31.4257812,4.15136719 C31.4257812,4.20605496 31.4231771,4.25292977 31.4179688,4.29199217 L30.8457031,7.48242188 L29.3867188,7.48242188 L29.8613281,4.83691406 L29.8613281,4.78417969 C29.8613281,4.67871041 29.8261722,4.59082066 29.7558594,4.52050781 C29.6855465,4.45605437 29.5976568,4.42382812 29.4921875,4.42382812 L28.6748047,4.42382812 C28.5517572,4.42382812 28.4375005,4.46484334 28.3320312,4.546875 C28.2324214,4.62304726 28.1708986,4.71972598 28.1474609,4.83691406 L26.5390625,13.7578125 L26.5390625,13.8017578 C26.5390625,13.9013677 26.5742184,13.9892574 26.6445312,14.0654297 C26.7148441,14.1416019 26.8027338,14.1796875 26.9082031,14.1796875 L27.7167969,14.1796875 C28.0214859,14.1796875 28.200195,14.0332046 28.2529297,13.7402344 L28.9736328,9.890625 L28.1386719,9.890625 L28.3935547,8.484375 L30.6875,8.484375 L29.5976562,14.4521484 C29.5390622,14.7802751 29.3750013,15.0556629 29.1054688,15.2783203 C28.8417956,15.4951183 28.5429704,15.6035156 28.2089844,15.6035156 L26.1083984,15.6035156 C25.79785,15.6035156 25.5341808,15.4921886 25.3173828,15.2695312 C25.1005849,15.0410145 24.9921875,14.7685563 24.9921875,14.4521484 L24.9921875,14.2324219 Z" id="RETRIG" fill="#FF5050" fill-rule="nonzero"></path>
                </g>
                <g id="Gate">
                    <rect id="Rectangle" stroke="#FF5050" stroke-width="2" x="0" y="0" width="34" height="45" rx="5"></rect>
                    <path d="M7,14.2324219 L8.81054688,4.14257812 C8.86914092,3.81445148 9.03027212,3.54199327 9.29394531,3.32519531 C9.55761851,3.10839735 9.85351398,3 10.1816406,3 L12.3173828,3 C12.6220718,3 12.8828114,3.11132701 13.0996094,3.33398438 C13.3222667,3.55664174 13.4335938,3.82909995 13.4335938,4.15136719 C13.4335938,4.20605496 13.4309896,4.25292977 13.4257813,4.29199217 L12.8535156,7.48242188 L11.3945312,7.48242188 L11.8691406,4.83691406 L11.8691406,4.78417969 C11.8691406,4.67871041 11.8339847,4.59082066 11.7636719,4.52050781 C11.693359,4.45605437 11.6054693,4.42382812 11.5,4.42382812 L10.6826172,4.42382812 C10.5595697,4.42382812 10.445313,4.46484334 10.3398438,4.546875 C10.2402339,4.62304726 10.1787111,4.71972598 10.1552734,4.83691406 L8.546875,13.7578125 L8.546875,13.8017578 C8.546875,13.9013677 8.5820309,13.9892574 8.65234375,14.0654297 C8.7226566,14.1416019 8.81054635,14.1796875 8.91601562,14.1796875 L9.72460938,14.1796875 C10.0292984,14.1796875 10.2080075,14.0332046 10.2607422,13.7402344 L10.9814453,9.890625 L10.1464844,9.890625 L10.4013672,8.484375 L12.6953125,8.484375 L11.6054688,14.4521484 C11.5468747,14.7802751 11.3828138,15.0556629 11.1132812,15.2783203 C10.8496081,15.4951183 10.5507829,15.6035156 10.2167969,15.6035156 L8.11621094,15.6035156 C7.80566251,15.6035156 7.54199327,15.4921886 7.32519531,15.2695312 C7.10839735,15.0410145 7,14.7685563 7,14.4521484 L7,14.2324219 Z M12.1152344,15.6035156 L16.2724609,3 L17.7841797,3 L17.3886719,15.6035156 L15.9560547,15.6035156 L16.0615234,13.5292969 L14.3388672,13.5292969 L13.7236328,15.6035156 L12.1152344,15.6035156 Z M16.1318359,12.1054688 L16.4130859,6.52441406 L14.7607422,12.1054688 L16.1318359,12.1054688 Z M18.9267578,15.6035156 L20.9658203,4.42382812 L19.8847656,4.42382812 L20.1396484,3 L23.8046875,3 L23.5322266,4.42382812 L22.4863281,4.42382812 L20.4648438,15.6035156 L18.9267578,15.6035156 Z M24.5693359,3 L27.9882812,3 L27.7421875,4.40625 L25.84375,4.40625 L25.1318359,8.40527344 L27.0214844,8.40527344 L26.7578125,9.81152344 L24.8769531,9.81152344 L24.0947266,14.1972656 L25.9580078,14.1972656 L25.703125,15.6035156 L22.2841797,15.6035156 L24.5693359,3 Z" id="GATE" fill="#FF5050" fill-rule="nonzero"></path>
                </g>
            </g>
        </g>
        <g id="left" transform="translate(15.000000, 27.000000)">
            <g id="Sliders" transform="translate(41.000000, 107.000000)" fill="#343633" fill-rule="nonzero">
                <g id="text">
                    <path d="M142.136914,5.97070312 L143.10957,5.97070312 L142.793164,7.76953125 L142.793164,7.79882812 C142.793164,7.86523471 142.816601,7.92382787 142.863477,7.97460938 C142.910352,8.02539088 142.966992,8.05078125 143.033398,8.05078125 L143.572461,8.05078125 C143.658399,8.05078125 143.736523,8.02343777 143.806836,7.96875 C143.881055,7.91015596 143.925976,7.83984416 143.941602,7.7578125 L144.152539,6.57421875 C144.160352,6.53906232 144.164258,6.50195332 144.164258,6.46289062 C144.164258,6.33789 144.119258,6.18289117 144.029258,5.99789103 L142.92793,3.93164062 L142.92793,3.93164062 C142.779491,3.63867041 142.705273,3.35156391 142.705273,3.0703125 L142.705273,3.01757812 C142.705273,2.95117154 142.711133,2.88281285 142.722852,2.8125 L142.974805,1.359375 C143.013867,1.14062391 143.123241,0.958985098 143.30293,0.814453125 C143.474806,0.669921152 143.672069,0.59765625 143.894727,0.59765625 L145.300977,0.59765625 C145.504103,0.59765625 145.679882,0.671874258 145.82832,0.8203125 C145.980665,0.968750742 146.056836,1.15234266 146.056836,1.37109375 C146.056836,1.42187525 146.05293,1.46289047 146.045117,1.49414062 L145.675977,3.55664062 L144.691602,3.55664062 L145.002148,1.82226562 C145.009961,1.81054682 145.013867,1.79492197 145.013867,1.77539062 C145.013867,1.71679658 144.988477,1.66210963 144.937695,1.61132812 C144.886914,1.56835916 144.828321,1.546875 144.761914,1.546875 L144.222852,1.546875 C144.136914,1.546875 144.060743,1.57421848 143.994336,1.62890625 C143.927929,1.67968775 143.886914,1.74414023 143.871289,1.82226562 L143.701367,2.75390625 C143.689648,2.8242191 143.683789,2.896484 143.683789,2.97070312 C143.683789,3.24414199 143.773632,3.52734229 143.95332,3.8203125 L144.486273,4.70356977 C144.808707,5.24974287 144.980664,5.57250927 145.002148,5.671875 C145.103711,5.85937594 145.154492,6.06445201 145.154492,6.28710938 C145.150586,6.38867238 145.138867,6.49609318 145.119336,6.609375 L144.820508,8.23242188 C144.781445,8.45117297 144.674024,8.63476488 144.498242,8.78320312 C144.32246,8.9277351 144.12129,9 143.894727,9 L142.494336,9 C142.287304,9 142.113477,8.92578199 141.972852,8.77734375 C141.836132,8.62890551 141.767773,8.4472667 141.767773,8.23242188 L141.767773,8.09765625 L142.136914,5.97070312 Z M146.571289,0.59765625 L147.543945,0.59765625 L146.254883,7.78125 L146.254883,7.81054688 C146.254883,7.87695346 146.276367,7.93554662 146.319336,7.98632812 C146.370117,8.03710963 146.428711,8.0625 146.495117,8.0625 L147.03418,8.0625 C147.237306,8.0625 147.356445,7.96484473 147.391602,7.76953125 L148.692383,0.59765625 L149.688477,0.59765625 L148.288086,8.24414062 C148.249023,8.45898545 148.141602,8.63867115 147.96582,8.78320312 C147.790038,8.9277351 147.588868,9 147.362305,9 L145.950195,9 C145.750976,9 145.579102,8.92578199 145.43457,8.77734375 C145.290038,8.62890551 145.217773,8.45117291 145.217773,8.24414062 L145.217773,8.09765625 L146.571289,0.59765625 Z M149.066211,5.97070312 L150.038867,5.97070312 L149.722461,7.76953125 L149.722461,7.79882812 C149.722461,7.86523471 149.745898,7.92382787 149.792773,7.97460938 C149.839649,8.02539088 149.896289,8.05078125 149.962695,8.05078125 L150.501758,8.05078125 C150.587696,8.05078125 150.66582,8.02343777 150.736133,7.96875 C150.810352,7.91015596 150.855273,7.83984416 150.870898,7.7578125 L151.081836,6.57421875 C151.089648,6.53906232 151.093555,6.50195332 151.093555,6.46289062 C151.093555,6.33789 151.048555,6.18289117 150.958555,5.99789103 L149.857227,3.93164062 L149.857227,3.93164062 C149.708788,3.63867041 149.63457,3.35156391 149.63457,3.0703125 L149.63457,3.01757812 C149.63457,2.95117154 149.64043,2.88281285 149.652148,2.8125 L149.904102,1.359375 C149.943164,1.14062391 150.052538,0.958985098 150.232227,0.814453125 C150.404102,0.669921152 150.601366,0.59765625 150.824023,0.59765625 L152.230273,0.59765625 C152.433399,0.59765625 152.609179,0.671874258 152.757617,0.8203125 C152.909962,0.968750742 152.986133,1.15234266 152.986133,1.37109375 L152.983203,1.43994144 L152.983203,1.43994144 L152.605273,3.55664062 L151.620898,3.55664062 L151.931445,1.82226562 C151.939258,1.81054682 151.943164,1.79492197 151.943164,1.77539062 C151.943164,1.71679658 151.917774,1.66210963 151.866992,1.61132812 C151.816211,1.56835916 151.757618,1.546875 151.691211,1.546875 L151.152148,1.546875 C151.066211,1.546875 150.990039,1.57421848 150.923633,1.62890625 C150.857226,1.67968775 150.816211,1.74414023 150.800586,1.82226562 L150.630664,2.75390625 C150.618945,2.8242191 150.613086,2.896484 150.613086,2.97070312 C150.613086,3.24414199 150.702929,3.52734229 150.882617,3.8203125 L151.41557,4.70356977 C151.738004,5.24974287 151.909961,5.57250927 151.931445,5.671875 C152.033008,5.85937594 152.083789,6.06445201 152.083789,6.28710938 C152.079883,6.38867238 152.068164,6.49609318 152.048633,6.609375 L151.749805,8.23242188 C151.710742,8.45117297 151.603321,8.63476488 151.427539,8.78320312 C151.251757,8.9277351 151.050587,9 150.824023,9 L149.423633,9 C149.216601,9 149.042774,8.92578199 148.902148,8.77734375 C148.765429,8.62890551 148.69707,8.4472667 148.69707,8.23242188 L148.69707,8.09765625 L149.066211,5.97070312 Z M152.52207,9 L153.881445,1.546875 L153.160742,1.546875 L153.330664,0.59765625 L155.774023,0.59765625 L155.592383,1.546875 L154.895117,1.546875 L153.547461,9 L152.52207,9 Z M154.255273,9 L157.026758,0.59765625 L158.03457,0.59765625 L157.770898,9 L156.81582,9 L156.886133,7.6171875 L155.737695,7.6171875 L155.327539,9 L154.255273,9 Z M156.933008,6.66796875 L157.120508,2.94726562 L156.018945,6.66796875 L156.933008,6.66796875 Z M158.982617,9 L157.968945,9 L159.498242,0.59765625 L160.506055,0.59765625 L158.982617,9 Z M159.385742,9 L160.90918,0.59765625 L161.922852,0.59765625 L162.044105,1.8421202 C162.267958,4.22174909 162.379883,5.94558618 162.379883,7.01367188 L162.406982,6.55197051 C162.499267,5.36123583 162.794919,3.37647874 163.293945,0.59765625 L164.307617,0.59765625 L162.78418,9 L161.770508,9 L161.65585,7.81670458 C161.431506,5.42835803 161.319336,3.73491266 161.319336,2.73632812 L161.304861,2.99031633 C161.229824,4.04630486 160.929964,6.0495165 160.405273,9 L159.385742,9 Z M149.679111,14.8457004 C149.817441,14.8978945 149.919886,14.9873372 149.989648,15.1152344 C150.044336,15.2167974 150.07168,15.3300775 150.07168,15.4550781 C150.07168,15.482422 150.069727,15.5117186 150.06582,15.5429688 L150.063216,15.6419271 C150.062348,15.6553819 150.061263,15.6673177 150.059961,15.6777344 L149.450586,19 L148.419336,19 L149.03457,15.5605469 L149.03457,15.53125 C149.03457,15.4648434 149.011133,15.4082034 148.964258,15.3613281 C148.917383,15.3144529 148.860743,15.2910156 148.794336,15.2910156 L147.979883,15.2910156 L147.323633,19 L146.298242,19 L147.804102,10.5976562 L150.059961,10.5976562 C150.263087,10.5976562 150.438866,10.6718743 150.587305,10.8203125 C150.735743,10.9648445 150.813867,11.1425771 150.82168,11.3535156 L150.798242,11.4941406 L150.798242,11.4941406 L150.329492,14.1425781 C150.263086,14.5097642 150.046295,14.744136 149.679111,14.8457004 Z M148.161523,14.2890625 L148.975977,14.2890625 C149.061914,14.2890625 149.138086,14.2597659 149.204492,14.2011719 C149.266993,14.1464841 149.306055,14.0781254 149.32168,13.9960938 L149.720117,11.8222656 L149.720117,11.7871094 C149.720117,11.7167965 149.69668,11.6582034 149.649805,11.6113281 C149.599023,11.5683592 149.538477,11.546875 149.468164,11.546875 L148.65957,11.546875 L148.161523,14.2890625 Z M149.642773,19 L152.414258,10.5976562 L153.42207,10.5976562 L153.158398,19 L152.20332,19 L152.273633,17.6171875 L151.125195,17.6171875 L150.715039,19 L149.642773,19 Z M152.320508,16.6679688 L152.508008,12.9472656 L151.406445,16.6679688 L152.320508,16.6679688 Z M153.883789,19 L155.243164,11.546875 L154.522461,11.546875 L154.692383,10.5976562 L157.135742,10.5976562 L156.954102,11.546875 L156.256836,11.546875 L154.90918,19 L153.883789,19 Z M157.345508,10.5976562 L159.624805,10.5976562 L159.460742,11.5351562 L158.195117,11.5351562 L157.720508,14.2011719 L158.980273,14.2011719 L158.804492,15.1386719 L157.550586,15.1386719 L157.029102,18.0625 L158.271289,18.0625 L158.101367,19 L155.82207,19 L157.345508,10.5976562 Z" id="sustainrate"></path>
                    <path d="M108.136914,5.97070312 L109.10957,5.97070312 L108.793164,7.76953125 L108.793164,7.79882812 C108.793164,7.86523471 108.816601,7.92382787 108.863477,7.97460938 C108.910352,8.02539088 108.966992,8.05078125 109.033398,8.05078125 L109.572461,8.05078125 C109.658399,8.05078125 109.736523,8.02343777 109.806836,7.96875 C109.881055,7.91015596 109.925976,7.83984416 109.941602,7.7578125 L110.152539,6.57421875 C110.160352,6.53906232 110.164258,6.50195332 110.164258,6.46289062 C110.164258,6.33789 110.119258,6.18289117 110.029258,5.99789103 L108.92793,3.93164062 L108.92793,3.93164062 C108.779491,3.63867041 108.705273,3.35156391 108.705273,3.0703125 L108.705273,3.01757812 C108.705273,2.95117154 108.711133,2.88281285 108.722852,2.8125 L108.974805,1.359375 C109.013867,1.14062391 109.123241,0.958985098 109.30293,0.814453125 C109.474806,0.669921152 109.672069,0.59765625 109.894727,0.59765625 L111.300977,0.59765625 C111.504103,0.59765625 111.679882,0.671874258 111.82832,0.8203125 C111.980665,0.968750742 112.056836,1.15234266 112.056836,1.37109375 C112.056836,1.42187525 112.05293,1.46289047 112.045117,1.49414062 L111.675977,3.55664062 L110.691602,3.55664062 L111.002148,1.82226562 C111.009961,1.81054682 111.013867,1.79492197 111.013867,1.77539062 C111.013867,1.71679658 110.988477,1.66210963 110.937695,1.61132812 C110.886914,1.56835916 110.828321,1.546875 110.761914,1.546875 L110.222852,1.546875 C110.136914,1.546875 110.060743,1.57421848 109.994336,1.62890625 C109.927929,1.67968775 109.886914,1.74414023 109.871289,1.82226562 L109.701367,2.75390625 C109.689648,2.8242191 109.683789,2.896484 109.683789,2.97070312 C109.683789,3.24414199 109.773632,3.52734229 109.95332,3.8203125 L110.486273,4.70356977 C110.808707,5.24974287 110.980664,5.57250927 111.002148,5.671875 C111.103711,5.85937594 111.154492,6.06445201 111.154492,6.28710938 C111.150586,6.38867238 111.138867,6.49609318 111.119336,6.609375 L110.820508,8.23242188 C110.781445,8.45117297 110.674024,8.63476488 110.498242,8.78320312 C110.32246,8.9277351 110.12129,9 109.894727,9 L108.494336,9 C108.287304,9 108.113477,8.92578199 107.972852,8.77734375 C107.836132,8.62890551 107.767773,8.4472667 107.767773,8.23242188 L107.767773,8.09765625 L108.136914,5.97070312 Z M112.571289,0.59765625 L113.543945,0.59765625 L112.254883,7.78125 L112.254883,7.81054688 C112.254883,7.87695346 112.276367,7.93554662 112.319336,7.98632812 C112.370117,8.03710963 112.428711,8.0625 112.495117,8.0625 L113.03418,8.0625 C113.237306,8.0625 113.356445,7.96484473 113.391602,7.76953125 L114.692383,0.59765625 L115.688477,0.59765625 L114.288086,8.24414062 C114.249023,8.45898545 114.141602,8.63867115 113.96582,8.78320312 C113.790038,8.9277351 113.588868,9 113.362305,9 L111.950195,9 C111.750976,9 111.579102,8.92578199 111.43457,8.77734375 C111.290038,8.62890551 111.217773,8.45117291 111.217773,8.24414062 L111.217773,8.09765625 L112.571289,0.59765625 Z M115.066211,5.97070312 L116.038867,5.97070312 L115.722461,7.76953125 L115.722461,7.79882812 C115.722461,7.86523471 115.745898,7.92382787 115.792773,7.97460938 C115.839649,8.02539088 115.896289,8.05078125 115.962695,8.05078125 L116.501758,8.05078125 C116.587696,8.05078125 116.66582,8.02343777 116.736133,7.96875 C116.810352,7.91015596 116.855273,7.83984416 116.870898,7.7578125 L117.081836,6.57421875 C117.089648,6.53906232 117.093555,6.50195332 117.093555,6.46289062 C117.093555,6.33789 117.048555,6.18289117 116.958555,5.99789103 L115.857227,3.93164062 L115.857227,3.93164062 C115.708788,3.63867041 115.63457,3.35156391 115.63457,3.0703125 L115.63457,3.01757812 C115.63457,2.95117154 115.64043,2.88281285 115.652148,2.8125 L115.904102,1.359375 C115.943164,1.14062391 116.052538,0.958985098 116.232227,0.814453125 C116.404102,0.669921152 116.601366,0.59765625 116.824023,0.59765625 L118.230273,0.59765625 C118.433399,0.59765625 118.609179,0.671874258 118.757617,0.8203125 C118.909962,0.968750742 118.986133,1.15234266 118.986133,1.37109375 L118.983203,1.43994144 L118.983203,1.43994144 L118.605273,3.55664062 L117.620898,3.55664062 L117.931445,1.82226562 C117.939258,1.81054682 117.943164,1.79492197 117.943164,1.77539062 C117.943164,1.71679658 117.917774,1.66210963 117.866992,1.61132812 C117.816211,1.56835916 117.757618,1.546875 117.691211,1.546875 L117.152148,1.546875 C117.066211,1.546875 116.990039,1.57421848 116.923633,1.62890625 C116.857226,1.67968775 116.816211,1.74414023 116.800586,1.82226562 L116.630664,2.75390625 C116.618945,2.8242191 116.613086,2.896484 116.613086,2.97070312 C116.613086,3.24414199 116.702929,3.52734229 116.882617,3.8203125 L117.41557,4.70356977 C117.738004,5.24974287 117.909961,5.57250927 117.931445,5.671875 C118.033008,5.85937594 118.083789,6.06445201 118.083789,6.28710938 C118.079883,6.38867238 118.068164,6.49609318 118.048633,6.609375 L117.749805,8.23242188 C117.710742,8.45117297 117.603321,8.63476488 117.427539,8.78320312 C117.251757,8.9277351 117.050587,9 116.824023,9 L115.423633,9 C115.216601,9 115.042774,8.92578199 114.902148,8.77734375 C114.765429,8.62890551 114.69707,8.4472667 114.69707,8.23242188 L114.69707,8.09765625 L115.066211,5.97070312 Z M118.52207,9 L119.881445,1.546875 L119.160742,1.546875 L119.330664,0.59765625 L121.774023,0.59765625 L121.592383,1.546875 L120.895117,1.546875 L119.547461,9 L118.52207,9 Z M120.255273,9 L123.026758,0.59765625 L124.03457,0.59765625 L123.770898,9 L122.81582,9 L122.886133,7.6171875 L121.737695,7.6171875 L121.327539,9 L120.255273,9 Z M122.933008,6.66796875 L123.120508,2.94726562 L122.018945,6.66796875 L122.933008,6.66796875 Z M124.982617,9 L123.968945,9 L125.498242,0.59765625 L126.506055,0.59765625 L124.982617,9 Z M125.385742,9 L126.90918,0.59765625 L127.922852,0.59765625 L128.044105,1.8421202 C128.267958,4.22174909 128.379883,5.94558618 128.379883,7.01367188 L128.406982,6.55197051 C128.499267,5.36123583 128.794919,3.37647874 129.293945,0.59765625 L130.307617,0.59765625 L128.78418,9 L127.770508,9 L127.65585,7.81670458 C127.431506,5.42835803 127.319336,3.73491266 127.319336,2.73632812 L127.304861,2.99031633 C127.229824,4.04630486 126.929964,6.0495165 126.405273,9 L125.385742,9 Z M112.486328,18.0625 L113.728516,18.0625 L113.558594,19 L111.279297,19 L112.802734,10.5976562 L113.822266,10.5976562 L112.486328,18.0625 Z M115.485156,10.5976562 L117.764453,10.5976562 L117.600391,11.5351562 L116.334766,11.5351562 L115.860156,14.2011719 L117.119922,14.2011719 L116.944141,15.1386719 L115.690234,15.1386719 L115.16875,18.0625 L116.410938,18.0625 L116.241016,19 L113.961719,19 L115.485156,10.5976562 Z M117.968359,10.5976562 L118.923438,10.5976562 L118.630469,16.6503906 L120.411719,10.5976562 L121.483984,10.5976562 L118.718359,19 L117.646094,19 L117.968359,10.5976562 Z M121.676172,10.5976562 L123.955469,10.5976562 L123.791406,11.5351562 L122.525781,11.5351562 L122.051172,14.2011719 L123.310937,14.2011719 L123.135156,15.1386719 L121.88125,15.1386719 L121.359766,18.0625 L122.601953,18.0625 L122.432031,19 L120.152734,19 L121.676172,10.5976562 Z M124.042187,18.0625 L125.284375,18.0625 L125.114453,19 L122.835156,19 L124.358594,10.5976562 L125.378125,10.5976562 L124.042187,18.0625 Z" id="sustainlevel"></path>
                    <path d="M76.0195312,14 L77.5429688,5.59765625 L79.8222656,5.59765625 C80.0332042,5.59765625 80.2128899,5.67382736 80.3613281,5.82617188 C80.5019538,5.97070385 80.5722656,6.13476471 80.5722656,6.31835938 C80.5722656,6.36914088 80.5664063,6.42773404 80.5546875,6.49414062 L79.3417969,13.2324219 C79.3027342,13.451173 79.1972665,13.6347649 79.0253906,13.7832031 C78.8535148,13.9277351 78.6562511,14 78.4335938,14 L76.0195312,14 Z M78.09375,13.0507812 C78.1796879,13.0507812 78.255859,13.0234378 78.3222656,12.96875 C78.3847659,12.9140622 78.423828,12.8437504 78.4394531,12.7578125 L79.5234375,6.82226562 C79.5273438,6.81054682 79.5292969,6.79687508 79.5292969,6.78125 C79.5292969,6.71484342 79.5058596,6.65820336 79.4589844,6.61132812 C79.4121091,6.56835916 79.353516,6.546875 79.2832031,6.546875 L78.375,6.546875 L77.1855469,13.0507812 L78.09375,13.0507812 Z M81.1980469,5.59765625 L83.4773438,5.59765625 L83.3132813,6.53515625 L82.0476563,6.53515625 L81.5730469,9.20117188 L82.8328125,9.20117188 L82.6570313,10.1386719 L81.403125,10.1386719 L80.8816406,13.0625 L82.1238281,13.0625 L81.9539063,14 L79.6746094,14 L81.1980469,5.59765625 Z M82.5152344,13.0859375 L83.7222656,6.359375 C83.7613283,6.14062391 83.8687491,5.9589851 84.0445313,5.81445312 C84.2203134,5.66992115 84.417577,5.59765625 84.6363281,5.59765625 L86.0601563,5.59765625 C86.2632823,5.59765625 86.4371087,5.67187426 86.5816406,5.8203125 C86.7300789,5.96875074 86.8042969,6.15038955 86.8042969,6.36523438 L86.7990886,6.45898437 L86.7990886,6.45898437 L86.4175781,8.5859375 L85.4449219,8.5859375 L85.7613281,6.82226562 L85.7613281,6.78710938 C85.7613281,6.71679652 85.7378909,6.65820336 85.6910156,6.61132812 C85.6441404,6.56835916 85.5855472,6.546875 85.5152344,6.546875 L84.9703125,6.546875 C84.8882808,6.546875 84.8121097,6.57421848 84.7417969,6.62890625 C84.6753903,6.67968775 84.6343751,6.74414023 84.61875,6.82226562 L83.5464844,12.7695312 L83.5464844,12.7988281 C83.5464844,12.8652347 83.5699216,12.9238279 83.6167969,12.9746094 C83.6636721,13.0253909 83.7222653,13.0507812 83.7925781,13.0507812 L84.3316406,13.0507812 C84.5347666,13.0507812 84.6539061,12.953126 84.6890625,12.7578125 L85.0054688,11 L85.9839844,11 L85.5855469,13.2324219 C85.5464842,13.451173 85.4371103,13.6347649 85.2574219,13.7832031 C85.0816397,13.9277351 84.882423,14 84.6597656,14 L83.259375,14 C83.0523427,14 82.8765632,13.925782 82.7320313,13.7773438 C82.5874993,13.6249992 82.5152344,13.4433604 82.5152344,13.2324219 L82.5152344,13.0859375 Z M85.6253906,14 L88.396875,5.59765625 L89.4046875,5.59765625 L89.1410156,14 L88.1859375,14 L88.25625,12.6171875 L87.1078125,12.6171875 L86.6976562,14 L85.6253906,14 Z M88.303125,11.6679688 L88.490625,7.94726562 L87.3890625,11.6679688 L88.303125,11.6679688 Z M90.8742187,10.7539062 L90.6339844,5.59765625 L91.6417969,5.59765625 L91.6300781,9.33007812 L93.1359375,5.59765625 L94.2023437,5.59765625 L91.8878906,10.7363281 L91.2960937,14 L90.2824219,14 L90.8742187,10.7539062 Z" id="decay"></path>
                    <path d="M40.728125,14 L43.4996094,5.59765625 L44.5074219,5.59765625 L44.24375,14 L43.2886719,14 L43.3589844,12.6171875 L42.2105469,12.6171875 L41.8003906,14 L40.728125,14 Z M43.4058594,11.6679688 L43.5933594,7.94726562 L42.4917969,11.6679688 L43.4058594,11.6679688 Z M44.9691406,14 L46.3285156,6.546875 L45.6078125,6.546875 L45.7777344,5.59765625 L48.2210937,5.59765625 L48.0394531,6.546875 L47.3421875,6.546875 L45.9945312,14 L44.9691406,14 Z M47.4347656,14 L48.7941406,6.546875 L48.0734375,6.546875 L48.2433594,5.59765625 L50.6867187,5.59765625 L50.5050781,6.546875 L49.8078125,6.546875 L48.4601562,14 L47.4347656,14 Z M49.1679687,14 L51.9394531,5.59765625 L52.9472656,5.59765625 L52.6835937,14 L51.7285156,14 L51.7988281,12.6171875 L50.6503906,12.6171875 L50.2402344,14 L49.1679687,14 Z M51.8457031,11.6679688 L52.0332031,7.94726562 L50.9316406,11.6679688 L51.8457031,11.6679688 Z M53.0398437,13.0859375 L54.246875,6.359375 C54.2859377,6.14062391 54.3933585,5.9589851 54.5691406,5.81445312 C54.7449228,5.66992115 54.9421864,5.59765625 55.1609375,5.59765625 L56.5847656,5.59765625 C56.7878916,5.59765625 56.961718,5.67187426 57.10625,5.8203125 C57.2546882,5.96875074 57.3289062,6.15038955 57.3289062,6.36523438 C57.3289062,6.41992215 57.325,6.46289047 57.3171875,6.49414062 L56.9421875,8.5859375 L55.9695312,8.5859375 L56.2859375,6.82226562 L56.2859375,6.78710938 C56.2859375,6.71679652 56.2625002,6.65820336 56.215625,6.61132812 C56.1687498,6.56835916 56.1101566,6.546875 56.0398437,6.546875 L55.4949219,6.546875 C55.4128902,6.546875 55.3367191,6.57421848 55.2664062,6.62890625 C55.1999997,6.67968775 55.1589845,6.74414023 55.1433594,6.82226562 L54.0710937,12.7695312 L54.0710937,12.7988281 C54.0710937,12.8652347 54.094531,12.9238279 54.1414062,12.9746094 C54.1882815,13.0253909 54.2468746,13.0507812 54.3171875,13.0507812 L54.85625,13.0507812 C55.059376,13.0507812 55.1785154,12.953126 55.2136719,12.7578125 L55.5300781,11 L56.5085937,11 L56.1101562,13.2324219 C56.0710936,13.451173 55.9617196,13.6347649 55.7820312,13.7832031 C55.6062491,13.9277351 55.4070324,14 55.184375,14 L53.7839844,14 C53.5769521,14 53.4011726,13.925782 53.2566406,13.7773438 C53.1121087,13.6249992 53.0398437,13.4433604 53.0398437,13.2324219 L53.0398437,13.0859375 Z M56.3550781,14 L57.884375,5.59765625 L58.8921875,5.59765625 L58.2359375,9.20117188 L60.2105469,5.59765625 L61.30625,5.59765625 L58.9742187,9.81054688 L59.7535156,14 L58.68125,14 L58.0660156,10.1386719 L57.36875,14 L56.3550781,14 Z" id="attack"></path>
                    <path d="M9.62792969,9 L10.9873047,1.546875 L10.2666016,1.546875 L10.4365234,0.59765625 L12.8798828,0.59765625 L12.6982422,1.546875 L12.0009766,1.546875 L10.6533203,9 L9.62792969,9 Z M11.7244141,8.23242188 L11.7244141,8.0859375 L12.9314453,1.359375 C12.970508,1.14062391 13.0779288,0.958985098 13.2537109,0.814453125 C13.4294931,0.669921152 13.6267567,0.59765625 13.8455078,0.59765625 L15.2693359,0.59765625 C15.472462,0.59765625 15.6462883,0.671874258 15.7908203,0.8203125 C15.9392586,0.968750742 16.0134766,1.15038955 16.0134766,1.36523438 C16.0134766,1.40169289 16.0117405,1.43294276 16.0082682,1.45898437 L14.7947266,8.23242188 C14.7556639,8.45117297 14.64629,8.63476488 14.4666016,8.78320312 C14.2908194,8.9277351 14.0916027,9 13.8689453,9 L12.4685547,9 C12.2615224,9 12.0857429,8.92578199 11.9412109,8.77734375 C11.796679,8.62499924 11.7244141,8.44336043 11.7244141,8.23242188 Z M12.7556641,7.76953125 L12.7556641,7.79882812 C12.7556641,7.86523471 12.7791013,7.92382787 12.8259766,7.97460938 C12.8728518,8.02539088 12.931445,8.05078125 13.0017578,8.05078125 L13.5408203,8.05078125 C13.7439463,8.05078125 13.8630858,7.95312598 13.8982422,7.7578125 L14.9705078,1.82226562 L14.9705078,1.78710938 C14.9705078,1.71679652 14.9470705,1.65820336 14.9001953,1.61132812 C14.8533201,1.56835916 14.7947269,1.546875 14.7244141,1.546875 L14.1794922,1.546875 C14.0974605,1.546875 14.0212894,1.57421848 13.9509766,1.62890625 C13.88457,1.67968775 13.8435548,1.74414023 13.8279297,1.82226562 L12.7556641,7.76953125 Z M15.5669922,9 L16.9263672,1.546875 L16.2056641,1.546875 L16.3755859,0.59765625 L18.8189453,0.59765625 L18.6373047,1.546875 L17.9400391,1.546875 L16.5923828,9 L15.5669922,9 Z M17.3001953,9 L20.0716797,0.59765625 L21.0794922,0.59765625 L20.8158203,9 L19.8607422,9 L19.9310547,7.6171875 L18.7826172,7.6171875 L18.3724609,9 L17.3001953,9 Z M19.9779297,6.66796875 L20.1654297,2.94726562 L19.0638672,6.66796875 L19.9779297,6.66796875 Z M22.2208984,8.0625 L23.4630859,8.0625 L23.2931641,9 L21.0138672,9 L22.5373047,0.59765625 L23.5568359,0.59765625 L22.2208984,8.0625 Z M10.4863281,18.0625 L11.7285156,18.0625 L11.5585938,19 L9.27929688,19 L10.8027344,10.5976562 L11.8222656,10.5976562 L10.4863281,18.0625 Z M13.4851563,10.5976562 L15.7644531,10.5976562 L15.6003906,11.5351562 L14.3347656,11.5351562 L13.8601563,14.2011719 L15.1199219,14.2011719 L14.9441406,15.1386719 L13.6902344,15.1386719 L13.16875,18.0625 L14.4109375,18.0625 L14.2410156,19 L11.9617188,19 L13.4851563,10.5976562 Z M15.9683594,10.5976562 L16.9234375,10.5976562 L16.6304687,16.6503906 L18.4117187,10.5976562 L19.4839844,10.5976562 L16.7183594,19 L15.6460938,19 L15.9683594,10.5976562 Z M19.6761719,10.5976562 L21.9554688,10.5976562 L21.7914063,11.5351562 L20.5257813,11.5351562 L20.0511719,14.2011719 L21.3109375,14.2011719 L21.1351563,15.1386719 L19.88125,15.1386719 L19.3597656,18.0625 L20.6019531,18.0625 L20.4320313,19 L18.1527344,19 L19.6761719,10.5976562 Z M22.0421875,18.0625 L23.284375,18.0625 L23.1144531,19 L20.8351563,19 L22.3585938,10.5976562 L23.378125,10.5976562 L22.0421875,18.0625 Z" id="Totallevel"></path>
                </g>
            </g>
            <g id="Ports">
                <g id="Out" transform="translate(0.000000, 110.000000)">
                    <rect id="Rectangle" fill="#343633" x="0" y="0" width="34" height="45" rx="5"></rect>
                    <path d="M9.60058594,14.8486328 L9.60058594,14.6289062 L11.4111328,4.5390625 C11.4697269,4.21093586 11.6308581,3.93847765 11.8945312,3.72167969 C12.1582044,3.50488173 12.4540999,3.39648438 12.7822266,3.39648438 L14.9179688,3.39648438 C15.2226578,3.39648438 15.4833974,3.50781139 15.7001953,3.73046875 C15.9228527,3.95312611 16.0341797,4.22558433 16.0341797,4.54785156 C16.0341797,4.60253934 16.0315755,4.64941414 16.0263672,4.68847655 L14.2060547,14.8486328 C14.1474606,15.1767595 13.9833998,15.4521473 13.7138672,15.6748047 C13.450194,15.8916026 13.1513689,16 12.8173828,16 L10.7167969,16 C10.4062484,16 10.1425792,15.888673 9.92578125,15.6660156 C9.70898329,15.4374989 9.60058594,15.1650406 9.60058594,14.8486328 Z M11.1474609,14.1542969 L11.1474609,14.1982422 C11.1474609,14.2978521 11.1826168,14.3857418 11.2529297,14.4619141 C11.3232425,14.5380863 11.4111323,14.5761719 11.5166016,14.5761719 L12.3251953,14.5761719 C12.6298843,14.5761719 12.8085935,14.429689 12.8613281,14.1367188 L14.4697266,5.23339844 L14.4697266,5.18066406 C14.4697266,5.07519479 14.4345707,4.98730504 14.3642578,4.91699219 C14.293945,4.85253874 14.2060552,4.8203125 14.1005859,4.8203125 L13.2832031,4.8203125 C13.1601556,4.8203125 13.045899,4.86132771 12.9404297,4.94335938 C12.8408198,5.01953163 12.779297,5.11621035 12.7558594,5.23339844 L11.1474609,14.1542969 Z M17.2822266,3.39648438 L18.7412109,3.39648438 L16.8076172,14.171875 L16.8076172,14.2158203 C16.8076172,14.3154302 16.8398434,14.4033199 16.9042969,14.4794922 C16.9804691,14.5556644 17.0683589,14.59375 17.1679688,14.59375 L17.9765625,14.59375 C18.2812515,14.59375 18.4599607,14.4472671 18.5126953,14.1542969 L20.4638672,3.39648438 L21.9580078,3.39648438 L19.8574219,14.8662109 C19.7988278,15.1884782 19.6376966,15.4580067 19.3740234,15.6748047 C19.1103502,15.8916026 18.8085954,16 18.46875,16 L16.3505859,16 C16.0517563,16 15.7939464,15.888673 15.5771484,15.6660156 C15.3603505,15.4433583 15.2519531,15.1767594 15.2519531,14.8662109 L15.2519531,14.6464844 L17.2822266,3.39648438 Z M21.4746094,16 L23.5136719,4.8203125 L22.4326172,4.8203125 L22.6875,3.39648438 L26.3525391,3.39648438 L26.0800781,4.8203125 L25.0341797,4.8203125 L23.0126953,16 L21.4746094,16 Z" id="OUT" fill="#C5C6BF" fill-rule="nonzero"></path>
                </g>
                <g id="Retrig" transform="translate(0.000000, 55.000000)">
                    <rect id="Rectangle" stroke="#343633" stroke-width="2" x="0" y="0" width="34" height="45" rx="5"></rect>
                    <path d="M2,15.6035156 L4.25878906,3 L7.64257812,3 C7.94726715,3 8.21093639,3.11132701 8.43359375,3.33398438 C8.65625111,3.55078233 8.77343744,3.81738123 8.78515625,4.13378906 L8.75,4.34472656 L8.75,4.34472656 L8.046875,8.31738281 C7.94726513,8.86816682 7.62207307,9.2197258 7.07128906,9.37207031 C7.27636821,9.44824257 7.4316401,9.58300685 7.53710938,9.77636719 C7.61914104,9.9287117 7.66015625,10.0986319 7.66015625,10.2861328 C7.66015625,10.3271486 7.65722659,10.3710935 7.65136719,10.4179688 L7.64746095,10.5664062 C7.64615887,10.5865885 7.64453126,10.6044921 7.64257812,10.6201172 L6.72851562,15.6035156 L5.18164062,15.6035156 L6.10449219,10.4443359 L6.10449219,10.4003906 C6.10449219,10.3007808 6.06933629,10.2158207 5.99902344,10.1455078 C5.92871059,10.075195 5.8437505,10.0400391 5.74414062,10.0400391 L4.52246094,10.0400391 L3.53808594,15.6035156 L2,15.6035156 Z M4.79492188,8.53710938 L6.01660156,8.53710938 C6.14550846,8.53710938 6.25976513,8.4931645 6.359375,8.40527344 C6.45312547,8.32324178 6.51171863,8.22070374 6.53515625,8.09765625 L7.1328125,4.83691406 L7.1328125,4.78417969 C7.1328125,4.67871041 7.0976566,4.59082066 7.02734375,4.52050781 C6.95117149,4.45605437 6.86035209,4.42382812 6.75488281,4.42382812 L5.54199219,4.42382812 L4.79492188,8.53710938 Z M10.0595703,3 L13.4785156,3 L13.2324219,4.40625 L11.3339844,4.40625 L10.6220703,8.40527344 L12.5117188,8.40527344 L12.2480469,9.81152344 L10.3671875,9.81152344 L9.58496094,14.1972656 L11.4482422,14.1972656 L11.1933594,15.6035156 L7.77441406,15.6035156 L10.0595703,3 Z M13.0390625,15.6035156 L15.078125,4.42382812 L13.9970703,4.42382812 L14.2519531,3 L17.9169922,3 L17.6445312,4.42382812 L16.5986328,4.42382812 L14.5771484,15.6035156 L13.0390625,15.6035156 Z M16.4052734,15.6035156 L18.6640625,3 L22.0478516,3 C22.3525406,3 22.6162098,3.11132701 22.8388672,3.33398438 C23.0615246,3.55078233 23.1787109,3.81738123 23.1904297,4.13378906 L23.1552734,4.34472656 L23.1552734,4.34472656 L22.4521484,8.31738281 C22.3525386,8.86816682 22.0273465,9.2197258 21.4765625,9.37207031 C21.6816417,9.44824257 21.8369135,9.58300685 21.9423828,9.77636719 C22.0244145,9.9287117 22.0654297,10.0986319 22.0654297,10.2861328 C22.0654297,10.3271486 22.0625,10.3710935 22.0566406,10.4179688 L22.0527344,10.5664062 C22.0514323,10.5865885 22.0498047,10.6044921 22.0478516,10.6201172 L21.1337891,15.6035156 L19.5869141,15.6035156 L20.5097656,10.4443359 L20.5097656,10.4003906 C20.5097656,10.3007808 20.4746097,10.2158207 20.4042969,10.1455078 C20.333984,10.075195 20.2490239,10.0400391 20.1494141,10.0400391 L18.9277344,10.0400391 L17.9433594,15.6035156 L16.4052734,15.6035156 Z M19.2001953,8.53710938 L20.421875,8.53710938 C20.5507819,8.53710938 20.6650386,8.4931645 20.7646484,8.40527344 C20.8583989,8.32324178 20.9169921,8.22070374 20.9404297,8.09765625 L21.5380859,4.83691406 L21.5380859,4.78417969 C21.5380859,4.67871041 21.50293,4.59082066 21.4326172,4.52050781 C21.3564449,4.45605437 21.2656255,4.42382812 21.1601562,4.42382812 L19.9472656,4.42382812 L19.2001953,8.53710938 Z M23.7001953,15.6035156 L22.1796875,15.6035156 L24.4736328,3 L25.9853516,3 L23.7001953,15.6035156 Z M24.9921875,14.2324219 L26.8027344,4.14257812 C26.8613284,3.81445148 27.0224596,3.54199327 27.2861328,3.32519531 C27.549806,3.10839735 27.8457015,3 28.1738281,3 L30.3095703,3 C30.6142593,3 30.8749989,3.11132701 31.0917969,3.33398438 C31.3144542,3.55664174 31.4257812,3.82909995 31.4257812,4.15136719 C31.4257812,4.20605496 31.4231771,4.25292977 31.4179688,4.29199217 L30.8457031,7.48242188 L29.3867188,7.48242188 L29.8613281,4.83691406 L29.8613281,4.78417969 C29.8613281,4.67871041 29.8261722,4.59082066 29.7558594,4.52050781 C29.6855465,4.45605437 29.5976568,4.42382812 29.4921875,4.42382812 L28.6748047,4.42382812 C28.5517572,4.42382812 28.4375005,4.46484334 28.3320312,4.546875 C28.2324214,4.62304726 28.1708986,4.71972598 28.1474609,4.83691406 L26.5390625,13.7578125 L26.5390625,13.8017578 C26.5390625,13.9013677 26.5742184,13.9892574 26.6445312,14.0654297 C26.7148441,14.1416019 26.8027338,14.1796875 26.9082031,14.1796875 L27.7167969,14.1796875 C28.0214859,14.1796875 28.200195,14.0332046 28.2529297,13.7402344 L28.9736328,9.890625 L28.1386719,9.890625 L28.3935547,8.484375 L30.6875,8.484375 L29.5976562,14.4521484 C29.5390622,14.7802751 29.3750013,15.0556629 29.1054688,15.2783203 C28.8417956,15.4951183 28.5429704,15.6035156 28.2089844,15.6035156 L26.1083984,15.6035156 C25.79785,15.6035156 25.5341808,15.4921886 25.3173828,15.2695312 C25.1005849,15.0410145 24.9921875,14.7685563 24.9921875,14.4521484 L24.9921875,14.2324219 Z" id="RETRIG" fill="#343633" fill-rule="nonzero"></path>
                </g>
                <g id="Gate">
                    <rect id="Rectangle" stroke="#343633" stroke-width="2" x="0" y="0" width="34" height="45" rx="5"></rect>
                    <path d="M7,14.2324219 L8.81054688,4.14257812 C8.86914092,3.81445148 9.03027212,3.54199327 9.29394531,3.32519531 C9.55761851,3.10839735 9.85351398,3 10.1816406,3 L12.3173828,3 C12.6220718,3 12.8828114,3.11132701 13.0996094,3.33398438 C13.3222667,3.55664174 13.4335938,3.82909995 13.4335938,4.15136719 C13.4335938,4.20605496 13.4309896,4.25292977 13.4257813,4.29199217 L12.8535156,7.48242188 L11.3945312,7.48242188 L11.8691406,4.83691406 L11.8691406,4.78417969 C11.8691406,4.67871041 11.8339847,4.59082066 11.7636719,4.52050781 C11.693359,4.45605437 11.6054693,4.42382812 11.5,4.42382812 L10.6826172,4.42382812 C10.5595697,4.42382812 10.445313,4.46484334 10.3398438,4.546875 C10.2402339,4.62304726 10.1787111,4.71972598 10.1552734,4.83691406 L8.546875,13.7578125 L8.546875,13.8017578 C8.546875,13.9013677 8.5820309,13.9892574 8.65234375,14.0654297 C8.7226566,14.1416019 8.81054635,14.1796875 8.91601562,14.1796875 L9.72460938,14.1796875 C10.0292984,14.1796875 10.2080075,14.0332046 10.2607422,13.7402344 L10.9814453,9.890625 L10.1464844,9.890625 L10.4013672,8.484375 L12.6953125,8.484375 L11.6054688,14.4521484 C11.5468747,14.7802751 11.3828138,15.0556629 11.1132812,15.2783203 C10.8496081,15.4951183 10.5507829,15.6035156 10.2167969,15.6035156 L8.11621094,15.6035156 C7.80566251,15.6035156 7.54199327,15.4921886 7.32519531,15.2695312 C7.10839735,15.0410145 7,14.7685563 7,14.4521484 L7,14.2324219 Z M12.1152344,15.6035156 L16.2724609,3 L17.7841797,3 L17.3886719,15.6035156 L15.9560547,15.6035156 L16.0615234,13.5292969 L14.3388672,13.5292969 L13.7236328,15.6035156 L12.1152344,15.6035156 Z M16.1318359,12.1054688 L16.4130859,6.52441406 L14.7607422,12.1054688 L16.1318359,12.1054688 Z M18.9267578,15.6035156 L20.9658203,4.42382812 L19.8847656,4.42382812 L20.1396484,3 L23.8046875,3 L23.5322266,4.42382812 L22.4863281,4.42382812 L20.4648438,15.6035156 L18.9267578,15.6035156 Z M24.5693359,3 L27.9882812,3 L27.7421875,4.40625 L25.84375,4.40625 L25.1318359,8.40527344 L27.0214844,8.40527344 L26.7578125,9.81152344 L24.8769531,9.81152344 L24.0947266,14.1972656 L25.9580078,14.1972656 L25.703125,15.6035156 L22.2841797,15.6035156 L24.5693359,3 Z" id="GATE" fill="#343633" fill-rule="nonzero"></path>
                </g>
            </g>
        </g>
    </g>
</svg>