<?xml version="1.0" encoding="UTF-8"?>
<svg width="420px" height="380px" viewBox="0 0 420 380" version="1.1" xmlns="http://www.w3.org/2000/svg" xmlns:xlink="http://www.w3.org/1999/xlink">
    <!-- Generator: Sketch 58 (84663) - https://sketch.com -->
    <title>S-SMP-Chip</title>
    <desc>Created with Sketch.</desc>
    <g id="S-SMP-Chip" stroke="none" stroke-width="1" fill="none" fill-rule="evenodd">
        <g id="SNES-Sound-Module" transform="translate(0.000000, -1.000000)">
            <g id="Sound-Processor-Module">
                <rect id="Circuit-Board" fill="#244D28" x="0.03125" y="0.909090909" width="420" height="380"></rect>
                <path d="M420,1 L420,381 L0,381 L0,1 L420,1 Z M392.625,314.167 L368.779039,314.167256 L341.940557,340.608131 L341.94,358.681 L392.625,358.681819 L392.625,314.167 Z M325.09,19.545 L19.5,19.545455 L19.5,290.888 L88.186,358.681 L285.519,358.681 L392.625,253.162 L392.625,86.203 L325.09,19.545 Z" id="Bracket" fill="#000000"></path>
                <path d="M420,1 L420,381 L0,381 L0,1 L420,1 Z M394.625,310.167 L367.779039,310.167256 L340.940557,336.608131 L340.94,357.681 L394.625,357.681818 L394.625,310.167 Z M326.077,16.545 L17.5,16.5454545 L17.5,290.888 L85.173,357.681 L281.474,357.681 L394.625,246.206 L394.625,84.203 L326.077,16.545 Z" id="Bracket-Copy" fill="#C5C6BF"></path>
            </g>
            <g id="9112-32k-SRAM-manufactured-by-Sharp" transform="translate(223.468750, 256.454545)">
                <path d="M10.8072917,0.343767413 L10.8072917,53.9715548 M18.15625,0.687535281 L18.15625,54.3153227 M25.9375,0.687535281 L25.9375,54.3153227 M33.71875,0.687535281 L33.71875,54.3153227 M41.9322917,0.343767413 L41.9322917,53.9715548 M49.28125,0.687535281 L49.28125,54.3153227 M57.0625,0.687535281 L57.0625,54.3153227 M64.84375,0.687535281 L64.84375,54.3153227 M72.1927083,0.343767413 L72.1927083,53.9715548 M79.5416667,0.687535281 L79.5416667,54.3153227 M87.3229167,0.687535281 L87.3229167,54.3153227" id="Combined-Shape" stroke="#F4EEDE" stroke-width="4" stroke-linecap="square"></path>
                <rect id="Rectangle-Copy-23" fill="#000000" x="1" y="6.36363636" width="97.6979167" height="42.3181818"></rect>
                <rect id="Rectangle-Copy-16" fill="#2E2E2E" x="0" y="5.36363636" width="97.6979167" height="42.3181818"></rect>
                <path d="M18.15625,33.4200107 L18.9127604,29.2165305 L20.8867798,29.2165305 L20.2366536,32.7824041 L20.2366536,32.8414418 C20.2366536,32.9752611 20.2839351,33.0933352 20.3784993,33.1956676 C20.4494226,33.2665131 20.5282249,33.3137428 20.6149089,33.337358 L21.8442383,33.337358 C22.0176061,33.337358 22.1712708,33.2822567 22.3052368,33.1720526 C22.4313225,33.0697201 22.5101249,32.9359028 22.5416463,32.7705966 L23.3454386,28.3191584 L23.3454386,28.2601207 C23.3454386,28.1263014 23.2981572,28.0121631 23.2035929,27.9177024 C23.1090287,27.8232417 22.9947652,27.7760121 22.8607992,27.7760121 L21.1941121,27.7760121 L21.5605469,25.7569247 L23.2272339,25.7569247 C23.4006017,25.7569247 23.5542664,25.6978877 23.6882324,25.5798118 C23.8143181,25.4696076 23.8931205,25.3318545 23.9246419,25.1665483 L24.7638957,20.7859553 L24.7638957,20.7151101 C24.7638957,20.573419 24.7166142,20.4553449 24.62205,20.3608842 C24.5274857,20.2742953 24.4132222,20.2310014 24.2792562,20.2310014 L23.1326701,20.2310014 C22.9671826,20.2310014 22.813518,20.2861027 22.6716715,20.3963068 C22.5377055,20.4986392 22.454963,20.6285208 22.4234416,20.7859553 L21.7851359,24.3518288 L19.8111165,24.3518288 L20.6149089,19.8531605 C20.6937124,19.4123439 20.910419,19.0463142 21.265035,18.7550604 C21.619651,18.4638065 22.017603,18.3181818 22.458903,18.3181818 L25.3549194,18.3181818 C25.7725783,18.3181818 26.1311291,18.4716782 26.4305827,18.7786754 C26.7221559,19.0699292 26.8679403,19.4044725 26.8679403,19.7823153 C26.8679403,19.8846478 26.8561199,19.9987861 26.8324788,20.1247337 L25.8395589,25.4617365 C25.6977125,26.2016787 25.2603593,26.6739751 24.5274862,26.8786399 C24.8032986,26.9809723 25.0121249,27.1620193 25.1539714,27.4217862 C25.2642963,27.6264511 25.319458,27.8547277 25.319458,28.1066229 C25.319458,28.1617249 25.3155179,28.220762 25.3076375,28.2837358 L25.3046824,28.4401857 C25.3027124,28.4854477 25.2997572,28.523822 25.2958171,28.5553089 L24.3619995,33.7033913 C24.2831959,34.1520797 24.0704295,34.5220452 23.7236938,34.813299 C23.3769582,35.1045528 22.9790062,35.2501776 22.5298258,35.2501776 L19.6574504,35.2501776 C19.2397915,35.2501776 18.8851808,35.100617 18.5936076,34.8014915 C18.3020344,34.5023659 18.15625,34.140272 18.15625,33.7151989 L18.15625,33.4200107 Z M25.5322266,35.2501776 L26.265096,30.7869318 C26.2966175,30.6137539 26.3438989,30.4405785 26.4069417,30.2674006 C26.5820608,29.7566131 26.8941574,29.224064 27.3432394,28.6697407 L27.6610792,28.2935029 L27.6610792,28.2935029 L30.7086949,24.8152641 C30.7639933,24.7535709 30.807635,24.7053603 30.83962,24.6706321 C31.304561,24.1510983 31.5961298,23.7299673 31.7143351,23.4072266 L31.7438863,23.2921031 L31.7438863,23.2921031 L32.1516927,20.7977628 L32.1516927,20.7269176 C32.1516927,20.5930983 32.1122915,20.4750242 32.033488,20.3726918 C31.923163,20.2624876 31.7813187,20.2073864 31.6079508,20.2073864 L30.7095947,20.2073864 C30.5756287,20.2073864 30.4416646,20.2585518 30.3076986,20.3608842 C30.1894932,20.4632167 30.1028106,20.5812908 30.0476481,20.7151101 L30.0240072,20.7741477 L29.4211629,24.4108665 L27.458964,24.4108665 L28.180013,20.1129261 L28.2745768,19.841353 C28.4243036,19.4162798 28.6843514,19.0581217 29.0547282,18.7668679 C29.4408656,18.4677423 29.8427578,18.3181818 30.2604167,18.3181818 L32.9082031,18.3181818 C33.3810245,18.3181818 33.7395753,18.4638065 33.9838664,18.7550604 C34.1729949,18.9833404 34.2675578,19.2667182 34.2675578,19.6052024 L34.2675578,19.6878551 C34.2675578,19.7350855 34.2636177,19.7862509 34.2557373,19.841353 L33.7238159,23.2419212 C33.7001748,23.4702012 33.6489533,23.694542 33.5701497,23.9149503 C33.420423,24.3557669 33.1761356,24.7650904 32.8372803,25.1429332 L32.7522911,25.2525071 C32.4125717,25.6690758 31.3100842,26.8762684 29.4448039,28.8741122 C28.8852986,29.4644916 28.5070472,30.0351831 28.3100382,30.5862038 C28.2548758,30.7436383 28.2154746,30.8931989 28.1918335,31.0348899 L27.8017578,33.337358 L32.0689494,33.337358 L31.7497965,35.2501776 L25.5322266,35.2501776 Z M33.0855103,35.2501776 L36.1706543,18.3181818 L38.203776,18.3181818 L36.8798828,25.5798118 L40.863383,18.3181818 L43.0738118,18.3181818 L38.3692627,26.8077947 L39.9413859,35.2501776 L37.7782389,35.2501776 L36.537089,27.4690163 L35.1304525,35.2501776 L33.0855103,35.2501776 Z M43.8539632,18.3181818 L48.3102824,18.3181818 C48.7279413,18.3181818 49.0864921,18.4716782 49.3859456,18.7786754 C49.6775188,19.0699292 49.8233032,19.4044725 49.8233032,19.7823153 C49.8233032,19.8846478 49.8114829,19.9987861 49.7878418,20.1247337 L48.7949219,25.4617365 C48.6530755,26.2016787 48.2157223,26.6739751 47.4828491,26.8786399 C47.7586616,26.9809723 47.9674879,27.1620193 48.1093343,27.4217862 C48.2196593,27.6264511 48.274821,27.8547277 48.274821,28.1066229 C48.274821,28.1617249 48.2708808,28.220762 48.2630005,28.2837358 L48.2600454,28.4401857 C48.2580753,28.4854477 48.2551202,28.523822 48.25118,28.5553089 L47.3173625,33.7033913 C47.2385589,34.1520797 47.0257925,34.5220452 46.6790568,34.813299 C46.3323211,35.1045528 45.9343691,35.2501776 45.4851888,35.2501776 L40.7806396,35.2501776 L43.8539632,18.3181818 Z M44.5395508,25.7569247 L46.1825968,25.7569247 C46.3559647,25.7569247 46.5096293,25.6978877 46.6435954,25.5798118 C46.7696811,25.4696076 46.8484835,25.3318545 46.8800049,25.1665483 L47.7192586,20.7859553 L47.7192586,20.7151101 C47.7192586,20.573419 47.6719772,20.4553449 47.5774129,20.3608842 C47.4828486,20.2742953 47.3685852,20.2310014 47.2346191,20.2310014 L45.5442912,20.2310014 L44.5395508,25.7569247 Z M43.1683757,33.337358 L44.7996012,33.337358 C44.9729691,33.337358 45.1266337,33.2822567 45.2605998,33.1720526 C45.3866855,33.0697201 45.4654879,32.9359028 45.4970093,32.7705966 L46.3008016,28.3191584 L46.3008016,28.2601207 C46.3008016,28.1263014 46.2535202,28.0121631 46.1589559,27.9177024 C46.0643916,27.8232417 45.9501282,27.7760121 45.8161621,27.7760121 L44.173116,27.7760121 L43.1683757,33.337358 Z M52.0219116,35.2501776 L55.0597738,18.3181818 L59.6106567,18.3181818 C60.0204353,18.3181818 60.375046,18.4677423 60.6744995,18.7668679 C60.973953,19.0581217 61.1315578,19.4162798 61.1473185,19.841353 L61.1000366,20.1247337 L61.1000366,20.1247337 L60.1543986,25.4617365 C60.0204325,26.2016787 59.5830793,26.6739751 58.8423258,26.8786399 C59.1181383,26.9809723 59.3269646,27.1620193 59.468811,27.4217862 C59.579136,27.6264511 59.6342977,27.8547277 59.6342977,28.1066229 C59.6342977,28.1617249 59.6303576,28.220762 59.6224772,28.2837358 C59.6224772,28.4018117 59.6185371,28.4923351 59.6106567,28.5553089 L58.3813273,35.2501776 L56.3009237,35.2501776 L57.5420736,28.3191584 L57.5420736,28.2601207 C57.5420736,28.1263014 57.4947921,28.0121631 57.4002279,27.9177024 C57.3056636,27.8232417 57.1914001,27.7760121 57.0574341,27.7760121 L55.414388,27.7760121 L54.0904948,35.2501776 L52.0219116,35.2501776 Z M55.7808228,25.7569247 L57.4238688,25.7569247 C57.5972367,25.7569247 57.7509013,25.6978877 57.8848674,25.5798118 C58.0109531,25.4696076 58.0897554,25.3318545 58.1212769,25.1665483 L58.9250692,20.7859553 L58.9250692,20.7151101 C58.9250692,20.573419 58.8777877,20.4553449 58.7832235,20.3608842 C58.6807788,20.2742953 58.5586351,20.2310014 58.4167887,20.2310014 L56.7855632,20.2310014 L55.7808228,25.7569247 Z M59.3742472,35.2501776 L64.965332,18.3181818 L66.9984538,18.3181818 L66.4665324,35.2501776 L64.5397949,35.2501776 L64.6816406,32.4636009 L62.3648275,32.4636009 L61.5373942,35.2501776 L59.3742472,35.2501776 Z M64.7762044,30.5507812 L65.1544596,23.0530007 L62.9322103,30.5507812 L64.7762044,30.5507812 Z M70.5564168,18.3181818 L72.9914347,18.3181818 L72.8614095,30.5153587 L76.9512939,18.3181818 L79.7645671,18.3181818 L76.6912435,35.2501776 L74.6463013,35.2501776 L76.5257568,24.6824396 L72.9559733,35.2501776 L71.2301839,35.2501776 L71.3602091,24.5525568 L69.516215,35.2501776 L67.4712728,35.2501776 L70.5564168,18.3181818 Z" id="32KBRAM" fill="#DADADA" fill-rule="nonzero"></path>
            </g>
            <g id="-9124-32k-SRAM-manufactured-by-Hitachi" transform="translate(309.416667, 103.772727)">
                <path d="M-8.91666667,22.5500575 L-8.91666667,72.9044879 M-15.9166667,22.5500575 L-15.9166667,72.9044879 M-0.916666667,22.5500575 L-0.916666667,72.9044879 M6.08333333,22.5500575 L6.08333333,72.9044879 M14.0833333,22.5500575 L14.0833333,72.9044879 M22.0833333,22.5500575 L22.0833333,72.9044879 M30.0833333,22.5500575 L30.0833333,72.9044879 M38.0833333,22.5500575 L38.0833333,72.9044879 M45.0833333,22.5500575 L45.0833333,72.9044879 M53.0833333,22.5500575 L53.0833333,72.9044879 M60.0833333,22.5500575 L60.0833333,72.9044879 M68.0833333,22.5500575 L68.0833333,72.9044879" id="Combined-Shape" stroke="#F4EEDE" stroke-width="4" stroke-linecap="square" transform="translate(26.083333, 47.727273) rotate(-270.000000) translate(-26.083333, -47.727273) "></path>
                <rect id="Rectangle-Copy-22" fill="#000000" x="5.83333333" y="1" width="41.5" height="95"></rect>
                <rect id="Rectangle-Copy-17" fill="#2E2E2E" x="4.83333333" y="0" width="41.5" height="95"></rect>
                <path d="M10.0208333,42.7381925 L10.7773437,38.5347124 L12.7513631,38.5347124 L12.101237,42.1005859 L12.101237,42.1596236 C12.101237,42.2934429 12.1485184,42.411517 12.2430827,42.5138494 C12.3140059,42.584695 12.3928083,42.6319246 12.4794922,42.6555398 L13.7088216,42.6555398 C13.8821895,42.6555398 14.0358541,42.6004385 14.1698201,42.4902344 C14.2959058,42.387902 14.3747082,42.2540846 14.4062297,42.0887784 L15.210022,37.6373402 L15.210022,37.5783026 C15.210022,37.4444832 15.1627405,37.3303449 15.0681763,37.2358842 C14.973612,37.1414235 14.8593485,37.0941939 14.7253825,37.0941939 L13.0586955,37.0941939 L13.4251302,35.0751065 L15.0918172,35.0751065 C15.2651851,35.0751065 15.4188497,35.0160695 15.5528158,34.8979936 C15.6789015,34.7877895 15.7577038,34.6500363 15.7892253,34.4847301 L16.628479,30.1041371 L16.628479,30.0332919 C16.628479,29.8916009 16.5811976,29.7735268 16.4866333,29.6790661 C16.392069,29.5924771 16.2778056,29.5491832 16.1438395,29.5491832 L14.9972534,29.5491832 C14.8317659,29.5491832 14.6781013,29.6042845 14.5362549,29.7144886 C14.4022888,29.8168211 14.3195463,29.9467026 14.2880249,30.1041371 L13.6497192,33.6700107 L11.6756999,33.6700107 L12.4794922,29.1713423 C12.5582957,28.7305257 12.7750023,28.364496 13.1296183,28.0732422 C13.4842344,27.7819884 13.8821864,27.6363636 14.3234863,27.6363636 L17.2195028,27.6363636 C17.6371616,27.6363636 17.9957125,27.78986 18.295166,28.0968572 C18.5867392,28.3881111 18.7325236,28.7226544 18.7325236,29.1004972 C18.7325236,29.2028296 18.7207032,29.3169679 18.6970622,29.4429155 L17.7041423,34.7799183 C17.5622958,35.5198605 17.1249426,35.9921569 16.3920695,36.1968217 C16.667882,36.2991542 16.8767083,36.4802011 17.0185547,36.739968 C17.1288797,36.9446329 17.1840413,37.1729095 17.1840413,37.4248047 C17.1840413,37.4799068 17.1801012,37.5389438 17.1722209,37.6019176 L17.1692658,37.7583675 C17.1672957,37.8036295 17.1643406,37.8420039 17.1604004,37.8734908 L16.2265828,43.0215732 C16.1477793,43.4702615 15.9350129,43.840227 15.5882772,44.1314808 C15.2415415,44.4227346 14.8435895,44.5683594 14.3944092,44.5683594 L11.5220337,44.5683594 C11.1043748,44.5683594 10.7497641,44.4187988 10.4581909,44.1196733 C10.1666177,43.8205477 10.0208333,43.4584538 10.0208333,43.0333807 L10.0208333,42.7381925 Z M17.3968099,44.5683594 L18.1296794,40.1051136 C18.1612008,39.9319357 18.2084822,39.7587603 18.2715251,39.5855824 C18.4466441,39.0747949 18.7587407,38.5422458 19.2078228,37.9879225 L19.7171973,37.3905131 L19.7171973,37.3905131 L22.3724127,34.358973 C22.5296367,34.1816564 22.6402333,34.0582703 22.7042033,33.9888139 C23.1691443,33.4692801 23.4607131,33.0481491 23.5789185,32.7254084 L23.6084697,32.610285 L23.6084697,32.610285 L24.016276,30.1159446 L24.016276,30.0450994 C24.016276,29.9112801 23.9768749,29.793206 23.8980713,29.6908736 C23.7877463,29.5806694 23.645902,29.5255682 23.4725342,29.5255682 L22.5741781,29.5255682 C22.440212,29.5255682 22.306248,29.5767336 22.1722819,29.6790661 C22.0540766,29.7813985 21.9673939,29.8994726 21.9122314,30.0332919 L21.8885905,30.0923295 L21.2857463,33.7290483 L19.3235474,33.7290483 L20.0445964,29.431108 L20.1391602,29.1595348 C20.2888869,28.7344617 20.5489348,28.3763035 20.9193115,28.0850497 C21.305449,27.7859242 21.7073411,27.6363636 22.125,27.6363636 L24.7727865,27.6363636 C25.2456078,27.6363636 25.6041587,27.7819884 25.8484497,28.0732422 C26.0375783,28.3015222 26.1321411,28.5849001 26.1321411,28.9233842 L26.1321411,29.0060369 C26.1321411,29.0532673 26.128201,29.1044327 26.1203206,29.1595348 L25.5883993,32.560103 C25.5647582,32.788383 25.5135366,33.0127238 25.4347331,33.2331321 C25.2850063,33.6739487 25.0407189,34.0832723 24.7018636,34.4611151 L24.5759889,34.620228 C24.1944429,35.0777639 23.1055831,36.2684445 21.3093872,38.192294 C20.7498819,38.7826734 20.3716305,39.3533649 20.1746216,39.9043857 C20.1194591,40.0618202 20.0800579,40.2113807 20.0564168,40.3530717 L19.6663411,42.6555398 L23.9335327,42.6555398 L23.6143799,44.5683594 L17.3968099,44.5683594 Z M24.9500936,44.5683594 L28.0352376,27.6363636 L30.0683594,27.6363636 L28.7444661,34.8979936 L32.7279663,27.6363636 L34.9383952,27.6363636 L30.233846,36.1259766 L31.8059692,44.5683594 L29.6428223,44.5683594 L28.4016724,36.7871982 L26.9950358,44.5683594 L24.9500936,44.5683594 Z M35.7185465,27.6363636 L40.1748657,27.6363636 C40.5925246,27.6363636 40.9510754,27.78986 41.250529,28.0968572 C41.5421022,28.3881111 41.6878866,28.7226544 41.6878866,29.1004972 C41.6878866,29.2028296 41.6760662,29.3169679 41.6524251,29.4429155 L40.6595052,34.7799183 C40.5176588,35.5198605 40.0803056,35.9921569 39.3474325,36.1968217 C39.6232449,36.2991542 39.8320712,36.4802011 39.9739176,36.739968 C40.0842426,36.9446329 40.1394043,37.1729095 40.1394043,37.4248047 C40.1394043,37.4799068 40.1354642,37.5389438 40.1275838,37.6019176 L40.1246287,37.7583675 C40.1226586,37.8036295 40.1197035,37.8420039 40.1157633,37.8734908 L39.1819458,43.0215732 C39.1031422,43.4702615 38.8903758,43.840227 38.5436401,44.1314808 C38.1969045,44.4227346 37.7989524,44.5683594 37.3497721,44.5683594 L32.645223,44.5683594 L35.7185465,27.6363636 Z M36.4041341,35.0751065 L38.0471802,35.0751065 C38.220548,35.0751065 38.3742127,35.0160695 38.5081787,34.8979936 C38.6342644,34.7877895 38.7130668,34.6500363 38.7445882,34.4847301 L39.583842,30.1041371 L39.583842,30.0332919 C39.583842,29.8916009 39.5365605,29.7735268 39.4419963,29.6790661 C39.347432,29.5924771 39.2331685,29.5491832 39.0992025,29.5491832 L37.4088745,29.5491832 L36.4041341,35.0751065 Z M35.032959,42.6555398 L36.6641846,42.6555398 C36.8375524,42.6555398 36.991217,42.6004385 37.1251831,42.4902344 C37.2512688,42.387902 37.3300712,42.2540846 37.3615926,42.0887784 L38.1653849,37.6373402 L38.1653849,37.5783026 C38.1653849,37.4444832 38.1181035,37.3303449 38.0235392,37.2358842 C37.928975,37.1414235 37.8147115,37.0941939 37.6807454,37.0941939 L36.0376994,37.0941939 L35.032959,42.6555398 Z M11.9653015,67.0229048 L15.0031637,50.0909091 L19.5540466,50.0909091 C19.9638252,50.0909091 20.3184359,50.2404696 20.6178894,50.5395952 C20.9173429,50.830849 21.0749477,51.1890071 21.0907084,51.6140803 L21.0434265,51.8974609 L21.0434265,51.8974609 L20.0977885,57.2344638 C19.9638224,57.9744059 19.5264692,58.4467023 18.7857157,58.6513672 C19.0615282,58.7536996 19.2703545,58.9347466 19.4122009,59.1945135 C19.5225259,59.3991783 19.5776876,59.6274549 19.5776876,59.8793501 C19.5776876,59.9344522 19.5737475,59.9934893 19.5658671,60.0564631 L19.562912,60.2129129 C19.5609419,60.258175 19.5579868,60.2965493 19.5540466,60.3280362 L18.3247172,67.0229048 L16.2443136,67.0229048 L17.4854635,60.0918857 L17.4854635,60.032848 C17.4854635,59.8990287 17.438182,59.7848904 17.3436178,59.6904297 C17.2490535,59.595969 17.13479,59.5487393 17.000824,59.5487393 L15.3577779,59.5487393 L14.0338847,67.0229048 L11.9653015,67.0229048 Z M15.7242126,57.529652 L17.3672587,57.529652 C17.5406265,57.529652 17.6942912,57.4706149 17.8282572,57.3525391 C17.9543429,57.2423349 18.0331453,57.1045818 18.0646667,56.9392756 L18.8684591,52.5586825 L18.8684591,52.4878374 C18.8684591,52.3461463 18.8211776,52.2280722 18.7266134,52.1336115 C18.6241687,52.0470225 18.502025,52.0037287 18.3601786,52.0037287 L16.728953,52.0037287 L15.7242126,57.529652 Z M19.3176371,67.0229048 L24.9087219,50.0909091 L26.9418437,50.0909091 L26.4099223,67.0229048 L24.4831848,67.0229048 L24.6250305,64.2363281 L22.3082174,64.2363281 L21.4807841,67.0229048 L19.3176371,67.0229048 Z M24.7195943,62.3235085 L25.0978495,54.825728 L22.8756002,62.3235085 L24.7195943,62.3235085 Z M30.4998067,50.0909091 L32.9348246,50.0909091 L32.8047994,62.2880859 L36.8946838,50.0909091 L39.7079569,50.0909091 L36.6346334,67.0229048 L34.5896912,67.0229048 L36.4691467,56.4551669 L32.8993632,67.0229048 L31.1735738,67.0229048 L31.303599,56.3252841 L29.4596049,67.0229048 L27.4146627,67.0229048 L30.4998067,50.0909091 Z" id="32KBRAM" fill="#DADADA" fill-rule="nonzero"></path>
            </g>
            <g id="D6376-2-channel-16-bit-DAC-manufactured-by-NEC" transform="translate(232.979167, 132.272727)">
                <path d="M0.864583333,6.47727273 L45.8229167,6.47727273 M0.432291667,13.8181818 L45.390625,13.8181818 M0.432291667,19.8636364 L45.390625,19.8636364 M0.432291667,26.6363636 L45.390625,26.6363636 M0.432291667,33.6818182 L45.390625,33.6818182 M0.432291667,39.7272727 L45.390625,39.7272727 M0.432291667,45.7727273 L45.390625,45.7727273" id="Combined-Shape" stroke="#E7E7E6" stroke-width="3" stroke-linecap="square"></path>
                <rect id="Rectangle-Copy-25" fill="#000000" x="7.05208333" y="1" width="33.71875" height="51.8181818"></rect>
                <rect id="Rectangle-Copy-18" fill="#2E2E2E" x="6.05208333" y="0" width="33.71875" height="51.8181818"></rect>
                <path d="M11.2395833,34.204723 L14.3129069,17.2727273 L18.9110718,17.2727273 C19.336611,17.2727273 19.699102,17.4262236 19.9985555,17.7332209 C20.2822483,18.0244747 20.4240926,18.3550822 20.4240926,18.7250533 C20.4240926,18.8273857 20.4122723,18.9454598 20.3886312,19.0792791 L17.9417928,32.6579368 C17.8629892,33.0987534 17.6502228,33.4687189 17.3034871,33.7678445 C16.9567515,34.0590983 16.5587994,34.204723 16.1096191,34.204723 L11.2395833,34.204723 Z M15.4240316,32.2919034 C15.5973994,32.2919034 15.7510641,32.2368022 15.8850301,32.126598 C16.0111158,32.0163939 16.0899182,31.8747049 16.1214396,31.701527 L18.3082275,19.7405007 C18.3161079,19.7168855 18.320048,19.6893349 18.320048,19.657848 C18.320048,19.5240287 18.2727666,19.4098904 18.1782023,19.3154297 C18.083638,19.2288407 17.9654345,19.1855469 17.8235881,19.1855469 L15.9914144,19.1855469 L13.5918579,32.2919034 L15.4240316,32.2919034 Z M18.8046875,34.204723 L24.3957723,17.2727273 L26.428894,17.2727273 L25.8969727,34.204723 L23.9702352,34.204723 L24.1120809,31.4181463 L21.7952677,31.4181463 L20.9678345,34.204723 L18.8046875,34.204723 Z M24.2066447,29.5053267 L24.5848999,22.0075462 L22.3626506,29.5053267 L24.2066447,29.5053267 Z M27.2208659,32.3627486 L29.6558838,18.807706 C29.7346874,18.3668894 29.9513939,18.0008596 30.3060099,17.7096058 C30.660626,17.418352 31.058578,17.2727273 31.4998779,17.2727273 L34.3722534,17.2727273 C34.7820319,17.2727273 35.1327025,17.4222878 35.4242757,17.7214134 C35.7237293,18.0205389 35.8734538,18.3865686 35.8734538,18.8195135 C35.8734538,18.8929829 35.8699514,18.9559561 35.8629467,19.0084339 L35.0933024,23.2945668 L33.1311035,23.2945668 L33.7694092,19.7405007 L33.7694092,19.6696555 C33.7694092,19.5279645 33.7221278,19.4098904 33.6275635,19.3154297 C33.5329992,19.2288407 33.4147956,19.1855469 33.2729492,19.1855469 L32.173645,19.1855469 C32.0081575,19.1855469 31.8544929,19.2406481 31.7126465,19.3508523 C31.5786804,19.4531847 31.4959379,19.5830662 31.4644165,19.7405007 L29.3012695,31.725142 L29.3012695,31.7841797 C29.3012695,31.917999 29.348551,32.0360731 29.4431152,32.1384055 C29.5376795,32.240738 29.6558831,32.2919034 29.7977295,32.2919034 L30.8852132,32.2919034 C31.2949917,32.2919034 31.535339,32.0951132 31.6062622,31.701527 L32.2445679,28.1592685 L34.2185872,28.1592685 L33.4147949,32.6579368 C33.3359914,33.0987534 33.1153447,33.4687189 32.7528483,33.7678445 C32.3982323,34.0590983 31.9963401,34.204723 31.5471598,34.204723 L28.7220662,34.204723 C28.3044074,34.204723 27.9497967,34.0551625 27.6582235,33.7560369 C27.3666503,33.4490397 27.2208659,33.0830099 27.2208659,32.6579368 L27.2208659,32.3627486 Z" id="DAC" fill="#DADADA" fill-rule="nonzero"></path>
            </g>
            <g id="2904-Dual-Op-Amp-manufactured-by-JRC" transform="translate(256.729167, 55.409091)">
                <path d="M0.653812057,10.0909091 L35.8878546,10.0909091 M0.653812057,5.09090909 L35.8878546,5.09090909 M0.653812057,17.0909091 L35.8878546,17.0909091 M0.653812057,24.0909091 L35.8878546,24.0909091" id="Combined-Shape" stroke="#F3F5F0" stroke-width="2" stroke-linecap="square"></path>
                <rect id="Rectangle-Copy-24" fill="#000000" x="4.05208333" y="1.86363636" width="28.53125" height="26.7727273"></rect>
                <rect id="Rectangle" fill="#2E2E2E" x="3.05208333" y="0.863636364" width="28.53125" height="26.7727273"></rect>
                <path d="M5.64583333,20.817516 L10.2385101,6.90909091 L11.9085744,6.90909091 L11.471639,20.817516 L9.88896179,20.817516 L10.0054779,18.5285423 L8.10238139,18.5285423 L7.42270406,20.817516 L5.64583333,20.817516 Z M10.0831553,16.9572976 L10.3938649,10.7984064 L8.56844584,16.9572976 L10.0831553,16.9572976 Z M27.2207336,6.90909091 C27.5638106,6.90909091 27.8583345,7.03517718 28.1043142,7.28735352 C28.3438207,7.52659773 28.4635722,7.80140115 28.4635722,8.11177202 C28.4635722,8.19583079 28.4538626,8.28958725 28.4344432,8.39304421 L27.541153,13.3201571 C27.4764215,13.6887225 27.301649,13.9926228 27.0168304,14.231867 C26.7320119,14.4711112 26.4051227,14.5907315 26.0361532,14.5907315 L23.851476,14.5907315 L22.7154439,20.827215 L21.03567,20.827215 L23.5601858,6.90909091 L27.2207336,6.90909091 Z M16.8313802,6.90909091 L16.7245738,16.9282005 L20.0841217,6.90909091 L22.3950246,6.90909091 L19.8705088,20.817516 L18.1907349,20.817516 L19.7345734,12.1368741 L16.8022512,20.817516 L15.3846385,20.817516 L15.4914449,12.0301847 L13.9767354,20.817516 L12.2969615,20.817516 L14.8311869,6.90909091 L16.8313802,6.90909091 Z M26.3371531,8.48033558 L24.9486694,8.48033558 L24.1039276,13.0194869 L25.4729919,13.0194869 C25.6154012,13.0194869 25.7416258,12.9742251 25.8516693,12.8837003 C25.9293471,12.8206562 25.9851775,12.7430644 26.0191612,12.6509235 L26.0458628,12.5539329 L26.7352498,8.93619052 L26.7352498,8.87799627 C26.7352498,8.7616072 26.6964115,8.66461775 26.6187337,8.58702504 C26.5410559,8.51589838 26.4471967,8.48033558 26.3371531,8.48033558 Z" id="AMP" fill="#DADADA" fill-rule="nonzero"></path>
            </g>
            <g id="S-DSP-(16-bit-DSP)" transform="translate(68.604167, 224.500000)">
                <path d="M13.3958333,0.5 L13.3958333,85.5 M18.3958333,0.5 L18.3958333,85.5 M23.3958333,0.5 L23.3958333,85.5 M28.3958333,0.5 L28.3958333,85.5 M33.3958333,0.5 L33.3958333,85.5 M39.3958333,0.5 L39.3958333,85.5 M44.3958333,0.5 L44.3958333,85.5 M49.3958333,0.5 L49.3958333,85.5 M54.3958333,0.5 L54.3958333,85.5 M59.3958333,0.5 L59.3958333,85.5 M65.3958333,0.5 L65.3958333,85.5 M70.3958333,0.5 L70.3958333,85.5 M75.3958333,0.5 L75.3958333,85.5 M80.3958333,0.5 L80.3958333,85.5 M85.3958333,0.5 L85.3958333,85.5 M90.3958333,0.5 L90.3958333,85.5 M96.3958333,0.5 L96.3958333,85.5 M101.395833,0.5 L101.395833,85.5 M106.395833,0.5 L106.395833,85.5 M0.395833333,14.5 L120.395833,14.5 M0.395833333,20.5 L120.395833,20.5 M0.395833333,25.5 L120.395833,25.5 M0.395833333,9.5 L120.395833,9.5 M0.395833333,35.5 L120.395833,35.5 M0.395833333,40.5 L120.395833,40.5 M0.395833333,45.5 L120.395833,45.5 M0.395833333,30.5 L120.395833,30.5 M0.395833333,56.5 L120.395833,56.5 M0.395833333,61.5 L120.395833,61.5 M0.395833333,66.5 L120.395833,66.5 M0.395833333,71.5 L120.395833,71.5 M0.395833333,51.5 L120.395833,51.5" id="Combined-Shape-Copy" stroke="#F0F0EE" stroke-width="2" stroke-linecap="square"></path>
                <rect id="Rectangle-Copy-21" fill="#000000" x="7.15625" y="7.22727273" width="108.072917" height="73.4090909"></rect>
                <rect id="Rectangle-Copy-15" fill="#2E2E2E" x="6.15625" y="6.22727273" width="108.072917" height="73.4090909"></rect>
                <path d="M25.6423035,47.1530096 L29.1462301,47.1530096 L28.0063985,53.6260653 L28.0063985,53.7314897 C28.0063985,53.9704528 28.0908296,54.1812994 28.2596944,54.3640359 C28.4285592,54.5467723 28.6326011,54.6381392 28.8718262,54.6381392 L30.8137614,54.6381392 C31.1233468,54.6381392 31.4047839,54.5397441 31.6580811,54.342951 C31.9254503,54.1321012 32.0872766,53.8790853 32.1435649,53.5838956 L32.9034526,49.3247514 C32.9315967,49.1982416 32.9456685,49.0647054 32.9456685,48.9241388 C32.9456685,48.4087283 32.7328318,47.751589 32.3071523,46.9527042 L30.772986,44.1124343 L30.772986,44.1124343 L28.4918823,39.8154741 L28.4918823,39.8154741 C27.9571439,38.7612252 27.6897786,37.7280768 27.6897786,36.7159979 L27.6897786,36.526234 C27.6897786,36.2872709 27.7108864,36.0412832 27.7531026,35.7882635 L28.6607463,30.5592152 C28.8014669,29.7720427 29.1954788,29.1184182 29.8427938,28.5983221 C30.4619646,28.078226 31.1725932,27.8181818 31.9747009,27.8181818 L37.0406189,27.8181818 C37.7723663,27.8181818 38.4055997,28.0852542 38.9403381,28.619407 C39.4891487,29.1535597 39.7635498,29.8142124 39.7635498,30.6013849 C39.7635498,30.7841214 39.749478,30.931714 39.7213338,31.0441673 L38.3915304,38.4660423 L34.8453878,38.4660423 L35.9641113,32.2249201 C35.9922555,32.1827501 36.0063273,32.1265244 36.0063273,32.0562411 C36.0063273,31.8453913 35.9148603,31.6486012 35.7319234,31.4658647 C35.5489866,31.3112415 35.3379088,31.2339311 35.0986837,31.2339311 L33.1567485,31.2339311 C32.847163,31.2339311 32.5727619,31.3323262 32.3335368,31.5291193 C32.0943117,31.7118558 31.9465572,31.9437871 31.890269,32.2249201 L31.2781372,35.5774148 C31.235921,35.8304345 31.2148132,36.0904787 31.2148132,36.357555 C31.2148132,37.3415207 31.5384659,38.3606126 32.1857808,39.4148615 L33.3988369,41.4090243 C35.017188,44.0971853 35.8722726,45.6533922 35.9641113,46.0776811 C36.329985,46.7524004 36.5129191,47.4903635 36.5129191,48.2915927 C36.498847,48.6570656 36.4566315,49.0436178 36.3862712,49.4512607 L35.3097636,55.2917702 C35.1690429,56.0789427 34.782067,56.7395955 34.1488241,57.2737482 C33.5155811,57.7938443 32.7908807,58.0538885 31.9747009,58.0538885 L26.929891,58.0538885 C26.1840715,58.0538885 25.557874,57.7868161 25.0512797,57.2526634 C24.5587574,56.7185106 24.3125,56.0648861 24.3125,55.2917702 L24.3125,54.8068182 L25.6423035,47.1530096 Z M40.5867615,44.0746183 L51.1829732,44.0746183 L50.3597616,47.9753196 L39.7635498,47.9753196 L40.5867615,44.0746183 Z M51.9217529,58.0538885 L57.4098307,27.8181818 L65.6208394,27.8181818 C66.3807309,27.8181818 67.0280362,28.0922824 67.5627747,28.6404918 C68.069369,29.1605879 68.3226624,29.7509585 68.3226624,30.4116211 C68.3226624,30.5943576 68.3015546,30.8052042 68.2593384,31.0441673 L63.8899841,55.2917702 C63.7492635,56.0789427 63.3693234,56.7395955 62.7501526,57.2737482 C62.1309817,57.7938443 61.4203531,58.0538885 60.6182454,58.0538885 L51.9217529,58.0538885 Z M59.3939819,54.6381392 C59.7035674,54.6381392 59.9779685,54.5397441 60.2171936,54.342951 C60.4423466,54.1461579 60.5830652,53.8931419 60.6393534,53.5838956 L64.5443319,32.2249201 C64.5584039,32.1827501 64.5654399,32.1335526 64.5654399,32.077326 C64.5654399,31.8383629 64.4810087,31.6345445 64.312144,31.4658647 C64.1432792,31.3112415 63.9322014,31.2339311 63.6789042,31.2339311 L60.4071655,31.2339311 L56.1222432,54.6381392 L59.3939819,54.6381392 Z M93.1456604,27.8181818 C93.8914798,27.8181818 94.5317492,28.0922824 95.0664876,28.6404918 C95.587154,29.1605879 95.8474833,29.7579867 95.8474833,30.432706 C95.8474833,30.6154424 95.8263755,30.8192608 95.7841593,31.0441673 L93.8422241,41.7552823 C93.7015035,42.5565115 93.3215634,43.2171642 92.7023926,43.7372603 C92.0832217,44.2573564 91.3725931,44.5174006 90.5704854,44.5174006 L85.8211873,44.5174006 L83.3515523,58.0749734 L79.6998698,58.0749734 L85.1879476,27.8181818 L93.1456604,27.8181818 Z M79.4676819,27.8181818 C80.1994293,27.8181818 80.8326627,28.0852542 81.3674011,28.619407 C81.9162116,29.1535597 82.1906128,29.8142124 82.1906128,30.6013849 C82.1906128,30.7841214 82.1765409,30.931714 82.1483968,31.0441673 L80.8185933,38.4660423 L77.2724508,38.4660423 L78.3911743,32.2249201 C78.4193184,32.1827501 78.4333903,32.1265244 78.4333903,32.0562411 C78.4333903,31.8453913 78.3419233,31.6486012 78.1589864,31.4658647 C77.9760496,31.3112415 77.7649718,31.2339311 77.5257467,31.2339311 L75.5838114,31.2339311 C75.274226,31.2339311 74.9998249,31.3323262 74.7605998,31.5291193 C74.5213747,31.7118558 74.3736202,31.9437871 74.3173319,32.2249201 L73.7052002,35.5774148 C73.662984,35.8304345 73.6418762,36.0904787 73.6418762,36.357555 C73.6418762,37.3415207 73.9655289,38.3606126 74.6128438,39.4148615 L75.8258999,41.4090243 C77.444251,44.0971853 78.2993356,45.6533922 78.3911743,46.0776811 C78.757048,46.7524004 78.9399821,47.4903635 78.9399821,48.2915927 C78.92591,48.6570656 78.8836945,49.0436178 78.8133341,49.4512607 L77.7368266,55.2917702 C77.5961059,56.0789427 77.20913,56.7395955 76.575887,57.2737482 C75.9426441,57.7938443 75.2179437,58.0538885 74.4017639,58.0538885 L69.3569539,58.0538885 C68.6111345,58.0538885 67.984937,57.7868161 67.4783427,57.2526634 C66.9858204,56.7185106 66.739563,56.0648861 66.739563,55.2917702 L66.739563,54.8068182 L68.0693665,47.1530096 L71.5732931,47.1530096 L70.4334615,53.6260653 L70.4334615,53.7314897 C70.4334615,53.9704528 70.5178926,54.1812994 70.6867574,54.3640359 C70.8556222,54.5467723 71.0596641,54.6381392 71.2988892,54.6381392 L73.2408244,54.6381392 C73.5504098,54.6381392 73.8318469,54.5397441 74.085144,54.342951 C74.3525133,54.1321012 74.5143396,53.8790853 74.5706278,53.5838956 L75.3305155,49.3247514 C75.3586597,49.1982416 75.3727315,49.0647054 75.3727315,48.9241388 C75.3727315,48.4087283 75.1598947,47.751589 74.7342153,46.9527042 L73.7397425,45.1187587 L70.9189453,39.8154741 C70.3842069,38.7612252 70.1168416,37.7280768 70.1168416,36.7159979 L70.1168416,36.526234 C70.1168416,36.2872709 70.1379494,36.0412832 70.1801656,35.7882635 L71.0878092,30.5592152 C71.2285299,29.7720427 71.6225418,29.1184182 72.2698568,28.5983221 C72.8890276,28.078226 73.5996562,27.8181818 74.4017639,27.8181818 L79.4676819,27.8181818 Z M91.2248332,31.2339311 L88.2063904,31.2339311 L86.3699951,41.1016513 L89.3462219,41.1016513 C89.6558073,41.1016513 89.9302085,41.0032562 90.1694336,40.8064631 C90.3570611,40.6541827 90.4860536,40.4628585 90.5564134,40.2324864 L90.5915934,40.0895774 L92.0902608,32.2249201 L92.0902608,32.0984109 C92.0902608,31.8453911 92.0058297,31.6345445 91.8369649,31.4658647 C91.6681001,31.3112415 91.4640583,31.2339311 91.2248332,31.2339311 Z" id="S-DSP" fill="#DADADA" fill-rule="nonzero"></path>
            </g>
            <g id="S-SMP-(SPC700-8-bit-CPU)" transform="translate(69.604167, 97.272727)">
                <path d="M12.3958333,0.727272727 L12.3958333,86.7272727 M17.3958333,0.727272727 L17.3958333,86.7272727 M22.3958333,0.727272727 L22.3958333,86.7272727 M27.3958333,0.727272727 L27.3958333,86.7272727 M32.3958333,0.727272727 L32.3958333,86.7272727 M38.3958333,0.727272727 L38.3958333,86.7272727 M43.3958333,0.727272727 L43.3958333,86.7272727 M48.3958333,0.727272727 L48.3958333,86.7272727 M53.3958333,0.727272727 L53.3958333,86.7272727 M58.3958333,0.727272727 L58.3958333,86.7272727 M64.3958333,0.727272727 L64.3958333,86.7272727 M69.3958333,0.727272727 L69.3958333,86.7272727 M74.3958333,0.727272727 L74.3958333,86.7272727 M79.3958333,0.727272727 L79.3958333,86.7272727 M84.3958333,0.727272727 L84.3958333,86.7272727 M89.3958333,0.727272727 L89.3958333,86.7272727 M95.3958333,0.727272727 L95.3958333,86.7272727 M100.395833,0.727272727 L100.395833,86.7272727 M105.395833,0.727272727 L105.395833,86.7272727 M0.395833333,16.7272727 L119.395833,16.7272727 M0.395833333,21.7272727 L119.395833,21.7272727 M0.395833333,27.7272727 L119.395833,27.7272727 M0.395833333,11.7272727 L119.395833,11.7272727 M0.395833333,37.7272727 L119.395833,37.7272727 M0.395833333,42.7272727 L119.395833,42.7272727 M0.395833333,47.7272727 L119.395833,47.7272727 M0.395833333,32.7272727 L119.395833,32.7272727 M0.395833333,58.7272727 L119.395833,58.7272727 M0.395833333,63.7272727 L119.395833,63.7272727 M0.395833333,68.7272727 L119.395833,68.7272727 M0.395833333,73.7272727 L119.395833,73.7272727 M0.395833333,52.7272727 L119.395833,52.7272727" id="Combined-Shape" stroke="#F0F0EE" stroke-width="2" stroke-linecap="square"></path>
                <rect id="Rectangle" fill="#000000" x="6.15625" y="7.5" width="108.072917" height="73.4090909"></rect>
                <rect id="Rectangle-Copy-20" fill="#2E2E2E" x="5.15625" y="6.5" width="108.072917" height="73.4090909"></rect>
                <path d="M19.4548035,47.4257369 L22.9587301,47.4257369 L21.8188985,53.8987926 L21.8188985,54.004217 C21.8188985,54.2431801 21.9033296,54.4540267 22.0721944,54.6367631 C22.2410592,54.8194996 22.4451011,54.9108665 22.6843262,54.9108665 L24.6262614,54.9108665 C24.9358468,54.9108665 25.2172839,54.8124714 25.4705811,54.6156783 C25.7379503,54.4048285 25.8997766,54.1518126 25.9560649,53.8566229 L26.7159526,49.5974787 C26.7440967,49.4709688 26.7581685,49.3374326 26.7581685,49.1968661 C26.7581685,48.6814556 26.5453318,48.0243163 26.1196523,47.2254315 L24.2041016,43.6726296 L24.2041016,43.6726296 L22.3043823,40.0882013 L22.3043823,40.0882013 C21.7696439,39.0339525 21.5022786,38.0008041 21.5022786,36.9887251 L21.5022786,36.7989613 C21.5022786,36.5599982 21.5233864,36.3140105 21.5656026,36.0609908 L22.4732463,30.8319425 C22.6139669,30.04477 23.0079788,29.3911455 23.6552938,28.8710494 C24.2744646,28.3509532 24.9850932,28.0909091 25.7872009,28.0909091 L30.8531189,28.0909091 C31.5848663,28.0909091 32.2180997,28.3579815 32.7528381,28.8921342 C33.3016487,29.426287 33.5760498,30.0869397 33.5760498,30.8741122 C33.5760498,31.0568487 33.561978,31.2044413 33.5338338,31.3168945 L32.2040304,38.7387695 L28.6578878,38.7387695 L29.7766113,32.4976474 C29.8047555,32.4554774 29.8188273,32.3992517 29.8188273,32.3289684 C29.8188273,32.1181186 29.7273603,31.9213284 29.5444234,31.738592 C29.3614866,31.5839688 29.1504088,31.5066584 28.9111837,31.5066584 L26.9692485,31.5066584 C26.659663,31.5066584 26.3852619,31.6050535 26.1460368,31.8018466 C25.9068117,31.9845831 25.7590572,32.2165143 25.702769,32.4976474 L25.0906372,35.850142 C25.048421,36.1031618 25.0273132,36.3632059 25.0273132,36.6302823 C25.0273132,37.6142479 25.3509659,38.6333399 25.9982808,39.6875888 L27.2113369,41.6817516 C28.829688,44.3699126 29.6847726,45.9261194 29.7766113,46.3504084 C30.142485,47.0251277 30.3254191,47.7630908 30.3254191,48.56432 C30.311347,48.9297929 30.2691315,49.316345 30.1987712,49.7239879 L29.1222636,55.5644975 C28.9815429,56.35167 28.594567,57.0123227 27.9613241,57.5464755 C27.3280811,58.0665716 26.6033807,58.3266158 25.7872009,58.3266158 L20.742391,58.3266158 C19.9965715,58.3266158 19.370374,58.0595434 18.8637797,57.5253906 C18.3712574,56.9912379 18.125,56.3376134 18.125,55.5644975 L18.125,55.0795455 L19.4548035,47.4257369 Z M36.5733846,28.0909091 L44.5310974,28.0909091 C45.2769168,28.0909091 45.9171862,28.3650097 46.4519246,28.9132191 C46.972591,29.4333152 47.2329203,30.030714 47.2329203,30.7054332 C47.2329203,30.8881697 47.2118125,31.0919881 47.1695964,31.3168945 L45.2276611,42.0280096 C45.0869405,42.8292387 44.7070004,43.4898915 44.0878296,44.0099876 C43.4686587,44.5300837 42.7580301,44.7901278 41.9559224,44.7901278 L37.2066243,44.7901278 L34.7369893,58.3477006 L31.0853068,58.3477006 L36.5733846,28.0909091 Z M40.7316589,41.3743786 C41.0412444,41.3743786 41.3156455,41.2759835 41.5548706,41.0791903 C41.7800236,40.8964539 41.9207422,40.6574944 41.9770304,40.3623047 L43.4756978,32.4976474 L43.4756978,32.3711381 C43.4756978,32.1181184 43.3912667,31.9072718 43.2224019,31.738592 C43.0535372,31.5839688 42.8494953,31.5066584 42.6102702,31.5066584 L39.5918274,31.5066584 L37.7554321,41.3743786 L40.7316589,41.3743786 Z M45.3543091,55.0373757 L49.7025553,30.8319425 C49.843276,30.04477 50.230252,29.3911455 50.8634949,28.8710494 C51.4967378,28.3509532 52.2073664,28.0909091 52.995402,28.0909091 L58.124644,28.0909091 C58.8563913,28.0909091 59.4825888,28.3579815 60.0032552,28.8921342 C60.5379937,29.426287 60.8053589,30.0799115 60.8053589,30.8530273 C60.8053589,31.0498205 60.791287,31.2044413 60.7631429,31.3168945 L59.4122314,38.8441939 L55.9083049,38.8441939 L57.0481364,32.4976474 L57.0481364,32.3711381 C57.0481364,32.1181184 56.9637053,31.9072718 56.7948405,31.738592 C56.6259757,31.5839688 56.4148979,31.5066584 56.1616007,31.5066584 L54.1985575,31.5066584 C53.9030442,31.5066584 53.628643,31.6050535 53.3753459,31.8018466 C53.1361208,31.9845831 52.9883663,32.2165143 52.932078,32.4976474 L49.0693156,53.8987926 L49.0693156,54.004217 C49.0693156,54.2431801 49.1537467,54.4540267 49.3226115,54.6367631 C49.4914763,54.8194996 49.7025541,54.9108665 49.9558512,54.9108665 L51.8977865,54.9108665 C52.6295338,54.9108665 53.0587254,54.5594555 53.1853739,53.8566229 L54.3252055,47.5311612 L57.8502401,47.5311612 L56.4148966,55.5644975 C56.274176,56.35167 55.8801641,57.0123227 55.2328491,57.5464755 C54.5996062,58.0665716 53.8819417,58.3266158 53.079834,58.3266158 L48.035024,58.3266158 C47.2892046,58.3266158 46.6559712,58.0595434 46.1353048,57.5253906 C45.6146384,56.9771812 45.3543091,56.3235567 45.3543091,55.5644975 L45.3543091,55.0373757 Z M73.9767456,28.0909091 L73.3223979,31.5066584 L62.8106181,58.3266158 L59.1378276,58.3266158 L69.6496073,31.5066584 L63.2961019,31.5066584 L63.9082336,28.0909091 L73.9767456,28.0909091 Z M84.3829854,28.0909091 C85.1147328,28.0909091 85.7409303,28.3579815 86.2615967,28.8921342 C86.7963351,29.426287 87.0637004,30.0799115 87.0637004,30.8530273 C87.0637004,31.0498205 87.0496285,31.2044413 87.0214844,31.3168945 L82.6732381,55.5644975 C82.5325175,56.35167 82.1385056,57.0123227 81.4911906,57.5464755 C80.8579477,58.0665716 80.1402831,58.3266158 79.3381755,58.3266158 L74.2933655,58.3266158 C73.547546,58.3266158 72.9143126,58.0595434 72.3936462,57.5253906 C71.8729798,56.9771812 71.6126506,56.3235567 71.6126506,55.5644975 L71.6126506,55.0373757 L75.9608968,30.8319425 C76.1016175,30.04477 76.4885934,29.3911455 77.1218363,28.8710494 C77.7550793,28.3509532 78.4657079,28.0909091 79.2537435,28.0909091 L84.3829854,28.0909091 Z M97.976532,28.0909091 C98.7082793,28.0909091 99.3344768,28.3579815 99.8551432,28.8921342 C100.389882,29.426287 100.657247,30.0799115 100.657247,30.8530273 C100.657247,31.0498205 100.643175,31.2044413 100.615031,31.3168945 L96.2667847,55.5644975 C96.126064,56.35167 95.7320521,57.0123227 95.0847371,57.5464755 C94.4514942,58.0665716 93.7338297,58.3266158 92.931722,58.3266158 L87.886912,58.3266158 C87.1410926,58.3266158 86.5078592,58.0595434 85.9871928,57.5253906 C85.4665264,56.9771812 85.2061971,56.3235567 85.2061971,55.5644975 L85.2061971,55.0373757 L89.5544434,30.8319425 C89.695164,30.04477 90.08214,29.3911455 90.7153829,28.8710494 C91.3486258,28.3509532 92.0592544,28.0909091 92.84729,28.0909091 L97.976532,28.0909091 Z M82.4199422,31.5066584 L80.456899,31.5066584 C80.1613856,31.5066584 79.8869845,31.6050535 79.6336873,31.8018466 C79.3944622,31.9845831 79.2467078,32.2165143 79.1904195,32.4976474 L75.3276571,53.8987926 L75.3276571,54.004217 C75.3276571,54.2431801 75.4120882,54.4540267 75.580953,54.6367631 C75.7498177,54.8194996 75.9608955,54.9108665 76.2141927,54.9108665 L78.1561279,54.9108665 C78.8878753,54.9108665 79.3170668,54.5594555 79.4437154,53.8566229 L83.3064779,32.4976474 L83.3064779,32.3711381 C83.3064779,32.1181184 83.2220467,31.9072718 83.053182,31.738592 C82.8843172,31.5839688 82.6732394,31.5066584 82.4199422,31.5066584 Z M96.0134888,31.5066584 L94.0504456,31.5066584 C93.7549322,31.5066584 93.4805311,31.6050535 93.2272339,31.8018466 C93.0278796,31.954127 92.8920467,32.1405704 92.8197324,32.361181 L92.7839661,32.4976474 L88.9212036,53.8987926 L88.9212036,54.004217 C88.9212036,54.2431801 89.0056347,54.4540267 89.1744995,54.6367631 C89.3152202,54.7890435 89.4852554,54.8778728 89.6846089,54.9032526 L89.8077393,54.9108665 L91.7496745,54.9108665 C92.4291542,54.9108665 92.8477567,54.6078641 93.0054922,54.001851 L93.037262,53.8566229 L96.9000244,32.4976474 L96.9000244,32.3711381 C96.9000244,32.1181184 96.8155933,31.9072718 96.6467285,31.738592 C96.4778637,31.5839688 96.2667859,31.5066584 96.0134888,31.5066584 Z" id="SPC700" fill="#DADADA" fill-rule="nonzero"></path>
            </g>
            <g id="Connector" transform="translate(35.854167, 26.909091)">
                <polygon id="Rectangle-Copy-19" fill="#000000" points="2 2 143.520833 0 145.520833 2 145.520833 25.3181818 2 25.3181818 5.68434189e-14 23.3181818"></polygon>
                <rect id="Rectangle" fill="#141414" x="0" y="0" width="143.520833" height="23.3181818"></rect>
                <path d="M17.1145833,12.7272727 C17.6668681,12.7272727 18.1145833,13.174988 18.1145833,13.7272727 L18.1145833,17.7727273 C18.1145833,18.325012 17.6668681,18.7727273 17.1145833,18.7727273 L13.0625,18.7727273 C12.5102153,18.7727273 12.0625,18.325012 12.0625,17.7727273 L12.0625,13.7272727 C12.0625,13.174988 12.5102153,12.7272727 13.0625,12.7272727 L17.1145833,12.7272727 Z M28.3541667,12.7272727 C28.9064514,12.7272727 29.3541667,13.174988 29.3541667,13.7272727 L29.3541667,17.7727273 C29.3541667,18.325012 28.9064514,18.7727273 28.3541667,18.7727273 L24.3020833,18.7727273 C23.7497986,18.7727273 23.3020833,18.325012 23.3020833,17.7727273 L23.3020833,13.7272727 C23.3020833,13.174988 23.7497986,12.7272727 24.3020833,12.7272727 L28.3541667,12.7272727 Z M38.7291667,12.7272727 C39.2814514,12.7272727 39.7291667,13.174988 39.7291667,13.7272727 L39.7291667,17.7727273 C39.7291667,18.325012 39.2814514,18.7727273 38.7291667,18.7727273 L34.6770833,18.7727273 C34.1247986,18.7727273 33.6770833,18.325012 33.6770833,17.7727273 L33.6770833,13.7272727 C33.6770833,13.174988 34.1247986,12.7272727 34.6770833,12.7272727 L38.7291667,12.7272727 Z M49.96875,12.7272727 C50.5210347,12.7272727 50.96875,13.174988 50.96875,13.7272727 L50.96875,17.7727273 C50.96875,18.325012 50.5210347,18.7727273 49.96875,18.7727273 L45.9166667,18.7727273 C45.3643819,18.7727273 44.9166667,18.325012 44.9166667,17.7727273 L44.9166667,13.7272727 C44.9166667,13.174988 45.3643819,12.7272727 45.9166667,12.7272727 L49.96875,12.7272727 Z M61.2083333,12.7272727 C61.7606181,12.7272727 62.2083333,13.174988 62.2083333,13.7272727 L62.2083333,17.7727273 C62.2083333,18.325012 61.7606181,18.7727273 61.2083333,18.7727273 L57.15625,18.7727273 C56.6039653,18.7727273 56.15625,18.325012 56.15625,17.7727273 L56.15625,13.7272727 C56.15625,13.174988 56.6039653,12.7272727 57.15625,12.7272727 L61.2083333,12.7272727 Z M72.4479167,12.7272727 C73.0002014,12.7272727 73.4479167,13.174988 73.4479167,13.7272727 L73.4479167,17.7727273 C73.4479167,18.325012 73.0002014,18.7727273 72.4479167,18.7727273 L68.3958333,18.7727273 C67.8435486,18.7727273 67.3958333,18.325012 67.3958333,17.7727273 L67.3958333,13.7272727 C67.3958333,13.174988 67.8435486,12.7272727 68.3958333,12.7272727 L72.4479167,12.7272727 Z M83.6875,12.7272727 C84.2397847,12.7272727 84.6875,13.174988 84.6875,13.7272727 L84.6875,17.7727273 C84.6875,18.325012 84.2397847,18.7727273 83.6875,18.7727273 L79.6354167,18.7727273 C79.0831319,18.7727273 78.6354167,18.325012 78.6354167,17.7727273 L78.6354167,13.7272727 C78.6354167,13.174988 79.0831319,12.7272727 79.6354167,12.7272727 L83.6875,12.7272727 Z M94.0625,12.7272727 C94.6147847,12.7272727 95.0625,13.174988 95.0625,13.7272727 L95.0625,17.7727273 C95.0625,18.325012 94.6147847,18.7727273 94.0625,18.7727273 L90.0104167,18.7727273 C89.4581319,18.7727273 89.0104167,18.325012 89.0104167,17.7727273 L89.0104167,13.7272727 C89.0104167,13.174988 89.4581319,12.7272727 90.0104167,12.7272727 L94.0625,12.7272727 Z M105.302083,12.7272727 C105.854368,12.7272727 106.302083,13.174988 106.302083,13.7272727 L106.302083,17.7727273 C106.302083,18.325012 105.854368,18.7727273 105.302083,18.7727273 L101.25,18.7727273 C100.697715,18.7727273 100.25,18.325012 100.25,17.7727273 L100.25,13.7272727 C100.25,13.174988 100.697715,12.7272727 101.25,12.7272727 L105.302083,12.7272727 Z M116.541667,12.7272727 C117.093951,12.7272727 117.541667,13.174988 117.541667,13.7272727 L117.541667,17.7727273 C117.541667,18.325012 117.093951,18.7727273 116.541667,18.7727273 L112.489583,18.7727273 C111.937299,18.7727273 111.489583,18.325012 111.489583,17.7727273 L111.489583,13.7272727 C111.489583,13.174988 111.937299,12.7272727 112.489583,12.7272727 L116.541667,12.7272727 Z M126.916667,12.7272727 C127.468951,12.7272727 127.916667,13.174988 127.916667,13.7272727 L127.916667,17.7727273 C127.916667,18.325012 127.468951,18.7727273 126.916667,18.7727273 L122.864583,18.7727273 C122.312299,18.7727273 121.864583,18.325012 121.864583,17.7727273 L121.864583,13.7272727 C121.864583,13.174988 122.312299,12.7272727 122.864583,12.7272727 L126.916667,12.7272727 Z M137.291667,12.7272727 C137.843951,12.7272727 138.291667,13.174988 138.291667,13.7272727 L138.291667,17.7727273 C138.291667,18.325012 137.843951,18.7727273 137.291667,18.7727273 L133.239583,18.7727273 C132.687299,18.7727273 132.239583,18.325012 132.239583,17.7727273 L132.239583,13.7272727 C132.239583,13.174988 132.687299,12.7272727 133.239583,12.7272727 L137.291667,12.7272727 Z M10.1979167,4.09090909 C10.7502014,4.09090909 11.1979167,4.53862434 11.1979167,5.09090909 L11.1979167,9.13636364 C11.1979167,9.68864839 10.7502014,10.1363636 10.1979167,10.1363636 L6.14583333,10.1363636 C5.59354858,10.1363636 5.14583333,9.68864839 5.14583333,9.13636364 L5.14583333,5.09090909 C5.14583333,4.53862434 5.59354858,4.09090909 6.14583333,4.09090909 L10.1979167,4.09090909 Z M21.4375,4.09090909 C21.9897847,4.09090909 22.4375,4.53862434 22.4375,5.09090909 L22.4375,9.13636364 C22.4375,9.68864839 21.9897847,10.1363636 21.4375,10.1363636 L17.3854167,10.1363636 C16.8331319,10.1363636 16.3854167,9.68864839 16.3854167,9.13636364 L16.3854167,5.09090909 C16.3854167,4.53862434 16.8331319,4.09090909 17.3854167,4.09090909 L21.4375,4.09090909 Z M32.6770833,4.09090909 C33.2293681,4.09090909 33.6770833,4.53862434 33.6770833,5.09090909 L33.6770833,9.13636364 C33.6770833,9.68864839 33.2293681,10.1363636 32.6770833,10.1363636 L28.625,10.1363636 C28.0727153,10.1363636 27.625,9.68864839 27.625,9.13636364 L27.625,5.09090909 C27.625,4.53862434 28.0727153,4.09090909 28.625,4.09090909 L32.6770833,4.09090909 Z M43.0520833,4.09090909 C43.6043681,4.09090909 44.0520833,4.53862434 44.0520833,5.09090909 L44.0520833,9.13636364 C44.0520833,9.68864839 43.6043681,10.1363636 43.0520833,10.1363636 L39,10.1363636 C38.4477153,10.1363636 38,9.68864839 38,9.13636364 L38,5.09090909 C38,4.53862434 38.4477153,4.09090909 39,4.09090909 L43.0520833,4.09090909 Z M54.2916667,4.09090909 C54.8439514,4.09090909 55.2916667,4.53862434 55.2916667,5.09090909 L55.2916667,9.13636364 C55.2916667,9.68864839 54.8439514,10.1363636 54.2916667,10.1363636 L50.2395833,10.1363636 C49.6872986,10.1363636 49.2395833,9.68864839 49.2395833,9.13636364 L49.2395833,5.09090909 C49.2395833,4.53862434 49.6872986,4.09090909 50.2395833,4.09090909 L54.2916667,4.09090909 Z M65.53125,4.09090909 C66.0835347,4.09090909 66.53125,4.53862434 66.53125,5.09090909 L66.53125,9.13636364 C66.53125,9.68864839 66.0835347,10.1363636 65.53125,10.1363636 L61.4791667,10.1363636 C60.9268819,10.1363636 60.4791667,9.68864839 60.4791667,9.13636364 L60.4791667,5.09090909 C60.4791667,4.53862434 60.9268819,4.09090909 61.4791667,4.09090909 L65.53125,4.09090909 Z M76.7708333,4.09090909 C77.3231181,4.09090909 77.7708333,4.53862434 77.7708333,5.09090909 L77.7708333,9.13636364 C77.7708333,9.68864839 77.3231181,10.1363636 76.7708333,10.1363636 L72.71875,10.1363636 C72.1664653,10.1363636 71.71875,9.68864839 71.71875,9.13636364 L71.71875,5.09090909 C71.71875,4.53862434 72.1664653,4.09090909 72.71875,4.09090909 L76.7708333,4.09090909 Z M88.0104167,4.09090909 C88.5627014,4.09090909 89.0104167,4.53862434 89.0104167,5.09090909 L89.0104167,9.13636364 C89.0104167,9.68864839 88.5627014,10.1363636 88.0104167,10.1363636 L83.9583333,10.1363636 C83.4060486,10.1363636 82.9583333,9.68864839 82.9583333,9.13636364 L82.9583333,5.09090909 C82.9583333,4.53862434 83.4060486,4.09090909 83.9583333,4.09090909 L88.0104167,4.09090909 Z M98.3854167,4.09090909 C98.9377014,4.09090909 99.3854167,4.53862434 99.3854167,5.09090909 L99.3854167,9.13636364 C99.3854167,9.68864839 98.9377014,10.1363636 98.3854167,10.1363636 L94.3333333,10.1363636 C93.7810486,10.1363636 93.3333333,9.68864839 93.3333333,9.13636364 L93.3333333,5.09090909 C93.3333333,4.53862434 93.7810486,4.09090909 94.3333333,4.09090909 L98.3854167,4.09090909 Z M109.625,4.09090909 C110.177285,4.09090909 110.625,4.53862434 110.625,5.09090909 L110.625,9.13636364 C110.625,9.68864839 110.177285,10.1363636 109.625,10.1363636 L105.572917,10.1363636 C105.020632,10.1363636 104.572917,9.68864839 104.572917,9.13636364 L104.572917,5.09090909 C104.572917,4.53862434 105.020632,4.09090909 105.572917,4.09090909 L109.625,4.09090909 Z M120.864583,4.09090909 C121.416868,4.09090909 121.864583,4.53862434 121.864583,5.09090909 L121.864583,9.13636364 C121.864583,9.68864839 121.416868,10.1363636 120.864583,10.1363636 L116.8125,10.1363636 C116.260215,10.1363636 115.8125,9.68864839 115.8125,9.13636364 L115.8125,5.09090909 C115.8125,4.53862434 116.260215,4.09090909 116.8125,4.09090909 L120.864583,4.09090909 Z M131.239583,4.09090909 C131.791868,4.09090909 132.239583,4.53862434 132.239583,5.09090909 L132.239583,9.13636364 C132.239583,9.68864839 131.791868,10.1363636 131.239583,10.1363636 L127.1875,10.1363636 C126.635215,10.1363636 126.1875,9.68864839 126.1875,9.13636364 L126.1875,5.09090909 C126.1875,4.53862434 126.635215,4.09090909 127.1875,4.09090909 L131.239583,4.09090909 Z" id="Combined-Shape" fill="#000000"></path>
            </g>
        </g>
        <g id="Logo/Panel/LightMode" transform="translate(178.000000, 364.000000)" fill="#000000" fill-rule="nonzero">
            <g id="Logo/Print/LightMode" transform="translate(0.000000, -0.000000)">
                <path d="M2.01990525,2.40146169 L3.49310173,2.40146169 L3.49310173,5.3844506 L6.2595994,2.40146169 L8.19468916,2.40146169 L5.25802028,5.3844506 L8.34541223,9.64516129 L6.42004654,9.64516129 L4.20782081,6.48034274 L3.49310173,7.22240423 L3.49310173,9.64516129 L2.01990525,9.64516129 L2.01990525,2.40146169 Z M11.9968002,7.0405746 C11.9092831,7.09627044 11.8209571,7.14131787 11.7318193,7.17571825 C11.6426816,7.21011862 11.5203216,7.24206134 11.3647357,7.27154738 L11.0535655,7.33051915 C10.761842,7.38293877 10.5527766,7.44682422 10.426363,7.52217742 C10.2124324,7.64995024 10.1054688,7.84815894 10.1054688,8.11680948 C10.1054688,8.35597398 10.1711056,8.52879231 10.3023812,8.63526966 C10.4336567,8.741747 10.5932919,8.79498488 10.7812916,8.79498488 C11.0794978,8.79498488 11.3542,8.7065281 11.6054064,8.5296119 C11.8566128,8.35269569 11.9870761,8.02999226 11.9968002,7.56149194 L11.9968002,7.0405746 Z M11.1556682,6.38697077 C11.4117354,6.35420851 11.5948715,6.31325629 11.7050781,6.2641129 C11.9028019,6.17893103 12.0016622,6.04624586 12.0016622,5.86605343 C12.0016622,5.64654628 11.9263015,5.4950231 11.7755776,5.41147933 C11.6248538,5.32793557 11.4036334,5.28616431 11.1119099,5.28616431 C10.7845313,5.28616431 10.5527766,5.36806874 10.416639,5.53188004 C10.3193978,5.6531004 10.2545713,5.81690925 10.2221576,6.02331149 L8.88509807,6.02331149 C8.91427043,5.55481117 9.04392338,5.16986038 9.27406084,4.86844758 C9.64033594,4.39667103 10.2691528,4.16078629 11.1605303,4.16078629 C11.7407359,4.16078629 12.2561065,4.27709057 12.7066572,4.50970262 C13.157208,4.74231467 13.3824801,5.18132238 13.3824801,5.82673891 L13.3824801,8.28389617 C13.3824801,8.45425992 13.3857214,8.66065907 13.3922041,8.9030998 C13.4019282,9.08656846 13.4294795,9.21106318 13.4748587,9.2765877 C13.5202379,9.34211222 13.5883057,9.39616914 13.6790642,9.43876008 L13.6790642,9.64516129 L12.1718334,9.64516129 C12.1296956,9.53704583 12.1005237,9.43548435 12.0843168,9.34047379 C12.06811,9.24546323 12.0551447,9.1373494 12.0454205,9.01612903 C11.8541796,9.2258075 11.6337695,9.40435914 11.3841838,9.55178931 C11.0859776,9.7254293 10.7488799,9.81224798 10.3728807,9.81224798 C9.89315751,9.81224798 9.49690565,9.67382951 9.1841132,9.39698841 C8.87132074,9.12014731 8.71492686,8.72782512 8.71492686,8.22001008 C8.71492686,7.56148864 8.96612947,7.0848049 9.46854222,6.78994456 C9.74405889,6.62940948 10.1492244,6.51474329 10.6840509,6.44594254 L11.1556682,6.38697077 Z M15.9933926,4.28855847 L15.9933926,7.5172631 C15.9933926,7.82195213 16.0290472,8.05128451 16.1003574,8.20526714 C16.2267709,8.4771939 16.4747322,8.61315524 16.8442487,8.61315524 C17.3174891,8.61315524 17.6416215,8.4198608 17.8166556,8.03326613 C17.907414,7.82358766 17.9527926,7.54675071 17.9527926,7.20274698 L17.9527926,4.28855847 L19.3579205,4.28855847 L19.3579205,9.64516129 L18.011137,9.64516129 L18.011137,8.88835685 L17.9942171,8.91194552 C17.9769731,8.93717225 17.9501996,8.97845233 17.9138963,9.03578629 C17.8620343,9.11769194 17.8004492,9.18976783 17.729139,9.25201613 C17.511967,9.44858969 17.3020913,9.58291295 17.0995055,9.65498992 C16.8969197,9.72706689 16.6594927,9.76310484 16.3872174,9.76310484 C15.6028053,9.76310484 15.0744694,9.47807745 14.8021941,8.90801411 C14.6498496,8.59349641 14.5736785,8.12991738 14.5736785,7.5172631 L14.5736785,4.28855847 L15.9933926,4.28855847 Z M20.1504322,5.33530746 L20.1504322,4.33770161 L20.8894614,4.33770161 L20.8894614,2.84375 L22.2605552,2.84375 L22.2605552,4.33770161 L23.1211353,4.33770161 L23.1211353,5.33530746 L22.2605552,5.33530746 L22.2605552,8.16595262 C22.2605552,8.38545977 22.2881064,8.52224015 22.3432098,8.57629788 C22.3983131,8.63035561 22.566862,8.65738407 22.8488614,8.65738407 C22.8909992,8.65738407 22.9355674,8.65656503 22.9825673,8.65492692 C23.0295672,8.6532888 23.0757561,8.65083167 23.1211353,8.64755544 L23.1211353,9.69430444 L22.4647606,9.71887601 C21.8100034,9.74180959 21.3627007,9.6271434 21.1228391,9.37487399 C20.9672532,9.21433892 20.8894614,8.96698756 20.8894614,8.6328125 L20.8894614,5.33530746 L20.1504322,5.33530746 Z M26.1015625,5.30090726 C25.7806666,5.30090726 25.531895,5.40246874 25.3552402,5.60559476 C25.1785854,5.80872077 25.06757,6.08391963 25.0221908,6.4311996 L27.1760721,6.4311996 C27.1533825,6.06098605 27.0423672,5.78005388 26.8430228,5.58839466 C26.6436784,5.39673543 26.3965274,5.30090726 26.1015625,5.30090726 Z M26.1015625,4.14604335 C26.5423892,4.14604335 26.9394514,4.22958586 27.292761,4.39667339 C27.6460706,4.56376092 27.9377897,4.82749316 28.1679272,5.18787802 C28.375375,5.50567195 28.50989,5.87424185 28.5714761,6.29359879 C28.6071312,6.53931574 28.6217171,6.89314285 28.6152344,7.35509073 L24.9881566,7.35509073 C25.0076048,7.8923918 25.174533,8.26915214 25.4889461,8.48538306 C25.6801871,8.61970833 25.9103211,8.68686996 26.1793551,8.68686996 C26.4645958,8.68686996 26.6963505,8.60496554 26.874626,8.44115423 C26.9718672,8.35269613 27.0577623,8.2298395 27.1323138,8.07258065 L28.5471659,8.07258065 C28.5115108,8.39037457 28.3478239,8.713078 28.0561004,9.0407006 C27.6023082,9.56162055 26.9670087,9.82207661 26.1501828,9.82207661 C25.4759773,9.82207661 24.8811944,9.60257276 24.3658162,9.16355847 C23.8504379,8.72454418 23.5927527,8.01033761 23.5927527,7.02091734 C23.5927527,6.09374536 23.8253177,5.38281497 24.2904546,4.88810484 C24.7555916,4.3933947 25.3592882,4.14604335 26.1015625,4.14604335 Z M32.4854139,4.16078629 C33.0332059,4.16078629 33.4813189,4.30575712 33.8297665,4.59570312 C34.178214,4.88564913 34.3524352,5.36642809 34.3524352,6.03805444 L34.3524352,9.64516129 L32.9327211,9.64516129 L32.9327211,6.38697077 C32.9327211,6.10521533 32.8954459,5.88898765 32.8208943,5.73828125 C32.6847566,5.46307826 32.4254507,5.32547883 32.0429688,5.32547883 C31.5729697,5.32547883 31.250458,5.52696371 31.0754239,5.92993952 C30.9846654,6.14289421 30.9392869,6.41481689 30.9392869,6.74571573 L30.9392869,9.64516129 L29.5584691,9.64516129 L29.5584691,4.2983871 L30.8955286,4.2983871 L30.8955286,5.0797631 C31.0738041,4.80456012 31.2423529,4.60635141 31.4011802,4.48513105 C31.686421,4.26890013 32.0478286,4.16078629 32.4854139,4.16078629 Z M37.0800366,3.64969758 L35.6943567,3.64969758 L35.6943567,2.35723286 L37.0800366,2.35723286 L37.0800366,3.64969758 Z M35.028258,11.7927167 L35.028258,10.672253 L35.1803485,10.6838093 L35.1803485,10.6838093 L35.1935672,10.6845388 C35.2259809,10.6861769 35.2551528,10.686996 35.2810838,10.686996 C35.4172214,10.686996 35.5201335,10.6534152 35.589823,10.5862525 C35.6595125,10.5190899 35.6943567,10.3888619 35.6943567,10.1955645 L35.6943567,4.31313004 L37.0800366,4.31313004 L37.0800366,10.2201361 C37.0800366,10.7607134 36.9746935,11.160407 36.7640043,11.4192288 C36.5601115,11.6697016 36.166498,11.798976 35.5831525,11.8070557 L35.5241855,11.8074597 C35.5001067,11.8074597 35.4694132,11.8069248 35.4321046,11.805855 L35.1288725,11.7955249 C35.0969882,11.7945889 35.06345,11.7936528 35.028258,11.7927167 Z M41.3197307,7.0405746 C41.2322137,7.09627044 41.1438876,7.14131787 41.0547498,7.17571825 C40.9656121,7.21011862 40.8432521,7.24206134 40.6876662,7.27154738 L40.376496,7.33051915 C40.0847725,7.38293877 39.8757071,7.44682422 39.7492936,7.52217742 C39.535363,7.64995024 39.4283993,7.84815894 39.4283993,8.11680948 C39.4283993,8.35597398 39.4940361,8.52879231 39.6253117,8.63526966 C39.7565873,8.741747 39.9162225,8.79498488 40.1042221,8.79498488 C40.4024284,8.79498488 40.6771306,8.7065281 40.9283369,8.5296119 C41.1795433,8.35269569 41.3100066,8.02999226 41.3197307,7.56149194 L41.3197307,7.0405746 Z M40.4785987,6.38697077 C40.7346659,6.35420851 40.917802,6.31325629 41.0280086,6.2641129 C41.2257324,6.17893103 41.3245928,6.04624586 41.3245928,5.86605343 C41.3245928,5.64654628 41.249232,5.4950231 41.0985081,5.41147933 C40.9477843,5.32793557 40.726564,5.28616431 40.4348404,5.28616431 C40.1074618,5.28616431 39.8757071,5.36806874 39.7395695,5.53188004 C39.6423283,5.6531004 39.5775018,5.81690925 39.5450881,6.02331149 L38.2080286,6.02331149 C38.2372009,5.55481117 38.3668539,5.16986038 38.5969914,4.86844758 C38.9632665,4.39667103 39.5920833,4.16078629 40.4834608,4.16078629 C41.0636665,4.16078629 41.579037,4.27709057 42.0295878,4.50970262 C42.4801386,4.74231467 42.7054106,5.18132238 42.7054106,5.82673891 L42.7054106,8.28389617 C42.7054106,8.45425992 42.7086519,8.66065907 42.7151346,8.9030998 C42.7248588,9.08656846 42.75241,9.21106318 42.7977892,9.2765877 C42.8431684,9.34211222 42.9112362,9.39616914 43.0019947,9.43876008 L43.0019947,9.64516129 L41.494764,9.64516129 C41.4526261,9.53704583 41.4234542,9.43548435 41.4072473,9.34047379 C41.3910405,9.24546323 41.3780752,9.1373494 41.3683511,9.01612903 C41.1771101,9.2258075 40.9567001,9.40435914 40.7071144,9.55178931 C40.4089081,9.7254293 40.0718104,9.81224798 39.6958112,9.81224798 C39.216088,9.81224798 38.8198362,9.67382951 38.5070437,9.39698841 C38.1942513,9.12014731 38.0378574,8.72782512 38.0378574,8.22001008 C38.0378574,7.56148864 38.28906,7.0848049 38.7914727,6.78994456 C39.0669894,6.62940948 39.4721549,6.51474329 40.0069814,6.44594254 L40.4785987,6.38697077 Z M45.5010805,3.65952621 L45.5010805,8.38709677 L46.8818983,8.38709677 C47.5885175,8.38709677 48.0811987,8.03490776 48.3599568,7.33051915 C48.5123013,6.94392448 48.5884724,6.48362162 48.5884724,5.94959677 C48.5884724,5.21244591 48.4742157,4.64648635 48.245699,4.25170111 C48.0171822,3.85691587 47.5625865,3.65952621 46.8818983,3.65952621 L45.5010805,3.65952621 Z M47.1347241,2.40146169 C47.5787921,2.40801415 47.948303,2.46043298 48.243268,2.55871976 C48.7456807,2.72580729 49.1524669,3.03212983 49.4636386,3.47769657 C49.7132243,3.83808144 49.8833938,4.22794649 49.9741523,4.64730343 C50.0649107,5.06666036 50.1102892,5.46635395 50.1102892,5.84639617 C50.1102892,6.80960663 49.9190511,7.62537468 49.5365691,8.2937248 C49.0179495,9.19468696 48.2173425,9.64516129 47.1347241,9.64516129 L44.0473321,9.64516129 L44.0473321,2.40146169 L47.1347241,2.40146169 Z M52.322515,7.40914819 C52.3678942,7.74004702 52.4570306,7.98739837 52.5899269,8.15120968 C52.8330298,8.44934625 53.2495399,8.5984123 53.8394697,8.5984123 C54.1927794,8.5984123 54.4796365,8.55909818 54.7000499,8.48046875 C55.1181869,8.32976235 55.3272523,8.04964923 55.3272523,7.64012097 C55.3272523,7.40095647 55.22353,7.21585247 55.0160821,7.08480343 C54.8190067,6.96341925 54.5151608,6.85534218 54.104536,6.7605693 L53.2803358,6.57371472 C52.5348201,6.40335096 52.0194496,6.21824697 51.7342088,6.01839718 C51.2512443,5.68422212 51.0097656,5.1616719 51.0097656,4.45073085 C51.0097656,3.80203809 51.243141,3.26310698 51.7098986,2.83392137 C52.1766563,2.40473576 52.8621963,2.19014617 53.7665392,2.19014617 C54.521779,2.19014617 55.1659922,2.39245009 55.699198,2.79706401 C56.2324038,3.20167793 56.511968,3.78893264 56.5378989,4.55884577 L55.0987367,4.55884577 C55.0728057,4.1231077 54.8848089,3.81350898 54.5347407,3.63004032 C54.3013619,3.50881996 54.0112634,3.44821069 53.6644365,3.44821069 C53.2787132,3.44821069 52.9707874,3.52683893 52.7406499,3.68409778 C52.5105125,3.84135663 52.3954455,4.06086049 52.3954455,4.34261593 C52.3954455,4.58967316 52.4988129,4.77702462 52.7055507,4.90467535 L52.7357879,4.92250504 C52.8758152,5.00427964 53.1681879,5.09964003 53.6129142,5.20858885 L54.9042553,5.52205141 C55.4455645,5.65310045 55.8539714,5.82837592 56.129488,6.04788306 C56.5573492,6.38861057 56.7712766,6.8816752 56.7712766,7.52709173 C56.7712766,8.1888894 56.5208843,8.73846808 56.0200923,9.17584425 C55.5193002,9.61322043 54.8118812,9.83190524 53.8978142,9.83190524 C52.9642989,9.83190524 52.230139,9.61649661 51.6953125,9.18567288 C51.160486,8.75484916 50.8930768,8.16268018 50.8930768,7.40914819 L52.322515,7.40914819 Z M61.9153092,4.7062752 C61.9153092,4.3295092 61.8172591,4.0608627 61.6211561,3.90032762 C61.425053,3.73979254 61.1503508,3.65952621 60.7970412,3.65952621 L59.4016373,3.65952621 L59.4016373,5.79233871 L60.7970412,5.79233871 C61.1503508,5.79233871 61.425053,5.70552002 61.6211561,5.53188004 C61.8172591,5.35824006 61.9153092,5.0830412 61.9153092,4.7062752 Z M63.3982297,4.69644657 C63.3982297,5.55154157 63.1843023,6.15599621 62.7564412,6.50982863 C62.32858,6.86366104 61.7175904,7.0405746 60.9234541,7.0405746 L59.4016373,7.0405746 L59.4016373,9.64516129 L57.9138547,9.64516129 L57.9138547,2.40146169 L61.0352809,2.40146169 C61.7548656,2.40146169 62.32858,2.58820378 62.7564412,2.96169355 C63.1843023,3.33518332 63.3982297,3.91342854 63.3982297,4.69644657 Z" id="KautenjaDSP"></path>
            </g>
        </g>
    </g>
</svg>