<?xml version="1.0" encoding="UTF-8"?>
<svg width="1050px" height="380px" viewBox="0 0 1050 380" version="1.1" xmlns="http://www.w3.org/2000/svg" xmlns:xlink="http://www.w3.org/1999/xlink">
    <!-- Generator: Sketch 58 (84663) - https://sketch.com -->
    <title>S-SMP</title>
    <desc>Created with Sketch.</desc>
    <g id="S-SMP" stroke="none" stroke-width="1" fill="none" fill-rule="evenodd">
        <g id="bg" fill-rule="nonzero">
            <g fill="#404040" id="Background">
                <rect x="0" y="0" width="1050" height="380" rx="1"></rect>
            </g>
            <g id="Logo/Panel/DarkMode" transform="translate(419.000000, 364.000000)" fill="#FFFFFF">
                <g id="Logo/Print/DarkMode">

                </g>
            </g>
            <path d="M334.26,13.742 L334.26,13.706 C334.26,11.9292258 333.113694,10.894179 330.396927,10.2909001 L330.12,10.232 C327.225375,9.639125 326.493,8.86043164 326.450053,7.60135559 L326.448,7.442 C326.448,6.128 327.672,5.066 329.526,5.066 C330.912,5.066 332.1,5.462 333.288,6.488 L333.882,5.75 C332.604,4.724 331.398,4.22 329.562,4.22 C327.297484,4.22 325.622978,5.56859521 325.517302,7.35222114 L325.512,7.568 C325.512,9.41445161 326.658306,10.4348887 329.472955,11.0534661 L329.76,11.114 C332.529677,11.6714194 333.276462,12.4142706 333.32176,13.6688266 L333.324,13.832 C333.324,15.272 332.028,16.334 330.138,16.334 C328.284,16.334 327.006,15.74 325.62,14.462 L325.008,15.164 C326.52,16.514 328.068,17.18 330.084,17.18 C332.514,17.18 334.26,15.776 334.26,13.742 Z M341.55,12.158 L341.55,11.15 L336.726,11.15 L336.726,12.158 L341.55,12.158 Z M353.124,13.742 L353.124,13.706 C353.124,11.9292258 351.977694,10.894179 349.260927,10.2909001 L348.984,10.232 C346.089375,9.639125 345.357,8.86043164 345.314053,7.60135559 L345.312,7.442 C345.312,6.128 346.536,5.066 348.39,5.066 C349.776,5.066 350.964,5.462 352.152,6.488 L352.746,5.75 C351.468,4.724 350.262,4.22 348.426,4.22 C346.161484,4.22 344.486978,5.56859521 344.381302,7.35222114 L344.376,7.568 C344.376,9.41445161 345.522306,10.4348887 348.336955,11.0534661 L348.624,11.114 C351.393677,11.6714194 352.140462,12.4142706 352.18576,13.6688266 L352.188,13.832 C352.188,15.272 350.892,16.334 349.002,16.334 C347.148,16.334 345.87,15.74 344.484,14.462 L343.872,15.164 C345.384,16.514 346.932,17.18 348.948,17.18 C351.378,17.18 353.124,15.776 353.124,13.742 Z M368.082,17 L368.082,4.4 L367.2,4.4 L362.142,11.852 L357.084,4.4 L356.202,4.4 L356.202,17 L357.102,17 L357.102,6.056 L362.088,13.31 L362.16,13.31 L367.146,6.056 L367.146,17 L368.082,17 Z M381.078,8.288 L381.078,8.252 C381.078,5.822 379.17,4.4 376.398,4.4 L371.826,4.4 L371.826,17 L372.762,17 L372.762,12.302 L376.164,12.302 C378.792,12.302 381.078,10.934 381.078,8.288 Z M380.142,8.342 C380.142,10.214 378.558,11.438 376.218,11.438 L372.762,11.438 L372.762,5.264 L376.326,5.264 C378.5184,5.264 380.038,6.23956 380.136871,8.10938333 L380.142,8.342 Z M394.02,4.724 L393.642,4.13 C390.474,5.93 388.656,8.576 388.656,11.834 C388.656,15.092 390.474,17.738 393.642,19.538 L394.02,18.944 C391.176,17.198 389.592,14.84 389.592,11.834 C389.592,8.828 391.176,6.47 394.02,4.724 Z M404.478,17 L404.478,7.82 L403.596,7.82 L403.596,13.13 C403.596,15.038 402.21,16.406 400.41,16.406 C398.556,16.406 397.494,15.164 397.494,13.274 L397.494,7.82 L396.612,7.82 L396.612,13.436 C396.612,15.632 397.962,17.216 400.284,17.216 C401.958,17.216 402.984,16.37 403.596,15.29 L403.596,17 L404.478,17 Z M415.692,17 L415.692,11.384 C415.692,9.188 414.342,7.604 412.02,7.604 C410.346,7.604 409.32,8.45 408.708,9.53 L408.708,7.82 L407.826,7.82 L407.826,17 L408.708,17 L408.708,11.69 C408.708,9.782 410.094,8.414 411.894,8.414 C413.748,8.414 414.81,9.656 414.81,11.546 L414.81,17 L415.692,17 Z M427.392,17 L427.392,3.86 L426.51,3.86 L426.51,9.8 C425.754,8.648 424.566,7.604 422.73,7.604 C420.5775,7.604 418.390972,9.32240278 418.271159,12.1637222 L418.266,12.446 C418.266,15.434 420.516,17.216 422.73,17.216 C424.548,17.216 425.718,16.154 426.51,14.948 L426.51,17 L427.392,17 Z M426.564,12.428 C426.564,14.768 424.728,16.37 422.82,16.37 C420.954187,16.37 419.324871,14.9172383 419.224861,12.6335729 L419.22,12.374 C419.22,9.908 420.822,8.45 422.82,8.45 C424.668375,8.45 426.44918,9.93654687 426.558675,12.1732298 L426.564,12.428 Z M431.046,12.77 L438.66,12.77 C438.669,12.698 438.6735,12.6485 438.67575,12.60125 L438.678,12.41 C438.678,9.692 437.04,7.604 434.466,7.604 C432.052971,7.604 430.217471,9.60836245 430.114555,12.1650165 L430.11,12.428 C430.11,15.29 432.198,17.216 434.61,17.216 C436.374,17.216 437.472,16.496 438.408,15.488 L437.796,14.948 C437.04,15.758 436.068,16.388 434.646,16.388 C432.846,16.388 431.208,15.056 431.046,12.77 Z M431.046,11.978 C431.208,9.944 432.612,8.414 434.43,8.414 C436.536,8.414 437.598,10.124 437.724,11.978 L431.046,11.978 Z M446.202,8.648 L446.202,7.676 C444.384,7.604 442.854,8.792 442.134,10.43 L442.134,7.82 L441.252,7.82 L441.252,17 L442.134,17 L442.134,13.238 C442.134,10.3378824 443.880545,8.74343426 445.925329,8.65215194 L446.202,8.648 Z M462.384,17 L462.384,3.86 L461.502,3.86 L461.502,9.8 C460.746,8.648 459.558,7.604 457.722,7.604 C455.5695,7.604 453.382972,9.32240278 453.263159,12.1637222 L453.258,12.446 C453.258,15.434 455.508,17.216 457.722,17.216 C459.54,17.216 460.71,16.154 461.502,14.948 L461.502,17 L462.384,17 Z M461.556,12.428 C461.556,14.768 459.72,16.37 457.812,16.37 C455.946187,16.37 454.316871,14.9172383 454.216861,12.6335729 L454.212,12.374 C454.212,9.908 455.814,8.45 457.812,8.45 C459.660375,8.45 461.44118,9.93654687 461.550675,12.1732298 L461.556,12.428 Z M466.038,12.77 L473.652,12.77 C473.661,12.698 473.6655,12.6485 473.66775,12.60125 L473.67,12.41 C473.67,9.692 472.032,7.604 469.458,7.604 C467.044971,7.604 465.209471,9.60836245 465.106555,12.1650165 L465.102,12.428 C465.102,15.29 467.19,17.216 469.602,17.216 C471.366,17.216 472.464,16.496 473.4,15.488 L472.788,14.948 C472.032,15.758 471.06,16.388 469.638,16.388 C467.838,16.388 466.2,15.056 466.038,12.77 Z M466.038,11.978 C466.2,9.944 467.604,8.414 469.422,8.414 C471.528,8.414 472.59,10.124 472.716,11.978 L466.038,11.978 Z M483.858,7.82 L482.868,7.82 L479.358,16.01 L475.884,7.82 L474.858,7.82 L478.98,17.072 L479.736,17.072 L483.858,7.82 Z M486.036,12.77 L493.65,12.77 C493.659,12.698 493.6635,12.6485 493.66575,12.60125 L493.668,12.41 C493.668,9.692 492.03,7.604 489.456,7.604 C487.042971,7.604 485.207471,9.60836245 485.104555,12.1650165 L485.1,12.428 C485.1,15.29 487.188,17.216 489.6,17.216 C491.364,17.216 492.462,16.496 493.398,15.488 L492.786,14.948 C492.03,15.758 491.058,16.388 489.636,16.388 C487.836,16.388 486.198,15.056 486.036,12.77 Z M486.036,11.978 C486.198,9.944 487.602,8.414 489.42,8.414 C491.526,8.414 492.588,10.124 492.714,11.978 L486.036,11.978 Z M497.25,17 L497.25,3.86 L496.368,3.86 L496.368,17 L497.25,17 Z M509.526,12.41 L509.526,12.374 C509.526,9.8 507.546,7.604 504.828,7.604 C502.165946,7.604 500.202539,9.71698174 500.098354,12.2020841 L500.094,12.446 C500.094,15.02 502.074,17.216 504.792,17.216 C507.528,17.216 509.526,14.984 509.526,12.41 Z M508.572,12.446 C508.572,14.606 507.006,16.388 504.828,16.388 C502.770375,16.388 501.151957,14.7325273 501.052815,12.616204 L501.048,12.374 C501.048,10.214 502.614,8.432 504.792,8.432 C506.849625,8.432 508.468043,10.0874727 508.567185,12.203796 L508.572,12.446 Z M521.37,12.41 L521.37,12.374 C521.37,9.386 519.12,7.604 516.906,7.604 C515.088,7.604 513.918,8.666 513.126,9.872 L513.126,7.82 L512.244,7.82 L512.244,19.88 L513.126,19.88 L513.126,15.02 C513.882,16.172 515.07,17.216 516.906,17.216 C519.12,17.216 521.37,15.398 521.37,12.41 Z M520.416,12.446 C520.416,14.912 518.814,16.37 516.816,16.37 C514.967625,16.37 513.18682,14.8834531 513.077325,12.6467702 L513.072,12.392 C513.072,10.052 514.908,8.45 516.816,8.45 C518.681812,8.45 520.311129,9.90276172 520.411139,12.1864271 L520.416,12.446 Z M538.002,17 L538.002,11.438 C538.002,9.134 536.652,7.604 534.474,7.604 C532.746,7.604 531.756,8.558 531.162,9.584 C530.658,8.522 529.668,7.604 528.066,7.604 C526.428,7.604 525.6,8.504 525.006,9.458 L525.006,7.82 L524.124,7.82 L524.124,17 L525.006,17 L525.006,11.708 C525.006,9.854 526.302,8.414 527.94,8.414 C529.578,8.414 530.622,9.584 530.622,11.492 L530.622,17 L531.504,17 L531.504,11.654 C531.504,9.602 532.854,8.414 534.402,8.414 C536.094,8.414 537.12,9.566 537.12,11.546 L537.12,17 L538.002,17 Z M541.548,12.77 L549.162,12.77 C549.171,12.698 549.1755,12.6485 549.17775,12.60125 L549.18,12.41 C549.18,9.692 547.542,7.604 544.968,7.604 C542.554971,7.604 540.719471,9.60836245 540.616555,12.1650165 L540.612,12.428 C540.612,15.29 542.7,17.216 545.112,17.216 C546.876,17.216 547.974,16.496 548.91,15.488 L548.298,14.948 C547.542,15.758 546.57,16.388 545.148,16.388 C543.348,16.388 541.71,15.056 541.548,12.77 Z M541.548,11.978 C541.71,9.944 543.114,8.414 544.932,8.414 C547.038,8.414 548.1,10.124 548.226,11.978 L541.548,11.978 Z M559.62,17 L559.62,11.384 C559.62,9.188 558.27,7.604 555.948,7.604 C554.274,7.604 553.248,8.45 552.636,9.53 L552.636,7.82 L551.754,7.82 L551.754,17 L552.636,17 L552.636,11.69 C552.636,9.782 554.022,8.414 555.822,8.414 C557.676,8.414 558.738,9.656 558.738,11.546 L558.738,17 L559.62,17 Z M567.342,16.838 L567.342,16.01 C566.82,16.244 566.442,16.334 565.992,16.334 C564.93,16.334 564.156,15.866 564.156,14.552 L564.156,8.63 L567.378,8.63 L567.378,7.82 L564.156,7.82 L564.156,4.886 L563.274,4.886 L563.274,7.82 L561.942,7.82 L561.942,8.63 L563.274,8.63 L563.274,14.642 C563.274,16.388 564.426,17.162 565.848,17.162 C566.424,17.162 566.874,17.054 567.342,16.838 Z M569.412,4.724 L569.79,4.13 C572.958,5.93 574.776,8.576 574.776,11.834 C574.776,15.092 572.958,17.738 569.79,19.538 L569.412,18.944 C572.256,17.198 573.84,14.84 573.84,11.834 C573.84,8.828 572.256,6.47 569.412,4.724 Z" id="S-SMP(underdevelopment)" fill="#B3B3B3"></path>
        </g>
    </g>
<!-- Arhythmetic Units, copyright 2025-2026. CC-BY-NC-ND-4.0; see ArhythmeticUnits.svg. -->
<g id="ArhythmeticUnits" transform="translate(420.705000 367.698855) scale(0.49810967)">
<g fill-rule="evenodd">
<path d="M 11.3938 0 L 11.3938 9.1846 C 11.3938 10.3237 10.4703 11.2471 9.331 11.2471 L 0 11.2471 L 0 0 L 11.3938 0 Z M 10.5444 0.8493 L 0.8494 0.8493 L 0.8494 10.3978 L 9.331 10.3978 C 9.9945 10.3978 10.5335 9.8654 10.5443 9.2046 L 10.5444 9.1846 L 10.5444 0.8493 Z"/>
<path d="M 2.5213 1.3424 C 3.1848 1.3424 3.7227 1.8803 3.7227 2.5439 C 3.7227 3.2074 3.1848 3.7453 2.5213 3.7453 C 1.8578 3.7453 1.3199 3.2074 1.3199 2.5439 C 1.3199 1.8803 1.8578 1.3424 2.5213 1.3424 Z M 2.5213 2.0706 C 2.2599 2.0706 2.048 2.2825 2.048 2.5439 C 2.048 2.8053 2.2599 3.0171 2.5213 3.0171 C 2.7827 3.0171 2.9946 2.8053 2.9946 2.5439 C 2.9946 2.2825 2.7827 2.0706 2.5213 2.0706 Z"/>
<path d="M 2.5213 7.5019 C 3.1848 7.5019 3.7227 8.0397 3.7227 8.7033 C 3.7227 9.3668 3.1848 9.9047 2.5213 9.9047 C 1.8578 9.9047 1.3199 9.3668 1.3199 8.7033 C 1.3199 8.0397 1.8578 7.5019 2.5213 7.5019 Z M 2.5213 8.23 C 2.2599 8.23 2.048 8.4419 2.048 8.7033 C 2.048 8.9647 2.2599 9.1766 2.5213 9.1766 C 2.7827 9.1766 2.9946 8.9647 2.9946 8.7033 C 2.9946 8.4419 2.7827 8.23 2.5213 8.23 Z"/>
<path d="M 8.8725 7.5019 C 9.536 7.5019 10.0739 8.0397 10.0739 8.7033 C 10.0739 9.3668 9.536 9.9047 8.8725 9.9047 C 8.209 9.9047 7.6711 9.3668 7.6711 8.7033 C 7.6711 8.0397 8.209 7.5019 8.8725 7.5019 Z M 8.8725 8.23 C 8.6111 8.23 8.3992 8.4419 8.3992 8.7033 C 8.3992 8.9647 8.6111 9.1766 8.8725 9.1766 C 9.1339 9.1766 9.3458 8.9647 9.3458 8.7033 C 9.3458 8.4419 9.1339 8.23 8.8725 8.23 Z"/>
<path d="M 8.8725 1.3424 C 9.536 1.3424 10.0739 1.8803 10.0739 2.5439 C 10.0739 3.2074 9.536 3.7453 8.8725 3.7453 C 8.209 3.7453 7.6711 3.2074 7.6711 2.5439 C 7.6711 1.8803 8.209 1.3424 8.8725 1.3424 Z M 8.8725 2.0706 C 8.6111 2.0706 8.3992 2.2825 8.3992 2.5439 C 8.3992 2.8053 8.6111 3.0171 8.8725 3.0171 C 9.1339 3.0171 9.3458 2.8053 9.3458 2.5439 C 9.3458 2.2825 9.1339 2.0706 8.8725 2.0706 Z"/>
<path d="M 3.306 2.7131 L 3.5848 2.9926 L 8.4357 7.8547 L 8.7145 8.1342 L 8.1555 8.692 L 7.8766 8.4125 L 3.0258 3.5503 L 2.7469 3.2708 Z"/>
<circle cx="2.5213" cy="5.7025" r="1.2014"/>
<circle cx="5.601" cy="8.7033" r="1.2014"/>
<circle cx="8.8725" cy="5.7025" r="1.2014"/>
<circle cx="5.7364" cy="2.5439" r="1.2014"/>
<g transform="translate(12.9457, 0.3808)">
<path d="M 4.9031 5.2339 L 4.0079 2.8453 L 3.1128 5.2339 L 4.9031 5.2339 Z M 5.4321 6.6518 L 2.5838 6.6518 L 2.126 7.8984 L 0 7.8984 L 2.9195 0.7232 L 5.0964 0.7232 L 8.0159 7.8984 L 5.8898 7.8984 L 5.4321 6.6518 Z"/>
<path d="M 9.5193 3.0166 L 11.3605 3.0166 L 11.3605 3.816 C 11.5572 3.5241 11.7979 3.3005 12.0828 3.1451 C 12.3676 2.9897 12.6999 2.9119 13.0797 2.9119 C 13.1271 2.9119 13.1797 2.9119 13.2373 2.9119 C 13.295 2.9119 13.3611 2.9183 13.4357 2.931 L 13.4357 4.5773 C 13.1916 4.4631 12.9271 4.406 12.6422 4.406 C 12.215 4.406 11.8946 4.5249 11.6809 4.7628 C 11.4673 5.0007 11.3605 5.3481 11.3605 5.8048 L 11.3605 7.8984 L 9.5193 7.8984 L 9.5193 3.0166 Z"/>
<path d="M 14.9493 0 L 16.7905 0 L 16.7905 3.6352 C 17.0414 3.3497 17.2957 3.1578 17.5534 3.0594 C 17.8111 2.9611 18.1129 2.9119 18.4588 2.9119 C 19.1166 2.9119 19.6134 3.0816 19.9491 3.421 C 20.2847 3.7605 20.4526 4.2188 20.4526 4.7961 L 20.4526 7.8984 L 18.6114 7.8984 L 18.6114 5.4337 C 18.6114 5.1863 18.591 4.9865 18.5503 4.8342 C 18.5097 4.6819 18.4418 4.5646 18.3469 4.4821 C 18.1841 4.3489 17.9875 4.2823 17.7569 4.2823 C 17.4449 4.2823 17.2059 4.3695 17.0397 4.544 C 16.8736 4.7184 16.7905 4.9674 16.7905 5.291 L 16.7905 7.8984 L 14.9493 7.8984 L 14.9493 0 Z"/>
<path d="M 27.5342 8.721 L 107.4925 8.721 L 107.4925 10.3339 L 26.458 10.3339 Z"/>
<path d="M 0.0442 10.3339 L 0.0442 8.721 L 23.2272 8.7206 L 24.0821 7.2323 L 21.5593 3.0166 L 23.6955 3.0166 L 25.0891 5.5194 L 26.4421 3.0166 L 28.5579 3.0166 L 24.3669 10.3345 L 0.0442 10.3339 Z"/>
<path d="M 31.9331 4.4535 L 31.9331 7.8984 L 30.0919 7.8984 L 30.0919 4.4535 L 29.4816 4.4535 L 29.4816 3.0166 L 30.0919 3.0166 L 30.0919 1.5511 L 31.9331 1.5511 L 31.9331 3.0166 L 32.9809 3.0166 L 32.9809 4.4535 Z"/>
<path d="M 34.5962 0 L 36.4374 0 L 36.4374 3.6352 C 36.6883 3.3497 36.9426 3.1578 37.2003 3.0594 C 37.458 2.9611 37.7598 2.9119 38.1057 2.9119 C 38.7635 2.9119 39.2603 3.0816 39.5959 3.421 C 39.9316 3.7605 40.0995 4.2188 40.0995 4.7961 L 40.0995 7.8984 L 38.2583 7.8984 L 38.2583 5.4337 C 38.2583 5.1863 38.2379 4.9865 38.1972 4.8342 C 38.1566 4.6819 38.0887 4.5646 37.9938 4.4821 C 37.831 4.3489 37.6344 4.2823 37.4038 4.2823 C 37.0918 4.2823 36.8528 4.3695 36.6866 4.544 C 36.5205 4.7184 36.4374 4.9674 36.4374 5.291 L 36.4374 7.8984 L 34.5962 7.8984 L 34.5962 0 Z"/>
<path d="M 42.0403 3.0166 L 43.8816 3.0166 L 43.8816 3.6161 C 44.3834 3.1657 44.9463 2.9405 45.5702 2.9405 C 46.3433 2.9405 46.9333 3.245 47.3402 3.854 C 47.7539 3.2387 48.3439 2.931 49.1102 2.931 C 49.3543 2.931 49.5849 2.9643 49.8019 3.0309 C 50.0189 3.0975 50.2054 3.2022 50.3614 3.3449 C 50.5174 3.4877 50.6411 3.6732 50.7327 3.9016 C 50.8242 4.13 50.87 4.406 50.87 4.7295 L 50.87 7.8984 L 49.0288 7.8984 L 49.0288 5.4908 C 49.0288 5.2434 49.0101 5.0404 48.9728 4.8818 C 48.9355 4.7232 48.8813 4.5995 48.8101 4.5106 C 48.7389 4.4218 48.6558 4.3616 48.5609 4.3298 C 48.4659 4.2981 48.3642 4.2823 48.2557 4.2823 C 47.6657 4.2823 47.3707 4.6851 47.3707 5.4908 L 47.3707 7.8984 L 45.5295 7.8984 L 45.5295 5.4908 C 45.5295 5.2434 45.5125 5.0388 45.4786 4.877 C 45.4447 4.7152 45.3955 4.5868 45.3311 4.4916 C 45.2667 4.3965 45.1836 4.3314 45.0819 4.2965 C 44.9802 4.2616 44.8615 4.2442 44.7259 4.2442 C 44.6106 4.2442 44.5021 4.2601 44.4003 4.2918 C 44.2986 4.3235 44.2088 4.3853 44.1308 4.4773 C 44.0528 4.5693 43.9918 4.6962 43.9477 4.858 C 43.9036 5.0198 43.8816 5.2307 43.8816 5.4908 L 43.8816 7.8984 L 42.0403 7.8984 L 42.0403 3.0166 Z"/>
<path d="M 56.6357 4.7485 C 56.5747 4.5075 56.4492 4.314 56.2593 4.1681 C 56.0694 4.0222 55.8389 3.9492 55.5676 3.9492 C 55.2828 3.9492 55.0505 4.019 54.8708 4.1585 C 54.6911 4.2981 54.5775 4.4948 54.53 4.7485 L 56.6357 4.7485 Z M 54.4791 5.7477 C 54.4791 6.49 54.8521 6.8611 55.5981 6.8611 C 55.9982 6.8611 56.3 6.7089 56.5034 6.4044 L 58.2836 6.4044 C 57.9242 7.5209 57.0256 8.0792 55.5879 8.0792 C 55.1471 8.0792 54.7436 8.0173 54.3774 7.8936 C 54.0112 7.7699 53.6976 7.5939 53.4365 7.3655 C 53.1754 7.1371 52.9736 6.8643 52.8312 6.5471 C 52.6888 6.2299 52.6176 5.8746 52.6176 5.4813 C 52.6176 5.0753 52.6854 4.7089 52.821 4.3822 C 52.9567 4.0555 53.1499 3.7779 53.4009 3.5495 C 53.6518 3.3211 53.9553 3.1451 54.3113 3.0214 C 54.6673 2.8977 55.0691 2.8358 55.5167 2.8358 C 55.9575 2.8358 56.3543 2.8977 56.7069 3.0214 C 57.0595 3.1451 57.3579 3.3243 57.6021 3.559 C 57.8462 3.7938 58.0327 4.0808 58.1616 4.4202 C 58.2904 4.7597 58.3548 5.1419 58.3548 5.5669 L 58.3548 5.7477 L 54.4791 5.7477 Z"/>
<path d="M 62.2183 4.4535 L 62.2183 7.8984 L 60.3771 7.8984 L 60.3771 4.4535 L 59.7667 4.4535 L 59.7667 3.0166 L 60.3771 3.0166 L 60.3771 1.5511 L 62.2183 1.5511 L 62.2183 3.0166 L 63.266 3.0166 L 63.266 4.4535 Z"/>
<path d="M 66.631 3.0166 L 66.631 7.8984 L 64.7898 7.8984 L 64.7898 3.0166 L 66.631 3.0166 Z M 64.6678 1.1419 C 64.6678 1.0087 64.6949 0.8834 64.7491 0.766 C 64.8034 0.6487 64.878 0.5456 64.9729 0.4568 C 65.0679 0.368 65.1781 0.2982 65.3035 0.2474 C 65.429 0.1967 65.5629 0.1713 65.7053 0.1713 C 65.8478 0.1713 65.9817 0.1967 66.1072 0.2474 C 66.2326 0.2982 66.3428 0.368 66.4378 0.4568 C 66.5327 0.5456 66.6073 0.6487 66.6616 0.766 C 66.7158 0.8834 66.7429 1.0087 66.7429 1.1419 C 66.7429 1.2752 66.7158 1.4005 66.6616 1.5178 C 66.6073 1.6352 66.5327 1.7383 66.4378 1.8271 C 66.3428 1.9159 66.2326 1.9857 66.1072 2.0365 C 65.9817 2.0872 65.8478 2.1126 65.7053 2.1126 C 65.5629 2.1126 65.429 2.0872 65.3035 2.0365 C 65.1781 1.9857 65.0679 1.9159 64.9729 1.8271 C 64.878 1.7383 64.8034 1.6352 64.7491 1.5178 C 64.6949 1.4005 64.6678 1.2752 64.6678 1.1419 Z"/>
<path d="M 72.5188 4.5963 C 72.2001 4.3933 71.8779 4.2918 71.5524 4.2918 C 71.3761 4.2918 71.2116 4.3203 71.0591 4.3774 C 70.9065 4.4345 70.7725 4.5154 70.6572 4.6201 C 70.542 4.7248 70.4521 4.8485 70.3877 4.9912 C 70.3232 5.134 70.291 5.2941 70.291 5.4718 C 70.291 5.6431 70.3232 5.8001 70.3877 5.9428 C 70.4521 6.0856 70.5403 6.2093 70.6522 6.314 C 70.7641 6.4186 70.898 6.4995 71.054 6.5566 C 71.2099 6.6137 71.3761 6.6423 71.5524 6.6423 C 71.8983 6.6423 72.2204 6.5312 72.5188 6.3092 L 72.5188 7.7747 C 72.0644 7.9587 71.6338 8.0506 71.2269 8.0506 C 70.8471 8.0506 70.486 7.9904 70.1435 7.8698 C 69.8011 7.7493 69.4993 7.5764 69.2382 7.3512 C 68.9771 7.126 68.7686 6.8564 68.6126 6.5423 C 68.4566 6.2283 68.3786 5.8778 68.3786 5.4908 C 68.3786 5.1038 68.4532 4.7501 68.6024 4.4298 C 68.7516 4.1094 68.9551 3.8334 69.2128 3.6019 C 69.4705 3.3703 69.7773 3.1895 70.1334 3.0594 C 70.4894 2.9294 70.8709 2.8644 71.2778 2.8644 C 71.7253 2.8644 72.139 2.9532 72.5188 3.1308 L 72.5188 4.5963 Z"/>
<path d="M 80.5712 0.7232 L 80.5712 4.6248 C 80.5712 4.8342 80.5797 5.0483 80.5966 5.2672 C 80.6136 5.486 80.6645 5.6843 80.7492 5.8619 C 80.834 6.0396 80.9679 6.1839 81.151 6.2949 C 81.3341 6.4059 81.5918 6.4615 81.9241 6.4615 C 82.2564 6.4615 82.5124 6.4059 82.6922 6.2949 C 82.8719 6.1839 83.0058 6.0396 83.094 5.8619 C 83.1821 5.6843 83.2347 5.486 83.2516 5.2672 C 83.2686 5.0483 83.2771 4.8342 83.2771 4.6248 L 83.2771 0.7232 L 85.2607 0.7232 L 85.2607 4.8818 C 85.2607 5.9983 84.9877 6.8135 84.4418 7.3274 C 83.8959 7.8413 83.0567 8.0982 81.9241 8.0982 C 80.7916 8.0982 79.9507 7.8413 79.4014 7.3274 C 78.8521 6.8135 78.5774 5.9983 78.5774 4.8818 L 78.5774 0.7232 L 80.5712 0.7232 Z"/>
<path d="M 87.4966 3.0166 L 89.3378 3.0166 L 89.3378 3.6352 C 89.5887 3.3497 89.843 3.1578 90.1007 3.0594 C 90.3584 2.9611 90.6602 2.9119 91.006 2.9119 C 91.3722 2.9119 91.6859 2.9674 91.947 3.0785 C 92.2081 3.1895 92.4302 3.3465 92.6133 3.5495 C 92.7625 3.7145 92.8642 3.8984 92.9184 4.1015 C 92.9727 4.3045 92.9998 4.536 92.9998 4.7961 L 92.9998 7.8984 L 91.1586 7.8984 L 91.1586 5.4337 C 91.1586 5.1926 91.14 4.9976 91.1027 4.8485 C 91.0654 4.6994 90.9993 4.5804 90.9043 4.4916 C 90.8229 4.4155 90.7314 4.3616 90.6297 4.3298 C 90.5279 4.2981 90.4194 4.2823 90.3041 4.2823 C 89.9922 4.2823 89.7531 4.3695 89.587 4.544 C 89.4208 4.7184 89.3378 4.9674 89.3378 5.291 L 89.3378 7.8984 L 87.4966 7.8984 L 87.4966 3.0166 Z"/>
<path d="M 96.7819 3.0166 L 96.7819 7.8984 L 94.9407 7.8984 L 94.9407 3.0166 L 96.7819 3.0166 Z M 94.8186 1.1419 C 94.8186 1.0087 94.8457 0.8834 94.9 0.766 C 94.9543 0.6487 95.0289 0.5456 95.1238 0.4568 C 95.2187 0.368 95.3289 0.2982 95.4544 0.2474 C 95.5799 0.1967 95.7138 0.1713 95.8562 0.1713 C 95.9986 0.1713 96.1326 0.1967 96.258 0.2474 C 96.3835 0.2982 96.4937 0.368 96.5886 0.4568 C 96.6836 0.5456 96.7582 0.6487 96.8124 0.766 C 96.8667 0.8834 96.8938 1.0087 96.8938 1.1419 C 96.8938 1.2752 96.8667 1.4005 96.8124 1.5178 C 96.7582 1.6352 96.6836 1.7383 96.5886 1.8271 C 96.4937 1.9159 96.3835 1.9857 96.258 2.0365 C 96.1326 2.0872 95.9986 2.1126 95.8562 2.1126 C 95.7138 2.1126 95.5799 2.0872 95.4544 2.0365 C 95.3289 1.9857 95.2187 1.9159 95.1238 1.8271 C 95.0289 1.7383 94.9543 1.6352 94.9 1.5178 C 94.8457 1.4005 94.8186 1.2752 94.8186 1.1419 Z"/>
<path d="M 100.7878 4.4535 L 100.7878 7.8984 L 98.9466 7.8984 L 98.9466 4.4535 L 98.3362 4.4535 L 98.3362 3.0166 L 98.9466 3.0166 L 98.9466 1.5511 L 100.7878 1.5511 L 100.7878 3.0166 L 101.8355 3.0166 L 101.8355 4.4535 Z"/>
<path d="M 106.7264 4.2727 C 106.3873 4.1078 106.055 4.0253 105.7295 4.0253 C 105.5599 4.0253 105.4226 4.057 105.3175 4.1205 C 105.2124 4.1839 105.1598 4.2696 105.1598 4.3774 C 105.1598 4.4345 105.1683 4.4805 105.1853 4.5154 C 105.2022 4.5503 105.2395 4.5836 105.2972 4.6153 C 105.3548 4.647 105.4396 4.6756 105.5515 4.701 C 105.6634 4.7263 105.8109 4.7581 105.994 4.7961 C 106.5026 4.8913 106.8824 5.061 107.1333 5.3052 C 107.3842 5.5495 107.5097 5.8619 107.5097 6.2426 C 107.5097 6.5281 107.4486 6.785 107.3266 7.0134 C 107.2045 7.2418 107.0349 7.4337 106.8179 7.5891 C 106.6009 7.7445 106.3398 7.8651 106.0347 7.9507 C 105.7295 8.0364 105.3938 8.0792 105.0276 8.0792 C 104.3223 8.0792 103.6272 7.892 102.9422 7.5177 L 103.6136 6.2997 C 104.129 6.6296 104.6173 6.7945 105.0784 6.7945 C 105.248 6.7945 105.387 6.7596 105.4955 6.6898 C 105.604 6.6201 105.6583 6.5312 105.6583 6.4234 C 105.6583 6.3599 105.6498 6.3076 105.6328 6.2664 C 105.6159 6.2251 105.5803 6.1871 105.526 6.1522 C 105.4718 6.1173 105.3921 6.0856 105.287 6.057 C 105.1819 6.0285 105.0445 5.9983 104.875 5.9666 C 104.3053 5.8588 103.9069 5.6986 103.6797 5.486 C 103.4526 5.2735 103.339 4.9801 103.339 4.6058 C 103.339 4.333 103.3932 4.0872 103.5017 3.8683 C 103.6102 3.6494 103.7662 3.4639 103.9697 3.3116 C 104.1731 3.1594 104.4189 3.042 104.7072 2.9595 C 104.9954 2.877 105.3158 2.8358 105.6684 2.8358 C 106.2449 2.8358 106.8044 2.9405 107.3469 3.1498 L 106.7264 4.2727 Z"/>
</g>
</g>
</g>
</svg>
