<?xml version="1.0" encoding="UTF-8"?>
<svg width="210px" height="380px" viewBox="0 0 210 380" version="1.1" xmlns="http://www.w3.org/2000/svg" xmlns:xlink="http://www.w3.org/1999/xlink">
    <!-- Generator: Sketch 58 (84663) - https://sketch.com -->
    <title>S-SMP-Gaussian</title>
    <desc>Created with Sketch.</desc>
    <g id="S-SMP-Gaussian" stroke="none" stroke-width="1" fill="none" fill-rule="evenodd">
        <g id="bg">
            <g>
                <rect id="Background" fill="#404040" fill-rule="nonzero" x="0" y="0" width="210" height="380" rx="1"></rect>
                <path d="M206,365 C207.104569,365 208,365.895431 208,367 L208,373 C208,374.104569 207.104569,375 206,375 L4,375 C2.8954305,375 2,374.104569 2,373 L2,367 C2,365.895431 2.8954305,365 4,365 L206,365 Z M206,345 C207.104569,345 208,345.895431 208,347 L208,353 C208,354.104569 207.104569,355 206,355 L4,355 C2.8954305,355 2,354.104569 2,353 L2,347 C2,345.895431 2.8954305,345 4,345 L206,345 Z M206,325 C207.104569,325 208,325.895431 208,327 L208,333 C208,334.104569 207.104569,335 206,335 L4,335 C2.8954305,335 2,334.104569 2,333 L2,327 C2,325.895431 2.8954305,325 4,325 L206,325 Z M206,305 C207.104569,305 208,305.895431 208,307 L208,313 C208,314.104569 207.104569,315 206,315 L4,315 C2.8954305,315 2,314.104569 2,313 L2,307 C2,305.895431 2.8954305,305 4,305 L206,305 Z M206,285 C207.104569,285 208,285.895431 208,287 L208,293 C208,294.104569 207.104569,295 206,295 L4,295 C2.8954305,295 2,294.104569 2,293 L2,287 C2,285.895431 2.8954305,285 4,285 L206,285 Z M206,265 C207.104569,265 208,265.895431 208,267 L208,273 C208,274.104569 207.104569,275 206,275 L4,275 C2.8954305,275 2,274.104569 2,273 L2,267 C2,265.895431 2.8954305,265 4,265 L206,265 Z M206,245 C207.104569,245 208,245.895431 208,247 L208,253 C208,254.104569 207.104569,255 206,255 L4,255 C2.8954305,255 2,254.104569 2,253 L2,247 C2,245.895431 2.8954305,245 4,245 L206,245 Z M206,225 C207.104569,225 208,225.895431 208,227 L208,233 C208,234.104569 207.104569,235 206,235 L4,235 C2.8954305,235 2,234.104569 2,233 L2,227 C2,225.895431 2.8954305,225 4,225 L206,225 Z M206,205 C207.104569,205 208,205.895431 208,207 L208,213 C208,214.104569 207.104569,215 206,215 L4,215 C2.8954305,215 2,214.104569 2,213 L2,207 C2,205.895431 2.8954305,205 4,205 L206,205 Z M206,185 C207.104569,185 208,185.895431 208,187 L208,193 C208,194.104569 207.104569,195 206,195 L4,195 C2.8954305,195 2,194.104569 2,193 L2,187 C2,185.895431 2.8954305,185 4,185 L206,185 Z M206,165 C207.104569,165 208,165.895431 208,167 L208,173 C208,174.104569 207.104569,175 206,175 L4,175 C2.8954305,175 2,174.104569 2,173 L2,167 C2,165.895431 2.8954305,165 4,165 L206,165 Z M206,145 C207.104569,145 208,145.895431 208,147 L208,153 C208,154.104569 207.104569,155 206,155 L4,155 C2.8954305,155 2,154.104569 2,153 L2,147 C2,145.895431 2.8954305,145 4,145 L206,145 Z M206,125 C207.104569,125 208,125.895431 208,127 L208,133 C208,134.104569 207.104569,135 206,135 L4,135 C2.8954305,135 2,134.104569 2,133 L2,127 C2,125.895431 2.8954305,125 4,125 L206,125 Z M206,105 C207.104569,105 208,105.895431 208,107 L208,113 C208,114.104569 207.104569,115 206,115 L4,115 C2.8954305,115 2,114.104569 2,113 L2,107 C2,105.895431 2.8954305,105 4,105 L206,105 Z M206,85 C207.104569,85 208,85.8954305 208,87 L208,93 C208,94.1045695 207.104569,95 206,95 L4,95 C2.8954305,95 2,94.1045695 2,93 L2,87 C2,85.8954305 2.8954305,85 4,85 L206,85 Z M206,65 C207.104569,65 208,65.8954305 208,67 L208,73 C208,74.1045695 207.104569,75 206,75 L4,75 C2.8954305,75 2,74.1045695 2,73 L2,67 C2,65.8954305 2.8954305,65 4,65 L206,65 Z M206,45 C207.104569,45 208,45.8954305 208,47 L208,53 C208,54.1045695 207.104569,55 206,55 L4,55 C2.8954305,55 2,54.1045695 2,53 L2,47 C2,45.8954305 2.8954305,45 4,45 L206,45 Z M206,25 C207.104569,25 208,25.8954305 208,27 L208,33 C208,34.1045695 207.104569,35 206,35 L4,35 C2.8954305,35 2,34.1045695 2,33 L2,27 C2,25.8954305 2.8954305,25 4,25 L206,25 Z M206,5 C207.104569,5 208,5.8954305 208,7 L208,13 C208,14.1045695 207.104569,15 206,15 L4,15 C2.8954305,15 2,14.1045695 2,13 L2,7 C2,5.8954305 2.8954305,5 4,5 L206,5 Z" id="leads" fill="#E0D9C5"></path>
                <rect id="cover" fill="#1D1D1D" x="5" y="0" width="200" height="380" rx="2"></rect>
            </g>
            <g id="Logo/Panel/DarkMode" transform="translate(73.000000, 364.000000)" fill="#FFFFFF" fill-rule="nonzero">
                <g id="Logo/Print/DarkMode">
                    <path d="M1.95775432,2.29858118 L3.38562168,2.29858118 L3.38562168,4.99672234 L6.06699634,2.29858118 L7.94254488,2.29858118 L5.09623504,4.99672234 L8.08863032,8.85057471 L6.22250665,8.85057471 L4.0783494,5.98796695 L3.38562168,6.65916846 L3.38562168,8.85057471 L1.95775432,8.85057471 L1.95775432,2.29858118 Z M11.6276679,6.49470187 C11.5428437,6.54507927 11.4572353,6.5858251 11.3708403,6.61694055 C11.2844452,6.64805601 11.1658502,6.6769485 11.0150515,6.70361889 L10.7134558,6.75695941 C10.4307084,6.80437344 10.2280757,6.86215842 10.1055519,6.93031609 C9.89820375,7.04588779 9.79453125,7.2251694 9.79453125,7.46816631 C9.79453125,7.68449282 9.85814847,7.84080861 9.98538481,7.93711835 C10.1126211,8.0334281 10.2673445,8.08158226 10.4495595,8.08158226 C10.7385902,8.08158226 11.00484,8.00157228 11.248317,7.84154993 C11.4917939,7.68152758 11.618243,7.38963933 11.6276679,6.96587644 L11.6276679,6.49470187 Z M10.8124169,5.90351114 C11.0606051,5.87387737 11.2381062,5.83683571 11.3449219,5.79238506 C11.5365618,5.71533726 11.6323803,5.59532229 11.6323803,5.43233657 C11.6323803,5.23379031 11.5593383,5.09673619 11.4132522,5.02117008 C11.267166,4.94560397 11.0527524,4.90782148 10.770005,4.90782148 C10.4526995,4.90782148 10.2280758,4.98190479 10.096127,5.13007364 C10.0018779,5.23971858 9.93904603,5.3878852 9.90762965,5.57457795 L8.61171044,5.57457795 C8.63998518,5.15081505 8.76564882,4.80262349 8.98870512,4.52999282 C9.34371022,4.10326654 9.95317886,3.88990661 10.8171293,3.88990661 C11.3794825,3.88990661 11.8789955,3.99510491 12.3156832,4.20550467 C12.7523709,4.41590443 12.9707114,4.81299097 12.9707114,5.39677622 L12.9707114,7.61929777 C12.9707114,7.77339337 12.973853,7.96008331 12.9801363,8.1793732 C12.9895612,8.34532231 13.0162647,8.45792894 13.0602477,8.51719648 C13.1042306,8.57646402 13.170204,8.625359 13.2581699,8.6638829 L13.2581699,8.85057471 L11.7973155,8.85057471 C11.7564742,8.75278328 11.7281999,8.66091997 11.7124917,8.57498204 C11.6967835,8.48904411 11.6842171,8.39125414 11.6747922,8.2816092 C11.4894356,8.47126532 11.2758074,8.63276693 11.0339013,8.76611889 C10.7448706,8.92317787 10.4181451,9.00170618 10.0537151,9.00170618 C9.58875266,9.00170618 9.20469317,8.87650538 8.9015251,8.62610004 C8.59835703,8.37569469 8.44677527,8.02083563 8.44677527,7.56151221 C8.44677527,6.96587346 8.69024856,6.53470859 9.17720246,6.26800467 C9.44424169,6.1227992 9.83694056,6.01908257 10.3553108,5.95685165 L10.8124169,5.90351114 Z M15.5012882,4.00547773 L15.5012882,6.92587105 C15.5012882,7.2014651 15.5358457,7.40889837 15.6049618,7.54817708 C15.7274857,7.79413736 15.9678174,7.91711566 16.3259641,7.91711566 C16.7846433,7.91711566 17.0988023,7.74227905 17.2684508,7.39260057 C17.3564167,7.20294445 17.4003989,6.95254286 17.4003989,6.64138829 L17.4003989,4.00547773 L18.7622922,4.00547773 L18.7622922,8.85057471 L17.4569481,8.85057471 L17.4569481,8.16603807 L17.4405489,8.18737424 C17.4238355,8.21019205 17.3978858,8.24753027 17.3626995,8.29938937 C17.3124333,8.37347379 17.252743,8.4386671 17.183627,8.49497126 C16.9731372,8.67277388 16.7697192,8.79427051 16.5733669,8.8594648 C16.3770145,8.92465909 16.1468929,8.95725575 15.8829953,8.95725575 C15.1227189,8.95725575 14.6106396,8.69944583 14.346742,8.18381825 C14.199085,7.89933407 14.1252576,7.48002253 14.1252576,6.92587105 L14.1252576,4.00547773 L15.5012882,4.00547773 Z M19.5304189,4.95227191 L19.5304189,4.04992816 L20.2467088,4.04992816 L20.2467088,2.69863506 L21.575615,2.69863506 L21.575615,4.04992816 L22.4097158,4.04992816 L22.4097158,4.95227191 L21.575615,4.95227191 L21.575615,7.51261674 C21.575615,7.71116299 21.6023185,7.83488212 21.6557264,7.88377784 C21.7091342,7.93267356 21.872497,7.95712105 22.1458195,7.95712105 C22.1866608,7.95712105 22.2298577,7.95638022 22.2754114,7.95489853 C22.3209652,7.95341684 22.3657328,7.95119434 22.4097158,7.94823096 L22.4097158,8.89502514 L21.7735372,8.91725036 C21.1389263,8.937994 20.7053868,8.83427736 20.4729056,8.60609734 C20.322107,8.46089187 20.2467088,8.23716028 20.2467088,7.93489583 L20.2467088,4.95227191 L19.5304189,4.95227191 Z M25.2984375,4.92115661 C24.9874153,4.92115661 24.7462982,5.01301991 24.575079,5.19674928 C24.4038597,5.38047865 24.2962602,5.62939857 24.2522773,5.94351652 L26.3398853,5.94351652 C26.3178938,5.60865493 26.2102944,5.35454918 26.0170836,5.18119163 C25.8238729,5.00783408 25.5843266,4.92115661 25.2984375,4.92115661 Z M25.2984375,3.87657148 C25.7257003,3.87657148 26.1105452,3.95213646 26.4529837,4.10326868 C26.7954223,4.2544009 27.0781654,4.49294916 27.3012217,4.81892062 C27.5022866,5.10636818 27.6326626,5.43974307 27.6923537,5.81905532 C27.7269117,6.04130858 27.7410489,6.36134849 27.7347656,6.77918463 L24.2192902,6.77918463 C24.2381401,7.26517844 24.399932,7.60596167 24.7046709,7.80154454 C24.8900275,7.92304299 25.1130805,7.98379131 25.3738364,7.98379131 C25.6503006,7.98379131 25.8749243,7.909708 26.0477144,7.76153915 C26.1419636,7.68152798 26.2252157,7.57040301 26.2974734,7.42816092 L27.6687916,7.42816092 C27.6342335,7.71560848 27.4755832,8.00749672 27.1928358,8.30383441 C26.7530064,8.77501134 26.1372546,9.01059626 25.3455618,9.01059626 C24.6921011,9.01059626 24.1156192,8.81205299 23.6160987,8.41496049 C23.1165783,8.01786799 22.8668218,7.37186151 22.8668218,6.4769217 C22.8668218,5.63828604 23.092231,4.9952429 23.543056,4.54777299 C23.9938811,4.10030308 24.5790024,3.87657148 25.2984375,3.87657148 Z M31.4858627,3.88990661 C32.0167995,3.88990661 32.4511245,4.02103407 32.7888506,4.28329292 C33.1265767,4.54555178 33.2954372,4.98042081 33.2954372,5.58791307 L33.2954372,8.85057471 L31.9194066,8.85057471 L31.9194066,5.90351114 C31.9194066,5.64866072 31.8832783,5.45308078 31.8110206,5.31676545 C31.6790718,5.06784179 31.4277445,4.94338182 31.0570313,4.94338182 C30.6014937,4.94338182 30.2889054,5.12562677 30.119257,5.49012213 C30.0312911,5.68274162 29.9873088,5.92869822 29.9873088,6.22799928 L29.9873088,8.85057471 L28.6489777,8.85057471 L28.6489777,4.01436782 L29.9448969,4.01436782 L29.9448969,4.72112967 C30.117687,4.47220601 30.2810498,4.2929244 30.43499,4.18327945 C30.7114542,3.98769658 31.0617416,3.88990661 31.4858627,3.88990661 Z M35.9391124,3.42762213 L34.5960688,3.42762213 L34.5960688,2.25857579 L35.9391124,2.25857579 L35.9391124,3.42762213 Z M33.9504654,10.7930585 L33.9504654,9.77958872 L34.0978762,9.79004152 L34.0978762,9.79004152 L34.1106882,9.79070133 C34.1421045,9.79218302 34.1703789,9.79292385 34.195512,9.79292385 C34.3274608,9.79292385 34.4272063,9.76254969 34.4947515,9.70180047 C34.5622967,9.64105124 34.5960688,9.52325878 34.5960688,9.34841954 L34.5960688,4.02770295 L35.9391124,4.02770295 L35.9391124,9.37064476 C35.9391124,9.85960194 35.8370107,10.2211285 35.6328042,10.4552353 C35.435185,10.6817902 35.0536827,10.7987202 34.4882863,10.8060283 L34.4311336,10.8063937 C34.4077958,10.8063937 34.3780467,10.8059099 34.341886,10.8049422 L34.0479841,10.7955986 C34.0170809,10.7947519 33.9845746,10.7939052 33.9504654,10.7930585 Z M40.0483544,6.49470187 C39.9635302,6.54507927 39.8779218,6.5858251 39.7915268,6.61694055 C39.7051317,6.64805601 39.5865367,6.6769485 39.435738,6.70361889 L39.1341423,6.75695941 C38.8513949,6.80437344 38.6487622,6.86215842 38.5262384,6.93031609 C38.3188903,7.04588779 38.2152178,7.2251694 38.2152178,7.46816631 C38.2152178,7.68449282 38.278835,7.84080861 38.4060713,7.93711835 C38.5333077,8.0334281 38.688031,8.08158226 38.870246,8.08158226 C39.1592767,8.08158226 39.4255265,8.00157228 39.6690035,7.84154993 C39.9124804,7.68152758 40.0389295,7.38963933 40.0483544,6.96587644 L40.0483544,6.49470187 Z M39.2331034,5.90351114 C39.4812916,5.87387737 39.6587927,5.83683571 39.7656084,5.79238506 C39.9572483,5.71533726 40.0530668,5.59532229 40.0530668,5.43233657 C40.0530668,5.23379031 39.9800248,5.09673619 39.8339387,5.02117008 C39.6878525,4.94560397 39.4734389,4.90782148 39.1906915,4.90782148 C38.873386,4.90782148 38.6487623,4.98190479 38.5168135,5.13007364 C38.4225644,5.23971858 38.3597325,5.3878852 38.3283162,5.57457795 L37.0323969,5.57457795 C37.0606717,5.15081505 37.1863353,4.80262349 37.4093916,4.52999282 C37.7643967,4.10326654 38.3738654,3.88990661 39.2378158,3.88990661 C39.800169,3.88990661 40.299682,3.99510491 40.7363697,4.20550467 C41.1730574,4.41590443 41.3913979,4.81299097 41.3913979,5.39677622 L41.3913979,7.61929777 C41.3913979,7.77339337 41.3945395,7.96008331 41.4008228,8.1793732 C41.4102477,8.34532231 41.4369512,8.45792894 41.4809342,8.51719648 C41.5249171,8.57646402 41.5908905,8.625359 41.6788564,8.6638829 L41.6788564,8.85057471 L40.218002,8.85057471 C40.1771607,8.75278328 40.1488864,8.66091997 40.1331782,8.57498204 C40.11747,8.48904411 40.1049036,8.39125414 40.0954787,8.2816092 C39.9101221,8.47126532 39.6964939,8.63276693 39.4545878,8.76611889 C39.1655571,8.92317787 38.8388316,9.00170618 38.4744016,9.00170618 C38.0094392,9.00170618 37.6253797,8.87650538 37.3222116,8.62610004 C37.0190435,8.37569469 36.8674618,8.02083563 36.8674618,7.56151221 C36.8674618,6.96587346 37.1109351,6.53470859 37.597889,6.26800467 C37.8649282,6.1227992 38.2576271,6.01908257 38.7759973,5.95685165 L39.2331034,5.90351114 Z M44.1010472,3.43651221 L44.1010472,7.71264368 L45.4393783,7.71264368 C46.1242554,7.71264368 46.6017772,7.39408544 46.8719581,6.75695941 C47.0196151,6.40728094 47.0934425,5.99093273 47.0934425,5.5079023 C47.0934425,4.8411425 46.9827014,4.32922682 46.7612159,3.97213991 C46.5397304,3.61505299 46.0991223,3.43651221 45.4393783,3.43651221 L44.1010472,3.43651221 Z M45.6844249,2.29858118 C46.1148293,2.30450793 46.4729706,2.35192125 46.7588597,2.44082256 C47.2458136,2.59195478 47.6400833,2.86902636 47.9416805,3.27204562 C48.1835866,3.59801708 48.3485202,3.95065364 48.436486,4.32996588 C48.5244519,4.70927812 48.5684342,5.07080467 48.5684342,5.41455639 C48.5684342,6.2857892 48.3830803,7.02365897 48.012367,7.62818786 C47.5097049,8.4431165 46.733732,8.85057471 45.6844249,8.85057471 L42.6920296,8.85057471 L42.6920296,2.29858118 L45.6844249,2.29858118 Z M50.7125914,6.8280801 C50.7565744,7.12738117 50.8429681,7.35111276 50.9717753,7.49928161 C51.2073981,7.76894891 51.6110926,7.90378053 52.1828707,7.90378053 C52.5253092,7.90378053 52.80334,7.86822054 53.0169714,7.7970995 C53.4222427,7.66078416 53.6248753,7.40741924 53.6248753,7.03699713 C53.6248753,6.82067061 53.5243444,6.65324233 53.3232796,6.53470726 C53.132268,6.42491414 52.8377712,6.32715743 52.4397811,6.24143448 L51.6409408,6.07242277 C50.9183641,5.91832717 50.4188511,5.75089889 50.142387,5.5701329 C49.6742829,5.26786846 49.4402344,4.79521694 49.4402344,4.15216415 C49.4402344,3.56541553 49.6664289,3.07794734 50.1188248,2.68974497 C50.5712207,2.3015426 51.2356672,2.10744432 52.1121842,2.10744432 C52.8441858,2.10744432 53.468577,2.2904301 53.9853765,2.65640715 C54.502176,3.02238419 54.7731382,3.55356153 54.7982713,4.2499551 L53.403391,4.2499551 C53.3782579,3.85582597 53.1960456,3.57579106 52.8567487,3.40984195 C52.6305507,3.30019701 52.3493783,3.24537536 52.0132231,3.24537536 C51.6393681,3.24537536 51.340917,3.31649534 51.1178607,3.45873743 C50.8948044,3.60097952 50.7832779,3.79952279 50.7832779,4.0543732 C50.7832779,4.27783876 50.8834648,4.4472999 51.0838415,4.56276117 L51.1131483,4.57888829 C51.248867,4.65285418 51.5322436,4.73910853 51.9632861,4.83765375 L53.2148936,5.12118355 C53.7395472,5.23971862 54.1353876,5.39825691 54.4024269,5.59680316 C54.8171231,5.90499436 55.0244681,6.35097589 55.0244681,6.93476114 C55.0244681,7.53336327 54.7817802,8.03046228 54.2963971,8.4260731 C53.811014,8.82168391 53.1253618,9.01948635 52.2394199,9.01948635 C51.3346281,9.01948635 50.6230578,8.82464724 50.1046875,8.43496318 C49.5863172,8.04527912 49.327136,7.50965678 49.327136,6.8280801 L50.7125914,6.8280801 Z M60.0102227,4.38330639 C60.0102227,4.04251805 59.9151896,3.79952479 59.7251205,3.65431932 C59.5350514,3.50911386 59.2688016,3.43651221 58.926363,3.43651221 L57.5738946,3.43651221 L57.5738946,5.36566092 L58.926363,5.36566092 C59.2688016,5.36566092 59.5350514,5.28713261 59.7251205,5.13007364 C59.9151896,4.97301466 60.0102227,4.72409474 60.0102227,4.38330639 Z M61.447515,4.37441631 C61.447515,5.14785767 61.24017,5.69459251 60.8254737,6.01463721 C60.4107775,6.33468192 59.8185876,6.49470187 59.0488863,6.49470187 L57.5738946,6.49470187 L57.5738946,8.85057471 L56.13189,8.85057471 L56.13189,2.29858118 L59.1572723,2.29858118 C59.8547159,2.29858118 60.4107775,2.46749113 60.8254737,2.80531609 C61.24017,3.14314106 61.447515,3.66616923 61.447515,4.37441631 Z" id="KautenjaDSP"></path>
                </g>
            </g>
            <path d="M54.5600781,12.9511719 L56.1811719,12.9511719 L55.6538281,15.9492188 L55.6538281,15.9980469 C55.6538281,16.1087245 55.6928902,16.2063798 55.7710156,16.2910156 C55.849141,16.3756515 55.9435411,16.4179688 56.0542187,16.4179688 L56.9526562,16.4179688 C57.0958861,16.4179688 57.2260932,16.3723963 57.3432812,16.28125 C57.4669798,16.1835933 57.5418488,16.0664069 57.5678906,15.9296875 L57.9194531,13.9570312 C57.932474,13.8984372 57.9389844,13.8365889 57.9389844,13.7714844 C57.9389844,13.548269 57.8528883,13.2676591 57.6806939,12.9296482 L55.8784375,9.55273438 L55.8784375,9.55273438 C55.6310404,9.06445068 55.5073437,8.58593984 55.5073437,8.1171875 L55.5073437,8.02929688 C55.5073437,7.91861924 55.5171093,7.80468809 55.5366406,7.6875 L55.9565625,5.265625 C56.021667,4.90103984 56.2039568,4.5983085 56.5034375,4.35742188 C56.7898973,4.11653525 57.11867,3.99609375 57.4897656,3.99609375 L59.8335156,3.99609375 C60.172059,3.99609375 60.4650248,4.11979043 60.7124219,4.3671875 C60.9663294,4.61458457 61.0932812,4.92057109 61.0932812,5.28515625 C61.0932812,5.34158014 61.0903878,5.39076975 61.0846007,5.43272567 L60.4585156,8.92773438 L58.8178906,8.92773438 L59.3354687,6.03710938 C59.3484896,6.01757803 59.355,5.99153662 59.355,5.95898438 C59.355,5.86132764 59.3126827,5.77018271 59.2280469,5.68554688 C59.143411,5.61393193 59.0457558,5.578125 58.9350781,5.578125 L58.0366406,5.578125 C57.8934107,5.578125 57.7664589,5.62369746 57.6557812,5.71484375 C57.5451036,5.79947959 57.4767449,5.90690039 57.4507031,6.03710938 L57.1675,7.58984375 C57.1479687,7.70703184 57.1382031,7.82747334 57.1382031,7.95117188 C57.1382031,8.40690332 57.2879412,8.87890381 57.5874219,9.3671875 L58.1420468,10.2798328 C58.8950508,11.5316108 59.2928549,12.2560359 59.3354687,12.453125 C59.5047404,12.7656266 59.589375,13.10742 59.589375,13.4785156 C59.5828646,13.6477873 59.5633335,13.826822 59.5307812,14.015625 L59.0327344,16.7207031 C58.9676299,17.0852883 58.7885952,17.3912748 58.495625,17.6386719 C58.2026548,17.8795585 57.8673717,18 57.4897656,18 L55.1557812,18 C54.8107274,18 54.5210168,17.8763033 54.2866406,17.6289062 C54.0587749,17.3815092 53.9448437,17.0787778 53.9448437,16.7207031 L53.9448437,16.4960938 L54.5600781,12.9511719 Z M68.3665625,12.92 L68.3665625,10.88 L62.8865625,10.88 L62.8865625,12.92 L68.3665625,12.92 Z M70.5895312,12.9511719 L72.210625,12.9511719 L71.6832812,15.9492188 L71.6832812,15.9980469 C71.6832812,16.1087245 71.7223434,16.2063798 71.8004687,16.2910156 C71.8785941,16.3756515 71.9729942,16.4179688 72.0836719,16.4179688 L72.9821094,16.4179688 C73.1253393,16.4179688 73.2555463,16.3723963 73.3727344,16.28125 C73.4964329,16.1835933 73.571302,16.0664069 73.5973437,15.9296875 L73.9489062,13.9570312 C73.9619271,13.8984372 73.9684375,13.8365889 73.9684375,13.7714844 C73.9684375,13.548269 73.8823414,13.2676591 73.7101471,12.9296482 L72.7867969,11.2128906 L72.7867969,11.2128906 L71.9078906,9.55273438 L71.9078906,9.55273438 C71.6604936,9.06445068 71.5367969,8.58593984 71.5367969,8.1171875 L71.5367969,8.02929688 C71.5367969,7.91861924 71.5465624,7.80468809 71.5660937,7.6875 L71.9860156,5.265625 C72.0511201,4.90103984 72.23341,4.5983085 72.5328906,4.35742188 C72.8193504,4.11653525 73.1481231,3.99609375 73.5192187,3.99609375 L75.8629687,3.99609375 C76.2015121,3.99609375 76.4944779,4.11979043 76.741875,4.3671875 C76.9957825,4.61458457 77.1227344,4.92057109 77.1227344,5.28515625 C77.1227344,5.34158014 77.1198409,5.39076975 77.1140538,5.43272567 L76.4879687,8.92773438 L74.8473437,8.92773438 L75.3649219,6.03710938 C75.3779428,6.01757803 75.3844531,5.99153662 75.3844531,5.95898438 C75.3844531,5.86132764 75.3421358,5.77018271 75.2575,5.68554688 C75.1728642,5.61393193 75.0752089,5.578125 74.9645312,5.578125 L74.0660937,5.578125 C73.9228639,5.578125 73.795912,5.62369746 73.6852344,5.71484375 C73.5745567,5.79947959 73.506198,5.90690039 73.4801562,6.03710938 L73.1969531,7.58984375 C73.1774218,7.70703184 73.1676562,7.82747334 73.1676562,7.95117188 C73.1676562,8.40690332 73.3173943,8.87890381 73.616875,9.3671875 L74.1714999,10.2798328 C74.9245039,11.5316108 75.322308,12.2560359 75.3649219,12.453125 C75.5341936,12.7656266 75.6188281,13.10742 75.6188281,13.4785156 C75.6123177,13.6477873 75.5927866,13.826822 75.5602344,14.015625 L75.0621875,16.7207031 C74.997083,17.0852883 74.8180483,17.3912748 74.5250781,17.6386719 C74.2321079,17.8795585 73.8968248,18 73.5192187,18 L71.1852344,18 C70.8401806,18 70.5504699,17.8763033 70.3160937,17.6289062 C70.088228,17.3815092 69.9742969,17.0787778 69.9742969,16.7207031 L69.9742969,16.4960938 L70.5895312,12.9511719 Z M78.5192187,3.99609375 L80.5309375,3.99609375 L80.4235156,14.0839844 L83.8024219,3.99609375 L86.1266406,3.99609375 L83.5875781,18 L81.898125,18 L83.4508594,9.25976562 L80.5016406,18 L79.0758594,18 L79.1832812,9.15234375 L77.6598437,18 L75.9703906,18 L78.5192187,3.99609375 Z M87.2985156,3.99609375 L90.9801562,3.99609375 C91.3252101,3.99609375 91.6214311,4.12304561 91.8688281,4.37695312 C92.1097147,4.61783975 92.2301562,4.89452969 92.2301562,5.20703125 C92.2301562,5.26345514 92.225816,5.32421871 92.2171355,5.38932278 L91.3024219,10.4511719 C91.2373174,10.8222675 91.0615379,11.128254 90.7750781,11.3691406 C90.4886184,11.6100272 90.1598456,11.7304688 89.78875,11.7304688 L87.5914844,11.7304688 L86.4489062,18.0097656 L84.7594531,18.0097656 L87.2985156,3.99609375 Z M89.2223437,10.1484375 C89.3655736,10.1484375 89.4925255,10.102865 89.6032031,10.0117188 C89.7073703,9.92708291 89.7724738,9.81640693 89.7985156,9.6796875 L90.491875,6.03710938 L90.491875,5.97851562 C90.491875,5.86132754 90.4528129,5.76367227 90.3746875,5.68554688 C90.2965621,5.61393193 90.202162,5.578125 90.0914844,5.578125 L88.695,5.578125 L87.8453906,10.1484375 L89.2223437,10.1484375 Z M96.9829687,12.6 C96.9829687,9.7 97.8029687,6.26 99.9629687,4.32 C99.9629687,4.14 99.8629687,3.96 99.6229687,3.94 C96.5029687,5.64 95.0429688,9.2 95.0429688,12.6 C95.0429688,16 96.5029687,19.56 99.6229687,21.26 C99.8629687,21.24 99.9629687,21.06 99.9629687,20.88 C97.8029687,18.94 96.9829687,15.5 96.9829687,12.6 Z M101.090703,16.4765625 L103.102422,5.265625 C103.167526,4.90103984 103.346561,4.5983085 103.639531,4.35742188 C103.932501,4.11653525 104.261274,3.99609375 104.625859,3.99609375 L106.998906,3.99609375 C107.33745,3.99609375 107.62716,4.11979043 107.868047,4.3671875 C108.115444,4.61458457 108.239141,4.91731592 108.239141,5.27539062 C108.239141,5.33615482 108.236247,5.38823793 108.23046,5.43164061 L107.594609,8.9765625 L105.973516,8.9765625 L106.500859,6.03710938 L106.500859,5.97851562 C106.500859,5.86132754 106.461797,5.76367227 106.383672,5.68554688 C106.305546,5.61393193 106.207891,5.578125 106.090703,5.578125 L105.1825,5.578125 C105.045781,5.578125 104.918829,5.62369746 104.801641,5.71484375 C104.690963,5.79947959 104.622604,5.90690039 104.596562,6.03710938 L102.809453,15.9492188 L102.809453,15.9980469 C102.809453,16.1087245 102.848515,16.2063798 102.926641,16.2910156 C103.004766,16.3756515 103.102421,16.4179688 103.219609,16.4179688 L104.118047,16.4179688 C104.45659,16.4179688 104.655156,16.25521 104.71375,15.9296875 L105.514531,11.6523438 L104.586797,11.6523438 L104.87,10.0898438 L107.418828,10.0898438 L106.207891,16.7207031 C106.142786,17.0852883 105.960496,17.3912748 105.661016,17.6386719 C105.368045,17.8795585 105.036017,18 104.664922,18 L102.330937,18 C101.985884,18 101.692918,17.8763033 101.452031,17.6289062 C101.211145,17.3749987 101.090703,17.0722674 101.090703,16.7207031 L101.090703,16.4765625 Z M106.774297,18 L111.393437,3.99609375 L113.073125,3.99609375 L112.633672,18 L111.041875,18 L111.159062,15.6953125 L109.245,15.6953125 L108.561406,18 L106.774297,18 Z M111.237187,14.1132812 L111.549687,7.91210938 L109.71375,14.1132812 L111.237187,14.1132812 Z M115.973516,3.99609375 L117.594609,3.99609375 L115.446172,15.96875 L115.446172,16.0175781 C115.446172,16.1282558 115.481979,16.225911 115.553594,16.3105469 C115.63823,16.3951827 115.735885,16.4375 115.846562,16.4375 L116.745,16.4375 C117.083543,16.4375 117.282109,16.2747412 117.340703,15.9492188 L119.508672,3.99609375 L121.168828,3.99609375 L118.834844,16.7402344 C118.769739,17.0983091 118.590705,17.3977853 118.297734,17.6386719 C118.004764,17.8795585 117.669481,18 117.291875,18 L114.938359,18 C114.606326,18 114.319871,17.8763033 114.078984,17.6289062 C113.838098,17.3815092 113.717656,17.0852882 113.717656,16.7402344 L113.717656,16.4960938 L115.973516,3.99609375 Z M120.631719,12.9511719 L122.252812,12.9511719 L121.725469,15.9492188 L121.725469,15.9980469 C121.725469,16.1087245 121.764531,16.2063798 121.842656,16.2910156 C121.920782,16.3756515 122.015182,16.4179688 122.125859,16.4179688 L123.024297,16.4179688 C123.167527,16.4179688 123.297734,16.3723963 123.414922,16.28125 C123.53862,16.1835933 123.613489,16.0664069 123.639531,15.9296875 L123.991094,13.9570312 C124.004115,13.8984372 124.010625,13.8365889 124.010625,13.7714844 C124.010625,13.548269 123.924529,13.2676591 123.752335,12.9296482 L122.828984,11.2128906 L122.828984,11.2128906 L121.950078,9.55273438 L121.950078,9.55273438 C121.702681,9.06445068 121.578984,8.58593984 121.578984,8.1171875 L121.578984,8.02929688 C121.578984,7.91861924 121.58875,7.80468809 121.608281,7.6875 L122.028203,5.265625 C122.093308,4.90103984 122.275597,4.5983085 122.575078,4.35742188 C122.861538,4.11653525 123.190311,3.99609375 123.561406,3.99609375 L125.905156,3.99609375 C126.2437,3.99609375 126.536665,4.11979043 126.784062,4.3671875 C127.03797,4.61458457 127.164922,4.92057109 127.164922,5.28515625 C127.164922,5.34158014 127.162028,5.39076975 127.156241,5.43272567 L126.530156,8.92773438 L124.889531,8.92773438 L125.407109,6.03710938 C125.42013,6.01757803 125.426641,5.99153662 125.426641,5.95898438 C125.426641,5.86132764 125.384323,5.77018271 125.299687,5.68554688 C125.215052,5.61393193 125.117396,5.578125 125.006719,5.578125 L124.108281,5.578125 C123.965051,5.578125 123.8381,5.62369746 123.727422,5.71484375 C123.616744,5.79947959 123.548386,5.90690039 123.522344,6.03710938 L123.239141,7.58984375 C123.219609,7.70703184 123.209844,7.82747334 123.209844,7.95117188 C123.209844,8.40690332 123.359582,8.87890381 123.659062,9.3671875 L124.451533,10.6775606 C125.050707,11.6860839 125.36923,12.2779347 125.407109,12.453125 C125.576381,12.7656266 125.661016,13.10742 125.661016,13.4785156 C125.654505,13.6477873 125.634974,13.826822 125.602422,14.015625 L125.104375,16.7207031 C125.039271,17.0852883 124.860236,17.3912748 124.567266,17.6386719 C124.274295,17.8795585 123.939012,18 123.561406,18 L121.227422,18 C120.882368,18 120.592657,17.8763033 120.358281,17.6289062 C120.130416,17.3815092 120.016484,17.0787778 120.016484,16.7207031 L120.016484,16.4960938 L120.631719,12.9511719 Z M126.891484,12.9511719 L128.512578,12.9511719 L127.985234,15.9492188 L127.985234,15.9980469 C127.985234,16.1087245 128.024296,16.2063798 128.102422,16.2910156 C128.180547,16.3756515 128.274947,16.4179688 128.385625,16.4179688 L129.284063,16.4179688 C129.427292,16.4179688 129.557499,16.3723963 129.674688,16.28125 C129.798386,16.1835933 129.873255,16.0664069 129.899297,15.9296875 L130.250859,13.9570312 C130.26388,13.8984372 130.270391,13.8365889 130.270391,13.7714844 C130.270391,13.548269 130.184295,13.2676591 130.0121,12.9296482 L129.08875,11.2128906 L129.08875,11.2128906 L128.209844,9.55273438 L128.209844,9.55273438 C127.962447,9.06445068 127.83875,8.58593984 127.83875,8.1171875 L127.83875,8.02929688 C127.83875,7.91861924 127.848516,7.80468809 127.868047,7.6875 L128.287969,5.265625 C128.353073,4.90103984 128.535363,4.5983085 128.834844,4.35742188 C129.121304,4.11653525 129.450076,3.99609375 129.821172,3.99609375 L132.164922,3.99609375 C132.503465,3.99609375 132.796431,4.11979043 133.043828,4.3671875 C133.297736,4.61458457 133.424688,4.92057109 133.424688,5.28515625 C133.424688,5.34158014 133.421794,5.39076975 133.416007,5.43272567 L132.789922,8.92773438 L131.149297,8.92773438 L131.666875,6.03710938 C131.679896,6.01757803 131.686406,5.99153662 131.686406,5.95898438 C131.686406,5.86132764 131.644089,5.77018271 131.559453,5.68554688 C131.474817,5.61393193 131.377162,5.578125 131.266484,5.578125 L130.368047,5.578125 C130.224817,5.578125 130.097865,5.62369746 129.987188,5.71484375 C129.87651,5.79947959 129.808151,5.90690039 129.782109,6.03710938 L129.498906,7.58984375 C129.479375,7.70703184 129.469609,7.82747334 129.469609,7.95117188 C129.469609,8.40690332 129.619347,8.87890381 129.918828,9.3671875 L130.473453,10.2798328 C131.226457,11.5316108 131.624261,12.2560359 131.666875,12.453125 C131.836147,12.7656266 131.920781,13.10742 131.920781,13.4785156 C131.914271,13.6477873 131.89474,13.826822 131.862188,14.015625 L131.364141,16.7207031 C131.299036,17.0852883 131.120001,17.3912748 130.827031,17.6386719 C130.534061,17.8795585 130.198778,18 129.821172,18 L127.487187,18 C127.142134,18 126.852423,17.8763033 126.618047,17.6289062 C126.390181,17.3815092 126.27625,17.0787778 126.27625,16.7207031 L126.27625,16.4960938 L126.891484,12.9511719 Z M133.961797,18 L132.272344,18 L134.821172,3.99609375 L136.500859,3.99609375 L133.961797,18 Z M134.791875,18 L139.411016,3.99609375 L141.090703,3.99609375 L140.65125,18 L139.059453,18 L139.176641,15.6953125 L137.262578,15.6953125 L136.578984,18 L134.791875,18 Z M139.254766,14.1132812 L139.567266,7.91210938 L137.731328,14.1132812 L139.254766,14.1132812 Z M141.481328,18 L144.020391,3.99609375 L145.709844,3.99609375 L145.905482,6.00171189 C146.282871,10.0031887 146.471563,12.8990796 146.471563,14.6894531 L146.488958,14.3249576 C146.601872,12.401202 147.103882,8.95827676 147.995,3.99609375 L149.684453,3.99609375 L147.145391,18 L145.455938,18 L145.268784,16.0697846 C144.892249,12.067084 144.703984,9.23069411 144.703984,7.56054688 L144.687269,7.87466205 C144.575701,9.60378156 144.073465,12.9788654 143.180547,18 L141.481328,18 Z M154.062891,12.6 C154.062891,9 152.962891,6.32 150.982891,4.24 C150.982891,4.04 151.062891,3.96 151.262891,3.94 C153.722891,5.56 155.382891,8.86 155.382891,12.6 C155.382891,16.34 153.722891,19.64 151.262891,21.26 C151.062891,21.24 150.982891,21.16 150.982891,20.96 C152.962891,18.88 154.062891,16.2 154.062891,12.6 Z" id="S-SMP(GAUSSIAN)" fill="#FFFFFF" fill-rule="nonzero"></path>
        </g>
    </g>
</svg>