<?xml version="1.0" encoding="UTF-8"?>
<svg width="435px" height="380px" viewBox="0 0 435 380" version="1.1" xmlns="http://www.w3.org/2000/svg" xmlns:xlink="http://www.w3.org/1999/xlink">
    <!-- Generator: Sketch 58 (84663) - https://sketch.com -->
    <title>S-SMP-BRR</title>
    <desc>Created with Sketch.</desc>
    <g id="S-SMP-BRR" stroke="none" stroke-width="1" fill="none" fill-rule="evenodd">
        <g id="bg" fill-rule="nonzero">
            <g fill="#C5C6BF" id="Background">
                <rect x="0" y="0" width="435" height="380" rx="1"></rect>
            </g>
            <g id="Logo/Panel/LightMode" transform="translate(186.000000, 364.000000)" fill="#000000">
                <g id="Logo/Print/LightMode" transform="translate(0.000000, -0.000000)">
                    <path d="M1.95775432,2.21673387 L3.38562168,2.21673387 L3.38562168,4.9702621 L6.06699634,2.21673387 L7.94254488,2.21673387 L5.09623504,4.9702621 L8.08863032,8.90322581 L6.22250665,8.90322581 L4.0783494,5.98185484 L3.38562168,6.66683468 L3.38562168,8.90322581 L1.95775432,8.90322581 L1.95775432,2.21673387 Z M11.6276679,6.49899194 C11.5428437,6.55040348 11.4572353,6.59198573 11.3708403,6.62373992 C11.2844452,6.65549411 11.1658502,6.6849797 11.0150515,6.71219758 L10.7134558,6.76663306 C10.4307084,6.8150204 10.2280757,6.87399159 10.1055519,6.94354839 C9.89820375,7.06149253 9.79453125,7.24445441 9.79453125,7.49243952 C9.79453125,7.71320675 9.85814847,7.87273136 9.98538481,7.97101815 C10.1126211,8.06930493 10.2673445,8.11844758 10.4495595,8.11844758 C10.7385902,8.11844758 11.00484,8.03679517 11.248317,7.8734879 C11.4917939,7.71018064 11.618243,7.41230055 11.6276679,6.97983871 L11.6276679,6.49899194 Z M10.8124169,5.89566532 C11.0606051,5.86542324 11.2381062,5.82762119 11.3449219,5.78225806 C11.5365618,5.70362864 11.6323803,5.58115003 11.6323803,5.41481855 C11.6323803,5.21219657 11.5593383,5.07232901 11.4132522,4.99521169 C11.267166,4.91809437 11.0527524,4.87953629 10.770005,4.87953629 C10.4526995,4.87953629 10.2280758,4.95514037 10.096127,5.10635081 C10.0018779,5.21824653 9.93904603,5.36945469 9.90762965,5.55997984 L8.61171044,5.55997984 C8.63998518,5.127518 8.76564882,4.77217881 8.98870512,4.49395161 C9.34371022,4.05846556 9.95317886,3.84072581 10.8171293,3.84072581 C11.3794825,3.84072581 11.8789955,3.9480836 12.3156832,4.16280242 C12.7523709,4.37752123 12.9707114,4.78275912 12.9707114,5.37852823 L12.9707114,7.64667339 C12.9707114,7.80393224 12.973853,7.99445453 12.9801363,8.21824597 C12.9895612,8.38760165 13.0162647,8.50251986 13.0602477,8.56300403 C13.1042306,8.62348821 13.170204,8.6733869 13.2581699,8.71270161 L13.2581699,8.90322581 L11.7973155,8.90322581 C11.7564742,8.80342692 11.7281999,8.70967786 11.7124917,8.62197581 C11.6967835,8.53427376 11.6842171,8.43447637 11.6747922,8.32258065 C11.4894356,8.51613 11.2758074,8.6809469 11.0339013,8.81703629 C10.7448706,8.97731935 10.4181451,9.05745968 10.0537151,9.05745968 C9.58875266,9.05745968 9.20469317,8.92968878 8.9015251,8.67414315 C8.59835703,8.41859751 8.44677527,8.05645396 8.44677527,7.58770161 C8.44677527,6.97983567 8.69024856,6.53981991 9.17720246,6.26764113 C9.44424169,6.1194549 9.83694056,6.01360919 10.3553108,5.95010081 L10.8124169,5.89566532 Z M15.5012882,3.95866935 L15.5012882,6.9390121 C15.5012882,7.2202635 15.5358457,7.43195493 15.6049618,7.57409274 C15.7274857,7.82510206 15.9678174,7.95060484 16.3259641,7.95060484 C16.7846433,7.95060484 17.0988023,7.7721792 17.2684508,7.41532258 C17.3564167,7.22177323 17.4003989,6.96623143 17.4003989,6.64868952 L17.4003989,3.95866935 L18.7622922,3.95866935 L18.7622922,8.90322581 L17.4569481,8.90322581 L17.4569481,8.2046371 L17.4405489,8.22641125 C17.4238355,8.24969746 17.3978858,8.28780215 17.3626995,8.34072581 C17.3124333,8.41633102 17.252743,8.48286262 17.183627,8.54032258 C16.9731372,8.7217751 16.7697192,8.8457658 16.5733669,8.91229839 C16.3770145,8.97883098 16.1468929,9.01209677 15.8829953,9.01209677 C15.1227189,9.01209677 14.6106396,8.74899457 14.346742,8.22278226 C14.199085,7.93245823 14.1252576,7.50453912 14.1252576,6.9390121 L14.1252576,3.95866935 L15.5012882,3.95866935 Z M19.5304189,4.92489919 L19.5304189,4.00403226 L20.2467088,4.00403226 L20.2467088,2.625 L21.575615,2.625 L21.575615,4.00403226 L22.4097158,4.00403226 L22.4097158,4.92489919 L21.575615,4.92489919 L21.575615,7.53780242 C21.575615,7.7404244 21.6023185,7.86668322 21.6557264,7.91658266 C21.7091342,7.9664821 21.872497,7.99143145 22.1458195,7.99143145 C22.1866608,7.99143145 22.2298577,7.99067541 22.2754114,7.98916331 C22.3209652,7.9876512 22.3657328,7.98538308 22.4097158,7.98235887 L22.4097158,8.94858871 L21.7735372,8.97127016 C21.1389263,8.99243962 20.7053868,8.88659391 20.4729056,8.65372984 C20.322107,8.50554361 20.2467088,8.27721928 20.2467088,7.96875 L20.2467088,4.92489919 L19.5304189,4.92489919 Z M25.2984375,4.89314516 C24.9874153,4.89314516 24.7462982,4.98689422 24.575079,5.17439516 C24.4038597,5.3618961 24.2962602,5.61592582 24.2522773,5.93649194 L26.3398853,5.93649194 C26.3178938,5.59475636 26.2102944,5.33543435 26.0170836,5.15851815 C25.8238729,4.98160194 25.5843266,4.89314516 25.2984375,4.89314516 Z M25.2984375,3.82711694 C25.7257003,3.82711694 26.1105452,3.9042331 26.4529837,4.05846774 C26.7954223,4.21270238 27.0781654,4.45614753 27.3012217,4.78881048 C27.5022866,5.08215872 27.6326626,5.4223771 27.6923537,5.80947581 C27.7269117,6.03629146 27.7410489,6.36290109 27.7347656,6.78931452 L24.2192902,6.78931452 C24.2381401,7.28528474 24.399932,7.63306352 24.7046709,7.83266129 C24.8900275,7.95665385 25.1130805,8.01864919 25.3738364,8.01864919 C25.6503006,8.01864919 25.8749243,7.94304511 26.0477144,7.79183468 C26.1419636,7.71018104 26.2252157,7.59677492 26.2974734,7.4516129 L27.6687916,7.4516129 C27.6342335,7.74496114 27.4755832,8.04284123 27.1928358,8.3452621 C26.7530064,8.82611128 26.1372546,9.06653226 25.3455618,9.06653226 C24.6921011,9.06653226 24.1156192,8.86391332 23.6160987,8.45866935 C23.1165783,8.05342539 22.8668218,7.39415779 22.8668218,6.48084677 C22.8668218,5.62499572 23.092231,4.96875228 23.543056,4.51209677 C23.9938811,4.05544127 24.5790024,3.82711694 25.2984375,3.82711694 Z M31.4858627,3.84072581 C32.0167995,3.84072581 32.4511245,3.97454503 32.7888506,4.2421875 C33.1265767,4.50982997 33.2954372,4.95362593 33.2954372,5.57358871 L33.2954372,8.90322581 L31.9194066,8.90322581 L31.9194066,5.89566532 C31.9194066,5.63558338 31.8832783,5.4359886 31.8110206,5.296875 C31.6790718,5.04284147 31.4277445,4.91582661 31.0570313,4.91582661 C30.6014937,4.91582661 30.2889054,5.10181266 30.119257,5.47379032 C30.0312911,5.67036389 29.9873088,5.92136944 29.9873088,6.22681452 L29.9873088,8.90322581 L28.6489777,8.90322581 L28.6489777,3.96774194 L29.9448969,3.96774194 L29.9448969,4.6890121 C30.117687,4.43497857 30.2810498,4.25201669 30.43499,4.14012097 C30.7114542,3.9405232 31.0617416,3.84072581 31.4858627,3.84072581 Z M35.9391124,3.36895161 L34.5960688,3.36895161 L34.5960688,2.17590726 L35.9391124,2.17590726 L35.9391124,3.36895161 Z M33.9504654,10.8855847 L33.9504654,9.85131048 L34.0978762,9.86197785 L34.0978762,9.86197785 L34.1106882,9.86265121 C34.1421045,9.86416331 34.1703789,9.86491935 34.195512,9.86491935 C34.3274608,9.86491935 34.4272063,9.83392168 34.4947515,9.7719254 C34.5622967,9.70992913 34.5960688,9.58971863 34.5960688,9.41129032 L34.5960688,3.98135081 L35.9391124,3.98135081 L35.9391124,9.43397177 C35.9391124,9.9329662 35.8370107,10.3019141 35.6328042,10.5408266 C35.435185,10.7720322 35.0536827,10.8913625 34.4882863,10.8988206 L34.4311336,10.8991935 C34.4077958,10.8991935 34.3780467,10.8986998 34.341886,10.8977123 L34.0479841,10.8881768 C34.0170809,10.8873128 33.9845746,10.8864487 33.9504654,10.8855847 Z M40.0483544,6.49899194 C39.9635302,6.55040348 39.8779218,6.59198573 39.7915268,6.62373992 C39.7051317,6.65549411 39.5865367,6.6849797 39.435738,6.71219758 L39.1341423,6.76663306 C38.8513949,6.8150204 38.6487622,6.87399159 38.5262384,6.94354839 C38.3188903,7.06149253 38.2152178,7.24445441 38.2152178,7.49243952 C38.2152178,7.71320675 38.278835,7.87273136 38.4060713,7.97101815 C38.5333077,8.06930493 38.688031,8.11844758 38.870246,8.11844758 C39.1592767,8.11844758 39.4255265,8.03679517 39.6690035,7.8734879 C39.9124804,7.71018064 40.0389295,7.41230055 40.0483544,6.97983871 L40.0483544,6.49899194 Z M39.2331034,5.89566532 C39.4812916,5.86542324 39.6587927,5.82762119 39.7656084,5.78225806 C39.9572483,5.70362864 40.0530668,5.58115003 40.0530668,5.41481855 C40.0530668,5.21219657 39.9800248,5.07232901 39.8339387,4.99521169 C39.6878525,4.91809437 39.4734389,4.87953629 39.1906915,4.87953629 C38.873386,4.87953629 38.6487623,4.95514037 38.5168135,5.10635081 C38.4225644,5.21824653 38.3597325,5.36945469 38.3283162,5.55997984 L37.0323969,5.55997984 C37.0606717,5.127518 37.1863353,4.77217881 37.4093916,4.49395161 C37.7643967,4.05846556 38.3738654,3.84072581 39.2378158,3.84072581 C39.800169,3.84072581 40.299682,3.9480836 40.7363697,4.16280242 C41.1730574,4.37752123 41.3913979,4.78275912 41.3913979,5.37852823 L41.3913979,7.64667339 C41.3913979,7.80393224 41.3945395,7.99445453 41.4008228,8.21824597 C41.4102477,8.38760165 41.4369512,8.50251986 41.4809342,8.56300403 C41.5249171,8.62348821 41.5908905,8.6733869 41.6788564,8.71270161 L41.6788564,8.90322581 L40.218002,8.90322581 C40.1771607,8.80342692 40.1488864,8.70967786 40.1331782,8.62197581 C40.11747,8.53427376 40.1049036,8.43447637 40.0954787,8.32258065 C39.9101221,8.51613 39.6964939,8.6809469 39.4545878,8.81703629 C39.1655571,8.97731935 38.8388316,9.05745968 38.4744016,9.05745968 C38.0094392,9.05745968 37.6253797,8.92968878 37.3222116,8.67414315 C37.0190435,8.41859751 36.8674618,8.05645396 36.8674618,7.58770161 C36.8674618,6.97983567 37.1109351,6.53981991 37.597889,6.26764113 C37.8649282,6.1194549 38.2576271,6.01360919 38.7759973,5.95010081 L39.2331034,5.89566532 Z M44.1010472,3.37802419 L44.1010472,7.74193548 L45.4393783,7.74193548 C46.1242554,7.74193548 46.6017772,7.41683793 46.8719581,6.76663306 C47.0196151,6.40977644 47.0934425,5.9848815 47.0934425,5.49193548 C47.0934425,4.81148853 46.9827014,4.28906432 46.7612159,3.92464718 C46.5397304,3.56023003 46.0991223,3.37802419 45.4393783,3.37802419 L44.1010472,3.37802419 Z M45.6844249,2.21673387 C46.1148293,2.22278229 46.4729706,2.2711689 46.7588597,2.36189516 C47.2458136,2.5161298 47.6400833,2.79888907 47.9416805,3.21018145 C48.1835866,3.54284441 48.3485202,3.90271984 48.436486,4.28981855 C48.5244519,4.67691726 48.5684342,5.04586518 48.5684342,5.39667339 C48.5684342,6.28579074 48.3830803,7.0388074 48.012367,7.65574597 C47.5097049,8.48740335 46.733732,8.90322581 45.6844249,8.90322581 L42.6920296,8.90322581 L42.6920296,2.21673387 L45.6844249,2.21673387 Z M50.7125914,6.83921371 C50.7565744,7.14465879 50.8429681,7.37298311 50.9717753,7.52419355 C51.2073981,7.79939654 51.6110926,7.93699597 52.1828707,7.93699597 C52.5253092,7.93699597 52.80334,7.90070601 53.0169714,7.828125 C53.4222427,7.6890114 53.6248753,7.43044544 53.6248753,7.05241935 C53.6248753,6.83165212 53.5243444,6.6607869 53.3232796,6.53981855 C53.132268,6.42777162 52.8377712,6.32800817 52.4397811,6.24052551 L51.6409408,6.06804435 C50.9183641,5.9107855 50.4188511,5.73992028 50.142387,5.55544355 C49.6742829,5.24697426 49.4402344,4.76462022 49.4402344,4.10836694 C49.4402344,3.50957362 49.6664289,3.01209876 50.1188248,2.61592742 C50.5712207,2.21975608 51.2356672,2.02167339 52.1121842,2.02167339 C52.8441858,2.02167339 53.468577,2.20841547 53.9853765,2.58190524 C54.502176,2.95539501 54.7731382,3.49747629 54.7982713,4.20816532 L53.403391,4.20816532 C53.3782579,3.80594557 53.1960456,3.52016214 52.8567487,3.35080645 C52.6305507,3.23891073 52.3493783,3.18296371 52.0132231,3.18296371 C51.6393681,3.18296371 51.340917,3.25554363 51.1178607,3.40070565 C50.8948044,3.54586766 50.7832779,3.7484866 50.7832779,4.00856855 C50.7832779,4.23662137 50.8834648,4.40956118 51.0838415,4.52739263 L51.1131483,4.54385081 C51.248867,4.61933505 51.5322436,4.70736003 51.9632861,4.80792817 L53.2148936,5.09727823 C53.7395472,5.21824657 54.1353876,5.38003931 54.4024269,5.58266129 C54.8171231,5.89717899 55.0244681,6.35231557 55.0244681,6.94808468 C55.0244681,7.55897483 54.7817802,8.06627822 54.2963971,8.47001008 C53.811014,8.87374194 53.1253618,9.07560484 52.2394199,9.07560484 C51.3346281,9.07560484 50.6230578,8.8767661 50.1046875,8.47908266 C49.5863172,8.08139922 49.327136,7.5347817 49.327136,6.83921371 L50.7125914,6.83921371 Z M60.0102227,4.34425403 C60.0102227,3.99647004 59.9151896,3.74848864 59.7251205,3.60030242 C59.5350514,3.45211619 59.2688016,3.37802419 58.926363,3.37802419 L57.5738946,3.37802419 L57.5738946,5.34677419 L58.926363,5.34677419 C59.2688016,5.34677419 59.5350514,5.26663387 59.7251205,5.10635081 C59.9151896,4.94606775 60.0102227,4.69203803 60.0102227,4.34425403 Z M61.447515,4.33518145 C61.447515,5.12449991 61.24017,5.68245804 60.8254737,6.00907258 C60.4107775,6.33568712 59.8185876,6.49899194 59.0488863,6.49899194 L57.5738946,6.49899194 L57.5738946,8.90322581 L56.13189,8.90322581 L56.13189,2.21673387 L59.1572723,2.21673387 C59.8547159,2.21673387 60.4107775,2.38911118 60.8254737,2.73387097 C61.24017,3.07863076 61.447515,3.61239558 61.447515,4.33518145 Z" id="KautenjaDSP"></path>
                </g>
            </g>
            <path d="M188.8125,12.4560547 L190.271484,12.4560547 L189.796875,15.1542969 L189.796875,15.1982422 C189.796875,15.2978521 189.832031,15.3857418 189.902344,15.4619141 C189.972657,15.5380863 190.057617,15.5761719 190.157227,15.5761719 L190.96582,15.5761719 C191.094727,15.5761719 191.211914,15.5351567 191.317383,15.453125 C191.428711,15.3652339 191.496094,15.2597662 191.519531,15.1367188 L191.835938,13.3613281 C191.847656,13.3085935 191.853516,13.25293 191.853516,13.1943359 C191.853516,12.9934421 191.776029,12.7408932 191.621054,12.4366834 L189.999023,9.39746094 L189.999023,9.39746094 C189.776366,8.95800562 189.665039,8.52734586 189.665039,8.10546875 L189.665039,8.02636719 C189.665039,7.92675731 189.673828,7.82421928 189.691406,7.71875 L190.069336,5.5390625 C190.12793,5.21093586 190.291991,4.93847765 190.561523,4.72167969 C190.819337,4.50488173 191.115233,4.39648438 191.449219,4.39648438 L193.558594,4.39648438 C193.863283,4.39648438 194.126952,4.50781139 194.349609,4.73046875 C194.578126,4.95312611 194.692383,5.22851398 194.692383,5.55664062 C194.692383,5.60742213 194.689779,5.65169277 194.68457,5.68945311 L194.121094,8.83496094 L192.644531,8.83496094 L193.110352,6.23339844 C193.12207,6.21582022 193.12793,6.19238296 193.12793,6.16308594 C193.12793,6.07519487 193.089844,5.99316444 193.013672,5.91699219 C192.9375,5.85253874 192.84961,5.8203125 192.75,5.8203125 L191.941406,5.8203125 C191.812499,5.8203125 191.698243,5.86132771 191.598633,5.94335938 C191.499023,6.01953163 191.4375,6.11621035 191.414062,6.23339844 L191.15918,7.63085938 C191.141601,7.73632865 191.132812,7.84472601 191.132812,7.95605469 C191.132812,8.36621299 191.267577,8.79101343 191.537109,9.23046875 L192.199038,10.3236117 C192.771426,11.2838177 193.075195,11.845214 193.110352,12.0078125 C193.262696,12.2890639 193.338867,12.596678 193.338867,12.9306641 C193.333008,13.0830086 193.31543,13.2441398 193.286133,13.4140625 L192.837891,15.8486328 C192.779297,16.1767595 192.618165,16.4521473 192.354492,16.6748047 C192.090819,16.8916026 191.789064,17 191.449219,17 L189.348633,17 C189.038084,17 188.777345,16.888673 188.566406,16.6660156 C188.361327,16.4433583 188.258789,16.1709 188.258789,15.8486328 L188.258789,15.6464844 L188.8125,12.4560547 Z M195.035156,11.1728516 L199.447266,11.1728516 L199.104492,12.7988281 L194.692383,12.7988281 L195.035156,11.1728516 Z M200.44043,12.4560547 L201.899414,12.4560547 L201.424805,15.1542969 L201.424805,15.1982422 C201.424805,15.2978521 201.459961,15.3857418 201.530273,15.4619141 C201.600586,15.5380863 201.685546,15.5761719 201.785156,15.5761719 L202.59375,15.5761719 C202.722657,15.5761719 202.839843,15.5351567 202.945312,15.453125 C203.056641,15.3652339 203.124023,15.2597662 203.147461,15.1367188 L203.463867,13.3613281 C203.475586,13.3085935 203.481445,13.25293 203.481445,13.1943359 C203.481445,12.9934421 203.403959,12.7408932 203.248984,12.4366834 L201.626953,9.39746094 L201.626953,9.39746094 C201.404296,8.95800562 201.292969,8.52734586 201.292969,8.10546875 L201.292969,8.02636719 C201.292969,7.92675731 201.301758,7.82421928 201.319336,7.71875 L201.697266,5.5390625 C201.75586,5.21093586 201.919921,4.93847765 202.189453,4.72167969 C202.447267,4.50488173 202.743162,4.39648438 203.077148,4.39648438 L205.186523,4.39648438 C205.491212,4.39648438 205.754882,4.50781139 205.977539,4.73046875 C206.206056,4.95312611 206.320312,5.22851398 206.320312,5.55664062 C206.320312,5.60742213 206.317708,5.65169277 206.3125,5.68945311 L205.749023,8.83496094 L204.272461,8.83496094 L204.738281,6.23339844 C204.75,6.21582022 204.755859,6.19238296 204.755859,6.16308594 C204.755859,6.07519487 204.717774,5.99316444 204.641602,5.91699219 C204.565429,5.85253874 204.47754,5.8203125 204.37793,5.8203125 L203.569336,5.8203125 C203.440429,5.8203125 203.326172,5.86132771 203.226562,5.94335938 C203.126953,6.01953163 203.06543,6.11621035 203.041992,6.23339844 L202.787109,7.63085938 C202.769531,7.73632865 202.760742,7.84472601 202.760742,7.95605469 C202.760742,8.36621299 202.895506,8.79101343 203.165039,9.23046875 L203.826967,10.3236117 C204.399356,11.2838177 204.703125,11.845214 204.738281,12.0078125 C204.890626,12.2890639 204.966797,12.596678 204.966797,12.9306641 C204.960937,13.0830086 204.94336,13.2441398 204.914062,13.4140625 L204.46582,15.8486328 C204.407226,16.1767595 204.246095,16.4521473 203.982422,16.6748047 C203.718749,16.8916026 203.416994,17 203.077148,17 L200.976562,17 C200.666014,17 200.405274,16.888673 200.194336,16.6660156 C199.989257,16.4433583 199.886719,16.1709 199.886719,15.8486328 L199.886719,15.6464844 L200.44043,12.4560547 Z M207.577148,4.39648438 L209.387695,4.39648438 L209.291016,13.4755859 L212.332031,4.39648438 L214.423828,4.39648438 L212.138672,17 L210.618164,17 L212.015625,9.13378906 L209.361328,17 L208.078125,17 L208.174805,9.03710938 L206.803711,17 L205.283203,17 L207.577148,4.39648438 Z M215.478516,4.39648438 L218.791992,4.39648438 C219.102541,4.39648438 219.36914,4.51074104 219.591797,4.73925781 C219.808595,4.95605577 219.916992,5.20507672 219.916992,5.48632812 C219.916992,5.56250038 219.908203,5.64746047 219.890625,5.74121094 L219.082031,10.2060547 C219.023437,10.5400407 218.865236,10.8154286 218.607422,11.0322266 C218.349608,11.2490245 218.053713,11.3574219 217.719727,11.3574219 L215.742188,11.3574219 L214.713867,17.0087891 L213.193359,17.0087891 L215.478516,4.39648438 Z M217.209961,9.93359375 C217.338868,9.93359375 217.453125,9.89257854 217.552734,9.81054688 C217.646485,9.73437462 217.705078,9.63476624 217.728516,9.51171875 L218.352539,6.23339844 L218.352539,6.18066406 C218.352539,6.07519479 218.317383,5.98730504 218.24707,5.91699219 C218.176757,5.85253874 218.091797,5.8203125 217.992188,5.8203125 L216.735352,5.8203125 L215.970703,9.93359375 L217.209961,9.93359375 Z M225.313477,3.87792969 L226.412109,3.87792969 L225.762872,4.77998234 C224.81426,6.11462421 224.151771,7.12936233 223.775391,7.82421875 C223.08984,9.10742829 222.568361,10.5898353 222.210938,12.2714844 C221.847654,13.9707116 221.753905,15.5234305 221.929688,16.9296875 C222.041016,17.7968793 222.35449,19.0449137 222.870117,20.6738281 L221.806641,20.6738281 L221.149159,19.1193339 C220.978808,18.7064442 220.857266,18.3988286 220.784531,18.1964846 L220.756348,18.1162109 C220.63037,17.7470685 220.514649,17.2460969 220.40918,16.6132812 C220.262695,15.7460894 220.230468,14.8203174 220.3125,13.8359375 C220.359375,13.3261693 220.429687,12.8398461 220.523438,12.3769531 C220.89258,10.6425695 221.49316,9.09863958 222.325195,7.74511719 C222.858401,6.88378476 223.854485,5.59473515 225.313477,3.87792969 Z M227.185547,4.39648438 L230.499023,4.39648438 C230.809572,4.39648438 231.076171,4.51074104 231.298828,4.73925781 C231.515626,4.95605577 231.624023,5.20507672 231.624023,5.48632812 C231.624023,5.56250038 231.615234,5.64746047 231.597656,5.74121094 L230.859375,9.71386719 C230.753906,10.2646512 230.428714,10.6162102 229.883789,10.7685547 C230.088868,10.8447269 230.24414,10.9794912 230.349609,11.1728516 C230.431641,11.3251961 230.472656,11.4951163 230.472656,11.6826172 C230.472656,11.723633 230.469727,11.7675779 230.463867,11.8144531 L230.459961,11.9628906 C230.458659,11.9830729 230.457031,12.0009765 230.455078,12.0166016 L229.760742,15.8486328 C229.702148,16.1826189 229.543947,16.4580067 229.286133,16.6748047 C229.028319,16.8916026 228.732424,17 228.398438,17 L224.900391,17 L227.185547,4.39648438 Z M227.695312,9.93359375 L228.916992,9.93359375 C229.045899,9.93359375 229.160156,9.88964888 229.259766,9.80175781 C229.353516,9.71972615 229.412109,9.61718812 229.435547,9.49414062 L230.05957,6.23339844 L230.05957,6.18066406 C230.05957,6.07519479 230.024414,5.98730504 229.954102,5.91699219 C229.883789,5.85253874 229.798829,5.8203125 229.699219,5.8203125 L228.442383,5.8203125 L227.695312,9.93359375 Z M226.675781,15.5761719 L227.888672,15.5761719 C228.017579,15.5761719 228.131835,15.5351567 228.231445,15.453125 C228.325196,15.3769527 228.383789,15.2773444 228.407227,15.1542969 L229.004883,11.8408203 L229.004883,11.796875 C229.004883,11.6972651 228.969727,11.612305 228.899414,11.5419922 C228.829101,11.4716793 228.744141,11.4365234 228.644531,11.4365234 L227.422852,11.4365234 L226.675781,15.5761719 Z M230.62207,17 L232.880859,4.39648438 L236.264648,4.39648438 C236.569337,4.39648438 236.833007,4.50781139 237.055664,4.73046875 C237.278321,4.94726671 237.395508,5.21386561 237.407227,5.53027344 L237.37207,5.74121094 L237.37207,5.74121094 L236.668945,9.71386719 C236.569335,10.2646512 236.244143,10.6162102 235.693359,10.7685547 C235.898439,10.8447269 236.05371,10.9794912 236.15918,11.1728516 C236.241211,11.3251961 236.282227,11.4951163 236.282227,11.6826172 C236.282227,11.723633 236.279297,11.7675779 236.273438,11.8144531 L236.269531,11.9628906 C236.268229,11.9830729 236.266602,12.0009765 236.264648,12.0166016 L235.350586,17 L233.803711,17 L234.726562,11.8408203 L234.726562,11.796875 C234.726562,11.6972651 234.691407,11.612305 234.621094,11.5419922 C234.550781,11.4716793 234.465821,11.4365234 234.366211,11.4365234 L233.144531,11.4365234 L232.160156,17 L230.62207,17 Z M233.416992,9.93359375 L234.638672,9.93359375 C234.767579,9.93359375 234.881835,9.88964888 234.981445,9.80175781 C235.075196,9.71972615 235.133789,9.61718812 235.157227,9.49414062 L235.754883,6.23339844 L235.754883,6.18066406 C235.754883,6.07519479 235.719727,5.98730504 235.649414,5.91699219 C235.573242,5.85253874 235.482422,5.8203125 235.376953,5.8203125 L234.164062,5.8203125 L233.416992,9.93359375 Z M236.405273,17 L238.664062,4.39648438 L242.047852,4.39648438 C242.352541,4.39648438 242.61621,4.50781139 242.838867,4.73046875 C243.061525,4.94726671 243.178711,5.21386561 243.19043,5.53027344 L243.155273,5.74121094 L243.155273,5.74121094 L242.452148,9.71386719 C242.352539,10.2646512 242.027347,10.6162102 241.476562,10.7685547 C241.681642,10.8447269 241.836914,10.9794912 241.942383,11.1728516 C242.024414,11.3251961 242.06543,11.4951163 242.06543,11.6826172 C242.06543,11.723633 242.0625,11.7675779 242.056641,11.8144531 L242.052734,11.9628906 C242.051432,11.9830729 242.049805,12.0009765 242.047852,12.0166016 L241.133789,17 L239.586914,17 L240.509766,11.8408203 L240.509766,11.796875 C240.509766,11.6972651 240.47461,11.612305 240.404297,11.5419922 C240.333984,11.4716793 240.249024,11.4365234 240.149414,11.4365234 L238.927734,11.4365234 L237.943359,17 L236.405273,17 Z M239.200195,9.93359375 L240.421875,9.93359375 C240.550782,9.93359375 240.665039,9.88964888 240.764648,9.80175781 C240.858399,9.71972615 240.916992,9.61718812 240.94043,9.49414062 L241.538086,6.23339844 L241.538086,6.18066406 C241.538086,6.07519479 241.50293,5.98730504 241.432617,5.91699219 C241.356445,5.85253874 241.265626,5.8203125 241.160156,5.8203125 L239.947266,5.8203125 L239.200195,9.93359375 Z M242.522461,20.6738281 L241.432617,20.6738281 L241.87785,20.0531781 C242.945922,18.5526471 243.676411,17.4353208 244.069336,16.7011719 C244.743167,15.4414 245.261717,13.9648522 245.625,12.2714844 C245.982424,10.5781165 246.073243,9.02832734 245.897461,7.62207031 C245.791992,6.75487848 245.481448,5.50684408 244.96582,3.87792969 L246.029297,3.87792969 L246.745606,5.62585656 C246.924317,6.07043553 247.042968,6.37695228 247.101562,6.54541016 C247.218751,6.8823259 247.327148,7.34667673 247.426758,7.93847656 C247.549805,8.6709021 247.595215,9.39452768 247.562988,10.109375 C247.530762,10.8242223 247.444337,11.512692 247.303711,12.1748047 C246.934568,13.9091884 246.331059,15.4560479 245.493164,16.8154297 L245.271789,17.1621866 C244.705261,18.0164657 243.788825,19.1870043 242.522461,20.6738281 Z" id="S-SMP(BRR)" fill="#E4000F"></path>
        </g>
    </g>
</svg>