<?xml version="1.0" encoding="UTF-8"?>
<svg width="150px" height="380px" viewBox="0 0 150 380" version="1.1" xmlns="http://www.w3.org/2000/svg" xmlns:xlink="http://www.w3.org/1999/xlink">
    <!-- Generator: Sketch 58 (84663) - https://sketch.com -->
    <title>SN76489</title>
    <desc>Created with Sketch.</desc>
    <g id="SN76489" stroke="none" stroke-width="1" fill="none" fill-rule="evenodd">
        <g id="bg">
            <g id="ChipModule10HP">
                <rect id="Background" fill="#404040" fill-rule="nonzero" x="0" y="0" width="150" height="380" rx="1"></rect>
                <g id="Chip10HP" transform="translate(0.500000, 0.000000)" fill-rule="evenodd">
                    <g id="leads" stroke-width="1" transform="translate(1.500000, 5.000000)" fill="#E0D9C5">
                        <rect id="Rectangle" x="0" y="0" width="146" height="10" rx="2"></rect>
                        <rect id="Rectangle-Copy" x="0" y="20" width="146" height="10" rx="2"></rect>
                        <rect id="Rectangle-Copy-3" x="0" y="40" width="146" height="10" rx="2"></rect>
                        <rect id="Rectangle-Copy-2" x="0" y="60" width="146" height="10" rx="2"></rect>
                        <rect id="Rectangle-Copy-7" x="0" y="140" width="146" height="10" rx="2"></rect>
                        <rect id="Rectangle-Copy-6" x="0" y="80" width="146" height="10" rx="2"></rect>
                        <rect id="Rectangle-Copy-5" x="0" y="100" width="146" height="10" rx="2"></rect>
                        <rect id="Rectangle-Copy-4" x="0" y="120" width="146" height="10" rx="2"></rect>
                        <rect id="Rectangle-Copy-15" x="0" y="160" width="146" height="10" rx="2"></rect>
                        <rect id="Rectangle-Copy-14" x="0" y="180" width="146" height="10" rx="2"></rect>
                        <rect id="Rectangle-Copy-13" x="0" y="200" width="146" height="10" rx="2"></rect>
                        <rect id="Rectangle-Copy-12" x="0" y="220" width="146" height="10" rx="2"></rect>
                        <rect id="Rectangle-Copy-11" x="0" y="300" width="146" height="10" rx="2"></rect>
                        <rect id="Rectangle-Copy-10" x="0" y="240" width="146" height="10" rx="2"></rect>
                        <rect id="Rectangle-Copy-9" x="0" y="260" width="146" height="10" rx="2"></rect>
                        <rect id="Rectangle-Copy-8" x="0" y="280" width="146" height="10" rx="2"></rect>
                        <rect id="Rectangle-Copy-18" x="0" y="320" width="146" height="10" rx="2"></rect>
                        <rect id="Rectangle-Copy-17" x="0" y="340" width="146" height="10" rx="2"></rect>
                        <rect id="Rectangle-Copy-16" x="0" y="360" width="146" height="10" rx="2"></rect>
                    </g>
                    <rect id="cover" fill="#1D1D1D" x="5" y="0" width="139" height="380" rx="2"></rect>
                </g>
                <g id="KautenjaDSP/bottom/white" transform="translate(43.500000, 364.000000)" fill="#FFFFFF" fill-rule="evenodd" stroke-width="1">
                    <g id="Group-3">
                        <path d="M-2.13162821e-14,0.17 L-2.13162821e-14,7.31 L1.57,7.31 L1.57,5.01 L2.47,4.1 L4.62,7.31 L6.59,7.31 L3.53,2.99 L6.32,0.17 L4.36,0.17 L1.57,3.13 L1.57,0.17 L-2.13162821e-14,0.17 Z M7.01,3.73 C7.0300001,3.396665 7.1133326,3.1200011 7.26,2.9 C7.4066674,2.6799989 7.5933322,2.503334 7.82,2.37 C8.0466678,2.236666 8.30166525,2.14166695 8.585,2.085 C8.86833475,2.02833305 9.1533319,2 9.44,2 C9.7000013,2 9.963332,2.01833315 10.23,2.055 C10.496668,2.09166685 10.7399989,2.1633328 10.96,2.27 C11.1800011,2.3766672 11.3599993,2.52499905 11.5,2.715 C11.6400007,2.90500095 11.71,3.1566651 11.71,3.47 L11.71,6.16 C11.71,6.3933345 11.7233332,6.6166656 11.75,6.83 C11.7766668,7.0433344 11.823333,7.2033328 11.89,7.31 L10.45,7.31 C10.4233332,7.2299996 10.4016667,7.14833375 10.385,7.065 C10.3683332,6.98166625 10.3566667,6.8966671 10.35,6.81 C10.1233322,7.0433345 9.8566682,7.2066662 9.55,7.3 C9.2433318,7.3933338 8.9300016,7.44 8.61,7.44 C8.3633321,7.44 8.1333344,7.4100003 7.92,7.35 C7.7066656,7.2899997 7.5200008,7.1966673 7.36,7.07 C7.1999992,6.9433327 7.07500045,6.7833343 6.985,6.59 C6.89499955,6.3966657 6.85,6.166668 6.85,5.9 C6.85,5.6066652 6.90166615,5.36500095 7.005,5.175 C7.10833385,4.98499905 7.24166585,4.8333339 7.405,4.72 C7.56833415,4.6066661 7.75499895,4.52166695 7.965,4.465 C8.17500105,4.40833305 8.3866656,4.3633335 8.6,4.33 L8.91750001,4.28499998 L8.91750001,4.28499998 L9.23,4.25 C9.4366677,4.2299999 9.6199992,4.2000002 9.78,4.16 C9.9400008,4.1199998 10.0666662,4.06166705 10.16,3.985 C10.2533338,3.90833295 10.2966667,3.7966674 10.29,3.65 C10.29,3.4966659 10.2650002,3.37500045 10.215,3.285 C10.1649997,3.19499955 10.0983337,3.12500025 10.015,3.075 C9.93166625,3.02499975 9.83500055,2.99166675 9.725,2.975 C9.61499945,2.95833325 9.4966673,2.95 9.37,2.95 C9.0899986,2.95 8.8700008,3.0099994 8.71,3.13 C8.5499992,3.2500006 8.4566668,3.4499986 8.43,3.73 L7.01,3.73 Z M10.29,4.78 C10.2299997,4.8333336 10.1550004,4.87499985 10.065,4.905 C9.97499955,4.93500015 9.87833385,4.9599999 9.775,4.98 L9.61625002,5.00750001 L9.61625002,5.00750001 L9.45,5.03 C9.3366661,5.0433334 9.2233339,5.0599999 9.11,5.08 C9.0033328,5.1000001 8.89833385,5.1266665 8.795,5.16 C8.69166615,5.1933335 8.60166705,5.23833305 8.525,5.295 C8.44833295,5.35166695 8.3866669,5.4233329 8.34,5.51 C8.2933331,5.5966671 8.27,5.706666 8.27,5.84 C8.27,5.9666673 8.2933331,6.0733329 8.34,6.16 C8.3866669,6.2466671 8.4499996,6.31499975 8.53,6.365 C8.6100004,6.41500025 8.7033328,6.4499999 8.81,6.47 C8.9166672,6.4900001 9.0266661,6.5 9.14,6.5 C9.4200014,6.5 9.6366659,6.4533338 9.79,6.36 C9.9433341,6.2666662 10.0566663,6.15500065 10.13,6.025 C10.2033337,5.89499935 10.2483332,5.763334 10.265,5.63 L10.2872222,5.39888892 C10.2890741,5.3662964 10.29,5.3366668 10.29,5.31 L10.29,4.78 Z M17.66,7.31 L17.66,2.14 L16.24,2.14 L16.24,4.85 C16.24,5.3766693 16.1533342,5.75499885 15.98,5.985 C15.8066658,6.21500115 15.5266686,6.33 15.14,6.33 C14.7999983,6.33 14.563334,6.22500105 14.43,6.015 C14.296666,5.80499895 14.23,5.4866688 14.23,5.06 L14.23,2.14 L12.81,2.14 L12.81,5.32 C12.81,5.64 12.838333,5.93166535 12.895,6.195 C12.9516669,6.45833465 13.0499993,6.68166575 13.19,6.865 C13.3300007,7.04833425 13.5216654,7.1899995 13.765,7.29 C14.0083345,7.3900005 14.3199981,7.44 14.7,7.44 C15.0000015,7.44 15.2933319,7.373334 15.58,7.24 C15.8666681,7.106666 16.0999991,6.8900015 16.28,6.59 L16.31,6.59 L16.31,7.31 L17.66,7.31 Z M20.54,2.14 L20.54,0.59 L19.12,0.59 L19.12,2.14 L18.26,2.14 L18.26,3.09 L19.12,3.09 L19.12,6.14 C19.12,6.4000013 19.1633329,6.6099992 19.25,6.77 C19.3366671,6.9300008 19.4549992,7.0533329 19.605,7.14 C19.7550007,7.2266671 19.9283323,7.28499985 20.125,7.315 C20.3216676,7.34500015 20.5299989,7.36 20.75,7.36 C20.8900007,7.36 21.0333326,7.3566667 21.18,7.35 C21.3266674,7.3433333 21.4599994,7.3300001 21.58,7.31 L21.58,6.21 C21.513333,6.2233334 21.4433337,6.2333333 21.37,6.24 C21.2966663,6.2466667 21.2200004,6.25 21.14,6.25 C20.8999988,6.25 20.7400004,6.2100004 20.66,6.13 C20.5799996,6.0499996 20.54,5.8900012 20.54,5.65 L20.54,3.09 L21.58,3.09 L21.58,2.14 L20.54,2.14 Z M25.74,4.17 L23.43,4.17 C23.4366667,4.07 23.4583331,3.9566673 23.495,3.83 C23.5316668,3.7033327 23.5949995,3.5833339 23.685,3.47 C23.7750004,3.3566661 23.8949992,3.26166705 24.045,3.185 C24.1950007,3.10833295 24.3833322,3.07 24.61,3.07 C24.9566684,3.07 25.2149991,3.1633324 25.385,3.35 C25.5550008,3.5366676 25.673333,3.8099982 25.74,4.17 Z M23.43,5.07 L27.16,5.07 C27.1866668,4.669998 27.1533338,4.2866685 27.06,3.92 C26.9666662,3.5533315 26.815001,3.2266681 26.605,2.94 C26.3949989,2.6533319 26.1266683,2.42500085 25.8,2.255 C25.4733317,2.08499915 25.0900022,2 24.65,2 C24.2566647,2 23.8983349,2.0699993 23.575,2.21 C23.251665,2.3500007 22.9733345,2.54166545 22.74,2.785 C22.5066655,3.02833455 22.3266673,3.316665 22.2,3.65 C22.0733327,3.983335 22.01,4.3433314 22.01,4.73 C22.01,5.130002 22.071666,5.496665 22.195,5.83 C22.3183339,6.163335 22.4933322,6.4499988 22.72,6.69 C22.9466678,6.9300012 23.2233317,7.11499935 23.55,7.245 C23.8766683,7.37500065 24.2433313,7.44 24.65,7.44 C25.2366696,7.44 25.7366646,7.306668 26.15,7.04 C26.5633354,6.773332 26.869999,6.3300031 27.07,5.71 L25.82,5.71 C25.7733331,5.8700008 25.6466677,6.02166595 25.44,6.165 C25.2333323,6.30833405 24.9866681,6.38 24.7,6.38 C24.299998,6.38 23.9933344,6.2766677 23.78,6.07 C23.5666656,5.8633323 23.4500001,5.5300023 23.43,5.07 Z M28,2.14 L28,7.31 L29.42,7.31 L29.42,4.6 C29.42,4.0733307 29.5066658,3.69500115 29.68,3.465 C29.8533342,3.23499885 30.1333314,3.12 30.52,3.12 C30.8600017,3.12 31.096666,3.22499895 31.23,3.435 C31.363334,3.64500105 31.43,3.9633312 31.43,4.39 L31.43,7.31 L32.85,7.31 L32.85,4.13 C32.85,3.8099984 32.8216669,3.51833465 32.765,3.255 C32.708333,2.99166535 32.6100007,2.76833425 32.47,2.585 C32.3299993,2.40166575 32.1383345,2.25833385 31.895,2.155 C31.6516654,2.05166615 31.3400019,2 30.96,2 C30.6599985,2 30.3666681,2.06833265 30.08,2.205 C29.7933319,2.34166735 29.5600009,2.5599985 29.38,2.86 L29.35,2.86 L29.35,2.14 L28,2.14 Z M35.48,1.34 L35.48,0.17 L34.06,0.17 L34.06,1.34 L35.48,1.34 Z M33.21,7.91 L33.21,9.08 C33.343334,9.1066668 33.4933325,9.12 33.66,9.12 C34.0200018,9.12 34.3166655,9.08833365 34.55,9.025 C34.7833345,8.96166635 34.9683326,8.86500065 35.105,8.735 C35.2416673,8.60499935 35.338333,8.4433343 35.395,8.25 C35.4516669,8.0566657 35.48,7.826668 35.48,7.56 L35.48,2.14 L34.06,2.14 L34.06,7.49 C34.06,7.6833343 34.0050005,7.80833305 33.895,7.865 C33.7849994,7.92166695 33.6566674,7.95 33.51,7.95 C33.3833327,7.95 33.2833337,7.9366668 33.21,7.91 Z M36.65,3.73 C36.6700001,3.396665 36.7533326,3.1200011 36.9,2.9 C37.0466674,2.6799989 37.2333322,2.503334 37.46,2.37 C37.6866678,2.236666 37.9416652,2.14166695 38.225,2.085 C38.5083347,2.02833305 38.7933319,2 39.08,2 C39.3400013,2 39.603332,2.01833315 39.87,2.055 C40.136668,2.09166685 40.3799989,2.1633328 40.6,2.27 C40.8200011,2.3766672 40.9999993,2.52499905 41.14,2.715 C41.2800007,2.90500095 41.35,3.1566651 41.35,3.47 L41.35,6.16 C41.35,6.3933345 41.3633332,6.6166656 41.39,6.83 C41.4166668,7.0433344 41.463333,7.2033328 41.53,7.31 L40.09,7.31 C40.0633332,7.2299996 40.0416667,7.14833375 40.025,7.065 C40.0083332,6.98166625 39.9966667,6.8966671 39.99,6.81 C39.7633322,7.0433345 39.4966682,7.2066662 39.19,7.3 C38.8833318,7.3933338 38.5700016,7.44 38.25,7.44 C38.0033321,7.44 37.7733344,7.4100003 37.56,7.35 C37.3466656,7.2899997 37.1600008,7.1966673 37,7.07 C36.8399992,6.9433327 36.7150004,6.7833343 36.625,6.59 C36.5349995,6.3966657 36.49,6.166668 36.49,5.9 C36.49,5.6066652 36.5416661,5.36500095 36.645,5.175 C36.7483338,4.98499905 36.8816658,4.8333339 37.045,4.72 C37.2083341,4.6066661 37.3949989,4.52166695 37.605,4.465 C37.815001,4.40833305 38.0266656,4.3633335 38.24,4.33 C38.4533344,4.2966665 38.6633323,4.2700001 38.87,4.25 C39.0766677,4.2299999 39.2599992,4.2000002 39.42,4.16 C39.5800008,4.1199998 39.7066662,4.06166705 39.8,3.985 C39.8933338,3.90833295 39.9366667,3.7966674 39.93,3.65 C39.93,3.4966659 39.9050002,3.37500045 39.855,3.285 C39.8049997,3.19499955 39.7383337,3.12500025 39.655,3.075 C39.5716662,3.02499975 39.4750005,2.99166675 39.365,2.975 C39.2549994,2.95833325 39.1366673,2.95 39.01,2.95 C38.7299986,2.95 38.5100008,3.0099994 38.35,3.13 C38.1899992,3.2500006 38.0966668,3.4499986 38.07,3.73 L36.65,3.73 Z M39.93,4.78 C39.8699997,4.8333336 39.7950004,4.87499985 39.705,4.905 C39.6149995,4.93500015 39.5183338,4.9599999 39.415,4.98 L39.25625,5.00750001 L39.25625,5.00750001 L39.09,5.03 C38.9766661,5.0433334 38.8633339,5.0599999 38.75,5.08 C38.6433328,5.1000001 38.5383338,5.1266665 38.435,5.16 C38.3316661,5.1933335 38.241667,5.23833305 38.165,5.295 C38.0883329,5.35166695 38.0266669,5.4233329 37.98,5.51 C37.9333331,5.5966671 37.91,5.706666 37.91,5.84 C37.91,5.9666673 37.9333331,6.0733329 37.98,6.16 C38.0266669,6.2466671 38.0899996,6.31499975 38.17,6.365 C38.2500004,6.41500025 38.3433328,6.4499999 38.45,6.47 C38.5566672,6.4900001 38.6666661,6.5 38.78,6.5 C39.0600014,6.5 39.2766659,6.4533338 39.43,6.36 C39.5833341,6.2666662 39.6966663,6.15500065 39.77,6.025 C39.8433337,5.89499935 39.8883332,5.763334 39.905,5.63 L39.9272222,5.39888892 C39.9290741,5.3662964 39.93,5.3366668 39.93,5.31 L39.93,4.78 Z M44.17,5.99 L44.17,1.49 L45.29,1.49 C45.6766686,1.49 46.0016653,1.54499945 46.265,1.655 C46.5283346,1.76500055 46.7399992,1.9233323 46.9,2.13 C47.0600008,2.3366677 47.1749996,2.58499855 47.245,2.875 C47.3150003,3.16500145 47.35,3.49 47.35,3.85 C47.35,4.2433353 47.3000005,4.5766653 47.2,4.85 C47.0999995,5.1233347 46.9666675,5.34499915 46.8,5.515 C46.6333325,5.68500085 46.4433344,5.8066663 46.23,5.88 C46.0166656,5.9533337 45.7966678,5.99 45.57,5.99 L44.17,5.99 Z M42.6,0.17 L42.6,7.31 L45.68,7.31 C46.2266694,7.31 46.7016646,7.21833425 47.105,7.035 C47.5083353,6.85166575 47.8449986,6.6000016 48.115,6.28 C48.3850013,5.9599984 48.586666,5.5800022 48.72,5.14 C48.853334,4.6999978 48.92,4.2200026 48.92,3.7 C48.92,3.1066637 48.8383341,2.5900022 48.675,2.15 C48.5116658,1.7099978 48.2850014,1.3433348 47.995,1.05 C47.7049985,0.7566652 47.3616686,0.5366674 46.965,0.39 C46.5683313,0.2433326 46.1400023,0.17 45.68,0.17 L42.6,0.17 Z M51.08,4.94 L49.56,4.94 C49.5533333,5.3800022 49.6333325,5.7599984 49.8,6.08 C49.9666675,6.4000016 50.1916652,6.6633323 50.475,6.87 C50.7583347,7.0766677 51.0849981,7.22833285 51.455,7.325 C51.8250018,7.42166715 52.2066647,7.47 52.6,7.47 C53.0866691,7.47 53.5149981,7.4133339 53.885,7.3 C54.2550018,7.1866661 54.5649987,7.02833435 54.815,6.825 C55.0650012,6.62166565 55.2533327,6.3800014 55.38,6.1 C55.5066673,5.8199986 55.57,5.5166683 55.57,5.19 C55.57,4.789998 55.4850008,4.46166795 55.315,4.205 C55.1449991,3.94833205 54.9433345,3.7433341 54.71,3.59 C54.4766655,3.4366659 54.2416678,3.32500035 54.005,3.255 L53.7457997,3.18139989 C53.6285999,3.14979994 53.5300004,3.12600008 53.45,3.11 L52.365,2.83 L52.365,2.83 C52.088332,2.7566663 51.8716674,2.6833337 51.715,2.61 C51.5583325,2.5366663 51.4533336,2.4566671 51.4,2.37 C51.3466664,2.2833329 51.32,2.1700007 51.32,2.03 C51.32,1.8766659 51.353333,1.7500005 51.42,1.65 C51.486667,1.5499995 51.5716662,1.466667 51.675,1.4 C51.7783338,1.333333 51.8933327,1.2866668 52.02,1.26 C52.1466673,1.2333332 52.2733327,1.22 52.4,1.22 C52.5933343,1.22 52.7716658,1.2366665 52.935,1.27 C53.0983341,1.3033335 53.2433327,1.3599996 53.37,1.44 C53.4966673,1.5200004 53.5983329,1.6299993 53.675,1.77 C53.751667,1.9100007 53.7966666,2.0866656 53.81,2.3 L55.33,2.3 C55.33,1.8866646 55.2516674,1.53500145 55.095,1.245 C54.9383325,0.95499855 54.726668,0.7166676 54.46,0.53 C54.193332,0.3433324 53.888335,0.20833375 53.545,0.125 C53.2016649,0.04166625 52.8433352,0 52.47,0 C52.1499984,0 51.8300016,0.0433329 51.51,0.13 C51.1899984,0.2166671 50.9033346,0.3499991 50.65,0.53 C50.3966654,0.7100009 50.1916674,0.93499865 50.035,1.205 C49.8783325,1.47500135 49.8,1.7933315 49.8,2.16 C49.8,2.4866683 49.861666,2.76499885 49.985,2.995 C50.1083339,3.22500115 50.269999,3.4166659 50.47,3.57 C50.670001,3.7233341 50.8966654,3.84833285 51.15,3.945 C51.3188897,4.00944477 51.4907407,4.06722229 51.6655552,4.11833329 L51.93,4.19 C52.1900013,4.2633337 52.4466654,4.3299997 52.7,4.39 C52.9533346,4.4500003 53.179999,4.5199996 53.38,4.6 C53.580001,4.6800004 53.741666,4.7799994 53.865,4.9 C53.9883339,5.0200006 54.05,5.1766657 54.05,5.37 C54.05,5.5500009 54.0033338,5.69833275 53.91,5.815 C53.8166662,5.93166725 53.7000007,6.023333 53.56,6.09 C53.4199993,6.156667 53.2700008,6.20166655 53.11,6.225 C52.9499992,6.24833345 52.8000007,6.26 52.66,6.26 C52.4533323,6.26 52.2533343,6.23500025 52.06,6.185 C51.8666657,6.13499975 51.698334,6.05833385 51.555,5.955 C51.4116659,5.85166615 51.2966671,5.7166675 51.21,5.55 C51.1233329,5.3833325 51.08,5.1800012 51.08,4.94 Z" id="KautenjaDSP" fill-rule="nonzero"></path>
                        <path d="M59.72,0.17 C60.1666689,0.17 60.5466651,0.23499935 60.86,0.365 C61.1733349,0.49500065 61.4283323,0.6666656 61.625,0.88 C61.8216676,1.0933344 61.9649995,1.3366653 62.055,1.61 C62.1450004,1.8833347 62.19,2.1666652 62.19,2.46 C62.19,2.7466681 62.1450004,3.02833195 62.055,3.305 C61.9649995,3.58166805 61.8216676,3.8266656 61.625,4.04 C61.4283323,4.2533344 61.1733349,4.42499935 60.86,4.555 C60.5466651,4.68500065 60.1666689,4.75 59.72,4.75 L58.07,4.75 L58.07,7.31 L56.5,7.31 L56.5,0.17 L59.72,0.17 Z M59.29,1.39 L58.07,1.39 L58.07,3.53 L59.29,3.53 C59.4700009,3.53 59.6433325,3.5166668 59.81,3.49 C59.9766675,3.4633332 60.1233327,3.41166705 60.25,3.335 C60.3766673,3.25833295 60.478333,3.1500007 60.555,3.01 C60.631667,2.8699993 60.67,2.6866678 60.67,2.46 C60.67,2.2333322 60.631667,2.0500007 60.555,1.91 C60.478333,1.7699993 60.3766673,1.66166705 60.25,1.585 C60.1233327,1.50833295 59.9766675,1.4566668 59.81,1.43 C59.6433325,1.4033332 59.4700009,1.39 59.29,1.39 L59.29,1.39 Z" id="Combined-Shape" fill-rule="nonzero"></path>
                    </g>
                </g>
            </g>
            <g id="Header" transform="translate(0.000000, 2.000000)" fill="#B3B3B3" fill-rule="nonzero">
                <path d="M44.184,11.742 L44.184,11.706 C44.184,9.92922581 43.0376941,8.89417898 40.3209273,8.29090014 L40.044,8.232 C37.149375,7.639125 36.417,6.86043164 36.3740533,5.60135559 L36.372,5.442 C36.372,4.128 37.596,3.066 39.45,3.066 C40.836,3.066 42.024,3.462 43.212,4.488 L43.806,3.75 C42.528,2.724 41.322,2.22 39.486,2.22 C37.2214839,2.22 35.5469781,3.56859521 35.4413019,5.35222114 L35.436,5.568 C35.436,7.41445161 36.5823059,8.43488866 39.3969547,9.05346608 L39.684,9.114 C42.4536774,9.67141935 43.200462,10.4142706 43.2457596,11.6688266 L43.248,11.832 C43.248,13.272 41.952,14.334 40.062,14.334 C38.208,14.334 36.93,13.74 35.544,12.462 L34.932,13.164 C36.444,14.514 37.992,15.18 40.008,15.18 C42.438,15.18 44.184,13.776 44.184,11.742 Z M57.738,15 L57.738,2.4 L56.838,2.4 L56.838,13.362 L48.144,2.4 L47.262,2.4 L47.262,15 L48.162,15 L48.162,3.804 L57.036,15 L57.738,15 Z M60.834,3.3 L68.142,3.3 L62.418,15 L63.444,15 L69.186,3.084 L69.186,2.4 L60.834,2.4 L60.834,3.3 Z M79.734,3.642 C78.636,2.742 77.538,2.184 76.098,2.184 C72.966,2.184 70.968,5.208 70.968,9.024 C70.968,11.652 71.526,12.912 72.57,13.956 C73.326,14.712 74.478,15.216 75.774,15.216 C78.258,15.216 80.184,13.47 80.184,11.058 C80.184,8.79 78.168,7.224 75.846,7.224 C73.794,7.224 72.624,8.34 71.904,9.564 C71.814,5.712 73.47,3.03 76.026,3.03 C77.214,3.03 78.168,3.498 79.14,4.362 L79.734,3.642 Z M79.212,11.094 C79.212,12.894 77.88,14.37 75.846,14.37 C73.812,14.37 72.282,13.002 72.282,11.184 C72.282,9.618 73.722,8.052 75.792,8.052 C77.79,8.052 79.212,9.348 79.212,11.094 Z M89.436,2.31 L82.236,11.22 L82.56,11.922 L89.382,11.922 L89.382,15 L90.282,15 L90.282,11.922 L92.334,11.922 L92.334,11.112 L90.282,11.112 L90.282,2.31 L89.436,2.31 Z M89.382,11.112 L83.37,11.112 L89.382,3.66 L89.382,11.112 Z M103.674,11.616 C103.674,10.122 102.468,9.006 100.884,8.484 C102.126,7.98 103.242,7.044 103.242,5.532 C103.242,3.552 101.172,2.22 98.994,2.22 C96.816,2.22 94.746,3.552 94.746,5.532 C94.746,7.044 95.862,7.98 97.104,8.484 C95.52,9.006 94.314,10.122 94.314,11.616 C94.314,13.722 96.348,15.18 98.994,15.18 C101.64,15.18 103.674,13.722 103.674,11.616 Z M102.27,5.532 C102.27,7.098 100.776,8.142 98.994,8.142 C97.212,8.142 95.718,7.098 95.718,5.532 C95.718,4.092 97.158,3.066 98.994,3.066 C100.83,3.066 102.27,4.092 102.27,5.532 Z M102.702,11.652 C102.702,13.092 101.316,14.334 98.994,14.334 C96.672,14.334 95.286,13.092 95.286,11.652 C95.286,10.068 96.942,8.934 98.994,8.934 C101.046,8.934 102.702,10.068 102.702,11.652 Z M114.978,8.394 C114.978,5.856 114.402,4.47 113.394,3.462 C112.638,2.706 111.54,2.184 110.19,2.184 C107.562,2.184 105.762,4.092 105.762,6.432 C105.762,8.61 107.58,10.302 110.118,10.302 C112.098,10.302 113.322,9.168 114.042,7.872 C114.186,11.652 112.404,14.37 109.866,14.37 C108.714,14.37 107.706,13.884 106.644,12.93 L106.05,13.65 C107.094,14.532 108.282,15.216 109.848,15.216 C112.782,15.216 114.978,12.372 114.978,8.394 Z M113.664,6.252 C113.664,7.854 112.296,9.474 110.154,9.474 C108.156,9.474 106.734,8.178 106.734,6.396 C106.734,4.632 108.012,3.03 110.082,3.03 C112.17,3.03 113.664,4.452 113.664,6.252 Z" id="SN76489"></path>
            </g>
        </g>
        <g id="noise" transform="translate(9.000000, 278.000000)">
            <rect id="Rectangle" stroke="#F0ECEB" fill="#DF252B" x="4" y="0" width="124" height="80"></rect>
            <g id="Freq" transform="translate(0.000000, 19.000000)" fill="#F0ECEB" fill-rule="nonzero">
                <path d="M45.5161133,50.5444336 L48.4208984,50.5444336 C48.9951201,50.5444336 49.4580061,50.7062972 49.8095703,51.0300293 C50.1611346,51.3537614 50.3369141,51.8085908 50.3369141,52.3945312 C50.3369141,52.89844 50.1801773,53.3371563 49.8666992,53.7106934 C49.5532211,54.0842304 49.0712923,54.2709961 48.4208984,54.2709961 L46.390625,54.2709961 L46.390625,57 L45.5161133,57 L45.5161133,50.5444336 Z M49.4536133,52.3989258 C49.4536133,51.924314 49.2778338,51.6020516 48.9262695,51.4321289 C48.7329092,51.3413081 48.4677751,51.2958984 48.1308594,51.2958984 L46.390625,51.2958984 L46.390625,53.5327148 L48.1308594,53.5327148 C48.5234395,53.5327148 48.8420398,53.4492196 49.0866699,53.2822266 C49.3313001,53.1152335 49.4536133,52.8208029 49.4536133,52.3989258 Z M51.519043,50.5444336 L56.2255859,50.5444336 L56.2255859,51.3354492 L52.371582,51.3354492 L52.371582,53.2954102 L55.9355469,53.2954102 L55.9355469,54.0424805 L52.371582,54.0424805 L52.371582,56.230957 L56.2915039,56.230957 L56.2915039,57 L51.519043,57 L51.519043,50.5444336 Z M60.4399414,53.5019531 C60.8500997,53.5019531 61.1745594,53.4199227 61.4133301,53.2558594 C61.6521008,53.0917961 61.7714844,52.7958984 61.7714844,52.3681641 C61.7714844,51.9082008 61.6044939,51.5947274 61.2705078,51.4277344 C61.091796,51.3398433 60.8530288,51.2958984 60.5541992,51.2958984 L58.418457,51.2958984 L58.418457,53.5019531 L60.4399414,53.5019531 Z M57.5439453,50.5444336 L60.5322266,50.5444336 C61.0244165,50.5444336 61.4301742,50.6162102 61.7495117,50.7597656 C62.3559601,51.0351576 62.6591797,51.5434533 62.6591797,52.284668 C62.6591797,52.6713887 62.5793465,52.9877917 62.4196777,53.2338867 C62.260009,53.4799817 62.0366225,53.6777336 61.7495117,53.8271484 C62.0014661,53.929688 62.1911615,54.0644523 62.3186035,54.2314453 C62.4460456,54.3984383 62.5170898,54.6694317 62.5317383,55.0444336 L62.5625,55.9101562 C62.5712891,56.1562512 62.5917967,56.3393549 62.6240234,56.4594727 C62.6767581,56.6645518 62.7705071,56.7963864 62.9052734,56.8549805 L62.9052734,57 L61.8330078,57 C61.8037108,56.9443357 61.7802735,56.872559 61.7626953,56.784668 C61.7451171,56.6967769 61.7304688,56.5268567 61.71875,56.2749023 L61.6660156,55.1982422 C61.6455077,54.7763651 61.488771,54.4936531 61.1958008,54.3500977 C61.0288078,54.2709957 60.7666033,54.2314453 60.4091797,54.2314453 L58.418457,54.2314453 L58.418457,57 L57.5439453,57 L57.5439453,50.5444336 Z M64.1357422,50.5444336 L65.019043,50.5444336 L65.019043,57 L64.1357422,57 L64.1357422,50.5444336 Z M69.2246094,50.3686523 C70.3642635,50.3686523 71.2080051,50.7348596 71.7558594,51.4672852 C72.1835959,52.0385771 72.3974609,52.7695268 72.3974609,53.6601562 C72.3974609,54.6240283 72.1528345,55.4252898 71.6635742,56.0639648 C71.0893526,56.8139686 70.2705131,57.1889648 69.2070312,57.1889648 C68.2138622,57.1889648 67.4331083,56.8608431 66.8647461,56.2045898 C66.3579076,55.5717742 66.1044922,54.7719775 66.1044922,53.8051758 C66.1044922,52.9321245 66.3212869,52.1850617 66.7548828,51.5639648 C67.3115262,50.7670859 68.1347602,50.3686523 69.2246094,50.3686523 Z M69.3125,56.4067383 C70.0830117,56.4067383 70.6403791,56.130618 70.9846191,55.5783691 C71.3288591,55.0261203 71.5009766,54.3911169 71.5009766,53.6733398 C71.5009766,52.914547 71.3024922,52.3037133 70.9055176,51.8408203 C70.5085429,51.3779274 69.9658238,51.1464844 69.2773438,51.1464844 C68.6093717,51.1464844 68.0644552,51.3757301 67.6425781,51.8342285 C67.220701,52.2927269 67.0097656,52.9687455 67.0097656,53.8623047 C67.0097656,54.577152 67.190672,55.1799292 67.5524902,55.6706543 C67.9143084,56.1613794 68.5009725,56.4067383 69.3125,56.4067383 Z M75.9174805,56.2529297 C76.2133804,56.2529297 76.456542,56.2221683 76.6469727,56.1606445 C76.9868181,56.0463861 77.2651356,55.8266618 77.4819336,55.5014648 C77.654786,55.2407214 77.7792965,54.9067403 77.8554688,54.4995117 C77.8994143,54.2563464 77.9213867,54.0307628 77.9213867,53.8227539 C77.9213867,53.0229452 77.7624528,52.4018577 77.4445801,51.9594727 C77.1267074,51.5170876 76.6147496,51.2958984 75.9086914,51.2958984 L74.3574219,51.2958984 L74.3574219,56.2529297 L75.9174805,56.2529297 Z M73.4785156,50.5444336 L76.0932617,50.5444336 C76.9809615,50.5444336 77.6694311,50.8593719 78.1586914,51.4892578 C78.595217,52.05762 78.8134766,52.7856401 78.8134766,53.6733398 C78.8134766,54.3588901 78.6845716,54.9785129 78.4267578,55.5322266 C77.972654,56.5107471 77.1919001,57 76.0844727,57 L73.4785156,57 L73.4785156,50.5444336 Z" id="PERIOD"></path>
            </g>
            <g id="LFSR" transform="translate(9.000000, 37.000000)" fill="#F0ECEB" fill-rule="nonzero">
                <path d="M6.876,6 L6.876,5.02 L4.433,5.02 L4.433,1.1 L3.355,1.1 L3.355,6 L6.876,6 Z M11.419,2.08 L11.419,1.1 L7.688,1.1 L7.688,6 L8.766,6 L8.766,4.103 L11.104,4.103 L11.104,3.123 L8.766,3.123 L8.766,2.08 L11.419,2.08 Z M15.822,4.551 L15.822,4.537 C15.822,3.73323529 15.3259446,3.36971972 14.4388809,3.1138044 L13.9621612,2.98539348 C13.4143816,2.8310077 13.2378447,2.72022726 13.2139265,2.48460415 L13.211,2.409 C13.211,2.171 13.428,1.982 13.841,1.982 C14.254,1.982 14.681,2.164 15.115,2.465 L15.675,1.653 C15.178,1.254 14.569,1.03 13.855,1.03 C12.9096111,1.03 12.2202191,1.55448148 12.1465379,2.36166958 L12.14,2.521 C12.14,3.38588889 12.6433086,3.69769136 13.4483567,3.93329081 L14.0580249,4.09974785 C14.5812142,4.25570163 14.7289796,4.38417807 14.7486169,4.58911319 L14.751,4.656 C14.751,4.943 14.485,5.118 14.044,5.118 C13.484,5.118 13.022,4.887 12.581,4.523 L11.944,5.286 C12.532,5.811 13.281,6.07 14.023,6.07 C15.08,6.07 15.822,5.524 15.822,4.551 Z M20.995,6 L19.798,4.25 C20.3765,4.0355 20.786,3.59164286 20.8415485,2.8960102 L20.848,2.717 C20.848,1.709 20.155,1.1 19,1.1 L16.76,1.1 L16.76,6 L17.838,6 L17.838,4.432 L18.685,4.432 L19.735,6 L20.995,6 Z M19.756,2.787 C19.756,3.2 19.455,3.48 18.93,3.48 L17.838,3.48 L17.838,2.073 L18.909,2.073 C19.39025,2.073 19.7009236,2.27298611 19.7493605,2.66217477 L19.756,2.787 Z"></path>
            </g>
            <g id="attenuation" transform="translate(89.000000, 9.000000)" fill="#F0ECEB" fill-rule="nonzero">
                <path d="M7.097,7 L4.997,2.065 L4.003,2.065 L1.903,7 L3.002,7 L3.45,5.901 L5.522,5.901 L5.97,7 L7.097,7 Z M5.137,4.949 L3.835,4.949 L4.486,3.36 L5.137,4.949 Z M6.53,9.094 L6.53,8.1 L2.47,8.1 L2.47,9.094 L3.961,9.094 L3.961,13 L5.039,13 L5.039,9.094 L6.53,9.094 Z M6.53,15.094 L5.039,15.094 L5.039,19 L3.961,19 L3.961,15.094 L2.47,15.094 L2.47,14.1 L6.53,14.1 L6.53,15.094 Z" id="ATT"></path>
            </g>
            <g id="Header" transform="translate(4.000000, 2.000000)" fill="#F0ECEB" fill-rule="nonzero">
                <path d="M44.2431641,2.39257812 L45.6201172,2.39257812 L49.9677734,9.36523438 L49.9677734,2.39257812 L51.0751953,2.39257812 L51.0751953,11 L49.7685547,11 L45.3564453,4.03320312 L45.3564453,11 L44.2431641,11 L44.2431641,2.39257812 Z M56.6240234,2.15820312 C58.1435623,2.15820312 59.268551,2.64647949 59.9990234,3.62304688 C60.5693388,4.38476943 60.8544922,5.35936906 60.8544922,6.546875 C60.8544922,7.83203768 60.5283236,8.90038637 59.8759766,9.75195312 C59.1103477,10.7519581 58.0185618,11.2519531 56.6005859,11.2519531 C55.2763606,11.2519531 54.2353554,10.8144575 53.4775391,9.93945312 C52.8017544,9.09569891 52.4638672,8.02930332 52.4638672,6.74023438 C52.4638672,5.57616605 52.7529268,4.58008227 53.3310547,3.75195312 C54.0732459,2.68944781 55.1708912,2.15820312 56.6240234,2.15820312 Z M56.7412109,10.2089844 C57.7685598,10.2089844 58.5117165,9.84082399 58.9707031,9.10449219 C59.4296898,8.36816038 59.6591797,7.52148916 59.6591797,6.56445312 C59.6591797,5.55272932 59.3945339,4.73828434 58.8652344,4.12109375 C58.3359349,3.50390316 57.6123093,3.1953125 56.6943359,3.1953125 C55.8037065,3.1953125 55.0771513,3.50097351 54.5146484,4.11230469 C53.9521456,4.72363587 53.6708984,5.62499404 53.6708984,6.81640625 C53.6708984,7.76953602 53.912107,8.57323892 54.3945312,9.22753906 C54.8769555,9.88183921 55.6591743,10.2089844 56.7412109,10.2089844 Z M62.5068359,2.39257812 L63.6845703,2.39257812 L63.6845703,11 L62.5068359,11 L62.5068359,2.39257812 Z M66.3388672,8.22265625 C66.3662111,8.71093994 66.4814443,9.10742035 66.6845703,9.41210938 C67.071291,9.98242473 67.7529248,10.2675781 68.7294922,10.2675781 C69.1669944,10.2675781 69.5654279,10.2050788 69.9248047,10.0800781 C70.6201207,9.83788941 70.9677734,9.4043 70.9677734,8.77929688 C70.9677734,8.31054453 70.8212905,7.9765635 70.5283203,7.77734375 C70.2314438,7.58203027 69.7666047,7.4121101 69.1337891,7.26757812 L67.9677734,7.00390625 C67.2060509,6.83203039 66.6669938,6.64257916 66.3505859,6.43554688 C65.8037082,6.07617008 65.5302734,5.53906607 65.5302734,4.82421875 C65.5302734,4.05077738 65.7978489,3.41601811 66.3330078,2.91992188 C66.8681667,2.42382564 67.6259717,2.17578125 68.6064453,2.17578125 C69.5087936,2.17578125 70.2753875,2.39355251 70.90625,2.82910156 C71.5371125,3.26465062 71.8525391,3.96093271 71.8525391,4.91796875 L70.7568359,4.91796875 C70.6982419,4.45702895 70.5732431,4.10351686 70.3818359,3.85742188 C70.0263654,3.40820088 69.4228558,3.18359375 68.5712891,3.18359375 C67.8837856,3.18359375 67.3896499,3.32812355 67.0888672,3.6171875 C66.7880844,3.90625145 66.6376953,4.24218559 66.6376953,4.625 C66.6376953,5.04687711 66.8134748,5.35546777 67.1650391,5.55078125 C67.3745572,5.66441761 67.8245788,5.80387965 68.5151157,5.96916947 L69.9365234,6.29492188 C70.5185576,6.42773504 70.9677719,6.60937385 71.2841797,6.83984375 C71.8310574,7.24218951 72.1044922,7.82616805 72.1044922,8.59179688 C72.1044922,9.54492664 71.757816,10.2265604 71.0644531,10.6367188 C70.3710903,11.0468771 69.5654343,11.2519531 68.6474609,11.2519531 C67.5771431,11.2519531 66.7392608,10.9785184 66.1337891,10.4316406 C65.5283173,9.88866916 65.2314453,9.1523484 65.2431641,8.22265625 L66.3388672,8.22265625 Z M73.6923828,2.39257812 L79.9677734,2.39257812 L79.9677734,3.44726562 L74.8291016,3.44726562 L74.8291016,6.06054688 L79.5810547,6.06054688 L79.5810547,7.05664062 L74.8291016,7.05664062 L74.8291016,9.97460938 L80.0556641,9.97460938 L80.0556641,11 L73.6923828,11 L73.6923828,2.39257812 Z" id="NOISE"></path>
            </g>
            <g id="Out-Copy-2" transform="translate(85.000000, 48.000000)">
                <rect id="Rectangle" stroke="#F0ECEB" fill="#1D1D1D" x="0" y="0" width="40" height="29"></rect>
                <path d="M7.03369141,9.35546875 C7.39111507,9.35546875 7.67480364,9.22363413 7.88476562,8.95996094 C8.09472761,8.69628774 8.19970703,8.32129149 8.19970703,7.83496094 C8.19970703,7.35058352 8.09472761,6.97607554 7.88476562,6.71142578 C7.67480364,6.44677602 7.39111507,6.31445312 7.03369141,6.31445312 C6.67626774,6.31445312 6.39111435,6.44628774 6.17822266,6.70996094 C5.96533097,6.97363413 5.85888672,7.34863038 5.85888672,7.83496094 C5.85888672,8.32129149 5.96533097,8.69628774 6.17822266,8.95996094 C6.39111435,9.22363413 6.67626774,9.35546875 7.03369141,9.35546875 Z M9.10205078,7.83496094 C9.10205078,8.61035544 8.88427952,9.2040995 8.44873047,9.61621094 C8.12255696,9.95215012 7.65088199,10.1201172 7.03369141,10.1201172 C6.41650082,10.1201172 5.94482585,9.95215012 5.61865234,9.61621094 C5.18115016,9.2040995 4.96240234,8.61035544 4.96240234,7.83496094 C4.96240234,7.04394136 5.18115016,6.45019729 5.61865234,6.05371094 C5.94482585,5.71777176 6.41650082,5.54980469 7.03369141,5.54980469 C7.65088199,5.54980469 8.12255696,5.71777176 8.44873047,6.05371094 C8.88427952,6.45019729 9.10205078,7.04394136 9.10205078,7.83496094 Z M5.29052734,12.6816406 L6.20751953,12.6816406 L6.20751953,15.3359375 C6.20751953,15.632814 6.24267543,15.8496087 6.31298828,15.9863281 C6.42236383,16.2285168 6.6606427,16.3496094 7.02783203,16.3496094 C7.39306823,16.3496094 7.63037055,16.2285168 7.73974609,15.9863281 C7.81005895,15.8496087 7.84521484,15.632814 7.84521484,15.3359375 L7.84521484,12.6816406 L8.76220703,12.6816406 L8.76220703,15.3359375 C8.76220703,15.7949242 8.69091868,16.1523425 8.54833984,16.4082031 C8.28271352,16.8769555 7.77588265,17.1113281 7.02783203,17.1113281 C6.27978142,17.1113281 5.77197399,16.8769555 5.50439453,16.4082031 C5.36181569,16.1523425 5.29052734,15.7949242 5.29052734,15.3359375 L5.29052734,12.6816406 Z M8.76220703,19.6816406 L8.76220703,20.4462891 L7.47021484,20.4462891 L7.47021484,24 L6.56201172,24 L6.56201172,20.4462891 L5.26416016,20.4462891 L5.26416016,19.6816406 L8.76220703,19.6816406 Z" id="OUT" fill="#E1E1E1" fill-rule="nonzero"></path>
            </g>
        </g>
        <g id="tone3" transform="translate(9.000000, 193.000000)">
            <rect id="Rectangle" stroke="#F0ECEB" fill="#DF252B" x="4" y="-2.84217094e-14" width="124" height="80"></rect>
            <g id="Freq" transform="translate(0.000000, 18.000000)" fill="#F0ECEB" fill-rule="nonzero">
                <path d="M50.2687988,50.5444336 L54.7468262,50.5444336 L54.7468262,51.3354492 L51.1433105,51.3354492 L51.1433105,53.2954102 L54.3117676,53.2954102 L54.3117676,54.0644531 L51.1433105,54.0644531 L51.1433105,57 L50.2687988,57 L50.2687988,50.5444336 Z M58.6843262,53.5019531 C59.0944845,53.5019531 59.4189441,53.4199227 59.6577148,53.2558594 C59.8964856,53.0917961 60.0158691,52.7958984 60.0158691,52.3681641 C60.0158691,51.9082008 59.8488786,51.5947274 59.5148926,51.4277344 C59.3361807,51.3398433 59.0974136,51.2958984 58.798584,51.2958984 L56.6628418,51.2958984 L56.6628418,53.5019531 L58.6843262,53.5019531 Z M55.7883301,50.5444336 L58.7766113,50.5444336 C59.2688013,50.5444336 59.674559,50.6162102 59.9938965,50.7597656 C60.6003448,51.0351576 60.9035645,51.5434533 60.9035645,52.284668 C60.9035645,52.6713887 60.8237313,52.9877917 60.6640625,53.2338867 C60.5043937,53.4799817 60.2810073,53.6777336 59.9938965,53.8271484 C60.2458509,53.929688 60.4355462,54.0644523 60.5629883,54.2314453 C60.6904303,54.3984383 60.7614745,54.6694317 60.776123,55.0444336 L60.8068848,55.9101562 C60.8156739,56.1562512 60.8361815,56.3393549 60.8684082,56.4594727 C60.9211428,56.6645518 61.0148919,56.7963864 61.1496582,56.8549805 L61.1496582,57 L60.0773926,57 C60.0480956,56.9443357 60.0246583,56.872559 60.0070801,56.784668 C59.9895019,56.6967769 59.9748536,56.5268567 59.9631348,56.2749023 L59.9104004,55.1982422 C59.8898925,54.7763651 59.7331558,54.4936531 59.4401855,54.3500977 C59.2731925,54.2709957 59.0109881,54.2314453 58.6535645,54.2314453 L56.6628418,54.2314453 L56.6628418,57 L55.7883301,57 L55.7883301,50.5444336 Z M70.9714355,50.3686523 C72.1110897,50.3686523 72.9548312,50.7348596 73.5026855,51.4672852 C73.9304221,52.0385771 74.1442871,52.7695268 74.1442871,53.6601562 C74.1442871,54.076174 74.0930181,54.4760723 73.9904785,54.8598633 C73.8352043,55.4458037 73.5729999,55.923338 73.2038574,56.2924805 L74.0915527,56.9824219 L73.6520996,57.5141602 L72.654541,56.7539062 C72.4143054,56.8857428 72.1542983,56.9912105 71.8745117,57.0703125 C71.5947252,57.1494145 71.2893083,57.1889648 70.958252,57.1889648 C69.9562938,57.1889648 69.1711454,56.8608431 68.6027832,56.2045898 C68.1018041,55.5659148 67.8513184,54.7661181 67.8513184,53.8051758 C67.8513184,52.9321245 68.0681131,52.1850617 68.501709,51.5639648 C69.0583524,50.7670859 69.8815863,50.3686523 70.9714355,50.3686523 Z M66.9724121,50.5444336 L66.9724121,51.3354492 L63.1184082,51.3354492 L63.1184082,53.2954102 L66.682373,53.2954102 L66.682373,54.0424805 L63.1184082,54.0424805 L63.1184082,56.230957 L67.0383301,56.230957 L67.0383301,57 L62.2658691,57 L62.2658691,50.5444336 L66.9724121,50.5444336 Z M71.0241699,51.1464844 C70.3269008,51.1464844 69.7746602,51.368406 69.3674316,51.8122559 C68.960203,52.2561057 68.7565918,52.9394485 68.7565918,53.8623047 C68.7565918,54.6386758 68.9521465,55.2568336 69.3432617,55.7167969 C69.734377,56.1767601 70.3078575,56.4067383 71.0637207,56.4067383 C71.2453622,56.4067383 71.4152824,56.3942872 71.5734863,56.3693848 C71.6921393,56.3507079 71.7992553,56.3184358 71.8948363,56.2725679 L71.9865723,56.222168 L71.2790527,55.668457 L71.7185059,55.1279297 L72.5622559,55.7827148 C72.8288588,55.4780258 73.0097651,55.1367206 73.1049805,54.7587891 C73.2001958,54.3808575 73.2478027,54.0190447 73.2478027,53.6733398 C73.2478027,52.914547 73.0493184,52.3037133 72.6523438,51.8408203 C72.2553691,51.3779274 71.7126499,51.1464844 71.0241699,51.1464844 Z" id="FREQ"></path>
            </g>
            <g id="attenuation" transform="translate(89.000000, 10.000000)" fill="#F0ECEB" fill-rule="nonzero">
                <path d="M7.097,7 L4.997,2.065 L4.003,2.065 L1.903,7 L3.002,7 L3.45,5.901 L5.522,5.901 L5.97,7 L7.097,7 Z M5.137,4.949 L3.835,4.949 L4.486,3.36 L5.137,4.949 Z M6.53,9.094 L6.53,8.1 L2.47,8.1 L2.47,9.094 L3.961,9.094 L3.961,13 L5.039,13 L5.039,9.094 L6.53,9.094 Z M6.53,15.094 L5.039,15.094 L5.039,19 L3.961,19 L3.961,15.094 L2.47,15.094 L2.47,14.1 L6.53,14.1 L6.53,15.094 Z" id="ATT"></path>
            </g>
            <g id="VOCT-Copy" transform="translate(8.000000, 42.000000)" fill="#F0ECEB" fill-rule="nonzero">
                <path d="M7.78808594,0.961914062 L8.88183594,0.961914062 L7.16259766,6 L6.16796875,6 L4.46582031,0.961914062 L5.59033203,0.961914062 L6.68408203,4.78662109 L7.78808594,0.961914062 Z M10.5429688,0.808105469 L11.3530273,0.808105469 L9.39453125,6 L8.59130859,6 L10.5429688,0.808105469 Z M13.6806641,5.24804688 C14.0976583,5.24804688 14.4286283,5.09423982 14.673584,4.78662109 C14.9185396,4.47900237 15.0410156,4.04150674 15.0410156,3.47412109 C15.0410156,2.9090141 14.9185396,2.47208813 14.673584,2.16333008 C14.4286283,1.85457202 14.0976583,1.70019531 13.6806641,1.70019531 C13.2636698,1.70019531 12.9309908,1.85400237 12.6826172,2.16162109 C12.4342435,2.46923982 12.3100586,2.90673544 12.3100586,3.47412109 C12.3100586,4.04150674 12.4342435,4.47900237 12.6826172,4.78662109 C12.9309908,5.09423982 13.2636698,5.24804688 13.6806641,5.24804688 Z M16.09375,3.47412109 C16.09375,4.37874801 15.8396835,5.07144942 15.331543,5.55224609 C14.9510072,5.94417514 14.4007197,6.14013672 13.6806641,6.14013672 C12.9606084,6.14013672 12.4103209,5.94417514 12.0297852,5.55224609 C11.5193659,5.07144942 11.2641602,4.37874801 11.2641602,3.47412109 C11.2641602,2.55126492 11.5193659,1.85856351 12.0297852,1.39599609 C12.4103209,1.00406705 12.9606084,0.808105469 13.6806641,0.808105469 C14.4007197,0.808105469 14.9510072,1.00406705 15.331543,1.39599609 C15.8396835,1.85856351 16.09375,2.55126492 16.09375,3.47412109 Z M16.6782227,3.52197266 C16.6782227,2.64241097 16.9140601,1.96452061 17.3857422,1.48828125 C17.7959005,1.07356563 18.3177052,0.866210938 18.9511719,0.866210938 C19.7988324,0.866210938 20.4186178,1.14420295 20.8105469,1.70019531 C21.0270193,2.01237135 21.1432291,2.32568202 21.1591797,2.64013672 L20.1064453,2.64013672 C20.0380856,2.39859905 19.9503586,2.21630921 19.8432617,2.09326172 C19.6518545,1.87451062 19.3681659,1.76513672 18.9921875,1.76513672 C18.6093731,1.76513672 18.3074555,1.91951343 18.0864258,2.22827148 C17.865396,2.53702954 17.7548828,2.97395551 17.7548828,3.5390625 C17.7548828,4.10416949 17.8716622,4.52742372 18.1052246,4.80883789 C18.338787,5.09025206 18.6355776,5.23095703 18.9956055,5.23095703 C19.3647479,5.23095703 19.6461579,5.11019001 19.8398438,4.86865234 C19.9469406,4.73876888 20.0358069,4.54394661 20.1064453,4.28417969 L21.1489258,4.28417969 C21.0577795,4.83333608 20.8247903,5.2799462 20.4499512,5.62402344 C20.0751121,5.96810068 19.5948923,6.14013672 19.0092773,6.14013672 C18.2846643,6.14013672 17.7150086,5.90771717 17.300293,5.44287109 C16.8855774,4.97574636 16.6782227,4.33545329 16.6782227,3.52197266 Z M25.612793,0.961914062 L25.612793,1.85400391 L24.1054688,1.85400391 L24.1054688,6 L23.0458984,6 L23.0458984,1.85400391 L21.5317383,1.85400391 L21.5317383,0.961914062 L25.612793,0.961914062 Z" id="V/OCT"></path>
            </g>
            <g id="Mod-Copy" transform="translate(7.000000, 7.000000)" fill="#F0ECEB" fill-rule="nonzero">
                <path d="M11.738,6 L11.738,1.1 L10.576,1.1 L9.288,3.172 L8,1.1 L6.838,1.1 L6.838,6 L7.895,6 L7.895,2.822 L9.26,4.894 L9.288,4.894 L10.667,2.801 L10.667,6 L11.738,6 Z M17.905,3.55 L17.905,3.536 C17.905,2.143 16.82,1.016 15.308,1.016 C13.8541538,1.016 12.7821494,2.07091864 12.7018382,3.39043815 L12.697,3.564 C12.697,4.957 13.782,6.084 15.294,6.084 C16.806,6.084 17.905,4.943 17.905,3.55 Z M16.778,3.564 C16.778,4.404 16.176,5.09 15.308,5.09 C14.4882222,5.09 13.8932222,4.46561728 13.8296413,3.68860768 L13.824,3.536 C13.824,2.696 14.426,2.01 15.294,2.01 C16.1137778,2.01 16.7087778,2.63438272 16.7723587,3.41139232 L16.778,3.564 Z M23.379,3.55 L23.379,3.536 C23.379,2.157 22.315,1.1 20.775,1.1 L18.864,1.1 L18.864,6 L20.775,6 C22.315,6 23.379,4.929 23.379,3.55 Z M22.252,3.564 C22.252,4.432 21.657,5.027 20.775,5.027 L19.942,5.027 L19.942,2.073 L20.775,2.073 C21.6051176,2.073 22.1810069,2.61246021 22.2458862,3.39958335 L22.252,3.564 Z" id="MOD"></path>
            </g>
            <g id="Header" transform="translate(4.000000, 1.000000)" fill="#F0ECEB" fill-rule="nonzero">
                <path d="M47.6123047,2.39257812 L47.6123047,3.41796875 L44.7119141,3.41796875 L44.7119141,11 L43.5283203,11 L43.5283203,3.41796875 L40.6279297,3.41796875 L40.6279297,2.39257812 L47.6123047,2.39257812 Z M52.1826172,2.15820312 C53.702156,2.15820312 54.8271448,2.64647949 55.5576172,3.62304688 C56.1279325,4.38476943 56.4130859,5.35936906 56.4130859,6.546875 C56.4130859,7.83203768 56.0869173,8.90038637 55.4345703,9.75195312 C54.6689415,10.7519581 53.5771555,11.2519531 52.1591797,11.2519531 C50.8349543,11.2519531 49.7939491,10.8144575 49.0361328,9.93945312 C48.3603482,9.09569891 48.0224609,8.02930332 48.0224609,6.74023438 C48.0224609,5.57616605 48.3115205,4.58008227 48.8896484,3.75195312 C49.6318396,2.68944781 50.7294849,2.15820312 52.1826172,2.15820312 Z M52.2998047,10.2089844 C53.3271536,10.2089844 54.0703102,9.84082399 54.5292969,9.10449219 C54.9882835,8.36816038 55.2177734,7.52148916 55.2177734,6.56445312 C55.2177734,5.55272932 54.9531276,4.73828434 54.4238281,4.12109375 C53.8945286,3.50390316 53.170903,3.1953125 52.2529297,3.1953125 C51.3623002,3.1953125 50.635745,3.50097351 50.0732422,4.11230469 C49.5107394,4.72363587 49.2294922,5.62499404 49.2294922,6.81640625 C49.2294922,7.76953602 49.4707007,8.57323892 49.953125,9.22753906 C50.4355493,9.88183921 51.217768,10.2089844 52.2998047,10.2089844 Z M57.8017578,2.39257812 L59.1787109,2.39257812 L63.5263672,9.36523438 L63.5263672,2.39257812 L64.6337891,2.39257812 L64.6337891,11 L63.3271484,11 L58.9150391,4.03320312 L58.9150391,11 L57.8017578,11 L57.8017578,2.39257812 Z M66.5791016,2.39257812 L72.8544922,2.39257812 L72.8544922,3.44726562 L67.7158203,3.44726562 L67.7158203,6.06054688 L72.4677734,6.06054688 L72.4677734,7.05664062 L67.7158203,7.05664062 L67.7158203,9.97460938 L72.9423828,9.97460938 L72.9423828,11 L66.5791016,11 L66.5791016,2.39257812 Z M80.0087891,11.2285156 C79.0165966,11.2285156 78.2968772,10.9560574 77.8496094,10.4111328 C77.4023415,9.86620821 77.1787109,9.20312891 77.1787109,8.421875 L78.2802734,8.421875 C78.3271487,8.96484646 78.4287102,9.35937377 78.5849609,9.60546875 C78.8583998,10.0468772 79.3525355,10.2675781 80.0673828,10.2675781 C80.6220731,10.2675781 81.0673811,10.1191421 81.4033203,9.82226562 C81.7392595,9.52538914 81.9072266,9.14258047 81.9072266,8.67382812 C81.9072266,8.09570023 81.7304705,7.6914074 81.3769531,7.4609375 C81.0234357,7.2304676 80.5322297,7.11523438 79.9033203,7.11523438 L79.7971191,7.11596679 L79.7971191,7.11596679 L79.4697266,7.12695312 L79.4697266,7.12695312 L79.4697266,6.1953125 L79.665039,6.21354167 L79.665039,6.21354167 L79.7451172,6.21875 C79.8193363,6.22265627 79.8994136,6.22460938 79.9853516,6.22460938 C80.3798848,6.22460938 80.7041003,6.16211 80.9580078,6.03710938 C81.4033225,5.81835828 81.6259766,5.42773719 81.6259766,4.86523438 C81.6259766,4.44726354 81.4775405,4.12500113 81.1806641,3.8984375 C80.8837876,3.67187387 80.5380879,3.55859375 80.1435547,3.55859375 C79.4404262,3.55859375 78.9541029,3.79296641 78.6845703,4.26171875 C78.5361321,4.51953254 78.4521485,4.88671637 78.4326172,5.36328125 L77.3896484,5.36328125 C77.3896484,4.73827812 77.5146472,4.20703344 77.7646484,3.76953125 C78.1943381,2.98827734 78.9501899,2.59765625 80.0322266,2.59765625 C80.8876996,2.59765625 81.5498023,2.78808403 82.0185547,3.16894531 C82.487307,3.54980659 82.7216797,4.10155889 82.7216797,4.82421875 C82.7216797,5.33984633 82.5830092,5.7578109 82.3056641,6.078125 C82.1337882,6.27734475 81.9111342,6.43359318 81.6376953,6.546875 C82.0791038,6.66796936 82.4238269,6.90136546 82.671875,7.24707031 C82.9199231,7.59277517 83.0439453,8.0156225 83.0439453,8.515625 C83.0439453,9.31641025 82.7802761,9.96874748 82.2529297,10.4726562 C81.7255833,10.976565 80.9775439,11.2285156 80.0087891,11.2285156 Z" id="TONE3"></path>
            </g>
            <g id="Out-Copy" transform="translate(85.000000, 48.000000)">
                <rect id="Rectangle" stroke="#F0ECEB" fill="#1D1D1D" x="0" y="0" width="40" height="29"></rect>
                <path d="M7.03369141,9.35546875 C7.39111507,9.35546875 7.67480364,9.22363413 7.88476562,8.95996094 C8.09472761,8.69628774 8.19970703,8.32129149 8.19970703,7.83496094 C8.19970703,7.35058352 8.09472761,6.97607554 7.88476562,6.71142578 C7.67480364,6.44677602 7.39111507,6.31445312 7.03369141,6.31445312 C6.67626774,6.31445312 6.39111435,6.44628774 6.17822266,6.70996094 C5.96533097,6.97363413 5.85888672,7.34863038 5.85888672,7.83496094 C5.85888672,8.32129149 5.96533097,8.69628774 6.17822266,8.95996094 C6.39111435,9.22363413 6.67626774,9.35546875 7.03369141,9.35546875 Z M9.10205078,7.83496094 C9.10205078,8.61035544 8.88427952,9.2040995 8.44873047,9.61621094 C8.12255696,9.95215012 7.65088199,10.1201172 7.03369141,10.1201172 C6.41650082,10.1201172 5.94482585,9.95215012 5.61865234,9.61621094 C5.18115016,9.2040995 4.96240234,8.61035544 4.96240234,7.83496094 C4.96240234,7.04394136 5.18115016,6.45019729 5.61865234,6.05371094 C5.94482585,5.71777176 6.41650082,5.54980469 7.03369141,5.54980469 C7.65088199,5.54980469 8.12255696,5.71777176 8.44873047,6.05371094 C8.88427952,6.45019729 9.10205078,7.04394136 9.10205078,7.83496094 Z M5.29052734,12.6816406 L6.20751953,12.6816406 L6.20751953,15.3359375 C6.20751953,15.632814 6.24267543,15.8496087 6.31298828,15.9863281 C6.42236383,16.2285168 6.6606427,16.3496094 7.02783203,16.3496094 C7.39306823,16.3496094 7.63037055,16.2285168 7.73974609,15.9863281 C7.81005895,15.8496087 7.84521484,15.632814 7.84521484,15.3359375 L7.84521484,12.6816406 L8.76220703,12.6816406 L8.76220703,15.3359375 C8.76220703,15.7949242 8.69091868,16.1523425 8.54833984,16.4082031 C8.28271352,16.8769555 7.77588265,17.1113281 7.02783203,17.1113281 C6.27978142,17.1113281 5.77197399,16.8769555 5.50439453,16.4082031 C5.36181569,16.1523425 5.29052734,15.7949242 5.29052734,15.3359375 L5.29052734,12.6816406 Z M8.76220703,19.6816406 L8.76220703,20.4462891 L7.47021484,20.4462891 L7.47021484,24 L6.56201172,24 L6.56201172,20.4462891 L5.26416016,20.4462891 L5.26416016,19.6816406 L8.76220703,19.6816406 Z" id="OUT" fill="#E1E1E1" fill-rule="nonzero"></path>
            </g>
        </g>
        <g id="tone2" transform="translate(9.000000, 108.000000)">
            <rect id="bg" stroke="#F0ECEB" fill="#DF252B" x="4" y="-2.84217094e-14" width="124" height="80"></rect>
            <g id="Freq" transform="translate(0.000000, 18.000000)" fill="#F0ECEB" fill-rule="nonzero">
                <path d="M50.2687988,51.5444336 L54.7468262,51.5444336 L54.7468262,52.3354492 L51.1433105,52.3354492 L51.1433105,54.2954102 L54.3117676,54.2954102 L54.3117676,55.0644531 L51.1433105,55.0644531 L51.1433105,58 L50.2687988,58 L50.2687988,51.5444336 Z M58.6843262,54.5019531 C59.0944845,54.5019531 59.4189441,54.4199227 59.6577148,54.2558594 C59.8964856,54.0917961 60.0158691,53.7958984 60.0158691,53.3681641 C60.0158691,52.9082008 59.8488786,52.5947274 59.5148926,52.4277344 C59.3361807,52.3398433 59.0974136,52.2958984 58.798584,52.2958984 L56.6628418,52.2958984 L56.6628418,54.5019531 L58.6843262,54.5019531 Z M55.7883301,51.5444336 L58.7766113,51.5444336 C59.2688013,51.5444336 59.674559,51.6162102 59.9938965,51.7597656 C60.6003448,52.0351576 60.9035645,52.5434533 60.9035645,53.284668 C60.9035645,53.6713887 60.8237313,53.9877917 60.6640625,54.2338867 C60.5043937,54.4799817 60.2810073,54.6777336 59.9938965,54.8271484 C60.2458509,54.929688 60.4355462,55.0644523 60.5629883,55.2314453 C60.6904303,55.3984383 60.7614745,55.6694317 60.776123,56.0444336 L60.8068848,56.9101562 C60.8156739,57.1562512 60.8361815,57.3393549 60.8684082,57.4594727 C60.9211428,57.6645518 61.0148919,57.7963864 61.1496582,57.8549805 L61.1496582,58 L60.0773926,58 C60.0480956,57.9443357 60.0246583,57.872559 60.0070801,57.784668 C59.9895019,57.6967769 59.9748536,57.5268567 59.9631348,57.2749023 L59.9104004,56.1982422 C59.8898925,55.7763651 59.7331558,55.4936531 59.4401855,55.3500977 C59.2731925,55.2709957 59.0109881,55.2314453 58.6535645,55.2314453 L56.6628418,55.2314453 L56.6628418,58 L55.7883301,58 L55.7883301,51.5444336 Z M70.9714355,51.3686523 C72.1110897,51.3686523 72.9548312,51.7348596 73.5026855,52.4672852 C73.9304221,53.0385771 74.1442871,53.7695268 74.1442871,54.6601562 C74.1442871,55.076174 74.0930181,55.4760723 73.9904785,55.8598633 C73.8352043,56.4458037 73.5729999,56.923338 73.2038574,57.2924805 L74.0915527,57.9824219 L73.6520996,58.5141602 L72.654541,57.7539062 C72.4143054,57.8857428 72.1542983,57.9912105 71.8745117,58.0703125 C71.5947252,58.1494145 71.2893083,58.1889648 70.958252,58.1889648 C69.9562938,58.1889648 69.1711454,57.8608431 68.6027832,57.2045898 C68.1018041,56.5659148 67.8513184,55.7661181 67.8513184,54.8051758 C67.8513184,53.9321245 68.0681131,53.1850617 68.501709,52.5639648 C69.0583524,51.7670859 69.8815863,51.3686523 70.9714355,51.3686523 Z M66.9724121,51.5444336 L66.9724121,52.3354492 L63.1184082,52.3354492 L63.1184082,54.2954102 L66.682373,54.2954102 L66.682373,55.0424805 L63.1184082,55.0424805 L63.1184082,57.230957 L67.0383301,57.230957 L67.0383301,58 L62.2658691,58 L62.2658691,51.5444336 L66.9724121,51.5444336 Z M71.0241699,52.1464844 C70.3269008,52.1464844 69.7746602,52.368406 69.3674316,52.8122559 C68.960203,53.2561057 68.7565918,53.9394485 68.7565918,54.8623047 C68.7565918,55.6386758 68.9521465,56.2568336 69.3432617,56.7167969 C69.734377,57.1767601 70.3078575,57.4067383 71.0637207,57.4067383 C71.2453622,57.4067383 71.4152824,57.3942872 71.5734863,57.3693848 C71.6921393,57.3507079 71.7992553,57.3184358 71.8948363,57.2725679 L71.9865723,57.222168 L71.2790527,56.668457 L71.7185059,56.1279297 L72.5622559,56.7827148 C72.8288588,56.4780258 73.0097651,56.1367206 73.1049805,55.7587891 C73.2001958,55.3808575 73.2478027,55.0190447 73.2478027,54.6733398 C73.2478027,53.914547 73.0493184,53.3037133 72.6523438,52.8408203 C72.2553691,52.3779274 71.7126499,52.1464844 71.0241699,52.1464844 Z" id="FREQ"></path>
            </g>
            <g id="attenuation-copy" transform="translate(89.000000, 10.000000)" fill="#F0ECEB" fill-rule="nonzero">
                <path d="M7.097,7 L4.997,2.065 L4.003,2.065 L1.903,7 L3.002,7 L3.45,5.901 L5.522,5.901 L5.97,7 L7.097,7 Z M5.137,4.949 L3.835,4.949 L4.486,3.36 L5.137,4.949 Z M6.53,9.094 L6.53,8.1 L2.47,8.1 L2.47,9.094 L3.961,9.094 L3.961,13 L5.039,13 L5.039,9.094 L6.53,9.094 Z M6.53,15.094 L5.039,15.094 L5.039,19 L3.961,19 L3.961,15.094 L2.47,15.094 L2.47,14.1 L6.53,14.1 L6.53,15.094 Z" id="ATT"></path>
            </g>
            <g id="VOCT" transform="translate(8.000000, 42.000000)" fill="#F0ECEB" fill-rule="nonzero">
                <path d="M7.78808594,0.961914062 L8.88183594,0.961914062 L7.16259766,6 L6.16796875,6 L4.46582031,0.961914062 L5.59033203,0.961914062 L6.68408203,4.78662109 L7.78808594,0.961914062 Z M10.5429688,0.808105469 L11.3530273,0.808105469 L9.39453125,6 L8.59130859,6 L10.5429688,0.808105469 Z M13.6806641,5.24804688 C14.0976583,5.24804688 14.4286283,5.09423982 14.673584,4.78662109 C14.9185396,4.47900237 15.0410156,4.04150674 15.0410156,3.47412109 C15.0410156,2.9090141 14.9185396,2.47208813 14.673584,2.16333008 C14.4286283,1.85457202 14.0976583,1.70019531 13.6806641,1.70019531 C13.2636698,1.70019531 12.9309908,1.85400237 12.6826172,2.16162109 C12.4342435,2.46923982 12.3100586,2.90673544 12.3100586,3.47412109 C12.3100586,4.04150674 12.4342435,4.47900237 12.6826172,4.78662109 C12.9309908,5.09423982 13.2636698,5.24804688 13.6806641,5.24804688 Z M16.09375,3.47412109 C16.09375,4.37874801 15.8396835,5.07144942 15.331543,5.55224609 C14.9510072,5.94417514 14.4007197,6.14013672 13.6806641,6.14013672 C12.9606084,6.14013672 12.4103209,5.94417514 12.0297852,5.55224609 C11.5193659,5.07144942 11.2641602,4.37874801 11.2641602,3.47412109 C11.2641602,2.55126492 11.5193659,1.85856351 12.0297852,1.39599609 C12.4103209,1.00406705 12.9606084,0.808105469 13.6806641,0.808105469 C14.4007197,0.808105469 14.9510072,1.00406705 15.331543,1.39599609 C15.8396835,1.85856351 16.09375,2.55126492 16.09375,3.47412109 Z M16.6782227,3.52197266 C16.6782227,2.64241097 16.9140601,1.96452061 17.3857422,1.48828125 C17.7959005,1.07356563 18.3177052,0.866210938 18.9511719,0.866210938 C19.7988324,0.866210938 20.4186178,1.14420295 20.8105469,1.70019531 C21.0270193,2.01237135 21.1432291,2.32568202 21.1591797,2.64013672 L20.1064453,2.64013672 C20.0380856,2.39859905 19.9503586,2.21630921 19.8432617,2.09326172 C19.6518545,1.87451062 19.3681659,1.76513672 18.9921875,1.76513672 C18.6093731,1.76513672 18.3074555,1.91951343 18.0864258,2.22827148 C17.865396,2.53702954 17.7548828,2.97395551 17.7548828,3.5390625 C17.7548828,4.10416949 17.8716622,4.52742372 18.1052246,4.80883789 C18.338787,5.09025206 18.6355776,5.23095703 18.9956055,5.23095703 C19.3647479,5.23095703 19.6461579,5.11019001 19.8398438,4.86865234 C19.9469406,4.73876888 20.0358069,4.54394661 20.1064453,4.28417969 L21.1489258,4.28417969 C21.0577795,4.83333608 20.8247903,5.2799462 20.4499512,5.62402344 C20.0751121,5.96810068 19.5948923,6.14013672 19.0092773,6.14013672 C18.2846643,6.14013672 17.7150086,5.90771717 17.300293,5.44287109 C16.8855774,4.97574636 16.6782227,4.33545329 16.6782227,3.52197266 Z M25.612793,0.961914062 L25.612793,1.85400391 L24.1054688,1.85400391 L24.1054688,6 L23.0458984,6 L23.0458984,1.85400391 L21.5317383,1.85400391 L21.5317383,0.961914062 L25.612793,0.961914062 Z" id="V/OCT"></path>
            </g>
            <g id="Mod" transform="translate(7.000000, 7.000000)" fill="#F0ECEB" fill-rule="nonzero">
                <path d="M11.738,6 L11.738,1.1 L10.576,1.1 L9.288,3.172 L8,1.1 L6.838,1.1 L6.838,6 L7.895,6 L7.895,2.822 L9.26,4.894 L9.288,4.894 L10.667,2.801 L10.667,6 L11.738,6 Z M17.905,3.55 L17.905,3.536 C17.905,2.143 16.82,1.016 15.308,1.016 C13.8541538,1.016 12.7821494,2.07091864 12.7018382,3.39043815 L12.697,3.564 C12.697,4.957 13.782,6.084 15.294,6.084 C16.806,6.084 17.905,4.943 17.905,3.55 Z M16.778,3.564 C16.778,4.404 16.176,5.09 15.308,5.09 C14.4882222,5.09 13.8932222,4.46561728 13.8296413,3.68860768 L13.824,3.536 C13.824,2.696 14.426,2.01 15.294,2.01 C16.1137778,2.01 16.7087778,2.63438272 16.7723587,3.41139232 L16.778,3.564 Z M23.379,3.55 L23.379,3.536 C23.379,2.157 22.315,1.1 20.775,1.1 L18.864,1.1 L18.864,6 L20.775,6 C22.315,6 23.379,4.929 23.379,3.55 Z M22.252,3.564 C22.252,4.432 21.657,5.027 20.775,5.027 L19.942,5.027 L19.942,2.073 L20.775,2.073 C21.6051176,2.073 22.1810069,2.61246021 22.2458862,3.39958335 L22.252,3.564 Z" id="MOD"></path>
            </g>
            <g id="Header" transform="translate(4.000000, 1.000000)" fill="#F0ECEB" fill-rule="nonzero">
                <path d="M47.6123047,2.39257812 L47.6123047,3.41796875 L44.7119141,3.41796875 L44.7119141,11 L43.5283203,11 L43.5283203,3.41796875 L40.6279297,3.41796875 L40.6279297,2.39257812 L47.6123047,2.39257812 Z M52.1826172,2.15820312 C53.702156,2.15820312 54.8271448,2.64647949 55.5576172,3.62304688 C56.1279325,4.38476943 56.4130859,5.35936906 56.4130859,6.546875 C56.4130859,7.83203768 56.0869173,8.90038637 55.4345703,9.75195312 C54.6689415,10.7519581 53.5771555,11.2519531 52.1591797,11.2519531 C50.8349543,11.2519531 49.7939491,10.8144575 49.0361328,9.93945312 C48.3603482,9.09569891 48.0224609,8.02930332 48.0224609,6.74023438 C48.0224609,5.57616605 48.3115205,4.58008227 48.8896484,3.75195312 C49.6318396,2.68944781 50.7294849,2.15820312 52.1826172,2.15820312 Z M52.2998047,10.2089844 C53.3271536,10.2089844 54.0703102,9.84082399 54.5292969,9.10449219 C54.9882835,8.36816038 55.2177734,7.52148916 55.2177734,6.56445312 C55.2177734,5.55272932 54.9531276,4.73828434 54.4238281,4.12109375 C53.8945286,3.50390316 53.170903,3.1953125 52.2529297,3.1953125 C51.3623002,3.1953125 50.635745,3.50097351 50.0732422,4.11230469 C49.5107394,4.72363587 49.2294922,5.62499404 49.2294922,6.81640625 C49.2294922,7.76953602 49.4707007,8.57323892 49.953125,9.22753906 C50.4355493,9.88183921 51.217768,10.2089844 52.2998047,10.2089844 Z M57.8017578,2.39257812 L59.1787109,2.39257812 L63.5263672,9.36523438 L63.5263672,2.39257812 L64.6337891,2.39257812 L64.6337891,11 L63.3271484,11 L58.9150391,4.03320312 L58.9150391,11 L57.8017578,11 L57.8017578,2.39257812 Z M66.5791016,2.39257812 L72.8544922,2.39257812 L72.8544922,3.44726562 L67.7158203,3.44726562 L67.7158203,6.06054688 L72.4677734,6.06054688 L72.4677734,7.05664062 L67.7158203,7.05664062 L67.7158203,9.97460938 L72.9423828,9.97460938 L72.9423828,11 L66.5791016,11 L66.5791016,2.39257812 Z M77.2666016,11 C77.3056643,10.2773401 77.4550768,9.64844018 77.7148438,9.11328125 C77.9746107,8.57812232 78.4814415,8.09179906 79.2353516,7.65429688 L80.3603516,7.00390625 C80.8642603,6.71093604 81.2177724,6.46093854 81.4208984,6.25390625 C81.7412125,5.92968588 81.9013672,5.55859584 81.9013672,5.140625 C81.9013672,4.65234131 81.7548843,4.26464987 81.4619141,3.97753906 C81.1689438,3.69042825 80.7783228,3.546875 80.2900391,3.546875 C79.5673792,3.546875 79.0673842,3.82030977 78.7900391,4.3671875 C78.6416008,4.66015771 78.5595704,5.06640365 78.5439453,5.5859375 L77.4716797,5.5859375 C77.4833985,4.8554651 77.6181628,4.25976793 77.8759766,3.79882812 C78.3330101,2.98632406 79.1396427,2.58007812 80.2958984,2.58007812 C81.2568407,2.58007812 81.9589822,2.83984115 82.4023438,3.359375 C82.8457053,3.87890885 83.0673828,4.45702807 83.0673828,5.09375 C83.0673828,5.76562836 82.8310571,6.33984137 82.3583984,6.81640625 C82.0849596,7.09375139 81.5947301,7.42968553 80.8876953,7.82421875 L80.0849609,8.26953125 C79.7021465,8.4804698 79.4013683,8.68163967 79.1826172,8.87304688 C78.7919902,9.21289232 78.5458989,9.58984168 78.4443359,10.0039062 L83.0263672,10.0039062 L83.0263672,11 L77.2666016,11 Z" id="TONE2"></path>
            </g>
            <g id="Out" transform="translate(85.000000, 48.000000)">
                <rect id="Rectangle" stroke="#F0ECEB" fill="#1D1D1D" x="0" y="0" width="40" height="29"></rect>
                <path d="M7.03369141,9.35546875 C7.39111507,9.35546875 7.67480364,9.22363413 7.88476562,8.95996094 C8.09472761,8.69628774 8.19970703,8.32129149 8.19970703,7.83496094 C8.19970703,7.35058352 8.09472761,6.97607554 7.88476562,6.71142578 C7.67480364,6.44677602 7.39111507,6.31445312 7.03369141,6.31445312 C6.67626774,6.31445312 6.39111435,6.44628774 6.17822266,6.70996094 C5.96533097,6.97363413 5.85888672,7.34863038 5.85888672,7.83496094 C5.85888672,8.32129149 5.96533097,8.69628774 6.17822266,8.95996094 C6.39111435,9.22363413 6.67626774,9.35546875 7.03369141,9.35546875 Z M9.10205078,7.83496094 C9.10205078,8.61035544 8.88427952,9.2040995 8.44873047,9.61621094 C8.12255696,9.95215012 7.65088199,10.1201172 7.03369141,10.1201172 C6.41650082,10.1201172 5.94482585,9.95215012 5.61865234,9.61621094 C5.18115016,9.2040995 4.96240234,8.61035544 4.96240234,7.83496094 C4.96240234,7.04394136 5.18115016,6.45019729 5.61865234,6.05371094 C5.94482585,5.71777176 6.41650082,5.54980469 7.03369141,5.54980469 C7.65088199,5.54980469 8.12255696,5.71777176 8.44873047,6.05371094 C8.88427952,6.45019729 9.10205078,7.04394136 9.10205078,7.83496094 Z M5.29052734,12.6816406 L6.20751953,12.6816406 L6.20751953,15.3359375 C6.20751953,15.632814 6.24267543,15.8496087 6.31298828,15.9863281 C6.42236383,16.2285168 6.6606427,16.3496094 7.02783203,16.3496094 C7.39306823,16.3496094 7.63037055,16.2285168 7.73974609,15.9863281 C7.81005895,15.8496087 7.84521484,15.632814 7.84521484,15.3359375 L7.84521484,12.6816406 L8.76220703,12.6816406 L8.76220703,15.3359375 C8.76220703,15.7949242 8.69091868,16.1523425 8.54833984,16.4082031 C8.28271352,16.8769555 7.77588265,17.1113281 7.02783203,17.1113281 C6.27978142,17.1113281 5.77197399,16.8769555 5.50439453,16.4082031 C5.36181569,16.1523425 5.29052734,15.7949242 5.29052734,15.3359375 L5.29052734,12.6816406 Z M8.76220703,19.6816406 L8.76220703,20.4462891 L7.47021484,20.4462891 L7.47021484,24 L6.56201172,24 L6.56201172,20.4462891 L5.26416016,20.4462891 L5.26416016,19.6816406 L8.76220703,19.6816406 Z" id="OUT" fill="#E1E1E1" fill-rule="nonzero"></path>
            </g>
        </g>
        <g id="tone1" transform="translate(9.000000, 23.000000)">
            <rect id="bg" stroke="#F0ECEB" fill="#DF252B" x="4" y="7.10542736e-15" width="124" height="80"></rect>
            <g id="Freq" transform="translate(0.000000, 19.000000)" fill="#F0ECEB" fill-rule="nonzero">
                <path d="M50.2687988,49.5444336 L54.7468262,49.5444336 L54.7468262,50.3354492 L51.1433105,50.3354492 L51.1433105,52.2954102 L54.3117676,52.2954102 L54.3117676,53.0644531 L51.1433105,53.0644531 L51.1433105,56 L50.2687988,56 L50.2687988,49.5444336 Z M58.6843262,52.5019531 C59.0944845,52.5019531 59.4189441,52.4199227 59.6577148,52.2558594 C59.8964856,52.0917961 60.0158691,51.7958984 60.0158691,51.3681641 C60.0158691,50.9082008 59.8488786,50.5947274 59.5148926,50.4277344 C59.3361807,50.3398433 59.0974136,50.2958984 58.798584,50.2958984 L56.6628418,50.2958984 L56.6628418,52.5019531 L58.6843262,52.5019531 Z M55.7883301,49.5444336 L58.7766113,49.5444336 C59.2688013,49.5444336 59.674559,49.6162102 59.9938965,49.7597656 C60.6003448,50.0351576 60.9035645,50.5434533 60.9035645,51.284668 C60.9035645,51.6713887 60.8237313,51.9877917 60.6640625,52.2338867 C60.5043937,52.4799817 60.2810073,52.6777336 59.9938965,52.8271484 C60.2458509,52.929688 60.4355462,53.0644523 60.5629883,53.2314453 C60.6904303,53.3984383 60.7614745,53.6694317 60.776123,54.0444336 L60.8068848,54.9101562 C60.8156739,55.1562512 60.8361815,55.3393549 60.8684082,55.4594727 C60.9211428,55.6645518 61.0148919,55.7963864 61.1496582,55.8549805 L61.1496582,56 L60.0773926,56 C60.0480956,55.9443357 60.0246583,55.872559 60.0070801,55.784668 C59.9895019,55.6967769 59.9748536,55.5268567 59.9631348,55.2749023 L59.9104004,54.1982422 C59.8898925,53.7763651 59.7331558,53.4936531 59.4401855,53.3500977 C59.2731925,53.2709957 59.0109881,53.2314453 58.6535645,53.2314453 L56.6628418,53.2314453 L56.6628418,56 L55.7883301,56 L55.7883301,49.5444336 Z M70.9714355,49.3686523 C72.1110897,49.3686523 72.9548312,49.7348596 73.5026855,50.4672852 C73.9304221,51.0385771 74.1442871,51.7695268 74.1442871,52.6601562 C74.1442871,53.076174 74.0930181,53.4760723 73.9904785,53.8598633 C73.8352043,54.4458037 73.5729999,54.923338 73.2038574,55.2924805 L74.0915527,55.9824219 L73.6520996,56.5141602 L72.654541,55.7539062 C72.4143054,55.8857428 72.1542983,55.9912105 71.8745117,56.0703125 C71.5947252,56.1494145 71.2893083,56.1889648 70.958252,56.1889648 C69.9562938,56.1889648 69.1711454,55.8608431 68.6027832,55.2045898 C68.1018041,54.5659148 67.8513184,53.7661181 67.8513184,52.8051758 C67.8513184,51.9321245 68.0681131,51.1850617 68.501709,50.5639648 C69.0583524,49.7670859 69.8815863,49.3686523 70.9714355,49.3686523 Z M66.9724121,49.5444336 L66.9724121,50.3354492 L63.1184082,50.3354492 L63.1184082,52.2954102 L66.682373,52.2954102 L66.682373,53.0424805 L63.1184082,53.0424805 L63.1184082,55.230957 L67.0383301,55.230957 L67.0383301,56 L62.2658691,56 L62.2658691,49.5444336 L66.9724121,49.5444336 Z M71.0241699,50.1464844 C70.3269008,50.1464844 69.7746602,50.368406 69.3674316,50.8122559 C68.960203,51.2561057 68.7565918,51.9394485 68.7565918,52.8623047 C68.7565918,53.6386758 68.9521465,54.2568336 69.3432617,54.7167969 C69.734377,55.1767601 70.3078575,55.4067383 71.0637207,55.4067383 C71.2453622,55.4067383 71.4152824,55.3942872 71.5734863,55.3693848 C71.6921393,55.3507079 71.7992553,55.3184358 71.8948363,55.2725679 L71.9865723,55.222168 L71.2790527,54.668457 L71.7185059,54.1279297 L72.5622559,54.7827148 C72.8288588,54.4780258 73.0097651,54.1367206 73.1049805,53.7587891 C73.2001958,53.3808575 73.2478027,53.0190447 73.2478027,52.6733398 C73.2478027,51.914547 73.0493184,51.3037133 72.6523438,50.8408203 C72.2553691,50.3779274 71.7126499,50.1464844 71.0241699,50.1464844 Z" id="FREQ"></path>
            </g>
            <g id="Out" transform="translate(85.000000, 48.000000)">
                <rect id="Rectangle" stroke="#F0ECEB" fill="#1D1D1D" x="0" y="0" width="40" height="29"></rect>
                <path d="M7.03369141,9.35546875 C7.39111507,9.35546875 7.67480364,9.22363413 7.88476562,8.95996094 C8.09472761,8.69628774 8.19970703,8.32129149 8.19970703,7.83496094 C8.19970703,7.35058352 8.09472761,6.97607554 7.88476562,6.71142578 C7.67480364,6.44677602 7.39111507,6.31445312 7.03369141,6.31445312 C6.67626774,6.31445312 6.39111435,6.44628774 6.17822266,6.70996094 C5.96533097,6.97363413 5.85888672,7.34863038 5.85888672,7.83496094 C5.85888672,8.32129149 5.96533097,8.69628774 6.17822266,8.95996094 C6.39111435,9.22363413 6.67626774,9.35546875 7.03369141,9.35546875 Z M9.10205078,7.83496094 C9.10205078,8.61035544 8.88427952,9.2040995 8.44873047,9.61621094 C8.12255696,9.95215012 7.65088199,10.1201172 7.03369141,10.1201172 C6.41650082,10.1201172 5.94482585,9.95215012 5.61865234,9.61621094 C5.18115016,9.2040995 4.96240234,8.61035544 4.96240234,7.83496094 C4.96240234,7.04394136 5.18115016,6.45019729 5.61865234,6.05371094 C5.94482585,5.71777176 6.41650082,5.54980469 7.03369141,5.54980469 C7.65088199,5.54980469 8.12255696,5.71777176 8.44873047,6.05371094 C8.88427952,6.45019729 9.10205078,7.04394136 9.10205078,7.83496094 Z M5.29052734,12.6816406 L6.20751953,12.6816406 L6.20751953,15.3359375 C6.20751953,15.632814 6.24267543,15.8496087 6.31298828,15.9863281 C6.42236383,16.2285168 6.6606427,16.3496094 7.02783203,16.3496094 C7.39306823,16.3496094 7.63037055,16.2285168 7.73974609,15.9863281 C7.81005895,15.8496087 7.84521484,15.632814 7.84521484,15.3359375 L7.84521484,12.6816406 L8.76220703,12.6816406 L8.76220703,15.3359375 C8.76220703,15.7949242 8.69091868,16.1523425 8.54833984,16.4082031 C8.28271352,16.8769555 7.77588265,17.1113281 7.02783203,17.1113281 C6.27978142,17.1113281 5.77197399,16.8769555 5.50439453,16.4082031 C5.36181569,16.1523425 5.29052734,15.7949242 5.29052734,15.3359375 L5.29052734,12.6816406 Z M8.76220703,19.6816406 L8.76220703,20.4462891 L7.47021484,20.4462891 L7.47021484,24 L6.56201172,24 L6.56201172,20.4462891 L5.26416016,20.4462891 L5.26416016,19.6816406 L8.76220703,19.6816406 Z" id="OUT" fill="#E1E1E1" fill-rule="nonzero"></path>
            </g>
            <g id="attenuation-copy-2" transform="translate(89.000000, 10.000000)" fill="#F0ECEB" fill-rule="nonzero">
                <path d="M7.097,7 L4.997,2.065 L4.003,2.065 L1.903,7 L3.002,7 L3.45,5.901 L5.522,5.901 L5.97,7 L7.097,7 Z M5.137,4.949 L3.835,4.949 L4.486,3.36 L5.137,4.949 Z M6.53,9.094 L6.53,8.1 L2.47,8.1 L2.47,9.094 L3.961,9.094 L3.961,13 L5.039,13 L5.039,9.094 L6.53,9.094 Z M6.53,15.094 L5.039,15.094 L5.039,19 L3.961,19 L3.961,15.094 L2.47,15.094 L2.47,14.1 L6.53,14.1 L6.53,15.094 Z" id="ATT"></path>
            </g>
            <g id="VOCT" transform="translate(8.000000, 42.000000)" fill="#F0ECEB" fill-rule="nonzero">
                <path d="M7.78808594,0.961914062 L8.88183594,0.961914062 L7.16259766,6 L6.16796875,6 L4.46582031,0.961914062 L5.59033203,0.961914062 L6.68408203,4.78662109 L7.78808594,0.961914062 Z M10.5429688,0.808105469 L11.3530273,0.808105469 L9.39453125,6 L8.59130859,6 L10.5429688,0.808105469 Z M13.6806641,5.24804688 C14.0976583,5.24804688 14.4286283,5.09423982 14.673584,4.78662109 C14.9185396,4.47900237 15.0410156,4.04150674 15.0410156,3.47412109 C15.0410156,2.9090141 14.9185396,2.47208813 14.673584,2.16333008 C14.4286283,1.85457202 14.0976583,1.70019531 13.6806641,1.70019531 C13.2636698,1.70019531 12.9309908,1.85400237 12.6826172,2.16162109 C12.4342435,2.46923982 12.3100586,2.90673544 12.3100586,3.47412109 C12.3100586,4.04150674 12.4342435,4.47900237 12.6826172,4.78662109 C12.9309908,5.09423982 13.2636698,5.24804688 13.6806641,5.24804688 Z M16.09375,3.47412109 C16.09375,4.37874801 15.8396835,5.07144942 15.331543,5.55224609 C14.9510072,5.94417514 14.4007197,6.14013672 13.6806641,6.14013672 C12.9606084,6.14013672 12.4103209,5.94417514 12.0297852,5.55224609 C11.5193659,5.07144942 11.2641602,4.37874801 11.2641602,3.47412109 C11.2641602,2.55126492 11.5193659,1.85856351 12.0297852,1.39599609 C12.4103209,1.00406705 12.9606084,0.808105469 13.6806641,0.808105469 C14.4007197,0.808105469 14.9510072,1.00406705 15.331543,1.39599609 C15.8396835,1.85856351 16.09375,2.55126492 16.09375,3.47412109 Z M16.6782227,3.52197266 C16.6782227,2.64241097 16.9140601,1.96452061 17.3857422,1.48828125 C17.7959005,1.07356563 18.3177052,0.866210938 18.9511719,0.866210938 C19.7988324,0.866210938 20.4186178,1.14420295 20.8105469,1.70019531 C21.0270193,2.01237135 21.1432291,2.32568202 21.1591797,2.64013672 L20.1064453,2.64013672 C20.0380856,2.39859905 19.9503586,2.21630921 19.8432617,2.09326172 C19.6518545,1.87451062 19.3681659,1.76513672 18.9921875,1.76513672 C18.6093731,1.76513672 18.3074555,1.91951343 18.0864258,2.22827148 C17.865396,2.53702954 17.7548828,2.97395551 17.7548828,3.5390625 C17.7548828,4.10416949 17.8716622,4.52742372 18.1052246,4.80883789 C18.338787,5.09025206 18.6355776,5.23095703 18.9956055,5.23095703 C19.3647479,5.23095703 19.6461579,5.11019001 19.8398438,4.86865234 C19.9469406,4.73876888 20.0358069,4.54394661 20.1064453,4.28417969 L21.1489258,4.28417969 C21.0577795,4.83333608 20.8247903,5.2799462 20.4499512,5.62402344 C20.0751121,5.96810068 19.5948923,6.14013672 19.0092773,6.14013672 C18.2846643,6.14013672 17.7150086,5.90771717 17.300293,5.44287109 C16.8855774,4.97574636 16.6782227,4.33545329 16.6782227,3.52197266 Z M25.612793,0.961914062 L25.612793,1.85400391 L24.1054688,1.85400391 L24.1054688,6 L23.0458984,6 L23.0458984,1.85400391 L21.5317383,1.85400391 L21.5317383,0.961914062 L25.612793,0.961914062 Z" id="V/OCT"></path>
            </g>
            <g id="Mod" transform="translate(7.000000, 7.000000)" fill="#F0ECEB" fill-rule="nonzero">
                <path d="M11.738,6 L11.738,1.1 L10.576,1.1 L9.288,3.172 L8,1.1 L6.838,1.1 L6.838,6 L7.895,6 L7.895,2.822 L9.26,4.894 L9.288,4.894 L10.667,2.801 L10.667,6 L11.738,6 Z M17.905,3.55 L17.905,3.536 C17.905,2.143 16.82,1.016 15.308,1.016 C13.8541538,1.016 12.7821494,2.07091864 12.7018382,3.39043815 L12.697,3.564 C12.697,4.957 13.782,6.084 15.294,6.084 C16.806,6.084 17.905,4.943 17.905,3.55 Z M16.778,3.564 C16.778,4.404 16.176,5.09 15.308,5.09 C14.4882222,5.09 13.8932222,4.46561728 13.8296413,3.68860768 L13.824,3.536 C13.824,2.696 14.426,2.01 15.294,2.01 C16.1137778,2.01 16.7087778,2.63438272 16.7723587,3.41139232 L16.778,3.564 Z M23.379,3.55 L23.379,3.536 C23.379,2.157 22.315,1.1 20.775,1.1 L18.864,1.1 L18.864,6 L20.775,6 C22.315,6 23.379,4.929 23.379,3.55 Z M22.252,3.564 C22.252,4.432 21.657,5.027 20.775,5.027 L19.942,5.027 L19.942,2.073 L20.775,2.073 C21.6051176,2.073 22.1810069,2.61246021 22.2458862,3.39958335 L22.252,3.564 Z" id="MOD"></path>
            </g>
            <g id="Header" transform="translate(4.000000, 1.000000)" fill="#F0ECEB" fill-rule="nonzero">
                <path d="M47.6123047,2.39257812 L47.6123047,3.41796875 L44.7119141,3.41796875 L44.7119141,11 L43.5283203,11 L43.5283203,3.41796875 L40.6279297,3.41796875 L40.6279297,2.39257812 L47.6123047,2.39257812 Z M52.1826172,2.15820312 C53.702156,2.15820312 54.8271448,2.64647949 55.5576172,3.62304688 C56.1279325,4.38476943 56.4130859,5.35936906 56.4130859,6.546875 C56.4130859,7.83203768 56.0869173,8.90038637 55.4345703,9.75195312 C54.6689415,10.7519581 53.5771555,11.2519531 52.1591797,11.2519531 C50.8349543,11.2519531 49.7939491,10.8144575 49.0361328,9.93945312 C48.3603482,9.09569891 48.0224609,8.02930332 48.0224609,6.74023438 C48.0224609,5.57616605 48.3115205,4.58008227 48.8896484,3.75195312 C49.6318396,2.68944781 50.7294849,2.15820312 52.1826172,2.15820312 Z M52.2998047,10.2089844 C53.3271536,10.2089844 54.0703102,9.84082399 54.5292969,9.10449219 C54.9882835,8.36816038 55.2177734,7.52148916 55.2177734,6.56445312 C55.2177734,5.55272932 54.9531276,4.73828434 54.4238281,4.12109375 C53.8945286,3.50390316 53.170903,3.1953125 52.2529297,3.1953125 C51.3623002,3.1953125 50.635745,3.50097351 50.0732422,4.11230469 C49.5107394,4.72363587 49.2294922,5.62499404 49.2294922,6.81640625 C49.2294922,7.76953602 49.4707007,8.57323892 49.953125,9.22753906 C50.4355493,9.88183921 51.217768,10.2089844 52.2998047,10.2089844 Z M57.8017578,2.39257812 L59.1787109,2.39257812 L63.5263672,9.36523438 L63.5263672,2.39257812 L64.6337891,2.39257812 L64.6337891,11 L63.3271484,11 L58.9150391,4.03320312 L58.9150391,11 L57.8017578,11 L57.8017578,2.39257812 Z M66.5791016,2.39257812 L72.8544922,2.39257812 L72.8544922,3.44726562 L67.7158203,3.44726562 L67.7158203,6.06054688 L72.4677734,6.06054688 L72.4677734,7.05664062 L67.7158203,7.05664062 L67.7158203,9.97460938 L72.9423828,9.97460938 L72.9423828,11 L66.5791016,11 L66.5791016,2.39257812 Z M78.0400391,5.05859375 L78.0400391,4.25 C78.8017616,4.17578088 79.3330063,4.05175868 79.6337891,3.87792969 C79.9345718,3.70410069 80.1591789,3.29297199 80.3076172,2.64453125 L81.1396484,2.64453125 L81.1396484,11 L80.0146484,11 L80.0146484,5.05859375 L78.0400391,5.05859375 Z" id="TONE1"></path>
            </g>
        </g>
    </g>
</svg>