<?xml version="1.0" encoding="UTF-8"?>
<svg width="150px" height="380px" viewBox="0 0 150 380" version="1.1" xmlns="http://www.w3.org/2000/svg" xmlns:xlink="http://www.w3.org/1999/xlink">
    <!-- Generator: Sketch 58 (84663) - https://sketch.com -->
    <title>SN76489</title>
    <desc>Created with Sketch.</desc>
    <g id="SN76489" stroke="none" stroke-width="1" fill="none" fill-rule="evenodd">
        <g id="bg">
            <rect id="cover" fill="#1D1D1D" x="0" y="0" width="150" height="380" rx="2"></rect>
            <g id="Logo/Panel/DarkMode" transform="translate(43.000000, 364.000000)" fill="#FFFFFF" fill-rule="nonzero">
                <g id="Logo/Print/DarkMode">
                    <path d="M1.95775432,2.29858118 L3.38562168,2.29858118 L3.38562168,4.99672234 L6.06699634,2.29858118 L7.94254488,2.29858118 L5.09623504,4.99672234 L8.08863032,8.85057471 L6.22250665,8.85057471 L4.0783494,5.98796695 L3.38562168,6.65916846 L3.38562168,8.85057471 L1.95775432,8.85057471 L1.95775432,2.29858118 Z M11.6276679,6.49470187 C11.5428437,6.54507927 11.4572353,6.5858251 11.3708403,6.61694055 C11.2844452,6.64805601 11.1658502,6.6769485 11.0150515,6.70361889 L10.7134558,6.75695941 C10.4307084,6.80437344 10.2280757,6.86215842 10.1055519,6.93031609 C9.89820375,7.04588779 9.79453125,7.2251694 9.79453125,7.46816631 C9.79453125,7.68449282 9.85814847,7.84080861 9.98538481,7.93711835 C10.1126211,8.0334281 10.2673445,8.08158226 10.4495595,8.08158226 C10.7385902,8.08158226 11.00484,8.00157228 11.248317,7.84154993 C11.4917939,7.68152758 11.618243,7.38963933 11.6276679,6.96587644 L11.6276679,6.49470187 Z M10.8124169,5.90351114 C11.0606051,5.87387737 11.2381062,5.83683571 11.3449219,5.79238506 C11.5365618,5.71533726 11.6323803,5.59532229 11.6323803,5.43233657 C11.6323803,5.23379031 11.5593383,5.09673619 11.4132522,5.02117008 C11.267166,4.94560397 11.0527524,4.90782148 10.770005,4.90782148 C10.4526995,4.90782148 10.2280758,4.98190479 10.096127,5.13007364 C10.0018779,5.23971858 9.93904603,5.3878852 9.90762965,5.57457795 L8.61171044,5.57457795 C8.63998518,5.15081505 8.76564882,4.80262349 8.98870512,4.52999282 C9.34371022,4.10326654 9.95317886,3.88990661 10.8171293,3.88990661 C11.3794825,3.88990661 11.8789955,3.99510491 12.3156832,4.20550467 C12.7523709,4.41590443 12.9707114,4.81299097 12.9707114,5.39677622 L12.9707114,7.61929777 C12.9707114,7.77339337 12.973853,7.96008331 12.9801363,8.1793732 C12.9895612,8.34532231 13.0162647,8.45792894 13.0602477,8.51719648 C13.1042306,8.57646402 13.170204,8.625359 13.2581699,8.6638829 L13.2581699,8.85057471 L11.7973155,8.85057471 C11.7564742,8.75278328 11.7281999,8.66091997 11.7124917,8.57498204 C11.6967835,8.48904411 11.6842171,8.39125414 11.6747922,8.2816092 C11.4894356,8.47126532 11.2758074,8.63276693 11.0339013,8.76611889 C10.7448706,8.92317787 10.4181451,9.00170618 10.0537151,9.00170618 C9.58875266,9.00170618 9.20469317,8.87650538 8.9015251,8.62610004 C8.59835703,8.37569469 8.44677527,8.02083563 8.44677527,7.56151221 C8.44677527,6.96587346 8.69024856,6.53470859 9.17720246,6.26800467 C9.44424169,6.1227992 9.83694056,6.01908257 10.3553108,5.95685165 L10.8124169,5.90351114 Z M15.5012882,4.00547773 L15.5012882,6.92587105 C15.5012882,7.2014651 15.5358457,7.40889837 15.6049618,7.54817708 C15.7274857,7.79413736 15.9678174,7.91711566 16.3259641,7.91711566 C16.7846433,7.91711566 17.0988023,7.74227905 17.2684508,7.39260057 C17.3564167,7.20294445 17.4003989,6.95254286 17.4003989,6.64138829 L17.4003989,4.00547773 L18.7622922,4.00547773 L18.7622922,8.85057471 L17.4569481,8.85057471 L17.4569481,8.16603807 L17.4405489,8.18737424 C17.4238355,8.21019205 17.3978858,8.24753027 17.3626995,8.29938937 C17.3124333,8.37347379 17.252743,8.4386671 17.183627,8.49497126 C16.9731372,8.67277388 16.7697192,8.79427051 16.5733669,8.8594648 C16.3770145,8.92465909 16.1468929,8.95725575 15.8829953,8.95725575 C15.1227189,8.95725575 14.6106396,8.69944583 14.346742,8.18381825 C14.199085,7.89933407 14.1252576,7.48002253 14.1252576,6.92587105 L14.1252576,4.00547773 L15.5012882,4.00547773 Z M19.5304189,4.95227191 L19.5304189,4.04992816 L20.2467088,4.04992816 L20.2467088,2.69863506 L21.575615,2.69863506 L21.575615,4.04992816 L22.4097158,4.04992816 L22.4097158,4.95227191 L21.575615,4.95227191 L21.575615,7.51261674 C21.575615,7.71116299 21.6023185,7.83488212 21.6557264,7.88377784 C21.7091342,7.93267356 21.872497,7.95712105 22.1458195,7.95712105 C22.1866608,7.95712105 22.2298577,7.95638022 22.2754114,7.95489853 C22.3209652,7.95341684 22.3657328,7.95119434 22.4097158,7.94823096 L22.4097158,8.89502514 L21.7735372,8.91725036 C21.1389263,8.937994 20.7053868,8.83427736 20.4729056,8.60609734 C20.322107,8.46089187 20.2467088,8.23716028 20.2467088,7.93489583 L20.2467088,4.95227191 L19.5304189,4.95227191 Z M25.2984375,4.92115661 C24.9874153,4.92115661 24.7462982,5.01301991 24.575079,5.19674928 C24.4038597,5.38047865 24.2962602,5.62939857 24.2522773,5.94351652 L26.3398853,5.94351652 C26.3178938,5.60865493 26.2102944,5.35454918 26.0170836,5.18119163 C25.8238729,5.00783408 25.5843266,4.92115661 25.2984375,4.92115661 Z M25.2984375,3.87657148 C25.7257003,3.87657148 26.1105452,3.95213646 26.4529837,4.10326868 C26.7954223,4.2544009 27.0781654,4.49294916 27.3012217,4.81892062 C27.5022866,5.10636818 27.6326626,5.43974307 27.6923537,5.81905532 C27.7269117,6.04130858 27.7410489,6.36134849 27.7347656,6.77918463 L24.2192902,6.77918463 C24.2381401,7.26517844 24.399932,7.60596167 24.7046709,7.80154454 C24.8900275,7.92304299 25.1130805,7.98379131 25.3738364,7.98379131 C25.6503006,7.98379131 25.8749243,7.909708 26.0477144,7.76153915 C26.1419636,7.68152798 26.2252157,7.57040301 26.2974734,7.42816092 L27.6687916,7.42816092 C27.6342335,7.71560848 27.4755832,8.00749672 27.1928358,8.30383441 C26.7530064,8.77501134 26.1372546,9.01059626 25.3455618,9.01059626 C24.6921011,9.01059626 24.1156192,8.81205299 23.6160987,8.41496049 C23.1165783,8.01786799 22.8668218,7.37186151 22.8668218,6.4769217 C22.8668218,5.63828604 23.092231,4.9952429 23.543056,4.54777299 C23.9938811,4.10030308 24.5790024,3.87657148 25.2984375,3.87657148 Z M31.4858627,3.88990661 C32.0167995,3.88990661 32.4511245,4.02103407 32.7888506,4.28329292 C33.1265767,4.54555178 33.2954372,4.98042081 33.2954372,5.58791307 L33.2954372,8.85057471 L31.9194066,8.85057471 L31.9194066,5.90351114 C31.9194066,5.64866072 31.8832783,5.45308078 31.8110206,5.31676545 C31.6790718,5.06784179 31.4277445,4.94338182 31.0570313,4.94338182 C30.6014937,4.94338182 30.2889054,5.12562677 30.119257,5.49012213 C30.0312911,5.68274162 29.9873088,5.92869822 29.9873088,6.22799928 L29.9873088,8.85057471 L28.6489777,8.85057471 L28.6489777,4.01436782 L29.9448969,4.01436782 L29.9448969,4.72112967 C30.117687,4.47220601 30.2810498,4.2929244 30.43499,4.18327945 C30.7114542,3.98769658 31.0617416,3.88990661 31.4858627,3.88990661 Z M35.9391124,3.42762213 L34.5960688,3.42762213 L34.5960688,2.25857579 L35.9391124,2.25857579 L35.9391124,3.42762213 Z M33.9504654,10.7930585 L33.9504654,9.77958872 L34.0978762,9.79004152 L34.0978762,9.79004152 L34.1106882,9.79070133 C34.1421045,9.79218302 34.1703789,9.79292385 34.195512,9.79292385 C34.3274608,9.79292385 34.4272063,9.76254969 34.4947515,9.70180047 C34.5622967,9.64105124 34.5960688,9.52325878 34.5960688,9.34841954 L34.5960688,4.02770295 L35.9391124,4.02770295 L35.9391124,9.37064476 C35.9391124,9.85960194 35.8370107,10.2211285 35.6328042,10.4552353 C35.435185,10.6817902 35.0536827,10.7987202 34.4882863,10.8060283 L34.4311336,10.8063937 C34.4077958,10.8063937 34.3780467,10.8059099 34.341886,10.8049422 L34.0479841,10.7955986 C34.0170809,10.7947519 33.9845746,10.7939052 33.9504654,10.7930585 Z M40.0483544,6.49470187 C39.9635302,6.54507927 39.8779218,6.5858251 39.7915268,6.61694055 C39.7051317,6.64805601 39.5865367,6.6769485 39.435738,6.70361889 L39.1341423,6.75695941 C38.8513949,6.80437344 38.6487622,6.86215842 38.5262384,6.93031609 C38.3188903,7.04588779 38.2152178,7.2251694 38.2152178,7.46816631 C38.2152178,7.68449282 38.278835,7.84080861 38.4060713,7.93711835 C38.5333077,8.0334281 38.688031,8.08158226 38.870246,8.08158226 C39.1592767,8.08158226 39.4255265,8.00157228 39.6690035,7.84154993 C39.9124804,7.68152758 40.0389295,7.38963933 40.0483544,6.96587644 L40.0483544,6.49470187 Z M39.2331034,5.90351114 C39.4812916,5.87387737 39.6587927,5.83683571 39.7656084,5.79238506 C39.9572483,5.71533726 40.0530668,5.59532229 40.0530668,5.43233657 C40.0530668,5.23379031 39.9800248,5.09673619 39.8339387,5.02117008 C39.6878525,4.94560397 39.4734389,4.90782148 39.1906915,4.90782148 C38.873386,4.90782148 38.6487623,4.98190479 38.5168135,5.13007364 C38.4225644,5.23971858 38.3597325,5.3878852 38.3283162,5.57457795 L37.0323969,5.57457795 C37.0606717,5.15081505 37.1863353,4.80262349 37.4093916,4.52999282 C37.7643967,4.10326654 38.3738654,3.88990661 39.2378158,3.88990661 C39.800169,3.88990661 40.299682,3.99510491 40.7363697,4.20550467 C41.1730574,4.41590443 41.3913979,4.81299097 41.3913979,5.39677622 L41.3913979,7.61929777 C41.3913979,7.77339337 41.3945395,7.96008331 41.4008228,8.1793732 C41.4102477,8.34532231 41.4369512,8.45792894 41.4809342,8.51719648 C41.5249171,8.57646402 41.5908905,8.625359 41.6788564,8.6638829 L41.6788564,8.85057471 L40.218002,8.85057471 C40.1771607,8.75278328 40.1488864,8.66091997 40.1331782,8.57498204 C40.11747,8.48904411 40.1049036,8.39125414 40.0954787,8.2816092 C39.9101221,8.47126532 39.6964939,8.63276693 39.4545878,8.76611889 C39.1655571,8.92317787 38.8388316,9.00170618 38.4744016,9.00170618 C38.0094392,9.00170618 37.6253797,8.87650538 37.3222116,8.62610004 C37.0190435,8.37569469 36.8674618,8.02083563 36.8674618,7.56151221 C36.8674618,6.96587346 37.1109351,6.53470859 37.597889,6.26800467 C37.8649282,6.1227992 38.2576271,6.01908257 38.7759973,5.95685165 L39.2331034,5.90351114 Z M44.1010472,3.43651221 L44.1010472,7.71264368 L45.4393783,7.71264368 C46.1242554,7.71264368 46.6017772,7.39408544 46.8719581,6.75695941 C47.0196151,6.40728094 47.0934425,5.99093273 47.0934425,5.5079023 C47.0934425,4.8411425 46.9827014,4.32922682 46.7612159,3.97213991 C46.5397304,3.61505299 46.0991223,3.43651221 45.4393783,3.43651221 L44.1010472,3.43651221 Z M45.6844249,2.29858118 C46.1148293,2.30450793 46.4729706,2.35192125 46.7588597,2.44082256 C47.2458136,2.59195478 47.6400833,2.86902636 47.9416805,3.27204562 C48.1835866,3.59801708 48.3485202,3.95065364 48.436486,4.32996588 C48.5244519,4.70927812 48.5684342,5.07080467 48.5684342,5.41455639 C48.5684342,6.2857892 48.3830803,7.02365897 48.012367,7.62818786 C47.5097049,8.4431165 46.733732,8.85057471 45.6844249,8.85057471 L42.6920296,8.85057471 L42.6920296,2.29858118 L45.6844249,2.29858118 Z M50.7125914,6.8280801 C50.7565744,7.12738117 50.8429681,7.35111276 50.9717753,7.49928161 C51.2073981,7.76894891 51.6110926,7.90378053 52.1828707,7.90378053 C52.5253092,7.90378053 52.80334,7.86822054 53.0169714,7.7970995 C53.4222427,7.66078416 53.6248753,7.40741924 53.6248753,7.03699713 C53.6248753,6.82067061 53.5243444,6.65324233 53.3232796,6.53470726 C53.132268,6.42491414 52.8377712,6.32715743 52.4397811,6.24143448 L51.6409408,6.07242277 C50.9183641,5.91832717 50.4188511,5.75089889 50.142387,5.5701329 C49.6742829,5.26786846 49.4402344,4.79521694 49.4402344,4.15216415 C49.4402344,3.56541553 49.6664289,3.07794734 50.1188248,2.68974497 C50.5712207,2.3015426 51.2356672,2.10744432 52.1121842,2.10744432 C52.8441858,2.10744432 53.468577,2.2904301 53.9853765,2.65640715 C54.502176,3.02238419 54.7731382,3.55356153 54.7982713,4.2499551 L53.403391,4.2499551 C53.3782579,3.85582597 53.1960456,3.57579106 52.8567487,3.40984195 C52.6305507,3.30019701 52.3493783,3.24537536 52.0132231,3.24537536 C51.6393681,3.24537536 51.340917,3.31649534 51.1178607,3.45873743 C50.8948044,3.60097952 50.7832779,3.79952279 50.7832779,4.0543732 C50.7832779,4.27783876 50.8834648,4.4472999 51.0838415,4.56276117 L51.1131483,4.57888829 C51.248867,4.65285418 51.5322436,4.73910853 51.9632861,4.83765375 L53.2148936,5.12118355 C53.7395472,5.23971862 54.1353876,5.39825691 54.4024269,5.59680316 C54.8171231,5.90499436 55.0244681,6.35097589 55.0244681,6.93476114 C55.0244681,7.53336327 54.7817802,8.03046228 54.2963971,8.4260731 C53.811014,8.82168391 53.1253618,9.01948635 52.2394199,9.01948635 C51.3346281,9.01948635 50.6230578,8.82464724 50.1046875,8.43496318 C49.5863172,8.04527912 49.327136,7.50965678 49.327136,6.8280801 L50.7125914,6.8280801 Z M60.0102227,4.38330639 C60.0102227,4.04251805 59.9151896,3.79952479 59.7251205,3.65431932 C59.5350514,3.50911386 59.2688016,3.43651221 58.926363,3.43651221 L57.5738946,3.43651221 L57.5738946,5.36566092 L58.926363,5.36566092 C59.2688016,5.36566092 59.5350514,5.28713261 59.7251205,5.13007364 C59.9151896,4.97301466 60.0102227,4.72409474 60.0102227,4.38330639 Z M61.447515,4.37441631 C61.447515,5.14785767 61.24017,5.69459251 60.8254737,6.01463721 C60.4107775,6.33468192 59.8185876,6.49470187 59.0488863,6.49470187 L57.5738946,6.49470187 L57.5738946,8.85057471 L56.13189,8.85057471 L56.13189,2.29858118 L59.1572723,2.29858118 C59.8547159,2.29858118 60.4107775,2.46749113 60.8254737,2.80531609 C61.24017,3.14314106 61.447515,3.66616923 61.447515,4.37441631 Z" id="KautenjaDSP"></path>
                </g>
            </g>
            <path d="M44.184,13.742 L44.184,13.706 C44.184,11.9292258 43.0376941,10.894179 40.3209273,10.2909001 L40.044,10.232 C37.149375,9.639125 36.417,8.86043164 36.3740533,7.60135559 L36.372,7.442 C36.372,6.128 37.596,5.066 39.45,5.066 C40.836,5.066 42.024,5.462 43.212,6.488 L43.806,5.75 C42.528,4.724 41.322,4.22 39.486,4.22 C37.2214839,4.22 35.5469781,5.56859521 35.4413019,7.35222114 L35.436,7.568 C35.436,9.41445161 36.5823059,10.4348887 39.3969547,11.0534661 L39.684,11.114 C42.4536774,11.6714194 43.200462,12.4142706 43.2457596,13.6688266 L43.248,13.832 C43.248,15.272 41.952,16.334 40.062,16.334 C38.208,16.334 36.93,15.74 35.544,14.462 L34.932,15.164 C36.444,16.514 37.992,17.18 40.008,17.18 C42.438,17.18 44.184,15.776 44.184,13.742 Z M57.738,17 L57.738,4.4 L56.838,4.4 L56.838,15.362 L48.144,4.4 L47.262,4.4 L47.262,17 L48.162,17 L48.162,5.804 L57.036,17 L57.738,17 Z M60.834,5.3 L68.142,5.3 L62.418,17 L63.444,17 L69.186,5.084 L69.186,4.4 L60.834,4.4 L60.834,5.3 Z M79.734,5.642 C78.636,4.742 77.538,4.184 76.098,4.184 C72.966,4.184 70.968,7.208 70.968,11.024 C70.968,13.652 71.526,14.912 72.57,15.956 C73.326,16.712 74.478,17.216 75.774,17.216 C78.258,17.216 80.184,15.47 80.184,13.058 C80.184,10.79 78.168,9.224 75.846,9.224 C73.794,9.224 72.624,10.34 71.904,11.564 C71.814,7.712 73.47,5.03 76.026,5.03 C77.214,5.03 78.168,5.498 79.14,6.362 L79.734,5.642 Z M79.212,13.094 C79.212,14.894 77.88,16.37 75.846,16.37 C73.812,16.37 72.282,15.002 72.282,13.184 C72.282,11.618 73.722,10.052 75.792,10.052 C77.79,10.052 79.212,11.348 79.212,13.094 Z M89.436,4.31 L82.236,13.22 L82.56,13.922 L89.382,13.922 L89.382,17 L90.282,17 L90.282,13.922 L92.334,13.922 L92.334,13.112 L90.282,13.112 L90.282,4.31 L89.436,4.31 Z M89.382,13.112 L83.37,13.112 L89.382,5.66 L89.382,13.112 Z M103.674,13.616 C103.674,12.122 102.468,11.006 100.884,10.484 C102.126,9.98 103.242,9.044 103.242,7.532 C103.242,5.552 101.172,4.22 98.994,4.22 C96.816,4.22 94.746,5.552 94.746,7.532 C94.746,9.044 95.862,9.98 97.104,10.484 C95.52,11.006 94.314,12.122 94.314,13.616 C94.314,15.722 96.348,17.18 98.994,17.18 C101.64,17.18 103.674,15.722 103.674,13.616 Z M102.27,7.532 C102.27,9.098 100.776,10.142 98.994,10.142 C97.212,10.142 95.718,9.098 95.718,7.532 C95.718,6.092 97.158,5.066 98.994,5.066 C100.83,5.066 102.27,6.092 102.27,7.532 Z M102.702,13.652 C102.702,15.092 101.316,16.334 98.994,16.334 C96.672,16.334 95.286,15.092 95.286,13.652 C95.286,12.068 96.942,10.934 98.994,10.934 C101.046,10.934 102.702,12.068 102.702,13.652 Z M114.978,10.394 C114.978,7.856 114.402,6.47 113.394,5.462 C112.638,4.706 111.54,4.184 110.19,4.184 C107.562,4.184 105.762,6.092 105.762,8.432 C105.762,10.61 107.58,12.302 110.118,12.302 C112.098,12.302 113.322,11.168 114.042,9.872 C114.186,13.652 112.404,16.37 109.866,16.37 C108.714,16.37 107.706,15.884 106.644,14.93 L106.05,15.65 C107.094,16.532 108.282,17.216 109.848,17.216 C112.782,17.216 114.978,14.372 114.978,10.394 Z M113.664,8.252 C113.664,9.854 112.296,11.474 110.154,11.474 C108.156,11.474 106.734,10.178 106.734,8.396 C106.734,6.632 108.012,5.03 110.082,5.03 C112.17,5.03 113.664,6.452 113.664,8.252 Z" id="SN76489" fill="#B3B3B3" fill-rule="nonzero"></path>
        </g>
        <g id="bgs" transform="translate(7.000000, 29.000000)" fill="#DF252B">
            <rect id="Rectangle" x="0" y="0" width="30" height="322" rx="5"></rect>
            <rect id="Rectangle-Copy-4" x="35" y="0" width="30" height="322" rx="5"></rect>
            <rect id="Rectangle-Copy-5" x="70" y="0" width="30" height="322" rx="5"></rect>
            <rect id="Rectangle-Copy-6" x="105" y="0" width="30" height="322" rx="5"></rect>
        </g>
        <g id="OUT" transform="translate(7.000000, 308.000000)">
            <g id="Noise" transform="translate(104.000000, 0.000000)">
                <rect id="Rectangle-Copy-3" fill="#1D1D1D" x="2" y="0" width="28" height="42" rx="4"></rect>
                <path d="M6,8.7265625 L6,3 L7.125,3 L9.46875,6.82421875 L9.46875,3 L10.5429688,3 L10.5429688,8.7265625 L9.3828125,8.7265625 L7.07421875,4.9921875 L7.07421875,8.7265625 L6,8.7265625 Z M11.5039062,6.59375 C11.5039062,6.22916484 11.5937491,5.87630379 11.7734375,5.53515625 C11.9531259,5.19400871 12.2076806,4.93359465 12.5371094,4.75390625 C12.8665381,4.57421785 13.234373,4.484375 13.640625,4.484375 C14.2682323,4.484375 14.7825501,4.688149 15.1835938,5.09570312 C15.5846374,5.50325725 15.7851562,6.01822605 15.7851562,6.640625 C15.7851562,7.2682323 15.5826843,7.78840939 15.1777344,8.20117188 C14.7727844,8.61393436 14.2630239,8.8203125 13.6484375,8.8203125 C13.2682273,8.8203125 12.9056007,8.73437586 12.5605469,8.5625 C12.2154931,8.39062414 11.9531259,8.13867354 11.7734375,7.80664062 C11.5937491,7.47460771 11.5039062,7.07031488 11.5039062,6.59375 Z M12.6289062,6.65234375 C12.6289062,7.06380414 12.7265615,7.37890625 12.921875,7.59765625 C13.1171885,7.81640734 13.3580715,7.92578125 13.6445312,7.92578125 C13.930991,7.92578125 14.171223,7.81640734 14.3652344,7.59765625 C14.5592458,7.37890625 14.65625,7.0612 14.65625,6.64453125 C14.65625,6.23827922 14.5592458,5.92578234 14.3652344,5.70703125 C14.171223,5.48828016 13.930991,5.37890625 13.6445312,5.37890625 C13.3580715,5.37890625 13.1171885,5.48828016 12.921875,5.70703125 C12.7265615,5.92578234 12.6289062,6.24088336 12.6289062,6.65234375 Z M16.6445312,4.015625 L16.6445312,3 L17.7421875,3 L17.7421875,4.015625 L16.6445312,4.015625 Z M16.6445312,8.7265625 L16.6445312,4.578125 L17.7421875,4.578125 L17.7421875,8.7265625 L16.6445312,8.7265625 Z M20.3789062,4.484375 C20.9466174,4.484375 21.3684882,4.57682199 21.6445312,4.76171875 C21.9205743,4.94661551 22.1106766,5.22005027 22.2148438,5.58203125 L21.1796875,5.7734375 C21.1354164,5.61197836 21.0514329,5.48828168 20.9277344,5.40234375 C20.8040358,5.31640582 20.6276053,5.2734375 20.3984375,5.2734375 C20.1093736,5.2734375 19.9023444,5.31380168 19.7773438,5.39453125 C19.69401,5.4518232 19.6523438,5.52604121 19.6523438,5.6171875 C19.6523438,5.69531289 19.6888017,5.76171848 19.7617188,5.81640625 C19.8386867,5.8731195 20.0625547,5.94794854 20.4333274,6.04089484 L20.7871094,6.125 C21.3717477,6.25781316 21.7799468,6.42057195 22.0117188,6.61328125 C22.2408866,6.80859473 22.3554688,7.08072742 22.3554688,7.4296875 C22.3554688,7.80989773 22.1966162,8.13671738 21.8789062,8.41015625 C21.5611963,8.68359512 21.0911489,8.8203125 20.46875,8.8203125 C19.903643,8.8203125 19.4563819,8.70573031 19.1269531,8.4765625 C18.7975244,8.24739469 18.5820318,7.93619988 18.4804688,7.54296875 L19.5820312,7.375 C19.6289065,7.58854273 19.7239576,7.75065049 19.8671875,7.86132812 C20.0104174,7.97200576 20.2109362,8.02734375 20.46875,8.02734375 C20.7526056,8.02734375 20.9661451,7.97526094 21.109375,7.87109375 C21.2057296,7.79817672 21.2539062,7.70052145 21.2539062,7.578125 C21.2539062,7.49479125 21.2278648,7.42578152 21.1757812,7.37109375 C21.1210935,7.31901016 20.9986989,7.27083355 20.8085938,7.2265625 L20.3929022,7.13031656 C19.7451144,6.97225794 19.3224836,6.82595553 19.125,6.69140625 C18.7968734,6.4674468 18.6328125,6.15625199 18.6328125,5.7578125 C18.6328125,5.3984357 18.7747382,5.09635539 19.0585938,4.8515625 C19.3424493,4.60676961 19.7825491,4.484375 20.3789062,4.484375 Z M24.8984375,4.484375 C25.5156281,4.484375 26.0026024,4.688149 26.359375,5.09570312 C26.7161476,5.50325725 26.8867188,6.12759996 26.8710937,6.96875 L24.1210937,6.96875 C24.1289063,7.29427246 24.2174471,7.54752514 24.3867187,7.72851562 C24.5559904,7.90950611 24.7669258,8 25.0195312,8 C25.1914071,8 25.3359369,7.95312547 25.453125,7.859375 C25.5703131,7.76562453 25.6588539,7.61458437 25.71875,7.40625 L26.8125,7.58984375 C26.6718743,7.99088742 26.4498713,8.29622291 26.1464844,8.50585938 C25.8430974,8.71549584 25.4635439,8.8203125 25.0078125,8.8203125 C24.2864547,8.8203125 23.7526059,8.58463777 23.40625,8.11328125 C23.1328111,7.7356752 22.9960937,7.25911746 22.9960937,6.68359375 C22.9960937,5.99609031 23.1757795,5.45768424 23.5351562,5.06835938 C23.894533,4.67903451 24.3489556,4.484375 24.8984375,4.484375 Z M24.9648438,5.32421875 C24.7252592,5.32421875 24.5273445,5.41145746 24.3710938,5.5859375 C24.2408848,5.73133753 24.1658346,5.92013809 24.1459418,6.15234329 L24.140625,6.296875 L25.78125,6.296875 C25.7734375,5.97916508 25.691407,5.73763104 25.5351562,5.57226562 C25.3789055,5.40690021 25.1888032,5.32421875 24.9648438,5.32421875 Z" fill="#FFFFFF" fill-rule="nonzero"></path>
            </g>
            <g id="Tone-3-Out" transform="translate(70.000000, 0.000000)">
                <rect id="Rectangle-Copy-2" fill="#1D1D1D" x="1" y="0" width="28" height="42" rx="4"></rect>
                <path d="M5.69921875,8.75 L5.69921875,3.9921875 L4,3.9921875 L4,3.0234375 L8.55078125,3.0234375 L8.55078125,3.9921875 L6.85546875,3.9921875 L6.85546875,8.75 L5.69921875,8.75 Z M8.44140625,6.6171875 C8.44140625,6.25260234 8.5312491,5.89974129 8.7109375,5.55859375 C8.8906259,5.21744621 9.14518064,4.95703215 9.47460938,4.77734375 C9.80403811,4.59765535 10.171873,4.5078125 10.578125,4.5078125 C11.2057323,4.5078125 11.7200501,4.7115865 12.1210938,5.11914062 C12.5221374,5.52669475 12.7226562,6.04166355 12.7226562,6.6640625 C12.7226562,7.2916698 12.5201843,7.81184689 12.1152344,8.22460938 C11.7102844,8.63737186 11.2005239,8.84375 10.5859375,8.84375 C10.2057273,8.84375 9.84310068,8.75781336 9.49804688,8.5859375 C9.15299307,8.41406164 8.8906259,8.16211104 8.7109375,7.83007812 C8.5312491,7.49804521 8.44140625,7.09375238 8.44140625,6.6171875 Z M9.56640625,6.67578125 C9.56640625,7.08724164 9.66406152,7.40234375 9.859375,7.62109375 C10.0546885,7.83984484 10.2955715,7.94921875 10.5820312,7.94921875 C10.868491,7.94921875 11.108723,7.83984484 11.3027344,7.62109375 C11.4967458,7.40234375 11.59375,7.0846375 11.59375,6.66796875 C11.59375,6.26171672 11.4967458,5.94921984 11.3027344,5.73046875 C11.108723,5.51171766 10.868491,5.40234375 10.5820312,5.40234375 C10.2955715,5.40234375 10.0546885,5.51171766 9.859375,5.73046875 C9.66406152,5.94921984 9.56640625,6.26432086 9.56640625,6.67578125 Z M17.3554688,8.75 L16.2578125,8.75 L16.2578125,6.6328125 C16.2578125,6.18489359 16.2343752,5.89518295 16.1875,5.76367188 C16.1406248,5.6321608 16.0644537,5.52994828 15.9589844,5.45703125 C15.8535151,5.38411422 15.7265632,5.34765625 15.578125,5.34765625 C15.3880199,5.34765625 15.2174487,5.39973906 15.0664062,5.50390625 C14.9153638,5.60807344 14.8118492,5.74609289 14.7558594,5.91796875 C14.6998695,6.08984461 14.671875,6.40754977 14.671875,6.87109375 L14.671875,8.75 L13.5742188,8.75 L13.5742188,4.6015625 L14.59375,4.6015625 L14.59375,5.2109375 C14.955731,4.74218516 15.4114556,4.5078125 15.9609375,4.5078125 C16.2031262,4.5078125 16.4244782,4.55143186 16.625,4.63867188 C16.8255218,4.72591189 16.977213,4.83723891 17.0800781,4.97265625 C17.1829432,5.10807359 17.2545571,5.26171789 17.2949219,5.43359375 C17.3352867,5.60546961 17.3554688,5.8515609 17.3554688,6.171875 L17.3554688,8.75 Z M20.8710938,7.4296875 L21.9648438,7.61328125 C21.824218,8.01432492 21.6022151,8.31966041 21.2988281,8.52929688 C20.9954412,8.73893334 20.6158877,8.84375 20.1601562,8.84375 C19.4387985,8.84375 18.9049496,8.60807527 18.5585938,8.13671875 C18.2851549,7.7591127 18.1484375,7.28255496 18.1484375,6.70703125 C18.1484375,6.01952781 18.3281232,5.48112174 18.6875,5.09179688 C19.0468768,4.70247201 19.5012993,4.5078125 20.0507812,4.5078125 C20.6679718,4.5078125 21.1549461,4.7115865 21.5117188,5.11914062 C21.8684914,5.52669475 22.0390626,6.15103746 22.0234375,6.9921875 L19.2734375,6.9921875 C19.28125,7.31770996 19.3697908,7.57096264 19.5390625,7.75195312 C19.7083342,7.93294361 19.9192696,8.0234375 20.171875,8.0234375 C20.3437509,8.0234375 20.4882807,7.97656297 20.6054688,7.8828125 C20.7226568,7.78906203 20.8111976,7.63802187 20.8710938,7.4296875 Z M20.9335938,6.3203125 C20.9257812,6.00260258 20.8437508,5.76106854 20.6875,5.59570312 C20.5312492,5.43033771 20.341147,5.34765625 20.1171875,5.34765625 C19.877603,5.34765625 19.6796883,5.43489496 19.5234375,5.609375 C19.3671867,5.78385504 19.2903646,6.02083184 19.2929688,6.3203125 L20.9335938,6.3203125 Z M22.6445312,7.23046875 L23.7070312,7.1015625 C23.7408856,7.37239719 23.8320305,7.57942637 23.9804688,7.72265625 C24.128907,7.86588613 24.3085927,7.9375 24.5195312,7.9375 C24.7460949,7.9375 24.9368482,7.85156336 25.0917969,7.6796875 C25.2467456,7.50781164 25.3242188,7.27604313 25.3242188,6.984375 C25.3242188,6.70833195 25.2500007,6.48958414 25.1015625,6.328125 C24.9531243,6.16666586 24.7721365,6.0859375 24.5585938,6.0859375 C24.417968,6.0859375 24.250001,6.11328098 24.0546875,6.16796875 L24.1757812,5.2734375 C24.4726577,5.28125004 24.699218,5.21679756 24.8554688,5.08007812 C25.0117195,4.94335869 25.0898438,4.76171988 25.0898438,4.53515625 C25.0898438,4.34244695 25.0325527,4.18880266 24.9179688,4.07421875 C24.8033848,3.95963484 24.6510426,3.90234375 24.4609375,3.90234375 C24.2734366,3.90234375 24.1132819,3.96744727 23.9804688,4.09765625 C23.8476556,4.22786523 23.7669272,4.4179675 23.7382812,4.66796875 L22.7265625,4.49609375 C22.7968754,4.14973785 22.9029941,3.87304791 23.0449219,3.66601562 C23.1868497,3.45898334 23.3847644,3.29622455 23.6386719,3.17773438 C23.8925794,3.0592442 24.1770818,3 24.4921875,3 C25.0312527,3 25.46354,3.17187328 25.7890625,3.515625 C26.057293,3.79687641 26.1914062,4.11458156 26.1914062,4.46875 C26.1914062,4.97135668 25.9166694,5.37239434 25.3671875,5.671875 C25.6953141,5.74218785 25.9576813,5.89973836 26.1542969,6.14453125 C26.3509124,6.38932414 26.4492188,6.6848941 26.4492188,7.03125 C26.4492188,7.53385668 26.2656268,7.96223781 25.8984375,8.31640625 C25.5312482,8.67057469 25.0742215,8.84765625 24.5273438,8.84765625 C24.009112,8.84765625 23.5794288,8.6985692 23.2382812,8.40039062 C22.8971337,8.10221205 22.699219,7.71224199 22.6445312,7.23046875 Z" id="Tone3" fill="#FFFFFF" fill-rule="nonzero"></path>
            </g>
            <g id="Tone-2-Out" transform="translate(35.000000, 0.000000)">
                <rect id="Rectangle-Copy" fill="#1D1D1D" x="1" y="0" width="28" height="42" rx="4"></rect>
                <path d="M5.69921875,8.75 L5.69921875,3.9921875 L4,3.9921875 L4,3.0234375 L8.55078125,3.0234375 L8.55078125,3.9921875 L6.85546875,3.9921875 L6.85546875,8.75 L5.69921875,8.75 Z M8.44140625,6.6171875 C8.44140625,6.25260234 8.5312491,5.89974129 8.7109375,5.55859375 C8.8906259,5.21744621 9.14518064,4.95703215 9.47460938,4.77734375 C9.80403811,4.59765535 10.171873,4.5078125 10.578125,4.5078125 C11.2057323,4.5078125 11.7200501,4.7115865 12.1210938,5.11914062 C12.5221374,5.52669475 12.7226562,6.04166355 12.7226562,6.6640625 C12.7226562,7.2916698 12.5201843,7.81184689 12.1152344,8.22460938 C11.7102844,8.63737186 11.2005239,8.84375 10.5859375,8.84375 C10.2057273,8.84375 9.84310068,8.75781336 9.49804688,8.5859375 C9.15299307,8.41406164 8.8906259,8.16211104 8.7109375,7.83007812 C8.5312491,7.49804521 8.44140625,7.09375238 8.44140625,6.6171875 Z M9.56640625,6.67578125 C9.56640625,7.08724164 9.66406152,7.40234375 9.859375,7.62109375 C10.0546885,7.83984484 10.2955715,7.94921875 10.5820312,7.94921875 C10.868491,7.94921875 11.108723,7.83984484 11.3027344,7.62109375 C11.4967458,7.40234375 11.59375,7.0846375 11.59375,6.66796875 C11.59375,6.26171672 11.4967458,5.94921984 11.3027344,5.73046875 C11.108723,5.51171766 10.868491,5.40234375 10.5820312,5.40234375 C10.2955715,5.40234375 10.0546885,5.51171766 9.859375,5.73046875 C9.66406152,5.94921984 9.56640625,6.26432086 9.56640625,6.67578125 Z M17.3554688,8.75 L16.2578125,8.75 L16.2578125,6.6328125 C16.2578125,6.18489359 16.2343752,5.89518295 16.1875,5.76367188 C16.1406248,5.6321608 16.0644537,5.52994828 15.9589844,5.45703125 C15.8535151,5.38411422 15.7265632,5.34765625 15.578125,5.34765625 C15.3880199,5.34765625 15.2174487,5.39973906 15.0664062,5.50390625 C14.9153638,5.60807344 14.8118492,5.74609289 14.7558594,5.91796875 C14.6998695,6.08984461 14.671875,6.40754977 14.671875,6.87109375 L14.671875,8.75 L13.5742188,8.75 L13.5742188,4.6015625 L14.59375,4.6015625 L14.59375,5.2109375 C14.955731,4.74218516 15.4114556,4.5078125 15.9609375,4.5078125 C16.2031262,4.5078125 16.4244782,4.55143186 16.625,4.63867188 C16.8255218,4.72591189 16.977213,4.83723891 17.0800781,4.97265625 C17.1829432,5.10807359 17.2545571,5.26171789 17.2949219,5.43359375 C17.3352867,5.60546961 17.3554688,5.8515609 17.3554688,6.171875 L17.3554688,8.75 Z M20.8710938,7.4296875 L21.9648438,7.61328125 C21.824218,8.01432492 21.6022151,8.31966041 21.2988281,8.52929688 C20.9954412,8.73893334 20.6158877,8.84375 20.1601562,8.84375 C19.4387985,8.84375 18.9049496,8.60807527 18.5585938,8.13671875 C18.2851549,7.7591127 18.1484375,7.28255496 18.1484375,6.70703125 C18.1484375,6.01952781 18.3281232,5.48112174 18.6875,5.09179688 C19.0468768,4.70247201 19.5012993,4.5078125 20.0507812,4.5078125 C20.6679718,4.5078125 21.1549461,4.7115865 21.5117188,5.11914062 C21.8684914,5.52669475 22.0390626,6.15103746 22.0234375,6.9921875 L19.2734375,6.9921875 C19.28125,7.31770996 19.3697908,7.57096264 19.5390625,7.75195312 C19.7083342,7.93294361 19.9192696,8.0234375 20.171875,8.0234375 C20.3437509,8.0234375 20.4882807,7.97656297 20.6054688,7.8828125 C20.7226568,7.78906203 20.8111976,7.63802187 20.8710938,7.4296875 Z M20.9335938,6.3203125 C20.9257812,6.00260258 20.8437508,5.76106854 20.6875,5.59570312 C20.5312492,5.43033771 20.341147,5.34765625 20.1171875,5.34765625 C19.877603,5.34765625 19.6796883,5.43489496 19.5234375,5.609375 C19.3671867,5.78385504 19.2903646,6.02083184 19.2929688,6.3203125 L20.9335938,6.3203125 Z M26.390625,7.73046875 L26.390625,8.75 L22.5429688,8.75 C22.5846356,8.36458141 22.7096344,7.99935068 22.9179688,7.65429688 C23.1031549,7.34758238 23.4488307,6.95188109 23.955005,6.46718337 L24.4538493,5.99594824 C24.7725225,5.68875275 24.9754047,5.4713548 25.0625,5.34375 C25.2135424,5.11718637 25.2890625,4.89323027 25.2890625,4.671875 C25.2890625,4.42708211 25.2233079,4.23893295 25.0917969,4.10742188 C24.9602858,3.9759108 24.778647,3.91015625 24.546875,3.91015625 C24.3177072,3.91015625 24.1354173,3.97916598 24,4.1171875 C23.8645827,4.25520902 23.7864584,4.4843734 23.765625,4.8046875 L22.671875,4.6953125 C22.7369795,4.09114281 22.9414045,3.6575534 23.2851562,3.39453125 C23.628908,3.1315091 24.0585912,3 24.5742188,3 C25.1393257,3 25.5833317,3.15234223 25.90625,3.45703125 C26.2291683,3.76172027 26.390625,4.14062273 26.390625,4.59375 C26.390625,4.85156379 26.3444015,5.09700404 26.2519531,5.33007812 C26.1595047,5.56315221 26.0130218,5.80729039 25.8125,6.0625 C25.6986601,6.20759001 25.5063787,6.40720567 25.235651,6.66135159 L24.6694331,7.18945353 C24.5597329,7.29492201 24.4817711,7.37369766 24.4355469,7.42578125 C24.3430985,7.52994844 24.2682295,7.63150992 24.2109375,7.73046875 L26.390625,7.73046875 Z" id="Tone2" fill="#FFFFFF" fill-rule="nonzero"></path>
            </g>
            <g id="Tone-1-Out">
                <rect id="Rectangle" fill="#1D1D1D" x="1" y="0" width="28" height="42" rx="4"></rect>
                <path d="M5.69921875,8.75 L5.69921875,3.9921875 L4,3.9921875 L4,3.0234375 L8.55078125,3.0234375 L8.55078125,3.9921875 L6.85546875,3.9921875 L6.85546875,8.75 L5.69921875,8.75 Z M8.44140625,6.6171875 C8.44140625,6.25260234 8.5312491,5.89974129 8.7109375,5.55859375 C8.8906259,5.21744621 9.14518064,4.95703215 9.47460938,4.77734375 C9.80403811,4.59765535 10.171873,4.5078125 10.578125,4.5078125 C11.2057323,4.5078125 11.7200501,4.7115865 12.1210938,5.11914062 C12.5221374,5.52669475 12.7226562,6.04166355 12.7226562,6.6640625 C12.7226562,7.2916698 12.5201843,7.81184689 12.1152344,8.22460938 C11.7102844,8.63737186 11.2005239,8.84375 10.5859375,8.84375 C10.2057273,8.84375 9.84310068,8.75781336 9.49804688,8.5859375 C9.15299307,8.41406164 8.8906259,8.16211104 8.7109375,7.83007812 C8.5312491,7.49804521 8.44140625,7.09375238 8.44140625,6.6171875 Z M9.56640625,6.67578125 C9.56640625,7.08724164 9.66406152,7.40234375 9.859375,7.62109375 C10.0546885,7.83984484 10.2955715,7.94921875 10.5820312,7.94921875 C10.868491,7.94921875 11.108723,7.83984484 11.3027344,7.62109375 C11.4967458,7.40234375 11.59375,7.0846375 11.59375,6.66796875 C11.59375,6.26171672 11.4967458,5.94921984 11.3027344,5.73046875 C11.108723,5.51171766 10.868491,5.40234375 10.5820312,5.40234375 C10.2955715,5.40234375 10.0546885,5.51171766 9.859375,5.73046875 C9.66406152,5.94921984 9.56640625,6.26432086 9.56640625,6.67578125 Z M17.3554688,8.75 L16.2578125,8.75 L16.2578125,6.6328125 C16.2578125,6.18489359 16.2343752,5.89518295 16.1875,5.76367188 C16.1406248,5.6321608 16.0644537,5.52994828 15.9589844,5.45703125 C15.8535151,5.38411422 15.7265632,5.34765625 15.578125,5.34765625 C15.3880199,5.34765625 15.2174487,5.39973906 15.0664062,5.50390625 C14.9153638,5.60807344 14.8118492,5.74609289 14.7558594,5.91796875 C14.6998695,6.08984461 14.671875,6.40754977 14.671875,6.87109375 L14.671875,8.75 L13.5742188,8.75 L13.5742188,4.6015625 L14.59375,4.6015625 L14.59375,5.2109375 C14.955731,4.74218516 15.4114556,4.5078125 15.9609375,4.5078125 C16.2031262,4.5078125 16.4244782,4.55143186 16.625,4.63867188 C16.8255218,4.72591189 16.977213,4.83723891 17.0800781,4.97265625 C17.1829432,5.10807359 17.2545571,5.26171789 17.2949219,5.43359375 C17.3352867,5.60546961 17.3554688,5.8515609 17.3554688,6.171875 L17.3554688,8.75 Z M20.8710938,7.4296875 L21.9648438,7.61328125 C21.824218,8.01432492 21.6022151,8.31966041 21.2988281,8.52929688 C20.9954412,8.73893334 20.6158877,8.84375 20.1601562,8.84375 C19.4387985,8.84375 18.9049496,8.60807527 18.5585938,8.13671875 C18.2851549,7.7591127 18.1484375,7.28255496 18.1484375,6.70703125 C18.1484375,6.01952781 18.3281232,5.48112174 18.6875,5.09179688 C19.0468768,4.70247201 19.5012993,4.5078125 20.0507812,4.5078125 C20.6679718,4.5078125 21.1549461,4.7115865 21.5117188,5.11914062 C21.8684914,5.52669475 22.0390626,6.15103746 22.0234375,6.9921875 L19.2734375,6.9921875 C19.28125,7.31770996 19.3697908,7.57096264 19.5390625,7.75195312 C19.7083342,7.93294361 19.9192696,8.0234375 20.171875,8.0234375 C20.3437509,8.0234375 20.4882807,7.97656297 20.6054688,7.8828125 C20.7226568,7.78906203 20.8111976,7.63802187 20.8710938,7.4296875 Z M20.9335938,6.3203125 C20.9257812,6.00260258 20.8437508,5.76106854 20.6875,5.59570312 C20.5312492,5.43033771 20.341147,5.34765625 20.1171875,5.34765625 C19.877603,5.34765625 19.6796883,5.43489496 19.5234375,5.609375 C19.3671867,5.78385504 19.2903646,6.02083184 19.2929688,6.3203125 L20.9335938,6.3203125 Z M25.4921875,8.75 L24.3945312,8.75 L24.3945312,4.61328125 C23.9934876,4.98828313 23.5208361,5.2656241 22.9765625,5.4453125 L22.9765625,4.44921875 C23.2630223,4.35546828 23.5742171,4.17773568 23.9101562,3.91601562 C24.2460954,3.65429557 24.4765625,3.34896008 24.6015625,3 L25.4921875,3 L25.4921875,8.75 Z" id="Tone1" fill="#FFFFFF" fill-rule="nonzero"></path>
            </g>
        </g>
        <g id="MOD" transform="translate(7.000000, 227.000000)" fill-rule="nonzero">
            <g id="Mod4" transform="translate(105.000000, 0.000000)">
                <path d="M15.5,26 L13.5,26 L13.5,29 L15.5,29 L15.5,26 Z M15.5,30 L13.5,30 L13.5,33 L15.5,33 L15.5,30 Z M15.5,34 L13.5,34 L13.5,37 L15.5,37 L15.5,34 Z M15.5,38 L13.5,38 L13.5,41 L15.5,41 L15.5,38 Z M15.5,42 L13.5,42 L13.5,45 L15.5,45 L15.5,42 Z M15.5,46 L13.5,46 L13.5,49 L15.5,49 L15.5,46 Z M15.5,50 L13.5,50 L13.5,53 L15.5,53 L15.5,50 Z M15.5,54 L13.5,54 L13.5,57 L15.5,57 L15.5,54 Z" id="Line-Copy-4" fill="#4B4B4B"></path>
                <path d="M13.2246094,1.17578125 C14.0683636,1.17578125 14.7434871,1.43749738 15.25,1.9609375 C15.7565129,2.48437762 16.0097656,3.21223492 16.0097656,4.14453125 C16.0097656,5.06901504 15.7584661,5.7923151 15.2558594,6.31445312 C14.7532527,6.83659115 14.0813844,7.09765625 13.2402344,7.09765625 C12.3886676,7.09765625 11.7115911,6.83789322 11.2089844,6.31835938 C10.7063777,5.79882553 10.4550781,5.08333789 10.4550781,4.171875 C10.4550781,3.58853875 10.5423168,3.09896031 10.7167969,2.703125 C10.8470059,2.41145687 11.0247385,2.14974074 11.25,1.91796875 C11.4752615,1.68619676 11.7220039,1.51432348 11.9902344,1.40234375 C12.347007,1.25130133 12.7584612,1.17578125 13.2246094,1.17578125 Z M5.74023438,1.2734375 L6.77929688,5.1796875 L7.80664062,1.2734375 L9.54101562,1.2734375 L9.54101562,7 L8.46679688,7 L8.46679688,2.4921875 L7.33007812,7 L6.21679688,7 L5.08398438,2.4921875 L5.08398438,7 L4.00976562,7 L4.00976562,1.2734375 L5.74023438,1.2734375 Z M19.0214844,1.2734375 C19.4980493,1.2734375 19.8613269,1.30989547 20.1113281,1.3828125 C20.4472673,1.48177133 20.7350248,1.65755082 20.9746094,1.91015625 C21.2141939,2.16276168 21.3964838,2.47200338 21.5214844,2.83789062 C21.646485,3.20377787 21.7089844,3.65494523 21.7089844,4.19140625 C21.7089844,4.66276277 21.6503912,5.06900871 21.5332031,5.41015625 C21.3899732,5.826825 21.1855482,6.16406121 20.9199219,6.421875 C20.7194,6.61718848 20.4485694,6.7695307 20.1074219,6.87890625 C19.8522123,6.95963582 19.5110698,7 19.0839844,7 L16.9082031,7 L16.9082031,1.2734375 L19.0214844,1.2734375 Z M25.6621094,1.25 L25.6621094,4.8828125 L26.3730469,4.8828125 L26.3730469,5.84765625 L25.6621094,5.84765625 L25.6621094,7 L24.5996094,7 L24.5996094,5.84765625 L22.2558594,5.84765625 L22.2558594,4.88671875 L24.7402344,1.25 L25.6621094,1.25 Z M13.2363281,2.1640625 C12.7597632,2.1640625 12.3756525,2.32747232 12.0839844,2.65429688 C11.7923162,2.98112143 11.6464844,3.47395504 11.6464844,4.1328125 C11.6464844,4.78125324 11.7962225,5.27278479 12.0957031,5.60742188 C12.3951838,5.94205896 12.7753883,6.109375 13.2363281,6.109375 C13.6972679,6.109375 14.0755194,5.94336104 14.3710938,5.61132812 C14.6666681,5.27929521 14.8144531,4.78125332 14.8144531,4.1171875 C14.8144531,3.46093422 14.6705744,2.97135578 14.3828125,2.6484375 C14.0950506,2.32551922 13.712893,2.1640625 13.2363281,2.1640625 Z M18.5839844,2.2421875 L18.0644531,2.2421875 L18.0644531,6.03515625 L18.9277344,6.03515625 L19.2207037,6.0290799 C19.3960507,6.02097809 19.5314665,6.00477443 19.6269531,5.98046875 C19.8144541,5.93359352 19.9700515,5.85416723 20.09375,5.7421875 C20.2174485,5.63020777 20.318359,5.44596482 20.3964844,5.18945312 C20.4746098,4.93294143 20.5136719,4.58333555 20.5136719,4.140625 C20.5136719,3.69791445 20.4746098,3.3580741 20.3964844,3.12109375 C20.318359,2.8841134 20.2089851,2.69921941 20.0683594,2.56640625 C19.9277337,2.43359309 19.74935,2.34375023 19.5332031,2.296875 L19.3830566,2.27294914 C19.2038579,2.2524413 18.9375018,2.2421875 18.5839844,2.2421875 Z M24.5996094,2.92578125 L23.2832031,4.8828125 L24.5996094,4.8828125 L24.5996094,2.92578125 Z" id="MOD4" fill="#FFFFFF"></path>
            </g>
            <g id="Mod3" transform="translate(70.000000, 0.000000)">
                <path d="M15.5,26 L13.5,26 L13.5,29 L15.5,29 L15.5,26 Z M15.5,30 L13.5,30 L13.5,33 L15.5,33 L15.5,30 Z M15.5,34 L13.5,34 L13.5,37 L15.5,37 L15.5,34 Z M15.5,38 L13.5,38 L13.5,41 L15.5,41 L15.5,38 Z M15.5,42 L13.5,42 L13.5,45 L15.5,45 L15.5,42 Z M15.5,46 L13.5,46 L13.5,49 L15.5,49 L15.5,46 Z M15.5,50 L13.5,50 L13.5,53 L15.5,53 L15.5,50 Z M15.5,54 L13.5,54 L13.5,57 L15.5,57 L15.5,54 Z" id="Line-Copy-5" fill="#4B4B4B"></path>
                <path d="M4.00976562,7 L4.00976562,1.2734375 L5.74023438,1.2734375 L6.77929688,5.1796875 L7.80664062,1.2734375 L9.54101562,1.2734375 L9.54101562,7 L8.46679688,7 L8.46679688,2.4921875 L7.33007812,7 L6.21679688,7 L5.08398438,2.4921875 L5.08398438,7 L4.00976562,7 Z M10.4550781,4.171875 C10.4550781,3.58853875 10.5423168,3.09896031 10.7167969,2.703125 C10.8470059,2.41145687 11.0247385,2.14974074 11.25,1.91796875 C11.4752615,1.68619676 11.7220039,1.51432348 11.9902344,1.40234375 C12.347007,1.25130133 12.7584612,1.17578125 13.2246094,1.17578125 C14.0683636,1.17578125 14.7434871,1.43749738 15.25,1.9609375 C15.7565129,2.48437762 16.0097656,3.21223492 16.0097656,4.14453125 C16.0097656,5.06901504 15.7584661,5.7923151 15.2558594,6.31445312 C14.7532527,6.83659115 14.0813844,7.09765625 13.2402344,7.09765625 C12.3886676,7.09765625 11.7115911,6.83789322 11.2089844,6.31835938 C10.7063777,5.79882553 10.4550781,5.08333789 10.4550781,4.171875 Z M11.6464844,4.1328125 C11.6464844,4.78125324 11.7962225,5.27278479 12.0957031,5.60742188 C12.3951838,5.94205896 12.7753883,6.109375 13.2363281,6.109375 C13.6972679,6.109375 14.0755194,5.94336104 14.3710938,5.61132812 C14.6666681,5.27929521 14.8144531,4.78125332 14.8144531,4.1171875 C14.8144531,3.46093422 14.6705744,2.97135578 14.3828125,2.6484375 C14.0950506,2.32551922 13.712893,2.1640625 13.2363281,2.1640625 C12.7597632,2.1640625 12.3756525,2.32747232 12.0839844,2.65429688 C11.7923162,2.98112143 11.6464844,3.47395504 11.6464844,4.1328125 Z M16.9082031,1.2734375 L19.0214844,1.2734375 C19.4980493,1.2734375 19.8613269,1.30989547 20.1113281,1.3828125 C20.4472673,1.48177133 20.7350248,1.65755082 20.9746094,1.91015625 C21.2141939,2.16276168 21.3964838,2.47200338 21.5214844,2.83789062 C21.646485,3.20377787 21.7089844,3.65494523 21.7089844,4.19140625 C21.7089844,4.66276277 21.6503912,5.06900871 21.5332031,5.41015625 C21.3899732,5.826825 21.1855482,6.16406121 20.9199219,6.421875 C20.7194,6.61718848 20.4485694,6.7695307 20.1074219,6.87890625 C19.8522123,6.95963582 19.5110698,7 19.0839844,7 L16.9082031,7 L16.9082031,1.2734375 Z M18.0644531,2.2421875 L18.0644531,6.03515625 L18.9277344,6.03515625 L19.2207037,6.0290799 C19.3960507,6.02097809 19.5314665,6.00477443 19.6269531,5.98046875 C19.8144541,5.93359352 19.9700515,5.85416723 20.09375,5.7421875 C20.2174485,5.63020777 20.318359,5.44596482 20.3964844,5.18945312 C20.4746098,4.93294143 20.5136719,4.58333555 20.5136719,4.140625 C20.5136719,3.69791445 20.4746098,3.3580741 20.3964844,3.12109375 C20.318359,2.8841134 20.2089851,2.69921941 20.0683594,2.56640625 C19.9277337,2.43359309 19.74935,2.34375023 19.5332031,2.296875 L19.3830566,2.27294914 C19.2038579,2.2524413 18.9375018,2.2421875 18.5839844,2.2421875 L18.0644531,2.2421875 Z M22.4082031,5.48046875 L23.4707031,5.3515625 C23.5045575,5.62239719 23.5957024,5.82942637 23.7441406,5.97265625 C23.8925789,6.11588613 24.0722646,6.1875 24.2832031,6.1875 C24.5097668,6.1875 24.7005201,6.10156336 24.8554688,5.9296875 C25.0104174,5.75781164 25.0878906,5.52604313 25.0878906,5.234375 C25.0878906,4.95833195 25.0136726,4.73958414 24.8652344,4.578125 C24.7167961,4.41666586 24.5358084,4.3359375 24.3222656,4.3359375 C24.1816399,4.3359375 24.0136729,4.36328098 23.8183594,4.41796875 L23.9394531,3.5234375 C24.2363296,3.53125004 24.4628898,3.46679756 24.6191406,3.33007812 C24.7753914,3.19335869 24.8535156,3.01171988 24.8535156,2.78515625 C24.8535156,2.59244695 24.7962245,2.43880266 24.6816406,2.32421875 C24.5670567,2.20963484 24.4147145,2.15234375 24.2246094,2.15234375 C24.0371084,2.15234375 23.8769538,2.21744727 23.7441406,2.34765625 C23.6113275,2.47786523 23.5305991,2.6679675 23.5019531,2.91796875 L22.4902344,2.74609375 C22.5605472,2.39973785 22.666666,2.12304791 22.8085938,1.91601562 C22.9505215,1.70898334 23.1484362,1.54622455 23.4023438,1.42773438 C23.6562513,1.3092442 23.9407536,1.25 24.2558594,1.25 C24.7949246,1.25 25.2272119,1.42187328 25.5527344,1.765625 C25.8209649,2.04687641 25.9550781,2.36458156 25.9550781,2.71875 C25.9550781,3.22135668 25.6803413,3.62239434 25.1308594,3.921875 C25.458986,3.99218785 25.7213532,4.14973836 25.9179688,4.39453125 C26.1145843,4.63932414 26.2128906,4.9348941 26.2128906,5.28125 C26.2128906,5.78385668 26.0292987,6.21223781 25.6621094,6.56640625 C25.29492,6.92057469 24.8378934,7.09765625 24.2910156,7.09765625 C23.7727839,7.09765625 23.3431007,6.9485692 23.0019531,6.65039062 C22.6608056,6.35221205 22.4628909,5.96224199 22.4082031,5.48046875 Z" id="MOD3" fill="#FFFFFF"></path>
            </g>
            <g id="Mod2" transform="translate(35.000000, 0.000000)">
                <path d="M15.5,26 L13.5,26 L13.5,29 L15.5,29 L15.5,26 Z M15.5,30 L13.5,30 L13.5,33 L15.5,33 L15.5,30 Z M15.5,34 L13.5,34 L13.5,37 L15.5,37 L15.5,34 Z M15.5,38 L13.5,38 L13.5,41 L15.5,41 L15.5,38 Z M15.5,42 L13.5,42 L13.5,45 L15.5,45 L15.5,42 Z M15.5,46 L13.5,46 L13.5,49 L15.5,49 L15.5,46 Z M15.5,50 L13.5,50 L13.5,53 L15.5,53 L15.5,50 Z M15.5,54 L13.5,54 L13.5,57 L15.5,57 L15.5,54 Z" id="Line-Copy-6" fill="#4B4B4B"></path>
                <path d="M4.00976562,7 L4.00976562,1.2734375 L5.74023438,1.2734375 L6.77929688,5.1796875 L7.80664062,1.2734375 L9.54101562,1.2734375 L9.54101562,7 L8.46679688,7 L8.46679688,2.4921875 L7.33007812,7 L6.21679688,7 L5.08398438,2.4921875 L5.08398438,7 L4.00976562,7 Z M10.4550781,4.171875 C10.4550781,3.58853875 10.5423168,3.09896031 10.7167969,2.703125 C10.8470059,2.41145687 11.0247385,2.14974074 11.25,1.91796875 C11.4752615,1.68619676 11.7220039,1.51432348 11.9902344,1.40234375 C12.347007,1.25130133 12.7584612,1.17578125 13.2246094,1.17578125 C14.0683636,1.17578125 14.7434871,1.43749738 15.25,1.9609375 C15.7565129,2.48437762 16.0097656,3.21223492 16.0097656,4.14453125 C16.0097656,5.06901504 15.7584661,5.7923151 15.2558594,6.31445312 C14.7532527,6.83659115 14.0813844,7.09765625 13.2402344,7.09765625 C12.3886676,7.09765625 11.7115911,6.83789322 11.2089844,6.31835938 C10.7063777,5.79882553 10.4550781,5.08333789 10.4550781,4.171875 Z M11.6464844,4.1328125 C11.6464844,4.78125324 11.7962225,5.27278479 12.0957031,5.60742188 C12.3951838,5.94205896 12.7753883,6.109375 13.2363281,6.109375 C13.6972679,6.109375 14.0755194,5.94336104 14.3710938,5.61132812 C14.6666681,5.27929521 14.8144531,4.78125332 14.8144531,4.1171875 C14.8144531,3.46093422 14.6705744,2.97135578 14.3828125,2.6484375 C14.0950506,2.32551922 13.712893,2.1640625 13.2363281,2.1640625 C12.7597632,2.1640625 12.3756525,2.32747232 12.0839844,2.65429688 C11.7923162,2.98112143 11.6464844,3.47395504 11.6464844,4.1328125 Z M16.9082031,1.2734375 L19.0214844,1.2734375 C19.4980493,1.2734375 19.8613269,1.30989547 20.1113281,1.3828125 C20.4472673,1.48177133 20.7350248,1.65755082 20.9746094,1.91015625 C21.2141939,2.16276168 21.3964838,2.47200338 21.5214844,2.83789062 C21.646485,3.20377787 21.7089844,3.65494523 21.7089844,4.19140625 C21.7089844,4.66276277 21.6503912,5.06900871 21.5332031,5.41015625 C21.3899732,5.826825 21.1855482,6.16406121 20.9199219,6.421875 C20.7194,6.61718848 20.4485694,6.7695307 20.1074219,6.87890625 C19.8522123,6.95963582 19.5110698,7 19.0839844,7 L16.9082031,7 L16.9082031,1.2734375 Z M18.0644531,2.2421875 L18.0644531,6.03515625 L18.9277344,6.03515625 L19.2207037,6.0290799 C19.3960507,6.02097809 19.5314665,6.00477443 19.6269531,5.98046875 C19.8144541,5.93359352 19.9700515,5.85416723 20.09375,5.7421875 C20.2174485,5.63020777 20.318359,5.44596482 20.3964844,5.18945312 C20.4746098,4.93294143 20.5136719,4.58333555 20.5136719,4.140625 C20.5136719,3.69791445 20.4746098,3.3580741 20.3964844,3.12109375 C20.318359,2.8841134 20.2089851,2.69921941 20.0683594,2.56640625 C19.9277337,2.43359309 19.74935,2.34375023 19.5332031,2.296875 L19.3830566,2.27294914 C19.2038579,2.2524413 18.9375018,2.2421875 18.5839844,2.2421875 L18.0644531,2.2421875 Z M26.1542969,5.98046875 L26.1542969,7 L22.3066406,7 C22.3483075,6.61458141 22.4733063,6.24935068 22.6816406,5.90429688 C22.8668267,5.59758238 23.2125026,5.20188109 23.7186769,4.71718337 L24.2175212,4.24594824 C24.5361944,3.93875275 24.7390765,3.7213548 24.8261719,3.59375 C24.9772143,3.36718637 25.0527344,3.14323027 25.0527344,2.921875 C25.0527344,2.67708211 24.9869798,2.48893295 24.8554688,2.35742188 C24.7239577,2.2259108 24.5423189,2.16015625 24.3105469,2.16015625 C24.0813791,2.16015625 23.8990892,2.22916598 23.7636719,2.3671875 C23.6282545,2.50520902 23.5501303,2.7343734 23.5292969,3.0546875 L22.4355469,2.9453125 C22.5006514,2.34114281 22.7050764,1.9075534 23.0488281,1.64453125 C23.3925798,1.3815091 23.822263,1.25 24.3378906,1.25 C24.9029976,1.25 25.3470036,1.40234223 25.6699219,1.70703125 C25.9928402,2.01172027 26.1542969,2.39062273 26.1542969,2.84375 C26.1542969,3.10156379 26.1080734,3.34700404 26.015625,3.58007812 C25.9231766,3.81315221 25.7766937,4.05729039 25.5761719,4.3125 C25.4813053,4.43340834 25.3319654,4.59218172 25.1281496,4.7888228 L24.3567808,5.51354999 C24.2864074,5.58264158 24.2338869,5.63671855 24.1992188,5.67578125 C24.1067704,5.77994844 24.0319013,5.88150992 23.9746094,5.98046875 L26.1542969,5.98046875 Z" id="MOD2" fill="#FFFFFF"></path>
            </g>
            <g id="Mod1">
                <path d="M15.5,25.5 L13.5,25.5 L13.5,28.5 L15.5,28.5 L15.5,25.5 Z M15.5,29.5 L13.5,29.5 L13.5,32.5 L15.5,32.5 L15.5,29.5 Z M15.5,33.5 L13.5,33.5 L13.5,36.5 L15.5,36.5 L15.5,33.5 Z M15.5,37.5 L13.5,37.5 L13.5,40.5 L15.5,40.5 L15.5,37.5 Z M15.5,41.5 L13.5,41.5 L13.5,44.5 L15.5,44.5 L15.5,41.5 Z M15.5,45.5 L13.5,45.5 L13.5,48.5 L15.5,48.5 L15.5,45.5 Z M15.5,49.5 L13.5,49.5 L13.5,52.5 L15.5,52.5 L15.5,49.5 Z M15.5,53.5 L13.5,53.5 L13.5,56.5 L15.5,56.5 L15.5,53.5 Z" id="Line-Copy-7" fill="#4B4B4B"></path>
                <path d="M4.00976562,7 L4.00976562,1.2734375 L5.74023438,1.2734375 L6.77929688,5.1796875 L7.80664062,1.2734375 L9.54101562,1.2734375 L9.54101562,7 L8.46679688,7 L8.46679688,2.4921875 L7.33007812,7 L6.21679688,7 L5.08398438,2.4921875 L5.08398438,7 L4.00976562,7 Z M10.4550781,4.171875 C10.4550781,3.58853875 10.5423168,3.09896031 10.7167969,2.703125 C10.8470059,2.41145687 11.0247385,2.14974074 11.25,1.91796875 C11.4752615,1.68619676 11.7220039,1.51432348 11.9902344,1.40234375 C12.347007,1.25130133 12.7584612,1.17578125 13.2246094,1.17578125 C14.0683636,1.17578125 14.7434871,1.43749738 15.25,1.9609375 C15.7565129,2.48437762 16.0097656,3.21223492 16.0097656,4.14453125 C16.0097656,5.06901504 15.7584661,5.7923151 15.2558594,6.31445312 C14.7532527,6.83659115 14.0813844,7.09765625 13.2402344,7.09765625 C12.3886676,7.09765625 11.7115911,6.83789322 11.2089844,6.31835938 C10.7063777,5.79882553 10.4550781,5.08333789 10.4550781,4.171875 Z M11.6464844,4.1328125 C11.6464844,4.78125324 11.7962225,5.27278479 12.0957031,5.60742188 C12.3951838,5.94205896 12.7753883,6.109375 13.2363281,6.109375 C13.6972679,6.109375 14.0755194,5.94336104 14.3710938,5.61132812 C14.6666681,5.27929521 14.8144531,4.78125332 14.8144531,4.1171875 C14.8144531,3.46093422 14.6705744,2.97135578 14.3828125,2.6484375 C14.0950506,2.32551922 13.712893,2.1640625 13.2363281,2.1640625 C12.7597632,2.1640625 12.3756525,2.32747232 12.0839844,2.65429688 C11.7923162,2.98112143 11.6464844,3.47395504 11.6464844,4.1328125 Z M16.9082031,1.2734375 L19.0214844,1.2734375 C19.4980493,1.2734375 19.8613269,1.30989547 20.1113281,1.3828125 C20.4472673,1.48177133 20.7350248,1.65755082 20.9746094,1.91015625 C21.2141939,2.16276168 21.3964838,2.47200338 21.5214844,2.83789062 C21.646485,3.20377787 21.7089844,3.65494523 21.7089844,4.19140625 C21.7089844,4.66276277 21.6503912,5.06900871 21.5332031,5.41015625 C21.3899732,5.826825 21.1855482,6.16406121 20.9199219,6.421875 C20.7194,6.61718848 20.4485694,6.7695307 20.1074219,6.87890625 C19.8522123,6.95963582 19.5110698,7 19.0839844,7 L16.9082031,7 L16.9082031,1.2734375 Z M18.0644531,2.2421875 L18.0644531,6.03515625 L18.9277344,6.03515625 L19.2207037,6.0290799 C19.3960507,6.02097809 19.5314665,6.00477443 19.6269531,5.98046875 C19.8144541,5.93359352 19.9700515,5.85416723 20.09375,5.7421875 C20.2174485,5.63020777 20.318359,5.44596482 20.3964844,5.18945312 C20.4746098,4.93294143 20.5136719,4.58333555 20.5136719,4.140625 C20.5136719,3.69791445 20.4746098,3.3580741 20.3964844,3.12109375 C20.318359,2.8841134 20.2089851,2.69921941 20.0683594,2.56640625 C19.9277337,2.43359309 19.74935,2.34375023 19.5332031,2.296875 L19.3830566,2.27294914 C19.2038579,2.2524413 18.9375018,2.2421875 18.5839844,2.2421875 L18.0644531,2.2421875 Z M25.2558594,7 L24.1582031,7 L24.1582031,2.86328125 C23.7571595,3.23828313 23.2845079,3.5156241 22.7402344,3.6953125 L22.7402344,2.69921875 C23.0266941,2.60546828 23.3378889,2.42773568 23.6738281,2.16601562 C24.0097673,1.90429557 24.2402344,1.59896008 24.3652344,1.25 L25.2558594,1.25 L25.2558594,7 Z" id="MOD1" fill="#FFFFFF"></path>
            </g>
        </g>
        <g id="AMP" transform="translate(7.000000, 142.000000)" fill-rule="nonzero">
            <g id="Amp4" transform="translate(105.000000, 0.000000)">
                <path d="M15.5,0 L13.5,0 L13.5,3 L15.5,3 L15.5,0 Z M15.5,4 L13.5,4 L13.5,7 L15.5,7 L15.5,4 Z M15.5,8 L13.5,8 L13.5,11 L15.5,11 L15.5,8 Z M15.5,12 L13.5,12 L13.5,15 L15.5,15 L15.5,12 Z M15.5,16 L13.5,16 L13.5,19 L15.5,19 L15.5,16 Z M15.5,20 L13.5,20 L13.5,23 L15.5,23 L15.5,20 Z M15.5,24 L13.5,24 L13.5,27 L15.5,27 L15.5,24 Z M15.5,28 L13.5,28 L13.5,31 L15.5,31 L15.5,28 Z M15.5,32 L13.5,32 L13.5,35 L15.5,35 L15.5,32 Z M15.5,36 L13.5,36 L13.5,39 L15.5,39 L15.5,36 Z M15.5,40 L13.5,40 L13.5,43 L15.5,43 L15.5,40 Z M15.5,44 L13.5,44 L13.5,47 L15.5,47 L15.5,44 Z M15.5,48 L13.5,48 L13.5,51 L15.5,51 L15.5,48 Z M15.5,52 L13.5,52 L13.5,55 L15.5,55 L15.5,52 Z M15.5,56 L13.5,56 L13.5,59 L15.5,59 L15.5,56 Z" id="Line-Copy-14" fill="#4B4B4B"></path>
                <path d="M8.74609375,36.75 L7.48828125,36.75 L6.98828125,35.4492188 L4.69921875,35.4492188 L4.2265625,36.75 L3,36.75 L5.23046875,31.0234375 L6.453125,31.0234375 L8.74609375,36.75 Z M6.6171875,34.484375 L5.828125,32.359375 L5.0546875,34.484375 L6.6171875,34.484375 Z M11.0742188,31.0234375 L12.1132812,34.9296875 L13.140625,31.0234375 L14.875,31.0234375 L14.875,36.75 L13.8007812,36.75 L13.8007812,32.2421875 L12.6640625,36.75 L11.5507812,36.75 L10.4179688,32.2421875 L10.4179688,36.75 L9.34375,36.75 L9.34375,31.0234375 L11.0742188,31.0234375 Z M17.8789062,31.0234375 C18.5820348,31.0234375 19.0403635,31.052083 19.2539062,31.109375 C19.5820329,31.1953129 19.8567697,31.38216 20.078125,31.6699219 C20.2994803,31.9576837 20.4101562,32.3294248 20.4101562,32.7851562 C20.4101562,33.1367205 20.3463548,33.4322905 20.21875,33.671875 C20.0911452,33.9114595 19.9290374,34.0996087 19.7324219,34.2363281 C19.5358063,34.3730476 19.3359385,34.4635414 19.1328125,34.5078125 C18.8962042,34.5546877 18.5687197,34.5814733 18.1503515,34.5881697 L17.1796875,34.5898438 L17.1796875,36.75 L16.0234375,36.75 L16.0234375,31.0234375 L17.8789062,31.0234375 Z M24.3320312,31 L24.3320312,34.6328125 L25.0429688,34.6328125 L25.0429688,35.5976562 L24.3320312,35.5976562 L24.3320312,36.75 L23.2695312,36.75 L23.2695312,35.5976562 L20.9257812,35.5976562 L20.9257812,34.6367188 L23.4101562,31 L24.3320312,31 Z M23.2695312,32.6757812 L21.953125,34.6328125 L23.2695312,34.6328125 L23.2695312,32.6757812 Z M17.9083233,31.9929847 L17.1796875,31.9921875 L17.1796875,33.6171875 L17.8125,33.6171875 L18.1259774,33.6115723 C18.4111338,33.6003419 18.6113275,33.5722658 18.7265625,33.5273438 C18.8802091,33.4674476 19.0006506,33.3736986 19.0878906,33.2460938 C19.1751306,33.1184889 19.21875,32.9700529 19.21875,32.8007812 C19.21875,32.5924469 19.1575527,32.4205736 19.0351562,32.2851562 C18.9127598,32.1497389 18.7578134,32.0651043 18.5703125,32.03125 C18.4520083,32.0089285 18.231347,31.9961734 17.9083233,31.9929847 Z" id="AMP4" fill="#FFFFFF"></path>
            </g>
            <g id="Amp3" transform="translate(70.000000, 0.000000)">
                <path d="M15.5,0 L13.5,0 L13.5,3 L15.5,3 L15.5,0 Z M15.5,4 L13.5,4 L13.5,7 L15.5,7 L15.5,4 Z M15.5,8 L13.5,8 L13.5,11 L15.5,11 L15.5,8 Z M15.5,12 L13.5,12 L13.5,15 L15.5,15 L15.5,12 Z M15.5,16 L13.5,16 L13.5,19 L15.5,19 L15.5,16 Z M15.5,20 L13.5,20 L13.5,23 L15.5,23 L15.5,20 Z M15.5,24 L13.5,24 L13.5,27 L15.5,27 L15.5,24 Z M15.5,28 L13.5,28 L13.5,31 L15.5,31 L15.5,28 Z M15.5,32 L13.5,32 L13.5,35 L15.5,35 L15.5,32 Z M15.5,36 L13.5,36 L13.5,39 L15.5,39 L15.5,36 Z M15.5,40 L13.5,40 L13.5,43 L15.5,43 L15.5,40 Z M15.5,44 L13.5,44 L13.5,47 L15.5,47 L15.5,44 Z M15.5,48 L13.5,48 L13.5,51 L15.5,51 L15.5,48 Z M15.5,52 L13.5,52 L13.5,55 L15.5,55 L15.5,52 Z M15.5,56 L13.5,56 L13.5,59 L15.5,59 L15.5,56 Z" id="Line-Copy-13" fill="#4B4B4B"></path>
                <path d="M8.74609375,36.75 L7.48828125,36.75 L6.98828125,35.4492188 L4.69921875,35.4492188 L4.2265625,36.75 L3,36.75 L5.23046875,31.0234375 L6.453125,31.0234375 L8.74609375,36.75 Z M6.6171875,34.484375 L5.828125,32.359375 L5.0546875,34.484375 L6.6171875,34.484375 Z M9.34375,36.75 L9.34375,31.0234375 L11.0742188,31.0234375 L12.1132812,34.9296875 L13.140625,31.0234375 L14.875,31.0234375 L14.875,36.75 L13.8007812,36.75 L13.8007812,32.2421875 L12.6640625,36.75 L11.5507812,36.75 L10.4179688,32.2421875 L10.4179688,36.75 L9.34375,36.75 Z M16.0234375,36.75 L16.0234375,31.0234375 L17.8789062,31.0234375 C18.5820348,31.0234375 19.0403635,31.052083 19.2539062,31.109375 C19.5820329,31.1953129 19.8567697,31.38216 20.078125,31.6699219 C20.2994803,31.9576837 20.4101562,32.3294248 20.4101562,32.7851562 C20.4101562,33.1367205 20.3463548,33.4322905 20.21875,33.671875 C20.0911452,33.9114595 19.9290374,34.0996087 19.7324219,34.2363281 C19.5358063,34.3730476 19.3359385,34.4635414 19.1328125,34.5078125 C18.8962042,34.5546877 18.5687197,34.5814733 18.1503515,34.5881697 L17.1796875,34.5898438 L17.1796875,36.75 L16.0234375,36.75 Z M17.1796875,31.9921875 L17.1796875,33.6171875 L17.8125,33.6171875 L18.1259774,33.6115723 C18.4111338,33.6003419 18.6113275,33.5722658 18.7265625,33.5273438 C18.8802091,33.4674476 19.0006506,33.3736986 19.0878906,33.2460938 C19.1751306,33.1184889 19.21875,32.9700529 19.21875,32.8007812 C19.21875,32.5924469 19.1575527,32.4205736 19.0351562,32.2851562 C18.9127598,32.1497389 18.7578134,32.0651043 18.5703125,32.03125 C18.4520083,32.0089285 18.231347,31.9961734 17.9083233,31.9929847 L17.1796875,31.9921875 Z M21.078125,35.2304688 L22.140625,35.1015625 C22.1744793,35.3723972 22.2656243,35.5794264 22.4140625,35.7226562 C22.5625007,35.8658861 22.7421864,35.9375 22.953125,35.9375 C23.1796886,35.9375 23.3704419,35.8515634 23.5253906,35.6796875 C23.6803393,35.5078116 23.7578125,35.2760431 23.7578125,34.984375 C23.7578125,34.708332 23.6835945,34.4895841 23.5351562,34.328125 C23.386718,34.1666659 23.2057302,34.0859375 22.9921875,34.0859375 C22.8515618,34.0859375 22.6835947,34.113281 22.4882812,34.1679688 L22.609375,33.2734375 C22.9062515,33.28125 23.1328117,33.2167976 23.2890625,33.0800781 C23.4453133,32.9433587 23.5234375,32.7617199 23.5234375,32.5351562 C23.5234375,32.342447 23.4661464,32.1888027 23.3515625,32.0742188 C23.2369786,31.9596348 23.0846364,31.9023438 22.8945312,31.9023438 C22.7070303,31.9023438 22.5468757,31.9674473 22.4140625,32.0976562 C22.2812493,32.2278652 22.200521,32.4179675 22.171875,32.6679688 L21.1601562,32.4960938 C21.2304691,32.1497379 21.3365878,31.8730479 21.4785156,31.6660156 C21.6204434,31.4589833 21.8183581,31.2962246 22.0722656,31.1777344 C22.3261731,31.0592442 22.6106755,31 22.9257812,31 C23.4648464,31 23.8971338,31.1718733 24.2226562,31.515625 C24.4908868,31.7968764 24.625,32.1145816 24.625,32.46875 C24.625,32.9713567 24.3502632,33.3723943 23.8007812,33.671875 C24.1289079,33.7421879 24.3912751,33.8997384 24.5878906,34.1445312 C24.7845062,34.3893241 24.8828125,34.6848941 24.8828125,35.03125 C24.8828125,35.5338567 24.6992206,35.9622378 24.3320312,36.3164062 C23.9648419,36.6705747 23.5078152,36.8476562 22.9609375,36.8476562 C22.4427057,36.8476562 22.0130225,36.6985692 21.671875,36.4003906 C21.3307275,36.1022121 21.1328128,35.712242 21.078125,35.2304688 Z" id="AMP3" fill="#FFFFFF"></path>
            </g>
            <g id="Amp2" transform="translate(35.000000, 0.000000)">
                <path d="M15.5,0 L13.5,0 L13.5,3 L15.5,3 L15.5,0 Z M15.5,4 L13.5,4 L13.5,7 L15.5,7 L15.5,4 Z M15.5,8 L13.5,8 L13.5,11 L15.5,11 L15.5,8 Z M15.5,12 L13.5,12 L13.5,15 L15.5,15 L15.5,12 Z M15.5,16 L13.5,16 L13.5,19 L15.5,19 L15.5,16 Z M15.5,20 L13.5,20 L13.5,23 L15.5,23 L15.5,20 Z M15.5,24 L13.5,24 L13.5,27 L15.5,27 L15.5,24 Z M15.5,28 L13.5,28 L13.5,31 L15.5,31 L15.5,28 Z M15.5,32 L13.5,32 L13.5,35 L15.5,35 L15.5,32 Z M15.5,36 L13.5,36 L13.5,39 L15.5,39 L15.5,36 Z M15.5,40 L13.5,40 L13.5,43 L15.5,43 L15.5,40 Z M15.5,44 L13.5,44 L13.5,47 L15.5,47 L15.5,44 Z M15.5,48 L13.5,48 L13.5,51 L15.5,51 L15.5,48 Z M15.5,52 L13.5,52 L13.5,55 L15.5,55 L15.5,52 Z M15.5,56 L13.5,56 L13.5,59 L15.5,59 L15.5,56 Z" id="Line-Copy-12" fill="#4B4B4B"></path>
                <path d="M9.24609375,36.75 L7.98828125,36.75 L7.48828125,35.4492188 L5.19921875,35.4492188 L4.7265625,36.75 L3.5,36.75 L5.73046875,31.0234375 L6.953125,31.0234375 L9.24609375,36.75 Z M7.1171875,34.484375 L6.328125,32.359375 L5.5546875,34.484375 L7.1171875,34.484375 Z M9.84375,36.75 L9.84375,31.0234375 L11.5742188,31.0234375 L12.6132812,34.9296875 L13.640625,31.0234375 L15.375,31.0234375 L15.375,36.75 L14.3007812,36.75 L14.3007812,32.2421875 L13.1640625,36.75 L12.0507812,36.75 L10.9179688,32.2421875 L10.9179688,36.75 L9.84375,36.75 Z M16.5234375,36.75 L16.5234375,31.0234375 L18.3789062,31.0234375 C19.0820348,31.0234375 19.5403635,31.052083 19.7539062,31.109375 C20.0820329,31.1953129 20.3567697,31.38216 20.578125,31.6699219 C20.7994803,31.9576837 20.9101562,32.3294248 20.9101562,32.7851562 C20.9101562,33.1367205 20.8463548,33.4322905 20.71875,33.671875 C20.5911452,33.9114595 20.4290374,34.0996087 20.2324219,34.2363281 C20.0358063,34.3730476 19.8359385,34.4635414 19.6328125,34.5078125 C19.3962042,34.5546877 19.0687197,34.5814733 18.6503515,34.5881697 L17.6796875,34.5898438 L17.6796875,36.75 L16.5234375,36.75 Z M17.6796875,31.9921875 L17.6796875,33.6171875 L18.3125,33.6171875 L18.6259774,33.6115723 C18.9111338,33.6003419 19.1113275,33.5722658 19.2265625,33.5273438 C19.3802091,33.4674476 19.5006506,33.3736986 19.5878906,33.2460938 C19.6751306,33.1184889 19.71875,32.9700529 19.71875,32.8007812 C19.71875,32.5924469 19.6575527,32.4205736 19.5351562,32.2851562 C19.4127598,32.1497389 19.2578134,32.0651043 19.0703125,32.03125 C18.9520083,32.0089285 18.731347,31.9961734 18.4083233,31.9929847 L17.6796875,31.9921875 Z M25.3242188,35.7304688 L25.3242188,36.75 L21.4765625,36.75 C21.5182294,36.3645814 21.6432281,35.9993507 21.8515625,35.6542969 C22.0367486,35.3475824 22.3824245,34.9518811 22.8885988,34.4671834 L23.3874431,33.9959482 C23.7061163,33.6887527 23.9089984,33.4713548 23.9960938,33.34375 C24.1471362,33.1171864 24.2226562,32.8932303 24.2226562,32.671875 C24.2226562,32.4270821 24.1569017,32.2389329 24.0253906,32.1074219 C23.8938796,31.9759108 23.7122407,31.9101562 23.4804688,31.9101562 C23.2513009,31.9101562 23.0690111,31.979166 22.9335938,32.1171875 C22.7981764,32.255209 22.7200522,32.4843734 22.6992188,32.8046875 L21.6054688,32.6953125 C21.6705732,32.0911428 21.8749983,31.6575534 22.21875,31.3945312 C22.5625017,31.1315091 22.9921849,31 23.5078125,31 C24.0729195,31 24.5169255,31.1523422 24.8398438,31.4570312 C25.162762,31.7617203 25.3242188,32.1406227 25.3242188,32.59375 C25.3242188,32.8515638 25.2779953,33.097004 25.1855469,33.3300781 C25.0930985,33.5631522 24.9466156,33.8072904 24.7460938,34.0625 C24.6512272,34.1834083 24.5018873,34.3421817 24.2980714,34.5388228 L23.6030269,35.1894535 C23.4933266,35.294922 23.4153648,35.3736977 23.3691406,35.4257812 C23.2766922,35.5299484 23.2018232,35.6315099 23.1445312,35.7304688 L25.3242188,35.7304688 Z" id="AMP2" fill="#FFFFFF"></path>
            </g>
            <g id="Amp1" transform="translate(0.000000, 1.000000)">
                <path d="M15.5,0 L13.5,0 L13.5,3 L15.5,3 L15.5,0 Z M15.5,4 L13.5,4 L13.5,7 L15.5,7 L15.5,4 Z M15.5,8 L13.5,8 L13.5,11 L15.5,11 L15.5,8 Z M15.5,12 L13.5,12 L13.5,15 L15.5,15 L15.5,12 Z M15.5,16 L13.5,16 L13.5,19 L15.5,19 L15.5,16 Z M15.5,20 L13.5,20 L13.5,23 L15.5,23 L15.5,20 Z M15.5,24 L13.5,24 L13.5,27 L15.5,27 L15.5,24 Z M15.5,28 L13.5,28 L13.5,31 L15.5,31 L15.5,28 Z M15.5,32 L13.5,32 L13.5,35 L15.5,35 L15.5,32 Z M15.5,36 L13.5,36 L13.5,39 L15.5,39 L15.5,36 Z M15.5,40 L13.5,40 L13.5,43 L15.5,43 L15.5,40 Z M15.5,44 L13.5,44 L13.5,47 L15.5,47 L15.5,44 Z M15.5,48 L13.5,48 L13.5,51 L15.5,51 L15.5,48 Z M15.5,52 L13.5,52 L13.5,55 L15.5,55 L15.5,52 Z M15.5,56 L13.5,56 L13.5,59 L15.5,59 L15.5,56 Z" id="Line-Copy-11" fill="#4B4B4B"></path>
                <path d="M10.7460938,35.75 L9.48828125,35.75 L8.98828125,34.4492188 L6.69921875,34.4492188 L6.2265625,35.75 L5,35.75 L7.23046875,30.0234375 L8.453125,30.0234375 L10.7460938,35.75 Z M8.6171875,33.484375 L7.828125,31.359375 L7.0546875,33.484375 L8.6171875,33.484375 Z M11.34375,35.75 L11.34375,30.0234375 L13.0742188,30.0234375 L14.1132812,33.9296875 L15.140625,30.0234375 L16.875,30.0234375 L16.875,35.75 L15.8007812,35.75 L15.8007812,31.2421875 L14.6640625,35.75 L13.5507812,35.75 L12.4179688,31.2421875 L12.4179688,35.75 L11.34375,35.75 Z M18.0234375,35.75 L18.0234375,30.0234375 L19.8789062,30.0234375 C20.5820348,30.0234375 21.0403635,30.052083 21.2539062,30.109375 C21.5820329,30.1953129 21.8567697,30.38216 22.078125,30.6699219 C22.2994803,30.9576837 22.4101562,31.3294248 22.4101562,31.7851562 C22.4101562,32.1367205 22.3463548,32.4322905 22.21875,32.671875 C22.0911452,32.9114595 21.9290374,33.0996087 21.7324219,33.2363281 C21.5358063,33.3730476 21.3359385,33.4635414 21.1328125,33.5078125 C20.8962042,33.5546877 20.5687197,33.5814733 20.1503515,33.5881697 L19.1796875,33.5898438 L19.1796875,35.75 L18.0234375,35.75 Z M19.1796875,30.9921875 L19.1796875,32.6171875 L19.8125,32.6171875 L20.1259774,32.6115723 C20.4111338,32.6003419 20.6113275,32.5722658 20.7265625,32.5273438 C20.8802091,32.4674476 21.0006506,32.3736986 21.0878906,32.2460938 C21.1751306,32.1184889 21.21875,31.9700529 21.21875,31.8007812 C21.21875,31.5924469 21.1575527,31.4205736 21.0351562,31.2851562 C20.9127598,31.1497389 20.7578134,31.0651043 20.5703125,31.03125 C20.4520083,31.0089285 20.231347,30.9961734 19.9083233,30.9929847 L19.1796875,30.9921875 Z M25.9257812,35.75 L24.828125,35.75 L24.828125,31.6132812 C24.4270813,31.9882831 23.9544298,32.2656241 23.4101562,32.4453125 L23.4101562,31.4492188 C23.696616,31.3554683 24.0078108,31.1777357 24.34375,30.9160156 C24.6796892,30.6542956 24.9101562,30.3489601 25.0351562,30 L25.9257812,30 L25.9257812,35.75 Z" id="AMP1" fill="#FFFFFF"></path>
            </g>
        </g>
        <g id="VOCT" transform="translate(7.000000, 35.000000)" fill-rule="nonzero">
            <g id="Period" transform="translate(105.000000, 0.000000)">
                <path d="M15.5,0 L13.5,0 L13.5,3 L15.5,3 L15.5,0 Z M15.5,4 L13.5,4 L13.5,7 L15.5,7 L15.5,4 Z M15.5,8 L13.5,8 L13.5,11 L15.5,11 L15.5,8 Z M15.5,12 L13.5,12 L13.5,15 L15.5,15 L15.5,12 Z M15.5,16 L13.5,16 L13.5,19 L15.5,19 L15.5,16 Z M15.5,20 L13.5,20 L13.5,23 L15.5,23 L15.5,20 Z M15.5,24 L13.5,24 L13.5,27 L15.5,27 L15.5,24 Z M15.5,28 L13.5,28 L13.5,31 L15.5,31 L15.5,28 Z M15.5,32 L13.5,32 L13.5,35 L15.5,35 L15.5,32 Z M15.5,36 L13.5,36 L13.5,39 L15.5,39 L15.5,36 Z M15.5,40 L13.5,40 L13.5,43 L15.5,43 L15.5,40 Z M15.5,44 L13.5,44 L13.5,47 L15.5,47 L15.5,44 Z M15.5,48 L13.5,48 L13.5,51 L15.5,51 L15.5,48 Z M15.5,52 L13.5,52 L13.5,55 L15.5,55 L15.5,52 Z M15.5,56 L13.5,56 L13.5,59 L15.5,59 L15.5,56 Z" id="Line-Copy-14" fill="#4B4B4B"></path>
                <path d="M2.59033203,39 L2.59033203,33.9892578 L4.21386719,33.9892578 C4.82910464,33.9892578 5.23014229,34.0143227 5.41699219,34.0644531 C5.704103,34.1396488 5.94449773,34.30314 6.13818359,34.5549316 C6.33186946,34.8067233 6.42871094,35.1319967 6.42871094,35.5307617 C6.42871094,35.8383804 6.37288467,36.0970042 6.26123047,36.3066406 C6.14957626,36.5162771 6.00773198,36.6809076 5.83569336,36.8005371 C5.66365474,36.9201666 5.48877042,36.9993488 5.31103516,37.0380859 C5.06949749,37.0859377 4.71972885,37.1098633 4.26171875,37.1098633 L3.60205078,37.1098633 L3.60205078,39 L2.59033203,39 Z M3.60205078,34.8369141 L3.60205078,36.2587891 L4.15576172,36.2587891 C4.55452673,36.2587891 4.82112563,36.2325849 4.95556641,36.1801758 C5.09000718,36.1277667 5.1953935,36.0457362 5.27172852,35.934082 C5.34806353,35.8224278 5.38623047,35.6925463 5.38623047,35.5444336 C5.38623047,35.362141 5.33268283,35.2117519 5.22558594,35.0932617 C5.11848905,34.9747715 4.98291098,34.9007163 4.81884766,34.8710938 C4.71533151,34.8515624 4.52225287,34.8404018 4.23960713,34.8376116 L3.60205078,34.8369141 Z M7.25927734,39 L7.25927734,33.9892578 L10.9746094,33.9892578 L10.9746094,34.8369141 L8.27099609,34.8369141 L8.27099609,35.9477539 L10.7866211,35.9477539 L10.7866211,36.7919922 L8.27099609,36.7919922 L8.27099609,38.1557617 L11.0703125,38.1557617 L11.0703125,39 L7.25927734,39 Z M11.9316406,39 L11.9316406,33.9892578 L14.0610352,33.9892578 C14.5965196,33.9892578 14.9855945,34.0342606 15.2282715,34.1242676 C15.4709485,34.2142745 15.6652011,34.3743478 15.8110352,34.6044922 C15.9568692,34.8346366 16.0297852,35.0978175 16.0297852,35.394043 C16.0297852,35.7700214 15.9192719,36.0804838 15.6982422,36.3254395 C15.4772124,36.5703951 15.1468121,36.7247718 14.7070312,36.7885742 C14.9257823,36.916179 15.1063632,37.0563143 15.2487793,37.2089844 C15.3708502,37.3398444 15.529331,37.5577555 15.7242254,37.8627226 L16.4365234,39 L15.2265625,39 L14.3156733,37.6444542 C14.1516108,37.4062644 14.0336918,37.2491459 13.9619141,37.1730957 C13.8662105,37.0716955 13.7648117,37.0021975 13.6577148,36.9645996 C13.5720373,36.9345213 13.4462571,36.9164745 13.2803715,36.910459 L12.9433594,36.9082031 L12.9433594,39 L11.9316406,39 Z M12.9433594,34.8369141 L12.9433594,36.1083984 L13.6918945,36.1083984 C14.1772485,36.1083984 14.4803054,36.0878908 14.6010742,36.046875 C14.7218431,36.0058592 14.8164059,35.9352219 14.8847656,35.8349609 C14.9531253,35.7347 14.9873047,35.6093758 14.9873047,35.4589844 C14.9873047,35.2903637 14.9423019,35.154216 14.8522949,35.0505371 C14.762288,34.9468582 14.6352547,34.8813478 14.4711914,34.8540039 C14.4096677,34.8454589 14.2558604,34.8401184 14.0097664,34.8379822 L12.9433594,34.8369141 Z M21.1464844,33.9038086 C21.8847693,33.9038086 22.4755023,34.1328102 22.9187012,34.5908203 C23.3619,35.0488304 23.5834961,35.6857056 23.5834961,36.5014648 C23.5834961,37.3103882 23.363609,37.9432757 22.9238281,38.4001465 C22.4840473,38.8570173 21.8961625,39.0854492 21.1601562,39.0854492 C20.4150353,39.0854492 19.8225933,38.8581566 19.3828125,38.4035645 C18.9430317,37.9489723 18.7231445,37.3229207 18.7231445,36.5253906 C18.7231445,36.0149714 18.7994784,35.5865903 18.9521484,35.2402344 C19.0660813,34.9850248 19.2215973,34.7560231 19.4187012,34.5532227 C19.615805,34.3504222 19.8317046,34.200033 20.0664062,34.1020508 C20.3785823,33.9698887 20.7386047,33.9038086 21.1464844,33.9038086 Z M17.9643555,33.9892578 L17.9643555,39 L16.9526367,39 L16.9526367,33.9892578 L17.9643555,33.9892578 Z M26.21875,33.9892578 C26.6357443,33.9892578 26.9536122,34.0211585 27.1723633,34.0849609 C27.4663101,34.1715499 27.7180979,34.325357 27.9277344,34.5463867 C28.1373708,34.7674165 28.2968745,35.038003 28.40625,35.3581543 C28.5156255,35.6783056 28.5703125,36.0730771 28.5703125,36.5424805 C28.5703125,36.9549174 28.5190435,37.3103826 28.4165039,37.6088867 C28.2911778,37.9734719 28.1123058,38.2685536 27.8798828,38.4941406 C27.7044262,38.6650399 27.4674494,38.7983394 27.1689453,38.894043 C26.9456369,38.9646813 26.6471373,39 26.2734375,39 L24.3696289,39 L24.3696289,33.9892578 L26.21875,33.9892578 Z M21.1567383,34.7685547 C20.739744,34.7685547 20.4036471,34.9115383 20.1484375,35.1975098 C19.8932279,35.4834812 19.765625,35.9147107 19.765625,36.4912109 C19.765625,37.0585966 19.8966458,37.4886867 20.1586914,37.7814941 C20.420737,38.0743016 20.753416,38.2207031 21.1567383,38.2207031 C21.5600606,38.2207031 21.8910306,38.0754409 22.1496582,37.7849121 C22.4082858,37.4943833 22.5375977,37.0585967 22.5375977,36.4775391 C22.5375977,35.9033174 22.4117037,35.4749363 22.1599121,35.1923828 C21.9081205,34.9098293 21.5737326,34.7685547 21.1567383,34.7685547 Z M25.8359375,34.8369141 L25.3813477,34.8369141 L25.3813477,38.1557617 L26.1367188,38.1557617 C26.4192722,38.1557617 26.623209,38.1398114 26.7485352,38.1079102 C26.9125985,38.0668943 27.0487462,37.9973963 27.1569824,37.8994141 C27.2652186,37.8014318 27.3535153,37.6402192 27.421875,37.4157715 C27.4902347,37.1913237 27.5244141,36.8854186 27.5244141,36.4980469 C27.5244141,36.1106751 27.4902347,35.8133148 27.421875,35.605957 C27.3535153,35.3985992 27.2578131,35.236817 27.1347656,35.1206055 C27.0117181,35.004394 26.8556325,34.9257815 26.6665039,34.8847656 C26.5252272,34.8528644 26.2483745,34.8369141 25.8359375,34.8369141 Z" id="PERIOD" fill="#FFFFFF"></path>
            </g>
            <g id="Voct3" transform="translate(70.000000, 0.000000)">
                <path d="M15.5,0 L13.5,0 L13.5,3 L15.5,3 L15.5,0 Z M15.5,4 L13.5,4 L13.5,7 L15.5,7 L15.5,4 Z M15.5,8 L13.5,8 L13.5,11 L15.5,11 L15.5,8 Z M15.5,12 L13.5,12 L13.5,15 L15.5,15 L15.5,12 Z M15.5,16 L13.5,16 L13.5,19 L15.5,19 L15.5,16 Z M15.5,20 L13.5,20 L13.5,23 L15.5,23 L15.5,20 Z M15.5,24 L13.5,24 L13.5,27 L15.5,27 L15.5,24 Z M15.5,28 L13.5,28 L13.5,31 L15.5,31 L15.5,28 Z M15.5,32 L13.5,32 L13.5,35 L15.5,35 L15.5,32 Z M15.5,36 L13.5,36 L13.5,39 L15.5,39 L15.5,36 Z M15.5,40 L13.5,40 L13.5,43 L15.5,43 L15.5,40 Z M15.5,44 L13.5,44 L13.5,47 L15.5,47 L15.5,44 Z M15.5,48 L13.5,48 L13.5,51 L15.5,51 L15.5,48 Z M15.5,52 L13.5,52 L13.5,55 L15.5,55 L15.5,52 Z M15.5,56 L13.5,56 L13.5,59 L15.5,59 L15.5,56 Z" id="Line-Copy-13" fill="#4B4B4B"></path>
                <path d="M3.70703125,38.8242188 L1.66015625,33.0976562 L2.9140625,33.0976562 L4.36328125,37.3359375 L5.765625,33.0976562 L6.9921875,33.0976562 L4.94140625,38.8242188 L3.70703125,38.8242188 Z M7.34765625,35.9960938 C7.34765625,35.4127575 7.43489496,34.9231791 7.609375,34.5273438 C7.73958398,34.2356756 7.91731658,33.9739595 8.14257812,33.7421875 C8.36783967,33.5104155 8.61458199,33.3385422 8.8828125,33.2265625 C9.23958512,33.0755201 9.65103934,33 10.1171875,33 C10.9609417,33 11.6360652,33.2617161 12.1425781,33.7851562 C12.6490911,34.3085964 12.9023438,35.0364537 12.9023438,35.96875 C12.9023438,36.8932338 12.6510442,37.6165338 12.1484375,38.1386719 C11.6458308,38.6608099 10.9739625,38.921875 10.1328125,38.921875 C9.28124574,38.921875 8.60416918,38.662112 8.1015625,38.1425781 C7.59895582,37.6230443 7.34765625,36.9075566 7.34765625,35.9960938 Z M8.5390625,35.9570312 C8.5390625,36.605472 8.68880059,37.0970035 8.98828125,37.4316406 C9.28776191,37.7662777 9.66796645,37.9335938 10.1289062,37.9335938 C10.5898461,37.9335938 10.9680975,37.7675798 11.2636719,37.4355469 C11.5592463,37.103514 11.7070312,36.6054721 11.7070312,35.9414062 C11.7070312,35.285153 11.5631525,34.7955745 11.2753906,34.4726562 C10.9876288,34.149738 10.6054711,33.9882812 10.1289062,33.9882812 C9.65234137,33.9882812 9.26823063,34.1516911 8.9765625,34.4785156 C8.68489437,34.8053402 8.5390625,35.2981738 8.5390625,35.9570312 Z M17.46875,36.71875 L18.5898438,37.0742188 C18.4179679,37.6992219 18.1321635,38.1634099 17.7324219,38.4667969 C17.3326803,38.7701838 16.8255239,38.921875 16.2109375,38.921875 C15.450517,38.921875 14.8255233,38.662112 14.3359375,38.1425781 C13.8463517,37.6230443 13.6015625,36.9127649 13.6015625,36.0117188 C13.6015625,35.058589 13.8476538,34.318362 14.3398438,33.7910156 C14.8320337,33.2636692 15.4791627,33 16.28125,33 C16.9817743,33 17.5507791,33.2070292 17.9882812,33.6210938 C18.2486992,33.8658866 18.4440098,34.2174456 18.5742188,34.6757812 L17.4296875,34.9492188 C17.3619788,34.6523423 17.2207042,34.4179696 17.0058594,34.2460938 C16.7910146,34.0742179 16.5299495,33.9882812 16.2226562,33.9882812 C15.798175,33.9882812 15.4537774,34.1406235 15.1894531,34.4453125 C14.9251289,34.7500015 14.7929688,35.2434862 14.7929688,35.9257812 C14.7929688,36.6497432 14.9231758,37.165363 15.1835938,37.4726562 C15.4440117,37.7799495 15.78255,37.9335938 16.1992188,37.9335938 C16.506512,37.9335938 16.7708322,37.8359385 16.9921875,37.640625 C17.2135428,37.4453115 17.3723954,37.1380229 17.46875,36.71875 Z M20.8710938,38.8242188 L20.8710938,34.0664062 L19.171875,34.0664062 L19.171875,33.0976562 L23.7226562,33.0976562 L23.7226562,34.0664062 L22.0273438,34.0664062 L22.0273438,38.8242188 L20.8710938,38.8242188 Z M24.1875,37.3046875 L25.25,37.1757812 C25.2838543,37.4466159 25.3749993,37.6536451 25.5234375,37.796875 C25.6718757,37.9401049 25.8515614,38.0117188 26.0625,38.0117188 C26.2890636,38.0117188 26.4798169,37.9257821 26.6347656,37.7539062 C26.7897143,37.5820304 26.8671875,37.3502619 26.8671875,37.0585938 C26.8671875,36.7825507 26.7929695,36.5638029 26.6445312,36.4023438 C26.496093,36.2408846 26.3151052,36.1601562 26.1015625,36.1601562 C25.9609368,36.1601562 25.7929697,36.1874997 25.5976562,36.2421875 L25.71875,35.3476562 C26.0156265,35.3554688 26.2421867,35.2910163 26.3984375,35.1542969 C26.5546883,35.0175774 26.6328125,34.8359386 26.6328125,34.609375 C26.6328125,34.4166657 26.5755214,34.2630214 26.4609375,34.1484375 C26.3463536,34.0338536 26.1940114,33.9765625 26.0039062,33.9765625 C25.8164053,33.9765625 25.6562507,34.041666 25.5234375,34.171875 C25.3906243,34.302084 25.309896,34.4921863 25.28125,34.7421875 L24.2695312,34.5703125 C24.3398441,34.2239566 24.4459628,33.9472667 24.5878906,33.7402344 C24.7298184,33.5332021 24.9277331,33.3704433 25.1816406,33.2519531 C25.4355481,33.1334629 25.7200505,33.0742188 26.0351562,33.0742188 C26.5742214,33.0742188 27.0065088,33.246092 27.3320312,33.5898438 C27.6002618,33.8710952 27.734375,34.1888003 27.734375,34.5429688 C27.734375,35.0455754 27.4596382,35.4466131 26.9101562,35.7460938 C27.2382829,35.8164066 27.5006501,35.9739571 27.6972656,36.21875 C27.8938812,36.4635429 27.9921875,36.7591129 27.9921875,37.1054688 C27.9921875,37.6080754 27.8085956,38.0364566 27.4414062,38.390625 C27.0742169,38.7447934 26.6171902,38.921875 26.0703125,38.921875 C25.5520807,38.921875 25.1223975,38.7727879 24.78125,38.4746094 C24.4401025,38.1764308 24.2421878,37.7864607 24.1875,37.3046875 Z" id="VOCT3" fill="#FFFFFF"></path>
            </g>
            <g id="Voct2" transform="translate(35.000000, 0.000000)">
                <path d="M15.5,0 L13.5,0 L13.5,3 L15.5,3 L15.5,0 Z M15.5,4 L13.5,4 L13.5,7 L15.5,7 L15.5,4 Z M15.5,8 L13.5,8 L13.5,11 L15.5,11 L15.5,8 Z M15.5,12 L13.5,12 L13.5,15 L15.5,15 L15.5,12 Z M15.5,16 L13.5,16 L13.5,19 L15.5,19 L15.5,16 Z M15.5,20 L13.5,20 L13.5,23 L15.5,23 L15.5,20 Z M15.5,24 L13.5,24 L13.5,27 L15.5,27 L15.5,24 Z M15.5,28 L13.5,28 L13.5,31 L15.5,31 L15.5,28 Z M15.5,32 L13.5,32 L13.5,35 L15.5,35 L15.5,32 Z M15.5,36 L13.5,36 L13.5,39 L15.5,39 L15.5,36 Z M15.5,40 L13.5,40 L13.5,43 L15.5,43 L15.5,40 Z M15.5,44 L13.5,44 L13.5,47 L15.5,47 L15.5,44 Z M15.5,48 L13.5,48 L13.5,51 L15.5,51 L15.5,48 Z M15.5,52 L13.5,52 L13.5,55 L15.5,55 L15.5,52 Z M15.5,56 L13.5,56 L13.5,59 L15.5,59 L15.5,56 Z" id="Line-Copy-12" fill="#4B4B4B"></path>
                <path d="M3.70703125,38.8242188 L1.66015625,33.0976562 L2.9140625,33.0976562 L4.36328125,37.3359375 L5.765625,33.0976562 L6.9921875,33.0976562 L4.94140625,38.8242188 L3.70703125,38.8242188 Z M7.34765625,35.9960938 C7.34765625,35.4127575 7.43489496,34.9231791 7.609375,34.5273438 C7.73958398,34.2356756 7.91731658,33.9739595 8.14257812,33.7421875 C8.36783967,33.5104155 8.61458199,33.3385422 8.8828125,33.2265625 C9.23958512,33.0755201 9.65103934,33 10.1171875,33 C10.9609417,33 11.6360652,33.2617161 12.1425781,33.7851562 C12.6490911,34.3085964 12.9023438,35.0364537 12.9023438,35.96875 C12.9023438,36.8932338 12.6510442,37.6165338 12.1484375,38.1386719 C11.6458308,38.6608099 10.9739625,38.921875 10.1328125,38.921875 C9.28124574,38.921875 8.60416918,38.662112 8.1015625,38.1425781 C7.59895582,37.6230443 7.34765625,36.9075566 7.34765625,35.9960938 Z M8.5390625,35.9570312 C8.5390625,36.605472 8.68880059,37.0970035 8.98828125,37.4316406 C9.28776191,37.7662777 9.66796645,37.9335938 10.1289062,37.9335938 C10.5898461,37.9335938 10.9680975,37.7675798 11.2636719,37.4355469 C11.5592463,37.103514 11.7070312,36.6054721 11.7070312,35.9414062 C11.7070312,35.285153 11.5631525,34.7955745 11.2753906,34.4726562 C10.9876288,34.149738 10.6054711,33.9882812 10.1289062,33.9882812 C9.65234137,33.9882812 9.26823063,34.1516911 8.9765625,34.4785156 C8.68489437,34.8053402 8.5390625,35.2981738 8.5390625,35.9570312 Z M17.46875,36.71875 L18.5898438,37.0742188 C18.4179679,37.6992219 18.1321635,38.1634099 17.7324219,38.4667969 C17.3326803,38.7701838 16.8255239,38.921875 16.2109375,38.921875 C15.450517,38.921875 14.8255233,38.662112 14.3359375,38.1425781 C13.8463517,37.6230443 13.6015625,36.9127649 13.6015625,36.0117188 C13.6015625,35.058589 13.8476538,34.318362 14.3398438,33.7910156 C14.8320337,33.2636692 15.4791627,33 16.28125,33 C16.9817743,33 17.5507791,33.2070292 17.9882812,33.6210938 C18.2486992,33.8658866 18.4440098,34.2174456 18.5742188,34.6757812 L17.4296875,34.9492188 C17.3619788,34.6523423 17.2207042,34.4179696 17.0058594,34.2460938 C16.7910146,34.0742179 16.5299495,33.9882812 16.2226562,33.9882812 C15.798175,33.9882812 15.4537774,34.1406235 15.1894531,34.4453125 C14.9251289,34.7500015 14.7929688,35.2434862 14.7929688,35.9257812 C14.7929688,36.6497432 14.9231758,37.165363 15.1835938,37.4726562 C15.4440117,37.7799495 15.78255,37.9335938 16.1992188,37.9335938 C16.506512,37.9335938 16.7708322,37.8359385 16.9921875,37.640625 C17.2135428,37.4453115 17.3723954,37.1380229 17.46875,36.71875 Z M20.8710938,38.8242188 L20.8710938,34.0664062 L19.171875,34.0664062 L19.171875,33.0976562 L23.7226562,33.0976562 L23.7226562,34.0664062 L22.0273438,34.0664062 L22.0273438,38.8242188 L20.8710938,38.8242188 Z M27.9335938,37.8046875 L27.9335938,38.8242188 L24.0859375,38.8242188 C24.1276044,38.4388002 24.2526031,38.0735694 24.4609375,37.7285156 C24.6461236,37.4218011 24.9917995,37.0260998 25.4979738,36.5414021 L25.6953125,36.3554688 C26.1901066,35.8945289 26.493489,35.5820321 26.6054688,35.4179688 C26.7565112,35.1914051 26.8320312,34.967449 26.8320312,34.7460938 C26.8320312,34.5013009 26.7662767,34.3131517 26.6347656,34.1816406 C26.5032546,34.0501296 26.3216157,33.984375 26.0898438,33.984375 C25.8606759,33.984375 25.6783861,34.0533847 25.5429688,34.1914062 C25.4075514,34.3294278 25.3294272,34.5585921 25.3085938,34.8789062 L24.2148438,34.7695312 C24.2799482,34.1653616 24.4843733,33.7317721 24.828125,33.46875 C25.1718767,33.2057279 25.6015599,33.0742188 26.1171875,33.0742188 C26.6822945,33.0742188 27.1263005,33.226561 27.4492188,33.53125 C27.772137,33.835939 27.9335938,34.2148415 27.9335938,34.6679688 C27.9335938,34.9257825 27.8873703,35.1712228 27.7949219,35.4042969 C27.7024735,35.637371 27.5559906,35.8815091 27.3554688,36.1367188 C27.2416289,36.2818088 27.0493474,36.4814244 26.7786198,36.7355703 L26.2124019,37.2636723 C26.1027016,37.3691408 26.0247398,37.4479164 25.9785156,37.5 C25.8860672,37.6041672 25.8111982,37.7057287 25.7539062,37.8046875 L27.9335938,37.8046875 Z" id="VOCT2" fill="#FFFFFF"></path>
            </g>
            <g id="Voct1" transform="translate(0.000000, 1.000000)">
                <path d="M15.5,0 L13.5,0 L13.5,3 L15.5,3 L15.5,0 Z M15.5,4 L13.5,4 L13.5,7 L15.5,7 L15.5,4 Z M15.5,8 L13.5,8 L13.5,11 L15.5,11 L15.5,8 Z M15.5,12 L13.5,12 L13.5,15 L15.5,15 L15.5,12 Z M15.5,16 L13.5,16 L13.5,19 L15.5,19 L15.5,16 Z M15.5,20 L13.5,20 L13.5,23 L15.5,23 L15.5,20 Z M15.5,24 L13.5,24 L13.5,27 L15.5,27 L15.5,24 Z M15.5,28 L13.5,28 L13.5,31 L15.5,31 L15.5,28 Z M15.5,32 L13.5,32 L13.5,35 L15.5,35 L15.5,32 Z M15.5,36 L13.5,36 L13.5,39 L15.5,39 L15.5,36 Z M15.5,40 L13.5,40 L13.5,43 L15.5,43 L15.5,40 Z M15.5,44 L13.5,44 L13.5,47 L15.5,47 L15.5,44 Z M15.5,48 L13.5,48 L13.5,51 L15.5,51 L15.5,48 Z M15.5,52 L13.5,52 L13.5,55 L15.5,55 L15.5,52 Z M15.5,56 L13.5,56 L13.5,59 L15.5,59 L15.5,56 Z" id="Line-Copy-11" fill="#4B4B4B"></path>
                <path d="M3.70703125,37.8242188 L1.66015625,32.0976562 L2.9140625,32.0976562 L4.36328125,36.3359375 L5.765625,32.0976562 L6.9921875,32.0976562 L4.94140625,37.8242188 L3.70703125,37.8242188 Z M7.34765625,34.9960938 C7.34765625,34.4127575 7.43489496,33.9231791 7.609375,33.5273438 C7.73958398,33.2356756 7.91731658,32.9739595 8.14257812,32.7421875 C8.36783967,32.5104155 8.61458199,32.3385422 8.8828125,32.2265625 C9.23958512,32.0755201 9.65103934,32 10.1171875,32 C10.9609417,32 11.6360652,32.2617161 12.1425781,32.7851562 C12.6490911,33.3085964 12.9023438,34.0364537 12.9023438,34.96875 C12.9023438,35.8932338 12.6510442,36.6165338 12.1484375,37.1386719 C11.6458308,37.6608099 10.9739625,37.921875 10.1328125,37.921875 C9.28124574,37.921875 8.60416918,37.662112 8.1015625,37.1425781 C7.59895582,36.6230443 7.34765625,35.9075566 7.34765625,34.9960938 Z M8.5390625,34.9570312 C8.5390625,35.605472 8.68880059,36.0970035 8.98828125,36.4316406 C9.28776191,36.7662777 9.66796645,36.9335938 10.1289062,36.9335938 C10.5898461,36.9335938 10.9680975,36.7675798 11.2636719,36.4355469 C11.5592463,36.103514 11.7070312,35.6054721 11.7070312,34.9414062 C11.7070312,34.285153 11.5631525,33.7955745 11.2753906,33.4726562 C10.9876288,33.149738 10.6054711,32.9882812 10.1289062,32.9882812 C9.65234137,32.9882812 9.26823063,33.1516911 8.9765625,33.4785156 C8.68489437,33.8053402 8.5390625,34.2981738 8.5390625,34.9570312 Z M17.46875,35.71875 L18.5898438,36.0742188 C18.4179679,36.6992219 18.1321635,37.1634099 17.7324219,37.4667969 C17.3326803,37.7701838 16.8255239,37.921875 16.2109375,37.921875 C15.450517,37.921875 14.8255233,37.662112 14.3359375,37.1425781 C13.8463517,36.6230443 13.6015625,35.9127649 13.6015625,35.0117188 C13.6015625,34.058589 13.8476538,33.318362 14.3398438,32.7910156 C14.8320337,32.2636692 15.4791627,32 16.28125,32 C16.9817743,32 17.5507791,32.2070292 17.9882812,32.6210938 C18.2486992,32.8658866 18.4440098,33.2174456 18.5742188,33.6757812 L17.4296875,33.9492188 C17.3619788,33.6523423 17.2207042,33.4179696 17.0058594,33.2460938 C16.7910146,33.0742179 16.5299495,32.9882812 16.2226562,32.9882812 C15.798175,32.9882812 15.4537774,33.1406235 15.1894531,33.4453125 C14.9251289,33.7500015 14.7929688,34.2434862 14.7929688,34.9257812 C14.7929688,35.6497432 14.9231758,36.165363 15.1835938,36.4726562 C15.4440117,36.7799495 15.78255,36.9335938 16.1992188,36.9335938 C16.506512,36.9335938 16.7708322,36.8359385 16.9921875,36.640625 C17.2135428,36.4453115 17.3723954,36.1380229 17.46875,35.71875 Z M20.8710938,37.8242188 L20.8710938,33.0664062 L19.171875,33.0664062 L19.171875,32.0976562 L23.7226562,32.0976562 L23.7226562,33.0664062 L22.0273438,33.0664062 L22.0273438,37.8242188 L20.8710938,37.8242188 Z M27.0351562,37.8242188 L25.9375,37.8242188 L25.9375,33.6875 C25.5364563,34.0625019 25.0638048,34.3398429 24.5195312,34.5195312 L24.5195312,33.5234375 C24.805991,33.429687 25.1171858,33.2519544 25.453125,32.9902344 C25.7890642,32.7285143 26.0195312,32.4231788 26.1445312,32.0742188 L27.0351562,32.0742188 L27.0351562,37.8242188 Z" id="VOCT1" fill="#FFFFFF"></path>
            </g>
        </g>
    </g>
</svg>