<?xml version="1.0" encoding="UTF-8"?>
<svg width="180px" height="380px" viewBox="0 0 180 380" version="1.1" xmlns="http://www.w3.org/2000/svg" xmlns:xlink="http://www.w3.org/1999/xlink">
    <!-- Generator: Sketch 58 (84663) - https://sketch.com -->
    <title>SN76489</title>
    <desc>Created with Sketch.</desc>
    <g id="SN76489" stroke="none" stroke-width="1" fill="none" fill-rule="evenodd">
        <g id="bg">
            <rect id="cover" fill="#1D1D1D" x="0" y="0" width="180" height="380" rx="2"></rect>
            <g id="Logo/Panel/DarkMode" transform="translate(59.000000, 364.000000)" fill="#FFFFFF" fill-rule="nonzero">
                <g id="Logo/Print/DarkMode">
                    <path d="M1.95775432,2.29858118 L3.38562168,2.29858118 L3.38562168,4.99672234 L6.06699634,2.29858118 L7.94254488,2.29858118 L5.09623504,4.99672234 L8.08863032,8.85057471 L6.22250665,8.85057471 L4.0783494,5.98796695 L3.38562168,6.65916846 L3.38562168,8.85057471 L1.95775432,8.85057471 L1.95775432,2.29858118 Z M11.6276679,6.49470187 C11.5428437,6.54507927 11.4572353,6.5858251 11.3708403,6.61694055 C11.2844452,6.64805601 11.1658502,6.6769485 11.0150515,6.70361889 L10.7134558,6.75695941 C10.4307084,6.80437344 10.2280757,6.86215842 10.1055519,6.93031609 C9.89820375,7.04588779 9.79453125,7.2251694 9.79453125,7.46816631 C9.79453125,7.68449282 9.85814847,7.84080861 9.98538481,7.93711835 C10.1126211,8.0334281 10.2673445,8.08158226 10.4495595,8.08158226 C10.7385902,8.08158226 11.00484,8.00157228 11.248317,7.84154993 C11.4917939,7.68152758 11.618243,7.38963933 11.6276679,6.96587644 L11.6276679,6.49470187 Z M10.8124169,5.90351114 C11.0606051,5.87387737 11.2381062,5.83683571 11.3449219,5.79238506 C11.5365618,5.71533726 11.6323803,5.59532229 11.6323803,5.43233657 C11.6323803,5.23379031 11.5593383,5.09673619 11.4132522,5.02117008 C11.267166,4.94560397 11.0527524,4.90782148 10.770005,4.90782148 C10.4526995,4.90782148 10.2280758,4.98190479 10.096127,5.13007364 C10.0018779,5.23971858 9.93904603,5.3878852 9.90762965,5.57457795 L8.61171044,5.57457795 C8.63998518,5.15081505 8.76564882,4.80262349 8.98870512,4.52999282 C9.34371022,4.10326654 9.95317886,3.88990661 10.8171293,3.88990661 C11.3794825,3.88990661 11.8789955,3.99510491 12.3156832,4.20550467 C12.7523709,4.41590443 12.9707114,4.81299097 12.9707114,5.39677622 L12.9707114,7.61929777 C12.9707114,7.77339337 12.973853,7.96008331 12.9801363,8.1793732 C12.9895612,8.34532231 13.0162647,8.45792894 13.0602477,8.51719648 C13.1042306,8.57646402 13.170204,8.625359 13.2581699,8.6638829 L13.2581699,8.85057471 L11.7973155,8.85057471 C11.7564742,8.75278328 11.7281999,8.66091997 11.7124917,8.57498204 C11.6967835,8.48904411 11.6842171,8.39125414 11.6747922,8.2816092 C11.4894356,8.47126532 11.2758074,8.63276693 11.0339013,8.76611889 C10.7448706,8.92317787 10.4181451,9.00170618 10.0537151,9.00170618 C9.58875266,9.00170618 9.20469317,8.87650538 8.9015251,8.62610004 C8.59835703,8.37569469 8.44677527,8.02083563 8.44677527,7.56151221 C8.44677527,6.96587346 8.69024856,6.53470859 9.17720246,6.26800467 C9.44424169,6.1227992 9.83694056,6.01908257 10.3553108,5.95685165 L10.8124169,5.90351114 Z M15.5012882,4.00547773 L15.5012882,6.92587105 C15.5012882,7.2014651 15.5358457,7.40889837 15.6049618,7.54817708 C15.7274857,7.79413736 15.9678174,7.91711566 16.3259641,7.91711566 C16.7846433,7.91711566 17.0988023,7.74227905 17.2684508,7.39260057 C17.3564167,7.20294445 17.4003989,6.95254286 17.4003989,6.64138829 L17.4003989,4.00547773 L18.7622922,4.00547773 L18.7622922,8.85057471 L17.4569481,8.85057471 L17.4569481,8.16603807 L17.4405489,8.18737424 C17.4238355,8.21019205 17.3978858,8.24753027 17.3626995,8.29938937 C17.3124333,8.37347379 17.252743,8.4386671 17.183627,8.49497126 C16.9731372,8.67277388 16.7697192,8.79427051 16.5733669,8.8594648 C16.3770145,8.92465909 16.1468929,8.95725575 15.8829953,8.95725575 C15.1227189,8.95725575 14.6106396,8.69944583 14.346742,8.18381825 C14.199085,7.89933407 14.1252576,7.48002253 14.1252576,6.92587105 L14.1252576,4.00547773 L15.5012882,4.00547773 Z M19.5304189,4.95227191 L19.5304189,4.04992816 L20.2467088,4.04992816 L20.2467088,2.69863506 L21.575615,2.69863506 L21.575615,4.04992816 L22.4097158,4.04992816 L22.4097158,4.95227191 L21.575615,4.95227191 L21.575615,7.51261674 C21.575615,7.71116299 21.6023185,7.83488212 21.6557264,7.88377784 C21.7091342,7.93267356 21.872497,7.95712105 22.1458195,7.95712105 C22.1866608,7.95712105 22.2298577,7.95638022 22.2754114,7.95489853 C22.3209652,7.95341684 22.3657328,7.95119434 22.4097158,7.94823096 L22.4097158,8.89502514 L21.7735372,8.91725036 C21.1389263,8.937994 20.7053868,8.83427736 20.4729056,8.60609734 C20.322107,8.46089187 20.2467088,8.23716028 20.2467088,7.93489583 L20.2467088,4.95227191 L19.5304189,4.95227191 Z M25.2984375,4.92115661 C24.9874153,4.92115661 24.7462982,5.01301991 24.575079,5.19674928 C24.4038597,5.38047865 24.2962602,5.62939857 24.2522773,5.94351652 L26.3398853,5.94351652 C26.3178938,5.60865493 26.2102944,5.35454918 26.0170836,5.18119163 C25.8238729,5.00783408 25.5843266,4.92115661 25.2984375,4.92115661 Z M25.2984375,3.87657148 C25.7257003,3.87657148 26.1105452,3.95213646 26.4529837,4.10326868 C26.7954223,4.2544009 27.0781654,4.49294916 27.3012217,4.81892062 C27.5022866,5.10636818 27.6326626,5.43974307 27.6923537,5.81905532 C27.7269117,6.04130858 27.7410489,6.36134849 27.7347656,6.77918463 L24.2192902,6.77918463 C24.2381401,7.26517844 24.399932,7.60596167 24.7046709,7.80154454 C24.8900275,7.92304299 25.1130805,7.98379131 25.3738364,7.98379131 C25.6503006,7.98379131 25.8749243,7.909708 26.0477144,7.76153915 C26.1419636,7.68152798 26.2252157,7.57040301 26.2974734,7.42816092 L27.6687916,7.42816092 C27.6342335,7.71560848 27.4755832,8.00749672 27.1928358,8.30383441 C26.7530064,8.77501134 26.1372546,9.01059626 25.3455618,9.01059626 C24.6921011,9.01059626 24.1156192,8.81205299 23.6160987,8.41496049 C23.1165783,8.01786799 22.8668218,7.37186151 22.8668218,6.4769217 C22.8668218,5.63828604 23.092231,4.9952429 23.543056,4.54777299 C23.9938811,4.10030308 24.5790024,3.87657148 25.2984375,3.87657148 Z M31.4858627,3.88990661 C32.0167995,3.88990661 32.4511245,4.02103407 32.7888506,4.28329292 C33.1265767,4.54555178 33.2954372,4.98042081 33.2954372,5.58791307 L33.2954372,8.85057471 L31.9194066,8.85057471 L31.9194066,5.90351114 C31.9194066,5.64866072 31.8832783,5.45308078 31.8110206,5.31676545 C31.6790718,5.06784179 31.4277445,4.94338182 31.0570313,4.94338182 C30.6014937,4.94338182 30.2889054,5.12562677 30.119257,5.49012213 C30.0312911,5.68274162 29.9873088,5.92869822 29.9873088,6.22799928 L29.9873088,8.85057471 L28.6489777,8.85057471 L28.6489777,4.01436782 L29.9448969,4.01436782 L29.9448969,4.72112967 C30.117687,4.47220601 30.2810498,4.2929244 30.43499,4.18327945 C30.7114542,3.98769658 31.0617416,3.88990661 31.4858627,3.88990661 Z M35.9391124,3.42762213 L34.5960688,3.42762213 L34.5960688,2.25857579 L35.9391124,2.25857579 L35.9391124,3.42762213 Z M33.9504654,10.7930585 L33.9504654,9.77958872 L34.0978762,9.79004152 L34.0978762,9.79004152 L34.1106882,9.79070133 C34.1421045,9.79218302 34.1703789,9.79292385 34.195512,9.79292385 C34.3274608,9.79292385 34.4272063,9.76254969 34.4947515,9.70180047 C34.5622967,9.64105124 34.5960688,9.52325878 34.5960688,9.34841954 L34.5960688,4.02770295 L35.9391124,4.02770295 L35.9391124,9.37064476 C35.9391124,9.85960194 35.8370107,10.2211285 35.6328042,10.4552353 C35.435185,10.6817902 35.0536827,10.7987202 34.4882863,10.8060283 L34.4311336,10.8063937 C34.4077958,10.8063937 34.3780467,10.8059099 34.341886,10.8049422 L34.0479841,10.7955986 C34.0170809,10.7947519 33.9845746,10.7939052 33.9504654,10.7930585 Z M40.0483544,6.49470187 C39.9635302,6.54507927 39.8779218,6.5858251 39.7915268,6.61694055 C39.7051317,6.64805601 39.5865367,6.6769485 39.435738,6.70361889 L39.1341423,6.75695941 C38.8513949,6.80437344 38.6487622,6.86215842 38.5262384,6.93031609 C38.3188903,7.04588779 38.2152178,7.2251694 38.2152178,7.46816631 C38.2152178,7.68449282 38.278835,7.84080861 38.4060713,7.93711835 C38.5333077,8.0334281 38.688031,8.08158226 38.870246,8.08158226 C39.1592767,8.08158226 39.4255265,8.00157228 39.6690035,7.84154993 C39.9124804,7.68152758 40.0389295,7.38963933 40.0483544,6.96587644 L40.0483544,6.49470187 Z M39.2331034,5.90351114 C39.4812916,5.87387737 39.6587927,5.83683571 39.7656084,5.79238506 C39.9572483,5.71533726 40.0530668,5.59532229 40.0530668,5.43233657 C40.0530668,5.23379031 39.9800248,5.09673619 39.8339387,5.02117008 C39.6878525,4.94560397 39.4734389,4.90782148 39.1906915,4.90782148 C38.873386,4.90782148 38.6487623,4.98190479 38.5168135,5.13007364 C38.4225644,5.23971858 38.3597325,5.3878852 38.3283162,5.57457795 L37.0323969,5.57457795 C37.0606717,5.15081505 37.1863353,4.80262349 37.4093916,4.52999282 C37.7643967,4.10326654 38.3738654,3.88990661 39.2378158,3.88990661 C39.800169,3.88990661 40.299682,3.99510491 40.7363697,4.20550467 C41.1730574,4.41590443 41.3913979,4.81299097 41.3913979,5.39677622 L41.3913979,7.61929777 C41.3913979,7.77339337 41.3945395,7.96008331 41.4008228,8.1793732 C41.4102477,8.34532231 41.4369512,8.45792894 41.4809342,8.51719648 C41.5249171,8.57646402 41.5908905,8.625359 41.6788564,8.6638829 L41.6788564,8.85057471 L40.218002,8.85057471 C40.1771607,8.75278328 40.1488864,8.66091997 40.1331782,8.57498204 C40.11747,8.48904411 40.1049036,8.39125414 40.0954787,8.2816092 C39.9101221,8.47126532 39.6964939,8.63276693 39.4545878,8.76611889 C39.1655571,8.92317787 38.8388316,9.00170618 38.4744016,9.00170618 C38.0094392,9.00170618 37.6253797,8.87650538 37.3222116,8.62610004 C37.0190435,8.37569469 36.8674618,8.02083563 36.8674618,7.56151221 C36.8674618,6.96587346 37.1109351,6.53470859 37.597889,6.26800467 C37.8649282,6.1227992 38.2576271,6.01908257 38.7759973,5.95685165 L39.2331034,5.90351114 Z M44.1010472,3.43651221 L44.1010472,7.71264368 L45.4393783,7.71264368 C46.1242554,7.71264368 46.6017772,7.39408544 46.8719581,6.75695941 C47.0196151,6.40728094 47.0934425,5.99093273 47.0934425,5.5079023 C47.0934425,4.8411425 46.9827014,4.32922682 46.7612159,3.97213991 C46.5397304,3.61505299 46.0991223,3.43651221 45.4393783,3.43651221 L44.1010472,3.43651221 Z M45.6844249,2.29858118 C46.1148293,2.30450793 46.4729706,2.35192125 46.7588597,2.44082256 C47.2458136,2.59195478 47.6400833,2.86902636 47.9416805,3.27204562 C48.1835866,3.59801708 48.3485202,3.95065364 48.436486,4.32996588 C48.5244519,4.70927812 48.5684342,5.07080467 48.5684342,5.41455639 C48.5684342,6.2857892 48.3830803,7.02365897 48.012367,7.62818786 C47.5097049,8.4431165 46.733732,8.85057471 45.6844249,8.85057471 L42.6920296,8.85057471 L42.6920296,2.29858118 L45.6844249,2.29858118 Z M50.7125914,6.8280801 C50.7565744,7.12738117 50.8429681,7.35111276 50.9717753,7.49928161 C51.2073981,7.76894891 51.6110926,7.90378053 52.1828707,7.90378053 C52.5253092,7.90378053 52.80334,7.86822054 53.0169714,7.7970995 C53.4222427,7.66078416 53.6248753,7.40741924 53.6248753,7.03699713 C53.6248753,6.82067061 53.5243444,6.65324233 53.3232796,6.53470726 C53.132268,6.42491414 52.8377712,6.32715743 52.4397811,6.24143448 L51.6409408,6.07242277 C50.9183641,5.91832717 50.4188511,5.75089889 50.142387,5.5701329 C49.6742829,5.26786846 49.4402344,4.79521694 49.4402344,4.15216415 C49.4402344,3.56541553 49.6664289,3.07794734 50.1188248,2.68974497 C50.5712207,2.3015426 51.2356672,2.10744432 52.1121842,2.10744432 C52.8441858,2.10744432 53.468577,2.2904301 53.9853765,2.65640715 C54.502176,3.02238419 54.7731382,3.55356153 54.7982713,4.2499551 L53.403391,4.2499551 C53.3782579,3.85582597 53.1960456,3.57579106 52.8567487,3.40984195 C52.6305507,3.30019701 52.3493783,3.24537536 52.0132231,3.24537536 C51.6393681,3.24537536 51.340917,3.31649534 51.1178607,3.45873743 C50.8948044,3.60097952 50.7832779,3.79952279 50.7832779,4.0543732 C50.7832779,4.27783876 50.8834648,4.4472999 51.0838415,4.56276117 L51.1131483,4.57888829 C51.248867,4.65285418 51.5322436,4.73910853 51.9632861,4.83765375 L53.2148936,5.12118355 C53.7395472,5.23971862 54.1353876,5.39825691 54.4024269,5.59680316 C54.8171231,5.90499436 55.0244681,6.35097589 55.0244681,6.93476114 C55.0244681,7.53336327 54.7817802,8.03046228 54.2963971,8.4260731 C53.811014,8.82168391 53.1253618,9.01948635 52.2394199,9.01948635 C51.3346281,9.01948635 50.6230578,8.82464724 50.1046875,8.43496318 C49.5863172,8.04527912 49.327136,7.50965678 49.327136,6.8280801 L50.7125914,6.8280801 Z M60.0102227,4.38330639 C60.0102227,4.04251805 59.9151896,3.79952479 59.7251205,3.65431932 C59.5350514,3.50911386 59.2688016,3.43651221 58.926363,3.43651221 L57.5738946,3.43651221 L57.5738946,5.36566092 L58.926363,5.36566092 C59.2688016,5.36566092 59.5350514,5.28713261 59.7251205,5.13007364 C59.9151896,4.97301466 60.0102227,4.72409474 60.0102227,4.38330639 Z M61.447515,4.37441631 C61.447515,5.14785767 61.24017,5.69459251 60.8254737,6.01463721 C60.4107775,6.33468192 59.8185876,6.49470187 59.0488863,6.49470187 L57.5738946,6.49470187 L57.5738946,8.85057471 L56.13189,8.85057471 L56.13189,2.29858118 L59.1572723,2.29858118 C59.8547159,2.29858118 60.4107775,2.46749113 60.8254737,2.80531609 C61.24017,3.14314106 61.447515,3.66616923 61.447515,4.37441631 Z" id="KautenjaDSP"></path>
                </g>
            </g>
            <g id="noise" transform="translate(13.000000, 278.000000)">
                <rect id="Rectangle" stroke="#F0ECEB" fill="#DF252B" x="0" y="0" width="154" height="81"></rect>
                <g id="Out" transform="translate(111.000000, 48.000000)">
                    <rect id="Rectangle" stroke="#F0ECEB" fill="#1D1D1D" x="0" y="0" width="40" height="29"></rect>
                    <path d="M7.03369141,9.35546875 C7.39111507,9.35546875 7.67480364,9.22363413 7.88476562,8.95996094 C8.09472761,8.69628774 8.19970703,8.32129149 8.19970703,7.83496094 C8.19970703,7.35058352 8.09472761,6.97607554 7.88476562,6.71142578 C7.67480364,6.44677602 7.39111507,6.31445312 7.03369141,6.31445312 C6.67626774,6.31445312 6.39111435,6.44628774 6.17822266,6.70996094 C5.96533097,6.97363413 5.85888672,7.34863038 5.85888672,7.83496094 C5.85888672,8.32129149 5.96533097,8.69628774 6.17822266,8.95996094 C6.39111435,9.22363413 6.67626774,9.35546875 7.03369141,9.35546875 Z M9.10205078,7.83496094 C9.10205078,8.61035544 8.88427952,9.2040995 8.44873047,9.61621094 C8.12255696,9.95215012 7.65088199,10.1201172 7.03369141,10.1201172 C6.41650082,10.1201172 5.94482585,9.95215012 5.61865234,9.61621094 C5.18115016,9.2040995 4.96240234,8.61035544 4.96240234,7.83496094 C4.96240234,7.04394136 5.18115016,6.45019729 5.61865234,6.05371094 C5.94482585,5.71777176 6.41650082,5.54980469 7.03369141,5.54980469 C7.65088199,5.54980469 8.12255696,5.71777176 8.44873047,6.05371094 C8.88427952,6.45019729 9.10205078,7.04394136 9.10205078,7.83496094 Z M5.29052734,12.6816406 L6.20751953,12.6816406 L6.20751953,15.3359375 C6.20751953,15.632814 6.24267543,15.8496087 6.31298828,15.9863281 C6.42236383,16.2285168 6.6606427,16.3496094 7.02783203,16.3496094 C7.39306823,16.3496094 7.63037055,16.2285168 7.73974609,15.9863281 C7.81005895,15.8496087 7.84521484,15.632814 7.84521484,15.3359375 L7.84521484,12.6816406 L8.76220703,12.6816406 L8.76220703,15.3359375 C8.76220703,15.7949242 8.69091868,16.1523425 8.54833984,16.4082031 C8.28271352,16.8769555 7.77588265,17.1113281 7.02783203,17.1113281 C6.27978142,17.1113281 5.77197399,16.8769555 5.50439453,16.4082031 C5.36181569,16.1523425 5.29052734,15.7949242 5.29052734,15.3359375 L5.29052734,12.6816406 Z M8.76220703,19.6816406 L8.76220703,20.4462891 L7.47021484,20.4462891 L7.47021484,24 L6.56201172,24 L6.56201172,20.4462891 L5.26416016,20.4462891 L5.26416016,19.6816406 L8.76220703,19.6816406 Z" id="OUT" fill="#E1E1E1" fill-rule="nonzero"></path>
                </g>
                <g id="Level" transform="translate(94.000000, 1.000000)" fill="#F0ECEB" fill-rule="nonzero">
                    <path d="M21.109,38 L21.109,37.02 L18.666,37.02 L18.666,33.1 L17.588,33.1 L17.588,38 L21.109,38 Z M25.652,38 L25.652,37.041 L22.992,37.041 L22.992,36.012 L25.302,36.012 L25.302,35.053 L22.992,35.053 L22.992,34.059 L25.617,34.059 L25.617,33.1 L21.921,33.1 L21.921,38 L25.652,38 Z M31.105,33.1 L29.943,33.1 L28.662,36.551 L27.381,33.1 L26.191,33.1 L28.172,38.035 L29.124,38.035 L31.105,33.1 Z M35.592,38 L35.592,37.041 L32.932,37.041 L32.932,36.012 L35.242,36.012 L35.242,35.053 L32.932,35.053 L32.932,34.059 L35.557,34.059 L35.557,33.1 L31.861,33.1 L31.861,38 L35.592,38 Z M40.072,38 L36.551,38 L36.551,33.1 L37.629,33.1 L37.629,37.02 L40.072,37.02 L40.072,38 Z" id="LEVEL"></path>
                </g>
                <g id="Period" transform="translate(40.000000, 18.000000)" fill="#F0ECEB" fill-rule="nonzero">
                    <path d="M2.015625,6.26171875 L4.59765625,6.26171875 C5.10807547,6.26171875 5.51952969,6.40559752 5.83203125,6.69335938 C6.14453281,6.98112123 6.30078125,7.38541406 6.30078125,7.90625 C6.30078125,8.35416891 6.16145973,8.74413896 5.8828125,9.07617188 C5.60416527,9.40820479 5.17578414,9.57421875 4.59765625,9.57421875 L2.79296875,9.57421875 L2.79296875,12 L2.015625,12 L2.015625,6.26171875 Z M5.515625,7.91015625 C5.515625,7.48827914 5.35937656,7.20182367 5.046875,7.05078125 C4.87499914,6.97005168 4.63932441,6.9296875 4.33984375,6.9296875 L2.79296875,6.9296875 L2.79296875,8.91796875 L4.33984375,8.91796875 C4.68880383,8.91796875 4.97200412,8.84375074 5.18945312,8.6953125 C5.40690213,8.54687426 5.515625,8.28515812 5.515625,7.91015625 Z M2.015625,14.2617188 L6.19921875,14.2617188 L6.19921875,14.9648438 L2.7734375,14.9648438 L2.7734375,16.7070312 L5.94140625,16.7070312 L5.94140625,17.3710938 L2.7734375,17.3710938 L2.7734375,19.3164062 L6.2578125,19.3164062 L6.2578125,20 L2.015625,20 L2.015625,14.2617188 Z M4.38867188,24.890625 C4.75325703,24.890625 5.04166561,24.8177091 5.25390625,24.671875 C5.46614689,24.5260409 5.57226562,24.2630227 5.57226562,23.8828125 C5.57226562,23.4739563 5.42382961,23.1953132 5.12695312,23.046875 C4.96809816,22.9687496 4.7558607,22.9296875 4.49023438,22.9296875 L2.59179688,22.9296875 L2.59179688,24.890625 L4.38867188,24.890625 Z M1.81445312,22.2617188 L4.47070312,22.2617188 C4.90820531,22.2617188 5.26887879,22.3255202 5.55273438,22.453125 C6.09179957,22.6979179 6.36132812,23.1497363 6.36132812,23.8085938 C6.36132812,24.1523455 6.29036529,24.4335927 6.1484375,24.6523438 C6.00650971,24.8710948 5.80794398,25.0468743 5.55273438,25.1796875 C5.77669383,25.2708338 5.94531193,25.3906243 6.05859375,25.5390625 C6.17187557,25.6875007 6.23502598,25.9283838 6.24804688,26.2617188 L6.27539062,27.03125 L6.2897656,27.2668753 C6.29945307,27.3712501 6.31289054,27.4554684 6.33007812,27.5195312 C6.37695336,27.7018238 6.46028586,27.8190102 6.58007812,27.8710938 L6.58007812,28 L5.62695312,28 C5.60091133,27.9505206 5.5800782,27.8867191 5.56445312,27.8085938 L5.54695311,27.6798439 C5.54153645,27.6252607 5.53653647,27.5590109 5.53195314,27.4810941 L5.47851562,26.3984375 C5.46028637,26.0234356 5.32096484,25.7721361 5.06054688,25.6445312 C4.91210863,25.5742184 4.67903805,25.5390625 4.36132812,25.5390625 L2.59179688,25.5390625 L2.59179688,28 L1.81445312,28 L1.81445312,22.2617188 Z M3.67382812,30.2617188 L4.45898438,30.2617188 L4.45898438,36 L3.67382812,36 L3.67382812,30.2617188 Z M3.97460938,38.1054688 C4.98763527,38.1054688 5.73762777,38.4309863 6.22460938,39.0820312 C6.60481961,39.5898463 6.79492188,40.2395794 6.79492188,41.03125 C6.79492188,41.8880251 6.57747613,42.6002576 6.14257812,43.1679688 C5.63215891,43.8346387 4.9043016,44.1679688 3.95898438,44.1679688 C3.07616746,44.1679688 2.38216398,43.876305 1.87695312,43.2929688 C1.42643004,42.7304659 1.20117188,42.0195355 1.20117188,41.1601562 C1.20117188,40.3841107 1.39387828,39.7200548 1.77929688,39.1679688 C2.27409102,38.4596319 3.00585453,38.1054688 3.97460938,38.1054688 Z M4.05273438,43.4726562 C4.73763363,43.4726562 5.23307139,43.227216 5.5390625,42.7363281 C5.84505361,42.2454403 5.99804688,41.6809928 5.99804688,41.0429688 C5.99804688,40.3684862 5.82161635,39.8255229 5.46875,39.4140625 C5.11588365,39.0026021 4.6334666,38.796875 4.02148438,38.796875 C3.42773141,38.796875 2.94336125,39.000649 2.56835938,39.4082031 C2.1933575,39.8157572 2.00585938,40.4166627 2.00585938,41.2109375 C2.00585938,41.8463573 2.16666506,42.3821593 2.48828125,42.8183594 C2.80989744,43.2545595 3.3313766,43.4726562 4.05273438,43.4726562 Z M3.92382812,51.3359375 C4.18685027,51.3359375 4.40299395,51.308594 4.57226562,51.2539062 C4.87435047,51.1523432 5.12174383,50.9570327 5.31445312,50.6679688 C5.46809973,50.4361968 5.5787757,50.1393247 5.64648438,49.7773438 C5.68554707,49.5611968 5.70507812,49.360678 5.70507812,49.1757812 C5.70507812,48.4648402 5.5638035,47.9127624 5.28125,47.5195312 C4.9986965,47.1263001 4.54362293,46.9296875 3.91601562,46.9296875 L2.53710938,46.9296875 L2.53710938,51.3359375 L3.92382812,51.3359375 Z M1.75585938,46.2617188 L4.08007812,46.2617188 C4.86914457,46.2617188 5.48111762,46.5416639 5.91601562,47.1015625 C6.3040384,47.6067734 6.49804688,48.2539023 6.49804688,49.0429688 C6.49804688,49.6523468 6.38346469,50.2031225 6.15429688,50.6953125 C5.75064902,51.5651085 5.05664555,52 4.07226562,52 L1.75585938,52 L1.75585938,46.2617188 Z" id="PERIOD"></path>
                </g>
                <g id="LFSR" transform="translate(6.000000, 10.000000)" fill="#F0ECEB" fill-rule="nonzero">
                    <path d="M5.876,33 L5.876,32.02 L3.433,32.02 L3.433,28.1 L2.355,28.1 L2.355,33 L5.876,33 Z M10.419,29.08 L10.419,28.1 L6.688,28.1 L6.688,33 L7.766,33 L7.766,31.103 L10.104,31.103 L10.104,30.123 L7.766,30.123 L7.766,29.08 L10.419,29.08 Z M14.822,31.551 L14.822,31.537 C14.822,30.7332353 14.3259446,30.3697197 13.4388809,30.1138044 L12.9621612,29.9853935 C12.4143816,29.8310077 12.2378447,29.7202273 12.2139265,29.4846041 L12.211,29.409 C12.211,29.171 12.428,28.982 12.841,28.982 C13.254,28.982 13.681,29.164 14.115,29.465 L14.675,28.653 C14.178,28.254 13.569,28.03 12.855,28.03 C11.9096111,28.03 11.2202191,28.5544815 11.1465379,29.3616696 L11.14,29.521 C11.14,30.3858889 11.6433086,30.6976914 12.4483567,30.9332908 L13.0580249,31.0997479 C13.5812142,31.2557016 13.7289796,31.3841781 13.7486169,31.5891132 L13.751,31.656 C13.751,31.943 13.485,32.118 13.044,32.118 C12.484,32.118 12.022,31.887 11.581,31.523 L10.944,32.286 C11.532,32.811 12.281,33.07 13.023,33.07 C14.08,33.07 14.822,32.524 14.822,31.551 Z M19.995,33 L18.798,31.25 C19.3765,31.0355 19.786,30.5916429 19.8415485,29.8960102 L19.848,29.717 C19.848,28.709 19.155,28.1 18,28.1 L15.76,28.1 L15.76,33 L16.838,33 L16.838,31.432 L17.685,31.432 L18.735,33 L19.995,33 Z M18.756,29.787 C18.756,30.2 18.455,30.48 17.93,30.48 L16.838,30.48 L16.838,29.073 L17.909,29.073 C18.39025,29.073 18.7009236,29.2729861 18.7493605,29.6621748 L18.756,29.787 Z"></path>
                </g>
                <g id="Header" transform="translate(0.000000, 2.000000)" fill="#F0ECEB" fill-rule="nonzero">
                    <path d="M44.2431641,2.39257812 L45.6201172,2.39257812 L49.9677734,9.36523438 L49.9677734,2.39257812 L51.0751953,2.39257812 L51.0751953,11 L49.7685547,11 L45.3564453,4.03320312 L45.3564453,11 L44.2431641,11 L44.2431641,2.39257812 Z M56.6240234,2.15820312 C58.1435623,2.15820312 59.268551,2.64647949 59.9990234,3.62304688 C60.5693388,4.38476943 60.8544922,5.35936906 60.8544922,6.546875 C60.8544922,7.83203768 60.5283236,8.90038637 59.8759766,9.75195312 C59.1103477,10.7519581 58.0185618,11.2519531 56.6005859,11.2519531 C55.2763606,11.2519531 54.2353554,10.8144575 53.4775391,9.93945312 C52.8017544,9.09569891 52.4638672,8.02930332 52.4638672,6.74023438 C52.4638672,5.57616605 52.7529268,4.58008227 53.3310547,3.75195312 C54.0732459,2.68944781 55.1708912,2.15820312 56.6240234,2.15820312 Z M56.7412109,10.2089844 C57.7685598,10.2089844 58.5117165,9.84082399 58.9707031,9.10449219 C59.4296898,8.36816038 59.6591797,7.52148916 59.6591797,6.56445312 C59.6591797,5.55272932 59.3945339,4.73828434 58.8652344,4.12109375 C58.3359349,3.50390316 57.6123093,3.1953125 56.6943359,3.1953125 C55.8037065,3.1953125 55.0771513,3.50097351 54.5146484,4.11230469 C53.9521456,4.72363587 53.6708984,5.62499404 53.6708984,6.81640625 C53.6708984,7.76953602 53.912107,8.57323892 54.3945312,9.22753906 C54.8769555,9.88183921 55.6591743,10.2089844 56.7412109,10.2089844 Z M62.5068359,2.39257812 L63.6845703,2.39257812 L63.6845703,11 L62.5068359,11 L62.5068359,2.39257812 Z M66.3388672,8.22265625 C66.3662111,8.71093994 66.4814443,9.10742035 66.6845703,9.41210938 C67.071291,9.98242473 67.7529248,10.2675781 68.7294922,10.2675781 C69.1669944,10.2675781 69.5654279,10.2050788 69.9248047,10.0800781 C70.6201207,9.83788941 70.9677734,9.4043 70.9677734,8.77929688 C70.9677734,8.31054453 70.8212905,7.9765635 70.5283203,7.77734375 C70.2314438,7.58203027 69.7666047,7.4121101 69.1337891,7.26757812 L67.9677734,7.00390625 C67.2060509,6.83203039 66.6669938,6.64257916 66.3505859,6.43554688 C65.8037082,6.07617008 65.5302734,5.53906607 65.5302734,4.82421875 C65.5302734,4.05077738 65.7978489,3.41601811 66.3330078,2.91992188 C66.8681667,2.42382564 67.6259717,2.17578125 68.6064453,2.17578125 C69.5087936,2.17578125 70.2753875,2.39355251 70.90625,2.82910156 C71.5371125,3.26465062 71.8525391,3.96093271 71.8525391,4.91796875 L70.7568359,4.91796875 C70.6982419,4.45702895 70.5732431,4.10351686 70.3818359,3.85742188 C70.0263654,3.40820088 69.4228558,3.18359375 68.5712891,3.18359375 C67.8837856,3.18359375 67.3896499,3.32812355 67.0888672,3.6171875 C66.7880844,3.90625145 66.6376953,4.24218559 66.6376953,4.625 C66.6376953,5.04687711 66.8134748,5.35546777 67.1650391,5.55078125 C67.3745572,5.66441761 67.8245788,5.80387965 68.5151157,5.96916947 L69.9365234,6.29492188 C70.5185576,6.42773504 70.9677719,6.60937385 71.2841797,6.83984375 C71.8310574,7.24218951 72.1044922,7.82616805 72.1044922,8.59179688 C72.1044922,9.54492664 71.757816,10.2265604 71.0644531,10.6367188 C70.3710903,11.0468771 69.5654343,11.2519531 68.6474609,11.2519531 C67.5771431,11.2519531 66.7392608,10.9785184 66.1337891,10.4316406 C65.5283173,9.88866916 65.2314453,9.1523484 65.2431641,8.22265625 L66.3388672,8.22265625 Z M73.6923828,2.39257812 L79.9677734,2.39257812 L79.9677734,3.44726562 L74.8291016,3.44726562 L74.8291016,6.06054688 L79.5810547,6.06054688 L79.5810547,7.05664062 L74.8291016,7.05664062 L74.8291016,9.97460938 L80.0556641,9.97460938 L80.0556641,11 L73.6923828,11 L73.6923828,2.39257812 Z" id="NOISE"></path>
                </g>
            </g>
            <g id="tone3" transform="translate(13.000000, 193.000000)">
                <rect id="Rectangle" stroke="#F0ECEB" fill="#DF252B" x="0" y="-2.84217094e-14" width="154" height="81"></rect>
                <g id="Out" transform="translate(111.000000, 48.000000)">
                    <rect id="Rectangle" stroke="#F0ECEB" fill="#1D1D1D" x="0" y="0" width="40" height="29"></rect>
                    <path d="M7.03369141,9.35546875 C7.39111507,9.35546875 7.67480364,9.22363413 7.88476562,8.95996094 C8.09472761,8.69628774 8.19970703,8.32129149 8.19970703,7.83496094 C8.19970703,7.35058352 8.09472761,6.97607554 7.88476562,6.71142578 C7.67480364,6.44677602 7.39111507,6.31445312 7.03369141,6.31445312 C6.67626774,6.31445312 6.39111435,6.44628774 6.17822266,6.70996094 C5.96533097,6.97363413 5.85888672,7.34863038 5.85888672,7.83496094 C5.85888672,8.32129149 5.96533097,8.69628774 6.17822266,8.95996094 C6.39111435,9.22363413 6.67626774,9.35546875 7.03369141,9.35546875 Z M9.10205078,7.83496094 C9.10205078,8.61035544 8.88427952,9.2040995 8.44873047,9.61621094 C8.12255696,9.95215012 7.65088199,10.1201172 7.03369141,10.1201172 C6.41650082,10.1201172 5.94482585,9.95215012 5.61865234,9.61621094 C5.18115016,9.2040995 4.96240234,8.61035544 4.96240234,7.83496094 C4.96240234,7.04394136 5.18115016,6.45019729 5.61865234,6.05371094 C5.94482585,5.71777176 6.41650082,5.54980469 7.03369141,5.54980469 C7.65088199,5.54980469 8.12255696,5.71777176 8.44873047,6.05371094 C8.88427952,6.45019729 9.10205078,7.04394136 9.10205078,7.83496094 Z M5.29052734,12.6816406 L6.20751953,12.6816406 L6.20751953,15.3359375 C6.20751953,15.632814 6.24267543,15.8496087 6.31298828,15.9863281 C6.42236383,16.2285168 6.6606427,16.3496094 7.02783203,16.3496094 C7.39306823,16.3496094 7.63037055,16.2285168 7.73974609,15.9863281 C7.81005895,15.8496087 7.84521484,15.632814 7.84521484,15.3359375 L7.84521484,12.6816406 L8.76220703,12.6816406 L8.76220703,15.3359375 C8.76220703,15.7949242 8.69091868,16.1523425 8.54833984,16.4082031 C8.28271352,16.8769555 7.77588265,17.1113281 7.02783203,17.1113281 C6.27978142,17.1113281 5.77197399,16.8769555 5.50439453,16.4082031 C5.36181569,16.1523425 5.29052734,15.7949242 5.29052734,15.3359375 L5.29052734,12.6816406 Z M8.76220703,19.6816406 L8.76220703,20.4462891 L7.47021484,20.4462891 L7.47021484,24 L6.56201172,24 L6.56201172,20.4462891 L5.26416016,20.4462891 L5.26416016,19.6816406 L8.76220703,19.6816406 Z" id="OUT" fill="#E1E1E1" fill-rule="nonzero"></path>
                </g>
                <g id="Level" transform="translate(94.000000, 1.000000)" fill="#F0ECEB" fill-rule="nonzero">
                    <path d="M21.109,38 L21.109,37.02 L18.666,37.02 L18.666,33.1 L17.588,33.1 L17.588,38 L21.109,38 Z M25.652,38 L25.652,37.041 L22.992,37.041 L22.992,36.012 L25.302,36.012 L25.302,35.053 L22.992,35.053 L22.992,34.059 L25.617,34.059 L25.617,33.1 L21.921,33.1 L21.921,38 L25.652,38 Z M31.105,33.1 L29.943,33.1 L28.662,36.551 L27.381,33.1 L26.191,33.1 L28.172,38.035 L29.124,38.035 L31.105,33.1 Z M35.592,38 L35.592,37.041 L32.932,37.041 L32.932,36.012 L35.242,36.012 L35.242,35.053 L32.932,35.053 L32.932,34.059 L35.557,34.059 L35.557,33.1 L31.861,33.1 L31.861,38 L35.592,38 Z M40.072,38 L36.551,38 L36.551,33.1 L37.629,33.1 L37.629,37.02 L40.072,37.02 L40.072,38 Z" id="LEVEL"></path>
                </g>
                <g id="Freq" transform="translate(33.000000, 16.000000)"></g>
                <g id="VOCT" transform="translate(4.000000, 42.000000)" fill="#F0ECEB" fill-rule="nonzero">
                    <path d="M7.78808594,0.961914062 L8.88183594,0.961914062 L7.16259766,6 L6.16796875,6 L4.46582031,0.961914062 L5.59033203,0.961914062 L6.68408203,4.78662109 L7.78808594,0.961914062 Z M10.5429688,0.808105469 L11.3530273,0.808105469 L9.39453125,6 L8.59130859,6 L10.5429688,0.808105469 Z M13.6806641,5.24804688 C14.0976583,5.24804688 14.4286283,5.09423982 14.673584,4.78662109 C14.9185396,4.47900237 15.0410156,4.04150674 15.0410156,3.47412109 C15.0410156,2.9090141 14.9185396,2.47208813 14.673584,2.16333008 C14.4286283,1.85457202 14.0976583,1.70019531 13.6806641,1.70019531 C13.2636698,1.70019531 12.9309908,1.85400237 12.6826172,2.16162109 C12.4342435,2.46923982 12.3100586,2.90673544 12.3100586,3.47412109 C12.3100586,4.04150674 12.4342435,4.47900237 12.6826172,4.78662109 C12.9309908,5.09423982 13.2636698,5.24804688 13.6806641,5.24804688 Z M16.09375,3.47412109 C16.09375,4.37874801 15.8396835,5.07144942 15.331543,5.55224609 C14.9510072,5.94417514 14.4007197,6.14013672 13.6806641,6.14013672 C12.9606084,6.14013672 12.4103209,5.94417514 12.0297852,5.55224609 C11.5193659,5.07144942 11.2641602,4.37874801 11.2641602,3.47412109 C11.2641602,2.55126492 11.5193659,1.85856351 12.0297852,1.39599609 C12.4103209,1.00406705 12.9606084,0.808105469 13.6806641,0.808105469 C14.4007197,0.808105469 14.9510072,1.00406705 15.331543,1.39599609 C15.8396835,1.85856351 16.09375,2.55126492 16.09375,3.47412109 Z M16.6782227,3.52197266 C16.6782227,2.64241097 16.9140601,1.96452061 17.3857422,1.48828125 C17.7959005,1.07356563 18.3177052,0.866210938 18.9511719,0.866210938 C19.7988324,0.866210938 20.4186178,1.14420295 20.8105469,1.70019531 C21.0270193,2.01237135 21.1432291,2.32568202 21.1591797,2.64013672 L20.1064453,2.64013672 C20.0380856,2.39859905 19.9503586,2.21630921 19.8432617,2.09326172 C19.6518545,1.87451062 19.3681659,1.76513672 18.9921875,1.76513672 C18.6093731,1.76513672 18.3074555,1.91951343 18.0864258,2.22827148 C17.865396,2.53702954 17.7548828,2.97395551 17.7548828,3.5390625 C17.7548828,4.10416949 17.8716622,4.52742372 18.1052246,4.80883789 C18.338787,5.09025206 18.6355776,5.23095703 18.9956055,5.23095703 C19.3647479,5.23095703 19.6461579,5.11019001 19.8398438,4.86865234 C19.9469406,4.73876888 20.0358069,4.54394661 20.1064453,4.28417969 L21.1489258,4.28417969 C21.0577795,4.83333608 20.8247903,5.2799462 20.4499512,5.62402344 C20.0751121,5.96810068 19.5948923,6.14013672 19.0092773,6.14013672 C18.2846643,6.14013672 17.7150086,5.90771717 17.300293,5.44287109 C16.8855774,4.97574636 16.6782227,4.33545329 16.6782227,3.52197266 Z M25.612793,0.961914062 L25.612793,1.85400391 L24.1054688,1.85400391 L24.1054688,6 L23.0458984,6 L23.0458984,1.85400391 L21.5317383,1.85400391 L21.5317383,0.961914062 L25.612793,0.961914062 Z" id="V/OCT"></path>
                </g>
                <g id="Mod" transform="translate(3.000000, 7.000000)" fill="#F0ECEB" fill-rule="nonzero">
                    <path d="M11.738,6 L11.738,1.1 L10.576,1.1 L9.288,3.172 L8,1.1 L6.838,1.1 L6.838,6 L7.895,6 L7.895,2.822 L9.26,4.894 L9.288,4.894 L10.667,2.801 L10.667,6 L11.738,6 Z M17.905,3.55 L17.905,3.536 C17.905,2.143 16.82,1.016 15.308,1.016 C13.8541538,1.016 12.7821494,2.07091864 12.7018382,3.39043815 L12.697,3.564 C12.697,4.957 13.782,6.084 15.294,6.084 C16.806,6.084 17.905,4.943 17.905,3.55 Z M16.778,3.564 C16.778,4.404 16.176,5.09 15.308,5.09 C14.4882222,5.09 13.8932222,4.46561728 13.8296413,3.68860768 L13.824,3.536 C13.824,2.696 14.426,2.01 15.294,2.01 C16.1137778,2.01 16.7087778,2.63438272 16.7723587,3.41139232 L16.778,3.564 Z M23.379,3.55 L23.379,3.536 C23.379,2.157 22.315,1.1 20.775,1.1 L18.864,1.1 L18.864,6 L20.775,6 C22.315,6 23.379,4.929 23.379,3.55 Z M22.252,3.564 C22.252,4.432 21.657,5.027 20.775,5.027 L19.942,5.027 L19.942,2.073 L20.775,2.073 C21.6051176,2.073 22.1810069,2.61246021 22.2458862,3.39958335 L22.252,3.564 Z" id="MOD"></path>
                </g>
                <g id="Header" transform="translate(0.000000, 1.000000)" fill="#F0ECEB" fill-rule="nonzero">
                    <path d="M47.6123047,2.39257812 L47.6123047,3.41796875 L44.7119141,3.41796875 L44.7119141,11 L43.5283203,11 L43.5283203,3.41796875 L40.6279297,3.41796875 L40.6279297,2.39257812 L47.6123047,2.39257812 Z M52.1826172,2.15820312 C53.702156,2.15820312 54.8271448,2.64647949 55.5576172,3.62304688 C56.1279325,4.38476943 56.4130859,5.35936906 56.4130859,6.546875 C56.4130859,7.83203768 56.0869173,8.90038637 55.4345703,9.75195312 C54.6689415,10.7519581 53.5771555,11.2519531 52.1591797,11.2519531 C50.8349543,11.2519531 49.7939491,10.8144575 49.0361328,9.93945312 C48.3603482,9.09569891 48.0224609,8.02930332 48.0224609,6.74023438 C48.0224609,5.57616605 48.3115205,4.58008227 48.8896484,3.75195312 C49.6318396,2.68944781 50.7294849,2.15820312 52.1826172,2.15820312 Z M52.2998047,10.2089844 C53.3271536,10.2089844 54.0703102,9.84082399 54.5292969,9.10449219 C54.9882835,8.36816038 55.2177734,7.52148916 55.2177734,6.56445312 C55.2177734,5.55272932 54.9531276,4.73828434 54.4238281,4.12109375 C53.8945286,3.50390316 53.170903,3.1953125 52.2529297,3.1953125 C51.3623002,3.1953125 50.635745,3.50097351 50.0732422,4.11230469 C49.5107394,4.72363587 49.2294922,5.62499404 49.2294922,6.81640625 C49.2294922,7.76953602 49.4707007,8.57323892 49.953125,9.22753906 C50.4355493,9.88183921 51.217768,10.2089844 52.2998047,10.2089844 Z M57.8017578,2.39257812 L59.1787109,2.39257812 L63.5263672,9.36523438 L63.5263672,2.39257812 L64.6337891,2.39257812 L64.6337891,11 L63.3271484,11 L58.9150391,4.03320312 L58.9150391,11 L57.8017578,11 L57.8017578,2.39257812 Z M66.5791016,2.39257812 L72.8544922,2.39257812 L72.8544922,3.44726562 L67.7158203,3.44726562 L67.7158203,6.06054688 L72.4677734,6.06054688 L72.4677734,7.05664062 L67.7158203,7.05664062 L67.7158203,9.97460938 L72.9423828,9.97460938 L72.9423828,11 L66.5791016,11 L66.5791016,2.39257812 Z M80.0087891,11.2285156 C79.0165966,11.2285156 78.2968772,10.9560574 77.8496094,10.4111328 C77.4023415,9.86620821 77.1787109,9.20312891 77.1787109,8.421875 L78.2802734,8.421875 C78.3271487,8.96484646 78.4287102,9.35937377 78.5849609,9.60546875 C78.8583998,10.0468772 79.3525355,10.2675781 80.0673828,10.2675781 C80.6220731,10.2675781 81.0673811,10.1191421 81.4033203,9.82226562 C81.7392595,9.52538914 81.9072266,9.14258047 81.9072266,8.67382812 C81.9072266,8.09570023 81.7304705,7.6914074 81.3769531,7.4609375 C81.0234357,7.2304676 80.5322297,7.11523438 79.9033203,7.11523438 L79.7971191,7.11596679 L79.7971191,7.11596679 L79.4697266,7.12695312 L79.4697266,7.12695312 L79.4697266,6.1953125 L79.665039,6.21354167 L79.665039,6.21354167 L79.7451172,6.21875 C79.8193363,6.22265627 79.8994136,6.22460938 79.9853516,6.22460938 C80.3798848,6.22460938 80.7041003,6.16211 80.9580078,6.03710938 C81.4033225,5.81835828 81.6259766,5.42773719 81.6259766,4.86523438 C81.6259766,4.44726354 81.4775405,4.12500113 81.1806641,3.8984375 C80.8837876,3.67187387 80.5380879,3.55859375 80.1435547,3.55859375 C79.4404262,3.55859375 78.9541029,3.79296641 78.6845703,4.26171875 C78.5361321,4.51953254 78.4521485,4.88671637 78.4326172,5.36328125 L77.3896484,5.36328125 C77.3896484,4.73827812 77.5146472,4.20703344 77.7646484,3.76953125 C78.1943381,2.98827734 78.9501899,2.59765625 80.0322266,2.59765625 C80.8876996,2.59765625 81.5498023,2.78808403 82.0185547,3.16894531 C82.487307,3.54980659 82.7216797,4.10155889 82.7216797,4.82421875 C82.7216797,5.33984633 82.5830092,5.7578109 82.3056641,6.078125 C82.1337882,6.27734475 81.9111342,6.43359318 81.6376953,6.546875 C82.0791038,6.66796936 82.4238269,6.90136546 82.671875,7.24707031 C82.9199231,7.59277517 83.0439453,8.0156225 83.0439453,8.515625 C83.0439453,9.31641025 82.7802761,9.96874748 82.2529297,10.4726562 C81.7255833,10.976565 80.9775439,11.2285156 80.0087891,11.2285156 Z" id="TONE3"></path>
                </g>
            </g>
            <g id="tone2" transform="translate(13.000000, 108.000000)">
                <rect id="bg" stroke="#F0ECEB" fill="#DF252B" x="0" y="-2.84217094e-14" width="154" height="81"></rect>
                <g id="Out" transform="translate(111.000000, 48.000000)">
                    <rect id="Rectangle" stroke="#F0ECEB" fill="#1D1D1D" x="0" y="0" width="40" height="29"></rect>
                    <path d="M7.03369141,9.35546875 C7.39111507,9.35546875 7.67480364,9.22363413 7.88476562,8.95996094 C8.09472761,8.69628774 8.19970703,8.32129149 8.19970703,7.83496094 C8.19970703,7.35058352 8.09472761,6.97607554 7.88476562,6.71142578 C7.67480364,6.44677602 7.39111507,6.31445312 7.03369141,6.31445312 C6.67626774,6.31445312 6.39111435,6.44628774 6.17822266,6.70996094 C5.96533097,6.97363413 5.85888672,7.34863038 5.85888672,7.83496094 C5.85888672,8.32129149 5.96533097,8.69628774 6.17822266,8.95996094 C6.39111435,9.22363413 6.67626774,9.35546875 7.03369141,9.35546875 Z M9.10205078,7.83496094 C9.10205078,8.61035544 8.88427952,9.2040995 8.44873047,9.61621094 C8.12255696,9.95215012 7.65088199,10.1201172 7.03369141,10.1201172 C6.41650082,10.1201172 5.94482585,9.95215012 5.61865234,9.61621094 C5.18115016,9.2040995 4.96240234,8.61035544 4.96240234,7.83496094 C4.96240234,7.04394136 5.18115016,6.45019729 5.61865234,6.05371094 C5.94482585,5.71777176 6.41650082,5.54980469 7.03369141,5.54980469 C7.65088199,5.54980469 8.12255696,5.71777176 8.44873047,6.05371094 C8.88427952,6.45019729 9.10205078,7.04394136 9.10205078,7.83496094 Z M5.29052734,12.6816406 L6.20751953,12.6816406 L6.20751953,15.3359375 C6.20751953,15.632814 6.24267543,15.8496087 6.31298828,15.9863281 C6.42236383,16.2285168 6.6606427,16.3496094 7.02783203,16.3496094 C7.39306823,16.3496094 7.63037055,16.2285168 7.73974609,15.9863281 C7.81005895,15.8496087 7.84521484,15.632814 7.84521484,15.3359375 L7.84521484,12.6816406 L8.76220703,12.6816406 L8.76220703,15.3359375 C8.76220703,15.7949242 8.69091868,16.1523425 8.54833984,16.4082031 C8.28271352,16.8769555 7.77588265,17.1113281 7.02783203,17.1113281 C6.27978142,17.1113281 5.77197399,16.8769555 5.50439453,16.4082031 C5.36181569,16.1523425 5.29052734,15.7949242 5.29052734,15.3359375 L5.29052734,12.6816406 Z M8.76220703,19.6816406 L8.76220703,20.4462891 L7.47021484,20.4462891 L7.47021484,24 L6.56201172,24 L6.56201172,20.4462891 L5.26416016,20.4462891 L5.26416016,19.6816406 L8.76220703,19.6816406 Z" id="OUT" fill="#E1E1E1" fill-rule="nonzero"></path>
                </g>
                <g id="Level" transform="translate(94.000000, 1.000000)" fill="#F0ECEB" fill-rule="nonzero">
                    <path d="M21.109,38 L21.109,37.02 L18.666,37.02 L18.666,33.1 L17.588,33.1 L17.588,38 L21.109,38 Z M25.652,38 L25.652,37.041 L22.992,37.041 L22.992,36.012 L25.302,36.012 L25.302,35.053 L22.992,35.053 L22.992,34.059 L25.617,34.059 L25.617,33.1 L21.921,33.1 L21.921,38 L25.652,38 Z M31.105,33.1 L29.943,33.1 L28.662,36.551 L27.381,33.1 L26.191,33.1 L28.172,38.035 L29.124,38.035 L31.105,33.1 Z M35.592,38 L35.592,37.041 L32.932,37.041 L32.932,36.012 L35.242,36.012 L35.242,35.053 L32.932,35.053 L32.932,34.059 L35.557,34.059 L35.557,33.1 L31.861,33.1 L31.861,38 L35.592,38 Z M40.072,38 L36.551,38 L36.551,33.1 L37.629,33.1 L37.629,37.02 L40.072,37.02 L40.072,38 Z" id="LEVEL"></path>
                </g>
                <g id="Freq" transform="translate(33.000000, 16.000000)"></g>
                <g id="VOCT" transform="translate(4.000000, 42.000000)" fill="#F0ECEB" fill-rule="nonzero">
                    <path d="M7.78808594,0.961914062 L8.88183594,0.961914062 L7.16259766,6 L6.16796875,6 L4.46582031,0.961914062 L5.59033203,0.961914062 L6.68408203,4.78662109 L7.78808594,0.961914062 Z M10.5429688,0.808105469 L11.3530273,0.808105469 L9.39453125,6 L8.59130859,6 L10.5429688,0.808105469 Z M13.6806641,5.24804688 C14.0976583,5.24804688 14.4286283,5.09423982 14.673584,4.78662109 C14.9185396,4.47900237 15.0410156,4.04150674 15.0410156,3.47412109 C15.0410156,2.9090141 14.9185396,2.47208813 14.673584,2.16333008 C14.4286283,1.85457202 14.0976583,1.70019531 13.6806641,1.70019531 C13.2636698,1.70019531 12.9309908,1.85400237 12.6826172,2.16162109 C12.4342435,2.46923982 12.3100586,2.90673544 12.3100586,3.47412109 C12.3100586,4.04150674 12.4342435,4.47900237 12.6826172,4.78662109 C12.9309908,5.09423982 13.2636698,5.24804688 13.6806641,5.24804688 Z M16.09375,3.47412109 C16.09375,4.37874801 15.8396835,5.07144942 15.331543,5.55224609 C14.9510072,5.94417514 14.4007197,6.14013672 13.6806641,6.14013672 C12.9606084,6.14013672 12.4103209,5.94417514 12.0297852,5.55224609 C11.5193659,5.07144942 11.2641602,4.37874801 11.2641602,3.47412109 C11.2641602,2.55126492 11.5193659,1.85856351 12.0297852,1.39599609 C12.4103209,1.00406705 12.9606084,0.808105469 13.6806641,0.808105469 C14.4007197,0.808105469 14.9510072,1.00406705 15.331543,1.39599609 C15.8396835,1.85856351 16.09375,2.55126492 16.09375,3.47412109 Z M16.6782227,3.52197266 C16.6782227,2.64241097 16.9140601,1.96452061 17.3857422,1.48828125 C17.7959005,1.07356563 18.3177052,0.866210938 18.9511719,0.866210938 C19.7988324,0.866210938 20.4186178,1.14420295 20.8105469,1.70019531 C21.0270193,2.01237135 21.1432291,2.32568202 21.1591797,2.64013672 L20.1064453,2.64013672 C20.0380856,2.39859905 19.9503586,2.21630921 19.8432617,2.09326172 C19.6518545,1.87451062 19.3681659,1.76513672 18.9921875,1.76513672 C18.6093731,1.76513672 18.3074555,1.91951343 18.0864258,2.22827148 C17.865396,2.53702954 17.7548828,2.97395551 17.7548828,3.5390625 C17.7548828,4.10416949 17.8716622,4.52742372 18.1052246,4.80883789 C18.338787,5.09025206 18.6355776,5.23095703 18.9956055,5.23095703 C19.3647479,5.23095703 19.6461579,5.11019001 19.8398438,4.86865234 C19.9469406,4.73876888 20.0358069,4.54394661 20.1064453,4.28417969 L21.1489258,4.28417969 C21.0577795,4.83333608 20.8247903,5.2799462 20.4499512,5.62402344 C20.0751121,5.96810068 19.5948923,6.14013672 19.0092773,6.14013672 C18.2846643,6.14013672 17.7150086,5.90771717 17.300293,5.44287109 C16.8855774,4.97574636 16.6782227,4.33545329 16.6782227,3.52197266 Z M25.612793,0.961914062 L25.612793,1.85400391 L24.1054688,1.85400391 L24.1054688,6 L23.0458984,6 L23.0458984,1.85400391 L21.5317383,1.85400391 L21.5317383,0.961914062 L25.612793,0.961914062 Z" id="V/OCT"></path>
                </g>
                <g id="Mod" transform="translate(3.000000, 7.000000)" fill="#F0ECEB" fill-rule="nonzero">
                    <path d="M11.738,6 L11.738,1.1 L10.576,1.1 L9.288,3.172 L8,1.1 L6.838,1.1 L6.838,6 L7.895,6 L7.895,2.822 L9.26,4.894 L9.288,4.894 L10.667,2.801 L10.667,6 L11.738,6 Z M17.905,3.55 L17.905,3.536 C17.905,2.143 16.82,1.016 15.308,1.016 C13.8541538,1.016 12.7821494,2.07091864 12.7018382,3.39043815 L12.697,3.564 C12.697,4.957 13.782,6.084 15.294,6.084 C16.806,6.084 17.905,4.943 17.905,3.55 Z M16.778,3.564 C16.778,4.404 16.176,5.09 15.308,5.09 C14.4882222,5.09 13.8932222,4.46561728 13.8296413,3.68860768 L13.824,3.536 C13.824,2.696 14.426,2.01 15.294,2.01 C16.1137778,2.01 16.7087778,2.63438272 16.7723587,3.41139232 L16.778,3.564 Z M23.379,3.55 L23.379,3.536 C23.379,2.157 22.315,1.1 20.775,1.1 L18.864,1.1 L18.864,6 L20.775,6 C22.315,6 23.379,4.929 23.379,3.55 Z M22.252,3.564 C22.252,4.432 21.657,5.027 20.775,5.027 L19.942,5.027 L19.942,2.073 L20.775,2.073 C21.6051176,2.073 22.1810069,2.61246021 22.2458862,3.39958335 L22.252,3.564 Z" id="MOD"></path>
                </g>
                <g id="Header" transform="translate(0.000000, 1.000000)" fill="#F0ECEB" fill-rule="nonzero">
                    <path d="M47.6123047,2.39257812 L47.6123047,3.41796875 L44.7119141,3.41796875 L44.7119141,11 L43.5283203,11 L43.5283203,3.41796875 L40.6279297,3.41796875 L40.6279297,2.39257812 L47.6123047,2.39257812 Z M52.1826172,2.15820312 C53.702156,2.15820312 54.8271448,2.64647949 55.5576172,3.62304688 C56.1279325,4.38476943 56.4130859,5.35936906 56.4130859,6.546875 C56.4130859,7.83203768 56.0869173,8.90038637 55.4345703,9.75195312 C54.6689415,10.7519581 53.5771555,11.2519531 52.1591797,11.2519531 C50.8349543,11.2519531 49.7939491,10.8144575 49.0361328,9.93945312 C48.3603482,9.09569891 48.0224609,8.02930332 48.0224609,6.74023438 C48.0224609,5.57616605 48.3115205,4.58008227 48.8896484,3.75195312 C49.6318396,2.68944781 50.7294849,2.15820312 52.1826172,2.15820312 Z M52.2998047,10.2089844 C53.3271536,10.2089844 54.0703102,9.84082399 54.5292969,9.10449219 C54.9882835,8.36816038 55.2177734,7.52148916 55.2177734,6.56445312 C55.2177734,5.55272932 54.9531276,4.73828434 54.4238281,4.12109375 C53.8945286,3.50390316 53.170903,3.1953125 52.2529297,3.1953125 C51.3623002,3.1953125 50.635745,3.50097351 50.0732422,4.11230469 C49.5107394,4.72363587 49.2294922,5.62499404 49.2294922,6.81640625 C49.2294922,7.76953602 49.4707007,8.57323892 49.953125,9.22753906 C50.4355493,9.88183921 51.217768,10.2089844 52.2998047,10.2089844 Z M57.8017578,2.39257812 L59.1787109,2.39257812 L63.5263672,9.36523438 L63.5263672,2.39257812 L64.6337891,2.39257812 L64.6337891,11 L63.3271484,11 L58.9150391,4.03320312 L58.9150391,11 L57.8017578,11 L57.8017578,2.39257812 Z M66.5791016,2.39257812 L72.8544922,2.39257812 L72.8544922,3.44726562 L67.7158203,3.44726562 L67.7158203,6.06054688 L72.4677734,6.06054688 L72.4677734,7.05664062 L67.7158203,7.05664062 L67.7158203,9.97460938 L72.9423828,9.97460938 L72.9423828,11 L66.5791016,11 L66.5791016,2.39257812 Z M77.2666016,11 C77.3056643,10.2773401 77.4550768,9.64844018 77.7148438,9.11328125 C77.9746107,8.57812232 78.4814415,8.09179906 79.2353516,7.65429688 L80.3603516,7.00390625 C80.8642603,6.71093604 81.2177724,6.46093854 81.4208984,6.25390625 C81.7412125,5.92968588 81.9013672,5.55859584 81.9013672,5.140625 C81.9013672,4.65234131 81.7548843,4.26464987 81.4619141,3.97753906 C81.1689438,3.69042825 80.7783228,3.546875 80.2900391,3.546875 C79.5673792,3.546875 79.0673842,3.82030977 78.7900391,4.3671875 C78.6416008,4.66015771 78.5595704,5.06640365 78.5439453,5.5859375 L77.4716797,5.5859375 C77.4833985,4.8554651 77.6181628,4.25976793 77.8759766,3.79882812 C78.3330101,2.98632406 79.1396427,2.58007812 80.2958984,2.58007812 C81.2568407,2.58007812 81.9589822,2.83984115 82.4023438,3.359375 C82.8457053,3.87890885 83.0673828,4.45702807 83.0673828,5.09375 C83.0673828,5.76562836 82.8310571,6.33984137 82.3583984,6.81640625 C82.0849596,7.09375139 81.5947301,7.42968553 80.8876953,7.82421875 L80.0849609,8.26953125 C79.7021465,8.4804698 79.4013683,8.68163967 79.1826172,8.87304688 C78.7919902,9.21289232 78.5458989,9.58984168 78.4443359,10.0039062 L83.0263672,10.0039062 L83.0263672,11 L77.2666016,11 Z" id="TONE2"></path>
                </g>
            </g>
            <g id="tone1" transform="translate(13.000000, 23.000000)">
                <rect id="bg" stroke="#F0ECEB" fill="#DF252B" x="0" y="7.10542736e-15" width="154" height="81"></rect>
                <g id="Out" transform="translate(111.000000, 48.000000)">
                    <rect id="Rectangle" stroke="#F0ECEB" fill="#1D1D1D" x="0" y="0" width="40" height="29"></rect>
                    <path d="M7.03369141,9.35546875 C7.39111507,9.35546875 7.67480364,9.22363413 7.88476562,8.95996094 C8.09472761,8.69628774 8.19970703,8.32129149 8.19970703,7.83496094 C8.19970703,7.35058352 8.09472761,6.97607554 7.88476562,6.71142578 C7.67480364,6.44677602 7.39111507,6.31445312 7.03369141,6.31445312 C6.67626774,6.31445312 6.39111435,6.44628774 6.17822266,6.70996094 C5.96533097,6.97363413 5.85888672,7.34863038 5.85888672,7.83496094 C5.85888672,8.32129149 5.96533097,8.69628774 6.17822266,8.95996094 C6.39111435,9.22363413 6.67626774,9.35546875 7.03369141,9.35546875 Z M9.10205078,7.83496094 C9.10205078,8.61035544 8.88427952,9.2040995 8.44873047,9.61621094 C8.12255696,9.95215012 7.65088199,10.1201172 7.03369141,10.1201172 C6.41650082,10.1201172 5.94482585,9.95215012 5.61865234,9.61621094 C5.18115016,9.2040995 4.96240234,8.61035544 4.96240234,7.83496094 C4.96240234,7.04394136 5.18115016,6.45019729 5.61865234,6.05371094 C5.94482585,5.71777176 6.41650082,5.54980469 7.03369141,5.54980469 C7.65088199,5.54980469 8.12255696,5.71777176 8.44873047,6.05371094 C8.88427952,6.45019729 9.10205078,7.04394136 9.10205078,7.83496094 Z M5.29052734,12.6816406 L6.20751953,12.6816406 L6.20751953,15.3359375 C6.20751953,15.632814 6.24267543,15.8496087 6.31298828,15.9863281 C6.42236383,16.2285168 6.6606427,16.3496094 7.02783203,16.3496094 C7.39306823,16.3496094 7.63037055,16.2285168 7.73974609,15.9863281 C7.81005895,15.8496087 7.84521484,15.632814 7.84521484,15.3359375 L7.84521484,12.6816406 L8.76220703,12.6816406 L8.76220703,15.3359375 C8.76220703,15.7949242 8.69091868,16.1523425 8.54833984,16.4082031 C8.28271352,16.8769555 7.77588265,17.1113281 7.02783203,17.1113281 C6.27978142,17.1113281 5.77197399,16.8769555 5.50439453,16.4082031 C5.36181569,16.1523425 5.29052734,15.7949242 5.29052734,15.3359375 L5.29052734,12.6816406 Z M8.76220703,19.6816406 L8.76220703,20.4462891 L7.47021484,20.4462891 L7.47021484,24 L6.56201172,24 L6.56201172,20.4462891 L5.26416016,20.4462891 L5.26416016,19.6816406 L8.76220703,19.6816406 Z" id="OUT" fill="#E1E1E1" fill-rule="nonzero"></path>
                </g>
                <g id="Level" transform="translate(94.000000, 1.000000)" fill="#F0ECEB" fill-rule="nonzero">
                    <path d="M21.109,38 L21.109,37.02 L18.666,37.02 L18.666,33.1 L17.588,33.1 L17.588,38 L21.109,38 Z M25.652,38 L25.652,37.041 L22.992,37.041 L22.992,36.012 L25.302,36.012 L25.302,35.053 L22.992,35.053 L22.992,34.059 L25.617,34.059 L25.617,33.1 L21.921,33.1 L21.921,38 L25.652,38 Z M31.105,33.1 L29.943,33.1 L28.662,36.551 L27.381,33.1 L26.191,33.1 L28.172,38.035 L29.124,38.035 L31.105,33.1 Z M35.592,38 L35.592,37.041 L32.932,37.041 L32.932,36.012 L35.242,36.012 L35.242,35.053 L32.932,35.053 L32.932,34.059 L35.557,34.059 L35.557,33.1 L31.861,33.1 L31.861,38 L35.592,38 Z M40.072,38 L36.551,38 L36.551,33.1 L37.629,33.1 L37.629,37.02 L40.072,37.02 L40.072,38 Z" id="LEVEL"></path>
                </g>
                <g id="Freq" transform="translate(33.000000, 16.000000)"></g>
                <g id="VOCT" transform="translate(4.000000, 42.000000)" fill="#F0ECEB" fill-rule="nonzero">
                    <path d="M7.78808594,0.961914062 L8.88183594,0.961914062 L7.16259766,6 L6.16796875,6 L4.46582031,0.961914062 L5.59033203,0.961914062 L6.68408203,4.78662109 L7.78808594,0.961914062 Z M10.5429688,0.808105469 L11.3530273,0.808105469 L9.39453125,6 L8.59130859,6 L10.5429688,0.808105469 Z M13.6806641,5.24804688 C14.0976583,5.24804688 14.4286283,5.09423982 14.673584,4.78662109 C14.9185396,4.47900237 15.0410156,4.04150674 15.0410156,3.47412109 C15.0410156,2.9090141 14.9185396,2.47208813 14.673584,2.16333008 C14.4286283,1.85457202 14.0976583,1.70019531 13.6806641,1.70019531 C13.2636698,1.70019531 12.9309908,1.85400237 12.6826172,2.16162109 C12.4342435,2.46923982 12.3100586,2.90673544 12.3100586,3.47412109 C12.3100586,4.04150674 12.4342435,4.47900237 12.6826172,4.78662109 C12.9309908,5.09423982 13.2636698,5.24804688 13.6806641,5.24804688 Z M16.09375,3.47412109 C16.09375,4.37874801 15.8396835,5.07144942 15.331543,5.55224609 C14.9510072,5.94417514 14.4007197,6.14013672 13.6806641,6.14013672 C12.9606084,6.14013672 12.4103209,5.94417514 12.0297852,5.55224609 C11.5193659,5.07144942 11.2641602,4.37874801 11.2641602,3.47412109 C11.2641602,2.55126492 11.5193659,1.85856351 12.0297852,1.39599609 C12.4103209,1.00406705 12.9606084,0.808105469 13.6806641,0.808105469 C14.4007197,0.808105469 14.9510072,1.00406705 15.331543,1.39599609 C15.8396835,1.85856351 16.09375,2.55126492 16.09375,3.47412109 Z M16.6782227,3.52197266 C16.6782227,2.64241097 16.9140601,1.96452061 17.3857422,1.48828125 C17.7959005,1.07356563 18.3177052,0.866210938 18.9511719,0.866210938 C19.7988324,0.866210938 20.4186178,1.14420295 20.8105469,1.70019531 C21.0270193,2.01237135 21.1432291,2.32568202 21.1591797,2.64013672 L20.1064453,2.64013672 C20.0380856,2.39859905 19.9503586,2.21630921 19.8432617,2.09326172 C19.6518545,1.87451062 19.3681659,1.76513672 18.9921875,1.76513672 C18.6093731,1.76513672 18.3074555,1.91951343 18.0864258,2.22827148 C17.865396,2.53702954 17.7548828,2.97395551 17.7548828,3.5390625 C17.7548828,4.10416949 17.8716622,4.52742372 18.1052246,4.80883789 C18.338787,5.09025206 18.6355776,5.23095703 18.9956055,5.23095703 C19.3647479,5.23095703 19.6461579,5.11019001 19.8398438,4.86865234 C19.9469406,4.73876888 20.0358069,4.54394661 20.1064453,4.28417969 L21.1489258,4.28417969 C21.0577795,4.83333608 20.8247903,5.2799462 20.4499512,5.62402344 C20.0751121,5.96810068 19.5948923,6.14013672 19.0092773,6.14013672 C18.2846643,6.14013672 17.7150086,5.90771717 17.300293,5.44287109 C16.8855774,4.97574636 16.6782227,4.33545329 16.6782227,3.52197266 Z M25.612793,0.961914062 L25.612793,1.85400391 L24.1054688,1.85400391 L24.1054688,6 L23.0458984,6 L23.0458984,1.85400391 L21.5317383,1.85400391 L21.5317383,0.961914062 L25.612793,0.961914062 Z" id="V/OCT"></path>
                </g>
                <g id="Mod" transform="translate(3.000000, 7.000000)" fill="#F0ECEB" fill-rule="nonzero">
                    <path d="M11.738,6 L11.738,1.1 L10.576,1.1 L9.288,3.172 L8,1.1 L6.838,1.1 L6.838,6 L7.895,6 L7.895,2.822 L9.26,4.894 L9.288,4.894 L10.667,2.801 L10.667,6 L11.738,6 Z M17.905,3.55 L17.905,3.536 C17.905,2.143 16.82,1.016 15.308,1.016 C13.8541538,1.016 12.7821494,2.07091864 12.7018382,3.39043815 L12.697,3.564 C12.697,4.957 13.782,6.084 15.294,6.084 C16.806,6.084 17.905,4.943 17.905,3.55 Z M16.778,3.564 C16.778,4.404 16.176,5.09 15.308,5.09 C14.4882222,5.09 13.8932222,4.46561728 13.8296413,3.68860768 L13.824,3.536 C13.824,2.696 14.426,2.01 15.294,2.01 C16.1137778,2.01 16.7087778,2.63438272 16.7723587,3.41139232 L16.778,3.564 Z M23.379,3.55 L23.379,3.536 C23.379,2.157 22.315,1.1 20.775,1.1 L18.864,1.1 L18.864,6 L20.775,6 C22.315,6 23.379,4.929 23.379,3.55 Z M22.252,3.564 C22.252,4.432 21.657,5.027 20.775,5.027 L19.942,5.027 L19.942,2.073 L20.775,2.073 C21.6051176,2.073 22.1810069,2.61246021 22.2458862,3.39958335 L22.252,3.564 Z" id="MOD"></path>
                </g>
                <g id="Header" transform="translate(0.000000, 1.000000)" fill="#F0ECEB" fill-rule="nonzero">
                    <path d="M47.6123047,2.39257812 L47.6123047,3.41796875 L44.7119141,3.41796875 L44.7119141,11 L43.5283203,11 L43.5283203,3.41796875 L40.6279297,3.41796875 L40.6279297,2.39257812 L47.6123047,2.39257812 Z M52.1826172,2.15820312 C53.702156,2.15820312 54.8271448,2.64647949 55.5576172,3.62304688 C56.1279325,4.38476943 56.4130859,5.35936906 56.4130859,6.546875 C56.4130859,7.83203768 56.0869173,8.90038637 55.4345703,9.75195312 C54.6689415,10.7519581 53.5771555,11.2519531 52.1591797,11.2519531 C50.8349543,11.2519531 49.7939491,10.8144575 49.0361328,9.93945312 C48.3603482,9.09569891 48.0224609,8.02930332 48.0224609,6.74023438 C48.0224609,5.57616605 48.3115205,4.58008227 48.8896484,3.75195312 C49.6318396,2.68944781 50.7294849,2.15820312 52.1826172,2.15820312 Z M52.2998047,10.2089844 C53.3271536,10.2089844 54.0703102,9.84082399 54.5292969,9.10449219 C54.9882835,8.36816038 55.2177734,7.52148916 55.2177734,6.56445312 C55.2177734,5.55272932 54.9531276,4.73828434 54.4238281,4.12109375 C53.8945286,3.50390316 53.170903,3.1953125 52.2529297,3.1953125 C51.3623002,3.1953125 50.635745,3.50097351 50.0732422,4.11230469 C49.5107394,4.72363587 49.2294922,5.62499404 49.2294922,6.81640625 C49.2294922,7.76953602 49.4707007,8.57323892 49.953125,9.22753906 C50.4355493,9.88183921 51.217768,10.2089844 52.2998047,10.2089844 Z M57.8017578,2.39257812 L59.1787109,2.39257812 L63.5263672,9.36523438 L63.5263672,2.39257812 L64.6337891,2.39257812 L64.6337891,11 L63.3271484,11 L58.9150391,4.03320312 L58.9150391,11 L57.8017578,11 L57.8017578,2.39257812 Z M66.5791016,2.39257812 L72.8544922,2.39257812 L72.8544922,3.44726562 L67.7158203,3.44726562 L67.7158203,6.06054688 L72.4677734,6.06054688 L72.4677734,7.05664062 L67.7158203,7.05664062 L67.7158203,9.97460938 L72.9423828,9.97460938 L72.9423828,11 L66.5791016,11 L66.5791016,2.39257812 Z M78.0400391,5.05859375 L78.0400391,4.25 C78.8017616,4.17578088 79.3330063,4.05175868 79.6337891,3.87792969 C79.9345718,3.70410069 80.1591789,3.29297199 80.3076172,2.64453125 L81.1396484,2.64453125 L81.1396484,11 L80.0146484,11 L80.0146484,5.05859375 L78.0400391,5.05859375 Z" id="TONE1"></path>
                </g>
            </g>
            <path d="M59.184,13.742 L59.184,13.706 C59.184,11.9292258 58.0376941,10.894179 55.3209273,10.2909001 L55.044,10.232 C52.149375,9.639125 51.417,8.86043164 51.3740533,7.60135559 L51.372,7.442 C51.372,6.128 52.596,5.066 54.45,5.066 C55.836,5.066 57.024,5.462 58.212,6.488 L58.806,5.75 C57.528,4.724 56.322,4.22 54.486,4.22 C52.2214839,4.22 50.5469781,5.56859521 50.4413019,7.35222114 L50.436,7.568 C50.436,9.41445161 51.5823059,10.4348887 54.3969547,11.0534661 L54.684,11.114 C57.4536774,11.6714194 58.200462,12.4142706 58.2457596,13.6688266 L58.248,13.832 C58.248,15.272 56.952,16.334 55.062,16.334 C53.208,16.334 51.93,15.74 50.544,14.462 L49.932,15.164 C51.444,16.514 52.992,17.18 55.008,17.18 C57.438,17.18 59.184,15.776 59.184,13.742 Z M72.738,17 L72.738,4.4 L71.838,4.4 L71.838,15.362 L63.144,4.4 L62.262,4.4 L62.262,17 L63.162,17 L63.162,5.804 L72.036,17 L72.738,17 Z M75.834,5.3 L83.142,5.3 L77.418,17 L78.444,17 L84.186,5.084 L84.186,4.4 L75.834,4.4 L75.834,5.3 Z M94.734,5.642 C93.636,4.742 92.538,4.184 91.098,4.184 C87.966,4.184 85.968,7.208 85.968,11.024 C85.968,13.652 86.526,14.912 87.57,15.956 C88.326,16.712 89.478,17.216 90.774,17.216 C93.258,17.216 95.184,15.47 95.184,13.058 C95.184,10.79 93.168,9.224 90.846,9.224 C88.794,9.224 87.624,10.34 86.904,11.564 C86.814,7.712 88.47,5.03 91.026,5.03 C92.214,5.03 93.168,5.498 94.14,6.362 L94.734,5.642 Z M94.212,13.094 C94.212,14.894 92.88,16.37 90.846,16.37 C88.812,16.37 87.282,15.002 87.282,13.184 C87.282,11.618 88.722,10.052 90.792,10.052 C92.79,10.052 94.212,11.348 94.212,13.094 Z M104.436,4.31 L97.236,13.22 L97.56,13.922 L104.382,13.922 L104.382,17 L105.282,17 L105.282,13.922 L107.334,13.922 L107.334,13.112 L105.282,13.112 L105.282,4.31 L104.436,4.31 Z M104.382,13.112 L98.37,13.112 L104.382,5.66 L104.382,13.112 Z M118.674,13.616 C118.674,12.122 117.468,11.006 115.884,10.484 C117.126,9.98 118.242,9.044 118.242,7.532 C118.242,5.552 116.172,4.22 113.994,4.22 C111.816,4.22 109.746,5.552 109.746,7.532 C109.746,9.044 110.862,9.98 112.104,10.484 C110.52,11.006 109.314,12.122 109.314,13.616 C109.314,15.722 111.348,17.18 113.994,17.18 C116.64,17.18 118.674,15.722 118.674,13.616 Z M117.27,7.532 C117.27,9.098 115.776,10.142 113.994,10.142 C112.212,10.142 110.718,9.098 110.718,7.532 C110.718,6.092 112.158,5.066 113.994,5.066 C115.83,5.066 117.27,6.092 117.27,7.532 Z M117.702,13.652 C117.702,15.092 116.316,16.334 113.994,16.334 C111.672,16.334 110.286,15.092 110.286,13.652 C110.286,12.068 111.942,10.934 113.994,10.934 C116.046,10.934 117.702,12.068 117.702,13.652 Z M129.978,10.394 C129.978,7.856 129.402,6.47 128.394,5.462 C127.638,4.706 126.54,4.184 125.19,4.184 C122.562,4.184 120.762,6.092 120.762,8.432 C120.762,10.61 122.58,12.302 125.118,12.302 C127.098,12.302 128.322,11.168 129.042,9.872 C129.186,13.652 127.404,16.37 124.866,16.37 C123.714,16.37 122.706,15.884 121.644,14.93 L121.05,15.65 C122.094,16.532 123.282,17.216 124.848,17.216 C127.782,17.216 129.978,14.372 129.978,10.394 Z M128.664,8.252 C128.664,9.854 127.296,11.474 125.154,11.474 C123.156,11.474 121.734,10.178 121.734,8.396 C121.734,6.632 123.012,5.03 125.082,5.03 C127.17,5.03 128.664,6.452 128.664,8.252 Z" id="SN76489" fill="#B3B3B3" fill-rule="nonzero"></path>
        </g>
    </g>
</svg>