<?xml version="1.0" encoding="UTF-8"?>
<svg width="240px" height="380px" viewBox="0 0 240 380" version="1.1" xmlns="http://www.w3.org/2000/svg" xmlns:xlink="http://www.w3.org/1999/xlink">
    <!-- Generator: Sketch 58 (84663) - https://sketch.com -->
    <title>SuperEcho</title>
    <desc>Created with Sketch.</desc>
    <g id="SuperEcho" stroke="none" stroke-width="1" fill="none" fill-rule="evenodd">
        <g id="bg" fill-rule="nonzero">
            <g fill="#C5C6BF" id="Background">
                <rect x="0" y="0" width="240" height="380" rx="1"></rect>
            </g>
            <g id="Logo/Panel/LightMode" transform="translate(73.000000, 364.000000)" fill="#000000">
                <g id="Logo/Print/LightMode" transform="translate(0.000000, -0.000000)">
                    <path d="M1.95775432,2.21673387 L3.38562168,2.21673387 L3.38562168,4.9702621 L6.06699634,2.21673387 L7.94254488,2.21673387 L5.09623504,4.9702621 L8.08863032,8.90322581 L6.22250665,8.90322581 L4.0783494,5.98185484 L3.38562168,6.66683468 L3.38562168,8.90322581 L1.95775432,8.90322581 L1.95775432,2.21673387 Z M11.6276679,6.49899194 C11.5428437,6.55040348 11.4572353,6.59198573 11.3708403,6.62373992 C11.2844452,6.65549411 11.1658502,6.6849797 11.0150515,6.71219758 L10.7134558,6.76663306 C10.4307084,6.8150204 10.2280757,6.87399159 10.1055519,6.94354839 C9.89820375,7.06149253 9.79453125,7.24445441 9.79453125,7.49243952 C9.79453125,7.71320675 9.85814847,7.87273136 9.98538481,7.97101815 C10.1126211,8.06930493 10.2673445,8.11844758 10.4495595,8.11844758 C10.7385902,8.11844758 11.00484,8.03679517 11.248317,7.8734879 C11.4917939,7.71018064 11.618243,7.41230055 11.6276679,6.97983871 L11.6276679,6.49899194 Z M10.8124169,5.89566532 C11.0606051,5.86542324 11.2381062,5.82762119 11.3449219,5.78225806 C11.5365618,5.70362864 11.6323803,5.58115003 11.6323803,5.41481855 C11.6323803,5.21219657 11.5593383,5.07232901 11.4132522,4.99521169 C11.267166,4.91809437 11.0527524,4.87953629 10.770005,4.87953629 C10.4526995,4.87953629 10.2280758,4.95514037 10.096127,5.10635081 C10.0018779,5.21824653 9.93904603,5.36945469 9.90762965,5.55997984 L8.61171044,5.55997984 C8.63998518,5.127518 8.76564882,4.77217881 8.98870512,4.49395161 C9.34371022,4.05846556 9.95317886,3.84072581 10.8171293,3.84072581 C11.3794825,3.84072581 11.8789955,3.9480836 12.3156832,4.16280242 C12.7523709,4.37752123 12.9707114,4.78275912 12.9707114,5.37852823 L12.9707114,7.64667339 C12.9707114,7.80393224 12.973853,7.99445453 12.9801363,8.21824597 C12.9895612,8.38760165 13.0162647,8.50251986 13.0602477,8.56300403 C13.1042306,8.62348821 13.170204,8.6733869 13.2581699,8.71270161 L13.2581699,8.90322581 L11.7973155,8.90322581 C11.7564742,8.80342692 11.7281999,8.70967786 11.7124917,8.62197581 C11.6967835,8.53427376 11.6842171,8.43447637 11.6747922,8.32258065 C11.4894356,8.51613 11.2758074,8.6809469 11.0339013,8.81703629 C10.7448706,8.97731935 10.4181451,9.05745968 10.0537151,9.05745968 C9.58875266,9.05745968 9.20469317,8.92968878 8.9015251,8.67414315 C8.59835703,8.41859751 8.44677527,8.05645396 8.44677527,7.58770161 C8.44677527,6.97983567 8.69024856,6.53981991 9.17720246,6.26764113 C9.44424169,6.1194549 9.83694056,6.01360919 10.3553108,5.95010081 L10.8124169,5.89566532 Z M15.5012882,3.95866935 L15.5012882,6.9390121 C15.5012882,7.2202635 15.5358457,7.43195493 15.6049618,7.57409274 C15.7274857,7.82510206 15.9678174,7.95060484 16.3259641,7.95060484 C16.7846433,7.95060484 17.0988023,7.7721792 17.2684508,7.41532258 C17.3564167,7.22177323 17.4003989,6.96623143 17.4003989,6.64868952 L17.4003989,3.95866935 L18.7622922,3.95866935 L18.7622922,8.90322581 L17.4569481,8.90322581 L17.4569481,8.2046371 L17.4405489,8.22641125 C17.4238355,8.24969746 17.3978858,8.28780215 17.3626995,8.34072581 C17.3124333,8.41633102 17.252743,8.48286262 17.183627,8.54032258 C16.9731372,8.7217751 16.7697192,8.8457658 16.5733669,8.91229839 C16.3770145,8.97883098 16.1468929,9.01209677 15.8829953,9.01209677 C15.1227189,9.01209677 14.6106396,8.74899457 14.346742,8.22278226 C14.199085,7.93245823 14.1252576,7.50453912 14.1252576,6.9390121 L14.1252576,3.95866935 L15.5012882,3.95866935 Z M19.5304189,4.92489919 L19.5304189,4.00403226 L20.2467088,4.00403226 L20.2467088,2.625 L21.575615,2.625 L21.575615,4.00403226 L22.4097158,4.00403226 L22.4097158,4.92489919 L21.575615,4.92489919 L21.575615,7.53780242 C21.575615,7.7404244 21.6023185,7.86668322 21.6557264,7.91658266 C21.7091342,7.9664821 21.872497,7.99143145 22.1458195,7.99143145 C22.1866608,7.99143145 22.2298577,7.99067541 22.2754114,7.98916331 C22.3209652,7.9876512 22.3657328,7.98538308 22.4097158,7.98235887 L22.4097158,8.94858871 L21.7735372,8.97127016 C21.1389263,8.99243962 20.7053868,8.88659391 20.4729056,8.65372984 C20.322107,8.50554361 20.2467088,8.27721928 20.2467088,7.96875 L20.2467088,4.92489919 L19.5304189,4.92489919 Z M25.2984375,4.89314516 C24.9874153,4.89314516 24.7462982,4.98689422 24.575079,5.17439516 C24.4038597,5.3618961 24.2962602,5.61592582 24.2522773,5.93649194 L26.3398853,5.93649194 C26.3178938,5.59475636 26.2102944,5.33543435 26.0170836,5.15851815 C25.8238729,4.98160194 25.5843266,4.89314516 25.2984375,4.89314516 Z M25.2984375,3.82711694 C25.7257003,3.82711694 26.1105452,3.9042331 26.4529837,4.05846774 C26.7954223,4.21270238 27.0781654,4.45614753 27.3012217,4.78881048 C27.5022866,5.08215872 27.6326626,5.4223771 27.6923537,5.80947581 C27.7269117,6.03629146 27.7410489,6.36290109 27.7347656,6.78931452 L24.2192902,6.78931452 C24.2381401,7.28528474 24.399932,7.63306352 24.7046709,7.83266129 C24.8900275,7.95665385 25.1130805,8.01864919 25.3738364,8.01864919 C25.6503006,8.01864919 25.8749243,7.94304511 26.0477144,7.79183468 C26.1419636,7.71018104 26.2252157,7.59677492 26.2974734,7.4516129 L27.6687916,7.4516129 C27.6342335,7.74496114 27.4755832,8.04284123 27.1928358,8.3452621 C26.7530064,8.82611128 26.1372546,9.06653226 25.3455618,9.06653226 C24.6921011,9.06653226 24.1156192,8.86391332 23.6160987,8.45866935 C23.1165783,8.05342539 22.8668218,7.39415779 22.8668218,6.48084677 C22.8668218,5.62499572 23.092231,4.96875228 23.543056,4.51209677 C23.9938811,4.05544127 24.5790024,3.82711694 25.2984375,3.82711694 Z M31.4858627,3.84072581 C32.0167995,3.84072581 32.4511245,3.97454503 32.7888506,4.2421875 C33.1265767,4.50982997 33.2954372,4.95362593 33.2954372,5.57358871 L33.2954372,8.90322581 L31.9194066,8.90322581 L31.9194066,5.89566532 C31.9194066,5.63558338 31.8832783,5.4359886 31.8110206,5.296875 C31.6790718,5.04284147 31.4277445,4.91582661 31.0570313,4.91582661 C30.6014937,4.91582661 30.2889054,5.10181266 30.119257,5.47379032 C30.0312911,5.67036389 29.9873088,5.92136944 29.9873088,6.22681452 L29.9873088,8.90322581 L28.6489777,8.90322581 L28.6489777,3.96774194 L29.9448969,3.96774194 L29.9448969,4.6890121 C30.117687,4.43497857 30.2810498,4.25201669 30.43499,4.14012097 C30.7114542,3.9405232 31.0617416,3.84072581 31.4858627,3.84072581 Z M35.9391124,3.36895161 L34.5960688,3.36895161 L34.5960688,2.17590726 L35.9391124,2.17590726 L35.9391124,3.36895161 Z M33.9504654,10.8855847 L33.9504654,9.85131048 L34.0978762,9.86197785 L34.0978762,9.86197785 L34.1106882,9.86265121 C34.1421045,9.86416331 34.1703789,9.86491935 34.195512,9.86491935 C34.3274608,9.86491935 34.4272063,9.83392168 34.4947515,9.7719254 C34.5622967,9.70992913 34.5960688,9.58971863 34.5960688,9.41129032 L34.5960688,3.98135081 L35.9391124,3.98135081 L35.9391124,9.43397177 C35.9391124,9.9329662 35.8370107,10.3019141 35.6328042,10.5408266 C35.435185,10.7720322 35.0536827,10.8913625 34.4882863,10.8988206 L34.4311336,10.8991935 C34.4077958,10.8991935 34.3780467,10.8986998 34.341886,10.8977123 L34.0479841,10.8881768 C34.0170809,10.8873128 33.9845746,10.8864487 33.9504654,10.8855847 Z M40.0483544,6.49899194 C39.9635302,6.55040348 39.8779218,6.59198573 39.7915268,6.62373992 C39.7051317,6.65549411 39.5865367,6.6849797 39.435738,6.71219758 L39.1341423,6.76663306 C38.8513949,6.8150204 38.6487622,6.87399159 38.5262384,6.94354839 C38.3188903,7.06149253 38.2152178,7.24445441 38.2152178,7.49243952 C38.2152178,7.71320675 38.278835,7.87273136 38.4060713,7.97101815 C38.5333077,8.06930493 38.688031,8.11844758 38.870246,8.11844758 C39.1592767,8.11844758 39.4255265,8.03679517 39.6690035,7.8734879 C39.9124804,7.71018064 40.0389295,7.41230055 40.0483544,6.97983871 L40.0483544,6.49899194 Z M39.2331034,5.89566532 C39.4812916,5.86542324 39.6587927,5.82762119 39.7656084,5.78225806 C39.9572483,5.70362864 40.0530668,5.58115003 40.0530668,5.41481855 C40.0530668,5.21219657 39.9800248,5.07232901 39.8339387,4.99521169 C39.6878525,4.91809437 39.4734389,4.87953629 39.1906915,4.87953629 C38.873386,4.87953629 38.6487623,4.95514037 38.5168135,5.10635081 C38.4225644,5.21824653 38.3597325,5.36945469 38.3283162,5.55997984 L37.0323969,5.55997984 C37.0606717,5.127518 37.1863353,4.77217881 37.4093916,4.49395161 C37.7643967,4.05846556 38.3738654,3.84072581 39.2378158,3.84072581 C39.800169,3.84072581 40.299682,3.9480836 40.7363697,4.16280242 C41.1730574,4.37752123 41.3913979,4.78275912 41.3913979,5.37852823 L41.3913979,7.64667339 C41.3913979,7.80393224 41.3945395,7.99445453 41.4008228,8.21824597 C41.4102477,8.38760165 41.4369512,8.50251986 41.4809342,8.56300403 C41.5249171,8.62348821 41.5908905,8.6733869 41.6788564,8.71270161 L41.6788564,8.90322581 L40.218002,8.90322581 C40.1771607,8.80342692 40.1488864,8.70967786 40.1331782,8.62197581 C40.11747,8.53427376 40.1049036,8.43447637 40.0954787,8.32258065 C39.9101221,8.51613 39.6964939,8.6809469 39.4545878,8.81703629 C39.1655571,8.97731935 38.8388316,9.05745968 38.4744016,9.05745968 C38.0094392,9.05745968 37.6253797,8.92968878 37.3222116,8.67414315 C37.0190435,8.41859751 36.8674618,8.05645396 36.8674618,7.58770161 C36.8674618,6.97983567 37.1109351,6.53981991 37.597889,6.26764113 C37.8649282,6.1194549 38.2576271,6.01360919 38.7759973,5.95010081 L39.2331034,5.89566532 Z M44.1010472,3.37802419 L44.1010472,7.74193548 L45.4393783,7.74193548 C46.1242554,7.74193548 46.6017772,7.41683793 46.8719581,6.76663306 C47.0196151,6.40977644 47.0934425,5.9848815 47.0934425,5.49193548 C47.0934425,4.81148853 46.9827014,4.28906432 46.7612159,3.92464718 C46.5397304,3.56023003 46.0991223,3.37802419 45.4393783,3.37802419 L44.1010472,3.37802419 Z M45.6844249,2.21673387 C46.1148293,2.22278229 46.4729706,2.2711689 46.7588597,2.36189516 C47.2458136,2.5161298 47.6400833,2.79888907 47.9416805,3.21018145 C48.1835866,3.54284441 48.3485202,3.90271984 48.436486,4.28981855 C48.5244519,4.67691726 48.5684342,5.04586518 48.5684342,5.39667339 C48.5684342,6.28579074 48.3830803,7.0388074 48.012367,7.65574597 C47.5097049,8.48740335 46.733732,8.90322581 45.6844249,8.90322581 L42.6920296,8.90322581 L42.6920296,2.21673387 L45.6844249,2.21673387 Z M50.7125914,6.83921371 C50.7565744,7.14465879 50.8429681,7.37298311 50.9717753,7.52419355 C51.2073981,7.79939654 51.6110926,7.93699597 52.1828707,7.93699597 C52.5253092,7.93699597 52.80334,7.90070601 53.0169714,7.828125 C53.4222427,7.6890114 53.6248753,7.43044544 53.6248753,7.05241935 C53.6248753,6.83165212 53.5243444,6.6607869 53.3232796,6.53981855 C53.132268,6.42777162 52.8377712,6.32800817 52.4397811,6.24052551 L51.6409408,6.06804435 C50.9183641,5.9107855 50.4188511,5.73992028 50.142387,5.55544355 C49.6742829,5.24697426 49.4402344,4.76462022 49.4402344,4.10836694 C49.4402344,3.50957362 49.6664289,3.01209876 50.1188248,2.61592742 C50.5712207,2.21975608 51.2356672,2.02167339 52.1121842,2.02167339 C52.8441858,2.02167339 53.468577,2.20841547 53.9853765,2.58190524 C54.502176,2.95539501 54.7731382,3.49747629 54.7982713,4.20816532 L53.403391,4.20816532 C53.3782579,3.80594557 53.1960456,3.52016214 52.8567487,3.35080645 C52.6305507,3.23891073 52.3493783,3.18296371 52.0132231,3.18296371 C51.6393681,3.18296371 51.340917,3.25554363 51.1178607,3.40070565 C50.8948044,3.54586766 50.7832779,3.7484866 50.7832779,4.00856855 C50.7832779,4.23662137 50.8834648,4.40956118 51.0838415,4.52739263 L51.1131483,4.54385081 C51.248867,4.61933505 51.5322436,4.70736003 51.9632861,4.80792817 L53.2148936,5.09727823 C53.7395472,5.21824657 54.1353876,5.38003931 54.4024269,5.58266129 C54.8171231,5.89717899 55.0244681,6.35231557 55.0244681,6.94808468 C55.0244681,7.55897483 54.7817802,8.06627822 54.2963971,8.47001008 C53.811014,8.87374194 53.1253618,9.07560484 52.2394199,9.07560484 C51.3346281,9.07560484 50.6230578,8.8767661 50.1046875,8.47908266 C49.5863172,8.08139922 49.327136,7.5347817 49.327136,6.83921371 L50.7125914,6.83921371 Z M60.0102227,4.34425403 C60.0102227,3.99647004 59.9151896,3.74848864 59.7251205,3.60030242 C59.5350514,3.45211619 59.2688016,3.37802419 58.926363,3.37802419 L57.5738946,3.37802419 L57.5738946,5.34677419 L58.926363,5.34677419 C59.2688016,5.34677419 59.5350514,5.26663387 59.7251205,5.10635081 C59.9151896,4.94606775 60.0102227,4.69203803 60.0102227,4.34425403 Z M61.447515,4.33518145 C61.447515,5.12449991 61.24017,5.68245804 60.8254737,6.00907258 C60.4107775,6.33568712 59.8185876,6.49899194 59.0488863,6.49899194 L57.5738946,6.49899194 L57.5738946,8.90322581 L56.13189,8.90322581 L56.13189,2.21673387 L59.1572723,2.21673387 C59.8547159,2.21673387 60.4107775,2.38911118 60.8254737,2.73387097 C61.24017,3.07863076 61.447515,3.61239558 61.447515,4.33518145 Z" id="KautenjaDSP"></path>
                </g>
            </g>
            <path d="M77.9882812,11.9511719 L79.609375,11.9511719 L79.0820312,14.9492188 L79.0820312,14.9980469 C79.0820312,15.1087245 79.1210934,15.2063798 79.1992188,15.2910156 C79.2773441,15.3756515 79.3717442,15.4179688 79.4824219,15.4179688 L80.3808594,15.4179688 C80.5240893,15.4179688 80.6542963,15.3723963 80.7714844,15.28125 C80.8951829,15.1835933 80.970052,15.0664069 80.9960938,14.9296875 L81.3476562,12.9570312 C81.3606771,12.8984372 81.3671875,12.8365889 81.3671875,12.7714844 C81.3671875,12.548269 81.2810914,12.2676591 81.1088971,11.9296482 L80.1855469,10.2128906 L80.1855469,10.2128906 L79.3066406,8.55273438 L79.3066406,8.55273438 C79.0592436,8.06445068 78.9355469,7.58593984 78.9355469,7.1171875 L78.9355469,7.02929688 C78.9355469,6.91861924 78.9453124,6.80468809 78.9648438,6.6875 L79.3847656,4.265625 C79.4498701,3.90103984 79.63216,3.5983085 79.9316406,3.35742188 C80.2181004,3.11653525 80.5468731,2.99609375 80.9179688,2.99609375 L83.2617188,2.99609375 C83.6002621,2.99609375 83.8932279,3.11979043 84.140625,3.3671875 C84.3945325,3.61458457 84.5214844,3.92057109 84.5214844,4.28515625 C84.5214844,4.34158014 84.5185909,4.39076975 84.5128038,4.43272567 L83.8867188,7.92773438 L82.2460938,7.92773438 L82.7636719,5.03710938 C82.7766928,5.01757803 82.7832031,4.99153662 82.7832031,4.95898438 C82.7832031,4.86132764 82.7408858,4.77018271 82.65625,4.68554688 C82.5716142,4.61393193 82.4739589,4.578125 82.3632812,4.578125 L81.4648438,4.578125 C81.3216139,4.578125 81.194662,4.62369746 81.0839844,4.71484375 C80.9733067,4.79947959 80.904948,4.90690039 80.8789062,5.03710938 L80.5957031,6.58984375 C80.5761718,6.70703184 80.5664062,6.82747334 80.5664062,6.95117188 C80.5664062,7.40690332 80.7161443,7.87890381 81.015625,8.3671875 L81.5702499,9.27983276 C82.3232539,10.5316108 82.721058,11.2560359 82.7636719,11.453125 C82.9329436,11.7656266 83.0175781,12.10742 83.0175781,12.4785156 C83.0110677,12.6477873 82.9915366,12.826822 82.9589844,13.015625 L82.4609375,15.7207031 C82.395833,16.0852883 82.2167983,16.3912748 81.9238281,16.6386719 C81.6308579,16.8795585 81.2955748,17 80.9179688,17 L78.5839844,17 C78.2389306,17 77.9492199,16.8763033 77.7148438,16.6289062 C77.486978,16.3815092 77.3730469,16.0787778 77.3730469,15.7207031 L77.3730469,15.4960938 L77.9882812,11.9511719 Z M85.8789062,2.99609375 L87.5,2.99609375 L85.3515625,14.96875 L85.3515625,15.0175781 C85.3515625,15.1282558 85.3873694,15.225911 85.4589844,15.3105469 C85.5436202,15.3951827 85.6412755,15.4375 85.7519531,15.4375 L86.6503906,15.4375 C86.988934,15.4375 87.1874997,15.2747412 87.2460938,14.9492188 L89.4140625,2.99609375 L91.0742188,2.99609375 L88.7402344,15.7402344 C88.6751299,16.0983091 88.4960952,16.3977853 88.203125,16.6386719 C87.9101548,16.8795585 87.5748717,17 87.1972656,17 L84.84375,17 C84.5117171,17 84.2252616,16.8763033 83.984375,16.6289062 C83.7434884,16.3815092 83.6230469,16.0852882 83.6230469,15.7402344 L83.6230469,15.4960938 L85.8789062,2.99609375 Z M92.1972656,2.99609375 L95.8789062,2.99609375 C96.2239601,2.99609375 96.5201811,3.12304561 96.7675781,3.37695312 C97.0084647,3.61783975 97.1289062,3.89452969 97.1289062,4.20703125 C97.1289062,4.29166709 97.1191407,4.38606719 97.0996094,4.49023438 L96.2011719,9.45117188 C96.1360674,9.82226748 95.9602879,10.128254 95.6738281,10.3691406 C95.3873684,10.6100272 95.0585956,10.7304688 94.6875,10.7304688 L92.4902344,10.7304688 L91.3476562,17.0097656 L89.6582031,17.0097656 L92.1972656,2.99609375 Z M94.1210938,9.1484375 C94.2643236,9.1484375 94.3912755,9.10286504 94.5019531,9.01171875 C94.6061203,8.92708291 94.6712238,8.81640693 94.6972656,8.6796875 L95.390625,5.03710938 L95.390625,4.97851562 C95.390625,4.86132754 95.3515629,4.76367227 95.2734375,4.68554688 C95.1953121,4.61393193 95.100912,4.578125 94.9902344,4.578125 L93.59375,4.578125 L92.7441406,9.1484375 L94.1210938,9.1484375 Z M98.5351562,2.99609375 L102.333984,2.99609375 L102.060547,4.55859375 L99.9511719,4.55859375 L99.1601562,9.00195312 L101.259766,9.00195312 L100.966797,10.5644531 L98.8769531,10.5644531 L98.0078125,15.4375 L100.078125,15.4375 L99.7949219,17 L95.9960938,17 L98.5351562,2.99609375 Z M100.976562,17 L103.486328,2.99609375 L107.246094,2.99609375 C107.584637,2.99609375 107.877603,3.11979043 108.125,3.3671875 C108.372397,3.60807412 108.502604,3.90429512 108.515625,4.25585938 L108.476562,4.49023438 L108.476562,4.49023438 L107.695312,8.90429688 C107.584635,9.5162791 107.22331,9.9069002 106.611328,10.0761719 C106.839194,10.1608077 107.011718,10.3105458 107.128906,10.5253906 C107.220053,10.6946623 107.265625,10.8834625 107.265625,11.0917969 C107.265625,11.13737 107.26237,11.1861977 107.255859,11.2382812 L107.251519,11.4032118 C107.250072,11.4256365 107.248264,11.4455294 107.246094,11.4628906 L106.230469,17 L104.511719,17 L105.537109,11.2675781 L105.537109,11.21875 C105.537109,11.1080724 105.498047,11.0136723 105.419922,10.9355469 C105.341796,10.8574215 105.247396,10.8183594 105.136719,10.8183594 L103.779297,10.8183594 L102.685547,17 L100.976562,17 Z M104.082031,9.1484375 L105.439453,9.1484375 C105.582683,9.1484375 105.709635,9.09960986 105.820312,9.00195312 C105.92448,8.91080684 105.989583,8.79687568 106.015625,8.66015625 L106.679688,5.03710938 L106.679688,4.97851562 C106.679688,4.86132754 106.640625,4.76367227 106.5625,4.68554688 C106.477864,4.61393193 106.376954,4.578125 106.259766,4.578125 L104.912109,4.578125 L104.082031,9.1484375 Z M112.861328,2.99609375 L116.660156,2.99609375 L116.386719,4.55859375 L114.277344,4.55859375 L113.486328,9.00195312 L115.585938,9.00195312 L115.292969,10.5644531 L113.203125,10.5644531 L112.333984,15.4375 L114.404297,15.4375 L114.121094,17 L110.322266,17 L112.861328,2.99609375 Z M115.556641,15.4765625 L117.568359,4.265625 C117.633464,3.90103984 117.812499,3.5983085 118.105469,3.35742188 C118.398439,3.11653525 118.727212,2.99609375 119.091797,2.99609375 L121.464844,2.99609375 C121.803387,2.99609375 122.093098,3.11979043 122.333984,3.3671875 C122.581381,3.61458457 122.705078,3.91731592 122.705078,4.27539062 C122.705078,4.33615482 122.702185,4.38823793 122.696398,4.43164061 L122.060547,7.9765625 L120.439453,7.9765625 L120.966797,5.03710938 L120.966797,4.97851562 C120.966797,4.86132754 120.927735,4.76367227 120.849609,4.68554688 C120.771484,4.61393193 120.673829,4.578125 120.556641,4.578125 L119.648438,4.578125 C119.511718,4.578125 119.384766,4.62369746 119.267578,4.71484375 C119.1569,4.79947959 119.088542,4.90690039 119.0625,5.03710938 L117.275391,14.9492188 L117.275391,14.9980469 C117.275391,15.1087245 117.314453,15.2063798 117.392578,15.2910156 C117.470704,15.3756515 117.568359,15.4179688 117.685547,15.4179688 L118.583984,15.4179688 C118.922528,15.4179688 119.121093,15.25521 119.179688,14.9296875 L119.707031,12 L121.337891,12 L120.673828,15.7207031 C120.608724,16.0852883 120.426434,16.3912748 120.126953,16.6386719 C119.833983,16.8795585 119.501955,17 119.130859,17 L116.796875,17 C116.451821,17 116.158855,16.8763033 115.917969,16.6289062 C115.677082,16.3749987 115.556641,16.0722674 115.556641,15.7207031 L115.556641,15.4765625 Z M125.810547,2.99609375 L124.716797,9.00195312 L126.523438,9.00195312 L127.617188,2.99609375 L129.296875,2.99609375 L126.757812,17 L125.068359,17 L126.240234,10.5644531 L124.433594,10.5644531 L123.271484,17 L121.582031,17 L124.130859,2.99609375 L125.810547,2.99609375 Z M134.101562,2.99609375 C134.440106,2.99609375 134.729817,3.11979043 134.970703,3.3671875 C135.2181,3.61458457 135.341797,3.91731592 135.341797,4.27539062 C135.341797,4.33615482 135.338903,4.38823793 135.333116,4.43164061 L133.310547,15.7207031 C133.245442,16.0852883 133.063153,16.3912748 132.763672,16.6386719 C132.470702,16.8795585 132.138674,17 131.767578,17 L129.433594,17 C129.08854,17 128.795574,16.8763033 128.554688,16.6289062 C128.313801,16.3749987 128.193359,16.0722674 128.193359,15.7207031 L128.193359,15.4765625 L130.205078,4.265625 C130.270183,3.90103984 130.449217,3.5983085 130.742188,3.35742188 C131.035158,3.11653525 131.36393,2.99609375 131.728516,2.99609375 L134.101562,2.99609375 Z M133.193359,4.578125 L132.285156,4.578125 C132.148437,4.578125 132.021485,4.62369746 131.904297,4.71484375 C131.821289,4.77832063 131.762085,4.85461405 131.726685,4.94372537 L131.699219,5.03710938 L129.912109,14.9492188 L129.912109,14.9980469 C129.912109,15.1087245 129.951171,15.2063798 130.029297,15.2910156 C130.087891,15.3544925 130.157471,15.3941652 130.238037,15.4100342 L130.322266,15.4179688 L131.220703,15.4179688 C131.521631,15.4179688 131.711958,15.2893692 131.791691,15.0321667 L131.816406,14.9296875 L133.603516,5.03710938 L133.603516,4.97851562 C133.603516,4.86132754 133.564454,4.76367227 133.486328,4.68554688 C133.408203,4.61393193 133.310547,4.578125 133.193359,4.578125 Z" id="SuperEcho" fill="#FF5050"></path>
        </g>
        <g id="FIR" transform="translate(99.000000, 20.597656)">
            <g id="FIR-BG" transform="translate(48.000000, 7.402344)" fill="#9E9E9E" fill-rule="nonzero">
                <path d="M24.6616211,92 L41.1655273,0.974609375 L65.8579102,0.974609375 L64.0805664,11.2578125 L50.3696289,11.2578125 L45.2280273,40.0126953 L58.8754883,40.0126953 L56.9711914,50.1689453 L43.387207,50.1689453 L35.8969727,92 L24.6616211,92 Z M60.7480469,234.974609 C62.9485787,234.974609 64.8528565,235.778638 66.4609375,237.386719 C68.0690185,238.952482 68.9153642,240.877918 69,243.163086 L68.9559336,243.402303 C68.9083701,243.673695 68.8384238,244.101767 68.7460938,244.686523 L63.6679688,273.37793 C62.9485641,277.355814 60.5999548,279.894851 56.6220703,280.995117 C58.1031975,281.54525 59.2246056,282.518548 59.9863281,283.915039 C60.578779,285.015305 60.875,286.242506 60.875,287.59668 C60.875,287.892905 60.8538414,288.210285 60.8115234,288.548828 C60.8115234,289.183597 60.7903648,289.670246 60.7480469,290.008789 L54.1464844,326 L42.9746094,326 L49.6396484,288.739258 L49.6396484,288.421875 C49.6396484,287.70247 49.3857447,287.08887 48.8779297,286.581055 C48.3701146,286.07324 47.756514,285.819336 47.0371094,285.819336 L38.2138672,285.819336 L31.1044922,326 L19.9960938,326 L36.3095703,234.974609 L60.7480469,234.974609 Z M54.3369141,245.257812 L45.5771484,245.257812 L40.1816406,274.964844 L49.0048828,274.964844 C49.9358771,274.964844 50.7610641,274.647464 51.4804688,274.012695 C52.0960021,273.474104 52.5016893,272.813114 52.6975399,272.029709 L52.75,271.791016 L57.0664062,248.241211 L57.0664062,247.860352 C57.0664062,247.098629 56.8125025,246.46387 56.3046875,245.956055 C55.7545545,245.490558 55.0986366,245.257812 54.3369141,245.257812 Z M59.0024414,117.974609 L42.4985352,209 L31.5170898,209 L48.0844727,117.974609 L59.0024414,117.974609 Z" id="FIR"></path>
            </g>
            <g id="FIR-Indexes" transform="translate(84.000000, 0.000000)">
                <g id="Group-10" transform="translate(0.000000, 0.402344)"></g>
                <g id="Group-11" transform="translate(8.532227, 0.000000)" fill="#000000" fill-rule="nonzero">
                    <polygon id="1" points="3.90527344 0 2.38769531 8.40234375 1.36230469 8.40234375 2.72167969 0.94921875 2.00097656 0.94921875 2.17089844 0"></polygon>
                    <path d="M0,52.4023438 L0.36328125,50.1875 C0.378906328,50.1015621 0.402343594,50.0156254 0.43359375,49.9296875 C0.511719141,49.7015614 0.644843044,49.464688 0.832968279,49.219063 L1.16951436,48.8181566 L1.16951436,48.8181566 L2.5983398,47.188086 C2.6110351,47.1740235 2.62187496,47.1621094 2.63085938,47.1523438 C2.86132928,46.89453 3.00585908,46.6855477 3.06445312,46.5253906 L3.07910158,46.4682617 L3.07910158,46.4682617 L3.28125,45.2304688 L3.28125,45.1953125 C3.28125,45.1289059 3.26171895,45.0703128 3.22265625,45.0195312 C3.16796848,44.9648435 3.09765668,44.9375 3.01171875,44.9375 L2.56640625,44.9375 C2.5,44.9375 2.43359408,44.9628904 2.3671875,45.0136719 C2.30859346,45.0644534 2.26562514,45.1230465 2.23828125,45.1894531 L2.2265625,45.21875 L1.92773438,47.0234375 L0.955078125,47.0234375 L1.3125,44.890625 L1.359375,44.7558594 C1.43359412,44.5449208 1.56249908,44.3671882 1.74609375,44.2226562 C1.93750096,44.074218 2.13671771,44 2.34375,44 L3.65625,44 C3.89062617,44 4.06835877,44.0722649 4.18945312,44.2167969 C4.28320359,44.3300787 4.33007812,44.4707023 4.33007812,44.6386719 L4.33007812,44.6796875 C4.33007812,44.7031251 4.32812502,44.7285155 4.32421875,44.7558594 L4.06054688,46.4433594 C4.04882807,46.5566412 4.0234377,46.6679682 3.984375,46.7773438 C3.92871066,46.9414071 3.84668002,47.0966796 3.73828155,47.2431638 L3.52785084,47.5022841 C3.31496792,47.7524453 2.78550515,48.3311076 1.93945312,49.2382812 C1.66210799,49.5312515 1.47460986,49.8144518 1.37695312,50.0878906 C1.34960924,50.166016 1.33007818,50.240234 1.31835938,50.3105469 L1.125,51.453125 L3.24023438,51.453125 L3.08203125,52.4023438 L0,52.4023438 Z" id="2"></path>
                    <path d="M3.28711888,91.2480442 C3.4254372,91.3002285 3.52789034,91.3896739 3.59765625,91.5175781 C3.65234402,91.6191411 3.6796875,91.7324213 3.6796875,91.8574219 L3.66796875,92.0800781 L3.66796875,92.0800781 L3.20507812,94.6347656 C3.16601543,94.857423 3.06054773,95.0410149 2.88867188,95.1855469 C2.71679602,95.3300788 2.51953236,95.4023438 2.296875,95.4023438 L0.873046875,95.4023438 C0.66601459,95.4023438 0.490235098,95.3281257 0.345703125,95.1796875 C0.201171152,95.0312493 0.12890625,94.8515636 0.12890625,94.640625 L0.12890625,94.4941406 L0.50390625,92.4082031 L1.48242188,92.4082031 L1.16015625,94.1777344 L1.16015625,94.2070312 C1.16015625,94.2734378 1.18359352,94.332031 1.23046875,94.3828125 C1.26562518,94.4179689 1.30468729,94.4414062 1.34765625,94.453125 L1.95703125,94.453125 C2.04296918,94.453125 2.11914029,94.4257815 2.18554688,94.3710938 C2.24804719,94.3203122 2.2871093,94.2539067 2.30273438,94.171875 L2.70117188,91.9628906 L2.70117188,91.9335938 C2.70117188,91.8671872 2.67773461,91.8105471 2.63085938,91.7636719 C2.58398414,91.7167966 2.52734408,91.6933594 2.4609375,91.6933594 L1.63476562,91.6933594 L1.81640625,90.6914062 L2.64257812,90.6914062 C2.72851605,90.6914062 2.80468717,90.6621097 2.87109375,90.6035156 C2.93359406,90.5488279 2.97265617,90.4804692 2.98828125,90.3984375 L3.40429688,88.2246094 L3.40429688,88.1894531 C3.40429688,88.1191403 3.38085961,88.0605471 3.33398438,88.0136719 C3.28710914,87.9707029 3.23046908,87.9492188 3.1640625,87.9492188 L2.59570312,87.9492188 C2.51367146,87.9492188 2.43750035,87.9765622 2.3671875,88.03125 C2.30078092,88.0820315 2.2597657,88.146484 2.24414062,88.2246094 L1.92773438,89.9941406 L0.94921875,89.9941406 L1.34765625,87.7617188 C1.38671895,87.5429677 1.49413975,87.3613288 1.66992188,87.2167969 C1.845704,87.0722649 2.04296766,87 2.26171875,87 L3.69726562,87 C3.90429791,87 4.08203051,87.0761711 4.23046875,87.2285156 C4.37500072,87.3730476 4.44726562,87.5390616 4.44726562,87.7265625 C4.44726562,87.777344 4.44140631,87.8339841 4.4296875,87.8964844 L3.9375,90.5449219 C3.86718776,90.912108 3.65039622,91.1464798 3.28711888,91.2480442 Z" id="3"></path>
                    <polygon id="4" points="0.665039062 134.541016 1.49121094 130 2.49902344 130 1.84277344 133.603516 2.92675781 133.603516 3.58300781 130 4.59082031 130 3.06738281 138.402344 2.05371094 138.402344 2.75683594 134.541016"></polygon>
                    <path d="M0.500976562,178.408203 L1.47949219,178.408203 L1.15722656,180.183594 L1.15722656,180.212891 C1.15722656,180.279297 1.18066383,180.33789 1.22753906,180.388672 C1.2744143,180.439453 1.33300746,180.464844 1.40332031,180.464844 L1.94824219,180.464844 C2.1513682,180.464844 2.27050764,180.367188 2.30566406,180.171875 L2.72753906,177.822266 L2.72753906,177.792969 C2.72753906,177.726562 2.7060549,177.667969 2.66308594,177.617188 C2.61230443,177.566406 2.55371127,177.541016 2.48730469,177.541016 L0.665039062,177.541016 L1.49121094,173 L4.59082031,173 L4.42089844,173.9375 L2.32324219,173.9375 L1.84277344,176.603516 L3.03222656,176.603516 C3.23144631,176.603516 3.40331959,176.677734 3.54785156,176.826172 C3.69238354,176.97461 3.76464844,177.152343 3.76464844,177.359375 L3.76464844,177.576172 L3.20214844,180.646484 C3.16308574,180.861329 3.05566494,181.041015 2.87988281,181.185547 C2.70410068,181.330079 2.50293082,181.402344 2.27636719,181.402344 L0.870117188,181.402344 C0.663084902,181.402344 0.48730541,181.328126 0.342773438,181.179688 C0.198241465,181.031249 0.125976562,180.853517 0.125976562,180.646484 L0.125976562,180.5 L0.500976562,178.408203 Z" id="5"></path>
                    <path d="M3.68261719,216 C3.8857432,216 4.05956959,216.074218 4.20410156,216.222656 C4.3525398,216.367188 4.42675781,216.546874 4.42675781,216.761719 L4.42382814,216.830566 L4.04003906,218.994141 L3.06738281,218.994141 L3.38378906,217.212891 L3.38378906,217.177734 C3.38378906,217.107422 3.3603518,217.048828 3.31347656,217.001953 C3.26660133,216.958984 3.20800816,216.9375 3.13769531,216.9375 L2.59277344,216.9375 C2.51074178,216.9375 2.43457066,216.964843 2.36425781,217.019531 C2.29785123,217.070313 2.25683602,217.134765 2.24121094,217.212891 L1.80175781,219.662109 L3.03808594,219.662109 C3.24511822,219.662109 3.42285082,219.73828 3.57128906,219.890625 C3.71582104,220.035157 3.78808594,220.201171 3.78808594,220.388672 C3.78808594,220.439453 3.78222662,220.496093 3.77050781,220.558594 L3.20800781,223.646484 C3.16894512,223.861329 3.05957121,224.041015 2.87988281,224.185547 C2.70410068,224.330079 2.50488393,224.402344 2.28222656,224.402344 L0.881835938,224.402344 C0.674803652,224.402344 0.49902416,224.328126 0.354492188,224.179688 C0.209960215,224.031249 0.137695312,223.853517 0.137695312,223.646484 L0.137695312,223.5 L1.34472656,216.75 C1.38378926,216.535155 1.49121006,216.357423 1.66699219,216.216797 C1.84277432,216.072265 2.04003797,216 2.25878906,216 L3.68261719,216 Z M2.50488281,220.599609 L1.93652344,220.599609 C1.85449178,220.599609 1.77832066,220.626953 1.70800781,220.681641 C1.64160123,220.732422 1.60058602,220.796875 1.58496094,220.875 L1.58496094,220.875 L1.16894531,223.183594 L1.16894531,223.212891 C1.16894531,223.279297 1.19238258,223.33789 1.23925781,223.388672 C1.28613305,223.439453 1.34472621,223.464844 1.41503906,223.464844 L1.41503906,223.464844 L1.95410156,223.464844 C2.15722758,223.464844 2.27636701,223.367188 2.31152344,223.171875 L2.31152344,223.171875 L2.74511719,220.839844 C2.74511719,220.769531 2.72167992,220.710938 2.67480469,220.664062 C2.62792945,220.621094 2.57128939,220.599609 2.50488281,220.599609 L2.50488281,220.599609 Z" id="Combined-Shape"></path>
                    <polygon id="7" points="4.43847656 259 4.25683594 259.949219 1.33886719 267.402344 0.319335938 267.402344 3.23730469 259.949219 1.47363281 259.949219 1.64355469 259"></polygon>
                    <path d="M3.69433594,302 C3.90136822,302 4.07910082,302.076171 4.22753906,302.228516 C4.37207104,302.373048 4.44433594,302.539062 4.44433594,302.726562 C4.44433594,302.777344 4.43847662,302.833984 4.42675781,302.896484 L3.93457031,305.544922 C3.86425807,305.912108 3.64746654,306.14648 3.28418919,306.248044 C3.42250752,306.300228 3.52496065,306.389674 3.59472656,306.517578 C3.64941434,306.619141 3.67675781,306.732421 3.67675781,306.857422 L3.66503906,307.080078 L3.20214844,309.640625 C3.16308574,309.859376 3.05761805,310.041015 2.88574219,310.185547 C2.71386633,310.330079 2.51660268,310.402344 2.29394531,310.402344 L0.858398438,310.402344 C0.651366152,310.402344 0.473633555,310.326173 0.325195312,310.173828 C0.18066334,310.029296 0.108398438,309.863282 0.108398438,309.675781 C0.108398438,309.625 0.114257754,309.56836 0.125976562,309.505859 L0.618164062,306.857422 C0.688476301,306.490236 0.90526784,306.255864 1.26854518,306.1543 C1.13022686,306.102115 1.02777373,306.01267 0.958007812,305.884766 C0.903320039,305.783203 0.875976562,305.669922 0.875976562,305.544922 C0.875976562,305.517578 0.877929668,305.488281 0.881835938,305.457031 L0.884440095,305.358073 C0.885308151,305.344618 0.886393223,305.332682 0.887695312,305.322266 L1.35058594,302.761719 C1.38964863,302.542968 1.49511633,302.361329 1.66699219,302.216797 C1.83886805,302.072265 2.0361317,302 2.25878906,302 L3.69433594,302 Z M2.45800781,306.693359 L1.91308594,306.693359 C1.82714801,306.693359 1.75097689,306.722656 1.68457031,306.78125 C1.62207,306.835938 1.58300789,306.904296 1.56738281,306.986328 L1.15136719,309.183594 L1.15136719,309.21875 C1.15136719,309.289063 1.17480445,309.347656 1.22167969,309.394531 C1.26855492,309.4375 1.32519498,309.458984 1.39160156,309.458984 L1.95410156,309.458984 C2.04003949,309.458984 2.11621061,309.431641 2.18261719,309.376953 C2.2451175,309.326172 2.28417961,309.259766 2.29980469,309.177734 L2.69824219,306.962891 L2.69824219,306.933594 C2.69824219,306.867187 2.67480492,306.810547 2.62792969,306.763672 C2.58105445,306.716797 2.52441439,306.693359 2.45800781,306.693359 Z M3.16113281,302.943359 L2.59863281,302.943359 C2.51269488,302.943359 2.43652377,302.970703 2.37011719,303.025391 C2.30761688,303.076172 2.26855477,303.142578 2.25292969,303.224609 L2.25292969,303.224609 L1.85449219,305.439453 L1.85449219,305.46875 C1.85449219,305.535157 1.87792945,305.591797 1.92480469,305.638672 C1.97167992,305.685547 2.02831998,305.708984 2.09472656,305.708984 L2.09472656,305.708984 L2.63964844,305.708984 C2.72558637,305.708984 2.80175748,305.679688 2.86816406,305.621094 C2.93066437,305.566406 2.96972648,305.498047 2.98535156,305.416016 L2.98535156,305.416016 L3.40136719,303.21875 L3.40136719,303.183594 C3.40136719,303.113281 3.37792992,303.054688 3.33105469,303.007812 C3.28417945,302.964844 3.22753939,302.943359 3.16113281,302.943359 L3.16113281,302.943359 Z" id="Combined-Shape"></path>
                </g>
            </g>
            <g transform="translate(41.500000, 168.902344) scale(-1, 1) translate(-41.500000, -168.902344) translate(0.000000, 16.402344)">
                <g id="normal" transform="translate(73.000000, 19.597656)" fill="#000000">
                    <polygon id="Triangle" transform="translate(5.000000, 3.500000) scale(1, -1) translate(-5.000000, -3.500000) " points="5 0 10 7 0 7"></polygon>
                    <polygon id="Triangle-Copy" transform="translate(5.000000, 46.902344) scale(1, -1) translate(-5.000000, -46.902344) " points="5 43.4023438 10 50.4023438 0 50.4023438"></polygon>
                    <polygon id="Triangle-Copy-2" transform="translate(5.000000, 89.902344) scale(1, -1) translate(-5.000000, -89.902344) " points="5 86.4023438 10 93.4023438 0 93.4023438"></polygon>
                    <polygon id="Triangle-Copy-3" transform="translate(5.000000, 132.902344) scale(1, -1) translate(-5.000000, -132.902344) " points="5 129.402344 10 136.402344 0 136.402344"></polygon>
                    <polygon id="Triangle-Copy-4" transform="translate(5.000000, 175.902344) scale(1, -1) translate(-5.000000, -175.902344) " points="5 172.402344 10 179.402344 0 179.402344"></polygon>
                    <polygon id="Triangle-Copy-5" transform="translate(5.000000, 218.902344) scale(1, -1) translate(-5.000000, -218.902344) " points="5 215.402344 10 222.402344 0 222.402344"></polygon>
                    <polygon id="Triangle-Copy-6" transform="translate(5.000000, 261.902344) scale(1, -1) translate(-5.000000, -261.902344) " points="5 258.402344 10 265.402344 0 265.402344"></polygon>
                </g>
                <g id="lines" fill="#F2F2F2" fill-rule="nonzero">
                    <g id="Group" transform="translate(0.833333, 0.500000)">
                        <path d="M3,0 L3,2 L6,2 L6,0 L3,0 Z M7,0 L7,2 L10,2 L10,0 L7,0 Z M11,0 L11,2 L14,2 L14,0 L11,0 Z M15,0 L15,2 L18,2 L18,0 L15,0 Z M19,0 L19,2 L22,2 L22,0 L19,0 Z M23,0 L23,2 L26,2 L26,0 L23,0 Z M27,0 L27,2 L30,2 L30,0 L27,0 Z M31,0 L31,2 L34,2 L34,0 L31,0 Z M35,0 L35,2 L38,2 L38,0 L35,0 Z M39,0 L39,2 L42,2 L42,0 L39,0 Z M43,0 L43,2 L46,2 L46,0 L43,0 Z M47,0 L47,2 L50,2 L50,0 L47,0 Z M51,0 L51,2 L54,2 L54,0 L51,0 Z M55,0 L55,2 L58,2 L58,0 L55,0 Z M59,0 L59,2 L62,2 L62,0 L59,0 Z M63,0 L63,2 L66,2 L66,0 L63,0 Z M67,0 L67,2 L70,2 L70,0 L67,0 Z M71,0 L71,2 L74,2 L74,0 L71,0 Z M75,0 L75,2 L78,2 L78,0 L75,0 Z" id="Line-2-Copy-15"></path>
                        <path d="M-2.84217094e-14,43.5 L-2.84217094e-14,45.5 L3,45.5 L3,43.5 L-2.84217094e-14,43.5 Z M4,43.5 L4,45.5 L7,45.5 L7,43.5 L4,43.5 Z M8,43.5 L8,45.5 L11,45.5 L11,43.5 L8,43.5 Z M12,43.5 L12,45.5 L15,45.5 L15,43.5 L12,43.5 Z M16,43.5 L16,45.5 L19,45.5 L19,43.5 L16,43.5 Z M20,43.5 L20,45.5 L23,45.5 L23,43.5 L20,43.5 Z M24,43.5 L24,45.5 L27,45.5 L27,43.5 L24,43.5 Z M28,43.5 L28,45.5 L31,45.5 L31,43.5 L28,43.5 Z M32,43.5 L32,45.5 L35,45.5 L35,43.5 L32,43.5 Z M36,43.5 L36,45.5 L39,45.5 L39,43.5 L36,43.5 Z M40,43.5 L40,45.5 L43,45.5 L43,43.5 L40,43.5 Z M44,43.5 L44,45.5 L47,45.5 L47,43.5 L44,43.5 Z M48,43.5 L48,45.5 L51,45.5 L51,43.5 L48,43.5 Z M52,43.5 L52,45.5 L55,45.5 L55,43.5 L52,43.5 Z M56,43.5 L56,45.5 L59,45.5 L59,43.5 L56,43.5 Z M60,43.5 L60,45.5 L63,45.5 L63,43.5 L60,43.5 Z M64,43.5 L64,45.5 L67,45.5 L67,43.5 L64,43.5 Z M68,43.5 L68,45.5 L71,45.5 L71,43.5 L68,43.5 Z M72,43.5 L72,45.5 L75,45.5 L75,43.5 L72,43.5 Z" id="Line-2-Copy-14"></path>
                        <path d="M-2.84217094e-14,86.5 L-2.84217094e-14,88.5 L3,88.5 L3,86.5 L-2.84217094e-14,86.5 Z M4,86.5 L4,88.5 L7,88.5 L7,86.5 L4,86.5 Z M8,86.5 L8,88.5 L11,88.5 L11,86.5 L8,86.5 Z M12,86.5 L12,88.5 L15,88.5 L15,86.5 L12,86.5 Z M16,86.5 L16,88.5 L19,88.5 L19,86.5 L16,86.5 Z M20,86.5 L20,88.5 L23,88.5 L23,86.5 L20,86.5 Z M24,86.5 L24,88.5 L27,88.5 L27,86.5 L24,86.5 Z M28,86.5 L28,88.5 L31,88.5 L31,86.5 L28,86.5 Z M32,86.5 L32,88.5 L35,88.5 L35,86.5 L32,86.5 Z M36,86.5 L36,88.5 L39,88.5 L39,86.5 L36,86.5 Z M40,86.5 L40,88.5 L43,88.5 L43,86.5 L40,86.5 Z M44,86.5 L44,88.5 L47,88.5 L47,86.5 L44,86.5 Z M48,86.5 L48,88.5 L51,88.5 L51,86.5 L48,86.5 Z M52,86.5 L52,88.5 L55,88.5 L55,86.5 L52,86.5 Z M56,86.5 L56,88.5 L59,88.5 L59,86.5 L56,86.5 Z M60,86.5 L60,88.5 L63,88.5 L63,86.5 L60,86.5 Z M64,86.5 L64,88.5 L67,88.5 L67,86.5 L64,86.5 Z M68,86.5 L68,88.5 L71,88.5 L71,86.5 L68,86.5 Z M72,86.5 L72,88.5 L75,88.5 L75,86.5 L72,86.5 Z" id="Line-2-Copy-13"></path>
                        <path d="M-2.84217094e-14,129.5 L-2.84217094e-14,131.5 L3,131.5 L3,129.5 L-2.84217094e-14,129.5 Z M4,129.5 L4,131.5 L7,131.5 L7,129.5 L4,129.5 Z M8,129.5 L8,131.5 L11,131.5 L11,129.5 L8,129.5 Z M12,129.5 L12,131.5 L15,131.5 L15,129.5 L12,129.5 Z M16,129.5 L16,131.5 L19,131.5 L19,129.5 L16,129.5 Z M20,129.5 L20,131.5 L23,131.5 L23,129.5 L20,129.5 Z M24,129.5 L24,131.5 L27,131.5 L27,129.5 L24,129.5 Z M28,129.5 L28,131.5 L31,131.5 L31,129.5 L28,129.5 Z M32,129.5 L32,131.5 L35,131.5 L35,129.5 L32,129.5 Z M36,129.5 L36,131.5 L39,131.5 L39,129.5 L36,129.5 Z M40,129.5 L40,131.5 L43,131.5 L43,129.5 L40,129.5 Z M44,129.5 L44,131.5 L47,131.5 L47,129.5 L44,129.5 Z M48,129.5 L48,131.5 L51,131.5 L51,129.5 L48,129.5 Z M52,129.5 L52,131.5 L55,131.5 L55,129.5 L52,129.5 Z M56,129.5 L56,131.5 L59,131.5 L59,129.5 L56,129.5 Z M60,129.5 L60,131.5 L63,131.5 L63,129.5 L60,129.5 Z M64,129.5 L64,131.5 L67,131.5 L67,129.5 L64,129.5 Z M68,129.5 L68,131.5 L71,131.5 L71,129.5 L68,129.5 Z M72,129.5 L72,131.5 L75,131.5 L75,129.5 L72,129.5 Z" id="Line-2-Copy-12"></path>
                        <path d="M-2.84217094e-14,172.5 L-2.84217094e-14,174.5 L3,174.5 L3,172.5 L-2.84217094e-14,172.5 Z M4,172.5 L4,174.5 L7,174.5 L7,172.5 L4,172.5 Z M8,172.5 L8,174.5 L11,174.5 L11,172.5 L8,172.5 Z M12,172.5 L12,174.5 L15,174.5 L15,172.5 L12,172.5 Z M16,172.5 L16,174.5 L19,174.5 L19,172.5 L16,172.5 Z M20,172.5 L20,174.5 L23,174.5 L23,172.5 L20,172.5 Z M24,172.5 L24,174.5 L27,174.5 L27,172.5 L24,172.5 Z M28,172.5 L28,174.5 L31,174.5 L31,172.5 L28,172.5 Z M32,172.5 L32,174.5 L35,174.5 L35,172.5 L32,172.5 Z M36,172.5 L36,174.5 L39,174.5 L39,172.5 L36,172.5 Z M40,172.5 L40,174.5 L43,174.5 L43,172.5 L40,172.5 Z M44,172.5 L44,174.5 L47,174.5 L47,172.5 L44,172.5 Z M48,172.5 L48,174.5 L51,174.5 L51,172.5 L48,172.5 Z M52,172.5 L52,174.5 L55,174.5 L55,172.5 L52,172.5 Z M56,172.5 L56,174.5 L59,174.5 L59,172.5 L56,172.5 Z M60,172.5 L60,174.5 L63,174.5 L63,172.5 L60,172.5 Z M64,172.5 L64,174.5 L67,174.5 L67,172.5 L64,172.5 Z M68,172.5 L68,174.5 L71,174.5 L71,172.5 L68,172.5 Z M72,172.5 L72,174.5 L75,174.5 L75,172.5 L72,172.5 Z" id="Line-2-Copy-11"></path>
                        <path d="M-2.84217094e-14,216.5 L-2.84217094e-14,218.5 L3,218.5 L3,216.5 L-2.84217094e-14,216.5 Z M4,216.5 L4,218.5 L7,218.5 L7,216.5 L4,216.5 Z M8,216.5 L8,218.5 L11,218.5 L11,216.5 L8,216.5 Z M12,216.5 L12,218.5 L15,218.5 L15,216.5 L12,216.5 Z M16,216.5 L16,218.5 L19,218.5 L19,216.5 L16,216.5 Z M20,216.5 L20,218.5 L23,218.5 L23,216.5 L20,216.5 Z M24,216.5 L24,218.5 L27,218.5 L27,216.5 L24,216.5 Z M28,216.5 L28,218.5 L31,218.5 L31,216.5 L28,216.5 Z M32,216.5 L32,218.5 L35,218.5 L35,216.5 L32,216.5 Z M36,216.5 L36,218.5 L39,218.5 L39,216.5 L36,216.5 Z M40,216.5 L40,218.5 L43,218.5 L43,216.5 L40,216.5 Z M44,216.5 L44,218.5 L47,218.5 L47,216.5 L44,216.5 Z M48,216.5 L48,218.5 L51,218.5 L51,216.5 L48,216.5 Z M52,216.5 L52,218.5 L55,218.5 L55,216.5 L52,216.5 Z M56,216.5 L56,218.5 L59,218.5 L59,216.5 L56,216.5 Z M60,216.5 L60,218.5 L63,218.5 L63,216.5 L60,216.5 Z M64,216.5 L64,218.5 L67,218.5 L67,216.5 L64,216.5 Z M68,216.5 L68,218.5 L71,218.5 L71,216.5 L68,216.5 Z M72,216.5 L72,218.5 L75,218.5 L75,216.5 L72,216.5 Z" id="Line-2-Copy-10"></path>
                        <path d="M-2.84217094e-14,258.5 L-2.84217094e-14,260.5 L3,260.5 L3,258.5 L-2.84217094e-14,258.5 Z M4,258.5 L4,260.5 L7,260.5 L7,258.5 L4,258.5 Z M8,258.5 L8,260.5 L11,260.5 L11,258.5 L8,258.5 Z M12,258.5 L12,260.5 L15,260.5 L15,258.5 L12,258.5 Z M16,258.5 L16,260.5 L19,260.5 L19,258.5 L16,258.5 Z M20,258.5 L20,260.5 L23,260.5 L23,258.5 L20,258.5 Z M24,258.5 L24,260.5 L27,260.5 L27,258.5 L24,258.5 Z M28,258.5 L28,260.5 L31,260.5 L31,258.5 L28,258.5 Z M32,258.5 L32,260.5 L35,260.5 L35,258.5 L32,258.5 Z M36,258.5 L36,260.5 L39,260.5 L39,258.5 L36,258.5 Z M40,258.5 L40,260.5 L43,260.5 L43,258.5 L40,258.5 Z M44,258.5 L44,260.5 L47,260.5 L47,258.5 L44,258.5 Z M48,258.5 L48,260.5 L51,260.5 L51,258.5 L48,258.5 Z M52,258.5 L52,260.5 L55,260.5 L55,258.5 L52,258.5 Z M56,258.5 L56,260.5 L59,260.5 L59,258.5 L56,258.5 Z M60,258.5 L60,260.5 L63,260.5 L63,258.5 L60,258.5 Z M64,258.5 L64,260.5 L67,260.5 L67,258.5 L64,258.5 Z M68,258.5 L68,260.5 L71,260.5 L71,258.5 L68,258.5 Z M72,258.5 L72,260.5 L75,260.5 L75,258.5 L72,258.5 Z" id="Line-2-Copy-9"></path>
                        <path d="M-2.84217094e-14,301.5 L-2.84217094e-14,303.5 L3,303.5 L3,301.5 L-2.84217094e-14,301.5 Z M4,301.5 L4,303.5 L7,303.5 L7,301.5 L4,301.5 Z M8,301.5 L8,303.5 L11,303.5 L11,301.5 L8,301.5 Z M12,301.5 L12,303.5 L15,303.5 L15,301.5 L12,301.5 Z M16,301.5 L16,303.5 L19,303.5 L19,301.5 L16,301.5 Z M20,301.5 L20,303.5 L23,303.5 L23,301.5 L20,301.5 Z M24,301.5 L24,303.5 L27,303.5 L27,301.5 L24,301.5 Z M28,301.5 L28,303.5 L31,303.5 L31,301.5 L28,301.5 Z M32,301.5 L32,303.5 L35,303.5 L35,301.5 L32,301.5 Z M36,301.5 L36,303.5 L39,303.5 L39,301.5 L36,301.5 Z M40,301.5 L40,303.5 L43,303.5 L43,301.5 L40,301.5 Z M44,301.5 L44,303.5 L47,303.5 L47,301.5 L44,301.5 Z M48,301.5 L48,303.5 L51,303.5 L51,301.5 L48,301.5 Z M52,301.5 L52,303.5 L55,303.5 L55,301.5 L52,301.5 Z M56,301.5 L56,303.5 L59,303.5 L59,301.5 L56,301.5 Z M60,301.5 L60,303.5 L63,303.5 L63,301.5 L60,301.5 Z M64,301.5 L64,303.5 L67,303.5 L67,301.5 L64,301.5 Z M68,301.5 L68,303.5 L71,303.5 L71,301.5 L68,301.5 Z M72,301.5 L72,303.5 L75,303.5 L75,301.5 L72,301.5 Z" id="Line-2-Copy-8"></path>
                    </g>
                </g>
            </g>
        </g>
        <g id="OUT" transform="translate(6.000000, 301.000000)">
            <g id="OUT-R" transform="translate(44.000000, 0.000000)" fill="#FF5050">
                <circle id="Oval" cx="15.5" cy="33.5" r="15"></circle>
                <path d="M7.97460938,12.2324219 L7.97460938,12.0859375 L9.18164062,5.359375 C9.22070332,5.14062391 9.32812412,4.9589851 9.50390625,4.81445312 C9.67968838,4.66992115 9.87695203,4.59765625 10.0957031,4.59765625 L11.5195312,4.59765625 C11.7226573,4.59765625 11.8964837,4.67187426 12.0410156,4.8203125 C12.1894539,4.96875074 12.2636719,5.15038955 12.2636719,5.36523438 C12.2636719,5.40169289 12.2619358,5.43294276 12.2584636,5.45898437 L11.0449219,12.2324219 C11.0058592,12.451173 10.8964853,12.6347649 10.7167969,12.7832031 C10.5410147,12.9277351 10.341798,13 10.1191406,13 L8.71875,13 C8.51171771,13 8.33593822,12.925782 8.19140625,12.7773438 C8.04687428,12.6249992 7.97460938,12.4433604 7.97460938,12.2324219 Z M9.00585938,11.7695312 L9.00585938,11.7988281 C9.00585938,11.8652347 9.02929664,11.9238279 9.07617188,11.9746094 C9.12304711,12.0253909 9.18164027,12.0507812 9.25195312,12.0507812 L9.79101562,12.0507812 C9.99414164,12.0507812 10.1132811,11.953126 10.1484375,11.7578125 L11.2207031,5.82226562 L11.2207031,5.78710938 C11.2207031,5.71679652 11.1972659,5.65820336 11.1503906,5.61132812 C11.1035154,5.56835916 11.0449222,5.546875 10.9746094,5.546875 L10.4296875,5.546875 C10.3476558,5.546875 10.2714847,5.57421848 10.2011719,5.62890625 C10.1347653,5.67968775 10.0937501,5.74414023 10.078125,5.82226562 L9.00585938,11.7695312 Z M13.0957031,4.59765625 L14.0683594,4.59765625 L12.7792969,11.78125 L12.7792969,11.8105469 C12.7792969,11.8769535 12.800781,11.9355466 12.84375,11.9863281 C12.8945315,12.0371096 12.9531247,12.0625 13.0195312,12.0625 L13.5585938,12.0625 C13.7617198,12.0625 13.8808592,11.9648447 13.9160156,11.7695312 L15.2167969,4.59765625 L16.2128906,4.59765625 L14.8125,12.2441406 C14.7734373,12.4589854 14.6660165,12.6386712 14.4902344,12.7832031 C14.3144522,12.9277351 14.1132824,13 13.8867188,13 L12.4746094,13 C12.2753896,13 12.1035163,12.925782 11.9589844,12.7773438 C11.8144524,12.6289055 11.7421875,12.4511729 11.7421875,12.2441406 L11.7421875,12.0976562 L13.0957031,4.59765625 Z M15.890625,13 L17.25,5.546875 L16.5292969,5.546875 L16.6992188,4.59765625 L19.1425781,4.59765625 L18.9609375,5.546875 L18.2636719,5.546875 L16.9160156,13 L15.890625,13 Z M25.8925781,4.59765625 C26.0957041,4.59765625 26.2714836,4.67187426 26.4199219,4.8203125 C26.5683601,4.96484447 26.6464843,5.14257707 26.6542969,5.35351562 L26.1621094,8.14257812 C26.0957034,8.50976423 25.8789119,8.744136 25.5117284,8.84570045 C25.6500578,8.89789451 25.7525035,8.98733721 25.8222656,9.11523438 C25.8769534,9.21679738 25.9042969,9.3300775 25.9042969,9.45507812 L25.8925781,9.67773438 L25.2832031,13 L24.2519531,13 L24.8671875,9.56054688 L24.8671875,9.53125 C24.8671875,9.46484342 24.8437502,9.40820336 24.796875,9.36132812 C24.7499998,9.31445289 24.6933597,9.29101562 24.6269531,9.29101562 L23.8125,9.29101562 L23.15625,13 L22.1308594,13 L23.6367188,4.59765625 L25.8925781,4.59765625 Z M21.9902344,9.11523438 L21.7617188,10.1992188 L18.8203125,10.1992188 L19.0488281,9.11523438 L21.9902344,9.11523438 Z M25.3007812,5.546875 L24.4921875,5.546875 L23.9941406,8.2890625 L24.8085938,8.2890625 C24.8945317,8.2890625 24.9707028,8.25976592 25.0371094,8.20117188 C25.0787763,8.16471336 25.1100261,8.12217888 25.1308594,8.07356783 L25.1542969,7.99609375 L25.5527344,5.82226562 L25.5527344,5.78710938 C25.5527344,5.71679652 25.5292971,5.65820336 25.4824219,5.61132812 C25.4316404,5.56835916 25.3710941,5.546875 25.3007812,5.546875 Z" fill-rule="nonzero"></path>
            </g>
            <g id="OUT-L" fill="#343633">
                <circle id="Oval-Copy" cx="15.5" cy="33.5" r="15"></circle>
                <path d="M8.41113281,12.2324219 L8.41113281,12.0859375 L9.61816406,5.359375 C9.65722676,5.14062391 9.76464756,4.9589851 9.94042969,4.81445312 C10.1162118,4.66992115 10.3134755,4.59765625 10.5322266,4.59765625 L11.9560547,4.59765625 C12.1591807,4.59765625 12.3330071,4.67187426 12.4775391,4.8203125 C12.6259773,4.96875074 12.7001953,5.15038955 12.7001953,5.36523438 L12.694987,5.45898437 L12.694987,5.45898437 L11.4814453,12.2324219 C11.4423826,12.451173 11.3330087,12.6347649 11.1533203,12.7832031 C10.9775382,12.9277351 10.7783214,13 10.5556641,13 L9.15527344,13 C8.94824115,13 8.77246166,12.925782 8.62792969,12.7773438 C8.48339771,12.6249992 8.41113281,12.4433604 8.41113281,12.2324219 Z M9.44238281,11.7695312 L9.44238281,11.7988281 C9.44238281,11.8652347 9.46582008,11.9238279 9.51269531,11.9746094 C9.55957055,12.0253909 9.61816371,12.0507812 9.68847656,12.0507812 L10.2275391,12.0507812 C10.4306651,12.0507812 10.5498045,11.953126 10.5849609,11.7578125 L11.6572266,5.82226562 L11.6572266,5.78710938 C11.6572266,5.71679652 11.6337893,5.65820336 11.5869141,5.61132812 C11.5400388,5.56835916 11.4814457,5.546875 11.4111328,5.546875 L10.8662109,5.546875 C10.7841793,5.546875 10.7080082,5.57421848 10.6376953,5.62890625 C10.5712887,5.67968775 10.5302735,5.74414023 10.5146484,5.82226562 L9.44238281,11.7695312 Z M13.5322266,4.59765625 L14.5048828,4.59765625 L13.2158203,11.78125 L13.2158203,11.8105469 C13.2158203,11.8769535 13.2373045,11.9355466 13.2802734,11.9863281 C13.3310549,12.0371096 13.3896481,12.0625 13.4560547,12.0625 L13.9951172,12.0625 C14.1982432,12.0625 14.3173826,11.9648447 14.3525391,11.7695312 L15.6533203,4.59765625 L16.6494141,4.59765625 L15.2490234,12.2441406 C15.2099607,12.4589854 15.1025399,12.6386712 14.9267578,12.7832031 C14.7509757,12.9277351 14.5498058,13 14.3232422,13 L12.9111328,13 C12.7119131,13 12.5400398,12.925782 12.3955078,12.7773438 C12.2509758,12.6289055 12.1787109,12.4511729 12.1787109,12.2441406 L12.1787109,12.0976562 L13.5322266,4.59765625 Z M16.3271484,13 L17.6865234,5.546875 L16.9658203,5.546875 L17.1357422,4.59765625 L19.5791016,4.59765625 L19.3974609,5.546875 L18.7001953,5.546875 L17.3525391,13 L16.3271484,13 Z M19.4853516,9.11523438 L22.4267578,9.11523438 L22.1982422,10.1992188 L19.2568359,10.1992188 L19.4853516,9.11523438 Z M23.7685547,12.0625 L25.0107422,12.0625 L24.8408203,13 L22.5615234,13 L24.0849609,4.59765625 L25.1044922,4.59765625 L23.7685547,12.0625 Z" fill-rule="nonzero"></path>
            </g>
        </g>
        <g id="IN" transform="translate(6.000000, 224.000000)">
            <g id="IN-R" transform="translate(44.000000, 0.000000)" fill="#FF5050" fill-rule="nonzero">
                <path d="M17.5,28.5 L15.5,28.5 L15.5,31.5 L17.5,31.5 L17.5,28.5 Z M17.5,32.5 L15.5,32.5 L15.5,35.5 L17.5,35.5 L17.5,32.5 Z M17.5,36.5 L15.5,36.5 L15.5,39.5 L17.5,39.5 L17.5,36.5 Z M17.5,40.5 L15.5,40.5 L15.5,43.5 L17.5,43.5 L17.5,40.5 Z M17.5,44.5 L15.5,44.5 L15.5,47.5 L17.5,47.5 L17.5,44.5 Z M17.5,48.5 L15.5,48.5 L15.5,51.5 L17.5,51.5 L17.5,48.5 Z M17.5,52.5 L15.5,52.5 L15.5,55.5 L17.5,55.5 L17.5,52.5 Z M17.5,56.5 L15.5,56.5 L15.5,59.5 L17.5,59.5 L17.5,56.5 Z M17.5,60.5 L15.5,60.5 L15.5,63.5 L17.5,63.5 L17.5,60.5 Z" id="Line-Copy-7"></path>
                <path d="M11.0771484,13 L10.0634766,13 L11.5927734,4.59765625 L12.6005859,4.59765625 L11.0771484,13 Z M11.7802734,13 L13.3037109,4.59765625 L14.3173828,4.59765625 L14.4386365,5.8421202 C14.6624892,8.22174909 14.7744141,9.94558618 14.7744141,11.0136719 L14.7897135,10.716674 C14.8661022,9.54845971 15.1656875,7.50880362 15.6884766,4.59765625 L16.7021484,4.59765625 L15.1787109,13 L14.1650391,13 L14.0158908,11.445372 C13.8145409,9.25202545 13.7138672,7.68235558 13.7138672,6.73632812 L13.6993922,6.99031633 C13.6243549,8.04630486 13.3244948,10.0495165 12.7998047,13 L11.7802734,13 Z M23.6455078,4.59765625 C23.8486338,4.59765625 24.0244133,4.67187426 24.1728516,4.8203125 C24.3212898,4.96484447 24.399414,5.14257707 24.4072266,5.35351562 L23.9150391,8.14257812 C23.8486331,8.50976423 23.6318416,8.744136 23.2646581,8.84570045 C23.4029875,8.89789451 23.5054332,8.98733721 23.5751953,9.11523438 C23.6298831,9.21679738 23.6572266,9.3300775 23.6572266,9.45507812 L23.6455078,9.67773438 L23.0361328,13 L22.0048828,13 L22.6201172,9.56054688 L22.6201172,9.53125 C22.6201172,9.46484342 22.5966799,9.40820336 22.5498047,9.36132812 C22.5029295,9.31445289 22.4462894,9.29101562 22.3798828,9.29101562 L21.5654297,9.29101562 L20.9091797,13 L19.8837891,13 L21.3896484,4.59765625 L23.6455078,4.59765625 Z M19.7431641,9.11523438 L19.5146484,10.1992188 L16.5732422,10.1992188 L16.8017578,9.11523438 L19.7431641,9.11523438 Z M23.0537109,5.546875 L22.2451172,5.546875 L21.7470703,8.2890625 L22.5615234,8.2890625 C22.6474614,8.2890625 22.7236325,8.25976592 22.7900391,8.20117188 C22.8317059,8.16471336 22.8629558,8.12217888 22.8837891,8.07356783 L22.9072266,7.99609375 L23.3056641,5.82226562 L23.3056641,5.78710938 C23.3056641,5.71679652 23.2822268,5.65820336 23.2353516,5.61132812 C23.1845701,5.56835916 23.1240238,5.546875 23.0537109,5.546875 Z"></path>
            </g>
            <polygon id="Triangle-Copy-6" fill="#000000" transform="translate(39.000000, 29.000000) scale(1, -1) rotate(-270.000000) translate(-39.000000, -29.000000) " points="39 25.5 44 32.5 34 32.5"></polygon>
            <g id="IN-L" fill="#343633" fill-rule="nonzero">
                <path d="M17.5,28.5 L15.5,28.5 L15.5,31.5 L17.5,31.5 L17.5,28.5 Z M17.5,32.5 L15.5,32.5 L15.5,35.5 L17.5,35.5 L17.5,32.5 Z M17.5,36.5 L15.5,36.5 L15.5,39.5 L17.5,39.5 L17.5,36.5 Z M17.5,40.5 L15.5,40.5 L15.5,43.5 L17.5,43.5 L17.5,40.5 Z M17.5,44.5 L15.5,44.5 L15.5,47.5 L17.5,47.5 L17.5,44.5 Z M17.5,48.5 L15.5,48.5 L15.5,51.5 L17.5,51.5 L17.5,48.5 Z M17.5,52.5 L15.5,52.5 L15.5,55.5 L17.5,55.5 L17.5,52.5 Z M17.5,56.5 L15.5,56.5 L15.5,59.5 L17.5,59.5 L17.5,56.5 Z M17.5,60.5 L15.5,60.5 L15.5,63.5 L17.5,63.5 L17.5,60.5 Z" id="Line-Copy-5"></path>
                <path d="M11.5136719,13 L10.5,13 L12.0292969,4.59765625 L13.0371094,4.59765625 L11.5136719,13 Z M12.2167969,13 L13.7402344,4.59765625 L14.7539062,4.59765625 L14.8751599,5.8421202 C15.0990126,8.22174909 15.2109375,9.94558618 15.2109375,11.0136719 L15.226237,10.716674 C15.3026256,9.54845971 15.6022109,7.50880362 16.125,4.59765625 L17.1386719,4.59765625 L15.6152344,13 L14.6015625,13 L14.4869047,11.8167046 C14.262561,9.42835803 14.1503906,7.73491266 14.1503906,6.73632812 L14.1359156,6.99031633 C14.0608784,8.04630486 13.7610182,10.0495165 13.2363281,13 L12.2167969,13 Z M17.2382812,9.11523438 L20.1796875,9.11523438 L19.9511719,10.1992188 L17.0097656,10.1992188 L17.2382812,9.11523438 Z M21.5214844,12.0625 L22.7636719,12.0625 L22.59375,13 L20.3144531,13 L21.8378906,4.59765625 L22.8574219,4.59765625 L21.5214844,12.0625 Z"></path>
            </g>
        </g>
        <g id="MIX" transform="translate(5.000000, 139.000000)">
            <g id="MIX-R" transform="translate(43.000000, 0.000000)" fill="#FF5050" fill-rule="nonzero">
                <path d="M19,30 L17,30 L17,33 L19,33 L19,30 Z M19,34 L17,34 L17,37 L19,37 L19,34 Z M19,38 L17,38 L17,41 L19,41 L19,38 Z M19,42 L17,42 L17,45 L19,45 L19,42 Z M19,46 L17,46 L17,49 L19,49 L19,46 Z M19,50 L17,50 L17,53 L19,53 L19,50 Z M19,54 L17,54 L17,57 L19,57 L19,54 Z M19,58 L17,58 L17,61 L19,61 L19,58 Z M19,62 L17,62 L17,65 L19,65 L19,62 Z M19,66 L17,66 L17,69 L19,69 L19,66 Z M19,70 L17,70 L17,73 L19,73 L19,70 Z" id="Line"></path>
                <path d="M9.10253906,4.59765625 L10.3095703,4.59765625 L10.2451172,10.6503906 L12.2724609,4.59765625 L13.6669922,4.59765625 L12.1435547,13 L11.1298828,13 L12.0615234,7.75585938 L10.2919922,13 L9.43652344,13 L9.50097656,7.69140625 L8.58691406,13 L7.57324219,13 L9.10253906,4.59765625 Z M13.8603516,13 L12.8466797,13 L14.3759766,4.59765625 L15.3837891,4.59765625 L13.8603516,13 Z M16.3974609,8.74609375 L16.0341797,4.59765625 L17.0419922,4.59765625 L17.2470703,6.90039062 L18.3017578,4.59765625 L19.3095703,4.59765625 L17.4111328,8.74609375 L17.7861328,13 L16.7724609,13 L16.5615234,10.5976562 L15.4599609,13 L14.4462891,13 L16.3974609,8.74609375 Z M26.1357422,4.59765625 C26.3388682,4.59765625 26.5146477,4.67187426 26.6630859,4.8203125 C26.8115242,4.96484447 26.8896484,5.14257707 26.8974609,5.35351562 L26.8740234,5.49414062 L26.4052734,8.14257812 C26.3388674,8.50976423 26.122076,8.744136 25.7548925,8.84570045 C25.8932219,8.89789451 25.9956676,8.98733721 26.0654297,9.11523438 C26.1201175,9.21679738 26.1474609,9.3300775 26.1474609,9.45507812 L26.1357422,9.67773438 L25.5263672,13 L24.4951172,13 L25.1103516,9.56054688 L25.1103516,9.53125 C25.1103516,9.46484342 25.0869143,9.40820336 25.0400391,9.36132812 C24.9931638,9.31445289 24.9365238,9.29101562 24.8701172,9.29101562 L24.0556641,9.29101562 L23.3994141,13 L22.3740234,13 L23.8798828,4.59765625 L26.1357422,4.59765625 Z M22.2333984,9.11523438 L22.0048828,10.1992188 L19.0634766,10.1992188 L19.2919922,9.11523438 L22.2333984,9.11523438 Z M25.5439453,5.546875 L24.7353516,5.546875 L24.2373047,8.2890625 L25.0517578,8.2890625 C25.1376957,8.2890625 25.2138669,8.25976592 25.2802734,8.20117188 C25.3219403,8.16471336 25.3531902,8.12217888 25.3740235,8.07356783 L25.3974609,7.99609375 L25.7958984,5.82226562 L25.7958984,5.78710938 C25.7958984,5.71679652 25.7724612,5.65820336 25.7255859,5.61132812 C25.6748044,5.56835916 25.6142582,5.546875 25.5439453,5.546875 Z"></path>
            </g>
            <polygon id="Triangle-Copy-7" fill="#000000" transform="translate(40.000000, 71.500000) scale(1, -1) rotate(-270.000000) translate(-40.000000, -71.500000) " points="40 68 45 75 35 75"></polygon>
            <g id="MIX-L" fill="#343633" fill-rule="nonzero">
                <path d="M18,28.5 L16,28.5 L16,31.5 L18,31.5 L18,28.5 Z M18,32.5 L16,32.5 L16,35.5 L18,35.5 L18,32.5 Z M18,36.5 L16,36.5 L16,39.5 L18,39.5 L18,36.5 Z M18,40.5 L16,40.5 L16,43.5 L18,43.5 L18,40.5 Z M18,44.5 L16,44.5 L16,47.5 L18,47.5 L18,44.5 Z M18,48.5 L16,48.5 L16,51.5 L18,51.5 L18,48.5 Z M18,52.5 L16,52.5 L16,55.5 L18,55.5 L18,52.5 Z M18,56.5 L16,56.5 L16,59.5 L18,59.5 L18,56.5 Z M18,60.5 L16,60.5 L16,63.5 L18,63.5 L18,60.5 Z M18,64.5 L16,64.5 L16,67.5 L18,67.5 L18,64.5 Z M18,68.5 L16,68.5 L16,71.5 L18,71.5 L18,68.5 Z" id="Line-Copy"></path>
                <path d="M9.5390625,4.59765625 L10.7460938,4.59765625 L10.6816406,10.6503906 L12.7089844,4.59765625 L14.1035156,4.59765625 L12.5800781,13 L11.5664062,13 L12.4980469,7.75585938 L10.7285156,13 L9.87304688,13 L9.9375,7.69140625 L9.0234375,13 L8.00976562,13 L9.5390625,4.59765625 Z M14.296875,13 L13.2832031,13 L14.8125,4.59765625 L15.8203125,4.59765625 L14.296875,13 Z M16.8339844,8.74609375 L16.4707031,4.59765625 L17.4785156,4.59765625 L17.6835938,6.90039062 L18.7382812,4.59765625 L19.7460938,4.59765625 L17.8476562,8.74609375 L18.2226562,13 L17.2089844,13 L16.9980469,10.5976562 L15.8964844,13 L14.8828125,13 L16.8339844,8.74609375 Z M19.7285156,9.11523438 L22.6699219,9.11523438 L22.4414062,10.1992188 L19.5,10.1992188 L19.7285156,9.11523438 Z M24.0117188,12.0625 L25.2539062,12.0625 L25.0839844,13 L22.8046875,13 L24.328125,4.59765625 L25.3476562,4.59765625 L24.0117188,12.0625 Z"></path>
            </g>
        </g>
        <g id="Delay-Feedback" transform="translate(7.000000, 55.000000)" fill="#307DEE" fill-rule="nonzero">
            <g id="Feedback" transform="translate(38.000000, 0.000000)">
                <path d="M22,29 L20,29 L20,32 L22,32 L22,29 Z M22,33 L20,33 L20,36 L22,36 L22,33 Z M22,37 L20,37 L20,40 L22,40 L22,37 Z M22,41 L20,41 L20,44 L22,44 L22,41 Z M22,45 L20,45 L20,48 L22,48 L22,45 Z M22,49 L20,49 L20,52 L22,52 L22,49 Z M22,53 L20,53 L20,56 L22,56 L22,53 Z M22,57 L20,57 L20,60 L22,60 L22,57 Z M22,61 L20,61 L20,64 L22,64 L22,61 Z M22,65 L20,65 L20,68 L22,68 L22,65 Z M22,69 L20,69 L20,72 L22,72 L22,69 Z" id="Line"></path>
                <path d="M8,13.4023438 L9.5234375,5 L11.8027344,5 L11.6386719,5.94921875 L10.3730469,5.94921875 L9.8984375,8.60351562 L11.1582031,8.60351562 L10.9824219,9.54101562 L9.72851562,9.54101562 L9.03710938,13.4023438 L8,13.4023438 Z M12.5058594,5 L14.7851562,5 L14.6210938,5.9375 L13.3554688,5.9375 L12.8808594,8.60351562 L14.140625,8.60351562 L13.9648438,9.54101562 L12.7109375,9.54101562 L12.1894531,12.4648438 L13.4316406,12.4648438 L13.2617188,13.4023438 L10.9824219,13.4023438 L12.5058594,5 Z M15.4882812,5 L17.7675781,5 L17.6035156,5.9375 L16.3378906,5.9375 L15.8632812,8.60351562 L17.1230469,8.60351562 L16.9472656,9.54101562 L15.6933594,9.54101562 L15.171875,12.4648438 L16.4140625,12.4648438 L16.2441406,13.4023438 L13.9648438,13.4023438 L15.4882812,5 Z M17.0175781,13.4023438 L18.5410156,5 L20.8203125,5 C21.0312511,5 21.2109368,5.07617111 21.359375,5.22851562 C21.5000007,5.3730476 21.5703125,5.53710846 21.5703125,5.72070312 C21.5703125,5.77148463 21.5644532,5.83007779 21.5527344,5.89648438 L20.3398438,12.6347656 C20.3007811,12.8535167 20.1953134,13.0371086 20.0234375,13.1855469 C19.8515616,13.3300788 19.654298,13.4023438 19.4316406,13.4023438 L17.0175781,13.4023438 Z M19.0917969,12.453125 C19.1777348,12.453125 19.2539059,12.4257815 19.3203125,12.3710938 C19.3828128,12.316406 19.4218749,12.2460942 19.4375,12.1601562 L20.5214844,6.22460938 C20.5253906,6.21289057 20.5273438,6.19921883 20.5273438,6.18359375 C20.5273438,6.11718717 20.5039065,6.06054711 20.4570312,6.01367188 C20.410156,5.97070291 20.3515629,5.94921875 20.28125,5.94921875 L19.3730469,5.94921875 L18.1835938,12.453125 L19.0917969,12.453125 Z M24.3007908,9.24804422 C24.4391091,9.30022845 24.5415622,9.38967395 24.6113281,9.51757812 C24.6660159,9.61914113 24.6933594,9.73242125 24.6933594,9.85742188 L24.6816406,10.0800781 L24.6816406,10.0800781 L24.21875,12.6347656 C24.1796873,12.857423 24.0742196,13.0410149 23.9023438,13.1855469 C23.7304679,13.3300788 23.5332042,13.4023438 23.3105469,13.4023438 L20.9785156,13.4023438 L22.5019531,5 L24.7109375,5 C24.9179698,5 25.0957024,5.07617111 25.2441406,5.22851562 C25.3886726,5.3730476 25.4609375,5.53906156 25.4609375,5.7265625 C25.4609375,5.777344 25.4550782,5.83398406 25.4433594,5.89648438 L24.9511719,8.54492188 C24.8808596,8.91210801 24.6640681,9.14647978 24.3007908,9.24804422 Z M22.8417969,8.69140625 L23.65625,8.69140625 C23.7421879,8.69140625 23.818359,8.66210967 23.8847656,8.60351562 C23.9472659,8.54882785 23.986328,8.48046916 24.0019531,8.3984375 L24.4179688,6.22460938 L24.4179688,6.18945312 C24.4179688,6.11914027 24.3945315,6.06054711 24.3476562,6.01367188 C24.300781,5.97070291 24.244141,5.94921875 24.1777344,5.94921875 L23.3398438,5.94921875 L22.8417969,8.69140625 Z M22.1621094,12.453125 L22.9707031,12.453125 C23.0566411,12.453125 23.1328122,12.4257815 23.1992188,12.3710938 C23.2617191,12.3203122 23.3007812,12.2539067 23.3164062,12.171875 L23.7148438,9.96289062 L23.7148438,9.93359375 C23.7148438,9.86718717 23.6914065,9.81054711 23.6445312,9.76367188 C23.597656,9.71679664 23.541016,9.69335938 23.4746094,9.69335938 L22.6601562,9.69335938 L22.1621094,12.453125 Z M24.5820312,13.4023438 L27.3535156,5 L28.3613281,5 L28.0976562,13.4023438 L27.1425781,13.4023438 L27.2128906,12.0195312 L26.0644531,12.0195312 L25.6542969,13.4023438 L24.5820312,13.4023438 Z M27.2597656,11.0703125 L27.4472656,7.34960938 L26.3457031,11.0703125 L27.2597656,11.0703125 Z M28.7539062,12.4882812 L29.9609375,5.76171875 C30.0000002,5.54296766 30.107421,5.36132885 30.2832031,5.21679688 C30.4589853,5.0722649 30.6562489,5 30.875,5 L32.2988281,5 C32.5019541,5 32.6757805,5.07421801 32.8203125,5.22265625 C32.9687507,5.37109449 33.0429688,5.5527333 33.0429688,5.76757812 C33.0429688,5.80403664 33.0412327,5.83528651 33.0377604,5.86132812 L32.65625,7.98828125 L31.6835938,7.98828125 L32,6.22460938 L32,6.18945312 C32,6.11914027 31.9765627,6.06054711 31.9296875,6.01367188 C31.8828123,5.97070291 31.8242191,5.94921875 31.7539062,5.94921875 L31.2089844,5.94921875 C31.1269527,5.94921875 31.0507816,5.97656223 30.9804688,6.03125 C30.9140622,6.0820315 30.873047,6.14648398 30.8574219,6.22460938 L29.7851562,12.171875 L29.7851562,12.2011719 C29.7851562,12.2675785 29.8085935,12.3261716 29.8554688,12.3769531 C29.902344,12.4277346 29.9609371,12.453125 30.03125,12.453125 L30.5703125,12.453125 C30.7734385,12.453125 30.8925779,12.3554697 30.9277344,12.1601562 L31.2441406,10.4023438 L32.2226562,10.4023438 L31.8242188,12.6347656 C31.7851561,12.8535167 31.6757821,13.0371086 31.4960938,13.1855469 C31.3203116,13.3300788 31.1210949,13.4023438 30.8984375,13.4023438 L29.4980469,13.4023438 C29.2910146,13.4023438 29.1152351,13.3281257 28.9707031,13.1796875 C28.8261712,13.027343 28.7539062,12.8457042 28.7539062,12.6347656 L28.7539062,12.4882812 Z M32.3691406,13.4023438 L33.8984375,5 L34.90625,5 L34.25,8.60351562 L36.2246094,5 L37.3203125,5 L34.9882812,9.21289062 L35.7675781,13.4023438 L34.6953125,13.4023438 L34.0800781,9.54101562 L33.3828125,13.4023438 L32.3691406,13.4023438 Z" id="FEEDBACK"></path>
            </g>
            <g id="Delay">
                <path d="M16,29 L14,29 L14,32 L16,32 L16,29 Z M16,33 L14,33 L14,36 L16,36 L16,33 Z M16,37 L14,37 L14,40 L16,40 L16,37 Z M16,41 L14,41 L14,44 L16,44 L16,41 Z M16,45 L14,45 L14,48 L16,48 L16,45 Z M16,49 L14,49 L14,52 L16,52 L16,49 Z M16,53 L14,53 L14,56 L16,56 L16,53 Z M16,57 L14,57 L14,60 L16,60 L16,57 Z M16,61 L14,61 L14,64 L16,64 L16,61 Z M16,65 L14,65 L14,68 L16,68 L16,65 Z M16,69 L14,69 L14,72 L16,72 L16,69 Z" id="Line"></path>
                <path d="M6,13.4023438 L7.5234375,5 L9.80273438,5 C10.0136729,5 10.1933586,5.07617111 10.3417969,5.22851562 C10.4824226,5.3730476 10.5527344,5.53710846 10.5527344,5.72070312 C10.5527344,5.77148463 10.5468751,5.83007779 10.5351562,5.89648438 L9.32226562,12.6347656 C9.28320293,12.8535167 9.17773523,13.0371086 9.00585938,13.1855469 C8.83398352,13.3300788 8.63671986,13.4023438 8.4140625,13.4023438 L6,13.4023438 Z M8.07421875,12.453125 C8.16015668,12.453125 8.23632779,12.4257815 8.30273438,12.3710938 C8.36523469,12.316406 8.4042968,12.2460942 8.41992188,12.1601562 L9.50390625,6.22460938 C9.50781252,6.21289057 9.50976562,6.19921883 9.50976562,6.18359375 C9.50976562,6.11718717 9.48632836,6.06054711 9.43945312,6.01367188 C9.39257789,5.97070291 9.33398473,5.94921875 9.26367188,5.94921875 L8.35546875,5.94921875 L7.16601562,12.453125 L8.07421875,12.453125 Z M11.4785156,5 L13.7578125,5 L13.59375,5.9375 L12.328125,5.9375 L11.8535156,8.60351562 L13.1132812,8.60351562 L12.9375,9.54101562 L11.6835938,9.54101562 L11.1621094,12.4648438 L12.4042969,12.4648438 L12.234375,13.4023438 L9.95507812,13.4023438 L11.4785156,5 Z M14.1445312,12.4648438 L15.3867188,12.4648438 L15.2167969,13.4023438 L12.9375,13.4023438 L14.4609375,5 L15.4804688,5 L14.1445312,12.4648438 Z M15.7148438,13.4023438 L18.4863281,5 L19.4941406,5 L19.2304688,13.4023438 L18.2753906,13.4023438 L18.3457031,12.0195312 L17.1972656,12.0195312 L16.7871094,13.4023438 L15.7148438,13.4023438 Z M18.3925781,11.0703125 L18.5800781,7.34960938 L17.4785156,11.0703125 L18.3925781,11.0703125 Z M21.2636719,10.15625 L21.0234375,5 L22.03125,5 L22.0195312,8.73242188 L23.5253906,5 L24.5917969,5 L22.2773438,10.1386719 L21.6855469,13.4023438 L20.671875,13.4023438 L21.2636719,10.15625 Z" id="DELAY"></path>
            </g>
        </g>
        <path d="M45.8535251,34.8457005 C45.9918435,34.8978847 46.0942966,34.9873302 46.1640625,35.1152344 C46.2187503,35.2167974 46.2460938,35.3300775 46.2460938,35.4550781 L46.234375,35.6777344 L46.234375,35.6777344 L45.7714844,38.2324219 C45.7324217,38.4550792 45.626954,38.6386712 45.4550781,38.7832031 C45.2832023,38.9277351 45.0859386,39 44.8632812,39 L42.53125,39 L44.0546875,30.5976562 L46.2636719,30.5976562 C46.4707042,30.5976562 46.6484368,30.6738274 46.796875,30.8261719 C46.941407,30.9707038 47.0136719,31.1367178 47.0136719,31.3242188 C47.0136719,31.3750003 47.0078126,31.4316403 46.9960938,31.4941406 L46.5039062,34.1425781 C46.433594,34.5097643 46.2168025,34.744136 45.8535251,34.8457005 Z M44.3945312,34.2890625 L45.2089844,34.2890625 C45.2949223,34.2890625 45.3710934,34.2597659 45.4375,34.2011719 C45.5000003,34.1464841 45.5390624,34.0781254 45.5546875,33.9960938 L45.9707031,31.8222656 L45.9707031,31.7871094 C45.9707031,31.7167965 45.9472659,31.6582034 45.9003906,31.6113281 C45.8535154,31.5683592 45.7968753,31.546875 45.7304688,31.546875 L44.8925781,31.546875 L44.3945312,34.2890625 Z M43.7148438,38.0507812 L44.5234375,38.0507812 C44.6093754,38.0507812 44.6855465,38.0234378 44.7519531,37.96875 C44.8144534,37.9179685 44.8535155,37.8515629 44.8691406,37.7695312 L45.2675781,35.5605469 L45.2675781,35.53125 C45.2675781,35.4648434 45.2441409,35.4082034 45.1972656,35.3613281 C45.1503904,35.3144529 45.0937503,35.2910156 45.0273438,35.2910156 L44.2128906,35.2910156 L43.7148438,38.0507812 Z M47.875,35.7539062 L47.6347656,30.5976562 L48.6425781,30.5976562 L48.6308594,34.3300781 L50.1367188,30.5976562 L51.203125,30.5976562 L48.8886719,35.7363281 L48.296875,39 L47.2832031,39 L47.875,35.7539062 Z M51.671875,30.5976562 L53.8808594,30.5976562 C54.0878917,30.5976562 54.2656243,30.6738274 54.4140625,30.8261719 C54.5585945,30.9707038 54.6308594,31.1367178 54.6308594,31.3242188 C54.6308594,31.3750003 54.6250001,31.4316403 54.6132812,31.4941406 L54.0742188,34.4707031 C54.0351561,34.6933605 53.9296884,34.8769524 53.7578125,35.0214844 C53.5859366,35.1660163 53.388673,35.2382812 53.1660156,35.2382812 L51.8476562,35.2382812 L51.1621094,39.0058594 L50.1484375,39.0058594 L51.671875,30.5976562 Z M52.8261719,34.2890625 C52.9121098,34.2890625 52.9882809,34.261719 53.0546875,34.2070312 C53.1171878,34.1562497 53.1562499,34.0898442 53.171875,34.0078125 L53.5878906,31.8222656 L53.5878906,31.7871094 C53.5878906,31.7167965 53.5644534,31.6582034 53.5175781,31.6113281 C53.4707029,31.5683592 53.4140628,31.546875 53.3476562,31.546875 L52.5097656,31.546875 L52,34.2890625 L52.8261719,34.2890625 Z M53.7460938,39 L56.5175781,30.5976562 L57.5253906,30.5976562 L57.2617188,39 L56.3066406,39 L56.3769531,37.6171875 L55.2285156,37.6171875 L54.8183594,39 L53.7460938,39 Z M56.4238281,36.6679688 L56.6113281,32.9472656 L55.5097656,36.6679688 L56.4238281,36.6679688 Z M58.2871094,35.9707031 L59.2597656,35.9707031 L58.9433594,37.7695312 L58.9433594,37.7988281 C58.9433594,37.8652347 58.9667966,37.9238279 59.0136719,37.9746094 C59.0605471,38.0253909 59.1171872,38.0507812 59.1835938,38.0507812 L59.7226562,38.0507812 C59.8085942,38.0507812 59.8867184,38.0234378 59.9570312,37.96875 C60.0312504,37.910156 60.0761718,37.8398442 60.0917969,37.7578125 L60.3027344,36.5742188 C60.3105469,36.5390623 60.3144531,36.5019533 60.3144531,36.4628906 C60.3144531,36.33789 60.2694536,36.1828912 60.1794534,35.997891 L59.078125,33.9316406 L59.078125,33.9316406 C58.9296868,33.6386704 58.8554688,33.3515639 58.8554688,33.0703125 L58.8554688,33.0175781 C58.8554688,32.9511715 58.8613281,32.8828129 58.8730469,32.8125 L59.125,31.359375 C59.1640627,31.1406239 59.2734366,30.9589851 59.453125,30.8144531 C59.6250009,30.6699212 59.8222645,30.5976562 60.0449219,30.5976562 L61.4511719,30.5976562 C61.6542979,30.5976562 61.8300774,30.6718743 61.9785156,30.8203125 C62.1308601,30.9687507 62.2070312,31.1523427 62.2070312,31.3710938 L62.2041016,31.4399414 L62.2041016,31.4399414 L61.8261719,33.5566406 L60.8417969,33.5566406 L61.1523438,31.8222656 C61.1601563,31.8105468 61.1640625,31.794922 61.1640625,31.7753906 C61.1640625,31.7167966 61.1386721,31.6621096 61.0878906,31.6113281 C61.0371091,31.5683592 60.978516,31.546875 60.9121094,31.546875 L60.3730469,31.546875 C60.2871089,31.546875 60.2109378,31.5742185 60.1445312,31.6289062 C60.0781247,31.6796878 60.0371095,31.7441402 60.0214844,31.8222656 L59.8515625,32.7539062 C59.8398437,32.8242191 59.8339844,32.896484 59.8339844,32.9707031 C59.8339844,33.244142 59.9238272,33.5273423 60.1035156,33.8203125 L60.6364684,34.7035698 C60.958902,35.2497429 61.1308593,35.5725093 61.1523438,35.671875 C61.2539068,35.8593759 61.3046875,36.064452 61.3046875,36.2871094 C61.3007812,36.3886724 61.2890626,36.4960932 61.2695312,36.609375 L60.9707031,38.2324219 C60.9316404,38.451173 60.8242196,38.6347649 60.6484375,38.7832031 C60.4726554,38.9277351 60.2714855,39 60.0449219,39 L58.6445312,39 C58.437499,39 58.2636726,38.925782 58.1230469,38.7773438 C57.9863274,38.6289055 57.9179688,38.4472667 57.9179688,38.2324219 L57.9179688,38.0976562 L58.2871094,35.9707031 Z M62.0429688,35.9707031 L63.015625,35.9707031 L62.6992188,37.7695312 L62.6992188,37.7988281 C62.6992188,37.8652347 62.722656,37.9238279 62.7695312,37.9746094 C62.8164065,38.0253909 62.8730465,38.0507812 62.9394531,38.0507812 L63.4785156,38.0507812 C63.5644536,38.0507812 63.6425778,38.0234378 63.7128906,37.96875 C63.7871097,37.910156 63.8320312,37.8398442 63.8476562,37.7578125 L64.0585938,36.5742188 C64.0664063,36.5390623 64.0703125,36.5019533 64.0703125,36.4628906 C64.0703125,36.33789 64.025313,36.1828912 63.9353128,35.997891 L62.8339844,33.9316406 L62.8339844,33.9316406 C62.6855461,33.6386704 62.6113281,33.3515639 62.6113281,33.0703125 L62.6113281,33.0175781 C62.6113281,32.9511715 62.6171874,32.8828129 62.6289062,32.8125 L62.8808594,31.359375 C62.9199221,31.1406239 63.029296,30.9589851 63.2089844,30.8144531 C63.3808602,30.6699212 63.5781239,30.5976562 63.8007812,30.5976562 L65.2070312,30.5976562 C65.4101573,30.5976562 65.5859368,30.6718743 65.734375,30.8203125 C65.8867195,30.9687507 65.9628906,31.1523427 65.9628906,31.3710938 C65.9628906,31.4218753 65.9589844,31.4628905 65.9511719,31.4941406 L65.5820312,33.5566406 L64.5976562,33.5566406 L64.9082031,31.8222656 C64.9160157,31.8105468 64.9199219,31.794922 64.9199219,31.7753906 C64.9199219,31.7167966 64.8945315,31.6621096 64.84375,31.6113281 C64.7929685,31.5683592 64.7343753,31.546875 64.6679688,31.546875 L64.1289062,31.546875 C64.0429683,31.546875 63.9667972,31.5742185 63.9003906,31.6289062 C63.833984,31.6796878 63.7929688,31.7441402 63.7773438,31.8222656 L63.6074219,32.7539062 C63.5957031,32.8242191 63.5898438,32.896484 63.5898438,32.9707031 C63.5898438,33.244142 63.6796866,33.5273423 63.859375,33.8203125 L64.3923278,34.7035698 C64.7147613,35.2497429 64.8867186,35.5725093 64.9082031,35.671875 C65.0097661,35.8593759 65.0605469,36.064452 65.0605469,36.2871094 C65.0566406,36.3886724 65.044922,36.4960932 65.0253906,36.609375 L64.7265625,38.2324219 C64.6874998,38.451173 64.580079,38.6347649 64.4042969,38.7832031 C64.2285147,38.9277351 64.0273449,39 63.8007812,39 L62.4003906,39 C62.1933583,39 62.019532,38.925782 61.8789062,38.7773438 C61.7421868,38.6289055 61.6738281,38.4472667 61.6738281,38.2324219 L61.6738281,38.0976562 L62.0429688,35.9707031 Z" id="BYPASS" fill="#000000" fill-rule="nonzero"></path>
    </g>
</svg>