<?xml version="1.0" encoding="UTF-8"?>
<svg width="180px" height="380px" viewBox="0 0 180 380" version="1.1" xmlns="http://www.w3.org/2000/svg" xmlns:xlink="http://www.w3.org/1999/xlink">
    <!-- Generator: Sketch 58 (84663) - https://sketch.com -->
    <title>SuperADSR</title>
    <desc>Created with Sketch.</desc>
    <g id="SuperADSR" stroke="none" stroke-width="1" fill="none" fill-rule="evenodd">
        <g id="bg">
            <rect fill="#E6E6E6" fill-rule="nonzero" x="0" y="0" width="180" height="380" rx="1"></rect>
            <g id="Logo/Panel/LightMode" transform="translate(58.000000, 364.000000)" fill="#000000" fill-rule="nonzero">
                <g id="Logo/Print/LightMode" transform="translate(0.000000, -0.000000)">
                    <path d="M1.95775432,2.21673387 L3.38562168,2.21673387 L3.38562168,4.9702621 L6.06699634,2.21673387 L7.94254488,2.21673387 L5.09623504,4.9702621 L8.08863032,8.90322581 L6.22250665,8.90322581 L4.0783494,5.98185484 L3.38562168,6.66683468 L3.38562168,8.90322581 L1.95775432,8.90322581 L1.95775432,2.21673387 Z M11.6276679,6.49899194 C11.5428437,6.55040348 11.4572353,6.59198573 11.3708403,6.62373992 C11.2844452,6.65549411 11.1658502,6.6849797 11.0150515,6.71219758 L10.7134558,6.76663306 C10.4307084,6.8150204 10.2280757,6.87399159 10.1055519,6.94354839 C9.89820375,7.06149253 9.79453125,7.24445441 9.79453125,7.49243952 C9.79453125,7.71320675 9.85814847,7.87273136 9.98538481,7.97101815 C10.1126211,8.06930493 10.2673445,8.11844758 10.4495595,8.11844758 C10.7385902,8.11844758 11.00484,8.03679517 11.248317,7.8734879 C11.4917939,7.71018064 11.618243,7.41230055 11.6276679,6.97983871 L11.6276679,6.49899194 Z M10.8124169,5.89566532 C11.0606051,5.86542324 11.2381062,5.82762119 11.3449219,5.78225806 C11.5365618,5.70362864 11.6323803,5.58115003 11.6323803,5.41481855 C11.6323803,5.21219657 11.5593383,5.07232901 11.4132522,4.99521169 C11.267166,4.91809437 11.0527524,4.87953629 10.770005,4.87953629 C10.4526995,4.87953629 10.2280758,4.95514037 10.096127,5.10635081 C10.0018779,5.21824653 9.93904603,5.36945469 9.90762965,5.55997984 L8.61171044,5.55997984 C8.63998518,5.127518 8.76564882,4.77217881 8.98870512,4.49395161 C9.34371022,4.05846556 9.95317886,3.84072581 10.8171293,3.84072581 C11.3794825,3.84072581 11.8789955,3.9480836 12.3156832,4.16280242 C12.7523709,4.37752123 12.9707114,4.78275912 12.9707114,5.37852823 L12.9707114,7.64667339 C12.9707114,7.80393224 12.973853,7.99445453 12.9801363,8.21824597 C12.9895612,8.38760165 13.0162647,8.50251986 13.0602477,8.56300403 C13.1042306,8.62348821 13.170204,8.6733869 13.2581699,8.71270161 L13.2581699,8.90322581 L11.7973155,8.90322581 C11.7564742,8.80342692 11.7281999,8.70967786 11.7124917,8.62197581 C11.6967835,8.53427376 11.6842171,8.43447637 11.6747922,8.32258065 C11.4894356,8.51613 11.2758074,8.6809469 11.0339013,8.81703629 C10.7448706,8.97731935 10.4181451,9.05745968 10.0537151,9.05745968 C9.58875266,9.05745968 9.20469317,8.92968878 8.9015251,8.67414315 C8.59835703,8.41859751 8.44677527,8.05645396 8.44677527,7.58770161 C8.44677527,6.97983567 8.69024856,6.53981991 9.17720246,6.26764113 C9.44424169,6.1194549 9.83694056,6.01360919 10.3553108,5.95010081 L10.8124169,5.89566532 Z M15.5012882,3.95866935 L15.5012882,6.9390121 C15.5012882,7.2202635 15.5358457,7.43195493 15.6049618,7.57409274 C15.7274857,7.82510206 15.9678174,7.95060484 16.3259641,7.95060484 C16.7846433,7.95060484 17.0988023,7.7721792 17.2684508,7.41532258 C17.3564167,7.22177323 17.4003989,6.96623143 17.4003989,6.64868952 L17.4003989,3.95866935 L18.7622922,3.95866935 L18.7622922,8.90322581 L17.4569481,8.90322581 L17.4569481,8.2046371 L17.4405489,8.22641125 C17.4238355,8.24969746 17.3978858,8.28780215 17.3626995,8.34072581 C17.3124333,8.41633102 17.252743,8.48286262 17.183627,8.54032258 C16.9731372,8.7217751 16.7697192,8.8457658 16.5733669,8.91229839 C16.3770145,8.97883098 16.1468929,9.01209677 15.8829953,9.01209677 C15.1227189,9.01209677 14.6106396,8.74899457 14.346742,8.22278226 C14.199085,7.93245823 14.1252576,7.50453912 14.1252576,6.9390121 L14.1252576,3.95866935 L15.5012882,3.95866935 Z M19.5304189,4.92489919 L19.5304189,4.00403226 L20.2467088,4.00403226 L20.2467088,2.625 L21.575615,2.625 L21.575615,4.00403226 L22.4097158,4.00403226 L22.4097158,4.92489919 L21.575615,4.92489919 L21.575615,7.53780242 C21.575615,7.7404244 21.6023185,7.86668322 21.6557264,7.91658266 C21.7091342,7.9664821 21.872497,7.99143145 22.1458195,7.99143145 C22.1866608,7.99143145 22.2298577,7.99067541 22.2754114,7.98916331 C22.3209652,7.9876512 22.3657328,7.98538308 22.4097158,7.98235887 L22.4097158,8.94858871 L21.7735372,8.97127016 C21.1389263,8.99243962 20.7053868,8.88659391 20.4729056,8.65372984 C20.322107,8.50554361 20.2467088,8.27721928 20.2467088,7.96875 L20.2467088,4.92489919 L19.5304189,4.92489919 Z M25.2984375,4.89314516 C24.9874153,4.89314516 24.7462982,4.98689422 24.575079,5.17439516 C24.4038597,5.3618961 24.2962602,5.61592582 24.2522773,5.93649194 L26.3398853,5.93649194 C26.3178938,5.59475636 26.2102944,5.33543435 26.0170836,5.15851815 C25.8238729,4.98160194 25.5843266,4.89314516 25.2984375,4.89314516 Z M25.2984375,3.82711694 C25.7257003,3.82711694 26.1105452,3.9042331 26.4529837,4.05846774 C26.7954223,4.21270238 27.0781654,4.45614753 27.3012217,4.78881048 C27.5022866,5.08215872 27.6326626,5.4223771 27.6923537,5.80947581 C27.7269117,6.03629146 27.7410489,6.36290109 27.7347656,6.78931452 L24.2192902,6.78931452 C24.2381401,7.28528474 24.399932,7.63306352 24.7046709,7.83266129 C24.8900275,7.95665385 25.1130805,8.01864919 25.3738364,8.01864919 C25.6503006,8.01864919 25.8749243,7.94304511 26.0477144,7.79183468 C26.1419636,7.71018104 26.2252157,7.59677492 26.2974734,7.4516129 L27.6687916,7.4516129 C27.6342335,7.74496114 27.4755832,8.04284123 27.1928358,8.3452621 C26.7530064,8.82611128 26.1372546,9.06653226 25.3455618,9.06653226 C24.6921011,9.06653226 24.1156192,8.86391332 23.6160987,8.45866935 C23.1165783,8.05342539 22.8668218,7.39415779 22.8668218,6.48084677 C22.8668218,5.62499572 23.092231,4.96875228 23.543056,4.51209677 C23.9938811,4.05544127 24.5790024,3.82711694 25.2984375,3.82711694 Z M31.4858627,3.84072581 C32.0167995,3.84072581 32.4511245,3.97454503 32.7888506,4.2421875 C33.1265767,4.50982997 33.2954372,4.95362593 33.2954372,5.57358871 L33.2954372,8.90322581 L31.9194066,8.90322581 L31.9194066,5.89566532 C31.9194066,5.63558338 31.8832783,5.4359886 31.8110206,5.296875 C31.6790718,5.04284147 31.4277445,4.91582661 31.0570313,4.91582661 C30.6014937,4.91582661 30.2889054,5.10181266 30.119257,5.47379032 C30.0312911,5.67036389 29.9873088,5.92136944 29.9873088,6.22681452 L29.9873088,8.90322581 L28.6489777,8.90322581 L28.6489777,3.96774194 L29.9448969,3.96774194 L29.9448969,4.6890121 C30.117687,4.43497857 30.2810498,4.25201669 30.43499,4.14012097 C30.7114542,3.9405232 31.0617416,3.84072581 31.4858627,3.84072581 Z M35.9391124,3.36895161 L34.5960688,3.36895161 L34.5960688,2.17590726 L35.9391124,2.17590726 L35.9391124,3.36895161 Z M33.9504654,10.8855847 L33.9504654,9.85131048 L34.0978762,9.86197785 L34.0978762,9.86197785 L34.1106882,9.86265121 C34.1421045,9.86416331 34.1703789,9.86491935 34.195512,9.86491935 C34.3274608,9.86491935 34.4272063,9.83392168 34.4947515,9.7719254 C34.5622967,9.70992913 34.5960688,9.58971863 34.5960688,9.41129032 L34.5960688,3.98135081 L35.9391124,3.98135081 L35.9391124,9.43397177 C35.9391124,9.9329662 35.8370107,10.3019141 35.6328042,10.5408266 C35.435185,10.7720322 35.0536827,10.8913625 34.4882863,10.8988206 L34.4311336,10.8991935 C34.4077958,10.8991935 34.3780467,10.8986998 34.341886,10.8977123 L34.0479841,10.8881768 C34.0170809,10.8873128 33.9845746,10.8864487 33.9504654,10.8855847 Z M40.0483544,6.49899194 C39.9635302,6.55040348 39.8779218,6.59198573 39.7915268,6.62373992 C39.7051317,6.65549411 39.5865367,6.6849797 39.435738,6.71219758 L39.1341423,6.76663306 C38.8513949,6.8150204 38.6487622,6.87399159 38.5262384,6.94354839 C38.3188903,7.06149253 38.2152178,7.24445441 38.2152178,7.49243952 C38.2152178,7.71320675 38.278835,7.87273136 38.4060713,7.97101815 C38.5333077,8.06930493 38.688031,8.11844758 38.870246,8.11844758 C39.1592767,8.11844758 39.4255265,8.03679517 39.6690035,7.8734879 C39.9124804,7.71018064 40.0389295,7.41230055 40.0483544,6.97983871 L40.0483544,6.49899194 Z M39.2331034,5.89566532 C39.4812916,5.86542324 39.6587927,5.82762119 39.7656084,5.78225806 C39.9572483,5.70362864 40.0530668,5.58115003 40.0530668,5.41481855 C40.0530668,5.21219657 39.9800248,5.07232901 39.8339387,4.99521169 C39.6878525,4.91809437 39.4734389,4.87953629 39.1906915,4.87953629 C38.873386,4.87953629 38.6487623,4.95514037 38.5168135,5.10635081 C38.4225644,5.21824653 38.3597325,5.36945469 38.3283162,5.55997984 L37.0323969,5.55997984 C37.0606717,5.127518 37.1863353,4.77217881 37.4093916,4.49395161 C37.7643967,4.05846556 38.3738654,3.84072581 39.2378158,3.84072581 C39.800169,3.84072581 40.299682,3.9480836 40.7363697,4.16280242 C41.1730574,4.37752123 41.3913979,4.78275912 41.3913979,5.37852823 L41.3913979,7.64667339 C41.3913979,7.80393224 41.3945395,7.99445453 41.4008228,8.21824597 C41.4102477,8.38760165 41.4369512,8.50251986 41.4809342,8.56300403 C41.5249171,8.62348821 41.5908905,8.6733869 41.6788564,8.71270161 L41.6788564,8.90322581 L40.218002,8.90322581 C40.1771607,8.80342692 40.1488864,8.70967786 40.1331782,8.62197581 C40.11747,8.53427376 40.1049036,8.43447637 40.0954787,8.32258065 C39.9101221,8.51613 39.6964939,8.6809469 39.4545878,8.81703629 C39.1655571,8.97731935 38.8388316,9.05745968 38.4744016,9.05745968 C38.0094392,9.05745968 37.6253797,8.92968878 37.3222116,8.67414315 C37.0190435,8.41859751 36.8674618,8.05645396 36.8674618,7.58770161 C36.8674618,6.97983567 37.1109351,6.53981991 37.597889,6.26764113 C37.8649282,6.1194549 38.2576271,6.01360919 38.7759973,5.95010081 L39.2331034,5.89566532 Z M44.1010472,3.37802419 L44.1010472,7.74193548 L45.4393783,7.74193548 C46.1242554,7.74193548 46.6017772,7.41683793 46.8719581,6.76663306 C47.0196151,6.40977644 47.0934425,5.9848815 47.0934425,5.49193548 C47.0934425,4.81148853 46.9827014,4.28906432 46.7612159,3.92464718 C46.5397304,3.56023003 46.0991223,3.37802419 45.4393783,3.37802419 L44.1010472,3.37802419 Z M45.6844249,2.21673387 C46.1148293,2.22278229 46.4729706,2.2711689 46.7588597,2.36189516 C47.2458136,2.5161298 47.6400833,2.79888907 47.9416805,3.21018145 C48.1835866,3.54284441 48.3485202,3.90271984 48.436486,4.28981855 C48.5244519,4.67691726 48.5684342,5.04586518 48.5684342,5.39667339 C48.5684342,6.28579074 48.3830803,7.0388074 48.012367,7.65574597 C47.5097049,8.48740335 46.733732,8.90322581 45.6844249,8.90322581 L42.6920296,8.90322581 L42.6920296,2.21673387 L45.6844249,2.21673387 Z M50.7125914,6.83921371 C50.7565744,7.14465879 50.8429681,7.37298311 50.9717753,7.52419355 C51.2073981,7.79939654 51.6110926,7.93699597 52.1828707,7.93699597 C52.5253092,7.93699597 52.80334,7.90070601 53.0169714,7.828125 C53.4222427,7.6890114 53.6248753,7.43044544 53.6248753,7.05241935 C53.6248753,6.83165212 53.5243444,6.6607869 53.3232796,6.53981855 C53.132268,6.42777162 52.8377712,6.32800817 52.4397811,6.24052551 L51.6409408,6.06804435 C50.9183641,5.9107855 50.4188511,5.73992028 50.142387,5.55544355 C49.6742829,5.24697426 49.4402344,4.76462022 49.4402344,4.10836694 C49.4402344,3.50957362 49.6664289,3.01209876 50.1188248,2.61592742 C50.5712207,2.21975608 51.2356672,2.02167339 52.1121842,2.02167339 C52.8441858,2.02167339 53.468577,2.20841547 53.9853765,2.58190524 C54.502176,2.95539501 54.7731382,3.49747629 54.7982713,4.20816532 L53.403391,4.20816532 C53.3782579,3.80594557 53.1960456,3.52016214 52.8567487,3.35080645 C52.6305507,3.23891073 52.3493783,3.18296371 52.0132231,3.18296371 C51.6393681,3.18296371 51.340917,3.25554363 51.1178607,3.40070565 C50.8948044,3.54586766 50.7832779,3.7484866 50.7832779,4.00856855 C50.7832779,4.23662137 50.8834648,4.40956118 51.0838415,4.52739263 L51.1131483,4.54385081 C51.248867,4.61933505 51.5322436,4.70736003 51.9632861,4.80792817 L53.2148936,5.09727823 C53.7395472,5.21824657 54.1353876,5.38003931 54.4024269,5.58266129 C54.8171231,5.89717899 55.0244681,6.35231557 55.0244681,6.94808468 C55.0244681,7.55897483 54.7817802,8.06627822 54.2963971,8.47001008 C53.811014,8.87374194 53.1253618,9.07560484 52.2394199,9.07560484 C51.3346281,9.07560484 50.6230578,8.8767661 50.1046875,8.47908266 C49.5863172,8.08139922 49.327136,7.5347817 49.327136,6.83921371 L50.7125914,6.83921371 Z M60.0102227,4.34425403 C60.0102227,3.99647004 59.9151896,3.74848864 59.7251205,3.60030242 C59.5350514,3.45211619 59.2688016,3.37802419 58.926363,3.37802419 L57.5738946,3.37802419 L57.5738946,5.34677419 L58.926363,5.34677419 C59.2688016,5.34677419 59.5350514,5.26663387 59.7251205,5.10635081 C59.9151896,4.94606775 60.0102227,4.69203803 60.0102227,4.34425403 Z M61.447515,4.33518145 C61.447515,5.12449991 61.24017,5.68245804 60.8254737,6.00907258 C60.4107775,6.33568712 59.8185876,6.49899194 59.0488863,6.49899194 L57.5738946,6.49899194 L57.5738946,8.90322581 L56.13189,8.90322581 L56.13189,2.21673387 L59.1572723,2.21673387 C59.8547159,2.21673387 60.4107775,2.38911118 60.8254737,2.73387097 C61.24017,3.07863076 61.447515,3.61239558 61.447515,4.33518145 Z" id="KautenjaDSP"></path>
                </g>
            </g>
            <g id="Group-7" transform="translate(46.500000, 130.500000)">
                <g id="Group-6" transform="translate(84.000000, 120.000000)">
                    <path d="M1.5,1.5 L1.5,12.5" id="Line" stroke="#969696" stroke-width="3" stroke-linecap="round"></path>
                    <path d="M0,1.5 L0,12.5 C0,13.3284271 0.671572875,14 1.5,14 C2.32842712,14 3,13.3284271 3,12.5 L3,1.5 C3,0.671572875 2.32842712,0 1.5,0 C0.671572875,0 0,0.671572875 0,1.5 Z" id="Line-Copy-5" fill="#969696" fill-rule="nonzero"></path>
                </g>
                <g id="Group-5" transform="translate(0.000000, 120.000000)" stroke="#969696" stroke-dasharray="0,5" stroke-linecap="round" stroke-width="3">
                    <path d="M1.5,1.5 L1.5,12.5" id="Line-Copy"></path>
                </g>
                <g id="Group-4">
                    <path d="M1.5,1.5 L1.5,12.5" id="Line-Copy-2" stroke="#969696" stroke-width="3" stroke-linecap="round" stroke-dasharray="0,5"></path>
                    <path d="M0,1.5 L0,2.5 C0,3.32842712 0.671572875,4 1.5,4 C2.32842712,4 3,3.32842712 3,2.5 L3,1.5 C3,0.671572875 2.32842712,0 1.5,0 C0.671572875,0 0,0.671572875 0,1.5 Z M0,6.5 L0,7.5 C0,8.32842712 0.671572875,9 1.5,9 C2.32842712,9 3,8.32842712 3,7.5 L3,6.5 C3,5.67157288 2.32842712,5 1.5,5 C0.671572875,5 0,5.67157288 0,6.5 Z M0,11.5 L0,12.5 C0,13.3284271 0.671572875,14 1.5,14 C2.32842712,14 3,13.3284271 3,12.5 L3,11.5 C3,10.6715729 2.32842712,10 1.5,10 C0.671572875,10 0,10.6715729 0,11.5 Z" id="Line-Copy-3" fill="#969696" fill-rule="nonzero"></path>
                </g>
            </g>
            <g id="ADSR" transform="translate(18.000000, 144.000000)" fill="#000000" fill-rule="nonzero">
                <g id="Polarity">
                    <path d="M7.31347656,9.2734375 L7.31347656,10.5039062 L0.639648438,10.5039062 L0.639648438,9.2734375 L7.31347656,9.2734375 Z M4.74414062,0.7578125 L4.74414062,2.99023438 L7,2.99023438 L7,4.53125 L4.74414062,4.53125 L4.74414062,6.76367188 L3.24414062,6.76367188 L3.24414062,4.53125 L0.994140625,4.53125 L0.994140625,2.99023438 L3.24414062,2.99023438 L3.24414062,0.7578125 L4.74414062,0.7578125 Z" id="Combined-Shape"></path>
                </g>
                <g id="A" transform="translate(32.000000, 3.000000)">
                    <path d="M5.84667969,0.41015625 L9.28613281,9 L7.39941406,9 L6.64941406,7.04882812 L3.21582031,7.04882812 L2.50683594,9 L0.666992188,9 L4.01269531,0.41015625 L5.84667969,0.41015625 Z M4.90917969,2.4140625 L3.74902344,5.6015625 L6.09277344,5.6015625 L4.90917969,2.4140625 Z" id="Combined-Shape"></path>
                </g>
                <g id="D" transform="translate(68.000000, 3.000000)">
                    <path d="M3.70410156,0.41015625 C4.41894889,0.41015625 4.96386531,0.464843203 5.33886719,0.57421875 C5.84277596,0.722656992 6.27441227,0.98632623 6.63378906,1.36523438 C6.99316586,1.74414252 7.26660062,2.20800507 7.45410156,2.75683594 C7.6416025,3.30566681 7.73535156,3.98241785 7.73535156,4.78710938 C7.73535156,5.49414416 7.64746182,6.10351307 7.47167969,6.61523438 C7.25683486,7.2402375 6.9501973,7.74609182 6.55175781,8.1328125 C6.25097506,8.42578271 5.84472912,8.65429605 5.33300781,8.81835938 C4.9501934,8.93945373 4.43847977,9 3.79785156,9 L0.534179688,9 L0.534179688,0.41015625 L3.70410156,0.41015625 Z M3.04785156,1.86328125 L2.26855469,1.86328125 L2.26855469,7.55273438 L3.7628156,7.55106028 C4.14499115,7.54436391 4.42815198,7.51757836 4.61230469,7.47070312 C4.89355609,7.40039027 5.1269522,7.28125084 5.3125,7.11328125 C5.4980478,6.94531166 5.64941348,6.66894724 5.76660156,6.28417969 C5.88378965,5.89941214 5.94238281,5.37500332 5.94238281,4.7109375 C5.94238281,4.04687168 5.88378965,3.53711115 5.76660156,3.18164062 C5.64941348,2.8261701 5.48535262,2.54882912 5.27441406,2.34960938 C5.06347551,2.15038963 4.79590006,2.01562535 4.47167969,1.9453125 C4.22949098,1.89062473 3.75488635,1.86328125 3.04785156,1.86328125 L3.04785156,1.86328125 Z" id="Combined-Shape"></path>
                </g>
                <g id="S" transform="translate(103.000000, 3.000000)">
                    <path d="M0.431640625,6.20507812 L2.11914062,6.04101562 C2.22070363,6.60742471 2.42675626,7.02343617 2.73730469,7.2890625 C3.04785312,7.55468883 3.46679424,7.6875 3.99414063,7.6875 C4.55273717,7.6875 4.9736314,7.56933712 5.25683594,7.33300781 C5.54004048,7.09667851 5.68164062,6.82031408 5.68164062,6.50390625 C5.68164062,6.30078023 5.62207091,6.1279304 5.50292969,5.98535156 C5.38378847,5.84277272 5.17578273,5.71875053 4.87890625,5.61328125 L4.72585933,5.5645312 C4.48023488,5.49078131 4.06836227,5.38203197 3.49023438,5.23828125 C2.56054223,5.00781135 1.908205,4.72461105 1.53320312,4.38867188 C1.00585674,3.91601326 0.7421875,3.33984715 0.7421875,2.66015625 C0.7421875,2.22265406 0.866209697,1.81347847 1.11425781,1.43261719 C1.36230593,1.05175591 1.71972423,0.761719746 2.18652344,0.5625 C2.65332265,0.363280254 3.21679357,0.263671875 3.87695312,0.263671875 C4.95508352,0.263671875 5.76659884,0.499997637 6.31152344,0.97265625 C6.85644804,1.44531486 7.14257799,2.07616793 7.16992188,2.86523438 L5.43554688,2.94140625 C5.36132775,2.49999779 5.20214966,2.18261815 4.95800781,1.98925781 C4.71386597,1.79589747 4.34765869,1.69921875 3.859375,1.69921875 C3.35546623,1.69921875 2.96093893,1.80273334 2.67578125,2.00976562 C2.49218658,2.14257879 2.40039062,2.32031139 2.40039062,2.54296875 C2.40039062,2.74609477 2.48632727,2.91992115 2.65820312,3.06445312 C2.85706776,3.23135737 3.31419155,3.40471588 4.0295865,3.58453298 L4.25195312,3.63867188 C5.09570734,3.83789162 5.71972454,4.04394425 6.12402344,4.25683594 C6.52832233,4.46972763 6.84472542,4.76074034 7.07324219,5.12988281 C7.30175896,5.49902528 7.41601562,5.95507541 7.41601562,6.49804688 C7.41601562,6.99023684 7.27929824,7.45116973 7.00585938,7.88085938 C6.73242051,8.31054902 6.34570562,8.62988177 5.84570312,8.83886719 C5.34570063,9.04785261 4.72265998,9.15234375 3.9765625,9.15234375 C2.89061957,9.15234375 2.05664354,8.9013697 1.47460938,8.39941406 C0.892575215,7.89745843 0.544922441,7.16602043 0.431640625,6.20507812 Z"></path>
                </g>
                <g id="RR" transform="translate(132.000000, 3.000000)">
                    <path d="M3.86328125,0.41015625 C4.78125459,0.41015625 5.44824011,0.487303916 5.86425781,0.641601562 C6.28027552,0.795899209 6.61328,1.07031053 6.86328125,1.46484375 C7.1132825,1.85937697 7.23828125,2.31054434 7.23828125,2.81835938 C7.23828125,3.46289385 7.04883002,3.99511509 6.66992188,4.41503906 C6.29101373,4.83496304 5.72461314,5.09960883 4.97070312,5.20898438 C5.345705,5.42773547 5.65527222,5.66796744 5.89941406,5.9296875 C6.14355591,6.19140756 6.47265418,6.65624666 6.88671875,7.32421875 L7.93554688,9 L5.86132812,9 L4.3571086,6.75972536 C4.04585821,6.3044122 3.82461003,6.00722726 3.69335938,5.86816406 C3.52929605,5.69433507 3.35546967,5.57519563 3.171875,5.51074219 C3.01887944,5.45703098 2.79128802,5.42569978 2.48909568,5.41674802 L1.94726562,5.4140625 L1.94726562,9 L0.212890625,9 L0.212890625,0.41015625 L3.86328125,0.41015625 Z M12.5292969,0.41015625 C13.4472702,0.41015625 14.1142557,0.487303916 14.5302734,0.641601562 C14.9462911,0.795899209 15.2792956,1.07031053 15.5292969,1.46484375 C15.7792981,1.85937697 15.9042969,2.31054434 15.9042969,2.81835938 C15.9042969,3.46289385 15.7148456,3.99511509 15.3359375,4.41503906 C14.9570294,4.83496304 14.3906288,5.09960883 13.6367188,5.20898438 C14.0117206,5.42773547 14.3212878,5.66796744 14.5654297,5.9296875 C14.8095715,6.19140756 15.1386698,6.65624666 15.5527344,7.32421875 L16.6015625,9 L14.5273438,9 L13.0231242,6.75972536 C12.7118738,6.3044122 12.4906257,6.00722726 12.359375,5.86816406 C12.1953117,5.69433507 12.0214853,5.57519563 11.8378906,5.51074219 C11.6848951,5.45703098 11.4573036,5.42569978 11.1551113,5.41674802 L10.6132812,5.4140625 L10.6132812,9 L8.87890625,9 L8.87890625,0.41015625 L12.5292969,0.41015625 Z M3.50328209,1.86357422 L1.94726562,1.86328125 L1.94726562,4.04296875 L3.23046875,4.04296875 C4.06250416,4.04296875 4.58203021,4.00781285 4.7890625,3.9375 C4.99609479,3.86718715 5.15820254,3.74609461 5.27539062,3.57421875 C5.39257871,3.40234289 5.45117188,3.18750129 5.45117188,2.9296875 C5.45117188,2.64062355 5.37402421,2.40722745 5.21972656,2.22949219 C5.06542892,2.05175692 4.84765766,1.93945336 4.56640625,1.89257812 L4.3639066,1.87763668 C4.17828227,1.86943355 3.89140834,1.86474608 3.50328209,1.86357422 Z M10.6132812,1.86328125 L10.6132812,4.04296875 L12.115655,4.04209712 C12.8203965,4.03628622 13.266867,4.00142077 13.4550781,3.9375 C13.6621104,3.86718715 13.8242182,3.74609461 13.9414062,3.57421875 C14.0585943,3.40234289 14.1171875,3.18750129 14.1171875,2.9296875 C14.1171875,2.64062355 14.0400398,2.40722745 13.8857422,2.22949219 C13.7314445,2.05175692 13.5136733,1.93945336 13.2324219,1.89257812 C13.1480465,1.88085932 12.9624228,1.8726562 12.6755482,1.86796872 L12.5236733,1.86591795 L10.6132812,1.86328125 Z" id="Combined-Shape"></path>
                </g>
            </g>
            <g id="ADSR" transform="translate(18.000000, 25.000000)" fill="#000000" fill-rule="nonzero">
                <g id="Polarity">
                    <path d="M7.31347656,9.2734375 L7.31347656,10.5039062 L0.639648438,10.5039062 L0.639648438,9.2734375 L7.31347656,9.2734375 Z M4.74414062,0.7578125 L4.74414062,2.99023438 L7,2.99023438 L7,4.53125 L4.74414062,4.53125 L4.74414062,6.76367188 L3.24414062,6.76367188 L3.24414062,4.53125 L0.994140625,4.53125 L0.994140625,2.99023438 L3.24414062,2.99023438 L3.24414062,0.7578125 L4.74414062,0.7578125 Z" id="Combined-Shape"></path>
                </g>
                <g id="A" transform="translate(32.000000, 3.000000)">
                    <path d="M5.84667969,0.41015625 L9.28613281,9 L7.39941406,9 L6.64941406,7.04882812 L3.21582031,7.04882812 L2.50683594,9 L0.666992188,9 L4.01269531,0.41015625 L5.84667969,0.41015625 Z M4.90917969,2.4140625 L3.74902344,5.6015625 L6.09277344,5.6015625 L4.90917969,2.4140625 Z" id="Combined-Shape"></path>
                </g>
                <g id="D" transform="translate(68.000000, 3.000000)">
                    <path d="M3.70410156,0.41015625 C4.41894889,0.41015625 4.96386531,0.464843203 5.33886719,0.57421875 C5.84277596,0.722656992 6.27441227,0.98632623 6.63378906,1.36523438 C6.99316586,1.74414252 7.26660062,2.20800507 7.45410156,2.75683594 C7.6416025,3.30566681 7.73535156,3.98241785 7.73535156,4.78710938 C7.73535156,5.49414416 7.64746182,6.10351307 7.47167969,6.61523438 C7.25683486,7.2402375 6.9501973,7.74609182 6.55175781,8.1328125 C6.25097506,8.42578271 5.84472912,8.65429605 5.33300781,8.81835938 C4.9501934,8.93945373 4.43847977,9 3.79785156,9 L0.534179688,9 L0.534179688,0.41015625 L3.70410156,0.41015625 Z M3.04785156,1.86328125 L2.26855469,1.86328125 L2.26855469,7.55273438 L3.7628156,7.55106028 C4.14499115,7.54436391 4.42815198,7.51757836 4.61230469,7.47070312 C4.89355609,7.40039027 5.1269522,7.28125084 5.3125,7.11328125 C5.4980478,6.94531166 5.64941348,6.66894724 5.76660156,6.28417969 C5.88378965,5.89941214 5.94238281,5.37500332 5.94238281,4.7109375 C5.94238281,4.04687168 5.88378965,3.53711115 5.76660156,3.18164062 C5.64941348,2.8261701 5.48535262,2.54882912 5.27441406,2.34960938 C5.06347551,2.15038963 4.79590006,2.01562535 4.47167969,1.9453125 C4.22949098,1.89062473 3.75488635,1.86328125 3.04785156,1.86328125 L3.04785156,1.86328125 Z" id="Combined-Shape"></path>
                </g>
                <g id="S" transform="translate(103.000000, 3.000000)">
                    <path d="M0.431640625,6.20507812 L2.11914062,6.04101562 C2.22070363,6.60742471 2.42675626,7.02343617 2.73730469,7.2890625 C3.04785312,7.55468883 3.46679424,7.6875 3.99414063,7.6875 C4.55273717,7.6875 4.9736314,7.56933712 5.25683594,7.33300781 C5.54004048,7.09667851 5.68164062,6.82031408 5.68164062,6.50390625 C5.68164062,6.30078023 5.62207091,6.1279304 5.50292969,5.98535156 C5.38378847,5.84277272 5.17578273,5.71875053 4.87890625,5.61328125 L4.72585933,5.5645312 C4.48023488,5.49078131 4.06836227,5.38203197 3.49023438,5.23828125 C2.56054223,5.00781135 1.908205,4.72461105 1.53320312,4.38867188 C1.00585674,3.91601326 0.7421875,3.33984715 0.7421875,2.66015625 C0.7421875,2.22265406 0.866209697,1.81347847 1.11425781,1.43261719 C1.36230593,1.05175591 1.71972423,0.761719746 2.18652344,0.5625 C2.65332265,0.363280254 3.21679357,0.263671875 3.87695312,0.263671875 C4.95508352,0.263671875 5.76659884,0.499997637 6.31152344,0.97265625 C6.85644804,1.44531486 7.14257799,2.07616793 7.16992188,2.86523438 L5.43554688,2.94140625 C5.36132775,2.49999779 5.20214966,2.18261815 4.95800781,1.98925781 C4.71386597,1.79589747 4.34765869,1.69921875 3.859375,1.69921875 C3.35546623,1.69921875 2.96093893,1.80273334 2.67578125,2.00976562 C2.49218658,2.14257879 2.40039062,2.32031139 2.40039062,2.54296875 C2.40039062,2.74609477 2.48632727,2.91992115 2.65820312,3.06445312 C2.85706776,3.23135737 3.31419155,3.40471588 4.0295865,3.58453298 L4.25195312,3.63867188 C5.09570734,3.83789162 5.71972454,4.04394425 6.12402344,4.25683594 C6.52832233,4.46972763 6.84472542,4.76074034 7.07324219,5.12988281 C7.30175896,5.49902528 7.41601562,5.95507541 7.41601562,6.49804688 C7.41601562,6.99023684 7.27929824,7.45116973 7.00585938,7.88085938 C6.73242051,8.31054902 6.34570562,8.62988177 5.84570312,8.83886719 C5.34570063,9.04785261 4.72265998,9.15234375 3.9765625,9.15234375 C2.89061957,9.15234375 2.05664354,8.9013697 1.47460938,8.39941406 C0.892575215,7.89745843 0.544922441,7.16602043 0.431640625,6.20507812 Z"></path>
                </g>
                <g id="RR" transform="translate(132.000000, 3.000000)">
                    <path d="M3.86328125,0.41015625 C4.78125459,0.41015625 5.44824011,0.487303916 5.86425781,0.641601562 C6.28027552,0.795899209 6.61328,1.07031053 6.86328125,1.46484375 C7.1132825,1.85937697 7.23828125,2.31054434 7.23828125,2.81835938 C7.23828125,3.46289385 7.04883002,3.99511509 6.66992188,4.41503906 C6.29101373,4.83496304 5.72461314,5.09960883 4.97070312,5.20898438 C5.345705,5.42773547 5.65527222,5.66796744 5.89941406,5.9296875 C6.14355591,6.19140756 6.47265418,6.65624666 6.88671875,7.32421875 L7.93554688,9 L5.86132812,9 L4.3571086,6.75972536 C4.04585821,6.3044122 3.82461003,6.00722726 3.69335938,5.86816406 C3.52929605,5.69433507 3.35546967,5.57519563 3.171875,5.51074219 C3.01887944,5.45703098 2.79128802,5.42569978 2.48909568,5.41674802 L1.94726562,5.4140625 L1.94726562,9 L0.212890625,9 L0.212890625,0.41015625 L3.86328125,0.41015625 Z M12.5292969,0.41015625 C13.4472702,0.41015625 14.1142557,0.487303916 14.5302734,0.641601562 C14.9462911,0.795899209 15.2792956,1.07031053 15.5292969,1.46484375 C15.7792981,1.85937697 15.9042969,2.31054434 15.9042969,2.81835938 C15.9042969,3.46289385 15.7148456,3.99511509 15.3359375,4.41503906 C14.9570294,4.83496304 14.3906288,5.09960883 13.6367188,5.20898438 C14.0117206,5.42773547 14.3212878,5.66796744 14.5654297,5.9296875 C14.8095715,6.19140756 15.1386698,6.65624666 15.5527344,7.32421875 L16.6015625,9 L14.5273438,9 L13.0231242,6.75972536 C12.7118738,6.3044122 12.4906257,6.00722726 12.359375,5.86816406 C12.1953117,5.69433507 12.0214853,5.57519563 11.8378906,5.51074219 C11.6848951,5.45703098 11.4573036,5.42569978 11.1551113,5.41674802 L10.6132812,5.4140625 L10.6132812,9 L8.87890625,9 L8.87890625,0.41015625 L12.5292969,0.41015625 Z M3.50328209,1.86357422 L1.94726562,1.86328125 L1.94726562,4.04296875 L3.23046875,4.04296875 C4.06250416,4.04296875 4.58203021,4.00781285 4.7890625,3.9375 C4.99609479,3.86718715 5.15820254,3.74609461 5.27539062,3.57421875 C5.39257871,3.40234289 5.45117188,3.18750129 5.45117188,2.9296875 C5.45117188,2.64062355 5.37402421,2.40722745 5.21972656,2.22949219 C5.06542892,2.05175692 4.84765766,1.93945336 4.56640625,1.89257812 L4.3639066,1.87763668 C4.17828227,1.86943355 3.89140834,1.86474608 3.50328209,1.86357422 Z M10.6132812,1.86328125 L10.6132812,4.04296875 L12.115655,4.04209712 C12.8203965,4.03628622 13.266867,4.00142077 13.4550781,3.9375 C13.6621104,3.86718715 13.8242182,3.74609461 13.9414062,3.57421875 C14.0585943,3.40234289 14.1171875,3.18750129 14.1171875,2.9296875 C14.1171875,2.64062355 14.0400398,2.40722745 13.8857422,2.22949219 C13.7314445,2.05175692 13.5136733,1.93945336 13.2324219,1.89257812 C13.1480465,1.88085932 12.9624228,1.8726562 12.6755482,1.86796872 L12.5236733,1.86591795 L10.6132812,1.86328125 Z" id="Combined-Shape"></path>
                </g>
            </g>
            <path d="M62.0654297,11.9511719 L63.6865234,11.9511719 L63.1591797,14.9492188 L63.1591797,14.9980469 C63.1591797,15.1087245 63.1982418,15.2063798 63.2763672,15.2910156 C63.3544926,15.3756515 63.4488927,15.4179688 63.5595703,15.4179688 L64.4580078,15.4179688 C64.6012377,15.4179688 64.7314447,15.3723963 64.8486328,15.28125 C64.9723313,15.1835933 65.0472004,15.0664069 65.0732422,14.9296875 L65.4248047,12.9570312 C65.4378256,12.8984372 65.4443359,12.8365889 65.4443359,12.7714844 C65.4443359,12.548269 65.3582399,12.2676591 65.1860455,11.9296482 L64.2626953,10.2128906 L64.2626953,10.2128906 L63.3837891,8.55273438 L63.3837891,8.55273438 C63.136392,8.06445068 63.0126953,7.58593984 63.0126953,7.1171875 L63.0126953,7.02929688 C63.0126953,6.91861924 63.0224608,6.80468809 63.0419922,6.6875 L63.4619141,4.265625 C63.5270186,3.90103984 63.7093084,3.5983085 64.0087891,3.35742188 C64.2952488,3.11653525 64.6240216,2.99609375 64.9951172,2.99609375 L67.3388672,2.99609375 C67.6774105,2.99609375 67.9703764,3.11979043 68.2177734,3.3671875 C68.471681,3.61458457 68.5986328,3.92057109 68.5986328,4.28515625 C68.5986328,4.34158014 68.5957393,4.39076975 68.5899523,4.43272567 L67.9638672,7.92773438 L66.3232422,7.92773438 L66.8408203,5.03710938 C66.8538412,5.01757803 66.8603516,4.99153662 66.8603516,4.95898438 C66.8603516,4.86132764 66.8180343,4.77018271 66.7333984,4.68554688 C66.6487626,4.61393193 66.5511073,4.578125 66.4404297,4.578125 L65.5419922,4.578125 C65.3987623,4.578125 65.2718104,4.62369746 65.1611328,4.71484375 C65.0504552,4.79947959 64.9820965,4.90690039 64.9560547,5.03710938 L64.6728516,6.58984375 C64.6533202,6.70703184 64.6435547,6.82747334 64.6435547,6.95117188 C64.6435547,7.40690332 64.7932928,7.87890381 65.0927734,8.3671875 L65.6473984,9.27983276 C66.4004023,10.5316108 66.7982065,11.2560359 66.8408203,11.453125 C67.010092,11.7656266 67.0947266,12.10742 67.0947266,12.4785156 C67.0882161,12.6477873 67.0686851,12.826822 67.0361328,13.015625 L66.5380859,15.7207031 C66.4729814,16.0852883 66.2939468,16.3912748 66.0009766,16.6386719 C65.7080063,16.8795585 65.3727232,17 64.9951172,17 L62.6611328,17 C62.316079,17 62.0263684,16.8763033 61.7919922,16.6289062 C61.5641265,16.3815092 61.4501953,16.0787778 61.4501953,15.7207031 L61.4501953,15.4960938 L62.0654297,11.9511719 Z M69.9560547,2.99609375 L71.5771484,2.99609375 L69.4287109,14.96875 L69.4287109,15.0175781 C69.4287109,15.1282558 69.4645179,15.225911 69.5361328,15.3105469 C69.6207687,15.3951827 69.7184239,15.4375 69.8291016,15.4375 L70.7275391,15.4375 C71.0660824,15.4375 71.2646481,15.2747412 71.3232422,14.9492188 L73.4912109,2.99609375 L75.1513672,2.99609375 L72.8173828,15.7402344 C72.7522783,16.0983091 72.5732437,16.3977853 72.2802734,16.6386719 C71.9873032,16.8795585 71.6520201,17 71.2744141,17 L68.9208984,17 C68.5888655,17 68.3024101,16.8763033 68.0615234,16.6289062 C67.8206368,16.3815092 67.7001953,16.0852882 67.7001953,15.7402344 L67.7001953,15.4960938 L69.9560547,2.99609375 Z M76.2744141,2.99609375 L79.9560547,2.99609375 C80.3011085,2.99609375 80.5973295,3.12304561 80.8447266,3.37695312 C81.0856132,3.61783975 81.2060547,3.89452969 81.2060547,4.20703125 C81.2060547,4.26345514 81.2017145,4.32421871 81.1930339,4.38932278 L80.2783203,9.45117188 C80.2132158,9.82226748 80.0374363,10.128254 79.7509766,10.3691406 C79.4645168,10.6100272 79.135744,10.7304688 78.7646484,10.7304688 L76.5673828,10.7304688 L75.4248047,17.0097656 L73.7353516,17.0097656 L76.2744141,2.99609375 Z M78.1982422,9.1484375 C78.3414721,9.1484375 78.4684239,9.10286504 78.5791016,9.01171875 C78.6832687,8.92708291 78.7483723,8.81640693 78.7744141,8.6796875 L79.4677734,5.03710938 L79.4677734,4.97851562 C79.4677734,4.86132754 79.4287113,4.76367227 79.3505859,4.68554688 C79.2724605,4.61393193 79.1780604,4.578125 79.0673828,4.578125 L77.6708984,4.578125 L76.8212891,9.1484375 L78.1982422,9.1484375 Z M82.6123047,2.99609375 L86.4111328,2.99609375 L86.1376953,4.55859375 L84.0283203,4.55859375 L83.2373047,9.00195312 L85.3369141,9.00195312 L85.0439453,10.5644531 L82.9541016,10.5644531 L82.0849609,15.4375 L84.1552734,15.4375 L83.8720703,17 L80.0732422,17 L82.6123047,2.99609375 Z M85.0537109,17 L87.5634766,2.99609375 L91.3232422,2.99609375 C91.6617855,2.99609375 91.9547514,3.11979043 92.2021484,3.3671875 C92.4495455,3.60807412 92.5797525,3.90429512 92.5927734,4.25585938 L92.5537109,4.49023438 L92.5537109,4.49023438 L91.7724609,8.90429688 C91.6617833,9.5162791 91.3004588,9.9069002 90.6884766,10.0761719 C90.9163423,10.1608077 91.0888666,10.3105458 91.2060547,10.5253906 C91.297201,10.6946623 91.3427734,10.8834625 91.3427734,11.0917969 C91.3427734,11.13737 91.3395183,11.1861977 91.3330078,11.2382812 L91.3286675,11.4032118 C91.3272208,11.4256365 91.3254123,11.4455294 91.3232422,11.4628906 L90.3076172,17 L88.5888672,17 L89.6142578,11.2675781 L89.6142578,11.21875 C89.6142578,11.1080724 89.5751957,11.0136723 89.4970703,10.9355469 C89.4189449,10.8574215 89.3245448,10.8183594 89.2138672,10.8183594 L87.8564453,10.8183594 L86.7626953,17 L85.0537109,17 Z M88.1591797,9.1484375 L89.5166016,9.1484375 C89.6598314,9.1484375 89.7867833,9.09960986 89.8974609,9.00195312 C90.0016281,8.91080684 90.0667316,8.79687568 90.0927734,8.66015625 L90.7568359,5.03710938 L90.7568359,4.97851562 C90.7568359,4.86132754 90.7177738,4.76367227 90.6396484,4.68554688 C90.5550126,4.61393193 90.4541021,4.578125 90.3369141,4.578125 L88.9892578,4.578125 L88.1591797,9.1484375 Z M94.0576172,17 L98.6767578,2.99609375 L100.356445,2.99609375 L99.9169922,17 L98.3251953,17 L98.4423828,14.6953125 L96.5283203,14.6953125 L95.8447266,17 L94.0576172,17 Z M98.5205078,13.1132812 L98.8330078,6.91210938 L96.9970703,13.1132812 L98.5205078,13.1132812 Z M100.864258,17 L103.40332,2.99609375 L107.202148,2.99609375 C107.553713,2.99609375 107.853189,3.12304561 108.100586,3.37695312 C108.334962,3.61783975 108.452148,3.89127451 108.452148,4.19726562 C108.452148,4.28190146 108.442383,4.37955674 108.422852,4.49023438 L106.401367,15.7207031 C106.336263,16.0852883 106.160483,16.3912748 105.874023,16.6386719 C105.587564,16.8795585 105.258791,17 104.887695,17 L100.864258,17 Z M104.321289,15.4179688 C104.464519,15.4179688 104.591471,15.3723963 104.702148,15.28125 C104.806316,15.1901037 104.871419,15.0729174 104.897461,14.9296875 L106.704102,5.03710938 C106.710612,5.01757803 106.713867,4.9947918 106.713867,4.96875 C106.713867,4.85807236 106.674805,4.76367227 106.59668,4.68554688 C106.518554,4.61393193 106.420899,4.578125 106.303711,4.578125 L104.790039,4.578125 L102.807617,15.4179688 L104.321289,15.4179688 Z M113.608398,2.99609375 C113.946942,2.99609375 114.239908,3.11979043 114.487305,3.3671875 C114.741212,3.61458457 114.868164,3.92057109 114.868164,4.28515625 C114.868164,4.34158014 114.865271,4.39076975 114.859484,4.43272567 L114.233398,7.92773438 L112.592773,7.92773438 L113.110352,5.03710938 C113.123372,5.01757803 113.129883,4.99153662 113.129883,4.95898438 C113.129883,4.86132764 113.087566,4.77018271 113.00293,4.68554688 C112.918294,4.61393193 112.820639,4.578125 112.709961,4.578125 L111.811523,4.578125 C111.668294,4.578125 111.541342,4.62369746 111.430664,4.71484375 C111.319986,4.79947959 111.251628,4.90690039 111.225586,5.03710938 L110.942383,6.58984375 C110.922851,6.70703184 110.913086,6.82747334 110.913086,6.95117188 C110.913086,7.40690332 111.062824,7.87890381 111.362305,8.3671875 L112.039141,9.48357955 C112.713038,10.6104749 113.070105,11.2669853 113.110352,11.453125 C113.279623,11.7656266 113.364258,12.10742 113.364258,12.4785156 C113.357747,12.6477873 113.338216,12.826822 113.305664,13.015625 L112.807617,15.7207031 C112.742513,16.0852883 112.563478,16.3912748 112.270508,16.6386719 C111.977538,16.8795585 111.642254,17 111.264648,17 L108.930664,17 C108.58561,17 108.2959,16.8763033 108.061523,16.6289062 C107.833658,16.3815092 107.719727,16.0787778 107.719727,15.7207031 L107.719727,15.4960938 L108.334961,11.9511719 L109.956055,11.9511719 L109.428711,14.9492188 L109.428711,14.9980469 C109.428711,15.1087245 109.467773,15.2063798 109.545898,15.2910156 C109.624024,15.3756515 109.718424,15.4179688 109.829102,15.4179688 L110.727539,15.4179688 C110.870769,15.4179688 111.000976,15.3723963 111.118164,15.28125 C111.241863,15.1835933 111.316732,15.0664069 111.342773,14.9296875 L111.694336,12.9570312 C111.707357,12.8984372 111.713867,12.8365889 111.713867,12.7714844 C111.713867,12.548269 111.627771,12.2676591 111.455577,11.9296482 L109.65332,8.55273438 C109.405923,8.06445068 109.282227,7.58593984 109.282227,7.1171875 L109.282227,7.02929688 C109.282227,6.91861924 109.291992,6.80468809 109.311523,6.6875 L109.731445,4.265625 C109.79655,3.90103984 109.97884,3.5983085 110.27832,3.35742188 C110.56478,3.11653525 110.893553,2.99609375 111.264648,2.99609375 L113.608398,2.99609375 Z M119.995117,2.99609375 C120.333661,2.99609375 120.626626,3.11979043 120.874023,3.3671875 C121.121421,3.60807412 121.251628,3.90429512 121.264648,4.25585938 L121.225586,4.49023438 L120.444336,8.90429688 C120.333658,9.5162791 119.972334,9.9069002 119.360352,10.0761719 C119.588217,10.1608077 119.760742,10.3105458 119.87793,10.5253906 C119.969076,10.6946623 120.014648,10.8834625 120.014648,11.0917969 C120.014648,11.13737 120.011393,11.1861977 120.004883,11.2382812 L120.000543,11.4032118 C119.999096,11.4256365 119.997287,11.4455294 119.995117,11.4628906 L118.979492,17 L117.260742,17 L118.286133,11.2675781 L118.286133,11.21875 C118.286133,11.1080724 118.247071,11.0136723 118.168945,10.9355469 C118.09082,10.8574215 117.99642,10.8183594 117.885742,10.8183594 L116.52832,10.8183594 L115.43457,17 L113.725586,17 L116.235352,2.99609375 L119.995117,2.99609375 Z M119.008789,4.578125 L117.661133,4.578125 L116.831055,9.1484375 L118.188477,9.1484375 C118.331706,9.1484375 118.458658,9.09960986 118.569336,9.00195312 C118.647461,8.93359341 118.703613,8.85241721 118.737793,8.75842308 L118.764648,8.66015625 L119.428711,5.03710938 L119.428711,4.97851562 C119.428711,4.86132754 119.389649,4.76367227 119.311523,4.68554688 C119.226888,4.61393193 119.125977,4.578125 119.008789,4.578125 Z" id="SUPERADSR" fill="#FF5050" fill-rule="nonzero"></path>
        </g>
        <g id="Ports-2" transform="translate(99.000000, 263.000000)">
            <g id="Out" transform="translate(0.000000, 42.000000)">
                <circle id="Oval-Copy" fill="#343633" cx="17" cy="31" r="15"></circle>
                <path d="M8.40429688,8.171875 C8.40429688,7.58853875 8.49153559,7.09896031 8.66601562,6.703125 C8.79622461,6.41145687 8.97395721,6.14974074 9.19921875,5.91796875 C9.42448029,5.68619676 9.67122262,5.51432348 9.93945312,5.40234375 C10.2962257,5.25130133 10.70768,5.17578125 11.1738281,5.17578125 C12.0175823,5.17578125 12.6927058,5.43749738 13.1992188,5.9609375 C13.7057317,6.48437762 13.9589844,7.21223492 13.9589844,8.14453125 C13.9589844,9.06901504 13.7076848,9.7923151 13.2050781,10.3144531 C12.7024714,10.8365912 12.0306032,11.0976562 11.1894531,11.0976562 C10.3378864,11.0976562 9.6608098,10.8378932 9.15820312,10.3183594 C8.65559645,9.79882553 8.40429688,9.08333789 8.40429688,8.171875 Z M9.59570312,8.1328125 C9.59570312,8.78125324 9.74544121,9.27278479 10.0449219,9.60742188 C10.3444025,9.94205896 10.7246071,10.109375 11.1855469,10.109375 C11.6464867,10.109375 12.0247381,9.94336104 12.3203125,9.61132812 C12.6158869,9.27929521 12.7636719,8.78125332 12.7636719,8.1171875 C12.7636719,7.46093422 12.6197931,6.97135578 12.3320312,6.6484375 C12.0442694,6.32551922 11.6621118,6.1640625 11.1855469,6.1640625 C10.708982,6.1640625 10.3248713,6.32747232 10.0332031,6.65429688 C9.741535,6.98112143 9.59570312,7.47395504 9.59570312,8.1328125 Z M14.8535156,5.2734375 L16.0097656,5.2734375 L16.0097656,8.375 C16.0097656,8.86718996 16.0240884,9.18619719 16.0527344,9.33203125 C16.1022138,9.56640742 16.2200512,9.75455658 16.40625,9.89648438 C16.5924488,10.0384122 16.8470036,10.109375 17.1699219,10.109375 C17.4980485,10.109375 17.7454419,10.0423184 17.9121094,9.90820312 C18.0787769,9.77408787 18.1790363,9.60937598 18.2128906,9.4140625 C18.246745,9.21874902 18.2636719,8.89453352 18.2636719,8.44140625 L18.2636719,5.2734375 L19.4199219,5.2734375 L19.4199219,8.28125 C19.4199219,8.96875344 19.3886722,9.45442566 19.3261719,9.73828125 C19.2636716,10.0221368 19.1484383,10.2617178 18.9804688,10.4570312 C18.8124992,10.6523447 18.587892,10.8079421 18.3066406,10.9238281 C18.0253892,11.0397141 17.6582054,11.0976562 17.2050781,11.0976562 C16.6582004,11.0976562 16.243491,11.0345058 15.9609375,10.9082031 C15.678384,10.7819004 15.4550789,10.6178396 15.2910156,10.4160156 C15.1269523,10.2141917 15.0188805,10.0026053 14.9667969,9.78125 C14.8912757,9.45312336 14.8535156,8.9687532 14.8535156,8.328125 L14.8535156,5.2734375 Z M21.9277344,11 L21.9277344,6.2421875 L20.2285156,6.2421875 L20.2285156,5.2734375 L24.7792969,5.2734375 L24.7792969,6.2421875 L23.0839844,6.2421875 L23.0839844,11 L21.9277344,11 Z" id="OUT" fill="#1D1D1D" fill-rule="nonzero"></path>
            </g>
            <g id="Out-Copy" transform="translate(33.000000, 42.000000)">
                <circle id="Oval-Copy-2" fill="#343633" cx="17" cy="31" r="15"></circle>
                <path d="M10.3789062,11 L10.3789062,5.2734375 L11.5351562,5.2734375 L11.5351562,11 L10.3789062,11 Z M12.6484375,11 L12.6484375,5.2734375 L13.7734375,5.2734375 L16.1171875,9.09765625 L16.1171875,5.2734375 L17.1914062,5.2734375 L17.1914062,11 L16.03125,11 L13.7226562,7.265625 L13.7226562,11 L12.6484375,11 Z M19.875,11 L17.828125,5.2734375 L19.0820312,5.2734375 L20.53125,9.51171875 L21.9335938,5.2734375 L23.1601562,5.2734375 L21.109375,11 L19.875,11 Z" id="INV" fill="#1D1D1D" fill-rule="nonzero"></path>
            </g>
            <g id="Retrig" transform="translate(33.000000, 0.000000)" fill="#343633" fill-rule="nonzero">
                <path d="M1.97460938,11 L1.97460938,5.2734375 L4.40820312,5.2734375 C5.02018535,5.2734375 5.46484236,5.32486928 5.7421875,5.42773438 C6.01953264,5.53059947 6.24153563,5.71354035 6.40820312,5.9765625 C6.57487062,6.23958465 6.65820312,6.54036289 6.65820312,6.87890625 C6.65820312,7.3085959 6.5319023,7.66341006 6.27929688,7.94335938 C6.02669145,8.22330869 5.64909105,8.39973922 5.14648438,8.47265625 C5.39648563,8.61849031 5.60286377,8.77864496 5.765625,8.953125 C5.92838623,9.12760504 6.14778508,9.43749777 6.42382812,9.8828125 L7.12304688,11 L5.74023438,11 L4.6992182,9.45080481 C4.51171812,9.17858783 4.37695354,8.99902387 4.29492188,8.91210938 C4.18554633,8.79622338 4.06966207,8.71679709 3.94726562,8.67382812 C3.84934847,8.63945295 3.70559961,8.61882806 3.51601608,8.6119531 L3.13085938,8.609375 L3.13085938,11 L1.97460938,11 Z M3.13085938,6.2421875 L3.13085938,7.6953125 L3.98632812,7.6953125 C4.5410184,7.6953125 4.8873691,7.67187523 5.02539062,7.625 C5.16341215,7.57812477 5.27148398,7.49739641 5.34960938,7.3828125 C5.42773477,7.26822859 5.46679688,7.12500086 5.46679688,6.953125 C5.46679688,6.7604157 5.4153651,6.6048183 5.3125,6.48632812 C5.2096349,6.36783795 5.06445406,6.29296891 4.87695312,6.26171875 L4.69238322,6.24981687 C4.57519613,6.24574786 4.41113406,6.24330647 4.20019597,6.24249267 L3.13085938,6.2421875 Z M7.74804688,11 L7.74804688,5.2734375 L11.9941406,5.2734375 L11.9941406,6.2421875 L8.90429688,6.2421875 L8.90429688,7.51171875 L11.7792969,7.51171875 L11.7792969,8.4765625 L8.90429688,8.4765625 L8.90429688,10.0351562 L12.1035156,10.0351562 L12.1035156,11 L7.74804688,11 Z M14.3730469,11 L14.3730469,6.2421875 L12.6738281,6.2421875 L12.6738281,5.2734375 L17.2246094,5.2734375 L17.2246094,6.2421875 L15.5292969,6.2421875 L15.5292969,11 L14.3730469,11 Z M17.9746094,11 L17.9746094,5.2734375 L20.4082031,5.2734375 C21.0201854,5.2734375 21.4648424,5.32486928 21.7421875,5.42773438 C22.0195326,5.53059947 22.2415356,5.71354035 22.4082031,5.9765625 C22.5748706,6.23958465 22.6582031,6.54036289 22.6582031,6.87890625 C22.6582031,7.3085959 22.5319023,7.66341006 22.2792969,7.94335938 C22.0266914,8.22330869 21.6490911,8.39973922 21.1464844,8.47265625 C21.3964856,8.61849031 21.6028638,8.77864496 21.765625,8.953125 C21.9283862,9.12760504 22.1477851,9.43749777 22.4238281,9.8828125 L23.1230469,11 L21.7402344,11 L20.6992182,9.45080481 C20.5117181,9.17858783 20.3769535,8.99902387 20.2949219,8.91210938 C20.1855463,8.79622338 20.0696621,8.71679709 19.9472656,8.67382812 C19.8493485,8.63945295 19.7055996,8.61882806 19.5160161,8.6119531 L19.1308594,8.609375 L19.1308594,11 L17.9746094,11 Z M19.1308594,6.2421875 L19.1308594,7.6953125 L19.9863281,7.6953125 C20.5410184,7.6953125 20.8873691,7.67187523 21.0253906,7.625 C21.1634121,7.57812477 21.271484,7.49739641 21.3496094,7.3828125 C21.4277348,7.26822859 21.4667969,7.12500086 21.4667969,6.953125 C21.4667969,6.7604157 21.4153651,6.6048183 21.3125,6.48632812 C21.2096349,6.36783795 21.0644541,6.29296891 20.8769531,6.26171875 L20.6923832,6.24981687 C20.5751961,6.24574786 20.4111341,6.24330647 20.200196,6.24249267 L19.1308594,6.2421875 Z M23.7128906,11 L23.7128906,5.2734375 L24.8691406,5.2734375 L24.8691406,11 L23.7128906,11 Z M28.6347656,8.89453125 L28.6347656,7.9296875 L31.1269531,7.9296875 L31.1269531,10.2109375 C30.8847644,10.4453137 30.5338565,10.6516918 30.0742188,10.8300781 C29.614581,11.0084644 29.1490909,11.0976562 28.6777344,11.0976562 C28.078773,11.0976562 27.5566429,10.9720065 27.1113281,10.7207031 C26.6660134,10.4693998 26.3313813,10.1100284 26.1074219,9.64257812 C25.8834624,9.17512787 25.7714844,8.66666941 25.7714844,8.1171875 C25.7714844,7.52083035 25.8964831,6.99088773 26.1464844,6.52734375 C26.3964856,6.06379977 26.7623674,5.70833457 27.2441406,5.4609375 C27.61133,5.27083238 28.0683566,5.17578125 28.6152344,5.17578125 C29.3261754,5.17578125 29.8815084,5.3248683 30.28125,5.62304688 C30.6809916,5.92122545 30.9381505,6.3333307 31.0527344,6.859375 L29.9042969,7.07421875 C29.8235673,6.79296734 29.6718761,6.57096436 29.4492188,6.40820312 C29.2265614,6.24544189 28.9485694,6.1640625 28.6152344,6.1640625 C28.1100235,6.1640625 27.7083348,6.32421715 27.4101562,6.64453125 C27.1119777,6.96484535 26.9628906,7.44010102 26.9628906,8.0703125 C26.9628906,8.7500034 27.1139308,9.25976393 27.4160156,9.59960938 C27.7181005,9.93945482 28.1139298,10.109375 28.6035156,10.109375 C28.8457043,10.109375 29.0885404,10.0618494 29.3320312,9.96679688 C29.5755221,9.87174432 29.7845043,9.75651109 29.9589844,9.62109375 L29.9589844,8.89453125 L28.6347656,8.89453125 Z" id="RETRIG"></path>
            </g>
            <g id="Gate" fill="#343633" fill-rule="nonzero">
                <path d="M8.93164062,8.89453125 L8.93164062,7.9296875 L11.4238281,7.9296875 L11.4238281,10.2109375 C11.1816394,10.4453137 10.8307315,10.6516918 10.3710938,10.8300781 C9.91145604,11.0084644 9.4459659,11.0976562 8.97460938,11.0976562 C8.37564805,11.0976562 7.85351785,10.9720065 7.40820312,10.7207031 C6.9628884,10.4693998 6.62825633,10.1100284 6.40429688,9.64257812 C6.18033742,9.17512787 6.06835938,8.66666941 6.06835938,8.1171875 C6.06835938,7.52083035 6.19335813,6.99088773 6.44335938,6.52734375 C6.69336063,6.06379977 7.05924238,5.70833457 7.54101562,5.4609375 C7.90820496,5.27083238 8.36523164,5.17578125 8.91210938,5.17578125 C9.62305043,5.17578125 10.1783834,5.3248683 10.578125,5.62304688 C10.9778666,5.92122545 11.2350255,6.3333307 11.3496094,6.859375 L10.2011719,7.07421875 C10.1204423,6.79296734 9.96875111,6.57096436 9.74609375,6.40820312 C9.52343639,6.24544189 9.24544437,6.1640625 8.91210938,6.1640625 C8.40689852,6.1640625 8.00520982,6.32421715 7.70703125,6.64453125 C7.40885268,6.96484535 7.25976562,7.44010102 7.25976562,8.0703125 C7.25976562,8.7500034 7.41080578,9.25976393 7.71289062,9.59960938 C8.01497547,9.93945482 8.41080484,10.109375 8.90039062,10.109375 C9.14257934,10.109375 9.38541545,10.0618494 9.62890625,9.96679688 C9.87239705,9.87174432 10.0813793,9.75651109 10.2558594,9.62109375 L10.2558594,8.89453125 L8.93164062,8.89453125 Z M17.6542969,11 L16.3964844,11 L15.8964844,9.69921875 L13.6074219,9.69921875 L13.1347656,11 L11.9082031,11 L14.1386719,5.2734375 L15.3613281,5.2734375 L17.6542969,11 Z M15.5253906,8.734375 L14.7363281,6.609375 L13.9628906,8.734375 L15.5253906,8.734375 Z M18.9628906,11 L18.9628906,6.2421875 L17.2636719,6.2421875 L17.2636719,5.2734375 L21.8144531,5.2734375 L21.8144531,6.2421875 L20.1191406,6.2421875 L20.1191406,11 L18.9628906,11 Z M22.5605469,11 L22.5605469,5.2734375 L26.8066406,5.2734375 L26.8066406,6.2421875 L23.7167969,6.2421875 L23.7167969,7.51171875 L26.5917969,7.51171875 L26.5917969,8.4765625 L23.7167969,8.4765625 L23.7167969,10.0351562 L26.9160156,10.0351562 L26.9160156,11 L22.5605469,11 Z" id="GATE"></path>
            </g>
        </g>
        <g id="Ports-1" transform="translate(15.000000, 263.000000)">
            <g id="Out" transform="translate(0.000000, 42.000000)">
                <circle id="Oval-Copy" fill="#343633" cx="17" cy="31" r="15"></circle>
                <path d="M8.40429688,8.171875 C8.40429688,7.58853875 8.49153559,7.09896031 8.66601562,6.703125 C8.79622461,6.41145687 8.97395721,6.14974074 9.19921875,5.91796875 C9.42448029,5.68619676 9.67122262,5.51432348 9.93945312,5.40234375 C10.2962257,5.25130133 10.70768,5.17578125 11.1738281,5.17578125 C12.0175823,5.17578125 12.6927058,5.43749738 13.1992188,5.9609375 C13.7057317,6.48437762 13.9589844,7.21223492 13.9589844,8.14453125 C13.9589844,9.06901504 13.7076848,9.7923151 13.2050781,10.3144531 C12.7024714,10.8365912 12.0306032,11.0976562 11.1894531,11.0976562 C10.3378864,11.0976562 9.6608098,10.8378932 9.15820312,10.3183594 C8.65559645,9.79882553 8.40429688,9.08333789 8.40429688,8.171875 Z M9.59570312,8.1328125 C9.59570312,8.78125324 9.74544121,9.27278479 10.0449219,9.60742188 C10.3444025,9.94205896 10.7246071,10.109375 11.1855469,10.109375 C11.6464867,10.109375 12.0247381,9.94336104 12.3203125,9.61132812 C12.6158869,9.27929521 12.7636719,8.78125332 12.7636719,8.1171875 C12.7636719,7.46093422 12.6197931,6.97135578 12.3320312,6.6484375 C12.0442694,6.32551922 11.6621118,6.1640625 11.1855469,6.1640625 C10.708982,6.1640625 10.3248713,6.32747232 10.0332031,6.65429688 C9.741535,6.98112143 9.59570312,7.47395504 9.59570312,8.1328125 Z M14.8535156,5.2734375 L16.0097656,5.2734375 L16.0097656,8.375 C16.0097656,8.86718996 16.0240884,9.18619719 16.0527344,9.33203125 C16.1022138,9.56640742 16.2200512,9.75455658 16.40625,9.89648438 C16.5924488,10.0384122 16.8470036,10.109375 17.1699219,10.109375 C17.4980485,10.109375 17.7454419,10.0423184 17.9121094,9.90820312 C18.0787769,9.77408787 18.1790363,9.60937598 18.2128906,9.4140625 C18.246745,9.21874902 18.2636719,8.89453352 18.2636719,8.44140625 L18.2636719,5.2734375 L19.4199219,5.2734375 L19.4199219,8.28125 C19.4199219,8.96875344 19.3886722,9.45442566 19.3261719,9.73828125 C19.2636716,10.0221368 19.1484383,10.2617178 18.9804688,10.4570312 C18.8124992,10.6523447 18.587892,10.8079421 18.3066406,10.9238281 C18.0253892,11.0397141 17.6582054,11.0976562 17.2050781,11.0976562 C16.6582004,11.0976562 16.243491,11.0345058 15.9609375,10.9082031 C15.678384,10.7819004 15.4550789,10.6178396 15.2910156,10.4160156 C15.1269523,10.2141917 15.0188805,10.0026053 14.9667969,9.78125 C14.8912757,9.45312336 14.8535156,8.9687532 14.8535156,8.328125 L14.8535156,5.2734375 Z M21.9277344,11 L21.9277344,6.2421875 L20.2285156,6.2421875 L20.2285156,5.2734375 L24.7792969,5.2734375 L24.7792969,6.2421875 L23.0839844,6.2421875 L23.0839844,11 L21.9277344,11 Z" id="OUT" fill="#1D1D1D" fill-rule="nonzero"></path>
            </g>
            <g id="Out-Copy" transform="translate(33.000000, 42.000000)">
                <circle id="Oval-Copy-2" fill="#343633" cx="17" cy="31" r="15"></circle>
                <path d="M10.3789062,11 L10.3789062,5.2734375 L11.5351562,5.2734375 L11.5351562,11 L10.3789062,11 Z M12.6484375,11 L12.6484375,5.2734375 L13.7734375,5.2734375 L16.1171875,9.09765625 L16.1171875,5.2734375 L17.1914062,5.2734375 L17.1914062,11 L16.03125,11 L13.7226562,7.265625 L13.7226562,11 L12.6484375,11 Z M19.875,11 L17.828125,5.2734375 L19.0820312,5.2734375 L20.53125,9.51171875 L21.9335938,5.2734375 L23.1601562,5.2734375 L21.109375,11 L19.875,11 Z" id="INV" fill="#1D1D1D" fill-rule="nonzero"></path>
            </g>
            <g id="Retrig" transform="translate(33.000000, 0.000000)" fill="#343633" fill-rule="nonzero">
                <path d="M1.97460938,11 L1.97460938,5.2734375 L4.40820312,5.2734375 C5.02018535,5.2734375 5.46484236,5.32486928 5.7421875,5.42773438 C6.01953264,5.53059947 6.24153563,5.71354035 6.40820312,5.9765625 C6.57487062,6.23958465 6.65820312,6.54036289 6.65820312,6.87890625 C6.65820312,7.3085959 6.5319023,7.66341006 6.27929688,7.94335938 C6.02669145,8.22330869 5.64909105,8.39973922 5.14648438,8.47265625 C5.39648563,8.61849031 5.60286377,8.77864496 5.765625,8.953125 C5.92838623,9.12760504 6.14778508,9.43749777 6.42382812,9.8828125 L7.12304688,11 L5.74023438,11 L4.6992182,9.45080481 C4.51171812,9.17858783 4.37695354,8.99902387 4.29492188,8.91210938 C4.18554633,8.79622338 4.06966207,8.71679709 3.94726562,8.67382812 C3.84934847,8.63945295 3.70559961,8.61882806 3.51601608,8.6119531 L3.13085938,8.609375 L3.13085938,11 L1.97460938,11 Z M3.13085938,6.2421875 L3.13085938,7.6953125 L3.98632812,7.6953125 C4.5410184,7.6953125 4.8873691,7.67187523 5.02539062,7.625 C5.16341215,7.57812477 5.27148398,7.49739641 5.34960938,7.3828125 C5.42773477,7.26822859 5.46679688,7.12500086 5.46679688,6.953125 C5.46679688,6.7604157 5.4153651,6.6048183 5.3125,6.48632812 C5.2096349,6.36783795 5.06445406,6.29296891 4.87695312,6.26171875 L4.69238322,6.24981687 C4.57519613,6.24574786 4.41113406,6.24330647 4.20019597,6.24249267 L3.13085938,6.2421875 Z M7.74804688,11 L7.74804688,5.2734375 L11.9941406,5.2734375 L11.9941406,6.2421875 L8.90429688,6.2421875 L8.90429688,7.51171875 L11.7792969,7.51171875 L11.7792969,8.4765625 L8.90429688,8.4765625 L8.90429688,10.0351562 L12.1035156,10.0351562 L12.1035156,11 L7.74804688,11 Z M14.3730469,11 L14.3730469,6.2421875 L12.6738281,6.2421875 L12.6738281,5.2734375 L17.2246094,5.2734375 L17.2246094,6.2421875 L15.5292969,6.2421875 L15.5292969,11 L14.3730469,11 Z M17.9746094,11 L17.9746094,5.2734375 L20.4082031,5.2734375 C21.0201854,5.2734375 21.4648424,5.32486928 21.7421875,5.42773438 C22.0195326,5.53059947 22.2415356,5.71354035 22.4082031,5.9765625 C22.5748706,6.23958465 22.6582031,6.54036289 22.6582031,6.87890625 C22.6582031,7.3085959 22.5319023,7.66341006 22.2792969,7.94335938 C22.0266914,8.22330869 21.6490911,8.39973922 21.1464844,8.47265625 C21.3964856,8.61849031 21.6028638,8.77864496 21.765625,8.953125 C21.9283862,9.12760504 22.1477851,9.43749777 22.4238281,9.8828125 L23.1230469,11 L21.7402344,11 L20.6992182,9.45080481 C20.5117181,9.17858783 20.3769535,8.99902387 20.2949219,8.91210938 C20.1855463,8.79622338 20.0696621,8.71679709 19.9472656,8.67382812 C19.8493485,8.63945295 19.7055996,8.61882806 19.5160161,8.6119531 L19.1308594,8.609375 L19.1308594,11 L17.9746094,11 Z M19.1308594,6.2421875 L19.1308594,7.6953125 L19.9863281,7.6953125 C20.5410184,7.6953125 20.8873691,7.67187523 21.0253906,7.625 C21.1634121,7.57812477 21.271484,7.49739641 21.3496094,7.3828125 C21.4277348,7.26822859 21.4667969,7.12500086 21.4667969,6.953125 C21.4667969,6.7604157 21.4153651,6.6048183 21.3125,6.48632812 C21.2096349,6.36783795 21.0644541,6.29296891 20.8769531,6.26171875 L20.6923832,6.24981687 C20.5751961,6.24574786 20.4111341,6.24330647 20.200196,6.24249267 L19.1308594,6.2421875 Z M23.7128906,11 L23.7128906,5.2734375 L24.8691406,5.2734375 L24.8691406,11 L23.7128906,11 Z M28.6347656,8.89453125 L28.6347656,7.9296875 L31.1269531,7.9296875 L31.1269531,10.2109375 C30.8847644,10.4453137 30.5338565,10.6516918 30.0742188,10.8300781 C29.614581,11.0084644 29.1490909,11.0976562 28.6777344,11.0976562 C28.078773,11.0976562 27.5566429,10.9720065 27.1113281,10.7207031 C26.6660134,10.4693998 26.3313813,10.1100284 26.1074219,9.64257812 C25.8834624,9.17512787 25.7714844,8.66666941 25.7714844,8.1171875 C25.7714844,7.52083035 25.8964831,6.99088773 26.1464844,6.52734375 C26.3964856,6.06379977 26.7623674,5.70833457 27.2441406,5.4609375 C27.61133,5.27083238 28.0683566,5.17578125 28.6152344,5.17578125 C29.3261754,5.17578125 29.8815084,5.3248683 30.28125,5.62304688 C30.6809916,5.92122545 30.9381505,6.3333307 31.0527344,6.859375 L29.9042969,7.07421875 C29.8235673,6.79296734 29.6718761,6.57096436 29.4492188,6.40820312 C29.2265614,6.24544189 28.9485694,6.1640625 28.6152344,6.1640625 C28.1100235,6.1640625 27.7083348,6.32421715 27.4101562,6.64453125 C27.1119777,6.96484535 26.9628906,7.44010102 26.9628906,8.0703125 C26.9628906,8.7500034 27.1139308,9.25976393 27.4160156,9.59960938 C27.7181005,9.93945482 28.1139298,10.109375 28.6035156,10.109375 C28.8457043,10.109375 29.0885404,10.0618494 29.3320312,9.96679688 C29.5755221,9.87174432 29.7845043,9.75651109 29.9589844,9.62109375 L29.9589844,8.89453125 L28.6347656,8.89453125 Z" id="RETRIG"></path>
            </g>
            <g id="Gate" fill="#343633" fill-rule="nonzero">
                <path d="M8.93164062,8.89453125 L8.93164062,7.9296875 L11.4238281,7.9296875 L11.4238281,10.2109375 C11.1816394,10.4453137 10.8307315,10.6516918 10.3710938,10.8300781 C9.91145604,11.0084644 9.4459659,11.0976562 8.97460938,11.0976562 C8.37564805,11.0976562 7.85351785,10.9720065 7.40820312,10.7207031 C6.9628884,10.4693998 6.62825633,10.1100284 6.40429688,9.64257812 C6.18033742,9.17512787 6.06835938,8.66666941 6.06835938,8.1171875 C6.06835938,7.52083035 6.19335813,6.99088773 6.44335938,6.52734375 C6.69336063,6.06379977 7.05924238,5.70833457 7.54101562,5.4609375 C7.90820496,5.27083238 8.36523164,5.17578125 8.91210938,5.17578125 C9.62305043,5.17578125 10.1783834,5.3248683 10.578125,5.62304688 C10.9778666,5.92122545 11.2350255,6.3333307 11.3496094,6.859375 L10.2011719,7.07421875 C10.1204423,6.79296734 9.96875111,6.57096436 9.74609375,6.40820312 C9.52343639,6.24544189 9.24544437,6.1640625 8.91210938,6.1640625 C8.40689852,6.1640625 8.00520982,6.32421715 7.70703125,6.64453125 C7.40885268,6.96484535 7.25976562,7.44010102 7.25976562,8.0703125 C7.25976562,8.7500034 7.41080578,9.25976393 7.71289062,9.59960938 C8.01497547,9.93945482 8.41080484,10.109375 8.90039062,10.109375 C9.14257934,10.109375 9.38541545,10.0618494 9.62890625,9.96679688 C9.87239705,9.87174432 10.0813793,9.75651109 10.2558594,9.62109375 L10.2558594,8.89453125 L8.93164062,8.89453125 Z M17.6542969,11 L16.3964844,11 L15.8964844,9.69921875 L13.6074219,9.69921875 L13.1347656,11 L11.9082031,11 L14.1386719,5.2734375 L15.3613281,5.2734375 L17.6542969,11 Z M15.5253906,8.734375 L14.7363281,6.609375 L13.9628906,8.734375 L15.5253906,8.734375 Z M18.9628906,11 L18.9628906,6.2421875 L17.2636719,6.2421875 L17.2636719,5.2734375 L21.8144531,5.2734375 L21.8144531,6.2421875 L20.1191406,6.2421875 L20.1191406,11 L18.9628906,11 Z M22.5605469,11 L22.5605469,5.2734375 L26.8066406,5.2734375 L26.8066406,6.2421875 L23.7167969,6.2421875 L23.7167969,7.51171875 L26.5917969,7.51171875 L26.5917969,8.4765625 L23.7167969,8.4765625 L23.7167969,10.0351562 L26.9160156,10.0351562 L26.9160156,11 L22.5605469,11 Z" id="GATE"></path>
            </g>
        </g>
    </g>
</svg>