<?xml version="1.0" encoding="UTF-8"?>
<svg width="90px" height="380px" viewBox="0 0 90 380" version="1.1" xmlns="http://www.w3.org/2000/svg" xmlns:xlink="http://www.w3.org/1999/xlink">
    <!-- Generator: Sketch 58 (84663) - https://sketch.com -->
    <title>SuperVCA</title>
    <desc>Created with Sketch.</desc>
    <g id="SuperVCA" stroke="none" stroke-width="1" fill="none" fill-rule="evenodd">
        <g id="bg" fill-rule="nonzero">
            <g fill="#C5C6BF" id="Background">
                <rect x="0" y="0" width="90" height="380" rx="1"></rect>
            </g>
            <g id="Logo/Panel/LightMode" transform="translate(2.000000, 364.000000)" fill="#000000">
                <g id="Logo/Print/LightMode" transform="translate(0.000000, -0.000000)">
                    <path d="M1.95775432,2.21673387 L3.38562168,2.21673387 L3.38562168,4.9702621 L6.06699634,2.21673387 L7.94254488,2.21673387 L5.09623504,4.9702621 L8.08863032,8.90322581 L6.22250665,8.90322581 L4.0783494,5.98185484 L3.38562168,6.66683468 L3.38562168,8.90322581 L1.95775432,8.90322581 L1.95775432,2.21673387 Z M11.6276679,6.49899194 C11.5428437,6.55040348 11.4572353,6.59198573 11.3708403,6.62373992 C11.2844452,6.65549411 11.1658502,6.6849797 11.0150515,6.71219758 L10.7134558,6.76663306 C10.4307084,6.8150204 10.2280757,6.87399159 10.1055519,6.94354839 C9.89820375,7.06149253 9.79453125,7.24445441 9.79453125,7.49243952 C9.79453125,7.71320675 9.85814847,7.87273136 9.98538481,7.97101815 C10.1126211,8.06930493 10.2673445,8.11844758 10.4495595,8.11844758 C10.7385902,8.11844758 11.00484,8.03679517 11.248317,7.8734879 C11.4917939,7.71018064 11.618243,7.41230055 11.6276679,6.97983871 L11.6276679,6.49899194 Z M10.8124169,5.89566532 C11.0606051,5.86542324 11.2381062,5.82762119 11.3449219,5.78225806 C11.5365618,5.70362864 11.6323803,5.58115003 11.6323803,5.41481855 C11.6323803,5.21219657 11.5593383,5.07232901 11.4132522,4.99521169 C11.267166,4.91809437 11.0527524,4.87953629 10.770005,4.87953629 C10.4526995,4.87953629 10.2280758,4.95514037 10.096127,5.10635081 C10.0018779,5.21824653 9.93904603,5.36945469 9.90762965,5.55997984 L8.61171044,5.55997984 C8.63998518,5.127518 8.76564882,4.77217881 8.98870512,4.49395161 C9.34371022,4.05846556 9.95317886,3.84072581 10.8171293,3.84072581 C11.3794825,3.84072581 11.8789955,3.9480836 12.3156832,4.16280242 C12.7523709,4.37752123 12.9707114,4.78275912 12.9707114,5.37852823 L12.9707114,7.64667339 C12.9707114,7.80393224 12.973853,7.99445453 12.9801363,8.21824597 C12.9895612,8.38760165 13.0162647,8.50251986 13.0602477,8.56300403 C13.1042306,8.62348821 13.170204,8.6733869 13.2581699,8.71270161 L13.2581699,8.90322581 L11.7973155,8.90322581 C11.7564742,8.80342692 11.7281999,8.70967786 11.7124917,8.62197581 C11.6967835,8.53427376 11.6842171,8.43447637 11.6747922,8.32258065 C11.4894356,8.51613 11.2758074,8.6809469 11.0339013,8.81703629 C10.7448706,8.97731935 10.4181451,9.05745968 10.0537151,9.05745968 C9.58875266,9.05745968 9.20469317,8.92968878 8.9015251,8.67414315 C8.59835703,8.41859751 8.44677527,8.05645396 8.44677527,7.58770161 C8.44677527,6.97983567 8.69024856,6.53981991 9.17720246,6.26764113 C9.44424169,6.1194549 9.83694056,6.01360919 10.3553108,5.95010081 L10.8124169,5.89566532 Z M15.5012882,3.95866935 L15.5012882,6.9390121 C15.5012882,7.2202635 15.5358457,7.43195493 15.6049618,7.57409274 C15.7274857,7.82510206 15.9678174,7.95060484 16.3259641,7.95060484 C16.7846433,7.95060484 17.0988023,7.7721792 17.2684508,7.41532258 C17.3564167,7.22177323 17.4003989,6.96623143 17.4003989,6.64868952 L17.4003989,3.95866935 L18.7622922,3.95866935 L18.7622922,8.90322581 L17.4569481,8.90322581 L17.4569481,8.2046371 L17.4405489,8.22641125 C17.4238355,8.24969746 17.3978858,8.28780215 17.3626995,8.34072581 C17.3124333,8.41633102 17.252743,8.48286262 17.183627,8.54032258 C16.9731372,8.7217751 16.7697192,8.8457658 16.5733669,8.91229839 C16.3770145,8.97883098 16.1468929,9.01209677 15.8829953,9.01209677 C15.1227189,9.01209677 14.6106396,8.74899457 14.346742,8.22278226 C14.199085,7.93245823 14.1252576,7.50453912 14.1252576,6.9390121 L14.1252576,3.95866935 L15.5012882,3.95866935 Z M19.5304189,4.92489919 L19.5304189,4.00403226 L20.2467088,4.00403226 L20.2467088,2.625 L21.575615,2.625 L21.575615,4.00403226 L22.4097158,4.00403226 L22.4097158,4.92489919 L21.575615,4.92489919 L21.575615,7.53780242 C21.575615,7.7404244 21.6023185,7.86668322 21.6557264,7.91658266 C21.7091342,7.9664821 21.872497,7.99143145 22.1458195,7.99143145 C22.1866608,7.99143145 22.2298577,7.99067541 22.2754114,7.98916331 C22.3209652,7.9876512 22.3657328,7.98538308 22.4097158,7.98235887 L22.4097158,8.94858871 L21.7735372,8.97127016 C21.1389263,8.99243962 20.7053868,8.88659391 20.4729056,8.65372984 C20.322107,8.50554361 20.2467088,8.27721928 20.2467088,7.96875 L20.2467088,4.92489919 L19.5304189,4.92489919 Z M25.2984375,4.89314516 C24.9874153,4.89314516 24.7462982,4.98689422 24.575079,5.17439516 C24.4038597,5.3618961 24.2962602,5.61592582 24.2522773,5.93649194 L26.3398853,5.93649194 C26.3178938,5.59475636 26.2102944,5.33543435 26.0170836,5.15851815 C25.8238729,4.98160194 25.5843266,4.89314516 25.2984375,4.89314516 Z M25.2984375,3.82711694 C25.7257003,3.82711694 26.1105452,3.9042331 26.4529837,4.05846774 C26.7954223,4.21270238 27.0781654,4.45614753 27.3012217,4.78881048 C27.5022866,5.08215872 27.6326626,5.4223771 27.6923537,5.80947581 C27.7269117,6.03629146 27.7410489,6.36290109 27.7347656,6.78931452 L24.2192902,6.78931452 C24.2381401,7.28528474 24.399932,7.63306352 24.7046709,7.83266129 C24.8900275,7.95665385 25.1130805,8.01864919 25.3738364,8.01864919 C25.6503006,8.01864919 25.8749243,7.94304511 26.0477144,7.79183468 C26.1419636,7.71018104 26.2252157,7.59677492 26.2974734,7.4516129 L27.6687916,7.4516129 C27.6342335,7.74496114 27.4755832,8.04284123 27.1928358,8.3452621 C26.7530064,8.82611128 26.1372546,9.06653226 25.3455618,9.06653226 C24.6921011,9.06653226 24.1156192,8.86391332 23.6160987,8.45866935 C23.1165783,8.05342539 22.8668218,7.39415779 22.8668218,6.48084677 C22.8668218,5.62499572 23.092231,4.96875228 23.543056,4.51209677 C23.9938811,4.05544127 24.5790024,3.82711694 25.2984375,3.82711694 Z M31.4858627,3.84072581 C32.0167995,3.84072581 32.4511245,3.97454503 32.7888506,4.2421875 C33.1265767,4.50982997 33.2954372,4.95362593 33.2954372,5.57358871 L33.2954372,8.90322581 L31.9194066,8.90322581 L31.9194066,5.89566532 C31.9194066,5.63558338 31.8832783,5.4359886 31.8110206,5.296875 C31.6790718,5.04284147 31.4277445,4.91582661 31.0570313,4.91582661 C30.6014937,4.91582661 30.2889054,5.10181266 30.119257,5.47379032 C30.0312911,5.67036389 29.9873088,5.92136944 29.9873088,6.22681452 L29.9873088,8.90322581 L28.6489777,8.90322581 L28.6489777,3.96774194 L29.9448969,3.96774194 L29.9448969,4.6890121 C30.117687,4.43497857 30.2810498,4.25201669 30.43499,4.14012097 C30.7114542,3.9405232 31.0617416,3.84072581 31.4858627,3.84072581 Z M35.9391124,3.36895161 L34.5960688,3.36895161 L34.5960688,2.17590726 L35.9391124,2.17590726 L35.9391124,3.36895161 Z M33.9504654,10.8855847 L33.9504654,9.85131048 L34.0978762,9.86197785 L34.0978762,9.86197785 L34.1106882,9.86265121 C34.1421045,9.86416331 34.1703789,9.86491935 34.195512,9.86491935 C34.3274608,9.86491935 34.4272063,9.83392168 34.4947515,9.7719254 C34.5622967,9.70992913 34.5960688,9.58971863 34.5960688,9.41129032 L34.5960688,3.98135081 L35.9391124,3.98135081 L35.9391124,9.43397177 C35.9391124,9.9329662 35.8370107,10.3019141 35.6328042,10.5408266 C35.435185,10.7720322 35.0536827,10.8913625 34.4882863,10.8988206 L34.4311336,10.8991935 C34.4077958,10.8991935 34.3780467,10.8986998 34.341886,10.8977123 L34.0479841,10.8881768 C34.0170809,10.8873128 33.9845746,10.8864487 33.9504654,10.8855847 Z M40.0483544,6.49899194 C39.9635302,6.55040348 39.8779218,6.59198573 39.7915268,6.62373992 C39.7051317,6.65549411 39.5865367,6.6849797 39.435738,6.71219758 L39.1341423,6.76663306 C38.8513949,6.8150204 38.6487622,6.87399159 38.5262384,6.94354839 C38.3188903,7.06149253 38.2152178,7.24445441 38.2152178,7.49243952 C38.2152178,7.71320675 38.278835,7.87273136 38.4060713,7.97101815 C38.5333077,8.06930493 38.688031,8.11844758 38.870246,8.11844758 C39.1592767,8.11844758 39.4255265,8.03679517 39.6690035,7.8734879 C39.9124804,7.71018064 40.0389295,7.41230055 40.0483544,6.97983871 L40.0483544,6.49899194 Z M39.2331034,5.89566532 C39.4812916,5.86542324 39.6587927,5.82762119 39.7656084,5.78225806 C39.9572483,5.70362864 40.0530668,5.58115003 40.0530668,5.41481855 C40.0530668,5.21219657 39.9800248,5.07232901 39.8339387,4.99521169 C39.6878525,4.91809437 39.4734389,4.87953629 39.1906915,4.87953629 C38.873386,4.87953629 38.6487623,4.95514037 38.5168135,5.10635081 C38.4225644,5.21824653 38.3597325,5.36945469 38.3283162,5.55997984 L37.0323969,5.55997984 C37.0606717,5.127518 37.1863353,4.77217881 37.4093916,4.49395161 C37.7643967,4.05846556 38.3738654,3.84072581 39.2378158,3.84072581 C39.800169,3.84072581 40.299682,3.9480836 40.7363697,4.16280242 C41.1730574,4.37752123 41.3913979,4.78275912 41.3913979,5.37852823 L41.3913979,7.64667339 C41.3913979,7.80393224 41.3945395,7.99445453 41.4008228,8.21824597 C41.4102477,8.38760165 41.4369512,8.50251986 41.4809342,8.56300403 C41.5249171,8.62348821 41.5908905,8.6733869 41.6788564,8.71270161 L41.6788564,8.90322581 L40.218002,8.90322581 C40.1771607,8.80342692 40.1488864,8.70967786 40.1331782,8.62197581 C40.11747,8.53427376 40.1049036,8.43447637 40.0954787,8.32258065 C39.9101221,8.51613 39.6964939,8.6809469 39.4545878,8.81703629 C39.1655571,8.97731935 38.8388316,9.05745968 38.4744016,9.05745968 C38.0094392,9.05745968 37.6253797,8.92968878 37.3222116,8.67414315 C37.0190435,8.41859751 36.8674618,8.05645396 36.8674618,7.58770161 C36.8674618,6.97983567 37.1109351,6.53981991 37.597889,6.26764113 C37.8649282,6.1194549 38.2576271,6.01360919 38.7759973,5.95010081 L39.2331034,5.89566532 Z M44.1010472,3.37802419 L44.1010472,7.74193548 L45.4393783,7.74193548 C46.1242554,7.74193548 46.6017772,7.41683793 46.8719581,6.76663306 C47.0196151,6.40977644 47.0934425,5.9848815 47.0934425,5.49193548 C47.0934425,4.81148853 46.9827014,4.28906432 46.7612159,3.92464718 C46.5397304,3.56023003 46.0991223,3.37802419 45.4393783,3.37802419 L44.1010472,3.37802419 Z M45.6844249,2.21673387 C46.1148293,2.22278229 46.4729706,2.2711689 46.7588597,2.36189516 C47.2458136,2.5161298 47.6400833,2.79888907 47.9416805,3.21018145 C48.1835866,3.54284441 48.3485202,3.90271984 48.436486,4.28981855 C48.5244519,4.67691726 48.5684342,5.04586518 48.5684342,5.39667339 C48.5684342,6.28579074 48.3830803,7.0388074 48.012367,7.65574597 C47.5097049,8.48740335 46.733732,8.90322581 45.6844249,8.90322581 L42.6920296,8.90322581 L42.6920296,2.21673387 L45.6844249,2.21673387 Z M50.7125914,6.83921371 C50.7565744,7.14465879 50.8429681,7.37298311 50.9717753,7.52419355 C51.2073981,7.79939654 51.6110926,7.93699597 52.1828707,7.93699597 C52.5253092,7.93699597 52.80334,7.90070601 53.0169714,7.828125 C53.4222427,7.6890114 53.6248753,7.43044544 53.6248753,7.05241935 C53.6248753,6.83165212 53.5243444,6.6607869 53.3232796,6.53981855 C53.132268,6.42777162 52.8377712,6.32800817 52.4397811,6.24052551 L51.6409408,6.06804435 C50.9183641,5.9107855 50.4188511,5.73992028 50.142387,5.55544355 C49.6742829,5.24697426 49.4402344,4.76462022 49.4402344,4.10836694 C49.4402344,3.50957362 49.6664289,3.01209876 50.1188248,2.61592742 C50.5712207,2.21975608 51.2356672,2.02167339 52.1121842,2.02167339 C52.8441858,2.02167339 53.468577,2.20841547 53.9853765,2.58190524 C54.502176,2.95539501 54.7731382,3.49747629 54.7982713,4.20816532 L53.403391,4.20816532 C53.3782579,3.80594557 53.1960456,3.52016214 52.8567487,3.35080645 C52.6305507,3.23891073 52.3493783,3.18296371 52.0132231,3.18296371 C51.6393681,3.18296371 51.340917,3.25554363 51.1178607,3.40070565 C50.8948044,3.54586766 50.7832779,3.7484866 50.7832779,4.00856855 C50.7832779,4.23662137 50.8834648,4.40956118 51.0838415,4.52739263 L51.1131483,4.54385081 C51.248867,4.61933505 51.5322436,4.70736003 51.9632861,4.80792817 L53.2148936,5.09727823 C53.7395472,5.21824657 54.1353876,5.38003931 54.4024269,5.58266129 C54.8171231,5.89717899 55.0244681,6.35231557 55.0244681,6.94808468 C55.0244681,7.55897483 54.7817802,8.06627822 54.2963971,8.47001008 C53.811014,8.87374194 53.1253618,9.07560484 52.2394199,9.07560484 C51.3346281,9.07560484 50.6230578,8.8767661 50.1046875,8.47908266 C49.5863172,8.08139922 49.327136,7.5347817 49.327136,6.83921371 L50.7125914,6.83921371 Z M60.0102227,4.34425403 C60.0102227,3.99647004 59.9151896,3.74848864 59.7251205,3.60030242 C59.5350514,3.45211619 59.2688016,3.37802419 58.926363,3.37802419 L57.5738946,3.37802419 L57.5738946,5.34677419 L58.926363,5.34677419 C59.2688016,5.34677419 59.5350514,5.26663387 59.7251205,5.10635081 C59.9151896,4.94606775 60.0102227,4.69203803 60.0102227,4.34425403 Z M61.447515,4.33518145 C61.447515,5.12449991 61.24017,5.68245804 60.8254737,6.00907258 C60.4107775,6.33568712 59.8185876,6.49899194 59.0488863,6.49899194 L57.5738946,6.49899194 L57.5738946,8.90322581 L56.13189,8.90322581 L56.13189,2.21673387 L59.1572723,2.21673387 C59.8547159,2.21673387 60.4107775,2.38911118 60.8254737,2.73387097 C61.24017,3.07863076 61.447515,3.61239558 61.447515,4.33518145 Z" id="KautenjaDSP"></path>
                </g>
            </g>
            <path d="M25.1721191,12.2036133 L26.7121582,12.2036133 L26.2111816,15.0517578 L26.2111816,15.0981445 C26.2111816,15.2032883 26.2482906,15.2960608 26.3225098,15.3764648 C26.3967289,15.4568689 26.486409,15.4970703 26.5915527,15.4970703 L27.4450684,15.4970703 C27.5811367,15.4970703 27.7048334,15.4537765 27.8161621,15.3671875 C27.9336757,15.2744136 28.0048013,15.1630866 28.029541,15.0332031 L28.3635254,13.1591797 C28.3758952,13.1035153 28.3820801,13.0447594 28.3820801,12.9829102 C28.3820801,12.7708555 28.3002888,12.5042761 28.1367042,12.1831658 L26.4245605,8.97509766 L26.4245605,8.97509766 C26.1895333,8.51122815 26.0720215,8.05664285 26.0720215,7.61132812 L26.0720215,7.52783203 C26.0720215,7.42268828 26.0812987,7.31445368 26.0998535,7.203125 L26.4987793,4.90234375 C26.5606286,4.55598785 26.7338039,4.26839307 27.0183105,4.03955078 C27.2904473,3.81070849 27.6027814,3.69628906 27.9553223,3.69628906 L30.1818848,3.69628906 C30.503501,3.69628906 30.7818185,3.81380091 31.0168457,4.04882812 C31.2580578,4.28385534 31.3786621,4.57454254 31.3786621,4.92089844 C31.3786621,4.97450114 31.3759133,5.02123126 31.3704156,5.06108939 L30.7756348,8.38134766 L29.217041,8.38134766 L29.7087402,5.63525391 C29.7211101,5.61669913 29.7272949,5.59195979 29.7272949,5.56103516 C29.7272949,5.46826125 29.6870935,5.38167358 29.6066895,5.30126953 C29.5262854,5.23323534 29.4335129,5.19921875 29.3283691,5.19921875 L28.4748535,5.19921875 C28.3387851,5.19921875 28.2181809,5.24251259 28.1130371,5.32910156 C28.0078934,5.40950561 27.9429526,5.51155537 27.9182129,5.63525391 L27.6491699,7.11035156 C27.6306151,7.22168024 27.6213379,7.33609967 27.6213379,7.45361328 C27.6213379,7.88655815 27.7635891,8.33495862 28.0480957,8.79882812 L28.8311815,10.0946305 C29.3808802,11.0217341 29.6733978,11.56701 29.7087402,11.7304688 C29.8695483,12.0273452 29.9499512,12.352049 29.9499512,12.7045898 C29.9437662,12.8653979 29.9252117,13.0354809 29.8942871,13.2148438 L29.4211426,15.784668 C29.3592933,16.1310239 29.1892104,16.4217111 28.9108887,16.6567383 C28.632567,16.8855806 28.314048,17 27.9553223,17 L25.7380371,17 C25.410236,17 25.1350109,16.8824882 24.9123535,16.6474609 C24.6958811,16.4124337 24.5876465,16.1248389 24.5876465,15.784668 L24.5876465,15.5712891 L25.1721191,12.2036133 Z M32.6682129,3.69628906 L34.208252,3.69628906 L32.1672363,15.0703125 L32.1672363,15.1166992 C32.1672363,15.221843 32.2012529,15.3146155 32.2692871,15.3950195 C32.3496912,15.4754236 32.4424637,15.515625 32.5476074,15.515625 L33.401123,15.515625 C33.7227392,15.515625 33.9113767,15.3610042 33.967041,15.0517578 L36.0266113,3.69628906 L37.6037598,3.69628906 L35.3864746,15.8032227 C35.3246253,16.1433936 35.1545424,16.427896 34.8762207,16.6567383 C34.597899,16.8855806 34.27938,17 33.9206543,17 L31.6848145,17 C31.3693832,17 31.0972505,16.8824882 30.8684082,16.6474609 C30.6395659,16.4124337 30.5251465,16.1310238 30.5251465,15.8032227 L30.5251465,15.5712891 L32.6682129,3.69628906 Z M38.6706543,3.69628906 L42.1682129,3.69628906 C42.496014,3.69628906 42.777424,3.81689333 43.0124512,4.05810547 C43.2412935,4.28694776 43.3557129,4.5498032 43.3557129,4.84667969 C43.3557129,4.90028239 43.3515897,4.95800777 43.3433431,5.01985664 L42.4743652,9.82861328 C42.412516,10.1811541 42.2455254,10.4718413 41.9733887,10.7006836 C41.7012519,10.9295259 41.3889178,11.0439453 41.036377,11.0439453 L38.9489746,11.0439453 L37.8635254,17.0092773 L36.2585449,17.0092773 L38.6706543,3.69628906 Z M40.498291,9.54101562 C40.6343594,9.54101562 40.7549637,9.49772179 40.8601074,9.41113281 C40.9590662,9.33072876 41.0209146,9.22558659 41.0456543,9.09570312 L41.7043457,5.63525391 L41.7043457,5.57958984 C41.7043457,5.46826116 41.6672367,5.37548865 41.5930176,5.30126953 C41.5187985,5.23323534 41.4291184,5.19921875 41.3239746,5.19921875 L39.9973145,5.19921875 L39.1901855,9.54101562 L40.498291,9.54101562 Z M44.6916504,3.69628906 L48.3005371,3.69628906 L48.0407715,5.18066406 L46.0368652,5.18066406 L45.2854004,9.40185547 L47.2800293,9.40185547 L47.001709,10.8862305 L45.0163574,10.8862305 L44.1906738,15.515625 L46.1574707,15.515625 L45.8884277,17 L42.279541,17 L44.6916504,3.69628906 Z M47.0109863,17 L49.3952637,3.69628906 L52.967041,3.69628906 C53.2886572,3.69628906 53.5669747,3.81380091 53.802002,4.04882812 C54.0370292,4.27767042 54.1607258,4.55908036 54.1730957,4.89306641 L53.3937988,9.30908203 C53.2886551,9.89046515 52.9453968,10.2615552 52.3640137,10.4223633 C52.5804861,10.5027673 52.7443842,10.6450185 52.8557129,10.8491211 C52.9423019,11.0099292 52.9855957,11.1892894 52.9855957,11.387207 C52.9855957,11.4305015 52.9825033,11.4768878 52.9763184,11.5263672 L52.9721951,11.6830512 C52.9708207,11.7043547 52.9691027,11.723253 52.967041,11.7397461 L52.0021973,17 L50.3693848,17 L51.3435059,11.5541992 L51.3435059,11.5078125 C51.3435059,11.4026687 51.3063969,11.3129887 51.2321777,11.2387695 C51.1579586,11.1645504 51.0682785,11.1274414 50.9631348,11.1274414 L49.673584,11.1274414 L48.6345215,17 L47.0109863,17 Z M49.9611816,9.54101562 L51.2507324,9.54101562 C51.3868008,9.54101562 51.5074051,9.49462937 51.6125488,9.40185547 C51.7115077,9.31526649 51.773356,9.2070319 51.7980957,9.07714844 L52.4289551,5.63525391 L52.4289551,5.57958984 C52.4289551,5.46826116 52.3918461,5.37548865 52.317627,5.30126953 C52.2372229,5.23323534 52.141358,5.19921875 52.0300293,5.19921875 L50.7497559,5.19921875 L49.9611816,9.54101562 Z M57.986084,3.69628906 L59.498291,3.69628906 L59.0344238,13.2797852 L61.8547363,3.69628906 L63.5524902,3.69628906 L59.173584,17 L57.4758301,17 L57.986084,3.69628906 Z M67.782959,3.69628906 C68.1045752,3.69628906 68.3798003,3.81380091 68.6086426,4.04882812 C68.8436698,4.28385534 68.9611816,4.57145012 68.9611816,4.91162109 C68.9611816,4.96934708 68.9584328,5.01882604 68.9529351,5.06005858 L68.348877,8.42773438 L66.8088379,8.42773438 L67.3098145,5.63525391 L67.3098145,5.57958984 C67.3098145,5.46826116 67.2727054,5.37548865 67.1984863,5.30126953 C67.1242672,5.23323534 67.0314947,5.19921875 66.920166,5.19921875 L66.057373,5.19921875 C65.9274896,5.19921875 65.8068853,5.24251259 65.6955566,5.32910156 C65.5904129,5.40950561 65.5254721,5.51155537 65.5007324,5.63525391 L63.8029785,15.0517578 L63.8029785,15.0981445 C63.8029785,15.2032883 63.8400875,15.2960608 63.9143066,15.3764648 C63.9885258,15.4568689 64.0812983,15.4970703 64.192627,15.4970703 L65.0461426,15.4970703 C65.3677588,15.4970703 65.5563962,15.3424495 65.6120605,15.0332031 L66.1130371,12.25 L67.6623535,12.25 L67.0314941,15.784668 C66.9696449,16.1310239 66.7964695,16.4217111 66.5119629,16.6567383 C66.2336412,16.8855806 65.9182147,17 65.5656738,17 L63.3483887,17 C63.0205876,17 62.74227,16.8824882 62.5134277,16.6474609 C62.2845854,16.4062488 62.170166,16.118654 62.170166,15.784668 L62.170166,15.5527344 L64.0812988,4.90234375 C64.1431481,4.55598785 64.313231,4.26839307 64.5915527,4.03955078 C64.8698744,3.81070849 65.1822086,3.69628906 65.5285645,3.69628906 L67.782959,3.69628906 Z M73.5534668,3.69628906 L73.1359863,17 L71.6237793,17 L71.7351074,14.8105469 L69.916748,14.8105469 L69.267334,17 L67.5695801,17 L71.9577637,3.69628906 L73.5534668,3.69628906 Z M72.1062012,7.41650391 L70.3620605,13.3076172 L71.8093262,13.3076172 L72.1062012,7.41650391 Z" id="SuperVCA" fill="#FF5050"></path>
        </g>
        <g id="OUT" transform="translate(9.000000, 303.000000)">
            <g id="OUT-R" transform="translate(39.000000, 0.000000)" fill="#FF5050">
                <circle id="Oval" cx="15" cy="32" r="15"></circle>
                <path d="M10.4042969,8.171875 C10.4042969,7.58853875 10.4915356,7.09896031 10.6660156,6.703125 C10.7962246,6.41145687 10.9739572,6.14974074 11.1992188,5.91796875 C11.4244803,5.68619676 11.6712226,5.51432348 11.9394531,5.40234375 C12.2962257,5.25130133 12.70768,5.17578125 13.1738281,5.17578125 C14.0175823,5.17578125 14.6927058,5.43749738 15.1992188,5.9609375 C15.7057317,6.48437762 15.9589844,7.21223492 15.9589844,8.14453125 C15.9589844,9.06901504 15.7076848,9.7923151 15.2050781,10.3144531 C14.7024714,10.8365912 14.0306032,11.0976562 13.1894531,11.0976562 C12.3378864,11.0976562 11.6608098,10.8378932 11.1582031,10.3183594 C10.6555964,9.79882553 10.4042969,9.08333789 10.4042969,8.171875 Z M11.5957031,8.1328125 C11.5957031,8.78125324 11.7454412,9.27278479 12.0449219,9.60742188 C12.3444025,9.94205896 12.7246071,10.109375 13.1855469,10.109375 C13.6464867,10.109375 14.0247381,9.94336104 14.3203125,9.61132812 C14.6158869,9.27929521 14.7636719,8.78125332 14.7636719,8.1171875 C14.7636719,7.46093422 14.6197931,6.97135578 14.3320312,6.6484375 C14.0442694,6.32551922 13.6621118,6.1640625 13.1855469,6.1640625 C12.708982,6.1640625 12.3248713,6.32747232 12.0332031,6.65429688 C11.741535,6.98112143 11.5957031,7.47395504 11.5957031,8.1328125 Z M16.8535156,5.2734375 L18.0097656,5.2734375 L18.0097656,8.375 C18.0097656,8.86718996 18.0240884,9.18619719 18.0527344,9.33203125 C18.1022138,9.56640742 18.2200512,9.75455658 18.40625,9.89648438 C18.5924488,10.0384122 18.8470036,10.109375 19.1699219,10.109375 C19.4980485,10.109375 19.7454419,10.0423184 19.9121094,9.90820312 C20.0787769,9.77408787 20.1790363,9.60937598 20.2128906,9.4140625 C20.246745,9.21874902 20.2636719,8.89453352 20.2636719,8.44140625 L20.2636719,5.2734375 L21.4199219,5.2734375 L21.4199219,8.28125 C21.4199219,8.96875344 21.3886722,9.45442566 21.3261719,9.73828125 C21.2636716,10.0221368 21.1484383,10.2617178 20.9804688,10.4570312 C20.8124992,10.6523447 20.587892,10.8079421 20.3066406,10.9238281 C20.0253892,11.0397141 19.6582054,11.0976562 19.2050781,11.0976562 C18.6582004,11.0976562 18.243491,11.0345058 17.9609375,10.9082031 C17.678384,10.7819004 17.4550789,10.6178396 17.2910156,10.4160156 C17.1269523,10.2141917 17.0188805,10.0026053 16.9667969,9.78125 C16.8912757,9.45312336 16.8535156,8.9687532 16.8535156,8.328125 L16.8535156,5.2734375 Z M23.9277344,11 L23.9277344,6.2421875 L22.2285156,6.2421875 L22.2285156,5.2734375 L26.7792969,5.2734375 L26.7792969,6.2421875 L25.0839844,6.2421875 L25.0839844,11 L23.9277344,11 Z M32.1855469,5.2734375 C32.7975291,5.2734375 33.2421861,5.32486928 33.5195312,5.42773438 C33.7968764,5.53059947 34.0188794,5.71354035 34.1855469,5.9765625 C34.3522144,6.23958465 34.4355469,6.54036289 34.4355469,6.87890625 C34.4355469,7.3085959 34.3092461,7.66341006 34.0566406,7.94335938 C33.8040352,8.22330869 33.4264348,8.39973922 32.9238281,8.47265625 C33.1738294,8.61849031 33.3802075,8.77864496 33.5429688,8.953125 C33.70573,9.12760504 33.9251288,9.43749777 34.2011719,9.8828125 L34.9003906,11 L33.5175781,11 L32.476562,9.45080481 C32.2890619,9.17858783 32.1542973,8.99902387 32.0722656,8.91210938 C31.9628901,8.79622338 31.8470058,8.71679709 31.7246094,8.67382812 C31.6266922,8.63945295 31.4829434,8.61882806 31.2933598,8.6119531 L30.9082031,8.609375 L30.9082031,11 L29.7519531,11 L29.7519531,5.2734375 L32.1855469,5.2734375 Z M29.1074219,8.375 L29.1074219,9.47265625 L26.9511719,9.47265625 L26.9511719,8.375 L29.1074219,8.375 Z M30.9082031,6.2421875 L30.9082031,7.6953125 L31.9408524,7.69444445 C32.392757,7.68981486 32.6800486,7.66666688 32.8027344,7.625 C32.9407559,7.57812477 33.0488277,7.49739641 33.1269531,7.3828125 C33.2050785,7.26822859 33.2441406,7.12500086 33.2441406,6.953125 C33.2441406,6.7604157 33.1927088,6.6048183 33.0898438,6.48632812 C32.9869787,6.36783795 32.8417978,6.29296891 32.6542969,6.26171875 C32.6074216,6.2552083 32.5136722,6.25032549 32.3730476,6.24707029 L32.25879,6.24493406 L30.9082031,6.2421875 Z" fill-rule="nonzero"></path>
            </g>
            <g id="OUT-L" fill="#343633">
                <circle id="Oval-Copy" cx="15" cy="32" r="15"></circle>
                <path d="M10.8496094,8.171875 C10.8496094,7.58853875 10.9368481,7.09896031 11.1113281,6.703125 C11.2415371,6.41145687 11.4192697,6.14974074 11.6445312,5.91796875 C11.8697928,5.68619676 12.1165351,5.51432348 12.3847656,5.40234375 C12.7415382,5.25130133 13.1529925,5.17578125 13.6191406,5.17578125 C14.4628948,5.17578125 15.1380183,5.43749738 15.6445312,5.9609375 C16.1510442,6.48437762 16.4042969,7.21223492 16.4042969,8.14453125 C16.4042969,9.06901504 16.1529973,9.7923151 15.6503906,10.3144531 C15.1477839,10.8365912 14.4759157,11.0976562 13.6347656,11.0976562 C12.7831989,11.0976562 12.1061223,10.8378932 11.6035156,10.3183594 C11.1009089,9.79882553 10.8496094,9.08333789 10.8496094,8.171875 Z M12.0410156,8.1328125 C12.0410156,8.78125324 12.1907537,9.27278479 12.4902344,9.60742188 C12.789715,9.94205896 13.1699196,10.109375 13.6308594,10.109375 C14.0917992,10.109375 14.4700506,9.94336104 14.765625,9.61132812 C15.0611994,9.27929521 15.2089844,8.78125332 15.2089844,8.1171875 C15.2089844,7.46093422 15.0651056,6.97135578 14.7773438,6.6484375 C14.4895819,6.32551922 14.1074243,6.1640625 13.6308594,6.1640625 C13.1542945,6.1640625 12.7701838,6.32747232 12.4785156,6.65429688 C12.1868475,6.98112143 12.0410156,7.47395504 12.0410156,8.1328125 Z M17.2988281,5.2734375 L18.4550781,5.2734375 L18.4550781,8.375 C18.4550781,8.86718996 18.4694009,9.18619719 18.4980469,9.33203125 C18.5475263,9.56640742 18.6653637,9.75455658 18.8515625,9.89648438 C19.0377613,10.0384122 19.2923161,10.109375 19.6152344,10.109375 C19.943361,10.109375 20.1907544,10.0423184 20.3574219,9.90820312 C20.5240894,9.77408787 20.6243488,9.60937598 20.6582031,9.4140625 C20.6920575,9.21874902 20.7089844,8.89453352 20.7089844,8.44140625 L20.7089844,5.2734375 L21.8652344,5.2734375 L21.8652344,8.28125 C21.8652344,8.96875344 21.8339847,9.45442566 21.7714844,9.73828125 C21.7089841,10.0221368 21.5937508,10.2617178 21.4257812,10.4570312 C21.2578117,10.6523447 21.0332045,10.8079421 20.7519531,10.9238281 C20.4707017,11.0397141 20.1035179,11.0976562 19.6503906,11.0976562 C19.1035129,11.0976562 18.6888035,11.0345058 18.40625,10.9082031 C18.1236965,10.7819004 17.9003914,10.6178396 17.7363281,10.4160156 C17.5722648,10.2141917 17.464193,10.0026053 17.4121094,9.78125 C17.3365882,9.45312336 17.2988281,8.9687532 17.2988281,8.328125 L17.2988281,5.2734375 Z M24.3730469,11 L24.3730469,6.2421875 L22.6738281,6.2421875 L22.6738281,5.2734375 L27.2246094,5.2734375 L27.2246094,6.2421875 L25.5292969,6.2421875 L25.5292969,11 L24.3730469,11 Z M27.3964844,9.47265625 L27.3964844,8.375 L29.5527344,8.375 L29.5527344,9.47265625 L27.3964844,9.47265625 Z M30.2246094,11 L30.2246094,5.3203125 L31.3808594,5.3203125 L31.3808594,10.0351562 L34.2558594,10.0351562 L34.2558594,11 L30.2246094,11 Z" fill-rule="nonzero"></path>
            </g>
        </g>
        <g id="IN" transform="translate(8.000000, 227.000000)">
            <g id="IN-R" transform="translate(39.000000, 0.000000)" fill="#FF5050" fill-rule="nonzero">
                <path d="M17.5,26.5 L15.5,26.5 L15.5,29.5 L17.5,29.5 L17.5,26.5 Z M17.5,30.5 L15.5,30.5 L15.5,33.5 L17.5,33.5 L17.5,30.5 Z M17.5,34.5 L15.5,34.5 L15.5,37.5 L17.5,37.5 L17.5,34.5 Z M17.5,38.5 L15.5,38.5 L15.5,41.5 L17.5,41.5 L17.5,38.5 Z M17.5,42.5 L15.5,42.5 L15.5,45.5 L17.5,45.5 L17.5,42.5 Z M17.5,46.5 L15.5,46.5 L15.5,49.5 L17.5,49.5 L17.5,46.5 Z M17.5,50.5 L15.5,50.5 L15.5,53.5 L17.5,53.5 L17.5,50.5 Z M17.5,54.5 L15.5,54.5 L15.5,57.5 L17.5,57.5 L17.5,54.5 Z M17.5,58.5 L15.5,58.5 L15.5,61.5 L17.5,61.5 L17.5,58.5 Z" id="Line-Copy-7"></path>
                <path d="M8.82617188,11 L8.82617188,5.2734375 L9.98242188,5.2734375 L9.98242188,11 L8.82617188,11 Z M11.0957031,11 L11.0957031,5.2734375 L12.2207031,5.2734375 L14.5644531,9.09765625 L14.5644531,5.2734375 L15.6386719,5.2734375 L15.6386719,11 L14.4785156,11 L12.1699219,7.265625 L12.1699219,11 L11.0957031,11 Z M21.9628906,5.2734375 C22.5748729,5.2734375 23.0195299,5.32486928 23.296875,5.42773438 C23.5742201,5.53059947 23.7962231,5.71354035 23.9628906,5.9765625 C24.1295581,6.23958465 24.2128906,6.54036289 24.2128906,6.87890625 C24.2128906,7.3085959 24.0865898,7.66341006 23.8339844,7.94335938 C23.5813789,8.22330869 23.2037786,8.39973922 22.7011719,8.47265625 C22.9511731,8.61849031 23.1575513,8.77864496 23.3203125,8.953125 C23.4830737,9.12760504 23.7024726,9.43749777 23.9785156,9.8828125 L24.6777344,11 L23.2949219,11 L22.4589844,9.75390625 C22.1621079,9.30859152 21.9589849,9.02799537 21.8496094,8.91210938 C21.7402338,8.79622338 21.6243496,8.71679709 21.5019531,8.67382812 C21.404036,8.63945295 21.2602871,8.61882806 21.0707036,8.6119531 L20.6855469,8.609375 L20.6855469,11 L19.5292969,11 L19.5292969,5.2734375 L21.9628906,5.2734375 Z M18.8847656,8.375 L18.8847656,9.47265625 L16.7285156,9.47265625 L16.7285156,8.375 L18.8847656,8.375 Z M20.6855469,6.2421875 L20.6855469,7.6953125 L21.7181961,7.69444445 C22.1701008,7.68981486 22.4573923,7.66666688 22.5800781,7.625 C22.7180996,7.57812477 22.8261715,7.49739641 22.9042969,7.3828125 C22.9824223,7.26822859 23.0214844,7.12500086 23.0214844,6.953125 C23.0214844,6.7604157 22.9700526,6.6048183 22.8671875,6.48632812 C22.7643224,6.36783795 22.6191416,6.29296891 22.4316406,6.26171875 C22.3847654,6.2552083 22.291016,6.25032549 22.1503913,6.24707029 L22.0361337,6.24493406 L20.6855469,6.2421875 Z"></path>
            </g>
            <polygon id="Triangle-Copy-6" fill="#000000" transform="translate(36.000000, 27.000000) scale(1, -1) rotate(-270.000000) translate(-36.000000, -27.000000) " points="36 23.5 41 30.5 31 30.5"></polygon>
            <g id="IN-L" fill="#343633" fill-rule="nonzero">
                <path d="M17.5,26.5 L15.5,26.5 L15.5,29.5 L17.5,29.5 L17.5,26.5 Z M17.5,30.5 L15.5,30.5 L15.5,33.5 L17.5,33.5 L17.5,30.5 Z M17.5,34.5 L15.5,34.5 L15.5,37.5 L17.5,37.5 L17.5,34.5 Z M17.5,38.5 L15.5,38.5 L15.5,41.5 L17.5,41.5 L17.5,38.5 Z M17.5,42.5 L15.5,42.5 L15.5,45.5 L17.5,45.5 L17.5,42.5 Z M17.5,46.5 L15.5,46.5 L15.5,49.5 L17.5,49.5 L17.5,46.5 Z M17.5,50.5 L15.5,50.5 L15.5,53.5 L17.5,53.5 L17.5,50.5 Z M17.5,54.5 L15.5,54.5 L15.5,57.5 L17.5,57.5 L17.5,54.5 Z M17.5,58.5 L15.5,58.5 L15.5,61.5 L17.5,61.5 L17.5,58.5 Z" id="Line-Copy-5"></path>
                <path d="M9.27148438,11 L9.27148438,5.2734375 L10.4277344,5.2734375 L10.4277344,11 L9.27148438,11 Z M11.5410156,11 L11.5410156,5.2734375 L12.6660156,5.2734375 L15.0097656,9.09765625 L15.0097656,5.2734375 L16.0839844,5.2734375 L16.0839844,11 L14.9238281,11 L12.6152344,7.265625 L12.6152344,11 L11.5410156,11 Z M17.1738281,9.47265625 L17.1738281,8.375 L19.3300781,8.375 L19.3300781,9.47265625 L17.1738281,9.47265625 Z M20.0019531,11 L20.0019531,5.3203125 L21.1582031,5.3203125 L21.1582031,10.0351562 L24.0332031,10.0351562 L24.0332031,11 L20.0019531,11 Z"></path>
            </g>
        </g>
        <g id="MIX" transform="translate(7.000000, 142.000000)">
            <g id="MIX-R" transform="translate(38.000000, 0.000000)" fill="#FF5050" fill-rule="nonzero">
                <path d="M19,28 L17,28 L17,31 L19,31 L19,28 Z M19,32 L17,32 L17,35 L19,35 L19,32 Z M19,36 L17,36 L17,39 L19,39 L19,36 Z M19,40 L17,40 L17,43 L19,43 L19,40 Z M19,44 L17,44 L17,47 L19,47 L19,44 Z M19,48 L17,48 L17,51 L19,51 L19,48 Z M19,52 L17,52 L17,55 L19,55 L19,52 Z M19,56 L17,56 L17,59 L19,59 L19,56 Z M19,60 L17,60 L17,63 L19,63 L19,60 Z M19,64 L17,64 L17,67 L19,67 L19,64 Z M19,68 L17,68 L17,71 L19,71 L19,68 Z" id="Line"></path>
                <path d="M5.734375,11 L5.734375,5.2734375 L7.46484375,5.2734375 L8.50390625,9.1796875 L9.53125,5.2734375 L11.265625,5.2734375 L11.265625,11 L10.1914062,11 L10.1914062,6.4921875 L9.0546875,11 L7.94140625,11 L6.80859375,6.4921875 L6.80859375,11 L5.734375,11 Z M12.3789062,11 L12.3789062,5.2734375 L13.5351562,5.2734375 L13.5351562,11 L12.3789062,11 Z M14.0546875,11 L16.0117188,8.01171875 L14.2382812,5.2734375 L15.5898438,5.2734375 L16.7382812,7.11328125 L17.8632812,5.2734375 L19.203125,5.2734375 L17.421875,8.0546875 L19.3789062,11 L17.984375,11 L16.7148438,9.01953125 L15.4414062,11 L14.0546875,11 Z M25.0742188,5.2734375 C25.686201,5.2734375 26.130858,5.32486928 26.4082031,5.42773438 C26.6855483,5.53059947 26.9075513,5.71354035 27.0742188,5.9765625 C27.2408862,6.23958465 27.3242188,6.54036289 27.3242188,6.87890625 C27.3242188,7.3085959 27.1979179,7.66341006 26.9453125,7.94335938 C26.6927071,8.22330869 26.3151067,8.39973922 25.8125,8.47265625 C26.0625012,8.61849031 26.2688794,8.77864496 26.4316406,8.953125 C26.5711503,9.10267932 26.7522712,9.35172052 26.9750076,9.70025445 L27.7890625,11 L26.40625,11 L25.3652338,9.45080481 C25.1777337,9.17858783 25.0429692,8.99902387 24.9609375,8.91210938 C24.851562,8.79622338 24.7356777,8.71679709 24.6132812,8.67382812 C24.5153641,8.63945295 24.3716152,8.61882806 24.1820317,8.6119531 L23.796875,8.609375 L23.796875,11 L22.640625,11 L22.640625,5.2734375 L25.0742188,5.2734375 Z M21.9960938,8.375 L21.9960938,9.47265625 L19.8398438,9.47265625 L19.8398438,8.375 L21.9960938,8.375 Z M23.796875,6.2421875 L23.796875,7.6953125 L24.8295242,7.69444445 C25.2814289,7.68981486 25.5687205,7.66666688 25.6914062,7.625 C25.8294278,7.57812477 25.9374996,7.49739641 26.015625,7.3828125 C26.0937504,7.26822859 26.1328125,7.12500086 26.1328125,6.953125 C26.1328125,6.7604157 26.0813807,6.6048183 25.9785156,6.48632812 C25.8756505,6.36783795 25.7304697,6.29296891 25.5429688,6.26171875 C25.4960935,6.2552083 25.4023441,6.25032549 25.2617195,6.24707029 L25.1474618,6.24493406 L23.796875,6.2421875 Z"></path>
            </g>
            <polygon id="Triangle-Copy-7" fill="#000000" transform="translate(37.000000, 69.500000) scale(1, -1) rotate(-270.000000) translate(-37.000000, -69.500000) " points="37 66 42 73 32 73"></polygon>
            <g id="MIX-L" fill="#343633" fill-rule="nonzero">
                <path d="M18,26.5 L16,26.5 L16,29.5 L18,29.5 L18,26.5 Z M18,30.5 L16,30.5 L16,33.5 L18,33.5 L18,30.5 Z M18,34.5 L16,34.5 L16,37.5 L18,37.5 L18,34.5 Z M18,38.5 L16,38.5 L16,41.5 L18,41.5 L18,38.5 Z M18,42.5 L16,42.5 L16,45.5 L18,45.5 L18,42.5 Z M18,46.5 L16,46.5 L16,49.5 L18,49.5 L18,46.5 Z M18,50.5 L16,50.5 L16,53.5 L18,53.5 L18,50.5 Z M18,54.5 L16,54.5 L16,57.5 L18,57.5 L18,54.5 Z M18,58.5 L16,58.5 L16,61.5 L18,61.5 L18,58.5 Z M18,62.5 L16,62.5 L16,65.5 L18,65.5 L18,62.5 Z M18,66.5 L16,66.5 L16,69.5 L18,69.5 L18,66.5 Z" id="Line-Copy"></path>
                <path d="M6.1796875,11 L6.1796875,5.2734375 L7.91015625,5.2734375 L8.94921875,9.1796875 L9.9765625,5.2734375 L11.7109375,5.2734375 L11.7109375,11 L10.6367188,11 L10.6367188,6.4921875 L9.5,11 L8.38671875,11 L7.25390625,6.4921875 L7.25390625,11 L6.1796875,11 Z M12.8242188,11 L12.8242188,5.2734375 L13.9804688,5.2734375 L13.9804688,11 L12.8242188,11 Z M14.5,11 L16.4570312,8.01171875 L14.6835938,5.2734375 L16.0351562,5.2734375 L17.1835938,7.11328125 L18.3085938,5.2734375 L19.6484375,5.2734375 L17.8671875,8.0546875 L19.8242188,11 L18.4296875,11 L17.1601562,9.01953125 L15.8867188,11 L14.5,11 Z M20.2851562,9.47265625 L20.2851562,8.375 L22.4414062,8.375 L22.4414062,9.47265625 L20.2851562,9.47265625 Z M23.1132812,11 L23.1132812,5.3203125 L24.2695312,5.3203125 L24.2695312,10.0351562 L27.1445312,10.0351562 L27.1445312,11 L23.1132812,11 Z"></path>
            </g>
        </g>
        <g id="FREQ" transform="translate(9.000000, 58.000000)">
            <g id="FREQ-R" transform="translate(32.000000, 0.000000)" fill="#FF5050">
                <path d="M23,27 L21,27 L21,30 L23,30 L23,27 Z M23,31 L21,31 L21,34 L23,34 L23,31 Z M23,35 L21,35 L21,38 L23,38 L23,35 Z M23,39 L21,39 L21,42 L23,42 L23,39 Z M23,43 L21,43 L21,46 L23,46 L23,43 Z M23,47 L21,47 L21,50 L23,50 L23,47 Z M23,51 L21,51 L21,54 L23,54 L23,51 Z M23,55 L21,55 L21,58 L23,58 L23,55 Z M23,59 L21,59 L21,62 L23,62 L23,59 Z M23,63 L21,63 L21,66 L23,66 L23,63 Z M23,67 L21,67 L21,70 L23,70 L23,67 Z" id="Line" fill-rule="nonzero"></path>
                <text font-family="Arial-BoldMT, Arial" font-size="8" font-weight="bold">
                    <tspan x="7.66796875" y="7">FREQ-R</tspan>
                </text>
            </g>
            <polygon id="Triangle-Copy-7" fill="#000000" transform="translate(35.000000, 67.500000) scale(1, -1) rotate(-270.000000) translate(-35.000000, -67.500000) " points="35 64 40 71 30 71"></polygon>
            <g id="FREQ-L" fill="#343633">
                <path d="M16,27 L14,27 L14,30 L16,30 L16,27 Z M16,31 L14,31 L14,34 L16,34 L16,31 Z M16,35 L14,35 L14,38 L16,38 L16,35 Z M16,39 L14,39 L14,42 L16,42 L16,39 Z M16,43 L14,43 L14,46 L16,46 L16,43 Z M16,47 L14,47 L14,50 L16,50 L16,47 Z M16,51 L14,51 L14,54 L16,54 L16,51 Z M16,55 L14,55 L14,58 L16,58 L16,55 Z M16,59 L14,59 L14,62 L16,62 L16,59 Z M16,63 L14,63 L14,66 L16,66 L16,63 Z M16,67 L14,67 L14,70 L16,70 L16,67 Z" id="Line" fill-rule="nonzero"></path>
                <text font-family="Arial-BoldMT, Arial" font-size="8" font-weight="bold">
                    <tspan x="1.61328125" y="7">FREQ-L</tspan>
                </text>
            </g>
        </g>
        <g id="Filter-Mode" transform="translate(43.000000, 16.000000)" fill="#000000" fill-rule="nonzero">
            <path d="M8.88867188,11 L8.88867188,5.2734375 L12.8144531,5.2734375 L12.8144531,6.2421875 L10.0449219,6.2421875 L10.0449219,7.59765625 L12.4355469,7.59765625 L12.4355469,8.56640625 L10.0449219,8.56640625 L10.0449219,11 L8.88867188,11 Z M13.7324219,11 L13.7324219,5.2734375 L14.8886719,5.2734375 L14.8886719,11 L13.7324219,11 Z M16.0214844,11 L16.0214844,5.3203125 L17.1777344,5.3203125 L17.1777344,10.0351562 L20.0527344,10.0351562 L20.0527344,11 L16.0214844,11 Z M21.5722656,11 L21.5722656,6.2421875 L19.8730469,6.2421875 L19.8730469,5.2734375 L24.4238281,5.2734375 L24.4238281,6.2421875 L22.7285156,6.2421875 L22.7285156,11 L21.5722656,11 Z M29.4160156,5.2734375 L29.4160156,6.2421875 L26.3261719,6.2421875 L26.3261719,7.51171875 L29.2011719,7.51171875 L29.2011719,8.4765625 L26.3261719,8.4765625 L26.3261719,10.0351562 L29.5253906,10.0351562 L29.5253906,11 L25.1699219,11 L25.1699219,5.2734375 L29.4160156,5.2734375 Z M32.9433594,5.2734375 C33.5553416,5.2734375 33.9999986,5.32486928 34.2773438,5.42773438 C34.5546889,5.53059947 34.7766919,5.71354035 34.9433594,5.9765625 C35.1100269,6.23958465 35.1933594,6.54036289 35.1933594,6.87890625 C35.1933594,7.3085959 35.0670586,7.66341006 34.8144531,7.94335938 C34.5618477,8.22330869 34.1842473,8.39973922 33.6816406,8.47265625 C33.9316419,8.61849031 34.13802,8.77864496 34.3007812,8.953125 C34.4402909,9.10267932 34.6214118,9.35172052 34.8441482,9.70025445 L35.6582031,11 L34.2753906,11 L33.2343745,9.45080481 C33.0468744,9.17858783 32.9121098,8.99902387 32.8300781,8.91210938 C32.7207026,8.79622338 32.6048183,8.71679709 32.4824219,8.67382812 C32.3845047,8.63945295 32.2407559,8.61882806 32.0511723,8.6119531 L31.6660156,8.609375 L31.6660156,11 L30.5097656,11 L30.5097656,5.2734375 L32.9433594,5.2734375 Z M31.6660156,6.2421875 L31.6660156,7.6953125 L32.6986649,7.69444445 C33.1505695,7.68981486 33.4378611,7.66666688 33.5605469,7.625 C33.6985684,7.57812477 33.8066402,7.49739641 33.8847656,7.3828125 C33.962891,7.26822859 34.0019531,7.12500086 34.0019531,6.953125 C34.0019531,6.7604157 33.9505213,6.6048183 33.8476562,6.48632812 C33.7447912,6.36783795 33.5996103,6.29296891 33.4121094,6.26171875 C33.3652341,6.2552083 33.2714847,6.25032549 33.1308601,6.24707029 L33.0166025,6.24493406 L31.6660156,6.2421875 Z" id="FILTER"></path>
        </g>
        <g id="Bypass" transform="translate(3.000000, 16.000000)" fill="#000000" fill-rule="nonzero">
            <path d="M6,10.8242188 L6,5.09765625 L8.2890625,5.09765625 C8.74218977,5.09765625 9.08007701,5.11653627 9.30273438,5.15429688 C9.52539174,5.19205748 9.7246085,5.27083273 9.90039062,5.390625 C10.0761728,5.51041727 10.2226557,5.66992088 10.3398438,5.86914062 C10.4570318,6.06836037 10.515625,6.29166543 10.515625,6.5390625 C10.515625,6.80729301 10.4433601,7.0533843 10.2988281,7.27734375 C10.1542962,7.5013032 9.95833457,7.66927027 9.7109375,7.78125 C10.0598976,7.88281301 10.3281241,8.05598836 10.515625,8.30078125 C10.7031259,8.54557414 10.796875,8.83333168 10.796875,9.1640625 C10.796875,9.42448047 10.7363287,9.67773314 10.6152344,9.92382812 C10.49414,10.1699231 10.3287771,10.3665357 10.1191406,10.5136719 C9.90950416,10.660808 9.6510432,10.7513019 9.34375,10.7851562 L9.19546873,10.7967188 C8.95421931,10.8108855 8.53880503,10.8200521 7.94921875,10.8242188 L6,10.8242188 Z M7.15625,6.05078125 L7.15625,7.375 L8.34893883,7.37225344 C8.55055808,7.36920169 8.68554653,7.36360681 8.75390625,7.35546875 C8.95182391,7.33203113 9.10742131,7.26367244 9.22070312,7.15039062 C9.33398494,7.03710881 9.390625,6.88802176 9.390625,6.703125 C9.390625,6.52604078 9.34179736,6.38216201 9.24414062,6.27148438 C9.14648389,6.16080674 9.00130305,6.09375012 8.80859375,6.0703125 C8.70674139,6.05873837 8.435139,6.05230837 7.99377963,6.05102237 L7.15625,6.05078125 Z M7.15625,8.328125 L7.15625,9.859375 L8.2265625,9.859375 C8.64323125,9.859375 8.90755152,9.84765637 9.01953125,9.82421875 C9.19140711,9.79296859 9.33137967,9.71679748 9.43945312,9.59570312 C9.54752658,9.47460877 9.6015625,9.31250102 9.6015625,9.109375 C9.6015625,8.93749914 9.55989625,8.79166727 9.4765625,8.671875 C9.39322875,8.55208273 9.27278725,8.46484402 9.11523438,8.41015625 C8.9576815,8.35546848 8.61588805,8.328125 8.08984375,8.328125 L7.15625,8.328125 Z M13.2773438,10.8242188 L13.2773438,8.4140625 L11.1796875,5.09765625 L12.5351562,5.09765625 L13.8828125,7.36328125 L15.203125,5.09765625 L16.5351562,5.09765625 L14.4296875,8.421875 L14.4296875,10.8242188 L13.2773438,10.8242188 Z M17.109375,10.8242188 L17.109375,5.09765625 L18.9648438,5.09765625 C19.6679723,5.09765625 20.126301,5.1263018 20.3398438,5.18359375 C20.6679704,5.26953168 20.9427072,5.45637877 21.1640625,5.74414062 C21.3854178,6.03190248 21.4960938,6.40364355 21.4960938,6.859375 C21.4960938,7.21093926 21.4322923,7.50650922 21.3046875,7.74609375 C21.1770827,7.98567828 21.0149749,8.17382744 20.8183594,8.31054688 C20.6217438,8.44726631 20.421876,8.5377602 20.21875,8.58203125 C19.9821417,8.62890648 19.6546572,8.65569203 19.236289,8.66238841 L18.265625,8.6640625 L18.265625,10.8242188 L17.109375,10.8242188 Z M18.265625,6.06640625 L18.265625,7.69140625 L18.8984375,7.69140625 L19.2119149,7.68579106 C19.4970713,7.67456066 19.697265,7.6464846 19.8125,7.6015625 C19.9661466,7.54166637 20.0865881,7.4479173 20.1738281,7.3203125 C20.2610681,7.1927077 20.3046875,7.04427168 20.3046875,6.875 C20.3046875,6.66666563 20.2434902,6.49479234 20.1210938,6.359375 C19.9986973,6.22395766 19.8437509,6.13932309 19.65625,6.10546875 C19.5379458,6.08314721 19.3172845,6.07039219 18.9942608,6.06720344 L18.265625,6.06640625 Z M27.015625,10.8242188 L25.7578125,10.8242188 L25.2578125,9.5234375 L22.96875,9.5234375 L22.4960938,10.8242188 L21.2695312,10.8242188 L23.5,5.09765625 L24.7226562,5.09765625 L27.015625,10.8242188 Z M24.8867188,8.55859375 L24.0976562,6.43359375 L23.3242188,8.55859375 L24.8867188,8.55859375 Z M27.3359375,8.9609375 L28.4609375,8.8515625 C28.5286462,9.22916855 28.6660146,9.50650953 28.8730469,9.68359375 C29.0800792,9.86067797 29.3593732,9.94921875 29.7109375,9.94921875 C30.0833352,9.94921875 30.3639313,9.8704435 30.5527344,9.71289062 C30.7415374,9.55533775 30.8359375,9.3710948 30.8359375,9.16015625 C30.8359375,9.02473891 30.7962244,8.90950568 30.7167969,8.81445312 C30.6373694,8.71940057 30.4986989,8.6367191 30.3007812,8.56640625 C30.1653639,8.51953102 29.8567732,8.43619852 29.375,8.31640625 C28.7552052,8.16275965 28.3203137,7.97395945 28.0703125,7.75 C27.7187482,7.43489426 27.5429688,7.05078352 27.5429688,6.59765625 C27.5429688,6.30598812 27.6256502,6.03320439 27.7910156,5.77929688 C27.956381,5.52538936 28.1946599,5.33203191 28.5058594,5.19921875 C28.8170588,5.06640559 29.1927061,5 29.6328125,5 C30.3515661,5 30.8925763,5.15755051 31.2558594,5.47265625 C31.6191424,5.78776199 31.8098957,6.2083307 31.828125,6.734375 L30.671875,6.78515625 C30.6223956,6.49088395 30.5162769,6.27929752 30.3535156,6.15039062 C30.1907544,6.02148373 29.9466162,5.95703125 29.6210938,5.95703125 C29.2851546,5.95703125 29.0221364,6.02604098 28.8320312,6.1640625 C28.7096348,6.25260461 28.6484375,6.37109301 28.6484375,6.51953125 C28.6484375,6.65494859 28.7057286,6.77083285 28.8203125,6.8671875 C28.9499428,6.97598434 29.2441787,7.08889492 29.7030278,7.20592191 L29.8828125,7.25 C30.4453153,7.38281316 30.8613268,7.52018158 31.1308594,7.66210938 C31.400392,7.80403717 31.6113274,7.99804564 31.7636719,8.24414062 C31.9160164,8.49023561 31.9921875,8.79426902 31.9921875,9.15625 C31.9921875,9.48437664 31.9010426,9.79166523 31.71875,10.078125 C31.5364574,10.3645848 31.2786475,10.5774733 30.9453125,10.7167969 C30.6119775,10.8561205 30.1966171,10.9257812 29.6992188,10.9257812 C28.9752568,10.9257812 28.4192728,10.7584652 28.03125,10.4238281 C27.6432272,10.089191 27.4114587,9.6015657 27.3359375,8.9609375 Z M32.671875,8.9609375 L33.796875,8.8515625 C33.8645837,9.22916855 34.0019521,9.50650953 34.2089844,9.68359375 C34.4160167,9.86067797 34.6953107,9.94921875 35.046875,9.94921875 C35.4192727,9.94921875 35.6998688,9.8704435 35.8886719,9.71289062 C36.0774749,9.55533775 36.171875,9.3710948 36.171875,9.16015625 C36.171875,9.02473891 36.1321619,8.90950568 36.0527344,8.81445312 C35.9733069,8.71940057 35.8346364,8.6367191 35.6367188,8.56640625 C35.5013014,8.51953102 35.1927107,8.43619852 34.7109375,8.31640625 C34.0911427,8.16275965 33.6562512,7.97395945 33.40625,7.75 C33.0546857,7.43489426 32.8789062,7.05078352 32.8789062,6.59765625 C32.8789062,6.30598812 32.9615877,6.03320439 33.1269531,5.77929688 C33.2923185,5.52538936 33.5305974,5.33203191 33.8417969,5.19921875 C34.1529963,5.06640559 34.5286436,5 34.96875,5 C35.6875036,5 36.2285138,5.15755051 36.5917969,5.47265625 C36.9550799,5.78776199 37.1458332,6.2083307 37.1640625,6.734375 L36.0078125,6.78515625 C35.9583331,6.49088395 35.8522144,6.27929752 35.6894531,6.15039062 C35.5266919,6.02148373 35.2825537,5.95703125 34.9570312,5.95703125 C34.6210921,5.95703125 34.3580739,6.02604098 34.1679688,6.1640625 C34.0455723,6.25260461 33.984375,6.37109301 33.984375,6.51953125 C33.984375,6.65494859 34.0416661,6.77083285 34.15625,6.8671875 C34.2858803,6.97598434 34.5801162,7.08889492 35.0389653,7.20592191 L35.21875,7.25 C35.7812528,7.38281316 36.1972643,7.52018158 36.4667969,7.66210938 C36.7363295,7.80403717 36.9472649,7.99804564 37.0996094,8.24414062 C37.2519539,8.49023561 37.328125,8.79426902 37.328125,9.15625 C37.328125,9.48437664 37.2369801,9.79166523 37.0546875,10.078125 C36.8723949,10.3645848 36.614585,10.5774733 36.28125,10.7167969 C35.947915,10.8561205 35.5325546,10.9257812 35.0351562,10.9257812 C34.3111943,10.9257812 33.7552103,10.7584652 33.3671875,10.4238281 C32.9791647,10.089191 32.7473962,9.6015657 32.671875,8.9609375 Z" id="BYPASS"></path>
        </g>
    </g>
</svg>