<?xml version="1.0" encoding="UTF-8"?>
<svg width="240px" height="380px" viewBox="0 0 240 380" version="1.1" xmlns="http://www.w3.org/2000/svg" xmlns:xlink="http://www.w3.org/1999/xlink">
    <!-- Generator: Sketch 58 (84663) - https://sketch.com -->
    <title>SuperEcho</title>
    <desc>Created with Sketch.</desc>
    <g id="SuperEcho" stroke="none" stroke-width="1" fill="none" fill-rule="evenodd">
        <g id="bg" fill-rule="nonzero">
            <g fill="#C5C6BF" id="Background">
                <rect x="0" y="0" width="240" height="380" rx="1"></rect>
            </g>
            <g id="Logo/Panel/LightMode" transform="translate(73.000000, 364.000000)" fill="#000000">
                <g id="Logo/Print/LightMode" transform="translate(0.000000, -0.000000)">
                    <path d="M1.95775432,2.21673387 L3.38562168,2.21673387 L3.38562168,4.9702621 L6.06699634,2.21673387 L7.94254488,2.21673387 L5.09623504,4.9702621 L8.08863032,8.90322581 L6.22250665,8.90322581 L4.0783494,5.98185484 L3.38562168,6.66683468 L3.38562168,8.90322581 L1.95775432,8.90322581 L1.95775432,2.21673387 Z M11.6276679,6.49899194 C11.5428437,6.55040348 11.4572353,6.59198573 11.3708403,6.62373992 C11.2844452,6.65549411 11.1658502,6.6849797 11.0150515,6.71219758 L10.7134558,6.76663306 C10.4307084,6.8150204 10.2280757,6.87399159 10.1055519,6.94354839 C9.89820375,7.06149253 9.79453125,7.24445441 9.79453125,7.49243952 C9.79453125,7.71320675 9.85814847,7.87273136 9.98538481,7.97101815 C10.1126211,8.06930493 10.2673445,8.11844758 10.4495595,8.11844758 C10.7385902,8.11844758 11.00484,8.03679517 11.248317,7.8734879 C11.4917939,7.71018064 11.618243,7.41230055 11.6276679,6.97983871 L11.6276679,6.49899194 Z M10.8124169,5.89566532 C11.0606051,5.86542324 11.2381062,5.82762119 11.3449219,5.78225806 C11.5365618,5.70362864 11.6323803,5.58115003 11.6323803,5.41481855 C11.6323803,5.21219657 11.5593383,5.07232901 11.4132522,4.99521169 C11.267166,4.91809437 11.0527524,4.87953629 10.770005,4.87953629 C10.4526995,4.87953629 10.2280758,4.95514037 10.096127,5.10635081 C10.0018779,5.21824653 9.93904603,5.36945469 9.90762965,5.55997984 L8.61171044,5.55997984 C8.63998518,5.127518 8.76564882,4.77217881 8.98870512,4.49395161 C9.34371022,4.05846556 9.95317886,3.84072581 10.8171293,3.84072581 C11.3794825,3.84072581 11.8789955,3.9480836 12.3156832,4.16280242 C12.7523709,4.37752123 12.9707114,4.78275912 12.9707114,5.37852823 L12.9707114,7.64667339 C12.9707114,7.80393224 12.973853,7.99445453 12.9801363,8.21824597 C12.9895612,8.38760165 13.0162647,8.50251986 13.0602477,8.56300403 C13.1042306,8.62348821 13.170204,8.6733869 13.2581699,8.71270161 L13.2581699,8.90322581 L11.7973155,8.90322581 C11.7564742,8.80342692 11.7281999,8.70967786 11.7124917,8.62197581 C11.6967835,8.53427376 11.6842171,8.43447637 11.6747922,8.32258065 C11.4894356,8.51613 11.2758074,8.6809469 11.0339013,8.81703629 C10.7448706,8.97731935 10.4181451,9.05745968 10.0537151,9.05745968 C9.58875266,9.05745968 9.20469317,8.92968878 8.9015251,8.67414315 C8.59835703,8.41859751 8.44677527,8.05645396 8.44677527,7.58770161 C8.44677527,6.97983567 8.69024856,6.53981991 9.17720246,6.26764113 C9.44424169,6.1194549 9.83694056,6.01360919 10.3553108,5.95010081 L10.8124169,5.89566532 Z M15.5012882,3.95866935 L15.5012882,6.9390121 C15.5012882,7.2202635 15.5358457,7.43195493 15.6049618,7.57409274 C15.7274857,7.82510206 15.9678174,7.95060484 16.3259641,7.95060484 C16.7846433,7.95060484 17.0988023,7.7721792 17.2684508,7.41532258 C17.3564167,7.22177323 17.4003989,6.96623143 17.4003989,6.64868952 L17.4003989,3.95866935 L18.7622922,3.95866935 L18.7622922,8.90322581 L17.4569481,8.90322581 L17.4569481,8.2046371 L17.4405489,8.22641125 C17.4238355,8.24969746 17.3978858,8.28780215 17.3626995,8.34072581 C17.3124333,8.41633102 17.252743,8.48286262 17.183627,8.54032258 C16.9731372,8.7217751 16.7697192,8.8457658 16.5733669,8.91229839 C16.3770145,8.97883098 16.1468929,9.01209677 15.8829953,9.01209677 C15.1227189,9.01209677 14.6106396,8.74899457 14.346742,8.22278226 C14.199085,7.93245823 14.1252576,7.50453912 14.1252576,6.9390121 L14.1252576,3.95866935 L15.5012882,3.95866935 Z M19.5304189,4.92489919 L19.5304189,4.00403226 L20.2467088,4.00403226 L20.2467088,2.625 L21.575615,2.625 L21.575615,4.00403226 L22.4097158,4.00403226 L22.4097158,4.92489919 L21.575615,4.92489919 L21.575615,7.53780242 C21.575615,7.7404244 21.6023185,7.86668322 21.6557264,7.91658266 C21.7091342,7.9664821 21.872497,7.99143145 22.1458195,7.99143145 C22.1866608,7.99143145 22.2298577,7.99067541 22.2754114,7.98916331 C22.3209652,7.9876512 22.3657328,7.98538308 22.4097158,7.98235887 L22.4097158,8.94858871 L21.7735372,8.97127016 C21.1389263,8.99243962 20.7053868,8.88659391 20.4729056,8.65372984 C20.322107,8.50554361 20.2467088,8.27721928 20.2467088,7.96875 L20.2467088,4.92489919 L19.5304189,4.92489919 Z M25.2984375,4.89314516 C24.9874153,4.89314516 24.7462982,4.98689422 24.575079,5.17439516 C24.4038597,5.3618961 24.2962602,5.61592582 24.2522773,5.93649194 L26.3398853,5.93649194 C26.3178938,5.59475636 26.2102944,5.33543435 26.0170836,5.15851815 C25.8238729,4.98160194 25.5843266,4.89314516 25.2984375,4.89314516 Z M25.2984375,3.82711694 C25.7257003,3.82711694 26.1105452,3.9042331 26.4529837,4.05846774 C26.7954223,4.21270238 27.0781654,4.45614753 27.3012217,4.78881048 C27.5022866,5.08215872 27.6326626,5.4223771 27.6923537,5.80947581 C27.7269117,6.03629146 27.7410489,6.36290109 27.7347656,6.78931452 L24.2192902,6.78931452 C24.2381401,7.28528474 24.399932,7.63306352 24.7046709,7.83266129 C24.8900275,7.95665385 25.1130805,8.01864919 25.3738364,8.01864919 C25.6503006,8.01864919 25.8749243,7.94304511 26.0477144,7.79183468 C26.1419636,7.71018104 26.2252157,7.59677492 26.2974734,7.4516129 L27.6687916,7.4516129 C27.6342335,7.74496114 27.4755832,8.04284123 27.1928358,8.3452621 C26.7530064,8.82611128 26.1372546,9.06653226 25.3455618,9.06653226 C24.6921011,9.06653226 24.1156192,8.86391332 23.6160987,8.45866935 C23.1165783,8.05342539 22.8668218,7.39415779 22.8668218,6.48084677 C22.8668218,5.62499572 23.092231,4.96875228 23.543056,4.51209677 C23.9938811,4.05544127 24.5790024,3.82711694 25.2984375,3.82711694 Z M31.4858627,3.84072581 C32.0167995,3.84072581 32.4511245,3.97454503 32.7888506,4.2421875 C33.1265767,4.50982997 33.2954372,4.95362593 33.2954372,5.57358871 L33.2954372,8.90322581 L31.9194066,8.90322581 L31.9194066,5.89566532 C31.9194066,5.63558338 31.8832783,5.4359886 31.8110206,5.296875 C31.6790718,5.04284147 31.4277445,4.91582661 31.0570313,4.91582661 C30.6014937,4.91582661 30.2889054,5.10181266 30.119257,5.47379032 C30.0312911,5.67036389 29.9873088,5.92136944 29.9873088,6.22681452 L29.9873088,8.90322581 L28.6489777,8.90322581 L28.6489777,3.96774194 L29.9448969,3.96774194 L29.9448969,4.6890121 C30.117687,4.43497857 30.2810498,4.25201669 30.43499,4.14012097 C30.7114542,3.9405232 31.0617416,3.84072581 31.4858627,3.84072581 Z M35.9391124,3.36895161 L34.5960688,3.36895161 L34.5960688,2.17590726 L35.9391124,2.17590726 L35.9391124,3.36895161 Z M33.9504654,10.8855847 L33.9504654,9.85131048 L34.0978762,9.86197785 L34.0978762,9.86197785 L34.1106882,9.86265121 C34.1421045,9.86416331 34.1703789,9.86491935 34.195512,9.86491935 C34.3274608,9.86491935 34.4272063,9.83392168 34.4947515,9.7719254 C34.5622967,9.70992913 34.5960688,9.58971863 34.5960688,9.41129032 L34.5960688,3.98135081 L35.9391124,3.98135081 L35.9391124,9.43397177 C35.9391124,9.9329662 35.8370107,10.3019141 35.6328042,10.5408266 C35.435185,10.7720322 35.0536827,10.8913625 34.4882863,10.8988206 L34.4311336,10.8991935 C34.4077958,10.8991935 34.3780467,10.8986998 34.341886,10.8977123 L34.0479841,10.8881768 C34.0170809,10.8873128 33.9845746,10.8864487 33.9504654,10.8855847 Z M40.0483544,6.49899194 C39.9635302,6.55040348 39.8779218,6.59198573 39.7915268,6.62373992 C39.7051317,6.65549411 39.5865367,6.6849797 39.435738,6.71219758 L39.1341423,6.76663306 C38.8513949,6.8150204 38.6487622,6.87399159 38.5262384,6.94354839 C38.3188903,7.06149253 38.2152178,7.24445441 38.2152178,7.49243952 C38.2152178,7.71320675 38.278835,7.87273136 38.4060713,7.97101815 C38.5333077,8.06930493 38.688031,8.11844758 38.870246,8.11844758 C39.1592767,8.11844758 39.4255265,8.03679517 39.6690035,7.8734879 C39.9124804,7.71018064 40.0389295,7.41230055 40.0483544,6.97983871 L40.0483544,6.49899194 Z M39.2331034,5.89566532 C39.4812916,5.86542324 39.6587927,5.82762119 39.7656084,5.78225806 C39.9572483,5.70362864 40.0530668,5.58115003 40.0530668,5.41481855 C40.0530668,5.21219657 39.9800248,5.07232901 39.8339387,4.99521169 C39.6878525,4.91809437 39.4734389,4.87953629 39.1906915,4.87953629 C38.873386,4.87953629 38.6487623,4.95514037 38.5168135,5.10635081 C38.4225644,5.21824653 38.3597325,5.36945469 38.3283162,5.55997984 L37.0323969,5.55997984 C37.0606717,5.127518 37.1863353,4.77217881 37.4093916,4.49395161 C37.7643967,4.05846556 38.3738654,3.84072581 39.2378158,3.84072581 C39.800169,3.84072581 40.299682,3.9480836 40.7363697,4.16280242 C41.1730574,4.37752123 41.3913979,4.78275912 41.3913979,5.37852823 L41.3913979,7.64667339 C41.3913979,7.80393224 41.3945395,7.99445453 41.4008228,8.21824597 C41.4102477,8.38760165 41.4369512,8.50251986 41.4809342,8.56300403 C41.5249171,8.62348821 41.5908905,8.6733869 41.6788564,8.71270161 L41.6788564,8.90322581 L40.218002,8.90322581 C40.1771607,8.80342692 40.1488864,8.70967786 40.1331782,8.62197581 C40.11747,8.53427376 40.1049036,8.43447637 40.0954787,8.32258065 C39.9101221,8.51613 39.6964939,8.6809469 39.4545878,8.81703629 C39.1655571,8.97731935 38.8388316,9.05745968 38.4744016,9.05745968 C38.0094392,9.05745968 37.6253797,8.92968878 37.3222116,8.67414315 C37.0190435,8.41859751 36.8674618,8.05645396 36.8674618,7.58770161 C36.8674618,6.97983567 37.1109351,6.53981991 37.597889,6.26764113 C37.8649282,6.1194549 38.2576271,6.01360919 38.7759973,5.95010081 L39.2331034,5.89566532 Z M44.1010472,3.37802419 L44.1010472,7.74193548 L45.4393783,7.74193548 C46.1242554,7.74193548 46.6017772,7.41683793 46.8719581,6.76663306 C47.0196151,6.40977644 47.0934425,5.9848815 47.0934425,5.49193548 C47.0934425,4.81148853 46.9827014,4.28906432 46.7612159,3.92464718 C46.5397304,3.56023003 46.0991223,3.37802419 45.4393783,3.37802419 L44.1010472,3.37802419 Z M45.6844249,2.21673387 C46.1148293,2.22278229 46.4729706,2.2711689 46.7588597,2.36189516 C47.2458136,2.5161298 47.6400833,2.79888907 47.9416805,3.21018145 C48.1835866,3.54284441 48.3485202,3.90271984 48.436486,4.28981855 C48.5244519,4.67691726 48.5684342,5.04586518 48.5684342,5.39667339 C48.5684342,6.28579074 48.3830803,7.0388074 48.012367,7.65574597 C47.5097049,8.48740335 46.733732,8.90322581 45.6844249,8.90322581 L42.6920296,8.90322581 L42.6920296,2.21673387 L45.6844249,2.21673387 Z M50.7125914,6.83921371 C50.7565744,7.14465879 50.8429681,7.37298311 50.9717753,7.52419355 C51.2073981,7.79939654 51.6110926,7.93699597 52.1828707,7.93699597 C52.5253092,7.93699597 52.80334,7.90070601 53.0169714,7.828125 C53.4222427,7.6890114 53.6248753,7.43044544 53.6248753,7.05241935 C53.6248753,6.83165212 53.5243444,6.6607869 53.3232796,6.53981855 C53.132268,6.42777162 52.8377712,6.32800817 52.4397811,6.24052551 L51.6409408,6.06804435 C50.9183641,5.9107855 50.4188511,5.73992028 50.142387,5.55544355 C49.6742829,5.24697426 49.4402344,4.76462022 49.4402344,4.10836694 C49.4402344,3.50957362 49.6664289,3.01209876 50.1188248,2.61592742 C50.5712207,2.21975608 51.2356672,2.02167339 52.1121842,2.02167339 C52.8441858,2.02167339 53.468577,2.20841547 53.9853765,2.58190524 C54.502176,2.95539501 54.7731382,3.49747629 54.7982713,4.20816532 L53.403391,4.20816532 C53.3782579,3.80594557 53.1960456,3.52016214 52.8567487,3.35080645 C52.6305507,3.23891073 52.3493783,3.18296371 52.0132231,3.18296371 C51.6393681,3.18296371 51.340917,3.25554363 51.1178607,3.40070565 C50.8948044,3.54586766 50.7832779,3.7484866 50.7832779,4.00856855 C50.7832779,4.23662137 50.8834648,4.40956118 51.0838415,4.52739263 L51.1131483,4.54385081 C51.248867,4.61933505 51.5322436,4.70736003 51.9632861,4.80792817 L53.2148936,5.09727823 C53.7395472,5.21824657 54.1353876,5.38003931 54.4024269,5.58266129 C54.8171231,5.89717899 55.0244681,6.35231557 55.0244681,6.94808468 C55.0244681,7.55897483 54.7817802,8.06627822 54.2963971,8.47001008 C53.811014,8.87374194 53.1253618,9.07560484 52.2394199,9.07560484 C51.3346281,9.07560484 50.6230578,8.8767661 50.1046875,8.47908266 C49.5863172,8.08139922 49.327136,7.5347817 49.327136,6.83921371 L50.7125914,6.83921371 Z M60.0102227,4.34425403 C60.0102227,3.99647004 59.9151896,3.74848864 59.7251205,3.60030242 C59.5350514,3.45211619 59.2688016,3.37802419 58.926363,3.37802419 L57.5738946,3.37802419 L57.5738946,5.34677419 L58.926363,5.34677419 C59.2688016,5.34677419 59.5350514,5.26663387 59.7251205,5.10635081 C59.9151896,4.94606775 60.0102227,4.69203803 60.0102227,4.34425403 Z M61.447515,4.33518145 C61.447515,5.12449991 61.24017,5.68245804 60.8254737,6.00907258 C60.4107775,6.33568712 59.8185876,6.49899194 59.0488863,6.49899194 L57.5738946,6.49899194 L57.5738946,8.90322581 L56.13189,8.90322581 L56.13189,2.21673387 L59.1572723,2.21673387 C59.8547159,2.21673387 60.4107775,2.38911118 60.8254737,2.73387097 C61.24017,3.07863076 61.447515,3.61239558 61.447515,4.33518145 Z" id="KautenjaDSP"></path>
                </g>
            </g>
            <path d="M77.9882812,11.9511719 L79.609375,11.9511719 L79.0820312,14.9492188 L79.0820312,14.9980469 C79.0820312,15.1087245 79.1210934,15.2063798 79.1992188,15.2910156 C79.2773441,15.3756515 79.3717442,15.4179688 79.4824219,15.4179688 L80.3808594,15.4179688 C80.5240893,15.4179688 80.6542963,15.3723963 80.7714844,15.28125 C80.8951829,15.1835933 80.970052,15.0664069 80.9960938,14.9296875 L81.3476562,12.9570312 C81.3606771,12.8984372 81.3671875,12.8365889 81.3671875,12.7714844 C81.3671875,12.548269 81.2810914,12.2676591 81.1088971,11.9296482 L80.1855469,10.2128906 L80.1855469,10.2128906 L79.3066406,8.55273438 L79.3066406,8.55273438 C79.0592436,8.06445068 78.9355469,7.58593984 78.9355469,7.1171875 L78.9355469,7.02929688 C78.9355469,6.91861924 78.9453124,6.80468809 78.9648438,6.6875 L79.3847656,4.265625 C79.4498701,3.90103984 79.63216,3.5983085 79.9316406,3.35742188 C80.2181004,3.11653525 80.5468731,2.99609375 80.9179688,2.99609375 L83.2617188,2.99609375 C83.6002621,2.99609375 83.8932279,3.11979043 84.140625,3.3671875 C84.3945325,3.61458457 84.5214844,3.92057109 84.5214844,4.28515625 C84.5214844,4.34158014 84.5185909,4.39076975 84.5128038,4.43272567 L83.8867188,7.92773438 L82.2460938,7.92773438 L82.7636719,5.03710938 C82.7766928,5.01757803 82.7832031,4.99153662 82.7832031,4.95898438 C82.7832031,4.86132764 82.7408858,4.77018271 82.65625,4.68554688 C82.5716142,4.61393193 82.4739589,4.578125 82.3632812,4.578125 L81.4648438,4.578125 C81.3216139,4.578125 81.194662,4.62369746 81.0839844,4.71484375 C80.9733067,4.79947959 80.904948,4.90690039 80.8789062,5.03710938 L80.5957031,6.58984375 C80.5761718,6.70703184 80.5664062,6.82747334 80.5664062,6.95117188 C80.5664062,7.40690332 80.7161443,7.87890381 81.015625,8.3671875 L81.5702499,9.27983276 C82.3232539,10.5316108 82.721058,11.2560359 82.7636719,11.453125 C82.9329436,11.7656266 83.0175781,12.10742 83.0175781,12.4785156 C83.0110677,12.6477873 82.9915366,12.826822 82.9589844,13.015625 L82.4609375,15.7207031 C82.395833,16.0852883 82.2167983,16.3912748 81.9238281,16.6386719 C81.6308579,16.8795585 81.2955748,17 80.9179688,17 L78.5839844,17 C78.2389306,17 77.9492199,16.8763033 77.7148438,16.6289062 C77.486978,16.3815092 77.3730469,16.0787778 77.3730469,15.7207031 L77.3730469,15.4960938 L77.9882812,11.9511719 Z M85.8789062,2.99609375 L87.5,2.99609375 L85.3515625,14.96875 L85.3515625,15.0175781 C85.3515625,15.1282558 85.3873694,15.225911 85.4589844,15.3105469 C85.5436202,15.3951827 85.6412755,15.4375 85.7519531,15.4375 L86.6503906,15.4375 C86.988934,15.4375 87.1874997,15.2747412 87.2460938,14.9492188 L89.4140625,2.99609375 L91.0742188,2.99609375 L88.7402344,15.7402344 C88.6751299,16.0983091 88.4960952,16.3977853 88.203125,16.6386719 C87.9101548,16.8795585 87.5748717,17 87.1972656,17 L84.84375,17 C84.5117171,17 84.2252616,16.8763033 83.984375,16.6289062 C83.7434884,16.3815092 83.6230469,16.0852882 83.6230469,15.7402344 L83.6230469,15.4960938 L85.8789062,2.99609375 Z M92.1972656,2.99609375 L95.8789062,2.99609375 C96.2239601,2.99609375 96.5201811,3.12304561 96.7675781,3.37695312 C97.0084647,3.61783975 97.1289062,3.89452969 97.1289062,4.20703125 C97.1289062,4.29166709 97.1191407,4.38606719 97.0996094,4.49023438 L96.2011719,9.45117188 C96.1360674,9.82226748 95.9602879,10.128254 95.6738281,10.3691406 C95.3873684,10.6100272 95.0585956,10.7304688 94.6875,10.7304688 L92.4902344,10.7304688 L91.3476562,17.0097656 L89.6582031,17.0097656 L92.1972656,2.99609375 Z M94.1210938,9.1484375 C94.2643236,9.1484375 94.3912755,9.10286504 94.5019531,9.01171875 C94.6061203,8.92708291 94.6712238,8.81640693 94.6972656,8.6796875 L95.390625,5.03710938 L95.390625,4.97851562 C95.390625,4.86132754 95.3515629,4.76367227 95.2734375,4.68554688 C95.1953121,4.61393193 95.100912,4.578125 94.9902344,4.578125 L93.59375,4.578125 L92.7441406,9.1484375 L94.1210938,9.1484375 Z M98.5351562,2.99609375 L102.333984,2.99609375 L102.060547,4.55859375 L99.9511719,4.55859375 L99.1601562,9.00195312 L101.259766,9.00195312 L100.966797,10.5644531 L98.8769531,10.5644531 L98.0078125,15.4375 L100.078125,15.4375 L99.7949219,17 L95.9960938,17 L98.5351562,2.99609375 Z M100.976562,17 L103.486328,2.99609375 L107.246094,2.99609375 C107.584637,2.99609375 107.877603,3.11979043 108.125,3.3671875 C108.372397,3.60807412 108.502604,3.90429512 108.515625,4.25585938 L108.476562,4.49023438 L108.476562,4.49023438 L107.695312,8.90429688 C107.584635,9.5162791 107.22331,9.9069002 106.611328,10.0761719 C106.839194,10.1608077 107.011718,10.3105458 107.128906,10.5253906 C107.220053,10.6946623 107.265625,10.8834625 107.265625,11.0917969 C107.265625,11.13737 107.26237,11.1861977 107.255859,11.2382812 L107.251519,11.4032118 C107.250072,11.4256365 107.248264,11.4455294 107.246094,11.4628906 L106.230469,17 L104.511719,17 L105.537109,11.2675781 L105.537109,11.21875 C105.537109,11.1080724 105.498047,11.0136723 105.419922,10.9355469 C105.341796,10.8574215 105.247396,10.8183594 105.136719,10.8183594 L103.779297,10.8183594 L102.685547,17 L100.976562,17 Z M104.082031,9.1484375 L105.439453,9.1484375 C105.582683,9.1484375 105.709635,9.09960986 105.820312,9.00195312 C105.92448,8.91080684 105.989583,8.79687568 106.015625,8.66015625 L106.679688,5.03710938 L106.679688,4.97851562 C106.679688,4.86132754 106.640625,4.76367227 106.5625,4.68554688 C106.477864,4.61393193 106.376954,4.578125 106.259766,4.578125 L104.912109,4.578125 L104.082031,9.1484375 Z M112.861328,2.99609375 L116.660156,2.99609375 L116.386719,4.55859375 L114.277344,4.55859375 L113.486328,9.00195312 L115.585938,9.00195312 L115.292969,10.5644531 L113.203125,10.5644531 L112.333984,15.4375 L114.404297,15.4375 L114.121094,17 L110.322266,17 L112.861328,2.99609375 Z M115.556641,15.4765625 L117.568359,4.265625 C117.633464,3.90103984 117.812499,3.5983085 118.105469,3.35742188 C118.398439,3.11653525 118.727212,2.99609375 119.091797,2.99609375 L121.464844,2.99609375 C121.803387,2.99609375 122.093098,3.11979043 122.333984,3.3671875 C122.581381,3.61458457 122.705078,3.91731592 122.705078,4.27539062 C122.705078,4.33615482 122.702185,4.38823793 122.696398,4.43164061 L122.060547,7.9765625 L120.439453,7.9765625 L120.966797,5.03710938 L120.966797,4.97851562 C120.966797,4.86132754 120.927735,4.76367227 120.849609,4.68554688 C120.771484,4.61393193 120.673829,4.578125 120.556641,4.578125 L119.648438,4.578125 C119.511718,4.578125 119.384766,4.62369746 119.267578,4.71484375 C119.1569,4.79947959 119.088542,4.90690039 119.0625,5.03710938 L117.275391,14.9492188 L117.275391,14.9980469 C117.275391,15.1087245 117.314453,15.2063798 117.392578,15.2910156 C117.470704,15.3756515 117.568359,15.4179688 117.685547,15.4179688 L118.583984,15.4179688 C118.922528,15.4179688 119.121093,15.25521 119.179688,14.9296875 L119.707031,12 L121.337891,12 L120.673828,15.7207031 C120.608724,16.0852883 120.426434,16.3912748 120.126953,16.6386719 C119.833983,16.8795585 119.501955,17 119.130859,17 L116.796875,17 C116.451821,17 116.158855,16.8763033 115.917969,16.6289062 C115.677082,16.3749987 115.556641,16.0722674 115.556641,15.7207031 L115.556641,15.4765625 Z M125.810547,2.99609375 L124.716797,9.00195312 L126.523438,9.00195312 L127.617188,2.99609375 L129.296875,2.99609375 L126.757812,17 L125.068359,17 L126.240234,10.5644531 L124.433594,10.5644531 L123.271484,17 L121.582031,17 L124.130859,2.99609375 L125.810547,2.99609375 Z M134.101562,2.99609375 C134.440106,2.99609375 134.729817,3.11979043 134.970703,3.3671875 C135.2181,3.61458457 135.341797,3.91731592 135.341797,4.27539062 C135.341797,4.33615482 135.338903,4.38823793 135.333116,4.43164061 L133.310547,15.7207031 C133.245442,16.0852883 133.063153,16.3912748 132.763672,16.6386719 C132.470702,16.8795585 132.138674,17 131.767578,17 L129.433594,17 C129.08854,17 128.795574,16.8763033 128.554688,16.6289062 C128.313801,16.3749987 128.193359,16.0722674 128.193359,15.7207031 L128.193359,15.4765625 L130.205078,4.265625 C130.270183,3.90103984 130.449217,3.5983085 130.742188,3.35742188 C131.035158,3.11653525 131.36393,2.99609375 131.728516,2.99609375 L134.101562,2.99609375 Z M133.193359,4.578125 L132.285156,4.578125 C132.148437,4.578125 132.021485,4.62369746 131.904297,4.71484375 C131.821289,4.77832063 131.762085,4.85461405 131.726685,4.94372537 L131.699219,5.03710938 L129.912109,14.9492188 L129.912109,14.9980469 C129.912109,15.1087245 129.951171,15.2063798 130.029297,15.2910156 C130.087891,15.3544925 130.157471,15.3941652 130.238037,15.4100342 L130.322266,15.4179688 L131.220703,15.4179688 C131.521631,15.4179688 131.711958,15.2893692 131.791691,15.0321667 L131.816406,14.9296875 L133.603516,5.03710938 L133.603516,4.97851562 C133.603516,4.86132754 133.564454,4.76367227 133.486328,4.68554688 C133.408203,4.61393193 133.310547,4.578125 133.193359,4.578125 Z" id="SuperEcho" fill="#FF5050"></path>
        </g>
        <g id="FIR" transform="translate(92.000000, 20.597656)">
            <g id="FIR-BG" transform="translate(48.000000, 7.402344)" fill="#9E9E9E" fill-rule="nonzero">
                <path d="M24.6616211,92 L41.1655273,0.974609375 L65.8579102,0.974609375 L64.0805664,11.2578125 L50.3696289,11.2578125 L45.2280273,40.0126953 L58.8754883,40.0126953 L56.9711914,50.1689453 L43.387207,50.1689453 L35.8969727,92 L24.6616211,92 Z M60.7480469,234.974609 C62.9485787,234.974609 64.8528565,235.778638 66.4609375,237.386719 C68.0690185,238.952482 68.9153642,240.877918 69,243.163086 L68.9559336,243.402303 C68.9083701,243.673695 68.8384238,244.101767 68.7460938,244.686523 L63.6679688,273.37793 C62.9485641,277.355814 60.5999548,279.894851 56.6220703,280.995117 C58.1031975,281.54525 59.2246056,282.518548 59.9863281,283.915039 C60.578779,285.015305 60.875,286.242506 60.875,287.59668 C60.875,287.892905 60.8538414,288.210285 60.8115234,288.548828 C60.8115234,289.183597 60.7903648,289.670246 60.7480469,290.008789 L54.1464844,326 L42.9746094,326 L49.6396484,288.739258 L49.6396484,288.421875 C49.6396484,287.70247 49.3857447,287.08887 48.8779297,286.581055 C48.3701146,286.07324 47.756514,285.819336 47.0371094,285.819336 L38.2138672,285.819336 L31.1044922,326 L19.9960938,326 L36.3095703,234.974609 L60.7480469,234.974609 Z M54.3369141,245.257812 L45.5771484,245.257812 L40.1816406,274.964844 L49.0048828,274.964844 C49.9358771,274.964844 50.7610641,274.647464 51.4804688,274.012695 C52.0960021,273.474104 52.5016893,272.813114 52.6975399,272.029709 L52.75,271.791016 L57.0664062,248.241211 L57.0664062,247.860352 C57.0664062,247.098629 56.8125025,246.46387 56.3046875,245.956055 C55.7545545,245.490558 55.0986366,245.257812 54.3369141,245.257812 Z M59.0024414,117.974609 L42.4985352,209 L31.5170898,209 L48.0844727,117.974609 L59.0024414,117.974609 Z" id="FIR"></path>
            </g>
            <g id="FIR-Indexes" transform="translate(84.000000, 0.000000)">
                <g id="Group-10" transform="translate(0.000000, 0.402344)"></g>
                <g id="Group-11" transform="translate(8.532227, 0.000000)" fill="#000000" fill-rule="nonzero">
                    <polygon id="1" points="3.90527344 0 2.38769531 8.40234375 1.36230469 8.40234375 2.72167969 0.94921875 2.00097656 0.94921875 2.17089844 0"></polygon>
                    <path d="M0,52.4023438 L0.36328125,50.1875 C0.378906328,50.1015621 0.402343594,50.0156254 0.43359375,49.9296875 C0.511719141,49.7015614 0.644843044,49.464688 0.832968279,49.219063 L1.16951436,48.8181566 L1.16951436,48.8181566 L2.5983398,47.188086 C2.6110351,47.1740235 2.62187496,47.1621094 2.63085938,47.1523438 C2.86132928,46.89453 3.00585908,46.6855477 3.06445312,46.5253906 L3.07910158,46.4682617 L3.07910158,46.4682617 L3.28125,45.2304688 L3.28125,45.1953125 C3.28125,45.1289059 3.26171895,45.0703128 3.22265625,45.0195312 C3.16796848,44.9648435 3.09765668,44.9375 3.01171875,44.9375 L2.56640625,44.9375 C2.5,44.9375 2.43359408,44.9628904 2.3671875,45.0136719 C2.30859346,45.0644534 2.26562514,45.1230465 2.23828125,45.1894531 L2.2265625,45.21875 L1.92773438,47.0234375 L0.955078125,47.0234375 L1.3125,44.890625 L1.359375,44.7558594 C1.43359412,44.5449208 1.56249908,44.3671882 1.74609375,44.2226562 C1.93750096,44.074218 2.13671771,44 2.34375,44 L3.65625,44 C3.89062617,44 4.06835877,44.0722649 4.18945312,44.2167969 C4.28320359,44.3300787 4.33007812,44.4707023 4.33007812,44.6386719 L4.33007812,44.6796875 C4.33007812,44.7031251 4.32812502,44.7285155 4.32421875,44.7558594 L4.06054688,46.4433594 C4.04882807,46.5566412 4.0234377,46.6679682 3.984375,46.7773438 C3.92871066,46.9414071 3.84668002,47.0966796 3.73828155,47.2431638 L3.52785084,47.5022841 C3.31496792,47.7524453 2.78550515,48.3311076 1.93945312,49.2382812 C1.66210799,49.5312515 1.47460986,49.8144518 1.37695312,50.0878906 C1.34960924,50.166016 1.33007818,50.240234 1.31835938,50.3105469 L1.125,51.453125 L3.24023438,51.453125 L3.08203125,52.4023438 L0,52.4023438 Z" id="2"></path>
                    <path d="M3.28711888,91.2480442 C3.4254372,91.3002285 3.52789034,91.3896739 3.59765625,91.5175781 C3.65234402,91.6191411 3.6796875,91.7324213 3.6796875,91.8574219 L3.66796875,92.0800781 L3.66796875,92.0800781 L3.20507812,94.6347656 C3.16601543,94.857423 3.06054773,95.0410149 2.88867188,95.1855469 C2.71679602,95.3300788 2.51953236,95.4023438 2.296875,95.4023438 L0.873046875,95.4023438 C0.66601459,95.4023438 0.490235098,95.3281257 0.345703125,95.1796875 C0.201171152,95.0312493 0.12890625,94.8515636 0.12890625,94.640625 L0.12890625,94.4941406 L0.50390625,92.4082031 L1.48242188,92.4082031 L1.16015625,94.1777344 L1.16015625,94.2070312 C1.16015625,94.2734378 1.18359352,94.332031 1.23046875,94.3828125 C1.26562518,94.4179689 1.30468729,94.4414062 1.34765625,94.453125 L1.95703125,94.453125 C2.04296918,94.453125 2.11914029,94.4257815 2.18554688,94.3710938 C2.24804719,94.3203122 2.2871093,94.2539067 2.30273438,94.171875 L2.70117188,91.9628906 L2.70117188,91.9335938 C2.70117188,91.8671872 2.67773461,91.8105471 2.63085938,91.7636719 C2.58398414,91.7167966 2.52734408,91.6933594 2.4609375,91.6933594 L1.63476562,91.6933594 L1.81640625,90.6914062 L2.64257812,90.6914062 C2.72851605,90.6914062 2.80468717,90.6621097 2.87109375,90.6035156 C2.93359406,90.5488279 2.97265617,90.4804692 2.98828125,90.3984375 L3.40429688,88.2246094 L3.40429688,88.1894531 C3.40429688,88.1191403 3.38085961,88.0605471 3.33398438,88.0136719 C3.28710914,87.9707029 3.23046908,87.9492188 3.1640625,87.9492188 L2.59570312,87.9492188 C2.51367146,87.9492188 2.43750035,87.9765622 2.3671875,88.03125 C2.30078092,88.0820315 2.2597657,88.146484 2.24414062,88.2246094 L1.92773438,89.9941406 L0.94921875,89.9941406 L1.34765625,87.7617188 C1.38671895,87.5429677 1.49413975,87.3613288 1.66992188,87.2167969 C1.845704,87.0722649 2.04296766,87 2.26171875,87 L3.69726562,87 C3.90429791,87 4.08203051,87.0761711 4.23046875,87.2285156 C4.37500072,87.3730476 4.44726562,87.5390616 4.44726562,87.7265625 C4.44726562,87.777344 4.44140631,87.8339841 4.4296875,87.8964844 L3.9375,90.5449219 C3.86718776,90.912108 3.65039622,91.1464798 3.28711888,91.2480442 Z" id="3"></path>
                    <polygon id="4" points="0.665039062 134.541016 1.49121094 130 2.49902344 130 1.84277344 133.603516 2.92675781 133.603516 3.58300781 130 4.59082031 130 3.06738281 138.402344 2.05371094 138.402344 2.75683594 134.541016"></polygon>
                    <path d="M0.500976562,178.408203 L1.47949219,178.408203 L1.15722656,180.183594 L1.15722656,180.212891 C1.15722656,180.279297 1.18066383,180.33789 1.22753906,180.388672 C1.2744143,180.439453 1.33300746,180.464844 1.40332031,180.464844 L1.94824219,180.464844 C2.1513682,180.464844 2.27050764,180.367188 2.30566406,180.171875 L2.72753906,177.822266 L2.72753906,177.792969 C2.72753906,177.726562 2.7060549,177.667969 2.66308594,177.617188 C2.61230443,177.566406 2.55371127,177.541016 2.48730469,177.541016 L0.665039062,177.541016 L1.49121094,173 L4.59082031,173 L4.42089844,173.9375 L2.32324219,173.9375 L1.84277344,176.603516 L3.03222656,176.603516 C3.23144631,176.603516 3.40331959,176.677734 3.54785156,176.826172 C3.69238354,176.97461 3.76464844,177.152343 3.76464844,177.359375 L3.76464844,177.576172 L3.20214844,180.646484 C3.16308574,180.861329 3.05566494,181.041015 2.87988281,181.185547 C2.70410068,181.330079 2.50293082,181.402344 2.27636719,181.402344 L0.870117188,181.402344 C0.663084902,181.402344 0.48730541,181.328126 0.342773438,181.179688 C0.198241465,181.031249 0.125976562,180.853517 0.125976562,180.646484 L0.125976562,180.5 L0.500976562,178.408203 Z" id="5"></path>
                    <path d="M3.68261719,216 C3.8857432,216 4.05956959,216.074218 4.20410156,216.222656 C4.3525398,216.367188 4.42675781,216.546874 4.42675781,216.761719 L4.42382814,216.830566 L4.04003906,218.994141 L3.06738281,218.994141 L3.38378906,217.212891 L3.38378906,217.177734 C3.38378906,217.107422 3.3603518,217.048828 3.31347656,217.001953 C3.26660133,216.958984 3.20800816,216.9375 3.13769531,216.9375 L2.59277344,216.9375 C2.51074178,216.9375 2.43457066,216.964843 2.36425781,217.019531 C2.29785123,217.070313 2.25683602,217.134765 2.24121094,217.212891 L1.80175781,219.662109 L3.03808594,219.662109 C3.24511822,219.662109 3.42285082,219.73828 3.57128906,219.890625 C3.71582104,220.035157 3.78808594,220.201171 3.78808594,220.388672 C3.78808594,220.439453 3.78222662,220.496093 3.77050781,220.558594 L3.20800781,223.646484 C3.16894512,223.861329 3.05957121,224.041015 2.87988281,224.185547 C2.70410068,224.330079 2.50488393,224.402344 2.28222656,224.402344 L0.881835938,224.402344 C0.674803652,224.402344 0.49902416,224.328126 0.354492188,224.179688 C0.209960215,224.031249 0.137695312,223.853517 0.137695312,223.646484 L0.137695312,223.5 L1.34472656,216.75 C1.38378926,216.535155 1.49121006,216.357423 1.66699219,216.216797 C1.84277432,216.072265 2.04003797,216 2.25878906,216 L3.68261719,216 Z M2.50488281,220.599609 L1.93652344,220.599609 C1.85449178,220.599609 1.77832066,220.626953 1.70800781,220.681641 C1.64160123,220.732422 1.60058602,220.796875 1.58496094,220.875 L1.58496094,220.875 L1.16894531,223.183594 L1.16894531,223.212891 C1.16894531,223.279297 1.19238258,223.33789 1.23925781,223.388672 C1.28613305,223.439453 1.34472621,223.464844 1.41503906,223.464844 L1.41503906,223.464844 L1.95410156,223.464844 C2.15722758,223.464844 2.27636701,223.367188 2.31152344,223.171875 L2.31152344,223.171875 L2.74511719,220.839844 C2.74511719,220.769531 2.72167992,220.710938 2.67480469,220.664062 C2.62792945,220.621094 2.57128939,220.599609 2.50488281,220.599609 L2.50488281,220.599609 Z" id="Combined-Shape"></path>
                    <polygon id="7" points="4.43847656 259 4.25683594 259.949219 1.33886719 267.402344 0.319335938 267.402344 3.23730469 259.949219 1.47363281 259.949219 1.64355469 259"></polygon>
                    <path d="M3.69433594,302 C3.90136822,302 4.07910082,302.076171 4.22753906,302.228516 C4.37207104,302.373048 4.44433594,302.539062 4.44433594,302.726562 C4.44433594,302.777344 4.43847662,302.833984 4.42675781,302.896484 L3.93457031,305.544922 C3.86425807,305.912108 3.64746654,306.14648 3.28418919,306.248044 C3.42250752,306.300228 3.52496065,306.389674 3.59472656,306.517578 C3.64941434,306.619141 3.67675781,306.732421 3.67675781,306.857422 L3.66503906,307.080078 L3.20214844,309.640625 C3.16308574,309.859376 3.05761805,310.041015 2.88574219,310.185547 C2.71386633,310.330079 2.51660268,310.402344 2.29394531,310.402344 L0.858398438,310.402344 C0.651366152,310.402344 0.473633555,310.326173 0.325195312,310.173828 C0.18066334,310.029296 0.108398438,309.863282 0.108398438,309.675781 C0.108398438,309.625 0.114257754,309.56836 0.125976562,309.505859 L0.618164062,306.857422 C0.688476301,306.490236 0.90526784,306.255864 1.26854518,306.1543 C1.13022686,306.102115 1.02777373,306.01267 0.958007812,305.884766 C0.903320039,305.783203 0.875976562,305.669922 0.875976562,305.544922 C0.875976562,305.517578 0.877929668,305.488281 0.881835938,305.457031 L0.884440095,305.358073 C0.885308151,305.344618 0.886393223,305.332682 0.887695312,305.322266 L1.35058594,302.761719 C1.38964863,302.542968 1.49511633,302.361329 1.66699219,302.216797 C1.83886805,302.072265 2.0361317,302 2.25878906,302 L3.69433594,302 Z M2.45800781,306.693359 L1.91308594,306.693359 C1.82714801,306.693359 1.75097689,306.722656 1.68457031,306.78125 C1.62207,306.835938 1.58300789,306.904296 1.56738281,306.986328 L1.15136719,309.183594 L1.15136719,309.21875 C1.15136719,309.289063 1.17480445,309.347656 1.22167969,309.394531 C1.26855492,309.4375 1.32519498,309.458984 1.39160156,309.458984 L1.95410156,309.458984 C2.04003949,309.458984 2.11621061,309.431641 2.18261719,309.376953 C2.2451175,309.326172 2.28417961,309.259766 2.29980469,309.177734 L2.69824219,306.962891 L2.69824219,306.933594 C2.69824219,306.867187 2.67480492,306.810547 2.62792969,306.763672 C2.58105445,306.716797 2.52441439,306.693359 2.45800781,306.693359 Z M3.16113281,302.943359 L2.59863281,302.943359 C2.51269488,302.943359 2.43652377,302.970703 2.37011719,303.025391 C2.30761688,303.076172 2.26855477,303.142578 2.25292969,303.224609 L2.25292969,303.224609 L1.85449219,305.439453 L1.85449219,305.46875 C1.85449219,305.535157 1.87792945,305.591797 1.92480469,305.638672 C1.97167992,305.685547 2.02831998,305.708984 2.09472656,305.708984 L2.09472656,305.708984 L2.63964844,305.708984 C2.72558637,305.708984 2.80175748,305.679688 2.86816406,305.621094 C2.93066437,305.566406 2.96972648,305.498047 2.98535156,305.416016 L2.98535156,305.416016 L3.40136719,303.21875 L3.40136719,303.183594 C3.40136719,303.113281 3.37792992,303.054688 3.33105469,303.007812 C3.28417945,302.964844 3.22753939,302.943359 3.16113281,302.943359 L3.16113281,302.943359 Z" id="Combined-Shape"></path>
                </g>
            </g>
            <g transform="translate(41.500000, 168.902344) scale(-1, 1) translate(-41.500000, -168.902344) translate(0.000000, 16.402344)">
                <g id="normal" transform="translate(73.000000, 19.597656)" fill="#000000">
                    <polygon id="Triangle" transform="translate(5.000000, 3.500000) scale(1, -1) translate(-5.000000, -3.500000) " points="5 0 10 7 0 7"></polygon>
                    <polygon id="Triangle-Copy" transform="translate(5.000000, 46.902344) scale(1, -1) translate(-5.000000, -46.902344) " points="5 43.4023438 10 50.4023438 0 50.4023438"></polygon>
                    <polygon id="Triangle-Copy-2" transform="translate(5.000000, 89.902344) scale(1, -1) translate(-5.000000, -89.902344) " points="5 86.4023438 10 93.4023438 0 93.4023438"></polygon>
                    <polygon id="Triangle-Copy-3" transform="translate(5.000000, 132.902344) scale(1, -1) translate(-5.000000, -132.902344) " points="5 129.402344 10 136.402344 0 136.402344"></polygon>
                    <polygon id="Triangle-Copy-4" transform="translate(5.000000, 175.902344) scale(1, -1) translate(-5.000000, -175.902344) " points="5 172.402344 10 179.402344 0 179.402344"></polygon>
                    <polygon id="Triangle-Copy-5" transform="translate(5.000000, 218.902344) scale(1, -1) translate(-5.000000, -218.902344) " points="5 215.402344 10 222.402344 0 222.402344"></polygon>
                    <polygon id="Triangle-Copy-6" transform="translate(5.000000, 261.902344) scale(1, -1) translate(-5.000000, -261.902344) " points="5 258.402344 10 265.402344 0 265.402344"></polygon>
                </g>
                <g id="lines" fill="#F2F2F2" fill-rule="nonzero">
                    <g id="Group" transform="translate(0.833333, 0.500000)">
                        <path d="M3,0 L3,2 L6,2 L6,0 L3,0 Z M7,0 L7,2 L10,2 L10,0 L7,0 Z M11,0 L11,2 L14,2 L14,0 L11,0 Z M15,0 L15,2 L18,2 L18,0 L15,0 Z M19,0 L19,2 L22,2 L22,0 L19,0 Z M23,0 L23,2 L26,2 L26,0 L23,0 Z M27,0 L27,2 L30,2 L30,0 L27,0 Z M31,0 L31,2 L34,2 L34,0 L31,0 Z M35,0 L35,2 L38,2 L38,0 L35,0 Z M39,0 L39,2 L42,2 L42,0 L39,0 Z M43,0 L43,2 L46,2 L46,0 L43,0 Z M47,0 L47,2 L50,2 L50,0 L47,0 Z M51,0 L51,2 L54,2 L54,0 L51,0 Z M55,0 L55,2 L58,2 L58,0 L55,0 Z M59,0 L59,2 L62,2 L62,0 L59,0 Z M63,0 L63,2 L66,2 L66,0 L63,0 Z M67,0 L67,2 L70,2 L70,0 L67,0 Z M71,0 L71,2 L74,2 L74,0 L71,0 Z M75,0 L75,2 L78,2 L78,0 L75,0 Z" id="Line-2-Copy-15"></path>
                        <path d="M-2.84217094e-14,43.5 L-2.84217094e-14,45.5 L3,45.5 L3,43.5 L-2.84217094e-14,43.5 Z M4,43.5 L4,45.5 L7,45.5 L7,43.5 L4,43.5 Z M8,43.5 L8,45.5 L11,45.5 L11,43.5 L8,43.5 Z M12,43.5 L12,45.5 L15,45.5 L15,43.5 L12,43.5 Z M16,43.5 L16,45.5 L19,45.5 L19,43.5 L16,43.5 Z M20,43.5 L20,45.5 L23,45.5 L23,43.5 L20,43.5 Z M24,43.5 L24,45.5 L27,45.5 L27,43.5 L24,43.5 Z M28,43.5 L28,45.5 L31,45.5 L31,43.5 L28,43.5 Z M32,43.5 L32,45.5 L35,45.5 L35,43.5 L32,43.5 Z M36,43.5 L36,45.5 L39,45.5 L39,43.5 L36,43.5 Z M40,43.5 L40,45.5 L43,45.5 L43,43.5 L40,43.5 Z M44,43.5 L44,45.5 L47,45.5 L47,43.5 L44,43.5 Z M48,43.5 L48,45.5 L51,45.5 L51,43.5 L48,43.5 Z M52,43.5 L52,45.5 L55,45.5 L55,43.5 L52,43.5 Z M56,43.5 L56,45.5 L59,45.5 L59,43.5 L56,43.5 Z M60,43.5 L60,45.5 L63,45.5 L63,43.5 L60,43.5 Z M64,43.5 L64,45.5 L67,45.5 L67,43.5 L64,43.5 Z M68,43.5 L68,45.5 L71,45.5 L71,43.5 L68,43.5 Z M72,43.5 L72,45.5 L75,45.5 L75,43.5 L72,43.5 Z" id="Line-2-Copy-14"></path>
                        <path d="M-2.84217094e-14,86.5 L-2.84217094e-14,88.5 L3,88.5 L3,86.5 L-2.84217094e-14,86.5 Z M4,86.5 L4,88.5 L7,88.5 L7,86.5 L4,86.5 Z M8,86.5 L8,88.5 L11,88.5 L11,86.5 L8,86.5 Z M12,86.5 L12,88.5 L15,88.5 L15,86.5 L12,86.5 Z M16,86.5 L16,88.5 L19,88.5 L19,86.5 L16,86.5 Z M20,86.5 L20,88.5 L23,88.5 L23,86.5 L20,86.5 Z M24,86.5 L24,88.5 L27,88.5 L27,86.5 L24,86.5 Z M28,86.5 L28,88.5 L31,88.5 L31,86.5 L28,86.5 Z M32,86.5 L32,88.5 L35,88.5 L35,86.5 L32,86.5 Z M36,86.5 L36,88.5 L39,88.5 L39,86.5 L36,86.5 Z M40,86.5 L40,88.5 L43,88.5 L43,86.5 L40,86.5 Z M44,86.5 L44,88.5 L47,88.5 L47,86.5 L44,86.5 Z M48,86.5 L48,88.5 L51,88.5 L51,86.5 L48,86.5 Z M52,86.5 L52,88.5 L55,88.5 L55,86.5 L52,86.5 Z M56,86.5 L56,88.5 L59,88.5 L59,86.5 L56,86.5 Z M60,86.5 L60,88.5 L63,88.5 L63,86.5 L60,86.5 Z M64,86.5 L64,88.5 L67,88.5 L67,86.5 L64,86.5 Z M68,86.5 L68,88.5 L71,88.5 L71,86.5 L68,86.5 Z M72,86.5 L72,88.5 L75,88.5 L75,86.5 L72,86.5 Z" id="Line-2-Copy-13"></path>
                        <path d="M-2.84217094e-14,129.5 L-2.84217094e-14,131.5 L3,131.5 L3,129.5 L-2.84217094e-14,129.5 Z M4,129.5 L4,131.5 L7,131.5 L7,129.5 L4,129.5 Z M8,129.5 L8,131.5 L11,131.5 L11,129.5 L8,129.5 Z M12,129.5 L12,131.5 L15,131.5 L15,129.5 L12,129.5 Z M16,129.5 L16,131.5 L19,131.5 L19,129.5 L16,129.5 Z M20,129.5 L20,131.5 L23,131.5 L23,129.5 L20,129.5 Z M24,129.5 L24,131.5 L27,131.5 L27,129.5 L24,129.5 Z M28,129.5 L28,131.5 L31,131.5 L31,129.5 L28,129.5 Z M32,129.5 L32,131.5 L35,131.5 L35,129.5 L32,129.5 Z M36,129.5 L36,131.5 L39,131.5 L39,129.5 L36,129.5 Z M40,129.5 L40,131.5 L43,131.5 L43,129.5 L40,129.5 Z M44,129.5 L44,131.5 L47,131.5 L47,129.5 L44,129.5 Z M48,129.5 L48,131.5 L51,131.5 L51,129.5 L48,129.5 Z M52,129.5 L52,131.5 L55,131.5 L55,129.5 L52,129.5 Z M56,129.5 L56,131.5 L59,131.5 L59,129.5 L56,129.5 Z M60,129.5 L60,131.5 L63,131.5 L63,129.5 L60,129.5 Z M64,129.5 L64,131.5 L67,131.5 L67,129.5 L64,129.5 Z M68,129.5 L68,131.5 L71,131.5 L71,129.5 L68,129.5 Z M72,129.5 L72,131.5 L75,131.5 L75,129.5 L72,129.5 Z" id="Line-2-Copy-12"></path>
                        <path d="M-2.84217094e-14,172.5 L-2.84217094e-14,174.5 L3,174.5 L3,172.5 L-2.84217094e-14,172.5 Z M4,172.5 L4,174.5 L7,174.5 L7,172.5 L4,172.5 Z M8,172.5 L8,174.5 L11,174.5 L11,172.5 L8,172.5 Z M12,172.5 L12,174.5 L15,174.5 L15,172.5 L12,172.5 Z M16,172.5 L16,174.5 L19,174.5 L19,172.5 L16,172.5 Z M20,172.5 L20,174.5 L23,174.5 L23,172.5 L20,172.5 Z M24,172.5 L24,174.5 L27,174.5 L27,172.5 L24,172.5 Z M28,172.5 L28,174.5 L31,174.5 L31,172.5 L28,172.5 Z M32,172.5 L32,174.5 L35,174.5 L35,172.5 L32,172.5 Z M36,172.5 L36,174.5 L39,174.5 L39,172.5 L36,172.5 Z M40,172.5 L40,174.5 L43,174.5 L43,172.5 L40,172.5 Z M44,172.5 L44,174.5 L47,174.5 L47,172.5 L44,172.5 Z M48,172.5 L48,174.5 L51,174.5 L51,172.5 L48,172.5 Z M52,172.5 L52,174.5 L55,174.5 L55,172.5 L52,172.5 Z M56,172.5 L56,174.5 L59,174.5 L59,172.5 L56,172.5 Z M60,172.5 L60,174.5 L63,174.5 L63,172.5 L60,172.5 Z M64,172.5 L64,174.5 L67,174.5 L67,172.5 L64,172.5 Z M68,172.5 L68,174.5 L71,174.5 L71,172.5 L68,172.5 Z M72,172.5 L72,174.5 L75,174.5 L75,172.5 L72,172.5 Z" id="Line-2-Copy-11"></path>
                        <path d="M-2.84217094e-14,216.5 L-2.84217094e-14,218.5 L3,218.5 L3,216.5 L-2.84217094e-14,216.5 Z M4,216.5 L4,218.5 L7,218.5 L7,216.5 L4,216.5 Z M8,216.5 L8,218.5 L11,218.5 L11,216.5 L8,216.5 Z M12,216.5 L12,218.5 L15,218.5 L15,216.5 L12,216.5 Z M16,216.5 L16,218.5 L19,218.5 L19,216.5 L16,216.5 Z M20,216.5 L20,218.5 L23,218.5 L23,216.5 L20,216.5 Z M24,216.5 L24,218.5 L27,218.5 L27,216.5 L24,216.5 Z M28,216.5 L28,218.5 L31,218.5 L31,216.5 L28,216.5 Z M32,216.5 L32,218.5 L35,218.5 L35,216.5 L32,216.5 Z M36,216.5 L36,218.5 L39,218.5 L39,216.5 L36,216.5 Z M40,216.5 L40,218.5 L43,218.5 L43,216.5 L40,216.5 Z M44,216.5 L44,218.5 L47,218.5 L47,216.5 L44,216.5 Z M48,216.5 L48,218.5 L51,218.5 L51,216.5 L48,216.5 Z M52,216.5 L52,218.5 L55,218.5 L55,216.5 L52,216.5 Z M56,216.5 L56,218.5 L59,218.5 L59,216.5 L56,216.5 Z M60,216.5 L60,218.5 L63,218.5 L63,216.5 L60,216.5 Z M64,216.5 L64,218.5 L67,218.5 L67,216.5 L64,216.5 Z M68,216.5 L68,218.5 L71,218.5 L71,216.5 L68,216.5 Z M72,216.5 L72,218.5 L75,218.5 L75,216.5 L72,216.5 Z" id="Line-2-Copy-10"></path>
                        <path d="M-2.84217094e-14,258.5 L-2.84217094e-14,260.5 L3,260.5 L3,258.5 L-2.84217094e-14,258.5 Z M4,258.5 L4,260.5 L7,260.5 L7,258.5 L4,258.5 Z M8,258.5 L8,260.5 L11,260.5 L11,258.5 L8,258.5 Z M12,258.5 L12,260.5 L15,260.5 L15,258.5 L12,258.5 Z M16,258.5 L16,260.5 L19,260.5 L19,258.5 L16,258.5 Z M20,258.5 L20,260.5 L23,260.5 L23,258.5 L20,258.5 Z M24,258.5 L24,260.5 L27,260.5 L27,258.5 L24,258.5 Z M28,258.5 L28,260.5 L31,260.5 L31,258.5 L28,258.5 Z M32,258.5 L32,260.5 L35,260.5 L35,258.5 L32,258.5 Z M36,258.5 L36,260.5 L39,260.5 L39,258.5 L36,258.5 Z M40,258.5 L40,260.5 L43,260.5 L43,258.5 L40,258.5 Z M44,258.5 L44,260.5 L47,260.5 L47,258.5 L44,258.5 Z M48,258.5 L48,260.5 L51,260.5 L51,258.5 L48,258.5 Z M52,258.5 L52,260.5 L55,260.5 L55,258.5 L52,258.5 Z M56,258.5 L56,260.5 L59,260.5 L59,258.5 L56,258.5 Z M60,258.5 L60,260.5 L63,260.5 L63,258.5 L60,258.5 Z M64,258.5 L64,260.5 L67,260.5 L67,258.5 L64,258.5 Z M68,258.5 L68,260.5 L71,260.5 L71,258.5 L68,258.5 Z M72,258.5 L72,260.5 L75,260.5 L75,258.5 L72,258.5 Z" id="Line-2-Copy-9"></path>
                        <path d="M-2.84217094e-14,301.5 L-2.84217094e-14,303.5 L3,303.5 L3,301.5 L-2.84217094e-14,301.5 Z M4,301.5 L4,303.5 L7,303.5 L7,301.5 L4,301.5 Z M8,301.5 L8,303.5 L11,303.5 L11,301.5 L8,301.5 Z M12,301.5 L12,303.5 L15,303.5 L15,301.5 L12,301.5 Z M16,301.5 L16,303.5 L19,303.5 L19,301.5 L16,301.5 Z M20,301.5 L20,303.5 L23,303.5 L23,301.5 L20,301.5 Z M24,301.5 L24,303.5 L27,303.5 L27,301.5 L24,301.5 Z M28,301.5 L28,303.5 L31,303.5 L31,301.5 L28,301.5 Z M32,301.5 L32,303.5 L35,303.5 L35,301.5 L32,301.5 Z M36,301.5 L36,303.5 L39,303.5 L39,301.5 L36,301.5 Z M40,301.5 L40,303.5 L43,303.5 L43,301.5 L40,301.5 Z M44,301.5 L44,303.5 L47,303.5 L47,301.5 L44,301.5 Z M48,301.5 L48,303.5 L51,303.5 L51,301.5 L48,301.5 Z M52,301.5 L52,303.5 L55,303.5 L55,301.5 L52,301.5 Z M56,301.5 L56,303.5 L59,303.5 L59,301.5 L56,301.5 Z M60,301.5 L60,303.5 L63,303.5 L63,301.5 L60,301.5 Z M64,301.5 L64,303.5 L67,303.5 L67,301.5 L64,301.5 Z M68,301.5 L68,303.5 L71,303.5 L71,301.5 L68,301.5 Z M72,301.5 L72,303.5 L75,303.5 L75,301.5 L72,301.5 Z" id="Line-2-Copy-8"></path>
                    </g>
                </g>
            </g>
        </g>
        <g id="OUT" transform="translate(7.000000, 302.000000)">
            <g id="OUT-R" transform="translate(39.000000, 0.000000)" fill="#FF5050">
                <circle id="Oval" cx="15" cy="32" r="15"></circle>
                <path d="M10.4042969,8.171875 C10.4042969,7.58853875 10.4915356,7.09896031 10.6660156,6.703125 C10.7962246,6.41145687 10.9739572,6.14974074 11.1992188,5.91796875 C11.4244803,5.68619676 11.6712226,5.51432348 11.9394531,5.40234375 C12.2962257,5.25130133 12.70768,5.17578125 13.1738281,5.17578125 C14.0175823,5.17578125 14.6927058,5.43749738 15.1992188,5.9609375 C15.7057317,6.48437762 15.9589844,7.21223492 15.9589844,8.14453125 C15.9589844,9.06901504 15.7076848,9.7923151 15.2050781,10.3144531 C14.7024714,10.8365912 14.0306032,11.0976562 13.1894531,11.0976562 C12.3378864,11.0976562 11.6608098,10.8378932 11.1582031,10.3183594 C10.6555964,9.79882553 10.4042969,9.08333789 10.4042969,8.171875 Z M11.5957031,8.1328125 C11.5957031,8.78125324 11.7454412,9.27278479 12.0449219,9.60742188 C12.3444025,9.94205896 12.7246071,10.109375 13.1855469,10.109375 C13.6464867,10.109375 14.0247381,9.94336104 14.3203125,9.61132812 C14.6158869,9.27929521 14.7636719,8.78125332 14.7636719,8.1171875 C14.7636719,7.46093422 14.6197931,6.97135578 14.3320312,6.6484375 C14.0442694,6.32551922 13.6621118,6.1640625 13.1855469,6.1640625 C12.708982,6.1640625 12.3248713,6.32747232 12.0332031,6.65429688 C11.741535,6.98112143 11.5957031,7.47395504 11.5957031,8.1328125 Z M16.8535156,5.2734375 L18.0097656,5.2734375 L18.0097656,8.375 C18.0097656,8.86718996 18.0240884,9.18619719 18.0527344,9.33203125 C18.1022138,9.56640742 18.2200512,9.75455658 18.40625,9.89648438 C18.5924488,10.0384122 18.8470036,10.109375 19.1699219,10.109375 C19.4980485,10.109375 19.7454419,10.0423184 19.9121094,9.90820312 C20.0787769,9.77408787 20.1790363,9.60937598 20.2128906,9.4140625 C20.246745,9.21874902 20.2636719,8.89453352 20.2636719,8.44140625 L20.2636719,5.2734375 L21.4199219,5.2734375 L21.4199219,8.28125 C21.4199219,8.96875344 21.3886722,9.45442566 21.3261719,9.73828125 C21.2636716,10.0221368 21.1484383,10.2617178 20.9804688,10.4570312 C20.8124992,10.6523447 20.587892,10.8079421 20.3066406,10.9238281 C20.0253892,11.0397141 19.6582054,11.0976562 19.2050781,11.0976562 C18.6582004,11.0976562 18.243491,11.0345058 17.9609375,10.9082031 C17.678384,10.7819004 17.4550789,10.6178396 17.2910156,10.4160156 C17.1269523,10.2141917 17.0188805,10.0026053 16.9667969,9.78125 C16.8912757,9.45312336 16.8535156,8.9687532 16.8535156,8.328125 L16.8535156,5.2734375 Z M23.9277344,11 L23.9277344,6.2421875 L22.2285156,6.2421875 L22.2285156,5.2734375 L26.7792969,5.2734375 L26.7792969,6.2421875 L25.0839844,6.2421875 L25.0839844,11 L23.9277344,11 Z M32.1855469,5.2734375 C32.7975291,5.2734375 33.2421861,5.32486928 33.5195312,5.42773438 C33.7968764,5.53059947 34.0188794,5.71354035 34.1855469,5.9765625 C34.3522144,6.23958465 34.4355469,6.54036289 34.4355469,6.87890625 C34.4355469,7.3085959 34.3092461,7.66341006 34.0566406,7.94335938 C33.8040352,8.22330869 33.4264348,8.39973922 32.9238281,8.47265625 C33.1738294,8.61849031 33.3802075,8.77864496 33.5429688,8.953125 C33.70573,9.12760504 33.9251288,9.43749777 34.2011719,9.8828125 L34.9003906,11 L33.5175781,11 L32.476562,9.45080481 C32.2890619,9.17858783 32.1542973,8.99902387 32.0722656,8.91210938 C31.9628901,8.79622338 31.8470058,8.71679709 31.7246094,8.67382812 C31.6266922,8.63945295 31.4829434,8.61882806 31.2933598,8.6119531 L30.9082031,8.609375 L30.9082031,11 L29.7519531,11 L29.7519531,5.2734375 L32.1855469,5.2734375 Z M29.1074219,8.375 L29.1074219,9.47265625 L26.9511719,9.47265625 L26.9511719,8.375 L29.1074219,8.375 Z M30.9082031,6.2421875 L30.9082031,7.6953125 L31.9408524,7.69444445 C32.392757,7.68981486 32.6800486,7.66666688 32.8027344,7.625 C32.9407559,7.57812477 33.0488277,7.49739641 33.1269531,7.3828125 C33.2050785,7.26822859 33.2441406,7.12500086 33.2441406,6.953125 C33.2441406,6.7604157 33.1927088,6.6048183 33.0898438,6.48632812 C32.9869787,6.36783795 32.8417978,6.29296891 32.6542969,6.26171875 C32.6074216,6.2552083 32.5136722,6.25032549 32.3730476,6.24707029 L32.25879,6.24493406 L30.9082031,6.2421875 Z" fill-rule="nonzero"></path>
            </g>
            <g id="OUT-L" fill="#343633">
                <circle id="Oval-Copy" cx="15" cy="32" r="15"></circle>
                <path d="M10.8496094,8.171875 C10.8496094,7.58853875 10.9368481,7.09896031 11.1113281,6.703125 C11.2415371,6.41145687 11.4192697,6.14974074 11.6445312,5.91796875 C11.8697928,5.68619676 12.1165351,5.51432348 12.3847656,5.40234375 C12.7415382,5.25130133 13.1529925,5.17578125 13.6191406,5.17578125 C14.4628948,5.17578125 15.1380183,5.43749738 15.6445312,5.9609375 C16.1510442,6.48437762 16.4042969,7.21223492 16.4042969,8.14453125 C16.4042969,9.06901504 16.1529973,9.7923151 15.6503906,10.3144531 C15.1477839,10.8365912 14.4759157,11.0976562 13.6347656,11.0976562 C12.7831989,11.0976562 12.1061223,10.8378932 11.6035156,10.3183594 C11.1009089,9.79882553 10.8496094,9.08333789 10.8496094,8.171875 Z M12.0410156,8.1328125 C12.0410156,8.78125324 12.1907537,9.27278479 12.4902344,9.60742188 C12.789715,9.94205896 13.1699196,10.109375 13.6308594,10.109375 C14.0917992,10.109375 14.4700506,9.94336104 14.765625,9.61132812 C15.0611994,9.27929521 15.2089844,8.78125332 15.2089844,8.1171875 C15.2089844,7.46093422 15.0651056,6.97135578 14.7773438,6.6484375 C14.4895819,6.32551922 14.1074243,6.1640625 13.6308594,6.1640625 C13.1542945,6.1640625 12.7701838,6.32747232 12.4785156,6.65429688 C12.1868475,6.98112143 12.0410156,7.47395504 12.0410156,8.1328125 Z M17.2988281,5.2734375 L18.4550781,5.2734375 L18.4550781,8.375 C18.4550781,8.86718996 18.4694009,9.18619719 18.4980469,9.33203125 C18.5475263,9.56640742 18.6653637,9.75455658 18.8515625,9.89648438 C19.0377613,10.0384122 19.2923161,10.109375 19.6152344,10.109375 C19.943361,10.109375 20.1907544,10.0423184 20.3574219,9.90820312 C20.5240894,9.77408787 20.6243488,9.60937598 20.6582031,9.4140625 C20.6920575,9.21874902 20.7089844,8.89453352 20.7089844,8.44140625 L20.7089844,5.2734375 L21.8652344,5.2734375 L21.8652344,8.28125 C21.8652344,8.96875344 21.8339847,9.45442566 21.7714844,9.73828125 C21.7089841,10.0221368 21.5937508,10.2617178 21.4257812,10.4570312 C21.2578117,10.6523447 21.0332045,10.8079421 20.7519531,10.9238281 C20.4707017,11.0397141 20.1035179,11.0976562 19.6503906,11.0976562 C19.1035129,11.0976562 18.6888035,11.0345058 18.40625,10.9082031 C18.1236965,10.7819004 17.9003914,10.6178396 17.7363281,10.4160156 C17.5722648,10.2141917 17.464193,10.0026053 17.4121094,9.78125 C17.3365882,9.45312336 17.2988281,8.9687532 17.2988281,8.328125 L17.2988281,5.2734375 Z M24.3730469,11 L24.3730469,6.2421875 L22.6738281,6.2421875 L22.6738281,5.2734375 L27.2246094,5.2734375 L27.2246094,6.2421875 L25.5292969,6.2421875 L25.5292969,11 L24.3730469,11 Z M27.3964844,9.47265625 L27.3964844,8.375 L29.5527344,8.375 L29.5527344,9.47265625 L27.3964844,9.47265625 Z M30.2246094,11 L30.2246094,5.3203125 L31.3808594,5.3203125 L31.3808594,10.0351562 L34.2558594,10.0351562 L34.2558594,11 L30.2246094,11 Z" fill-rule="nonzero"></path>
            </g>
        </g>
        <g id="IN" transform="translate(6.000000, 226.000000)">
            <g id="IN-R" transform="translate(39.000000, 0.000000)" fill="#FF5050" fill-rule="nonzero">
                <path d="M17.5,26.5 L15.5,26.5 L15.5,29.5 L17.5,29.5 L17.5,26.5 Z M17.5,30.5 L15.5,30.5 L15.5,33.5 L17.5,33.5 L17.5,30.5 Z M17.5,34.5 L15.5,34.5 L15.5,37.5 L17.5,37.5 L17.5,34.5 Z M17.5,38.5 L15.5,38.5 L15.5,41.5 L17.5,41.5 L17.5,38.5 Z M17.5,42.5 L15.5,42.5 L15.5,45.5 L17.5,45.5 L17.5,42.5 Z M17.5,46.5 L15.5,46.5 L15.5,49.5 L17.5,49.5 L17.5,46.5 Z M17.5,50.5 L15.5,50.5 L15.5,53.5 L17.5,53.5 L17.5,50.5 Z M17.5,54.5 L15.5,54.5 L15.5,57.5 L17.5,57.5 L17.5,54.5 Z M17.5,58.5 L15.5,58.5 L15.5,61.5 L17.5,61.5 L17.5,58.5 Z" id="Line-Copy-7"></path>
                <path d="M8.82617188,11 L8.82617188,5.2734375 L9.98242188,5.2734375 L9.98242188,11 L8.82617188,11 Z M11.0957031,11 L11.0957031,5.2734375 L12.2207031,5.2734375 L14.5644531,9.09765625 L14.5644531,5.2734375 L15.6386719,5.2734375 L15.6386719,11 L14.4785156,11 L12.1699219,7.265625 L12.1699219,11 L11.0957031,11 Z M21.9628906,5.2734375 C22.5748729,5.2734375 23.0195299,5.32486928 23.296875,5.42773438 C23.5742201,5.53059947 23.7962231,5.71354035 23.9628906,5.9765625 C24.1295581,6.23958465 24.2128906,6.54036289 24.2128906,6.87890625 C24.2128906,7.3085959 24.0865898,7.66341006 23.8339844,7.94335938 C23.5813789,8.22330869 23.2037786,8.39973922 22.7011719,8.47265625 C22.9511731,8.61849031 23.1575513,8.77864496 23.3203125,8.953125 C23.4830737,9.12760504 23.7024726,9.43749777 23.9785156,9.8828125 L24.6777344,11 L23.2949219,11 L22.4589844,9.75390625 C22.1621079,9.30859152 21.9589849,9.02799537 21.8496094,8.91210938 C21.7402338,8.79622338 21.6243496,8.71679709 21.5019531,8.67382812 C21.404036,8.63945295 21.2602871,8.61882806 21.0707036,8.6119531 L20.6855469,8.609375 L20.6855469,11 L19.5292969,11 L19.5292969,5.2734375 L21.9628906,5.2734375 Z M18.8847656,8.375 L18.8847656,9.47265625 L16.7285156,9.47265625 L16.7285156,8.375 L18.8847656,8.375 Z M20.6855469,6.2421875 L20.6855469,7.6953125 L21.7181961,7.69444445 C22.1701008,7.68981486 22.4573923,7.66666688 22.5800781,7.625 C22.7180996,7.57812477 22.8261715,7.49739641 22.9042969,7.3828125 C22.9824223,7.26822859 23.0214844,7.12500086 23.0214844,6.953125 C23.0214844,6.7604157 22.9700526,6.6048183 22.8671875,6.48632812 C22.7643224,6.36783795 22.6191416,6.29296891 22.4316406,6.26171875 C22.3847654,6.2552083 22.291016,6.25032549 22.1503913,6.24707029 L22.0361337,6.24493406 L20.6855469,6.2421875 Z"></path>
            </g>
            <polygon id="Triangle-Copy-6" fill="#000000" transform="translate(36.000000, 27.000000) scale(1, -1) rotate(-270.000000) translate(-36.000000, -27.000000) " points="36 23.5 41 30.5 31 30.5"></polygon>
            <g id="IN-L" fill="#343633" fill-rule="nonzero">
                <path d="M17.5,26.5 L15.5,26.5 L15.5,29.5 L17.5,29.5 L17.5,26.5 Z M17.5,30.5 L15.5,30.5 L15.5,33.5 L17.5,33.5 L17.5,30.5 Z M17.5,34.5 L15.5,34.5 L15.5,37.5 L17.5,37.5 L17.5,34.5 Z M17.5,38.5 L15.5,38.5 L15.5,41.5 L17.5,41.5 L17.5,38.5 Z M17.5,42.5 L15.5,42.5 L15.5,45.5 L17.5,45.5 L17.5,42.5 Z M17.5,46.5 L15.5,46.5 L15.5,49.5 L17.5,49.5 L17.5,46.5 Z M17.5,50.5 L15.5,50.5 L15.5,53.5 L17.5,53.5 L17.5,50.5 Z M17.5,54.5 L15.5,54.5 L15.5,57.5 L17.5,57.5 L17.5,54.5 Z M17.5,58.5 L15.5,58.5 L15.5,61.5 L17.5,61.5 L17.5,58.5 Z" id="Line-Copy-5"></path>
                <path d="M9.27148438,11 L9.27148438,5.2734375 L10.4277344,5.2734375 L10.4277344,11 L9.27148438,11 Z M11.5410156,11 L11.5410156,5.2734375 L12.6660156,5.2734375 L15.0097656,9.09765625 L15.0097656,5.2734375 L16.0839844,5.2734375 L16.0839844,11 L14.9238281,11 L12.6152344,7.265625 L12.6152344,11 L11.5410156,11 Z M17.1738281,9.47265625 L17.1738281,8.375 L19.3300781,8.375 L19.3300781,9.47265625 L17.1738281,9.47265625 Z M20.0019531,11 L20.0019531,5.3203125 L21.1582031,5.3203125 L21.1582031,10.0351562 L24.0332031,10.0351562 L24.0332031,11 L20.0019531,11 Z"></path>
            </g>
        </g>
        <g id="MIX" transform="translate(5.000000, 141.000000)">
            <g id="MIX-R" transform="translate(38.000000, 0.000000)" fill="#FF5050" fill-rule="nonzero">
                <path d="M19,28 L17,28 L17,31 L19,31 L19,28 Z M19,32 L17,32 L17,35 L19,35 L19,32 Z M19,36 L17,36 L17,39 L19,39 L19,36 Z M19,40 L17,40 L17,43 L19,43 L19,40 Z M19,44 L17,44 L17,47 L19,47 L19,44 Z M19,48 L17,48 L17,51 L19,51 L19,48 Z M19,52 L17,52 L17,55 L19,55 L19,52 Z M19,56 L17,56 L17,59 L19,59 L19,56 Z M19,60 L17,60 L17,63 L19,63 L19,60 Z M19,64 L17,64 L17,67 L19,67 L19,64 Z M19,68 L17,68 L17,71 L19,71 L19,68 Z" id="Line"></path>
                <path d="M5.734375,11 L5.734375,5.2734375 L7.46484375,5.2734375 L8.50390625,9.1796875 L9.53125,5.2734375 L11.265625,5.2734375 L11.265625,11 L10.1914062,11 L10.1914062,6.4921875 L9.0546875,11 L7.94140625,11 L6.80859375,6.4921875 L6.80859375,11 L5.734375,11 Z M12.3789062,11 L12.3789062,5.2734375 L13.5351562,5.2734375 L13.5351562,11 L12.3789062,11 Z M14.0546875,11 L16.0117188,8.01171875 L14.2382812,5.2734375 L15.5898438,5.2734375 L16.7382812,7.11328125 L17.8632812,5.2734375 L19.203125,5.2734375 L17.421875,8.0546875 L19.3789062,11 L17.984375,11 L16.7148438,9.01953125 L15.4414062,11 L14.0546875,11 Z M25.0742188,5.2734375 C25.686201,5.2734375 26.130858,5.32486928 26.4082031,5.42773438 C26.6855483,5.53059947 26.9075513,5.71354035 27.0742188,5.9765625 C27.2408862,6.23958465 27.3242188,6.54036289 27.3242188,6.87890625 C27.3242188,7.3085959 27.1979179,7.66341006 26.9453125,7.94335938 C26.6927071,8.22330869 26.3151067,8.39973922 25.8125,8.47265625 C26.0625012,8.61849031 26.2688794,8.77864496 26.4316406,8.953125 C26.5711503,9.10267932 26.7522712,9.35172052 26.9750076,9.70025445 L27.7890625,11 L26.40625,11 L25.3652338,9.45080481 C25.1777337,9.17858783 25.0429692,8.99902387 24.9609375,8.91210938 C24.851562,8.79622338 24.7356777,8.71679709 24.6132812,8.67382812 C24.5153641,8.63945295 24.3716152,8.61882806 24.1820317,8.6119531 L23.796875,8.609375 L23.796875,11 L22.640625,11 L22.640625,5.2734375 L25.0742188,5.2734375 Z M21.9960938,8.375 L21.9960938,9.47265625 L19.8398438,9.47265625 L19.8398438,8.375 L21.9960938,8.375 Z M23.796875,6.2421875 L23.796875,7.6953125 L24.8295242,7.69444445 C25.2814289,7.68981486 25.5687205,7.66666688 25.6914062,7.625 C25.8294278,7.57812477 25.9374996,7.49739641 26.015625,7.3828125 C26.0937504,7.26822859 26.1328125,7.12500086 26.1328125,6.953125 C26.1328125,6.7604157 26.0813807,6.6048183 25.9785156,6.48632812 C25.8756505,6.36783795 25.7304697,6.29296891 25.5429688,6.26171875 C25.4960935,6.2552083 25.4023441,6.25032549 25.2617195,6.24707029 L25.1474618,6.24493406 L23.796875,6.2421875 Z"></path>
            </g>
            <polygon id="Triangle-Copy-7" fill="#000000" transform="translate(37.000000, 69.500000) scale(1, -1) rotate(-270.000000) translate(-37.000000, -69.500000) " points="37 66 42 73 32 73"></polygon>
            <g id="MIX-L" fill="#343633" fill-rule="nonzero">
                <path d="M18,26.5 L16,26.5 L16,29.5 L18,29.5 L18,26.5 Z M18,30.5 L16,30.5 L16,33.5 L18,33.5 L18,30.5 Z M18,34.5 L16,34.5 L16,37.5 L18,37.5 L18,34.5 Z M18,38.5 L16,38.5 L16,41.5 L18,41.5 L18,38.5 Z M18,42.5 L16,42.5 L16,45.5 L18,45.5 L18,42.5 Z M18,46.5 L16,46.5 L16,49.5 L18,49.5 L18,46.5 Z M18,50.5 L16,50.5 L16,53.5 L18,53.5 L18,50.5 Z M18,54.5 L16,54.5 L16,57.5 L18,57.5 L18,54.5 Z M18,58.5 L16,58.5 L16,61.5 L18,61.5 L18,58.5 Z M18,62.5 L16,62.5 L16,65.5 L18,65.5 L18,62.5 Z M18,66.5 L16,66.5 L16,69.5 L18,69.5 L18,66.5 Z" id="Line-Copy"></path>
                <path d="M6.1796875,11 L6.1796875,5.2734375 L7.91015625,5.2734375 L8.94921875,9.1796875 L9.9765625,5.2734375 L11.7109375,5.2734375 L11.7109375,11 L10.6367188,11 L10.6367188,6.4921875 L9.5,11 L8.38671875,11 L7.25390625,6.4921875 L7.25390625,11 L6.1796875,11 Z M12.8242188,11 L12.8242188,5.2734375 L13.9804688,5.2734375 L13.9804688,11 L12.8242188,11 Z M14.5,11 L16.4570312,8.01171875 L14.6835938,5.2734375 L16.0351562,5.2734375 L17.1835938,7.11328125 L18.3085938,5.2734375 L19.6484375,5.2734375 L17.8671875,8.0546875 L19.8242188,11 L18.4296875,11 L17.1601562,9.01953125 L15.8867188,11 L14.5,11 Z M20.2851562,9.47265625 L20.2851562,8.375 L22.4414062,8.375 L22.4414062,9.47265625 L20.2851562,9.47265625 Z M23.1132812,11 L23.1132812,5.3203125 L24.2695312,5.3203125 L24.2695312,10.0351562 L27.1445312,10.0351562 L27.1445312,11 L23.1132812,11 Z"></path>
            </g>
        </g>
        <g id="Delay-Feedback" transform="translate(7.000000, 57.000000)" fill-rule="nonzero">
            <g id="Feedback" transform="translate(32.000000, 0.000000)">
                <path d="M23,27 L21,27 L21,30 L23,30 L23,27 Z M23,31 L21,31 L21,34 L23,34 L23,31 Z M23,35 L21,35 L21,38 L23,38 L23,35 Z M23,39 L21,39 L21,42 L23,42 L23,39 Z M23,43 L21,43 L21,46 L23,46 L23,43 Z M23,47 L21,47 L21,50 L23,50 L23,47 Z M23,51 L21,51 L21,54 L23,54 L23,51 Z M23,55 L21,55 L21,58 L23,58 L23,55 Z M23,59 L21,59 L21,62 L23,62 L23,59 Z M23,63 L21,63 L21,66 L23,66 L23,63 Z M23,67 L21,67 L21,70 L23,70 L23,67 Z" id="Line" fill="#307DEE"></path>
                <path d="M1.3671875,11 L1.3671875,5.2734375 L5.29296875,5.2734375 L5.29296875,6.2421875 L2.5234375,6.2421875 L2.5234375,7.59765625 L4.9140625,7.59765625 L4.9140625,8.56640625 L2.5234375,8.56640625 L2.5234375,11 L1.3671875,11 Z M6.24609375,11 L6.24609375,5.2734375 L10.4921875,5.2734375 L10.4921875,6.2421875 L7.40234375,6.2421875 L7.40234375,7.51171875 L10.2773438,7.51171875 L10.2773438,8.4765625 L7.40234375,8.4765625 L7.40234375,10.0351562 L10.6015625,10.0351562 L10.6015625,11 L6.24609375,11 Z M11.5820312,11 L11.5820312,5.2734375 L15.828125,5.2734375 L15.828125,6.2421875 L12.7382812,6.2421875 L12.7382812,7.51171875 L15.6132812,7.51171875 L15.6132812,8.4765625 L12.7382812,8.4765625 L12.7382812,10.0351562 L15.9375,10.0351562 L15.9375,11 L11.5820312,11 Z M16.9140625,5.2734375 L19.0273438,5.2734375 C19.5039086,5.2734375 19.8671862,5.30989547 20.1171875,5.3828125 C20.4531267,5.48177133 20.7408842,5.65755082 20.9804688,5.91015625 C21.2200533,6.16276168 21.4023431,6.47200338 21.5273438,6.83789062 C21.6523444,7.20377787 21.7148438,7.65494523 21.7148438,8.19140625 C21.7148438,8.66276277 21.6562506,9.06900871 21.5390625,9.41015625 C21.3958326,9.826825 21.1914076,10.1640612 20.9257812,10.421875 C20.7252594,10.6171885 20.4544288,10.7695307 20.1132812,10.8789062 C19.8580716,10.9596358 19.5169292,11 19.0898438,11 L16.9140625,11 L16.9140625,5.2734375 Z M18.0703125,6.2421875 L18.0703125,10.0351562 L18.9335938,10.0351562 L19.2265631,10.0290799 C19.4019101,10.0209781 19.5373259,10.0047744 19.6328125,9.98046875 C19.8203134,9.93359352 19.9759108,9.85416723 20.0996094,9.7421875 C20.2233079,9.63020777 20.3242184,9.44596482 20.4023438,9.18945312 C20.4804691,8.93294143 20.5195312,8.58333555 20.5195312,8.140625 C20.5195312,7.69791445 20.4804691,7.3580741 20.4023438,7.12109375 C20.3242184,6.8841134 20.2148445,6.69921941 20.0742188,6.56640625 C19.933593,6.43359309 19.7552094,6.34375023 19.5390625,6.296875 L19.388916,6.27294914 C19.2097172,6.2524413 18.9433611,6.2421875 18.5898438,6.2421875 L18.0703125,6.2421875 Z M22.6992188,11 L22.6992188,5.2734375 L24.9882812,5.2734375 C25.4414085,5.2734375 25.7792958,5.29231752 26.0019531,5.33007812 C26.2246105,5.36783873 26.4238272,5.44661398 26.5996094,5.56640625 C26.7753915,5.68619852 26.9218744,5.84570213 27.0390625,6.04492188 C27.1562506,6.24414162 27.2148438,6.46744668 27.2148438,6.71484375 C27.2148438,6.98307426 27.1425788,7.22916555 26.9980469,7.453125 C26.8535149,7.67708445 26.6575533,7.84505152 26.4101562,7.95703125 C26.7591163,8.05859426 27.0273428,8.23176961 27.2148438,8.4765625 C27.4023447,8.72135539 27.4960938,9.00911293 27.4960938,9.33984375 C27.4960938,9.60026172 27.4355475,9.85351439 27.3144531,10.0996094 C27.1933588,10.3457044 27.0279958,10.542317 26.8183594,10.6894531 C26.6087229,10.8365893 26.350262,10.9270832 26.0429688,10.9609375 L25.8946875,10.9725 C25.6534381,10.9866667 25.2380238,10.9958333 24.6484375,11 L22.6992188,11 Z M23.8554688,6.2265625 L23.8554688,7.55078125 L25.0481576,7.54803469 C25.2497768,7.54498294 25.3847653,7.53938806 25.453125,7.53125 C25.6510427,7.50781238 25.8066401,7.43945369 25.9199219,7.32617188 C26.0332037,7.21289006 26.0898438,7.06380301 26.0898438,6.87890625 C26.0898438,6.70182203 26.0410161,6.55794326 25.9433594,6.44726562 C25.8457026,6.33658799 25.7005218,6.26953137 25.5078125,6.24609375 C25.4059601,6.23451962 25.1343577,6.22808962 24.6929984,6.22680362 L23.8554688,6.2265625 Z M23.8554688,8.50390625 L23.8554688,10.0351562 L24.9257812,10.0351562 C25.34245,10.0351562 25.6067703,10.0234376 25.71875,10 C25.8906259,9.96874984 26.0305984,9.89257873 26.1386719,9.77148438 C26.2467453,9.65039002 26.3007812,9.48828227 26.3007812,9.28515625 C26.3007812,9.11328039 26.259115,8.96744852 26.1757812,8.84765625 C26.0924475,8.72786398 25.972006,8.64062527 25.8144531,8.5859375 C25.6569003,8.53124973 25.3151068,8.50390625 24.7890625,8.50390625 L23.8554688,8.50390625 Z M33.6367188,11 L32.3789062,11 L31.8789062,9.69921875 L29.5898438,9.69921875 L29.1171875,11 L27.890625,11 L30.1210938,5.2734375 L31.34375,5.2734375 L33.6367188,11 Z M31.5078125,8.734375 L30.71875,6.609375 L29.9453125,8.734375 L31.5078125,8.734375 Z M37.9140625,8.89453125 L39.0351562,9.25 C38.8632804,9.87500312 38.577476,10.3391912 38.1777344,10.6425781 C37.7779928,10.9459651 37.2708364,11.0976562 36.65625,11.0976562 C35.8958295,11.0976562 35.2708358,10.8378932 34.78125,10.3183594 C34.2916642,9.79882553 34.046875,9.08854617 34.046875,8.1875 C34.046875,7.23437023 34.2929663,6.49414326 34.7851562,5.96679688 C35.2773462,5.43945049 35.9244752,5.17578125 36.7265625,5.17578125 C37.4270868,5.17578125 37.9960916,5.38281043 38.4335938,5.796875 C38.6940117,6.04166789 38.8893223,6.39322687 39.0195312,6.8515625 L37.875,7.125 C37.8072913,6.82812352 37.6660167,6.59375086 37.4511719,6.421875 C37.2363271,6.24999914 36.975262,6.1640625 36.6679688,6.1640625 C36.2434875,6.1640625 35.8990899,6.31640473 35.6347656,6.62109375 C35.3704414,6.92578277 35.2382812,7.41926742 35.2382812,8.1015625 C35.2382812,8.82552445 35.3684883,9.3411443 35.6289062,9.6484375 C35.8893242,9.9557307 36.2278625,10.109375 36.6445312,10.109375 C36.9518245,10.109375 37.2161447,10.0117197 37.4375,9.81640625 C37.6588553,9.62109277 37.8177079,9.31380418 37.9140625,8.89453125 Z M40.0429688,11 L40.0429688,5.2734375 L41.1992188,5.2734375 L41.1992188,7.81640625 L43.5351562,5.2734375 L45.0898438,5.2734375 L42.9335938,7.50390625 L45.2070312,11 L43.7109375,11 L42.1367188,8.3125 L41.1992188,9.26953125 L41.1992188,11 L40.0429688,11 Z" id="FEEDBACK" fill="#000000"></path>
            </g>
            <g id="Delay">
                <path d="M16,27 L14,27 L14,30 L16,30 L16,27 Z M16,31 L14,31 L14,34 L16,34 L16,31 Z M16,35 L14,35 L14,38 L16,38 L16,35 Z M16,39 L14,39 L14,42 L16,42 L16,39 Z M16,43 L14,43 L14,46 L16,46 L16,43 Z M16,47 L14,47 L14,50 L16,50 L16,47 Z M16,51 L14,51 L14,54 L16,54 L16,51 Z M16,55 L14,55 L14,58 L16,58 L16,55 Z M16,59 L14,59 L14,62 L16,62 L16,59 Z M16,63 L14,63 L14,66 L16,66 L16,63 Z M16,67 L14,67 L14,70 L16,70 L16,67 Z" id="Line" fill="#307DEE"></path>
                <path d="M3.88867188,5.2734375 L6.00195312,5.2734375 C6.47851801,5.2734375 6.84179562,5.30989547 7.09179688,5.3828125 C7.42773605,5.48177133 7.71549359,5.65755082 7.95507812,5.91015625 C8.19466266,6.16276168 8.3769525,6.47200338 8.50195312,6.83789062 C8.62695375,7.20377787 8.68945312,7.65494523 8.68945312,8.19140625 C8.68945312,8.66276277 8.63085996,9.06900871 8.51367188,9.41015625 C8.37044199,9.826825 8.16601695,10.1640612 7.90039062,10.421875 C7.69986879,10.6171885 7.42903816,10.7695307 7.08789062,10.8789062 C6.83268102,10.9596358 6.49153859,11 6.06445312,11 L3.88867188,11 L3.88867188,5.2734375 Z M5.04492188,6.2421875 L5.04492188,10.0351562 L5.90820312,10.0351562 L6.20117243,10.0290799 C6.3765195,10.0209781 6.51193529,10.0047744 6.60742188,9.98046875 C6.79492281,9.93359352 6.95052021,9.85416723 7.07421875,9.7421875 C7.19791729,9.63020777 7.29882773,9.44596482 7.37695312,9.18945312 C7.45507852,8.93294143 7.49414062,8.58333555 7.49414062,8.140625 C7.49414062,7.69791445 7.45507852,7.3580741 7.37695312,7.12109375 C7.29882773,6.8841134 7.18945383,6.69921941 7.04882812,6.56640625 C6.90820242,6.43359309 6.72981879,6.34375023 6.51367188,6.296875 L6.36352538,6.27294914 C6.1843266,6.2524413 5.91797052,6.2421875 5.56445312,6.2421875 L5.04492188,6.2421875 Z M9.66992188,11 L9.66992188,5.2734375 L13.9160156,5.2734375 L13.9160156,6.2421875 L10.8261719,6.2421875 L10.8261719,7.51171875 L13.7011719,7.51171875 L13.7011719,8.4765625 L10.8261719,8.4765625 L10.8261719,10.0351562 L14.0253906,10.0351562 L14.0253906,11 L9.66992188,11 Z M15.0371094,11 L15.0371094,5.3203125 L16.1933594,5.3203125 L16.1933594,10.0351562 L19.0683594,10.0351562 L19.0683594,11 L15.0371094,11 Z M25.0566406,11 L23.7988281,11 L23.2988281,9.69921875 L21.0097656,9.69921875 L20.5371094,11 L19.3105469,11 L21.5410156,5.2734375 L22.7636719,5.2734375 L25.0566406,11 Z M22.9277344,8.734375 L22.1386719,6.609375 L21.3652344,8.734375 L22.9277344,8.734375 Z M26.4394531,11 L26.4394531,8.58984375 L24.3417969,5.2734375 L25.6972656,5.2734375 L27.0449219,7.5390625 L28.3652344,5.2734375 L29.6972656,5.2734375 L27.5917969,8.59765625 L27.5917969,11 L26.4394531,11 Z" id="DELAY" fill="#000000"></path>
            </g>
        </g>
        <path d="M43.4335938,37 L43.4335938,31.2734375 L45.7226562,31.2734375 C46.1757835,31.2734375 46.5136708,31.2923175 46.7363281,31.3300781 C46.9589855,31.3678387 47.1582022,31.446614 47.3339844,31.5664062 C47.5097665,31.6861985 47.6562494,31.8457021 47.7734375,32.0449219 C47.8906256,32.2441416 47.9492188,32.4674467 47.9492188,32.7148438 C47.9492188,32.9830743 47.8769538,33.2291655 47.7324219,33.453125 C47.5878899,33.6770845 47.3919283,33.8450515 47.1445312,33.9570312 C47.4934913,34.0585943 47.7617178,34.2317696 47.9492188,34.4765625 C48.1367197,34.7213554 48.2304688,35.0091129 48.2304688,35.3398438 C48.2304688,35.6002617 48.1699225,35.8535144 48.0488281,36.0996094 C47.9277338,36.3457044 47.7623708,36.542317 47.5527344,36.6894531 C47.3430979,36.8365893 47.084637,36.9270832 46.7773438,36.9609375 L46.6290625,36.9725 C46.3878131,36.9866667 45.9723988,36.9958333 45.3828125,37 L43.4335938,37 Z M44.5898438,32.2265625 L44.5898438,33.5507812 L45.7825326,33.5480347 C45.9841518,33.5449829 46.1191403,33.5393881 46.1875,33.53125 C46.3854177,33.5078124 46.5410151,33.4394537 46.6542969,33.3261719 C46.7675787,33.2128901 46.8242188,33.063803 46.8242188,32.8789062 C46.8242188,32.701822 46.7753911,32.5579433 46.6777344,32.4472656 C46.5800776,32.336588 46.4348968,32.2695314 46.2421875,32.2460938 C46.1403351,32.2345196 45.8687327,32.2280896 45.4273734,32.2268036 L44.5898438,32.2265625 Z M44.5898438,34.5039062 L44.5898438,36.0351562 L45.6601562,36.0351562 C46.076825,36.0351562 46.3411453,36.0234376 46.453125,36 C46.6250009,35.9687498 46.7649734,35.8925787 46.8730469,35.7714844 C46.9811203,35.65039 47.0351562,35.4882823 47.0351562,35.2851562 C47.0351562,35.1132804 46.99349,34.9674485 46.9101562,34.8476562 C46.8268225,34.727864 46.706381,34.6406253 46.5488281,34.5859375 C46.3912753,34.5312497 46.0494818,34.5039062 45.5234375,34.5039062 L44.5898438,34.5039062 Z M50.7109375,37 L50.7109375,34.5898438 L48.6132812,31.2734375 L49.96875,31.2734375 L51.3164062,33.5390625 L52.6367188,31.2734375 L53.96875,31.2734375 L51.8632812,34.5976562 L51.8632812,37 L50.7109375,37 Z M54.5429688,37 L54.5429688,31.2734375 L56.3984375,31.2734375 C57.101566,31.2734375 57.5598948,31.302083 57.7734375,31.359375 C58.1015641,31.4453129 58.376301,31.63216 58.5976562,31.9199219 C58.8190115,32.2076837 58.9296875,32.5794248 58.9296875,33.0351562 C58.9296875,33.3867205 58.8658861,33.6822905 58.7382812,33.921875 C58.6106764,34.1614595 58.4485687,34.3496087 58.2519531,34.4863281 C58.0553376,34.6230476 57.8554698,34.7135414 57.6523438,34.7578125 C57.4157354,34.8046877 57.0882509,34.8314733 56.6698828,34.8381697 L55.6992188,34.8398438 L55.6992188,37 L54.5429688,37 Z M55.6992188,32.2421875 L55.6992188,33.8671875 L56.3320312,33.8671875 L56.6455087,33.8615723 C56.9306651,33.8503419 57.1308588,33.8222658 57.2460938,33.7773438 C57.3997404,33.7174476 57.5201819,33.6236986 57.6074219,33.4960938 C57.6946619,33.3684889 57.7382812,33.2200529 57.7382812,33.0507812 C57.7382812,32.8424469 57.6770839,32.6705736 57.5546875,32.5351562 C57.4322911,32.3997389 57.2773447,32.3151043 57.0898438,32.28125 C56.9715396,32.2589285 56.7508783,32.2461734 56.4278546,32.2429847 L55.6992188,32.2421875 Z M64.4492188,37 L63.1914062,37 L62.6914062,35.6992188 L60.4023438,35.6992188 L59.9296875,37 L58.703125,37 L60.9335938,31.2734375 L62.15625,31.2734375 L64.4492188,37 Z M62.3203125,34.734375 L61.53125,32.609375 L60.7578125,34.734375 L62.3203125,34.734375 Z M64.7695312,35.1367188 L65.8945312,35.0273438 C65.9622399,35.4049498 66.0996083,35.6822908 66.3066406,35.859375 C66.5136729,36.0364592 66.792967,36.125 67.1445312,36.125 C67.5169289,36.125 67.7975251,36.0462247 67.9863281,35.8886719 C68.1751312,35.731119 68.2695312,35.5468761 68.2695312,35.3359375 C68.2695312,35.2005202 68.2298181,35.0852869 68.1503906,34.9902344 C68.0709631,34.8951818 67.9322927,34.8125004 67.734375,34.7421875 C67.5989577,34.6953123 67.290367,34.6119798 66.8085938,34.4921875 C66.188799,34.3385409 65.7539075,34.1497407 65.5039062,33.9257812 C65.152342,33.6106755 64.9765625,33.2265648 64.9765625,32.7734375 C64.9765625,32.4817694 65.059244,32.2089856 65.2246094,31.9550781 C65.3899748,31.7011706 65.6282537,31.5078132 65.9394531,31.375 C66.2506526,31.2421868 66.6262999,31.1757812 67.0664062,31.1757812 C67.7851598,31.1757812 68.3261701,31.3333318 68.6894531,31.6484375 C69.0527362,31.9635432 69.2434895,32.384112 69.2617188,32.9101562 L68.1054688,32.9609375 C68.0559893,32.6666652 67.9498706,32.4550788 67.7871094,32.3261719 C67.6243481,32.197265 67.38021,32.1328125 67.0546875,32.1328125 C66.7187483,32.1328125 66.4557301,32.2018222 66.265625,32.3398438 C66.1432286,32.4283859 66.0820312,32.5468743 66.0820312,32.6953125 C66.0820312,32.8307298 66.1393223,32.9466141 66.2539062,33.0429688 C66.3835365,33.1517656 66.6777725,33.2646762 67.1366216,33.3817032 L67.3164062,33.4257812 C67.8789091,33.5585944 68.2949205,33.6959628 68.5644531,33.8378906 C68.8339857,33.9798184 69.0449211,34.1738269 69.1972656,34.4199219 C69.3496101,34.6660169 69.4257812,34.9700503 69.4257812,35.3320312 C69.4257812,35.6601579 69.3346363,35.9674465 69.1523438,36.2539062 C68.9700512,36.540366 68.7122413,36.7532545 68.3789062,36.8925781 C68.0455712,37.0319017 67.6302108,37.1015625 67.1328125,37.1015625 C66.4088505,37.1015625 65.8528665,36.9342465 65.4648438,36.5996094 C65.076821,36.2649723 64.8450525,35.777347 64.7695312,35.1367188 Z M70.1054688,35.1367188 L71.2304688,35.0273438 C71.2981774,35.4049498 71.4355458,35.6822908 71.6425781,35.859375 C71.8496104,36.0364592 72.1289045,36.125 72.4804688,36.125 C72.8528664,36.125 73.1334626,36.0462247 73.3222656,35.8886719 C73.5110687,35.731119 73.6054688,35.5468761 73.6054688,35.3359375 C73.6054688,35.2005202 73.5657556,35.0852869 73.4863281,34.9902344 C73.4069006,34.8951818 73.2682302,34.8125004 73.0703125,34.7421875 C72.9348952,34.6953123 72.6263045,34.6119798 72.1445312,34.4921875 C71.5247365,34.3385409 71.089845,34.1497407 70.8398438,33.9257812 C70.4882795,33.6106755 70.3125,33.2265648 70.3125,32.7734375 C70.3125,32.4817694 70.3951815,32.2089856 70.5605469,31.9550781 C70.7259123,31.7011706 70.9641912,31.5078132 71.2753906,31.375 C71.5865901,31.2421868 71.9622374,31.1757812 72.4023438,31.1757812 C73.1210973,31.1757812 73.6621076,31.3333318 74.0253906,31.6484375 C74.3886737,31.9635432 74.579427,32.384112 74.5976562,32.9101562 L73.4414062,32.9609375 C73.3919268,32.6666652 73.2858081,32.4550788 73.1230469,32.3261719 C72.9602856,32.197265 72.7161475,32.1328125 72.390625,32.1328125 C72.0546858,32.1328125 71.7916676,32.2018222 71.6015625,32.3398438 C71.4791661,32.4283859 71.4179688,32.5468743 71.4179688,32.6953125 C71.4179688,32.8307298 71.4752598,32.9466141 71.5898438,33.0429688 C71.719474,33.1517656 72.01371,33.2646762 72.4725591,33.3817032 L72.6523438,33.4257812 C73.2148466,33.5585944 73.630858,33.6959628 73.9003906,33.8378906 C74.1699232,33.9798184 74.3808586,34.1738269 74.5332031,34.4199219 C74.6855476,34.6660169 74.7617188,34.9700503 74.7617188,35.3320312 C74.7617188,35.6601579 74.6705738,35.9674465 74.4882812,36.2539062 C74.3059887,36.540366 74.0481788,36.7532545 73.7148438,36.8925781 C73.3815087,37.0319017 72.9661483,37.1015625 72.46875,37.1015625 C71.744788,37.1015625 71.188804,36.9342465 70.8007812,36.5996094 C70.4127585,36.2649723 70.18099,35.777347 70.1054688,35.1367188 Z" id="BYPASS" fill="#000000" fill-rule="nonzero"></path>
    </g>
</svg>