<?xml version="1.0" encoding="UTF-8"?>
<svg width="90px" height="380px" viewBox="0 0 90 380" version="1.1" xmlns="http://www.w3.org/2000/svg" xmlns:xlink="http://www.w3.org/1999/xlink">
    <!-- Generator: Sketch 58 (84663) - https://sketch.com -->
    <title>SuperVCA</title>
    <desc>Created with Sketch.</desc>
    <g id="SuperVCA" stroke="none" stroke-width="1" fill="none" fill-rule="evenodd">
        <g id="bg" fill-rule="nonzero">
            <rect id="Background" fill="#C5C6BF" x="0" y="0" width="90" height="380" rx="1"></rect>
            <g id="Logo/Panel/LightMode" transform="translate(2.000000, 365.000000)" fill="#000000">
                <g id="Logo/Print/LightMode" transform="translate(0.000000, -0.000000)">
                    <path d="M1.80237699,2.03200605 L3.11692154,2.03200605 L3.11692154,4.55607359 L5.5854887,2.03200605 L7.31218418,2.03200605 L4.69177194,4.55607359 L7.44667553,8.16129032 L5.72865691,8.16129032 L3.75467088,5.48336694 L3.11692154,6.11126512 L3.11692154,8.16129032 L1.80237699,8.16129032 L1.80237699,2.03200605 Z M10.7048371,5.95740927 C10.626745,6.00453653 10.5479309,6.04265358 10.4683926,6.07176159 C10.3888543,6.1008696 10.2796716,6.12789806 10.1408411,6.15284778 L9.86318152,6.20274698 C9.60287436,6.24710204 9.4163237,6.30115896 9.30352394,6.36491935 C9.11263202,6.47303481 9.0171875,6.64074987 9.0171875,6.86806956 C9.0171875,7.07043952 9.07575573,7.21667042 9.19289395,7.30676663 C9.31003217,7.39686285 9.45247589,7.44191028 9.62022939,7.44191028 C9.88632114,7.44191028 10.13144,7.36706224 10.3555934,7.21736391 C10.5797468,7.06766558 10.6961602,6.79460884 10.7048371,6.39818548 L10.7048371,5.95740927 Z M9.95428856,5.40435988 C10.1827793,5.37663797 10.346193,5.3419861 10.4445312,5.30040323 C10.6209617,5.22832625 10.7091755,5.11605419 10.7091755,4.96358367 C10.7091755,4.77784685 10.6419305,4.64963493 10.5074385,4.57894405 C10.3729465,4.50825317 10.1755498,4.47290827 9.91524269,4.47290827 C9.62312021,4.47290827 9.41632375,4.54221201 9.29484707,4.68082157 C9.20807802,4.78339265 9.15023286,4.92200013 9.12130984,5.09664819 L7.92824136,5.09664819 C7.95427207,4.70022483 8.0699624,4.37449724 8.27531582,4.11945565 C8.60214592,3.7202601 9.16324403,3.52066532 9.95862699,3.52066532 C10.476349,3.52066532 10.9362181,3.61907664 11.338248,3.81590222 C11.7402779,4.0127278 11.9412899,4.38419586 11.9412899,4.93031754 L11.9412899,7.0094506 C11.9412899,7.15360455 11.9441822,7.32824998 11.9499668,7.53339214 C11.9586437,7.68863485 11.9832279,7.79397654 12.0237201,7.84942036 C12.0642123,7.90486419 12.1249497,7.95060466 12.2059342,7.98664315 L12.2059342,8.16129032 L10.8610206,8.16129032 C10.8234207,8.06980801 10.7973904,7.98387137 10.7829289,7.90347782 C10.7684673,7.82308428 10.7568983,7.73160334 10.7482214,7.62903226 C10.5775756,7.8064525 10.380902,7.95753466 10.1581948,8.08228327 C9.89210306,8.2292094 9.59130819,8.30267137 9.2558012,8.30267137 C8.82774055,8.30267137 8.47416197,8.18554805 8.19505485,7.95129788 C7.91594774,7.71704772 7.77639628,7.38508279 7.77639628,6.95539315 C7.77639628,6.3981827 8.0005463,5.99483492 8.44885306,5.7453377 C8.6946987,5.60950033 9.05623099,5.51247509 9.53346077,5.45425907 L9.95428856,5.40435988 Z M14.2710273,3.62878024 L14.2710273,6.36076109 C14.2710273,6.61857488 14.3028421,6.81262536 14.3664727,6.94291835 C14.4792725,7.17301022 14.7005303,7.28805444 15.0302527,7.28805444 C15.4525287,7.28805444 15.7417545,7.1244976 15.8979388,6.79737903 C15.9789233,6.61995879 16.0194149,6.38571214 16.0194149,6.09463206 L16.0194149,3.62878024 L17.2732214,3.62878024 L17.2732214,8.16129032 L16.0714761,8.16129032 L16.0714761,7.52091734 L16.0563783,7.54087698 C16.0409914,7.56222267 16.0171012,7.59715198 15.9847074,7.64566532 C15.9384306,7.7149701 15.8834777,7.7759574 15.8198471,7.82862903 C15.6260629,7.99496051 15.4387891,8.10861865 15.2580203,8.16960685 C15.0772514,8.23059506 14.8653935,8.26108871 14.6224402,8.26108871 C13.9225031,8.26108871 13.451065,8.01991169 13.2081117,7.5375504 C13.0721735,7.27142004 13.0042055,6.87916086 13.0042055,6.36076109 L13.0042055,3.62878024 L14.2710273,3.62878024 Z M17.9803856,4.51449093 L17.9803856,3.6703629 L18.6398271,3.6703629 L18.6398271,2.40625 L19.8632646,2.40625 L19.8632646,3.6703629 L20.6311669,3.6703629 L20.6311669,4.51449093 L19.8632646,4.51449093 L19.8632646,6.90965222 C19.8632646,7.09538903 19.8878488,7.21112628 19.937018,7.25686744 C19.9861871,7.3026086 20.1365845,7.32547883 20.3882148,7.32547883 C20.4258147,7.32547883 20.4655832,7.32478579 20.5075216,7.3233997 C20.54946,7.3220136 20.5906747,7.31993449 20.6311669,7.3171623 L20.6311669,8.20287298 L20.0454787,8.22366431 C19.4612338,8.24306965 19.0621021,8.14604441 18.8480718,7.93258569 C18.7092413,7.79674831 18.6398271,7.58745101 18.6398271,7.3046875 L18.6398271,4.51449093 L17.9803856,4.51449093 Z M23.290625,4.48538306 C23.0042871,4.48538306 22.7823063,4.57131971 22.6246759,4.74319556 C22.4670454,4.91507142 22.3679856,5.147932 22.3274934,5.44178427 L24.2494182,5.44178427 C24.2291721,5.12852666 24.1301123,4.89081482 23.9522357,4.72864163 C23.7743592,4.56646844 23.5538245,4.48538306 23.290625,4.48538306 Z M23.290625,3.50819052 C23.683978,3.50819052 24.0382797,3.57888034 24.3535406,3.7202621 C24.6688014,3.86164385 24.9291047,4.0848019 25.1344581,4.38974294 C25.3195654,4.6586455 25.4395941,4.97051234 25.4945479,5.32535282 C25.5263632,5.53326717 25.5393784,5.83265934 25.5335938,6.22353831 L22.2971243,6.22353831 C22.3144781,6.67817768 22.4634294,6.99697489 22.7439827,7.17993952 C22.9146285,7.29359936 23.1199789,7.35042843 23.3600399,7.35042843 C23.6145624,7.35042843 23.8213589,7.28112468 23.9804355,7.14251512 C24.0672046,7.06766596 24.1438494,6.96371034 24.2103723,6.83064516 L25.4728557,6.83064516 C25.4410404,7.09954772 25.2949814,7.37260446 25.0346742,7.64982359 C24.629752,8.090602 24.0628693,8.3109879 23.3340093,8.3109879 C22.7324106,8.3109879 22.2016812,8.12525387 21.7418052,7.75378024 C21.2819292,7.38230661 21.0519947,6.77797798 21.0519947,5.94077621 C21.0519947,5.15624608 21.2595142,4.55468959 21.6745595,4.13608871 C22.0896048,3.71748783 22.6282879,3.50819052 23.290625,3.50819052 Z M28.9869847,3.52066532 C29.4757837,3.52066532 29.8756384,3.64333295 30.1865608,3.88867188 C30.4974833,4.1340108 30.6529422,4.54082377 30.6529422,5.10912298 L30.6529422,8.16129032 L29.3861203,8.16129032 L29.3861203,5.40435988 C29.3861203,5.16595143 29.3528594,4.98298955 29.2863364,4.85546875 C29.1648598,4.62260468 28.9334791,4.5061744 28.5921875,4.5061744 C28.1728038,4.5061744 27.8850241,4.6766616 27.7288398,5.01764113 C27.6478553,5.19783356 27.6073637,5.42792199 27.6073637,5.70791331 L27.6073637,8.16129032 L26.3752493,8.16129032 L26.3752493,3.63709677 L27.5683178,3.63709677 L27.5683178,4.29826109 C27.7273944,4.06539702 27.8777918,3.89768196 28.0195146,3.79511089 C28.2740372,3.61214626 28.596524,3.52066532 28.9869847,3.52066532 Z M33.0868019,3.08820565 L31.8503491,3.08820565 L31.8503491,1.99458165 L33.0868019,1.99458165 L33.0868019,3.08820565 Z M31.255984,9.97845262 L31.255984,9.03036794 L31.3916956,9.04014637 L31.3916956,9.04014637 L31.4034907,9.04076361 C31.4324137,9.0421497 31.458444,9.04284274 31.4815824,9.04284274 C31.6030591,9.04284274 31.6948883,9.01442821 31.7570728,8.95759829 C31.8192573,8.90076837 31.8503491,8.79057541 31.8503491,8.62701613 L31.8503491,3.64957157 L33.0868019,3.64957157 L33.0868019,8.64780746 C33.0868019,9.10521902 32.9928035,9.44342128 32.8048039,9.6624244 C32.6228687,9.87436289 32.2716444,9.98374896 31.7511207,9.99058559 L31.698504,9.99092742 C31.6770183,9.99092742 31.6496303,9.99047482 31.6163395,9.98956962 L31.3457632,9.98082878 C31.3173125,9.98003673 31.2873862,9.97924468 31.255984,9.97845262 Z M36.8699136,5.95740927 C36.7918214,6.00453653 36.7130074,6.04265358 36.6334691,6.07176159 C36.5539308,6.1008696 36.444748,6.12789806 36.3059176,6.15284778 L36.028258,6.20274698 C35.7679508,6.24710204 35.5814002,6.30115896 35.4686004,6.36491935 C35.2777085,6.47303481 35.182264,6.64074987 35.182264,6.86806956 C35.182264,7.07043952 35.2408322,7.21667042 35.3579704,7.30676663 C35.4751086,7.39686285 35.6175524,7.44191028 35.7853059,7.44191028 C36.0513976,7.44191028 36.2965165,7.36706224 36.5206699,7.21736391 C36.7448233,7.06766558 36.8612367,6.79460884 36.8699136,6.39818548 L36.8699136,5.95740927 Z M36.119365,5.40435988 C36.3478557,5.37663797 36.5112695,5.3419861 36.6096077,5.30040323 C36.7860381,5.22832625 36.874252,5.11605419 36.874252,4.96358367 C36.874252,4.77784685 36.807007,4.64963493 36.672515,4.57894405 C36.5380229,4.50825317 36.3406263,4.47290827 36.0803191,4.47290827 C35.7881967,4.47290827 35.5814002,4.54221201 35.4599235,4.68082157 C35.3731545,4.78339265 35.3153093,4.92200013 35.2863863,5.09664819 L34.0933178,5.09664819 C34.1193485,4.70022483 34.2350389,4.37449724 34.4403923,4.11945565 C34.7672224,3.7202601 35.3283205,3.52066532 36.1237035,3.52066532 C36.6414255,3.52066532 37.1012945,3.61907664 37.5033245,3.81590222 C37.9053544,4.0127278 38.1063664,4.38419586 38.1063664,4.93031754 L38.1063664,7.0094506 C38.1063664,7.15360455 38.1092586,7.32824998 38.1150432,7.53339214 C38.1237201,7.68863485 38.1483043,7.79397654 38.1887965,7.84942036 C38.2292888,7.90486419 38.2900262,7.95060466 38.3710106,7.98664315 L38.3710106,8.16129032 L37.0260971,8.16129032 C36.9884972,8.06980801 36.9624668,7.98387137 36.9480053,7.90347782 C36.9335438,7.82308428 36.9219748,7.73160334 36.9132979,7.62903226 C36.7426521,7.8064525 36.5459785,7.95753466 36.3232713,8.08228327 C36.0571795,8.2292094 35.7563847,8.30267137 35.4208777,8.30267137 C34.992817,8.30267137 34.6392384,8.18554805 34.3601313,7.95129788 C34.0810242,7.71704772 33.9414727,7.38508279 33.9414727,6.95539315 C33.9414727,6.3981827 34.1656228,5.99483492 34.6139295,5.7453377 C34.8597752,5.60950033 35.2213075,5.51247509 35.6985372,5.45425907 L36.119365,5.40435988 Z M40.6009641,3.09652218 L40.6009641,7.09677419 L41.8330785,7.09677419 C42.4636002,7.09677419 42.9032235,6.7987681 43.1519614,6.20274698 C43.2878996,5.8756284 43.3558677,5.48614137 43.3558677,5.03427419 C43.3558677,4.41053116 43.2539156,3.9316423 43.0500083,3.59759325 C42.846101,3.2635442 42.4404618,3.09652218 41.8330785,3.09652218 L40.6009641,3.09652218 Z M42.0586769,2.03200605 C42.4549222,2.03755043 42.7846396,2.08190483 43.0478391,2.16507056 C43.4961459,2.30645232 43.8591243,2.56564832 44.1367852,2.94266633 C44.3594925,3.24760737 44.511336,3.57749319 44.5923205,3.93233367 C44.6733049,4.28717415 44.7137965,4.62537642 44.7137965,4.9469506 C44.7137965,5.76197484 44.5431533,6.45224012 44.2018617,7.01776714 C43.7390934,7.78011974 43.0247056,8.16129032 42.0586769,8.16129032 L39.3037733,8.16129032 L39.3037733,2.03200605 L42.0586769,2.03200605 Z M46.6877826,6.26927923 C46.7282748,6.54927055 46.8078119,6.75856786 46.9263963,6.89717742 C47.1433189,7.14944683 47.5149741,7.27557964 48.041373,7.27557964 C48.3566339,7.27557964 48.6125988,7.24231384 48.8092753,7.17578125 C49.1823822,7.04826045 49.3689328,6.81124165 49.3689328,6.46471774 C49.3689328,6.26234778 49.2763806,6.10572132 49.0912733,5.99483367 C48.9154213,5.89212398 48.6442973,5.80067415 48.2778937,5.72048172 L47.5424535,5.56237399 C46.8772241,5.41822005 46.417355,5.26159359 46.1628324,5.09248992 C45.7318795,4.80972641 45.5164063,4.36756853 45.5164063,3.76600302 C45.5164063,3.21710915 45.7246488,2.76109053 46.1411403,2.39793347 C46.5576317,2.03477641 47.1693444,1.8532006 47.9762965,1.8532006 C48.6502028,1.8532006 49.2250392,2.02438085 49.7008228,2.36674647 C50.1766064,2.70911209 50.4260637,3.20601993 50.4492021,3.85748488 L49.1650266,3.85748488 C49.1418882,3.48878344 48.9741372,3.22681529 48.6617686,3.07157258 C48.4535229,2.9690015 48.1946658,2.91771673 47.8851895,2.91771673 C47.5410056,2.91771673 47.2662411,2.98424833 47.0608876,3.11731351 C46.8555342,3.25037869 46.752859,3.43611272 46.752859,3.67452117 C46.752859,3.88356959 46.8450946,4.04209775 47.0295683,4.15010991 L47.0565492,4.16519657 C47.1814966,4.23439047 47.442383,4.31508002 47.8392158,4.40726749 L48.9914894,4.67250504 C49.4745037,4.78339269 49.8389283,4.9317027 50.0847739,5.11743952 C50.4665578,5.40574741 50.6574468,5.82295594 50.6574468,6.36907762 C50.6574468,6.92906026 50.4340199,7.39408837 49.9871592,7.76417591 C49.5402986,8.13426344 48.9090633,8.31930444 48.0934342,8.31930444 C47.2604513,8.31930444 46.6053548,8.13703559 46.128125,7.77249244 C45.6508952,7.40794929 45.4122839,6.90688323 45.4122839,6.26927923 L46.6877826,6.26927923 Z M55.2475066,3.98223286 C55.2475066,3.66343087 55.1600158,3.43611459 54.9850316,3.30027722 C54.8100473,3.16443985 54.5649284,3.09652218 54.2496676,3.09652218 L53.0045379,3.09652218 L53.0045379,4.90120968 L54.2496676,4.90120968 C54.5649284,4.90120968 54.8100473,4.82774771 54.9850316,4.68082157 C55.1600158,4.53389543 55.2475066,4.30103486 55.2475066,3.98223286 Z M56.5707281,3.97391633 C56.5707281,4.69745825 56.379839,5.20891987 55.9980552,5.50831653 C55.6162714,5.80771319 55.0710807,5.95740927 54.3624668,5.95740927 L53.0045379,5.95740927 L53.0045379,8.16129032 L51.6769781,8.16129032 L51.6769781,2.03200605 L54.4622507,2.03200605 C55.1043416,2.03200605 55.6162714,2.19001858 55.9980552,2.50604839 C56.379839,2.82207819 56.5707281,3.31136261 56.5707281,3.97391633 Z" id="KautenjaDSP"></path>
                </g>
            </g>
            <path d="M35.1721191,12.2036133 L36.7121582,12.2036133 L36.2111816,15.0517578 L36.2111816,15.0981445 C36.2111816,15.2032883 36.2482906,15.2960608 36.3225098,15.3764648 C36.3967289,15.4568689 36.486409,15.4970703 36.5915527,15.4970703 L37.4450684,15.4970703 C37.5811367,15.4970703 37.7048334,15.4537765 37.8161621,15.3671875 C37.9336757,15.2744136 38.0048013,15.1630866 38.029541,15.0332031 L38.3635254,13.1591797 C38.3758952,13.1035153 38.3820801,13.0447594 38.3820801,12.9829102 C38.3820801,12.7708555 38.3002888,12.5042761 38.1367042,12.1831658 L36.4245605,8.97509766 L36.4245605,8.97509766 C36.1895333,8.51122815 36.0720215,8.05664285 36.0720215,7.61132812 L36.0720215,7.52783203 C36.0720215,7.42268828 36.0812987,7.31445368 36.0998535,7.203125 L36.4987793,4.90234375 C36.5606286,4.55598785 36.7338039,4.26839307 37.0183105,4.03955078 C37.2904473,3.81070849 37.6027814,3.69628906 37.9553223,3.69628906 L40.1818848,3.69628906 C40.503501,3.69628906 40.7818185,3.81380091 41.0168457,4.04882812 C41.2580578,4.28385534 41.3786621,4.57454254 41.3786621,4.92089844 C41.3786621,4.97450114 41.3759133,5.02123126 41.3704156,5.06108939 L40.7756348,8.38134766 L39.217041,8.38134766 L39.7087402,5.63525391 C39.7211101,5.61669913 39.7272949,5.59195979 39.7272949,5.56103516 C39.7272949,5.46826125 39.6870935,5.38167358 39.6066895,5.30126953 C39.5262854,5.23323534 39.4335129,5.19921875 39.3283691,5.19921875 L38.4748535,5.19921875 C38.3387851,5.19921875 38.2181809,5.24251259 38.1130371,5.32910156 C38.0078934,5.40950561 37.9429526,5.51155537 37.9182129,5.63525391 L37.6491699,7.11035156 C37.6306151,7.22168024 37.6213379,7.33609967 37.6213379,7.45361328 C37.6213379,7.88655815 37.7635891,8.33495862 38.0480957,8.79882812 L38.8311815,10.0946305 C39.3808802,11.0217341 39.6733978,11.56701 39.7087402,11.7304688 C39.8695483,12.0273452 39.9499512,12.352049 39.9499512,12.7045898 C39.9437662,12.8653979 39.9252117,13.0354809 39.8942871,13.2148438 L39.4211426,15.784668 C39.3592933,16.1310239 39.1892104,16.4217111 38.9108887,16.6567383 C38.632567,16.8855806 38.314048,17 37.9553223,17 L35.7380371,17 C35.410236,17 35.1350109,16.8824882 34.9123535,16.6474609 C34.6958811,16.4124337 34.5876465,16.1248389 34.5876465,15.784668 L34.5876465,15.5712891 L35.1721191,12.2036133 Z M42.6682129,3.69628906 L44.208252,3.69628906 L42.1672363,15.0703125 L42.1672363,15.1166992 C42.1672363,15.221843 42.2012529,15.3146155 42.2692871,15.3950195 C42.3496912,15.4754236 42.4424637,15.515625 42.5476074,15.515625 L43.401123,15.515625 C43.7227392,15.515625 43.9113767,15.3610042 43.967041,15.0517578 L46.0266113,3.69628906 L47.6037598,3.69628906 L45.3864746,15.8032227 C45.3246253,16.1433936 45.1545424,16.427896 44.8762207,16.6567383 C44.597899,16.8855806 44.27938,17 43.9206543,17 L41.6848145,17 C41.3693832,17 41.0972505,16.8824882 40.8684082,16.6474609 C40.6395659,16.4124337 40.5251465,16.1310238 40.5251465,15.8032227 L40.5251465,15.5712891 L42.6682129,3.69628906 Z M48.6706543,3.69628906 L52.1682129,3.69628906 C52.496014,3.69628906 52.777424,3.81689333 53.0124512,4.05810547 C53.2412935,4.28694776 53.3557129,4.5498032 53.3557129,4.84667969 C53.3557129,4.90028239 53.3515897,4.95800777 53.3433431,5.01985664 L52.4743652,9.82861328 C52.412516,10.1811541 52.2455254,10.4718413 51.9733887,10.7006836 C51.7012519,10.9295259 51.3889178,11.0439453 51.036377,11.0439453 L48.9489746,11.0439453 L47.8635254,17.0092773 L46.2585449,17.0092773 L48.6706543,3.69628906 Z M50.498291,9.54101562 C50.6343594,9.54101562 50.7549637,9.49772179 50.8601074,9.41113281 C50.9590662,9.33072876 51.0209146,9.22558659 51.0456543,9.09570312 L51.7043457,5.63525391 L51.7043457,5.57958984 C51.7043457,5.46826116 51.6672367,5.37548865 51.5930176,5.30126953 C51.5187985,5.23323534 51.4291184,5.19921875 51.3239746,5.19921875 L49.9973145,5.19921875 L49.1901855,9.54101562 L50.498291,9.54101562 Z M54.6916504,3.69628906 L58.3005371,3.69628906 L58.0407715,5.18066406 L56.0368652,5.18066406 L55.2854004,9.40185547 L57.2800293,9.40185547 L57.001709,10.8862305 L55.0163574,10.8862305 L54.1906738,15.515625 L56.1574707,15.515625 L55.8884277,17 L52.279541,17 L54.6916504,3.69628906 Z M57.0109863,17 L59.3952637,3.69628906 L62.967041,3.69628906 C63.2886572,3.69628906 63.5669747,3.81380091 63.802002,4.04882812 C64.0370292,4.27767042 64.1607258,4.55908036 64.1730957,4.89306641 L63.3937988,9.30908203 C63.2886551,9.89046515 62.9453968,10.2615552 62.3640137,10.4223633 C62.5804861,10.5027673 62.7443842,10.6450185 62.8557129,10.8491211 C62.9423019,11.0099292 62.9855957,11.1892894 62.9855957,11.387207 C62.9855957,11.4305015 62.9825033,11.4768878 62.9763184,11.5263672 L62.9721951,11.6830512 C62.9708207,11.7043547 62.9691027,11.723253 62.967041,11.7397461 L62.0021973,17 L60.3693848,17 L61.3435059,11.5541992 L61.3435059,11.5078125 C61.3435059,11.4026687 61.3063969,11.3129887 61.2321777,11.2387695 C61.1579586,11.1645504 61.0682785,11.1274414 60.9631348,11.1274414 L59.673584,11.1274414 L58.6345215,17 L57.0109863,17 Z M59.9611816,9.54101562 L61.2507324,9.54101562 C61.3868008,9.54101562 61.5074051,9.49462937 61.6125488,9.40185547 C61.7115077,9.31526649 61.773356,9.2070319 61.7980957,9.07714844 L62.4289551,5.63525391 L62.4289551,5.57958984 C62.4289551,5.46826116 62.3918461,5.37548865 62.317627,5.30126953 C62.2372229,5.23323534 62.141358,5.19921875 62.0300293,5.19921875 L60.7497559,5.19921875 L59.9611816,9.54101562 Z M67.986084,3.69628906 L69.498291,3.69628906 L69.0344238,13.2797852 L71.8547363,3.69628906 L73.5524902,3.69628906 L69.173584,17 L67.4758301,17 L67.986084,3.69628906 Z M77.782959,3.69628906 C78.1045752,3.69628906 78.3798003,3.81380091 78.6086426,4.04882812 C78.8436698,4.28385534 78.9611816,4.57145012 78.9611816,4.91162109 C78.9611816,4.96934708 78.9584328,5.01882604 78.9529351,5.06005858 L78.348877,8.42773438 L76.8088379,8.42773438 L77.3098145,5.63525391 L77.3098145,5.57958984 C77.3098145,5.46826116 77.2727054,5.37548865 77.1984863,5.30126953 C77.1242672,5.23323534 77.0314947,5.19921875 76.920166,5.19921875 L76.057373,5.19921875 C75.9274896,5.19921875 75.8068853,5.24251259 75.6955566,5.32910156 C75.5904129,5.40950561 75.5254721,5.51155537 75.5007324,5.63525391 L73.8029785,15.0517578 L73.8029785,15.0981445 C73.8029785,15.2032883 73.8400875,15.2960608 73.9143066,15.3764648 C73.9885258,15.4568689 74.0812983,15.4970703 74.192627,15.4970703 L75.0461426,15.4970703 C75.3677588,15.4970703 75.5563962,15.3424495 75.6120605,15.0332031 L76.1130371,12.25 L77.6623535,12.25 L77.0314941,15.784668 C76.9696449,16.1310239 76.7964695,16.4217111 76.5119629,16.6567383 C76.2336412,16.8855806 75.9182147,17 75.5656738,17 L73.3483887,17 C73.0205876,17 72.74227,16.8824882 72.5134277,16.6474609 C72.2845854,16.4062488 72.170166,16.118654 72.170166,15.784668 L72.170166,15.5527344 L74.0812988,4.90234375 C74.1431481,4.55598785 74.313231,4.26839307 74.5915527,4.03955078 C74.8698744,3.81070849 75.1822086,3.69628906 75.5285645,3.69628906 L77.782959,3.69628906 Z M83.5534668,3.69628906 L83.1359863,17 L81.6237793,17 L81.7351074,14.8105469 L79.916748,14.8105469 L79.267334,17 L77.5695801,17 L81.9577637,3.69628906 L83.5534668,3.69628906 Z M82.1062012,7.41650391 L80.3620605,13.3076172 L81.8093262,13.3076172 L82.1062012,7.41650391 Z" id="SuperVCA" fill="#FF5050"></path>
        </g>
        <g id="OUT" transform="translate(9.000000, 303.000000)">
            <g id="OUT-R" transform="translate(39.000000, 0.000000)" fill="#FF5050">
                <circle id="Oval" cx="15" cy="32" r="15"></circle>
                <path d="M10.4042969,8.171875 C10.4042969,7.58853875 10.4915356,7.09896031 10.6660156,6.703125 C10.7962246,6.41145687 10.9739572,6.14974074 11.1992188,5.91796875 C11.4244803,5.68619676 11.6712226,5.51432348 11.9394531,5.40234375 C12.2962257,5.25130133 12.70768,5.17578125 13.1738281,5.17578125 C14.0175823,5.17578125 14.6927058,5.43749738 15.1992188,5.9609375 C15.7057317,6.48437762 15.9589844,7.21223492 15.9589844,8.14453125 C15.9589844,9.06901504 15.7076848,9.7923151 15.2050781,10.3144531 C14.7024714,10.8365912 14.0306032,11.0976562 13.1894531,11.0976562 C12.3378864,11.0976562 11.6608098,10.8378932 11.1582031,10.3183594 C10.6555964,9.79882553 10.4042969,9.08333789 10.4042969,8.171875 Z M11.5957031,8.1328125 C11.5957031,8.78125324 11.7454412,9.27278479 12.0449219,9.60742188 C12.3444025,9.94205896 12.7246071,10.109375 13.1855469,10.109375 C13.6464867,10.109375 14.0247381,9.94336104 14.3203125,9.61132812 C14.6158869,9.27929521 14.7636719,8.78125332 14.7636719,8.1171875 C14.7636719,7.46093422 14.6197931,6.97135578 14.3320312,6.6484375 C14.0442694,6.32551922 13.6621118,6.1640625 13.1855469,6.1640625 C12.708982,6.1640625 12.3248713,6.32747232 12.0332031,6.65429688 C11.741535,6.98112143 11.5957031,7.47395504 11.5957031,8.1328125 Z M16.8535156,5.2734375 L18.0097656,5.2734375 L18.0097656,8.375 C18.0097656,8.86718996 18.0240884,9.18619719 18.0527344,9.33203125 C18.1022138,9.56640742 18.2200512,9.75455658 18.40625,9.89648438 C18.5924488,10.0384122 18.8470036,10.109375 19.1699219,10.109375 C19.4980485,10.109375 19.7454419,10.0423184 19.9121094,9.90820312 C20.0787769,9.77408787 20.1790363,9.60937598 20.2128906,9.4140625 C20.246745,9.21874902 20.2636719,8.89453352 20.2636719,8.44140625 L20.2636719,5.2734375 L21.4199219,5.2734375 L21.4199219,8.28125 C21.4199219,8.96875344 21.3886722,9.45442566 21.3261719,9.73828125 C21.2636716,10.0221368 21.1484383,10.2617178 20.9804688,10.4570312 C20.8124992,10.6523447 20.587892,10.8079421 20.3066406,10.9238281 C20.0253892,11.0397141 19.6582054,11.0976562 19.2050781,11.0976562 C18.6582004,11.0976562 18.243491,11.0345058 17.9609375,10.9082031 C17.678384,10.7819004 17.4550789,10.6178396 17.2910156,10.4160156 C17.1269523,10.2141917 17.0188805,10.0026053 16.9667969,9.78125 C16.8912757,9.45312336 16.8535156,8.9687532 16.8535156,8.328125 L16.8535156,5.2734375 Z M23.9277344,11 L23.9277344,6.2421875 L22.2285156,6.2421875 L22.2285156,5.2734375 L26.7792969,5.2734375 L26.7792969,6.2421875 L25.0839844,6.2421875 L25.0839844,11 L23.9277344,11 Z M32.1855469,5.2734375 C32.7975291,5.2734375 33.2421861,5.32486928 33.5195312,5.42773438 C33.7968764,5.53059947 34.0188794,5.71354035 34.1855469,5.9765625 C34.3522144,6.23958465 34.4355469,6.54036289 34.4355469,6.87890625 C34.4355469,7.3085959 34.3092461,7.66341006 34.0566406,7.94335938 C33.8040352,8.22330869 33.4264348,8.39973922 32.9238281,8.47265625 C33.1738294,8.61849031 33.3802075,8.77864496 33.5429688,8.953125 C33.70573,9.12760504 33.9251288,9.43749777 34.2011719,9.8828125 L34.9003906,11 L33.5175781,11 L32.476562,9.45080481 C32.2890619,9.17858783 32.1542973,8.99902387 32.0722656,8.91210938 C31.9628901,8.79622338 31.8470058,8.71679709 31.7246094,8.67382812 C31.6266922,8.63945295 31.4829434,8.61882806 31.2933598,8.6119531 L30.9082031,8.609375 L30.9082031,11 L29.7519531,11 L29.7519531,5.2734375 L32.1855469,5.2734375 Z M29.1074219,8.375 L29.1074219,9.47265625 L26.9511719,9.47265625 L26.9511719,8.375 L29.1074219,8.375 Z M30.9082031,6.2421875 L30.9082031,7.6953125 L31.9408524,7.69444445 C32.392757,7.68981486 32.6800486,7.66666688 32.8027344,7.625 C32.9407559,7.57812477 33.0488277,7.49739641 33.1269531,7.3828125 C33.2050785,7.26822859 33.2441406,7.12500086 33.2441406,6.953125 C33.2441406,6.7604157 33.1927088,6.6048183 33.0898438,6.48632812 C32.9869787,6.36783795 32.8417978,6.29296891 32.6542969,6.26171875 C32.6074216,6.2552083 32.5136722,6.25032549 32.3730476,6.24707029 L32.25879,6.24493406 L30.9082031,6.2421875 Z" fill-rule="nonzero"></path>
            </g>
            <g id="OUT-L" fill="#343633">
                <circle id="Oval-Copy" cx="15" cy="32" r="15"></circle>
                <path d="M10.8496094,8.171875 C10.8496094,7.58853875 10.9368481,7.09896031 11.1113281,6.703125 C11.2415371,6.41145687 11.4192697,6.14974074 11.6445312,5.91796875 C11.8697928,5.68619676 12.1165351,5.51432348 12.3847656,5.40234375 C12.7415382,5.25130133 13.1529925,5.17578125 13.6191406,5.17578125 C14.4628948,5.17578125 15.1380183,5.43749738 15.6445312,5.9609375 C16.1510442,6.48437762 16.4042969,7.21223492 16.4042969,8.14453125 C16.4042969,9.06901504 16.1529973,9.7923151 15.6503906,10.3144531 C15.1477839,10.8365912 14.4759157,11.0976562 13.6347656,11.0976562 C12.7831989,11.0976562 12.1061223,10.8378932 11.6035156,10.3183594 C11.1009089,9.79882553 10.8496094,9.08333789 10.8496094,8.171875 Z M12.0410156,8.1328125 C12.0410156,8.78125324 12.1907537,9.27278479 12.4902344,9.60742188 C12.789715,9.94205896 13.1699196,10.109375 13.6308594,10.109375 C14.0917992,10.109375 14.4700506,9.94336104 14.765625,9.61132812 C15.0611994,9.27929521 15.2089844,8.78125332 15.2089844,8.1171875 C15.2089844,7.46093422 15.0651056,6.97135578 14.7773438,6.6484375 C14.4895819,6.32551922 14.1074243,6.1640625 13.6308594,6.1640625 C13.1542945,6.1640625 12.7701838,6.32747232 12.4785156,6.65429688 C12.1868475,6.98112143 12.0410156,7.47395504 12.0410156,8.1328125 Z M17.2988281,5.2734375 L18.4550781,5.2734375 L18.4550781,8.375 C18.4550781,8.86718996 18.4694009,9.18619719 18.4980469,9.33203125 C18.5475263,9.56640742 18.6653637,9.75455658 18.8515625,9.89648438 C19.0377613,10.0384122 19.2923161,10.109375 19.6152344,10.109375 C19.943361,10.109375 20.1907544,10.0423184 20.3574219,9.90820312 C20.5240894,9.77408787 20.6243488,9.60937598 20.6582031,9.4140625 C20.6920575,9.21874902 20.7089844,8.89453352 20.7089844,8.44140625 L20.7089844,5.2734375 L21.8652344,5.2734375 L21.8652344,8.28125 C21.8652344,8.96875344 21.8339847,9.45442566 21.7714844,9.73828125 C21.7089841,10.0221368 21.5937508,10.2617178 21.4257812,10.4570312 C21.2578117,10.6523447 21.0332045,10.8079421 20.7519531,10.9238281 C20.4707017,11.0397141 20.1035179,11.0976562 19.6503906,11.0976562 C19.1035129,11.0976562 18.6888035,11.0345058 18.40625,10.9082031 C18.1236965,10.7819004 17.9003914,10.6178396 17.7363281,10.4160156 C17.5722648,10.2141917 17.464193,10.0026053 17.4121094,9.78125 C17.3365882,9.45312336 17.2988281,8.9687532 17.2988281,8.328125 L17.2988281,5.2734375 Z M24.3730469,11 L24.3730469,6.2421875 L22.6738281,6.2421875 L22.6738281,5.2734375 L27.2246094,5.2734375 L27.2246094,6.2421875 L25.5292969,6.2421875 L25.5292969,11 L24.3730469,11 Z M27.3964844,9.47265625 L27.3964844,8.375 L29.5527344,8.375 L29.5527344,9.47265625 L27.3964844,9.47265625 Z M30.2246094,11 L30.2246094,5.3203125 L31.3808594,5.3203125 L31.3808594,10.0351562 L34.2558594,10.0351562 L34.2558594,11 L30.2246094,11 Z" fill-rule="nonzero"></path>
            </g>
        </g>
        <g id="IN" transform="translate(8.000000, 227.000000)">
            <g id="IN-R" transform="translate(39.000000, 0.000000)" fill="#FF5050" fill-rule="nonzero">
                <path d="M17.5,26.5 L15.5,26.5 L15.5,29.5 L17.5,29.5 L17.5,26.5 Z M17.5,30.5 L15.5,30.5 L15.5,33.5 L17.5,33.5 L17.5,30.5 Z M17.5,34.5 L15.5,34.5 L15.5,37.5 L17.5,37.5 L17.5,34.5 Z M17.5,38.5 L15.5,38.5 L15.5,41.5 L17.5,41.5 L17.5,38.5 Z M17.5,42.5 L15.5,42.5 L15.5,45.5 L17.5,45.5 L17.5,42.5 Z M17.5,46.5 L15.5,46.5 L15.5,49.5 L17.5,49.5 L17.5,46.5 Z M17.5,50.5 L15.5,50.5 L15.5,53.5 L17.5,53.5 L17.5,50.5 Z M17.5,54.5 L15.5,54.5 L15.5,57.5 L17.5,57.5 L17.5,54.5 Z M17.5,58.5 L15.5,58.5 L15.5,61.5 L17.5,61.5 L17.5,58.5 Z" id="Line-Copy-7"></path>
                <path d="M8.82617188,11 L8.82617188,5.2734375 L9.98242188,5.2734375 L9.98242188,11 L8.82617188,11 Z M11.0957031,11 L11.0957031,5.2734375 L12.2207031,5.2734375 L14.5644531,9.09765625 L14.5644531,5.2734375 L15.6386719,5.2734375 L15.6386719,11 L14.4785156,11 L12.1699219,7.265625 L12.1699219,11 L11.0957031,11 Z M21.9628906,5.2734375 C22.5748729,5.2734375 23.0195299,5.32486928 23.296875,5.42773438 C23.5742201,5.53059947 23.7962231,5.71354035 23.9628906,5.9765625 C24.1295581,6.23958465 24.2128906,6.54036289 24.2128906,6.87890625 C24.2128906,7.3085959 24.0865898,7.66341006 23.8339844,7.94335938 C23.5813789,8.22330869 23.2037786,8.39973922 22.7011719,8.47265625 C22.9511731,8.61849031 23.1575513,8.77864496 23.3203125,8.953125 C23.4830737,9.12760504 23.7024726,9.43749777 23.9785156,9.8828125 L24.6777344,11 L23.2949219,11 L22.4589844,9.75390625 C22.1621079,9.30859152 21.9589849,9.02799537 21.8496094,8.91210938 C21.7402338,8.79622338 21.6243496,8.71679709 21.5019531,8.67382812 C21.404036,8.63945295 21.2602871,8.61882806 21.0707036,8.6119531 L20.6855469,8.609375 L20.6855469,11 L19.5292969,11 L19.5292969,5.2734375 L21.9628906,5.2734375 Z M18.8847656,8.375 L18.8847656,9.47265625 L16.7285156,9.47265625 L16.7285156,8.375 L18.8847656,8.375 Z M20.6855469,6.2421875 L20.6855469,7.6953125 L21.7181961,7.69444445 C22.1701008,7.68981486 22.4573923,7.66666688 22.5800781,7.625 C22.7180996,7.57812477 22.8261715,7.49739641 22.9042969,7.3828125 C22.9824223,7.26822859 23.0214844,7.12500086 23.0214844,6.953125 C23.0214844,6.7604157 22.9700526,6.6048183 22.8671875,6.48632812 C22.7643224,6.36783795 22.6191416,6.29296891 22.4316406,6.26171875 C22.3847654,6.2552083 22.291016,6.25032549 22.1503913,6.24707029 L22.0361337,6.24493406 L20.6855469,6.2421875 Z"></path>
            </g>
            <polygon id="Triangle-Copy-6" fill="#000000" transform="translate(36.000000, 27.000000) scale(1, -1) rotate(-270.000000) translate(-36.000000, -27.000000) " points="36 23.5 41 30.5 31 30.5"></polygon>
            <g id="IN-L" fill="#343633" fill-rule="nonzero">
                <path d="M17.5,26.5 L15.5,26.5 L15.5,29.5 L17.5,29.5 L17.5,26.5 Z M17.5,30.5 L15.5,30.5 L15.5,33.5 L17.5,33.5 L17.5,30.5 Z M17.5,34.5 L15.5,34.5 L15.5,37.5 L17.5,37.5 L17.5,34.5 Z M17.5,38.5 L15.5,38.5 L15.5,41.5 L17.5,41.5 L17.5,38.5 Z M17.5,42.5 L15.5,42.5 L15.5,45.5 L17.5,45.5 L17.5,42.5 Z M17.5,46.5 L15.5,46.5 L15.5,49.5 L17.5,49.5 L17.5,46.5 Z M17.5,50.5 L15.5,50.5 L15.5,53.5 L17.5,53.5 L17.5,50.5 Z M17.5,54.5 L15.5,54.5 L15.5,57.5 L17.5,57.5 L17.5,54.5 Z M17.5,58.5 L15.5,58.5 L15.5,61.5 L17.5,61.5 L17.5,58.5 Z" id="Line-Copy-5"></path>
                <path d="M9.27148438,11 L9.27148438,5.2734375 L10.4277344,5.2734375 L10.4277344,11 L9.27148438,11 Z M11.5410156,11 L11.5410156,5.2734375 L12.6660156,5.2734375 L15.0097656,9.09765625 L15.0097656,5.2734375 L16.0839844,5.2734375 L16.0839844,11 L14.9238281,11 L12.6152344,7.265625 L12.6152344,11 L11.5410156,11 Z M17.1738281,9.47265625 L17.1738281,8.375 L19.3300781,8.375 L19.3300781,9.47265625 L17.1738281,9.47265625 Z M20.0019531,11 L20.0019531,5.3203125 L21.1582031,5.3203125 L21.1582031,10.0351562 L24.0332031,10.0351562 L24.0332031,11 L20.0019531,11 Z"></path>
            </g>
        </g>
        <g id="MIX" transform="translate(7.000000, 142.000000)">
            <g id="MIX-R" transform="translate(38.000000, 0.000000)" fill="#FF5050" fill-rule="nonzero">
                <path d="M19,28 L17,28 L17,31 L19,31 L19,28 Z M19,32 L17,32 L17,35 L19,35 L19,32 Z M19,36 L17,36 L17,39 L19,39 L19,36 Z M19,40 L17,40 L17,43 L19,43 L19,40 Z M19,44 L17,44 L17,47 L19,47 L19,44 Z M19,48 L17,48 L17,51 L19,51 L19,48 Z M19,52 L17,52 L17,55 L19,55 L19,52 Z M19,56 L17,56 L17,59 L19,59 L19,56 Z M19,60 L17,60 L17,63 L19,63 L19,60 Z M19,64 L17,64 L17,67 L19,67 L19,64 Z M19,68 L17,68 L17,71 L19,71 L19,68 Z" id="Line"></path>
                <path d="M5.734375,11 L5.734375,5.2734375 L7.46484375,5.2734375 L8.50390625,9.1796875 L9.53125,5.2734375 L11.265625,5.2734375 L11.265625,11 L10.1914062,11 L10.1914062,6.4921875 L9.0546875,11 L7.94140625,11 L6.80859375,6.4921875 L6.80859375,11 L5.734375,11 Z M12.3789062,11 L12.3789062,5.2734375 L13.5351562,5.2734375 L13.5351562,11 L12.3789062,11 Z M14.0546875,11 L16.0117188,8.01171875 L14.2382812,5.2734375 L15.5898438,5.2734375 L16.7382812,7.11328125 L17.8632812,5.2734375 L19.203125,5.2734375 L17.421875,8.0546875 L19.3789062,11 L17.984375,11 L16.7148438,9.01953125 L15.4414062,11 L14.0546875,11 Z M25.0742188,5.2734375 C25.686201,5.2734375 26.130858,5.32486928 26.4082031,5.42773438 C26.6855483,5.53059947 26.9075513,5.71354035 27.0742188,5.9765625 C27.2408862,6.23958465 27.3242188,6.54036289 27.3242188,6.87890625 C27.3242188,7.3085959 27.1979179,7.66341006 26.9453125,7.94335938 C26.6927071,8.22330869 26.3151067,8.39973922 25.8125,8.47265625 C26.0625012,8.61849031 26.2688794,8.77864496 26.4316406,8.953125 C26.5711503,9.10267932 26.7522712,9.35172052 26.9750076,9.70025445 L27.7890625,11 L26.40625,11 L25.3652338,9.45080481 C25.1777337,9.17858783 25.0429692,8.99902387 24.9609375,8.91210938 C24.851562,8.79622338 24.7356777,8.71679709 24.6132812,8.67382812 C24.5153641,8.63945295 24.3716152,8.61882806 24.1820317,8.6119531 L23.796875,8.609375 L23.796875,11 L22.640625,11 L22.640625,5.2734375 L25.0742188,5.2734375 Z M21.9960938,8.375 L21.9960938,9.47265625 L19.8398438,9.47265625 L19.8398438,8.375 L21.9960938,8.375 Z M23.796875,6.2421875 L23.796875,7.6953125 L24.8295242,7.69444445 C25.2814289,7.68981486 25.5687205,7.66666688 25.6914062,7.625 C25.8294278,7.57812477 25.9374996,7.49739641 26.015625,7.3828125 C26.0937504,7.26822859 26.1328125,7.12500086 26.1328125,6.953125 C26.1328125,6.7604157 26.0813807,6.6048183 25.9785156,6.48632812 C25.8756505,6.36783795 25.7304697,6.29296891 25.5429688,6.26171875 C25.4960935,6.2552083 25.4023441,6.25032549 25.2617195,6.24707029 L25.1474618,6.24493406 L23.796875,6.2421875 Z"></path>
            </g>
            <polygon id="Triangle-Copy-7" fill="#000000" transform="translate(37.000000, 69.500000) scale(1, -1) rotate(-270.000000) translate(-37.000000, -69.500000) " points="37 66 42 73 32 73"></polygon>
            <g id="MIX-L" fill="#343633" fill-rule="nonzero">
                <path d="M18,26.5 L16,26.5 L16,29.5 L18,29.5 L18,26.5 Z M18,30.5 L16,30.5 L16,33.5 L18,33.5 L18,30.5 Z M18,34.5 L16,34.5 L16,37.5 L18,37.5 L18,34.5 Z M18,38.5 L16,38.5 L16,41.5 L18,41.5 L18,38.5 Z M18,42.5 L16,42.5 L16,45.5 L18,45.5 L18,42.5 Z M18,46.5 L16,46.5 L16,49.5 L18,49.5 L18,46.5 Z M18,50.5 L16,50.5 L16,53.5 L18,53.5 L18,50.5 Z M18,54.5 L16,54.5 L16,57.5 L18,57.5 L18,54.5 Z M18,58.5 L16,58.5 L16,61.5 L18,61.5 L18,58.5 Z M18,62.5 L16,62.5 L16,65.5 L18,65.5 L18,62.5 Z M18,66.5 L16,66.5 L16,69.5 L18,69.5 L18,66.5 Z" id="Line-Copy"></path>
                <path d="M6.1796875,11 L6.1796875,5.2734375 L7.91015625,5.2734375 L8.94921875,9.1796875 L9.9765625,5.2734375 L11.7109375,5.2734375 L11.7109375,11 L10.6367188,11 L10.6367188,6.4921875 L9.5,11 L8.38671875,11 L7.25390625,6.4921875 L7.25390625,11 L6.1796875,11 Z M12.8242188,11 L12.8242188,5.2734375 L13.9804688,5.2734375 L13.9804688,11 L12.8242188,11 Z M14.5,11 L16.4570312,8.01171875 L14.6835938,5.2734375 L16.0351562,5.2734375 L17.1835938,7.11328125 L18.3085938,5.2734375 L19.6484375,5.2734375 L17.8671875,8.0546875 L19.8242188,11 L18.4296875,11 L17.1601562,9.01953125 L15.8867188,11 L14.5,11 Z M20.2851562,9.47265625 L20.2851562,8.375 L22.4414062,8.375 L22.4414062,9.47265625 L20.2851562,9.47265625 Z M23.1132812,11 L23.1132812,5.3203125 L24.2695312,5.3203125 L24.2695312,10.0351562 L27.1445312,10.0351562 L27.1445312,11 L23.1132812,11 Z"></path>
            </g>
        </g>
        <g id="FREQ" transform="translate(9.000000, 58.000000)">
            <g id="FREQ-R" transform="translate(32.000000, 0.000000)" fill="#FF5050">
                <path d="M23,27 L21,27 L21,30 L23,30 L23,27 Z M23,31 L21,31 L21,34 L23,34 L23,31 Z M23,35 L21,35 L21,38 L23,38 L23,35 Z M23,39 L21,39 L21,42 L23,42 L23,39 Z M23,43 L21,43 L21,46 L23,46 L23,43 Z M23,47 L21,47 L21,50 L23,50 L23,47 Z M23,51 L21,51 L21,54 L23,54 L23,51 Z M23,55 L21,55 L21,58 L23,58 L23,55 Z M23,59 L21,59 L21,62 L23,62 L23,59 Z M23,63 L21,63 L21,66 L23,66 L23,63 Z M23,67 L21,67 L21,70 L23,70 L23,67 Z" id="Line" fill-rule="nonzero"></path>
                <text font-family="Arial-BoldMT, Arial" font-size="8" font-weight="bold">
                    <tspan x="7.66796875" y="7">FREQ-R</tspan>
                </text>
            </g>
            <polygon id="Triangle-Copy-7" fill="#000000" transform="translate(35.000000, 67.500000) scale(1, -1) rotate(-270.000000) translate(-35.000000, -67.500000) " points="35 64 40 71 30 71"></polygon>
            <g id="FREQ-L" fill="#343633">
                <path d="M16,27 L14,27 L14,30 L16,30 L16,27 Z M16,31 L14,31 L14,34 L16,34 L16,31 Z M16,35 L14,35 L14,38 L16,38 L16,35 Z M16,39 L14,39 L14,42 L16,42 L16,39 Z M16,43 L14,43 L14,46 L16,46 L16,43 Z M16,47 L14,47 L14,50 L16,50 L16,47 Z M16,51 L14,51 L14,54 L16,54 L16,51 Z M16,55 L14,55 L14,58 L16,58 L16,55 Z M16,59 L14,59 L14,62 L16,62 L16,59 Z M16,63 L14,63 L14,66 L16,66 L16,63 Z M16,67 L14,67 L14,70 L16,70 L16,67 Z" id="Line" fill-rule="nonzero"></path>
                <text font-family="Arial-BoldMT, Arial" font-size="8" font-weight="bold">
                    <tspan x="1.61328125" y="7">FREQ-L</tspan>
                </text>
            </g>
        </g>
        <g id="Filter-Mode" transform="translate(43.000000, 16.000000)" fill="#000000" fill-rule="nonzero">
            <path d="M8.88867188,11 L8.88867188,5.2734375 L12.8144531,5.2734375 L12.8144531,6.2421875 L10.0449219,6.2421875 L10.0449219,7.59765625 L12.4355469,7.59765625 L12.4355469,8.56640625 L10.0449219,8.56640625 L10.0449219,11 L8.88867188,11 Z M13.7324219,11 L13.7324219,5.2734375 L14.8886719,5.2734375 L14.8886719,11 L13.7324219,11 Z M16.0214844,11 L16.0214844,5.3203125 L17.1777344,5.3203125 L17.1777344,10.0351562 L20.0527344,10.0351562 L20.0527344,11 L16.0214844,11 Z M21.5722656,11 L21.5722656,6.2421875 L19.8730469,6.2421875 L19.8730469,5.2734375 L24.4238281,5.2734375 L24.4238281,6.2421875 L22.7285156,6.2421875 L22.7285156,11 L21.5722656,11 Z M29.4160156,5.2734375 L29.4160156,6.2421875 L26.3261719,6.2421875 L26.3261719,7.51171875 L29.2011719,7.51171875 L29.2011719,8.4765625 L26.3261719,8.4765625 L26.3261719,10.0351562 L29.5253906,10.0351562 L29.5253906,11 L25.1699219,11 L25.1699219,5.2734375 L29.4160156,5.2734375 Z M32.9433594,5.2734375 C33.5553416,5.2734375 33.9999986,5.32486928 34.2773438,5.42773438 C34.5546889,5.53059947 34.7766919,5.71354035 34.9433594,5.9765625 C35.1100269,6.23958465 35.1933594,6.54036289 35.1933594,6.87890625 C35.1933594,7.3085959 35.0670586,7.66341006 34.8144531,7.94335938 C34.5618477,8.22330869 34.1842473,8.39973922 33.6816406,8.47265625 C33.9316419,8.61849031 34.13802,8.77864496 34.3007812,8.953125 C34.4402909,9.10267932 34.6214118,9.35172052 34.8441482,9.70025445 L35.6582031,11 L34.2753906,11 L33.2343745,9.45080481 C33.0468744,9.17858783 32.9121098,8.99902387 32.8300781,8.91210938 C32.7207026,8.79622338 32.6048183,8.71679709 32.4824219,8.67382812 C32.3845047,8.63945295 32.2407559,8.61882806 32.0511723,8.6119531 L31.6660156,8.609375 L31.6660156,11 L30.5097656,11 L30.5097656,5.2734375 L32.9433594,5.2734375 Z M31.6660156,6.2421875 L31.6660156,7.6953125 L32.6986649,7.69444445 C33.1505695,7.68981486 33.4378611,7.66666688 33.5605469,7.625 C33.6985684,7.57812477 33.8066402,7.49739641 33.8847656,7.3828125 C33.962891,7.26822859 34.0019531,7.12500086 34.0019531,6.953125 C34.0019531,6.7604157 33.9505213,6.6048183 33.8476562,6.48632812 C33.7447912,6.36783795 33.5996103,6.29296891 33.4121094,6.26171875 C33.3652341,6.2552083 33.2714847,6.25032549 33.1308601,6.24707029 L33.0166025,6.24493406 L31.6660156,6.2421875 Z" id="FILTER"></path>
        </g>
        <g id="Bypass" transform="translate(3.000000, 16.000000)" fill="#000000" fill-rule="nonzero">
            <path d="M6,10.8242188 L6,5.09765625 L8.2890625,5.09765625 C8.74218977,5.09765625 9.08007701,5.11653627 9.30273438,5.15429688 C9.52539174,5.19205748 9.7246085,5.27083273 9.90039062,5.390625 C10.0761728,5.51041727 10.2226557,5.66992088 10.3398438,5.86914062 C10.4570318,6.06836037 10.515625,6.29166543 10.515625,6.5390625 C10.515625,6.80729301 10.4433601,7.0533843 10.2988281,7.27734375 C10.1542962,7.5013032 9.95833457,7.66927027 9.7109375,7.78125 C10.0598976,7.88281301 10.3281241,8.05598836 10.515625,8.30078125 C10.7031259,8.54557414 10.796875,8.83333168 10.796875,9.1640625 C10.796875,9.42448047 10.7363287,9.67773314 10.6152344,9.92382812 C10.49414,10.1699231 10.3287771,10.3665357 10.1191406,10.5136719 C9.90950416,10.660808 9.6510432,10.7513019 9.34375,10.7851562 L9.19546873,10.7967188 C8.95421931,10.8108855 8.53880503,10.8200521 7.94921875,10.8242188 L6,10.8242188 Z M7.15625,6.05078125 L7.15625,7.375 L8.34893883,7.37225344 C8.55055808,7.36920169 8.68554653,7.36360681 8.75390625,7.35546875 C8.95182391,7.33203113 9.10742131,7.26367244 9.22070312,7.15039062 C9.33398494,7.03710881 9.390625,6.88802176 9.390625,6.703125 C9.390625,6.52604078 9.34179736,6.38216201 9.24414062,6.27148438 C9.14648389,6.16080674 9.00130305,6.09375012 8.80859375,6.0703125 C8.70674139,6.05873837 8.435139,6.05230837 7.99377963,6.05102237 L7.15625,6.05078125 Z M7.15625,8.328125 L7.15625,9.859375 L8.2265625,9.859375 C8.64323125,9.859375 8.90755152,9.84765637 9.01953125,9.82421875 C9.19140711,9.79296859 9.33137967,9.71679748 9.43945312,9.59570312 C9.54752658,9.47460877 9.6015625,9.31250102 9.6015625,9.109375 C9.6015625,8.93749914 9.55989625,8.79166727 9.4765625,8.671875 C9.39322875,8.55208273 9.27278725,8.46484402 9.11523438,8.41015625 C8.9576815,8.35546848 8.61588805,8.328125 8.08984375,8.328125 L7.15625,8.328125 Z M13.2773438,10.8242188 L13.2773438,8.4140625 L11.1796875,5.09765625 L12.5351562,5.09765625 L13.8828125,7.36328125 L15.203125,5.09765625 L16.5351562,5.09765625 L14.4296875,8.421875 L14.4296875,10.8242188 L13.2773438,10.8242188 Z M17.109375,10.8242188 L17.109375,5.09765625 L18.9648438,5.09765625 C19.6679723,5.09765625 20.126301,5.1263018 20.3398438,5.18359375 C20.6679704,5.26953168 20.9427072,5.45637877 21.1640625,5.74414062 C21.3854178,6.03190248 21.4960938,6.40364355 21.4960938,6.859375 C21.4960938,7.21093926 21.4322923,7.50650922 21.3046875,7.74609375 C21.1770827,7.98567828 21.0149749,8.17382744 20.8183594,8.31054688 C20.6217438,8.44726631 20.421876,8.5377602 20.21875,8.58203125 C19.9821417,8.62890648 19.6546572,8.65569203 19.236289,8.66238841 L18.265625,8.6640625 L18.265625,10.8242188 L17.109375,10.8242188 Z M18.265625,6.06640625 L18.265625,7.69140625 L18.8984375,7.69140625 L19.2119149,7.68579106 C19.4970713,7.67456066 19.697265,7.6464846 19.8125,7.6015625 C19.9661466,7.54166637 20.0865881,7.4479173 20.1738281,7.3203125 C20.2610681,7.1927077 20.3046875,7.04427168 20.3046875,6.875 C20.3046875,6.66666563 20.2434902,6.49479234 20.1210938,6.359375 C19.9986973,6.22395766 19.8437509,6.13932309 19.65625,6.10546875 C19.5379458,6.08314721 19.3172845,6.07039219 18.9942608,6.06720344 L18.265625,6.06640625 Z M27.015625,10.8242188 L25.7578125,10.8242188 L25.2578125,9.5234375 L22.96875,9.5234375 L22.4960938,10.8242188 L21.2695312,10.8242188 L23.5,5.09765625 L24.7226562,5.09765625 L27.015625,10.8242188 Z M24.8867188,8.55859375 L24.0976562,6.43359375 L23.3242188,8.55859375 L24.8867188,8.55859375 Z M27.3359375,8.9609375 L28.4609375,8.8515625 C28.5286462,9.22916855 28.6660146,9.50650953 28.8730469,9.68359375 C29.0800792,9.86067797 29.3593732,9.94921875 29.7109375,9.94921875 C30.0833352,9.94921875 30.3639313,9.8704435 30.5527344,9.71289062 C30.7415374,9.55533775 30.8359375,9.3710948 30.8359375,9.16015625 C30.8359375,9.02473891 30.7962244,8.90950568 30.7167969,8.81445312 C30.6373694,8.71940057 30.4986989,8.6367191 30.3007812,8.56640625 C30.1653639,8.51953102 29.8567732,8.43619852 29.375,8.31640625 C28.7552052,8.16275965 28.3203137,7.97395945 28.0703125,7.75 C27.7187482,7.43489426 27.5429688,7.05078352 27.5429688,6.59765625 C27.5429688,6.30598812 27.6256502,6.03320439 27.7910156,5.77929688 C27.956381,5.52538936 28.1946599,5.33203191 28.5058594,5.19921875 C28.8170588,5.06640559 29.1927061,5 29.6328125,5 C30.3515661,5 30.8925763,5.15755051 31.2558594,5.47265625 C31.6191424,5.78776199 31.8098957,6.2083307 31.828125,6.734375 L30.671875,6.78515625 C30.6223956,6.49088395 30.5162769,6.27929752 30.3535156,6.15039062 C30.1907544,6.02148373 29.9466162,5.95703125 29.6210938,5.95703125 C29.2851546,5.95703125 29.0221364,6.02604098 28.8320312,6.1640625 C28.7096348,6.25260461 28.6484375,6.37109301 28.6484375,6.51953125 C28.6484375,6.65494859 28.7057286,6.77083285 28.8203125,6.8671875 C28.9499428,6.97598434 29.2441787,7.08889492 29.7030278,7.20592191 L29.8828125,7.25 C30.4453153,7.38281316 30.8613268,7.52018158 31.1308594,7.66210938 C31.400392,7.80403717 31.6113274,7.99804564 31.7636719,8.24414062 C31.9160164,8.49023561 31.9921875,8.79426902 31.9921875,9.15625 C31.9921875,9.48437664 31.9010426,9.79166523 31.71875,10.078125 C31.5364574,10.3645848 31.2786475,10.5774733 30.9453125,10.7167969 C30.6119775,10.8561205 30.1966171,10.9257812 29.6992188,10.9257812 C28.9752568,10.9257812 28.4192728,10.7584652 28.03125,10.4238281 C27.6432272,10.089191 27.4114587,9.6015657 27.3359375,8.9609375 Z M32.671875,8.9609375 L33.796875,8.8515625 C33.8645837,9.22916855 34.0019521,9.50650953 34.2089844,9.68359375 C34.4160167,9.86067797 34.6953107,9.94921875 35.046875,9.94921875 C35.4192727,9.94921875 35.6998688,9.8704435 35.8886719,9.71289062 C36.0774749,9.55533775 36.171875,9.3710948 36.171875,9.16015625 C36.171875,9.02473891 36.1321619,8.90950568 36.0527344,8.81445312 C35.9733069,8.71940057 35.8346364,8.6367191 35.6367188,8.56640625 C35.5013014,8.51953102 35.1927107,8.43619852 34.7109375,8.31640625 C34.0911427,8.16275965 33.6562512,7.97395945 33.40625,7.75 C33.0546857,7.43489426 32.8789062,7.05078352 32.8789062,6.59765625 C32.8789062,6.30598812 32.9615877,6.03320439 33.1269531,5.77929688 C33.2923185,5.52538936 33.5305974,5.33203191 33.8417969,5.19921875 C34.1529963,5.06640559 34.5286436,5 34.96875,5 C35.6875036,5 36.2285138,5.15755051 36.5917969,5.47265625 C36.9550799,5.78776199 37.1458332,6.2083307 37.1640625,6.734375 L36.0078125,6.78515625 C35.9583331,6.49088395 35.8522144,6.27929752 35.6894531,6.15039062 C35.5266919,6.02148373 35.2825537,5.95703125 34.9570312,5.95703125 C34.6210921,5.95703125 34.3580739,6.02604098 34.1679688,6.1640625 C34.0455723,6.25260461 33.984375,6.37109301 33.984375,6.51953125 C33.984375,6.65494859 34.0416661,6.77083285 34.15625,6.8671875 C34.2858803,6.97598434 34.5801162,7.08889492 35.0389653,7.20592191 L35.21875,7.25 C35.7812528,7.38281316 36.1972643,7.52018158 36.4667969,7.66210938 C36.7363295,7.80403717 36.9472649,7.99804564 37.0996094,8.24414062 C37.2519539,8.49023561 37.328125,8.79426902 37.328125,9.15625 C37.328125,9.48437664 37.2369801,9.79166523 37.0546875,10.078125 C36.8723949,10.3645848 36.614585,10.5774733 36.28125,10.7167969 C35.947915,10.8561205 35.5325546,10.9257812 35.0351562,10.9257812 C34.3111943,10.9257812 33.7552103,10.7584652 33.3671875,10.4238281 C32.9791647,10.089191 32.7473962,9.6015657 32.671875,8.9609375 Z" id="BYPASS"></path>
        </g>
    </g>
</svg>