<?xml version="1.0" encoding="UTF-8"?>
<svg width="150px" height="380px" viewBox="0 0 150 380" version="1.1" xmlns="http://www.w3.org/2000/svg" xmlns:xlink="http://www.w3.org/1999/xlink">
    <!-- Generator: Sketch 58 (84663) - https://sketch.com -->
    <title>Terracillator</title>
    <desc>Created with Sketch.</desc>
    <g id="Terracillator" stroke="none" stroke-width="1" fill="none" fill-rule="evenodd">
        <g id="bg" transform="translate(0.000000, -4.000000)">
            <rect id="cover" fill="#E6E6E6" x="0" y="4" width="150" height="380" rx="2"></rect>
            <path d="M32,33 C34.7614237,33 37,35.2385763 37,38 L37,350 C37,352.761424 34.7614237,355 32,355 L12,355 C9.23857625,355 7,352.761424 7,350 L7,38 C7,35.2385763 9.23857625,33 12,33 L32,33 Z M67,33 C69.7614237,33 72,35.2385763 72,38 L72,350 C72,352.761424 69.7614237,355 67,355 L47,355 C44.2385763,355 42,352.761424 42,350 L42,38 C42,35.2385763 44.2385763,33 47,33 L67,33 Z M102,33 C104.761424,33 107,35.2385763 107,38 L107,350 C107,352.761424 104.761424,355 102,355 L82,355 C79.2385763,355 77,352.761424 77,350 L77,38 C77,35.2385763 79.2385763,33 82,33 L102,33 Z M137,33 C139.761424,33 142,35.2385763 142,38 L142,350 C142,352.761424 139.761424,355 137,355 L117,355 C114.238576,355 112,352.761424 112,350 L112,38 C112,35.2385763 114.238576,33 117,33 L137,33 Z" id="voice-lanes" fill="#EA4F4F"></path>
            <g id="Logo/Panel/LightMode" transform="translate(43.000000, 368.000000)" fill="#000000" fill-rule="nonzero">
                <g id="Logo/Print/LightMode" transform="translate(0.000000, -0.000000)">
                    <path d="M1.95775432,2.21673387 L3.38562168,2.21673387 L3.38562168,4.9702621 L6.06699634,2.21673387 L7.94254488,2.21673387 L5.09623504,4.9702621 L8.08863032,8.90322581 L6.22250665,8.90322581 L4.0783494,5.98185484 L3.38562168,6.66683468 L3.38562168,8.90322581 L1.95775432,8.90322581 L1.95775432,2.21673387 Z M11.6276679,6.49899194 C11.5428437,6.55040348 11.4572353,6.59198573 11.3708403,6.62373992 C11.2844452,6.65549411 11.1658502,6.6849797 11.0150515,6.71219758 L10.7134558,6.76663306 C10.4307084,6.8150204 10.2280757,6.87399159 10.1055519,6.94354839 C9.89820375,7.06149253 9.79453125,7.24445441 9.79453125,7.49243952 C9.79453125,7.71320675 9.85814847,7.87273136 9.98538481,7.97101815 C10.1126211,8.06930493 10.2673445,8.11844758 10.4495595,8.11844758 C10.7385902,8.11844758 11.00484,8.03679517 11.248317,7.8734879 C11.4917939,7.71018064 11.618243,7.41230055 11.6276679,6.97983871 L11.6276679,6.49899194 Z M10.8124169,5.89566532 C11.0606051,5.86542324 11.2381062,5.82762119 11.3449219,5.78225806 C11.5365618,5.70362864 11.6323803,5.58115003 11.6323803,5.41481855 C11.6323803,5.21219657 11.5593383,5.07232901 11.4132522,4.99521169 C11.267166,4.91809437 11.0527524,4.87953629 10.770005,4.87953629 C10.4526995,4.87953629 10.2280758,4.95514037 10.096127,5.10635081 C10.0018779,5.21824653 9.93904603,5.36945469 9.90762965,5.55997984 L8.61171044,5.55997984 C8.63998518,5.127518 8.76564882,4.77217881 8.98870512,4.49395161 C9.34371022,4.05846556 9.95317886,3.84072581 10.8171293,3.84072581 C11.3794825,3.84072581 11.8789955,3.9480836 12.3156832,4.16280242 C12.7523709,4.37752123 12.9707114,4.78275912 12.9707114,5.37852823 L12.9707114,7.64667339 C12.9707114,7.80393224 12.973853,7.99445453 12.9801363,8.21824597 C12.9895612,8.38760165 13.0162647,8.50251986 13.0602477,8.56300403 C13.1042306,8.62348821 13.170204,8.6733869 13.2581699,8.71270161 L13.2581699,8.90322581 L11.7973155,8.90322581 C11.7564742,8.80342692 11.7281999,8.70967786 11.7124917,8.62197581 C11.6967835,8.53427376 11.6842171,8.43447637 11.6747922,8.32258065 C11.4894356,8.51613 11.2758074,8.6809469 11.0339013,8.81703629 C10.7448706,8.97731935 10.4181451,9.05745968 10.0537151,9.05745968 C9.58875266,9.05745968 9.20469317,8.92968878 8.9015251,8.67414315 C8.59835703,8.41859751 8.44677527,8.05645396 8.44677527,7.58770161 C8.44677527,6.97983567 8.69024856,6.53981991 9.17720246,6.26764113 C9.44424169,6.1194549 9.83694056,6.01360919 10.3553108,5.95010081 L10.8124169,5.89566532 Z M15.5012882,3.95866935 L15.5012882,6.9390121 C15.5012882,7.2202635 15.5358457,7.43195493 15.6049618,7.57409274 C15.7274857,7.82510206 15.9678174,7.95060484 16.3259641,7.95060484 C16.7846433,7.95060484 17.0988023,7.7721792 17.2684508,7.41532258 C17.3564167,7.22177323 17.4003989,6.96623143 17.4003989,6.64868952 L17.4003989,3.95866935 L18.7622922,3.95866935 L18.7622922,8.90322581 L17.4569481,8.90322581 L17.4569481,8.2046371 L17.4405489,8.22641125 C17.4238355,8.24969746 17.3978858,8.28780215 17.3626995,8.34072581 C17.3124333,8.41633102 17.252743,8.48286262 17.183627,8.54032258 C16.9731372,8.7217751 16.7697192,8.8457658 16.5733669,8.91229839 C16.3770145,8.97883098 16.1468929,9.01209677 15.8829953,9.01209677 C15.1227189,9.01209677 14.6106396,8.74899457 14.346742,8.22278226 C14.199085,7.93245823 14.1252576,7.50453912 14.1252576,6.9390121 L14.1252576,3.95866935 L15.5012882,3.95866935 Z M19.5304189,4.92489919 L19.5304189,4.00403226 L20.2467088,4.00403226 L20.2467088,2.625 L21.575615,2.625 L21.575615,4.00403226 L22.4097158,4.00403226 L22.4097158,4.92489919 L21.575615,4.92489919 L21.575615,7.53780242 C21.575615,7.7404244 21.6023185,7.86668322 21.6557264,7.91658266 C21.7091342,7.9664821 21.872497,7.99143145 22.1458195,7.99143145 C22.1866608,7.99143145 22.2298577,7.99067541 22.2754114,7.98916331 C22.3209652,7.9876512 22.3657328,7.98538308 22.4097158,7.98235887 L22.4097158,8.94858871 L21.7735372,8.97127016 C21.1389263,8.99243962 20.7053868,8.88659391 20.4729056,8.65372984 C20.322107,8.50554361 20.2467088,8.27721928 20.2467088,7.96875 L20.2467088,4.92489919 L19.5304189,4.92489919 Z M25.2984375,4.89314516 C24.9874153,4.89314516 24.7462982,4.98689422 24.575079,5.17439516 C24.4038597,5.3618961 24.2962602,5.61592582 24.2522773,5.93649194 L26.3398853,5.93649194 C26.3178938,5.59475636 26.2102944,5.33543435 26.0170836,5.15851815 C25.8238729,4.98160194 25.5843266,4.89314516 25.2984375,4.89314516 Z M25.2984375,3.82711694 C25.7257003,3.82711694 26.1105452,3.9042331 26.4529837,4.05846774 C26.7954223,4.21270238 27.0781654,4.45614753 27.3012217,4.78881048 C27.5022866,5.08215872 27.6326626,5.4223771 27.6923537,5.80947581 C27.7269117,6.03629146 27.7410489,6.36290109 27.7347656,6.78931452 L24.2192902,6.78931452 C24.2381401,7.28528474 24.399932,7.63306352 24.7046709,7.83266129 C24.8900275,7.95665385 25.1130805,8.01864919 25.3738364,8.01864919 C25.6503006,8.01864919 25.8749243,7.94304511 26.0477144,7.79183468 C26.1419636,7.71018104 26.2252157,7.59677492 26.2974734,7.4516129 L27.6687916,7.4516129 C27.6342335,7.74496114 27.4755832,8.04284123 27.1928358,8.3452621 C26.7530064,8.82611128 26.1372546,9.06653226 25.3455618,9.06653226 C24.6921011,9.06653226 24.1156192,8.86391332 23.6160987,8.45866935 C23.1165783,8.05342539 22.8668218,7.39415779 22.8668218,6.48084677 C22.8668218,5.62499572 23.092231,4.96875228 23.543056,4.51209677 C23.9938811,4.05544127 24.5790024,3.82711694 25.2984375,3.82711694 Z M31.4858627,3.84072581 C32.0167995,3.84072581 32.4511245,3.97454503 32.7888506,4.2421875 C33.1265767,4.50982997 33.2954372,4.95362593 33.2954372,5.57358871 L33.2954372,8.90322581 L31.9194066,8.90322581 L31.9194066,5.89566532 C31.9194066,5.63558338 31.8832783,5.4359886 31.8110206,5.296875 C31.6790718,5.04284147 31.4277445,4.91582661 31.0570313,4.91582661 C30.6014937,4.91582661 30.2889054,5.10181266 30.119257,5.47379032 C30.0312911,5.67036389 29.9873088,5.92136944 29.9873088,6.22681452 L29.9873088,8.90322581 L28.6489777,8.90322581 L28.6489777,3.96774194 L29.9448969,3.96774194 L29.9448969,4.6890121 C30.117687,4.43497857 30.2810498,4.25201669 30.43499,4.14012097 C30.7114542,3.9405232 31.0617416,3.84072581 31.4858627,3.84072581 Z M35.9391124,3.36895161 L34.5960688,3.36895161 L34.5960688,2.17590726 L35.9391124,2.17590726 L35.9391124,3.36895161 Z M33.9504654,10.8855847 L33.9504654,9.85131048 L34.0978762,9.86197785 L34.0978762,9.86197785 L34.1106882,9.86265121 C34.1421045,9.86416331 34.1703789,9.86491935 34.195512,9.86491935 C34.3274608,9.86491935 34.4272063,9.83392168 34.4947515,9.7719254 C34.5622967,9.70992913 34.5960688,9.58971863 34.5960688,9.41129032 L34.5960688,3.98135081 L35.9391124,3.98135081 L35.9391124,9.43397177 C35.9391124,9.9329662 35.8370107,10.3019141 35.6328042,10.5408266 C35.435185,10.7720322 35.0536827,10.8913625 34.4882863,10.8988206 L34.4311336,10.8991935 C34.4077958,10.8991935 34.3780467,10.8986998 34.341886,10.8977123 L34.0479841,10.8881768 C34.0170809,10.8873128 33.9845746,10.8864487 33.9504654,10.8855847 Z M40.0483544,6.49899194 C39.9635302,6.55040348 39.8779218,6.59198573 39.7915268,6.62373992 C39.7051317,6.65549411 39.5865367,6.6849797 39.435738,6.71219758 L39.1341423,6.76663306 C38.8513949,6.8150204 38.6487622,6.87399159 38.5262384,6.94354839 C38.3188903,7.06149253 38.2152178,7.24445441 38.2152178,7.49243952 C38.2152178,7.71320675 38.278835,7.87273136 38.4060713,7.97101815 C38.5333077,8.06930493 38.688031,8.11844758 38.870246,8.11844758 C39.1592767,8.11844758 39.4255265,8.03679517 39.6690035,7.8734879 C39.9124804,7.71018064 40.0389295,7.41230055 40.0483544,6.97983871 L40.0483544,6.49899194 Z M39.2331034,5.89566532 C39.4812916,5.86542324 39.6587927,5.82762119 39.7656084,5.78225806 C39.9572483,5.70362864 40.0530668,5.58115003 40.0530668,5.41481855 C40.0530668,5.21219657 39.9800248,5.07232901 39.8339387,4.99521169 C39.6878525,4.91809437 39.4734389,4.87953629 39.1906915,4.87953629 C38.873386,4.87953629 38.6487623,4.95514037 38.5168135,5.10635081 C38.4225644,5.21824653 38.3597325,5.36945469 38.3283162,5.55997984 L37.0323969,5.55997984 C37.0606717,5.127518 37.1863353,4.77217881 37.4093916,4.49395161 C37.7643967,4.05846556 38.3738654,3.84072581 39.2378158,3.84072581 C39.800169,3.84072581 40.299682,3.9480836 40.7363697,4.16280242 C41.1730574,4.37752123 41.3913979,4.78275912 41.3913979,5.37852823 L41.3913979,7.64667339 C41.3913979,7.80393224 41.3945395,7.99445453 41.4008228,8.21824597 C41.4102477,8.38760165 41.4369512,8.50251986 41.4809342,8.56300403 C41.5249171,8.62348821 41.5908905,8.6733869 41.6788564,8.71270161 L41.6788564,8.90322581 L40.218002,8.90322581 C40.1771607,8.80342692 40.1488864,8.70967786 40.1331782,8.62197581 C40.11747,8.53427376 40.1049036,8.43447637 40.0954787,8.32258065 C39.9101221,8.51613 39.6964939,8.6809469 39.4545878,8.81703629 C39.1655571,8.97731935 38.8388316,9.05745968 38.4744016,9.05745968 C38.0094392,9.05745968 37.6253797,8.92968878 37.3222116,8.67414315 C37.0190435,8.41859751 36.8674618,8.05645396 36.8674618,7.58770161 C36.8674618,6.97983567 37.1109351,6.53981991 37.597889,6.26764113 C37.8649282,6.1194549 38.2576271,6.01360919 38.7759973,5.95010081 L39.2331034,5.89566532 Z M44.1010472,3.37802419 L44.1010472,7.74193548 L45.4393783,7.74193548 C46.1242554,7.74193548 46.6017772,7.41683793 46.8719581,6.76663306 C47.0196151,6.40977644 47.0934425,5.9848815 47.0934425,5.49193548 C47.0934425,4.81148853 46.9827014,4.28906432 46.7612159,3.92464718 C46.5397304,3.56023003 46.0991223,3.37802419 45.4393783,3.37802419 L44.1010472,3.37802419 Z M45.6844249,2.21673387 C46.1148293,2.22278229 46.4729706,2.2711689 46.7588597,2.36189516 C47.2458136,2.5161298 47.6400833,2.79888907 47.9416805,3.21018145 C48.1835866,3.54284441 48.3485202,3.90271984 48.436486,4.28981855 C48.5244519,4.67691726 48.5684342,5.04586518 48.5684342,5.39667339 C48.5684342,6.28579074 48.3830803,7.0388074 48.012367,7.65574597 C47.5097049,8.48740335 46.733732,8.90322581 45.6844249,8.90322581 L42.6920296,8.90322581 L42.6920296,2.21673387 L45.6844249,2.21673387 Z M50.7125914,6.83921371 C50.7565744,7.14465879 50.8429681,7.37298311 50.9717753,7.52419355 C51.2073981,7.79939654 51.6110926,7.93699597 52.1828707,7.93699597 C52.5253092,7.93699597 52.80334,7.90070601 53.0169714,7.828125 C53.4222427,7.6890114 53.6248753,7.43044544 53.6248753,7.05241935 C53.6248753,6.83165212 53.5243444,6.6607869 53.3232796,6.53981855 C53.132268,6.42777162 52.8377712,6.32800817 52.4397811,6.24052551 L51.6409408,6.06804435 C50.9183641,5.9107855 50.4188511,5.73992028 50.142387,5.55544355 C49.6742829,5.24697426 49.4402344,4.76462022 49.4402344,4.10836694 C49.4402344,3.50957362 49.6664289,3.01209876 50.1188248,2.61592742 C50.5712207,2.21975608 51.2356672,2.02167339 52.1121842,2.02167339 C52.8441858,2.02167339 53.468577,2.20841547 53.9853765,2.58190524 C54.502176,2.95539501 54.7731382,3.49747629 54.7982713,4.20816532 L53.403391,4.20816532 C53.3782579,3.80594557 53.1960456,3.52016214 52.8567487,3.35080645 C52.6305507,3.23891073 52.3493783,3.18296371 52.0132231,3.18296371 C51.6393681,3.18296371 51.340917,3.25554363 51.1178607,3.40070565 C50.8948044,3.54586766 50.7832779,3.7484866 50.7832779,4.00856855 C50.7832779,4.23662137 50.8834648,4.40956118 51.0838415,4.52739263 L51.1131483,4.54385081 C51.248867,4.61933505 51.5322436,4.70736003 51.9632861,4.80792817 L53.2148936,5.09727823 C53.7395472,5.21824657 54.1353876,5.38003931 54.4024269,5.58266129 C54.8171231,5.89717899 55.0244681,6.35231557 55.0244681,6.94808468 C55.0244681,7.55897483 54.7817802,8.06627822 54.2963971,8.47001008 C53.811014,8.87374194 53.1253618,9.07560484 52.2394199,9.07560484 C51.3346281,9.07560484 50.6230578,8.8767661 50.1046875,8.47908266 C49.5863172,8.08139922 49.327136,7.5347817 49.327136,6.83921371 L50.7125914,6.83921371 Z M60.0102227,4.34425403 C60.0102227,3.99647004 59.9151896,3.74848864 59.7251205,3.60030242 C59.5350514,3.45211619 59.2688016,3.37802419 58.926363,3.37802419 L57.5738946,3.37802419 L57.5738946,5.34677419 L58.926363,5.34677419 C59.2688016,5.34677419 59.5350514,5.26663387 59.7251205,5.10635081 C59.9151896,4.94606775 60.0102227,4.69203803 60.0102227,4.34425403 Z M61.447515,4.33518145 C61.447515,5.12449991 61.24017,5.68245804 60.8254737,6.00907258 C60.4107775,6.33568712 59.8185876,6.49899194 59.0488863,6.49899194 L57.5738946,6.49899194 L57.5738946,8.90322581 L56.13189,8.90322581 L56.13189,2.21673387 L59.1572723,2.21673387 C59.8547159,2.21673387 60.4107775,2.38911118 60.8254737,2.73387097 C61.24017,3.07863076 61.447515,3.61239558 61.447515,4.33518145 Z" id="KautenjaDSP"></path>
                </g>
            </g>
            <path d="M42.468,20.144 L42.468,20.888 C42.468,21.5440033 42.268002,22.0599981 41.868,22.436 C41.467998,22.8120019 40.964003,23 40.356,23 L37.092,23 C36.7719984,23 36.5360008,22.9280007 36.384,22.784 C36.2319992,22.6399993 36.156,22.3760019 36.156,21.992 L36.156,6.176 L38.94,6.176 L38.94,10.64 L41.508,10.64 L41.508,12.08 L38.94,12.08 L38.94,21.584 L39.852,21.584 L39.852,20.144 L42.468,20.144 Z M49.716,18.32 C49.716,18.6400016 49.6360008,18.8639994 49.476,18.992 C49.3159992,19.1200006 49.1160012,19.184 48.876,19.184 L46.284,19.184 L46.284,21.584 L47.172,21.584 L47.172,20.144 L49.788,20.144 L49.788,20.888 C49.788,21.5440033 49.588002,22.0599981 49.188,22.436 C48.787998,22.8120019 48.284003,23 47.676,23 L44.172,23 C44.0439994,23 43.9080007,22.9680003 43.764,22.904 C43.6199993,22.8399997 43.548,22.6720014 43.548,22.4 L43.476,16.208 C43.476,15.5519967 43.675998,15.0360019 44.076,14.66 C44.476,14.2839981 44.979997,14.096 45.588,14.096 L48.372,14.096 C48.8520024,14.096 49.191999,14.199999 49.392,14.408 C49.592001,14.616001 49.692,14.9519977 49.692,15.416 L49.716,18.32 Z M47.028,17.768 L47.028,15.512 L46.092,15.512 L46.092,17.768 L47.028,17.768 Z M54.492,16.544 L54.492,15.104 L53.58,15.104 L53.58,23 L50.796,23 L50.796,13.688 L54.996,13.688 C55.604003,13.688 56.107998,13.8759981 56.508,14.252 C56.908002,14.6280019 57.108,15.1439967 57.108,15.8 L57.108,16.544 L54.492,16.544 Z M64.332,21.008 C64.332,21.6640033 64.1480018,22.1599983 63.78,22.496 C63.4119982,22.8320017 62.924003,23 62.316,23 L58.812,23 C58.6839994,23 58.5480007,22.9680003 58.404,22.904 C58.2599993,22.8399997 58.188,22.6720014 58.188,22.4 L58.188,18.392 C58.188,18.2159991 58.2319996,18.0680006 58.32,17.948 C58.4080004,17.8279994 58.5719988,17.768 58.812,17.768 L61.668,17.768 L61.668,15.512 L60.732,15.512 L60.732,16.952 L58.116,16.952 L58.116,16.208 C58.116,15.5519967 58.315998,15.0360019 58.716,14.66 C59.116,14.2839981 59.619997,14.096 60.228,14.096 L63.012,14.096 C63.4920024,14.096 63.831999,14.199999 64.032,14.408 C64.232001,14.616001 64.332,14.9519977 64.332,15.416 L64.332,21.008 Z M60.924,21.584 L61.812,21.584 L61.812,19.184 L60.924,19.184 L60.924,21.584 Z M65.436,14.336 C65.436,13.9039978 65.6679977,13.688 66.132,13.688 L69.636,13.688 C70.244003,13.688 70.747998,13.8759981 71.148,14.252 C71.548002,14.6280019 71.748,15.1439967 71.748,15.8 L71.748,16.544 L69.132,16.544 L69.132,15.104 L68.22,15.104 L68.22,21.584 L69.132,21.584 L69.132,20.144 L71.748,20.144 L71.748,20.888 C71.748,21.5440033 71.548002,22.0599981 71.148,22.436 C70.747998,22.8120019 70.244003,23 69.636,23 L66.012,23 C65.803999,23 65.6560004,22.9600004 65.568,22.88 C65.4799996,22.7999996 65.436,22.6320013 65.436,22.376 L65.436,14.336 Z M73.236,23 L73.236,12.128 L76.02,12.128 L76.02,23 L73.236,23 Z M73.212,8.192 L76.02,8.192 L76.02,11 L73.212,11 L73.212,8.192 Z M80.484,23 L77.7,23 L77.7,6.176 L80.484,6.176 L80.484,23 Z M84.468,23 L81.684,23 L81.684,6.176 L84.468,6.176 L84.468,23 Z M91.884,21.008 C91.884,21.6640033 91.7000018,22.1599983 91.332,22.496 C90.9639982,22.8320017 90.476003,23 89.868,23 L86.364,23 C86.2359994,23 86.1000007,22.9680003 85.956,22.904 C85.8119993,22.8399997 85.74,22.6720014 85.74,22.4 L85.74,18.392 C85.74,18.2159991 85.7839996,18.0680006 85.872,17.948 C85.9600004,17.8279994 86.1239988,17.768 86.364,17.768 L89.22,17.768 L89.22,15.512 L88.284,15.512 L88.284,16.952 L85.668,16.952 L85.668,16.208 C85.668,15.5519967 85.867998,15.0360019 86.268,14.66 C86.668,14.2839981 87.171997,14.096 87.78,14.096 L90.564,14.096 C91.0440024,14.096 91.383999,14.199999 91.584,14.408 C91.784001,14.616001 91.884,14.9519977 91.884,15.416 L91.884,21.008 Z M88.476,21.584 L89.364,21.584 L89.364,19.184 L88.476,19.184 L88.476,21.584 Z M99.3,20.144 L99.3,20.888 C99.3,21.5440033 99.100002,22.0599981 98.7,22.436 C98.299998,22.8120019 97.796003,23 97.188,23 L93.924,23 C93.6039984,23 93.3680008,22.9280007 93.216,22.784 C93.0639992,22.6399993 92.988,22.3760019 92.988,21.992 L92.988,6.176 L95.772,6.176 L95.772,10.64 L98.34,10.64 L98.34,12.08 L95.772,12.08 L95.772,21.584 L96.684,21.584 L96.684,20.144 L99.3,20.144 Z M100.164,14.6 C100.164,14.2319982 100.231999,14.0120004 100.368,13.94 C100.504001,13.8679996 100.707999,13.832 100.98,13.832 L104.364,13.832 C104.972003,13.832 105.475998,14.0199981 105.876,14.396 C106.276002,14.7720019 106.476,15.2879967 106.476,15.944 L106.476,22.184 C106.476,22.4080011 106.392001,22.5999992 106.224,22.76 C106.055999,22.9200008 105.860001,23 105.636,23 L102.06,23 C101.691998,23 101.384001,22.9480005 101.136,22.844 C100.887999,22.7399995 100.692001,22.6040008 100.548,22.436 C100.403999,22.2679992 100.304,22.080001 100.248,21.872 C100.192,21.663999 100.164,21.456001 100.164,21.248 L100.164,14.6 Z M103.86,15.248 L102.948,15.248 L102.948,21.776 L103.86,21.776 L103.86,15.248 Z M111.324,16.544 L111.324,15.104 L110.412,15.104 L110.412,23 L107.628,23 L107.628,13.688 L111.828,13.688 C112.436003,13.688 112.939998,13.8759981 113.34,14.252 C113.740002,14.6280019 113.94,15.1439967 113.94,15.8 L113.94,16.544 L111.324,16.544 Z" id="Teracillator" fill="#EA4F4F" fill-rule="nonzero"></path>
        </g>
        <g id="Noise" transform="translate(112.000000, 38.000000)">
            <g id="Output" transform="translate(0.000000, 269.000000)">
                <rect id="Rectangle" fill="#1D1D1D" x="0" y="0" width="30" height="44" rx="4"></rect>
                <path d="M3.14648438,10 L3.14648438,4.2734375 L4.27148438,4.2734375 L6.61523438,8.09765625 L6.61523438,4.2734375 L7.68945312,4.2734375 L7.68945312,10 L6.52929688,10 L4.22070312,6.265625 L4.22070312,10 L3.14648438,10 Z M8.67773438,7.171875 C8.67773438,6.58853875 8.76497309,6.09896031 8.93945312,5.703125 C9.06966211,5.41145687 9.24739471,5.14974074 9.47265625,4.91796875 C9.69791779,4.68619676 9.94466012,4.51432348 10.2128906,4.40234375 C10.5696632,4.25130133 10.9811175,4.17578125 11.4472656,4.17578125 C12.2910198,4.17578125 12.9661433,4.43749738 13.4726562,4.9609375 C13.9791692,5.48437762 14.2324219,6.21223492 14.2324219,7.14453125 C14.2324219,8.06901504 13.9811223,8.7923151 13.4785156,9.31445312 C12.9759089,9.83659115 12.3040407,10.0976562 11.4628906,10.0976562 C10.6113239,10.0976562 9.9342473,9.83789322 9.43164062,9.31835938 C8.92903395,8.79882553 8.67773438,8.08333789 8.67773438,7.171875 Z M9.86914062,7.1328125 C9.86914062,7.78125324 10.0188787,8.27278479 10.3183594,8.60742188 C10.61784,8.94205896 10.9980446,9.109375 11.4589844,9.109375 C11.9199242,9.109375 12.2981756,8.94336104 12.59375,8.61132812 C12.8893244,8.27929521 13.0371094,7.78125332 13.0371094,7.1171875 C13.0371094,6.46093422 12.8932306,5.97135578 12.6054688,5.6484375 C12.3177069,5.32551922 11.9355493,5.1640625 11.4589844,5.1640625 C10.9824195,5.1640625 10.5983088,5.32747232 10.3066406,5.65429688 C10.0149725,5.98112143 9.86914062,6.47395504 9.86914062,7.1328125 Z M15.0996094,10 L15.0996094,4.2734375 L16.2558594,4.2734375 L16.2558594,10 L15.0996094,10 Z M17.0644531,8.13671875 L18.1894531,8.02734375 C18.2571618,8.4049498 18.3945302,8.68229078 18.6015625,8.859375 C18.8085948,9.03645922 19.0878889,9.125 19.4394531,9.125 C19.8118508,9.125 20.092447,9.04622475 20.28125,8.88867188 C20.470053,8.731119 20.5644531,8.54687605 20.5644531,8.3359375 C20.5644531,8.20052016 20.52474,8.08528693 20.4453125,7.99023438 C20.365885,7.89518182 20.2272145,7.81250035 20.0292969,7.7421875 C19.8938795,7.69531227 19.5852889,7.61197977 19.1035156,7.4921875 C18.4837209,7.3385409 18.0488294,7.1497407 17.7988281,6.92578125 C17.4472639,6.61067551 17.2714844,6.22656477 17.2714844,5.7734375 C17.2714844,5.48176938 17.3541658,5.20898564 17.5195312,4.95507812 C17.6848967,4.70117061 17.9231755,4.50781316 18.234375,4.375 C18.5455745,4.24218684 18.9212218,4.17578125 19.3613281,4.17578125 C20.0800817,4.17578125 20.6210919,4.33333176 20.984375,4.6484375 C21.3476581,4.96354324 21.5384114,5.38411195 21.5566406,5.91015625 L20.4003906,5.9609375 C20.3509112,5.6666652 20.2447925,5.45507877 20.0820312,5.32617188 C19.91927,5.19726498 19.6751318,5.1328125 19.3496094,5.1328125 C19.0136702,5.1328125 18.750652,5.20182223 18.5605469,5.33984375 C18.4381504,5.42838586 18.3769531,5.54687426 18.3769531,5.6953125 C18.3769531,5.83072984 18.4342442,5.9466141 18.5488281,6.04296875 C18.6784584,6.15176559 18.9726944,6.26467617 19.4315435,6.38170316 L19.6113281,6.42578125 C20.1738309,6.55859441 20.5898424,6.69596283 20.859375,6.83789062 C21.1289076,6.97981842 21.339843,7.17382689 21.4921875,7.41992188 C21.644532,7.66601686 21.7207031,7.97005027 21.7207031,8.33203125 C21.7207031,8.66015789 21.6295582,8.96744648 21.4472656,9.25390625 C21.264973,9.54036602 21.0071631,9.75325451 20.6738281,9.89257812 C20.3404931,10.0319017 19.9251327,10.1015625 19.4277344,10.1015625 C18.7037724,10.1015625 18.1477884,9.93424646 17.7597656,9.59960938 C17.3717429,9.26497229 17.1399743,8.77734695 17.0644531,8.13671875 Z M22.6933594,10 L22.6933594,4.2734375 L26.9394531,4.2734375 L26.9394531,5.2421875 L23.8496094,5.2421875 L23.8496094,6.51171875 L26.7246094,6.51171875 L26.7246094,7.4765625 L23.8496094,7.4765625 L23.8496094,9.03515625 L27.0488281,9.03515625 L27.0488281,10 L22.6933594,10 Z" id="NOISE" fill="#FFFFFF" fill-rule="nonzero"></path>
            </g>
            <g id="Sync" transform="translate(0.000000, 211.000000)" fill="#000000" fill-rule="nonzero">
                <path d="M4.17578125,5.13671875 L5.30078125,5.02734375 C5.36848992,5.4049498 5.50585834,5.68229078 5.71289062,5.859375 C5.91992291,6.03645922 6.19921699,6.125 6.55078125,6.125 C6.92317895,6.125 7.2037751,6.04622475 7.39257812,5.88867188 C7.58138115,5.731119 7.67578125,5.54687605 7.67578125,5.3359375 C7.67578125,5.20052016 7.63606811,5.08528693 7.55664062,4.99023438 C7.47721314,4.89518182 7.33854266,4.81250035 7.140625,4.7421875 C7.00520766,4.69531227 6.69661699,4.61197977 6.21484375,4.4921875 C5.59504898,4.3385409 5.1601575,4.1497407 4.91015625,3.92578125 C4.55859199,3.61067551 4.3828125,3.22656477 4.3828125,2.7734375 C4.3828125,2.48176938 4.46549396,2.20898564 4.63085938,1.95507812 C4.79622479,1.70117061 5.03450365,1.50781316 5.34570312,1.375 C5.6569026,1.24218684 6.03254988,1.17578125 6.47265625,1.17578125 C7.19140984,1.17578125 7.73242006,1.33333176 8.09570312,1.6484375 C8.45898619,1.96354324 8.64973949,2.38411195 8.66796875,2.91015625 L7.51171875,2.9609375 C7.46223934,2.6666652 7.35612061,2.45507877 7.19335938,2.32617188 C7.03059814,2.19726498 6.78645996,2.1328125 6.4609375,2.1328125 C6.12499832,2.1328125 5.86198012,2.20182223 5.671875,2.33984375 C5.54947855,2.42838586 5.48828125,2.54687426 5.48828125,2.6953125 C5.48828125,2.83072984 5.54557234,2.9466141 5.66015625,3.04296875 C5.78978653,3.15176559 6.08402248,3.26467617 6.54287158,3.38170316 L6.72265625,3.42578125 C7.28515906,3.55859441 7.70117053,3.69596283 7.97070312,3.83789062 C8.24023572,3.97981842 8.45117111,4.17382689 8.60351562,4.41992188 C8.75586014,4.66601686 8.83203125,4.97005027 8.83203125,5.33203125 C8.83203125,5.66015789 8.74088633,5.96744648 8.55859375,6.25390625 C8.37630117,6.54036602 8.11849125,6.75325451 7.78515625,6.89257812 C7.45182125,7.03190174 7.03646082,7.1015625 6.5390625,7.1015625 C5.81510055,7.1015625 5.25911652,6.93424646 4.87109375,6.59960938 C4.48307098,6.26497229 4.25130246,5.77734695 4.17578125,5.13671875 Z M11.3085938,7 L11.3085938,4.58984375 L9.2109375,1.2734375 L10.5664062,1.2734375 L11.9140625,3.5390625 L13.234375,1.2734375 L14.5664062,1.2734375 L12.4609375,4.59765625 L12.4609375,7 L11.3085938,7 Z M15.1523438,7 L15.1523438,1.2734375 L16.2773438,1.2734375 L18.6210938,5.09765625 L18.6210938,1.2734375 L19.6953125,1.2734375 L19.6953125,7 L18.5351562,7 L16.2265625,3.265625 L16.2265625,7 L15.1523438,7 Z M24.5820312,4.89453125 L25.703125,5.25 C25.5312491,5.87500313 25.2454447,6.33919119 24.8457031,6.64257812 C24.4459615,6.94596506 23.9388052,7.09765625 23.3242188,7.09765625 C22.5637983,7.09765625 21.9388045,6.83789322 21.4492188,6.31835938 C20.959633,5.79882553 20.7148438,5.08854617 20.7148438,4.1875 C20.7148438,3.23437023 20.960935,2.49414326 21.453125,1.96679688 C21.945315,1.43945049 22.5924439,1.17578125 23.3945312,1.17578125 C24.0950556,1.17578125 24.6640603,1.38281043 25.1015625,1.796875 C25.3619805,2.04166789 25.557291,2.39322687 25.6875,2.8515625 L24.5429688,3.125 C24.4752601,2.82812352 24.3339854,2.59375086 24.1191406,2.421875 C23.9042958,2.24999914 23.6432307,2.1640625 23.3359375,2.1640625 C22.9114562,2.1640625 22.5670586,2.31640473 22.3027344,2.62109375 C22.0384101,2.92578277 21.90625,3.41926742 21.90625,4.1015625 C21.90625,4.82552445 22.036457,5.3411443 22.296875,5.6484375 C22.557293,5.9557307 22.8958313,6.109375 23.3125,6.109375 C23.6197932,6.109375 23.8841135,6.01171973 24.1054688,5.81640625 C24.326824,5.62109277 24.4856766,5.31380418 24.5820312,4.89453125 Z" id="SYNC"></path>
            </g>
            <g id="Amplifier" transform="translate(0.000000, 139.000000)" fill-rule="nonzero">
                <path d="M15.5,0 L13.5,0 L13.5,3 L15.5,3 L15.5,0 Z M15.5,4 L13.5,4 L13.5,7 L15.5,7 L15.5,4 Z M15.5,8 L13.5,8 L13.5,11 L15.5,11 L15.5,8 Z M15.5,12 L13.5,12 L13.5,15 L15.5,15 L15.5,12 Z M15.5,16 L13.5,16 L13.5,19 L15.5,19 L15.5,16 Z M15.5,20 L13.5,20 L13.5,23 L15.5,23 L15.5,20 Z M15.5,24 L13.5,24 L13.5,27 L15.5,27 L15.5,24 Z M15.5,28 L13.5,28 L13.5,31 L15.5,31 L15.5,28 Z M15.5,32 L13.5,32 L13.5,35 L15.5,35 L15.5,32 Z M15.5,36 L13.5,36 L13.5,39 L15.5,39 L15.5,36 Z M15.5,40 L13.5,40 L13.5,43 L15.5,43 L15.5,40 Z" id="Line-Copy-15" fill="#E6E6E6"></path>
                <path d="M11.8574219,26 L10.5996094,26 L10.0996094,24.6992188 L7.81054688,24.6992188 L7.33789062,26 L6.11132812,26 L8.34179688,20.2734375 L9.56445312,20.2734375 L11.8574219,26 Z M9.72851562,23.734375 L8.93945312,21.609375 L8.16601562,23.734375 L9.72851562,23.734375 Z M14.1855469,20.2734375 L15.2246094,24.1796875 L16.2519531,20.2734375 L17.9863281,20.2734375 L17.9863281,26 L16.9121094,26 L16.9121094,21.4921875 L15.7753906,26 L14.6621094,26 L13.5292969,21.4921875 L13.5292969,26 L12.4550781,26 L12.4550781,20.2734375 L14.1855469,20.2734375 Z M20.9902344,20.2734375 C21.6933629,20.2734375 22.1516916,20.302083 22.3652344,20.359375 C22.693361,20.4453129 22.9680979,20.63216 23.1894531,20.9199219 C23.4108084,21.2076837 23.5214844,21.5794248 23.5214844,22.0351562 C23.5214844,22.3867205 23.4576829,22.6822905 23.3300781,22.921875 C23.2024733,23.1614595 23.0403656,23.3496087 22.84375,23.4863281 C22.6471344,23.6230476 22.4472666,23.7135414 22.2441406,23.7578125 C22.0075323,23.8046877 21.6800478,23.8314733 21.2616796,23.8381697 L20.2910156,23.8398438 L20.2910156,26 L19.1347656,26 L19.1347656,20.2734375 L20.9902344,20.2734375 Z M20.8496094,21.2421875 L20.2910156,21.2421875 L20.2910156,22.8671875 L20.9238281,22.8671875 C21.3795596,22.8671875 21.684244,22.8372399 21.8378906,22.7773438 C21.9915372,22.7174476 22.1119787,22.6236986 22.1992188,22.4960938 C22.2864588,22.3684889 22.3300781,22.2200529 22.3300781,22.0507812 C22.3300781,21.8424469 22.2688808,21.6705736 22.1464844,21.5351562 C22.0240879,21.3997389 21.8691416,21.3151043 21.6816406,21.28125 C21.5436191,21.2552082 21.2662781,21.2421875 20.8496094,21.2421875 Z" id="AMP" fill="#000000"></path>
            </g>
            <g id="Frequency-Mod" transform="translate(0.000000, 72.000000)" fill-rule="nonzero">
                <path d="M15.5,0.5 L13.5,0.5 L13.5,3.5 L15.5,3.5 L15.5,0.5 Z M15.5,4.5 L13.5,4.5 L13.5,7.5 L15.5,7.5 L15.5,4.5 Z M15.5,8.5 L13.5,8.5 L13.5,11.5 L15.5,11.5 L15.5,8.5 Z M15.5,12.5 L13.5,12.5 L13.5,15.5 L15.5,15.5 L15.5,12.5 Z M15.5,16.5 L13.5,16.5 L13.5,19.5 L15.5,19.5 L15.5,16.5 Z M15.5,20.5 L13.5,20.5 L13.5,23.5 L15.5,23.5 L15.5,20.5 Z M15.5,24.5 L13.5,24.5 L13.5,27.5 L15.5,27.5 L15.5,24.5 Z M15.5,28.5 L13.5,28.5 L13.5,31.5 L15.5,31.5 L15.5,28.5 Z" id="Line-Copy-7" fill="#E6E6E6"></path>
                <path d="M5.16992188,25 L5.16992188,19.3203125 L6.32617188,19.3203125 L6.32617188,24.0351562 L9.20117188,24.0351562 L9.20117188,25 L5.16992188,25 Z M10.0332031,25 L10.0332031,19.2734375 L13.9589844,19.2734375 L13.9589844,20.2421875 L11.1894531,20.2421875 L11.1894531,21.5976562 L13.5800781,21.5976562 L13.5800781,22.5664062 L11.1894531,22.5664062 L11.1894531,25 L10.0332031,25 Z M16.9160156,19.1757812 C17.6347692,19.1757812 18.1757794,19.3333318 18.5390625,19.6484375 C18.9023456,19.9635432 19.0930989,20.384112 19.1113281,20.9101562 L17.9550781,20.9609375 C17.9055987,20.6666652 17.79948,20.4550788 17.6367188,20.3261719 C17.4739575,20.197265 17.2298193,20.1328125 16.9042969,20.1328125 C16.5683577,20.1328125 16.3053395,20.2018222 16.1152344,20.3398438 C15.9928379,20.4283859 15.9316406,20.5468743 15.9316406,20.6953125 C15.9316406,20.8307298 15.9889317,20.9466141 16.1035156,21.0429688 C16.2169421,21.138166 16.4563948,21.2365128 16.8218788,21.338011 L17.1660156,21.4257812 C17.7285184,21.5585944 18.1445299,21.6959628 18.4140625,21.8378906 C18.6835951,21.9798184 18.8945305,22.1738269 19.046875,22.4199219 C19.1992195,22.6660169 19.2753906,22.9700503 19.2753906,23.3320312 C19.2753906,23.6601579 19.1842457,23.9674465 19.0019531,24.2539062 C18.8196605,24.540366 18.5618506,24.7532545 18.2285156,24.8925781 C17.8951806,25.0319017 17.4798202,25.1015625 16.9824219,25.1015625 C16.2584599,25.1015625 15.7024759,24.9342465 15.3144531,24.5996094 C14.9264304,24.2649723 14.6946618,23.777347 14.6191406,23.1367188 L15.7441406,23.0273438 C15.8118493,23.4049498 15.9492177,23.6822908 16.15625,23.859375 C16.3632823,24.0364592 16.6425764,24.125 16.9941406,24.125 C17.3665383,24.125 17.6471345,24.0462247 17.8359375,23.8886719 C18.0247405,23.731119 18.1191406,23.5468761 18.1191406,23.3359375 C18.1191406,23.2005202 18.0794275,23.0852869 18,22.9902344 C17.936458,22.9141923 17.8350005,22.8460678 17.6956253,22.7858595 L17.5839844,22.7421875 C17.448567,22.6953123 17.1399764,22.6119798 16.6582031,22.4921875 C16.0384084,22.3385409 15.6035169,22.1497407 15.3535156,21.9257812 C15.0019514,21.6106755 14.8261719,21.2265648 14.8261719,20.7734375 C14.8261719,20.4817694 14.9088533,20.2089856 15.0742188,19.9550781 C15.2395842,19.7011706 15.477863,19.5078132 15.7890625,19.375 C16.100262,19.2421868 16.4759093,19.1757812 16.9160156,19.1757812 Z M22.6855469,19.2734375 C23.2975291,19.2734375 23.7421861,19.3248693 24.0195312,19.4277344 C24.2968764,19.5305995 24.5188794,19.7135404 24.6855469,19.9765625 C24.8522144,20.2395846 24.9355469,20.5403629 24.9355469,20.8789062 C24.9355469,21.3085959 24.8092461,21.6634101 24.5566406,21.9433594 C24.3040352,22.2233087 23.9264348,22.3997392 23.4238281,22.4726562 C23.6738294,22.6184903 23.8802075,22.778645 24.0429688,22.953125 C24.20573,23.127605 24.4251288,23.4374978 24.7011719,23.8828125 L25.4003906,25 L24.0175781,25 L22.976562,23.4508048 C22.7890619,23.1785878 22.6542973,22.9990239 22.5722656,22.9121094 C22.4628901,22.7962234 22.3470058,22.7167971 22.2246094,22.6738281 C22.1266922,22.639453 21.9829434,22.6188281 21.7933598,22.6119531 L21.4082031,22.609375 L21.4082031,25 L20.2519531,25 L20.2519531,19.2734375 L22.6855469,19.2734375 Z M21.4082031,20.2421875 L21.4082031,21.6953125 L22.4408524,21.6944445 C22.892757,21.6898149 23.1800486,21.6666669 23.3027344,21.625 C23.4407559,21.5781248 23.5488277,21.4973964 23.6269531,21.3828125 C23.7050785,21.2682286 23.7441406,21.1250009 23.7441406,20.953125 C23.7441406,20.7604157 23.6927088,20.6048183 23.5898438,20.4863281 C23.4869787,20.3678379 23.3417978,20.2929689 23.1542969,20.2617188 C23.1074216,20.2552083 23.0136722,20.2503255 22.8730476,20.2470703 L22.75879,20.2449341 L21.4082031,20.2421875 Z" id="LFSR" fill="#000000"></path>
            </g>
            <g id="Frequency" fill-rule="nonzero">
                <path d="M15.5,0 L13.5,0 L13.5,3 L15.5,3 L15.5,0 Z M15.5,4 L13.5,4 L13.5,7 L15.5,7 L15.5,4 Z M15.5,8 L13.5,8 L13.5,11 L15.5,11 L15.5,8 Z M15.5,12 L13.5,12 L13.5,15 L15.5,15 L15.5,12 Z M15.5,16 L13.5,16 L13.5,19 L15.5,19 L15.5,16 Z M15.5,20 L13.5,20 L13.5,23 L15.5,23 L15.5,20 Z M15.5,24 L13.5,24 L13.5,27 L15.5,27 L15.5,24 Z M15.5,28 L13.5,28 L13.5,31 L15.5,31 L15.5,28 Z M15.5,32 L13.5,32 L13.5,35 L15.5,35 L15.5,32 Z M15.5,36 L13.5,36 L13.5,39 L15.5,39 L15.5,36 Z" id="Line-Copy-11" fill="#E6E6E6"></path>
                <path d="M2.09033203,25 L2.09033203,19.9892578 L3.71386719,19.9892578 C4.32910464,19.9892578 4.73014229,20.0143227 4.91699219,20.0644531 C5.204103,20.1396488 5.44449773,20.30314 5.63818359,20.5549316 C5.83186946,20.8067233 5.92871094,21.1319967 5.92871094,21.5307617 C5.92871094,21.8383804 5.87288467,22.0970042 5.76123047,22.3066406 C5.64957626,22.5162771 5.50773198,22.6809076 5.33569336,22.8005371 C5.16365474,22.9201666 4.98877042,22.9993488 4.81103516,23.0380859 C4.56949749,23.0859377 4.21972885,23.1098633 3.76171875,23.1098633 L3.10205078,23.1098633 L3.10205078,25 L2.09033203,25 Z M3.10205078,20.8369141 L3.10205078,22.2587891 L3.65576172,22.2587891 C4.05452673,22.2587891 4.32112563,22.2325849 4.45556641,22.1801758 C4.59000718,22.1277667 4.6953935,22.0457362 4.77172852,21.934082 C4.84806353,21.8224278 4.88623047,21.6925463 4.88623047,21.5444336 C4.88623047,21.362141 4.83268283,21.2117519 4.72558594,21.0932617 C4.61848905,20.9747715 4.48291098,20.9007163 4.31884766,20.8710938 C4.21533151,20.8515624 4.02225287,20.8404018 3.73960713,20.8376116 L3.10205078,20.8369141 Z M6.75927734,25 L6.75927734,19.9892578 L10.4746094,19.9892578 L10.4746094,20.8369141 L7.77099609,20.8369141 L7.77099609,21.9477539 L10.2866211,21.9477539 L10.2866211,22.7919922 L7.77099609,22.7919922 L7.77099609,24.1557617 L10.5703125,24.1557617 L10.5703125,25 L6.75927734,25 Z M11.4316406,25 L11.4316406,19.9892578 L13.5610352,19.9892578 C14.0965196,19.9892578 14.4855945,20.0342606 14.7282715,20.1242676 C14.9709485,20.2142745 15.1652011,20.3743478 15.3110352,20.6044922 C15.4568692,20.8346366 15.5297852,21.0978175 15.5297852,21.394043 C15.5297852,21.7700214 15.4192719,22.0804838 15.1982422,22.3254395 C14.9772124,22.5703951 14.6468121,22.7247718 14.2070312,22.7885742 C14.4257823,22.916179 14.6063632,23.0563143 14.7487793,23.2089844 C14.8708502,23.3398444 15.029331,23.5577555 15.2242254,23.8627226 L15.9365234,25 L14.7265625,25 L13.8156733,23.6444542 C13.6516108,23.4062644 13.5336918,23.2491459 13.4619141,23.1730957 C13.3662105,23.0716955 13.2648117,23.0021975 13.1577148,22.9645996 C13.0720373,22.9345213 12.9462571,22.9164745 12.7803715,22.910459 L12.4433594,22.9082031 L12.4433594,25 L11.4316406,25 Z M12.4433594,20.8369141 L12.4433594,22.1083984 L13.1918945,22.1083984 C13.6772485,22.1083984 13.9803054,22.0878908 14.1010742,22.046875 C14.2218431,22.0058592 14.3164059,21.9352219 14.3847656,21.8349609 C14.4531253,21.7347 14.4873047,21.6093758 14.4873047,21.4589844 C14.4873047,21.2903637 14.4423019,21.154216 14.3522949,21.0505371 C14.262288,20.9468582 14.1352547,20.8813478 13.9711914,20.8540039 C13.9096677,20.8454589 13.7558604,20.8401184 13.5097664,20.8379822 L12.4433594,20.8369141 Z M20.6464844,19.9038086 C21.3847693,19.9038086 21.9755023,20.1328102 22.4187012,20.5908203 C22.8619,21.0488304 23.0834961,21.6857056 23.0834961,22.5014648 C23.0834961,23.3103882 22.863609,23.9432757 22.4238281,24.4001465 C21.9840473,24.8570173 21.3961625,25.0854492 20.6601562,25.0854492 C19.9150353,25.0854492 19.3225933,24.8581566 18.8828125,24.4035645 C18.4430317,23.9489723 18.2231445,23.3229207 18.2231445,22.5253906 C18.2231445,22.0149714 18.2994784,21.5865903 18.4521484,21.2402344 C18.5660813,20.9850248 18.7215973,20.7560231 18.9187012,20.5532227 C19.115805,20.3504222 19.3317046,20.200033 19.5664062,20.1020508 C19.8785823,19.9698887 20.2386047,19.9038086 20.6464844,19.9038086 Z M17.4643555,19.9892578 L17.4643555,25 L16.4526367,25 L16.4526367,19.9892578 L17.4643555,19.9892578 Z M25.71875,19.9892578 C26.1357443,19.9892578 26.4536122,20.0211585 26.6723633,20.0849609 C26.9663101,20.1715499 27.2180979,20.325357 27.4277344,20.5463867 C27.6373708,20.7674165 27.7968745,21.038003 27.90625,21.3581543 C28.0156255,21.6783056 28.0703125,22.0730771 28.0703125,22.5424805 C28.0703125,22.9549174 28.0190435,23.3103826 27.9165039,23.6088867 C27.7911778,23.9734719 27.6123058,24.2685536 27.3798828,24.4941406 C27.2044262,24.6650399 26.9674494,24.7983394 26.6689453,24.894043 C26.4456369,24.9646813 26.1471373,25 25.7734375,25 L23.8696289,25 L23.8696289,19.9892578 L25.71875,19.9892578 Z M20.6567383,20.7685547 C20.239744,20.7685547 19.9036471,20.9115383 19.6484375,21.1975098 C19.3932279,21.4834812 19.265625,21.9147107 19.265625,22.4912109 C19.265625,23.0585966 19.3966458,23.4886867 19.6586914,23.7814941 C19.920737,24.0743016 20.253416,24.2207031 20.6567383,24.2207031 C21.0600606,24.2207031 21.3910306,24.0754409 21.6496582,23.7849121 C21.9082858,23.4943833 22.0375977,23.0585967 22.0375977,22.4775391 C22.0375977,21.9033174 21.9117037,21.4749363 21.6599121,21.1923828 C21.4081205,20.9098293 21.0737326,20.7685547 20.6567383,20.7685547 Z M25.3359375,20.8369141 L24.8813477,20.8369141 L24.8813477,24.1557617 L25.6367188,24.1557617 C25.9192722,24.1557617 26.123209,24.1398114 26.2485352,24.1079102 C26.4125985,24.0668943 26.5487462,23.9973963 26.6569824,23.8994141 C26.7652186,23.8014318 26.8535153,23.6402192 26.921875,23.4157715 C26.9902347,23.1913237 27.0244141,22.8854186 27.0244141,22.4980469 C27.0244141,22.1106751 26.9902347,21.8133148 26.921875,21.605957 C26.8535153,21.3985992 26.7578131,21.236817 26.6347656,21.1206055 C26.5117181,21.004394 26.3556325,20.9257815 26.1665039,20.8847656 C26.0252272,20.8528644 25.7483745,20.8369141 25.3359375,20.8369141 Z" id="PERIOD" fill="#000000"></path>
            </g>
        </g>
        <g id="Triangle" transform="translate(77.000000, 38.000000)">
            <g id="Output" transform="translate(0.000000, 269.000000)">
                <rect id="Rectangle" fill="#1D1D1D" x="0" y="0" width="30" height="44" rx="4"></rect>
                <path d="M3.09570312,10 L3.09570312,5.2421875 L1.39648438,5.2421875 L1.39648438,4.2734375 L5.94726562,4.2734375 L5.94726562,5.2421875 L4.25195312,5.2421875 L4.25195312,10 L3.09570312,10 Z M6.69726562,10 L6.69726562,4.2734375 L9.13085938,4.2734375 C9.7428416,4.2734375 10.1874986,4.32486928 10.4648438,4.42773438 C10.7421889,4.53059947 10.9641919,4.71354035 11.1308594,4.9765625 C11.2975269,5.23958465 11.3808594,5.54036289 11.3808594,5.87890625 C11.3808594,6.3085959 11.2545586,6.66341006 11.0019531,6.94335938 C10.7493477,7.22330869 10.3717473,7.39973922 9.86914062,7.47265625 C10.1191419,7.61849031 10.32552,7.77864496 10.4882812,7.953125 C10.6510425,8.12760504 10.8704413,8.43749777 11.1464844,8.8828125 L11.8457031,10 L10.4628906,10 L9.62695312,8.75390625 C9.33007664,8.30859152 9.12695367,8.02799537 9.01757812,7.91210938 C8.90820258,7.79622338 8.79231832,7.71679709 8.66992188,7.67382812 C8.57200472,7.63945295 8.42825586,7.61882806 8.23867233,7.6119531 L7.85351562,7.609375 L7.85351562,10 L6.69726562,10 Z M7.85351562,5.2421875 L7.85351562,6.6953125 L8.70898438,6.6953125 C9.26367465,6.6953125 9.61002535,6.67187523 9.74804688,6.625 C9.8860684,6.57812477 9.99414023,6.49739641 10.0722656,6.3828125 C10.150391,6.26822859 10.1894531,6.12500086 10.1894531,5.953125 C10.1894531,5.7604157 10.1380213,5.6048183 10.0351562,5.48632812 C9.93229115,5.36783795 9.78711031,5.29296891 9.59960938,5.26171875 L9.41503947,5.24981687 C9.29785238,5.24574786 9.13379031,5.24330647 8.92285222,5.24249267 L7.85351562,5.2421875 Z M12.4824219,10 L12.4824219,4.2734375 L13.6074219,4.2734375 L15.9511719,8.09765625 L15.9511719,4.2734375 L17.0253906,4.2734375 L17.0253906,10 L15.8652344,10 L13.5566406,6.265625 L13.5566406,10 L12.4824219,10 Z M20.9121094,7.89453125 L20.9121094,6.9296875 L23.4042969,6.9296875 L23.4042969,9.2109375 C23.1621082,9.44531367 22.8112002,9.65169182 22.3515625,9.83007812 C21.8919248,10.0084644 21.4264346,10.0976562 20.9550781,10.0976562 C20.3561168,10.0976562 19.8339866,9.97200646 19.3886719,9.72070312 C18.9433571,9.46939979 18.6087251,9.11002838 18.3847656,8.64257812 C18.1608062,8.17512787 18.0488281,7.66666941 18.0488281,7.1171875 C18.0488281,6.52083035 18.1738269,5.99088773 18.4238281,5.52734375 C18.6738294,5.06379977 19.0397111,4.70833457 19.5214844,4.4609375 C19.8886737,4.27083238 20.3457004,4.17578125 20.8925781,4.17578125 C21.6035192,4.17578125 22.1588522,4.3248683 22.5585938,4.62304688 C22.9583353,4.92122545 23.2154942,5.3333307 23.3300781,5.859375 L22.1816406,6.07421875 C22.1009111,5.79296734 21.9492199,5.57096436 21.7265625,5.40820312 C21.5039051,5.24544189 21.2259131,5.1640625 20.8925781,5.1640625 C20.3873673,5.1640625 19.9856786,5.32421715 19.6875,5.64453125 C19.3893214,5.96484535 19.2402344,6.44010102 19.2402344,7.0703125 C19.2402344,7.7500034 19.3912745,8.25976393 19.6933594,8.59960938 C19.9954442,8.93945482 20.3912736,9.109375 20.8808594,9.109375 C21.1230481,9.109375 21.3658842,9.06184943 21.609375,8.96679688 C21.8528658,8.87174432 22.0618481,8.75651109 22.2363281,8.62109375 L22.2363281,7.89453125 L20.9121094,7.89453125 Z M24.5019531,10 L24.5019531,4.3203125 L25.6582031,4.3203125 L25.6582031,9.03515625 L28.5332031,9.03515625 L28.5332031,10 L24.5019531,10 Z" id="TRNGL" fill="#FFFFFF" fill-rule="nonzero"></path>
            </g>
            <g id="Sync" transform="translate(0.000000, 211.000000)" fill="#000000" fill-rule="nonzero">
                <path d="M4.17578125,5.13671875 L5.30078125,5.02734375 C5.36848992,5.4049498 5.50585834,5.68229078 5.71289062,5.859375 C5.91992291,6.03645922 6.19921699,6.125 6.55078125,6.125 C6.92317895,6.125 7.2037751,6.04622475 7.39257812,5.88867188 C7.58138115,5.731119 7.67578125,5.54687605 7.67578125,5.3359375 C7.67578125,5.20052016 7.63606811,5.08528693 7.55664062,4.99023438 C7.47721314,4.89518182 7.33854266,4.81250035 7.140625,4.7421875 C7.00520766,4.69531227 6.69661699,4.61197977 6.21484375,4.4921875 C5.59504898,4.3385409 5.1601575,4.1497407 4.91015625,3.92578125 C4.55859199,3.61067551 4.3828125,3.22656477 4.3828125,2.7734375 C4.3828125,2.48176938 4.46549396,2.20898564 4.63085938,1.95507812 C4.79622479,1.70117061 5.03450365,1.50781316 5.34570312,1.375 C5.6569026,1.24218684 6.03254988,1.17578125 6.47265625,1.17578125 C7.19140984,1.17578125 7.73242006,1.33333176 8.09570312,1.6484375 C8.45898619,1.96354324 8.64973949,2.38411195 8.66796875,2.91015625 L7.51171875,2.9609375 C7.46223934,2.6666652 7.35612061,2.45507877 7.19335938,2.32617188 C7.03059814,2.19726498 6.78645996,2.1328125 6.4609375,2.1328125 C6.12499832,2.1328125 5.86198012,2.20182223 5.671875,2.33984375 C5.54947855,2.42838586 5.48828125,2.54687426 5.48828125,2.6953125 C5.48828125,2.83072984 5.54557234,2.9466141 5.66015625,3.04296875 C5.78978653,3.15176559 6.08402248,3.26467617 6.54287158,3.38170316 L6.72265625,3.42578125 C7.28515906,3.55859441 7.70117053,3.69596283 7.97070312,3.83789062 C8.24023572,3.97981842 8.45117111,4.17382689 8.60351562,4.41992188 C8.75586014,4.66601686 8.83203125,4.97005027 8.83203125,5.33203125 C8.83203125,5.66015789 8.74088633,5.96744648 8.55859375,6.25390625 C8.37630117,6.54036602 8.11849125,6.75325451 7.78515625,6.89257812 C7.45182125,7.03190174 7.03646082,7.1015625 6.5390625,7.1015625 C5.81510055,7.1015625 5.25911652,6.93424646 4.87109375,6.59960938 C4.48307098,6.26497229 4.25130246,5.77734695 4.17578125,5.13671875 Z M11.3085938,7 L11.3085938,4.58984375 L9.2109375,1.2734375 L10.5664062,1.2734375 L11.9140625,3.5390625 L13.234375,1.2734375 L14.5664062,1.2734375 L12.4609375,4.59765625 L12.4609375,7 L11.3085938,7 Z M15.1523438,7 L15.1523438,1.2734375 L16.2773438,1.2734375 L18.6210938,5.09765625 L18.6210938,1.2734375 L19.6953125,1.2734375 L19.6953125,7 L18.5351562,7 L16.2265625,3.265625 L16.2265625,7 L15.1523438,7 Z M24.5820312,4.89453125 L25.703125,5.25 C25.5312491,5.87500313 25.2454447,6.33919119 24.8457031,6.64257812 C24.4459615,6.94596506 23.9388052,7.09765625 23.3242188,7.09765625 C22.5637983,7.09765625 21.9388045,6.83789322 21.4492188,6.31835938 C20.959633,5.79882553 20.7148438,5.08854617 20.7148438,4.1875 C20.7148438,3.23437023 20.960935,2.49414326 21.453125,1.96679688 C21.945315,1.43945049 22.5924439,1.17578125 23.3945312,1.17578125 C24.0950556,1.17578125 24.6640603,1.38281043 25.1015625,1.796875 C25.3619805,2.04166789 25.557291,2.39322687 25.6875,2.8515625 L24.5429688,3.125 C24.4752601,2.82812352 24.3339854,2.59375086 24.1191406,2.421875 C23.9042958,2.24999914 23.6432307,2.1640625 23.3359375,2.1640625 C22.9114562,2.1640625 22.5670586,2.31640473 22.3027344,2.62109375 C22.0384101,2.92578277 21.90625,3.41926742 21.90625,4.1015625 C21.90625,4.82552445 22.036457,5.3411443 22.296875,5.6484375 C22.557293,5.9557307 22.8958313,6.109375 23.3125,6.109375 C23.6197932,6.109375 23.8841135,6.01171973 24.1054688,5.81640625 C24.326824,5.62109277 24.4856766,5.31380418 24.5820312,4.89453125 Z" id="SYNC"></path>
            </g>
            <g id="Amplifier" transform="translate(0.000000, 139.000000)" fill-rule="nonzero">
                <path d="M15.5,0 L13.5,0 L13.5,3 L15.5,3 L15.5,0 Z M15.5,4 L13.5,4 L13.5,7 L15.5,7 L15.5,4 Z M15.5,8 L13.5,8 L13.5,11 L15.5,11 L15.5,8 Z M15.5,12 L13.5,12 L13.5,15 L15.5,15 L15.5,12 Z M15.5,16 L13.5,16 L13.5,19 L15.5,19 L15.5,16 Z M15.5,20 L13.5,20 L13.5,23 L15.5,23 L15.5,20 Z M15.5,24 L13.5,24 L13.5,27 L15.5,27 L15.5,24 Z M15.5,28 L13.5,28 L13.5,31 L15.5,31 L15.5,28 Z M15.5,32 L13.5,32 L13.5,35 L15.5,35 L15.5,32 Z M15.5,36 L13.5,36 L13.5,39 L15.5,39 L15.5,36 Z M15.5,40 L13.5,40 L13.5,43 L15.5,43 L15.5,40 Z" id="Line-Copy-15" fill="#E6E6E6"></path>
                <path d="M11.8574219,26 L10.5996094,26 L10.0996094,24.6992188 L7.81054688,24.6992188 L7.33789062,26 L6.11132812,26 L8.34179688,20.2734375 L9.56445312,20.2734375 L11.8574219,26 Z M9.72851562,23.734375 L8.93945312,21.609375 L8.16601562,23.734375 L9.72851562,23.734375 Z M14.1855469,20.2734375 L15.2246094,24.1796875 L16.2519531,20.2734375 L17.9863281,20.2734375 L17.9863281,26 L16.9121094,26 L16.9121094,21.4921875 L15.7753906,26 L14.6621094,26 L13.5292969,21.4921875 L13.5292969,26 L12.4550781,26 L12.4550781,20.2734375 L14.1855469,20.2734375 Z M20.9902344,20.2734375 C21.6933629,20.2734375 22.1516916,20.302083 22.3652344,20.359375 C22.693361,20.4453129 22.9680979,20.63216 23.1894531,20.9199219 C23.4108084,21.2076837 23.5214844,21.5794248 23.5214844,22.0351562 C23.5214844,22.3867205 23.4576829,22.6822905 23.3300781,22.921875 C23.2024733,23.1614595 23.0403656,23.3496087 22.84375,23.4863281 C22.6471344,23.6230476 22.4472666,23.7135414 22.2441406,23.7578125 C22.0075323,23.8046877 21.6800478,23.8314733 21.2616796,23.8381697 L20.2910156,23.8398438 L20.2910156,26 L19.1347656,26 L19.1347656,20.2734375 L20.9902344,20.2734375 Z M20.8496094,21.2421875 L20.2910156,21.2421875 L20.2910156,22.8671875 L20.9238281,22.8671875 C21.3795596,22.8671875 21.684244,22.8372399 21.8378906,22.7773438 C21.9915372,22.7174476 22.1119787,22.6236986 22.1992188,22.4960938 C22.2864588,22.3684889 22.3300781,22.2200529 22.3300781,22.0507812 C22.3300781,21.8424469 22.2688808,21.6705736 22.1464844,21.5351562 C22.0240879,21.3997389 21.8691416,21.3151043 21.6816406,21.28125 C21.5436191,21.2552082 21.2662781,21.2421875 20.8496094,21.2421875 Z" id="AMP" fill="#000000"></path>
            </g>
            <g id="Frequency-Mod" transform="translate(0.000000, 72.000000)" fill-rule="nonzero">
                <path d="M15.5,0.5 L13.5,0.5 L13.5,3.5 L15.5,3.5 L15.5,0.5 Z M15.5,4.5 L13.5,4.5 L13.5,7.5 L15.5,7.5 L15.5,4.5 Z M15.5,8.5 L13.5,8.5 L13.5,11.5 L15.5,11.5 L15.5,8.5 Z M15.5,12.5 L13.5,12.5 L13.5,15.5 L15.5,15.5 L15.5,12.5 Z M15.5,16.5 L13.5,16.5 L13.5,19.5 L15.5,19.5 L15.5,16.5 Z M15.5,20.5 L13.5,20.5 L13.5,23.5 L15.5,23.5 L15.5,20.5 Z M15.5,24.5 L13.5,24.5 L13.5,27.5 L15.5,27.5 L15.5,24.5 Z M15.5,28.5 L13.5,28.5 L13.5,31.5 L15.5,31.5 L15.5,28.5 Z" id="Line-Copy-7" fill="#E6E6E6"></path>
                <path d="M15.4492188,19.1757812 C16.292973,19.1757812 16.9680964,19.4374974 17.4746094,19.9609375 C17.9811223,20.4843776 18.234375,21.2122349 18.234375,22.1445312 C18.234375,23.069015 17.9830754,23.7923151 17.4804688,24.3144531 C16.9778621,24.8365912 16.3059938,25.0976562 15.4648438,25.0976562 C14.613277,25.0976562 13.9362004,24.8378932 13.4335938,24.3183594 C12.9309871,23.7988255 12.6796875,23.0833379 12.6796875,22.171875 C12.6796875,21.5885387 12.7669262,21.0989603 12.9414062,20.703125 C13.0716152,20.4114569 13.2493478,20.1497407 13.4746094,19.9179688 C13.6998709,19.6861968 13.9466132,19.5143235 14.2148438,19.4023438 C14.5716164,19.2513013 14.9830706,19.1757812 15.4492188,19.1757812 Z M7.96484375,19.2734375 L9.00390625,23.1796875 L10.03125,19.2734375 L11.765625,19.2734375 L11.765625,25 L10.6914062,25 L10.6914062,20.4921875 L9.5546875,25 L8.44140625,25 L7.30859375,20.4921875 L7.30859375,25 L6.234375,25 L6.234375,19.2734375 L7.96484375,19.2734375 Z M21.2460938,19.2734375 C21.7226586,19.2734375 22.0859362,19.3098955 22.3359375,19.3828125 C22.6718767,19.4817713 22.9596342,19.6575508 23.1992188,19.9101562 C23.4388033,20.1627617 23.6210931,20.4720034 23.7460938,20.8378906 C23.8710944,21.2037779 23.9335938,21.6549452 23.9335938,22.1914062 C23.9335938,22.6627628 23.8750006,23.0690087 23.7578125,23.4101562 C23.6145826,23.826825 23.4101576,24.1640612 23.1445312,24.421875 C22.9440094,24.6171885 22.6731788,24.7695307 22.3320312,24.8789062 C22.0768216,24.9596358 21.7356792,25 21.3085938,25 L19.1328125,25 L19.1328125,19.2734375 L21.2460938,19.2734375 Z M15.4609375,20.1640625 C14.9843726,20.1640625 14.6002619,20.3274723 14.3085938,20.6542969 C14.0169256,20.9811214 13.8710938,21.473955 13.8710938,22.1328125 C13.8710938,22.7812532 14.0208318,23.2727848 14.3203125,23.6074219 C14.6197932,23.942059 14.9999977,24.109375 15.4609375,24.109375 C15.9218773,24.109375 16.3001287,23.943361 16.5957031,23.6113281 C16.8912775,23.2792952 17.0390625,22.7812533 17.0390625,22.1171875 C17.0390625,21.4609342 16.8951837,20.9713558 16.6074219,20.6484375 C16.31966,20.3255192 15.9375024,20.1640625 15.4609375,20.1640625 Z M20.8085938,20.2421875 L20.2890625,20.2421875 L20.2890625,24.0351562 L21.1523438,24.0351562 C21.475262,24.0351562 21.7083326,24.0169273 21.8515625,23.9804688 C22.0390634,23.9335935 22.1946608,23.8541672 22.3183594,23.7421875 C22.4420579,23.6302078 22.5429684,23.4459648 22.6210938,23.1894531 C22.6992191,22.9329414 22.7382812,22.5833355 22.7382812,22.140625 C22.7382812,21.6979145 22.6992191,21.3580741 22.6210938,21.1210938 C22.5429684,20.8841134 22.4335945,20.6992194 22.2929688,20.5664062 C22.152343,20.4335931 21.9739594,20.3437502 21.7578125,20.296875 C21.5963534,20.2604165 21.2799503,20.2421875 20.8085938,20.2421875 Z" id="MOD" fill="#000000"></path>
            </g>
            <g id="Frequency" fill-rule="nonzero">
                <path d="M15.5,0 L13.5,0 L13.5,3 L15.5,3 L15.5,0 Z M15.5,4 L13.5,4 L13.5,7 L15.5,7 L15.5,4 Z M15.5,8 L13.5,8 L13.5,11 L15.5,11 L15.5,8 Z M15.5,12 L13.5,12 L13.5,15 L15.5,15 L15.5,12 Z M15.5,16 L13.5,16 L13.5,19 L15.5,19 L15.5,16 Z M15.5,20 L13.5,20 L13.5,23 L15.5,23 L15.5,20 Z M15.5,24 L13.5,24 L13.5,27 L15.5,27 L15.5,24 Z M15.5,28 L13.5,28 L13.5,31 L15.5,31 L15.5,28 Z M15.5,32 L13.5,32 L13.5,35 L15.5,35 L15.5,32 Z M15.5,36 L13.5,36 L13.5,39 L15.5,39 L15.5,36 Z" id="Line-Copy-11" fill="#E6E6E6"></path>
                <path d="M5.93164062,26 L3.88476562,20.2734375 L5.13867188,20.2734375 L6.58789062,24.5117188 L7.99023438,20.2734375 L9.21679688,20.2734375 L7.16601562,26 L5.93164062,26 Z M9.57226562,23.171875 C9.57226562,22.5885387 9.65950434,22.0989603 9.83398438,21.703125 C9.96419336,21.4114569 10.141926,21.1497407 10.3671875,20.9179688 C10.592449,20.6861968 10.8391914,20.5143235 11.1074219,20.4023438 C11.4641945,20.2513013 11.8756487,20.1757812 12.3417969,20.1757812 C13.1855511,20.1757812 13.8606746,20.4374974 14.3671875,20.9609375 C14.8737004,21.4843776 15.1269531,22.2122349 15.1269531,23.1445312 C15.1269531,24.069015 14.8756536,24.7923151 14.3730469,25.3144531 C13.8704402,25.8365912 13.1985719,26.0976562 12.3574219,26.0976562 C11.5058551,26.0976562 10.8287786,25.8378932 10.3261719,25.3183594 C9.8235652,24.7988255 9.57226562,24.0833379 9.57226562,23.171875 Z M10.7636719,23.1328125 C10.7636719,23.7812532 10.91341,24.2727848 11.2128906,24.6074219 C11.5123713,24.942059 11.8925758,25.109375 12.3535156,25.109375 C12.8144554,25.109375 13.1927069,24.943361 13.4882812,24.6113281 C13.7838556,24.2792952 13.9316406,23.7812533 13.9316406,23.1171875 C13.9316406,22.4609342 13.7877619,21.9713558 13.5,21.6484375 C13.2122381,21.3255192 12.8300805,21.1640625 12.3535156,21.1640625 C11.8769507,21.1640625 11.49284,21.3274723 11.2011719,21.6542969 C10.9095037,21.9811214 10.7636719,22.473955 10.7636719,23.1328125 Z M19.6933594,23.8945312 L20.8144531,24.25 C20.6425773,24.8750031 20.3567728,25.3391912 19.9570312,25.6425781 C19.5572897,25.9459651 19.0501333,26.0976562 18.4355469,26.0976562 C17.6751264,26.0976562 17.0501327,25.8378932 16.5605469,25.3183594 C16.0709611,24.7988255 15.8261719,24.0885462 15.8261719,23.1875 C15.8261719,22.2343702 16.0722632,21.4941433 16.5644531,20.9667969 C17.0566431,20.4394505 17.703772,20.1757812 18.5058594,20.1757812 C19.2063837,20.1757812 19.7753884,20.3828104 20.2128906,20.796875 C20.4733086,21.0416679 20.6686191,21.3932269 20.7988281,21.8515625 L19.6542969,22.125 C19.5865882,21.8281235 19.4453136,21.5937509 19.2304688,21.421875 C19.0156239,21.2499991 18.7545588,21.1640625 18.4472656,21.1640625 C18.0227843,21.1640625 17.6783867,21.3164047 17.4140625,21.6210938 C17.1497383,21.9257828 17.0175781,22.4192674 17.0175781,23.1015625 C17.0175781,23.8255245 17.1477852,24.3411443 17.4082031,24.6484375 C17.6686211,24.9557307 18.0071594,25.109375 18.4238281,25.109375 C18.7311213,25.109375 18.9954416,25.0117197 19.2167969,24.8164062 C19.4381521,24.6210928 19.5970047,24.3138042 19.6933594,23.8945312 Z M23.0957031,26 L23.0957031,21.2421875 L21.3964844,21.2421875 L21.3964844,20.2734375 L25.9472656,20.2734375 L25.9472656,21.2421875 L24.2519531,21.2421875 L24.2519531,26 L23.0957031,26 Z" id="VOCT" fill="#000000"></path>
            </g>
        </g>
        <g id="Tone-2" transform="translate(42.000000, 38.000000)">
            <g id="Output" transform="translate(0.000000, 269.000000)">
                <rect id="Rectangle" fill="#1D1D1D" x="0" y="0" width="30" height="44" rx="4"></rect>
                <path d="M3.60742188,10 L3.60742188,5.2421875 L1.90820312,5.2421875 L1.90820312,4.2734375 L6.45898438,4.2734375 L6.45898438,5.2421875 L4.76367188,5.2421875 L4.76367188,10 L3.60742188,10 Z M6.82617188,7.171875 C6.82617188,6.58853875 6.91341059,6.09896031 7.08789062,5.703125 C7.21809961,5.41145687 7.39583221,5.14974074 7.62109375,4.91796875 C7.84635529,4.68619676 8.09309762,4.51432348 8.36132812,4.40234375 C8.71810074,4.25130133 9.12955496,4.17578125 9.59570312,4.17578125 C10.4394573,4.17578125 11.1145808,4.43749738 11.6210938,4.9609375 C12.1276067,5.48437762 12.3808594,6.21223492 12.3808594,7.14453125 C12.3808594,8.06901504 12.1295598,8.7923151 11.6269531,9.31445312 C11.1243464,9.83659115 10.4524782,10.0976562 9.61132812,10.0976562 C8.75976137,10.0976562 8.0826848,9.83789322 7.58007812,9.31835938 C7.07747145,8.79882553 6.82617188,8.08333789 6.82617188,7.171875 Z M8.01757812,7.1328125 C8.01757812,7.78125324 8.16731621,8.27278479 8.46679688,8.60742188 C8.76627754,8.94205896 9.14648207,9.109375 9.60742188,9.109375 C10.0683617,9.109375 10.4466131,8.94336104 10.7421875,8.61132812 C11.0377619,8.27929521 11.1855469,7.78125332 11.1855469,7.1171875 C11.1855469,6.46093422 11.0416681,5.97135578 10.7539062,5.6484375 C10.4661444,5.32551922 10.0839868,5.1640625 9.60742188,5.1640625 C9.13085699,5.1640625 8.74674625,5.32747232 8.45507812,5.65429688 C8.16341,5.98112143 8.01757812,6.47395504 8.01757812,7.1328125 Z M13.2949219,10 L13.2949219,4.2734375 L14.4199219,4.2734375 L16.7636719,8.09765625 L16.7636719,4.2734375 L17.8378906,4.2734375 L17.8378906,10 L16.6777344,10 L14.3691406,6.265625 L14.3691406,10 L13.2949219,10 Z M19.0605469,10 L19.0605469,4.2734375 L23.3066406,4.2734375 L23.3066406,5.2421875 L20.2167969,5.2421875 L20.2167969,6.51171875 L23.0917969,6.51171875 L23.0917969,7.4765625 L20.2167969,7.4765625 L20.2167969,9.03515625 L23.4160156,9.03515625 L23.4160156,10 L19.0605469,10 Z M27.8613281,8.98046875 L27.8613281,10 L24.0136719,10 C24.0553388,9.61458141 24.1803375,9.24935068 24.3886719,8.90429688 C24.573858,8.59758238 24.9195339,8.20188109 25.4257081,7.71718337 L25.9245524,7.24594824 C26.2432256,6.93875275 26.4461078,6.7213548 26.5332031,6.59375 C26.6842455,6.36718637 26.7597656,6.14323027 26.7597656,5.921875 C26.7597656,5.67708211 26.6940111,5.48893295 26.5625,5.35742188 C26.4309889,5.2259108 26.2493501,5.16015625 26.0175781,5.16015625 C25.7884103,5.16015625 25.6061205,5.22916598 25.4707031,5.3671875 C25.3352858,5.50520902 25.2571616,5.7343734 25.2363281,6.0546875 L24.1425781,5.9453125 C24.2076826,5.34114281 24.4121077,4.9075534 24.7558594,4.64453125 C25.0996111,4.3815091 25.5292943,4.25 26.0449219,4.25 C26.6100289,4.25 27.0540348,4.40234223 27.3769531,4.70703125 C27.6998714,5.01172027 27.8613281,5.39062273 27.8613281,5.84375 C27.8613281,6.10156379 27.8151046,6.34700404 27.7226562,6.58007812 C27.6302079,6.81315221 27.483725,7.05729039 27.2832031,7.3125 C27.1883366,7.43340834 27.0389967,7.59218172 26.8351808,7.7888228 L26.063812,8.51354999 C25.9934387,8.58264158 25.9409181,8.63671855 25.90625,8.67578125 C25.8138016,8.77994844 25.7389326,8.88150992 25.6816406,8.98046875 L27.8613281,8.98046875 Z" id="TONE2" fill="#FFFFFF" fill-rule="nonzero"></path>
            </g>
            <g id="PW" transform="translate(0.000000, 210.000000)" fill-rule="nonzero">
                <path d="M15.5,0 L13.5,0 L13.5,3 L15.5,3 L15.5,0 Z M15.5,4 L13.5,4 L13.5,7 L15.5,7 L15.5,4 Z M15.5,8 L13.5,8 L13.5,11 L15.5,11 L15.5,8 Z M15.5,12 L13.5,12 L13.5,15 L15.5,15 L15.5,12 Z M15.5,16 L13.5,16 L13.5,19 L15.5,19 L15.5,16 Z M15.5,20 L13.5,20 L13.5,23 L15.5,23 L15.5,20 Z M15.5,24 L13.5,24 L13.5,27 L15.5,27 L15.5,24 Z M15.5,28 L13.5,28 L13.5,31 L15.5,31 L15.5,28 Z M15.5,32 L13.5,32 L13.5,35 L15.5,35 L15.5,32 Z M15.5,36 L13.5,36 L13.5,39 L15.5,39 L15.5,36 Z M15.5,40 L13.5,40 L13.5,43 L15.5,43 L15.5,40 Z" id="Line-Copy-15" fill="#E6E6E6"></path>
                <path d="M9.13867188,26 L9.13867188,20.2734375 L10.9941406,20.2734375 C11.6972691,20.2734375 12.1555979,20.302083 12.3691406,20.359375 C12.6972673,20.4453129 12.9720041,20.63216 13.1933594,20.9199219 C13.4147146,21.2076837 13.5253906,21.5794248 13.5253906,22.0351562 C13.5253906,22.3867205 13.4615892,22.6822905 13.3339844,22.921875 C13.2063796,23.1614595 13.0442718,23.3496087 12.8476562,23.4863281 C12.6510407,23.6230476 12.4511729,23.7135414 12.2480469,23.7578125 C12.0114385,23.8046877 11.6839541,23.8314733 11.2655859,23.8381697 L10.2949219,23.8398438 L10.2949219,26 L9.13867188,26 Z M10.2949219,21.2421875 L10.2949219,22.8671875 L10.9277344,22.8671875 L11.2412118,22.8615723 C11.5263682,22.8503419 11.7265619,22.8222658 11.8417969,22.7773438 C11.9954435,22.7174476 12.115885,22.6236986 12.203125,22.4960938 C12.290365,22.3684889 12.3339844,22.2200529 12.3339844,22.0507812 C12.3339844,21.8424469 12.2727871,21.6705736 12.1503906,21.5351562 C12.0279942,21.3997389 11.8730478,21.3151043 11.6855469,21.28125 C11.5672427,21.2589285 11.3465814,21.2461734 11.0235577,21.2429847 L10.2949219,21.2421875 Z M15.2871094,26 L13.9199219,20.2734375 L15.1035156,20.2734375 L15.9667969,24.2070312 L17.0136719,20.2734375 L18.3886719,20.2734375 L19.3925781,24.2734375 L20.2714844,20.2734375 L21.4355469,20.2734375 L20.0449219,26 L18.8183594,26 L17.6777344,21.71875 L16.5410156,26 L15.2871094,26 Z" fill="#000000"></path>
            </g>
            <g id="Amplifier" transform="translate(0.000000, 139.000000)" fill-rule="nonzero">
                <path d="M15.5,0 L13.5,0 L13.5,3 L15.5,3 L15.5,0 Z M15.5,4 L13.5,4 L13.5,7 L15.5,7 L15.5,4 Z M15.5,8 L13.5,8 L13.5,11 L15.5,11 L15.5,8 Z M15.5,12 L13.5,12 L13.5,15 L15.5,15 L15.5,12 Z M15.5,16 L13.5,16 L13.5,19 L15.5,19 L15.5,16 Z M15.5,20 L13.5,20 L13.5,23 L15.5,23 L15.5,20 Z M15.5,24 L13.5,24 L13.5,27 L15.5,27 L15.5,24 Z M15.5,28 L13.5,28 L13.5,31 L15.5,31 L15.5,28 Z M15.5,32 L13.5,32 L13.5,35 L15.5,35 L15.5,32 Z M15.5,36 L13.5,36 L13.5,39 L15.5,39 L15.5,36 Z M15.5,40 L13.5,40 L13.5,43 L15.5,43 L15.5,40 Z" id="Line-Copy-15" fill="#E6E6E6"></path>
                <path d="M11.8574219,26 L10.5996094,26 L10.0996094,24.6992188 L7.81054688,24.6992188 L7.33789062,26 L6.11132812,26 L8.34179688,20.2734375 L9.56445312,20.2734375 L11.8574219,26 Z M9.72851562,23.734375 L8.93945312,21.609375 L8.16601562,23.734375 L9.72851562,23.734375 Z M14.1855469,20.2734375 L15.2246094,24.1796875 L16.2519531,20.2734375 L17.9863281,20.2734375 L17.9863281,26 L16.9121094,26 L16.9121094,21.4921875 L15.7753906,26 L14.6621094,26 L13.5292969,21.4921875 L13.5292969,26 L12.4550781,26 L12.4550781,20.2734375 L14.1855469,20.2734375 Z M20.9902344,20.2734375 C21.6933629,20.2734375 22.1516916,20.302083 22.3652344,20.359375 C22.693361,20.4453129 22.9680979,20.63216 23.1894531,20.9199219 C23.4108084,21.2076837 23.5214844,21.5794248 23.5214844,22.0351562 C23.5214844,22.3867205 23.4576829,22.6822905 23.3300781,22.921875 C23.2024733,23.1614595 23.0403656,23.3496087 22.84375,23.4863281 C22.6471344,23.6230476 22.4472666,23.7135414 22.2441406,23.7578125 C22.0075323,23.8046877 21.6800478,23.8314733 21.2616796,23.8381697 L20.2910156,23.8398438 L20.2910156,26 L19.1347656,26 L19.1347656,20.2734375 L20.9902344,20.2734375 Z M20.8496094,21.2421875 L20.2910156,21.2421875 L20.2910156,22.8671875 L20.9238281,22.8671875 C21.3795596,22.8671875 21.684244,22.8372399 21.8378906,22.7773438 C21.9915372,22.7174476 22.1119787,22.6236986 22.1992188,22.4960938 C22.2864588,22.3684889 22.3300781,22.2200529 22.3300781,22.0507812 C22.3300781,21.8424469 22.2688808,21.6705736 22.1464844,21.5351562 C22.0240879,21.3997389 21.8691416,21.3151043 21.6816406,21.28125 C21.5436191,21.2552082 21.2662781,21.2421875 20.8496094,21.2421875 Z" id="AMP" fill="#000000"></path>
            </g>
            <g id="Frequency-Mod" transform="translate(0.000000, 72.000000)" fill-rule="nonzero">
                <path d="M15.5,0.5 L13.5,0.5 L13.5,3.5 L15.5,3.5 L15.5,0.5 Z M15.5,4.5 L13.5,4.5 L13.5,7.5 L15.5,7.5 L15.5,4.5 Z M15.5,8.5 L13.5,8.5 L13.5,11.5 L15.5,11.5 L15.5,8.5 Z M15.5,12.5 L13.5,12.5 L13.5,15.5 L15.5,15.5 L15.5,12.5 Z M15.5,16.5 L13.5,16.5 L13.5,19.5 L15.5,19.5 L15.5,16.5 Z M15.5,20.5 L13.5,20.5 L13.5,23.5 L15.5,23.5 L15.5,20.5 Z M15.5,24.5 L13.5,24.5 L13.5,27.5 L15.5,27.5 L15.5,24.5 Z M15.5,28.5 L13.5,28.5 L13.5,31.5 L15.5,31.5 L15.5,28.5 Z" id="Line-Copy-7" fill="#E6E6E6"></path>
                <path d="M15.4492188,19.1757812 C16.292973,19.1757812 16.9680964,19.4374974 17.4746094,19.9609375 C17.9811223,20.4843776 18.234375,21.2122349 18.234375,22.1445312 C18.234375,23.069015 17.9830754,23.7923151 17.4804688,24.3144531 C16.9778621,24.8365912 16.3059938,25.0976562 15.4648438,25.0976562 C14.613277,25.0976562 13.9362004,24.8378932 13.4335938,24.3183594 C12.9309871,23.7988255 12.6796875,23.0833379 12.6796875,22.171875 C12.6796875,21.5885387 12.7669262,21.0989603 12.9414062,20.703125 C13.0716152,20.4114569 13.2493478,20.1497407 13.4746094,19.9179688 C13.6998709,19.6861968 13.9466132,19.5143235 14.2148438,19.4023438 C14.5716164,19.2513013 14.9830706,19.1757812 15.4492188,19.1757812 Z M7.96484375,19.2734375 L9.00390625,23.1796875 L10.03125,19.2734375 L11.765625,19.2734375 L11.765625,25 L10.6914062,25 L10.6914062,20.4921875 L9.5546875,25 L8.44140625,25 L7.30859375,20.4921875 L7.30859375,25 L6.234375,25 L6.234375,19.2734375 L7.96484375,19.2734375 Z M21.2460938,19.2734375 C21.7226586,19.2734375 22.0859362,19.3098955 22.3359375,19.3828125 C22.6718767,19.4817713 22.9596342,19.6575508 23.1992188,19.9101562 C23.4388033,20.1627617 23.6210931,20.4720034 23.7460938,20.8378906 C23.8710944,21.2037779 23.9335938,21.6549452 23.9335938,22.1914062 C23.9335938,22.6627628 23.8750006,23.0690087 23.7578125,23.4101562 C23.6145826,23.826825 23.4101576,24.1640612 23.1445312,24.421875 C22.9440094,24.6171885 22.6731788,24.7695307 22.3320312,24.8789062 C22.0768216,24.9596358 21.7356792,25 21.3085938,25 L19.1328125,25 L19.1328125,19.2734375 L21.2460938,19.2734375 Z M15.4609375,20.1640625 C14.9843726,20.1640625 14.6002619,20.3274723 14.3085938,20.6542969 C14.0169256,20.9811214 13.8710938,21.473955 13.8710938,22.1328125 C13.8710938,22.7812532 14.0208318,23.2727848 14.3203125,23.6074219 C14.6197932,23.942059 14.9999977,24.109375 15.4609375,24.109375 C15.9218773,24.109375 16.3001287,23.943361 16.5957031,23.6113281 C16.8912775,23.2792952 17.0390625,22.7812533 17.0390625,22.1171875 C17.0390625,21.4609342 16.8951837,20.9713558 16.6074219,20.6484375 C16.31966,20.3255192 15.9375024,20.1640625 15.4609375,20.1640625 Z M20.8085938,20.2421875 L20.2890625,20.2421875 L20.2890625,24.0351562 L21.1523438,24.0351562 C21.475262,24.0351562 21.7083326,24.0169273 21.8515625,23.9804688 C22.0390634,23.9335935 22.1946608,23.8541672 22.3183594,23.7421875 C22.4420579,23.6302078 22.5429684,23.4459648 22.6210938,23.1894531 C22.6992191,22.9329414 22.7382812,22.5833355 22.7382812,22.140625 C22.7382812,21.6979145 22.6992191,21.3580741 22.6210938,21.1210938 C22.5429684,20.8841134 22.4335945,20.6992194 22.2929688,20.5664062 C22.152343,20.4335931 21.9739594,20.3437502 21.7578125,20.296875 C21.5963534,20.2604165 21.2799503,20.2421875 20.8085938,20.2421875 Z" id="MOD" fill="#000000"></path>
            </g>
            <g id="Frequency" fill-rule="nonzero">
                <path d="M15.5,0 L13.5,0 L13.5,3 L15.5,3 L15.5,0 Z M15.5,4 L13.5,4 L13.5,7 L15.5,7 L15.5,4 Z M15.5,8 L13.5,8 L13.5,11 L15.5,11 L15.5,8 Z M15.5,12 L13.5,12 L13.5,15 L15.5,15 L15.5,12 Z M15.5,16 L13.5,16 L13.5,19 L15.5,19 L15.5,16 Z M15.5,20 L13.5,20 L13.5,23 L15.5,23 L15.5,20 Z M15.5,24 L13.5,24 L13.5,27 L15.5,27 L15.5,24 Z M15.5,28 L13.5,28 L13.5,31 L15.5,31 L15.5,28 Z M15.5,32 L13.5,32 L13.5,35 L15.5,35 L15.5,32 Z M15.5,36 L13.5,36 L13.5,39 L15.5,39 L15.5,36 Z" id="Line-Copy-11" fill="#E6E6E6"></path>
                <path d="M5.93164062,26 L3.88476562,20.2734375 L5.13867188,20.2734375 L6.58789062,24.5117188 L7.99023438,20.2734375 L9.21679688,20.2734375 L7.16601562,26 L5.93164062,26 Z M9.57226562,23.171875 C9.57226562,22.5885387 9.65950434,22.0989603 9.83398438,21.703125 C9.96419336,21.4114569 10.141926,21.1497407 10.3671875,20.9179688 C10.592449,20.6861968 10.8391914,20.5143235 11.1074219,20.4023438 C11.4641945,20.2513013 11.8756487,20.1757812 12.3417969,20.1757812 C13.1855511,20.1757812 13.8606746,20.4374974 14.3671875,20.9609375 C14.8737004,21.4843776 15.1269531,22.2122349 15.1269531,23.1445312 C15.1269531,24.069015 14.8756536,24.7923151 14.3730469,25.3144531 C13.8704402,25.8365912 13.1985719,26.0976562 12.3574219,26.0976562 C11.5058551,26.0976562 10.8287786,25.8378932 10.3261719,25.3183594 C9.8235652,24.7988255 9.57226562,24.0833379 9.57226562,23.171875 Z M10.7636719,23.1328125 C10.7636719,23.7812532 10.91341,24.2727848 11.2128906,24.6074219 C11.5123713,24.942059 11.8925758,25.109375 12.3535156,25.109375 C12.8144554,25.109375 13.1927069,24.943361 13.4882812,24.6113281 C13.7838556,24.2792952 13.9316406,23.7812533 13.9316406,23.1171875 C13.9316406,22.4609342 13.7877619,21.9713558 13.5,21.6484375 C13.2122381,21.3255192 12.8300805,21.1640625 12.3535156,21.1640625 C11.8769507,21.1640625 11.49284,21.3274723 11.2011719,21.6542969 C10.9095037,21.9811214 10.7636719,22.473955 10.7636719,23.1328125 Z M19.6933594,23.8945312 L20.8144531,24.25 C20.6425773,24.8750031 20.3567728,25.3391912 19.9570312,25.6425781 C19.5572897,25.9459651 19.0501333,26.0976562 18.4355469,26.0976562 C17.6751264,26.0976562 17.0501327,25.8378932 16.5605469,25.3183594 C16.0709611,24.7988255 15.8261719,24.0885462 15.8261719,23.1875 C15.8261719,22.2343702 16.0722632,21.4941433 16.5644531,20.9667969 C17.0566431,20.4394505 17.703772,20.1757812 18.5058594,20.1757812 C19.2063837,20.1757812 19.7753884,20.3828104 20.2128906,20.796875 C20.4733086,21.0416679 20.6686191,21.3932269 20.7988281,21.8515625 L19.6542969,22.125 C19.5865882,21.8281235 19.4453136,21.5937509 19.2304688,21.421875 C19.0156239,21.2499991 18.7545588,21.1640625 18.4472656,21.1640625 C18.0227843,21.1640625 17.6783867,21.3164047 17.4140625,21.6210938 C17.1497383,21.9257828 17.0175781,22.4192674 17.0175781,23.1015625 C17.0175781,23.8255245 17.1477852,24.3411443 17.4082031,24.6484375 C17.6686211,24.9557307 18.0071594,25.109375 18.4238281,25.109375 C18.7311213,25.109375 18.9954416,25.0117197 19.2167969,24.8164062 C19.4381521,24.6210928 19.5970047,24.3138042 19.6933594,23.8945312 Z M23.0957031,26 L23.0957031,21.2421875 L21.3964844,21.2421875 L21.3964844,20.2734375 L25.9472656,20.2734375 L25.9472656,21.2421875 L24.2519531,21.2421875 L24.2519531,26 L23.0957031,26 Z" id="VOCT" fill="#000000"></path>
            </g>
        </g>
        <g id="Tone-1" transform="translate(7.000000, 38.000000)">
            <g id="Output" transform="translate(0.000000, 269.000000)">
                <rect id="Rectangle" fill="#1D1D1D" x="0" y="0" width="30" height="44" rx="4"></rect>
                <path d="M3.60742188,10 L3.60742188,5.2421875 L1.90820312,5.2421875 L1.90820312,4.2734375 L6.45898438,4.2734375 L6.45898438,5.2421875 L4.76367188,5.2421875 L4.76367188,10 L3.60742188,10 Z M6.82617188,7.171875 C6.82617188,6.58853875 6.91341059,6.09896031 7.08789062,5.703125 C7.21809961,5.41145687 7.39583221,5.14974074 7.62109375,4.91796875 C7.84635529,4.68619676 8.09309762,4.51432348 8.36132812,4.40234375 C8.71810074,4.25130133 9.12955496,4.17578125 9.59570312,4.17578125 C10.4394573,4.17578125 11.1145808,4.43749738 11.6210938,4.9609375 C12.1276067,5.48437762 12.3808594,6.21223492 12.3808594,7.14453125 C12.3808594,8.06901504 12.1295598,8.7923151 11.6269531,9.31445312 C11.1243464,9.83659115 10.4524782,10.0976562 9.61132812,10.0976562 C8.75976137,10.0976562 8.0826848,9.83789322 7.58007812,9.31835938 C7.07747145,8.79882553 6.82617188,8.08333789 6.82617188,7.171875 Z M8.01757812,7.1328125 C8.01757812,7.78125324 8.16731621,8.27278479 8.46679688,8.60742188 C8.76627754,8.94205896 9.14648207,9.109375 9.60742188,9.109375 C10.0683617,9.109375 10.4466131,8.94336104 10.7421875,8.61132812 C11.0377619,8.27929521 11.1855469,7.78125332 11.1855469,7.1171875 C11.1855469,6.46093422 11.0416681,5.97135578 10.7539062,5.6484375 C10.4661444,5.32551922 10.0839868,5.1640625 9.60742188,5.1640625 C9.13085699,5.1640625 8.74674625,5.32747232 8.45507812,5.65429688 C8.16341,5.98112143 8.01757812,6.47395504 8.01757812,7.1328125 Z M13.2949219,10 L13.2949219,4.2734375 L14.4199219,4.2734375 L16.7636719,8.09765625 L16.7636719,4.2734375 L17.8378906,4.2734375 L17.8378906,10 L16.6777344,10 L14.3691406,6.265625 L14.3691406,10 L13.2949219,10 Z M19.0605469,10 L19.0605469,4.2734375 L23.3066406,4.2734375 L23.3066406,5.2421875 L20.2167969,5.2421875 L20.2167969,6.51171875 L23.0917969,6.51171875 L23.0917969,7.4765625 L20.2167969,7.4765625 L20.2167969,9.03515625 L23.4160156,9.03515625 L23.4160156,10 L19.0605469,10 Z M26.9628906,10 L25.8652344,10 L25.8652344,5.86328125 C25.4641907,6.23828313 24.9915392,6.5156241 24.4472656,6.6953125 L24.4472656,5.69921875 C24.7337254,5.60546828 25.0449202,5.42773568 25.3808594,5.16601562 C25.7167986,4.90429557 25.9472656,4.59896008 26.0722656,4.25 L26.9628906,4.25 L26.9628906,10 Z" id="TONE1" fill="#FFFFFF" fill-rule="nonzero"></path>
            </g>
            <g id="PW" transform="translate(0.000000, 210.000000)" fill-rule="nonzero">
                <path d="M15.5,0 L13.5,0 L13.5,3 L15.5,3 L15.5,0 Z M15.5,4 L13.5,4 L13.5,7 L15.5,7 L15.5,4 Z M15.5,8 L13.5,8 L13.5,11 L15.5,11 L15.5,8 Z M15.5,12 L13.5,12 L13.5,15 L15.5,15 L15.5,12 Z M15.5,16 L13.5,16 L13.5,19 L15.5,19 L15.5,16 Z M15.5,20 L13.5,20 L13.5,23 L15.5,23 L15.5,20 Z M15.5,24 L13.5,24 L13.5,27 L15.5,27 L15.5,24 Z M15.5,28 L13.5,28 L13.5,31 L15.5,31 L15.5,28 Z M15.5,32 L13.5,32 L13.5,35 L15.5,35 L15.5,32 Z M15.5,36 L13.5,36 L13.5,39 L15.5,39 L15.5,36 Z M15.5,40 L13.5,40 L13.5,43 L15.5,43 L15.5,40 Z" id="Line-Copy-15" fill="#E6E6E6"></path>
                <path d="M9.13867188,26 L9.13867188,20.2734375 L10.9941406,20.2734375 C11.6972691,20.2734375 12.1555979,20.302083 12.3691406,20.359375 C12.6972673,20.4453129 12.9720041,20.63216 13.1933594,20.9199219 C13.4147146,21.2076837 13.5253906,21.5794248 13.5253906,22.0351562 C13.5253906,22.3867205 13.4615892,22.6822905 13.3339844,22.921875 C13.2063796,23.1614595 13.0442718,23.3496087 12.8476562,23.4863281 C12.6510407,23.6230476 12.4511729,23.7135414 12.2480469,23.7578125 C12.0114385,23.8046877 11.6839541,23.8314733 11.2655859,23.8381697 L10.2949219,23.8398438 L10.2949219,26 L9.13867188,26 Z M10.2949219,21.2421875 L10.2949219,22.8671875 L10.9277344,22.8671875 L11.2412118,22.8615723 C11.5263682,22.8503419 11.7265619,22.8222658 11.8417969,22.7773438 C11.9954435,22.7174476 12.115885,22.6236986 12.203125,22.4960938 C12.290365,22.3684889 12.3339844,22.2200529 12.3339844,22.0507812 C12.3339844,21.8424469 12.2727871,21.6705736 12.1503906,21.5351562 C12.0279942,21.3997389 11.8730478,21.3151043 11.6855469,21.28125 C11.5672427,21.2589285 11.3465814,21.2461734 11.0235577,21.2429847 L10.2949219,21.2421875 Z M15.2871094,26 L13.9199219,20.2734375 L15.1035156,20.2734375 L15.9667969,24.2070312 L17.0136719,20.2734375 L18.3886719,20.2734375 L19.3925781,24.2734375 L20.2714844,20.2734375 L21.4355469,20.2734375 L20.0449219,26 L18.8183594,26 L17.6777344,21.71875 L16.5410156,26 L15.2871094,26 Z" fill="#000000"></path>
            </g>
            <g id="Amplifier" transform="translate(0.000000, 139.000000)" fill-rule="nonzero">
                <path d="M15.5,0 L13.5,0 L13.5,3 L15.5,3 L15.5,0 Z M15.5,4 L13.5,4 L13.5,7 L15.5,7 L15.5,4 Z M15.5,8 L13.5,8 L13.5,11 L15.5,11 L15.5,8 Z M15.5,12 L13.5,12 L13.5,15 L15.5,15 L15.5,12 Z M15.5,16 L13.5,16 L13.5,19 L15.5,19 L15.5,16 Z M15.5,20 L13.5,20 L13.5,23 L15.5,23 L15.5,20 Z M15.5,24 L13.5,24 L13.5,27 L15.5,27 L15.5,24 Z M15.5,28 L13.5,28 L13.5,31 L15.5,31 L15.5,28 Z M15.5,32 L13.5,32 L13.5,35 L15.5,35 L15.5,32 Z M15.5,36 L13.5,36 L13.5,39 L15.5,39 L15.5,36 Z M15.5,40 L13.5,40 L13.5,43 L15.5,43 L15.5,40 Z" id="Line-Copy-15" fill="#E6E6E6"></path>
                <path d="M11.8574219,26 L10.5996094,26 L10.0996094,24.6992188 L7.81054688,24.6992188 L7.33789062,26 L6.11132812,26 L8.34179688,20.2734375 L9.56445312,20.2734375 L11.8574219,26 Z M9.72851562,23.734375 L8.93945312,21.609375 L8.16601562,23.734375 L9.72851562,23.734375 Z M14.1855469,20.2734375 L15.2246094,24.1796875 L16.2519531,20.2734375 L17.9863281,20.2734375 L17.9863281,26 L16.9121094,26 L16.9121094,21.4921875 L15.7753906,26 L14.6621094,26 L13.5292969,21.4921875 L13.5292969,26 L12.4550781,26 L12.4550781,20.2734375 L14.1855469,20.2734375 Z M20.9902344,20.2734375 C21.6933629,20.2734375 22.1516916,20.302083 22.3652344,20.359375 C22.693361,20.4453129 22.9680979,20.63216 23.1894531,20.9199219 C23.4108084,21.2076837 23.5214844,21.5794248 23.5214844,22.0351562 C23.5214844,22.3867205 23.4576829,22.6822905 23.3300781,22.921875 C23.2024733,23.1614595 23.0403656,23.3496087 22.84375,23.4863281 C22.6471344,23.6230476 22.4472666,23.7135414 22.2441406,23.7578125 C22.0075323,23.8046877 21.6800478,23.8314733 21.2616796,23.8381697 L20.2910156,23.8398438 L20.2910156,26 L19.1347656,26 L19.1347656,20.2734375 L20.9902344,20.2734375 Z M20.8496094,21.2421875 L20.2910156,21.2421875 L20.2910156,22.8671875 L20.9238281,22.8671875 C21.3795596,22.8671875 21.684244,22.8372399 21.8378906,22.7773438 C21.9915372,22.7174476 22.1119787,22.6236986 22.1992188,22.4960938 C22.2864588,22.3684889 22.3300781,22.2200529 22.3300781,22.0507812 C22.3300781,21.8424469 22.2688808,21.6705736 22.1464844,21.5351562 C22.0240879,21.3997389 21.8691416,21.3151043 21.6816406,21.28125 C21.5436191,21.2552082 21.2662781,21.2421875 20.8496094,21.2421875 Z" id="AMP" fill="#000000"></path>
            </g>
            <g id="Frequency-Mod" transform="translate(0.000000, 72.000000)" fill-rule="nonzero">
                <path d="M15.5,0.5 L13.5,0.5 L13.5,3.5 L15.5,3.5 L15.5,0.5 Z M15.5,4.5 L13.5,4.5 L13.5,7.5 L15.5,7.5 L15.5,4.5 Z M15.5,8.5 L13.5,8.5 L13.5,11.5 L15.5,11.5 L15.5,8.5 Z M15.5,12.5 L13.5,12.5 L13.5,15.5 L15.5,15.5 L15.5,12.5 Z M15.5,16.5 L13.5,16.5 L13.5,19.5 L15.5,19.5 L15.5,16.5 Z M15.5,20.5 L13.5,20.5 L13.5,23.5 L15.5,23.5 L15.5,20.5 Z M15.5,24.5 L13.5,24.5 L13.5,27.5 L15.5,27.5 L15.5,24.5 Z M15.5,28.5 L13.5,28.5 L13.5,31.5 L15.5,31.5 L15.5,28.5 Z" id="Line-Copy-7" fill="#E6E6E6"></path>
                <path d="M15.4492188,19.1757812 C16.292973,19.1757812 16.9680964,19.4374974 17.4746094,19.9609375 C17.9811223,20.4843776 18.234375,21.2122349 18.234375,22.1445312 C18.234375,23.069015 17.9830754,23.7923151 17.4804688,24.3144531 C16.9778621,24.8365912 16.3059938,25.0976562 15.4648438,25.0976562 C14.613277,25.0976562 13.9362004,24.8378932 13.4335938,24.3183594 C12.9309871,23.7988255 12.6796875,23.0833379 12.6796875,22.171875 C12.6796875,21.5885387 12.7669262,21.0989603 12.9414062,20.703125 C13.0716152,20.4114569 13.2493478,20.1497407 13.4746094,19.9179688 C13.6998709,19.6861968 13.9466132,19.5143235 14.2148438,19.4023438 C14.5716164,19.2513013 14.9830706,19.1757812 15.4492188,19.1757812 Z M7.96484375,19.2734375 L9.00390625,23.1796875 L10.03125,19.2734375 L11.765625,19.2734375 L11.765625,25 L10.6914062,25 L10.6914062,20.4921875 L9.5546875,25 L8.44140625,25 L7.30859375,20.4921875 L7.30859375,25 L6.234375,25 L6.234375,19.2734375 L7.96484375,19.2734375 Z M21.2460938,19.2734375 C21.7226586,19.2734375 22.0859362,19.3098955 22.3359375,19.3828125 C22.6718767,19.4817713 22.9596342,19.6575508 23.1992188,19.9101562 C23.4388033,20.1627617 23.6210931,20.4720034 23.7460938,20.8378906 C23.8710944,21.2037779 23.9335938,21.6549452 23.9335938,22.1914062 C23.9335938,22.6627628 23.8750006,23.0690087 23.7578125,23.4101562 C23.6145826,23.826825 23.4101576,24.1640612 23.1445312,24.421875 C22.9440094,24.6171885 22.6731788,24.7695307 22.3320312,24.8789062 C22.0768216,24.9596358 21.7356792,25 21.3085938,25 L19.1328125,25 L19.1328125,19.2734375 L21.2460938,19.2734375 Z M15.4609375,20.1640625 C14.9843726,20.1640625 14.6002619,20.3274723 14.3085938,20.6542969 C14.0169256,20.9811214 13.8710938,21.473955 13.8710938,22.1328125 C13.8710938,22.7812532 14.0208318,23.2727848 14.3203125,23.6074219 C14.6197932,23.942059 14.9999977,24.109375 15.4609375,24.109375 C15.9218773,24.109375 16.3001287,23.943361 16.5957031,23.6113281 C16.8912775,23.2792952 17.0390625,22.7812533 17.0390625,22.1171875 C17.0390625,21.4609342 16.8951837,20.9713558 16.6074219,20.6484375 C16.31966,20.3255192 15.9375024,20.1640625 15.4609375,20.1640625 Z M20.8085938,20.2421875 L20.2890625,20.2421875 L20.2890625,24.0351562 L21.1523438,24.0351562 C21.475262,24.0351562 21.7083326,24.0169273 21.8515625,23.9804688 C22.0390634,23.9335935 22.1946608,23.8541672 22.3183594,23.7421875 C22.4420579,23.6302078 22.5429684,23.4459648 22.6210938,23.1894531 C22.6992191,22.9329414 22.7382812,22.5833355 22.7382812,22.140625 C22.7382812,21.6979145 22.6992191,21.3580741 22.6210938,21.1210938 C22.5429684,20.8841134 22.4335945,20.6992194 22.2929688,20.5664062 C22.152343,20.4335931 21.9739594,20.3437502 21.7578125,20.296875 C21.5963534,20.2604165 21.2799503,20.2421875 20.8085938,20.2421875 Z" id="MOD" fill="#000000"></path>
            </g>
            <g id="Frequency" fill-rule="nonzero">
                <path d="M15.5,0 L13.5,0 L13.5,3 L15.5,3 L15.5,0 Z M15.5,4 L13.5,4 L13.5,7 L15.5,7 L15.5,4 Z M15.5,8 L13.5,8 L13.5,11 L15.5,11 L15.5,8 Z M15.5,12 L13.5,12 L13.5,15 L15.5,15 L15.5,12 Z M15.5,16 L13.5,16 L13.5,19 L15.5,19 L15.5,16 Z M15.5,20 L13.5,20 L13.5,23 L15.5,23 L15.5,20 Z M15.5,24 L13.5,24 L13.5,27 L15.5,27 L15.5,24 Z M15.5,28 L13.5,28 L13.5,31 L15.5,31 L15.5,28 Z M15.5,32 L13.5,32 L13.5,35 L15.5,35 L15.5,32 Z M15.5,36 L13.5,36 L13.5,39 L15.5,39 L15.5,36 Z" id="Line-Copy-11" fill="#E6E6E6"></path>
                <path d="M5.93164062,26 L3.88476562,20.2734375 L5.13867188,20.2734375 L6.58789062,24.5117188 L7.99023438,20.2734375 L9.21679688,20.2734375 L7.16601562,26 L5.93164062,26 Z M9.57226562,23.171875 C9.57226562,22.5885387 9.65950434,22.0989603 9.83398438,21.703125 C9.96419336,21.4114569 10.141926,21.1497407 10.3671875,20.9179688 C10.592449,20.6861968 10.8391914,20.5143235 11.1074219,20.4023438 C11.4641945,20.2513013 11.8756487,20.1757812 12.3417969,20.1757812 C13.1855511,20.1757812 13.8606746,20.4374974 14.3671875,20.9609375 C14.8737004,21.4843776 15.1269531,22.2122349 15.1269531,23.1445312 C15.1269531,24.069015 14.8756536,24.7923151 14.3730469,25.3144531 C13.8704402,25.8365912 13.1985719,26.0976562 12.3574219,26.0976562 C11.5058551,26.0976562 10.8287786,25.8378932 10.3261719,25.3183594 C9.8235652,24.7988255 9.57226562,24.0833379 9.57226562,23.171875 Z M10.7636719,23.1328125 C10.7636719,23.7812532 10.91341,24.2727848 11.2128906,24.6074219 C11.5123713,24.942059 11.8925758,25.109375 12.3535156,25.109375 C12.8144554,25.109375 13.1927069,24.943361 13.4882812,24.6113281 C13.7838556,24.2792952 13.9316406,23.7812533 13.9316406,23.1171875 C13.9316406,22.4609342 13.7877619,21.9713558 13.5,21.6484375 C13.2122381,21.3255192 12.8300805,21.1640625 12.3535156,21.1640625 C11.8769507,21.1640625 11.49284,21.3274723 11.2011719,21.6542969 C10.9095037,21.9811214 10.7636719,22.473955 10.7636719,23.1328125 Z M19.6933594,23.8945312 L20.8144531,24.25 C20.6425773,24.8750031 20.3567728,25.3391912 19.9570312,25.6425781 C19.5572897,25.9459651 19.0501333,26.0976562 18.4355469,26.0976562 C17.6751264,26.0976562 17.0501327,25.8378932 16.5605469,25.3183594 C16.0709611,24.7988255 15.8261719,24.0885462 15.8261719,23.1875 C15.8261719,22.2343702 16.0722632,21.4941433 16.5644531,20.9667969 C17.0566431,20.4394505 17.703772,20.1757812 18.5058594,20.1757812 C19.2063837,20.1757812 19.7753884,20.3828104 20.2128906,20.796875 C20.4733086,21.0416679 20.6686191,21.3932269 20.7988281,21.8515625 L19.6542969,22.125 C19.5865882,21.8281235 19.4453136,21.5937509 19.2304688,21.421875 C19.0156239,21.2499991 18.7545588,21.1640625 18.4472656,21.1640625 C18.0227843,21.1640625 17.6783867,21.3164047 17.4140625,21.6210938 C17.1497383,21.9257828 17.0175781,22.4192674 17.0175781,23.1015625 C17.0175781,23.8255245 17.1477852,24.3411443 17.4082031,24.6484375 C17.6686211,24.9557307 18.0071594,25.109375 18.4238281,25.109375 C18.7311213,25.109375 18.9954416,25.0117197 19.2167969,24.8164062 C19.4381521,24.6210928 19.5970047,24.3138042 19.6933594,23.8945312 Z M23.0957031,26 L23.0957031,21.2421875 L21.3964844,21.2421875 L21.3964844,20.2734375 L25.9472656,20.2734375 L25.9472656,21.2421875 L24.2519531,21.2421875 L24.2519531,26 L23.0957031,26 Z" id="VOCT" fill="#000000"></path>
            </g>
        </g>
    </g>
</svg>