<?xml version="1.0" encoding="UTF-8"?>
<svg width="165px" height="380px" viewBox="0 0 165 380" version="1.1" xmlns="http://www.w3.org/2000/svg" xmlns:xlink="http://www.w3.org/1999/xlink">
    <!-- Generator: Sketch 58 (84663) - https://sketch.com -->
    <title>VRC6</title>
    <desc>Created with Sketch.</desc>
    <g id="VRC6" stroke="none" stroke-width="1" fill="none" fill-rule="evenodd">
        <g id="bg">
            <rect id="Background" fill="#DCDCDC" fill-rule="nonzero" x="0" y="0" width="165" height="380"></rect>
            <g id="leads" transform="translate(8.000000, 5.000000)" fill="#949494">
                <g id="leads-R" transform="translate(144.000000, 0.000000)">
                    <rect id="Rectangle" x="0" y="0" width="5" height="10"></rect>
                    <rect id="Rectangle-Copy" x="0" y="20" width="5" height="10"></rect>
                    <rect id="Rectangle-Copy-3" x="0" y="40" width="5" height="10"></rect>
                    <rect id="Rectangle-Copy-2" x="0" y="60" width="5" height="10"></rect>
                    <rect id="Rectangle-Copy-7" x="0" y="140" width="5" height="10"></rect>
                    <rect id="Rectangle-Copy-6" x="0" y="80" width="5" height="10"></rect>
                    <rect id="Rectangle-Copy-5" x="0" y="100" width="5" height="10"></rect>
                    <rect id="Rectangle-Copy-4" x="0" y="120" width="5" height="10"></rect>
                    <rect id="Rectangle-Copy-15" x="0" y="160" width="5" height="10"></rect>
                    <rect id="Rectangle-Copy-14" x="0" y="180" width="5" height="10"></rect>
                    <rect id="Rectangle-Copy-13" x="0" y="200" width="5" height="10"></rect>
                    <rect id="Rectangle-Copy-12" x="0" y="220" width="5" height="10"></rect>
                    <rect id="Rectangle-Copy-11" x="0" y="300" width="5" height="10"></rect>
                    <rect id="Rectangle-Copy-10" x="0" y="240" width="5" height="10"></rect>
                    <rect id="Rectangle-Copy-9" x="0" y="260" width="5" height="10"></rect>
                    <rect id="Rectangle-Copy-8" x="0" y="280" width="5" height="10"></rect>
                    <rect id="Rectangle-Copy-18" x="0" y="320" width="5" height="10"></rect>
                    <rect id="Rectangle-Copy-17" x="0" y="340" width="5" height="10"></rect>
                    <rect id="Rectangle-Copy-16" x="0" y="360" width="5" height="10"></rect>
                </g>
                <g id="leads-L">
                    <rect id="Rectangle" x="0" y="0" width="5" height="10"></rect>
                    <rect id="Rectangle-Copy" x="0" y="20" width="5" height="10"></rect>
                    <rect id="Rectangle-Copy-3" x="0" y="40" width="5" height="10"></rect>
                    <rect id="Rectangle-Copy-2" x="0" y="60" width="5" height="10"></rect>
                    <rect id="Rectangle-Copy-7" x="0" y="140" width="5" height="10"></rect>
                    <rect id="Rectangle-Copy-6" x="0" y="80" width="5" height="10"></rect>
                    <rect id="Rectangle-Copy-5" x="0" y="100" width="5" height="10"></rect>
                    <rect id="Rectangle-Copy-4" x="0" y="120" width="5" height="10"></rect>
                    <rect id="Rectangle-Copy-15" x="0" y="160" width="5" height="10"></rect>
                    <rect id="Rectangle-Copy-14" x="0" y="180" width="5" height="10"></rect>
                    <rect id="Rectangle-Copy-13" x="0" y="200" width="5" height="10"></rect>
                    <rect id="Rectangle-Copy-12" x="0" y="220" width="5" height="10"></rect>
                    <rect id="Rectangle-Copy-11" x="0" y="300" width="5" height="10"></rect>
                    <rect id="Rectangle-Copy-10" x="0" y="240" width="5" height="10"></rect>
                    <rect id="Rectangle-Copy-9" x="0" y="260" width="5" height="10"></rect>
                    <rect id="Rectangle-Copy-8" x="0" y="280" width="5" height="10"></rect>
                    <rect id="Rectangle-Copy-18" x="0" y="320" width="5" height="10"></rect>
                    <rect id="Rectangle-Copy-17" x="0" y="340" width="5" height="10"></rect>
                    <rect id="Rectangle-Copy-16" x="0" y="360" width="5" height="10"></rect>
                </g>
            </g>
            <rect id="inner" fill="#1A1A1A" x="13" y="0" width="139" height="380"></rect>
            <g id="KautenjaDSP/bottom/white" transform="translate(51.000000, 364.000000)" fill="#FFFFFF">
                <g id="Group-3">
                    <path d="M-2.13162821e-14,0.17 L-2.13162821e-14,7.31 L1.57,7.31 L1.57,5.01 L2.47,4.1 L4.62,7.31 L6.59,7.31 L3.53,2.99 L6.32,0.17 L4.36,0.17 L1.57,3.13 L1.57,0.17 L-2.13162821e-14,0.17 Z M7.01,3.73 C7.0300001,3.396665 7.1133326,3.1200011 7.26,2.9 C7.4066674,2.6799989 7.5933322,2.503334 7.82,2.37 C8.0466678,2.236666 8.30166525,2.14166695 8.585,2.085 C8.86833475,2.02833305 9.1533319,2 9.44,2 C9.7000013,2 9.963332,2.01833315 10.23,2.055 C10.496668,2.09166685 10.7399989,2.1633328 10.96,2.27 C11.1800011,2.3766672 11.3599993,2.52499905 11.5,2.715 C11.6400007,2.90500095 11.71,3.1566651 11.71,3.47 L11.71,6.16 C11.71,6.3933345 11.7233332,6.6166656 11.75,6.83 C11.7766668,7.0433344 11.823333,7.2033328 11.89,7.31 L10.45,7.31 C10.4233332,7.2299996 10.4016667,7.14833375 10.385,7.065 C10.3683332,6.98166625 10.3566667,6.8966671 10.35,6.81 C10.1233322,7.0433345 9.8566682,7.2066662 9.55,7.3 C9.2433318,7.3933338 8.9300016,7.44 8.61,7.44 C8.3633321,7.44 8.1333344,7.4100003 7.92,7.35 C7.7066656,7.2899997 7.5200008,7.1966673 7.36,7.07 C7.1999992,6.9433327 7.07500045,6.7833343 6.985,6.59 C6.89499955,6.3966657 6.85,6.166668 6.85,5.9 C6.85,5.6066652 6.90166615,5.36500095 7.005,5.175 C7.10833385,4.98499905 7.24166585,4.8333339 7.405,4.72 C7.56833415,4.6066661 7.75499895,4.52166695 7.965,4.465 C8.17500105,4.40833305 8.3866656,4.3633335 8.6,4.33 L8.91750001,4.28499998 L8.91750001,4.28499998 L9.23,4.25 C9.4366677,4.2299999 9.6199992,4.2000002 9.78,4.16 C9.9400008,4.1199998 10.0666662,4.06166705 10.16,3.985 C10.2533338,3.90833295 10.2966667,3.7966674 10.29,3.65 C10.29,3.4966659 10.2650002,3.37500045 10.215,3.285 C10.1649997,3.19499955 10.0983337,3.12500025 10.015,3.075 C9.93166625,3.02499975 9.83500055,2.99166675 9.725,2.975 C9.61499945,2.95833325 9.4966673,2.95 9.37,2.95 C9.0899986,2.95 8.8700008,3.0099994 8.71,3.13 C8.5499992,3.2500006 8.4566668,3.4499986 8.43,3.73 L7.01,3.73 Z M10.29,4.78 C10.2299997,4.8333336 10.1550004,4.87499985 10.065,4.905 C9.97499955,4.93500015 9.87833385,4.9599999 9.775,4.98 L9.61625002,5.00750001 L9.61625002,5.00750001 L9.45,5.03 C9.3366661,5.0433334 9.2233339,5.0599999 9.11,5.08 C9.0033328,5.1000001 8.89833385,5.1266665 8.795,5.16 C8.69166615,5.1933335 8.60166705,5.23833305 8.525,5.295 C8.44833295,5.35166695 8.3866669,5.4233329 8.34,5.51 C8.2933331,5.5966671 8.27,5.706666 8.27,5.84 C8.27,5.9666673 8.2933331,6.0733329 8.34,6.16 C8.3866669,6.2466671 8.4499996,6.31499975 8.53,6.365 C8.6100004,6.41500025 8.7033328,6.4499999 8.81,6.47 C8.9166672,6.4900001 9.0266661,6.5 9.14,6.5 C9.4200014,6.5 9.6366659,6.4533338 9.79,6.36 C9.9433341,6.2666662 10.0566663,6.15500065 10.13,6.025 C10.2033337,5.89499935 10.2483332,5.763334 10.265,5.63 L10.2872222,5.39888892 C10.2890741,5.3662964 10.29,5.3366668 10.29,5.31 L10.29,4.78 Z M17.66,7.31 L17.66,2.14 L16.24,2.14 L16.24,4.85 C16.24,5.3766693 16.1533342,5.75499885 15.98,5.985 C15.8066658,6.21500115 15.5266686,6.33 15.14,6.33 C14.7999983,6.33 14.563334,6.22500105 14.43,6.015 C14.296666,5.80499895 14.23,5.4866688 14.23,5.06 L14.23,2.14 L12.81,2.14 L12.81,5.32 C12.81,5.64 12.838333,5.93166535 12.895,6.195 C12.9516669,6.45833465 13.0499993,6.68166575 13.19,6.865 C13.3300007,7.04833425 13.5216654,7.1899995 13.765,7.29 C14.0083345,7.3900005 14.3199981,7.44 14.7,7.44 C15.0000015,7.44 15.2933319,7.373334 15.58,7.24 C15.8666681,7.106666 16.0999991,6.8900015 16.28,6.59 L16.31,6.59 L16.31,7.31 L17.66,7.31 Z M20.54,2.14 L20.54,0.59 L19.12,0.59 L19.12,2.14 L18.26,2.14 L18.26,3.09 L19.12,3.09 L19.12,6.14 C19.12,6.4000013 19.1633329,6.6099992 19.25,6.77 C19.3366671,6.9300008 19.4549992,7.0533329 19.605,7.14 C19.7550007,7.2266671 19.9283323,7.28499985 20.125,7.315 C20.3216676,7.34500015 20.5299989,7.36 20.75,7.36 C20.8900007,7.36 21.0333326,7.3566667 21.18,7.35 C21.3266674,7.3433333 21.4599994,7.3300001 21.58,7.31 L21.58,6.21 C21.513333,6.2233334 21.4433337,6.2333333 21.37,6.24 C21.2966663,6.2466667 21.2200004,6.25 21.14,6.25 C20.8999988,6.25 20.7400004,6.2100004 20.66,6.13 C20.5799996,6.0499996 20.54,5.8900012 20.54,5.65 L20.54,3.09 L21.58,3.09 L21.58,2.14 L20.54,2.14 Z M25.74,4.17 L23.43,4.17 C23.4366667,4.07 23.4583331,3.9566673 23.495,3.83 C23.5316668,3.7033327 23.5949995,3.5833339 23.685,3.47 C23.7750004,3.3566661 23.8949992,3.26166705 24.045,3.185 C24.1950007,3.10833295 24.3833322,3.07 24.61,3.07 C24.9566684,3.07 25.2149991,3.1633324 25.385,3.35 C25.5550008,3.5366676 25.673333,3.8099982 25.74,4.17 Z M23.43,5.07 L27.16,5.07 C27.1866668,4.669998 27.1533338,4.2866685 27.06,3.92 C26.9666662,3.5533315 26.815001,3.2266681 26.605,2.94 C26.3949989,2.6533319 26.1266683,2.42500085 25.8,2.255 C25.4733317,2.08499915 25.0900022,2 24.65,2 C24.2566647,2 23.8983349,2.0699993 23.575,2.21 C23.251665,2.3500007 22.9733345,2.54166545 22.74,2.785 C22.5066655,3.02833455 22.3266673,3.316665 22.2,3.65 C22.0733327,3.983335 22.01,4.3433314 22.01,4.73 C22.01,5.130002 22.071666,5.496665 22.195,5.83 C22.3183339,6.163335 22.4933322,6.4499988 22.72,6.69 C22.9466678,6.9300012 23.2233317,7.11499935 23.55,7.245 C23.8766683,7.37500065 24.2433313,7.44 24.65,7.44 C25.2366696,7.44 25.7366646,7.306668 26.15,7.04 C26.5633354,6.773332 26.869999,6.3300031 27.07,5.71 L25.82,5.71 C25.7733331,5.8700008 25.6466677,6.02166595 25.44,6.165 C25.2333323,6.30833405 24.9866681,6.38 24.7,6.38 C24.299998,6.38 23.9933344,6.2766677 23.78,6.07 C23.5666656,5.8633323 23.4500001,5.5300023 23.43,5.07 Z M28,2.14 L28,7.31 L29.42,7.31 L29.42,4.6 C29.42,4.0733307 29.5066658,3.69500115 29.68,3.465 C29.8533342,3.23499885 30.1333314,3.12 30.52,3.12 C30.8600017,3.12 31.096666,3.22499895 31.23,3.435 C31.363334,3.64500105 31.43,3.9633312 31.43,4.39 L31.43,7.31 L32.85,7.31 L32.85,4.13 C32.85,3.8099984 32.8216669,3.51833465 32.765,3.255 C32.708333,2.99166535 32.6100007,2.76833425 32.47,2.585 C32.3299993,2.40166575 32.1383345,2.25833385 31.895,2.155 C31.6516654,2.05166615 31.3400019,2 30.96,2 C30.6599985,2 30.3666681,2.06833265 30.08,2.205 C29.7933319,2.34166735 29.5600009,2.5599985 29.38,2.86 L29.35,2.86 L29.35,2.14 L28,2.14 Z M35.48,1.34 L35.48,0.17 L34.06,0.17 L34.06,1.34 L35.48,1.34 Z M33.21,7.91 L33.21,9.08 C33.343334,9.1066668 33.4933325,9.12 33.66,9.12 C34.0200018,9.12 34.3166655,9.08833365 34.55,9.025 C34.7833345,8.96166635 34.9683326,8.86500065 35.105,8.735 C35.2416673,8.60499935 35.338333,8.4433343 35.395,8.25 C35.4516669,8.0566657 35.48,7.826668 35.48,7.56 L35.48,2.14 L34.06,2.14 L34.06,7.49 C34.06,7.6833343 34.0050005,7.80833305 33.895,7.865 C33.7849994,7.92166695 33.6566674,7.95 33.51,7.95 C33.3833327,7.95 33.2833337,7.9366668 33.21,7.91 Z M36.65,3.73 C36.6700001,3.396665 36.7533326,3.1200011 36.9,2.9 C37.0466674,2.6799989 37.2333322,2.503334 37.46,2.37 C37.6866678,2.236666 37.9416652,2.14166695 38.225,2.085 C38.5083347,2.02833305 38.7933319,2 39.08,2 C39.3400013,2 39.603332,2.01833315 39.87,2.055 C40.136668,2.09166685 40.3799989,2.1633328 40.6,2.27 C40.8200011,2.3766672 40.9999993,2.52499905 41.14,2.715 C41.2800007,2.90500095 41.35,3.1566651 41.35,3.47 L41.35,6.16 C41.35,6.3933345 41.3633332,6.6166656 41.39,6.83 C41.4166668,7.0433344 41.463333,7.2033328 41.53,7.31 L40.09,7.31 C40.0633332,7.2299996 40.0416667,7.14833375 40.025,7.065 C40.0083332,6.98166625 39.9966667,6.8966671 39.99,6.81 C39.7633322,7.0433345 39.4966682,7.2066662 39.19,7.3 C38.8833318,7.3933338 38.5700016,7.44 38.25,7.44 C38.0033321,7.44 37.7733344,7.4100003 37.56,7.35 C37.3466656,7.2899997 37.1600008,7.1966673 37,7.07 C36.8399992,6.9433327 36.7150004,6.7833343 36.625,6.59 C36.5349995,6.3966657 36.49,6.166668 36.49,5.9 C36.49,5.6066652 36.5416661,5.36500095 36.645,5.175 C36.7483338,4.98499905 36.8816658,4.8333339 37.045,4.72 C37.2083341,4.6066661 37.3949989,4.52166695 37.605,4.465 C37.815001,4.40833305 38.0266656,4.3633335 38.24,4.33 C38.4533344,4.2966665 38.6633323,4.2700001 38.87,4.25 C39.0766677,4.2299999 39.2599992,4.2000002 39.42,4.16 C39.5800008,4.1199998 39.7066662,4.06166705 39.8,3.985 C39.8933338,3.90833295 39.9366667,3.7966674 39.93,3.65 C39.93,3.4966659 39.9050002,3.37500045 39.855,3.285 C39.8049997,3.19499955 39.7383337,3.12500025 39.655,3.075 C39.5716662,3.02499975 39.4750005,2.99166675 39.365,2.975 C39.2549994,2.95833325 39.1366673,2.95 39.01,2.95 C38.7299986,2.95 38.5100008,3.0099994 38.35,3.13 C38.1899992,3.2500006 38.0966668,3.4499986 38.07,3.73 L36.65,3.73 Z M39.93,4.78 C39.8699997,4.8333336 39.7950004,4.87499985 39.705,4.905 C39.6149995,4.93500015 39.5183338,4.9599999 39.415,4.98 L39.25625,5.00750001 L39.25625,5.00750001 L39.09,5.03 C38.9766661,5.0433334 38.8633339,5.0599999 38.75,5.08 C38.6433328,5.1000001 38.5383338,5.1266665 38.435,5.16 C38.3316661,5.1933335 38.241667,5.23833305 38.165,5.295 C38.0883329,5.35166695 38.0266669,5.4233329 37.98,5.51 C37.9333331,5.5966671 37.91,5.706666 37.91,5.84 C37.91,5.9666673 37.9333331,6.0733329 37.98,6.16 C38.0266669,6.2466671 38.0899996,6.31499975 38.17,6.365 C38.2500004,6.41500025 38.3433328,6.4499999 38.45,6.47 C38.5566672,6.4900001 38.6666661,6.5 38.78,6.5 C39.0600014,6.5 39.2766659,6.4533338 39.43,6.36 C39.5833341,6.2666662 39.6966663,6.15500065 39.77,6.025 C39.8433337,5.89499935 39.8883332,5.763334 39.905,5.63 L39.9272222,5.39888892 C39.9290741,5.3662964 39.93,5.3366668 39.93,5.31 L39.93,4.78 Z M44.17,5.99 L44.17,1.49 L45.29,1.49 C45.6766686,1.49 46.0016653,1.54499945 46.265,1.655 C46.5283346,1.76500055 46.7399992,1.9233323 46.9,2.13 C47.0600008,2.3366677 47.1749996,2.58499855 47.245,2.875 C47.3150003,3.16500145 47.35,3.49 47.35,3.85 C47.35,4.2433353 47.3000005,4.5766653 47.2,4.85 C47.0999995,5.1233347 46.9666675,5.34499915 46.8,5.515 C46.6333325,5.68500085 46.4433344,5.8066663 46.23,5.88 C46.0166656,5.9533337 45.7966678,5.99 45.57,5.99 L44.17,5.99 Z M42.6,0.17 L42.6,7.31 L45.68,7.31 C46.2266694,7.31 46.7016646,7.21833425 47.105,7.035 C47.5083353,6.85166575 47.8449986,6.6000016 48.115,6.28 C48.3850013,5.9599984 48.586666,5.5800022 48.72,5.14 C48.853334,4.6999978 48.92,4.2200026 48.92,3.7 C48.92,3.1066637 48.8383341,2.5900022 48.675,2.15 C48.5116658,1.7099978 48.2850014,1.3433348 47.995,1.05 C47.7049985,0.7566652 47.3616686,0.5366674 46.965,0.39 C46.5683313,0.2433326 46.1400023,0.17 45.68,0.17 L42.6,0.17 Z M51.08,4.94 L49.56,4.94 C49.5533333,5.3800022 49.6333325,5.7599984 49.8,6.08 C49.9666675,6.4000016 50.1916652,6.6633323 50.475,6.87 C50.7583347,7.0766677 51.0849981,7.22833285 51.455,7.325 C51.8250018,7.42166715 52.2066647,7.47 52.6,7.47 C53.0866691,7.47 53.5149981,7.4133339 53.885,7.3 C54.2550018,7.1866661 54.5649987,7.02833435 54.815,6.825 C55.0650012,6.62166565 55.2533327,6.3800014 55.38,6.1 C55.5066673,5.8199986 55.57,5.5166683 55.57,5.19 C55.57,4.789998 55.4850008,4.46166795 55.315,4.205 C55.1449991,3.94833205 54.9433345,3.7433341 54.71,3.59 C54.4766655,3.4366659 54.2416678,3.32500035 54.005,3.255 L53.7457997,3.18139989 C53.6285999,3.14979994 53.5300004,3.12600008 53.45,3.11 L52.365,2.83 L52.365,2.83 C52.088332,2.7566663 51.8716674,2.6833337 51.715,2.61 C51.5583325,2.5366663 51.4533336,2.4566671 51.4,2.37 C51.3466664,2.2833329 51.32,2.1700007 51.32,2.03 C51.32,1.8766659 51.353333,1.7500005 51.42,1.65 C51.486667,1.5499995 51.5716662,1.466667 51.675,1.4 C51.7783338,1.333333 51.8933327,1.2866668 52.02,1.26 C52.1466673,1.2333332 52.2733327,1.22 52.4,1.22 C52.5933343,1.22 52.7716658,1.2366665 52.935,1.27 C53.0983341,1.3033335 53.2433327,1.3599996 53.37,1.44 C53.4966673,1.5200004 53.5983329,1.6299993 53.675,1.77 C53.751667,1.9100007 53.7966666,2.0866656 53.81,2.3 L55.33,2.3 C55.33,1.8866646 55.2516674,1.53500145 55.095,1.245 C54.9383325,0.95499855 54.726668,0.7166676 54.46,0.53 C54.193332,0.3433324 53.888335,0.20833375 53.545,0.125 C53.2016649,0.04166625 52.8433352,0 52.47,0 C52.1499984,0 51.8300016,0.0433329 51.51,0.13 C51.1899984,0.2166671 50.9033346,0.3499991 50.65,0.53 C50.3966654,0.7100009 50.1916674,0.93499865 50.035,1.205 C49.8783325,1.47500135 49.8,1.7933315 49.8,2.16 C49.8,2.4866683 49.861666,2.76499885 49.985,2.995 C50.1083339,3.22500115 50.269999,3.4166659 50.47,3.57 C50.670001,3.7233341 50.8966654,3.84833285 51.15,3.945 C51.3188897,4.00944477 51.4907407,4.06722229 51.6655552,4.11833329 L51.93,4.19 C52.1900013,4.2633337 52.4466654,4.3299997 52.7,4.39 C52.9533346,4.4500003 53.179999,4.5199996 53.38,4.6 C53.580001,4.6800004 53.741666,4.7799994 53.865,4.9 C53.9883339,5.0200006 54.05,5.1766657 54.05,5.37 C54.05,5.5500009 54.0033338,5.69833275 53.91,5.815 C53.8166662,5.93166725 53.7000007,6.023333 53.56,6.09 C53.4199993,6.156667 53.2700008,6.20166655 53.11,6.225 C52.9499992,6.24833345 52.8000007,6.26 52.66,6.26 C52.4533323,6.26 52.2533343,6.23500025 52.06,6.185 C51.8666657,6.13499975 51.698334,6.05833385 51.555,5.955 C51.4116659,5.85166615 51.2966671,5.7166675 51.21,5.55 C51.1233329,5.3833325 51.08,5.1800012 51.08,4.94 Z" id="KautenjaDSP" fill-rule="nonzero"></path>
                    <path d="M59.72,0.17 C60.1666689,0.17 60.5466651,0.23499935 60.86,0.365 C61.1733349,0.49500065 61.4283323,0.6666656 61.625,0.88 C61.8216676,1.0933344 61.9649995,1.3366653 62.055,1.61 C62.1450004,1.8833347 62.19,2.1666652 62.19,2.46 C62.19,2.7466681 62.1450004,3.02833195 62.055,3.305 C61.9649995,3.58166805 61.8216676,3.8266656 61.625,4.04 C61.4283323,4.2533344 61.1733349,4.42499935 60.86,4.555 C60.5466651,4.68500065 60.1666689,4.75 59.72,4.75 L58.07,4.75 L58.07,7.31 L56.5,7.31 L56.5,0.17 L59.72,0.17 Z M59.29,1.39 L58.07,1.39 L58.07,3.53 L59.29,3.53 C59.4700009,3.53 59.6433325,3.5166668 59.81,3.49 C59.9766675,3.4633332 60.1233327,3.41166705 60.25,3.335 C60.3766673,3.25833295 60.478333,3.1500007 60.555,3.01 C60.631667,2.8699993 60.67,2.6866678 60.67,2.46 C60.67,2.2333322 60.631667,2.0500007 60.555,1.91 C60.478333,1.7699993 60.3766673,1.66166705 60.25,1.585 C60.1233327,1.50833295 59.9766675,1.4566668 59.81,1.43 C59.6433325,1.4033332 59.4700009,1.39 59.29,1.39 L59.29,1.39 Z" id="Combined-Shape" fill-rule="nonzero"></path>
                </g>
            </g>
            <path d="M69.531,4.4 L68.541,4.4 L63.591,15.992 L58.659,4.4 L57.615,4.4 L63.159,17.09 L63.987,17.09 L69.531,4.4 Z M82.455,17 L78.297,11.618 C80.3477586,11.339931 81.8783365,10.2060809 81.9814551,8.23265087 L81.987,7.982 C81.987,5.876 80.205,4.4 77.487,4.4 L72.195,4.4 L72.195,17 L73.131,17 L73.131,11.78 L77.253,11.78 L81.267,17 L82.455,17 Z M81.051,8.054 C81.051,9.872 79.485,10.934 77.379,10.934 L73.131,10.934 L73.131,5.264 L77.433,5.264 C79.6401724,5.264 80.9580036,6.2540214 81.046264,7.84523055 L81.051,8.054 Z M95.919,15.02 L95.289,14.408 C94.011,15.668 92.769,16.37 90.951,16.37 C88.0183171,16.37 85.7366752,14.005693 85.6271202,10.9318433 L85.623,10.664 C85.623,7.496 87.909,5.03 90.933,5.03 C92.823,5.03 94.083,5.822 95.181,6.884 L95.847,6.2 C94.551,5.012 93.201,4.184 90.951,4.184 C87.3940435,4.184 84.7672854,7.00904726 84.6547596,10.4684569 L84.651,10.736 C84.651,14.354 87.315,17.216 90.915,17.216 C93.147,17.216 94.587,16.334 95.919,15.02 Z M106.539,5.642 C105.441,4.742 104.343,4.184 102.903,4.184 C99.771,4.184 97.773,7.208 97.773,11.024 C97.773,13.652 98.331,14.912 99.375,15.956 C100.131,16.712 101.283,17.216 102.579,17.216 C105.063,17.216 106.989,15.47 106.989,13.058 C106.989,10.79 104.973,9.224 102.651,9.224 C100.599,9.224 99.429,10.34 98.709,11.564 C98.619,7.712 100.275,5.03 102.831,5.03 C104.019,5.03 104.973,5.498 105.945,6.362 L106.539,5.642 Z M106.017,13.094 C106.017,14.894 104.685,16.37 102.651,16.37 C100.617,16.37 99.087,15.002 99.087,13.184 C99.087,11.618 100.527,10.052 102.597,10.052 C104.595,10.052 106.017,11.348 106.017,13.094 Z" id="VRC6" fill="#B3B3B3" fill-rule="nonzero"></path>
        </g>
        <g id="Saw" transform="translate(21.000000, 248.000000)">
            <rect id="bg" fill="#FF8079" x="0" y="2.84217094e-14" width="124" height="105" rx="5"></rect>
            <g id="Saw-Graphic" transform="translate(6.000000, 81.000000)" stroke="#1A1A1A" stroke-linecap="round" stroke-linejoin="round" stroke-width="3">
                <g id="1">
                    <path d="M0.5,17.5 L6.5,12.5" id="Line"></path>
                    <path d="M12,12 L18,7" id="Line-Copy"></path>
                    <path d="M23,6 L29,1" id="Line-Copy-2"></path>
                    <path d="M7.5,12.5 L11.5,12.5" id="Line-2"></path>
                    <path d="M29.5,0.5 L33.5,0.5" id="Line-2-Copy-2"></path>
                    <path d="M36.5,16.5 L33.5,0.5" id="Line-2-Copy-3"></path>
                    <path d="M18.5,6.5 L22.5,6.5" id="Line-2-Copy"></path>
                </g>
                <g id="2" transform="translate(36.000000, 0.000000)">
                    <path d="M0.5,17.5 L6.5,12.5" id="Line"></path>
                    <path d="M12,12 L18,7" id="Line-Copy"></path>
                    <path d="M23,6 L29,1" id="Line-Copy-2"></path>
                    <path d="M7.5,12.5 L11.5,12.5" id="Line-2"></path>
                    <path d="M29.5,0.5 L33.5,0.5" id="Line-2-Copy-2"></path>
                    <path d="M36.5,16.5 L33.5,0.5" id="Line-2-Copy-3"></path>
                    <path d="M18.5,6.5 L22.5,6.5" id="Line-2-Copy"></path>
                </g>
            </g>
            <g id="Out" transform="translate(89.000000, 62.000000)">
                <rect id="Rectangle" fill="#1A1A1A" x="0" y="0" width="32" height="40" rx="5"></rect>
                <path d="M8.74902344,10 C7.67479932,10 7.13769531,9.462896 7.13769531,8.38867188 L7.13769531,6.77734375 C7.13769531,5.70311963 7.67479932,5.16601562 8.74902344,5.16601562 L10.8974609,5.16601562 C11.9716851,5.16601562 12.5087891,5.70311963 12.5087891,6.77734375 L12.5087891,8.38867188 C12.5087891,9.462896 12.0612024,10 11.1660156,10 L8.74902344,10 Z M8.21191406,8.38867188 C8.21191406,8.74674658 8.39094873,8.92578125 8.74902344,8.92578125 L10.8974609,8.92578125 C11.2555356,8.92578125 11.4345703,8.74674658 11.4345703,8.38867188 L11.4345703,6.77734375 C11.4345703,6.41926904 11.2555356,6.24023438 10.8974609,6.24023438 L8.74902344,6.24023438 C8.39094873,6.24023438 8.21191406,6.41926904 8.21191406,6.77734375 L8.21191406,8.38867188 Z M13.0458984,5.16601562 L13.0458984,8.38867188 C13.0458984,9.462896 13.5830024,10 14.6572266,10 L16.8056641,10 C17.8798882,10 18.4169922,9.462896 18.4169922,8.38867188 L18.4169922,5.16601562 L17.3427734,5.16601562 L17.3427734,8.38867188 C17.3427734,8.74674658 17.1637388,8.92578125 16.8056641,8.92578125 L14.6572266,8.92578125 C14.2991519,8.92578125 14.1201172,8.74674658 14.1201172,8.38867188 L14.1201172,5.16601562 L13.0458984,5.16601562 Z M18.9541016,5.16601562 L24.3251953,5.16601562 L24.3251953,6.24023438 L22.1767578,6.24023438 L22.1767578,10 L21.1025391,10 L21.1025391,6.24023438 L18.9541016,6.24023438 L18.9541016,5.16601562 Z" id="OUT" fill="#FF8079" fill-rule="nonzero"></path>
            </g>
            <g id="Lvl" transform="translate(88.000000, 7.000000)" fill="#1A1A1A" fill-rule="nonzero">
                <path d="M31.4425,20 L31.4425,19.02 L28.9995,19.02 L28.9995,15.1 L27.9215,15.1 L27.9215,20 L31.4425,20 Z M31.957,21.1 L30.795,21.1 L29.514,24.551 L28.233,21.1 L27.043,21.1 L29.024,26.035 L29.976,26.035 L31.957,21.1 Z M31.4425,32 L27.9215,32 L27.9215,27.1 L28.9995,27.1 L28.9995,31.02 L31.4425,31.02 L31.4425,32 Z" id="LVL"></path>
            </g>
            <g id="Freq" transform="translate(0.000000, 18.000000)" fill="#1A1A1A" fill-rule="nonzero">
                <path d="M49.4023438,54 L49.4023438,48.7265625 L54.6757812,48.7265625 L54.6757812,49.8984375 L50.5742188,49.8984375 L50.5742188,50.7773438 L53.5039062,50.7773438 L53.5039062,51.9492188 L50.5742188,51.9492188 L50.5742188,54 L49.4023438,54 Z M56.4335938,50.7773438 L59.9492188,50.7773438 L59.9492188,49.8984375 L56.4335938,49.8984375 L56.4335938,50.7773438 Z M56.4335938,51.9492188 L56.4335938,54 L55.2617188,54 L55.2617188,48.7265625 L59.3632812,48.7265625 C60.5351621,48.7265625 61.1210938,49.2617134 61.1210938,50.3320312 C61.1210938,50.8398463 61.0371102,51.2128894 60.8691406,51.4511719 C61.0371102,51.728517 61.1210938,52.0898415 61.1210938,52.5351562 L61.1210938,54 L59.9492188,54 L59.9492188,52.5351562 C59.9492188,52.1445293 59.7539082,51.9492188 59.3632812,51.9492188 L56.4335938,51.9492188 Z M67.5664062,54 L63.4648438,54 C62.2929629,54 61.7070312,53.4140684 61.7070312,52.2421875 L61.7070312,48.7265625 L67.5664062,48.7265625 L67.5664062,49.8984375 L62.8789062,49.8984375 L62.8789062,50.7773438 L67.5664062,50.7773438 L67.5664062,51.9492188 L62.8789062,51.9492188 L62.8789062,52.2421875 C62.8789062,52.6328145 63.0742168,52.828125 63.4648438,52.828125 L67.5664062,52.828125 L67.5664062,54 Z M72.2539062,52.828125 C72.6445332,52.828125 72.8398438,52.6328145 72.8398438,52.2421875 L72.8398438,50.484375 C72.8398438,50.093748 72.6445332,49.8984375 72.2539062,49.8984375 L69.9101562,49.8984375 C69.5195293,49.8984375 69.3242188,50.093748 69.3242188,50.484375 L69.3242188,52.2421875 C69.3242188,52.6328145 69.5195293,52.828125 69.9101562,52.828125 L72.2539062,52.828125 Z M69.9101562,54 C68.7382754,54 68.1523438,53.4140684 68.1523438,52.2421875 L68.1523438,50.484375 C68.1523438,49.3124941 68.7382754,48.7265625 69.9101562,48.7265625 L72.2539062,48.7265625 C73.4257871,48.7265625 74.0117188,49.3124941 74.0117188,50.484375 L74.0117188,54 L69.9101562,54 Z" id="FREQ"></path>
            </g>
            <g id="VOCT" transform="translate(3.000000, 37.000000)" fill="#1A1A1A" fill-rule="nonzero">
                <path d="M2.84082031,6.16601562 L2.84082031,11 L6.60058594,11 C7.67481006,11 8.21191406,10.462896 8.21191406,9.38867188 L8.21191406,6.16601562 L7.13769531,6.16601562 L7.13769531,9.38867188 C7.13769531,9.74674658 6.95866064,9.92578125 6.60058594,9.92578125 L3.91503906,9.92578125 L3.91503906,6.16601562 L2.84082031,6.16601562 Z M8.74902344,11 L9.82324219,6.16601562 L10.8974609,6.16601562 L9.82324219,11 L8.74902344,11 Z M13.0458984,11 C11.9716743,11 11.4345703,10.462896 11.4345703,9.38867188 L11.4345703,7.77734375 C11.4345703,6.70311963 11.9716743,6.16601562 13.0458984,6.16601562 L15.1943359,6.16601562 C16.2685601,6.16601562 16.8056641,6.70311963 16.8056641,7.77734375 L16.8056641,9.38867188 C16.8056641,10.462896 16.3580774,11 15.4628906,11 L13.0458984,11 Z M12.5087891,9.38867188 C12.5087891,9.74674658 12.6878237,9.92578125 13.0458984,9.92578125 L15.1943359,9.92578125 C15.5524106,9.92578125 15.7314453,9.74674658 15.7314453,9.38867188 L15.7314453,7.77734375 C15.7314453,7.41926904 15.5524106,7.24023438 15.1943359,7.24023438 L13.0458984,7.24023438 C12.6878237,7.24023438 12.5087891,7.41926904 12.5087891,7.77734375 L12.5087891,9.38867188 Z M22.7138672,11 L18.9541016,11 C17.8798774,11 17.3427734,10.462896 17.3427734,9.38867188 L17.3427734,7.77734375 C17.3427734,6.70311963 17.8798774,6.16601562 18.9541016,6.16601562 L22.7138672,6.16601562 L22.7138672,7.24023438 L18.9541016,7.24023438 C18.5960269,7.24023438 18.4169922,7.41926904 18.4169922,7.77734375 L18.4169922,9.38867188 C18.4169922,9.74674658 18.5960269,9.92578125 18.9541016,9.92578125 L22.7138672,9.92578125 L22.7138672,11 Z M23.2509766,6.16601562 L28.6220703,6.16601562 L28.6220703,7.24023438 L26.4736328,7.24023438 L26.4736328,11 L25.3994141,11 L25.3994141,7.24023438 L23.2509766,7.24023438 L23.2509766,6.16601562 Z" id="V/OCT"></path>
            </g>
            <g id="Mod" transform="translate(2.000000, 10.000000)" fill="#1A1A1A" fill-rule="nonzero">
                <path d="M6.95,8 L6.95,3.1 L5.788,3.1 L4.5,5.172 L3.212,3.1 L2.05,3.1 L2.05,8 L3.107,8 L3.107,4.822 L4.472,6.894 L4.5,6.894 L5.879,4.801 L5.879,8 L6.95,8 Z M7.104,11.55 L7.104,11.536 C7.104,10.143 6.019,9.016 4.507,9.016 C3.05315385,9.016 1.98114941,10.0709186 1.90083819,11.3904382 L1.896,11.564 C1.896,12.957 2.981,14.084 4.493,14.084 C6.005,14.084 7.104,12.943 7.104,11.55 Z M5.977,11.564 C5.977,12.404 5.375,13.09 4.507,13.09 C3.68722222,13.09 3.09222222,12.4656173 3.02864129,11.6886077 L3.023,11.536 C3.023,10.696 3.625,10.01 4.493,10.01 C5.31277778,10.01 5.90777778,10.6343827 5.97135871,11.4113923 L5.977,11.564 Z M6.866,17.55 L6.866,17.536 C6.866,16.157 5.802,15.1 4.262,15.1 L2.351,15.1 L2.351,20 L4.262,20 C5.802,20 6.866,18.929 6.866,17.55 Z M5.739,17.564 C5.739,18.432 5.144,19.027 4.262,19.027 L3.429,19.027 L3.429,16.073 L4.262,16.073 C5.09211765,16.073 5.66800692,16.6124602 5.73288622,17.3995834 L5.739,17.564 Z" id="MOD"></path>
            </g>
            <g id="Header" fill="#1A1A1A" fill-rule="nonzero">
                <path d="M48.71875,9 L54.1875,9 C55.7500078,9 56.53125,8.28386133 56.53125,6.8515625 C56.53125,5.41926367 55.7500078,4.703125 54.1875,4.703125 L50.28125,4.703125 L50.28125,3.53125 L56.53125,3.53125 L56.53125,1.96875 L51.0625,1.96875 C49.4999922,1.96875 48.71875,2.69530523 48.71875,4.1484375 C48.71875,5.55990289 49.4999922,6.265625 51.0625,6.265625 L54.96875,6.265625 L54.96875,7.4375 L48.71875,7.4375 L48.71875,9 Z M63.5625,5.484375 L63.5625,4.3125 C63.5625,3.79166406 63.3020859,3.53125 62.78125,3.53125 L59.65625,3.53125 C59.1354141,3.53125 58.875,3.79166406 58.875,4.3125 L58.875,5.484375 L63.5625,5.484375 Z M58.875,7.046875 L58.875,9 L57.3125,9 L57.3125,4.3125 C57.3125,2.74999219 58.0937422,1.96875 59.65625,1.96875 L62.78125,1.96875 C64.3437578,1.96875 65.125,2.74999219 65.125,4.3125 L65.125,9 L63.5625,9 L63.5625,7.046875 L58.875,7.046875 Z M65.90625,1.96875 L67.46875,1.96875 L67.46875,6.65625 C67.46875,7.17708594 67.7291641,7.4375 68.25,7.4375 L69.421875,7.4375 L69.421875,1.96875 L70.984375,1.96875 L70.984375,7.4375 L72.9375,7.4375 L72.9375,1.96875 L74.5,1.96875 L74.5,9 L68.25,9 C66.6874922,9 65.90625,8.21875781 65.90625,6.65625 L65.90625,1.96875 Z" id="SAW"></path>
            </g>
        </g>
        <g id="Pulse2" transform="translate(21.000000, 138.000000)">
            <rect id="bg" fill="#5B986E" x="0" y="-2.84217094e-14" width="124" height="105" rx="5"></rect>
            <g id="Out" transform="translate(89.000000, 62.000000)">
                <rect id="Rectangle" fill="#1A1A1A" x="0" y="0" width="32" height="40" rx="5"></rect>
                <path d="M8.74902344,10 C7.67479932,10 7.13769531,9.462896 7.13769531,8.38867188 L7.13769531,6.77734375 C7.13769531,5.70311963 7.67479932,5.16601562 8.74902344,5.16601562 L10.8974609,5.16601562 C11.9716851,5.16601562 12.5087891,5.70311963 12.5087891,6.77734375 L12.5087891,8.38867188 C12.5087891,9.462896 12.0612024,10 11.1660156,10 L8.74902344,10 Z M8.21191406,8.38867188 C8.21191406,8.74674658 8.39094873,8.92578125 8.74902344,8.92578125 L10.8974609,8.92578125 C11.2555356,8.92578125 11.4345703,8.74674658 11.4345703,8.38867188 L11.4345703,6.77734375 C11.4345703,6.41926904 11.2555356,6.24023438 10.8974609,6.24023438 L8.74902344,6.24023438 C8.39094873,6.24023438 8.21191406,6.41926904 8.21191406,6.77734375 L8.21191406,8.38867188 Z M13.0458984,5.16601562 L13.0458984,8.38867188 C13.0458984,9.462896 13.5830024,10 14.6572266,10 L16.8056641,10 C17.8798882,10 18.4169922,9.462896 18.4169922,8.38867188 L18.4169922,5.16601562 L17.3427734,5.16601562 L17.3427734,8.38867188 C17.3427734,8.74674658 17.1637388,8.92578125 16.8056641,8.92578125 L14.6572266,8.92578125 C14.2991519,8.92578125 14.1201172,8.74674658 14.1201172,8.38867188 L14.1201172,5.16601562 L13.0458984,5.16601562 Z M18.9541016,5.16601562 L24.3251953,5.16601562 L24.3251953,6.24023438 L22.1767578,6.24023438 L22.1767578,10 L21.1025391,10 L21.1025391,6.24023438 L18.9541016,6.24023438 L18.9541016,5.16601562 Z" id="OUT" fill="#5B986E" fill-rule="nonzero"></path>
            </g>
            <g id="Lvl" transform="translate(88.000000, 8.000000)" fill="#1A1A1A" fill-rule="nonzero">
                <path d="M31.4425,20 L31.4425,19.02 L28.9995,19.02 L28.9995,15.1 L27.9215,15.1 L27.9215,20 L31.4425,20 Z M31.957,21.1 L30.795,21.1 L29.514,24.551 L28.233,21.1 L27.043,21.1 L29.024,26.035 L29.976,26.035 L31.957,21.1 Z M31.4425,32 L27.9215,32 L27.9215,27.1 L28.9995,27.1 L28.9995,31.02 L31.4425,31.02 L31.4425,32 Z" id="LVL"></path>
            </g>
            <g id="Freq" transform="translate(0.000000, 13.000000)" fill="#1A1A1A" fill-rule="nonzero">
                <path d="M49.4023438,54 L49.4023438,48.7265625 L54.6757812,48.7265625 L54.6757812,49.8984375 L50.5742188,49.8984375 L50.5742188,50.7773438 L53.5039062,50.7773438 L53.5039062,51.9492188 L50.5742188,51.9492188 L50.5742188,54 L49.4023438,54 Z M56.4335938,50.7773438 L59.9492188,50.7773438 L59.9492188,49.8984375 L56.4335938,49.8984375 L56.4335938,50.7773438 Z M56.4335938,51.9492188 L56.4335938,54 L55.2617188,54 L55.2617188,48.7265625 L59.3632812,48.7265625 C60.5351621,48.7265625 61.1210938,49.2617134 61.1210938,50.3320312 C61.1210938,50.8398463 61.0371102,51.2128894 60.8691406,51.4511719 C61.0371102,51.728517 61.1210938,52.0898415 61.1210938,52.5351562 L61.1210938,54 L59.9492188,54 L59.9492188,52.5351562 C59.9492188,52.1445293 59.7539082,51.9492188 59.3632812,51.9492188 L56.4335938,51.9492188 Z M67.5664062,54 L63.4648438,54 C62.2929629,54 61.7070312,53.4140684 61.7070312,52.2421875 L61.7070312,48.7265625 L67.5664062,48.7265625 L67.5664062,49.8984375 L62.8789062,49.8984375 L62.8789062,50.7773438 L67.5664062,50.7773438 L67.5664062,51.9492188 L62.8789062,51.9492188 L62.8789062,52.2421875 C62.8789062,52.6328145 63.0742168,52.828125 63.4648438,52.828125 L67.5664062,52.828125 L67.5664062,54 Z M72.2539062,52.828125 C72.6445332,52.828125 72.8398438,52.6328145 72.8398438,52.2421875 L72.8398438,50.484375 C72.8398438,50.093748 72.6445332,49.8984375 72.2539062,49.8984375 L69.9101562,49.8984375 C69.5195293,49.8984375 69.3242188,50.093748 69.3242188,50.484375 L69.3242188,52.2421875 C69.3242188,52.6328145 69.5195293,52.828125 69.9101562,52.828125 L72.2539062,52.828125 Z M69.9101562,54 C68.7382754,54 68.1523438,53.4140684 68.1523438,52.2421875 L68.1523438,50.484375 C68.1523438,49.3124941 68.7382754,48.7265625 69.9101562,48.7265625 L72.2539062,48.7265625 C73.4257871,48.7265625 74.0117188,49.3124941 74.0117188,50.484375 L74.0117188,54 L69.9101562,54 Z" id="FREQ"></path>
            </g>
            <g id="PW" transform="translate(16.000000, 73.000000)" fill="#1A1A1A" fill-rule="nonzero">
                <path d="M22.7185,2.808 L22.7185,2.794 C22.7185,1.793 22.0115,1.1 20.8425,1.1 L18.8405,1.1 L18.8405,6 L19.9185,6 L19.9185,4.53 L20.7375,4.53 C21.8365,4.53 22.7185,3.942 22.7185,2.808 Z M21.6265,2.829 C21.6265,3.249 21.3115,3.571 20.7725,3.571 L19.9185,3.571 L19.9185,2.073 L20.7515,2.073 C21.2490385,2.073 21.5736065,2.29368639 21.620596,2.70753072 L21.6265,2.829 Z M30.5375,1.1 L28.8645,6.035 L27.9265,6.035 L26.8205,2.829 L25.7145,6.035 L24.7765,6.035 L23.1035,1.1 L24.2585,1.1 L25.2735,4.418 L26.3725,1.086 L27.2965,1.086 L28.3955,4.418 L29.4105,1.1 L30.5375,1.1 Z"></path>
            </g>
            <g id="VOCT" transform="translate(3.000000, 37.000000)" fill="#1A1A1A" fill-rule="nonzero">
                <path d="M2.84082031,6.16601562 L2.84082031,11 L6.60058594,11 C7.67481006,11 8.21191406,10.462896 8.21191406,9.38867188 L8.21191406,6.16601562 L7.13769531,6.16601562 L7.13769531,9.38867188 C7.13769531,9.74674658 6.95866064,9.92578125 6.60058594,9.92578125 L3.91503906,9.92578125 L3.91503906,6.16601562 L2.84082031,6.16601562 Z M8.74902344,11 L9.82324219,6.16601562 L10.8974609,6.16601562 L9.82324219,11 L8.74902344,11 Z M13.0458984,11 C11.9716743,11 11.4345703,10.462896 11.4345703,9.38867188 L11.4345703,7.77734375 C11.4345703,6.70311963 11.9716743,6.16601562 13.0458984,6.16601562 L15.1943359,6.16601562 C16.2685601,6.16601562 16.8056641,6.70311963 16.8056641,7.77734375 L16.8056641,9.38867188 C16.8056641,10.462896 16.3580774,11 15.4628906,11 L13.0458984,11 Z M12.5087891,9.38867188 C12.5087891,9.74674658 12.6878237,9.92578125 13.0458984,9.92578125 L15.1943359,9.92578125 C15.5524106,9.92578125 15.7314453,9.74674658 15.7314453,9.38867188 L15.7314453,7.77734375 C15.7314453,7.41926904 15.5524106,7.24023438 15.1943359,7.24023438 L13.0458984,7.24023438 C12.6878237,7.24023438 12.5087891,7.41926904 12.5087891,7.77734375 L12.5087891,9.38867188 Z M22.7138672,11 L18.9541016,11 C17.8798774,11 17.3427734,10.462896 17.3427734,9.38867188 L17.3427734,7.77734375 C17.3427734,6.70311963 17.8798774,6.16601562 18.9541016,6.16601562 L22.7138672,6.16601562 L22.7138672,7.24023438 L18.9541016,7.24023438 C18.5960269,7.24023438 18.4169922,7.41926904 18.4169922,7.77734375 L18.4169922,9.38867188 C18.4169922,9.74674658 18.5960269,9.92578125 18.9541016,9.92578125 L22.7138672,9.92578125 L22.7138672,11 Z M23.2509766,6.16601562 L28.6220703,6.16601562 L28.6220703,7.24023438 L26.4736328,7.24023438 L26.4736328,11 L25.3994141,11 L25.3994141,7.24023438 L23.2509766,7.24023438 L23.2509766,6.16601562 Z" id="V/OCT"></path>
            </g>
            <g id="Mod" transform="translate(2.000000, 11.000000)" fill="#1A1A1A" fill-rule="nonzero">
                <path d="M6.95,8 L6.95,3.1 L5.788,3.1 L4.5,5.172 L3.212,3.1 L2.05,3.1 L2.05,8 L3.107,8 L3.107,4.822 L4.472,6.894 L4.5,6.894 L5.879,4.801 L5.879,8 L6.95,8 Z M7.104,11.55 L7.104,11.536 C7.104,10.143 6.019,9.016 4.507,9.016 C3.05315385,9.016 1.98114941,10.0709186 1.90083819,11.3904382 L1.896,11.564 C1.896,12.957 2.981,14.084 4.493,14.084 C6.005,14.084 7.104,12.943 7.104,11.55 Z M5.977,11.564 C5.977,12.404 5.375,13.09 4.507,13.09 C3.68722222,13.09 3.09222222,12.4656173 3.02864129,11.6886077 L3.023,11.536 C3.023,10.696 3.625,10.01 4.493,10.01 C5.31277778,10.01 5.90777778,10.6343827 5.97135871,11.4113923 L5.977,11.564 Z M6.866,17.55 L6.866,17.536 C6.866,16.157 5.802,15.1 4.262,15.1 L2.351,15.1 L2.351,20 L4.262,20 C5.802,20 6.866,18.929 6.866,17.55 Z M5.739,17.564 C5.739,18.432 5.144,19.027 4.262,19.027 L3.429,19.027 L3.429,16.073 L4.262,16.073 C5.09211765,16.073 5.66800692,16.6124602 5.73288622,17.3995834 L5.739,17.564 Z" id="MOD"></path>
            </g>
            <g id="Header" fill="#1A1A1A" fill-rule="nonzero">
                <path d="M40.515625,9 L40.515625,1.96875 L45.984375,1.96875 C47.5468828,1.96875 48.328125,2.68749281 48.328125,4.125 C48.328125,5.55209047 47.5468828,6.265625 45.984375,6.265625 L42.078125,6.265625 L42.078125,9 L40.515625,9 Z M46.765625,4.703125 L46.765625,3.53125 L42.078125,3.53125 L42.078125,4.703125 L46.765625,4.703125 Z M49.109375,1.96875 L49.109375,6.65625 C49.109375,8.21875781 49.8906172,9 51.453125,9 L54.578125,9 C56.1406328,9 56.921875,8.21875781 56.921875,6.65625 L56.921875,1.96875 L55.359375,1.96875 L55.359375,6.65625 C55.359375,7.17708594 55.0989609,7.4375 54.578125,7.4375 L51.453125,7.4375 C50.9322891,7.4375 50.671875,7.17708594 50.671875,6.65625 L50.671875,1.96875 L49.109375,1.96875 Z M57.703125,1.96875 L57.703125,6.65625 C57.703125,8.21875781 58.4843672,9 60.046875,9 L65.515625,9 L65.515625,7.4375 L60.046875,7.4375 C59.5260391,7.4375 59.265625,7.17708594 59.265625,6.65625 L59.265625,1.96875 L57.703125,1.96875 Z M66.296875,9 L71.765625,9 C73.3281328,9 74.109375,8.28386133 74.109375,6.8515625 C74.109375,5.41926367 73.3281328,4.703125 71.765625,4.703125 L67.859375,4.703125 L67.859375,3.53125 L74.109375,3.53125 L74.109375,1.96875 L68.640625,1.96875 C67.0781172,1.96875 66.296875,2.69530523 66.296875,4.1484375 C66.296875,5.55990289 67.0781172,6.265625 68.640625,6.265625 L72.546875,6.265625 L72.546875,7.4375 L66.296875,7.4375 L66.296875,9 Z M82.703125,9 L77.234375,9 C75.6718672,9 74.890625,8.21875781 74.890625,6.65625 L74.890625,1.96875 L82.703125,1.96875 L82.703125,3.53125 L76.453125,3.53125 L76.453125,4.703125 L82.703125,4.703125 L82.703125,6.265625 L76.453125,6.265625 L76.453125,6.65625 C76.453125,7.17708594 76.7135391,7.4375 77.234375,7.4375 L82.703125,7.4375 L82.703125,9 Z" id="PULSE"></path>
            </g>
        </g>
        <g id="Pulse1" transform="translate(21.000000, 28.000000)">
            <rect id="bg" fill="#586AB6" x="0" y="7.10542736e-15" width="124" height="105" rx="5"></rect>
            <g id="Out" transform="translate(89.000000, 62.000000)">
                <rect id="Rectangle" fill="#1A1A1A" x="0" y="0" width="32" height="40" rx="5"></rect>
                <path d="M8.74902344,9 C7.67479932,9 7.13769531,8.462896 7.13769531,7.38867188 L7.13769531,5.77734375 C7.13769531,4.70311963 7.67479932,4.16601562 8.74902344,4.16601562 L10.8974609,4.16601562 C11.9716851,4.16601562 12.5087891,4.70311963 12.5087891,5.77734375 L12.5087891,7.38867188 C12.5087891,8.462896 12.0612024,9 11.1660156,9 L8.74902344,9 Z M8.21191406,7.38867188 C8.21191406,7.74674658 8.39094873,7.92578125 8.74902344,7.92578125 L10.8974609,7.92578125 C11.2555356,7.92578125 11.4345703,7.74674658 11.4345703,7.38867188 L11.4345703,5.77734375 C11.4345703,5.41926904 11.2555356,5.24023438 10.8974609,5.24023438 L8.74902344,5.24023438 C8.39094873,5.24023438 8.21191406,5.41926904 8.21191406,5.77734375 L8.21191406,7.38867188 Z M13.0458984,4.16601562 L13.0458984,7.38867188 C13.0458984,8.462896 13.5830024,9 14.6572266,9 L16.8056641,9 C17.8798882,9 18.4169922,8.462896 18.4169922,7.38867188 L18.4169922,4.16601562 L17.3427734,4.16601562 L17.3427734,7.38867188 C17.3427734,7.74674658 17.1637388,7.92578125 16.8056641,7.92578125 L14.6572266,7.92578125 C14.2991519,7.92578125 14.1201172,7.74674658 14.1201172,7.38867188 L14.1201172,4.16601562 L13.0458984,4.16601562 Z M18.9541016,4.16601562 L24.3251953,4.16601562 L24.3251953,5.24023438 L22.1767578,5.24023438 L22.1767578,9 L21.1025391,9 L21.1025391,5.24023438 L18.9541016,5.24023438 L18.9541016,4.16601562 Z" id="OUT" fill="#586AB6" fill-rule="nonzero"></path>
            </g>
            <g id="Lvl" transform="translate(88.000000, 8.000000)" fill="#1A1A1A" fill-rule="nonzero">
                <path d="M31.4425,20 L31.4425,19.02 L28.9995,19.02 L28.9995,15.1 L27.9215,15.1 L27.9215,20 L31.4425,20 Z M31.957,21.1 L30.795,21.1 L29.514,24.551 L28.233,21.1 L27.043,21.1 L29.024,26.035 L29.976,26.035 L31.957,21.1 Z M31.4425,32 L27.9215,32 L27.9215,27.1 L28.9995,27.1 L28.9995,31.02 L31.4425,31.02 L31.4425,32 Z" id="LVL"></path>
            </g>
            <g id="Freq" transform="translate(0.000000, 14.000000)" fill="#1A1A1A" fill-rule="nonzero">
                <path d="M49.4023438,53 L49.4023438,47.7265625 L54.6757812,47.7265625 L54.6757812,48.8984375 L50.5742188,48.8984375 L50.5742188,49.7773438 L53.5039062,49.7773438 L53.5039062,50.9492188 L50.5742188,50.9492188 L50.5742188,53 L49.4023438,53 Z M56.4335938,49.7773438 L59.9492188,49.7773438 L59.9492188,48.8984375 L56.4335938,48.8984375 L56.4335938,49.7773438 Z M56.4335938,50.9492188 L56.4335938,53 L55.2617188,53 L55.2617188,47.7265625 L59.3632812,47.7265625 C60.5351621,47.7265625 61.1210938,48.2617134 61.1210938,49.3320312 C61.1210938,49.8398463 61.0371102,50.2128894 60.8691406,50.4511719 C61.0371102,50.728517 61.1210938,51.0898415 61.1210938,51.5351562 L61.1210938,53 L59.9492188,53 L59.9492188,51.5351562 C59.9492188,51.1445293 59.7539082,50.9492188 59.3632812,50.9492188 L56.4335938,50.9492188 Z M67.5664062,53 L63.4648438,53 C62.2929629,53 61.7070312,52.4140684 61.7070312,51.2421875 L61.7070312,47.7265625 L67.5664062,47.7265625 L67.5664062,48.8984375 L62.8789062,48.8984375 L62.8789062,49.7773438 L67.5664062,49.7773438 L67.5664062,50.9492188 L62.8789062,50.9492188 L62.8789062,51.2421875 C62.8789062,51.6328145 63.0742168,51.828125 63.4648438,51.828125 L67.5664062,51.828125 L67.5664062,53 Z M72.2539062,51.828125 C72.6445332,51.828125 72.8398438,51.6328145 72.8398438,51.2421875 L72.8398438,49.484375 C72.8398438,49.093748 72.6445332,48.8984375 72.2539062,48.8984375 L69.9101562,48.8984375 C69.5195293,48.8984375 69.3242188,49.093748 69.3242188,49.484375 L69.3242188,51.2421875 C69.3242188,51.6328145 69.5195293,51.828125 69.9101562,51.828125 L72.2539062,51.828125 Z M69.9101562,53 C68.7382754,53 68.1523438,52.4140684 68.1523438,51.2421875 L68.1523438,49.484375 C68.1523438,48.3124941 68.7382754,47.7265625 69.9101562,47.7265625 L72.2539062,47.7265625 C73.4257871,47.7265625 74.0117188,48.3124941 74.0117188,49.484375 L74.0117188,53 L69.9101562,53 Z" id="FREQ"></path>
            </g>
            <g id="PW" transform="translate(16.000000, 72.000000)" fill="#1A1A1A" fill-rule="nonzero">
                <path d="M22.7185,2.808 L22.7185,2.794 C22.7185,1.793 22.0115,1.1 20.8425,1.1 L18.8405,1.1 L18.8405,6 L19.9185,6 L19.9185,4.53 L20.7375,4.53 C21.8365,4.53 22.7185,3.942 22.7185,2.808 Z M21.6265,2.829 C21.6265,3.249 21.3115,3.571 20.7725,3.571 L19.9185,3.571 L19.9185,2.073 L20.7515,2.073 C21.2490385,2.073 21.5736065,2.29368639 21.620596,2.70753072 L21.6265,2.829 Z M30.5375,1.1 L28.8645,6.035 L27.9265,6.035 L26.8205,2.829 L25.7145,6.035 L24.7765,6.035 L23.1035,1.1 L24.2585,1.1 L25.2735,4.418 L26.3725,1.086 L27.2965,1.086 L28.3955,4.418 L29.4105,1.1 L30.5375,1.1 Z"></path>
            </g>
            <g id="VOCT" transform="translate(3.000000, 37.000000)" fill="#1A1A1A">
                <text id="V/OCT" font-family="NesController, Nes Controller" font-size="11" font-weight="normal">
                    <tspan x="2.84082031" y="11">V/OCT</tspan>
                </text>
                <path d="M2.84082031,6.16601562 L2.84082031,11 L6.60058594,11 C7.67481006,11 8.21191406,10.462896 8.21191406,9.38867188 L8.21191406,6.16601562 L7.13769531,6.16601562 L7.13769531,9.38867188 C7.13769531,9.74674658 6.95866064,9.92578125 6.60058594,9.92578125 L3.91503906,9.92578125 L3.91503906,6.16601562 L2.84082031,6.16601562 Z M8.74902344,11 L9.82324219,6.16601562 L10.8974609,6.16601562 L9.82324219,11 L8.74902344,11 Z M13.0458984,11 C11.9716743,11 11.4345703,10.462896 11.4345703,9.38867188 L11.4345703,7.77734375 C11.4345703,6.70311963 11.9716743,6.16601562 13.0458984,6.16601562 L15.1943359,6.16601562 C16.2685601,6.16601562 16.8056641,6.70311963 16.8056641,7.77734375 L16.8056641,9.38867188 C16.8056641,10.462896 16.3580774,11 15.4628906,11 L13.0458984,11 Z M12.5087891,9.38867188 C12.5087891,9.74674658 12.6878237,9.92578125 13.0458984,9.92578125 L15.1943359,9.92578125 C15.5524106,9.92578125 15.7314453,9.74674658 15.7314453,9.38867188 L15.7314453,7.77734375 C15.7314453,7.41926904 15.5524106,7.24023438 15.1943359,7.24023438 L13.0458984,7.24023438 C12.6878237,7.24023438 12.5087891,7.41926904 12.5087891,7.77734375 L12.5087891,9.38867188 Z M22.7138672,11 L18.9541016,11 C17.8798774,11 17.3427734,10.462896 17.3427734,9.38867188 L17.3427734,7.77734375 C17.3427734,6.70311963 17.8798774,6.16601562 18.9541016,6.16601562 L22.7138672,6.16601562 L22.7138672,7.24023438 L18.9541016,7.24023438 C18.5960269,7.24023438 18.4169922,7.41926904 18.4169922,7.77734375 L18.4169922,9.38867188 C18.4169922,9.74674658 18.5960269,9.92578125 18.9541016,9.92578125 L22.7138672,9.92578125 L22.7138672,11 Z M23.2509766,6.16601562 L28.6220703,6.16601562 L28.6220703,7.24023438 L26.4736328,7.24023438 L26.4736328,11 L25.3994141,11 L25.3994141,7.24023438 L23.2509766,7.24023438 L23.2509766,6.16601562 Z" id="V/OCT" fill-rule="nonzero"></path>
            </g>
            <g id="Mod" transform="translate(2.000000, 9.000000)" fill="#1A1A1A" fill-rule="nonzero">
                <path d="M6.95,9 L6.95,4.1 L5.788,4.1 L4.5,6.172 L3.212,4.1 L2.05,4.1 L2.05,9 L3.107,9 L3.107,5.822 L4.472,7.894 L4.5,7.894 L5.879,5.801 L5.879,9 L6.95,9 Z M7.104,12.55 L7.104,12.536 C7.104,11.143 6.019,10.016 4.507,10.016 C3.05315385,10.016 1.98114941,11.0709186 1.90083819,12.3904382 L1.896,12.564 C1.896,13.957 2.981,15.084 4.493,15.084 C6.005,15.084 7.104,13.943 7.104,12.55 Z M5.977,12.564 C5.977,13.404 5.375,14.09 4.507,14.09 C3.68722222,14.09 3.09222222,13.4656173 3.02864129,12.6886077 L3.023,12.536 C3.023,11.696 3.625,11.01 4.493,11.01 C5.31277778,11.01 5.90777778,11.6343827 5.97135871,12.4113923 L5.977,12.564 Z M6.866,18.55 L6.866,18.536 C6.866,17.157 5.802,16.1 4.262,16.1 L2.351,16.1 L2.351,21 L4.262,21 C5.802,21 6.866,19.929 6.866,18.55 Z M5.739,18.564 C5.739,19.432 5.144,20.027 4.262,20.027 L3.429,20.027 L3.429,17.073 L4.262,17.073 C5.09211765,17.073 5.66800692,17.6124602 5.73288622,18.3995834 L5.739,18.564 Z" id="MOD"></path>
            </g>
            <g id="Header" fill="#1A1A1A" fill-rule="nonzero">
                <path d="M40.515625,9 L40.515625,1.96875 L45.984375,1.96875 C47.5468828,1.96875 48.328125,2.68749281 48.328125,4.125 C48.328125,5.55209047 47.5468828,6.265625 45.984375,6.265625 L42.078125,6.265625 L42.078125,9 L40.515625,9 Z M46.765625,4.703125 L46.765625,3.53125 L42.078125,3.53125 L42.078125,4.703125 L46.765625,4.703125 Z M49.109375,1.96875 L49.109375,6.65625 C49.109375,8.21875781 49.8906172,9 51.453125,9 L54.578125,9 C56.1406328,9 56.921875,8.21875781 56.921875,6.65625 L56.921875,1.96875 L55.359375,1.96875 L55.359375,6.65625 C55.359375,7.17708594 55.0989609,7.4375 54.578125,7.4375 L51.453125,7.4375 C50.9322891,7.4375 50.671875,7.17708594 50.671875,6.65625 L50.671875,1.96875 L49.109375,1.96875 Z M57.703125,1.96875 L57.703125,6.65625 C57.703125,8.21875781 58.4843672,9 60.046875,9 L65.515625,9 L65.515625,7.4375 L60.046875,7.4375 C59.5260391,7.4375 59.265625,7.17708594 59.265625,6.65625 L59.265625,1.96875 L57.703125,1.96875 Z M66.296875,9 L71.765625,9 C73.3281328,9 74.109375,8.28386133 74.109375,6.8515625 C74.109375,5.41926367 73.3281328,4.703125 71.765625,4.703125 L67.859375,4.703125 L67.859375,3.53125 L74.109375,3.53125 L74.109375,1.96875 L68.640625,1.96875 C67.0781172,1.96875 66.296875,2.69530523 66.296875,4.1484375 C66.296875,5.55990289 67.0781172,6.265625 68.640625,6.265625 L72.546875,6.265625 L72.546875,7.4375 L66.296875,7.4375 L66.296875,9 Z M82.703125,9 L77.234375,9 C75.6718672,9 74.890625,8.21875781 74.890625,6.65625 L74.890625,1.96875 L82.703125,1.96875 L82.703125,3.53125 L76.453125,3.53125 L76.453125,4.703125 L82.703125,4.703125 L82.703125,6.265625 L76.453125,6.265625 L76.453125,6.65625 C76.453125,7.17708594 76.7135391,7.4375 77.234375,7.4375 L82.703125,7.4375 L82.703125,9 Z" id="PULSE"></path>
            </g>
        </g>
    </g>
</svg>