<?xml version="1.0" encoding="UTF-8"?>
<svg width="210px" height="380px" viewBox="0 0 210 380" version="1.1" xmlns="http://www.w3.org/2000/svg" xmlns:xlink="http://www.w3.org/1999/xlink">
    <!-- Generator: Sketch 58 (84663) - https://sketch.com -->
    <title>VRC6</title>
    <desc>Created with Sketch.</desc>
    <g id="VRC6" stroke="none" stroke-width="1" fill="none" fill-rule="evenodd">
        <g id="bg">
            <g id="chip">
                <rect id="Background" fill="#404040" fill-rule="nonzero" x="0" y="0" width="210" height="380" rx="1"></rect>
                <path d="M206,365 C207.104569,365 208,365.895431 208,367 L208,373 C208,374.104569 207.104569,375 206,375 L4,375 C2.8954305,375 2,374.104569 2,373 L2,367 C2,365.895431 2.8954305,365 4,365 L206,365 Z M206,345 C207.104569,345 208,345.895431 208,347 L208,353 C208,354.104569 207.104569,355 206,355 L4,355 C2.8954305,355 2,354.104569 2,353 L2,347 C2,345.895431 2.8954305,345 4,345 L206,345 Z M206,325 C207.104569,325 208,325.895431 208,327 L208,333 C208,334.104569 207.104569,335 206,335 L4,335 C2.8954305,335 2,334.104569 2,333 L2,327 C2,325.895431 2.8954305,325 4,325 L206,325 Z M206,305 C207.104569,305 208,305.895431 208,307 L208,313 C208,314.104569 207.104569,315 206,315 L4,315 C2.8954305,315 2,314.104569 2,313 L2,307 C2,305.895431 2.8954305,305 4,305 L206,305 Z M206,285 C207.104569,285 208,285.895431 208,287 L208,293 C208,294.104569 207.104569,295 206,295 L4,295 C2.8954305,295 2,294.104569 2,293 L2,287 C2,285.895431 2.8954305,285 4,285 L206,285 Z M206,265 C207.104569,265 208,265.895431 208,267 L208,273 C208,274.104569 207.104569,275 206,275 L4,275 C2.8954305,275 2,274.104569 2,273 L2,267 C2,265.895431 2.8954305,265 4,265 L206,265 Z M206,245 C207.104569,245 208,245.895431 208,247 L208,253 C208,254.104569 207.104569,255 206,255 L4,255 C2.8954305,255 2,254.104569 2,253 L2,247 C2,245.895431 2.8954305,245 4,245 L206,245 Z M206,225 C207.104569,225 208,225.895431 208,227 L208,233 C208,234.104569 207.104569,235 206,235 L4,235 C2.8954305,235 2,234.104569 2,233 L2,227 C2,225.895431 2.8954305,225 4,225 L206,225 Z M206,205 C207.104569,205 208,205.895431 208,207 L208,213 C208,214.104569 207.104569,215 206,215 L4,215 C2.8954305,215 2,214.104569 2,213 L2,207 C2,205.895431 2.8954305,205 4,205 L206,205 Z M206,185 C207.104569,185 208,185.895431 208,187 L208,193 C208,194.104569 207.104569,195 206,195 L4,195 C2.8954305,195 2,194.104569 2,193 L2,187 C2,185.895431 2.8954305,185 4,185 L206,185 Z M206,165 C207.104569,165 208,165.895431 208,167 L208,173 C208,174.104569 207.104569,175 206,175 L4,175 C2.8954305,175 2,174.104569 2,173 L2,167 C2,165.895431 2.8954305,165 4,165 L206,165 Z M206,145 C207.104569,145 208,145.895431 208,147 L208,153 C208,154.104569 207.104569,155 206,155 L4,155 C2.8954305,155 2,154.104569 2,153 L2,147 C2,145.895431 2.8954305,145 4,145 L206,145 Z M206,125 C207.104569,125 208,125.895431 208,127 L208,133 C208,134.104569 207.104569,135 206,135 L4,135 C2.8954305,135 2,134.104569 2,133 L2,127 C2,125.895431 2.8954305,125 4,125 L206,125 Z M206,105 C207.104569,105 208,105.895431 208,107 L208,113 C208,114.104569 207.104569,115 206,115 L4,115 C2.8954305,115 2,114.104569 2,113 L2,107 C2,105.895431 2.8954305,105 4,105 L206,105 Z M206,85 C207.104569,85 208,85.8954305 208,87 L208,93 C208,94.1045695 207.104569,95 206,95 L4,95 C2.8954305,95 2,94.1045695 2,93 L2,87 C2,85.8954305 2.8954305,85 4,85 L206,85 Z M206,65 C207.104569,65 208,65.8954305 208,67 L208,73 C208,74.1045695 207.104569,75 206,75 L4,75 C2.8954305,75 2,74.1045695 2,73 L2,67 C2,65.8954305 2.8954305,65 4,65 L206,65 Z M206,45 C207.104569,45 208,45.8954305 208,47 L208,53 C208,54.1045695 207.104569,55 206,55 L4,55 C2.8954305,55 2,54.1045695 2,53 L2,47 C2,45.8954305 2.8954305,45 4,45 L206,45 Z M206,25 C207.104569,25 208,25.8954305 208,27 L208,33 C208,34.1045695 207.104569,35 206,35 L4,35 C2.8954305,35 2,34.1045695 2,33 L2,27 C2,25.8954305 2.8954305,25 4,25 L206,25 Z M206,5 C207.104569,5 208,5.8954305 208,7 L208,13 C208,14.1045695 207.104569,15 206,15 L4,15 C2.8954305,15 2,14.1045695 2,13 L2,7 C2,5.8954305 2.8954305,5 4,5 L206,5 Z" id="leads" fill="#E0D9C5"></path>
                <rect id="cover" fill="#1D1D1D" x="5" y="0" width="200" height="380" rx="2"></rect>
            </g>
            <g id="branding" transform="translate(80.000000, 4.000000)" fill="#B3B3B3" fill-rule="nonzero">
                <path d="M12.031,0.4 L11.041,0.4 L6.091,11.992 L1.159,0.4 L0.115,0.4 L5.659,13.09 L6.487,13.09 L12.031,0.4 Z M24.955,13 L20.797,7.618 C22.8477586,7.33993103 24.3783365,6.20608086 24.4814551,4.23265087 L24.487,3.982 C24.487,1.876 22.705,0.4 19.987,0.4 L14.695,0.4 L14.695,13 L15.631,13 L15.631,7.78 L19.753,7.78 L23.767,13 L24.955,13 Z M23.551,4.054 C23.551,5.872 21.985,6.934 19.879,6.934 L15.631,6.934 L15.631,1.264 L19.933,1.264 C22.1401724,1.264 23.4580036,2.2540214 23.546264,3.84523055 L23.551,4.054 Z M38.419,11.02 L37.789,10.408 C36.511,11.668 35.269,12.37 33.451,12.37 C30.5183171,12.37 28.2366752,10.005693 28.1271202,6.93184327 L28.123,6.664 C28.123,3.496 30.409,1.03 33.433,1.03 C35.323,1.03 36.583,1.822 37.681,2.884 L38.347,2.2 C37.051,1.012 35.701,0.184 33.451,0.184 C29.8940435,0.184 27.2672854,3.00904726 27.1547596,6.46845693 L27.151,6.736 C27.151,10.354 29.815,13.216 33.415,13.216 C35.647,13.216 37.087,12.334 38.419,11.02 Z M49.039,1.642 C47.941,0.742 46.843,0.184 45.403,0.184 C42.271,0.184 40.273,3.208 40.273,7.024 C40.273,9.652 40.831,10.912 41.875,11.956 C42.631,12.712 43.783,13.216 45.079,13.216 C47.563,13.216 49.489,11.47 49.489,9.058 C49.489,6.79 47.473,5.224 45.151,5.224 C43.099,5.224 41.929,6.34 41.209,7.564 C41.119,3.712 42.775,1.03 45.331,1.03 C46.519,1.03 47.473,1.498 48.445,2.362 L49.039,1.642 Z M48.517,9.094 C48.517,10.894 47.185,12.37 45.151,12.37 C43.117,12.37 41.587,11.002 41.587,9.184 C41.587,7.618 43.027,6.052 45.097,6.052 C47.095,6.052 48.517,7.348 48.517,9.094 Z" id="VRC6"></path>
            </g>
        </g>
        <g id="saw" transform="translate(13.000000, 245.000000)">
            <rect id="bg" fill="#A2A0A5" x="0" y="-2.84217094e-14" width="184" height="107" rx="5"></rect>
            <g id="Header" transform="translate(2.000000, 54.000000)" fill="#F0433F" fill-rule="nonzero">
                <path d="M0.69140625,49 L38.2890625,49 C49.0313037,49 54.4023438,44.0765466 54.4023438,34.2294922 C54.4023438,24.3824377 49.0313037,19.4589844 38.2890625,19.4589844 L11.4335938,19.4589844 L11.4335938,11.4023438 L54.4023438,11.4023438 L54.4023438,0.66015625 L16.8046875,0.66015625 C6.06244629,0.66015625 0.69140625,5.65522349 0.69140625,15.6455078 C0.69140625,25.3493324 6.06244629,30.2011719 16.8046875,30.2011719 L43.6601562,30.2011719 L43.6601562,38.2578125 L0.69140625,38.2578125 L0.69140625,49 Z M102.742188,24.8300781 L102.742188,16.7734375 C102.742188,13.1926904 100.951841,11.4023438 97.3710938,11.4023438 L75.8867188,11.4023438 C72.3059717,11.4023438 70.515625,13.1926904 70.515625,16.7734375 L70.515625,24.8300781 L102.742188,24.8300781 Z M70.515625,35.5722656 L70.515625,49 L59.7734375,49 L59.7734375,16.7734375 C59.7734375,6.03119629 65.1444775,0.66015625 75.8867188,0.66015625 L97.3710938,0.66015625 C108.113335,0.66015625 113.484375,6.03119629 113.484375,16.7734375 L113.484375,49 L102.742188,49 L102.742188,35.5722656 L70.515625,35.5722656 Z M118.855469,0.66015625 L129.597656,0.66015625 L129.597656,32.8867188 C129.597656,36.4674658 131.388003,38.2578125 134.96875,38.2578125 L143.025391,38.2578125 L143.025391,0.66015625 L153.767578,0.66015625 L153.767578,38.2578125 L167.195312,38.2578125 L167.195312,0.66015625 L177.9375,0.66015625 L177.9375,49 L134.96875,49 C124.226509,49 118.855469,43.62896 118.855469,32.8867188 L118.855469,0.66015625 Z" id="SAW"></path>
            </g>
            <g id="Out" transform="translate(124.000000, 74.000000)">
                <rect id="bg" fill="#1A1A1A" x="0" y="0" width="40" height="29" rx="5"></rect>
                <path d="M7.03369141,9.35546875 C7.39111507,9.35546875 7.67480364,9.22363413 7.88476562,8.95996094 C8.09472761,8.69628774 8.19970703,8.32129149 8.19970703,7.83496094 C8.19970703,7.35058352 8.09472761,6.97607554 7.88476562,6.71142578 C7.67480364,6.44677602 7.39111507,6.31445312 7.03369141,6.31445312 C6.67626774,6.31445312 6.39111435,6.44628774 6.17822266,6.70996094 C5.96533097,6.97363413 5.85888672,7.34863038 5.85888672,7.83496094 C5.85888672,8.32129149 5.96533097,8.69628774 6.17822266,8.95996094 C6.39111435,9.22363413 6.67626774,9.35546875 7.03369141,9.35546875 Z M9.10205078,7.83496094 C9.10205078,8.61035544 8.88427952,9.2040995 8.44873047,9.61621094 C8.12255696,9.95215012 7.65088199,10.1201172 7.03369141,10.1201172 C6.41650082,10.1201172 5.94482585,9.95215012 5.61865234,9.61621094 C5.18115016,9.2040995 4.96240234,8.61035544 4.96240234,7.83496094 C4.96240234,7.04394136 5.18115016,6.45019729 5.61865234,6.05371094 C5.94482585,5.71777176 6.41650082,5.54980469 7.03369141,5.54980469 C7.65088199,5.54980469 8.12255696,5.71777176 8.44873047,6.05371094 C8.88427952,6.45019729 9.10205078,7.04394136 9.10205078,7.83496094 Z M5.29052734,12.6816406 L6.20751953,12.6816406 L6.20751953,15.3359375 C6.20751953,15.632814 6.24267543,15.8496087 6.31298828,15.9863281 C6.42236383,16.2285168 6.6606427,16.3496094 7.02783203,16.3496094 C7.39306823,16.3496094 7.63037055,16.2285168 7.73974609,15.9863281 C7.81005895,15.8496087 7.84521484,15.632814 7.84521484,15.3359375 L7.84521484,12.6816406 L8.76220703,12.6816406 L8.76220703,15.3359375 C8.76220703,15.7949242 8.69091868,16.1523425 8.54833984,16.4082031 C8.28271352,16.8769555 7.77588265,17.1113281 7.02783203,17.1113281 C6.27978142,17.1113281 5.77197399,16.8769555 5.50439453,16.4082031 C5.36181569,16.1523425 5.29052734,15.7949242 5.29052734,15.3359375 L5.29052734,12.6816406 Z M8.76220703,19.6816406 L8.76220703,20.4462891 L7.47021484,20.4462891 L7.47021484,24 L6.56201172,24 L6.56201172,20.4462891 L5.26416016,20.4462891 L5.26416016,19.6816406 L8.76220703,19.6816406 Z" id="OUT" fill="#F0433F" fill-rule="nonzero"></path>
            </g>
            <g id="Level" transform="translate(145.000000, 4.000000)" fill="#1A1A1A" fill-rule="nonzero">
                <path d="M4.109,5 L4.109,4.02 L1.666,4.02 L1.666,0.1 L0.588,0.1 L0.588,5 L4.109,5 Z M8.652,5 L8.652,4.041 L5.992,4.041 L5.992,3.012 L8.302,3.012 L8.302,2.053 L5.992,2.053 L5.992,1.059 L8.617,1.059 L8.617,0.1 L4.921,0.1 L4.921,5 L8.652,5 Z M14.105,0.1 L12.943,0.1 L11.662,3.551 L10.381,0.1 L9.191,0.1 L11.172,5.035 L12.124,5.035 L14.105,0.1 Z M18.592,5 L18.592,4.041 L15.932,4.041 L15.932,3.012 L18.242,3.012 L18.242,2.053 L15.932,2.053 L15.932,1.059 L18.557,1.059 L18.557,0.1 L14.861,0.1 L14.861,5 L18.592,5 Z M23.072,5 L19.551,5 L19.551,0.1 L20.629,0.1 L20.629,4.02 L23.072,4.02 L23.072,5 Z" id="LEVEL"></path>
            </g>
            <g id="VOCT" transform="translate(7.000000, 65.000000)" fill="#1A1A1A" fill-rule="nonzero">
                <path d="M3.78808594,0.961914062 L4.88183594,0.961914062 L3.16259766,6 L2.16796875,6 L0.465820312,0.961914062 L1.59033203,0.961914062 L2.68408203,4.78662109 L3.78808594,0.961914062 Z M6.54296875,0.808105469 L7.35302734,0.808105469 L5.39453125,6 L4.59130859,6 L6.54296875,0.808105469 Z M9.68066406,5.24804688 C10.0976583,5.24804688 10.4286283,5.09423982 10.673584,4.78662109 C10.9185396,4.47900237 11.0410156,4.04150674 11.0410156,3.47412109 C11.0410156,2.9090141 10.9185396,2.47208813 10.673584,2.16333008 C10.4286283,1.85457202 10.0976583,1.70019531 9.68066406,1.70019531 C9.26366979,1.70019531 8.93099083,1.85400237 8.68261719,2.16162109 C8.43424355,2.46923982 8.31005859,2.90673544 8.31005859,3.47412109 C8.31005859,4.04150674 8.43424355,4.47900237 8.68261719,4.78662109 C8.93099083,5.09423982 9.26366979,5.24804688 9.68066406,5.24804688 Z M12.09375,3.47412109 C12.09375,4.37874801 11.8396835,5.07144942 11.331543,5.55224609 C10.9510072,5.94417514 10.4007197,6.14013672 9.68066406,6.14013672 C8.96060838,6.14013672 8.41032091,5.94417514 8.02978516,5.55224609 C7.51936594,5.07144942 7.26416016,4.37874801 7.26416016,3.47412109 C7.26416016,2.55126492 7.51936594,1.85856351 8.02978516,1.39599609 C8.41032091,1.00406705 8.96060838,0.808105469 9.68066406,0.808105469 C10.4007197,0.808105469 10.9510072,1.00406705 11.331543,1.39599609 C11.8396835,1.85856351 12.09375,2.55126492 12.09375,3.47412109 Z M12.6782227,3.52197266 C12.6782227,2.64241097 12.9140601,1.96452061 13.3857422,1.48828125 C13.7959005,1.07356563 14.3177052,0.866210938 14.9511719,0.866210938 C15.7988324,0.866210938 16.4186178,1.14420295 16.8105469,1.70019531 C17.0270193,2.01237135 17.1432291,2.32568202 17.1591797,2.64013672 L16.1064453,2.64013672 C16.0380856,2.39859905 15.9503586,2.21630921 15.8432617,2.09326172 C15.6518545,1.87451062 15.3681659,1.76513672 14.9921875,1.76513672 C14.6093731,1.76513672 14.3074555,1.91951343 14.0864258,2.22827148 C13.865396,2.53702954 13.7548828,2.97395551 13.7548828,3.5390625 C13.7548828,4.10416949 13.8716622,4.52742372 14.1052246,4.80883789 C14.338787,5.09025206 14.6355776,5.23095703 14.9956055,5.23095703 C15.3647479,5.23095703 15.6461579,5.11019001 15.8398438,4.86865234 C15.9469406,4.73876888 16.0358069,4.54394661 16.1064453,4.28417969 L17.1489258,4.28417969 C17.0577795,4.83333608 16.8247903,5.2799462 16.4499512,5.62402344 C16.0751121,5.96810068 15.5948923,6.14013672 15.0092773,6.14013672 C14.2846643,6.14013672 13.7150086,5.90771717 13.300293,5.44287109 C12.8855774,4.97574636 12.6782227,4.33545329 12.6782227,3.52197266 Z M21.612793,0.961914062 L21.612793,1.85400391 L20.1054688,1.85400391 L20.1054688,6 L19.0458984,6 L19.0458984,1.85400391 L17.5317383,1.85400391 L17.5317383,0.961914062 L21.612793,0.961914062 Z" id="V/OCT"></path>
            </g>
            <g id="Mod" transform="translate(8.000000, 32.000000)" fill="#1A1A1A" fill-rule="nonzero">
                <path d="M5.738,5 L5.738,0.1 L4.576,0.1 L3.288,2.172 L2,0.1 L0.838,0.1 L0.838,5 L1.895,5 L1.895,1.822 L3.26,3.894 L3.288,3.894 L4.667,1.801 L4.667,5 L5.738,5 Z M11.905,2.55 L11.905,2.536 C11.905,1.143 10.82,0.016 9.308,0.016 C7.85415385,0.016 6.78214941,1.07091864 6.70183819,2.39043815 L6.697,2.564 C6.697,3.957 7.782,5.084 9.294,5.084 C10.806,5.084 11.905,3.943 11.905,2.55 Z M10.778,2.564 C10.778,3.404 10.176,4.09 9.308,4.09 C8.48822222,4.09 7.89322222,3.46561728 7.82964129,2.68860768 L7.824,2.536 C7.824,1.696 8.426,1.01 9.294,1.01 C10.1137778,1.01 10.7087778,1.63438272 10.7723587,2.41139232 L10.778,2.564 Z M17.379,2.55 L17.379,2.536 C17.379,1.157 16.315,0.1 14.775,0.1 L12.864,0.1 L12.864,5 L14.775,5 C16.315,5 17.379,3.929 17.379,2.55 Z M16.252,2.564 C16.252,3.432 15.657,4.027 14.775,4.027 L13.942,4.027 L13.942,1.073 L14.775,1.073 C15.6051176,1.073 16.1810069,1.61246021 16.2458862,2.39958335 L16.252,2.564 Z" id="MOD"></path>
            </g>
        </g>
        <g id="pulse2" transform="translate(13.000000, 134.000000)">
            <rect id="bg" fill="#A2A0A5" x="0" y="0" width="184" height="107" rx="5"></rect>
            <g id="Header" transform="translate(6.000000, 74.000000)" fill="#F0433F" fill-rule="nonzero">
                <path d="M0.719726562,29 L0.719726562,0.435546875 L22.9365234,0.435546875 C29.2842114,0.435546875 32.4580078,3.35543955 32.4580078,9.1953125 C32.4580078,14.9928675 29.2842114,17.8916016 22.9365234,17.8916016 L7.06738281,17.8916016 L7.06738281,29 L0.719726562,29 Z M26.1103516,11.5439453 L26.1103516,6.78320312 L7.06738281,6.78320312 L7.06738281,11.5439453 L26.1103516,11.5439453 Z M35.6318359,0.435546875 L35.6318359,19.4785156 C35.6318359,25.8262036 38.8056323,29 45.1533203,29 L57.8486328,29 C64.1963208,29 67.3701172,25.8262036 67.3701172,19.4785156 L67.3701172,0.435546875 L61.0224609,0.435546875 L61.0224609,19.4785156 C61.0224609,21.5944116 59.9645288,22.6523438 57.8486328,22.6523438 L45.1533203,22.6523438 C43.0374243,22.6523438 41.9794922,21.5944116 41.9794922,19.4785156 L41.9794922,0.435546875 L35.6318359,0.435546875 Z M70.5439453,0.435546875 L70.5439453,19.4785156 C70.5439453,25.8262036 73.7177417,29 80.0654297,29 L102.282227,29 L102.282227,22.6523438 L80.0654297,22.6523438 C77.9495337,22.6523438 76.8916016,21.5944116 76.8916016,19.4785156 L76.8916016,0.435546875 L70.5439453,0.435546875 Z M105.456055,29 L127.672852,29 C134.02054,29 137.194336,26.0906866 137.194336,20.2719727 C137.194336,14.4532587 134.02054,11.5439453 127.672852,11.5439453 L111.803711,11.5439453 L111.803711,6.78320312 L137.194336,6.78320312 L137.194336,0.435546875 L114.977539,0.435546875 C108.629851,0.435546875 105.456055,3.38717751 105.456055,9.29052734 C105.456055,15.0246055 108.629851,17.8916016 114.977539,17.8916016 L130.84668,17.8916016 L130.84668,22.6523438 L105.456055,22.6523438 L105.456055,29 Z M172.106445,29 L149.889648,29 C143.54196,29 140.368164,25.8262036 140.368164,19.4785156 L140.368164,0.435546875 L172.106445,0.435546875 L172.106445,6.78320312 L146.71582,6.78320312 L146.71582,11.5439453 L172.106445,11.5439453 L172.106445,17.8916016 L146.71582,17.8916016 L146.71582,19.4785156 C146.71582,21.5944116 147.773752,22.6523438 149.889648,22.6523438 L172.106445,22.6523438 L172.106445,29 Z" id="PULSE"></path>
            </g>
            <g id="Out" transform="translate(124.000000, 74.000000)">
                <rect id="bg" fill="#1A1A1A" x="0" y="0" width="40" height="29" rx="5"></rect>
                <path d="M7.03369141,9.35546875 C7.39111507,9.35546875 7.67480364,9.22363413 7.88476562,8.95996094 C8.09472761,8.69628774 8.19970703,8.32129149 8.19970703,7.83496094 C8.19970703,7.35058352 8.09472761,6.97607554 7.88476562,6.71142578 C7.67480364,6.44677602 7.39111507,6.31445312 7.03369141,6.31445312 C6.67626774,6.31445312 6.39111435,6.44628774 6.17822266,6.70996094 C5.96533097,6.97363413 5.85888672,7.34863038 5.85888672,7.83496094 C5.85888672,8.32129149 5.96533097,8.69628774 6.17822266,8.95996094 C6.39111435,9.22363413 6.67626774,9.35546875 7.03369141,9.35546875 Z M9.10205078,7.83496094 C9.10205078,8.61035544 8.88427952,9.2040995 8.44873047,9.61621094 C8.12255696,9.95215012 7.65088199,10.1201172 7.03369141,10.1201172 C6.41650082,10.1201172 5.94482585,9.95215012 5.61865234,9.61621094 C5.18115016,9.2040995 4.96240234,8.61035544 4.96240234,7.83496094 C4.96240234,7.04394136 5.18115016,6.45019729 5.61865234,6.05371094 C5.94482585,5.71777176 6.41650082,5.54980469 7.03369141,5.54980469 C7.65088199,5.54980469 8.12255696,5.71777176 8.44873047,6.05371094 C8.88427952,6.45019729 9.10205078,7.04394136 9.10205078,7.83496094 Z M5.29052734,12.6816406 L6.20751953,12.6816406 L6.20751953,15.3359375 C6.20751953,15.632814 6.24267543,15.8496087 6.31298828,15.9863281 C6.42236383,16.2285168 6.6606427,16.3496094 7.02783203,16.3496094 C7.39306823,16.3496094 7.63037055,16.2285168 7.73974609,15.9863281 C7.81005895,15.8496087 7.84521484,15.632814 7.84521484,15.3359375 L7.84521484,12.6816406 L8.76220703,12.6816406 L8.76220703,15.3359375 C8.76220703,15.7949242 8.69091868,16.1523425 8.54833984,16.4082031 C8.28271352,16.8769555 7.77588265,17.1113281 7.02783203,17.1113281 C6.27978142,17.1113281 5.77197399,16.8769555 5.50439453,16.4082031 C5.36181569,16.1523425 5.29052734,15.7949242 5.29052734,15.3359375 L5.29052734,12.6816406 Z M8.76220703,19.6816406 L8.76220703,20.4462891 L7.47021484,20.4462891 L7.47021484,24 L6.56201172,24 L6.56201172,20.4462891 L5.26416016,20.4462891 L5.26416016,19.6816406 L8.76220703,19.6816406 Z" id="OUT" fill="#F0433F" fill-rule="nonzero"></path>
            </g>
            <g id="Level" transform="translate(6.000000, 74.000000)" fill="#1A1A1A" fill-rule="nonzero">
                <path d="M3.961,5 L3.961,4.02 L1.518,4.02 L1.518,0.1 L0.44,0.1 L0.44,5 L3.961,5 Z M8.504,5 L8.504,4.041 L5.844,4.041 L5.844,3.012 L8.154,3.012 L8.154,2.053 L5.844,2.053 L5.844,1.059 L8.469,1.059 L8.469,0.1 L4.773,0.1 L4.773,5 L8.504,5 Z M13.957,0.1 L12.795,0.1 L11.514,3.551 L10.233,0.1 L9.043,0.1 L11.024,5.035 L11.976,5.035 L13.957,0.1 Z M18.444,5 L18.444,4.041 L15.784,4.041 L15.784,3.012 L18.094,3.012 L18.094,2.053 L15.784,2.053 L15.784,1.059 L18.409,1.059 L18.409,0.1 L14.713,0.1 L14.713,5 L18.444,5 Z M22.924,5 L19.403,5 L19.403,0.1 L20.481,0.1 L20.481,4.02 L22.924,4.02 L22.924,5 Z" id="LEVEL"></path>
            </g>
            <g id="PW" transform="translate(134.000000, 3.000000)">
                <path d="M5.446,2.55 L5.446,2.536 C5.446,1.157 4.382,0.1 2.842,0.1 L0.931,0.1 L0.931,5 L2.842,5 C4.382,5 5.446,3.929 5.446,2.55 Z M4.319,2.564 C4.319,3.432 3.724,4.027 2.842,4.027 L2.009,4.027 L2.009,1.073 L2.842,1.073 C3.67211765,1.073 4.24800692,1.61246021 4.31288622,2.39958335 L4.319,2.564 Z M10.598,2.865 L10.598,0.1 L9.52,0.1 L9.52,2.907 C9.52,3.684 9.121,4.083 8.463,4.083 C7.805,4.083 7.406,3.67 7.406,2.872 L7.406,0.1 L6.328,0.1 L6.328,2.9 C6.328,4.342 7.133,5.077 8.449,5.077 C9.765,5.077 10.598,4.349 10.598,2.865 Z M15.407,1.094 L15.407,0.1 L11.347,0.1 L11.347,1.094 L12.838,1.094 L12.838,5 L13.916,5 L13.916,1.094 L15.407,1.094 Z M20.573,0.1 L18.69,3.047 L18.69,5 L17.612,5 L17.612,3.068 L15.729,0.1 L16.989,0.1 L18.158,2.067 L19.348,0.1 L20.573,0.1 Z" id="DUTY" fill="#1A1A1A" fill-rule="nonzero"></path>
                <path d="M10.5,53.5 L10.5,22.5" id="Line-2" stroke="#000000" stroke-width="3" stroke-linecap="square"></path>
            </g>
            <g id="VOCT" transform="translate(7.000000, 37.000000)" fill="#1A1A1A" fill-rule="nonzero">
                <path d="M3.78808594,0.961914062 L4.88183594,0.961914062 L3.16259766,6 L2.16796875,6 L0.465820312,0.961914062 L1.59033203,0.961914062 L2.68408203,4.78662109 L3.78808594,0.961914062 Z M6.54296875,0.808105469 L7.35302734,0.808105469 L5.39453125,6 L4.59130859,6 L6.54296875,0.808105469 Z M9.68066406,5.24804688 C10.0976583,5.24804688 10.4286283,5.09423982 10.673584,4.78662109 C10.9185396,4.47900237 11.0410156,4.04150674 11.0410156,3.47412109 C11.0410156,2.9090141 10.9185396,2.47208813 10.673584,2.16333008 C10.4286283,1.85457202 10.0976583,1.70019531 9.68066406,1.70019531 C9.26366979,1.70019531 8.93099083,1.85400237 8.68261719,2.16162109 C8.43424355,2.46923982 8.31005859,2.90673544 8.31005859,3.47412109 C8.31005859,4.04150674 8.43424355,4.47900237 8.68261719,4.78662109 C8.93099083,5.09423982 9.26366979,5.24804688 9.68066406,5.24804688 Z M12.09375,3.47412109 C12.09375,4.37874801 11.8396835,5.07144942 11.331543,5.55224609 C10.9510072,5.94417514 10.4007197,6.14013672 9.68066406,6.14013672 C8.96060838,6.14013672 8.41032091,5.94417514 8.02978516,5.55224609 C7.51936594,5.07144942 7.26416016,4.37874801 7.26416016,3.47412109 C7.26416016,2.55126492 7.51936594,1.85856351 8.02978516,1.39599609 C8.41032091,1.00406705 8.96060838,0.808105469 9.68066406,0.808105469 C10.4007197,0.808105469 10.9510072,1.00406705 11.331543,1.39599609 C11.8396835,1.85856351 12.09375,2.55126492 12.09375,3.47412109 Z M12.6782227,3.52197266 C12.6782227,2.64241097 12.9140601,1.96452061 13.3857422,1.48828125 C13.7959005,1.07356563 14.3177052,0.866210938 14.9511719,0.866210938 C15.7988324,0.866210938 16.4186178,1.14420295 16.8105469,1.70019531 C17.0270193,2.01237135 17.1432291,2.32568202 17.1591797,2.64013672 L16.1064453,2.64013672 C16.0380856,2.39859905 15.9503586,2.21630921 15.8432617,2.09326172 C15.6518545,1.87451062 15.3681659,1.76513672 14.9921875,1.76513672 C14.6093731,1.76513672 14.3074555,1.91951343 14.0864258,2.22827148 C13.865396,2.53702954 13.7548828,2.97395551 13.7548828,3.5390625 C13.7548828,4.10416949 13.8716622,4.52742372 14.1052246,4.80883789 C14.338787,5.09025206 14.6355776,5.23095703 14.9956055,5.23095703 C15.3647479,5.23095703 15.6461579,5.11019001 15.8398438,4.86865234 C15.9469406,4.73876888 16.0358069,4.54394661 16.1064453,4.28417969 L17.1489258,4.28417969 C17.0577795,4.83333608 16.8247903,5.2799462 16.4499512,5.62402344 C16.0751121,5.96810068 15.5948923,6.14013672 15.0092773,6.14013672 C14.2846643,6.14013672 13.7150086,5.90771717 13.300293,5.44287109 C12.8855774,4.97574636 12.6782227,4.33545329 12.6782227,3.52197266 Z M21.612793,0.961914062 L21.612793,1.85400391 L20.1054688,1.85400391 L20.1054688,6 L19.0458984,6 L19.0458984,1.85400391 L17.5317383,1.85400391 L17.5317383,0.961914062 L21.612793,0.961914062 Z" id="V/OCT"></path>
            </g>
            <g id="Mod" transform="translate(8.000000, 4.000000)" fill="#1A1A1A" fill-rule="nonzero">
                <path d="M5.738,5 L5.738,0.1 L4.576,0.1 L3.288,2.172 L2,0.1 L0.838,0.1 L0.838,5 L1.895,5 L1.895,1.822 L3.26,3.894 L3.288,3.894 L4.667,1.801 L4.667,5 L5.738,5 Z M11.905,2.55 L11.905,2.536 C11.905,1.143 10.82,0.016 9.308,0.016 C7.85415385,0.016 6.78214941,1.07091864 6.70183819,2.39043815 L6.697,2.564 C6.697,3.957 7.782,5.084 9.294,5.084 C10.806,5.084 11.905,3.943 11.905,2.55 Z M10.778,2.564 C10.778,3.404 10.176,4.09 9.308,4.09 C8.48822222,4.09 7.89322222,3.46561728 7.82964129,2.68860768 L7.824,2.536 C7.824,1.696 8.426,1.01 9.294,1.01 C10.1137778,1.01 10.7087778,1.63438272 10.7723587,2.41139232 L10.778,2.564 Z M17.379,2.55 L17.379,2.536 C17.379,1.157 16.315,0.1 14.775,0.1 L12.864,0.1 L12.864,5 L14.775,5 C16.315,5 17.379,3.929 17.379,2.55 Z M16.252,2.564 C16.252,3.432 15.657,4.027 14.775,4.027 L13.942,4.027 L13.942,1.073 L14.775,1.073 C15.6051176,1.073 16.1810069,1.61246021 16.2458862,2.39958335 L16.252,2.564 Z" id="MOD"></path>
            </g>
        </g>
        <g id="pulse1" transform="translate(13.000000, 23.000000)">
            <rect id="bg" fill="#A2A0A5" x="0" y="0" width="184" height="107" rx="5"></rect>
            <g id="Header" transform="translate(6.000000, 74.000000)" fill="#F0433F" fill-rule="nonzero">
                <path d="M0.719726562,29 L0.719726562,0.435546875 L22.9365234,0.435546875 C29.2842114,0.435546875 32.4580078,3.35543955 32.4580078,9.1953125 C32.4580078,14.9928675 29.2842114,17.8916016 22.9365234,17.8916016 L7.06738281,17.8916016 L7.06738281,29 L0.719726562,29 Z M26.1103516,11.5439453 L26.1103516,6.78320312 L7.06738281,6.78320312 L7.06738281,11.5439453 L26.1103516,11.5439453 Z M35.6318359,0.435546875 L35.6318359,19.4785156 C35.6318359,25.8262036 38.8056323,29 45.1533203,29 L57.8486328,29 C64.1963208,29 67.3701172,25.8262036 67.3701172,19.4785156 L67.3701172,0.435546875 L61.0224609,0.435546875 L61.0224609,19.4785156 C61.0224609,21.5944116 59.9645288,22.6523438 57.8486328,22.6523438 L45.1533203,22.6523438 C43.0374243,22.6523438 41.9794922,21.5944116 41.9794922,19.4785156 L41.9794922,0.435546875 L35.6318359,0.435546875 Z M70.5439453,0.435546875 L70.5439453,19.4785156 C70.5439453,25.8262036 73.7177417,29 80.0654297,29 L102.282227,29 L102.282227,22.6523438 L80.0654297,22.6523438 C77.9495337,22.6523438 76.8916016,21.5944116 76.8916016,19.4785156 L76.8916016,0.435546875 L70.5439453,0.435546875 Z M105.456055,29 L127.672852,29 C134.02054,29 137.194336,26.0906866 137.194336,20.2719727 C137.194336,14.4532587 134.02054,11.5439453 127.672852,11.5439453 L111.803711,11.5439453 L111.803711,6.78320312 L137.194336,6.78320312 L137.194336,0.435546875 L114.977539,0.435546875 C108.629851,0.435546875 105.456055,3.38717751 105.456055,9.29052734 C105.456055,15.0246055 108.629851,17.8916016 114.977539,17.8916016 L130.84668,17.8916016 L130.84668,22.6523438 L105.456055,22.6523438 L105.456055,29 Z M172.106445,29 L149.889648,29 C143.54196,29 140.368164,25.8262036 140.368164,19.4785156 L140.368164,0.435546875 L172.106445,0.435546875 L172.106445,6.78320312 L146.71582,6.78320312 L146.71582,11.5439453 L172.106445,11.5439453 L172.106445,17.8916016 L146.71582,17.8916016 L146.71582,19.4785156 C146.71582,21.5944116 147.773752,22.6523438 149.889648,22.6523438 L172.106445,22.6523438 L172.106445,29 Z" id="PULSE"></path>
            </g>
            <g id="Out" transform="translate(124.000000, 74.000000)">
                <rect id="bg" fill="#1A1A1A" x="0" y="0" width="40" height="29" rx="5"></rect>
                <path d="M7.03369141,9.35546875 C7.39111507,9.35546875 7.67480364,9.22363413 7.88476562,8.95996094 C8.09472761,8.69628774 8.19970703,8.32129149 8.19970703,7.83496094 C8.19970703,7.35058352 8.09472761,6.97607554 7.88476562,6.71142578 C7.67480364,6.44677602 7.39111507,6.31445312 7.03369141,6.31445312 C6.67626774,6.31445312 6.39111435,6.44628774 6.17822266,6.70996094 C5.96533097,6.97363413 5.85888672,7.34863038 5.85888672,7.83496094 C5.85888672,8.32129149 5.96533097,8.69628774 6.17822266,8.95996094 C6.39111435,9.22363413 6.67626774,9.35546875 7.03369141,9.35546875 Z M9.10205078,7.83496094 C9.10205078,8.61035544 8.88427952,9.2040995 8.44873047,9.61621094 C8.12255696,9.95215012 7.65088199,10.1201172 7.03369141,10.1201172 C6.41650082,10.1201172 5.94482585,9.95215012 5.61865234,9.61621094 C5.18115016,9.2040995 4.96240234,8.61035544 4.96240234,7.83496094 C4.96240234,7.04394136 5.18115016,6.45019729 5.61865234,6.05371094 C5.94482585,5.71777176 6.41650082,5.54980469 7.03369141,5.54980469 C7.65088199,5.54980469 8.12255696,5.71777176 8.44873047,6.05371094 C8.88427952,6.45019729 9.10205078,7.04394136 9.10205078,7.83496094 Z M5.29052734,12.6816406 L6.20751953,12.6816406 L6.20751953,15.3359375 C6.20751953,15.632814 6.24267543,15.8496087 6.31298828,15.9863281 C6.42236383,16.2285168 6.6606427,16.3496094 7.02783203,16.3496094 C7.39306823,16.3496094 7.63037055,16.2285168 7.73974609,15.9863281 C7.81005895,15.8496087 7.84521484,15.632814 7.84521484,15.3359375 L7.84521484,12.6816406 L8.76220703,12.6816406 L8.76220703,15.3359375 C8.76220703,15.7949242 8.69091868,16.1523425 8.54833984,16.4082031 C8.28271352,16.8769555 7.77588265,17.1113281 7.02783203,17.1113281 C6.27978142,17.1113281 5.77197399,16.8769555 5.50439453,16.4082031 C5.36181569,16.1523425 5.29052734,15.7949242 5.29052734,15.3359375 L5.29052734,12.6816406 Z M8.76220703,19.6816406 L8.76220703,20.4462891 L7.47021484,20.4462891 L7.47021484,24 L6.56201172,24 L6.56201172,20.4462891 L5.26416016,20.4462891 L5.26416016,19.6816406 L8.76220703,19.6816406 Z" id="OUT" fill="#F0433F" fill-rule="nonzero"></path>
            </g>
            <g id="Level" transform="translate(6.000000, 74.000000)" fill="#1A1A1A" fill-rule="nonzero">
                <path d="M3.961,5 L3.961,4.02 L1.518,4.02 L1.518,0.1 L0.44,0.1 L0.44,5 L3.961,5 Z M8.504,5 L8.504,4.041 L5.844,4.041 L5.844,3.012 L8.154,3.012 L8.154,2.053 L5.844,2.053 L5.844,1.059 L8.469,1.059 L8.469,0.1 L4.773,0.1 L4.773,5 L8.504,5 Z M13.957,0.1 L12.795,0.1 L11.514,3.551 L10.233,0.1 L9.043,0.1 L11.024,5.035 L11.976,5.035 L13.957,0.1 Z M18.444,5 L18.444,4.041 L15.784,4.041 L15.784,3.012 L18.094,3.012 L18.094,2.053 L15.784,2.053 L15.784,1.059 L18.409,1.059 L18.409,0.1 L14.713,0.1 L14.713,5 L18.444,5 Z M22.924,5 L19.403,5 L19.403,0.1 L20.481,0.1 L20.481,4.02 L22.924,4.02 L22.924,5 Z" id="LEVEL"></path>
            </g>
            <g id="PW" transform="translate(134.000000, 3.000000)">
                <path d="M5.446,2.55 L5.446,2.536 C5.446,1.157 4.382,0.1 2.842,0.1 L0.931,0.1 L0.931,5 L2.842,5 C4.382,5 5.446,3.929 5.446,2.55 Z M4.319,2.564 C4.319,3.432 3.724,4.027 2.842,4.027 L2.009,4.027 L2.009,1.073 L2.842,1.073 C3.67211765,1.073 4.24800692,1.61246021 4.31288622,2.39958335 L4.319,2.564 Z M10.598,2.865 L10.598,0.1 L9.52,0.1 L9.52,2.907 C9.52,3.684 9.121,4.083 8.463,4.083 C7.805,4.083 7.406,3.67 7.406,2.872 L7.406,0.1 L6.328,0.1 L6.328,2.9 C6.328,4.342 7.133,5.077 8.449,5.077 C9.765,5.077 10.598,4.349 10.598,2.865 Z M15.407,1.094 L15.407,0.1 L11.347,0.1 L11.347,1.094 L12.838,1.094 L12.838,5 L13.916,5 L13.916,1.094 L15.407,1.094 Z M20.573,0.1 L18.69,3.047 L18.69,5 L17.612,5 L17.612,3.068 L15.729,0.1 L16.989,0.1 L18.158,2.067 L19.348,0.1 L20.573,0.1 Z" id="DUTY" fill="#1A1A1A" fill-rule="nonzero"></path>
                <path d="M10.5,53.5 L10.5,22.5" id="Line-2" stroke="#000000" stroke-width="3" stroke-linecap="square"></path>
            </g>
            <g id="VOCT" transform="translate(7.000000, 37.000000)" fill="#1A1A1A" fill-rule="nonzero">
                <path d="M3.78808594,0.961914062 L4.88183594,0.961914062 L3.16259766,6 L2.16796875,6 L0.465820312,0.961914062 L1.59033203,0.961914062 L2.68408203,4.78662109 L3.78808594,0.961914062 Z M6.54296875,0.808105469 L7.35302734,0.808105469 L5.39453125,6 L4.59130859,6 L6.54296875,0.808105469 Z M9.68066406,5.24804688 C10.0976583,5.24804688 10.4286283,5.09423982 10.673584,4.78662109 C10.9185396,4.47900237 11.0410156,4.04150674 11.0410156,3.47412109 C11.0410156,2.9090141 10.9185396,2.47208813 10.673584,2.16333008 C10.4286283,1.85457202 10.0976583,1.70019531 9.68066406,1.70019531 C9.26366979,1.70019531 8.93099083,1.85400237 8.68261719,2.16162109 C8.43424355,2.46923982 8.31005859,2.90673544 8.31005859,3.47412109 C8.31005859,4.04150674 8.43424355,4.47900237 8.68261719,4.78662109 C8.93099083,5.09423982 9.26366979,5.24804688 9.68066406,5.24804688 Z M12.09375,3.47412109 C12.09375,4.37874801 11.8396835,5.07144942 11.331543,5.55224609 C10.9510072,5.94417514 10.4007197,6.14013672 9.68066406,6.14013672 C8.96060838,6.14013672 8.41032091,5.94417514 8.02978516,5.55224609 C7.51936594,5.07144942 7.26416016,4.37874801 7.26416016,3.47412109 C7.26416016,2.55126492 7.51936594,1.85856351 8.02978516,1.39599609 C8.41032091,1.00406705 8.96060838,0.808105469 9.68066406,0.808105469 C10.4007197,0.808105469 10.9510072,1.00406705 11.331543,1.39599609 C11.8396835,1.85856351 12.09375,2.55126492 12.09375,3.47412109 Z M12.6782227,3.52197266 C12.6782227,2.64241097 12.9140601,1.96452061 13.3857422,1.48828125 C13.7959005,1.07356563 14.3177052,0.866210938 14.9511719,0.866210938 C15.7988324,0.866210938 16.4186178,1.14420295 16.8105469,1.70019531 C17.0270193,2.01237135 17.1432291,2.32568202 17.1591797,2.64013672 L16.1064453,2.64013672 C16.0380856,2.39859905 15.9503586,2.21630921 15.8432617,2.09326172 C15.6518545,1.87451062 15.3681659,1.76513672 14.9921875,1.76513672 C14.6093731,1.76513672 14.3074555,1.91951343 14.0864258,2.22827148 C13.865396,2.53702954 13.7548828,2.97395551 13.7548828,3.5390625 C13.7548828,4.10416949 13.8716622,4.52742372 14.1052246,4.80883789 C14.338787,5.09025206 14.6355776,5.23095703 14.9956055,5.23095703 C15.3647479,5.23095703 15.6461579,5.11019001 15.8398438,4.86865234 C15.9469406,4.73876888 16.0358069,4.54394661 16.1064453,4.28417969 L17.1489258,4.28417969 C17.0577795,4.83333608 16.8247903,5.2799462 16.4499512,5.62402344 C16.0751121,5.96810068 15.5948923,6.14013672 15.0092773,6.14013672 C14.2846643,6.14013672 13.7150086,5.90771717 13.300293,5.44287109 C12.8855774,4.97574636 12.6782227,4.33545329 12.6782227,3.52197266 Z M21.612793,0.961914062 L21.612793,1.85400391 L20.1054688,1.85400391 L20.1054688,6 L19.0458984,6 L19.0458984,1.85400391 L17.5317383,1.85400391 L17.5317383,0.961914062 L21.612793,0.961914062 Z" id="V/OCT"></path>
            </g>
            <g id="Mod" transform="translate(8.000000, 4.000000)" fill="#1A1A1A" fill-rule="nonzero">
                <path d="M5.738,5 L5.738,0.1 L4.576,0.1 L3.288,2.172 L2,0.1 L0.838,0.1 L0.838,5 L1.895,5 L1.895,1.822 L3.26,3.894 L3.288,3.894 L4.667,1.801 L4.667,5 L5.738,5 Z M11.905,2.55 L11.905,2.536 C11.905,1.143 10.82,0.016 9.308,0.016 C7.85415385,0.016 6.78214941,1.07091864 6.70183819,2.39043815 L6.697,2.564 C6.697,3.957 7.782,5.084 9.294,5.084 C10.806,5.084 11.905,3.943 11.905,2.55 Z M10.778,2.564 C10.778,3.404 10.176,4.09 9.308,4.09 C8.48822222,4.09 7.89322222,3.46561728 7.82964129,2.68860768 L7.824,2.536 C7.824,1.696 8.426,1.01 9.294,1.01 C10.1137778,1.01 10.7087778,1.63438272 10.7723587,2.41139232 L10.778,2.564 Z M17.379,2.55 L17.379,2.536 C17.379,1.157 16.315,0.1 14.775,0.1 L12.864,0.1 L12.864,5 L14.775,5 C16.315,5 17.379,3.929 17.379,2.55 Z M16.252,2.564 C16.252,3.432 15.657,4.027 14.775,4.027 L13.942,4.027 L13.942,1.073 L14.775,1.073 C15.6051176,1.073 16.1810069,1.61246021 16.2458862,2.39958335 L16.252,2.564 Z" id="MOD"></path>
            </g>
        </g>
    </g>
</svg>