<?xml version="1.0" encoding="UTF-8"?>
<svg width="470px" height="70px" viewBox="0 0 470 70" version="1.1" xmlns="http://www.w3.org/2000/svg" xmlns:xlink="http://www.w3.org/1999/xlink">
    <!-- Generator: Sketch 58 (84663) - https://sketch.com -->
    <title>SN76489-Logo</title>
    <desc>Created with Sketch.</desc>
    <g id="SN76489-Logo" stroke="none" stroke-width="1" fill="none" fill-rule="evenodd">
        <path d="M80.92,49.71 L80.92,49.53 C80.92,40.4531461 74.9367555,35.2478033 60.7082599,32.260967 L59.2720318,31.961191 C45.4452002,28.9913377 42.0091806,25.0829079 41.8648256,18.8160723 L41.86,18.21 C41.86,11.64 47.98,6.33 57.25,6.33 C64.18,6.33 70.12,8.31 76.06,13.44 L79.03,9.75 C72.64,4.62 66.61,2.1 57.43,2.1 C45.8585714,2.1 37.3682925,9.1426277 37.1830903,18.3522178 L37.18,18.84 C37.18,28.1726087 43.0368053,33.2848724 57.4466434,36.367476 L59.3479436,36.7613438 C72.7305156,39.5893214 76.1632677,43.3800953 76.2387187,49.7614479 L76.24,50.16 C76.24,57.36 69.76,62.67 60.31,62.67 C51.04,62.67 44.65,59.7 37.72,53.31 L34.66,56.82 C42.22,63.57 49.96,66.9 60.04,66.9 C72.19,66.9 80.92,59.88 80.92,49.71 Z M148.69,66 L148.69,3 L144.19,3 L144.19,57.81 L100.72,3 L96.31,3 L96.31,66 L100.81,66 L100.81,10.02 L145.18,66 L148.69,66 Z M164.17,7.5 L200.71,7.5 L172.09,66 L177.22,66 L205.93,6.42 L205.93,3 L164.17,3 L164.17,7.5 Z M258.67,9.21 C253.18,4.71 247.69,1.92 240.49,1.92 C224.83,1.92 214.84,17.04 214.84,36.12 C214.84,49.26 217.63,55.56 222.85,60.78 C226.63,64.56 232.39,67.08 238.87,67.08 C251.29,67.08 260.92,58.35 260.92,46.29 C260.92,34.95 250.84,27.12 239.23,27.12 C228.97,27.12 223.12,32.7 219.52,38.82 C219.07,19.56 227.35,6.15 240.13,6.15 C246.07,6.15 250.84,8.49 255.7,12.81 L258.67,9.21 Z M256.06,46.47 C256.06,55.47 249.4,62.85 239.23,62.85 C229.06,62.85 221.41,56.01 221.41,46.92 C221.41,39.09 228.61,31.26 238.96,31.26 C248.95,31.26 256.06,37.74 256.06,46.47 Z M307.18,2.55 L271.18,47.1 L272.8,50.61 L306.91,50.61 L306.91,66 L311.41,66 L311.41,50.61 L321.67,50.61 L321.67,46.56 L311.41,46.56 L311.41,2.55 L307.18,2.55 Z M306.91,46.56 L276.85,46.56 L306.91,9.3 L306.91,46.56 Z M378.37,49.08 C378.37,41.61 372.34,36.03 364.42,33.42 C370.63,30.9 376.21,26.22 376.21,18.66 C376.21,8.76 365.86,2.1 354.97,2.1 C344.08,2.1 333.73,8.76 333.73,18.66 C333.73,26.22 339.31,30.9 345.52,33.42 C337.6,36.03 331.57,41.61 331.57,49.08 C331.57,59.61 341.74,66.9 354.97,66.9 C368.2,66.9 378.37,59.61 378.37,49.08 Z M371.35,18.66 C371.35,26.49 363.88,31.71 354.97,31.71 C346.06,31.71 338.59,26.49 338.59,18.66 C338.59,11.46 345.79,6.33 354.97,6.33 C364.15,6.33 371.35,11.46 371.35,18.66 Z M373.51,49.26 C373.51,56.46 366.58,62.67 354.97,62.67 C343.36,62.67 336.43,56.46 336.43,49.26 C336.43,41.34 344.71,35.67 354.97,35.67 C365.23,35.67 373.51,41.34 373.51,49.26 Z M434.89,32.97 C434.89,20.28 432.01,13.35 426.97,8.31 C423.19,4.53 417.7,1.92 410.95,1.92 C397.81,1.92 388.81,11.46 388.81,23.16 C388.81,34.05 397.9,42.51 410.59,42.51 C420.49,42.51 426.61,36.84 430.21,30.36 C430.93,49.26 422.02,62.85 409.33,62.85 C403.57,62.85 398.53,60.42 393.22,55.65 L390.25,59.25 C395.47,63.66 401.41,67.08 409.24,67.08 C423.91,67.08 434.89,52.86 434.89,32.97 Z M428.32,22.26 C428.32,30.27 421.48,38.37 410.77,38.37 C400.78,38.37 393.67,31.89 393.67,22.98 C393.67,14.16 400.06,6.15 410.41,6.15 C420.85,6.15 428.32,13.26 428.32,22.26 Z" id="SN76489" fill="#B3B3B3" fill-rule="nonzero"></path>
    </g>
</svg>