<?xml version="1.0" encoding="UTF-8"?>
<svg width="470px" height="70px" viewBox="0 0 470 70" version="1.1" xmlns="http://www.w3.org/2000/svg" xmlns:xlink="http://www.w3.org/1999/xlink">
    <!-- Generator: Sketch 58 (84663) - https://sketch.com -->
    <title>Logo</title>
    <desc>Created with Sketch.</desc>
    <g id="Logo" stroke="none" stroke-width="1" fill="none" fill-rule="evenodd">
        <path d="M158.720605,36.359375 C160.947179,31.7890396 163.38612,28.3613396 166.0375,26.0761719 C168.68888,23.7910042 171.552621,22.6484375 174.628809,22.6484375 C178.964768,22.6484375 182.634165,24.4575014 185.637109,28.0756836 C188.640054,31.6938657 190.141504,36.0956772 190.141504,41.28125 C190.141504,46.9062781 188.515544,51.7621866 185.263574,55.8491211 C182.011605,59.9360556 178.144456,61.9794922 173.662012,61.9794922 C170.966686,61.9794922 168.18351,60.8003048 165.312402,58.4418945 C162.441294,56.0834843 159.496988,52.5312737 156.479395,47.7851563 C154.223524,52.3554916 151.769935,55.7831917 149.118555,58.0683594 C146.467174,60.3535271 143.618082,61.4960938 140.571191,61.4960938 C136.264529,61.4960938 132.602456,59.6870298 129.584863,56.0688477 C126.56727,52.4506655 125.058496,48.0488541 125.058496,42.8632813 C125.058496,37.2382531 126.684456,32.3823447 129.936426,28.2954102 C133.188395,24.2084757 137.055544,22.1650391 141.537988,22.1650391 C144.204017,22.1650391 146.972544,23.3515506 149.843652,25.7246094 C152.71476,28.0976681 155.673715,31.6425545 158.720605,36.359375 Z M153.666895,43.9619141 L152.656152,42.5556641 L151.723512,41.3027669 C148.793014,37.3969574 146.584375,34.7604133 145.097559,33.3930664 C143.456925,31.8842698 141.830965,31.1298828 140.219629,31.1298828 C137.875867,31.1298828 135.876375,32.345691 134.221094,34.7773438 C132.565812,37.2089965 131.738184,40.1679513 131.738184,43.6542969 C131.738184,46.9648603 132.646378,49.7260632 134.462793,51.9379883 C136.279208,54.1499134 138.549693,55.2558594 141.274316,55.2558594 C143.325108,55.2558594 145.383193,54.3183688 147.448633,52.4433594 C149.514073,50.56835 151.586806,47.7412298 153.666895,43.9619141 Z M161.533105,40.1826172 L162.587793,41.5888672 C165.37101,45.39748 167.795302,48.2538967 169.860742,50.1582031 C171.926182,52.0625095 173.632708,53.0146484 174.980371,53.0146484 C177.35343,53.0146484 179.360246,51.7988403 181.000879,49.3671875 C182.641512,46.9355347 183.461816,43.9765799 183.461816,40.4902344 C183.461816,37.1796709 182.553622,34.4184681 180.737207,32.206543 C178.920792,29.9946178 176.650307,28.8886719 173.925684,28.8886719 C171.845595,28.8886719 169.772862,29.8334866 167.707422,31.7231445 C165.641982,33.6128024 163.583897,36.4325984 161.533105,40.1826172 Z M202.237363,50.45 L202.327363,39.56 C202.327363,37.8199913 202.70236,36.5600039 203.452363,35.78 C204.202367,34.9999961 205.477354,34.61 207.277363,34.61 L217.717363,34.61 C219.997375,34.61 221.887356,35.314993 223.387363,36.725 C224.887371,38.135007 225.637363,40.0699877 225.637363,42.53 L225.637363,45.32 L215.827363,45.32 L215.827363,39.92 L212.317363,39.92 L212.317363,48.38 L223.027363,48.38 C223.927368,48.38 224.542362,48.6049977 224.872363,49.055 C225.202365,49.5050022 225.367363,50.0599967 225.367363,50.72 L225.367363,65.75 C225.367363,66.7700051 225.097366,67.3999988 224.557363,67.64 C224.017361,67.8800012 223.507366,68 223.027363,68 L209.887363,68 C207.607352,68 205.717371,67.295007 204.217363,65.885 C202.717356,64.474993 201.967363,62.5400123 201.967363,60.08 L201.967363,57.29 L211.777363,57.29 L211.777363,62.69 L215.107363,62.69 L215.107363,53.69 L205.387363,53.69 C204.487359,53.69 203.737366,53.4500024 203.137363,52.97 C202.53736,52.4899976 202.237363,51.650006 202.237363,50.45 Z M253.087363,57.29 L253.087363,60.08 C253.087363,62.5400123 252.337371,64.474993 250.837363,65.885 C249.337356,67.2950071 247.447375,68 245.167363,68 L232.927363,68 C231.727357,68 230.842366,67.7300027 230.272363,67.19 C229.70236,66.6499973 229.417363,65.6600072 229.417363,64.22 L229.417363,4.91 L239.857363,4.91 L239.857363,21.65 L249.487363,21.65 L249.487363,27.05 L239.857363,27.05 L239.857363,62.69 L243.277363,62.69 L243.277363,57.29 L253.087363,57.29 Z M280.177363,60.53 C280.177363,62.9900123 279.48737,64.8499937 278.107363,66.11 C276.727356,67.3700063 274.897375,68 272.617363,68 L259.477363,68 C258.997361,68 258.487366,67.8800012 257.947363,67.64 C257.407361,67.3999988 257.137363,66.7700051 257.137363,65.75 L257.137363,50.72 C257.137363,50.0599967 257.302362,49.5050022 257.632363,49.055 C257.962365,48.6049977 258.577359,48.38 259.477363,48.38 L270.187363,48.38 L270.187363,39.92 L266.677363,39.92 L266.677363,45.32 L256.867363,45.32 L256.867363,42.53 C256.867363,40.0699877 257.617356,38.135007 259.117363,36.725 C260.617371,35.314993 262.507352,34.61 264.787363,34.61 L275.227363,34.61 C277.027372,34.61 278.30236,34.9999961 279.052363,35.78 C279.802367,36.5600039 280.177363,37.8199913 280.177363,39.56 L280.177363,60.53 Z M267.397363,62.69 L270.727363,62.69 L270.727363,53.69 L267.397363,53.69 L267.397363,62.69 Z M286.117363,68 L286.117363,27.23 L296.557363,27.23 L296.557363,68 L286.117363,68 Z M286.027363,12.47 L296.557363,12.47 L296.557363,23 L286.027363,23 L286.027363,12.47 Z M316.717363,43.79 L316.717363,38.39 L313.297363,38.39 L313.297363,68 L302.857363,68 L302.857363,33.08 L318.607363,33.08 C320.887375,33.08 322.777356,33.784993 324.277363,35.195 C325.777371,36.605007 326.527363,38.5399877 326.527363,41 L326.527363,43.79 L316.717363,43.79 Z M329.587363,50.45 L329.677363,39.56 C329.677363,37.8199913 330.05236,36.5600039 330.802363,35.78 C331.552367,34.9999961 332.827354,34.61 334.627363,34.61 L345.067363,34.61 C347.347375,34.61 349.237356,35.314993 350.737363,36.725 C352.237371,38.135007 352.987363,40.0699877 352.987363,42.53 L352.987363,45.32 L343.177363,45.32 L343.177363,39.92 L339.667363,39.92 L339.667363,48.38 L350.377363,48.38 C351.277368,48.38 351.892362,48.6049977 352.222363,49.055 C352.552365,49.5050022 352.717363,50.0599967 352.717363,50.72 L352.717363,65.75 C352.717363,66.7700051 352.447366,67.3999988 351.907363,67.64 C351.367361,67.8800012 350.857366,68 350.377363,68 L337.237363,68 C334.957352,68 333.067371,67.295007 331.567363,65.885 C330.067356,64.474993 329.317363,62.5400123 329.317363,60.08 L329.317363,57.29 L339.127363,57.29 L339.127363,62.69 L342.457363,62.69 L342.457363,53.69 L332.737363,53.69 C331.837359,53.69 331.087366,53.4500024 330.487363,52.97 C329.88736,52.4899976 329.587363,51.650006 329.587363,50.45 Z" id="∞Stairs" fill="#EA4F4F" fill-rule="nonzero"></path>
    </g>
</svg>