<?xml version="1.0" encoding="UTF-8"?>
<svg width="470px" height="70px" viewBox="0 0 470 70" version="1.1" xmlns="http://www.w3.org/2000/svg" xmlns:xlink="http://www.w3.org/1999/xlink">
    <!-- Generator: Sketch 58 (84663) - https://sketch.com -->
    <title>S-SMP-ADSR-Logo</title>
    <desc>Created with Sketch.</desc>
    <g id="S-SMP-ADSR-Logo" stroke="none" stroke-width="1" fill="none" fill-rule="evenodd">
        <path d="M117.030273,35.453125 L122.379883,35.453125 L120.639648,45.3466797 L120.639648,45.5078125 C120.639648,45.8730487 120.768553,46.1953111 121.026367,46.4746094 C121.284181,46.7539076 121.595701,46.8935547 121.960938,46.8935547 L124.925781,46.8935547 C125.39844,46.8935547 125.828123,46.7431656 126.214844,46.4423828 C126.623049,46.1201156 126.870117,45.7334007 126.956055,45.2822266 L128.116211,38.7724609 C128.15918,38.5791006 128.180664,38.3750011 128.180664,38.1601562 C128.180664,37.3621612 127.847221,36.341882 127.180326,35.0992917 L125.754331,32.4684549 L125.754331,32.4684549 L124.28125,29.7167969 C122.60546,26.558578 121.638673,24.7324243 121.380859,24.2382812 C120.564449,22.6269451 120.15625,21.0478593 120.15625,19.5009766 L120.15625,19.2109375 C120.15625,18.8457013 120.188476,18.4697285 120.25293,18.0830078 L121.638672,10.0908203 C121.853517,8.8876893 122.455073,7.88867585 123.443359,7.09375 C124.388677,6.29882415 125.473627,5.90136719 126.698242,5.90136719 L134.432617,5.90136719 C135.54981,5.90136719 136.516597,6.30956623 137.333008,7.12597656 C138.170903,7.94238689 138.589844,8.95214242 138.589844,10.1552734 C138.589844,10.4345717 138.56836,10.6601554 138.525391,10.8320312 L136.495117,22.1757812 L131.081055,22.1757812 L132.789062,12.6367188 C132.832031,12.5722653 132.853516,12.4863287 132.853516,12.3789062 C132.853516,12.056639 132.713869,11.7558608 132.43457,11.4765625 C132.155272,11.2402332 131.83301,11.1220703 131.467773,11.1220703 L128.50293,11.1220703 C128.030271,11.1220703 127.61133,11.2724594 127.246094,11.5732422 C126.880858,11.8525405 126.655274,12.2070291 126.569336,12.6367188 L125.634766,17.7607422 C125.570312,18.1474629 125.538086,18.5449198 125.538086,18.953125 C125.538086,20.4570388 126.032222,22.0146404 127.020508,23.6259766 L128.133562,25.4507457 C131.083651,30.3129604 132.635471,33.099211 132.789062,33.8095703 C133.347659,34.8408255 133.626953,35.9687439 133.626953,37.1933594 C133.605469,37.7519559 133.541016,38.3427703 133.433594,38.9658203 L131.790039,47.8925781 C131.575194,49.0957091 130.98438,50.1054647 130.017578,50.921875 C129.050776,51.7168008 127.944342,52.1142578 126.698242,52.1142578 L118.996094,52.1142578 C117.857416,52.1142578 116.901371,51.7060588 116.12793,50.8896484 C115.375973,50.0732381 115,49.0742247 115,47.8925781 L115,47.1513672 L117.030273,35.453125 Z M139.84668,30.7480469 L156.024414,30.7480469 L154.767578,36.7099609 L138.589844,36.7099609 L139.84668,30.7480469 Z M159.666016,35.453125 L165.015625,35.453125 L163.275391,45.3466797 L163.275391,45.5078125 C163.275391,45.8730487 163.404296,46.1953111 163.662109,46.4746094 C163.919923,46.7539076 164.231443,46.8935547 164.59668,46.8935547 L167.561523,46.8935547 C168.034182,46.8935547 168.463865,46.7431656 168.850586,46.4423828 C169.258791,46.1201156 169.505859,45.7334007 169.591797,45.2822266 L170.751953,38.7724609 C170.794922,38.5791006 170.816406,38.3750011 170.816406,38.1601562 C170.816406,37.3621612 170.482963,36.341882 169.816068,35.0992917 L168.832472,33.29147 L168.832472,33.29147 L166.580394,29.0823791 C165.111225,26.3130301 164.256635,24.6983455 164.016602,24.2382812 C163.200191,22.6269451 162.791992,21.0478593 162.791992,19.5009766 L162.791992,19.2109375 C162.791992,18.8457013 162.824218,18.4697285 162.888672,18.0830078 L164.274414,10.0908203 C164.489259,8.8876893 165.090815,7.88867585 166.079102,7.09375 C167.024419,6.29882415 168.109369,5.90136719 169.333984,5.90136719 L177.068359,5.90136719 C178.185552,5.90136719 179.15234,6.30956623 179.96875,7.12597656 C180.806645,7.94238689 181.225586,8.95214242 181.225586,10.1552734 C181.225586,10.4345717 181.204102,10.6601554 181.161133,10.8320312 L179.130859,22.1757812 L173.716797,22.1757812 L175.424805,12.6367188 C175.467774,12.5722653 175.489258,12.4863287 175.489258,12.3789062 C175.489258,12.056639 175.349611,11.7558608 175.070312,11.4765625 C174.791014,11.2402332 174.468752,11.1220703 174.103516,11.1220703 L171.138672,11.1220703 C170.666013,11.1220703 170.247072,11.2724594 169.881836,11.5732422 C169.5166,11.8525405 169.291016,12.2070291 169.205078,12.6367188 L168.270508,17.7607422 C168.206054,18.1474629 168.173828,18.5449198 168.173828,18.953125 C168.173828,20.4570388 168.667964,22.0146404 169.65625,23.6259766 L171.181233,26.1312256 C173.864015,30.5736104 175.278527,33.1330377 175.424805,33.8095703 C175.983401,34.8408255 176.262695,35.9687439 176.262695,37.1933594 C176.241211,37.7519559 176.176758,38.3427703 176.069336,38.9658203 L174.425781,47.8925781 C174.210936,49.0957091 173.620122,50.1054647 172.65332,50.921875 C171.686519,51.7168008 170.580084,52.1142578 169.333984,52.1142578 L161.631836,52.1142578 C160.493158,52.1142578 159.537113,51.7060588 158.763672,50.8896484 C158.011715,50.0732381 157.635742,49.0742247 157.635742,47.8925781 L157.635742,47.1513672 L159.666016,35.453125 Z M185.833984,5.90136719 L192.472656,5.90136719 L192.118164,39.1914062 L203.268555,5.90136719 L210.938477,5.90136719 L202.55957,52.1142578 L196.984375,52.1142578 L202.108398,23.2714844 L192.375977,52.1142578 L187.670898,52.1142578 L188.025391,22.9169922 L182.998047,52.1142578 L177.422852,52.1142578 L185.833984,5.90136719 Z M214.805664,5.90136719 L226.955078,5.90136719 C228.093756,5.90136719 229.071285,6.32030831 229.887695,7.15820312 C230.682621,7.95312897 231.080078,8.86620578 231.080078,9.89746094 C231.080078,10.1767592 231.047852,10.4882795 230.983398,10.8320312 L228.018555,27.203125 C227.80371,28.4277405 227.223638,29.437496 226.27832,30.2324219 C225.333003,31.0273477 224.248053,31.4248047 223.023438,31.4248047 L215.772461,31.4248047 L212.001953,52.1464844 L206.426758,52.1464844 L214.805664,5.90136719 Z M221.154297,26.2041016 C221.626955,26.2041016 222.045897,26.0537124 222.411133,25.7529297 C222.754885,25.4736314 222.969726,25.1084007 223.055664,24.6572266 L225.34375,12.6367188 L225.34375,12.4433594 C225.34375,12.0566387 225.214845,11.7343763 224.957031,11.4765625 C224.699217,11.2402332 224.387697,11.1220703 224.022461,11.1220703 L219.414062,11.1220703 L216.610352,26.2041016 L221.154297,26.2041016 Z M250.867188,4 L254.895508,4 L253.440754,6.01180232 C249.464645,11.5490137 246.72693,15.7016206 245.227539,18.4697266 C242.713855,23.1748282 240.801764,28.6103207 239.491211,34.7763672 C238.159173,41.0068671 237.815426,46.7001695 238.459961,51.8564453 C238.868166,55.0361487 240.017569,59.6122748 241.908203,65.5849609 L238.008789,65.5849609 L237.108351,63.4804611 C235.589437,59.9120938 234.620651,57.5302777 234.201971,56.3349615 L234.157715,56.2070312 C233.695798,54.8535089 233.271486,53.0166132 232.884766,50.6962891 C232.347654,47.5165857 232.229491,44.1220884 232.530273,40.5126953 C232.702149,38.6435453 232.959959,36.86036 233.303711,35.1630859 C234.657233,28.8036791 236.85936,23.1426029 239.910156,18.1796875 C241.865244,15.0214686 245.517551,10.2949533 250.867188,4 Z M248.192383,52.1142578 L263.435547,5.90136719 L268.978516,5.90136719 L267.52832,52.1142578 L262.275391,52.1142578 L262.662109,44.5087891 L256.345703,44.5087891 L254.089844,52.1142578 L248.192383,52.1142578 Z M262.919922,39.2880859 L263.951172,18.8242188 L257.892578,39.2880859 L262.919922,39.2880859 Z M270.654297,52.1142578 L279.033203,5.90136719 L291.569336,5.90136719 C292.729498,5.90136719 293.717769,6.32030831 294.53418,7.15820312 C295.307621,7.95312897 295.694336,8.8554637 295.694336,9.86523438 C295.694336,10.1445326 295.66211,10.466795 295.597656,10.8320312 L288.926758,47.8925781 C288.711913,49.0957091 288.131841,50.1054647 287.186523,50.921875 C286.241206,51.7168008 285.156256,52.1142578 283.931641,52.1142578 L270.654297,52.1142578 Z M282.0625,46.8935547 C282.535159,46.8935547 282.9541,46.7431656 283.319336,46.4423828 C283.663088,46.1416001 283.877929,45.7548852 283.963867,45.2822266 L289.925781,12.6367188 C289.947266,12.5722653 289.958008,12.4970707 289.958008,12.4111328 C289.958008,12.0458966 289.829103,11.7343763 289.571289,11.4765625 C289.313475,11.2402332 288.991213,11.1220703 288.604492,11.1220703 L283.609375,11.1220703 L277.067383,46.8935547 L282.0625,46.8935547 Z M295.307617,35.453125 L300.657227,35.453125 L298.916992,45.3466797 L298.916992,45.5078125 C298.916992,45.8730487 299.045897,46.1953111 299.303711,46.4746094 C299.561525,46.7539076 299.873045,46.8935547 300.238281,46.8935547 L303.203125,46.8935547 C303.675784,46.8935547 304.105467,46.7431656 304.492188,46.4423828 C304.900393,46.1201156 305.147461,45.7334007 305.233398,45.2822266 L306.393555,38.7724609 C306.436524,38.5791006 306.458008,38.3750011 306.458008,38.1601562 C306.458008,37.3621612 306.124565,36.341882 305.45767,35.0992917 L303.779011,31.9974516 L303.779011,31.9974516 L302.061283,28.7794254 C300.690366,26.1950076 299.889347,24.6813061 299.658203,24.2382812 C298.841793,22.6269451 298.433594,21.0478593 298.433594,19.5009766 L298.433594,19.2109375 C298.433594,18.8457013 298.46582,18.4697285 298.530273,18.0830078 L299.916016,10.0908203 C300.13086,8.8876893 300.732417,7.88867585 301.720703,7.09375 C302.66602,6.29882415 303.75097,5.90136719 304.975586,5.90136719 L312.709961,5.90136719 C313.827154,5.90136719 314.793941,6.30956623 315.610352,7.12597656 C316.448246,7.94238689 316.867188,8.95214242 316.867188,10.1552734 C316.867188,10.4345717 316.845703,10.6601554 316.802734,10.8320312 L314.772461,22.1757812 L309.358398,22.1757812 L311.066406,12.6367188 C311.109375,12.5722653 311.130859,12.4863287 311.130859,12.3789062 C311.130859,12.056639 310.991212,11.7558608 310.711914,11.4765625 C310.432616,11.2402332 310.110353,11.1220703 309.745117,11.1220703 L306.780273,11.1220703 C306.307615,11.1220703 305.888674,11.2724594 305.523438,11.5732422 C305.158201,11.8525405 304.932618,12.2070291 304.84668,12.6367188 L303.912109,17.7607422 C303.847656,18.1474629 303.81543,18.5449198 303.81543,18.953125 C303.81543,20.4570388 304.309565,22.0146404 305.297852,23.6259766 L306.822835,26.1312256 C309.505617,30.5736104 310.920129,33.1330377 311.066406,33.8095703 C311.625003,34.8408255 311.904297,35.9687439 311.904297,37.1933594 C311.882812,37.7519559 311.81836,38.3427703 311.710938,38.9658203 L310.067383,47.8925781 C309.852538,49.0957091 309.261724,50.1054647 308.294922,50.921875 C307.32812,51.7168008 306.221686,52.1142578 304.975586,52.1142578 L297.273438,52.1142578 C296.13476,52.1142578 295.178715,51.7060588 294.405273,50.8896484 C293.653317,50.0732381 293.277344,49.0742247 293.277344,47.8925781 L293.277344,47.1513672 L295.307617,35.453125 Z M313.09668,52.1142578 L321.378906,5.90136719 L333.786133,5.90136719 C334.903326,5.90136719 335.870113,6.30956623 336.686523,7.12597656 C337.502934,7.92090241 337.932617,8.8984317 337.975586,10.0585938 L337.84668,10.8320312 L337.84668,10.8320312 L335.268555,25.3984375 C334.903318,27.4179788 333.710948,28.7070285 331.691406,29.265625 C332.443363,29.5449233 333.012693,30.039059 333.399414,30.7480469 C333.700197,31.3066434 333.850586,31.9296841 333.850586,32.6171875 C333.850586,32.7675789 333.839844,32.9287101 333.818359,33.1005859 C333.818359,33.4228532 333.807617,33.669921 333.786133,33.8417969 L330.43457,52.1142578 L324.762695,52.1142578 L328.146484,33.1972656 L328.146484,33.0361328 C328.146484,32.6708966 328.017579,32.3593763 327.759766,32.1015625 C327.501952,31.8437487 327.190432,31.7148438 326.825195,31.7148438 L322.345703,31.7148438 L318.736328,52.1142578 L313.09668,52.1142578 Z M323.344727,26.2041016 L327.824219,26.2041016 C328.296877,26.2041016 328.715818,26.0429704 329.081055,25.7207031 C329.424806,25.4199204 329.639648,25.0439476 329.725586,24.5927734 L331.916992,12.6367188 L331.916992,12.4433594 C331.916992,12.0566387 331.788087,11.7343763 331.530273,11.4765625 C331.250975,11.2402332 330.917971,11.1220703 330.53125,11.1220703 L326.083984,11.1220703 L323.344727,26.2041016 Z M335.526367,65.5849609 L331.530273,65.5849609 L332.612633,64.0800314 C336.829179,58.1884619 339.691023,53.8346745 341.198242,51.0185547 C343.668958,46.399391 345.570306,40.9853826 346.902344,34.7763672 C348.212897,28.5673518 348.545902,22.8847914 347.901367,17.7285156 C347.514647,14.5488122 346.375986,9.97268611 344.485352,4 L348.384766,4 L350.146837,8.2775769 C351.248906,10.9760538 351.959476,12.7745612 352.27856,13.6731281 L352.316406,13.7807617 C352.746096,15.0161195 353.143553,16.7187392 353.508789,18.8886719 C353.959963,21.5742322 354.126465,24.227526 354.008301,26.8486328 C353.890136,29.4697397 353.573245,31.9941285 353.057617,34.421875 C351.704095,40.7812818 349.491226,46.4531001 346.418945,51.4375 C344.463857,54.6386879 340.833034,59.354461 335.526367,65.5849609 Z" id="S-SMP(ADSR)" fill="#FF5050" fill-rule="nonzero"></path>
    </g>
</svg>