<?xml version="1.0" encoding="UTF-8"?>
<svg width="470px" height="70px" viewBox="0 0 470 70" version="1.1" xmlns="http://www.w3.org/2000/svg" xmlns:xlink="http://www.w3.org/1999/xlink">
    <!-- Generator: Sketch 58 (84663) - https://sketch.com -->
    <title>S-SMP-ADSR-Logo</title>
    <desc>Created with Sketch.</desc>
    <g id="S-SMP-ADSR-Logo" stroke="none" stroke-width="1" fill="none" fill-rule="evenodd">
        <path d="M41.521,46.054 L41.521,45.922 C41.521,39.2861714 37.1603127,35.4719641 26.7954352,33.2783567 L26.341,33.184 C15.385,30.94 12.877,27.97 12.877,23.086 L12.877,22.954 C12.877,18.136 17.365,14.242 24.163,14.242 C29.245,14.242 33.601,15.694 37.957,19.456 L40.135,16.75 C35.449,12.988 31.027,11.14 24.295,11.14 C15.8341667,11.14 9.61961227,16.2743519 9.44861786,22.9989266 L9.445,23.416 C9.445,30.412 13.933,34.174 25.021,36.418 C35.3671972,38.5002535 38.0149218,41.2882004 38.0874532,46.0468477 L38.089,46.384 C38.089,51.664 33.337,55.558 26.407,55.558 C19.609,55.558 14.923,53.38 9.841,48.694 L7.597,51.268 C13.141,56.218 18.817,58.66 26.209,58.66 C35.119,58.66 41.521,53.512 41.521,46.054 Z M68.251,40.246 L68.251,36.55 L50.563,36.55 L50.563,40.246 L68.251,40.246 Z M110.689,46.054 L110.689,45.922 C110.689,39.2861714 106.328313,35.4719641 95.9634352,33.2783567 L95.509,33.184 C84.553,30.94 82.045,27.97 82.045,23.086 L82.045,22.954 C82.045,18.136 86.533,14.242 93.331,14.242 C98.413,14.242 102.769,15.694 107.125,19.456 L109.303,16.75 C104.617,12.988 100.195,11.14 93.463,11.14 C85.0021667,11.14 78.7876123,16.2743519 78.6166179,22.9989266 L78.613,23.416 C78.613,30.412 83.101,34.174 94.189,36.418 C104.535197,38.5002535 107.182922,41.2882004 107.255453,46.0468477 L107.257,46.384 C107.257,51.664 102.505,55.558 95.575,55.558 C88.777,55.558 84.091,53.38 79.009,48.694 L76.765,51.268 C82.309,56.218 87.985,58.66 95.377,58.66 C104.287,58.66 110.689,53.512 110.689,46.054 Z M165.535,58 L165.535,11.8 L162.301,11.8 L143.755,39.124 L125.209,11.8 L121.975,11.8 L121.975,58 L125.275,58 L125.275,17.872 L143.557,44.47 L143.821,44.47 L162.103,17.872 L162.103,58 L165.535,58 Z M213.187,26.056 L213.187,25.924 C213.187,17.014 206.191,11.8 196.027,11.8 L179.263,11.8 L179.263,58 L182.695,58 L182.695,40.774 L195.169,40.774 C204.805,40.774 213.187,35.758 213.187,26.056 Z M209.755,26.254 C209.755,33.118 203.947,37.606 195.367,37.606 L182.695,37.606 L182.695,14.968 L195.763,14.968 C203.956706,14.968 209.587488,18.6842396 209.751327,25.8010646 L209.755,26.254 Z M240.841,12.988 L239.455,10.81 C227.839,17.41 221.173,27.112 221.173,39.058 C221.173,51.004 227.839,60.706 239.455,67.306 L240.841,65.128 C230.413,58.726 224.605,50.08 224.605,39.058 C224.605,28.036 230.413,19.39 240.841,12.988 Z M294.103,58 L272.587,11.47 L269.287,11.47 L247.771,58 L251.335,58 L257.209,45.064 L284.467,45.064 L290.341,58 L294.103,58 Z M283.015,41.962 L258.661,41.962 L270.871,15.232 L283.015,41.962 Z M343.801,34.9 L343.801,34.768 C343.801,21.766 333.769,11.8 319.249,11.8 L303.871,11.8 L303.871,58 L319.249,58 C333.769,58 343.801,47.902 343.801,34.9 Z M340.237,35.032 C340.237,46.054 332.119,54.832 319.249,54.832 L307.303,54.832 L307.303,14.968 L319.249,14.968 C331.98632,14.968 340.069114,23.7598818 340.234415,34.5617936 L340.237,35.032 Z M385.777,46.054 L385.777,45.922 C385.777,39.2861714 381.416313,35.4719641 371.051435,33.2783567 L370.597,33.184 C359.789054,30.9703243 357.202327,28.0501377 357.134389,23.2829544 L357.133,22.954 C357.133,18.136 361.621,14.242 368.419,14.242 C373.501,14.242 377.857,15.694 382.213,19.456 L384.391,16.75 C379.705,12.988 375.283,11.14 368.551,11.14 C360.090167,11.14 353.875612,16.2743519 353.704618,22.9989266 L353.701,23.416 C353.701,30.412 358.189,34.174 369.277,36.418 C379.623197,38.5002535 382.270922,41.2882004 382.343453,46.0468477 L382.345,46.384 C382.345,51.664 377.593,55.558 370.663,55.558 C363.865,55.558 359.179,53.38 354.097,48.694 L351.853,51.268 C357.397,56.218 363.073,58.66 370.465,58.66 C379.375,58.66 385.777,53.512 385.777,46.054 Z M434.683,58 L419.437,38.266 C427.105185,37.2262462 432.789839,32.9232649 432.962936,25.4200566 L432.967,24.934 C432.967,17.212 426.433,11.8 416.467,11.8 L397.063,11.8 L397.063,58 L400.495,58 L400.495,38.86 L415.609,38.86 L430.327,58 L434.683,58 Z M429.535,25.198 C429.535,31.864 423.793,35.758 416.071,35.758 L400.495,35.758 L400.495,14.968 L416.269,14.968 C424.522046,14.968 429.383895,18.7431063 429.531537,24.7813075 L429.535,25.198 Z M441.943,12.988 L443.329,10.81 C454.945,17.41 461.611,27.112 461.611,39.058 C461.611,51.004 454.945,60.706 443.329,67.306 L441.943,65.128 C452.371,58.726 458.179,50.08 458.179,39.058 C458.179,28.036 452.371,19.39 441.943,12.988 Z" id="S-SMP(ADSR)" fill="#B3B3B3" fill-rule="nonzero"></path>
    </g>
</svg>