<?xml version="1.0" encoding="UTF-8"?>
<svg width="470px" height="70px" viewBox="0 0 470 70" version="1.1" xmlns="http://www.w3.org/2000/svg" xmlns:xlink="http://www.w3.org/1999/xlink">
    <!-- Generator: Sketch 58 (84663) - https://sketch.com -->
    <title>S-SMP-Echo-Logo</title>
    <desc>Created with Sketch.</desc>
    <g id="S-SMP-Echo-Logo" stroke="none" stroke-width="1" fill="none" fill-rule="evenodd">
        <path d="M46.28,46.33 L46.28,46.19 C46.28,39.1478082 41.6495177,35.1018108 30.6423278,32.7759201 L30.18,32.68 C18.56,30.3 15.9,27.15 15.9,21.97 L15.9,21.83 C15.9,16.72 20.66,12.59 27.87,12.59 C33.26,12.59 37.88,14.13 42.5,18.12 L44.81,15.25 C39.84,11.26 35.15,9.3 28.01,9.3 C19.0297368,9.3 12.4354242,14.7536011 12.2634444,21.8935131 L12.26,22.32 C12.26,29.6423684 16.8955609,33.6244062 28.3194201,36.0152123 L29.6525875,36.2908692 C39.9111782,38.4816489 42.5676749,41.4164671 42.6385306,46.333954 L42.64,46.68 C42.64,52.28 37.6,56.41 30.25,56.41 C23.04,56.41 18.07,54.1 12.68,49.13 L10.3,51.86 C16.18,57.11 22.2,59.7 30.04,59.7 C39.49,59.7 46.28,54.24 46.28,46.33 Z M74.63,40.17 L74.63,36.25 L55.87,36.25 L55.87,40.17 L74.63,40.17 Z M119.64,46.33 L119.64,46.19 C119.64,39.1478082 115.009518,35.1018108 104.002328,32.7759201 L103.54,32.68 C91.92,30.3 89.26,27.15 89.26,21.97 L89.26,21.83 C89.26,16.72 94.02,12.59 101.23,12.59 C106.62,12.59 111.24,14.13 115.86,18.12 L118.17,15.25 C113.2,11.26 108.51,9.3 101.37,9.3 C92.3897368,9.3 85.7954242,14.7536011 85.6234444,21.8935131 L85.62,22.32 C85.62,29.6423684 90.2555609,33.6244062 101.67942,36.0152123 L103.012588,36.2908692 C113.271178,38.4816489 115.927675,41.4164671 115.998531,46.333954 L116,46.68 C116,52.28 110.96,56.41 103.61,56.41 C96.4,56.41 91.43,54.1 86.04,49.13 L83.66,51.86 C89.54,57.11 95.56,59.7 103.4,59.7 C112.85,59.7 119.64,54.24 119.64,46.33 Z M177.81,59 L177.81,10 L174.38,10 L154.71,38.98 L135.04,10 L131.61,10 L131.61,59 L135.11,59 L135.11,16.44 L154.5,44.65 L154.78,44.65 L174.17,16.44 L174.17,59 L177.81,59 Z M228.35,25.12 L228.35,24.98 C228.35,15.53 220.93,10 210.15,10 L192.37,10 L192.37,59 L196.01,59 L196.01,40.73 L209.24,40.73 C219.46,40.73 228.35,35.41 228.35,25.12 Z M224.71,25.33 C224.71,32.61 218.55,37.37 209.45,37.37 L196.01,37.37 L196.01,13.36 L209.87,13.36 C218.565775,13.36 224.539867,17.3064392 224.706426,24.863899 L224.71,25.33 Z M257.68,11.26 L256.21,8.95 C243.89,15.95 236.82,26.24 236.82,38.91 C236.82,51.58 243.89,61.87 256.21,68.87 L257.68,66.56 C246.62,59.77 240.46,50.6 240.46,38.91 C240.46,27.22 246.62,18.05 257.68,11.26 Z M304.44,59 L304.44,55.64 L272.87,55.64 L272.87,35.97 L300.94,35.97 L300.94,32.61 L272.87,32.61 L272.87,13.36 L304.09,13.36 L304.09,10 L269.23,10 L269.23,59 L304.44,59 Z M344.97,52.77 L342.59,50.67 C339.58,54.03 335.66,56.62 330.62,56.62 C322.533671,56.62 316.085079,49.9325717 315.92312,41.4761104 L315.92,41.01 C315.92,32.47 322.22,25.68 330.34,25.68 C335.66,25.68 339.16,28.41 342.24,31.56 L344.69,29.04 L344.236875,28.5760557 C340.951689,25.2723062 336.831333,22.46 330.41,22.46 C320.302308,22.46 312.385655,30.950279 312.212883,40.8204916 L312.21,41.29 C312.21,51.3 320.12,59.84 330.41,59.84 C336.99,59.84 341.33,56.9 344.97,52.77 Z M385.22,59 L385.22,37.16 C385.22,28.62 379.97,22.46 370.94,22.46 C364.43,22.46 360.44,25.75 358.06,29.95 L358.06,7.9 L354.63,7.9 L354.63,59 L358.06,59 L358.06,38.35 C358.06,30.93 363.45,25.61 370.45,25.61 C377.66,25.61 381.79,30.44 381.79,37.79 L381.79,59 L385.22,59 Z M431.77,41.15 L431.77,41.01 C431.77,31 424.07,22.46 413.5,22.46 C402.976923,22.46 395.261116,30.950279 395.092808,40.8204916 L395.09,41.29 C395.09,51.3 402.79,59.84 413.36,59.84 C424,59.84 431.77,51.16 431.77,41.15 Z M428.06,41.29 C428.06,49.69 421.97,56.62 413.5,56.62 C405.344557,56.62 398.96333,49.9325717 398.803086,41.4761104 L398.8,41.01 C398.8,32.61 404.89,25.68 413.36,25.68 C421.515443,25.68 427.89667,32.3674283 428.056914,40.8238896 L428.06,41.29 Z M438,11.26 L439.47,8.95 C451.79,15.95 458.86,26.24 458.86,38.91 C458.86,51.58 451.79,61.87 439.47,68.87 L438,66.56 C449.06,59.77 455.22,50.6 455.22,38.91 C455.22,27.22 449.06,18.05 438,11.26 Z" id="S-SMP(Echo)" fill="#B3B3B3" fill-rule="nonzero"></path>
    </g>
</svg>