<?xml version="1.0" encoding="UTF-8"?>
<svg width="470px" height="70px" viewBox="0 0 470 70" version="1.1" xmlns="http://www.w3.org/2000/svg" xmlns:xlink="http://www.w3.org/1999/xlink">
    <!-- Generator: Sketch 58 (84663) - https://sketch.com -->
    <title>Logo</title>
    <desc>Created with Sketch.</desc>
    <g id="Logo" stroke="none" stroke-width="1" fill="none" fill-rule="evenodd">
        <path d="M80.2765,9.71 L80.5422209,10.4458423 C80.8614748,11.3568835 81.0405665,11.9875982 81.0795,12.338 C81.1768338,13.2626713 80.8361706,14.0413302 80.0575,14.674 C80.0575,14.7226669 80.0088338,14.7956662 79.9115,14.893 C80.3495022,17.1803448 80.4468346,19.3216567 80.2035,21.317 C79.9601655,23.3123433 79.6438353,25.2346574 79.2545,27.084 L80.110676,25.6357105 C82.3409368,21.8913712 84.1481968,19.0891574 85.5325,17.229 C88.7445161,12.897645 91.7374861,9.80734258 94.5115,7.958 C95.4361713,7.42266399 96.56766,7.021168 97.906,6.7535 C99.24434,6.48583199 100.521827,6.44933236 101.7385,6.644 C102.955173,6.83866764 103.964996,7.32532944 104.768,8.104 C105.571004,8.88267056 105.923834,10.0506589 105.8265,11.608 C104.463827,21.0980475 103.003841,29.9431257 101.4465,38.1435 C99.8891589,46.3438743 97.8695124,54.1669628 95.3875,61.613 L95.3875,61.759 L95.3145,61.759 C94.7304971,63.5110088 93.2705117,64.7519963 90.9345,65.482 C88.7817049,66.1232581 86.8444859,66.2040883 85.122792,65.7244918 L84.8025,65.628 C82.6124891,64.9953302 81.6148324,63.8273418 81.8095,62.124 L81.8825,60.445 L81.8825,60.299 L82.0380034,59.3279682 C82.1364886,58.6800395 82.1941538,58.212886 82.211,57.9265 C82.2353335,57.5128313 82.2718331,57.2086676 82.3205,57.014 C82.4178338,55.7486603 82.6246651,54.5685055 82.941,53.4735 L83.1392722,52.7741402 C83.3249266,52.1054238 83.4727282,51.5286372 83.5826789,51.0437723 L83.8535,49.8143749 C83.8899999,49.6531669 83.9264998,49.4942403 83.9629998,49.3375946 L84.0725,48.8745 C84.2185007,48.2661636 84.3158331,47.7916684 84.3645,47.451 C82.5151574,49.9816793 81.2011706,51.514664 80.4225,52.05 C78.4758236,53.4126735 76.2128462,54.0453338 73.6335,53.948 C72.027492,53.8506662 71.1028346,53.4856698 70.8595,52.853 L70.6011476,52.1455249 C70.2772097,51.2809296 70.0353989,50.7311526 69.8757111,50.4961837 L69.8375,50.444 C69.5454985,50.0546647 69.3021676,49.3976713 69.1075,48.473 C67.8421603,54.0696947 66.6011727,58.0359883 65.3845,60.372 C64.8978309,61.2966713 64.4111691,62.1239963 63.9245,62.854 C63.2431633,64.460008 61.6858455,65.5793302 59.2525,66.212 C57.0997049,66.807454 55.0331585,66.7993715 53.052806,66.1877515 L52.6825,66.066 C50.541156,65.3846633 49.5191662,64.1680088 49.6165,62.416 C49.7138338,60.6639912 50.0666636,58.4618466 50.675,55.8095 C51.2833364,53.1571534 52.0011625,50.3466815 52.8285,47.378 L53.7079694,44.0753834 C55.7317862,36.5387996 57.2027845,31.5320464 58.121,29.055 L58.4837279,28.0840206 C59.3741279,25.7197242 60.1413791,23.8290659 60.7855,22.412 C62.5375088,18.6646479 64.0948265,15.9393419 65.4575,14.236 C66.9661742,11.1699847 69.4724825,9.32066983 72.9765,8.688 C75.7505139,8.15266399 78.1838229,8.49332725 80.2765,9.71 Z M118.5285,53.802 L119.880018,53.9358338 C121.889324,54.1250936 123.46437,54.226031 124.605186,54.2386482 L124.843,54.24 C126.230007,54.24 128.334819,54.0453353 131.1575,53.656 C132.033504,53.9480015 132.544499,54.3129978 132.6905,54.751 C132.812167,55.1160018 132.866241,55.4894481 132.852722,55.8713466 L132.8365,56.1015 C132.787833,56.5638356 132.812166,57.0139978 132.9095,57.452 C132.998723,57.853502 133.394642,58.1936588 134.09727,58.4724789 L134.2965,58.547 C134.734502,58.6930007 134.868334,59.1188298 134.698,59.8245 C134.527666,60.5301702 134.12617,61.2966625 133.4935,62.124 C131.887492,64.2166771 129.989511,65.6766625 127.7995,66.504 C124.295482,67.3800044 121.545843,67.8909993 119.5505,68.037 C116.24115,68.2803345 112.639853,68.1586674 108.7465,67.672 C104.463812,66.8933294 102.395499,65.1170139 102.5415,62.343 C102.5415,52.1229489 104.780144,41.8543849 109.2575,31.537 C110.717507,28.1789832 112.372157,24.6506852 114.2215,20.952 C114.610835,20.1733294 114.842,19.2973382 114.915,18.324 C114.988,17.3506618 115.048833,16.4016713 115.0975,15.477 C115.146167,14.5523287 115.292165,13.7250037 115.5355,12.995 C115.778835,12.2649964 116.289829,11.7540015 117.0685,11.462 C127.191217,7.42264647 135.196804,5.86532871 141.0855,6.79 C143.12951,6.83866691 144.479997,7.53215998 145.137,8.8705 C145.794003,10.20884 145.867003,11.7053251 145.356,13.36 C144.844997,15.0146749 143.847341,16.5719927 142.363,18.032 C140.878659,19.4920073 139.017178,20.3923316 136.7785,20.733 L135.48622,21.1095645 C133.375172,21.7325769 132.053943,22.1667188 131.5225,22.412 C130.305827,22.9960029 129.429836,23.7746618 128.8945,24.748 C128.213163,25.818672 127.580503,26.8406618 126.9965,27.814 C126.412497,28.7873382 125.998835,29.8336611 125.7555,30.953 L125.4635,32.559 C126.388171,32.9970022 127.51966,33.1308342 128.858,32.9605 L130.163891,32.7901665 C131.012852,32.6766111 131.818552,32.5630561 132.581,32.4495 C133.724672,32.2791658 134.64933,32.2669993 135.355,32.413 C136.06067,32.5590007 136.206669,33.2768269 135.793,34.5665 C135.379331,35.8561731 134.625005,37.303992 133.53,38.91 C132.434995,40.516008 130.889843,41.6839964 128.8945,42.414 L128.082643,42.572743 C127.334932,42.7217668 126.779661,42.8416329 126.41682,42.9323431 L125.617694,43.1343164 C125.473184,43.1685816 125.348786,43.1961428 125.2445,43.217 L125.00504,43.2450381 C124.540603,43.2921892 123.647095,43.3558427 122.3245,43.436 L121.812634,44.3189149 C119.8291,47.7883701 118.612733,50.5113747 118.1635,52.488 C117.968832,53.3640044 118.090498,53.802 118.5285,53.802 Z M174.525032,46.4179356 C172.728535,47.4411814 170.974702,47.4692009 169.2635,46.502 C168.533496,46.0558867 167.871094,45.5844319 167.276279,45.0876259 L166.9275,44.7865 C166.246163,44.1781636 165.613503,43.8983331 165.0295,43.947 C163.958828,43.3629971 163.715497,42.2193418 164.2995,40.516 C164.542835,39.8346633 164.992997,39.1898364 165.65,38.5815 C166.307003,37.9731636 167.146495,37.5473345 168.1685,37.304 C173.035191,35.2113229 177.536813,34.7246611 181.6735,35.844 C183.522843,36.3306691 184.80033,37.3161592 185.506,38.8005 C186.21167,40.2848408 186.515834,41.9516574 186.4185,43.801 C186.321166,45.6503426 185.91967,47.5239905 185.214,49.422 C184.50833,51.3200095 183.741837,52.8408276 182.9145,53.9845 C182.087163,55.1281724 180.931341,56.4786589 179.447,58.036 C177.962659,59.5933411 176.101178,61.1019927 173.8625,62.562 C168.363139,66.1146844 162.474531,67.8180007 156.1965,67.672 C147.095788,67.5259993 141.718175,63.8030365 140.0635,56.503 C139.528164,54.1669883 139.284833,51.5390146 139.3335,48.619 C139.820169,40.1509577 142.35081,32.2427034 146.9255,24.894 C149.115511,21.3899825 152.059815,17.9346837 155.7585,14.528 C157.948511,12.5661152 160.395129,11.0319881 163.09842,9.92557893 L163.6425,9.71 C165.199841,9.07733017 167.073489,8.46900292 169.2635,7.885 C176.271535,6.47365961 181.722147,7.34965085 185.6155,10.513 C187.464843,12.0216742 188.693664,14.2116523 189.302,17.083 C189.883887,19.8295065 189.608634,22.8876579 188.476231,26.2575386 L188.3165,26.719 C187.781164,28.3736749 186.856507,29.6146625 185.5425,30.442 C184.228493,31.2693375 182.878007,31.7438327 181.491,31.8655 C180.103993,31.9871673 178.850839,31.8168356 177.7315,31.3545 C176.612161,30.8921644 176.003834,30.2230044 175.9065,29.347 L175.2495,27.887 C174.081494,26.1349912 172.061848,25.9159934 169.1905,27.23 C166.708488,28.3493389 164.226512,30.2959861 161.7445,33.07 C159.116487,36.0386815 157.413171,38.7153214 156.6345,41.1 L156.415913,41.7651445 C155.72041,43.9142128 155.356103,45.3824802 155.322984,46.1699807 L155.3205,46.283 C155.223166,48.1323426 155.88016,49.7869927 157.2915,51.247 C159.33551,52.5610066 161.37949,53.1571673 163.4235,53.0355 C165.46751,52.9138327 167.292492,52.451504 168.8985,51.6485 C170.504508,50.845496 171.818495,49.9330051 172.8405,48.911 C173.862505,47.8889949 174.3735,47.1590022 174.3735,46.721 L174.525032,46.4179356 L174.525032,46.4179356 Z M227.2985,13.506 C228.953175,14.3820044 229.999498,15.6716581 230.4375,17.375 C229.626385,21.9172449 228.882872,26.4340861 228.206945,30.9256176 L227.477274,35.8685891 C226.889301,39.775172 226.315457,43.1732074 225.755734,46.0627549 L225.000809,49.8853452 C224.589052,52.0180308 224.284762,53.7265063 224.087933,55.0107975 L224.05,55.262 C223.782332,57.0626757 223.478168,58.8633243 223.1375,60.664 L222.6995,62.197 L222.5535,62.9726251 L222.5535,62.9726251 L222.2615,64.4143749 C222.212833,64.6637909 222.164167,64.922332 222.1155,65.19 C220.752827,66.7473411 218.903512,67.526 216.5675,67.526 C214.085488,67.526 212.114507,66.8933397 210.6545,65.628 C209.816583,64.9762866 209.646573,63.6344244 210.144466,61.6023756 L210.2165,61.321 C210.435501,60.5325961 210.585515,59.5372498 210.666545,58.3349366 L210.741469,57.036078 C210.802453,56.0372093 210.870796,55.1781888 210.9465,54.459 L210.9465,54.313 C209.486493,54.848336 208.172506,55.5418291 207.0045,56.3935 L204.8145,57.9995 L204.8145,57.9995 C204.522499,58.2185011 204.133169,58.3888327 203.6465,58.5105 C203.159831,58.6321673 202.721835,58.7173331 202.3325,58.766 C201.407829,58.8146669 200.775168,58.9606655 200.4345,59.204 C197.688108,64.1285652 195.218183,66.9337867 193.024654,67.6197427 L192.8425,67.672 C191.43116,68.1100007 190.01984,68.2195011 188.6085,68.0005 C187.19716,67.7814989 186.077837,66.9420073 185.2505,65.482 C183.693159,64.0219927 184.082488,60.0313659 186.4185,53.51 C187.68384,50.0546494 189.496655,45.9058575 191.857,41.0635 C194.217345,36.2211425 196.492489,31.9993513 198.6825,28.398 C203.40319,20.6599613 208.586138,14.1386932 214.2315,8.834 C215.156171,8.44466472 216.153828,7.99450256 217.2245,7.4835 C218.295172,6.97249745 219.353661,6.69266691 220.4,6.644 C221.446339,6.59533309 222.529161,6.71699854 223.6485,7.009 C224.767839,7.30100146 225.716829,7.73899708 226.4955,8.323 C228.296176,9.68567348 228.56384,11.4133229 227.2985,13.506 Z M211.6765,32.705 C210.768051,35.3005685 209.859614,37.7134541 208.951168,39.9437133 L207.637165,43.1277812 C207.020722,44.6310384 206.469169,45.9991049 205.9825,47.232 L211.7495,47.013 C212.060968,44.5212542 212.403579,42.0451115 212.777339,39.5845244 L213.0635,37.742 C213.550169,34.6759847 214.012498,31.6100153 214.4505,28.544 L211.6765,32.705 Z M209.7055,47.305 C210.386837,47.305 211.068163,47.2563338 211.7495,47.159 L211.7495,47.086 L210.408126,47.1955 L210.408126,47.1955 L209.713693,47.2599338 C209.440562,47.289978 209.437832,47.305 209.7055,47.305 Z M276.2815,44.312 C274.967493,48.108019 273.629173,51.7579825 272.2665,55.262 L271.696651,56.7123214 C270.585261,59.5101637 269.643718,61.6912065 268.872,63.2555 L268.539507,63.9130728 C267.775667,65.384863 267.09567,66.4188304 266.4995,67.015 C265.818163,67.6963367 265.12467,68.1586655 264.419,68.402 C263.71333,68.6453346 263.00767,68.7426669 262.302,68.694 L260.1485,68.548 L260.1485,68.548 C256.06048,67.9153302 254.795159,64.9710263 256.3525,59.715 L258.628239,50.3215609 L258.628239,50.3215609 L260.728881,41.5401088 C261.005597,40.3994591 261.250135,39.4132617 261.4625,38.5815 C261.754501,37.4378276 262.070832,36.3063389 262.4115,35.187 L262.682969,34.3201236 C262.9225,33.574916 263.195298,32.7726806 263.501367,31.913408 L265.533142,26.2310375 C265.586891,26.0794133 265.641344,25.9257341 265.6965,25.77 C263.847157,26.0133346 262.192507,25.8186698 260.7325,25.186 C258.591156,24.2613287 257.715165,22.2660153 258.1045,19.2 C258.299168,17.7886596 259.053493,16.4746728 260.3675,15.258 C261.048837,14.6253302 261.851829,13.9440037 262.7765,13.214 C264.674509,11.7053258 268.446138,10.0993419 274.0915,8.396 C279.931529,6.64399124 284.944146,5.81666618 289.1295,5.914 C290.248839,5.71933236 291.404661,5.85316436 292.597,6.3155 C293.789339,6.77783564 294.750496,7.39832944 295.4805,8.177 C296.210504,8.95567056 296.587667,9.80732871 296.612,10.732 C296.636333,11.6566713 296.040173,12.4839963 294.8235,13.214 C294.239497,13.6033353 293.825835,14.2481622 293.5825,15.1485 L293.27882,16.2522605 C293.12114,16.8158192 292.954701,17.396897 292.7795,17.9955 C292.487499,18.9931717 292.061669,19.9056625 291.502,20.733 C290.942331,21.5603375 290.054173,22.0469993 288.8375,22.193 C288.20483,22.5336684 287.316672,22.7769993 286.173,22.923 L284.838265,23.1018286 C284.41596,23.1623018 284.106539,23.2121921 283.91,23.2515 C283.544998,23.3245004 283.338167,23.4583324 283.2895,23.653 L281.847751,27.9326229 L281.847751,27.9326229 L280.1505,33.0335 C278.933827,36.7078517 277.644173,40.4673141 276.2815,44.312 Z M266.4265,24.967 C266.329166,24.967 266.2805,24.9791665 266.2805,25.0035 C266.2805,25.0278335 266.329166,25.04 266.4265,25.04 L266.4265,24.967 Z M302.3425,14.674 C305.408515,11.1699825 308.815148,8.98000438 312.5625,8.104 C315.141846,7.47133017 317.575155,7.56866253 319.8625,8.396 C321.663176,6.49799051 323.999152,5.81666399 326.8705,6.352 C329.498513,6.8386691 331.737157,8.32298759 333.5865,10.805 L333.667611,11.057346 C333.764944,11.3349258 333.910943,11.6882079 334.105611,12.1171967 L334.207,12.338 C334.523335,13.0193367 334.827499,13.7736625 335.1195,14.601 C337.260844,19.5650248 337.431176,26.0862929 335.6305,34.165 C333.391822,44.1903835 329.425528,52.6826319 323.7315,59.642 C321.979491,61.783344 320.008511,63.5596596 317.8185,64.971 C314.314482,67.64768 310.129191,68.8400015 305.2625,68.548 C302.245152,68.4019993 299.71451,67.6476735 297.6705,66.285 C289.543126,62.2456465 286.890819,53.8263973 289.7135,41.027 C292.049512,30.5149474 296.259136,21.730702 302.3425,14.674 Z M303.2185,53.437 L303.1455,53.875 L303.2915,54.678 C303.583501,56.1866742 304.070163,57.342496 304.7515,58.1455 C305.432837,58.948504 305.992498,59.4473324 306.4305,59.642 C306.917169,59.2526647 307.403831,58.8876684 307.8905,58.547 C308.377169,58.2063316 308.815165,57.7926691 309.2045,57.306 C312.51385,53.2179796 315.093157,47.8646998 316.9425,41.246 C318.791843,34.6273002 319.473169,28.4953616 318.9865,22.85 C317.088491,25.2833455 315.093177,28.0816508 313.0005,31.245 C310.907823,34.4083491 309.253173,37.1093221 308.0365,39.348 C305.262486,44.5553594 303.656502,49.2516457 303.2185,53.437 Z M339.1345,34.676 L339.60596,33.1075088 C340.315683,30.7638448 340.915,28.8691632 341.403921,27.4234286 L341.507,27.1205 C342.115336,25.3441578 342.711497,23.7503404 343.2955,22.339 C343.879503,20.9276596 344.548663,19.5650066 345.303,18.251 C346.057337,16.9369934 346.884662,15.7325055 347.785,14.6375 C348.685338,13.5424945 349.646495,12.6786698 350.6685,12.046 C351.690505,11.4133302 352.761161,11.097 353.8805,11.097 C354.999839,11.097 356.167827,11.5349956 357.3845,12.411 L358.079143,14.1607254 C359.617471,18.0677564 360.578248,20.7451594 360.9615,22.193 C361.545503,24.6263455 362.080831,28.0573112 362.5675,32.486 C362.917902,31.5905289 363.307232,30.6561355 363.735499,29.6828018 L364.064,28.9455 C364.623669,27.7044938 365.171164,26.4513397 365.7065,25.186 L366.10408,24.3293024 C367.383093,21.5379991 368.199559,19.3902499 368.5535,17.886 C369.624172,14.4793163 371.838483,11.9243419 375.1965,10.221 C378.116515,8.7609927 380.841821,8.29866399 383.3725,8.834 C384.394505,9.02866764 385.112331,9.44233017 385.526,10.075 C385.907848,10.6590029 385.937221,11.2637313 385.614119,11.8892006 L385.526,12.046 C385.112331,12.7273367 384.966333,13.3721636 385.088,13.9805 C385.209667,14.5888364 385.319166,15.3066625 385.4165,16.134 C385.562501,18.3726779 385.173171,20.3558247 384.2485,22.0835 C383.323829,23.8111753 382.374838,25.9524872 381.4015,28.5075 C380.549829,30.7431362 379.688854,33.0998382 378.818556,35.5776605 L378.445,36.647 C377.447328,39.5183477 376.437505,42.4383185 375.4155,45.407 C374.393495,48.3756815 373.395838,51.0766545 372.4225,53.51 L372.111912,54.3111363 C370.111157,59.4022237 368.462702,62.225485 367.1665,62.781 C365.317157,63.9003389 363.954504,64.5573324 363.0785,64.752 C361.959161,64.9466676 360.37751,64.9466676 358.3335,64.752 C357.111793,64.6580225 356.04889,63.134962 355.144763,60.1827744 L355.0485,59.861 C354.544654,58.2578547 354.083925,56.0727587 353.6663,53.3056528 L353.293769,50.8278489 C352.673166,46.8028277 352.23608,44.5578971 351.9825,44.093 L351.124639,46.8471401 C349.626336,51.5922947 348.537465,54.6648904 347.858,56.065 L347.565999,56.6592679 C346.905956,57.9846776 346.39496,58.881581 346.033,59.35 C345.619331,59.885336 345.120503,60.5909956 344.5365,61.467 C343.931338,63.1428345 342.52471,64.3956447 340.316577,65.2254646 L340.0105,65.336 C337.96649,66.1146706 336.117175,66.236336 334.4625,65.701 C332.661824,65.1169971 332.126496,63.9976749 332.8565,62.343 L332.923757,61.6674159 C333.551989,55.802136 335.622218,46.8050795 339.1345,34.676 Z M396.6585,53.802 L398.010018,53.9358338 C400.019324,54.1250936 401.59437,54.226031 402.735186,54.2386482 L402.973,54.24 C404.360007,54.24 406.464819,54.0453353 409.2875,53.656 C410.163504,53.9480015 410.674499,54.3129978 410.8205,54.751 C410.942167,55.1160018 410.996241,55.4894481 410.982722,55.8713466 L410.9665,56.1015 C410.917833,56.5638356 410.942166,57.0139978 411.0395,57.452 C411.128723,57.853502 411.524642,58.1936588 412.22727,58.4724789 L412.4265,58.547 C412.864502,58.6930007 412.998334,59.1188298 412.828,59.8245 C412.657666,60.5301702 412.25617,61.2966625 411.6235,62.124 C410.017492,64.2166771 408.119511,65.6766625 405.9295,66.504 C402.425482,67.3800044 399.675843,67.8909993 397.6805,68.037 C394.37115,68.2803345 390.769853,68.1586674 386.8765,67.672 C382.593812,66.8933294 380.525499,65.1170139 380.6715,62.343 C380.6715,52.1229489 382.910144,41.8543849 387.3875,31.537 C388.847507,28.1789832 390.502157,24.6506852 392.3515,20.952 C392.740835,20.1733294 392.972,19.2973382 393.045,18.324 C393.118,17.3506618 393.178833,16.4016713 393.2275,15.477 C393.276167,14.5523287 393.422165,13.7250037 393.6655,12.995 C393.908835,12.2649964 394.419829,11.7540015 395.1985,11.462 C405.321217,7.42264647 413.326804,5.86532871 419.2155,6.79 C421.25951,6.83866691 422.609997,7.53215998 423.267,8.8705 C423.924003,10.20884 423.997003,11.7053251 423.486,13.36 C422.974997,15.0146749 421.977341,16.5719927 420.493,18.032 C419.008659,19.4920073 417.147178,20.3923316 414.9085,20.733 L413.61622,21.1095645 C411.505172,21.7325769 410.183943,22.1667188 409.6525,22.412 C408.435827,22.9960029 407.559836,23.7746618 407.0245,24.748 C406.343163,25.818672 405.710503,26.8406618 405.1265,27.814 C404.542497,28.7873382 404.128835,29.8336611 403.8855,30.953 L403.5935,32.559 C404.518171,32.9970022 405.64966,33.1308342 406.988,32.9605 L408.293891,32.7901665 C409.142852,32.6766111 409.948552,32.5630561 410.711,32.4495 C411.854672,32.2791658 412.77933,32.2669993 413.485,32.413 C414.19067,32.5590007 414.336669,33.2768269 413.923,34.5665 C413.509331,35.8561731 412.755005,37.303992 411.66,38.91 C410.564995,40.516008 409.019843,41.6839964 407.0245,42.414 L406.212643,42.572743 C405.464932,42.7217668 404.909661,42.8416329 404.54682,42.9323431 L403.747694,43.1343164 C403.603184,43.1685816 403.478786,43.1961428 403.3745,43.217 L403.13504,43.2450381 C402.670603,43.2921892 401.777095,43.3558427 400.4545,43.436 L399.942634,44.3189149 C397.9591,47.7883701 396.742733,50.5113747 396.2935,52.488 C396.098832,53.3640044 396.220498,53.802 396.6585,53.802 Z" id="MEGATONE" fill="#0D3B99" fill-rule="nonzero"></path>
    </g>
</svg>