<?xml version="1.0" encoding="UTF-8"?>
<svg width="470px" height="70px" viewBox="0 0 470 70" version="1.1" xmlns="http://www.w3.org/2000/svg" xmlns:xlink="http://www.w3.org/1999/xlink">
    <!-- Generator: Sketch 58 (84663) - https://sketch.com -->
    <title>Potillator-Logo</title>
    <desc>Created with Sketch.</desc>
    <g id="Potillator-Logo" stroke="none" stroke-width="1" fill="none" fill-rule="evenodd">
        <path d="M154.75,24.24 C154.75,27.640017 153.870009,30.7599858 152.11,33.6 C150.349991,36.4400142 147.790017,38.759991 144.43,40.56 C141.069983,42.360009 137.070023,43.4199984 132.43,43.74 L129.85,58.2 C128.849995,63.7600278 126.130022,66.54 121.69,66.54 C119.249988,66.54 117.00001,65.8200072 114.94,64.38 C112.87999,62.9399928 111.230006,60.7400148 109.99,57.78 C108.749994,54.8199852 108.13,51.1800216 108.13,46.86 C108.13,38.7399594 109.439987,31.8500283 112.06,26.19 C114.680013,20.5299717 118.199978,16.2900141 122.62,13.47 C127.040022,10.6499859 131.909973,9.24 137.23,9.24 C140.990019,9.24 144.179987,9.8999934 146.8,11.22 C149.420013,12.5400066 151.399993,14.3299887 152.74,16.59 C154.080007,18.8500113 154.75,21.3999858 154.75,24.24 Z M133.51,37.56 C141.710041,36.5199948 145.81,32.2600374 145.81,24.78 C145.81,22.1399868 144.940009,19.9900083 143.2,18.33 C141.459991,16.6699917 138.770018,15.84 135.13,15.84 C131.009979,15.84 127.420015,17.139987 124.36,19.74 C121.299985,22.340013 118.940008,25.9499769 117.28,30.57 C115.619992,35.1900231 114.79,40.4599704 114.79,46.38 C114.79,48.8600124 115.039998,51.0599904 115.54,52.98 C116.040003,54.9000096 116.679996,56.3899947 117.46,57.45 C118.240004,58.5100053 118.989996,59.04 119.71,59.04 C120.710005,59.04 121.469997,57.6600138 121.99,54.9 L123.97,43.56 L121.97408,43.2599997 C121.88755,43.2485712 121.872857,43.2485714 121.93,43.26 C120.729994,43.059999 119.950002,42.6900027 119.59,42.15 C119.229998,41.6099973 119.05,40.9200042 119.05,40.08 C119.05,39.1999956 119.299998,38.5000026 119.8,37.98 C120.300003,37.4599974 120.989996,37.2 121.87,37.2 C122.203335,37.2 122.467222,37.2138888 122.661666,37.2416666 L122.77,37.26 C123.730005,37.4200008 124.469997,37.5199998 124.99,37.56 L125.343646,35.4719758 C125.827882,32.6523253 126.449996,29.1683541 127.21,25.02 C127.450001,23.6599932 127.999996,22.6900029 128.86,22.11 C129.720004,21.5299971 130.729994,21.24 131.89,21.24 C133.210007,21.24 134.159997,21.4899975 134.74,21.99 C135.320003,22.4900025 135.61,23.2799946 135.61,24.36 C135.61,24.9085742 135.580613,25.3689789 135.521837,25.741224 L133.51,37.56 Z M184.15,41.58 C184.670003,41.58 185.069999,41.8399974 185.35,42.36 C185.630001,42.8800026 185.77,43.539996 185.77,44.34 C185.77,46.2600096 185.190006,47.3999982 184.03,47.76 C181.629988,48.6000042 178.990014,49.0799994 176.11,49.2 C175.349996,52.5600168 173.850011,55.2499899 171.61,57.27 C169.369989,59.2900101 166.830014,60.3 163.99,60.3 C161.589988,60.3 159.540008,59.7200058 157.84,58.56 C156.139992,57.3999942 154.850004,55.8600096 153.97,53.94 C153.089996,52.0199904 152.65,49.9400112 152.65,47.7 C152.65,44.6599848 153.229994,41.9500119 154.39,39.57 C155.550006,37.1899881 157.14999,35.3300067 159.19,33.99 C161.23001,32.6499933 163.489988,31.98 165.97,31.98 C169.010015,31.98 171.459991,33.0299895 173.32,35.13 C175.180009,37.2300105 176.269998,39.8199846 176.59,42.9 C178.470009,42.7799994 180.709987,42.3800034 183.31,41.7 C183.630002,41.6199996 183.909999,41.58 184.15,41.58 Z M164.47,53.94 C165.750006,53.94 166.859995,53.4200052 167.8,52.38 C168.740005,51.34 169.369998,49.84 169.69,47.88 C168.449994,47.0399958 167.500003,45.9400068 166.84,44.58 C166.179997,43.2199932 165.85,41.7800076 165.85,40.26 C165.85,39.6199968 165.909999,38.9800032 166.03,38.34 L165.73,38.34 C164.129992,38.34 162.800005,39.1099923 161.74,40.65 C160.679995,42.1900077 160.15,44.359986 160.15,47.16 C160.15,49.360011 160.579996,51.0399942 161.44,52.2 C162.300004,53.3600058 163.309994,53.94 164.47,53.94 Z M208.87,46.62 C209.390003,46.62 209.799999,46.8599976 210.1,47.34 C210.400002,47.8200024 210.55,48.4799958 210.55,49.32 C210.55,50.920008 210.170004,52.1599956 209.41,53.04 C207.689991,55.1600106 205.81001,56.8999932 203.77,58.26 C201.72999,59.62 199.390013,60.3 196.75,60.3 C188.589959,60.3 184.51,54.5600574 184.51,43.08 C184.51,41.3199912 184.569999,39.540009 184.69,37.74 L182.35,37.74 C181.149994,37.74 180.340002,37.5200022 179.92,37.08 C179.499998,36.6399978 179.29,35.9400048 179.29,34.98 C179.29,32.7399888 180.189991,31.62 181.99,31.62 L185.41,31.62 C186.090003,27.219978 187.129993,23.2000182 188.53,19.56 C189.930007,15.9199818 191.61999,13.0200108 193.6,10.86 C195.58001,8.6999892 197.709989,7.62 199.99,7.62 C201.670008,7.62 202.989995,8.3599926 203.95,9.84 C204.910005,11.3200074 205.39,13.1799888 205.39,15.42 C205.39,21.620031 202.790026,27.019977 197.59,31.62 L204.31,31.62 C204.950003,31.62 205.409999,31.7599986 205.69,32.04 C205.970001,32.3200014 206.11,32.8399962 206.11,33.6 C206.11,36.3600138 203.850023,37.74 199.33,37.74 L192.01,37.74 L191.939592,39.7144928 C191.910204,40.6777568 191.893878,41.4973444 191.890612,42.1732644 L191.89,42.42 C191.89,46.5800208 192.379995,49.4999916 193.36,51.18 C194.340005,52.8600084 195.889989,53.7 198.01,53.7 C199.730009,53.7 201.249993,53.1800052 202.57,52.14 C203.890007,51.0999948 205.449991,49.5400104 207.25,47.46 C207.730002,46.8999972 208.269997,46.62 208.87,46.62 Z M198.37,13.38 C197.769997,13.38 197.100004,14.1299925 196.36,15.63 C195.619996,17.1300075 194.920003,19.2099867 194.26,21.87 C193.599997,24.5300133 193.050002,27.4799838 192.61,30.72 C194.970012,28.6799898 196.739994,26.3900127 197.92,23.85 C199.100006,21.3099873 199.69,19.0000104 199.69,16.92 C199.69,14.5599882 199.250004,13.38 198.37,13.38 Z M213.55,28.08 C211.869992,28.08 210.610004,27.6900039 209.77,26.91 C208.929996,26.1299961 208.51,25.040007 208.51,23.64 C208.51,22.239993 209.059994,21.0700047 210.16,20.13 C211.260006,19.1899953 212.629992,18.72 214.27,18.72 C215.750007,18.72 216.949995,19.0799964 217.87,19.8 C218.790005,20.5200036 219.25,21.5399934 219.25,22.86 C219.25,24.460008 218.730005,25.7299953 217.69,26.67 C216.649995,27.6100047 215.270009,28.08 213.55,28.08 Z M213.07,60.3 C210.469987,60.3 208.580006,59.3800092 207.4,57.54 C206.219994,55.6999908 205.63,53.2600152 205.63,50.22 C205.63,48.419991 205.859998,46.1100141 206.32,43.29 C206.728891,40.7833208 207.240491,38.426797 207.854814,36.2203731 L208.09,35.4 C208.450002,34.1199936 208.929997,33.2400024 209.53,32.76 C210.13,32.2799976 211.089993,32.04 212.41,32.04 C214.45001,32.04 215.47,32.7199932 215.47,34.08 L215.464184,34.3144905 C215.413776,35.4181652 215.035718,37.6599831 214.33,41.04 L214.047478,42.3599339 C213.275823,46.0413718 212.89,48.5813723 212.89,49.98 C212.89,51.180006 213.049998,52.0999968 213.37,52.74 C213.690002,53.3800032 214.229996,53.7 214.99,53.7 C215.710004,53.7 216.609995,53.200005 217.69,52.2 C218.770005,51.199995 220.209991,49.6200108 222.01,47.46 C222.490002,46.8999972 223.029997,46.62 223.63,46.62 C224.150003,46.62 224.559999,46.8599976 224.86,47.34 C225.160002,47.8200024 225.31,48.4799958 225.31,49.32 C225.31,50.920008 224.930004,52.1599956 224.17,53.04 C220.20998,57.8800242 216.510017,60.3 213.07,60.3 Z M243.19,46.62 C243.710003,46.62 244.119999,46.8599976 244.42,47.34 C244.720002,47.8200024 244.87,48.4799958 244.87,49.32 C244.87,50.920008 244.490004,52.1599956 243.73,53.04 C242.009991,55.1600106 240.14001,56.8999932 238.12,58.26 C236.09999,59.6200068 233.810013,60.3 231.25,60.3 C227.729982,60.3 225.120008,58.700016 223.42,55.5 C221.719991,52.299984 220.87,48.1600254 220.87,43.08 C220.87,38.1999756 221.499994,32.6400312 222.76,26.4 C224.020006,20.1599688 225.879988,14.8000224 228.34,10.32 C230.800012,5.8399776 233.729983,3.6 237.13,3.6 C239.05001,3.6 240.559995,4.4899911 241.66,6.27 C242.760006,8.0500089 243.31,10.5999834 243.31,13.92 C243.31,18.6800238 241.990013,24.1999686 239.35,30.48 C236.709987,36.7600314 233.130023,42.9799692 228.61,49.14 C228.890001,50.7800082 229.349997,51.9499965 229.99,52.65 C230.630003,53.3500035 231.469995,53.7 232.51,53.7 C234.150008,53.7 235.589994,53.2300047 236.83,52.29 C238.070006,51.3499953 239.64999,49.7400114 241.57,47.46 C242.050002,46.8999972 242.589997,46.62 243.19,46.62 Z M235.81,9.54 C234.889995,9.54 233.850006,11.1999834 232.69,14.52 C231.529994,17.8400166 230.510004,21.9599754 229.63,26.88 C228.749996,31.8000246 228.27,36.5199774 228.19,41.04 C231.030014,36.3599766 233.289992,31.6700235 234.97,26.97 C236.650008,22.2699765 237.49,17.9800194 237.49,14.1 C237.49,11.0599848 236.930006,9.54 235.81,9.54 Z M262.75,46.62 C263.270003,46.62 263.679999,46.8599976 263.98,47.34 C264.280002,47.8200024 264.43,48.4799958 264.43,49.32 C264.43,50.920008 264.050004,52.1599956 263.29,53.04 C261.569991,55.1600106 259.70001,56.8999932 257.68,58.26 C255.65999,59.6200068 253.370013,60.3 250.81,60.3 C247.289982,60.3 244.680008,58.700016 242.98,55.5 C241.279991,52.299984 240.43,48.1600254 240.43,43.08 C240.43,38.1999756 241.059994,32.6400312 242.32,26.4 C243.580006,20.1599688 245.439988,14.8000224 247.9,10.32 C250.360012,5.8399776 253.289983,3.6 256.69,3.6 C258.61001,3.6 260.119994,4.4899911 261.22,6.27 C262.320005,8.0500089 262.87,10.5999834 262.87,13.92 C262.87,18.6800238 261.550013,24.1999686 258.91,30.48 C256.269987,36.7600314 252.690023,42.9799692 248.17,49.14 C248.450001,50.7800082 248.909997,51.9499965 249.55,52.65 C250.190003,53.3500035 251.029995,53.7 252.07,53.7 C253.710008,53.7 255.149994,53.2300047 256.39,52.29 C257.630006,51.3499953 259.20999,49.7400114 261.13,47.46 C261.610002,46.8999972 262.149997,46.62 262.75,46.62 Z M255.37,9.54 C254.449995,9.54 253.410006,11.1999834 252.25,14.52 C251.089994,17.8400166 250.070004,21.9599754 249.19,26.88 C248.309996,31.8000246 247.83,36.5199774 247.75,41.04 C250.590014,36.3599766 252.849992,31.6700235 254.53,26.97 C256.210008,22.2699765 257.05,17.9800194 257.05,14.1 C257.05,11.0599848 256.490006,9.54 255.37,9.54 Z M266.35,60.3 C263.869988,60.3 261.890007,59.400009 260.41,57.6 C258.929993,55.799991 258.19,53.4400146 258.19,50.52 C258.19,47.319984 258.929993,44.2900143 260.41,41.43 C261.890007,38.5699857 263.859988,36.2700087 266.32,34.53 C268.780012,32.7899913 271.389986,31.92 274.15,31.92 C275.030004,31.92 275.619998,32.0899983 275.92,32.43 C276.220001,32.7700017 276.469999,33.3799956 276.67,34.26 C277.510004,34.0999992 278.389995,34.02 279.31,34.02 C281.27001,34.02 282.25,34.719993 282.25,36.12 L282.24424,36.3438726 C282.20008,37.2874252 281.902003,39.2127855 281.35,42.12 L281.07925,43.5026455 C280.339747,47.3671053 279.97,50.1062069 279.97,51.72 C279.97,52.320003 280.119998,52.7999982 280.42,53.16 C280.720001,53.5200018 281.109998,53.7 281.59,53.7 C282.350004,53.7 283.269995,53.2100049 284.35,52.23 C285.430005,51.2499951 286.889991,49.660011 288.73,47.46 C289.210002,46.8999972 289.749997,46.62 290.35,46.62 C290.870003,46.62 291.279998,46.8599976 291.58,47.34 C291.880001,47.8200024 292.03,48.4799958 292.03,49.32 C292.03,50.92 291.650004,52.1599956 290.89,53.04 C289.249992,55.0800102 287.510009,56.799993 285.67,58.2 C283.829991,59.600007 282.050009,60.3 280.33,60.3 C279.009993,60.3 277.800005,59.8500045 276.7,58.95 C275.599994,58.0499955 274.770003,56.8200078 274.21,55.26 C272.12999,58.6200168 269.510016,60.3 266.35,60.3 Z M268.51,54.24 C269.390004,54.24 270.229996,53.7200052 271.03,52.68 C271.830004,51.6399948 272.409998,50.2600086 272.77,48.54 L274.99,37.5 C273.309992,37.5400002 271.760007,38.1699939 270.34,39.39 C268.919993,40.6100061 267.790004,42.21999 266.95,44.22 C266.109996,46.22001 265.69,48.3399888 265.69,50.58 C265.69,51.8200062 265.939998,52.739997 266.44,53.34 C266.940002,53.940003 267.629996,54.24 268.51,54.24 Z M313.93,46.62 C314.450003,46.62 314.859998,46.8599976 315.16,47.34 C315.460001,47.8200024 315.61,48.4799958 315.61,49.32 C315.61,50.920008 315.230004,52.1599956 314.47,53.04 C312.749991,55.1600106 310.87001,56.8999932 308.83,58.26 C306.78999,59.62 304.450013,60.3 301.81,60.3 C293.649959,60.3 289.57,54.5600574 289.57,43.08 C289.57,41.3199912 289.629999,39.540009 289.75,37.74 L287.41,37.74 C286.209994,37.74 285.400002,37.5200022 284.98,37.08 C284.559998,36.6399978 284.35,35.9400048 284.35,34.98 C284.35,32.7399888 285.249991,31.62 287.05,31.62 L290.47,31.62 C291.150003,27.219978 292.189993,23.2000182 293.59,19.56 C294.990007,15.9199818 296.67999,13.0200108 298.66,10.86 C300.64001,8.6999892 302.769989,7.62 305.05,7.62 C306.730008,7.62 308.049995,8.3599926 309.01,9.84 C309.970005,11.3200074 310.45,13.1799888 310.45,15.42 C310.45,21.620031 307.850026,27.019977 302.65,31.62 L309.37,31.62 C310.010003,31.62 310.469999,31.7599986 310.75,32.04 C311.030001,32.3200014 311.17,32.8399962 311.17,33.6 C311.17,36.3600138 308.910023,37.74 304.39,37.74 L297.07,37.74 L296.999592,39.7144928 C296.970204,40.6777568 296.953878,41.4973444 296.950612,42.1732644 L296.95,42.42 C296.95,46.5800208 297.439995,49.4999916 298.42,51.18 C299.400005,52.8600084 300.949989,53.7 303.07,53.7 C304.790009,53.7 306.309993,53.1800052 307.63,52.14 C308.950007,51.0999948 310.509991,49.5400104 312.31,47.46 C312.790002,46.8999972 313.329997,46.62 313.93,46.62 Z M303.43,13.38 C302.829997,13.38 302.160004,14.1299925 301.42,15.63 C300.679996,17.1300075 299.980003,19.2099867 299.32,21.87 C298.659997,24.5300133 298.110002,27.4799838 297.67,30.72 C300.030012,28.6799898 301.799994,26.3900127 302.98,23.85 C304.160006,21.3099873 304.75,19.0000104 304.75,16.92 C304.75,14.5599882 304.310004,13.38 303.43,13.38 Z M341.35,41.58 C341.870003,41.58 342.269999,41.8399974 342.55,42.36 C342.830001,42.8800026 342.97,43.539996 342.97,44.34 C342.97,46.1727364 342.441534,47.2947513 341.384587,47.7060742 L341.23,47.76 C338.829988,48.6000042 336.190014,49.0799994 333.31,49.2 C332.549996,52.5600168 331.050011,55.2499899 328.81,57.27 C326.569989,59.2900101 324.030014,60.3 321.19,60.3 C318.789988,60.3 316.740008,59.7200058 315.04,58.56 C313.339991,57.3999942 312.050004,55.8600096 311.17,53.94 C310.289996,52.0199904 309.85,49.9400112 309.85,47.7 C309.85,44.6599848 310.429994,41.9500119 311.59,39.57 C312.750006,37.1899881 314.34999,35.3300067 316.39,33.99 C318.43001,32.6499933 320.689988,31.98 323.17,31.98 C326.210015,31.98 328.659991,33.0299895 330.52,35.13 C332.380009,37.2300105 333.469998,39.8199846 333.79,42.9 C335.670009,42.7799994 337.909987,42.3800034 340.51,41.7 C340.830002,41.6199996 341.109999,41.58 341.35,41.58 Z M321.67,53.94 C322.950006,53.94 324.059995,53.4200052 325,52.38 C325.940005,51.34 326.569998,49.84 326.89,47.88 C325.649994,47.0399958 324.700003,45.9400068 324.04,44.58 C323.379997,43.2199932 323.05,41.7800076 323.05,40.26 C323.05,39.6199968 323.109999,38.9800032 323.23,38.34 L322.93,38.34 C321.329992,38.34 320.000005,39.1099923 318.94,40.65 C317.879995,42.1900077 317.35,44.359986 317.35,47.16 C317.35,49.360011 317.779996,51.0399942 318.64,52.2 C319.500004,53.3600058 320.509994,53.94 321.67,53.94 Z M362.05,40.26 C362.93,40.26 363.679997,40.5699969 364.3,41.19 C364.920003,41.8100031 365.23,42.5799954 365.23,43.5 C365.23,44.0200026 365.110001,44.579997 364.87,45.18 C364.229997,46.6600074 363.330006,47.899995 362.17,48.9 C361.009994,49.900005 359.730007,50.4 358.33,50.4 C357.209994,50.4 356.260004,50.000004 355.48,49.2 C354.699996,48.399996 354.31,47.3200068 354.31,45.96 C354.31,45.1999962 354.35,44.3800044 354.43,43.5 L354.477408,43.1029618 C354.525803,42.6743195 354.55,42.3666676 354.55,42.18 C354.55,41.8599984 354.480001,41.6200008 354.34,41.46 C354.199999,41.2999992 354.030001,41.22 353.83,41.22 C353.269997,41.22 352.510005,41.8899933 351.55,43.23 C350.589995,44.5700067 349.630005,46.339989 348.67,48.54 C347.709995,50.740011 346.93,53.0599878 346.33,55.5 C345.889998,57.4200096 345.390003,58.6999968 344.83,59.34 C344.269997,59.9800032 343.350006,60.3 342.07,60.3 C340.549992,60.3 339.480003,59.500008 338.86,57.9 C338.239997,56.299992 337.93,53.7400176 337.93,50.22 C337.93,45.019974 338.669993,40.0800234 340.15,35.4 C340.510002,34.2399942 341.099996,33.3900027 341.92,32.85 C342.740004,32.3099973 343.889993,32.04 345.37,32.04 C346.170004,32.04 346.729998,32.139999 347.05,32.34 C347.370002,32.54 347.53,32.9199972 347.53,33.48 L347.521,33.6960005 C347.467001,34.4160006 347.170003,35.7839899 346.63,37.8 L346.375185,38.8370396 C346.091728,40.0123484 345.856668,41.066662 345.67,42 C345.43,43.200006 345.230001,44.6799912 345.07,46.44 C346.390007,42.9999828 347.869992,40.2000108 349.51,38.04 C351.150008,35.8799892 352.749992,34.3400046 354.31,33.42 C355.870008,32.4999954 357.289994,32.04 358.57,32.04 C359.730006,32.04 360.619997,32.3699967 361.24,33.03 C361.860003,33.6900033 362.17,34.6599936 362.17,35.94 C362.17,36.7000038 361.950002,38.1399894 361.51,40.26 L362.05,40.26 Z" id="Potillator" fill="#52C22F" fill-rule="nonzero"></path>
    </g>
</svg>