<?xml version="1.0" encoding="UTF-8"?>
<svg width="470px" height="70px" viewBox="0 0 470 70" version="1.1" xmlns="http://www.w3.org/2000/svg" xmlns:xlink="http://www.w3.org/1999/xlink">
    <!-- Generator: Sketch 58 (84663) - https://sketch.com -->
    <title>S-SMP-Echo-Logo</title>
    <desc>Created with Sketch.</desc>
    <g id="S-SMP-Echo-Logo" stroke="none" stroke-width="1" fill="none" fill-rule="evenodd">
        <path d="M113.15332,35.359375 L118.827148,35.359375 L116.981445,45.8525391 L116.981445,46.0234375 C116.981445,46.4108092 117.118163,46.7526027 117.391602,47.0488281 C117.66504,47.3450536 117.995441,47.4931641 118.382812,47.4931641 L121.527344,47.4931641 C122.028648,47.4931641 122.484373,47.3336604 122.894531,47.0146484 C123.327476,46.6728499 123.589518,46.2626977 123.680664,45.7841797 L124.911133,38.8798828 C124.956706,38.6748037 124.979492,38.4583345 124.979492,38.2304688 C124.979492,37.3797701 124.622204,36.2908912 123.907618,34.9638033 L123.356825,33.9583369 C122.862964,33.0475069 122.025276,31.4865321 120.84375,29.2753906 L117.767578,23.4648438 L117.767578,23.4648438 C116.901688,21.7558508 116.46875,20.0810629 116.46875,18.4404297 L116.46875,18.1328125 C116.46875,17.7454408 116.502929,17.3466817 116.571289,16.9365234 L118.041016,8.45996094 C118.268881,7.18391289 118.906896,6.12435317 119.955078,5.28125 C120.957687,4.43814683 122.108392,4.01660156 123.407227,4.01660156 L131.610352,4.01660156 C132.795253,4.01660156 133.820634,4.44953994 134.686523,5.31542969 C135.5752,6.18131943 136.019531,7.25227227 136.019531,8.52832031 C136.019531,8.82454575 135.996745,9.06380117 135.951172,9.24609375 L133.797852,21.2773438 L128.055664,21.2773438 L129.867188,11.1601562 C129.912761,11.0917965 129.935547,11.0006516 129.935547,10.8867188 C129.935547,10.5449202 129.787436,10.2259129 129.491211,9.9296875 C129.194985,9.67903521 128.853192,9.55371094 128.46582,9.55371094 L125.321289,9.55371094 C124.819984,9.55371094 124.375653,9.71321455 123.988281,10.0322266 C123.60091,10.328452 123.361654,10.7044248 123.270508,11.1601562 L122.279297,16.5947266 C122.210937,17.0048849 122.176758,17.4264301 122.176758,17.859375 C122.176758,19.4544351 122.700841,21.1064368 123.749023,22.8154297 L124.666142,24.3172356 C127.96611,29.7423019 129.699776,32.8419325 129.867188,33.6162109 C130.459638,34.7099664 130.755859,35.9062435 130.755859,37.2050781 C130.733073,37.797529 130.664714,38.4241503 130.550781,39.0849609 L128.807617,48.5527344 C128.579751,49.8287824 127.95313,50.8997353 126.927734,51.765625 C125.902339,52.6087282 124.728848,53.0302734 123.407227,53.0302734 L115.238281,53.0302734 C114.030593,53.0302734 113.016606,52.5973351 112.196289,51.7314453 C111.398759,50.8655556 111,49.8059958 111,48.5527344 L111,47.7666016 L113.15332,35.359375 Z M137.352539,30.3691406 L154.510742,30.3691406 L153.177734,36.6923828 L136.019531,36.6923828 L137.352539,30.3691406 Z M158.373047,35.359375 L164.046875,35.359375 L162.201172,45.8525391 L162.201172,46.0234375 C162.201172,46.4108092 162.337889,46.7526027 162.611328,47.0488281 C162.884767,47.3450536 163.215167,47.4931641 163.602539,47.4931641 L166.74707,47.4931641 C167.248375,47.4931641 167.7041,47.3336604 168.114258,47.0146484 C168.547203,46.6728499 168.809244,46.2626977 168.900391,45.7841797 L170.130859,38.8798828 C170.176433,38.6748037 170.199219,38.4583345 170.199219,38.2304688 C170.199219,37.3797701 169.841931,36.2908912 169.127344,34.9638033 L168.141688,33.1533119 C167.642356,32.2263841 166.949621,30.9337467 166.063477,29.2753906 L162.987305,23.4648438 L162.987305,23.4648438 C162.121415,21.7558508 161.688477,20.0810629 161.688477,18.4404297 L161.688477,18.1328125 C161.688477,17.7454408 161.722656,17.3466817 161.791016,16.9365234 L163.260742,8.45996094 C163.488608,7.18391289 164.126622,6.12435317 165.174805,5.28125 C166.177414,4.43814683 167.328119,4.01660156 168.626953,4.01660156 L176.830078,4.01660156 C178.01498,4.01660156 179.04036,4.44953994 179.90625,5.31542969 C180.794926,6.18131943 181.239258,7.25227227 181.239258,8.52832031 C181.239258,8.82454575 181.216472,9.06380117 181.170898,9.24609375 L179.017578,21.2773438 L173.275391,21.2773438 L175.086914,11.1601562 C175.132487,11.0917965 175.155273,11.0006516 175.155273,10.8867188 C175.155273,10.5449202 175.007163,10.2259129 174.710938,9.9296875 C174.414712,9.67903521 174.072919,9.55371094 173.685547,9.55371094 L170.541016,9.55371094 C170.039711,9.55371094 169.59538,9.71321455 169.208008,10.0322266 C168.820636,10.328452 168.581381,10.7044248 168.490234,11.1601562 L167.499023,16.5947266 C167.430664,17.0048849 167.396484,17.4264301 167.396484,17.859375 C167.396484,19.4544351 167.920568,21.1064368 168.96875,22.8154297 L170.524978,25.371243 C173.410031,30.1452511 174.930663,32.8935511 175.086914,33.6162109 C175.679365,34.7099664 175.975586,35.9062435 175.975586,37.2050781 C175.952799,37.797529 175.884441,38.4241503 175.770508,39.0849609 L174.027344,48.5527344 C173.799478,49.8287824 173.172857,50.8997353 172.147461,51.765625 C171.122065,52.6087282 169.948574,53.0302734 168.626953,53.0302734 L160.458008,53.0302734 C159.250319,53.0302734 158.236332,52.5973351 157.416016,51.7314453 C156.618486,50.8655556 156.219727,49.8059958 156.219727,48.5527344 L156.219727,47.7666016 L158.373047,35.359375 Z M186.126953,4.01660156 L193.167969,4.01660156 L192.791992,39.3242188 L204.618164,4.01660156 L212.75293,4.01660156 L203.866211,53.0302734 L197.953125,53.0302734 L203.387695,22.4394531 L193.06543,53.0302734 L188.075195,53.0302734 L188.451172,22.0634766 L183.119141,53.0302734 L177.206055,53.0302734 L186.126953,4.01660156 Z M216.854492,4.01660156 L229.740234,4.01660156 C230.947923,4.01660156 231.984696,4.46093306 232.850586,5.34960938 C233.693689,6.19271255 234.115234,7.16112734 234.115234,8.25488281 C234.115234,8.55110825 234.081055,8.88150859 234.012695,9.24609375 L230.868164,26.609375 C230.640298,27.9082096 230.02507,28.9791625 229.022461,29.8222656 C228.019852,30.6653688 226.869147,31.0869141 225.570312,31.0869141 L217.879883,31.0869141 L213.880859,53.0644531 L207.967773,53.0644531 L216.854492,4.01660156 Z M223.587891,25.5498047 C224.089195,25.5498047 224.533527,25.3903011 224.920898,25.0712891 C225.285484,24.7750636 225.513346,24.3876977 225.604492,23.9091797 L228.03125,11.1601562 L228.03125,10.9550781 C228.03125,10.5449198 227.894533,10.2031264 227.621094,9.9296875 C227.347655,9.67903521 227.017255,9.55371094 226.629883,9.55371094 L221.742188,9.55371094 L218.768555,25.5498047 L223.587891,25.5498047 Z M255.101562,2 L259.374023,2 L258.235774,3.57126096 C253.799276,9.72605238 250.76075,14.3178184 249.120117,17.3466797 C246.454088,22.336939 244.426114,28.1018553 243.036133,34.6416016 C241.623365,41.2497075 241.258786,47.2880586 241.942383,52.7568359 C242.375328,56.1292486 243.594391,60.9827157 245.599609,67.3173828 L241.463867,67.3173828 L239.873753,63.5868491 C238.571071,60.4985535 237.739623,58.4266482 237.379395,57.3710938 C236.889483,55.9355397 236.439455,53.987317 236.029297,51.5263672 C235.459633,48.1539545 235.334308,44.5537301 235.65332,40.7255859 C235.835613,38.7431542 236.109048,36.851897 236.473633,35.0517578 C237.909187,28.3069324 240.244775,22.3027607 243.480469,17.0390625 L243.813683,16.5106123 C245.956079,13.1709108 249.718673,8.33408282 255.101562,2 Z M262.347656,4.01660156 L275.643555,4.01660156 L274.686523,9.48535156 L267.303711,9.48535156 L264.535156,25.0371094 L271.883789,25.0371094 L270.858398,30.5058594 L263.543945,30.5058594 L260.501953,47.5615234 L267.748047,47.5615234 L266.756836,53.0302734 L253.460938,53.0302734 L262.347656,4.01660156 Z M271.78125,47.6982422 L278.822266,8.45996094 C279.050131,7.18391289 279.676753,6.12435317 280.702148,5.28125 C281.727544,4.43814683 282.878249,4.01660156 284.154297,4.01660156 L292.459961,4.01660156 C293.644863,4.01660156 294.65885,4.44953994 295.501953,5.31542969 C296.367843,6.18131943 296.800781,7.24087915 296.800781,8.49414062 C296.800781,8.81315264 296.777995,9.06380117 296.732422,9.24609375 L294.544922,21.4482422 L288.871094,21.4482422 L290.716797,11.1601562 L290.716797,10.9550781 C290.716797,10.5449198 290.580079,10.2031264 290.306641,9.9296875 C290.033202,9.67903521 289.691408,9.55371094 289.28125,9.55371094 L286.102539,9.55371094 C285.624021,9.55371094 285.17969,9.71321455 284.769531,10.0322266 C284.38216,10.328452 284.142904,10.7044248 284.051758,11.1601562 L277.796875,45.8525391 L277.796875,46.0234375 C277.796875,46.4108092 277.933592,46.7526027 278.207031,47.0488281 C278.48047,47.3450536 278.822264,47.4931641 279.232422,47.4931641 L282.376953,47.4931641 C283.561855,47.4931641 284.256835,46.9235083 284.461914,45.7841797 L286.307617,35.5302734 L292.015625,35.5302734 L289.691406,48.5527344 C289.463541,49.8287824 288.825526,50.8997353 287.777344,51.765625 C286.751948,52.6087282 285.58985,53.0302734 284.291016,53.0302734 L276.12207,53.0302734 C274.914382,53.0302734 273.889002,52.5973351 273.045898,51.7314453 C272.202795,50.842769 271.78125,49.7832093 271.78125,48.5527344 L271.78125,47.6982422 Z M292.870117,53.0302734 L301.791016,4.01660156 L307.669922,4.01660156 L303.841797,25.0371094 L310.165039,25.0371094 L313.993164,4.01660156 L319.87207,4.01660156 L310.985352,53.0302734 L305.072266,53.0302734 L309.173828,30.5058594 L302.850586,30.5058594 L298.783203,53.0302734 L292.870117,53.0302734 Z M316.009766,48.5527344 L316.009766,47.6982422 L323.050781,8.45996094 C323.278647,7.18391289 323.905268,6.12435317 324.930664,5.28125 C325.95606,4.43814683 327.106764,4.01660156 328.382812,4.01660156 L336.688477,4.01660156 C337.873378,4.01660156 338.887366,4.44953994 339.730469,5.31542969 C340.596358,6.18131943 341.029297,7.24087915 341.029297,8.49414062 C341.029297,8.81315264 341.006511,9.06380117 340.960938,9.24609375 L333.919922,48.5527344 C333.692056,49.8287824 333.054042,50.8997353 332.005859,51.765625 C330.980464,52.6087282 329.818366,53.0302734 328.519531,53.0302734 L320.350586,53.0302734 C319.142898,53.0302734 318.117517,52.5973351 317.274414,51.7314453 C316.431311,50.842769 316.009766,49.7832093 316.009766,48.5527344 Z M322.025391,45.8525391 L322.025391,46.0234375 C322.025391,46.4108092 322.162108,46.7526027 322.435547,47.0488281 C322.708986,47.3450536 323.050779,47.4931641 323.460938,47.4931641 L326.605469,47.4931641 C327.790371,47.4931641 328.485351,46.9235083 328.69043,45.7841797 L334.945312,11.1601562 L334.945312,10.9550781 C334.945312,10.5449198 334.808595,10.2031264 334.535156,9.9296875 C334.261717,9.67903521 333.919924,9.55371094 333.509766,9.55371094 L330.331055,9.55371094 C329.852537,9.55371094 329.408205,9.71321455 328.998047,10.0322266 C328.610675,10.328452 328.37142,10.7044248 328.280273,11.1601562 L322.025391,45.8525391 Z M338.431641,67.3173828 L334.193359,67.3173828 L335.639119,65.3045755 C339.948417,59.2669459 342.88444,54.7881799 344.447266,51.8681641 C347.067721,46.969051 349.084303,41.2269209 350.49707,34.6416016 C351.887051,28.0562822 352.240238,22.0293242 351.556641,16.5605469 C351.146482,13.1881342 349.938812,8.33466709 347.933594,2 L352.069336,2 L353.710155,5.97919887 C355.060427,9.27667247 355.903456,11.4081041 356.239258,12.3735352 C356.694989,13.6837631 357.116535,15.4895718 357.503906,17.7910156 C357.982424,20.6393372 358.159018,23.4534366 358.033691,26.2333984 C357.908365,29.0133603 357.572268,31.6907423 357.025391,34.265625 C355.589837,41.0104504 353.242855,47.0260152 349.984375,52.3125 L349.651341,52.847512 C347.511161,56.2249065 343.771294,61.0481541 338.431641,67.3173828 Z" id="S-SMP(Echo)" fill="#FF5050" fill-rule="nonzero"></path>
    </g>
</svg>