<?xml version="1.0" encoding="UTF-8"?>
<svg width="403px" height="353px" viewBox="0 0 403 353" version="1.1" xmlns="http://www.w3.org/2000/svg" xmlns:xlink="http://www.w3.org/1999/xlink">
    <!-- Generator: Sketch 58 (84663) - https://sketch.com -->
    <title>Envelope</title>
    <desc>Created with Sketch.</desc>
    <g id="Envelope" stroke="none" stroke-width="1" fill="none" fill-rule="evenodd">
        <g id="Group-5" transform="translate(5.000000, 10.000000)">
            <g id="Group" transform="translate(246.000000, 126.000000)">
                <path d="M-7.10542736e-15,0.5 L39.8014326,0.5 C41.3749371,9.508568 41.3749371,15.9252347 39.8014326,19.75 C38.2279281,23.5747653 37.6643208,24.6611681 38.1106107,23.0092084 L-7.10542736e-15,0.5 Z" id="Path-5" fill="#929292"></path>
                <path d="M0,0.5 L70,0.5" id="Line-3-Copy-2" stroke="#929292" stroke-width="3" stroke-linecap="square"></path>
            </g>
            <g id="Group-9" transform="translate(240.000000, 122.500000)" fill="#929292" fill-rule="nonzero">
                <path d="M1.50838563,124.508351 L5.50835062,124.491614 L5.4874303,119.491658 L1.48746532,119.508394 L1.50838563,124.508351 Z M1.47909719,117.508412 L5.47906217,117.491676 L5.45814186,112.491719 L1.45817687,112.508456 L1.47909719,117.508412 Z M1.44980874,110.508473 L5.44977373,110.491737 L5.42885341,105.491781 L1.42888842,105.508517 L1.44980874,110.508473 Z M1.42052029,103.508534 L5.42048528,103.491798 L5.39956496,98.491842 L1.39959998,98.5085782 L1.42052029,103.508534 Z M1.39123185,96.5085957 L5.39119683,96.4918595 L5.37027652,91.4919032 L1.37031153,91.5086395 L1.39123185,96.5085957 Z M1.3619434,89.508657 L5.36190839,89.4919207 L5.34098807,84.4919645 L1.34102308,84.5087008 L1.3619434,89.508657 Z M1.33265495,82.5087183 L5.33261994,82.491982 L5.31169962,77.4920258 L1.31173464,77.508762 L1.33265495,82.5087183 Z M1.30336651,75.5087795 L5.3033315,75.4920433 L5.28241118,70.492087 L1.28244619,70.5088233 L1.30336651,75.5087795 Z M1.27407806,68.5088408 L5.27404305,68.4921045 L5.25312273,63.4921483 L1.25315774,63.5088846 L1.27407806,68.5088408 Z M1.24478962,61.5089021 L5.2447546,61.4921658 L5.22383428,56.4922096 L1.2238693,56.5089458 L1.24478962,61.5089021 Z M1.21550117,54.5089633 L5.21546616,54.4922271 L5.19454584,49.4922709 L1.19458085,49.5090071 L1.21550117,54.5089633 Z M1.18621272,47.5090246 L5.18617771,47.4922884 L5.16525739,42.4923321 L1.1652924,42.5090684 L1.18621272,47.5090246 Z M1.15692428,40.5090859 L5.15688926,40.4923496 L5.13596894,35.4923934 L1.13600396,35.5091297 L1.15692428,40.5090859 Z M1.12763583,33.5091472 L5.12760082,33.4924109 L5.1066805,28.4924547 L1.10671551,28.5091909 L1.12763583,33.5091472 Z M1.09834738,26.5092084 L5.09831237,26.4924722 L5.07739205,21.4925159 L1.07742706,21.5092522 L1.09834738,26.5092084 Z M1.06905894,19.5092697 L5.06902392,19.4925335 L5.0481036,14.4925772 L1.04813862,14.5093135 L1.06905894,19.5092697 Z M1.03977049,12.509331 L5.03973548,12.4925947 L5.01881516,7.49263849 L1.01885017,7.50937475 L1.03977049,12.509331 Z M1.01048204,5.50939226 L5.01044703,5.492656 L4.98952671,0.492699767 L0.989561724,0.509436022 L1.01048204,5.50939226 Z" id="Line-2-Copy-2"></path>
            </g>
            <g id="Group-10" transform="translate(117.000000, 0.500000)" fill="#929292" fill-rule="nonzero">
                <path d="M0.5,246.5 L4.5,246.5 L4.5,241.5 L0.5,241.5 L0.5,246.5 Z M0.5,239.5 L4.5,239.5 L4.5,234.5 L0.5,234.5 L0.5,239.5 Z M0.5,232.5 L4.5,232.5 L4.5,227.5 L0.5,227.5 L0.5,232.5 Z M0.5,225.5 L4.5,225.5 L4.5,220.5 L0.5,220.5 L0.5,225.5 Z M0.5,218.5 L4.5,218.5 L4.5,213.5 L0.5,213.5 L0.5,218.5 Z M0.5,211.5 L4.5,211.5 L4.5,206.5 L0.5,206.5 L0.5,211.5 Z M0.5,204.5 L4.5,204.5 L4.5,199.5 L0.5,199.5 L0.5,204.5 Z M0.5,197.5 L4.5,197.5 L4.5,192.5 L0.5,192.5 L0.5,197.5 Z M0.5,190.5 L4.5,190.5 L4.5,185.5 L0.5,185.5 L0.5,190.5 Z M0.5,183.5 L4.5,183.5 L4.5,178.5 L0.5,178.5 L0.5,183.5 Z M0.5,176.5 L4.5,176.5 L4.5,171.5 L0.5,171.5 L0.5,176.5 Z M0.5,169.5 L4.5,169.5 L4.5,164.5 L0.5,164.5 L0.5,169.5 Z M0.5,162.5 L4.5,162.5 L4.5,157.5 L0.5,157.5 L0.5,162.5 Z M0.5,155.5 L4.5,155.5 L4.5,150.5 L0.5,150.5 L0.5,155.5 Z M0.5,148.5 L4.5,148.5 L4.5,143.5 L0.5,143.5 L0.5,148.5 Z M0.5,141.5 L4.5,141.5 L4.5,136.5 L0.5,136.5 L0.5,141.5 Z M0.5,134.5 L4.5,134.5 L4.5,129.5 L0.5,129.5 L0.5,134.5 Z M0.5,127.5 L4.5,127.5 L4.5,122.5 L0.5,122.5 L0.5,127.5 Z M0.5,120.5 L4.5,120.5 L4.5,115.5 L0.5,115.5 L0.5,120.5 Z M0.5,113.5 L4.5,113.5 L4.5,108.5 L0.5,108.5 L0.5,113.5 Z M0.5,106.5 L4.5,106.5 L4.5,101.5 L0.5,101.5 L0.5,106.5 Z M0.5,99.5 L4.5,99.5 L4.5,94.5 L0.5,94.5 L0.5,99.5 Z M0.5,92.5 L4.5,92.5 L4.5,87.5 L0.5,87.5 L0.5,92.5 Z M0.5,85.5 L4.5,85.5 L4.5,80.5 L0.5,80.5 L0.5,85.5 Z M0.5,78.5 L4.5,78.5 L4.5,73.5 L0.5,73.5 L0.5,78.5 Z M0.5,71.5 L4.5,71.5 L4.5,66.5 L0.5,66.5 L0.5,71.5 Z M0.5,64.5 L4.5,64.5 L4.5,59.5 L0.5,59.5 L0.5,64.5 Z M0.5,57.5 L4.5,57.5 L4.5,52.5 L0.5,52.5 L0.5,57.5 Z M0.5,50.5 L4.5,50.5 L4.5,45.5 L0.5,45.5 L0.5,50.5 Z M0.5,43.5 L4.5,43.5 L4.5,38.5 L0.5,38.5 L0.5,43.5 Z M0.5,36.5 L4.5,36.5 L4.5,31.5 L0.5,31.5 L0.5,36.5 Z M0.5,29.5 L4.5,29.5 L4.5,24.5 L0.5,24.5 L0.5,29.5 Z M0.5,22.5 L4.5,22.5 L4.5,17.5 L0.5,17.5 L0.5,22.5 Z M0.5,15.5 L4.5,15.5 L4.5,10.5 L0.5,10.5 L0.5,15.5 Z M0.5,8.5 L4.5,8.5 L4.5,3.5 L0.5,3.5 L0.5,8.5 Z" id="Line-2-Copy-3"></path>
            </g>
            <g id="Group-4" transform="translate(53.500000, 95.000000)" fill="#000000" font-family="Arial-BoldMT, Arial" font-size="16" font-weight="bold">
                <g id="Group-3">
                    <text id="Attack">
                        <tspan x="1.046875" y="181">Attack</tspan>
                    </text>
                    <text id="Total-Level">
                        <tspan x="81.484375" y="45">Total </tspan>
                        <tspan x="79.5429688" y="62">Level</tspan>
                    </text>
                    <text id="Decay">
                        <tspan x="103.925781" y="183">Decay</tspan>
                    </text>
                    <text id="Release-Rate">
                        <tspan x="218.691406" y="14">Release Rate</tspan>
                    </text>
                    <text id="Sustain-Level">
                        <tspan x="198.105469" y="94">Sustain </tspan>
                        <tspan x="206.542969" y="111">Level</tspan>
                    </text>
                </g>
            </g>
            <g id="Envelope" transform="translate(0.000000, 0.691636)" stroke="#000000" stroke-width="5">
                <path d="M0.5,250.308364 L389.5,250.808364" id="Line" stroke-linecap="square"></path>
                <polyline id="Path" points="20.3499107 250 119.296647 0 246.218944 125 365.985813 196.308322 377.153528 250.308364"></polyline>
            </g>
            <g id="KeyOff" transform="translate(305.000000, 198.000000)">
                <path id="Line-4" d="M61,0 L68,14 L62,14 L62,119 L60,119 L60,14 L54,14 L61,0 Z" fill="#929292" fill-rule="nonzero"></path>
                <text id="Key-off" font-family="Arial-BoldMT, Arial" font-size="16" font-weight="bold" fill="#000000">
                    <tspan x="0" y="133">Key-off</tspan>
                </text>
            </g>
            <g id="KeyOn" transform="translate(21.000000, 257.000000)">
                <path id="Line-4" d="M1,0 L8,14 L2,14 L2,64.5 L0,64.5 L0,14 L-6,14 L1,0 Z" fill="#929292" fill-rule="nonzero"></path>
                <text id="Key-on" font-family="Arial-BoldMT, Arial" font-size="16" font-weight="bold" fill="#000000">
                    <tspan x="8.5" y="74">Key-on</tspan>
                </text>
            </g>
        </g>
    </g>
</svg>