<?xml version="1.0" encoding="UTF-8"?>
<svg width="470px" height="70px" viewBox="0 0 470 70" version="1.1" xmlns="http://www.w3.org/2000/svg" xmlns:xlink="http://www.w3.org/1999/xlink">
    <!-- Generator: Sketch 58 (84663) - https://sketch.com -->
    <title>Logo</title>
    <desc>Created with Sketch.</desc>
    <g id="Logo" stroke="none" stroke-width="1" fill="none" fill-rule="evenodd">
        <path d="M142.815918,41.3388672 L148.165527,41.3388672 L146.425293,51.2324219 L146.425293,51.3935547 C146.425293,51.7587909 146.554198,52.0810533 146.812012,52.3603516 C147.069826,52.6396498 147.381346,52.7792969 147.746582,52.7792969 L150.711426,52.7792969 C151.184084,52.7792969 151.613768,52.6289078 152.000488,52.328125 C152.408693,52.0058578 152.655761,51.6191429 152.741699,51.1679688 L153.901855,44.6582031 C153.944824,44.4648428 153.966309,44.2607433 153.966309,44.0458984 C153.966309,43.2479034 153.632866,42.2276241 152.965971,40.9850339 L151.539975,38.3541971 C151.136349,37.6022448 150.645323,36.6850264 150.066895,35.6025391 L147.166504,30.1240234 L147.166504,30.1240234 C146.350094,28.5126873 145.941895,26.9336015 145.941895,25.3867188 L145.941895,25.0966797 C145.941895,24.7314435 145.974121,24.3554707 146.038574,23.96875 L147.424316,15.9765625 C147.639161,14.7734315 148.240718,13.774418 149.229004,12.9794922 C150.174321,12.1845663 151.259271,11.7871094 152.483887,11.7871094 L160.218262,11.7871094 C161.335455,11.7871094 162.302242,12.1953084 163.118652,13.0117188 C163.956547,13.8281291 164.375488,14.8378846 164.375488,16.0410156 C164.375488,16.3203139 164.354004,16.5458976 164.311035,16.7177734 L162.280762,28.0615234 L156.866699,28.0615234 L158.574707,18.5224609 C158.617676,18.4580075 158.63916,18.3720708 158.63916,18.2646484 C158.63916,17.9423812 158.499513,17.641603 158.220215,17.3623047 C157.940917,17.1259754 157.618654,17.0078125 157.253418,17.0078125 L154.288574,17.0078125 C153.815916,17.0078125 153.396974,17.1582016 153.031738,17.4589844 C152.666502,17.7382826 152.440918,18.0927713 152.35498,18.5224609 L151.42041,23.6464844 C151.355957,24.0332051 151.32373,24.430662 151.32373,24.8388672 C151.32373,26.342781 151.817866,27.9003826 152.806152,29.5117188 L154.331136,32.0169678 C157.013918,36.4593526 158.42843,39.0187799 158.574707,39.6953125 C159.133304,40.7265677 159.412598,41.8544861 159.412598,43.0791016 C159.391113,43.6376981 159.326661,44.2285125 159.219238,44.8515625 L157.575684,53.7783203 C157.360839,54.9814513 156.770024,55.9912069 155.803223,56.8076172 C154.836421,57.602543 153.729987,58 152.483887,58 L144.781738,58 C143.643061,58 142.687016,57.591801 141.913574,56.7753906 C141.161617,55.9589803 140.785645,54.9599668 140.785645,53.7783203 L140.785645,53.0371094 L142.815918,41.3388672 Z M168.85498,11.7871094 L174.20459,11.7871094 L167.114746,51.296875 L167.114746,51.4580078 C167.114746,51.823244 167.232909,52.1455064 167.469238,52.4248047 C167.748537,52.704103 168.070799,52.84375 168.436035,52.84375 L171.400879,52.84375 C172.518072,52.84375 173.173339,52.306646 173.366699,51.2324219 L180.520996,11.7871094 L185.999512,11.7871094 L178.297363,53.8427734 C178.082518,55.02442 177.491704,56.0126913 176.524902,56.8076172 C175.558101,57.602543 174.451666,58 173.205566,58 L165.438965,58 C164.343256,58 163.397953,57.591801 162.603027,56.7753906 C161.808101,55.9589803 161.410645,54.981451 161.410645,53.8427734 L161.410645,53.0371094 L168.85498,11.7871094 Z M189.705566,11.7871094 L201.85498,11.7871094 C202.993658,11.7871094 203.971187,12.2060505 204.787598,13.0439453 C205.582524,13.8388712 205.97998,14.751948 205.97998,15.7832031 C205.97998,16.0625014 205.947754,16.3740217 205.883301,16.7177734 L202.918457,33.0888672 C202.703612,34.3134827 202.12354,35.3232382 201.178223,36.1181641 C200.232905,36.9130899 199.147955,37.3105469 197.92334,37.3105469 L190.672363,37.3105469 L186.901855,58.0322266 L181.32666,58.0322266 L189.705566,11.7871094 Z M196.054199,32.0898438 C196.526858,32.0898438 196.945799,31.9394546 197.311035,31.6386719 C197.654787,31.3593736 197.869628,30.9941429 197.955566,30.5429688 L200.243652,18.5224609 L200.243652,18.3291016 C200.243652,17.9423809 200.114747,17.6201185 199.856934,17.3623047 C199.59912,17.1259754 199.287599,17.0078125 198.922363,17.0078125 L194.313965,17.0078125 L191.510254,32.0898438 L196.054199,32.0898438 Z M210.620605,11.7871094 L223.156738,11.7871094 L222.254395,16.9433594 L215.293457,16.9433594 L212.683105,31.6064453 L219.611816,31.6064453 L218.64502,36.7626953 L211.748535,36.7626953 L208.880371,52.84375 L215.712402,52.84375 L214.777832,58 L202.241699,58 L210.620605,11.7871094 Z M218.677246,58 L226.959473,11.7871094 L239.366699,11.7871094 C240.483892,11.7871094 241.45068,12.1953084 242.26709,13.0117188 C243.0835,13.8066446 243.513183,14.7841739 243.556152,15.9443359 L243.427246,16.7177734 L243.427246,16.7177734 L240.849121,31.2841797 C240.483885,33.303721 239.291514,34.5927706 237.271973,35.1513672 C238.02393,35.4306655 238.59326,35.9248011 238.97998,36.6337891 C239.280763,37.1923856 239.431152,37.8154263 239.431152,38.5029297 C239.431152,38.6533211 239.42041,38.8144523 239.398926,38.9863281 C239.398926,39.3085954 239.388184,39.5556632 239.366699,39.7275391 L236.015137,58 L230.343262,58 L233.727051,39.0830078 L233.727051,38.921875 C233.727051,38.5566388 233.598146,38.2451185 233.340332,37.9873047 C233.082518,37.7294909 232.770998,37.6005859 232.405762,37.6005859 L227.92627,37.6005859 L224.316895,58 L218.677246,58 Z M228.925293,32.0898438 L233.404785,32.0898438 C233.877444,32.0898438 234.296385,31.9287125 234.661621,31.6064453 C235.005373,31.3056626 235.220214,30.9296898 235.306152,30.4785156 L237.497559,18.5224609 L237.497559,18.3291016 C237.497559,17.9423809 237.368654,17.6201185 237.11084,17.3623047 C236.831542,17.1259754 236.498537,17.0078125 236.111816,17.0078125 L231.664551,17.0078125 L228.925293,32.0898438 Z M248.390137,58 L263.633301,11.7871094 L269.17627,11.7871094 L267.726074,58 L262.473145,58 L262.859863,50.3945312 L256.543457,50.3945312 L254.287598,58 L248.390137,58 Z M263.117676,45.1738281 L264.148926,24.7099609 L258.090332,45.1738281 L263.117676,45.1738281 Z M270.852051,58 L279.230957,11.7871094 L291.76709,11.7871094 C292.927252,11.7871094 293.915523,12.2060505 294.731934,13.0439453 C295.505375,13.8388712 295.89209,14.7412059 295.89209,15.7509766 C295.89209,16.0302748 295.859864,16.3525372 295.79541,16.7177734 L289.124512,53.7783203 C288.909667,54.9814513 288.329595,55.9912069 287.384277,56.8076172 C286.43896,57.602543 285.35401,58 284.129395,58 L270.852051,58 Z M282.260254,52.7792969 C282.732913,52.7792969 283.151854,52.6289078 283.51709,52.328125 C283.860842,52.0273422 284.075683,51.6406274 284.161621,51.1679688 L290.123535,18.5224609 C290.14502,18.4580075 290.155762,18.3828129 290.155762,18.296875 C290.155762,17.9316388 290.026857,17.6201185 289.769043,17.3623047 C289.511229,17.1259754 289.188967,17.0078125 288.802246,17.0078125 L283.807129,17.0078125 L277.265137,52.7792969 L282.260254,52.7792969 Z M312.907715,11.7871094 C314.024908,11.7871094 314.991695,12.1953084 315.808105,13.0117188 C316.646,13.8281291 317.064941,14.8378846 317.064941,16.0410156 C317.064941,16.3203139 317.043457,16.5458976 317.000488,16.7177734 L314.970215,28.0615234 L309.556152,28.0615234 L311.26416,18.5224609 C311.307129,18.4580075 311.328613,18.3720708 311.328613,18.2646484 C311.328613,17.9423812 311.188966,17.641603 310.909668,17.3623047 C310.63037,17.1259754 310.308107,17.0078125 309.942871,17.0078125 L306.978027,17.0078125 C306.505369,17.0078125 306.086428,17.1582016 305.721191,17.4589844 C305.355955,17.7382826 305.130372,18.0927713 305.044434,18.5224609 L304.109863,23.6464844 C304.04541,24.0332051 304.013184,24.430662 304.013184,24.8388672 C304.013184,26.342781 304.507319,27.9003826 305.495605,29.5117188 L307.020589,32.0169678 C309.703371,36.4593526 311.117883,39.0187799 311.26416,39.6953125 C311.822757,40.7265677 312.102051,41.8544861 312.102051,43.0791016 C312.080566,43.6376981 312.016114,44.2285125 311.908691,44.8515625 L310.265137,53.7783203 C310.050292,54.9814513 309.459477,55.9912069 308.492676,56.8076172 C307.525874,57.602543 306.41944,58 305.17334,58 L297.471191,58 C296.332514,58 295.376469,57.591801 294.603027,56.7753906 C293.85107,55.9589803 293.475098,54.9599668 293.475098,53.7783203 L293.475098,53.0371094 L295.505371,41.3388672 L300.85498,41.3388672 L299.114746,51.2324219 L299.114746,51.3935547 C299.114746,51.7587909 299.243651,52.0810533 299.501465,52.3603516 C299.759279,52.6396498 300.070799,52.7792969 300.436035,52.7792969 L303.400879,52.7792969 C303.873538,52.7792969 304.303221,52.6289078 304.689941,52.328125 C305.098147,52.0058578 305.345214,51.6191429 305.431152,51.1679688 L306.591309,44.6582031 C306.634278,44.4648428 306.655762,44.2607433 306.655762,44.0458984 C306.655762,43.2479034 306.322319,42.2276241 305.655424,40.9850339 L304.671828,39.1772122 L302.419749,34.9681213 C300.95058,32.1987723 300.095991,30.5840877 299.855957,30.1240234 C299.039547,28.5126873 298.631348,26.9336015 298.631348,25.3867188 L298.631348,25.0966797 C298.631348,24.7314435 298.663574,24.3554707 298.728027,23.96875 L300.11377,15.9765625 C300.328614,14.7734315 300.930171,13.774418 301.918457,12.9794922 C302.863774,12.1845663 303.948724,11.7871094 305.17334,11.7871094 L312.907715,11.7871094 Z M333.983887,11.7871094 C335.10108,11.7871094 336.067867,12.1953084 336.884277,13.0117188 C337.700688,13.8066446 338.130371,14.7841739 338.17334,15.9443359 L338.044434,16.7177734 L335.466309,31.2841797 C335.101072,33.303721 333.908702,34.5927706 331.88916,35.1513672 C332.641117,35.4306655 333.210447,35.9248011 333.597168,36.6337891 C333.897951,37.1923856 334.04834,37.8154263 334.04834,38.5029297 C334.04834,38.6533211 334.037598,38.8144523 334.016113,38.9863281 L334.010957,39.3369536 C334.005801,39.4942189 333.996777,39.6244135 333.983887,39.7275391 L330.632324,58 L324.960449,58 L328.344238,39.0830078 L328.344238,38.921875 C328.344238,38.5566388 328.215333,38.2451185 327.95752,37.9873047 C327.699706,37.7294909 327.388185,37.6005859 327.022949,37.6005859 L322.543457,37.6005859 L318.934082,58 L313.294434,58 L321.57666,11.7871094 L333.983887,11.7871094 Z M330.729004,17.0078125 L326.281738,17.0078125 L323.54248,32.0898438 L328.021973,32.0898438 C328.494631,32.0898438 328.913572,31.9287125 329.278809,31.6064453 C329.573453,31.3486315 329.773388,31.0355761 329.878617,30.6672718 L329.92334,30.4785156 L332.114746,18.5224609 L332.114746,18.3291016 C332.114746,17.9423809 331.985841,17.6201185 331.728027,17.3623047 C331.448729,17.1259754 331.115725,17.0078125 330.729004,17.0078125 Z" id="SUPERADSR" fill="#FF5050" fill-rule="nonzero"></path>
    </g>
</svg>