<?xml version="1.0" encoding="UTF-8"?>
<svg width="470px" height="70px" viewBox="0 0 470 70" version="1.1" xmlns="http://www.w3.org/2000/svg" xmlns:xlink="http://www.w3.org/1999/xlink">
    <!-- Generator: Sketch 58 (84663) - https://sketch.com -->
    <title>2612-Logo</title>
    <desc>Created with Sketch.</desc>
    <g id="2612-Logo" stroke="none" stroke-width="1" fill="none" fill-rule="evenodd">
        <path d="M189.28,68 L146.17,68 L146.17,51.26 C146.17,47.2399799 146.739994,43.8950133 147.88,41.225 C149.020006,38.5549867 150.444991,36.3350088 152.155,34.565 C153.865009,32.7949912 155.72499,31.3850053 157.735,30.335 C159.521676,29.401662 161.18981,28.5868538 162.739443,27.8905564 L163.315,27.635 C165.025009,26.8849963 166.449994,26.1800033 167.59,25.52 C168.730006,24.8599967 169.3,24.0200051 169.3,23 C169.3,22.6999985 169.315,22.3250023 169.345,21.875 C169.375,21.4249978 169.36,21.005002 169.3,20.615 C169.24,20.224998 169.090001,19.8800015 168.85,19.58 C168.609999,19.2799985 168.250002,19.13 167.77,19.13 L147.25,19.13 L147.25,11.75 L170.56,11.75 C172.000007,11.75 173.229995,11.7949995 174.25,11.885 C175.270005,11.9750005 176.094997,12.2149981 176.725,12.605 C177.355003,12.995002 177.804999,13.5799961 178.075,14.36 C178.345001,15.1400039 178.48,16.25 178.48,17.69 L178.48,24.71 C178.48,26.2700078 177.955005,27.5299952 176.905,28.49 C175.854995,29.4500048 174.550008,30.3049963 172.99,31.055 C171.429992,31.8050037 169.720009,32.5549963 167.86,33.305 C165.999991,34.0550037 164.260008,34.9999943 162.64,36.14 C160.71999,37.5800072 159.100007,39.499988 157.78,41.9 C156.459993,44.300012 155.8,47.599979 155.8,51.8 L155.8,60.62 L189.28,60.62 L189.28,68 Z M189.46,28.22 C189.46,30.2000099 188.830006,31.894993 187.57,33.305 C186.309994,34.715007 184.75,35.9749944 182.89,37.085 C181.029991,38.1950056 179.050011,39.2299952 176.95,40.19 C174.84999,41.1500048 172.945009,42.1549948 171.235,43.205 C169.524991,44.2550053 168.190005,45.4399934 167.23,46.76 C166.269995,48.0800066 166.029998,49.639991 166.51,51.44 L189.28,51.44 L189.28,58.91 L157.51,58.91 L157.51,51.8 C157.51,47.9599808 158.094994,44.9300111 159.265,42.71 C160.435006,40.4899889 161.889991,38.7500063 163.63,37.49 C165.310008,36.2299937 167.12499,35.2100039 169.075,34.43 C171.02501,33.6499961 172.824992,32.8550041 174.475,32.045 C176.125008,31.234996 177.489995,30.2900054 178.57,29.21 C179.650005,28.1299946 180.19,26.6300096 180.19,24.71 L180.19,17.69 C180.19,15.889991 180.025002,14.4800051 179.695,13.46 C179.364998,12.4399949 178.825004,11.6750026 178.075,11.165 C177.324996,10.6549975 176.335006,10.3400006 175.105,10.22 C173.986813,10.1109085 172.633106,10.0514049 171.043845,10.0414876 L147.25,10.04 L147.25,2.57 L176.68,2.57 C179.200013,2.57 181.284992,2.73499835 182.935,3.065 C184.585008,3.39500165 185.889995,4.0399952 186.85,5 C187.810005,5.9600048 188.484998,7.2799916 188.875,8.96 C189.265002,10.6400084 189.46,12.8599862 189.46,15.62 L189.46,28.22 Z M222.94,49.82 L222.94,43.79 C222.94,42.7099946 222.430005,42.17 221.41,42.17 L215.65,42.17 C214.629995,42.17 214.12,42.7099946 214.12,43.79 L214.12,49.82 C214.12,50.3600027 214.224999,50.7199991 214.435,50.9 C214.645001,51.0800009 214.959998,51.17 215.38,51.17 L221.68,51.17 C222.100002,51.17 222.414999,51.0800009 222.625,50.9 C222.835001,50.7199991 222.94,50.3600027 222.94,49.82 Z M230.68,52.88 C230.68,53.9000051 230.635,54.7849963 230.545,55.535 C230.455,56.2850038 230.230002,56.8999976 229.87,57.38 C229.509998,57.8600024 228.970004,58.204999 228.25,58.415 C227.529996,58.6250011 226.540006,58.73 225.28,58.73 L211.6,58.73 C210.339994,58.73 209.350004,58.6250011 208.63,58.415 C207.909996,58.204999 207.370002,57.8600024 207.01,57.38 C206.649998,56.8999976 206.410001,56.2850038 206.29,55.535 C206.169999,54.7849963 206.11,53.9000051 206.11,52.88 L206.11,35.51 L225.46,35.51 C226.720006,35.51 227.694997,35.5699994 228.385,35.69 C229.075003,35.8100006 229.599998,36.0649981 229.96,36.455 C230.320002,36.845002 230.53,37.444996 230.59,38.255 C230.644,38.9840036 230.6737,39.9195454 230.6791,41.0616485 L230.68,52.88 Z M240.22,56.39 C240.22,58.7300117 240.055002,60.6499925 239.725,62.15 C239.394998,63.6500075 238.765005,64.8349956 237.835,65.705 C236.904995,66.5750044 235.630008,67.1749983 234.01,67.505 C232.389992,67.8350016 230.320013,68 227.8,68 L208.9,68 C206.319987,68 204.220008,67.805002 202.6,67.415 C200.98,67.024998 199.720005,66.3800045 198.82,65.48 C197.919995,64.5799955 197.305002,63.3950074 196.975,61.925 C196.644998,60.4549927 196.48,58.6100111 196.48,56.39 L196.48,10.67 C196.48,8.3899886 197.139993,6.4700078 198.46,4.91 C199.780007,3.3499922 201.669988,2.57 204.13,2.57 L237.97,2.57 L237.97,10.04 L211.15,10.04 C209.769993,10.04 208.645004,10.1149992 207.775,10.265 C206.904996,10.4150007 206.230002,10.7449974 205.75,11.255 C205.269998,11.7650026 204.925001,12.4999952 204.715,13.46 C204.504999,14.4200048 204.4,15.7099919 204.4,17.33 L204.4,52.88 C204.4,54.2600069 204.474999,55.4149953 204.625,56.345 C204.775001,57.2750046 205.104997,58.0549969 205.615,58.685 C206.125003,59.3150032 206.844995,59.7649987 207.775,60.035 C208.705005,60.3050013 209.98,60.44 211.6,60.44 L225.28,60.44 C226.900008,60.44 228.174995,60.3050013 229.105,60.035 C230.035005,59.7649987 230.739998,59.3150032 231.22,58.685 C231.700002,58.0549969 232.014999,57.2750046 232.165,56.345 C232.315001,55.4149953 232.39,54.2600069 232.39,52.88 L232.39,41.45 L232.384675,40.6469204 C232.365148,39.2253795 232.291924,38.0830812 232.165,37.22 C232.014999,36.1999949 231.685003,35.4350026 231.175,34.925 C230.664997,34.4149975 229.945005,34.1000006 229.015,33.98 C228.169541,33.8709085 227.063766,33.8114049 225.697646,33.8014876 L206.11,33.8 L206.11,17.33 C206.11,16.129994 206.184999,15.1550038 206.335,14.405 C206.485001,13.6549962 206.739998,13.0850019 207.1,12.695 C207.460002,12.3049981 207.969997,12.0500006 208.63,11.93 C209.290003,11.8099994 210.129995,11.75 211.15,11.75 L237.97,11.75 L237.97,19.13 L218.26,19.13 C217.179995,19.13 216.445002,19.3099982 216.055,19.67 C215.664998,20.0300018 215.47,20.7499946 215.47,21.83 L215.47,27.32 L230.86,27.32 C234.220017,27.32 236.619993,27.9349938 238.06,29.165 C239.500007,30.3950062 240.22,32.6299838 240.22,35.87 L240.22,56.39 Z M276.94,68 L246.79,68 L246.79,60.62 L276.94,60.62 L276.94,68 Z M261.01,58.91 L246.79,58.91 L246.79,51.44 L252.01,51.44 L252.01,19.13 L246.79,19.13 L246.79,11.66 L261.01,11.66 L261.01,58.91 Z M276.94,58.91 L262.72,58.91 L262.72,9.95 L246.79,9.95 L246.79,2.57 L271.72,2.57 L271.72,51.44 L276.94,51.44 L276.94,58.91 Z M325.9,68 L282.79,68 L282.79,51.26 C282.79,47.2399799 283.359994,43.8950133 284.5,41.225 C285.640006,38.5549867 287.064991,36.3350088 288.775,34.565 C290.485009,32.7949912 292.34499,31.3850053 294.355,30.335 C296.141676,29.401662 297.80981,28.5868538 299.359443,27.8905564 L299.935,27.635 C301.645009,26.8849963 303.069994,26.1800033 304.21,25.52 C305.350006,24.8599967 305.92,24.0200051 305.92,23 C305.92,22.6999985 305.935,22.3250023 305.965,21.875 C305.995,21.4249978 305.98,21.005002 305.92,20.615 C305.86,20.224998 305.710001,19.8800015 305.47,19.58 C305.229999,19.2799985 304.870002,19.13 304.39,19.13 L283.87,19.13 L283.87,11.75 L307.18,11.75 C308.620007,11.75 309.849995,11.7949995 310.87,11.885 C311.890005,11.9750005 312.714997,12.2149981 313.345,12.605 C313.975003,12.995002 314.424999,13.5799961 314.695,14.36 C314.965001,15.1400039 315.1,16.25 315.1,17.69 L315.1,24.71 C315.1,26.2700078 314.575005,27.5299952 313.525,28.49 C312.474995,29.4500048 311.170008,30.3049963 309.61,31.055 C308.049992,31.8050037 306.340009,32.5549963 304.48,33.305 C302.619991,34.0550037 300.880008,34.9999943 299.26,36.14 C297.33999,37.5800072 295.720007,39.499988 294.4,41.9 C293.079993,44.300012 292.42,47.599979 292.42,51.8 L292.42,60.62 L325.9,60.62 L325.9,68 Z M326.08,28.22 C326.08,30.2000099 325.450006,31.894993 324.19,33.305 C322.929994,34.715007 321.37,35.9749944 319.51,37.085 C317.649991,38.1950056 315.670011,39.2299952 313.57,40.19 C311.469989,41.1500048 309.565009,42.1549948 307.855,43.205 C306.144991,44.2550053 304.810005,45.4399934 303.85,46.76 C302.889995,48.0800066 302.649998,49.639991 303.13,51.44 L325.9,51.44 L325.9,58.91 L294.13,58.91 L294.13,51.8 C294.13,47.9599808 294.714994,44.9300111 295.885,42.71 C297.055006,40.4899889 298.509991,38.7500063 300.25,37.49 C301.930008,36.2299937 303.74499,35.2100039 305.695,34.43 C307.64501,33.6499961 309.444992,32.8550041 311.095,32.045 C312.745008,31.234996 314.109995,30.2900054 315.19,29.21 C316.270005,28.1299946 316.81,26.6300096 316.81,24.71 L316.81,17.69 C316.81,15.889991 316.645002,14.4800051 316.315,13.46 C315.984998,12.4399949 315.445004,11.6750026 314.695,11.165 C313.944996,10.6549975 312.955006,10.3400006 311.725,10.22 C310.606813,10.1109085 309.253106,10.0514049 307.663845,10.0414876 L283.87,10.04 L283.87,2.57 L313.3,2.57 C315.820013,2.57 317.904992,2.73499835 319.555,3.065 C321.205008,3.39500165 322.509995,4.0399952 323.47,5 C324.430005,5.9600048 325.104998,7.2799916 325.495,8.96 C325.885002,10.6400084 326.08,12.8599862 326.08,15.62 L326.08,28.22 Z" id="2612" fill="#17569B" fill-rule="nonzero"></path>
    </g>
</svg>