<?xml version="1.0" encoding="UTF-8"?>
<svg width="470px" height="70px" viewBox="0 0 470 70" version="1.1" xmlns="http://www.w3.org/2000/svg" xmlns:xlink="http://www.w3.org/1999/xlink">
    <!-- Generator: Sketch 58 (84663) - https://sketch.com -->
    <title>BossFight-Logo</title>
    <desc>Created with Sketch.</desc>
    <g id="BossFight-Logo" stroke="none" stroke-width="1" fill="none" fill-rule="evenodd">
        <path d="M85.204,7.958 L85.496,8.031 C86.7126728,8.76100365 87.7711622,9.57616216 88.6715,10.4765 C89.5718378,11.3768378 90.3991629,12.3258283 91.1535,13.3235 C91.813545,14.1964627 92.3524861,15.134619 92.7703355,16.1379907 L92.942,16.572 C94.7913426,21.0493557 93.1853586,26.0619723 88.124,31.61 C85.982656,33.9460117 83.5736801,35.9413251 80.897,37.596 C81.4810029,38.0131449 82.0381823,38.331959 82.5685502,38.5524488 L82.8315,38.6545 C83.4398364,38.8735011 84.3036611,39.2871636 85.423,39.8955 C86.5423389,40.5038364 87.2723316,41.6474916 87.613,43.3265 C87.9536684,45.0055084 87.8685026,46.8913229 87.3575,48.984 C86.8464974,51.0766771 85.92184,53.2301556 84.5835,55.4445 C83.24516,57.6588444 81.505344,59.6419912 79.364,61.394 C74.497309,65.4333535 68.8520321,67.1366698 62.428,66.504 C61.5033287,66.504 60.9193346,66.4310007 60.676,66.285 L60.29056,66.04848 C60.2165868,66.0017601 60.1504003,65.9589335 60.092,65.92 C59.9459993,65.8226662 59.6296691,65.7496669 59.143,65.701 C57.9263273,66.6743382 56.5393411,67.2826654 54.982,67.526 C53.4246589,67.7693345 51.9525069,67.6476674 50.5655,67.161 C49.1784931,66.6743309 48.0105047,65.8470058 47.0615,64.679 C46.1124953,63.5109942 45.638,61.9780095 45.638,60.08 C45.7840007,58.8146603 46.0273316,57.8170036 46.368,57.087 C46.2219993,56.6489978 46.149,56.1136698 46.149,55.481 L46.4399908,53.9479933 C47.9865521,45.8864734 49.4468755,39.6571985 50.821,35.26 C53.7094469,26.2158467 56.8282072,19.3371682 60.1773698,14.6237709 L60.457,14.236 C63.2796808,10.2453134 67.1973083,7.66600584 72.21,6.498 C77.0280241,5.37866107 81.3593141,5.86532287 85.204,7.958 Z M62.501,58.912 C63.0015739,58.7868565 63.4395706,58.7421628 63.8149995,58.7779182 L63.9975,58.8025 C64.4111687,58.8755004 64.9099971,58.8633338 65.494,58.766 C66.9053404,58.6199993 68.8033214,57.744008 71.188,56.138 C72.6966742,54.6293258 73.4996662,53.1450073 73.597,51.685 C73.6943338,50.2249927 73.475336,49.2881687 72.94,48.8745 C72.404664,48.4608313 71.6868378,48.254 70.7865,48.254 C69.9987044,48.254 69.136399,48.3564651 68.1995639,48.5613981 L67.7935,48.6555 C66.6984945,48.923168 65.6400051,49.0813331 64.618,49.13 L64.618,49.276 L64.4094283,50.0804913 C64.2703808,50.5969535 64.1313338,51.0736858 63.992286,51.510693 L63.888,51.831 C63.6446655,52.5610037 63.4256676,53.2666633 63.231,53.948 C62.7929978,55.554008 62.4523346,57.2086582 62.209,58.912 L62.501,58.912 Z M76.079,20.952 C74.6189927,20.7573324 73.0373419,21.9009876 71.334,24.383 C70.263328,25.9403411 69.4360029,28.3006509 68.852,31.464 C69.6696041,31.1135982 70.4794118,30.8021336 71.2814386,30.5296004 L71.8815,30.3325 C72.8791717,30.0161651 73.8159956,29.6633353 74.692,29.274 C76.833344,28.3493287 78.3663287,27.2300066 79.291,25.916 C80.361672,24.6506603 80.7023353,23.5800044 80.313,22.704 C79.7289971,21.9253294 78.7800066,21.2196698 77.466,20.587 C77.0766647,20.9276684 76.614336,21.0493338 76.079,20.952 Z M104.184,14.674 C107.250015,11.1699825 110.656648,8.98000438 114.404,8.104 C116.983346,7.47133017 119.416655,7.56866253 121.704,8.396 C123.504676,6.49799051 125.840652,5.81666399 128.712,6.352 C131.340013,6.8386691 133.578657,8.32298759 135.428,10.805 C135.503704,11.0699643 135.645647,11.4379656 135.853833,11.9090112 L136.0485,12.338 C136.364835,13.0193367 136.668999,13.7736625 136.961,14.601 C139.102344,19.5650248 139.272676,26.0862929 137.472,34.165 C135.233322,44.1903835 131.267028,52.6826319 125.573,59.642 C123.820991,61.783344 121.850011,63.5596596 119.66,64.971 C116.155982,67.64768 111.970691,68.8400015 107.104,68.548 C104.086652,68.4019993 101.55601,67.6476735 99.512,66.285 C91.384626,62.2456465 88.7323192,53.8263973 91.555,41.027 C93.8910117,30.5149474 98.1006363,21.730702 104.184,14.674 Z M105.06,53.437 L104.987,53.875 L105.133,54.678 C105.425001,56.1866742 105.911663,57.342496 106.593,58.1455 C107.274337,58.948504 107.833998,59.4473324 108.272,59.642 C108.758669,59.2526647 109.245331,58.8876684 109.732,58.547 C110.218669,58.2063316 110.656665,57.7926691 111.046,57.306 C114.35535,53.2179796 116.934657,47.8646998 118.784,41.246 C120.633343,34.6273002 121.314669,28.4953616 120.828,22.85 C119.075991,25.0961651 117.241073,27.6533019 115.323197,30.5214764 L114.842,31.245 C112.749323,34.4083491 111.094673,37.1093221 109.878,39.348 C107.103986,44.5553594 105.498002,49.2516457 105.06,53.437 Z M148.13,67.234 C145.647988,67.3313338 143.372844,67.0271702 141.3045,66.3215 C139.236156,65.6158298 137.557173,64.6546728 136.2675,63.438 C134.977827,62.2213272 134.162668,60.7978415 133.822,59.1675 C133.481332,57.5371585 133.773329,55.8703418 134.698,54.167 C135.924996,52.1849295 138.341771,51.5528492 141.948393,52.2707425 L143.051073,52.494637 C145.51458,52.9813054 147.24404,53.2467574 148.2395,53.291 C149.334505,53.3396669 150.271329,53.1936684 151.05,52.853 C154.602684,51.6849942 156.597998,50.4196735 157.036,49.057 C157.314729,48.0814497 156.750945,46.9507144 155.344633,45.6647632 L155.138,45.48 C154.631864,45.0127977 154.079015,44.5456009 153.479441,44.0784008 L153.021,43.728 C152.242329,43.1439971 151.585336,42.5600029 151.05,41.976 C148.616655,40.1753243 146.706507,38.0948451 145.3195,35.7345 C143.932493,33.3741549 143.360665,30.8070139 143.604,28.033 C143.847335,25.2589861 144.309663,22.9595091 144.991,21.1345 C145.672337,19.3094909 146.523995,17.6913404 147.546,16.28 C149.346676,13.7979876 151.682652,11.7783411 154.554,10.221 C157.86335,8.51765815 160.515657,7.4226691 162.511,6.936 C166.45302,6.05999562 170.443646,5.98699635 174.483,6.717 C175.845673,6.96033455 177.013662,7.42266326 177.987,8.104 C178.960338,8.78533674 179.933662,9.49099635 180.907,10.221 C182.547255,11.8612551 182.991594,13.5240506 182.240027,15.2094326 L182.148,15.404 C181.807332,16.1826706 181.272004,16.8153309 180.542,17.302 C179.811996,17.7886691 179.033337,18.0563331 178.206,18.105 C178.303334,19.4190066 178.060003,20.3923302 177.476,21.025 C176.356661,22.1443389 174.410014,22.8743316 171.636,23.215 C167.645313,22.9229985 164.94434,23.1419963 163.533,23.872 C161.878325,24.7480044 161.269998,26.6459854 161.708,29.566 C161.805334,30.1986698 162.20683,30.8556633 162.9125,31.537 C163.51736,32.1210029 164.211599,32.7407531 164.995233,33.3962643 L165.3945,33.727 C166.343505,34.5056706 167.341161,35.3816618 168.3875,36.355 C169.433839,37.3283382 170.346329,38.4476603 171.125,39.713 C173.850347,44.1903557 173.631349,49.4219701 170.468,55.408 C168.131988,59.8853557 164.141362,63.2433221 158.496,65.482 C155.575985,66.6500058 152.120687,67.234 148.13,67.234 Z M188.426,67.234 C185.943988,67.3313338 183.668844,67.0271702 181.6005,66.3215 C179.532156,65.6158298 177.853173,64.6546728 176.5635,63.438 C175.273827,62.2213272 174.458668,60.7978415 174.118,59.1675 C173.777332,57.5371585 174.069329,55.8703418 174.994,54.167 C176.220996,52.1849295 178.637771,51.5528492 182.244393,52.2707425 L183.347073,52.494637 C185.81058,52.9813054 187.54004,53.2467574 188.5355,53.291 C189.630505,53.3396669 190.567329,53.1936684 191.346,52.853 C194.898684,51.6849942 196.893998,50.4196735 197.332,49.057 C197.610729,48.0814497 197.046945,46.9507144 195.640633,45.6647632 L195.434,45.48 C194.927864,45.0127977 194.375015,44.5456009 193.775441,44.0784008 L193.317,43.728 C192.538329,43.1439971 191.881336,42.5600029 191.346,41.976 C188.912655,40.1753243 187.002507,38.0948451 185.6155,35.7345 C184.228493,33.3741549 183.656665,30.8070139 183.9,28.033 C184.143335,25.2589861 184.605663,22.9595091 185.287,21.1345 C185.968337,19.3094909 186.819995,17.6913404 187.842,16.28 C189.642676,13.7979876 191.978652,11.7783411 194.85,10.221 C198.15935,8.51765815 200.811657,7.4226691 202.807,6.936 C206.74902,6.05999562 210.739646,5.98699635 214.779,6.717 C216.141673,6.96033455 217.309662,7.42266326 218.283,8.104 C219.256338,8.78533674 220.229662,9.49099635 221.203,10.221 C222.843255,11.8612551 223.287594,13.5240506 222.536027,15.2094326 L222.444,15.404 C222.103332,16.1826706 221.568004,16.8153309 220.838,17.302 C220.107996,17.7886691 219.329337,18.0563331 218.502,18.105 C218.599334,19.4190066 218.356003,20.3923302 217.772,21.025 C216.652661,22.1443389 214.706014,22.8743316 211.932,23.215 C207.941313,22.9229985 205.24034,23.1419963 203.829,23.872 C202.174325,24.7480044 201.565998,26.6459854 202.004,29.566 C202.101334,30.1986698 202.50283,30.8556633 203.2085,31.537 C203.81336,32.1210029 204.507599,32.7407531 205.291233,33.3962643 L205.6905,33.727 C206.639505,34.5056706 207.637161,35.3816618 208.6835,36.355 C209.729839,37.3283382 210.642329,38.4476603 211.421,39.713 C214.146347,44.1903557 213.927349,49.4219701 210.764,55.408 C208.427988,59.8853557 204.437362,63.2433221 198.792,65.482 C195.871985,66.6500058 192.416687,67.234 188.426,67.234 Z M250.184,62.343 C249.55133,64.6303448 247.945346,66.1633294 245.366,66.942 C243.029988,67.6233367 240.937343,67.3800058 239.088,66.212 C237.092657,64.9953273 236.459996,63.1946786 237.19,60.81 L237.319744,60.2621562 C237.93641,57.7052512 238.996078,53.9116371 240.498775,48.8812276 L244.636,35.114 L244.636,35.114 L245.582083,31.7384693 C246.742298,27.5648105 247.497598,24.6993411 247.848,23.142 L248.248898,21.8605732 C249.506661,17.8792779 250.435554,15.3261996 251.035599,14.2012768 L251.0965,14.09 C251.753503,12.9219942 252.325331,12.1068356 252.812,11.6445 C253.298669,11.1821644 254.089495,10.6346698 255.1845,10.002 C256.279505,9.36933017 257.45966,8.88266837 258.725,8.542 C259.99034,8.20133163 261.25566,7.97016727 262.521,7.8485 C263.78634,7.72683272 265.075993,7.62950037 266.39,7.5565 C267.704007,7.48349963 269.163992,7.25233528 270.77,6.863 C271.40267,6.863 271.974497,6.81433382 272.4855,6.717 C272.996503,6.61966618 273.495331,6.54666691 273.982,6.498 C275.101339,6.40066618 276.208495,6.52233163 277.3035,6.863 C278.398505,7.20366837 279.225831,7.81199562 279.7855,8.688 C280.345169,9.56400438 280.625,10.5616611 280.625,11.681 C280.625,12.8003389 280.393836,13.9926603 279.9315,15.258 C279.469164,16.5233397 278.824337,17.7399942 277.997,18.908 C276.196324,21.4386793 273.933347,23.239328 271.208,24.31 C269.309991,24.8940029 267.947337,25.186 267.12,25.186 C266.292663,25.186 265.720835,25.0886676 265.4045,24.894 C265.088165,24.6993324 264.905667,24.5533338 264.857,24.456 C264.812757,24.3675147 264.667965,24.5002405 264.42262,24.8541813 L264.346,24.967 C263.97057,25.5092884 263.684531,26.105202 263.487878,26.754754 L263.397,27.084 C263.223962,27.7761516 263.0317,28.3048718 262.82021,28.6701725 L262.74,28.7995 C262.496665,29.1645018 262.168169,29.882328 261.7545,30.953 C261.340831,32.023672 260.81767,32.9118298 260.185,33.6175 L259.573786,34.3075457 C259.311159,34.6093363 259.149898,34.8051534 259.09,34.895 L265.514,34.238 C266.536005,34.1406662 267.424163,34.3474974 268.1785,34.8585 C268.932837,35.3695026 269.468165,35.9899963 269.7845,36.72 C270.100835,37.4500036 270.186001,38.1678298 270.04,38.8735 C269.893999,39.5791702 269.456004,40.1144982 268.726,40.4795 C267.995996,40.8445018 267.521501,41.2094982 267.3025,41.5745 C267.138249,41.8482514 266.994531,42.115156 266.871344,42.3752183 L266.755,42.633 C266.608999,42.9736684 266.426501,43.3143316 266.2075,43.655 C265.988499,43.9956684 265.514004,44.3119985 264.784,44.604 C263.226659,45.3340036 260.233689,45.9179978 255.805,46.356 L255.606531,46.9285946 C255.392094,47.5262814 255.129752,48.1992463 254.8195,48.9475 L253.868219,51.2538422 C253.76024,51.5169462 253.651501,51.782332 253.542,52.05 L252.80399,53.9684908 C252.030971,55.9994578 251.565926,57.3049741 251.408845,57.8850648 L251.189612,58.7719599 C251.13002,59.0192655 251.077133,59.2442238 251.030949,59.4468362 L250.987,59.642 C250.694999,60.9560066 250.427335,61.8563309 250.184,62.343 Z M301.211,13.652 L300.205057,16.7734881 C298.995204,20.5136855 297.85733,23.9790539 296.791419,27.1696499 L293.166807,38.0299397 L293.166807,38.0299397 L290.685426,45.5023222 L290.685426,45.5023222 L289.239,49.8235 C288.216995,52.8651819 287.268004,55.7729861 286.392,58.547 C285.905331,61.7590161 284.32368,64.0219934 281.647,65.336 C280.089659,66.0660036 278.240344,66.431 276.099,66.431 C273.957656,66.431 272.351672,66.1998356 271.281,65.7375 C270.210328,65.2751644 269.516835,64.6060044 269.2005,63.73 C268.884165,62.8539956 268.884165,61.7955062 269.2005,60.5545 C269.495746,59.3962275 269.992358,57.8352316 270.690348,55.8714707 L271.227313,54.3613272 C271.715934,52.9673842 272.273879,51.3165346 272.901153,49.4087611 L273.7995,46.648 C274.753371,43.6890519 275.746164,40.6989929 276.777898,37.6777655 L277.980442,34.1847279 C281.042683,25.3501736 283.481513,19.1873218 285.297,15.696 C286.027004,14.3333265 286.756996,13.4208356 287.487,12.9585 C288.112717,12.5622123 288.720549,12.2553166 289.310509,12.0378063 L289.604,11.9365 C290.285337,11.7174989 290.917997,11.4620015 291.502,11.17 C292.086003,10.8779985 292.609164,10.1480058 293.0715,8.98 C293.533836,7.81199416 294.385494,7.00900219 295.6265,6.571 C296.867506,6.13299781 298.035495,6.09649817 299.1305,6.4615 C300.225505,6.82650182 301.052831,7.60516071 301.6125,8.7975 C302.172169,9.9898393 302.038337,11.6079898 301.211,13.652 Z M331.365532,46.4179356 C329.569035,47.4411814 327.815202,47.4692009 326.104,46.502 C325.373996,46.0558867 324.711594,45.5844319 324.116779,45.0876259 L323.768,44.7865 C323.086663,44.1781636 322.454003,43.8983331 321.87,43.947 C320.799328,43.3629971 320.555997,42.2193418 321.14,40.516 C321.383335,39.8346633 321.833497,39.1898364 322.4905,38.5815 C323.147503,37.9731636 323.986995,37.5473346 325.009,37.304 C329.875691,35.2113229 334.377313,34.7246611 338.514,35.844 C340.363343,36.3306691 341.64083,37.3161592 342.3465,38.8005 C343.05217,40.2848408 343.356334,41.9516574 343.259,43.801 C343.161666,45.6503426 342.76017,47.5239905 342.0545,49.422 C341.34883,51.3200095 340.582337,52.8408276 339.755,53.9845 C338.927663,55.1281724 337.771841,56.4786589 336.2875,58.036 C334.803159,59.5933411 332.941678,61.1019927 330.703,62.562 C325.203639,66.1146844 319.315031,67.8180007 313.037,67.672 C303.936288,67.5259993 298.558675,63.8030365 296.904,56.503 C296.368664,54.1669883 296.125333,51.5390146 296.174,48.619 C296.660669,40.1509577 299.19131,32.2427034 303.766,24.894 C305.956011,21.3899825 308.900315,17.9346837 312.599,14.528 C314.789011,12.5661152 317.235629,11.0319881 319.93892,9.92557893 L320.483,9.71 C322.040341,9.07733017 323.913989,8.46900292 326.104,7.885 C333.112035,6.47365961 338.562647,7.34965085 342.456,10.513 C344.305343,12.0216742 345.534164,14.2116523 346.1425,17.083 C346.724387,19.8295065 346.449134,22.8876579 345.316731,26.2575386 L345.157,26.719 C344.621664,28.3736749 343.697007,29.6146625 342.383,30.442 C341.068993,31.2693375 339.718507,31.7438327 338.3315,31.8655 C336.944493,31.9871673 335.691339,31.8168356 334.572,31.3545 C333.452661,30.8921644 332.844334,30.2230044 332.747,29.347 L332.09,27.887 C330.921994,26.1349912 328.902348,25.9159934 326.031,27.23 C323.548988,28.3493389 321.067012,30.2959861 318.585,33.07 C315.956987,36.0386815 314.253671,38.7153214 313.475,41.1 L313.154571,42.0823988 C312.525307,44.0593377 312.194947,45.4218552 312.163484,46.1699807 L312.161,46.283 C312.063666,48.1323426 312.72066,49.7869927 314.132,51.247 C316.17601,52.5610066 318.21999,53.1571673 320.264,53.0355 C322.30801,52.9138327 324.132992,52.451504 325.739,51.6485 C327.345008,50.845496 328.658995,49.9330051 329.681,48.911 C330.703005,47.8889949 331.214,47.1590022 331.214,46.721 L331.365532,46.4179356 L331.365532,46.4179356 Z M361.217,47.086 L357.713,55.992 C357.323665,57.0821388 356.96548,58.2034108 356.638441,59.3558379 L356.399,60.226 C356.009665,61.6860073 355.596002,62.9634945 355.158,64.0585 C354.719998,65.1535055 354.050838,66.0173302 353.1505,66.65 C352.250162,67.2826698 351.240339,67.7571651 350.121,68.0735 C349.001661,68.3898349 347.845839,68.5236669 346.6535,68.475 C345.461161,68.4263331 344.402671,68.2073353 343.478,67.818 C341.385323,66.8446618 340.65533,65.2386779 341.288,63 L341.693557,61.2340494 C343.713968,52.511557 345.623749,45.397974 347.422949,39.8931227 L348.246885,37.4157458 C349.931597,32.3880458 351.347124,28.3601633 352.4935,25.332 L354.249105,20.674419 C354.995626,18.6856996 355.760922,16.6368994 356.545,14.528 C356.691001,13.1166596 357.274995,11.8513389 358.297,10.732 C359.319005,9.61266107 360.523493,8.68800365 361.9105,7.958 C363.297507,7.22799635 364.745326,6.70483492 366.254,6.3885 C367.762674,6.07216509 369.100994,6.03566545 370.269,6.279 C371.437006,6.52233455 372.300831,7.05766253 372.8605,7.885 C373.420169,8.71233747 373.456669,9.90465888 372.97,11.462 L368.771147,22.1560523 C368.228604,23.5271306 367.730224,24.7804388 367.276,25.916 L365.232,30.734 C366.254005,30.7826669 367.543659,30.6366684 369.101,30.296 C371.923681,29.6633302 373.96766,29.4443324 375.233,29.639 C375.233,29.3956655 375.354665,28.9820029 375.598,28.398 C376.960673,22.460637 378.493658,17.0100248 380.197,12.046 C381.413673,7.95797956 384.552641,5.81666764 389.614,5.622 C391.609343,5.622 393.117995,6.1086618 394.14,7.082 C395.259339,8.10400511 395.405337,9.49099124 394.578,11.243 L393.988806,12.9014232 C389.822057,24.674141 386.85515,34.0249135 385.088,40.954 L383.535992,47.1946108 C382.414798,51.731873 381.605437,55.0852256 381.107898,57.254717 L380.9635,57.89 C380.306497,60.8100146 379.734669,62.537664 379.248,63.073 C378.761331,63.608336 378.262503,63.9854989 377.7515,64.2045 C377.240497,64.4235011 376.741669,64.6303324 376.255,64.825 C375.768331,65.0196676 375.379001,65.5063294 375.087,66.285 L374.868,66.285 C374.478665,67.1610044 373.627007,67.8423309 372.313,68.329 C370.998993,68.8156691 369.67284,68.9981673 368.3345,68.8765 C366.99616,68.7548327 365.876838,68.2681709 364.9765,67.4165 C364.076162,66.5648291 363.844998,65.2630088 364.283,63.511 C364.732233,60.9503718 365.450996,58.2135442 366.439307,55.3004467 L367.056551,53.5316257 C367.531202,52.1833754 367.960189,50.9721191 368.343513,49.8978503 L369.3565,47.086 C370.013503,45.2853243 370.560998,43.6063411 370.999,42.049 C370.609665,42.2436676 370.232502,42.3896662 369.8675,42.487 C369.554641,42.570429 369.179216,42.7164277 368.741215,42.9249996 L368.517,43.0345 C367.981664,43.302168 367.434169,43.5333324 366.8745,43.728 C366.314831,43.9226676 365.767336,44.1173324 365.232,44.312 C363.869327,44.847336 362.750004,45.382664 361.874,45.918 L361.217,47.086 Z M369.466,42.195 L369.527284,42.1841853 C369.572345,42.1733705 369.639036,42.1544447 369.727357,42.1274077 L369.86896,42.0811201 C369.71712,42.1278401 369.582801,42.1657999 369.466,42.195 Z M412.098,44.312 C410.783993,48.108019 409.445673,51.7579825 408.083,55.262 L407.513151,56.7123214 C406.401761,59.5101637 405.460218,61.6912065 404.6885,63.2555 L404.356007,63.9130728 C403.592167,65.384863 402.91217,66.4188304 402.316,67.015 C401.634663,67.6963367 400.94117,68.1586655 400.2355,68.402 C399.52983,68.6453346 398.82417,68.7426669 398.1185,68.694 L395.965,68.548 L395.965,68.548 C391.87698,67.9153302 390.611659,64.9710263 392.169,59.715 L394.549487,49.883661 L394.549487,49.883661 L396.2205,42.8885 C396.634169,41.1608247 396.986999,39.7251724 397.279,38.5815 C397.571001,37.4378276 397.887332,36.3063389 398.228,35.187 C398.526085,34.2075784 398.889371,33.1163896 399.317867,31.913408 L401.513,25.77 L401.513,25.77 C399.663657,26.0133346 398.009007,25.8186698 396.549,25.186 C394.407656,24.2613287 393.531665,22.2660153 393.921,19.2 C394.115668,17.7886596 394.869993,16.4746728 396.184,15.258 C396.865337,14.6253302 397.668329,13.9440037 398.593,13.214 C400.491009,11.7053258 404.262638,10.0993419 409.908,8.396 C415.748029,6.64399124 420.760646,5.81666618 424.946,5.914 C426.065339,5.71933236 427.221161,5.85316436 428.4135,6.3155 C429.605839,6.77783564 430.566996,7.39832944 431.297,8.177 C432.027004,8.95567056 432.404167,9.80732871 432.4285,10.732 C432.452833,11.6566713 431.856673,12.4839963 430.64,13.214 C430.055997,13.6033353 429.642335,14.2481622 429.399,15.1485 C429.155665,16.0488378 428.888001,16.9978283 428.596,17.9955 C428.303999,18.9931717 427.878169,19.9056625 427.3185,20.733 C426.758831,21.5603375 425.870673,22.0469993 424.654,22.193 C424.02133,22.5336684 423.133172,22.7769993 421.9895,22.923 L420.654765,23.1018286 C420.23246,23.1623018 419.923039,23.2121921 419.7265,23.2515 C419.361498,23.3245004 419.154667,23.4583324 419.106,23.653 L417.263892,29.1308469 C416.855549,30.3547354 416.423252,31.6556181 415.967,33.0335 C414.750327,36.7078517 413.460673,40.4673141 412.098,44.312 Z M402.243,24.967 L402.243,25.04 C402.145666,25.04 402.097,25.0278335 402.097,25.0035 C402.097,24.9791665 402.145666,24.967 402.243,24.967 Z" id="BOSSFIGHT" fill="#0D3B99" fill-rule="nonzero"></path>
    </g>
</svg>