<?xml version="1.0" encoding="UTF-8"?>
<svg width="470px" height="70px" viewBox="0 0 470 70" version="1.1" xmlns="http://www.w3.org/2000/svg" xmlns:xlink="http://www.w3.org/1999/xlink">
    <!-- Generator: Sketch 58 (84663) - https://sketch.com -->
    <title>Logo</title>
    <desc>Created with Sketch.</desc>
    <g id="Logo" stroke="none" stroke-width="1" fill="none" fill-rule="evenodd">
        <path d="M42,14.1 L42,6 L65.46,6 C68.1000132,6 70.5799884,6.5 72.9,7.5 C75.2200116,8.5 77.2399914,9.8799912 78.96,11.64 C80.6800086,13.4000088 82.0299951,15.4599882 83.01,17.82 C83.9900049,20.1800118 84.48,22.7199864 84.48,25.44 C84.48,27.2800092 84.1200036,29.0599914 83.4,30.78 C82.6799964,32.5 81.7800054,34.059993 80.7,35.46 C81.7800054,36.9400074 82.6799964,38.5199916 83.4,40.2 C84.1200036,41.8800084 84.48,43.619991 84.48,45.42 C84.48,48.1400136 83.9900049,50.6799882 83.01,53.04 C82.0299951,55.4000118 80.6800086,57.4599912 78.96,59.22 C77.2399914,60.9800088 75.2200116,62.359995 72.9,63.36 C70.5799884,64.360005 68.1000132,64.86 65.46,64.86 L42,64.86 L42,56.76 L65.46,56.76 C67.1400084,56.76 68.6499933,56.4800028 69.99,55.92 C71.3300067,55.3599972 72.4799952,54.580005 73.44,53.58 C74.4000048,52.579995 75.1399974,51.380007 75.66,49.98 C76.1800026,48.579993 76.44,47.0600082 76.44,45.42 C76.44,43.0999884 75.9600048,41.1600078 75,39.6 C74.0399952,38.0399922 72.660009,36.660006 70.86,35.46 C72.660009,34.2199938 74.0399952,32.8200078 75,31.26 C75.9600048,29.6999922 76.44,27.7600116 76.44,25.44 C76.44,23.7999918 76.1800026,22.280007 75.66,20.88 C75.1399974,19.479993 74.4000048,18.280005 73.44,17.28 C72.4799952,16.279995 71.3300067,15.5 69.99,14.94 C68.6499933,14.3799972 67.1400084,14.1 65.46,14.1 L42,14.1 Z M65.46,26.58 C65.7000012,26.58 65.8799994,26.4500013 66,26.19 C66.1200006,25.9299987 66.18,25.6800012 66.18,25.44 C66.18,25.1999988 66.1200006,24.9500013 66,24.69 C65.8799994,24.4299987 65.7000012,24.3 65.46,24.3 L42,24.3 L42,16.26 L65.46,16.26 C67.9800126,16.26 70.0699917,17.0199924 71.73,18.54 C73.3900083,20.0600076 74.22,22.3599846 74.22,25.44 C74.22,28.5200154 73.3900083,30.8199924 71.73,32.34 C70.0699917,33.8600076 67.9800126,34.62 65.46,34.62 L42,34.62 L42,26.58 L65.46,26.58 Z M65.46,46.56 C65.7000012,46.56 65.8799994,46.4300013 66,46.17 C66.1200006,45.9099987 66.18,45.6600012 66.18,45.42 C66.18,45.1799988 66.1200006,44.9300013 66,44.67 C65.8799994,44.4099987 65.7000012,44.28 65.46,44.28 L42,44.28 L42,36.24 L65.46,36.24 C67.9800126,36.24 70.0699917,36.9999924 71.73,38.52 C73.3900083,40.0400076 74.22,42.3399846 74.22,45.42 C74.22,48.5000154 73.3900083,50.7999924 71.73,52.32 C70.0699917,53.8400076 67.9800126,54.6 65.46,54.6 L42,54.6 L42,46.56 L65.46,46.56 Z M103.86,64.86 C100.979986,64.86 98.5000104,64.5200034 96.42,63.84 C94.3399896,63.1599966 92.6100069,62.0900073 91.23,60.63 C89.8499931,59.1699927 88.8300033,57.2900115 88.17,54.99 C87.5099967,52.6899885 87.18,49.940016 87.18,46.74 L87.18,24.12 C87.18,20.7999834 87.5099967,17.9900115 88.17,15.69 C88.8300033,13.3899885 89.8499931,11.5200072 91.23,10.08 C92.6100069,8.6399928 94.3399896,7.6000032 96.42,6.96 C98.5000104,6.3199968 100.979986,6 103.86,6 L111.54,6 C114.460015,6 116.96999,6.3199968 119.07,6.96 C121.170011,7.6000032 122.899993,8.6399928 124.26,10.08 C125.620007,11.5200072 126.619997,13.3899885 127.26,15.69 C127.900003,17.9900115 128.22,20.7999834 128.22,24.12 L128.22,46.74 C128.22,49.940016 127.900003,52.6899885 127.26,54.99 C126.619997,57.2900115 125.620007,59.1699927 124.26,60.63 C122.899993,62.0900073 121.170011,63.1599966 119.07,63.84 C116.96999,64.5200034 114.460015,64.86 111.54,64.86 L103.86,64.86 Z M112.38,56.88 C113.900008,56.88 115.179995,56.6700021 116.22,56.25 C117.260005,55.8299979 118.109997,55.2400038 118.77,54.48 C119.430003,53.7199962 119.909999,52.8200052 120.21,51.78 C120.510002,50.7399948 120.66,49.620006 120.66,48.42 L120.66,22.44 C120.66,21.239994 120.510002,20.1200052 120.21,19.08 C119.909999,18.0399948 119.430003,17.1400038 118.77,16.38 C118.109997,15.6199962 117.250005,15.0300021 116.19,14.61 C115.129995,14.1899979 113.840008,13.98 112.32,13.98 L103.08,13.98 C101.559992,13.98 100.270005,14.1899979 99.21,14.61 C98.1499947,15.0300021 97.2900033,15.6199962 96.63,16.38 C95.9699967,17.1400038 95.4900015,18.0399948 95.19,19.08 C94.8899985,20.1200052 94.74,21.239994 94.74,22.44 L94.74,48.42 C94.74,49.620006 94.8899985,50.7399948 95.19,51.78 C95.4900015,52.8200052 95.9699967,53.7199962 96.63,54.48 C97.2900033,55.2400038 98.1399948,55.8299979 99.18,56.25 C100.220005,56.6700021 101.499992,56.88 103.02,56.88 L112.38,56.88 Z M103.8,54.72 C102.4,54.72 101.250005,54.5900013 100.35,54.33 C99.4499955,54.0699987 98.7500025,53.64 98.25,53.04 C97.7499975,52.439997 97.4,51.6700047 97.2,50.73 C96.999999,49.7899953 96.9,48.620007 96.9,47.22 L96.9,23.64 C96.9,22.5999948 96.999999,21.6200046 97.2,20.7 C97.4,19.7799954 97.7599974,18.9800034 98.28,18.3 C98.8000026,17.6199966 99.5099955,17.0900019 100.41,16.71 C101.310005,16.3299981 102.459993,16.14 103.86,16.14 L111.54,16.14 C112.940007,16.14 114.089996,16.3299981 114.99,16.71 C115.890005,17.0900019 116.599997,17.6199966 117.12,18.3 C117.640003,18.9800034 117.999999,19.7799954 118.2,20.7 C118.4,21.6200046 118.5,22.5999948 118.5,23.64 L118.5,47.22 C118.5,48.620007 118.4,49.7899953 118.2,50.73 C117.999999,51.6700047 117.650003,52.439997 117.15,53.04 C116.649998,53.64 115.950005,54.0699987 115.05,54.33 C114.149996,54.5900013 113.000007,54.72 111.6,54.72 L103.8,54.72 Z M109.62,46.74 C110.100002,46.74 110.409999,46.6000014 110.55,46.32 C110.690001,46.0399986 110.76,45.6600024 110.76,45.18 L110.76,25.68 C110.76,25.1999976 110.690001,24.8200014 110.55,24.54 C110.409999,24.2599986 110.100002,24.12 109.62,24.12 L105.78,24.12 C105.299998,24.12 104.990001,24.2599986 104.85,24.54 C104.709999,24.8200014 104.64,25.1999976 104.64,25.68 L104.64,45.18 C104.64,45.6600024 104.709999,46.0399986 104.85,46.32 C104.990001,46.6000014 105.299998,46.74 105.78,46.74 L109.62,46.74 Z M150.78,24.18 C150.459998,24.18 150.210001,24.279999 150.03,24.48 C149.849999,24.680001 149.76,24.9199986 149.76,25.2 C149.76,25.4400012 149.819999,25.6699989 149.94,25.89 C150.060001,26.1100011 150.239999,26.2399998 150.48,26.28 L150.635625,26.323125 C150.783124,26.3606248 151.018123,26.4156246 151.340623,26.4881246 L153.676665,27.0099997 C153.998887,27.0833329 154.333332,27.1599996 154.68,27.24 C155.720005,27.4800012 156.769995,27.7499985 157.83,28.05 C158.890005,28.3500015 159.699997,28.64 160.26,28.92 C161.460006,29.6000034 162.639994,30.4199952 163.8,31.38 C164.960006,32.3400048 165.999995,33.4899933 166.92,34.83 C167.840005,36.1700067 168.579997,37.7299911 169.14,39.51 C169.700003,41.2900089 169.98,43.3199886 169.98,45.6 C169.98,48.3200136 169.490005,50.8499883 168.51,53.19 C167.529995,55.5300117 166.200008,57.5599914 164.52,59.28 C162.839992,61.0000086 160.850012,62.359995 158.55,63.36 C156.249989,64.360005 153.780013,64.86 151.14,64.86 L130.8,64.86 L130.8,56.88 L151.14,56.88 C152.820008,56.88 154.349993,56.6000028 155.73,56.04 C157.110007,55.4799972 158.3,54.700005 159.3,53.7 C160.3,52.699995 161.069997,51.5100069 161.61,50.13 C162.150003,48.7499931 162.42,47.2400082 162.42,45.6 C162.42,43.5199896 162.040004,41.8200066 161.28,40.5 C160.519996,39.1799934 159.580006,38.1300039 158.46,37.35 C157.339994,36.5699961 156.130007,35.9900019 154.83,35.61 C153.529994,35.2299981 152.340005,34.9200012 151.26,34.68 C150.059994,34.4399988 148.890006,34.1100021 147.75,33.69 C146.609994,33.2699979 145.600004,32.7000036 144.72,31.98 C143.839996,31.2599964 143.130003,30.3600054 142.59,29.28 C142.049997,28.1999946 141.78,26.860008 141.78,25.26 C141.78,23.7399924 141.999998,22.4100057 142.44,21.27 C142.880002,20.1299943 143.489996,19.1800038 144.27,18.42 C145.050004,17.6599962 145.969995,17.0900019 147.03,16.71 C148.090005,16.3299981 149.239994,16.14 150.48,16.14 L170.34,16.14 L170.34,24.12 L150.78,24.18 Z M150.48,13.98 C148.839992,13.98 147.350007,14.2599972 146.01,14.82 C144.669993,15.3800028 143.530005,16.159995 142.59,17.16 C141.649995,18.160005 140.920003,19.3499931 140.4,20.73 C139.879997,22.1100069 139.62,23.6199918 139.62,25.26 C139.62,26.9800086 139.919997,28.4799936 140.52,29.76 C141.120003,31.0400064 141.889995,32.1399954 142.83,33.06 C143.770005,33.9800046 144.819994,34.7099973 145.98,35.25 C146.995005,35.7225024 147.994684,36.0648436 148.979061,36.2770311 L149.4,36.36 C150.480005,36.560001 151.659994,36.8299983 152.94,37.17 C154.220006,37.5100017 155.399995,38.0099967 156.48,38.67 C157.560005,39.3300033 158.459996,40.2199944 159.18,41.34 C159.900004,42.4600056 160.26,43.8799914 160.26,45.6 C160.26,47.1200076 160.020002,48.4499943 159.54,49.59 C159.059998,50.7300057 158.400004,51.6799962 157.56,52.44 C156.719996,53.2000038 155.750006,53.7699981 154.65,54.15 C153.549995,54.5300019 152.380006,54.72 151.14,54.72 L130.8,54.72 L130.8,46.74 L150.42,46.74 C150.740002,46.74 150.989999,46.6300011 151.17,46.41 C151.350001,46.1899989 151.44,45.9600012 151.44,45.72 C151.44,45.1599972 151.200002,44.780001 150.72,44.58 L150.63,44.555 C150.490001,44.5200001 150.227502,44.4645837 149.842502,44.3887503 L148.53306,44.1330611 C147.888163,44.0024491 147.187147,43.8514294 146.43,43.68 C145.369995,43.4399988 144.320005,43.1700015 143.28,42.87 C142.239995,42.5699985 141.440003,42.2600016 140.88,41.94 C139.719994,41.2999968 138.580006,40.5 137.46,39.54 C136.339994,38.5799952 135.350004,37.4300067 134.49,36.09 C133.629996,34.7499933 132.940003,33.1900089 132.42,31.41 C131.899997,29.6299911 131.64,27.5800116 131.64,25.26 C131.64,22.5799866 132.129995,20.0600118 133.11,17.7 C134.090005,15.3399882 135.419992,13.3000086 137.1,11.58 C138.780008,9.8599914 140.769989,8.5 143.07,7.5 C145.370012,6.5 147.839987,6 150.48,6 L170.34,6 L170.34,13.98 L150.48,13.98 Z M192.54,24.18 C192.219998,24.18 191.970001,24.279999 191.79,24.48 C191.609999,24.680001 191.52,24.9199986 191.52,25.2 C191.52,25.4400012 191.579999,25.6699989 191.7,25.89 C191.820001,26.1100011 191.999999,26.2399998 192.24,26.28 L192.395625,26.323125 C192.543124,26.3606248 192.778123,26.4156246 193.100623,26.4881246 L195.436665,27.0099997 C195.758887,27.0833329 196.093332,27.1599996 196.44,27.24 C197.480005,27.4800012 198.529995,27.7499985 199.59,28.05 C200.650005,28.3500015 201.459997,28.64 202.02,28.92 C203.220006,29.6000034 204.399994,30.4199952 205.56,31.38 C206.720006,32.3400048 207.759995,33.4899933 208.68,34.83 C209.600005,36.1700067 210.339997,37.7299911 210.9,39.51 C211.460003,41.2900089 211.74,43.3199886 211.74,45.6 C211.74,48.3200136 211.250005,50.8499883 210.27,53.19 C209.289995,55.5300117 207.960008,57.5599914 206.28,59.28 C204.599992,61.0000086 202.610012,62.359995 200.31,63.36 C198.009989,64.360005 195.540013,64.86 192.9,64.86 L172.56,64.86 L172.56,56.88 L192.9,56.88 C194.580008,56.88 196.109993,56.6000028 197.49,56.04 C198.870007,55.4799972 200.06,54.700005 201.06,53.7 C202.06,52.699995 202.829997,51.5100069 203.37,50.13 C203.910003,48.7499931 204.18,47.2400082 204.18,45.6 C204.18,43.5199896 203.800004,41.8200066 203.04,40.5 C202.279996,39.1799934 201.340006,38.1300039 200.22,37.35 C199.099994,36.5699961 197.890006,35.9900019 196.59,35.61 C195.289994,35.2299981 194.100005,34.9200012 193.02,34.68 C191.819994,34.4399988 190.650006,34.1100021 189.51,33.69 C188.369994,33.2699979 187.360004,32.7000036 186.48,31.98 C185.599996,31.2599964 184.890003,30.3600054 184.35,29.28 C183.809997,28.1999946 183.54,26.860008 183.54,25.26 C183.54,23.7399924 183.759998,22.4100057 184.2,21.27 C184.640002,20.1299943 185.249996,19.1800038 186.03,18.42 C186.810004,17.6599962 187.729995,17.0900019 188.79,16.71 C189.850005,16.3299981 190.999994,16.14 192.24,16.14 L212.1,16.14 L212.1,24.12 L192.54,24.18 Z M192.24,13.98 C190.599992,13.98 189.110007,14.2599972 187.77,14.82 C186.429993,15.3800028 185.290005,16.159995 184.35,17.16 C183.409995,18.160005 182.680003,19.3499931 182.16,20.73 C181.639997,22.1100069 181.38,23.6199918 181.38,25.26 C181.38,26.9800086 181.679997,28.4799936 182.28,29.76 C182.880003,31.0400064 183.649995,32.1399954 184.59,33.06 C185.530005,33.9800046 186.579994,34.7099973 187.74,35.25 C188.755005,35.7225024 189.754684,36.0648436 190.739061,36.2770311 L191.16,36.36 C192.240005,36.560001 193.419994,36.8299983 194.7,37.17 C195.980006,37.5100017 197.159995,38.0099967 198.24,38.67 C199.320005,39.3300033 200.219996,40.2199944 200.94,41.34 C201.660004,42.4600056 202.02,43.8799914 202.02,45.6 C202.02,47.1200076 201.780002,48.4499943 201.3,49.59 C200.819998,50.7300057 200.160004,51.6799962 199.32,52.44 C198.479996,53.2000038 197.510006,53.7699981 196.41,54.15 C195.309995,54.5300019 194.140006,54.72 192.9,54.72 L172.56,54.72 L172.56,46.74 L192.18,46.74 C192.500002,46.74 192.749999,46.6300011 192.93,46.41 C193.110001,46.1899989 193.2,45.9600012 193.2,45.72 C193.2,45.1599972 192.960002,44.780001 192.48,44.58 L192.39,44.555 C192.250001,44.5200001 191.987502,44.4645837 191.602502,44.3887503 L190.29306,44.1330611 C189.648163,44.0024491 188.947147,43.8514294 188.19,43.68 C187.129995,43.4399988 186.080005,43.1700015 185.04,42.87 C183.999995,42.5699985 183.200003,42.2600016 182.64,41.94 C181.479994,41.2999968 180.340006,40.5 179.22,39.54 C178.099994,38.5799952 177.110004,37.4300067 176.25,36.09 C175.389996,34.7499933 174.700003,33.1900089 174.18,31.41 C173.659997,29.6299911 173.4,27.5800116 173.4,25.26 C173.4,22.5799866 173.889995,20.0600118 174.87,17.7 C175.850005,15.3399882 177.179992,13.3000086 178.86,11.58 C180.540008,9.8599914 182.529989,8.5 184.83,7.5 C187.130012,6.5 189.599987,6 192.24,6 L212.1,6 L212.1,13.98 L192.24,13.98 Z M226.02,24.12 C226.02,21.5999874 226.479995,19.2300111 227.4,17.01 C228.320005,14.7899889 229.549992,12.8700081 231.09,11.25 C232.630008,9.6299919 234.40999,8.3500047 236.43,7.41 C238.45001,6.4699953 240.539989,6 242.7,6 L265.44,6 L265.44,13.98 L243.66,13.98 C242.139992,13.98 240.780006,14.279997 239.58,14.88 C238.379994,15.480003 237.370004,16.2599952 236.55,17.22 C235.729996,18.1800048 235.100002,19.2699939 234.66,20.49 C234.219998,21.7100061 234,22.919994 234,24.12 L234,64.86 L226.02,64.86 L226.02,24.12 Z M236.16,34.44 L236.16,25.32 C236.16,24.2799948 236.329998,23.2100055 236.67,22.11 C237.010002,21.0099945 237.519997,20.0200044 238.2,19.14 C238.880003,18.2599956 239.739995,17.5400028 240.78,16.98 C241.820005,16.4199972 243.039993,16.14 244.44,16.14 L265.44,16.14 L265.44,24.12 L244.62,24.12 C244.379999,24.12 244.130001,24.2599986 243.87,24.54 C243.609999,24.8200014 243.48,25.1999976 243.48,25.68 L243.48,26.52 L260.88,26.52 L260.88,34.44 L236.16,34.44 Z M236.16,36.42 L260.88,36.42 L260.88,44.4 L243.48,44.4 L243.48,64.86 L236.16,64.86 L236.16,36.42 Z M270.96,64.86 L270.96,6 L278.94,6 L278.94,64.86 L270.96,64.86 Z M281.1,64.86 L281.1,6 L289.08,6 L289.08,64.86 L281.1,64.86 Z M338.64,64.86 L311.64,64.86 C309.479989,64.86 307.39001,64.3900047 305.37,63.45 C303.34999,62.5099953 301.570008,61.2300081 300.03,59.61 C298.489992,57.9899919 297.260005,56.0700111 296.34,53.85 C295.419995,51.6299889 294.96,49.2600126 294.96,46.74 L294.96,24.12 C294.96,21.5999874 295.419995,19.2300111 296.34,17.01 C297.260005,14.7899889 298.489992,12.8700081 300.03,11.25 C301.570008,9.6299919 303.34999,8.3500047 305.37,7.41 C307.39001,6.4699953 309.479989,6 311.64,6 L338.64,6 L338.64,13.98 L312.6,13.98 C311.079992,13.98 309.720006,14.279997 308.52,14.88 C307.319994,15.480003 306.310004,16.2599952 305.49,17.22 C304.669996,18.1800048 304.040002,19.2699939 303.6,20.49 C303.159998,21.7100061 302.94,22.919994 302.94,24.12 L302.94,46.74 C302.94,47.940006 303.159998,49.1499939 303.6,50.37 C304.040002,51.5900061 304.669996,52.6799952 305.49,53.64 C306.310004,54.6000048 307.319994,55.379997 308.52,55.98 C309.720006,56.580003 311.079992,56.88 312.6,56.88 L331.92,56.88 L331.92,34.44 L314.04,34.44 L314.04,26.52 L338.64,26.52 L338.64,64.86 Z M313.56,46.74 L320.16,46.74 C320.440001,46.74 320.649999,46.6200012 320.79,46.38 C320.930001,46.14 321,45.8800014 321,45.6 C321,45.2799984 320.930001,45.0000012 320.79,44.76 C320.649999,44.5199988 320.440001,44.4 320.16,44.4 L314.04,44.4 L314.04,36.42 L329.82,36.42 L329.82,54.72 L313.38,54.72 C311.979993,54.72 310.760005,54.4400028 309.72,53.88 C308.679995,53.3199972 307.820003,52.6000044 307.14,51.72 C306.459997,50.8399956 305.950002,49.8500055 305.61,48.75 C305.269998,47.6499945 305.1,46.5800052 305.1,45.54 L305.1,25.32 C305.1,24.2799948 305.269998,23.2100055 305.61,22.11 C305.950002,21.0099945 306.459997,20.0200044 307.14,19.14 C307.820003,18.2599956 308.679995,17.5400028 309.72,16.98 C310.760005,16.4199972 311.979993,16.14 313.38,16.14 L338.64,16.14 L338.64,24.12 L313.56,24.12 C313.319999,24.12 313.070001,24.2599986 312.81,24.54 C312.549999,24.8200014 312.42,25.1999976 312.42,25.68 L312.42,45.18 C312.42,45.6600024 312.549999,46.0399986 312.81,46.32 C313.070001,46.6000014 313.319999,46.74 313.56,46.74 Z M374.64,36.42 L374.64,64.86 L366.66,64.86 L366.66,44.4 L359.4,44.4 L359.4,64.86 L351.42,64.86 L351.42,36.42 L374.64,36.42 Z M351.42,6 L359.4,6 L359.4,26.28 L366.66,26.28 L366.66,6 L374.64,6 L374.64,34.26 L351.42,34.26 L351.42,6 Z M376.8,6 L384.78,6 L384.78,64.86 L376.8,64.86 L376.8,6 Z M341.28,6 L349.26,6 L349.26,64.86 L341.28,64.86 L341.28,6 Z M428.64,6 L428.64,13.98 L387.6,13.98 L387.6,6 L428.64,6 Z M407.1,16.14 L407.1,64.86 L399.12,64.86 L399.12,24.12 L387.6,24.12 L387.6,16.14 L407.1,16.14 Z M409.26,16.14 L428.64,16.14 L428.64,24.12 L417.24,24.12 L417.24,64.86 L409.26,64.86 L409.26,16.14 Z" id="BOSSFIGHT" fill="#0D3B99" fill-rule="nonzero"></path>
    </g>
</svg>