<?xml version="1.0" encoding="UTF-8"?>
<svg width="470px" height="70px" viewBox="0 0 470 70" version="1.1" xmlns="http://www.w3.org/2000/svg" xmlns:xlink="http://www.w3.org/1999/xlink">
    <!-- Generator: Sketch 58 (84663) - https://sketch.com -->
    <title>TURBO_GRAFX_16-Logo</title>
    <desc>Created with Sketch.</desc>
    <g id="TURBO_GRAFX_16-Logo" stroke="none" stroke-width="1" fill="none" fill-rule="evenodd">
        <path d="M48.975,13.36 L48.975,10 L11.175,10 L11.175,13.36 L28.255,13.36 L28.255,59 L31.895,59 L31.895,13.36 L48.975,13.36 Z M82.155,59 L82.155,23.3 L78.725,23.3 L78.725,43.95 C78.725,51.37 73.335,56.69 66.335,56.69 C59.125,56.69 54.995,51.86 54.995,44.51 L54.995,23.3 L51.565,23.3 L51.565,45.14 C51.565,53.68 56.815,59.84 65.845,59.84 C72.355,59.84 76.345,56.55 78.725,52.35 L78.725,59 L82.155,59 Z M114.425,26.52 L114.425,22.74 C107.355,22.46 101.405,27.08 98.605,33.45 L98.605,23.3 L95.175,23.3 L95.175,59 L98.605,59 L98.605,44.37 C98.605,32.75 105.815,26.52 114.075,26.52 L114.425,26.52 Z M158.665,41.15 L158.665,41.01 C158.665,29.39 149.915,22.46 141.305,22.46 C134.235,22.46 129.685,26.59 126.605,31.28 L126.605,7.9 L123.175,7.9 L123.175,59 L126.605,59 L126.605,51.3 L126.951734,51.8148521 C129.904112,56.0863018 134.439615,59.84 141.305,59.84 C149.915,59.84 158.665,52.77 158.665,41.15 Z M154.955,41.29 C154.955,50.88 148.725,56.55 140.955,56.55 C133.630128,56.55 126.578123,50.5469362 126.398506,41.5712014 L126.395,41.08 C126.395,31.98 133.535,25.75 140.955,25.75 C148.347727,25.75 154.785744,31.6146517 154.951718,40.7862514 L154.955,41.29 Z M203.605,41.15 L203.605,41.01 C203.605,31 195.905,22.46 185.335,22.46 C174.811923,22.46 167.096116,30.950279 166.927808,40.8204916 L166.925,41.29 C166.925,51.3 174.625,59.84 185.195,59.84 C195.835,59.84 203.605,51.16 203.605,41.15 Z M199.895,41.29 C199.895,49.69 193.805,56.62 185.335,56.62 C177.179557,56.62 170.79833,49.9325717 170.638086,41.4761104 L170.635,41.01 C170.635,32.61 176.725,25.68 185.195,25.68 C193.350443,25.68 199.73167,32.3674283 199.891914,40.8238896 L199.895,41.29 Z M256.665,52.49 L256.665,33.59 L236.785,33.59 L236.785,36.95 L253.165,36.95 L253.165,51.02 C249.595,54.03 243.785,56.62 237.555,56.62 C224.5959,56.62 216.713718,47.358055 216.55737,34.8791278 L216.555,34.36 C216.555,22.53 224.885,12.45 236.785,12.45 C244.205,12.45 248.685,14.97 252.535,18.33 L254.915,15.6 C250.015,11.54 244.975,9.16 236.995,9.16 C222.5113,9.16 212.967304,21.029011 212.777872,34.103447 L212.775,34.64 C212.775,48.43 221.945,59.84 237.415,59.84 C245.395,59.84 252.255,56.41 256.665,52.49 Z M288.305,26.52 L288.305,22.74 C281.235,22.46 275.285,27.08 272.485,33.45 L272.485,23.3 L269.055,23.3 L269.055,59 L272.485,59 L272.485,44.37 C272.485,32.75 279.695,26.52 287.955,26.52 L288.305,26.52 Z M323.165,59 L323.165,36.74 C323.165,27.5 317.425,22.74 308.255,22.74 C303.355,22.74 299.505,24 295.585,25.82 L296.845,28.83 C300.135,27.15 303.705,25.96 308.045,25.96 C315.395,25.96 319.805,29.67 319.805,36.88 L319.805,38.42 C316.375,37.51 312.945,36.88 307.975,36.88 C298.861575,36.88 292.540059,40.9657196 292.368577,48.1968837 L292.365,48.64 C292.365,56.06 299.505,59.84 306.155,59.84 C312.945,59.84 317.355,56.48 319.805,53.05 L319.805,59 L323.165,59 Z M319.875,45.63 C319.875,52.14 313.645,56.62 306.365,56.62 C301.000789,56.62 296.177102,53.7146876 296.009501,48.7006233 L296.005,48.29 C296.005,43.32 300.205,39.96 307.765,39.96 C312.875,39.96 316.865,40.8 319.875,41.57 L319.875,45.63 Z M353.545,11.75 L353.545,8.53 C351.935,7.97 350.395,7.69 348.225,7.69 C341.505,7.69 337.585,12.1 337.585,19.8 L337.585,23.3 L332.405,23.3 L332.405,26.45 L337.585,26.45 L337.585,59 L341.015,59 L341.015,26.45 L353.475,26.45 L353.475,23.3 L341.015,23.3 L341.015,19.87 C341.015,13.78 343.325,10.84 348.225,10.84 C350.045,10.84 351.515,11.12 353.545,11.75 Z M391.065,59 L376.435,40.73 L390.505,23.3 L386.375,23.3 L374.335,38.42 L362.295,23.3 L358.025,23.3 L372.095,40.8 L357.465,59 L361.595,59 L374.195,43.11 L386.795,59 L391.065,59 Z M396.315,13.78 L397.295,16.65 L406.745,13.43 L406.745,59 L410.315,59 L410.315,9.65 L407.515,9.65 L396.315,13.78 Z M456.235,14.83 C451.965,11.33 447.695,9.16 442.095,9.16 C429.915,9.16 422.145,20.92 422.145,35.76 C422.145,45.98 424.315,50.88 428.375,54.94 C431.315,57.88 435.795,59.84 440.835,59.84 C450.495,59.84 457.985,53.05 457.985,43.67 C457.985,34.85 450.145,28.76 441.115,28.76 C433.135,28.76 428.585,33.1 425.785,37.86 C425.435,22.88 431.875,12.45 441.815,12.45 C446.435,12.45 450.145,14.27 453.925,17.63 L456.235,14.83 Z M454.205,43.81 C454.205,50.81 449.025,56.55 441.115,56.55 C433.205,56.55 427.255,51.23 427.255,44.16 C427.255,38.07 432.855,31.98 440.905,31.98 C448.675,31.98 454.205,37.02 454.205,43.81 Z" id="TurboGrafx16" fill="#B3B3B3" fill-rule="nonzero"></path>
    </g>
</svg>