<?xml version="1.0" encoding="UTF-8"?>
<svg width="470px" height="70px" viewBox="0 0 470 70" version="1.1" xmlns="http://www.w3.org/2000/svg" xmlns:xlink="http://www.w3.org/1999/xlink">
    <!-- Generator: Sketch 58 (84663) - https://sketch.com -->
    <title>Logo</title>
    <desc>Created with Sketch.</desc>
    <g id="Logo" stroke="none" stroke-width="1" fill="none" fill-rule="evenodd">
        <path d="M124.793457,4.54833984 L141.148926,4.54833984 C145.572125,4.54833984 148.973051,4.89550434 151.351807,5.58984375 C153.730562,6.28418316 155.517816,7.28710282 156.713623,8.59863281 C157.90943,9.91016281 158.71948,11.4981189 159.143799,13.3625488 C159.549669,15.1459166 159.761424,17.8645101 159.77907,21.5184052 L159.780273,27.4614258 C159.780273,31.4474483 159.368819,34.3533437 158.545898,36.1791992 C157.722978,38.0050547 156.212169,39.4065706 154.013428,40.3837891 C151.814686,41.3610075 148.940936,41.8496094 145.39209,41.8496094 L141.033203,41.8496094 L141.033203,67 L124.793457,67 L124.793457,4.54833984 Z M141.033203,15.2333984 L141.033203,31.1259766 L141.557813,31.1506641 C141.804688,31.1599219 142.028417,31.1645508 142.229004,31.1645508 C143.720548,31.1645508 144.755612,30.7980994 145.334229,30.0651855 C145.912845,29.3322717 146.202148,27.8086053 146.202148,25.4941406 L146.202148,20.3637695 C146.202148,18.2293188 145.867842,16.8406608 145.199219,16.1977539 C144.530596,15.554847 143.141938,15.2333984 141.033203,15.2333984 Z M185.123535,4.54833984 L201.363281,4.54833984 L201.363281,46.2856445 C201.363281,51.017439 201.208986,54.3412176 200.900391,56.2570801 C200.591795,58.1729425 199.678881,60.140208 198.161621,62.1589355 C196.644361,64.1776631 194.644951,65.7077585 192.16333,66.7492676 C189.68171,67.7907767 186.756527,68.3115234 183.387695,68.3115234 C179.658836,68.3115234 176.367202,67.6943421 173.512695,66.4599609 C170.658189,65.2255798 168.52377,63.6183367 167.109375,61.6381836 C165.69498,59.6580305 164.859214,57.5686145 164.602051,55.369873 L164.544988,54.819447 C164.325867,52.4456462 164.216309,48.0066807 164.216309,41.5024414 L164.216309,4.54833984 L180.456055,4.54833984 L180.456055,51.3774414 C180.456055,54.1033665 180.603921,55.845618 180.899658,56.604248 C181.195395,57.3628781 181.79329,57.7421875 182.693359,57.7421875 C183.72201,57.7421875 184.384194,57.3243043 184.679932,56.4885254 C184.975669,55.6527465 185.123535,53.679052 185.123535,50.5673828 L185.123535,4.54833984 Z M223.890625,4.54833984 L223.890625,54.5019531 L233.765625,54.5019531 L233.765625,67 L207.650879,67 L207.650879,4.54833984 L223.890625,4.54833984 Z M271.568359,23.449707 L256.48584,23.449707 L256.48584,18.8208008 C256.48584,16.6606337 256.292971,15.2848337 255.907227,14.6933594 C255.521482,14.1018851 254.878585,13.8061523 253.978516,13.8061523 C253.001297,13.8061523 252.261965,14.2047486 251.760498,15.0019531 C251.259031,15.7991576 251.008301,17.0078044 251.008301,18.6279297 C251.008301,20.7109479 251.291176,22.2796171 251.856934,23.3339844 C252.373495,24.3425096 253.795891,25.5510112 256.124159,26.9595226 L257.416089,27.7336795 C264.081805,31.7661357 268.310582,35.0956012 270.102539,37.722168 C271.979827,40.4738093 272.918457,44.9098001 272.918457,51.0302734 C272.918457,55.4791889 272.39771,58.7579647 271.356201,60.8666992 C270.314692,62.9754337 268.302424,64.7434011 265.319336,66.1706543 C262.336248,67.5979075 258.864603,68.3115234 254.904297,68.3115234 C250.558246,68.3115234 246.84873,67.488615 243.775635,65.8427734 C240.70254,64.1969319 238.690272,62.1010869 237.73877,59.5551758 C236.787267,57.0092646 236.311523,53.3961823 236.311523,48.7158203 L236.311523,44.6269531 L251.394043,44.6269531 L251.394043,52.2260742 C251.394043,54.5662552 251.606199,56.0706347 252.030518,56.7392578 C252.454836,57.4078809 253.207026,57.7421875 254.287109,57.7421875 C255.367193,57.7421875 256.170814,57.3178753 256.697998,56.4692383 C257.225182,55.6206012 257.48877,54.3605227 257.48877,52.6889648 C257.48877,49.0115376 256.98731,46.607102 255.984375,45.4755859 C255.055271,44.4535714 252.898881,42.8126768 249.51515,40.5528603 L248.385254,39.8051758 C244.347799,37.1306832 241.673346,35.1891336 240.361816,33.9804688 C239.050286,32.7718039 237.96379,31.1002711 237.102295,28.9658203 C236.2408,26.8313695 235.810059,24.1054853 235.810059,20.7880859 C235.810059,16.0048589 236.420811,12.507498 237.642334,10.2958984 C238.863857,8.08429884 240.837551,6.35490532 243.563477,5.10766602 C246.289402,3.86042671 249.581035,3.23681641 253.438477,3.23681641 C257.655946,3.23681641 261.249741,3.91828746 264.219971,5.28125 C267.1902,6.64421254 269.157466,8.36074811 270.121826,10.4309082 C271.086186,12.5010683 271.568359,16.0177161 271.568359,20.980957 L271.568359,23.449707 Z M278.010254,4.54833984 L305.089355,4.54833984 L305.089355,17.0463867 L294.25,17.0463867 L294.25,28.8886719 L304.39502,28.8886719 L304.39502,40.7695312 L294.25,40.7695312 L294.25,54.5019531 L306.169434,54.5019531 L306.169434,67 L278.010254,67 L278.010254,4.54833984 Z M345.245117,23.449707 L330.162598,23.449707 L330.162598,18.8208008 L330.156186,18.1647159 C330.119857,16.3796822 329.929124,15.2225732 329.583984,14.6933594 C329.19824,14.1018851 328.555343,13.8061523 327.655273,13.8061523 C326.678055,13.8061523 325.938723,14.2047486 325.437256,15.0019531 C324.935789,15.7991576 324.685059,17.0078044 324.685059,18.6279297 C324.685059,20.7109479 324.967933,22.2796171 325.533691,23.3339844 C326.050253,24.3425096 327.472648,25.5510112 329.800917,26.9595226 L331.092846,27.7336795 C337.758563,31.7661357 341.98734,35.0956012 343.779297,37.722168 C345.656585,40.4738093 346.595215,44.9098001 346.595215,51.0302734 C346.595215,55.4791889 346.074468,58.7579647 345.032959,60.8666992 C343.99145,62.9754337 341.979182,64.7434011 338.996094,66.1706543 C336.013006,67.5979075 332.541361,68.3115234 328.581055,68.3115234 C324.235004,68.3115234 320.525487,67.488615 317.452393,65.8427734 C314.379298,64.1969319 312.367029,62.1010869 311.415527,59.5551758 C310.464025,57.0092646 309.988281,53.3961823 309.988281,48.7158203 L309.988281,44.6269531 L325.070801,44.6269531 L325.070801,52.2260742 C325.070801,54.5662552 325.282957,56.0706347 325.707275,56.7392578 C326.131594,57.4078809 326.883784,57.7421875 327.963867,57.7421875 C329.043951,57.7421875 329.847572,57.3178753 330.374756,56.4692383 C330.901939,55.6206012 331.165527,54.3605227 331.165527,52.6889648 C331.165527,49.0115376 330.664068,46.607102 329.661133,45.4755859 C328.732029,44.4535714 326.575639,42.8126768 323.191908,40.5528603 L322.062012,39.8051758 C318.024557,37.1306832 315.350104,35.1891336 314.038574,33.9804688 C312.727044,32.7718039 311.640548,31.1002711 310.779053,28.9658203 C309.917558,26.8313695 309.486816,24.1054853 309.486816,20.7880859 C309.486816,16.0048589 310.097569,12.507498 311.319092,10.2958984 C312.540615,8.08429884 314.514309,6.35490532 317.240234,5.10766602 C319.966159,3.86042671 323.257793,3.23681641 327.115234,3.23681641 C331.332703,3.23681641 334.926499,3.91828746 337.896729,5.28125 C340.866958,6.64421254 342.834224,8.36074811 343.798584,10.4309082 C344.762944,12.5010683 345.245117,16.0177161 345.245117,20.980957 L345.245117,23.449707 Z" id="PULSES" fill="#E4000F" fill-rule="nonzero"></path>
    </g>
</svg>