<?xml version="1.0" encoding="UTF-8"?>
<svg width="470px" height="70px" viewBox="0 0 470 70" version="1.1" xmlns="http://www.w3.org/2000/svg" xmlns:xlink="http://www.w3.org/1999/xlink">
    <!-- Generator: Sketch 58 (84663) - https://sketch.com -->
    <title>Logo</title>
    <desc>Created with Sketch.</desc>
    <g id="Logo" stroke="none" stroke-width="1" fill="none" fill-rule="evenodd">
        <path d="M149.055176,41.3291016 L154.729004,41.3291016 L152.883301,51.8222656 L152.883301,51.9931641 C152.883301,52.3805358 153.020018,52.7223292 153.293457,53.0185547 C153.566896,53.3147801 153.897296,53.4628906 154.284668,53.4628906 L157.429199,53.4628906 C157.930504,53.4628906 158.386228,53.303387 158.796387,52.984375 C159.229332,52.6425764 159.491373,52.2324243 159.58252,51.7539062 L160.812988,44.8496094 C160.858561,44.6445302 160.881348,44.428061 160.881348,44.2001953 C160.881348,43.3494966 160.52406,42.2606178 159.809473,40.9335299 L159.25868,39.9280635 C158.764819,39.0172334 157.927131,37.4562586 156.745605,35.2451172 L153.669434,29.4345703 L153.669434,29.4345703 C152.803544,27.7255774 152.370605,26.0507895 152.370605,24.4101562 L152.370605,24.1025391 C152.370605,23.7151673 152.404785,23.3164083 152.473145,22.90625 L153.942871,14.4296875 C154.170737,13.1536395 154.808751,12.0940797 155.856934,11.2509766 C156.859543,10.4078734 158.010247,9.98632812 159.309082,9.98632812 L167.512207,9.98632812 C168.697109,9.98632812 169.722489,10.4192665 170.588379,11.2851562 C171.477055,12.151046 171.921387,13.2219988 171.921387,14.4980469 C171.921387,14.7942723 171.8986,15.0335277 171.853027,15.2158203 L169.699707,27.2470703 L163.95752,27.2470703 L165.769043,17.1298828 C165.814616,17.0615231 165.837402,16.9703782 165.837402,16.8564453 C165.837402,16.5146467 165.689292,16.1956395 165.393066,15.8994141 C165.096841,15.6487618 164.755048,15.5234375 164.367676,15.5234375 L161.223145,15.5234375 C160.72184,15.5234375 160.277508,15.6829411 159.890137,16.0019531 C159.502765,16.2981786 159.26351,16.6741514 159.172363,17.1298828 L158.181152,22.5644531 C158.112793,22.9746114 158.078613,23.3961567 158.078613,23.8291016 C158.078613,25.4241616 158.602697,27.0761633 159.650879,28.7851562 L161.207107,31.3409696 C164.09216,36.1149777 165.612792,38.8632776 165.769043,39.5859375 C166.361494,40.679693 166.657715,41.8759701 166.657715,43.1748047 C166.634928,43.7672556 166.56657,44.3938769 166.452637,45.0546875 L164.709473,54.5224609 C164.481607,55.798509 163.854986,56.8694618 162.82959,57.7353516 C161.804194,58.5784547 160.630703,59 159.309082,59 L151.140137,59 C149.932448,59 148.918461,58.5670616 148.098145,57.7011719 C147.300615,56.8352821 146.901855,55.7757224 146.901855,54.5224609 L146.901855,53.7363281 L149.055176,41.3291016 Z M176.672363,9.98632812 L182.346191,9.98632812 L174.82666,51.890625 L174.82666,52.0615234 C174.82666,52.4488952 174.951984,52.7906886 175.202637,53.0869141 C175.498862,53.3831395 175.840656,53.53125 176.228027,53.53125 L179.372559,53.53125 C180.55746,53.53125 181.25244,52.9615942 181.45752,51.8222656 L189.04541,9.98632812 L194.855957,9.98632812 L186.687012,54.5908203 C186.459146,55.8440818 185.832525,56.8922484 184.807129,57.7353516 C183.781733,58.5784547 182.608242,59 181.286621,59 L173.049316,59 C171.887201,59 170.884607,58.5670616 170.041504,57.7011719 C169.198401,56.8352821 168.776855,55.7985086 168.776855,54.5908203 L168.776855,53.7363281 L176.672363,9.98632812 Z M198.786621,9.98632812 L211.672363,9.98632812 C212.880052,9.98632812 213.916825,10.4306596 214.782715,11.3193359 C215.625818,12.1624391 216.047363,13.1308539 216.047363,14.2246094 C216.047363,14.5208348 216.013184,14.8512352 215.944824,15.2158203 L212.800293,32.5791016 C212.572427,33.8779362 211.957199,34.948889 210.95459,35.7919922 C209.951981,36.6350954 208.801276,37.0566406 207.502441,37.0566406 L199.812012,37.0566406 L195.812988,59.0341797 L189.899902,59.0341797 L198.786621,9.98632812 Z M205.52002,31.5195312 C206.021324,31.5195312 206.465656,31.3600276 206.853027,31.0410156 C207.217613,30.7447902 207.445475,30.3574243 207.536621,29.8789062 L209.963379,17.1298828 L209.963379,16.9248047 C209.963379,16.5146464 209.826662,16.1728529 209.553223,15.8994141 C209.279784,15.6487618 208.949383,15.5234375 208.562012,15.5234375 L203.674316,15.5234375 L200.700684,31.5195312 L205.52002,31.5195312 Z M220.969238,9.98632812 L234.265137,9.98632812 L233.308105,15.4550781 L225.925293,15.4550781 L223.156738,31.0068359 L230.505371,31.0068359 L229.47998,36.4755859 L222.165527,36.4755859 L219.123535,53.53125 L226.369629,53.53125 L225.378418,59 L212.08252,59 L220.969238,9.98632812 Z M229.51416,59 L238.29834,9.98632812 L251.45752,9.98632812 C252.642421,9.98632812 253.667802,10.4192665 254.533691,11.2851562 C255.399581,12.1282594 255.855306,13.1650329 255.900879,14.3955078 L255.788727,15.060943 C255.780894,15.1100764 255.772705,15.1617022 255.76416,15.2158203 L253.029785,30.6650391 C252.642413,32.8069769 251.377778,34.1741507 249.23584,34.7666016 C250.03337,35.062827 250.637205,35.5869103 251.047363,36.3388672 C251.366375,36.9313181 251.525879,37.5921187 251.525879,38.3212891 C251.525879,38.4807951 251.514486,38.6516918 251.491699,38.8339844 C251.491699,39.175783 251.480306,39.4378246 251.45752,39.6201172 L247.902832,59 L241.887207,59 L245.476074,38.9365234 L245.476074,38.765625 C245.476074,38.3782533 245.339357,38.0478529 245.065918,37.7744141 C244.792479,37.5009752 244.462079,37.3642578 244.074707,37.3642578 L239.32373,37.3642578 L235.495605,59 L229.51416,59 Z M240.383301,31.5195312 L245.134277,31.5195312 C245.635582,31.5195312 246.079913,31.3486345 246.467285,31.0068359 C246.83187,30.6878239 247.059733,30.2890649 247.150879,29.8105469 L249.475098,17.1298828 L249.475098,16.9248047 C249.475098,16.5146464 249.33838,16.1728529 249.064941,15.8994141 C248.768716,15.6487618 248.415529,15.5234375 248.005371,15.5234375 L243.288574,15.5234375 L240.383301,31.5195312 Z M269.94873,9.98632812 L275.52002,9.98632812 L273.811035,45.2939453 L284.20166,9.98632812 L290.456543,9.98632812 L274.32373,59 L268.068848,59 L269.94873,9.98632812 Z M306.04248,9.98632812 C307.227382,9.98632812 308.241369,10.4192665 309.084473,11.2851562 C309.950362,12.151046 310.383301,13.2106057 310.383301,14.4638672 C310.383301,14.7828792 310.360515,15.0335277 310.314941,15.2158203 L308.127441,27.4179688 L302.453613,27.4179688 L304.299316,17.1298828 L304.299316,16.9248047 C304.299316,16.5146464 304.162599,16.1728529 303.88916,15.8994141 C303.615721,15.6487618 303.273928,15.5234375 302.86377,15.5234375 L299.685059,15.5234375 C299.206541,15.5234375 298.762209,15.6829411 298.352051,16.0019531 C297.964679,16.2981786 297.725424,16.6741514 297.634277,17.1298828 L291.379395,51.8222656 L291.379395,51.9931641 C291.379395,52.3805358 291.516112,52.7223292 291.789551,53.0185547 C292.06299,53.3147801 292.404783,53.4628906 292.814941,53.4628906 L295.959473,53.4628906 C297.144374,53.4628906 297.839354,52.8932349 298.044434,51.7539062 L299.890137,41.5 L305.598145,41.5 L303.273926,54.5224609 C303.04606,55.798509 302.408046,56.8694618 301.359863,57.7353516 C300.334468,58.5784547 299.17237,59 297.873535,59 L289.70459,59 C288.496902,59 287.471521,58.5670616 286.628418,57.7011719 C285.785315,56.8124956 285.36377,55.7529358 285.36377,54.5224609 L285.36377,53.6679688 L292.404785,14.4296875 C292.632651,13.1536395 293.259272,12.0940797 294.284668,11.2509766 C295.310064,10.4078734 296.460768,9.98632812 297.736816,9.98632812 L306.04248,9.98632812 Z M327.302246,9.98632812 L325.76416,59 L320.192871,59 L320.603027,50.9335938 L313.903809,50.9335938 L311.51123,59 L305.256348,59 L321.42334,9.98632812 L327.302246,9.98632812 Z M321.970215,23.6923828 L315.544434,45.3964844 L320.876465,45.3964844 L321.970215,23.6923828 Z" id="SUPERVCA" fill="#FF5050" fill-rule="nonzero"></path>
    </g>
</svg>