<?xml version="1.0" encoding="UTF-8"?>
<svg width="470px" height="70px" viewBox="0 0 470 70" version="1.1" xmlns="http://www.w3.org/2000/svg" xmlns:xlink="http://www.w3.org/1999/xlink">
    <!-- Generator: Sketch 58 (84663) - https://sketch.com -->
    <title>S-SMP-Echo-Logo</title>
    <desc>Created with Sketch.</desc>
    <g id="S-SMP-Echo-Logo" stroke="none" stroke-width="1" fill="none" fill-rule="evenodd">
        <path d="M140.458984,41.3291016 L146.132812,41.3291016 L144.287109,51.8222656 L144.287109,51.9931641 C144.287109,52.3805358 144.423827,52.7223292 144.697266,53.0185547 C144.970704,53.3147801 145.301105,53.4628906 145.688477,53.4628906 L148.833008,53.4628906 C149.334312,53.4628906 149.790037,53.303387 150.200195,52.984375 C150.63314,52.6425764 150.895182,52.2324243 150.986328,51.7539062 L152.216797,44.8496094 C152.26237,44.6445302 152.285156,44.428061 152.285156,44.2001953 C152.285156,43.3494966 151.927868,42.2606178 151.213282,40.9335299 L150.227625,39.1230385 C149.728294,38.1961106 149.035559,36.9034733 148.149414,35.2451172 L145.073242,29.4345703 L145.073242,29.4345703 C144.207352,27.7255774 143.774414,26.0507895 143.774414,24.4101562 L143.774414,24.1025391 C143.774414,23.7151673 143.808593,23.3164083 143.876953,22.90625 L145.34668,14.4296875 C145.574545,13.1536395 146.21256,12.0940797 147.260742,11.2509766 C148.263351,10.4078734 149.414056,9.98632812 150.712891,9.98632812 L158.916016,9.98632812 C160.100917,9.98632812 161.126298,10.4192665 161.992188,11.2851562 C162.880864,12.151046 163.325195,13.2219988 163.325195,14.4980469 C163.325195,14.7942723 163.302409,15.0335277 163.256836,15.2158203 L161.103516,27.2470703 L155.361328,27.2470703 L157.172852,17.1298828 C157.218425,17.0615231 157.241211,16.9703782 157.241211,16.8564453 C157.241211,16.5146467 157.0931,16.1956395 156.796875,15.8994141 C156.50065,15.6487618 156.158856,15.5234375 155.771484,15.5234375 L152.626953,15.5234375 C152.125649,15.5234375 151.681317,15.6829411 151.293945,16.0019531 C150.906574,16.2981786 150.667318,16.6741514 150.576172,17.1298828 L149.584961,22.5644531 C149.516601,22.9746114 149.482422,23.3961567 149.482422,23.8291016 C149.482422,25.4241616 150.006505,27.0761633 151.054688,28.7851562 L152.81467,31.6785251 C155.567606,36.2447008 157.020321,38.8804838 157.172852,39.5859375 C157.765302,40.679693 158.061523,41.8759701 158.061523,43.1748047 C158.038737,43.7672556 157.970378,44.3938769 157.856445,45.0546875 L156.113281,54.5224609 C155.885416,55.798509 155.258794,56.8694618 154.233398,57.7353516 C153.208003,58.5784547 152.034512,59 150.712891,59 L142.543945,59 C141.336257,59 140.32227,58.5670616 139.501953,57.7011719 C138.704423,56.8352821 138.305664,55.7757224 138.305664,54.5224609 L138.305664,53.7363281 L140.458984,41.3291016 Z M168.076172,9.98632812 L173.75,9.98632812 L166.230469,51.890625 L166.230469,52.0615234 C166.230469,52.4488952 166.355793,52.7906886 166.606445,53.0869141 C166.902671,53.3831395 167.244464,53.53125 167.631836,53.53125 L170.776367,53.53125 C171.961269,53.53125 172.656249,52.9615942 172.861328,51.8222656 L180.449219,9.98632812 L186.259766,9.98632812 L178.09082,54.5908203 C177.862955,55.8440818 177.236333,56.8922484 176.210938,57.7353516 C175.185542,58.5784547 174.012051,59 172.69043,59 L164.453125,59 C163.29101,59 162.288416,58.5670616 161.445312,57.7011719 C160.602209,56.8352821 160.180664,55.7985086 160.180664,54.5908203 L160.180664,53.7363281 L168.076172,9.98632812 Z M190.19043,9.98632812 L203.076172,9.98632812 C204.28386,9.98632812 205.320634,10.4306596 206.186523,11.3193359 C207.029627,12.1624391 207.451172,13.1308539 207.451172,14.2246094 C207.451172,14.5208348 207.416993,14.8512352 207.348633,15.2158203 L204.204102,32.5791016 C203.976236,33.8779362 203.361008,34.948889 202.358398,35.7919922 C201.355789,36.6350954 200.205085,37.0566406 198.90625,37.0566406 L191.21582,37.0566406 L187.216797,59.0341797 L181.303711,59.0341797 L190.19043,9.98632812 Z M196.923828,31.5195312 C197.425133,31.5195312 197.869464,31.3600276 198.256836,31.0410156 C198.621421,30.7447902 198.849283,30.3574243 198.94043,29.8789062 L201.367188,17.1298828 L201.367188,16.9248047 C201.367188,16.5146464 201.23047,16.1728529 200.957031,15.8994141 C200.683592,15.6487618 200.353192,15.5234375 199.96582,15.5234375 L195.078125,15.5234375 L192.104492,31.5195312 L196.923828,31.5195312 Z M212.373047,9.98632812 L225.668945,9.98632812 L224.711914,15.4550781 L217.329102,15.4550781 L214.560547,31.0068359 L221.90918,31.0068359 L220.883789,36.4755859 L213.569336,36.4755859 L210.527344,53.53125 L217.773438,53.53125 L216.782227,59 L203.486328,59 L212.373047,9.98632812 Z M220.917969,59 L229.702148,9.98632812 L242.861328,9.98632812 C244.04623,9.98632812 245.07161,10.4192665 245.9375,11.2851562 C246.80339,12.1282594 247.259114,13.1650329 247.304688,14.3955078 L247.167969,15.2158203 L247.167969,15.2158203 L244.433594,30.6650391 C244.046222,32.8069769 242.781586,34.1741507 240.639648,34.7666016 C241.437178,35.062827 242.041014,35.5869103 242.451172,36.3388672 C242.770184,36.9313181 242.929688,37.5921187 242.929688,38.3212891 C242.929688,38.4807951 242.918294,38.6516918 242.895508,38.8339844 C242.895508,39.175783 242.884115,39.4378246 242.861328,39.6201172 L239.306641,59 L233.291016,59 L236.879883,38.9365234 L236.879883,38.765625 C236.879883,38.3782533 236.743165,38.0478529 236.469727,37.7744141 C236.196288,37.5009752 235.865887,37.3642578 235.478516,37.3642578 L230.727539,37.3642578 L226.899414,59 L220.917969,59 Z M231.787109,31.5195312 L236.538086,31.5195312 C237.039391,31.5195312 237.483722,31.3486345 237.871094,31.0068359 C238.235679,30.6878239 238.463541,30.2890649 238.554688,29.8105469 L240.878906,17.1298828 L240.878906,16.9248047 C240.878906,16.5146464 240.742189,16.1728529 240.46875,15.8994141 C240.172525,15.6487618 239.819338,15.5234375 239.40918,15.5234375 L234.692383,15.5234375 L231.787109,31.5195312 Z M262.514648,9.98632812 L275.810547,9.98632812 L274.853516,15.4550781 L267.470703,15.4550781 L264.702148,31.0068359 L272.050781,31.0068359 L271.025391,36.4755859 L263.710938,36.4755859 L260.668945,53.53125 L267.915039,53.53125 L266.923828,59 L253.62793,59 L262.514648,9.98632812 Z M271.948242,53.6679688 L278.989258,14.4296875 C279.217124,13.1536395 279.843745,12.0940797 280.869141,11.2509766 C281.894536,10.4078734 283.045241,9.98632812 284.321289,9.98632812 L292.626953,9.98632812 C293.811855,9.98632812 294.825842,10.4192665 295.668945,11.2851562 C296.534835,12.151046 296.967773,13.2106057 296.967773,14.4638672 C296.967773,14.7828792 296.944987,15.0335277 296.899414,15.2158203 L294.711914,27.4179688 L289.038086,27.4179688 L290.883789,17.1298828 L290.883789,16.9248047 C290.883789,16.5146464 290.747072,16.1728529 290.473633,15.8994141 C290.200194,15.6487618 289.8584,15.5234375 289.448242,15.5234375 L286.269531,15.5234375 C285.791013,15.5234375 285.346682,15.6829411 284.936523,16.0019531 C284.549152,16.2981786 284.309896,16.6741514 284.21875,17.1298828 L277.963867,51.8222656 L277.963867,51.9931641 C277.963867,52.3805358 278.100585,52.7223292 278.374023,53.0185547 C278.647462,53.3147801 278.989256,53.4628906 279.399414,53.4628906 L282.543945,53.4628906 C283.728847,53.4628906 284.423827,52.8932349 284.628906,51.7539062 L286.474609,41.5 L292.182617,41.5 L289.858398,54.5224609 C289.630533,55.798509 288.992518,56.8694618 287.944336,57.7353516 C286.91894,58.5784547 285.756842,59 284.458008,59 L276.289062,59 C275.081374,59 274.055994,58.5670616 273.212891,57.7011719 C272.369787,56.8124956 271.948242,55.7529358 271.948242,54.5224609 L271.948242,53.6679688 Z M307.836914,9.98632812 L304.008789,31.0068359 L310.332031,31.0068359 L314.160156,9.98632812 L320.039062,9.98632812 L311.152344,59 L305.239258,59 L309.34082,36.4755859 L303.017578,36.4755859 L298.950195,59 L293.037109,59 L301.958008,9.98632812 L307.836914,9.98632812 Z M336.855469,9.98632812 C338.040371,9.98632812 339.054358,10.4192665 339.897461,11.2851562 C340.763351,12.151046 341.196289,13.2106057 341.196289,14.4638672 C341.196289,14.7828792 341.173503,15.0335277 341.12793,15.2158203 L334.086914,54.5224609 C333.859048,55.798509 333.221034,56.8694618 332.172852,57.7353516 C331.147456,58.5784547 329.985358,59 328.686523,59 L320.517578,59 C319.30989,59 318.284509,58.5670616 317.441406,57.7011719 C316.598303,56.8124956 316.176758,55.7529358 316.176758,54.5224609 L316.176758,53.6679688 L323.217773,14.4296875 C323.445639,13.1536395 324.07226,12.0940797 325.097656,11.2509766 C326.123052,10.4078734 327.273757,9.98632812 328.549805,9.98632812 L336.855469,9.98632812 Z M333.676758,15.5234375 L330.498047,15.5234375 C330.019529,15.5234375 329.575197,15.6829411 329.165039,16.0019531 C328.826089,16.2611504 328.60054,16.5814042 328.488388,16.9627222 L328.447266,17.1298828 L322.192383,51.8222656 L322.192383,51.9931641 C322.192383,52.3805358 322.3291,52.7223292 322.602539,53.0185547 C322.841798,53.2777519 323.133391,53.4235487 323.477325,53.4559479 L323.62793,53.4628906 L326.772461,53.4628906 C327.891535,53.4628906 328.573611,52.9547718 328.818706,51.9385196 L328.857422,51.7539062 L335.112305,17.1298828 L335.112305,16.9248047 C335.112305,16.5146464 334.975587,16.1728529 334.702148,15.8994141 C334.42871,15.6487618 334.086916,15.5234375 333.676758,15.5234375 Z" id="SUPERECHO" fill="#FF5050" fill-rule="nonzero"></path>
    </g>
</svg>