<?xml version="1.0" encoding="UTF-8"?>
<svg width="470px" height="70px" viewBox="0 0 470 70" version="1.1" xmlns="http://www.w3.org/2000/svg" xmlns:xlink="http://www.w3.org/1999/xlink">
    <!-- Generator: Sketch 58 (84663) - https://sketch.com -->
    <title>Gleeokillator-Logo</title>
    <desc>Created with Sketch.</desc>
    <g id="Gleeokillator-Logo" stroke="none" stroke-width="1" fill="none" fill-rule="evenodd">
        <path d="M41.7431641,27.5385742 L25.503418,27.5385742 L25.5010563,21.122655 C25.4805885,17.9808127 25.3270801,15.9920289 25.0405273,15.15625 C24.7319321,14.2561804 23.9990292,13.8061523 22.8417969,13.8061523 C21.8388622,13.8061523 21.1573911,14.1918907 20.7973633,14.9633789 C20.4373354,15.7348671 20.2573242,17.7149906 20.2573242,20.9038086 L20.2573242,50.8759766 C20.2573242,53.6790505 20.4373354,55.5241655 20.7973633,56.411377 C21.1573911,57.2985884 21.877436,57.7421875 22.9575195,57.7421875 C24.1404682,57.7421875 24.9440897,57.2407277 25.3684082,56.237793 C25.7927267,55.2348583 26.0048828,53.2804507 26.0048828,50.3745117 L26.0048828,42.9682617 L22.7260742,42.9682617 L22.7260742,33.4790039 L41.7431641,33.4790039 L41.7431641,67 L31.5209961,67 L30.0166016,62.5253906 C28.9108018,64.4541112 27.5157148,65.9006299 25.8312988,66.8649902 C24.1468829,67.8293505 22.1603305,68.3115234 19.871582,68.3115234 C17.1456569,68.3115234 14.593355,67.6493393 12.2145996,66.3249512 C9.83584423,65.000563 8.02930305,63.3611751 6.79492188,61.4067383 C5.5605407,59.4523014 4.78906404,57.4014593 4.48046875,55.2541504 C4.17187346,53.1068415 4.01757812,49.8859264 4.01757812,45.5913086 L4.01757812,27.0371094 C4.01757812,21.0709337 4.33902673,16.7378065 4.98193359,14.0375977 C5.62484045,11.3373888 7.46995547,8.86223456 10.517334,6.61206055 C13.5647125,4.36188654 17.5056724,3.23681641 22.340332,3.23681641 C27.0978428,3.23681641 31.0452317,4.21402018 34.1826172,6.16845703 C37.3200027,8.12289389 39.3644158,10.4437528 40.315918,13.1311035 C41.2674201,15.8184542 41.7431641,19.7208403 41.7431641,24.8383789 L41.7431641,27.5385742 Z M64.2705078,4.54833984 L64.2705078,54.5019531 L74.1455078,54.5019531 L74.1455078,67 L48.0307617,67 L48.0307617,4.54833984 L64.2705078,4.54833984 Z M78.0800781,4.54833984 L105.15918,4.54833984 L105.15918,17.0463867 L94.3198242,17.0463867 L94.3198242,28.8886719 L104.464844,28.8886719 L104.464844,40.7695312 L94.3198242,40.7695312 L94.3198242,54.5019531 L106.239258,54.5019531 L106.239258,67 L78.0800781,67 L78.0800781,4.54833984 Z M110.906738,4.54833984 L137.98584,4.54833984 L137.98584,17.0463867 L127.146484,17.0463867 L127.146484,28.8886719 L137.291504,28.8886719 L137.291504,40.7695312 L127.146484,40.7695312 L127.146484,54.5019531 L139.065918,54.5019531 L139.065918,67 L110.906738,67 L110.906738,4.54833984 Z M180.840097,29.2839729 L180.840097,42.2717459 C180.822736,47.9396155 180.675447,51.9970276 180.398193,54.4440918 C180.102456,57.0542936 179.176684,59.4394423 177.62085,61.5996094 C176.065015,63.7597764 173.962741,65.4184512 171.313965,66.5756836 C168.665189,67.7329159 165.579282,68.3115234 162.056152,68.3115234 C158.713037,68.3115234 155.710707,67.7650608 153.049072,66.6721191 C150.387438,65.5791775 148.24659,63.9397896 146.626465,61.7539062 C145.00634,59.5680229 144.041994,57.1893032 143.733398,54.6176758 L143.67899,54.1288547 C143.415452,51.5784874 143.279434,47.4341852 143.270933,41.6958465 L143.270508,30.4316406 C143.270508,24.1568697 143.418374,19.7144499 143.714111,17.104248 C144.009848,14.4940462 144.93562,12.1088975 146.491455,9.94873047 C148.04729,7.78856342 150.149564,6.1298886 152.79834,4.97265625 C155.447116,3.8154239 158.533023,3.23681641 162.056152,3.23681641 C165.399268,3.23681641 168.401598,3.78327904 171.063232,4.8762207 C173.724867,5.96916237 175.865715,7.60855027 177.48584,9.79443359 C179.105965,11.9803169 180.070311,14.3590366 180.378906,16.9306641 L180.433314,17.4194851 C180.688068,19.8848402 180.823661,23.8396389 180.840097,29.2839729 L180.840097,29.2839729 Z M164.602051,49.2944336 L164.602051,20.5952148 L164.598702,19.8905627 C164.574147,17.3868908 164.414539,15.7637977 164.119873,15.0212402 C163.79842,14.2111776 163.136235,13.8061523 162.133301,13.8061523 C161.284664,13.8061523 160.635338,14.1340299 160.185303,14.7897949 C159.735268,15.4455599 159.510254,17.3806805 159.510254,20.5952148 L159.510254,49.7573242 C159.510254,53.3833189 159.65812,55.6206012 159.953857,56.4692383 C160.249595,57.3178753 160.937495,57.7421875 162.017578,57.7421875 C163.123378,57.7421875 163.830565,57.2535856 164.13916,56.2763672 C164.447755,55.2991488 164.602051,52.9718608 164.602051,49.2944336 Z M225.587891,4.54833984 L216.291504,32.7460938 L226.475098,67 L209.695312,67 L203.137695,40.2294922 L203.137695,67 L186.897949,67 L186.897949,4.54833984 L203.137695,4.54833984 L203.137695,28.8115234 L210.351074,4.54833984 L225.587891,4.54833984 Z M245.530762,4.54833984 L245.530762,67 L229.291016,67 L229.291016,4.54833984 L245.530762,4.54833984 Z M268.289551,4.54833984 L268.289551,54.5019531 L278.164551,54.5019531 L278.164551,67 L252.049805,67 L252.049805,4.54833984 L268.289551,4.54833984 Z M298.338867,4.54833984 L298.338867,54.5019531 L308.213867,54.5019531 L308.213867,67 L282.099121,67 L282.099121,4.54833984 L298.338867,4.54833984 Z M342.15918,4.54833984 L351.455566,67 L334.830078,67 L334.02002,55.7749023 L328.195312,55.7749023 L327.230957,67 L310.412598,67 L318.66748,4.54833984 L342.15918,4.54833984 Z M328.002441,44.7041016 L333.557129,44.7041016 L333.392545,43.2675921 C332.624487,36.460681 331.856438,28.2089569 331.088379,18.512207 L330.689777,21.4285907 C329.275384,31.8774161 328.379613,39.6358525 328.002441,44.7041016 Z M404.61084,3.23681641 C407.953956,3.23681641 410.956286,3.78327904 413.61792,4.8762207 C416.279554,5.96916237 418.420402,7.60855027 420.040527,9.79443359 C421.660653,11.9803169 422.624998,14.3590366 422.933594,16.9306641 L422.988002,17.4194851 C423.25154,19.9698524 423.387558,24.1141547 423.396059,29.8524933 L423.396484,41.1166992 L423.389553,43.3838471 C423.357207,48.4734467 423.211651,52.1601652 422.952881,54.4440918 C422.657144,57.0542936 421.731372,59.4394423 420.175537,61.5996094 C418.619703,63.7597764 416.517429,65.4184512 413.868652,66.5756836 C411.219876,67.7329159 408.133969,68.3115234 404.61084,68.3115234 C401.267724,68.3115234 398.265394,67.7650608 395.60376,66.6721191 C392.942125,65.5791775 390.801278,63.9397896 389.181152,61.7539062 C387.561027,59.5680229 386.596681,57.1893032 386.288086,54.6176758 L386.233678,54.1288547 C385.97014,51.5784874 385.834121,47.4341852 385.82562,41.6958465 L385.826928,29.2765939 C385.844256,23.6087243 385.991545,19.5513123 386.268799,17.104248 C386.564536,14.4940462 387.490308,12.1088975 389.046143,9.94873047 C390.601977,7.78856342 392.704251,6.1298886 395.353027,4.97265625 C398.001804,3.8154239 401.08771,3.23681641 404.61084,3.23681641 Z M382.584961,4.54833984 L382.584961,17.0463867 L372.941406,17.0463867 L372.941406,67 L356.70166,67 L356.70166,17.0463867 L347.09668,17.0463867 L347.09668,4.54833984 L382.584961,4.54833984 Z M440.947754,4.54833984 C448.611204,4.54833984 453.799384,4.84407256 456.512451,5.43554688 C459.225518,6.02702119 461.437085,7.53782965 463.147217,9.96801758 C464.857349,12.3982055 465.712402,16.2748757 465.712402,21.5981445 C465.712402,26.4585204 465.108079,29.7244383 463.899414,31.3959961 C462.690749,33.0675539 460.312029,34.0704736 456.763184,34.4047852 C459.977718,35.2019897 462.137853,36.269199 463.243652,37.6064453 C464.349452,38.9436916 465.037352,40.1716253 465.307373,41.2902832 C465.569211,42.3750424 465.704096,45.3035844 465.71203,50.0759933 L465.712402,67 L450.629883,67 L450.629883,46.2470703 C450.629883,42.9039546 450.366295,40.8338256 449.839111,40.0366211 C449.311928,39.2394166 447.929699,38.8408203 445.692383,38.8408203 L445.692383,67 L429.452637,67 L429.452637,4.54833984 L440.947754,4.54833984 Z M404.687988,13.8061523 C403.839351,13.8061523 403.190025,14.1340299 402.73999,14.7897949 C402.289955,15.4455599 402.064941,17.3806805 402.064941,20.5952148 L402.064941,49.7573242 C402.064941,53.3833189 402.212808,55.6206012 402.508545,56.4692383 C402.804282,57.3178753 403.492182,57.7421875 404.572266,57.7421875 C405.678065,57.7421875 406.385252,57.2535856 406.693848,56.2763672 C406.991422,55.3340494 407.14552,53.1363737 407.156148,49.6832773 L407.156738,20.5952148 L407.15339,19.8905627 C407.128835,17.3868908 406.969226,15.7637977 406.674561,15.0212402 C406.353107,14.2111776 405.690923,13.8061523 404.687988,13.8061523 Z M445.692383,15.2333984 L445.692383,29.1201172 C447.518238,29.1201172 448.797604,28.8693873 449.530518,28.3679199 C450.234115,27.8865113 450.59998,26.3682449 450.628124,23.8130777 L450.629883,23.4882812 L450.629883,20.0551758 C450.629883,18.0750227 450.276289,16.7763703 449.569092,16.1591797 C448.861894,15.5419891 447.569671,15.2333984 445.692383,15.2333984 Z" id="GLEEOKILLATOR" fill="#E4000F" fill-rule="nonzero"></path>
    </g>
</svg>