<?xml version="1.0" encoding="UTF-8"?>
<svg width="22px" height="22px" viewBox="0 0 22 22" version="1.1" xmlns="http://www.w3.org/2000/svg" xmlns:xlink="http://www.w3.org/1999/xlink">
    <!-- Generator: Sketch 58 (84663) - https://sketch.com -->
    <title>Knobs/Rogan/HalfP/SNES</title>
    <desc>Created with Sketch.</desc>
    <defs>
        <radialGradient cx="50%" cy="50%" fx="50%" fy="50%" r="100%" id="radialGradient-1">
            <stop stop-color="#C9C9C9" offset="0%"></stop>
            <stop stop-color="#9A9A98" offset="100%"></stop>
        </radialGradient>
    </defs>
    <g id="Knobs/Rogan/HalfP/SNES" stroke="none" stroke-width="1" fill="none" fill-rule="evenodd">
        <g id="Group" transform="translate(1.000000, 1.000000)">
            <g id="Group-2">
                <polygon id="Path" stroke="#979797" fill="#979797" points="0.250009072 8.61429878 1.16303813 7.91278536 0.513100765 6.9905986 1.53036654 6.59151304 1.16303813 5.65921341 2.21128341 5.18476041 1.99874715 4.17805139 3.07554837 4.17805139 2.88429734 2.94992387 3.9551977 3.09778459 3.9551977 1.94672774 5.23052065 2.23052665 5.44685032 1.06499244 6.43524404 1.5404035 6.89962049 0.50569782 7.87378893 1.06499244 8.46102967 0.183470032 9.20706673 0.915641399 10.0003629 0 10.8087282 0.915641399 11.5774203 0.183470032 12.158971 1.06499244 13.1708627 0.50569782 13.5136394 1.5404035 14.5042459 1.06499244 14.8059273 2.23052665 15.8261435 1.94672774 15.8261435 3.09778459 17.1170615 2.94992387 17.1170615 4.17805139 18.1224202 4.17805139 17.8674189 5.18476041 18.8390584 5.50464627 18.4329529 6.59151304 19.5155496 6.9905986 18.8390584 7.91278536 20 8.61429878 19.0815204 9.41981503 20 10.102373 19.0815204 10.8654224 19.8526361 11.6436871 18.8390584 12.3252941 19.5155496 13.2318326 18.4329529 13.6591277 18.8390584 14.7086301 17.8674189 14.9712452 18.1224202 15.944635 16.9616372 16.115915 17.1170615 17.1806399 15.9846237 17.1806399 15.9846237 18.2437681 14.8059273 18.0073399 14.5042459 19.0358715 13.5136394 18.6525407 13.1708627 19.6664884 12.158971 19.0358715 11.5774203 20 10.671744 19.343409 10.0003629 20 9.20706673 19.343409 8.46102967 20 7.87378893 19.0358715 6.89962049 19.6664884 6.43524404 18.6525407 5.44685032 19.0358715 5.23052065 18.0073399 4.11768204 18.2437681 4.11768204 17.1806399 3.07554837 17.1806399 3.07554837 16.115915 1.99874715 15.944635 2.21128341 14.9712452 1.16303813 14.7086301 1.53036654 13.6591277 0.513100765 13.2318326 1.16303813 12.3252941 0.250009072 11.6436871 0.921735183 10.8654224 0 10.102373 0.921735183 9.41981503"></polygon>
                <circle id="Oval" stroke="#A7A7A7" stroke-width="0.75" cx="10" cy="10.2631579" r="9.21052632"></circle>
            </g>
            <path d="M12.4137931,3.44827481 C12.4137931,4.59064575 11.4873612,5.51724138 10.3451876,5.51724138 C9.20229399,5.51724138 8.27586207,4.59064575 8.27586207,3.44827481 C8.27586207,2.30518382 9.20229399,1.37931034 10.3451876,1.37931034 C11.4873612,1.37931034 12.4137931,2.30518382 12.4137931,3.44827481" id="path7707" stroke="url(#radialGradient-1)" stroke-width="1.3" fill="#C3C3C3" fill-rule="nonzero"></path>
        </g>
    </g>
</svg>