<?xml version="1.0" encoding="UTF-8"?>
<svg width="128px" height="32px" viewBox="0 0 128 32" version="1.1" xmlns="http://www.w3.org/2000/svg" xmlns:xlink="http://www.w3.org/1999/xlink">
    <!-- Generator: Sketch 58 (84663) - https://sketch.com -->
    <title>Envelope/DecayAttackLFO</title>
    <desc>Created with Sketch.</desc>
    <g id="Envelope/DecayAttackLFO" stroke="none" stroke-width="1" fill="none" fill-rule="evenodd">
        <g id="Group" transform="translate(3.000000, 6.000000)" fill="#D8D8D8">
            <polygon id="Triangle" transform="translate(10.000000, 10.000000) scale(-1, 1) translate(-10.000000, -10.000000) " points="20 0 20 20 0 20"></polygon>
            <polygon id="Triangle-Copy" points="40 0 40 20 20 20"></polygon>
        </g>
        <g id="Group-Copy" transform="translate(43.000000, 6.000000)" fill="#D8D8D8">
            <polygon id="Triangle" transform="translate(10.000000, 10.000000) scale(-1, 1) translate(-10.000000, -10.000000) " points="20 0 20 20 0 20"></polygon>
            <polygon id="Triangle-Copy" points="40 0 40 20 20 20"></polygon>
        </g>
        <g id="Group-Copy-2" transform="translate(83.000000, 6.000000)" fill="#D8D8D8">
            <polygon id="Triangle" transform="translate(10.000000, 10.000000) scale(-1, 1) translate(-10.000000, -10.000000) " points="20 0 20 20 0 20"></polygon>
            <polygon id="Triangle-Copy" points="40 0 40 20 20 20"></polygon>
        </g>
    </g>
</svg>