<?xml version="1.0" encoding="UTF-8"?>
<svg width="470px" height="70px" viewBox="0 0 470 70" version="1.1" xmlns="http://www.w3.org/2000/svg" xmlns:xlink="http://www.w3.org/1999/xlink">
    <!-- Generator: Sketch 58 (84663) - https://sketch.com -->
    <title>POKEY-Logo</title>
    <desc>Created with Sketch.</desc>
    <g id="POKEY-Logo" stroke="none" stroke-width="1" fill="none" fill-rule="evenodd">
        <path d="M127.765,22.44 L127.765,22.26 C127.765,10.11 118.225,3 104.365,3 L81.505,3 L81.505,66 L86.185,66 L86.185,42.51 L103.195,42.51 C116.335,42.51 127.765,35.67 127.765,22.44 Z M123.085,22.71 C123.085,32.07 115.165,38.19 103.465,38.19 L86.185,38.19 L86.185,7.32 L104.005,7.32 C115.216136,7.32 122.908626,12.4220377 123.082008,22.1912804 L123.085,22.71 Z M202.195,34.5 C202.285,34.41 202.285,34.41 202.195,34.32 C202.195,17.13 189.685,1.92 170.605,1.92 C151.7158,1.92 139.089439,17.003739 138.838801,33.9848536 L138.835,34.68 C138.835,51.87 151.345,67.08 170.425,67.08 C189.505,67.08 202.195,51.69 202.195,34.5 Z M197.335,34.68 C197.335,50.25 186.175,62.85 170.605,62.85 C155.1907,62.85 143.922223,50.324322 143.698395,34.966253 L143.695,34.32 C143.695,18.75 154.855,6.15 170.425,6.15 C185.8393,6.15 197.107777,18.675678 197.331605,34.033747 L197.335,34.68 Z M270.505,66 L241.795,30.81 L269.335,3 L262.945,3 L222.805,44.4 L222.805,3 L218.125,3 L218.125,66 L222.805,66 L222.805,49.98 L238.465,34.14 L264.385,66 L270.505,66 Z M327.745,66 L327.745,61.68 L287.155,61.68 L287.155,36.39 L323.245,36.39 L323.245,32.07 L287.155,32.07 L287.155,7.32 L327.295,7.32 L327.295,3 L282.475,3 L282.475,66 L327.745,66 Z M394.975,3 L367.975,40.98 L367.975,66 L363.295,66 L363.295,41.07 L336.295,3 L342.145,3 L365.725,36.84 L389.395,3 L394.975,3 Z" id="POKEY" fill="#B3B3B3" fill-rule="nonzero"></path>
    </g>
</svg>