<?xml version="1.0" encoding="UTF-8"?>
<svg width="470px" height="70px" viewBox="0 0 470 70" version="1.1" xmlns="http://www.w3.org/2000/svg" xmlns:xlink="http://www.w3.org/1999/xlink">
    <!-- Generator: Sketch 58 (84663) - https://sketch.com -->
    <title>FME7-Logo</title>
    <desc>Created with Sketch.</desc>
    <g id="FME7-Logo" stroke="none" stroke-width="1" fill="none" fill-rule="evenodd">
        <path d="M163.585,7.32 L163.585,3 L119.215,3 L119.215,66 L123.895,66 L123.895,37.47 L159.535,37.47 L159.535,33.15 L123.895,33.15 L123.895,7.32 L163.585,7.32 Z M237.655,66 L237.655,3 L233.245,3 L207.955,40.26 L182.665,3 L178.255,3 L178.255,66 L182.755,66 L182.755,11.28 L207.685,47.55 L208.045,47.55 L232.975,11.28 L232.975,66 L237.655,66 Z M301.645,66 L301.645,61.68 L261.055,61.68 L261.055,36.39 L297.145,36.39 L297.145,32.07 L261.055,32.07 L261.055,7.32 L301.195,7.32 L301.195,3 L256.375,3 L256.375,66 L301.645,66 Z M313.435,7.5 L313.435,3 L355.195,3 L355.195,6.42 L326.485,66 L321.355,66 L349.975,7.5 L313.435,7.5 Z" id="FME7" fill="#B3B3B3" fill-rule="nonzero"></path>
    </g>
</svg>