<?xml version="1.0" encoding="UTF-8"?>
<svg width="470px" height="70px" viewBox="0 0 470 70" version="1.1" xmlns="http://www.w3.org/2000/svg" xmlns:xlink="http://www.w3.org/1999/xlink">
    <!-- Generator: Sketch 58 (84663) - https://sketch.com -->
    <title>SCC-Logo</title>
    <desc>Created with Sketch.</desc>
    <g id="SCC-Logo" stroke="none" stroke-width="1" fill="none" fill-rule="evenodd">
        <path d="M197,48.52 L197,48.36 C197,40.2983133 191.690295,35.6723182 179.065163,33.0162953 L177.700285,32.7310011 C165.476388,30.096733 162.421881,26.6313948 162.284907,21.0846152 L162.28,20.52 C162.28,14.68 167.72,9.96 175.96,9.96 C182.12,9.96 187.4,11.72 192.68,16.28 L195.32,13 C189.64,8.44 184.28,6.2 176.12,6.2 C165.842353,6.2 158.299211,12.4502976 158.123148,20.6271575 L158.12,21.08 C158.12,29.56 163.56,34.12 177,36.84 C189.570353,39.3698824 192.76526,42.7591806 192.838694,48.552086 L192.84,48.92 C192.84,55.32 187.08,60.04 178.68,60.04 C170.44,60.04 164.76,57.4 158.6,51.72 L155.88,54.84 C162.6,60.84 169.48,63.8 178.44,63.8 C189.24,63.8 197,57.56 197,48.52 Z M258.28,54.2 L255.48,51.48 C249.8,57.08 244.28,60.2 236.2,60.2 C222.9736,60.2 212.726704,49.379696 212.523089,35.4238561 L212.52,34.84 C212.52,20.76 222.68,9.8 236.12,9.8 C244.52,9.8 250.12,13.32 255,18.04 L257.96,15 C252.2,9.72 246.2,6.04 236.2,6.04 C220.2016,6.04 208.437232,18.898912 208.203544,34.5256264 L208.2,35.16 C208.2,51.24 220.04,63.96 236.04,63.96 C245.96,63.96 252.36,60.04 258.28,54.2 Z M312.92,51.48 L315.72,54.2 L315.072132,54.8293782 C309.329891,60.3199074 303.039273,63.96 293.48,63.96 C277.64,63.96 265.877216,51.493128 265.643544,35.6413826 L265.64,35 C265.64,19.16 277.48,6.04 293.64,6.04 C303.64,6.04 309.64,9.72 315.4,15 L312.44,18.04 C307.56,13.32 301.96,9.8 293.56,9.8 C280.2544,9.8 270.163528,20.541896 269.963041,34.4185438 L269.96,35 C269.96,49.16 280.28,60.2 293.64,60.2 C301.72,60.2 307.24,57.08 312.92,51.48 Z" id="SCC" fill="#B3B3B3" fill-rule="nonzero"></path>
    </g>
</svg>