<?xml version="1.0" encoding="UTF-8"?>
<svg width="470px" height="76px" viewBox="0 0 470 76" version="1.1" xmlns="http://www.w3.org/2000/svg" xmlns:xlink="http://www.w3.org/1999/xlink">
    <!-- Generator: Sketch 58 (84663) - https://sketch.com -->
    <title>Logo</title>
    <desc>Created with Sketch.</desc>
    <g id="Logo" stroke="none" stroke-width="1" fill="none" fill-rule="evenodd">
        <path d="M51.7431641,7.06152344 L106.586914,7.06152344 L107.634277,8.10888672 L107.634277,12.3300781 L106.586914,13.3774414 L75.9912109,13.3774414 L75.9912109,19.7250977 L106.586914,19.7250977 L107.634277,20.7724609 L107.634277,62.9526367 L106.586914,64 L51.7431641,64 L50.6958008,62.9526367 L50.6958008,39.7519531 L51.7431641,38.7045898 L88.6547852,38.7045898 L88.6547852,26.0410156 L51.7431641,26.0410156 L50.6958008,24.9936523 L50.6958008,8.10888672 L51.7431641,7.06152344 Z M115.251465,6.83935547 L125.852051,6.83935547 L126.899414,7.88671875 L126.899414,25.8823242 L144.89502,25.8823242 L145.974121,26.9614258 L145.974121,31.1826172 L144.89502,32.2299805 L126.899414,32.2299805 L126.899414,44.9570312 L145.974121,44.9570312 L145.974121,39.6567383 L147.021484,38.609375 L151.242676,38.609375 L152.321777,39.6567383 L152.321777,62.9526367 L151.242676,64 L115.251465,64 L114.204102,62.9526367 L114.204102,7.88671875 L115.251465,6.83935547 Z M159.748535,25.9775391 L189.328613,25.9775391 L190.375977,27.0249023 L190.375977,43.9414062 L189.328613,44.9887695 L177.712402,44.9887695 L177.712402,51.3364258 L195.67627,51.3364258 L196.723633,52.3837891 L196.723633,62.9526367 L195.67627,64 L159.748535,64 L158.701172,62.9526367 L158.701172,27.0249023 L159.748535,25.9775391 Z M171.364746,32.3251953 L171.364746,38.6411133 L184.060059,38.6411133 L184.060059,32.3251953 L171.364746,32.3251953 Z M204.245605,26.1044922 L240.17334,26.1044922 L241.220703,27.1518555 L241.220703,63.0795898 L240.17334,64.1269531 L215.861816,64.1269531 L215.861816,82.0908203 L214.814453,83.1381836 L204.245605,83.1381836 L203.198242,82.0908203 L203.198242,27.1518555 L204.245605,26.1044922 Z M215.861816,32.4521484 L215.861816,38.7680664 L234.873047,38.7680664 L234.873047,32.4521484 L215.861816,32.4521484 Z M248.742676,7.06152344 L303.586426,7.06152344 L304.633789,8.10888672 L304.633789,12.3300781 L303.586426,13.3774414 L272.990723,13.3774414 L272.990723,19.7250977 L303.586426,19.7250977 L304.633789,20.7724609 L304.633789,62.9526367 L303.586426,64 L248.742676,64 L247.695312,62.9526367 L247.695312,39.7519531 L248.742676,38.7045898 L285.654297,38.7045898 L285.654297,26.0410156 L248.742676,26.0410156 L247.695312,24.9936523 L247.695312,8.10888672 L248.742676,7.06152344 Z M312.282715,25.7236328 L348.432617,25.7236328 L349.47998,26.7709961 L349.47998,62.9208984 L348.432617,64 L344.179688,64 L343.100586,62.9208984 L343.100586,51.2412109 L336.721191,51.2412109 L336.721191,62.9208984 L335.673828,64 L312.282715,64 L311.203613,62.9208984 L311.203613,26.7709961 L312.282715,25.7236328 Z M317.583008,32.1030273 L317.583008,38.4824219 L336.721191,38.4824219 L336.721191,32.1030273 L317.583008,32.1030273 Z M356.621094,25.9775391 L367.189941,25.9775391 L368.237305,27.0249023 L368.237305,44.9887695 L373.537598,44.9887695 L374.584961,46.0361328 L374.584961,51.3364258 L387.248535,51.3364258 L387.248535,27.0249023 L388.327637,25.9775391 L392.548828,25.9775391 L393.596191,27.0249023 L393.596191,51.3364258 L406.259766,51.3364258 L406.259766,27.0249023 L407.338867,25.9775391 L411.560059,25.9775391 L412.607422,27.0249023 L412.607422,56.6049805 L411.560059,57.6523438 L406.259766,57.6523438 L406.259766,62.9526367 L405.212402,64 L394.643555,64 L393.596191,62.9526367 L393.596191,57.6523438 L387.248535,57.6523438 L387.248535,62.9526367 L386.201172,64 L369.316406,64 L368.237305,62.9526367 L368.237305,57.6523438 L362.96875,57.6523438 L361.921387,56.6049805 L361.921387,51.3364258 L356.621094,51.3364258 L355.57373,50.2573242 L355.57373,27.0249023 L356.621094,25.9775391 Z" id="StepSaw" fill="#6B17D5" fill-rule="nonzero"></path>
    </g>
</svg>