<?xml version="1.0" encoding="UTF-8"?>
<svg width="510px" height="70px" viewBox="0 0 510 70" version="1.1" xmlns="http://www.w3.org/2000/svg" xmlns:xlink="http://www.w3.org/1999/xlink">
    <!-- Generator: Sketch 58 (84663) - https://sketch.com -->
    <title>S-SMP-Gauss-Logo</title>
    <desc>Created with Sketch.</desc>
    <g id="S-SMP-Gauss-Logo" stroke="none" stroke-width="1" fill="none" fill-rule="evenodd">
        <path d="M50.145,46.33 L50.145,46.19 C50.145,39.1478082 45.5145177,35.1018108 34.5073278,32.7759201 L34.045,32.68 C22.425,30.3 19.765,27.15 19.765,21.97 L19.765,21.83 C19.765,16.72 24.525,12.59 31.735,12.59 C37.125,12.59 41.745,14.13 46.365,18.12 L48.675,15.25 C43.705,11.26 39.015,9.3 31.875,9.3 C22.8947368,9.3 16.3004242,14.7536011 16.1284444,21.8935131 L16.125,22.32 C16.125,29.6423684 20.7605609,33.6244062 32.1844201,36.0152123 L33.5175875,36.2908692 C43.7761782,38.4816489 46.4326749,41.4164671 46.5035306,46.333954 L46.505,46.68 C46.505,52.28 41.465,56.41 34.115,56.41 C26.905,56.41 21.935,54.1 16.545,49.13 L14.165,51.86 C20.045,57.11 26.065,59.7 33.905,59.7 C43.355,59.7 50.145,54.24 50.145,46.33 Z M78.495,40.17 L78.495,36.25 L59.735,36.25 L59.735,40.17 L78.495,40.17 Z M123.505,46.33 L123.505,46.19 C123.505,39.1478082 118.874518,35.1018108 107.867328,32.7759201 L107.405,32.68 C95.785,30.3 93.125,27.15 93.125,21.97 L93.125,21.83 C93.125,16.72 97.885,12.59 105.095,12.59 C110.485,12.59 115.105,14.13 119.725,18.12 L122.035,15.25 C117.065,11.26 112.375,9.3 105.235,9.3 C96.2547368,9.3 89.6604242,14.7536011 89.4884444,21.8935131 L89.485,22.32 C89.485,29.6423684 94.1205609,33.6244062 105.54442,36.0152123 L106.877588,36.2908692 C117.136178,38.4816489 119.792675,41.4164671 119.863531,46.333954 L119.865,46.68 C119.865,52.28 114.825,56.41 107.475,56.41 C100.265,56.41 95.295,54.1 89.905,49.13 L87.525,51.86 C93.405,57.11 99.425,59.7 107.265,59.7 C116.715,59.7 123.505,54.24 123.505,46.33 Z M181.675,59 L181.675,10 L178.245,10 L158.575,38.98 L138.905,10 L135.475,10 L135.475,59 L138.975,59 L138.975,16.44 L158.365,44.65 L158.645,44.65 L178.035,16.44 L178.035,59 L181.675,59 Z M232.215,25.12 L232.215,24.98 C232.215,15.53 224.795,10 214.015,10 L196.235,10 L196.235,59 L199.875,59 L199.875,40.73 L213.105,40.73 C223.325,40.73 232.215,35.41 232.215,25.12 Z M228.575,25.33 C228.575,32.61 222.415,37.37 213.315,37.37 L199.875,37.37 L199.875,13.36 L213.735,13.36 C222.430775,13.36 228.404867,17.3064392 228.571426,24.863899 L228.575,25.33 Z M261.545,11.26 L260.075,8.95 C247.755,15.95 240.685,26.24 240.685,38.91 C240.685,51.58 247.755,61.87 260.075,68.87 L261.545,66.56 C250.485,59.77 244.325,50.6 244.325,38.91 C244.325,27.22 250.485,18.05 261.545,11.26 Z M312.715,52.49 L312.715,33.59 L292.835,33.59 L292.835,36.95 L309.215,36.95 L309.215,51.02 C305.645,54.03 299.835,56.62 293.605,56.62 C280.6459,56.62 272.763718,47.358055 272.60737,34.8791278 L272.605,34.36 C272.605,22.53 280.935,12.45 292.835,12.45 C300.255,12.45 304.735,14.97 308.585,18.33 L310.965,15.6 C306.065,11.54 301.025,9.16 293.045,9.16 C278.5613,9.16 269.017304,21.029011 268.827872,34.103447 L268.825,34.64 C268.825,48.43 277.995,59.84 293.465,59.84 C301.445,59.84 308.305,56.41 312.715,52.49 Z M353.665,59 L353.665,36.74 C353.665,27.5 347.925,22.74 338.755,22.74 C333.855,22.74 330.005,24 326.085,25.82 L327.345,28.83 C330.635,27.15 334.205,25.96 338.545,25.96 C345.895,25.96 350.305,29.67 350.305,36.88 L350.305,38.42 C346.875,37.51 343.445,36.88 338.475,36.88 C329.361575,36.88 323.040059,40.9657196 322.868577,48.1968837 L322.865,48.64 C322.865,56.06 330.005,59.84 336.655,59.84 C343.445,59.84 347.855,56.48 350.305,53.05 L350.305,59 L353.665,59 Z M350.375,45.63 C350.375,52.14 344.145,56.62 336.865,56.62 C331.405,56.62 326.505,53.61 326.505,48.43 L326.505,48.29 C326.505,43.32 330.705,39.96 338.265,39.96 C343.375,39.96 347.365,40.8 350.375,41.57 L350.375,45.63 Z M395.875,59 L395.875,23.3 L392.445,23.3 L392.445,43.95 C392.445,51.37 387.055,56.69 380.055,56.69 C372.845,56.69 368.715,51.86 368.715,44.51 L368.715,23.3 L365.285,23.3 L365.285,45.14 C365.285,53.68 370.535,59.84 379.565,59.84 C386.075,59.84 390.065,56.55 392.445,52.35 L392.445,59 L395.875,59 Z M432.765,49.27 L432.765,49.13 C432.765,42.83 426.745,40.73 421.005,39.12 L419.854759,38.7860865 C415.193455,37.4137593 411.065,35.8788679 411.065,32.19 L411.065,32.05 C411.065,28.48 414.285,25.82 419.185,25.82 C422.965,25.82 426.885,27.22 430.175,29.39 L431.995,26.52 C428.425,24.14 423.595,22.6 419.325,22.6 C412.506774,22.6 407.721353,26.5978486 407.568758,32.1935251 L407.565,32.61 C407.565,38.6717742 413.396852,40.5498283 418.967989,42.1651219 L420.951409,42.7367091 C425.447722,44.0626627 429.265,45.6730769 429.265,49.55 L429.265,49.69 C429.265,53.82 425.485,56.48 420.655,56.48 C416.105,56.48 411.765,54.8 407.845,51.79 L405.815,54.52 C409.595,57.6 415.265,59.7 420.445,59.7 C427.305,59.7 432.765,55.64 432.765,49.27 Z M466.855,49.27 L466.855,49.13 C466.855,42.83 460.835,40.73 455.095,39.12 L453.944759,38.7860865 C449.283455,37.4137593 445.155,35.8788679 445.155,32.19 L445.155,32.05 C445.155,28.48 448.375,25.82 453.275,25.82 C457.055,25.82 460.975,27.22 464.265,29.39 L466.085,26.52 C462.515,24.14 457.685,22.6 453.415,22.6 C446.596774,22.6 441.811353,26.5978486 441.658758,32.1935251 L441.655,32.61 C441.655,38.6717742 447.486852,40.5498283 453.057989,42.1651219 L455.041409,42.7367091 C459.537722,44.0626627 463.355,45.6730769 463.355,49.55 L463.355,49.69 C463.355,53.82 459.575,56.48 454.745,56.48 C450.195,56.48 445.855,54.8 441.935,51.79 L439.905,54.52 C443.685,57.6 449.355,59.7 454.535,59.7 C461.395,59.7 466.855,55.64 466.855,49.27 Z M474.135,11.26 L475.605,8.95 C487.925,15.95 494.995,26.24 494.995,38.91 C494.995,51.58 487.925,61.87 475.605,68.87 L474.135,66.56 C485.195,59.77 491.355,50.6 491.355,38.91 C491.355,27.22 485.195,18.05 474.135,11.26 Z" id="S-SMP(Gauss)" fill="#B3B3B3" fill-rule="nonzero"></path>
    </g>
</svg>