<?xml version="1.0" encoding="UTF-8"?>
<svg width="470px" height="70px" viewBox="0 0 470 70" version="1.1" xmlns="http://www.w3.org/2000/svg" xmlns:xlink="http://www.w3.org/1999/xlink">
    <!-- Generator: Sketch 58 (84663) - https://sketch.com -->
    <title>S-SMP-Gauss-Logo</title>
    <desc>Created with Sketch.</desc>
    <g id="S-SMP-Gauss-Logo" stroke="none" stroke-width="1" fill="none" fill-rule="evenodd">
        <path d="M100.15332,35.359375 L105.827148,35.359375 L103.981445,45.8525391 L103.981445,46.0234375 C103.981445,46.4108092 104.118163,46.7526027 104.391602,47.0488281 C104.66504,47.3450536 104.995441,47.4931641 105.382812,47.4931641 L108.527344,47.4931641 C109.028648,47.4931641 109.484373,47.3336604 109.894531,47.0146484 C110.327476,46.6728499 110.589518,46.2626977 110.680664,45.7841797 L111.911133,38.8798828 C111.956706,38.6748037 111.979492,38.4583345 111.979492,38.2304688 C111.979492,37.3797701 111.622204,36.2908912 110.907618,34.9638033 L109.921961,33.1533119 C109.42263,32.2263841 108.729894,30.9337467 107.84375,29.2753906 L104.767578,23.4648438 L104.767578,23.4648438 C103.901688,21.7558508 103.46875,20.0810629 103.46875,18.4404297 L103.46875,18.1328125 C103.46875,17.7454408 103.502929,17.3466817 103.571289,16.9365234 L105.041016,8.45996094 C105.268881,7.18391289 105.906896,6.12435317 106.955078,5.28125 C107.957687,4.43814683 109.108392,4.01660156 110.407227,4.01660156 L118.610352,4.01660156 C119.795253,4.01660156 120.820634,4.44953994 121.686523,5.31542969 C122.5752,6.18131943 123.019531,7.25227227 123.019531,8.52832031 C123.019531,8.82454575 122.996745,9.06380117 122.951172,9.24609375 L120.797852,21.2773438 L115.055664,21.2773438 L116.867188,11.1601562 C116.912761,11.0917965 116.935547,11.0006516 116.935547,10.8867188 C116.935547,10.5449202 116.787436,10.2259129 116.491211,9.9296875 C116.194985,9.67903521 115.853192,9.55371094 115.46582,9.55371094 L112.321289,9.55371094 C111.819984,9.55371094 111.375653,9.71321455 110.988281,10.0322266 C110.60091,10.328452 110.361654,10.7044248 110.270508,11.1601562 L109.279297,16.5947266 C109.210937,17.0048849 109.176758,17.4264301 109.176758,17.859375 C109.176758,19.4544351 109.700841,21.1064368 110.749023,22.8154297 L112.509006,25.7087985 C115.261942,30.2749742 116.714657,32.9107573 116.867188,33.6162109 C117.459638,34.7099664 117.755859,35.9062435 117.755859,37.2050781 C117.733073,37.797529 117.664714,38.4241503 117.550781,39.0849609 L115.807617,48.5527344 C115.579751,49.8287824 114.95313,50.8997353 113.927734,51.765625 C112.902339,52.6087282 111.728848,53.0302734 110.407227,53.0302734 L102.238281,53.0302734 C101.030593,53.0302734 100.016606,52.5973351 99.1962891,51.7314453 C98.398759,50.8655556 98,49.8059958 98,48.5527344 L98,47.7666016 L100.15332,35.359375 Z M124.352539,30.3691406 L141.510742,30.3691406 L140.177734,36.6923828 L123.019531,36.6923828 L124.352539,30.3691406 Z M145.373047,35.359375 L151.046875,35.359375 L149.201172,45.8525391 L149.201172,46.0234375 C149.201172,46.4108092 149.337889,46.7526027 149.611328,47.0488281 C149.884767,47.3450536 150.215167,47.4931641 150.602539,47.4931641 L153.74707,47.4931641 C154.248375,47.4931641 154.7041,47.3336604 155.114258,47.0146484 C155.547203,46.6728499 155.809244,46.2626977 155.900391,45.7841797 L157.130859,38.8798828 C157.176433,38.6748037 157.199219,38.4583345 157.199219,38.2304688 C157.199219,37.3797701 156.841931,36.2908912 156.127344,34.9638033 L154.316266,31.6166818 L154.316266,31.6166818 L149.987305,23.4648438 L149.987305,23.4648438 C149.121415,21.7558508 148.688477,20.0810629 148.688477,18.4404297 L148.688477,18.1328125 C148.688477,17.7454408 148.722656,17.3466817 148.791016,16.9365234 L150.260742,8.45996094 C150.488608,7.18391289 151.126622,6.12435317 152.174805,5.28125 C153.177414,4.43814683 154.328119,4.01660156 155.626953,4.01660156 L163.830078,4.01660156 C165.01498,4.01660156 166.04036,4.44953994 166.90625,5.31542969 C167.794926,6.18131943 168.239258,7.25227227 168.239258,8.52832031 C168.239258,8.82454575 168.216472,9.06380117 168.170898,9.24609375 L166.017578,21.2773438 L160.275391,21.2773438 L162.086914,11.1601562 C162.132487,11.0917965 162.155273,11.0006516 162.155273,10.8867188 C162.155273,10.5449202 162.007163,10.2259129 161.710938,9.9296875 C161.414712,9.67903521 161.072919,9.55371094 160.685547,9.55371094 L157.541016,9.55371094 C157.039711,9.55371094 156.59538,9.71321455 156.208008,10.0322266 C155.820636,10.328452 155.581381,10.7044248 155.490234,11.1601562 L154.499023,16.5947266 C154.430664,17.0048849 154.396484,17.4264301 154.396484,17.859375 C154.396484,19.4544351 154.920568,21.1064368 155.96875,22.8154297 L157.728733,25.7087985 C160.481668,30.2749742 161.934384,32.9107573 162.086914,33.6162109 C162.679365,34.7099664 162.975586,35.9062435 162.975586,37.2050781 C162.952799,37.797529 162.884441,38.4241503 162.770508,39.0849609 L161.027344,48.5527344 C160.799478,49.8287824 160.172857,50.8997353 159.147461,51.765625 C158.122065,52.6087282 156.948574,53.0302734 155.626953,53.0302734 L147.458008,53.0302734 C146.250319,53.0302734 145.236332,52.5973351 144.416016,51.7314453 C143.618486,50.8655556 143.219727,49.8059958 143.219727,48.5527344 L143.219727,47.7666016 L145.373047,35.359375 Z M173.126953,4.01660156 L180.167969,4.01660156 L179.791992,39.3242188 L191.618164,4.01660156 L199.75293,4.01660156 L190.866211,53.0302734 L184.953125,53.0302734 L190.387695,22.4394531 L180.06543,53.0302734 L175.075195,53.0302734 L175.451172,22.0634766 L170.119141,53.0302734 L164.206055,53.0302734 L173.126953,4.01660156 Z M203.854492,4.01660156 L216.740234,4.01660156 C217.947923,4.01660156 218.984696,4.46093306 219.850586,5.34960938 C220.693689,6.19271255 221.115234,7.16112734 221.115234,8.25488281 C221.115234,8.55110825 221.081055,8.88150859 221.012695,9.24609375 L217.868164,26.609375 C217.640298,27.9082096 217.02507,28.9791625 216.022461,29.8222656 C215.019852,30.6653688 213.869147,31.0869141 212.570312,31.0869141 L204.879883,31.0869141 L200.880859,53.0644531 L194.967773,53.0644531 L203.854492,4.01660156 Z M210.587891,25.5498047 C211.089195,25.5498047 211.533527,25.3903011 211.920898,25.0712891 C212.285484,24.7750636 212.513346,24.3876977 212.604492,23.9091797 L215.03125,11.1601562 L215.03125,10.9550781 C215.03125,10.5449198 214.894533,10.2031264 214.621094,9.9296875 C214.347655,9.67903521 214.017255,9.55371094 213.629883,9.55371094 L208.742188,9.55371094 L205.768555,25.5498047 L210.587891,25.5498047 Z M242.101562,2 L246.374023,2 L245.235774,3.57126096 C240.799276,9.72605238 237.76075,14.3178184 236.120117,17.3466797 C233.454088,22.336939 231.426114,28.1018553 230.036133,34.6416016 C228.623365,41.2497075 228.258786,47.2880586 228.942383,52.7568359 L229.035995,53.4280549 C229.535898,56.7616677 230.72376,61.3914039 232.599609,67.3173828 L228.463867,67.3173828 L227.363076,64.7425437 C225.777404,61.0104462 224.782851,58.5533147 224.379395,57.3710938 C223.889483,55.9355397 223.439455,53.987317 223.029297,51.5263672 C222.459633,48.1539545 222.334308,44.5537301 222.65332,40.7255859 C222.835613,38.7431542 223.109048,36.851897 223.473633,35.0517578 C224.909187,28.3069324 227.244775,22.3027607 230.480469,17.0390625 L230.813683,16.5106123 C232.956079,13.1709108 236.718673,8.33408282 242.101562,2 Z M241.383789,47.6982422 L248.424805,8.45996094 C248.65267,7.18391289 249.279292,6.12435317 250.304688,5.28125 C251.330083,4.43814683 252.480788,4.01660156 253.756836,4.01660156 L262.0625,4.01660156 C263.247402,4.01660156 264.261389,4.44953994 265.104492,5.31542969 C265.970382,6.18131943 266.40332,7.24087915 266.40332,8.49414062 C266.40332,8.81315264 266.380534,9.06380117 266.334961,9.24609375 L264.147461,21.4482422 L258.473633,21.4482422 L260.319336,11.1601562 L260.319336,10.9550781 C260.319336,10.5449198 260.182619,10.2031264 259.90918,9.9296875 C259.635741,9.67903521 259.293947,9.55371094 258.883789,9.55371094 L255.705078,9.55371094 C255.22656,9.55371094 254.782229,9.71321455 254.37207,10.0322266 C253.984699,10.328452 253.745443,10.7044248 253.654297,11.1601562 L247.399414,45.8525391 L247.399414,46.0234375 C247.399414,46.4108092 247.536131,46.7526027 247.80957,47.0488281 C248.083009,47.3450536 248.424803,47.4931641 248.834961,47.4931641 L251.979492,47.4931641 C253.164394,47.4931641 253.859374,46.9235083 254.064453,45.7841797 L256.867188,30.8134766 L253.620117,30.8134766 L254.611328,25.3447266 L263.532227,25.3447266 L259.293945,48.5527344 C259.06608,49.8287824 258.428065,50.8997353 257.379883,51.765625 C256.354487,52.6087282 255.192389,53.0302734 253.893555,53.0302734 L245.724609,53.0302734 C244.516921,53.0302734 243.491541,52.5973351 242.648438,51.7314453 C241.805334,50.842769 241.383789,49.7832093 241.383789,48.5527344 L241.383789,47.6982422 Z M261.276367,53.0302734 L277.443359,4.01660156 L283.322266,4.01660156 L281.78418,53.0302734 L276.212891,53.0302734 L276.623047,44.9638672 L269.923828,44.9638672 L267.53125,53.0302734 L261.276367,53.0302734 Z M276.896484,39.4267578 L277.990234,17.7226562 L271.564453,39.4267578 L276.896484,39.4267578 Z M293.473633,4.01660156 L299.147461,4.01660156 L291.62793,45.9208984 L291.62793,46.0917969 C291.62793,46.4791686 291.753254,46.8209621 292.003906,47.1171875 C292.300132,47.4134129 292.641925,47.5615234 293.029297,47.5615234 L296.173828,47.5615234 C297.35873,47.5615234 298.05371,46.9918677 298.258789,45.8525391 L305.84668,4.01660156 L311.657227,4.01660156 L303.488281,48.6210938 C303.260416,49.8743552 302.633794,50.9225218 301.608398,51.765625 C300.583003,52.6087282 299.409512,53.0302734 298.087891,53.0302734 L289.850586,53.0302734 C288.688471,53.0302734 287.685877,52.5973351 286.842773,51.7314453 C285.99967,50.8655556 285.578125,49.8287821 285.578125,48.6210938 L285.578125,47.7666016 L293.473633,4.01660156 Z M309.777344,35.359375 L315.451172,35.359375 L313.605469,45.8525391 L313.605469,46.0234375 C313.605469,46.4108092 313.742186,46.7526027 314.015625,47.0488281 C314.289064,47.3450536 314.619464,47.4931641 315.006836,47.4931641 L318.151367,47.4931641 C318.652672,47.4931641 319.108396,47.3336604 319.518555,47.0146484 C319.9515,46.6728499 320.213541,46.2626977 320.304688,45.7841797 L321.535156,38.8798828 C321.580729,38.6748037 321.603516,38.4583345 321.603516,38.2304688 C321.603516,37.3797701 321.246228,36.2908912 320.531641,34.9638033 L319.822375,33.6655835 C319.316011,32.7288102 318.531147,31.2654179 317.467773,29.2753906 L314.391602,23.4648438 L314.391602,23.4648438 C313.525712,21.7558508 313.092773,20.0810629 313.092773,18.4404297 L313.092773,18.1328125 C313.092773,17.7454408 313.126953,17.3466817 313.195312,16.9365234 L314.665039,8.45996094 C314.892905,7.18391289 315.530919,6.12435317 316.579102,5.28125 C317.581711,4.43814683 318.732415,4.01660156 320.03125,4.01660156 L328.234375,4.01660156 C329.419277,4.01660156 330.444657,4.44953994 331.310547,5.31542969 C332.199223,6.18131943 332.643555,7.25227227 332.643555,8.52832031 C332.643555,8.82454575 332.620768,9.06380117 332.575195,9.24609375 L330.421875,21.2773438 L324.679688,21.2773438 L326.491211,11.1601562 C326.536784,11.0917965 326.55957,11.0006516 326.55957,10.8867188 C326.55957,10.5449202 326.41146,10.2259129 326.115234,9.9296875 C325.819009,9.67903521 325.477215,9.55371094 325.089844,9.55371094 L321.945312,9.55371094 C321.444008,9.55371094 320.999676,9.71321455 320.612305,10.0322266 C320.224933,10.328452 319.985678,10.7044248 319.894531,11.1601562 L318.90332,16.5947266 C318.834961,17.0048849 318.800781,17.4264301 318.800781,17.859375 C318.800781,19.4544351 319.324865,21.1064368 320.373047,22.8154297 L322.13303,25.7087985 C324.885965,30.2749742 326.33868,32.9107573 326.491211,33.6162109 C327.083662,34.7099664 327.379883,35.9062435 327.379883,37.2050781 C327.357096,37.797529 327.288738,38.4241503 327.174805,39.0849609 L325.431641,48.5527344 C325.203775,49.8287824 324.577154,50.8997353 323.551758,51.765625 C322.526362,52.6087282 321.352871,53.0302734 320.03125,53.0302734 L311.862305,53.0302734 C310.654616,53.0302734 309.640629,52.5973351 308.820312,51.7314453 C308.022782,50.8655556 307.624023,49.8059958 307.624023,48.5527344 L307.624023,47.7666016 L309.777344,35.359375 Z M331.686523,35.359375 L337.360352,35.359375 L335.514648,45.8525391 L335.514648,46.0234375 C335.514648,46.4108092 335.651366,46.7526027 335.924805,47.0488281 C336.198244,47.3450536 336.528644,47.4931641 336.916016,47.4931641 L340.060547,47.4931641 C340.561851,47.4931641 341.017576,47.3336604 341.427734,47.0146484 C341.860679,46.6728499 342.122721,46.2626977 342.213867,45.7841797 L343.444336,38.8798828 C343.489909,38.6748037 343.512695,38.4583345 343.512695,38.2304688 C343.512695,37.3797701 343.155407,36.2908912 342.440821,34.9638033 L341.455164,33.1533119 C340.955833,32.2263841 340.263098,30.9337467 339.376953,29.2753906 L336.300781,23.4648438 L336.300781,23.4648438 C335.434892,21.7558508 335.001953,20.0810629 335.001953,18.4404297 L335.001953,18.1328125 C335.001953,17.7454408 335.036132,17.3466817 335.104492,16.9365234 L336.574219,8.45996094 C336.802084,7.18391289 337.440099,6.12435317 338.488281,5.28125 C339.49089,4.43814683 340.641595,4.01660156 341.94043,4.01660156 L350.143555,4.01660156 C351.328456,4.01660156 352.353837,4.44953994 353.219727,5.31542969 C354.108403,6.18131943 354.552734,7.25227227 354.552734,8.52832031 C354.552734,8.82454575 354.529948,9.06380117 354.484375,9.24609375 L352.331055,21.2773438 L346.588867,21.2773438 L348.400391,11.1601562 C348.445964,11.0917965 348.46875,11.0006516 348.46875,10.8867188 C348.46875,10.5449202 348.32064,10.2259129 348.024414,9.9296875 C347.728189,9.67903521 347.386395,9.55371094 346.999023,9.55371094 L343.854492,9.55371094 C343.353188,9.55371094 342.908856,9.71321455 342.521484,10.0322266 C342.134113,10.328452 341.894857,10.7044248 341.803711,11.1601562 L340.8125,16.5947266 C340.74414,17.0048849 340.709961,17.4264301 340.709961,17.859375 C340.709961,19.4544351 341.234044,21.1064368 342.282227,22.8154297 L343.838455,25.371243 C346.723507,30.1452511 348.24414,32.8935511 348.400391,33.6162109 C348.992842,34.7099664 349.289062,35.9062435 349.289062,37.2050781 C349.266276,37.797529 349.197917,38.4241503 349.083984,39.0849609 L347.34082,48.5527344 C347.112955,49.8287824 346.486333,50.8997353 345.460938,51.765625 C344.435542,52.6087282 343.262051,53.0302734 341.94043,53.0302734 L333.771484,53.0302734 C332.563796,53.0302734 331.549809,52.5973351 330.729492,51.7314453 C329.931962,50.8655556 329.533203,49.8059958 329.533203,48.5527344 L329.533203,47.7666016 L331.686523,35.359375 Z M351.852539,67.3173828 L347.614258,67.3173828 L348.707606,65.7975291 C353.091134,59.6756365 356.101387,55.1126106 357.738439,52.1083379 L357.868164,51.8681641 C360.48862,46.969051 362.505201,41.2269209 363.917969,34.6416016 C365.30795,28.0562822 365.661136,22.0293242 364.977539,16.5605469 L364.888195,15.8893279 C364.408233,12.5557151 363.230342,7.92597889 361.354492,2 L365.490234,2 L367.678686,7.32101163 C368.625743,9.65011989 369.259657,11.2593793 369.580435,12.1488101 L369.660156,12.3735352 C370.115888,13.6837631 370.537433,15.4895718 370.924805,17.7910156 C371.403323,20.6393372 371.579916,23.4534366 371.45459,26.2333984 C371.329264,29.0133603 370.993167,31.6907423 370.446289,34.265625 C369.010735,41.0104504 366.663753,47.0260152 363.405273,52.3125 L363.072239,52.847512 C360.93206,56.2249065 357.192192,61.0481541 351.852539,67.3173828 Z" id="S-SMP(Gauss)" fill="#FF5050" fill-rule="nonzero"></path>
    </g>
</svg>