<?xml version="1.0" encoding="UTF-8"?>
<svg width="120px" height="380px" viewBox="0 0 120 380" version="1.1" xmlns="http://www.w3.org/2000/svg" xmlns:xlink="http://www.w3.org/1999/xlink">
    <!-- Generator: Sketch 58 (84663) - https://sketch.com -->
    <title>S-SMP-Gauss-Module-Dark</title>
    <desc>Created with Sketch.</desc>
    <g id="S-SMP-Gauss-Module-Dark" stroke="none" stroke-width="1" fill="none" fill-rule="evenodd">
        <g id="bg" fill-rule="nonzero">
            <g fill="#343633" id="Background">
                <rect x="0" y="0" width="120" height="380" rx="1"></rect>
            </g>
            <g id="Logo/Panel/DarkMode" transform="translate(21.000000, 364.000000)" fill="#FFFFFF">
                <g id="Logo/Print/DarkMode">
                    <path d="M1.95775432,2.29858118 L3.38562168,2.29858118 L3.38562168,4.99672234 L6.06699634,2.29858118 L7.94254488,2.29858118 L5.09623504,4.99672234 L8.08863032,8.85057471 L6.22250665,8.85057471 L4.0783494,5.98796695 L3.38562168,6.65916846 L3.38562168,8.85057471 L1.95775432,8.85057471 L1.95775432,2.29858118 Z M11.6276679,6.49470187 C11.5428437,6.54507927 11.4572353,6.5858251 11.3708403,6.61694055 C11.2844452,6.64805601 11.1658502,6.6769485 11.0150515,6.70361889 L10.7134558,6.75695941 C10.4307084,6.80437344 10.2280757,6.86215842 10.1055519,6.93031609 C9.89820375,7.04588779 9.79453125,7.2251694 9.79453125,7.46816631 C9.79453125,7.68449282 9.85814847,7.84080861 9.98538481,7.93711835 C10.1126211,8.0334281 10.2673445,8.08158226 10.4495595,8.08158226 C10.7385902,8.08158226 11.00484,8.00157228 11.248317,7.84154993 C11.4917939,7.68152758 11.618243,7.38963933 11.6276679,6.96587644 L11.6276679,6.49470187 Z M10.8124169,5.90351114 C11.0606051,5.87387737 11.2381062,5.83683571 11.3449219,5.79238506 C11.5365618,5.71533726 11.6323803,5.59532229 11.6323803,5.43233657 C11.6323803,5.23379031 11.5593383,5.09673619 11.4132522,5.02117008 C11.267166,4.94560397 11.0527524,4.90782148 10.770005,4.90782148 C10.4526995,4.90782148 10.2280758,4.98190479 10.096127,5.13007364 C10.0018779,5.23971858 9.93904603,5.3878852 9.90762965,5.57457795 L8.61171044,5.57457795 C8.63998518,5.15081505 8.76564882,4.80262349 8.98870512,4.52999282 C9.34371022,4.10326654 9.95317886,3.88990661 10.8171293,3.88990661 C11.3794825,3.88990661 11.8789955,3.99510491 12.3156832,4.20550467 C12.7523709,4.41590443 12.9707114,4.81299097 12.9707114,5.39677622 L12.9707114,7.61929777 C12.9707114,7.77339337 12.973853,7.96008331 12.9801363,8.1793732 C12.9895612,8.34532231 13.0162647,8.45792894 13.0602477,8.51719648 C13.1042306,8.57646402 13.170204,8.625359 13.2581699,8.6638829 L13.2581699,8.85057471 L11.7973155,8.85057471 C11.7564742,8.75278328 11.7281999,8.66091997 11.7124917,8.57498204 C11.6967835,8.48904411 11.6842171,8.39125414 11.6747922,8.2816092 C11.4894356,8.47126532 11.2758074,8.63276693 11.0339013,8.76611889 C10.7448706,8.92317787 10.4181451,9.00170618 10.0537151,9.00170618 C9.58875266,9.00170618 9.20469317,8.87650538 8.9015251,8.62610004 C8.59835703,8.37569469 8.44677527,8.02083563 8.44677527,7.56151221 C8.44677527,6.96587346 8.69024856,6.53470859 9.17720246,6.26800467 C9.44424169,6.1227992 9.83694056,6.01908257 10.3553108,5.95685165 L10.8124169,5.90351114 Z M15.5012882,4.00547773 L15.5012882,6.92587105 C15.5012882,7.2014651 15.5358457,7.40889837 15.6049618,7.54817708 C15.7274857,7.79413736 15.9678174,7.91711566 16.3259641,7.91711566 C16.7846433,7.91711566 17.0988023,7.74227905 17.2684508,7.39260057 C17.3564167,7.20294445 17.4003989,6.95254286 17.4003989,6.64138829 L17.4003989,4.00547773 L18.7622922,4.00547773 L18.7622922,8.85057471 L17.4569481,8.85057471 L17.4569481,8.16603807 L17.4405489,8.18737424 C17.4238355,8.21019205 17.3978858,8.24753027 17.3626995,8.29938937 C17.3124333,8.37347379 17.252743,8.4386671 17.183627,8.49497126 C16.9731372,8.67277388 16.7697192,8.79427051 16.5733669,8.8594648 C16.3770145,8.92465909 16.1468929,8.95725575 15.8829953,8.95725575 C15.1227189,8.95725575 14.6106396,8.69944583 14.346742,8.18381825 C14.199085,7.89933407 14.1252576,7.48002253 14.1252576,6.92587105 L14.1252576,4.00547773 L15.5012882,4.00547773 Z M19.5304189,4.95227191 L19.5304189,4.04992816 L20.2467088,4.04992816 L20.2467088,2.69863506 L21.575615,2.69863506 L21.575615,4.04992816 L22.4097158,4.04992816 L22.4097158,4.95227191 L21.575615,4.95227191 L21.575615,7.51261674 C21.575615,7.71116299 21.6023185,7.83488212 21.6557264,7.88377784 C21.7091342,7.93267356 21.872497,7.95712105 22.1458195,7.95712105 C22.1866608,7.95712105 22.2298577,7.95638022 22.2754114,7.95489853 C22.3209652,7.95341684 22.3657328,7.95119434 22.4097158,7.94823096 L22.4097158,8.89502514 L21.7735372,8.91725036 C21.1389263,8.937994 20.7053868,8.83427736 20.4729056,8.60609734 C20.322107,8.46089187 20.2467088,8.23716028 20.2467088,7.93489583 L20.2467088,4.95227191 L19.5304189,4.95227191 Z M25.2984375,4.92115661 C24.9874153,4.92115661 24.7462982,5.01301991 24.575079,5.19674928 C24.4038597,5.38047865 24.2962602,5.62939857 24.2522773,5.94351652 L26.3398853,5.94351652 C26.3178938,5.60865493 26.2102944,5.35454918 26.0170836,5.18119163 C25.8238729,5.00783408 25.5843266,4.92115661 25.2984375,4.92115661 Z M25.2984375,3.87657148 C25.7257003,3.87657148 26.1105452,3.95213646 26.4529837,4.10326868 C26.7954223,4.2544009 27.0781654,4.49294916 27.3012217,4.81892062 C27.5022866,5.10636818 27.6326626,5.43974307 27.6923537,5.81905532 C27.7269117,6.04130858 27.7410489,6.36134849 27.7347656,6.77918463 L24.2192902,6.77918463 C24.2381401,7.26517844 24.399932,7.60596167 24.7046709,7.80154454 C24.8900275,7.92304299 25.1130805,7.98379131 25.3738364,7.98379131 C25.6503006,7.98379131 25.8749243,7.909708 26.0477144,7.76153915 C26.1419636,7.68152798 26.2252157,7.57040301 26.2974734,7.42816092 L27.6687916,7.42816092 C27.6342335,7.71560848 27.4755832,8.00749672 27.1928358,8.30383441 C26.7530064,8.77501134 26.1372546,9.01059626 25.3455618,9.01059626 C24.6921011,9.01059626 24.1156192,8.81205299 23.6160987,8.41496049 C23.1165783,8.01786799 22.8668218,7.37186151 22.8668218,6.4769217 C22.8668218,5.63828604 23.092231,4.9952429 23.543056,4.54777299 C23.9938811,4.10030308 24.5790024,3.87657148 25.2984375,3.87657148 Z M31.4858627,3.88990661 C32.0167995,3.88990661 32.4511245,4.02103407 32.7888506,4.28329292 C33.1265767,4.54555178 33.2954372,4.98042081 33.2954372,5.58791307 L33.2954372,8.85057471 L31.9194066,8.85057471 L31.9194066,5.90351114 C31.9194066,5.64866072 31.8832783,5.45308078 31.8110206,5.31676545 C31.6790718,5.06784179 31.4277445,4.94338182 31.0570313,4.94338182 C30.6014937,4.94338182 30.2889054,5.12562677 30.119257,5.49012213 C30.0312911,5.68274162 29.9873088,5.92869822 29.9873088,6.22799928 L29.9873088,8.85057471 L28.6489777,8.85057471 L28.6489777,4.01436782 L29.9448969,4.01436782 L29.9448969,4.72112967 C30.117687,4.47220601 30.2810498,4.2929244 30.43499,4.18327945 C30.7114542,3.98769658 31.0617416,3.88990661 31.4858627,3.88990661 Z M35.9391124,3.42762213 L34.5960688,3.42762213 L34.5960688,2.25857579 L35.9391124,2.25857579 L35.9391124,3.42762213 Z M33.9504654,10.7930585 L33.9504654,9.77958872 L34.0978762,9.79004152 L34.0978762,9.79004152 L34.1106882,9.79070133 C34.1421045,9.79218302 34.1703789,9.79292385 34.195512,9.79292385 C34.3274608,9.79292385 34.4272063,9.76254969 34.4947515,9.70180047 C34.5622967,9.64105124 34.5960688,9.52325878 34.5960688,9.34841954 L34.5960688,4.02770295 L35.9391124,4.02770295 L35.9391124,9.37064476 C35.9391124,9.85960194 35.8370107,10.2211285 35.6328042,10.4552353 C35.435185,10.6817902 35.0536827,10.7987202 34.4882863,10.8060283 L34.4311336,10.8063937 C34.4077958,10.8063937 34.3780467,10.8059099 34.341886,10.8049422 L34.0479841,10.7955986 C34.0170809,10.7947519 33.9845746,10.7939052 33.9504654,10.7930585 Z M40.0483544,6.49470187 C39.9635302,6.54507927 39.8779218,6.5858251 39.7915268,6.61694055 C39.7051317,6.64805601 39.5865367,6.6769485 39.435738,6.70361889 L39.1341423,6.75695941 C38.8513949,6.80437344 38.6487622,6.86215842 38.5262384,6.93031609 C38.3188903,7.04588779 38.2152178,7.2251694 38.2152178,7.46816631 C38.2152178,7.68449282 38.278835,7.84080861 38.4060713,7.93711835 C38.5333077,8.0334281 38.688031,8.08158226 38.870246,8.08158226 C39.1592767,8.08158226 39.4255265,8.00157228 39.6690035,7.84154993 C39.9124804,7.68152758 40.0389295,7.38963933 40.0483544,6.96587644 L40.0483544,6.49470187 Z M39.2331034,5.90351114 C39.4812916,5.87387737 39.6587927,5.83683571 39.7656084,5.79238506 C39.9572483,5.71533726 40.0530668,5.59532229 40.0530668,5.43233657 C40.0530668,5.23379031 39.9800248,5.09673619 39.8339387,5.02117008 C39.6878525,4.94560397 39.4734389,4.90782148 39.1906915,4.90782148 C38.873386,4.90782148 38.6487623,4.98190479 38.5168135,5.13007364 C38.4225644,5.23971858 38.3597325,5.3878852 38.3283162,5.57457795 L37.0323969,5.57457795 C37.0606717,5.15081505 37.1863353,4.80262349 37.4093916,4.52999282 C37.7643967,4.10326654 38.3738654,3.88990661 39.2378158,3.88990661 C39.800169,3.88990661 40.299682,3.99510491 40.7363697,4.20550467 C41.1730574,4.41590443 41.3913979,4.81299097 41.3913979,5.39677622 L41.3913979,7.61929777 C41.3913979,7.77339337 41.3945395,7.96008331 41.4008228,8.1793732 C41.4102477,8.34532231 41.4369512,8.45792894 41.4809342,8.51719648 C41.5249171,8.57646402 41.5908905,8.625359 41.6788564,8.6638829 L41.6788564,8.85057471 L40.218002,8.85057471 C40.1771607,8.75278328 40.1488864,8.66091997 40.1331782,8.57498204 C40.11747,8.48904411 40.1049036,8.39125414 40.0954787,8.2816092 C39.9101221,8.47126532 39.6964939,8.63276693 39.4545878,8.76611889 C39.1655571,8.92317787 38.8388316,9.00170618 38.4744016,9.00170618 C38.0094392,9.00170618 37.6253797,8.87650538 37.3222116,8.62610004 C37.0190435,8.37569469 36.8674618,8.02083563 36.8674618,7.56151221 C36.8674618,6.96587346 37.1109351,6.53470859 37.597889,6.26800467 C37.8649282,6.1227992 38.2576271,6.01908257 38.7759973,5.95685165 L39.2331034,5.90351114 Z M44.1010472,3.43651221 L44.1010472,7.71264368 L45.4393783,7.71264368 C46.1242554,7.71264368 46.6017772,7.39408544 46.8719581,6.75695941 C47.0196151,6.40728094 47.0934425,5.99093273 47.0934425,5.5079023 C47.0934425,4.8411425 46.9827014,4.32922682 46.7612159,3.97213991 C46.5397304,3.61505299 46.0991223,3.43651221 45.4393783,3.43651221 L44.1010472,3.43651221 Z M45.6844249,2.29858118 C46.1148293,2.30450793 46.4729706,2.35192125 46.7588597,2.44082256 C47.2458136,2.59195478 47.6400833,2.86902636 47.9416805,3.27204562 C48.1835866,3.59801708 48.3485202,3.95065364 48.436486,4.32996588 C48.5244519,4.70927812 48.5684342,5.07080467 48.5684342,5.41455639 C48.5684342,6.2857892 48.3830803,7.02365897 48.012367,7.62818786 C47.5097049,8.4431165 46.733732,8.85057471 45.6844249,8.85057471 L42.6920296,8.85057471 L42.6920296,2.29858118 L45.6844249,2.29858118 Z M50.7125914,6.8280801 C50.7565744,7.12738117 50.8429681,7.35111276 50.9717753,7.49928161 C51.2073981,7.76894891 51.6110926,7.90378053 52.1828707,7.90378053 C52.5253092,7.90378053 52.80334,7.86822054 53.0169714,7.7970995 C53.4222427,7.66078416 53.6248753,7.40741924 53.6248753,7.03699713 C53.6248753,6.82067061 53.5243444,6.65324233 53.3232796,6.53470726 C53.132268,6.42491414 52.8377712,6.32715743 52.4397811,6.24143448 L51.6409408,6.07242277 C50.9183641,5.91832717 50.4188511,5.75089889 50.142387,5.5701329 C49.6742829,5.26786846 49.4402344,4.79521694 49.4402344,4.15216415 C49.4402344,3.56541553 49.6664289,3.07794734 50.1188248,2.68974497 C50.5712207,2.3015426 51.2356672,2.10744432 52.1121842,2.10744432 C52.8441858,2.10744432 53.468577,2.2904301 53.9853765,2.65640715 C54.502176,3.02238419 54.7731382,3.55356153 54.7982713,4.2499551 L53.403391,4.2499551 C53.3782579,3.85582597 53.1960456,3.57579106 52.8567487,3.40984195 C52.6305507,3.30019701 52.3493783,3.24537536 52.0132231,3.24537536 C51.6393681,3.24537536 51.340917,3.31649534 51.1178607,3.45873743 C50.8948044,3.60097952 50.7832779,3.79952279 50.7832779,4.0543732 C50.7832779,4.27783876 50.8834648,4.4472999 51.0838415,4.56276117 L51.1131483,4.57888829 C51.248867,4.65285418 51.5322436,4.73910853 51.9632861,4.83765375 L53.2148936,5.12118355 C53.7395472,5.23971862 54.1353876,5.39825691 54.4024269,5.59680316 C54.8171231,5.90499436 55.0244681,6.35097589 55.0244681,6.93476114 C55.0244681,7.53336327 54.7817802,8.03046228 54.2963971,8.4260731 C53.811014,8.82168391 53.1253618,9.01948635 52.2394199,9.01948635 C51.3346281,9.01948635 50.6230578,8.82464724 50.1046875,8.43496318 C49.5863172,8.04527912 49.327136,7.50965678 49.327136,6.8280801 L50.7125914,6.8280801 Z M60.0102227,4.38330639 C60.0102227,4.04251805 59.9151896,3.79952479 59.7251205,3.65431932 C59.5350514,3.50911386 59.2688016,3.43651221 58.926363,3.43651221 L57.5738946,3.43651221 L57.5738946,5.36566092 L58.926363,5.36566092 C59.2688016,5.36566092 59.5350514,5.28713261 59.7251205,5.13007364 C59.9151896,4.97301466 60.0102227,4.72409474 60.0102227,4.38330639 Z M61.447515,4.37441631 C61.447515,5.14785767 61.24017,5.69459251 60.8254737,6.01463721 C60.4107775,6.33468192 59.8185876,6.49470187 59.0488863,6.49470187 L57.5738946,6.49470187 L57.5738946,8.85057471 L56.13189,8.85057471 L56.13189,2.29858118 L59.1572723,2.29858118 C59.8547159,2.29858118 60.4107775,2.46749113 60.8254737,2.80531609 C61.24017,3.14314106 61.447515,3.66616923 61.447515,4.37441631 Z" id="KautenjaDSP"></path>
                </g>
            </g>
            <path d="M29.2034121,12.2036133 L30.7434512,12.2036133 L30.2424746,15.0517578 L30.2424746,15.0981445 C30.2424746,15.2032883 30.2795836,15.2960608 30.3538027,15.3764648 C30.4280219,15.4568689 30.5177019,15.4970703 30.6228457,15.4970703 L31.4763613,15.4970703 C31.6124297,15.4970703 31.7361264,15.4537765 31.8474551,15.3671875 C31.9649687,15.2744136 32.0360943,15.1630866 32.060834,15.0332031 L32.3948184,13.1591797 C32.4071882,13.1035153 32.413373,13.0447594 32.413373,12.9829102 C32.413373,12.7708555 32.3315818,12.5042761 32.1679971,12.1831658 L30.4558535,8.97509766 L30.4558535,8.97509766 C30.2208263,8.51122815 30.1033145,8.05664285 30.1033145,7.61132812 L30.1033145,7.52783203 C30.1033145,7.42268828 30.1125917,7.31445368 30.1311465,7.203125 L30.5300723,4.90234375 C30.5919215,4.55598785 30.7650969,4.26839307 31.0496035,4.03955078 C31.3217403,3.81070849 31.6340744,3.69628906 31.9866152,3.69628906 L34.2131777,3.69628906 C34.5347939,3.69628906 34.8131115,3.81380091 35.0481387,4.04882812 C35.2893508,4.28385534 35.4099551,4.57454254 35.4099551,4.92089844 C35.4099551,4.97450114 35.4072063,5.02123126 35.4017086,5.06108939 L34.8069277,8.38134766 L33.248334,8.38134766 L33.7400332,5.63525391 C33.7524031,5.61669913 33.7585879,5.59195979 33.7585879,5.56103516 C33.7585879,5.46826125 33.7183865,5.38167358 33.6379824,5.30126953 C33.5575784,5.23323534 33.4648059,5.19921875 33.3596621,5.19921875 L32.5061465,5.19921875 C32.3700781,5.19921875 32.2494738,5.24251259 32.1443301,5.32910156 C32.0391863,5.40950561 31.9742456,5.51155537 31.9495059,5.63525391 L31.6804629,7.11035156 C31.6619081,7.22168024 31.6526309,7.33609967 31.6526309,7.45361328 C31.6526309,7.88655815 31.794882,8.33495862 32.0793887,8.79882812 L32.7491057,9.90411872 C33.3720279,10.9473337 33.7023346,11.5561127 33.7400332,11.7304688 C33.9008413,12.0273452 33.9812441,12.352049 33.9812441,12.7045898 C33.9750592,12.8653979 33.9565047,13.0354809 33.9255801,13.2148438 L33.4524355,15.784668 C33.3905863,16.1310239 33.2205033,16.4217111 32.9421816,16.6567383 C32.6638599,16.8855806 32.345341,17 31.9866152,17 L29.7693301,17 C29.441529,17 29.1663038,16.8824882 28.9436465,16.6474609 C28.727174,16.4124337 28.6189395,16.1248389 28.6189395,15.784668 L28.6189395,15.5712891 L29.2034121,12.2036133 Z M42.3195723,12.174 L42.3195723,10.236 L37.1135723,10.236 L37.1135723,12.174 L42.3195723,12.174 Z M44.4313926,12.2036133 L45.9714316,12.2036133 L45.4704551,15.0517578 L45.4704551,15.0981445 C45.4704551,15.2032883 45.5075641,15.2960608 45.5817832,15.3764648 C45.6560023,15.4568689 45.7456824,15.4970703 45.8508262,15.4970703 L46.7043418,15.4970703 C46.8404102,15.4970703 46.9641069,15.4537765 47.0754355,15.3671875 C47.1929492,15.2744136 47.2640747,15.1630866 47.2888145,15.0332031 L47.6227988,13.1591797 C47.6351687,13.1035153 47.6413535,13.0447594 47.6413535,12.9829102 C47.6413535,12.7708555 47.5595622,12.5042761 47.3959776,12.1831658 L45.683834,8.97509766 L45.683834,8.97509766 C45.4488068,8.51122815 45.3312949,8.05664285 45.3312949,7.61132812 L45.3312949,7.52783203 C45.3312949,7.42268828 45.3405722,7.31445368 45.359127,7.203125 L45.7580527,4.90234375 C45.819902,4.55598785 45.9930774,4.26839307 46.277584,4.03955078 C46.5497208,3.81070849 46.8620549,3.69628906 47.2145957,3.69628906 L49.4411582,3.69628906 C49.7627744,3.69628906 50.0410919,3.81380091 50.2761191,4.04882812 C50.5173313,4.28385534 50.6379355,4.57454254 50.6379355,4.92089844 C50.6379355,4.97450114 50.6351867,5.02123126 50.629689,5.06108939 L50.0349082,8.38134766 L48.4763145,8.38134766 L48.9680137,5.63525391 C48.9803835,5.61669913 48.9865684,5.59195979 48.9865684,5.56103516 C48.9865684,5.46826125 48.9463669,5.38167358 48.8659629,5.30126953 C48.7855588,5.23323534 48.6927863,5.19921875 48.5876426,5.19921875 L47.734127,5.19921875 C47.5980586,5.19921875 47.4774543,5.24251259 47.3723105,5.32910156 C47.2671668,5.40950561 47.202226,5.51155537 47.1774863,5.63525391 L46.9084434,7.11035156 C46.8898886,7.22168024 46.8806113,7.33609967 46.8806113,7.45361328 C46.8806113,7.88655815 47.0228625,8.33495862 47.3073691,8.79882812 L47.9770861,9.90411872 C48.6000083,10.9473337 48.9303151,11.5561127 48.9680137,11.7304688 C49.1288218,12.0273452 49.2092246,12.352049 49.2092246,12.7045898 C49.2030397,12.8653979 49.1844852,13.0354809 49.1535605,13.2148438 L48.680416,15.784668 C48.6185667,16.1310239 48.4484838,16.4217111 48.1701621,16.6567383 C47.8918404,16.8855806 47.5733215,17 47.2145957,17 L44.9973105,17 C44.6695094,17 44.3942843,16.8824882 44.171627,16.6474609 C43.9551545,16.4124337 43.8469199,16.1248389 43.8469199,15.784668 L43.8469199,15.5712891 L44.4313926,12.2036133 Z M51.9645957,3.69628906 L53.8757285,3.69628906 L53.7736777,13.2797852 L56.9836387,3.69628906 L59.1916465,3.69628906 L56.7795371,17 L55.1745566,17 L56.6496543,8.69677734 L53.8478965,17 L52.4934043,17 L52.5954551,8.59472656 L51.1481895,17 L49.543209,17 L51.9645957,3.69628906 Z M60.3049277,3.69628906 L63.8024863,3.69628906 C64.1302874,3.69628906 64.4116974,3.81689333 64.6467246,4.05810547 C64.8755669,4.28694776 64.9899863,4.5498032 64.9899863,4.84667969 C64.9899863,4.92708374 64.9807091,5.01676383 64.9621543,5.11572266 L64.1086387,9.82861328 C64.0467894,10.1811541 63.8797989,10.4718413 63.6076621,10.7006836 C63.3355253,10.9295259 63.0231912,11.0439453 62.6706504,11.0439453 L60.583248,11.0439453 L59.4977988,17.0092773 L57.8928184,17.0092773 L60.3049277,3.69628906 Z M62.1325645,9.54101562 C62.2686328,9.54101562 62.3892371,9.49772179 62.4943809,9.41113281 C62.5933397,9.33072876 62.655188,9.22558659 62.6799277,9.09570312 L63.3386191,5.63525391 L63.3386191,5.57958984 C63.3386191,5.46826116 63.3015101,5.37548865 63.227291,5.30126953 C63.1530719,5.23323534 63.0633918,5.19921875 62.958248,5.19921875 L61.6315879,5.19921875 L60.824459,9.54101562 L62.1325645,9.54101562 Z M69.5051582,11.87 C69.5051582,9.115 70.2841582,5.847 72.3361582,4.004 C72.3361582,3.833 72.2411582,3.662 72.0131582,3.643 C69.0491582,5.258 67.6621582,8.64 67.6621582,11.87 C67.6621582,15.1 69.0491582,18.482 72.0131582,20.097 C72.2411582,20.078 72.3361582,19.907 72.3361582,19.736 C70.2841582,17.893 69.5051582,14.625 69.5051582,11.87 Z M73.4075059,15.5527344 L75.3186387,4.90234375 C75.3804879,4.55598785 75.5505709,4.26839307 75.8288926,4.03955078 C76.1072143,3.81070849 76.4195484,3.69628906 76.7659043,3.69628906 L79.0202988,3.69628906 C79.341915,3.69628906 79.6171401,3.81380091 79.8459824,4.04882812 C80.0810096,4.28385534 80.1985215,4.57145012 80.1985215,4.91162109 C80.1985215,4.96934708 80.1957727,5.01882604 80.190275,5.06005858 L79.5862168,8.42773438 L78.0461777,8.42773438 L78.5471543,5.63525391 L78.5471543,5.57958984 C78.5471543,5.46826116 78.5100453,5.37548865 78.4358262,5.30126953 C78.3616071,5.23323534 78.2688345,5.19921875 78.1575059,5.19921875 L77.2947129,5.19921875 C77.1648294,5.19921875 77.0442252,5.24251259 76.9328965,5.32910156 C76.8277527,5.40950561 76.762812,5.51155537 76.7380723,5.63525391 L75.0403184,15.0517578 L75.0403184,15.0981445 C75.0403184,15.2032883 75.0774274,15.2960608 75.1516465,15.3764648 C75.2258656,15.4568689 75.3186381,15.4970703 75.4299668,15.4970703 L76.2834824,15.4970703 C76.6050986,15.4970703 76.793736,15.3424495 76.8494004,15.0332031 L77.6101426,10.9697266 L76.7287949,10.9697266 L76.9978379,9.48535156 L79.4192246,9.48535156 L78.268834,15.784668 C78.2069847,16.1310239 78.0338094,16.4217111 77.7493027,16.6567383 C77.470981,16.8855806 77.1555545,17 76.8030137,17 L74.5857285,17 C74.2579274,17 73.9796099,16.8824882 73.7507676,16.6474609 C73.5219253,16.4062488 73.4075059,16.118654 73.4075059,15.784668 L73.4075059,15.5527344 Z M78.8069199,17 L83.1951035,3.69628906 L84.7908066,3.69628906 L84.3733262,17 L82.8611191,17 L82.9724473,14.8105469 L81.1540879,14.8105469 L80.5046738,17 L78.8069199,17 Z M83.046666,13.3076172 L83.343541,7.41650391 L81.5994004,13.3076172 L83.046666,13.3076172 Z M87.5461777,3.69628906 L89.0862168,3.69628906 L87.0452012,15.0703125 L87.0452012,15.1166992 C87.0452012,15.221843 87.0792178,15.3146155 87.147252,15.3950195 C87.227656,15.4754236 87.3204285,15.515625 87.4255723,15.515625 L88.2790879,15.515625 C88.6007041,15.515625 88.7893415,15.3610042 88.8450059,15.0517578 L90.9045762,3.69628906 L92.4817246,3.69628906 L90.2644395,15.8032227 C90.2025902,16.1433936 90.0325073,16.427896 89.7541855,16.6567383 C89.4758638,16.8855806 89.1573449,17 88.7986191,17 L86.5627793,17 C86.247348,17 85.9752153,16.8824882 85.746373,16.6474609 C85.5175308,16.4124337 85.4031113,16.1310238 85.4031113,15.8032227 L85.4031113,15.5712891 L87.5461777,3.69628906 Z M91.9714707,12.2036133 L93.5115098,12.2036133 L93.0105332,15.0517578 L93.0105332,15.0981445 C93.0105332,15.2032883 93.0476422,15.2960608 93.1218613,15.3764648 C93.1960804,15.4568689 93.2857605,15.4970703 93.3909043,15.4970703 L94.2444199,15.4970703 C94.3804883,15.4970703 94.504185,15.4537765 94.6155137,15.3671875 C94.7330273,15.2744136 94.8041529,15.1630866 94.8288926,15.0332031 L95.162877,13.1591797 C95.1752468,13.1035153 95.1814316,13.0447594 95.1814316,12.9829102 C95.1814316,12.7708555 95.0996404,12.5042761 94.9360557,12.1831658 L93.2239121,8.97509766 L93.2239121,8.97509766 C92.9888849,8.51122815 92.871373,8.05664285 92.871373,7.61132812 L92.871373,7.52783203 C92.871373,7.42268828 92.8806503,7.31445368 92.8992051,7.203125 L93.2981309,4.90234375 C93.3599801,4.55598785 93.5331555,4.26839307 93.8176621,4.03955078 C94.0897989,3.81070849 94.402133,3.69628906 94.7546738,3.69628906 L96.9812363,3.69628906 C97.3028525,3.69628906 97.58117,3.81380091 97.8161973,4.04882812 C98.0574094,4.28385534 98.1780137,4.57454254 98.1780137,4.92089844 C98.1780137,4.97450114 98.1752649,5.02123126 98.1697672,5.06108939 L97.5749863,8.38134766 L96.0163926,8.38134766 L96.5080918,5.63525391 C96.5204617,5.61669913 96.5266465,5.59195979 96.5266465,5.56103516 C96.5266465,5.46826125 96.4864451,5.38167358 96.406041,5.30126953 C96.325637,5.23323534 96.2328645,5.19921875 96.1277207,5.19921875 L95.2742051,5.19921875 C95.1381367,5.19921875 95.0175324,5.24251259 94.9123887,5.32910156 C94.8072449,5.40950561 94.7423042,5.51155537 94.7175645,5.63525391 L94.4485215,7.11035156 C94.4299667,7.22168024 94.4206895,7.33609967 94.4206895,7.45361328 C94.4206895,7.88655815 94.5629406,8.33495862 94.8474473,8.79882812 L95.5171643,9.90411872 C96.1400865,10.9473337 96.4703932,11.5561127 96.5080918,11.7304688 C96.6688999,12.0273452 96.7493027,12.352049 96.7493027,12.7045898 C96.7431178,12.8653979 96.7245633,13.0354809 96.6936387,13.2148438 L96.2204941,15.784668 C96.1586449,16.1310239 95.9885619,16.4217111 95.7102402,16.6567383 C95.4319185,16.8855806 95.1133996,17 94.7546738,17 L92.5373887,17 C92.2095876,17 91.9343624,16.8824882 91.7117051,16.6474609 C91.4952326,16.4124337 91.386998,16.1248389 91.386998,15.784668 L91.386998,15.5712891 L91.9714707,12.2036133 Z M97.918248,12.2036133 L99.4582871,12.2036133 L98.9573105,15.0517578 L98.9573105,15.0981445 C98.9573105,15.2032883 98.9944196,15.2960608 99.0686387,15.3764648 C99.1428578,15.4568689 99.2325379,15.4970703 99.3376816,15.4970703 L100.191197,15.4970703 C100.327266,15.4970703 100.450962,15.4537765 100.562291,15.3671875 C100.679805,15.2744136 100.75093,15.1630866 100.77567,15.0332031 L101.109654,13.1591797 C101.122024,13.1035153 101.128209,13.0447594 101.128209,12.9829102 C101.128209,12.7708555 101.046418,12.5042761 100.882833,12.1831658 L99.1706895,8.97509766 L99.1706895,8.97509766 C98.9356622,8.51122815 98.8181504,8.05664285 98.8181504,7.61132812 L98.8181504,7.52783203 C98.8181504,7.42268828 98.8274276,7.31445368 98.8459824,7.203125 L99.2449082,4.90234375 C99.3067575,4.55598785 99.4799328,4.26839307 99.7644395,4.03955078 C100.036576,3.81070849 100.34891,3.69628906 100.701451,3.69628906 L102.928014,3.69628906 C103.24963,3.69628906 103.527947,3.81380091 103.762975,4.04882812 C104.004187,4.28385534 104.124791,4.57454254 104.124791,4.92089844 C104.124791,4.97450114 104.122042,5.02123126 104.116545,5.06108939 L103.521764,8.38134766 L101.96317,8.38134766 L102.454869,5.63525391 C102.467239,5.61669913 102.473424,5.59195979 102.473424,5.56103516 C102.473424,5.46826125 102.433222,5.38167358 102.352818,5.30126953 C102.272414,5.23323534 102.179642,5.19921875 102.074498,5.19921875 L101.220982,5.19921875 C101.084914,5.19921875 100.96431,5.24251259 100.859166,5.32910156 C100.754022,5.40950561 100.689082,5.51155537 100.664342,5.63525391 L100.395299,7.11035156 C100.376744,7.22168024 100.367467,7.33609967 100.367467,7.45361328 C100.367467,7.88655815 100.509718,8.33495862 100.794225,8.79882812 L101.57731,10.0946305 C102.127009,11.0217341 102.419527,11.56701 102.454869,11.7304688 C102.615677,12.0273452 102.69608,12.352049 102.69608,12.7045898 C102.689895,12.8653979 102.671341,13.0354809 102.640416,13.2148438 L102.167271,15.784668 C102.105422,16.1310239 101.935339,16.4217111 101.657018,16.6567383 C101.378696,16.8855806 101.060177,17 100.701451,17 L98.484166,17 C98.1563649,17 97.8811398,16.8824882 97.6584824,16.6474609 C97.44201,16.4124337 97.3337754,16.1248389 97.3337754,15.784668 L97.3337754,15.5712891 L97.918248,12.2036133 Z M108.488408,11.87 C108.488408,8.45 107.443408,5.904 105.562408,3.928 C105.562408,3.738 105.638408,3.662 105.828408,3.643 C108.165408,5.182 109.742408,8.317 109.742408,11.87 C109.742408,15.423 108.165408,18.558 105.828408,20.097 C105.638408,20.078 105.562408,20.002 105.562408,19.812 C107.443408,17.836 108.488408,15.29 108.488408,11.87 Z" id="S-SMP(GAUSS)" fill="#FF5050"></path>
        </g>
        <g id="OUT" transform="translate(20.000000, 305.000000)">
            <g id="OUT-R" transform="translate(44.000000, 0.000000)">
                <rect id="Rectangle" fill="#FF5050" x="0" y="0" width="34" height="45" rx="5"></rect>
                <g id="Port/PJ301M" transform="translate(5.000000, 19.000000)">
                    <g id="PJ301M">
                        <path d="M11.6050278,22.8628611 C5.39619722,22.8628611 0.347222222,17.8139167 0.347222222,11.6050278 C0.347222222,5.39625 5.39619722,0.347222222 11.6050278,0.347222222 C17.81385,0.347222222 22.8628333,5.39625 22.8628333,11.6050278 C22.8628333,17.8139167 17.81385,22.8628611 11.6050278,22.8628611" id="PJ301M_Shadow" fill="#000000" fill-rule="nonzero"></path>
                        <path d="M11.6050278,0.347222222 C17.81385,0.347222222 22.8628333,5.39625 22.8628333,11.6050278 C22.8628333,17.8139167 17.81385,22.8628611 11.6050278,22.8628611 C5.39619722,22.8628611 0.347222222,17.8139167 0.347222222,11.6050278 C0.347222222,5.39625 5.39619722,0.347222222 11.6050278,0.347222222 Z M11.6050278,3.49761111 C7.13406111,3.49761111 3.49756944,7.13408333 3.49756944,11.6050278 C3.49756944,16.076 7.13406111,19.7125556 11.6050278,19.7125556 C16.0759972,19.7125556 19.7124778,16.076 19.7124778,11.6050278 C19.7124778,7.13408333 16.0759972,3.49761111 11.6050278,3.49761111 Z" id="PJ301M_Outer" stroke="#636663" stroke-width="0.25" fill="#E6E6E6" fill-rule="nonzero"></path>
                        <path d="M11.6050278,3.49761111 C16.0759972,3.49761111 19.7124778,7.13408333 19.7124778,11.6050278 C19.7124778,16.076 16.0759972,19.7125556 11.6050278,19.7125556 C7.13406111,19.7125556 3.49756944,16.076 3.49756944,11.6050278 C3.49756944,7.13408333 7.13406111,3.49761111 11.6050278,3.49761111 Z M11.6050278,6.60588889 C8.84511944,6.60588889 6.60580556,8.84513889 6.60580556,11.6050278 C6.60580556,14.3649444 8.84511944,16.6043056 11.6050278,16.6043056 C14.3649278,16.6043056 16.6042417,14.3649444 16.6042417,11.6050278 C16.6042417,8.84513889 14.3649278,6.60588889 11.6050278,6.60588889 Z" id="PJ301M_Inner" stroke="#636663" stroke-width="0.25" fill="#E6E6E6" fill-rule="nonzero"></path>
                    </g>
                </g>
                <path d="M3.71191406,14.8486328 L3.71191406,14.6289062 L5.52246094,4.5390625 C5.58105498,4.21093586 5.74218618,3.93847765 6.00585938,3.72167969 C6.26953257,3.50488173 6.56542805,3.39648438 6.89355469,3.39648438 L9.02929688,3.39648438 C9.3339859,3.39648438 9.59472548,3.50781139 9.81152344,3.73046875 C10.0341808,3.95312611 10.1455078,4.22558433 10.1455078,4.54785156 C10.1455078,4.60253934 10.1429037,4.64941414 10.1376953,4.68847655 L8.31738281,14.8486328 C8.25878877,15.1767595 8.09472791,15.4521473 7.82519531,15.6748047 C7.56152212,15.8916026 7.26269698,16 6.92871094,16 L4.828125,16 C4.51757657,16 4.25390733,15.888673 4.03710938,15.6660156 C3.82031142,15.4374989 3.71191406,15.1650406 3.71191406,14.8486328 Z M5.25878906,14.1542969 L5.25878906,14.1982422 C5.25878906,14.2978521 5.29394496,14.3857418 5.36425781,14.4619141 C5.43457066,14.5380863 5.52246041,14.5761719 5.62792969,14.5761719 L6.43652344,14.5761719 C6.74121246,14.5761719 6.91992161,14.429689 6.97265625,14.1367188 L8.58105469,5.23339844 L8.58105469,5.18066406 C8.58105469,5.07519479 8.54589879,4.98730504 8.47558594,4.91699219 C8.40527309,4.85253874 8.31738334,4.8203125 8.21191406,4.8203125 L7.39453125,4.8203125 C7.27148376,4.8203125 7.15722709,4.86132771 7.05175781,4.94335938 C6.95214794,5.01953163 6.89062512,5.11621035 6.8671875,5.23339844 L5.25878906,14.1542969 Z M11.3935547,3.39648438 L12.8525391,3.39648438 L10.9189453,14.171875 L10.9189453,14.2158203 C10.9189453,14.3154302 10.9511716,14.4033199 11.015625,14.4794922 C11.0917973,14.5556644 11.179687,14.59375 11.2792969,14.59375 L12.0878906,14.59375 C12.3925796,14.59375 12.5712888,14.4472671 12.6240234,14.1542969 L14.5751953,3.39648438 L16.0693359,3.39648438 L13.96875,14.8662109 C13.910156,15.1884782 13.7490248,15.4580067 13.4853516,15.6748047 C13.2216784,15.8916026 12.9199236,16 12.5800781,16 L10.4619141,16 C10.1630844,16 9.90527452,15.888673 9.68847656,15.6660156 C9.4716786,15.4433583 9.36328125,15.1767594 9.36328125,14.8662109 L9.36328125,14.6464844 L11.3935547,3.39648438 Z M15.5859375,16 L17.625,4.8203125 L16.5439453,4.8203125 L16.7988281,3.39648438 L20.4638672,3.39648438 L20.1914062,4.8203125 L19.1455078,4.8203125 L17.1240234,16 L15.5859375,16 Z M30.5888672,3.39648438 C30.8935562,3.39648438 31.1572254,3.50781139 31.3798828,3.73046875 C31.6025402,3.94726671 31.7197265,4.21386561 31.7314453,4.53027344 L31.6962891,4.74121094 L30.9931641,8.71386719 C30.8935542,9.26465119 30.5683621,9.61621018 30.0175781,9.76855469 C30.2226573,9.84472694 30.3779292,9.97949122 30.4833984,10.1728516 C30.5654301,10.3251961 30.6064453,10.4951163 30.6064453,10.6826172 C30.6064453,10.723633 30.6035157,10.7675779 30.5976562,10.8144531 L30.59375,10.9628906 C30.5924479,10.9830729 30.5908203,11.0009765 30.5888672,11.0166016 L29.6748047,16 L28.1279297,16 L29.0507812,10.8408203 L29.0507812,10.796875 C29.0507812,10.6972651 29.0156254,10.612305 28.9453125,10.5419922 C28.8749996,10.4716793 28.7900396,10.4365234 28.6904297,10.4365234 L27.46875,10.4365234 L26.484375,16 L24.9462891,16 L27.2050781,3.39648438 L30.5888672,3.39648438 Z M24.7353516,10.1728516 L24.3925781,11.7988281 L19.9804688,11.7988281 L20.3232422,10.1728516 L24.7353516,10.1728516 Z M29.7011719,4.8203125 L28.4882812,4.8203125 L27.7412109,8.93359375 L28.9628906,8.93359375 C29.0917975,8.93359375 29.2060542,8.88964888 29.3056641,8.80175781 C29.3759769,8.74023407 29.4265138,8.66717549 29.4572754,8.58258077 L29.4814453,8.49414062 L30.0791016,5.23339844 L30.0791016,5.18066406 C30.0791016,5.07519479 30.0439457,4.98730504 29.9736328,4.91699219 C29.8974606,4.85253874 29.8066412,4.8203125 29.7011719,4.8203125 Z" fill="#343633" fill-rule="nonzero"></path>
            </g>
            <g id="OUT-L">
                <rect id="Rectangle" fill="#FFFFFF" x="0" y="0" width="34" height="45" rx="5"></rect>
                <g id="Port/PJ301M" transform="translate(5.000000, 19.000000)">
                    <g id="PJ301M">
                        <path d="M11.6050278,22.8628611 C5.39619722,22.8628611 0.347222222,17.8139167 0.347222222,11.6050278 C0.347222222,5.39625 5.39619722,0.347222222 11.6050278,0.347222222 C17.81385,0.347222222 22.8628333,5.39625 22.8628333,11.6050278 C22.8628333,17.8139167 17.81385,22.8628611 11.6050278,22.8628611" id="PJ301M_Shadow" fill="#000000" fill-rule="nonzero"></path>
                        <path d="M11.6050278,0.347222222 C17.81385,0.347222222 22.8628333,5.39625 22.8628333,11.6050278 C22.8628333,17.8139167 17.81385,22.8628611 11.6050278,22.8628611 C5.39619722,22.8628611 0.347222222,17.8139167 0.347222222,11.6050278 C0.347222222,5.39625 5.39619722,0.347222222 11.6050278,0.347222222 Z M11.6050278,3.49761111 C7.13406111,3.49761111 3.49756944,7.13408333 3.49756944,11.6050278 C3.49756944,16.076 7.13406111,19.7125556 11.6050278,19.7125556 C16.0759972,19.7125556 19.7124778,16.076 19.7124778,11.6050278 C19.7124778,7.13408333 16.0759972,3.49761111 11.6050278,3.49761111 Z" id="PJ301M_Outer" stroke="#636663" stroke-width="0.25" fill="#E6E6E6" fill-rule="nonzero"></path>
                        <path d="M11.6050278,3.49761111 C16.0759972,3.49761111 19.7124778,7.13408333 19.7124778,11.6050278 C19.7124778,16.076 16.0759972,19.7125556 11.6050278,19.7125556 C7.13406111,19.7125556 3.49756944,16.076 3.49756944,11.6050278 C3.49756944,7.13408333 7.13406111,3.49761111 11.6050278,3.49761111 Z M11.6050278,6.60588889 C8.84511944,6.60588889 6.60580556,8.84513889 6.60580556,11.6050278 C6.60580556,14.3649444 8.84511944,16.6043056 11.6050278,16.6043056 C14.3649278,16.6043056 16.6042417,14.3649444 16.6042417,11.6050278 C16.6042417,8.84513889 14.3649278,6.60588889 11.6050278,6.60588889 Z" id="PJ301M_Inner" stroke="#636663" stroke-width="0.25" fill="#E6E6E6" fill-rule="nonzero"></path>
                    </g>
                </g>
                <path d="M4.36669922,14.8486328 L4.36669922,14.6289062 L6.17724609,4.5390625 C6.23584014,4.21093586 6.39697134,3.93847765 6.66064453,3.72167969 C6.92431772,3.50488173 7.2202132,3.39648438 7.54833984,3.39648438 L9.68408203,3.39648438 C9.98877105,3.39648438 10.2495106,3.50781139 10.4663086,3.73046875 C10.688966,3.95312611 10.800293,4.22558433 10.800293,4.54785156 C10.800293,4.60253934 10.7976888,4.64941414 10.7924805,4.68847655 L8.97216797,14.8486328 C8.91357393,15.1767595 8.74951307,15.4521473 8.47998047,15.6748047 C8.21630728,15.8916026 7.91748214,16 7.58349609,16 L5.48291016,16 C5.17236173,16 4.90869249,15.888673 4.69189453,15.6660156 C4.47509657,15.4374989 4.36669922,15.1650406 4.36669922,14.8486328 Z M5.91357422,14.1542969 L5.91357422,14.1982422 C5.91357422,14.2978521 5.94873012,14.3857418 6.01904297,14.4619141 C6.08935582,14.5380863 6.17724557,14.5761719 6.28271484,14.5761719 L7.09130859,14.5761719 C7.39599762,14.5761719 7.57470677,14.429689 7.62744141,14.1367188 L9.23583984,5.23339844 L9.23583984,5.18066406 C9.23583984,5.07519479 9.20068395,4.98730504 9.13037109,4.91699219 C9.06005824,4.85253874 8.9721685,4.8203125 8.86669922,4.8203125 L8.04931641,4.8203125 C7.92626892,4.8203125 7.81201225,4.86132771 7.70654297,4.94335938 C7.6069331,5.01953163 7.54541027,5.11621035 7.52197266,5.23339844 L5.91357422,14.1542969 Z M12.0483398,3.39648438 L13.5073242,3.39648438 L11.5737305,14.171875 L11.5737305,14.2158203 C11.5737305,14.3154302 11.6059567,14.4033199 11.6704102,14.4794922 C11.7465824,14.5556644 11.8344722,14.59375 11.934082,14.59375 L12.7426758,14.59375 C13.0473648,14.59375 13.226074,14.4472671 13.2788086,14.1542969 L15.2299805,3.39648438 L16.7241211,3.39648438 L14.6235352,14.8662109 C14.5649411,15.1884782 14.4038099,15.4580067 14.1401367,15.6748047 C13.8764635,15.8916026 13.5747087,16 13.2348633,16 L11.1166992,16 C10.8178696,16 10.5600597,15.888673 10.3432617,15.6660156 C10.1264638,15.4433583 10.0180664,15.1767594 10.0180664,14.8662109 L10.0180664,14.6464844 L12.0483398,3.39648438 Z M16.2407227,16 L18.2797852,4.8203125 L17.1987305,4.8203125 L17.4536133,3.39648438 L21.1186523,3.39648438 L20.8461914,4.8203125 L19.800293,4.8203125 L17.7788086,16 L16.2407227,16 Z M20.9780273,10.1728516 L25.3901367,10.1728516 L25.0473633,11.7988281 L20.6352539,11.7988281 L20.9780273,10.1728516 Z M27.402832,14.59375 L29.2661133,14.59375 L29.0112305,16 L25.5922852,16 L27.8774414,3.39648438 L29.4067383,3.39648438 L27.402832,14.59375 Z" fill="#343633" fill-rule="nonzero"></path>
            </g>
        </g>
        <g id="VOLUME" transform="translate(20.000000, 193.000000)">
            <g id="MIX-R" transform="translate(44.000000, 0.000000)">
                <path d="M18.0229792,47.0235198 L16.0235198,46.9770208 L15.9537713,49.9762099 L17.9532306,50.0227089 L18.0229792,47.0235198 Z M17.9299811,51.0224386 L15.9305217,50.9759396 L15.8607731,53.9751286 L17.8602325,54.0216277 L17.9299811,51.0224386 Z M17.836983,55.0213574 L15.8375236,54.9748583 L15.767775,57.9740474 L17.7672344,58.0205465 L17.836983,55.0213574 Z M17.7439849,59.0202762 L15.7445255,58.9737771 L15.6747769,61.9729662 L17.6742363,62.0194652 L17.7439849,59.0202762 Z M17.6509868,63.0191949 L15.6515274,62.9726959 L15.5817788,65.9718849 L17.5812382,66.018384 L17.6509868,63.0191949 Z M17.5579887,67.0181137 L15.5585293,66.9716146 L15.4887807,69.9708037 L17.4882401,70.0173028 L17.5579887,67.0181137 Z M17.4649906,71.0170325 L15.4655312,70.9705334 L15.3957826,73.9697225 L17.395242,74.0162216 L17.4649906,71.0170325 Z M17.3719924,75.0159512 L15.3725331,74.9694522 L15.3027845,77.9686413 L17.3022439,78.0151403 L17.3719924,75.0159512 Z M17.2789943,79.01487 L15.2795349,78.968371 L15.2097864,81.96756 L17.2092457,82.0140591 L17.2789943,79.01487 Z M17.1859962,83.0137888 L15.1865368,82.9672897 L15.1167883,85.9664788 L17.1162476,86.0129779 L17.1859962,83.0137888 Z M17.0929981,87.0127076 L15.0935387,86.9662085 L15.0237901,89.9653976 L17.0232495,90.0118966 L17.0929981,87.0127076 Z" id="Line-Copy-2" fill="#FF5050" fill-rule="nonzero"></path>
                <g id="Port/PJ301M" transform="translate(4.000000, 77.000000)">
                    <g id="PJ301M">
                        <path d="M11.6050278,22.8628611 C5.39619722,22.8628611 0.347222222,17.8139167 0.347222222,11.6050278 C0.347222222,5.39625 5.39619722,0.347222222 11.6050278,0.347222222 C17.81385,0.347222222 22.8628333,5.39625 22.8628333,11.6050278 C22.8628333,17.8139167 17.81385,22.8628611 11.6050278,22.8628611" id="PJ301M_Shadow" fill="#000000" fill-rule="nonzero"></path>
                        <path d="M11.6050278,0.347222222 C17.81385,0.347222222 22.8628333,5.39625 22.8628333,11.6050278 C22.8628333,17.8139167 17.81385,22.8628611 11.6050278,22.8628611 C5.39619722,22.8628611 0.347222222,17.8139167 0.347222222,11.6050278 C0.347222222,5.39625 5.39619722,0.347222222 11.6050278,0.347222222 Z M11.6050278,3.49761111 C7.13406111,3.49761111 3.49756944,7.13408333 3.49756944,11.6050278 C3.49756944,16.076 7.13406111,19.7125556 11.6050278,19.7125556 C16.0759972,19.7125556 19.7124778,16.076 19.7124778,11.6050278 C19.7124778,7.13408333 16.0759972,3.49761111 11.6050278,3.49761111 Z" id="PJ301M_Outer" stroke="#636663" stroke-width="0.25" fill="#E6E6E6" fill-rule="nonzero"></path>
                        <path d="M11.6050278,3.49761111 C16.0759972,3.49761111 19.7124778,7.13408333 19.7124778,11.6050278 C19.7124778,16.076 16.0759972,19.7125556 11.6050278,19.7125556 C7.13406111,19.7125556 3.49756944,16.076 3.49756944,11.6050278 C3.49756944,7.13408333 7.13406111,3.49761111 11.6050278,3.49761111 Z M11.6050278,6.60588889 C8.84511944,6.60588889 6.60580556,8.84513889 6.60580556,11.6050278 C6.60580556,14.3649444 8.84511944,16.6043056 11.6050278,16.6043056 C14.3649278,16.6043056 16.6042417,14.3649444 16.6042417,11.6050278 C16.6042417,8.84513889 14.3649278,6.60588889 11.6050278,6.60588889 Z" id="PJ301M_Inner" stroke="#636663" stroke-width="0.25" fill="#E6E6E6" fill-rule="nonzero"></path>
                    </g>
                </g>
                <g id="Knobs/Rogan/2P/Red" transform="translate(0.000000, 28.000000)">
                    <g id="Rogan2PRed">
                        <path d="M34,16.9980594 C34,26.3898091 26.3897769,34 17.0019378,34 C7.61020622,34 0,26.3898091 0,16.9980594 C0,7.61020496 7.61020622,0 17.0019378,0 C26.3897769,0 34,7.61020496 34,16.9980594" id="Rogan2PRed_base" fill="#000000" fill-rule="nonzero"></path>
                        <path d="M31,17 C31,24.7310784 24.7321235,31 17.0022742,31 C9.27240872,31 3,24.7310784 3,17 C3,9.26445358 9.27240872,3 17.0022742,3 C24.7321235,3 31,9.26445358 31,17" id="Rogan2PRed_top_wide" fill="#000000" fill-rule="nonzero"></path>
                        <path d="M29,17 C29,23.6266386 23.6275344,29 17.0019493,29 C10.3763503,29 5,23.6266386 5,17 C5,10.3695316 10.3763503,5 17.0019493,5 C23.6275344,5 29,10.3695316 29,17" id="Rogan2PRed_top" fill="#DA4061" fill-rule="nonzero"></path>
                        <path d="M19,0.113321523 C18.3437511,0.046048111 17.6796928,0 17,0 C16.3242218,0 15.6601607,0.046048111 15,0.113321523 L15,5 L19,5 L19,0.113321523 Z" id="Rogan2PRed_pointer" fill="#DA4061" fill-rule="nonzero"></path>
                    </g>
                </g>
                <path d="M5.29394531,3 L7.10449219,3 L7.0078125,12.0791016 L10.0488281,3 L12.140625,3 L9.85546875,15.6035156 L8.33496094,15.6035156 L9.73242188,7.73730469 L7.078125,15.6035156 L5.79492188,15.6035156 L5.89160156,7.640625 L4.52050781,15.6035156 L3,15.6035156 L5.29394531,3 Z M12.4306641,15.6035156 L10.9101562,15.6035156 L13.2041016,3 L14.7158203,3 L12.4306641,15.6035156 Z M16.2363281,9.22265625 L15.6914062,3 L17.203125,3 L17.5107422,6.45410156 L19.0927734,3 L20.6044922,3 L17.7568359,9.22265625 L18.3193359,15.6035156 L16.7988281,15.6035156 L16.4824219,12 L14.8300781,15.6035156 L13.3095703,15.6035156 L16.2363281,9.22265625 Z M30.84375,3 C31.148439,3 31.4121083,3.11132701 31.6347656,3.33398438 C31.857423,3.55078233 31.9746093,3.81738123 31.9863281,4.13378906 L31.9511719,4.34472656 L31.2480469,8.31738281 C31.148437,8.86816682 30.8232449,9.2197258 30.2724609,9.37207031 C30.4775401,9.44824257 30.632812,9.58300685 30.7382812,9.77636719 C30.8203129,9.9287117 30.8613281,10.0986319 30.8613281,10.2861328 L30.8525391,10.4179688 L30.8486328,10.5664062 C30.8473307,10.5865885 30.8457031,10.6044921 30.84375,10.6201172 L29.9296875,15.6035156 L28.3828125,15.6035156 L29.3056641,10.4443359 L29.3056641,10.4003906 C29.3056641,10.3007808 29.2705082,10.2158207 29.2001953,10.1455078 C29.1298825,10.075195 29.0449224,10.0400391 28.9453125,10.0400391 L27.7236328,10.0400391 L26.7392578,15.6035156 L25.2011719,15.6035156 L27.4599609,3 L30.84375,3 Z M24.9902344,9.77636719 L24.6474609,11.4023438 L20.2353516,11.4023438 L20.578125,9.77636719 L24.9902344,9.77636719 Z M29.9560547,4.42382812 L28.7431641,4.42382812 L27.9960938,8.53710938 L29.2177734,8.53710938 C29.3466803,8.53710938 29.460937,8.4931645 29.5605469,8.40527344 C29.6308597,8.34374969 29.6813966,8.27069111 29.7121582,8.18609639 L29.7363281,8.09765625 L30.3339844,4.83691406 L30.3339844,4.78417969 C30.3339844,4.67871041 30.2988285,4.59082066 30.2285156,4.52050781 C30.1523434,4.45605437 30.061524,4.42382812 29.9560547,4.42382812 Z" fill="#FF5050" fill-rule="nonzero"></path>
            </g>
            <g id="MIX-L">
                <path d="M17.5229792,45.5235198 L15.5235198,45.4770208 L15.4537713,48.4762099 L17.4532306,48.5227089 L17.5229792,45.5235198 Z M17.4299811,49.5224386 L15.4305217,49.4759396 L15.3607731,52.4751286 L17.3602325,52.5216277 L17.4299811,49.5224386 Z M17.336983,53.5213574 L15.3375236,53.4748583 L15.267775,56.4740474 L17.2672344,56.5205465 L17.336983,53.5213574 Z M17.2439849,57.5202762 L15.2445255,57.4737771 L15.1747769,60.4729662 L17.1742363,60.5194652 L17.2439849,57.5202762 Z M17.1509868,61.5191949 L15.1515274,61.4726959 L15.0817788,64.4718849 L17.0812382,64.518384 L17.1509868,61.5191949 Z M17.0579887,65.5181137 L15.0585293,65.4716146 L14.9887807,68.4708037 L16.9882401,68.5173028 L17.0579887,65.5181137 Z M16.9649906,69.5170325 L14.9655312,69.4705334 L14.8957826,72.4697225 L16.895242,72.5162216 L16.9649906,69.5170325 Z M16.8719924,73.5159512 L14.8725331,73.4694522 L14.8027845,76.4686413 L16.8022439,76.5151403 L16.8719924,73.5159512 Z M16.7789943,77.51487 L14.7795349,77.468371 L14.7097864,80.46756 L16.7092457,80.5140591 L16.7789943,77.51487 Z M16.6859962,81.5137888 L14.6865368,81.4672897 L14.6167883,84.4664788 L16.6162476,84.5129779 L16.6859962,81.5137888 Z M16.5929981,85.5127076 L14.5935387,85.4662085 L14.5237901,88.4653976 L16.5232495,88.5118966 L16.5929981,85.5127076 Z" id="Line-Copy" fill="#FFFFFF" fill-rule="nonzero"></path>
                <g id="Port/PJ301M" transform="translate(4.000000, 77.000000)">
                    <g id="PJ301M">
                        <path d="M11.6050278,22.8628611 C5.39619722,22.8628611 0.347222222,17.8139167 0.347222222,11.6050278 C0.347222222,5.39625 5.39619722,0.347222222 11.6050278,0.347222222 C17.81385,0.347222222 22.8628333,5.39625 22.8628333,11.6050278 C22.8628333,17.8139167 17.81385,22.8628611 11.6050278,22.8628611" id="PJ301M_Shadow" fill="#000000" fill-rule="nonzero"></path>
                        <path d="M11.6050278,0.347222222 C17.81385,0.347222222 22.8628333,5.39625 22.8628333,11.6050278 C22.8628333,17.8139167 17.81385,22.8628611 11.6050278,22.8628611 C5.39619722,22.8628611 0.347222222,17.8139167 0.347222222,11.6050278 C0.347222222,5.39625 5.39619722,0.347222222 11.6050278,0.347222222 Z M11.6050278,3.49761111 C7.13406111,3.49761111 3.49756944,7.13408333 3.49756944,11.6050278 C3.49756944,16.076 7.13406111,19.7125556 11.6050278,19.7125556 C16.0759972,19.7125556 19.7124778,16.076 19.7124778,11.6050278 C19.7124778,7.13408333 16.0759972,3.49761111 11.6050278,3.49761111 Z" id="PJ301M_Outer" stroke="#636663" stroke-width="0.25" fill="#E6E6E6" fill-rule="nonzero"></path>
                        <path d="M11.6050278,3.49761111 C16.0759972,3.49761111 19.7124778,7.13408333 19.7124778,11.6050278 C19.7124778,16.076 16.0759972,19.7125556 11.6050278,19.7125556 C7.13406111,19.7125556 3.49756944,16.076 3.49756944,11.6050278 C3.49756944,7.13408333 7.13406111,3.49761111 11.6050278,3.49761111 Z M11.6050278,6.60588889 C8.84511944,6.60588889 6.60580556,8.84513889 6.60580556,11.6050278 C6.60580556,14.3649444 8.84511944,16.6043056 11.6050278,16.6043056 C14.3649278,16.6043056 16.6042417,14.3649444 16.6042417,11.6050278 C16.6042417,8.84513889 14.3649278,6.60588889 11.6050278,6.60588889 Z" id="PJ301M_Inner" stroke="#636663" stroke-width="0.25" fill="#E6E6E6" fill-rule="nonzero"></path>
                    </g>
                </g>
                <g id="Knobs/Rogan/2P/White" transform="translate(0.000000, 28.000000)">
                    <g id="Rogan2PWhite">
                        <path d="M33.5015917,16.7488948 C33.5015917,26.0029662 26.0029274,33.5016 16.7527052,33.5016 C7.49864769,33.5016 0,26.0029662 0,16.7488948 C0,7.498656 7.49864769,8.30769233e-06 16.7527052,8.30769233e-06 C26.0029274,8.30769233e-06 33.5015917,7.498656 33.5015917,16.7488948" id="path7583" fill="#000000" fill-rule="nonzero"></path>
                        <path d="M28.7008948,16.7508 C28.7008948,23.3488523 23.3507852,28.6990338 16.7527357,28.6990338 C10.1546862,28.6990338 4.80068862,23.3488523 4.80068862,16.7508 C4.80068862,10.14894 10.1546862,4.80257169 16.7527357,4.80257169 C23.3507852,4.80257169 28.7008948,10.14894 28.7008948,16.7508" id="path7585" fill="#FFFFFF" fill-rule="nonzero"></path>
                        <path d="M18.7027311,0.122123077 C18.0616265,0.0496246154 17.4128926,0 16.7488865,0 C16.0887018,0 15.4399652,0.0496246154 14.7950391,0.122123077 L14.7950391,5.38834431 L18.7027311,5.38834431 L18.7027311,0.122123077 Z" id="path7587" fill="#FFFFFF" fill-rule="nonzero"></path>
                    </g>
                </g>
                <path d="M6.29394531,3 L8.10449219,3 L8.0078125,12.0791016 L11.0488281,3 L13.140625,3 L10.8554688,15.6035156 L9.33496094,15.6035156 L10.7324219,7.73730469 L8.078125,15.6035156 L6.79492188,15.6035156 L6.89160156,7.640625 L5.52050781,15.6035156 L4,15.6035156 L6.29394531,3 Z M13.4306641,15.6035156 L11.9101562,15.6035156 L14.2041016,3 L15.7158203,3 L13.4306641,15.6035156 Z M17.2363281,9.22265625 L16.6914062,3 L18.203125,3 L18.5107422,6.45410156 L20.0927734,3 L21.6044922,3 L18.7568359,9.22265625 L19.3193359,15.6035156 L17.7988281,15.6035156 L17.4824219,12 L15.8300781,15.6035156 L14.3095703,15.6035156 L17.2363281,9.22265625 Z M21.578125,9.77636719 L25.9902344,9.77636719 L25.6474609,11.4023438 L21.2353516,11.4023438 L21.578125,9.77636719 Z M28.0029297,14.1972656 L29.8662109,14.1972656 L29.6113281,15.6035156 L26.1923828,15.6035156 L28.4775391,3 L30.0068359,3 L28.0029297,14.1972656 Z" fill="#FFFFFF" fill-rule="nonzero"></path>
            </g>
        </g>
        <g id="IN" transform="translate(20.000000, 98.000000)">
            <g id="IN-R" transform="translate(44.000000, 0.000000)">
                <g id="Group-Copy" transform="translate(16.000000, 45.000000)" stroke="#FF5050" stroke-dasharray="0,4" stroke-linecap="square" stroke-width="2">
                    <path d="M0.5,1.42108547e-14 L0.5,21" id="Line"></path>
                </g>
                <rect id="Rectangle" stroke="#FF5050" stroke-width="2" x="0" y="0" width="34" height="45" rx="5"></rect>
                <g id="Knobs/Trimpot" transform="translate(7.000000, 67.000000)">
                    <g id="Trimpot">
                        <path d="M0,9 C0,13.9724363 4.02844882,18 9.00195744,18 C13.9715512,18 18,13.9724363 18,9 C18,4.03149487 13.9715512,0 9.00195744,0 C4.02844882,0 0,4.03149487 0,9" id="path108214" fill="#000000" fill-rule="nonzero"></path>
                        <path d="M10.113935,0.0314553254 C9.911435,0.0157419476 9.708695,0 9.501995,0 C9.295295,0 9.088625,0.0157133778 8.886065,0.0314553254 L8.886065,9 L10.113935,9 L10.113935,0.0314553254 Z" id="path108216" fill="#FFFFFF" fill-rule="nonzero"></path>
                    </g>
                </g>
                <g id="Port/PJ301M" transform="translate(5.000000, 19.000000)">
                    <g id="PJ301M">
                        <path d="M11.6050278,22.8628611 C5.39619722,22.8628611 0.347222222,17.8139167 0.347222222,11.6050278 C0.347222222,5.39625 5.39619722,0.347222222 11.6050278,0.347222222 C17.81385,0.347222222 22.8628333,5.39625 22.8628333,11.6050278 C22.8628333,17.8139167 17.81385,22.8628611 11.6050278,22.8628611" id="PJ301M_Shadow" fill="#000000" fill-rule="nonzero"></path>
                        <path d="M11.6050278,0.347222222 C17.81385,0.347222222 22.8628333,5.39625 22.8628333,11.6050278 C22.8628333,17.8139167 17.81385,22.8628611 11.6050278,22.8628611 C5.39619722,22.8628611 0.347222222,17.8139167 0.347222222,11.6050278 C0.347222222,5.39625 5.39619722,0.347222222 11.6050278,0.347222222 Z M11.6050278,3.49761111 C7.13406111,3.49761111 3.49756944,7.13408333 3.49756944,11.6050278 C3.49756944,16.076 7.13406111,19.7125556 11.6050278,19.7125556 C16.0759972,19.7125556 19.7124778,16.076 19.7124778,11.6050278 C19.7124778,7.13408333 16.0759972,3.49761111 11.6050278,3.49761111 Z" id="PJ301M_Outer" stroke="#636663" stroke-width="0.25" fill="#E6E6E6" fill-rule="nonzero"></path>
                        <path d="M11.6050278,3.49761111 C16.0759972,3.49761111 19.7124778,7.13408333 19.7124778,11.6050278 C19.7124778,16.076 16.0759972,19.7125556 11.6050278,19.7125556 C7.13406111,19.7125556 3.49756944,16.076 3.49756944,11.6050278 C3.49756944,7.13408333 7.13406111,3.49761111 11.6050278,3.49761111 Z M11.6050278,6.60588889 C8.84511944,6.60588889 6.60580556,8.84513889 6.60580556,11.6050278 C6.60580556,14.3649444 8.84511944,16.6043056 11.6050278,16.6043056 C14.3649278,16.6043056 16.6042417,14.3649444 16.6042417,11.6050278 C16.6042417,8.84513889 14.3649278,6.60588889 11.6050278,6.60588889 Z" id="PJ301M_Inner" stroke="#636663" stroke-width="0.25" fill="#E6E6E6" fill-rule="nonzero"></path>
                    </g>
                </g>
                <path d="M8.52050781,15.6035156 L7,15.6035156 L9.29394531,3 L10.8056641,3 L8.52050781,15.6035156 Z M9.57519531,15.6035156 L11.8603516,3 L13.3808594,3 L13.5198931,4.41539213 C13.8842368,8.21895193 14.0664062,10.9551395 14.0664062,12.6240234 L14.0834375,12.2728114 C14.1877081,10.537027 14.6390585,7.44611598 15.4375,3 L16.9580078,3 L14.6728516,15.6035156 L13.1523438,15.6035156 L12.932224,13.3107848 C12.6277974,10.0002551 12.4755859,7.63268011 12.4755859,6.20800781 L12.4592699,6.51022081 C12.3563622,8.07223148 11.9047734,11.1033041 11.1044922,15.6035156 L9.57519531,15.6035156 Z M27.3730469,3 C27.6777359,3 27.9414051,3.11132701 28.1640625,3.33398438 C28.3867199,3.55078233 28.5039062,3.81738123 28.515625,4.13378906 L28.4804688,4.34472656 L27.7773438,8.31738281 C27.6777339,8.86816682 27.3525418,9.2197258 26.8017578,9.37207031 C27.006837,9.44824257 27.1621088,9.58300685 27.2675781,9.77636719 C27.3496098,9.9287117 27.390625,10.0986319 27.390625,10.2861328 C27.390625,10.3271486 27.3876953,10.3710935 27.3818359,10.4179688 L27.3779297,10.5664062 C27.3766276,10.5865885 27.375,10.6044921 27.3730469,10.6201172 L26.4589844,15.6035156 L24.9121094,15.6035156 L25.8349609,10.4443359 L25.8349609,10.4003906 C25.8349609,10.3007808 25.799805,10.2158207 25.7294922,10.1455078 C25.6591793,10.075195 25.5742192,10.0400391 25.4746094,10.0400391 L24.2529297,10.0400391 L23.2685547,15.6035156 L21.7304688,15.6035156 L23.9892578,3 L27.3730469,3 Z M21.5195312,9.77636719 L21.1767578,11.4023438 L16.7646484,11.4023438 L17.1074219,9.77636719 L21.5195312,9.77636719 Z M26.4853516,4.42382812 L25.2724609,4.42382812 L24.5253906,8.53710938 L25.7470703,8.53710938 C25.8759772,8.53710938 25.9902339,8.4931645 26.0898438,8.40527344 C26.1601566,8.34374969 26.2106935,8.27069111 26.2414551,8.18609639 L26.265625,8.09765625 L26.8632812,4.83691406 L26.8632812,4.78417969 C26.8632812,4.67871041 26.8281254,4.59082066 26.7578125,4.52050781 C26.6816402,4.45605437 26.5908208,4.42382812 26.4853516,4.42382812 Z" fill="#FF5050" fill-rule="nonzero"></path>
            </g>
            <g id="IN-L">
                <g id="Group" transform="translate(16.000000, 45.000000)" stroke="#FFFFFF" stroke-dasharray="0,4" stroke-linecap="square" stroke-width="2">
                    <path d="M0.5,0 L0.5,22" id="Line"></path>
                </g>
                <rect id="Rectangle" stroke="#FFFFFF" stroke-width="2" x="0" y="0" width="34" height="45" rx="5"></rect>
                <g id="Knobs/Trimpot" transform="translate(7.000000, 67.000000)">
                    <g id="Trimpot">
                        <path d="M0,9 C0,13.9724363 4.02844882,18 9.00195744,18 C13.9715512,18 18,13.9724363 18,9 C18,4.03149487 13.9715512,0 9.00195744,0 C4.02844882,0 0,4.03149487 0,9" id="path108214" fill="#000000" fill-rule="nonzero"></path>
                        <path d="M10.113935,0.0314553254 C9.911435,0.0157419476 9.708695,0 9.501995,0 C9.295295,0 9.088625,0.0157133778 8.886065,0.0314553254 L8.886065,9 L10.113935,9 L10.113935,0.0314553254 Z" id="path108216" fill="#FFFFFF" fill-rule="nonzero"></path>
                    </g>
                </g>
                <g id="Port/PJ301M" transform="translate(5.000000, 19.000000)">
                    <g id="PJ301M">
                        <path d="M11.6050278,22.8628611 C5.39619722,22.8628611 0.347222222,17.8139167 0.347222222,11.6050278 C0.347222222,5.39625 5.39619722,0.347222222 11.6050278,0.347222222 C17.81385,0.347222222 22.8628333,5.39625 22.8628333,11.6050278 C22.8628333,17.8139167 17.81385,22.8628611 11.6050278,22.8628611" id="PJ301M_Shadow" fill="#000000" fill-rule="nonzero"></path>
                        <path d="M11.6050278,0.347222222 C17.81385,0.347222222 22.8628333,5.39625 22.8628333,11.6050278 C22.8628333,17.8139167 17.81385,22.8628611 11.6050278,22.8628611 C5.39619722,22.8628611 0.347222222,17.8139167 0.347222222,11.6050278 C0.347222222,5.39625 5.39619722,0.347222222 11.6050278,0.347222222 Z M11.6050278,3.49761111 C7.13406111,3.49761111 3.49756944,7.13408333 3.49756944,11.6050278 C3.49756944,16.076 7.13406111,19.7125556 11.6050278,19.7125556 C16.0759972,19.7125556 19.7124778,16.076 19.7124778,11.6050278 C19.7124778,7.13408333 16.0759972,3.49761111 11.6050278,3.49761111 Z" id="PJ301M_Outer" stroke="#636663" stroke-width="0.25" fill="#E6E6E6" fill-rule="nonzero"></path>
                        <path d="M11.6050278,3.49761111 C16.0759972,3.49761111 19.7124778,7.13408333 19.7124778,11.6050278 C19.7124778,16.076 16.0759972,19.7125556 11.6050278,19.7125556 C7.13406111,19.7125556 3.49756944,16.076 3.49756944,11.6050278 C3.49756944,7.13408333 7.13406111,3.49761111 11.6050278,3.49761111 Z M11.6050278,6.60588889 C8.84511944,6.60588889 6.60580556,8.84513889 6.60580556,11.6050278 C6.60580556,14.3649444 8.84511944,16.6043056 11.6050278,16.6043056 C14.3649278,16.6043056 16.6042417,14.3649444 16.6042417,11.6050278 C16.6042417,8.84513889 14.3649278,6.60588889 11.6050278,6.60588889 Z" id="PJ301M_Inner" stroke="#636663" stroke-width="0.25" fill="#E6E6E6" fill-rule="nonzero"></path>
                    </g>
                </g>
                <path d="M9.52050781,15.6035156 L8,15.6035156 L10.2939453,3 L11.8056641,3 L9.52050781,15.6035156 Z M10.5751953,15.6035156 L12.8603516,3 L14.3808594,3 L14.5627399,4.86669592 C14.8985189,8.43613925 15.0664063,11.0218949 15.0664062,12.6240234 L15.0834375,12.2728114 C15.1877081,10.537027 15.6390585,7.44611598 16.4375,3 L17.9580078,3 L15.6728516,15.6035156 L14.1523438,15.6035156 L13.972795,13.7479406 C13.6413209,10.2079136 13.4755859,7.69462239 13.4755859,6.20800781 L13.4592699,6.51022081 C13.3563622,8.07223148 12.9047734,11.1033041 12.1044922,15.6035156 L10.5751953,15.6035156 Z M18.1074219,9.77636719 L22.5195312,9.77636719 L22.1767578,11.4023438 L17.7646484,11.4023438 L18.1074219,9.77636719 Z M24.5322266,14.1972656 L26.3955078,14.1972656 L26.140625,15.6035156 L22.7216797,15.6035156 L25.0068359,3 L26.5361328,3 L24.5322266,14.1972656 Z" fill="#FFFFFF" fill-rule="nonzero"></path>
            </g>
        </g>
        <g id="BRR" transform="translate(3.000000, 24.000000)">
            <path d="M41.8051758,0.982421875 C43.3579179,0.982421875 44.6909124,1.55370522 45.8041992,2.69628906 C46.888189,3.78027886 47.4301758,5.02538359 47.4301758,6.43164062 C47.4301758,6.8125019 47.3862309,7.23730234 47.2983398,7.70605469 L43.6069336,27.5693359 C43.0795872,30.323256 41.4536269,32.0810509 38.7290039,32.8427734 C39.7543997,33.2236347 40.5307591,33.8974561 41.0581055,34.8642578 C41.4682638,35.6259804 41.6733398,36.4755813 41.6733398,37.4130859 C41.6733398,37.6181651 41.6586916,37.8378895 41.6293945,38.0722656 C41.6293945,38.5117209 41.6147462,38.8486316 41.5854492,39.0830078 L38.1137695,58.2431641 C37.8207993,59.9130943 37.0297916,61.2900336 35.7407227,62.3740234 C34.4516537,63.4580132 32.9721763,64 31.3022461,64 L13.8120117,64 L25.237793,0.982421875 L41.8051758,0.982421875 Z M70.6333008,0.982421875 C72.1567459,0.982421875 73.4750921,1.53905693 74.5883789,2.65234375 C75.7016657,3.73633354 76.2875974,5.06932803 76.3461914,6.65136719 L76.2897679,6.96820685 C76.2590243,7.15085967 76.2192385,7.39680835 76.1704102,7.70605469 L72.6547852,27.5693359 C72.1567358,30.323256 70.5307755,32.0810509 67.7768555,32.8427734 C68.8022512,33.2236347 69.5786106,33.8974561 70.105957,34.8642578 C70.5161153,35.6259804 70.7211914,36.4755813 70.7211914,37.4130859 C70.7211914,37.6181651 70.7065431,37.8378895 70.6772461,38.0722656 C70.6772461,38.5117209 70.6625978,38.8486316 70.6333008,39.0830078 L66.0629883,64 L58.3286133,64 L62.9428711,38.2041016 L62.9428711,37.984375 C62.9428711,37.4863256 62.7670916,37.0615252 62.4155273,36.7099609 C62.0639631,36.3583967 61.6391626,36.1826172 61.1411133,36.1826172 L55.0327148,36.1826172 L50.1108398,64 L42.4204102,64 L53.7143555,0.982421875 L70.6333008,0.982421875 Z M99.5493164,0.982421875 C101.072762,0.982421875 102.391108,1.53905693 103.504395,2.65234375 C104.617681,3.73633354 105.203613,5.06932803 105.262207,6.65136719 L105.205784,6.96820685 C105.17504,7.15085967 105.135254,7.39680835 105.086426,7.70605469 L101.570801,27.5693359 C101.072751,30.323256 99.4467911,32.0810509 96.6928711,32.8427734 C97.7182668,33.2236347 98.4946263,33.8974561 99.0219727,34.8642578 C99.432131,35.6259804 99.637207,36.4755813 99.637207,37.4130859 C99.637207,37.6181651 99.6225587,37.8378895 99.5932617,38.0722656 C99.5932617,38.5117209 99.5786134,38.8486316 99.5493164,39.0830078 L94.9790039,64 L87.2446289,64 L91.8588867,38.2041016 L91.8588867,37.984375 C91.8588867,37.4863256 91.6831072,37.0615252 91.331543,36.7099609 C90.9799787,36.3583967 90.5551783,36.1826172 90.0571289,36.1826172 L83.9487305,36.1826172 L79.0268555,64 L71.3364258,64 L82.6303711,0.982421875 L99.5493164,0.982421875 Z M32.5327148,36.1826172 L26.4243164,36.1826172 L22.6889648,56.8808594 L28.753418,56.8808594 C29.3979524,56.8808594 29.9692358,56.6757833 30.4672852,56.265625 C30.9360375,55.8847637 31.2290033,55.3867218 31.3461914,54.7714844 L34.3344727,38.2041016 L34.3344727,37.984375 C34.3344727,37.4863256 34.1586932,37.0615252 33.8071289,36.7099609 C33.4555646,36.3583967 33.0307642,36.1826172 32.5327148,36.1826172 Z M37.8061523,8.1015625 L31.5219727,8.1015625 L27.7866211,28.6679688 L33.8950195,28.6679688 C34.539554,28.6679688 35.1108374,28.4482444 35.6088867,28.0087891 C36.0776391,27.5986308 36.3706049,27.0859406 36.487793,26.4707031 L39.6079102,10.1669922 L39.6079102,9.90332031 C39.6079102,9.37597393 39.4321307,8.9365252 39.0805664,8.58496094 C38.7290021,8.2626937 38.3042017,8.1015625 37.8061523,8.1015625 Z M66.1948242,8.1015625 L60.1303711,8.1015625 L56.3950195,28.6679688 L62.503418,28.6679688 C63.1479524,28.6679688 63.7192358,28.4482444 64.2172852,28.0087891 C64.6860375,27.5986308 64.9790033,27.0859406 65.0961914,26.4707031 L68.0844727,10.1669922 L68.0844727,9.90332031 C68.0844727,9.37597393 67.9086932,8.9365252 67.5571289,8.58496094 C67.1762676,8.2626937 66.7221706,8.1015625 66.1948242,8.1015625 Z M95.1108398,8.1015625 L89.0463867,8.1015625 L85.3110352,28.6679688 L91.4194336,28.6679688 C92.0639681,28.6679688 92.6352514,28.4482444 93.1333008,28.0087891 C93.5499695,27.6442039 93.8277452,27.1986059 93.966634,26.6719842 L94.012207,26.4707031 L97.0004883,10.1669922 L97.0004883,9.90332031 C97.0004883,9.37597393 96.8247088,8.9365252 96.4731445,8.58496094 C96.0922833,8.2626937 95.6381862,8.1015625 95.1108398,8.1015625 Z" fill="#4C4C4C" fill-rule="nonzero"></path>
            <g id="Knobs/Rogan/3P/Blue" transform="translate(54.000000, 11.000000)">
                <g id="Rogan3PBlue">
                    <path d="M43,21.4980051 C43,33.375185 33.3751734,43 21.4979832,43 C9.62481784,43 0,33.375185 0,21.4980051 C0,9.62483539 9.62481784,0 21.4979832,0 C33.3751734,0 43,9.62483539 43,21.4980051" id="path7641" fill="#000000" fill-rule="nonzero"></path>
                    <path d="M36,21.4979931 C36,29.5072878 29.5113056,36 21.4979872,36 C13.4927229,36 7,29.5072878 7,21.4979931 C7,13.4927035 13.4927229,7 21.4979872,7 C29.5113056,7 36,13.4927035 36,21.4979931" id="path7643" fill="#307DEE" fill-rule="nonzero"></path>
                    <path d="M23,0.0992393928 C22.3437511,0.0381668667 21.675781,0 21,0 C20.3242218,0 19.6601607,0.038194564 19,0.0992393928 L19,7 L23,7 L23,0.0992393928 Z" id="path7645" fill="#307DEE" fill-rule="nonzero"></path>
                </g>
            </g>
            <g id="Port/PJ301M" transform="translate(19.000000, 20.000000)">
                <g id="PJ301M">
                    <path d="M11.6050278,22.8628611 C5.39619722,22.8628611 0.347222222,17.8139167 0.347222222,11.6050278 C0.347222222,5.39625 5.39619722,0.347222222 11.6050278,0.347222222 C17.81385,0.347222222 22.8628333,5.39625 22.8628333,11.6050278 C22.8628333,17.8139167 17.81385,22.8628611 11.6050278,22.8628611" id="PJ301M_Shadow" fill="#000000" fill-rule="nonzero"></path>
                    <path d="M11.6050278,0.347222222 C17.81385,0.347222222 22.8628333,5.39625 22.8628333,11.6050278 C22.8628333,17.8139167 17.81385,22.8628611 11.6050278,22.8628611 C5.39619722,22.8628611 0.347222222,17.8139167 0.347222222,11.6050278 C0.347222222,5.39625 5.39619722,0.347222222 11.6050278,0.347222222 Z M11.6050278,3.49761111 C7.13406111,3.49761111 3.49756944,7.13408333 3.49756944,11.6050278 C3.49756944,16.076 7.13406111,19.7125556 11.6050278,19.7125556 C16.0759972,19.7125556 19.7124778,16.076 19.7124778,11.6050278 C19.7124778,7.13408333 16.0759972,3.49761111 11.6050278,3.49761111 Z" id="PJ301M_Outer" stroke="#636663" stroke-width="0.25" fill="#E6E6E6" fill-rule="nonzero"></path>
                    <path d="M11.6050278,3.49761111 C16.0759972,3.49761111 19.7124778,7.13408333 19.7124778,11.6050278 C19.7124778,16.076 16.0759972,19.7125556 11.6050278,19.7125556 C7.13406111,19.7125556 3.49756944,16.076 3.49756944,11.6050278 C3.49756944,7.13408333 7.13406111,3.49761111 11.6050278,3.49761111 Z M11.6050278,6.60588889 C8.84511944,6.60588889 6.60580556,8.84513889 6.60580556,11.6050278 C6.60580556,14.3649444 8.84511944,16.6043056 11.6050278,16.6043056 C14.3649278,16.6043056 16.6042417,14.3649444 16.6042417,11.6050278 C16.6042417,8.84513889 14.3649278,6.60588889 11.6050278,6.60588889 Z" id="PJ301M_Inner" stroke="#636663" stroke-width="0.25" fill="#E6E6E6" fill-rule="nonzero"></path>
                </g>
            </g>
        </g>
        <g id="screws" transform="translate(10.000000, 0.000000)">
            <g id="Screw/Black">
                <g id="ScrewBlack" transform="translate(1.000000, 0.250000)">
                    <g id="g18785" transform="translate(6.654193, 7.249651) scale(-1, 1) rotate(-180.000000) translate(-6.654193, -7.249651) translate(0.154193, 0.749651)" fill-rule="nonzero">
                        <path d="M6.12533375,0.47117867 C2.81671117,0.47117867 0.125333752,3.16160888 0.125333752,6.4702255 C0.125333752,9.77884212 2.81671117,12.4702147 6.12533375,12.4702147 C9.43395636,12.4702147 12.1253338,9.77884212 12.1253338,6.4702255 C12.1253338,3.16160888 9.43395636,0.47117867 6.12533375,0.47117867" id="ScrewBlack_shadow" fill="#000000"></path>
                        <path d="M6.12533375,0.47117867 C9.43395636,0.47117867 12.1253338,3.16160888 12.1253338,6.4702255 C12.1253338,9.77884212 9.43395636,12.4702147 6.12533375,12.4702147 C2.81671117,12.4702147 0.125333752,9.77884212 0.125333752,6.4702255 C0.125333752,3.16160888 2.81671117,0.47117867 6.12533375,0.47117867 Z M6.86131618,2.58300147 L5.38935136,2.58300147 L5.38933375,5.73417867 L2.23810272,5.73424442 L2.23810272,7.20620658 L5.38933375,7.20617867 L5.38935136,10.3574495 L6.86131618,10.3574495 L6.86033375,7.20617867 L10.0125648,7.20620658 L10.0125648,5.73424442 L6.86033375,5.73417867 L6.86131618,2.58300147 Z" id="ScrewBlack_head" fill="#4C4C4C"></path>
                        <path d="M6.12533375,0.47117867 C2.81671117,0.47117867 0.125333752,3.16160888 0.125333752,6.4702255 C0.125333752,9.77884212 2.81671117,12.4702147 6.12533375,12.4702147 C9.43395636,12.4702147 12.1253338,9.77884212 12.1253338,6.4702255 C12.1253338,3.16160888 9.43395636,0.47117867 6.12533375,0.47117867" id="ScrewBlack_head_border" stroke="#222222" stroke-width="1.88976383"></path>
                    </g>
                </g>
            </g>
            <g id="Screw/Black" transform="translate(85.000000, 365.000000)">
                <g id="ScrewBlack" transform="translate(1.000000, 0.250000)">
                    <g id="g18785" transform="translate(6.654193, 7.249651) scale(-1, 1) rotate(-180.000000) translate(-6.654193, -7.249651) translate(0.154193, 0.749651)" fill-rule="nonzero">
                        <path d="M6.12533375,0.47117867 C2.81671117,0.47117867 0.125333752,3.16160888 0.125333752,6.4702255 C0.125333752,9.77884212 2.81671117,12.4702147 6.12533375,12.4702147 C9.43395636,12.4702147 12.1253338,9.77884212 12.1253338,6.4702255 C12.1253338,3.16160888 9.43395636,0.47117867 6.12533375,0.47117867" id="ScrewBlack_shadow" fill="#000000"></path>
                        <path d="M6.12533375,0.47117867 C9.43395636,0.47117867 12.1253338,3.16160888 12.1253338,6.4702255 C12.1253338,9.77884212 9.43395636,12.4702147 6.12533375,12.4702147 C2.81671117,12.4702147 0.125333752,9.77884212 0.125333752,6.4702255 C0.125333752,3.16160888 2.81671117,0.47117867 6.12533375,0.47117867 Z M6.86131618,2.58300147 L5.38935136,2.58300147 L5.38933375,5.73417867 L2.23810272,5.73424442 L2.23810272,7.20620658 L5.38933375,7.20617867 L5.38935136,10.3574495 L6.86131618,10.3574495 L6.86033375,7.20617867 L10.0125648,7.20620658 L10.0125648,5.73424442 L6.86033375,5.73417867 L6.86131618,2.58300147 Z" id="ScrewBlack_head" fill="#4C4C4C"></path>
                        <path d="M6.12533375,0.47117867 C2.81671117,0.47117867 0.125333752,3.16160888 0.125333752,6.4702255 C0.125333752,9.77884212 2.81671117,12.4702147 6.12533375,12.4702147 C9.43395636,12.4702147 12.1253338,9.77884212 12.1253338,6.4702255 C12.1253338,3.16160888 9.43395636,0.47117867 6.12533375,0.47117867" id="ScrewBlack_head_border" stroke="#222222" stroke-width="1.88976383"></path>
                    </g>
                </g>
            </g>
        </g>
    </g>
</svg>