<?xml version='1.0' encoding='utf-8'?>
<svg xmlns="http://www.w3.org/2000/svg" width="510px" height="380px" viewBox="0 0 510 380" version="1.1">

    <title>Octal 163 - light</title>
    <desc>Created with Sketch.</desc>
    <g id="NameCorpOctalWaveGenerator" stroke="none" stroke-width="1" fill="none" fill-rule="evenodd">
        <g id="bg">
            <rect fill="#E4EEE8" x="0" y="0" width="510" height="380" rx="2" />


</g>
        <g id="control" transform="translate(161.000000, 23.000000)">
            <g id="output" transform="translate(59.000000, 280.000000)" fill="#1F342D">
                <rect id="background" x="0" y="0" width="278" height="38" rx="5" fill="#191B1E" />
            </g>
            <g id="amplifier" transform="translate(63.000000, 233.000000)" fill="#1F342D" fill-rule="nonzero">
                <g id="normal" transform="translate(17.000000, 29.000000)">
                    <path d="M0.5,1 L1.5,1 C1.77614237,1 2,0.776142375 2,0.5 C2,0.223857625 1.77614237,0 1.5,0 L0.5,0 C0.223857625,0 0,0.223857625 0,0.5 C0,0.776142375 0.223857625,1 0.5,1 Z M5.5,1 L6.5,1 C6.77614237,1 7,0.776142375 7,0.5 C7,0.223857625 6.77614237,0 6.5,0 L5.5,0 C5.22385763,0 5,0.223857625 5,0.5 C5,0.776142375 5.22385763,1 5.5,1 Z M10.5,1 L11.5,1 C11.7761424,1 12,0.776142375 12,0.5 C12,0.223857625 11.7761424,0 11.5,0 L10.5,0 C10.2238576,0 10,0.223857625 10,0.5 C10,0.776142375 10.2238576,1 10.5,1 Z M15.5,1 L16.5,1 C16.7761424,1 17,0.776142375 17,0.5 C17,0.223857625 16.7761424,0 16.5,0 L15.5,0 C15.2238576,0 15,0.223857625 15,0.5 C15,0.776142375 15.2238576,1 15.5,1 Z M20.5,1 L21.5,1 C21.7761424,1 22,0.776142375 22,0.5 C22,0.223857625 21.7761424,0 21.5,0 L20.5,0 C20.2238576,0 20,0.223857625 20,0.5 C20,0.776142375 20.2238576,1 20.5,1 Z M25.5,1 L26.5,1 C26.7761424,1 27,0.776142375 27,0.5 C27,0.223857625 26.7761424,0 26.5,0 L25.5,0 C25.2238576,0 25,0.223857625 25,0.5 C25,0.776142375 25.2238576,1 25.5,1 Z M30.5,1 L31.5,1 C31.7761424,1 32,0.776142375 32,0.5 C32,0.223857625 31.7761424,0 31.5,0 L30.5,0 C30.2238576,0 30,0.223857625 30,0.5 C30,0.776142375 30.2238576,1 30.5,1 Z M35.5,1 L36.5,1 C36.7761424,1 37,0.776142375 37,0.5 C37,0.223857625 36.7761424,0 36.5,0 L35.5,0 C35.2238576,0 35,0.223857625 35,0.5 C35,0.776142375 35.2238576,1 35.5,1 Z M40.5,1 L41.5,1 C41.7761424,1 42,0.776142375 42,0.5 C42,0.223857625 41.7761424,0 41.5,0 L40.5,0 C40.2238576,0 40,0.223857625 40,0.5 C40,0.776142375 40.2238576,1 40.5,1 Z M45.5,1 L46.5,1 C46.7761424,1 47,0.776142375 47,0.5 C47,0.223857625 46.7761424,0 46.5,0 L45.5,0 C45.2238576,0 45,0.223857625 45,0.5 C45,0.776142375 45.2238576,1 45.5,1 Z M50.5,1 L51.5,1 C51.7761424,1 52,0.776142375 52,0.5 C52,0.223857625 51.7761424,0 51.5,0 L50.5,0 C50.2238576,0 50,0.223857625 50,0.5 C50,0.776142375 50.2238576,1 50.5,1 Z M55.5,1 L56.5,1 C56.7761424,1 57,0.776142375 57,0.5 C57,0.223857625 56.7761424,0 56.5,0 L55.5,0 C55.2238576,0 55,0.223857625 55,0.5 C55,0.776142375 55.2238576,1 55.5,1 Z M60.5,1 L61.5,1 C61.7761424,1 62,0.776142375 62,0.5 C62,0.223857625 61.7761424,0 61.5,0 L60.5,0 C60.2238576,0 60,0.223857625 60,0.5 C60,0.776142375 60.2238576,1 60.5,1 Z M65.5,1 L66.5,1 C66.7761424,1 67,0.776142375 67,0.5 C67,0.223857625 66.7761424,0 66.5,0 L65.5,0 C65.2238576,0 65,0.223857625 65,0.5 C65,0.776142375 65.2238576,1 65.5,1 Z M70.5,1 L71.5,1 C71.7761424,1 72,0.776142375 72,0.5 C72,0.223857625 71.7761424,0 71.5,0 L70.5,0 C70.2238576,0 70,0.223857625 70,0.5 C70,0.776142375 70.2238576,1 70.5,1 Z M75.5,1 L76.5,1 C76.7761424,1 77,0.776142375 77,0.5 C77,0.223857625 76.7761424,0 76.5,0 L75.5,0 C75.2238576,0 75,0.223857625 75,0.5 C75,0.776142375 75.2238576,1 75.5,1 Z M80.5,1 L81.5,1 C81.7761424,1 82,0.776142375 82,0.5 C82,0.223857625 81.7761424,0 81.5,0 L80.5,0 C80.2238576,0 80,0.223857625 80,0.5 C80,0.776142375 80.2238576,1 80.5,1 Z M85.5,1 L86.5,1 C86.7761424,1 87,0.776142375 87,0.5 C87,0.223857625 86.7761424,0 86.5,0 L85.5,0 C85.2238576,0 85,0.223857625 85,0.5 C85,0.776142375 85.2238576,1 85.5,1 Z M90.5,1 L91.5,1 C91.7761424,1 92,0.776142375 92,0.5 C92,0.223857625 91.7761424,0 91.5,0 L90.5,0 C90.2238576,0 90,0.223857625 90,0.5 C90,0.776142375 90.2238576,1 90.5,1 Z M95.5,1 L96.5,1 C96.7761424,1 97,0.776142375 97,0.5 C97,0.223857625 96.7761424,0 96.5,0 L95.5,0 C95.2238576,0 95,0.223857625 95,0.5 C95,0.776142375 95.2238576,1 95.5,1 Z M100.5,1 L101.5,1 C101.776142,1 102,0.776142375 102,0.5 C102,0.223857625 101.776142,0 101.5,0 L100.5,0 C100.223858,0 100,0.223857625 100,0.5 C100,0.776142375 100.223858,1 100.5,1 Z M105.5,1 L106.5,1 C106.776142,1 107,0.776142375 107,0.5 C107,0.223857625 106.776142,0 106.5,0 L105.5,0 C105.223858,0 105,0.223857625 105,0.5 C105,0.776142375 105.223858,1 105.5,1 Z M110.5,1 L111.5,1 C111.776142,1 112,0.776142375 112,0.5 C112,0.223857625 111.776142,0 111.5,0 L110.5,0 C110.223858,0 110,0.223857625 110,0.5 C110,0.776142375 110.223858,1 110.5,1 Z M115.5,1 L116.5,1 C116.776142,1 117,0.776142375 117,0.5 C117,0.223857625 116.776142,0 116.5,0 L115.5,0 C115.223858,0 115,0.223857625 115,0.5 C115,0.776142375 115.223858,1 115.5,1 Z M120.5,1 L121.5,1 C121.776142,1 122,0.776142375 122,0.5 C122,0.223857625 121.776142,0 121.5,0 L120.5,0 C120.223858,0 120,0.223857625 120,0.5 C120,0.776142375 120.223858,1 120.5,1 Z M125.5,1 L126.5,1 C126.776142,1 127,0.776142375 127,0.5 C127,0.223857625 126.776142,0 126.5,0 L125.5,0 C125.223858,0 125,0.223857625 125,0.5 C125,0.776142375 125.223858,1 125.5,1 Z M130.5,1 L131.5,1 C131.776142,1 132,0.776142375 132,0.5 C132,0.223857625 131.776142,0 131.5,0 L130.5,0 C130.223858,0 130,0.223857625 130,0.5 C130,0.776142375 130.223858,1 130.5,1 Z M135.5,1 L136.5,1 C136.776142,1 137,0.776142375 137,0.5 C137,0.223857625 136.776142,0 136.5,0 L135.5,0 C135.223858,0 135,0.223857625 135,0.5 C135,0.776142375 135.223858,1 135.5,1 Z M140.5,1 L141.5,1 C141.776142,1 142,0.776142375 142,0.5 C142,0.223857625 141.776142,0 141.5,0 L140.5,0 C140.223858,0 140,0.223857625 140,0.5 C140,0.776142375 140.223858,1 140.5,1 Z M145.5,1 L146.5,1 C146.776142,1 147,0.776142375 147,0.5 C147,0.223857625 146.776142,0 146.5,0 L145.5,0 C145.223858,0 145,0.223857625 145,0.5 C145,0.776142375 145.223858,1 145.5,1 Z M150.5,1 L151.5,1 C151.776142,1 152,0.776142375 152,0.5 C152,0.223857625 151.776142,0 151.5,0 L150.5,0 C150.223858,0 150,0.223857625 150,0.5 C150,0.776142375 150.223858,1 150.5,1 Z M155.5,1 L156.5,1 C156.776142,1 157,0.776142375 157,0.5 C157,0.223857625 156.776142,0 156.5,0 L155.5,0 C155.223858,0 155,0.223857625 155,0.5 C155,0.776142375 155.223858,1 155.5,1 Z M160.5,1 L161.5,1 C161.776142,1 162,0.776142375 162,0.5 C162,0.223857625 161.776142,0 161.5,0 L160.5,0 C160.223858,0 160,0.223857625 160,0.5 C160,0.776142375 160.223858,1 160.5,1 Z M165.5,1 L166.5,1 C166.776142,1 167,0.776142375 167,0.5 C167,0.223857625 166.776142,0 166.5,0 L165.5,0 C165.223858,0 165,0.223857625 165,0.5 C165,0.776142375 165.223858,1 165.5,1 Z M170.5,1 L171.5,1 C171.776142,1 172,0.776142375 172,0.5 C172,0.223857625 171.776142,0 171.5,0 L170.5,0 C170.223858,0 170,0.223857625 170,0.5 C170,0.776142375 170.223858,1 170.5,1 Z M175.5,1 L176.5,1 C176.776142,1 177,0.776142375 177,0.5 C177,0.223857625 176.776142,0 176.5,0 L175.5,0 C175.223858,0 175,0.223857625 175,0.5 C175,0.776142375 175.223858,1 175.5,1 Z M180.5,1 L181.5,1 C181.776142,1 182,0.776142375 182,0.5 C182,0.223857625 181.776142,0 181.5,0 L180.5,0 C180.223858,0 180,0.223857625 180,0.5 C180,0.776142375 180.223858,1 180.5,1 Z M185.5,1 L186.5,1 C186.776142,1 187,0.776142375 187,0.5 C187,0.223857625 186.776142,0 186.5,0 L185.5,0 C185.223858,0 185,0.223857625 185,0.5 C185,0.776142375 185.223858,1 185.5,1 Z M190.5,1 L191.5,1 C191.776142,1 192,0.776142375 192,0.5 C192,0.223857625 191.776142,0 191.5,0 L190.5,0 C190.223858,0 190,0.223857625 190,0.5 C190,0.776142375 190.223858,1 190.5,1 Z M195.5,1 L196.5,1 C196.776142,1 197,0.776142375 197,0.5 C197,0.223857625 196.776142,0 196.5,0 L195.5,0 C195.223858,0 195,0.223857625 195,0.5 C195,0.776142375 195.223858,1 195.5,1 Z M200.5,1 L201.5,1 C201.776142,1 202,0.776142375 202,0.5 C202,0.223857625 201.776142,0 201.5,0 L200.5,0 C200.223858,0 200,0.223857625 200,0.5 C200,0.776142375 200.223858,1 200.5,1 Z M205.5,1 L206.5,1 C206.776142,1 207,0.776142375 207,0.5 C207,0.223857625 206.776142,0 206.5,0 L205.5,0 C205.223858,0 205,0.223857625 205,0.5 C205,0.776142375 205.223858,1 205.5,1 Z M210.5,1 L211.5,1 C211.776142,1 212,0.776142375 212,0.5 C212,0.223857625 211.776142,0 211.5,0 L210.5,0 C210.223858,0 210,0.223857625 210,0.5 C210,0.776142375 210.223858,1 210.5,1 Z M215.5,1 L216.5,1 C216.776142,1 217,0.776142375 217,0.5 C217,0.223857625 216.776142,0 216.5,0 L215.5,0 C215.223858,0 215,0.223857625 215,0.5 C215,0.776142375 215.223858,1 215.5,1 Z M220.5,1 L221.5,1 C221.776142,1 222,0.776142375 222,0.5 C222,0.223857625 221.776142,0 221.5,0 L220.5,0 C220.223858,0 220,0.223857625 220,0.5 C220,0.776142375 220.223858,1 220.5,1 Z M225.5,1 L226.5,1 C226.776142,1 227,0.776142375 227,0.5 C227,0.223857625 226.776142,0 226.5,0 L225.5,0 C225.223858,0 225,0.223857625 225,0.5 C225,0.776142375 225.223858,1 225.5,1 Z M230.5,1 L231.5,1 C231.776142,1 232,0.776142375 232,0.5 C232,0.223857625 231.776142,0 231.5,0 L230.5,0 C230.223858,0 230,0.223857625 230,0.5 C230,0.776142375 230.223858,1 230.5,1 Z M235.5,1 L236.5,1 C236.776142,1 237,0.776142375 237,0.5 C237,0.223857625 236.776142,0 236.5,0 L235.5,0 C235.223858,0 235,0.223857625 235,0.5 C235,0.776142375 235.223858,1 235.5,1 Z M240.5,1 L241.5,1 C241.776142,1 242,0.776142375 242,0.5 C242,0.223857625 241.776142,0 241.5,0 L240.5,0 C240.223858,0 240,0.223857625 240,0.5 C240,0.776142375 240.223858,1 240.5,1 Z" />
                </g>
                <g id="lines" transform="translate(0.000000, 8.500000)">
                    <path d="M270.999004,0 C271.275146,0 271.499004,0.223857625 271.499004,0.5 C271.499004,0.745459889 271.322129,0.94960837 271.08888,0.991944331 L270.999004,1 L151,1 C150.723858,1 150.5,0.776142375 150.5,0.5 C150.5,0.254540111 150.676875,0.0503916296 150.910124,0.00805566941 L151,0 L270.999004,0 Z" id="line" />
                    <path d="M121,0 C121.276142,0 121.5,0.223857625 121.5,0.5 C121.5,0.745459889 121.323125,0.94960837 121.089876,0.991944331 L121,1 L1,1 C0.723857625,1 0.5,0.776142375 0.5,0.5 C0.5,0.254540111 0.676875161,0.0503916296 0.910124368,0.00805566941 L1,0 L121,0 Z" id="line" />
                </g>
                <g id="text" transform="translate(124.000000, 0.000000)">
                    <path d="M7.87109375,9.09619141 L9.66552734,4.08544922 L8.59228516,4.08544922 L7.36523438,7.79394531 L6.09716797,4.08544922 L5,4.08544922 L6.79101562,9.09619141 L7.87109375,9.09619141 Z M12.2871094,9.18164062 C12.8248698,9.18164062 13.2686361,9.04890951 13.6184082,8.78344727 C13.9681803,8.51798503 14.2182617,8.11181641 14.3686523,7.56494141 L14.3686523,7.56494141 L13.3876953,7.25390625 C13.3033854,7.62076823 13.164388,7.88964844 12.9707031,8.06054688 C12.7770182,8.23144531 12.5457357,8.31689453 12.2768555,8.31689453 C11.9122721,8.31689453 11.6160482,8.18245443 11.3881836,7.91357422 C11.160319,7.64469401 11.0463867,7.19352214 11.0463867,6.56005859 C11.0463867,5.96305339 11.162028,5.53125 11.3933105,5.26464844 C11.6245931,4.99804688 11.925944,4.86474609 12.2973633,4.86474609 C12.5662435,4.86474609 12.7946777,4.93994141 12.982666,5.09033203 C13.1706543,5.24072266 13.2942708,5.44580078 13.3535156,5.70556641 L13.3535156,5.70556641 L14.3549805,5.46630859 C14.2410482,5.06526693 14.0701497,4.75764974 13.8422852,4.54345703 C13.4594727,4.18115234 12.9615885,4 12.3486328,4 C11.6468099,4 11.0805664,4.23071289 10.6499023,4.69213867 C10.2192383,5.15356445 10.0039062,5.80126953 10.0039062,6.63525391 C10.0039062,7.42366536 10.218099,8.04516602 10.6464844,8.49975586 C11.0748698,8.9543457 11.6217448,9.18164062 12.2871094,9.18164062 Z M15.8007812,9.09619141 L16.2143555,7.95800781 L18.2172852,7.95800781 L18.6547852,9.09619141 L19.7553711,9.09619141 L17.7490234,4.08544922 L16.6791992,4.08544922 L14.7275391,9.09619141 L15.8007812,9.09619141 Z M17.8925781,7.11376953 L16.5253906,7.11376953 L17.2021484,5.25439453 L17.8925781,7.11376953 Z" id="VCA" />
                </g>
            </g>
            <g id="fm" transform="translate(63.000000, 190.000000)" fill="#1F342D" fill-rule="nonzero">
                <g id="normal" transform="translate(17.000000, 29.000000)">
                    <path d="M0.5,1 L1.5,1 C1.77614237,1 2,0.776142375 2,0.5 C2,0.223857625 1.77614237,0 1.5,0 L0.5,0 C0.223857625,0 0,0.223857625 0,0.5 C0,0.776142375 0.223857625,1 0.5,1 Z M5.5,1 L6.5,1 C6.77614237,1 7,0.776142375 7,0.5 C7,0.223857625 6.77614237,0 6.5,0 L5.5,0 C5.22385763,0 5,0.223857625 5,0.5 C5,0.776142375 5.22385763,1 5.5,1 Z M10.5,1 L11.5,1 C11.7761424,1 12,0.776142375 12,0.5 C12,0.223857625 11.7761424,0 11.5,0 L10.5,0 C10.2238576,0 10,0.223857625 10,0.5 C10,0.776142375 10.2238576,1 10.5,1 Z M15.5,1 L16.5,1 C16.7761424,1 17,0.776142375 17,0.5 C17,0.223857625 16.7761424,0 16.5,0 L15.5,0 C15.2238576,0 15,0.223857625 15,0.5 C15,0.776142375 15.2238576,1 15.5,1 Z M20.5,1 L21.5,1 C21.7761424,1 22,0.776142375 22,0.5 C22,0.223857625 21.7761424,0 21.5,0 L20.5,0 C20.2238576,0 20,0.223857625 20,0.5 C20,0.776142375 20.2238576,1 20.5,1 Z M25.5,1 L26.5,1 C26.7761424,1 27,0.776142375 27,0.5 C27,0.223857625 26.7761424,0 26.5,0 L25.5,0 C25.2238576,0 25,0.223857625 25,0.5 C25,0.776142375 25.2238576,1 25.5,1 Z M30.5,1 L31.5,1 C31.7761424,1 32,0.776142375 32,0.5 C32,0.223857625 31.7761424,0 31.5,0 L30.5,0 C30.2238576,0 30,0.223857625 30,0.5 C30,0.776142375 30.2238576,1 30.5,1 Z M35.5,1 L36.5,1 C36.7761424,1 37,0.776142375 37,0.5 C37,0.223857625 36.7761424,0 36.5,0 L35.5,0 C35.2238576,0 35,0.223857625 35,0.5 C35,0.776142375 35.2238576,1 35.5,1 Z M40.5,1 L41.5,1 C41.7761424,1 42,0.776142375 42,0.5 C42,0.223857625 41.7761424,0 41.5,0 L40.5,0 C40.2238576,0 40,0.223857625 40,0.5 C40,0.776142375 40.2238576,1 40.5,1 Z M45.5,1 L46.5,1 C46.7761424,1 47,0.776142375 47,0.5 C47,0.223857625 46.7761424,0 46.5,0 L45.5,0 C45.2238576,0 45,0.223857625 45,0.5 C45,0.776142375 45.2238576,1 45.5,1 Z M50.5,1 L51.5,1 C51.7761424,1 52,0.776142375 52,0.5 C52,0.223857625 51.7761424,0 51.5,0 L50.5,0 C50.2238576,0 50,0.223857625 50,0.5 C50,0.776142375 50.2238576,1 50.5,1 Z M55.5,1 L56.5,1 C56.7761424,1 57,0.776142375 57,0.5 C57,0.223857625 56.7761424,0 56.5,0 L55.5,0 C55.2238576,0 55,0.223857625 55,0.5 C55,0.776142375 55.2238576,1 55.5,1 Z M60.5,1 L61.5,1 C61.7761424,1 62,0.776142375 62,0.5 C62,0.223857625 61.7761424,0 61.5,0 L60.5,0 C60.2238576,0 60,0.223857625 60,0.5 C60,0.776142375 60.2238576,1 60.5,1 Z M65.5,1 L66.5,1 C66.7761424,1 67,0.776142375 67,0.5 C67,0.223857625 66.7761424,0 66.5,0 L65.5,0 C65.2238576,0 65,0.223857625 65,0.5 C65,0.776142375 65.2238576,1 65.5,1 Z M70.5,1 L71.5,1 C71.7761424,1 72,0.776142375 72,0.5 C72,0.223857625 71.7761424,0 71.5,0 L70.5,0 C70.2238576,0 70,0.223857625 70,0.5 C70,0.776142375 70.2238576,1 70.5,1 Z M75.5,1 L76.5,1 C76.7761424,1 77,0.776142375 77,0.5 C77,0.223857625 76.7761424,0 76.5,0 L75.5,0 C75.2238576,0 75,0.223857625 75,0.5 C75,0.776142375 75.2238576,1 75.5,1 Z M80.5,1 L81.5,1 C81.7761424,1 82,0.776142375 82,0.5 C82,0.223857625 81.7761424,0 81.5,0 L80.5,0 C80.2238576,0 80,0.223857625 80,0.5 C80,0.776142375 80.2238576,1 80.5,1 Z M85.5,1 L86.5,1 C86.7761424,1 87,0.776142375 87,0.5 C87,0.223857625 86.7761424,0 86.5,0 L85.5,0 C85.2238576,0 85,0.223857625 85,0.5 C85,0.776142375 85.2238576,1 85.5,1 Z M90.5,1 L91.5,1 C91.7761424,1 92,0.776142375 92,0.5 C92,0.223857625 91.7761424,0 91.5,0 L90.5,0 C90.2238576,0 90,0.223857625 90,0.5 C90,0.776142375 90.2238576,1 90.5,1 Z M95.5,1 L96.5,1 C96.7761424,1 97,0.776142375 97,0.5 C97,0.223857625 96.7761424,0 96.5,0 L95.5,0 C95.2238576,0 95,0.223857625 95,0.5 C95,0.776142375 95.2238576,1 95.5,1 Z M100.5,1 L101.5,1 C101.776142,1 102,0.776142375 102,0.5 C102,0.223857625 101.776142,0 101.5,0 L100.5,0 C100.223858,0 100,0.223857625 100,0.5 C100,0.776142375 100.223858,1 100.5,1 Z M105.5,1 L106.5,1 C106.776142,1 107,0.776142375 107,0.5 C107,0.223857625 106.776142,0 106.5,0 L105.5,0 C105.223858,0 105,0.223857625 105,0.5 C105,0.776142375 105.223858,1 105.5,1 Z M110.5,1 L111.5,1 C111.776142,1 112,0.776142375 112,0.5 C112,0.223857625 111.776142,0 111.5,0 L110.5,0 C110.223858,0 110,0.223857625 110,0.5 C110,0.776142375 110.223858,1 110.5,1 Z M115.5,1 L116.5,1 C116.776142,1 117,0.776142375 117,0.5 C117,0.223857625 116.776142,0 116.5,0 L115.5,0 C115.223858,0 115,0.223857625 115,0.5 C115,0.776142375 115.223858,1 115.5,1 Z M120.5,1 L121.5,1 C121.776142,1 122,0.776142375 122,0.5 C122,0.223857625 121.776142,0 121.5,0 L120.5,0 C120.223858,0 120,0.223857625 120,0.5 C120,0.776142375 120.223858,1 120.5,1 Z M125.5,1 L126.5,1 C126.776142,1 127,0.776142375 127,0.5 C127,0.223857625 126.776142,0 126.5,0 L125.5,0 C125.223858,0 125,0.223857625 125,0.5 C125,0.776142375 125.223858,1 125.5,1 Z M130.5,1 L131.5,1 C131.776142,1 132,0.776142375 132,0.5 C132,0.223857625 131.776142,0 131.5,0 L130.5,0 C130.223858,0 130,0.223857625 130,0.5 C130,0.776142375 130.223858,1 130.5,1 Z M135.5,1 L136.5,1 C136.776142,1 137,0.776142375 137,0.5 C137,0.223857625 136.776142,0 136.5,0 L135.5,0 C135.223858,0 135,0.223857625 135,0.5 C135,0.776142375 135.223858,1 135.5,1 Z M140.5,1 L141.5,1 C141.776142,1 142,0.776142375 142,0.5 C142,0.223857625 141.776142,0 141.5,0 L140.5,0 C140.223858,0 140,0.223857625 140,0.5 C140,0.776142375 140.223858,1 140.5,1 Z M145.5,1 L146.5,1 C146.776142,1 147,0.776142375 147,0.5 C147,0.223857625 146.776142,0 146.5,0 L145.5,0 C145.223858,0 145,0.223857625 145,0.5 C145,0.776142375 145.223858,1 145.5,1 Z M150.5,1 L151.5,1 C151.776142,1 152,0.776142375 152,0.5 C152,0.223857625 151.776142,0 151.5,0 L150.5,0 C150.223858,0 150,0.223857625 150,0.5 C150,0.776142375 150.223858,1 150.5,1 Z M155.5,1 L156.5,1 C156.776142,1 157,0.776142375 157,0.5 C157,0.223857625 156.776142,0 156.5,0 L155.5,0 C155.223858,0 155,0.223857625 155,0.5 C155,0.776142375 155.223858,1 155.5,1 Z M160.5,1 L161.5,1 C161.776142,1 162,0.776142375 162,0.5 C162,0.223857625 161.776142,0 161.5,0 L160.5,0 C160.223858,0 160,0.223857625 160,0.5 C160,0.776142375 160.223858,1 160.5,1 Z M165.5,1 L166.5,1 C166.776142,1 167,0.776142375 167,0.5 C167,0.223857625 166.776142,0 166.5,0 L165.5,0 C165.223858,0 165,0.223857625 165,0.5 C165,0.776142375 165.223858,1 165.5,1 Z M170.5,1 L171.5,1 C171.776142,1 172,0.776142375 172,0.5 C172,0.223857625 171.776142,0 171.5,0 L170.5,0 C170.223858,0 170,0.223857625 170,0.5 C170,0.776142375 170.223858,1 170.5,1 Z M175.5,1 L176.5,1 C176.776142,1 177,0.776142375 177,0.5 C177,0.223857625 176.776142,0 176.5,0 L175.5,0 C175.223858,0 175,0.223857625 175,0.5 C175,0.776142375 175.223858,1 175.5,1 Z M180.5,1 L181.5,1 C181.776142,1 182,0.776142375 182,0.5 C182,0.223857625 181.776142,0 181.5,0 L180.5,0 C180.223858,0 180,0.223857625 180,0.5 C180,0.776142375 180.223858,1 180.5,1 Z M185.5,1 L186.5,1 C186.776142,1 187,0.776142375 187,0.5 C187,0.223857625 186.776142,0 186.5,0 L185.5,0 C185.223858,0 185,0.223857625 185,0.5 C185,0.776142375 185.223858,1 185.5,1 Z M190.5,1 L191.5,1 C191.776142,1 192,0.776142375 192,0.5 C192,0.223857625 191.776142,0 191.5,0 L190.5,0 C190.223858,0 190,0.223857625 190,0.5 C190,0.776142375 190.223858,1 190.5,1 Z M195.5,1 L196.5,1 C196.776142,1 197,0.776142375 197,0.5 C197,0.223857625 196.776142,0 196.5,0 L195.5,0 C195.223858,0 195,0.223857625 195,0.5 C195,0.776142375 195.223858,1 195.5,1 Z M200.5,1 L201.5,1 C201.776142,1 202,0.776142375 202,0.5 C202,0.223857625 201.776142,0 201.5,0 L200.5,0 C200.223858,0 200,0.223857625 200,0.5 C200,0.776142375 200.223858,1 200.5,1 Z M205.5,1 L206.5,1 C206.776142,1 207,0.776142375 207,0.5 C207,0.223857625 206.776142,0 206.5,0 L205.5,0 C205.223858,0 205,0.223857625 205,0.5 C205,0.776142375 205.223858,1 205.5,1 Z M210.5,1 L211.5,1 C211.776142,1 212,0.776142375 212,0.5 C212,0.223857625 211.776142,0 211.5,0 L210.5,0 C210.223858,0 210,0.223857625 210,0.5 C210,0.776142375 210.223858,1 210.5,1 Z M215.5,1 L216.5,1 C216.776142,1 217,0.776142375 217,0.5 C217,0.223857625 216.776142,0 216.5,0 L215.5,0 C215.223858,0 215,0.223857625 215,0.5 C215,0.776142375 215.223858,1 215.5,1 Z M220.5,1 L221.5,1 C221.776142,1 222,0.776142375 222,0.5 C222,0.223857625 221.776142,0 221.5,0 L220.5,0 C220.223858,0 220,0.223857625 220,0.5 C220,0.776142375 220.223858,1 220.5,1 Z M225.5,1 L226.5,1 C226.776142,1 227,0.776142375 227,0.5 C227,0.223857625 226.776142,0 226.5,0 L225.5,0 C225.223858,0 225,0.223857625 225,0.5 C225,0.776142375 225.223858,1 225.5,1 Z M230.5,1 L231.5,1 C231.776142,1 232,0.776142375 232,0.5 C232,0.223857625 231.776142,0 231.5,0 L230.5,0 C230.223858,0 230,0.223857625 230,0.5 C230,0.776142375 230.223858,1 230.5,1 Z M235.5,1 L236.5,1 C236.776142,1 237,0.776142375 237,0.5 C237,0.223857625 236.776142,0 236.5,0 L235.5,0 C235.223858,0 235,0.223857625 235,0.5 C235,0.776142375 235.223858,1 235.5,1 Z M240.5,1 L241.5,1 C241.776142,1 242,0.776142375 242,0.5 C242,0.223857625 241.776142,0 241.5,0 L240.5,0 C240.223858,0 240,0.223857625 240,0.5 C240,0.776142375 240.223858,1 240.5,1 Z" />
                </g>
                <g id="lines" transform="translate(0.000000, 8.500000)">
                    <path d="M270.999004,0 C271.275146,0 271.499004,0.223857625 271.499004,0.5 C271.499004,0.745459889 271.322129,0.94960837 271.08888,0.991944331 L270.999004,1 L151,1 C150.723858,1 150.5,0.776142375 150.5,0.5 C150.5,0.254540111 150.676875,0.0503916296 150.910124,0.00805566941 L151,0 L270.999004,0 Z" id="line" />
                    <path d="M121,0 C121.276142,0 121.5,0.223857625 121.5,0.5 C121.5,0.745459889 121.323125,0.94960837 121.089876,0.991944331 L121,1 L1,1 C0.723857625,1 0.5,0.776142375 0.5,0.5 C0.5,0.254540111 0.676875161,0.0503916296 0.910124368,0.00805566941 L1,0 L121,0 Z" id="line" />
                </g>
                <g id="text" transform="translate(123.000000, 0.000000)">
                    <path d="M9.01171875,9.01074219 L9.01171875,6.88134766 L11.1035156,6.88134766 L11.1035156,6.03369141 L9.01171875,6.03369141 L9.01171875,4.84765625 L11.4350586,4.84765625 L11.4350586,4 L8,4 L8,9.01074219 L9.01171875,9.01074219 Z M13.1953125,9.01074219 L13.1953125,5.06640625 L14.1865234,9.01074219 L15.1606445,9.01074219 L16.1552734,5.06640625 L16.1552734,9.01074219 L17.0952148,9.01074219 L17.0952148,4 L15.5776367,4 L14.6787109,7.41796875 L13.7695312,4 L12.2553711,4 L12.2553711,9.01074219 L13.1953125,9.01074219 Z" id="FM" />
                </g>
            </g>
            <g id="voct" transform="translate(63.000000, 147.000000)" fill="#1F342D" fill-rule="nonzero">
                <g id="normal" transform="translate(17.000000, 29.000000)">
                    <path d="M0.5,1 L1.5,1 C1.77614237,1 2,0.776142375 2,0.5 C2,0.223857625 1.77614237,0 1.5,0 L0.5,0 C0.223857625,0 0,0.223857625 0,0.5 C0,0.776142375 0.223857625,1 0.5,1 Z M5.5,1 L6.5,1 C6.77614237,1 7,0.776142375 7,0.5 C7,0.223857625 6.77614237,0 6.5,0 L5.5,0 C5.22385763,0 5,0.223857625 5,0.5 C5,0.776142375 5.22385763,1 5.5,1 Z M10.5,1 L11.5,1 C11.7761424,1 12,0.776142375 12,0.5 C12,0.223857625 11.7761424,0 11.5,0 L10.5,0 C10.2238576,0 10,0.223857625 10,0.5 C10,0.776142375 10.2238576,1 10.5,1 Z M15.5,1 L16.5,1 C16.7761424,1 17,0.776142375 17,0.5 C17,0.223857625 16.7761424,0 16.5,0 L15.5,0 C15.2238576,0 15,0.223857625 15,0.5 C15,0.776142375 15.2238576,1 15.5,1 Z M20.5,1 L21.5,1 C21.7761424,1 22,0.776142375 22,0.5 C22,0.223857625 21.7761424,0 21.5,0 L20.5,0 C20.2238576,0 20,0.223857625 20,0.5 C20,0.776142375 20.2238576,1 20.5,1 Z M25.5,1 L26.5,1 C26.7761424,1 27,0.776142375 27,0.5 C27,0.223857625 26.7761424,0 26.5,0 L25.5,0 C25.2238576,0 25,0.223857625 25,0.5 C25,0.776142375 25.2238576,1 25.5,1 Z M30.5,1 L31.5,1 C31.7761424,1 32,0.776142375 32,0.5 C32,0.223857625 31.7761424,0 31.5,0 L30.5,0 C30.2238576,0 30,0.223857625 30,0.5 C30,0.776142375 30.2238576,1 30.5,1 Z M35.5,1 L36.5,1 C36.7761424,1 37,0.776142375 37,0.5 C37,0.223857625 36.7761424,0 36.5,0 L35.5,0 C35.2238576,0 35,0.223857625 35,0.5 C35,0.776142375 35.2238576,1 35.5,1 Z M40.5,1 L41.5,1 C41.7761424,1 42,0.776142375 42,0.5 C42,0.223857625 41.7761424,0 41.5,0 L40.5,0 C40.2238576,0 40,0.223857625 40,0.5 C40,0.776142375 40.2238576,1 40.5,1 Z M45.5,1 L46.5,1 C46.7761424,1 47,0.776142375 47,0.5 C47,0.223857625 46.7761424,0 46.5,0 L45.5,0 C45.2238576,0 45,0.223857625 45,0.5 C45,0.776142375 45.2238576,1 45.5,1 Z M50.5,1 L51.5,1 C51.7761424,1 52,0.776142375 52,0.5 C52,0.223857625 51.7761424,0 51.5,0 L50.5,0 C50.2238576,0 50,0.223857625 50,0.5 C50,0.776142375 50.2238576,1 50.5,1 Z M55.5,1 L56.5,1 C56.7761424,1 57,0.776142375 57,0.5 C57,0.223857625 56.7761424,0 56.5,0 L55.5,0 C55.2238576,0 55,0.223857625 55,0.5 C55,0.776142375 55.2238576,1 55.5,1 Z M60.5,1 L61.5,1 C61.7761424,1 62,0.776142375 62,0.5 C62,0.223857625 61.7761424,0 61.5,0 L60.5,0 C60.2238576,0 60,0.223857625 60,0.5 C60,0.776142375 60.2238576,1 60.5,1 Z M65.5,1 L66.5,1 C66.7761424,1 67,0.776142375 67,0.5 C67,0.223857625 66.7761424,0 66.5,0 L65.5,0 C65.2238576,0 65,0.223857625 65,0.5 C65,0.776142375 65.2238576,1 65.5,1 Z M70.5,1 L71.5,1 C71.7761424,1 72,0.776142375 72,0.5 C72,0.223857625 71.7761424,0 71.5,0 L70.5,0 C70.2238576,0 70,0.223857625 70,0.5 C70,0.776142375 70.2238576,1 70.5,1 Z M75.5,1 L76.5,1 C76.7761424,1 77,0.776142375 77,0.5 C77,0.223857625 76.7761424,0 76.5,0 L75.5,0 C75.2238576,0 75,0.223857625 75,0.5 C75,0.776142375 75.2238576,1 75.5,1 Z M80.5,1 L81.5,1 C81.7761424,1 82,0.776142375 82,0.5 C82,0.223857625 81.7761424,0 81.5,0 L80.5,0 C80.2238576,0 80,0.223857625 80,0.5 C80,0.776142375 80.2238576,1 80.5,1 Z M85.5,1 L86.5,1 C86.7761424,1 87,0.776142375 87,0.5 C87,0.223857625 86.7761424,0 86.5,0 L85.5,0 C85.2238576,0 85,0.223857625 85,0.5 C85,0.776142375 85.2238576,1 85.5,1 Z M90.5,1 L91.5,1 C91.7761424,1 92,0.776142375 92,0.5 C92,0.223857625 91.7761424,0 91.5,0 L90.5,0 C90.2238576,0 90,0.223857625 90,0.5 C90,0.776142375 90.2238576,1 90.5,1 Z M95.5,1 L96.5,1 C96.7761424,1 97,0.776142375 97,0.5 C97,0.223857625 96.7761424,0 96.5,0 L95.5,0 C95.2238576,0 95,0.223857625 95,0.5 C95,0.776142375 95.2238576,1 95.5,1 Z M100.5,1 L101.5,1 C101.776142,1 102,0.776142375 102,0.5 C102,0.223857625 101.776142,0 101.5,0 L100.5,0 C100.223858,0 100,0.223857625 100,0.5 C100,0.776142375 100.223858,1 100.5,1 Z M105.5,1 L106.5,1 C106.776142,1 107,0.776142375 107,0.5 C107,0.223857625 106.776142,0 106.5,0 L105.5,0 C105.223858,0 105,0.223857625 105,0.5 C105,0.776142375 105.223858,1 105.5,1 Z M110.5,1 L111.5,1 C111.776142,1 112,0.776142375 112,0.5 C112,0.223857625 111.776142,0 111.5,0 L110.5,0 C110.223858,0 110,0.223857625 110,0.5 C110,0.776142375 110.223858,1 110.5,1 Z M115.5,1 L116.5,1 C116.776142,1 117,0.776142375 117,0.5 C117,0.223857625 116.776142,0 116.5,0 L115.5,0 C115.223858,0 115,0.223857625 115,0.5 C115,0.776142375 115.223858,1 115.5,1 Z M120.5,1 L121.5,1 C121.776142,1 122,0.776142375 122,0.5 C122,0.223857625 121.776142,0 121.5,0 L120.5,0 C120.223858,0 120,0.223857625 120,0.5 C120,0.776142375 120.223858,1 120.5,1 Z M125.5,1 L126.5,1 C126.776142,1 127,0.776142375 127,0.5 C127,0.223857625 126.776142,0 126.5,0 L125.5,0 C125.223858,0 125,0.223857625 125,0.5 C125,0.776142375 125.223858,1 125.5,1 Z M130.5,1 L131.5,1 C131.776142,1 132,0.776142375 132,0.5 C132,0.223857625 131.776142,0 131.5,0 L130.5,0 C130.223858,0 130,0.223857625 130,0.5 C130,0.776142375 130.223858,1 130.5,1 Z M135.5,1 L136.5,1 C136.776142,1 137,0.776142375 137,0.5 C137,0.223857625 136.776142,0 136.5,0 L135.5,0 C135.223858,0 135,0.223857625 135,0.5 C135,0.776142375 135.223858,1 135.5,1 Z M140.5,1 L141.5,1 C141.776142,1 142,0.776142375 142,0.5 C142,0.223857625 141.776142,0 141.5,0 L140.5,0 C140.223858,0 140,0.223857625 140,0.5 C140,0.776142375 140.223858,1 140.5,1 Z M145.5,1 L146.5,1 C146.776142,1 147,0.776142375 147,0.5 C147,0.223857625 146.776142,0 146.5,0 L145.5,0 C145.223858,0 145,0.223857625 145,0.5 C145,0.776142375 145.223858,1 145.5,1 Z M150.5,1 L151.5,1 C151.776142,1 152,0.776142375 152,0.5 C152,0.223857625 151.776142,0 151.5,0 L150.5,0 C150.223858,0 150,0.223857625 150,0.5 C150,0.776142375 150.223858,1 150.5,1 Z M155.5,1 L156.5,1 C156.776142,1 157,0.776142375 157,0.5 C157,0.223857625 156.776142,0 156.5,0 L155.5,0 C155.223858,0 155,0.223857625 155,0.5 C155,0.776142375 155.223858,1 155.5,1 Z M160.5,1 L161.5,1 C161.776142,1 162,0.776142375 162,0.5 C162,0.223857625 161.776142,0 161.5,0 L160.5,0 C160.223858,0 160,0.223857625 160,0.5 C160,0.776142375 160.223858,1 160.5,1 Z M165.5,1 L166.5,1 C166.776142,1 167,0.776142375 167,0.5 C167,0.223857625 166.776142,0 166.5,0 L165.5,0 C165.223858,0 165,0.223857625 165,0.5 C165,0.776142375 165.223858,1 165.5,1 Z M170.5,1 L171.5,1 C171.776142,1 172,0.776142375 172,0.5 C172,0.223857625 171.776142,0 171.5,0 L170.5,0 C170.223858,0 170,0.223857625 170,0.5 C170,0.776142375 170.223858,1 170.5,1 Z M175.5,1 L176.5,1 C176.776142,1 177,0.776142375 177,0.5 C177,0.223857625 176.776142,0 176.5,0 L175.5,0 C175.223858,0 175,0.223857625 175,0.5 C175,0.776142375 175.223858,1 175.5,1 Z M180.5,1 L181.5,1 C181.776142,1 182,0.776142375 182,0.5 C182,0.223857625 181.776142,0 181.5,0 L180.5,0 C180.223858,0 180,0.223857625 180,0.5 C180,0.776142375 180.223858,1 180.5,1 Z M185.5,1 L186.5,1 C186.776142,1 187,0.776142375 187,0.5 C187,0.223857625 186.776142,0 186.5,0 L185.5,0 C185.223858,0 185,0.223857625 185,0.5 C185,0.776142375 185.223858,1 185.5,1 Z M190.5,1 L191.5,1 C191.776142,1 192,0.776142375 192,0.5 C192,0.223857625 191.776142,0 191.5,0 L190.5,0 C190.223858,0 190,0.223857625 190,0.5 C190,0.776142375 190.223858,1 190.5,1 Z M195.5,1 L196.5,1 C196.776142,1 197,0.776142375 197,0.5 C197,0.223857625 196.776142,0 196.5,0 L195.5,0 C195.223858,0 195,0.223857625 195,0.5 C195,0.776142375 195.223858,1 195.5,1 Z M200.5,1 L201.5,1 C201.776142,1 202,0.776142375 202,0.5 C202,0.223857625 201.776142,0 201.5,0 L200.5,0 C200.223858,0 200,0.223857625 200,0.5 C200,0.776142375 200.223858,1 200.5,1 Z M205.5,1 L206.5,1 C206.776142,1 207,0.776142375 207,0.5 C207,0.223857625 206.776142,0 206.5,0 L205.5,0 C205.223858,0 205,0.223857625 205,0.5 C205,0.776142375 205.223858,1 205.5,1 Z M210.5,1 L211.5,1 C211.776142,1 212,0.776142375 212,0.5 C212,0.223857625 211.776142,0 211.5,0 L210.5,0 C210.223858,0 210,0.223857625 210,0.5 C210,0.776142375 210.223858,1 210.5,1 Z M215.5,1 L216.5,1 C216.776142,1 217,0.776142375 217,0.5 C217,0.223857625 216.776142,0 216.5,0 L215.5,0 C215.223858,0 215,0.223857625 215,0.5 C215,0.776142375 215.223858,1 215.5,1 Z M220.5,1 L221.5,1 C221.776142,1 222,0.776142375 222,0.5 C222,0.223857625 221.776142,0 221.5,0 L220.5,0 C220.223858,0 220,0.223857625 220,0.5 C220,0.776142375 220.223858,1 220.5,1 Z M225.5,1 L226.5,1 C226.776142,1 227,0.776142375 227,0.5 C227,0.223857625 226.776142,0 226.5,0 L225.5,0 C225.223858,0 225,0.223857625 225,0.5 C225,0.776142375 225.223858,1 225.5,1 Z M230.5,1 L231.5,1 C231.776142,1 232,0.776142375 232,0.5 C232,0.223857625 231.776142,0 231.5,0 L230.5,0 C230.223858,0 230,0.223857625 230,0.5 C230,0.776142375 230.223858,1 230.5,1 Z M235.5,1 L236.5,1 C236.776142,1 237,0.776142375 237,0.5 C237,0.223857625 236.776142,0 236.5,0 L235.5,0 C235.223858,0 235,0.223857625 235,0.5 C235,0.776142375 235.223858,1 235.5,1 Z M240.5,1 L241.5,1 C241.776142,1 242,0.776142375 242,0.5 C242,0.223857625 241.776142,0 241.5,0 L240.5,0 C240.223858,0 240,0.223857625 240,0.5 C240,0.776142375 240.223858,1 240.5,1 Z" />
                </g>
                <g id="lines" transform="translate(0.000000, 8.500000)">
                    <path d="M270.999004,0 C271.275146,0 271.499004,0.223857625 271.499004,0.5 C271.499004,0.745459889 271.322129,0.94960837 271.08888,0.991944331 L270.999004,1 L151,1 C150.723858,1 150.5,0.776142375 150.5,0.5 C150.5,0.254540111 150.676875,0.0503916296 150.910124,0.00805566941 L151,0 L270.999004,0 Z" id="line" />
                    <path d="M121,0 C121.276142,0 121.5,0.223857625 121.5,0.5 C121.5,0.745459889 121.323125,0.94960837 121.089876,0.991944331 L121,1 L1,1 C0.723857625,1 0.5,0.776142375 0.5,0.5 C0.5,0.254540111 0.676875161,0.0503916296 0.910124368,0.00805566941 L1,0 L121,0 Z" id="line" />
                </g>
                <g id="text" transform="translate(123.000000, 0.000000)">
                    <path d="M4.87109375,9.09619141 L6.66552734,4.08544922 L5.59228516,4.08544922 L4.36523438,7.79394531 L3.09716797,4.08544922 L2,4.08544922 L3.79101562,9.09619141 L4.87109375,9.09619141 Z M7.36962891,9.18164062 L8.62402344,4 L7.90283203,4 L6.66210938,9.18164062 L7.36962891,9.18164062 Z M11.3583984,9.18164062 C12.094401,9.18164062 12.6822917,8.95320638 13.1220703,8.49633789 C13.561849,8.0394694 13.7817383,7.40657552 13.7817383,6.59765625 C13.7817383,5.78190104 13.56014,5.14501953 13.1169434,4.68701172 C12.6737467,4.22900391 12.0830078,4 11.3447266,4 C10.936849,4 10.5768229,4.06608073 10.2646484,4.19824219 C10.0299479,4.29622396 9.81404622,4.44661458 9.61694336,4.64941406 C9.41984049,4.85221354 9.26432292,5.08121745 9.15039062,5.33642578 C8.99772135,5.68277995 8.92138672,6.11116536 8.92138672,6.62158203 C8.92138672,7.41910807 9.14127604,8.04516602 9.58105469,8.49975586 C10.0208333,8.9543457 10.6132812,9.18164062 11.3583984,9.18164062 Z M11.3549805,8.31689453 C10.9516602,8.31689453 10.6189779,8.17049154 10.3569336,7.87768555 C10.0948893,7.58487956 9.96386719,7.15478516 9.96386719,6.58740234 C9.96386719,6.01090495 10.0914714,5.57967122 10.3466797,5.29370117 C10.601888,5.00773112 10.9379883,4.86474609 11.3549805,4.86474609 C11.7719727,4.86474609 12.1063639,5.00602214 12.3581543,5.28857422 C12.6099447,5.5711263 12.7358398,5.99951172 12.7358398,6.57373047 C12.7358398,7.15478516 12.6065267,7.59057617 12.3479004,7.88110352 C12.0892741,8.17163086 11.7583008,8.31689453 11.3549805,8.31689453 Z M16.6767578,9.18164062 C17.2145182,9.18164062 17.6582845,9.04890951 18.0080566,8.78344727 C18.3578288,8.51798503 18.6079102,8.11181641 18.7583008,7.56494141 L18.7583008,7.56494141 L17.7773438,7.25390625 C17.6930339,7.62076823 17.5540365,7.88964844 17.3603516,8.06054688 C17.1666667,8.23144531 16.9353841,8.31689453 16.6665039,8.31689453 C16.3019206,8.31689453 16.0056966,8.18245443 15.777832,7.91357422 C15.5499674,7.64469401 15.4360352,7.19352214 15.4360352,6.56005859 C15.4360352,5.96305339 15.5516764,5.53125 15.782959,5.26464844 C16.0142415,4.99804688 16.3155924,4.86474609 16.6870117,4.86474609 C16.9558919,4.86474609 17.1843262,4.93994141 17.3723145,5.09033203 C17.5603027,5.24072266 17.6839193,5.44580078 17.7431641,5.70556641 L17.7431641,5.70556641 L18.7446289,5.46630859 C18.6306966,5.06526693 18.4597982,4.75764974 18.2319336,4.54345703 C17.8491211,4.18115234 17.351237,4 16.7382812,4 C16.0364583,4 15.4702148,4.23071289 15.0395508,4.69213867 C14.6088867,5.15356445 14.3935547,5.80126953 14.3935547,6.63525391 C14.3935547,7.42366536 14.6077474,8.04516602 15.0361328,8.49975586 C15.4645182,8.9543457 16.0113932,9.18164062 16.6767578,9.18164062 Z M21.7661133,9.09619141 L21.7661133,4.93310547 L23.2495117,4.93310547 L23.2495117,4.08544922 L19.2675781,4.08544922 L19.2675781,4.93310547 L20.7543945,4.93310547 L20.7543945,9.09619141 L21.7661133,9.09619141 Z" id="V/OCT" />
                </g>
            </g>
            <g id="level" transform="translate(63.000000, 97.000000)" fill="#1F342D" fill-rule="nonzero">
                <g id="lines" transform="translate(0.000000, 8.500000)">
                    <path d="M270.999004,0 C271.275146,0 271.499004,0.223857625 271.499004,0.5 C271.499004,0.745459889 271.322129,0.94960837 271.08888,0.991944331 L270.999004,1 L151,1 C150.723858,1 150.5,0.776142375 150.5,0.5 C150.5,0.254540111 150.676875,0.0503916296 150.910124,0.00805566941 L151,0 L270.999004,0 Z" id="line" />
                    <path d="M121,0 C121.276142,0 121.5,0.223857625 121.5,0.5 C121.5,0.745459889 121.323125,0.94960837 121.089876,0.991944331 L121,1 L1,1 C0.723857625,1 0.5,0.776142375 0.5,0.5 C0.5,0.254540111 0.676875161,0.0503916296 0.910124368,0.00805566941 L1,0 L121,0 Z" id="line" />
                </g>
                <g id="text" transform="translate(123.000000, 0.000000)">
                    <path d="M5.52734375,9.01074219 L5.52734375,8.16650391 L3.01171875,8.16650391 L3.01171875,4.04101562 L2,4.04101562 L2,9.01074219 L5.52734375,9.01074219 Z M10.0595703,9.01074219 L10.0595703,8.16650391 L7.26025391,8.16650391 L7.26025391,6.80273438 L9.77587891,6.80273438 L9.77587891,5.95849609 L7.26025391,5.95849609 L7.26025391,4.84765625 L9.96386719,4.84765625 L9.96386719,4 L6.24853516,4 L6.24853516,9.01074219 L10.0595703,9.01074219 Z M13.2758789,9.01074219 L15.0703125,4 L13.9970703,4 L12.7700195,7.70849609 L11.5019531,4 L10.4047852,4 L12.1958008,9.01074219 L13.2758789,9.01074219 Z M19.3974609,9.01074219 L19.3974609,8.16650391 L16.5981445,8.16650391 L16.5981445,6.80273438 L19.1137695,6.80273438 L19.1137695,5.95849609 L16.5981445,5.95849609 L16.5981445,4.84765625 L19.3017578,4.84765625 L19.3017578,4 L15.5864258,4 L15.5864258,9.01074219 L19.3974609,9.01074219 Z M23.8100586,9.01074219 L23.8100586,8.16650391 L21.2944336,8.16650391 L21.2944336,4.04101562 L20.2827148,4.04101562 L20.2827148,9.01074219 L23.8100586,9.01074219 Z" id="LEVEL" />
                </g>
            </g>
            <g id="mod" transform="translate(63.000000, 54.000000)" fill="#1F342D" fill-rule="nonzero">
                <g id="lines" transform="translate(0.000000, 8.500000)">
                    <path d="M270.999004,0 C271.275146,0 271.499004,0.223857625 271.499004,0.5 C271.499004,0.745459889 271.322129,0.94960837 271.08888,0.991944331 L270.999004,1 L151,1 C150.723858,1 150.5,0.776142375 150.5,0.5 C150.5,0.254540111 150.676875,0.0503916296 150.910124,0.00805566941 L151,0 L270.999004,0 Z" id="line" />
                    <path d="M121,0 C121.276142,0 121.5,0.223857625 121.5,0.5 C121.5,0.745459889 121.323125,0.94960837 121.089876,0.991944331 L121,1 L1,1 C0.723857625,1 0.5,0.776142375 0.5,0.5 C0.5,0.254540111 0.676875161,0.0503916296 0.910124368,0.00805566941 L1,0 L121,0 Z" id="line" />
                </g>
                <g id="text" transform="translate(123.000000, 0.000000)">
                    <path d="M5.93994141,9.09619141 L5.93994141,5.15185547 L6.93115234,9.09619141 L7.90527344,9.09619141 L8.89990234,5.15185547 L8.89990234,9.09619141 L9.83984375,9.09619141 L9.83984375,4.08544922 L8.32226562,4.08544922 L7.42333984,7.50341797 L6.51416016,4.08544922 L5,4.08544922 L5,9.09619141 L5.93994141,9.09619141 Z M13.0766602,9.18164062 C13.8126628,9.18164062 14.4005534,8.95320638 14.840332,8.49633789 C15.2801107,8.0394694 15.5,7.40657552 15.5,6.59765625 C15.5,5.78190104 15.2784017,5.14501953 14.8352051,4.68701172 C14.3920085,4.22900391 13.8012695,4 13.0629883,4 C12.6551107,4 12.2950846,4.06608073 11.9829102,4.19824219 C11.7482096,4.29622396 11.5323079,4.44661458 11.3352051,4.64941406 C11.1381022,4.85221354 10.9825846,5.08121745 10.8686523,5.33642578 C10.7159831,5.68277995 10.6396484,6.11116536 10.6396484,6.62158203 C10.6396484,7.41910807 10.8595378,8.04516602 11.2993164,8.49975586 C11.7390951,8.9543457 12.331543,9.18164062 13.0766602,9.18164062 Z M13.0732422,8.31689453 C12.6699219,8.31689453 12.3372396,8.17049154 12.0751953,7.87768555 C11.813151,7.58487956 11.6821289,7.15478516 11.6821289,6.58740234 C11.6821289,6.01090495 11.8097331,5.57967122 12.0649414,5.29370117 C12.3201497,5.00773112 12.65625,4.86474609 13.0732422,4.86474609 C13.4902344,4.86474609 13.8246257,5.00602214 14.076416,5.28857422 C14.3282064,5.5711263 14.4541016,5.99951172 14.4541016,6.57373047 C14.4541016,7.15478516 14.3247884,7.59057617 14.0661621,7.88110352 C13.8075358,8.17163086 13.4765625,8.31689453 13.0732422,8.31689453 Z M18.1899414,9.09619141 C18.5636393,9.09619141 18.8621419,9.0608724 19.0854492,8.99023438 C19.3839518,8.89453125 19.620931,8.76123047 19.7963867,8.59033203 C20.0288086,8.36474609 20.2076823,8.06966146 20.3330078,7.70507812 C20.4355469,7.40657552 20.4868164,7.05110677 20.4868164,6.63867188 C20.4868164,6.16927083 20.4321289,5.77449544 20.3227539,5.4543457 C20.2133789,5.13419596 20.0538737,4.86360677 19.8442383,4.64257812 C19.6346029,4.42154948 19.3828125,4.26774089 19.0888672,4.18115234 C18.8701172,4.11735026 18.5522461,4.08544922 18.1352539,4.08544922 L18.1352539,4.08544922 L16.2861328,4.08544922 L16.2861328,9.09619141 L18.1899414,9.09619141 Z M18.0532227,8.25195312 L17.2978516,8.25195312 L17.2978516,4.93310547 L17.7524414,4.93310547 C18.1648763,4.93310547 18.4417318,4.94905599 18.5830078,4.98095703 C18.7721354,5.02197266 18.9282227,5.10058594 19.0512695,5.21679688 C19.1743164,5.33300781 19.2700195,5.49479167 19.3383789,5.70214844 C19.4067383,5.90950521 19.440918,6.20686849 19.440918,6.59423828 C19.440918,6.98160807 19.4067383,7.28751628 19.3383789,7.51196289 C19.2700195,7.73640951 19.181722,7.8976237 19.0734863,7.99560547 C18.9652507,8.09358724 18.8291016,8.16308594 18.6650391,8.20410156 C18.5397135,8.2360026 18.3357747,8.25195312 18.0532227,8.25195312 L18.0532227,8.25195312 Z" id="MOD" />
                </g>
            </g>
            <g id="frequency" transform="translate(63.000000, 11.000000)" fill="#1F342D" fill-rule="nonzero">
                <g id="lines" transform="translate(0.000000, 8.500000)">
                    <path d="M270.999004,0 C271.275146,0 271.499004,0.223857625 271.499004,0.5 C271.499004,0.745459889 271.322129,0.94960837 271.08888,0.991944331 L270.999004,1 L151,1 C150.723858,1 150.5,0.776142375 150.5,0.5 C150.5,0.254540111 150.676875,0.0503916296 150.910124,0.00805566941 L151,0 L270.999004,0 Z" id="line" />
                    <path d="M121,0 C121.276142,0 121.5,0.223857625 121.5,0.5 C121.5,0.745459889 121.323125,0.94960837 121.089876,0.991944331 L121,1 L1,1 C0.723857625,1 0.5,0.776142375 0.5,0.5 C0.5,0.254540111 0.676875161,0.0503916296 0.910124368,0.00805566941 L1,0 L121,0 Z" id="line" />
                </g>
                <g id="text" transform="translate(123.000000, 0.000000)">
                    <path d="M4.30541992,9 L4.30541992,6.87060547 L6.3972168,6.87060547 L6.3972168,6.02294922 L4.30541992,6.02294922 L4.30541992,4.83691406 L6.72875977,4.83691406 L6.72875977,3.98925781 L3.29370117,3.98925781 L3.29370117,9 L4.30541992,9 Z M8.57788086,9 L8.57788086,6.90820312 L8.78295898,6.90820312 C9.01538086,6.90820312 9.18513997,6.92700195 9.29223633,6.96459961 C9.39933268,7.00219727 9.50073242,7.07169596 9.59643555,7.1730957 C9.69213867,7.27449544 9.86987305,7.52001953 10.1296387,7.90966797 L10.1296387,7.90966797 L10.861084,9 L12.0710449,9 L11.4592285,8.02246094 C11.2176921,7.6328125 11.0257161,7.36165365 10.8833008,7.20898438 C10.7408854,7.0563151 10.5603027,6.91617839 10.3415527,6.78857422 C10.7813314,6.72477214 11.111735,6.57039388 11.3327637,6.32543945 C11.5537923,6.08048503 11.6643066,5.77001953 11.6643066,5.39404297 C11.6643066,5.09781901 11.59139,4.83463542 11.4455566,4.60449219 C11.2997233,4.37434896 11.1054688,4.21427409 10.862793,4.12426758 C10.6201172,4.03426107 10.2310384,3.98925781 9.69555664,3.98925781 L9.69555664,3.98925781 L7.56616211,3.98925781 L7.56616211,9 L8.57788086,9 Z M9.32641602,6.10839844 L8.57788086,6.10839844 L8.57788086,4.83691406 L9.36743164,4.83691406 C9.77758789,4.83691406 10.0236816,4.84261068 10.1057129,4.85400391 C10.2697754,4.88134766 10.3968099,4.94685872 10.4868164,5.05053711 C10.5768229,5.15421549 10.6218262,5.29036458 10.6218262,5.45898438 C10.6218262,5.609375 10.5876465,5.73470052 10.5192871,5.83496094 C10.4509277,5.93522135 10.3563639,6.00585938 10.2355957,6.046875 C10.1148275,6.08789062 9.81176758,6.10839844 9.32641602,6.10839844 L9.32641602,6.10839844 Z M16.4289551,9 L16.4289551,8.15576172 L13.6296387,8.15576172 L13.6296387,6.79199219 L16.1452637,6.79199219 L16.1452637,5.94775391 L13.6296387,5.94775391 L13.6296387,4.83691406 L16.333252,4.83691406 L16.333252,3.98925781 L12.6179199,3.98925781 L12.6179199,9 L16.4289551,9 Z M21.7575684,9.50244141 L22.130127,8.78808594 C21.8384603,8.68326823 21.5684408,8.54199219 21.3200684,8.36425781 C21.5205892,8.12955729 21.6664225,7.88688151 21.7575684,7.63623047 C21.8783366,7.30810547 21.9387207,6.92757161 21.9387207,6.49462891 C21.9387207,5.67659505 21.72111,5.0402832 21.2858887,4.58569336 C20.8506673,4.13110352 20.2616374,3.90380859 19.5187988,3.90380859 C18.7691243,3.90380859 18.1755371,4.13110352 17.7380371,4.58569336 C17.3005371,5.0402832 17.0817871,5.67659505 17.0817871,6.49462891 C17.0817871,7.31494141 17.2999674,7.95182292 17.7363281,8.40527344 C18.1726888,8.85872396 18.7759603,9.08544922 19.5461426,9.08544922 C19.9449056,9.08544922 20.3083496,9.01367188 20.6364746,8.87011719 C21.0534668,9.15039062 21.2779134,9.2985026 21.3098145,9.31445312 C21.4556478,9.39420573 21.6048991,9.45686849 21.7575684,9.50244141 L21.7575684,9.50244141 Z M19.4812012,8.24462891 C19.0892741,8.24462891 18.7651367,8.09936523 18.5087891,7.80883789 C18.2524414,7.51831055 18.1242676,7.08024089 18.1242676,6.49462891 C18.1242676,5.91813151 18.2524414,5.48632812 18.5087891,5.19921875 C18.7651367,4.91210938 19.099528,4.76855469 19.5119629,4.76855469 C19.9243978,4.76855469 20.2582194,4.91153971 20.5134277,5.19750977 C20.7686361,5.48347982 20.8962402,5.91585286 20.8962402,6.49462891 C20.8962402,6.77490234 20.8637695,7.02327474 20.7988281,7.23974609 C20.7338867,7.45621745 20.6364746,7.64078776 20.5065918,7.79345703 C20.2035319,7.56559245 19.8856608,7.39469401 19.5529785,7.28076172 L19.5529785,7.28076172 L19.2692871,7.85839844 C19.4812012,7.93359375 19.6896973,8.03841146 19.8947754,8.17285156 C19.7648926,8.22070312 19.6270345,8.24462891 19.4812012,8.24462891 Z" id="FREQ" />
                </g>
            </g>
            <g id="globals">
                <g id="wavetable-bg" transform="translate(0.000000, 170.000000)">
                    <rect id="Rectangle-Copy-26" fill="#CBDED3" x="0" y="11" width="50" height="152" rx="3" />
                    <path d="M27,39.5 L24,39.5 L24,43.5 L27,43.5 L27,39.5 Z M27,45.5 L24,45.5 L24,49.5 L27,49.5 L27,45.5 Z M27,51.5 L24,51.5 L24,55.5 L27,55.5 L27,51.5 Z M27,57.5 L24,57.5 L24,61.5 L27,61.5 L27,57.5 Z M27,63.5 L24,63.5 L24,67.5 L27,67.5 L27,63.5 Z M27,69.5 L24,69.5 L24,73.5 L27,73.5 L27,69.5 Z M27,75.5 L24,75.5 L24,79.5 L27,79.5 L27,75.5 Z M27,81.5 L24,81.5 L24,85.5 L27,85.5 L27,81.5 Z M27,87.5 L24,87.5 L24,91.5 L27,91.5 L27,87.5 Z M27,93.5 L24,93.5 L24,97.5 L27,97.5 L27,93.5 Z M27,99.5 L24,99.5 L24,103.5 L27,103.5 L27,99.5 Z M27,105.5 L24,105.5 L24,109.5 L27,109.5 L27,105.5 Z M27,111.5 L24,111.5 L24,115.5 L27,115.5 L27,111.5 Z M27,117.5 L24,117.5 L24,121.5 L27,121.5 L27,117.5 Z M27,123.5 L24,123.5 L24,127.5 L27,127.5 L27,123.5 Z M27,129.5 L24,129.5 L24,133.5 L27,133.5 L27,129.5 Z M27,135.5 L24,135.5 L24,139.5 L27,139.5 L27,135.5 Z" id="Line-Copy-3" fill="#1F342D" fill-rule="nonzero" />
                    <path d="M6.36962891,6 L5.17333984,0.989257812 L6.20898438,0.989257812 L6.96435547,4.43115234 L7.88037109,0.989257812 L9.08349609,0.989257812 L9.96191406,4.48925781 L10.730957,0.989257812 L11.7495117,0.989257812 L10.5327148,6 L9.45947266,6 L8.46142578,2.25390625 L7.46679688,6 L6.36962891,6 Z M16.3979492,6 L15.2973633,6 L14.8598633,4.86181641 L12.8569336,4.86181641 L12.4433594,6 L11.3701172,6 L13.3217773,0.989257812 L14.3916016,0.989257812 L16.3979492,6 Z M14.5351562,4.01757812 L13.8447266,2.15820312 L13.1679688,4.01757812 L14.5351562,4.01757812 Z M17.6933594,6 L15.9023438,0.989257812 L16.9995117,0.989257812 L18.2675781,4.69775391 L19.4946289,0.989257812 L20.5678711,0.989257812 L18.7734375,6 L17.6933594,6 Z M21.0839844,6 L21.0839844,0.989257812 L24.7993164,0.989257812 L24.7993164,1.83691406 L22.0957031,1.83691406 L22.0957031,2.94775391 L24.6113281,2.94775391 L24.6113281,3.79199219 L22.0957031,3.79199219 L22.0957031,5.15576172 L24.8950195,5.15576172 L24.8950195,6 L21.0839844,6 Z M25.7597656,6 L25.7597656,0.989257812 L29.1948242,0.989257812 L29.1948242,1.83691406 L26.7714844,1.83691406 L26.7714844,3.02294922 L28.8632812,3.02294922 L28.8632812,3.87060547 L26.7714844,3.87060547 L26.7714844,6 L25.7597656,6 Z M29.8237305,3.52539062 C29.8237305,3.01497141 29.9000643,2.58659027 30.0527344,2.24023438 C30.1666672,1.98502477 30.3221833,1.75602315 30.5192871,1.55322266 C30.716391,1.35042216 30.9322905,1.20003304 31.1669922,1.10205078 C31.4791682,0.969888662 31.8391907,0.903808594 32.2470703,0.903808594 C32.9853553,0.903808594 33.5760883,1.13281021 34.0192871,1.59082031 C34.4624859,2.04883042 34.684082,2.68570556 34.684082,3.50146484 C34.684082,4.31038816 34.4641949,4.94327571 34.0244141,5.40014648 C33.5846332,5.85701726 32.9967485,6.08544922 32.2607422,6.08544922 C31.5156213,6.08544922 30.9231793,5.85815657 30.4833984,5.40356445 C30.0436176,4.94897234 29.8237305,4.32292065 29.8237305,3.52539062 Z M30.8662109,3.49121094 C30.8662109,4.05859659 30.9972318,4.48868669 31.2592773,4.78149414 C31.5213229,5.07430159 31.8540019,5.22070312 32.2573242,5.22070312 C32.6606465,5.22070312 32.9916165,5.07544091 33.2502441,4.78491211 C33.5088717,4.49438331 33.6381836,4.05859666 33.6381836,3.47753906 C33.6381836,2.90331744 33.5122897,2.47493631 33.260498,2.19238281 C33.0087064,1.90982932 32.6743185,1.76855469 32.2573242,1.76855469 C31.8403299,1.76855469 31.504233,1.91153828 31.2490234,2.19750977 C30.9938138,2.48348125 30.8662109,2.91471066 30.8662109,3.49121094 Z M35.4770508,6 L35.4770508,0.989257812 L37.6064453,0.989257812 C38.1419298,0.989257812 38.5310046,1.03426062 38.7736816,1.12426758 C39.0163586,1.21427454 39.2106112,1.37434781 39.3564453,1.60449219 C39.5022794,1.83463657 39.5751953,2.09781753 39.5751953,2.39404297 C39.5751953,2.77002141 39.4646821,3.0804838 39.2436523,3.32543945 C39.0226226,3.5703951 38.6922223,3.72477182 38.2524414,3.78857422 C38.4711925,3.91617902 38.6517734,4.05631434 38.7941895,4.20898438 C38.9366055,4.36165441 39.1285795,4.63281055 39.3701172,5.02246094 L39.9819336,6 L38.7719727,6 L37.8610835,4.64445421 C37.6970209,4.40626435 37.5791019,4.24914589 37.5073242,4.1730957 C37.4116206,4.07169546 37.3102219,4.00219745 37.203125,3.96459961 C37.1174475,3.93452133 36.9916672,3.91647455 36.8257816,3.91045897 L36.4887695,3.90820312 L36.4887695,6 L35.4770508,6 Z M36.4887695,1.83691406 L36.4887695,3.10839844 L37.2373047,3.10839844 C37.7226587,3.10839844 38.0257155,3.08789083 38.1464844,3.046875 C38.2672532,3.00585917 38.3618161,2.93522186 38.4301758,2.83496094 C38.4985355,2.73470002 38.5327148,2.60937575 38.5327148,2.45898438 C38.5327148,2.29036374 38.487712,2.15421601 38.3977051,2.05053711 C38.3076981,1.94685821 38.1806649,1.88134779 38.0166016,1.85400391 C37.9550778,1.84545894 37.8012705,1.84011839 37.5551766,1.83798217 L36.4887695,1.83691406 Z M40.5151367,6 L40.5151367,0.989257812 L42.0292969,0.989257812 L42.9384766,4.40722656 L43.8374023,0.989257812 L45.3549805,0.989257812 L45.3549805,6 L44.4150391,6 L44.4150391,2.05566406 L43.4204102,6 L42.4462891,6 L41.4550781,2.05566406 L41.4550781,6 L40.5151367,6 Z" id="WAVEFORM" fill="#1F342D" fill-rule="nonzero" />
                </g>
                <g id="channels-bg">
                    <rect id="Rectangle" fill="#CBDED3" x="0" y="9" width="50" height="152" rx="3" />
                    <path d="M27,39 L24,39 L24,43 L27,43 L27,39 Z M27,45 L24,45 L24,49 L27,49 L27,45 Z M27,51 L24,51 L24,55 L27,55 L27,51 Z M27,57 L24,57 L24,61 L27,61 L27,57 Z M27,63 L24,63 L24,67 L27,67 L27,63 Z M27,69 L24,69 L24,73 L27,73 L27,69 Z M27,75 L24,75 L24,79 L27,79 L27,75 Z M27,81 L24,81 L24,85 L27,85 L27,81 Z M27,87 L24,87 L24,91 L27,91 L27,87 Z M27,93 L24,93 L24,97 L27,97 L27,93 Z M27,99 L24,99 L24,103 L27,103 L27,99 Z M27,105 L24,105 L24,109 L27,109 L27,105 Z M27,111 L24,111 L24,115 L27,115 L27,111 Z M27,117 L24,117 L24,121 L27,121 L27,117 Z M27,123 L24,123 L24,127 L27,127 L27,123 Z M27,129 L24,129 L24,133 L27,133 L27,129 Z M27,135 L24,135 L24,139 L27,139 L27,135 Z" id="Line-Copy-2" fill="#1F342D" fill-rule="nonzero" />
                    <path d="M9.27050781,4.15771484 L10.2514648,4.46875 C10.1010735,5.01562773 9.85099459,5.42179229 9.5012207,5.68725586 C9.15144682,5.95271943 8.70768498,6.08544922 8.16992188,6.08544922 C7.50455396,6.08544922 6.95768443,5.85815657 6.52929688,5.40356445 C6.10090932,4.94897234 5.88671875,4.3274779 5.88671875,3.5390625 C5.88671875,2.70507396 6.10204863,2.05737535 6.53271484,1.59594727 C6.96338106,1.13451918 7.52961889,0.903808594 8.23144531,0.903808594 C8.84440411,0.903808594 9.34228324,1.08495913 9.72509766,1.44726562 C9.95296338,1.6614594 10.1238601,1.96907352 10.237793,2.37011719 L9.23632812,2.609375 C9.17708304,2.34960808 9.05346774,2.144532 8.86547852,1.99414062 C8.67748929,1.84374925 8.44905733,1.76855469 8.18017578,1.76855469 C7.80875465,1.76855469 7.50740676,1.90185414 7.27612305,2.16845703 C7.04483934,2.43505993 6.92919922,2.86685899 6.92919922,3.46386719 C6.92919922,4.0973339 7.04313037,4.54850126 7.27099609,4.81738281 C7.49886182,5.08626437 7.79508281,5.22070312 8.15966797,5.22070312 C8.42854952,5.22070312 8.65982976,5.13525476 8.85351562,4.96435547 C9.04720149,4.79345618 9.1861975,4.52457866 9.27050781,4.15771484 Z M11.1230469,6 L11.1230469,0.989257812 L12.1347656,0.989257812 L12.1347656,2.96142578 L14.1171875,2.96142578 L14.1171875,0.989257812 L15.1289062,0.989257812 L15.1289062,6 L14.1171875,6 L14.1171875,3.80908203 L12.1347656,3.80908203 L12.1347656,6 L11.1230469,6 Z M20.6933594,6 L19.5927734,6 L19.1552734,4.86181641 L17.1523438,4.86181641 L16.7387695,6 L15.6655273,6 L17.6171875,0.989257812 L18.6870117,0.989257812 L20.6933594,6 Z M18.8305664,4.01757812 L18.1401367,2.15820312 L17.4633789,4.01757812 L18.8305664,4.01757812 Z M21.2402344,6 L21.2402344,0.989257812 L22.2246094,0.989257812 L24.2753906,4.33544922 L24.2753906,0.989257812 L25.215332,0.989257812 L25.215332,6 L24.2001953,6 L22.1801758,2.73242188 L22.1801758,6 L21.2402344,6 Z M26.2954102,6 L26.2954102,0.989257812 L27.2797852,0.989257812 L29.3305664,4.33544922 L29.3305664,0.989257812 L30.2705078,0.989257812 L30.2705078,6 L29.2553711,6 L27.2353516,2.73242188 L27.2353516,6 L26.2954102,6 Z M31.340332,6 L31.340332,0.989257812 L35.0556641,0.989257812 L35.0556641,1.83691406 L32.3520508,1.83691406 L32.3520508,2.94775391 L34.8676758,2.94775391 L34.8676758,3.79199219 L32.3520508,3.79199219 L32.3520508,5.15576172 L35.1513672,5.15576172 L35.1513672,6 L31.340332,6 Z M36.0366211,6 L36.0366211,1.03027344 L37.0483398,1.03027344 L37.0483398,5.15576172 L39.5639648,5.15576172 L39.5639648,6 L36.0366211,6 Z M40.0288086,4.36962891 L41.0131836,4.27392578 C41.0724287,4.60433108 41.192626,4.84700443 41.3737793,5.00195312 C41.5549325,5.15690182 41.7993149,5.234375 42.1069336,5.234375 C42.4327816,5.234375 42.6783032,5.16544665 42.8435059,5.02758789 C43.0087085,4.88972913 43.0913086,4.72851655 43.0913086,4.54394531 C43.0913086,4.42545514 43.0565596,4.32462607 42.9870605,4.24145508 C42.9175615,4.15828409 42.7962248,4.08593781 42.6230469,4.02441406 L42.4258197,3.96481328 L42.4258197,3.96481328 L41.8129883,3.80566406 C41.2706679,3.67122329 40.8901378,3.50602312 40.6713867,3.31005859 C40.363768,3.03434107 40.2099609,2.69824417 40.2099609,2.30175781 C40.2099609,2.0465482 40.2823072,1.80786244 40.427002,1.58569336 C40.5716967,1.36352428 40.7801907,1.19433652 41.0524902,1.078125 C41.3247898,0.961913481 41.6534811,0.903808594 42.0385742,0.903808594 C42.6674836,0.903808594 43.1408676,1.04166529 43.4587402,1.31738281 C43.7766129,1.59310034 43.9435221,1.96109796 43.9594727,2.42138672 L42.9477539,2.46582031 C42.9044594,2.20833205 42.8116055,2.02319392 42.6691895,1.91040039 C42.5267734,1.79760686 42.3131525,1.74121094 42.0283203,1.74121094 C41.7343735,1.74121094 41.5042326,1.80159445 41.3378906,1.92236328 C41.2307937,1.99983763 41.1772461,2.10351498 41.1772461,2.23339844 C41.1772461,2.35188861 41.2273758,2.45328734 41.3276367,2.53759766 C41.4392909,2.63130743 41.6905093,2.72850512 42.0812981,2.82919297 L42.2573242,2.87255859 C42.7495142,2.98877011 43.1135242,3.10896748 43.3493652,3.2331543 C43.5852063,3.35734112 43.7697747,3.52709853 43.9030762,3.74243164 C44.0363776,3.95776475 44.1030273,4.22379399 44.1030273,4.54052734 C44.1030273,4.82763815 44.0232755,5.09651567 43.8637695,5.34716797 C43.7042635,5.59782026 43.4786798,5.7840977 43.1870117,5.90600586 C42.8953436,6.02791402 42.5319032,6.08886719 42.0966797,6.08886719 C41.463213,6.08886719 40.976727,5.94246566 40.637207,5.6496582 C40.2976871,5.35685075 40.0948897,4.93017858 40.0288086,4.36962891 Z" id="CHANNELS" fill="#1F342D" fill-rule="nonzero" />
                </g>
            </g>
        </g>
    </g>

<g id="ArhythmeticUnits" transform="translate(194.772300 366.882000)" fill="#1F342D">
<g fill-rule="evenodd">
<path d="M 11.3938 0 L 11.3938 9.1846 C 11.3938 10.3237 10.4703 11.2471 9.331 11.2471 L 0 11.2471 L 0 0 L 11.3938 0 Z M 10.5444 0.8493 L 0.8494 0.8493 L 0.8494 10.3978 L 9.331 10.3978 C 9.9945 10.3978 10.5335 9.8654 10.5443 9.2046 L 10.5444 9.1846 L 10.5444 0.8493 Z" />
<path d="M 2.5213 1.3424 C 3.1848 1.3424 3.7227 1.8803 3.7227 2.5439 C 3.7227 3.2074 3.1848 3.7453 2.5213 3.7453 C 1.8578 3.7453 1.3199 3.2074 1.3199 2.5439 C 1.3199 1.8803 1.8578 1.3424 2.5213 1.3424 Z M 2.5213 2.0706 C 2.2599 2.0706 2.048 2.2825 2.048 2.5439 C 2.048 2.8053 2.2599 3.0171 2.5213 3.0171 C 2.7827 3.0171 2.9946 2.8053 2.9946 2.5439 C 2.9946 2.2825 2.7827 2.0706 2.5213 2.0706 Z" />
<path d="M 2.5213 7.5019 C 3.1848 7.5019 3.7227 8.0397 3.7227 8.7033 C 3.7227 9.3668 3.1848 9.9047 2.5213 9.9047 C 1.8578 9.9047 1.3199 9.3668 1.3199 8.7033 C 1.3199 8.0397 1.8578 7.5019 2.5213 7.5019 Z M 2.5213 8.23 C 2.2599 8.23 2.048 8.4419 2.048 8.7033 C 2.048 8.9647 2.2599 9.1766 2.5213 9.1766 C 2.7827 9.1766 2.9946 8.9647 2.9946 8.7033 C 2.9946 8.4419 2.7827 8.23 2.5213 8.23 Z" />
<path d="M 8.8725 7.5019 C 9.536 7.5019 10.0739 8.0397 10.0739 8.7033 C 10.0739 9.3668 9.536 9.9047 8.8725 9.9047 C 8.209 9.9047 7.6711 9.3668 7.6711 8.7033 C 7.6711 8.0397 8.209 7.5019 8.8725 7.5019 Z M 8.8725 8.23 C 8.6111 8.23 8.3992 8.4419 8.3992 8.7033 C 8.3992 8.9647 8.6111 9.1766 8.8725 9.1766 C 9.1339 9.1766 9.3458 8.9647 9.3458 8.7033 C 9.3458 8.4419 9.1339 8.23 8.8725 8.23 Z" />
<path d="M 8.8725 1.3424 C 9.536 1.3424 10.0739 1.8803 10.0739 2.5439 C 10.0739 3.2074 9.536 3.7453 8.8725 3.7453 C 8.209 3.7453 7.6711 3.2074 7.6711 2.5439 C 7.6711 1.8803 8.209 1.3424 8.8725 1.3424 Z M 8.8725 2.0706 C 8.6111 2.0706 8.3992 2.2825 8.3992 2.5439 C 8.3992 2.8053 8.6111 3.0171 8.8725 3.0171 C 9.1339 3.0171 9.3458 2.8053 9.3458 2.5439 C 9.3458 2.2825 9.1339 2.0706 8.8725 2.0706 Z" />
<path d="M 3.306 2.7131 L 3.5848 2.9926 L 8.4357 7.8547 L 8.7145 8.1342 L 8.1555 8.692 L 7.8766 8.4125 L 3.0258 3.5503 L 2.7469 3.2708 Z" />
<circle cx="2.5213" cy="5.7025" r="1.2014" />
<circle cx="5.601" cy="8.7033" r="1.2014" />
<circle cx="8.8725" cy="5.7025" r="1.2014" />
<circle cx="5.7364" cy="2.5439" r="1.2014" />
<g transform="translate(12.9457, 0.3808)">
<path d="M 4.9031 5.2339 L 4.0079 2.8453 L 3.1128 5.2339 L 4.9031 5.2339 Z M 5.4321 6.6518 L 2.5838 6.6518 L 2.126 7.8984 L 0 7.8984 L 2.9195 0.7232 L 5.0964 0.7232 L 8.0159 7.8984 L 5.8898 7.8984 L 5.4321 6.6518 Z" />
<path d="M 9.5193 3.0166 L 11.3605 3.0166 L 11.3605 3.816 C 11.5572 3.5241 11.7979 3.3005 12.0828 3.1451 C 12.3676 2.9897 12.6999 2.9119 13.0797 2.9119 C 13.1271 2.9119 13.1797 2.9119 13.2373 2.9119 C 13.295 2.9119 13.3611 2.9183 13.4357 2.931 L 13.4357 4.5773 C 13.1916 4.4631 12.9271 4.406 12.6422 4.406 C 12.215 4.406 11.8946 4.5249 11.6809 4.7628 C 11.4673 5.0007 11.3605 5.3481 11.3605 5.8048 L 11.3605 7.8984 L 9.5193 7.8984 L 9.5193 3.0166 Z" />
<path d="M 14.9493 0 L 16.7905 0 L 16.7905 3.6352 C 17.0414 3.3497 17.2957 3.1578 17.5534 3.0594 C 17.8111 2.9611 18.1129 2.9119 18.4588 2.9119 C 19.1166 2.9119 19.6134 3.0816 19.9491 3.421 C 20.2847 3.7605 20.4526 4.2188 20.4526 4.7961 L 20.4526 7.8984 L 18.6114 7.8984 L 18.6114 5.4337 C 18.6114 5.1863 18.591 4.9865 18.5503 4.8342 C 18.5097 4.6819 18.4418 4.5646 18.3469 4.4821 C 18.1841 4.3489 17.9875 4.2823 17.7569 4.2823 C 17.4449 4.2823 17.2059 4.3695 17.0397 4.544 C 16.8736 4.7184 16.7905 4.9674 16.7905 5.291 L 16.7905 7.8984 L 14.9493 7.8984 L 14.9493 0 Z" />
<path d="M 27.5342 8.721 L 107.4925 8.721 L 107.4925 10.3339 L 26.458 10.3339 Z" />
<path d="M 0.0442 10.3339 L 0.0442 8.721 L 23.2272 8.7206 L 24.0821 7.2323 L 21.5593 3.0166 L 23.6955 3.0166 L 25.0891 5.5194 L 26.4421 3.0166 L 28.5579 3.0166 L 24.3669 10.3345 L 0.0442 10.3339 Z" />
<path d="M 31.9331 4.4535 L 31.9331 7.8984 L 30.0919 7.8984 L 30.0919 4.4535 L 29.4816 4.4535 L 29.4816 3.0166 L 30.0919 3.0166 L 30.0919 1.5511 L 31.9331 1.5511 L 31.9331 3.0166 L 32.9809 3.0166 L 32.9809 4.4535 Z" />
<path d="M 34.5962 0 L 36.4374 0 L 36.4374 3.6352 C 36.6883 3.3497 36.9426 3.1578 37.2003 3.0594 C 37.458 2.9611 37.7598 2.9119 38.1057 2.9119 C 38.7635 2.9119 39.2603 3.0816 39.5959 3.421 C 39.9316 3.7605 40.0995 4.2188 40.0995 4.7961 L 40.0995 7.8984 L 38.2583 7.8984 L 38.2583 5.4337 C 38.2583 5.1863 38.2379 4.9865 38.1972 4.8342 C 38.1566 4.6819 38.0887 4.5646 37.9938 4.4821 C 37.831 4.3489 37.6344 4.2823 37.4038 4.2823 C 37.0918 4.2823 36.8528 4.3695 36.6866 4.544 C 36.5205 4.7184 36.4374 4.9674 36.4374 5.291 L 36.4374 7.8984 L 34.5962 7.8984 L 34.5962 0 Z" />
<path d="M 42.0403 3.0166 L 43.8816 3.0166 L 43.8816 3.6161 C 44.3834 3.1657 44.9463 2.9405 45.5702 2.9405 C 46.3433 2.9405 46.9333 3.245 47.3402 3.854 C 47.7539 3.2387 48.3439 2.931 49.1102 2.931 C 49.3543 2.931 49.5849 2.9643 49.8019 3.0309 C 50.0189 3.0975 50.2054 3.2022 50.3614 3.3449 C 50.5174 3.4877 50.6411 3.6732 50.7327 3.9016 C 50.8242 4.13 50.87 4.406 50.87 4.7295 L 50.87 7.8984 L 49.0288 7.8984 L 49.0288 5.4908 C 49.0288 5.2434 49.0101 5.0404 48.9728 4.8818 C 48.9355 4.7232 48.8813 4.5995 48.8101 4.5106 C 48.7389 4.4218 48.6558 4.3616 48.5609 4.3298 C 48.4659 4.2981 48.3642 4.2823 48.2557 4.2823 C 47.6657 4.2823 47.3707 4.6851 47.3707 5.4908 L 47.3707 7.8984 L 45.5295 7.8984 L 45.5295 5.4908 C 45.5295 5.2434 45.5125 5.0388 45.4786 4.877 C 45.4447 4.7152 45.3955 4.5868 45.3311 4.4916 C 45.2667 4.3965 45.1836 4.3314 45.0819 4.2965 C 44.9802 4.2616 44.8615 4.2442 44.7259 4.2442 C 44.6106 4.2442 44.5021 4.2601 44.4003 4.2918 C 44.2986 4.3235 44.2088 4.3853 44.1308 4.4773 C 44.0528 4.5693 43.9918 4.6962 43.9477 4.858 C 43.9036 5.0198 43.8816 5.2307 43.8816 5.4908 L 43.8816 7.8984 L 42.0403 7.8984 L 42.0403 3.0166 Z" />
<path d="M 56.6357 4.7485 C 56.5747 4.5075 56.4492 4.314 56.2593 4.1681 C 56.0694 4.0222 55.8389 3.9492 55.5676 3.9492 C 55.2828 3.9492 55.0505 4.019 54.8708 4.1585 C 54.6911 4.2981 54.5775 4.4948 54.53 4.7485 L 56.6357 4.7485 Z M 54.4791 5.7477 C 54.4791 6.49 54.8521 6.8611 55.5981 6.8611 C 55.9982 6.8611 56.3 6.7089 56.5034 6.4044 L 58.2836 6.4044 C 57.9242 7.5209 57.0256 8.0792 55.5879 8.0792 C 55.1471 8.0792 54.7436 8.0173 54.3774 7.8936 C 54.0112 7.7699 53.6976 7.5939 53.4365 7.3655 C 53.1754 7.1371 52.9736 6.8643 52.8312 6.5471 C 52.6888 6.2299 52.6176 5.8746 52.6176 5.4813 C 52.6176 5.0753 52.6854 4.7089 52.821 4.3822 C 52.9567 4.0555 53.1499 3.7779 53.4009 3.5495 C 53.6518 3.3211 53.9553 3.1451 54.3113 3.0214 C 54.6673 2.8977 55.0691 2.8358 55.5167 2.8358 C 55.9575 2.8358 56.3543 2.8977 56.7069 3.0214 C 57.0595 3.1451 57.3579 3.3243 57.6021 3.559 C 57.8462 3.7938 58.0327 4.0808 58.1616 4.4202 C 58.2904 4.7597 58.3548 5.1419 58.3548 5.5669 L 58.3548 5.7477 L 54.4791 5.7477 Z" />
<path d="M 62.2183 4.4535 L 62.2183 7.8984 L 60.3771 7.8984 L 60.3771 4.4535 L 59.7667 4.4535 L 59.7667 3.0166 L 60.3771 3.0166 L 60.3771 1.5511 L 62.2183 1.5511 L 62.2183 3.0166 L 63.266 3.0166 L 63.266 4.4535 Z" />
<path d="M 66.631 3.0166 L 66.631 7.8984 L 64.7898 7.8984 L 64.7898 3.0166 L 66.631 3.0166 Z M 64.6678 1.1419 C 64.6678 1.0087 64.6949 0.8834 64.7491 0.766 C 64.8034 0.6487 64.878 0.5456 64.9729 0.4568 C 65.0679 0.368 65.1781 0.2982 65.3035 0.2474 C 65.429 0.1967 65.5629 0.1713 65.7053 0.1713 C 65.8478 0.1713 65.9817 0.1967 66.1072 0.2474 C 66.2326 0.2982 66.3428 0.368 66.4378 0.4568 C 66.5327 0.5456 66.6073 0.6487 66.6616 0.766 C 66.7158 0.8834 66.7429 1.0087 66.7429 1.1419 C 66.7429 1.2752 66.7158 1.4005 66.6616 1.5178 C 66.6073 1.6352 66.5327 1.7383 66.4378 1.8271 C 66.3428 1.9159 66.2326 1.9857 66.1072 2.0365 C 65.9817 2.0872 65.8478 2.1126 65.7053 2.1126 C 65.5629 2.1126 65.429 2.0872 65.3035 2.0365 C 65.1781 1.9857 65.0679 1.9159 64.9729 1.8271 C 64.878 1.7383 64.8034 1.6352 64.7491 1.5178 C 64.6949 1.4005 64.6678 1.2752 64.6678 1.1419 Z" />
<path d="M 72.5188 4.5963 C 72.2001 4.3933 71.8779 4.2918 71.5524 4.2918 C 71.3761 4.2918 71.2116 4.3203 71.0591 4.3774 C 70.9065 4.4345 70.7725 4.5154 70.6572 4.6201 C 70.542 4.7248 70.4521 4.8485 70.3877 4.9912 C 70.3232 5.134 70.291 5.2941 70.291 5.4718 C 70.291 5.6431 70.3232 5.8001 70.3877 5.9428 C 70.4521 6.0856 70.5403 6.2093 70.6522 6.314 C 70.7641 6.4186 70.898 6.4995 71.054 6.5566 C 71.2099 6.6137 71.3761 6.6423 71.5524 6.6423 C 71.8983 6.6423 72.2204 6.5312 72.5188 6.3092 L 72.5188 7.7747 C 72.0644 7.9587 71.6338 8.0506 71.2269 8.0506 C 70.8471 8.0506 70.486 7.9904 70.1435 7.8698 C 69.8011 7.7493 69.4993 7.5764 69.2382 7.3512 C 68.9771 7.126 68.7686 6.8564 68.6126 6.5423 C 68.4566 6.2283 68.3786 5.8778 68.3786 5.4908 C 68.3786 5.1038 68.4532 4.7501 68.6024 4.4298 C 68.7516 4.1094 68.9551 3.8334 69.2128 3.6019 C 69.4705 3.3703 69.7773 3.1895 70.1334 3.0594 C 70.4894 2.9294 70.8709 2.8644 71.2778 2.8644 C 71.7253 2.8644 72.139 2.9532 72.5188 3.1308 L 72.5188 4.5963 Z" />
<path d="M 80.5712 0.7232 L 80.5712 4.6248 C 80.5712 4.8342 80.5797 5.0483 80.5966 5.2672 C 80.6136 5.486 80.6645 5.6843 80.7492 5.8619 C 80.834 6.0396 80.9679 6.1839 81.151 6.2949 C 81.3341 6.4059 81.5918 6.4615 81.9241 6.4615 C 82.2564 6.4615 82.5124 6.4059 82.6922 6.2949 C 82.8719 6.1839 83.0058 6.0396 83.094 5.8619 C 83.1821 5.6843 83.2347 5.486 83.2516 5.2672 C 83.2686 5.0483 83.2771 4.8342 83.2771 4.6248 L 83.2771 0.7232 L 85.2607 0.7232 L 85.2607 4.8818 C 85.2607 5.9983 84.9877 6.8135 84.4418 7.3274 C 83.8959 7.8413 83.0567 8.0982 81.9241 8.0982 C 80.7916 8.0982 79.9507 7.8413 79.4014 7.3274 C 78.8521 6.8135 78.5774 5.9983 78.5774 4.8818 L 78.5774 0.7232 L 80.5712 0.7232 Z" />
<path d="M 87.4966 3.0166 L 89.3378 3.0166 L 89.3378 3.6352 C 89.5887 3.3497 89.843 3.1578 90.1007 3.0594 C 90.3584 2.9611 90.6602 2.9119 91.006 2.9119 C 91.3722 2.9119 91.6859 2.9674 91.947 3.0785 C 92.2081 3.1895 92.4302 3.3465 92.6133 3.5495 C 92.7625 3.7145 92.8642 3.8984 92.9184 4.1015 C 92.9727 4.3045 92.9998 4.536 92.9998 4.7961 L 92.9998 7.8984 L 91.1586 7.8984 L 91.1586 5.4337 C 91.1586 5.1926 91.14 4.9976 91.1027 4.8485 C 91.0654 4.6994 90.9993 4.5804 90.9043 4.4916 C 90.8229 4.4155 90.7314 4.3616 90.6297 4.3298 C 90.5279 4.2981 90.4194 4.2823 90.3041 4.2823 C 89.9922 4.2823 89.7531 4.3695 89.587 4.544 C 89.4208 4.7184 89.3378 4.9674 89.3378 5.291 L 89.3378 7.8984 L 87.4966 7.8984 L 87.4966 3.0166 Z" />
<path d="M 96.7819 3.0166 L 96.7819 7.8984 L 94.9407 7.8984 L 94.9407 3.0166 L 96.7819 3.0166 Z M 94.8186 1.1419 C 94.8186 1.0087 94.8457 0.8834 94.9 0.766 C 94.9543 0.6487 95.0289 0.5456 95.1238 0.4568 C 95.2187 0.368 95.3289 0.2982 95.4544 0.2474 C 95.5799 0.1967 95.7138 0.1713 95.8562 0.1713 C 95.9986 0.1713 96.1326 0.1967 96.258 0.2474 C 96.3835 0.2982 96.4937 0.368 96.5886 0.4568 C 96.6836 0.5456 96.7582 0.6487 96.8124 0.766 C 96.8667 0.8834 96.8938 1.0087 96.8938 1.1419 C 96.8938 1.2752 96.8667 1.4005 96.8124 1.5178 C 96.7582 1.6352 96.6836 1.7383 96.5886 1.8271 C 96.4937 1.9159 96.3835 1.9857 96.258 2.0365 C 96.1326 2.0872 95.9986 2.1126 95.8562 2.1126 C 95.7138 2.1126 95.5799 2.0872 95.4544 2.0365 C 95.3289 1.9857 95.2187 1.9159 95.1238 1.8271 C 95.0289 1.7383 94.9543 1.6352 94.9 1.5178 C 94.8457 1.4005 94.8186 1.2752 94.8186 1.1419 Z" />
<path d="M 100.7878 4.4535 L 100.7878 7.8984 L 98.9466 7.8984 L 98.9466 4.4535 L 98.3362 4.4535 L 98.3362 3.0166 L 98.9466 3.0166 L 98.9466 1.5511 L 100.7878 1.5511 L 100.7878 3.0166 L 101.8355 3.0166 L 101.8355 4.4535 Z" />
<path d="M 106.7264 4.2727 C 106.3873 4.1078 106.055 4.0253 105.7295 4.0253 C 105.5599 4.0253 105.4226 4.057 105.3175 4.1205 C 105.2124 4.1839 105.1598 4.2696 105.1598 4.3774 C 105.1598 4.4345 105.1683 4.4805 105.1853 4.5154 C 105.2022 4.5503 105.2395 4.5836 105.2972 4.6153 C 105.3548 4.647 105.4396 4.6756 105.5515 4.701 C 105.6634 4.7263 105.8109 4.7581 105.994 4.7961 C 106.5026 4.8913 106.8824 5.061 107.1333 5.3052 C 107.3842 5.5495 107.5097 5.8619 107.5097 6.2426 C 107.5097 6.5281 107.4486 6.785 107.3266 7.0134 C 107.2045 7.2418 107.0349 7.4337 106.8179 7.5891 C 106.6009 7.7445 106.3398 7.8651 106.0347 7.9507 C 105.7295 8.0364 105.3938 8.0792 105.0276 8.0792 C 104.3223 8.0792 103.6272 7.892 102.9422 7.5177 L 103.6136 6.2997 C 104.129 6.6296 104.6173 6.7945 105.0784 6.7945 C 105.248 6.7945 105.387 6.7596 105.4955 6.6898 C 105.604 6.6201 105.6583 6.5312 105.6583 6.4234 C 105.6583 6.3599 105.6498 6.3076 105.6328 6.2664 C 105.6159 6.2251 105.5803 6.1871 105.526 6.1522 C 105.4718 6.1173 105.3921 6.0856 105.287 6.057 C 105.1819 6.0285 105.0445 5.9983 104.875 5.9666 C 104.3053 5.8588 103.9069 5.6986 103.6797 5.486 C 103.4526 5.2735 103.339 4.9801 103.339 4.6058 C 103.339 4.333 103.3932 4.0872 103.5017 3.8683 C 103.6102 3.6494 103.7662 3.4639 103.9697 3.3116 C 104.1731 3.1594 104.4189 3.042 104.7072 2.9595 C 104.9954 2.877 105.3158 2.8358 105.6684 2.8358 C 106.2449 2.8358 106.8044 2.9405 107.3469 3.1498 L 106.7264 4.2727 Z" />
</g>
</g>
</g>
<g id="rebrand-title" fill="#237A67" fill-rule="nonzero"><title>Octal 163</title><path d="M69.48242,35.10742Q69.48242,43.16406 67.08984,49.75586Q64.69727,56.34766 60.20508,61.03516Q55.71289,65.72266 49.24316,68.26172Q42.77344,70.80078 34.61914,70.80078Q25.97656,70.80078 19.50684,68.13965Q13.03711,65.47852 8.69141,60.71777Q4.34570,55.95703 2.17285,49.41406Q0.00000,42.87109 0.00000,35.10742Q0.00000,27.05078 2.27051,20.55664Q4.54102,14.06250 8.95996,9.49707Q13.37891,4.93164 19.84863,2.46582Q26.31836,0.00000 34.71680,0.00000Q43.11523,0.00000 49.58496,2.49023Q56.05469,4.98047 60.47363,9.57031Q64.89258,14.16016 67.18750,20.62988Q69.48242,27.09961 69.48242,35.10742ZM54.78516,35.10742Q54.78516,29.68750 53.49121,25.31738Q52.19727,20.94727 49.65820,17.82227Q47.11914,14.69727 43.38379,13.01270Q39.64844,11.32812 34.71680,11.32812Q29.68750,11.32812 25.90332,13.01270Q22.11914,14.69727 19.58008,17.82227Q17.04102,20.94727 15.77148,25.31738Q14.50195,29.68750 14.50195,35.10742Q14.50195,40.47852 15.79590,44.94629Q17.08984,49.41406 19.62891,52.63672Q22.16797,55.85938 25.92773,57.66602Q29.68750,59.47266 34.61914,59.47266Q39.89258,59.47266 43.70117,57.64160Q47.50977,55.81055 49.97559,52.56348Q52.44141,49.31641 53.61328,44.84863Q54.78516,40.38086 54.78516,35.10742ZM112.50000,59.47266Q116.55273,59.47266 119.50684,58.32520Q122.46094,57.17773 124.63379,55.32227Q126.80664,53.46680 128.24707,51.12305Q129.68750,48.77930 130.61523,46.38672L143.16406,51.12305Q141.65039,54.83398 139.20898,58.39844Q136.76758,61.96289 133.10547,64.69727Q129.44336,67.43164 124.38965,69.11621Q119.33594,70.80078 112.50000,70.80078Q103.56445,70.80078 97.02148,68.13965Q90.47852,65.47852 86.20605,60.71777Q81.93359,55.95703 79.85840,49.41406Q77.78320,42.87109 77.78320,35.10742Q77.78320,27.05078 79.85840,20.55664Q81.93359,14.06250 86.13281,9.49707Q90.33203,4.93164 96.75293,2.46582Q103.17383,0.00000 111.86523,0.00000Q118.60352,0.00000 123.65723,1.41602Q128.71094,2.83203 132.39746,5.39551Q136.08398,7.95898 138.50098,11.45020Q140.91797,14.94141 142.28516,19.14062L129.58984,22.60742Q128.90625,20.41016 127.49023,18.38379Q126.07422,16.35742 123.90137,14.79492Q121.72852,13.23242 118.79883,12.28027Q115.86914,11.32812 112.15820,11.32812Q106.93359,11.32812 103.17383,13.01270Q99.41406,14.69727 96.99707,17.82227Q94.58008,20.94727 93.43262,25.31738Q92.28516,29.68750 92.28516,35.10742Q92.28516,40.47852 93.43262,44.94629Q94.58008,49.41406 97.02148,52.63672Q99.46289,55.85938 103.29590,57.66602Q107.12891,59.47266 112.50000,59.47266ZM183.64258,12.15820L183.64258,69.82422L169.23828,69.82422L169.23828,12.15820L147.02148,12.15820L147.02148,1.02539L205.90820,1.02539L205.90820,12.15820ZM254.88281,69.82422L248.77930,52.24609L222.55859,52.24609L216.45508,69.82422L202.05078,69.82422L227.14844,1.02539L244.14062,1.02539L269.14062,69.82422ZM238.76953,21.63086Q238.18359,19.92188 237.62207,18.18848Q237.06055,16.45508 236.64551,15.01465Q236.23047,13.57422 235.96191,12.64648Q235.69336,11.71875 235.64453,11.62109Q235.59570,11.76758 235.35156,12.69531Q235.10742,13.62305 234.69238,15.03906Q234.27734,16.45508 233.71582,18.18848Q233.15430,19.92188 232.56836,21.63086L225.78125,41.40625L245.55664,41.40625ZM278.46680,69.82422L278.46680,1.02539L292.87109,1.02539L292.87109,58.69141L329.78516,58.69141L329.78516,69.82422ZM365.13672,69.82422L365.13672,59.61914L382.17773,59.61914L382.17773,12.69531L365.67383,22.99805L365.67383,12.20703L382.91016,1.02539L395.89844,1.02539L395.89844,59.61914L411.66992,59.61914L411.66992,69.82422ZM466.45508,47.31445Q466.45508,52.49023 464.99023,56.81152Q463.52539,61.13281 460.62012,64.23340Q457.71484,67.33398 453.36914,69.06738Q449.02344,70.80078 443.31055,70.80078Q431.15234,70.80078 424.63379,62.28027Q418.11523,53.75977 418.11523,37.01172Q418.11523,18.60352 424.73145,9.30176Q431.34766,0.00000 443.65234,0.00000Q447.75391,0.00000 451.12305,0.85449Q454.49219,1.70898 457.12891,3.61328Q459.76562,5.51758 461.62109,8.52051Q463.47656,11.52344 464.59961,15.82031L451.66016,17.62695Q450.68359,14.01367 448.48633,12.42676Q446.28906,10.83984 443.35938,10.83984Q437.84180,10.83984 434.69238,16.35742Q431.54297,21.87500 431.54297,33.10547Q433.74023,29.44336 437.64648,27.49023Q441.55273,25.53711 446.48438,25.53711Q451.02539,25.53711 454.71191,27.02637Q458.39844,28.51562 461.01074,31.32324Q463.62305,34.13086 465.03906,38.18359Q466.45508,42.23633 466.45508,47.31445ZM452.68555,47.70508Q452.68555,44.92188 452.05078,42.70020Q451.41602,40.47852 450.12207,38.91602Q448.82812,37.35352 446.92383,36.49902Q445.01953,35.64453 442.52930,35.64453Q440.72266,35.64453 438.91602,36.23047Q437.10938,36.81641 435.69336,38.11035Q434.27734,39.40430 433.39844,41.40625Q432.51953,43.40820 432.51953,46.24023Q432.51953,49.16992 433.25195,51.70898Q433.98438,54.24805 435.32715,56.12793Q436.66992,58.00781 438.57422,59.05762Q440.47852,60.10742 442.87109,60.10742Q447.50977,60.10742 450.09766,56.81152Q452.68555,53.51562 452.68555,47.70508ZM522.07031,50.73242Q522.07031,55.41992 520.53223,59.15527Q518.99414,62.89062 515.91797,65.52734Q512.84180,68.16406 508.27637,69.55566Q503.71094,70.94727 497.65625,70.94727Q490.91797,70.94727 486.30371,69.23828Q481.68945,67.52930 478.73535,64.72168Q475.78125,61.91406 474.29199,58.34961Q472.80273,54.78516 472.36328,51.12305L486.32812,49.90234Q486.62109,52.09961 487.42676,53.93066Q488.23242,55.76172 489.59961,57.08008Q490.96680,58.39844 492.94434,59.10645Q494.92188,59.81445 497.60742,59.81445Q502.53906,59.81445 505.27344,57.37305Q508.00781,54.93164 508.00781,49.90234Q508.00781,46.82617 506.71387,44.97070Q505.41992,43.11523 503.44238,42.11426Q501.46484,41.11328 499.16992,40.77148Q496.87500,40.42969 494.82422,40.42969L490.03906,40.42969L490.03906,29.34570L494.53125,29.34570Q496.58203,29.34570 498.70605,28.95508Q500.83008,28.56445 502.53906,27.53906Q504.24805,26.51367 505.32227,24.68262Q506.39648,22.85156 506.39648,20.01953Q506.39648,15.77148 504.02832,13.35449Q501.66016,10.93750 497.11914,10.93750Q492.87109,10.93750 490.25879,13.28125Q487.64648,15.62500 487.25586,19.92188L473.53516,18.94531Q474.12109,14.11133 476.19629,10.54688Q478.27148,6.98242 481.42090,4.63867Q484.57031,2.29492 488.67188,1.14746Q492.77344,0.00000 497.36328,0.00000Q503.41797,0.00000 507.76367,1.46484Q512.10938,2.92969 514.89258,5.41992Q517.67578,7.91016 518.99414,11.23047Q520.31250,14.55078 520.31250,18.31055Q520.31250,21.33789 519.43359,23.95020Q518.55469,26.56250 516.77246,28.63770Q514.99023,30.71289 512.20703,32.20215Q509.42383,33.69141 505.61523,34.42383L505.61523,34.61914Q509.86328,35.10742 512.98828,36.54785Q516.11328,37.98828 518.11523,40.13672Q520.11719,42.28516 521.09375,44.99512Q522.07031,47.70508 522.07031,50.73242Z" transform="translate(214.52787 4) scale(0.15504474)" /></g></svg>
