<?xml version="1.0" encoding="UTF-8"?>
<svg width="470px" height="70px" viewBox="0 0 470 70" version="1.1" xmlns="http://www.w3.org/2000/svg" xmlns:xlink="http://www.w3.org/1999/xlink">
    <!-- Generator: Sketch 58 (84663) - https://sketch.com -->
    <title>AY_3_8910-Logo</title>
    <desc>Created with Sketch.</desc>
    <g id="AY_3_8910-Logo" stroke="none" stroke-width="1" fill="none" fill-rule="evenodd">
        <path d="M75.16,66 L45.82,2.55 L41.32,2.55 L11.98,66 L16.84,66 L24.85,48.36 L62.02,48.36 L70.03,66 L75.16,66 Z M60.04,44.13 L26.83,44.13 L43.48,7.68 L60.04,44.13 Z M130.78,3 L125.2,3 L101.53,36.84 L77.95,3 L72.1,3 L99.1,41.07 L99.1,66 L103.78,66 L103.78,40.98 L130.78,3 Z M156.88,41.79 L156.88,36.75 L132.76,36.75 L132.76,41.79 L156.88,41.79 Z M203.41,7.41 L181.72,32.43 L182.89,35.04 L186.31,35.04 C197.65,35.04 205.93,39.9 205.93,48.81 C205.93,57.18 198.82,62.85 190.36,62.85 C182.08,62.85 175.78,59.16 170.74,52.77 L167.14,55.74 C172.27,62.4 180.01,67.08 190.27,67.08 C201.16,67.08 210.79,59.7 210.79,48.63 C210.79,37.02 200.44,31.44 188.47,30.72 L209.8,6.33 L209.8,3 L170.38,3 L170.38,7.41 L203.41,7.41 Z M247.6,41.79 L247.6,36.75 L223.48,36.75 L223.48,41.79 L247.6,41.79 Z M305.65,49.08 C305.65,41.61 299.62,36.03 291.7,33.42 C297.91,30.9 303.49,26.22 303.49,18.66 C303.49,8.76 293.14,2.1 282.25,2.1 C271.36,2.1 261.01,8.76 261.01,18.66 C261.01,26.22 266.59,30.9 272.8,33.42 C264.88,36.03 258.85,41.61 258.85,49.08 C258.85,59.61 269.02,66.9 282.25,66.9 C295.48,66.9 305.65,59.61 305.65,49.08 Z M298.63,18.66 C298.63,26.49 291.16,31.71 282.25,31.71 C273.34,31.71 265.87,26.49 265.87,18.66 C265.87,11.46 273.07,6.33 282.25,6.33 C291.43,6.33 298.63,11.46 298.63,18.66 Z M300.79,49.26 C300.79,56.46 293.86,62.67 282.25,62.67 C270.64,62.67 263.71,56.46 263.71,49.26 C263.71,41.34 271.99,35.67 282.25,35.67 C292.51,35.67 300.79,41.34 300.79,49.26 Z M362.17,32.97 C362.17,20.28 359.29,13.35 354.25,8.31 C350.47,4.53 344.98,1.92 338.23,1.92 C325.09,1.92 316.09,11.46 316.09,23.16 C316.09,34.05 325.18,42.51 337.87,42.51 C347.77,42.51 353.89,36.84 357.49,30.36 C358.21,49.26 349.3,62.85 336.61,62.85 C330.85,62.85 325.81,60.42 320.5,55.65 L317.53,59.25 C322.75,63.66 328.69,67.08 336.52,67.08 C351.19,67.08 362.17,52.86 362.17,32.97 Z M355.6,22.26 C355.6,30.27 348.76,38.37 338.05,38.37 C328.06,38.37 320.95,31.89 320.95,22.98 C320.95,14.16 327.34,6.15 337.69,6.15 C348.13,6.15 355.6,13.26 355.6,22.26 Z M370.63,7.86 L371.89,11.55 L384.04,7.41 L384.04,66 L388.63,66 L388.63,2.55 L385.03,2.55 L370.63,7.86 Z M456.13,34.41 C456.13,16.95 446.14,1.92 430.12,1.92 C414.1,1.92 403.93,17.13 403.93,34.59 C403.93,52.05 413.92,67.08 429.94,67.08 C445.96,67.08 456.13,51.87 456.13,34.41 Z M451.27,34.59 C451.27,49.35 443.17,62.85 430.12,62.85 C417.07,62.85 408.79,49.17 408.79,34.41 C408.79,19.65 416.89,6.15 429.94,6.15 C442.99,6.15 451.27,19.83 451.27,34.59 Z" id="AY-3-8910" fill="#B3B3B3" fill-rule="nonzero"></path>
    </g>
</svg>