<?xml version="1.0" encoding="UTF-8"?>
<svg width="470px" height="70px" viewBox="0 0 470 70" version="1.1" xmlns="http://www.w3.org/2000/svg" xmlns:xlink="http://www.w3.org/1999/xlink">
    <!-- Generator: Sketch 58 (84663) - https://sketch.com -->
    <title>Escillator-Logo</title>
    <desc>Created with Sketch.</desc>
    <g id="Escillator-Logo" stroke="none" stroke-width="1" fill="none" fill-rule="evenodd">
        <path d="M42.0947266,6.93457031 L84.3701172,6.93457031 L85.4174805,7.98193359 L85.4174805,12.203125 L84.3701172,13.2822266 L60.0585938,13.2822266 L60.0585938,19.6298828 L71.706543,19.6298828 L72.7539062,20.6772461 L72.7539062,31.2460938 L71.706543,32.293457 L60.0585938,32.293457 L60.0585938,38.6411133 L97.0654297,38.6411133 L98.112793,39.6884766 L98.112793,62.9526367 L97.0654297,64 L42.0947266,64 L41.0473633,62.9526367 L41.0473633,7.98193359 L42.0947266,6.93457031 Z M105.634766,26.199707 L141.340332,26.199707 L142.387695,27.2470703 L142.387695,31.4365234 L141.340332,32.4838867 L117.1875,32.4838867 L117.1875,38.7998047 L141.340332,38.7998047 L142.387695,39.847168 L142.387695,62.9526367 L141.340332,64 L105.634766,64 L104.587402,62.9526367 L104.587402,52.4472656 L105.634766,51.3999023 L123.503418,51.3999023 L123.503418,45.0839844 L105.634766,45.0839844 L104.587402,44.0366211 L104.587402,27.2470703 L105.634766,26.199707 Z M150.354004,25.9775391 L179.934082,25.9775391 L180.981445,27.0249023 L180.981445,31.2460938 L179.934082,32.3251953 L155.654297,32.3251953 L155.654297,38.6411133 L186.281738,38.6411133 L187.329102,39.7202148 L187.329102,62.9526367 L186.281738,64 L150.354004,64 L149.306641,62.9526367 L149.306641,27.0249023 L150.354004,25.9775391 Z M195.898438,13.2822266 L204.34082,13.2822266 L206.467285,14.3295898 L206.467285,18.5507812 L204.34082,19.6298828 L195.898438,19.6298828 L193.803711,18.5507812 L193.803711,14.3295898 L195.898438,13.2822266 Z M195.898438,25.9458008 L204.34082,25.9458008 L206.467285,27.0249023 L206.467285,62.9526367 L204.34082,64 L195.898438,64 L193.803711,62.9526367 L193.803711,27.0249023 L195.898438,25.9458008 Z M195.898438,25.9458008 L204.34082,25.9458008 L206.467285,27.0249023 L206.467285,62.9526367 L204.34082,64 L195.898438,64 L193.803711,62.9526367 L193.803711,27.0249023 L195.898438,25.9458008 Z M213.989258,6.83935547 L224.589844,6.83935547 L225.637207,7.88671875 L225.637207,62.9526367 L224.589844,64 L213.989258,64 L212.941895,62.9526367 L212.941895,7.88671875 L213.989258,6.83935547 Z M233.127441,6.83935547 L243.728027,6.83935547 L244.775391,7.88671875 L244.775391,62.9526367 L243.728027,64 L233.127441,64 L232.080078,62.9526367 L232.080078,7.88671875 L233.127441,6.83935547 Z M252.297363,25.7236328 L288.447266,25.7236328 L289.494629,26.7709961 L289.494629,62.9208984 L288.447266,64 L284.194336,64 L283.115234,62.9208984 L283.115234,51.2412109 L276.73584,51.2412109 L276.73584,62.9208984 L275.688477,64 L252.297363,64 L251.218262,62.9208984 L251.218262,26.7709961 L252.297363,25.7236328 Z M257.597656,32.1030273 L257.597656,38.4824219 L276.73584,38.4824219 L276.73584,32.1030273 L257.597656,32.1030273 Z M296.635742,6.83935547 L307.236328,6.83935547 L308.283691,7.88671875 L308.283691,25.8823242 L326.279297,25.8823242 L327.358398,26.9614258 L327.358398,31.1826172 L326.279297,32.2299805 L308.283691,32.2299805 L308.283691,44.9570312 L327.358398,44.9570312 L327.358398,39.6567383 L328.405762,38.609375 L332.626953,38.609375 L333.706055,39.6567383 L333.706055,62.9526367 L332.626953,64 L296.635742,64 L295.588379,62.9526367 L295.588379,7.88671875 L296.635742,6.83935547 Z M341.132812,26.199707 L376.838379,26.199707 L377.885742,27.2470703 L377.885742,62.9526367 L376.838379,64 L341.132812,64 L340.085449,62.9526367 L340.085449,27.2470703 L341.132812,26.199707 Z M352.685547,32.4838867 L352.685547,38.7998047 L371.601562,38.7998047 L371.601562,32.4838867 L352.685547,32.4838867 Z M385.629883,19.5029297 L396.230469,19.5029297 L397.30957,20.550293 L397.30957,25.8505859 L421.652832,25.8505859 L422.731934,26.9296875 L422.731934,31.1508789 L421.652832,32.2299805 L397.30957,32.2299805 L397.30957,62.9526367 L396.230469,64 L385.629883,64 L384.58252,62.9526367 L384.58252,20.550293 L385.629883,19.5029297 Z" id="Escillator" fill="#6B17D5" fill-rule="nonzero"></path>
    </g>
</svg>