<?xml version="1.0" encoding="UTF-8"?>
<svg width="470px" height="70px" viewBox="0 0 470 70" version="1.1" xmlns="http://www.w3.org/2000/svg" xmlns:xlink="http://www.w3.org/1999/xlink">
    <!-- Generator: Sketch 61.2 (89653) - https://sketch.com -->
    <title>Logo</title>
    <desc>Created with Sketch.</desc>
    <g id="Logo" stroke="none" stroke-width="1" fill="none" fill-rule="evenodd">
        <path d="M81.1914062,67 L81.1914062,58.2109375 L89.9804688,58.2109375 L89.9804688,40.6328125 L81.1914062,40.6328125 L81.1914062,31.84375 L89.9804688,31.84375 L89.9804688,14.265625 L81.1914062,14.265625 L81.1914062,5.4765625 L28.4570312,5.4765625 L28.4570312,67 L81.1914062,67 Z M72.4023438,31.84375 L46.0351562,31.84375 L46.0351562,14.265625 L72.4023438,14.265625 L72.4023438,31.84375 Z M72.4023438,58.2109375 L46.0351562,58.2109375 L46.0351562,40.6328125 L72.4023438,40.6328125 L72.4023438,58.2109375 Z M151.503906,67 L151.503906,58.2109375 L116.347656,58.2109375 L116.347656,5.4765625 L98.7695312,5.4765625 L98.7695312,67 L151.503906,67 Z M213.027344,67 L213.027344,58.2109375 L221.816406,58.2109375 L221.816406,14.265625 L213.027344,14.265625 L213.027344,5.4765625 L169.082031,5.4765625 L169.082031,14.265625 L160.292969,14.265625 L160.292969,58.2109375 L169.082031,58.2109375 L169.082031,67 L213.027344,67 Z M204.238281,58.2109375 L177.871094,58.2109375 L177.871094,14.265625 L204.238281,14.265625 L204.238281,58.2109375 Z M283.339844,67 L283.339844,58.2109375 L292.128906,58.2109375 L292.128906,49.421875 L274.550781,49.421875 L274.550781,58.2109375 L256.972656,58.2109375 L256.972656,49.421875 L248.183594,49.421875 L248.183594,23.0546875 L256.972656,23.0546875 L256.972656,14.265625 L274.550781,14.265625 L274.550781,23.0546875 L292.128906,23.0546875 L292.128906,14.265625 L283.339844,14.265625 L283.339844,5.4765625 L248.183594,5.4765625 L248.183594,14.265625 L239.394531,14.265625 L239.394531,23.0546875 L230.605469,23.0546875 L230.605469,49.421875 L239.394531,49.421875 L239.394531,58.2109375 L248.183594,58.2109375 L248.183594,67 L283.339844,67 Z M318.496094,67 L318.496094,49.421875 L327.285156,49.421875 L327.285156,58.2109375 L336.074219,58.2109375 L336.074219,67 L362.441406,67 L362.441406,58.2109375 L353.652344,58.2109375 L353.652344,49.421875 L344.863281,49.421875 L344.863281,40.6328125 L336.074219,40.6328125 L336.074219,31.84375 L344.863281,31.84375 L344.863281,23.0546875 L353.652344,23.0546875 L353.652344,14.265625 L362.441406,14.265625 L362.441406,5.4765625 L344.863281,5.4765625 L344.863281,14.265625 L336.074219,14.265625 L336.074219,23.0546875 L327.285156,23.0546875 L327.285156,31.84375 L318.496094,31.84375 L318.496094,5.4765625 L300.917969,5.4765625 L300.917969,67 L318.496094,67 Z M423.964844,67 L423.964844,58.2109375 L432.753906,58.2109375 L432.753906,40.6328125 L423.964844,40.6328125 L423.964844,31.84375 L388.808594,31.84375 L388.808594,14.265625 L406.386719,14.265625 L406.386719,23.0546875 L423.964844,23.0546875 L423.964844,14.265625 L415.175781,14.265625 L415.175781,5.4765625 L380.019531,5.4765625 L380.019531,14.265625 L371.230469,14.265625 L371.230469,31.84375 L380.019531,31.84375 L380.019531,40.6328125 L415.175781,40.6328125 L415.175781,58.2109375 L388.808594,58.2109375 L388.94043,49.2900391 L371.230469,49.2900391 L371.230469,58.2109375 L380.019531,58.2109375 L380.019531,67 L423.964844,67 Z" id="BLOCKS" fill="#000000" fill-rule="nonzero"></path>
    </g>
</svg>