<?xml version="1.0" encoding="UTF-8"?>
<svg width="470px" height="70px" viewBox="0 0 470 70" version="1.1" xmlns="http://www.w3.org/2000/svg" xmlns:xlink="http://www.w3.org/1999/xlink">
    <!-- Generator: Sketch 58 (84663) - https://sketch.com -->
    <title>Logo</title>
    <desc>Created with Sketch.</desc>
    <g id="Logo" stroke="none" stroke-width="1" fill="none" fill-rule="evenodd">
        <path d="M25.975,49.35 L25.975,13.125 L37.45,13.125 L37.45,54.225 L22.9,70.875 L15.025,61.875 L25.975,49.35 Z M61.6,40.125 L55.975,46.5 L61.6,53.025 L61.6,40.125 Z M64.3,59.25 L57.925,66.525 L40.225,46.5 L73.075,9.225 L73.075,59.25 L64.3,59.25 Z M92.2,50.1 L80.8,62.925 L80.8,13.125 L92.2,13.125 L92.2,50.1 Z M110.65,32.25 L112.6,29.925 L110.65,27.75 L110.65,32.25 Z M128.575,51.45 L120.7,60.45 L111.175,49.575 L99.25,62.925 L99.25,12.975 L110.65,12.975 L110.65,13.725 L112.375,11.775 L128.275,29.925 L118.9,40.65 L128.575,51.45 Z M150.55,40.125 L144.925,46.5 L150.55,53.025 L150.55,40.125 Z M153.25,59.25 L146.875,66.525 L129.175,46.5 L162.025,9.225 L162.025,59.25 L153.25,59.25 Z M183.85,46.725 L184.525,45.975 L167.275,26.55 L183.85,7.875 L197.65,23.325 L189.7,32.25 L183.85,25.725 L183.1,26.475 L200.2,45.975 L183.85,64.575 L169.15,47.925 L176.95,38.85 L183.85,46.725 Z M204.4,49.95 L204.4,13.125 L215.875,13.125 L215.875,44.475 L218.05,46.95 L220.45,46.95 L222.775,44.4 L222.775,13.125 L234.175,13.125 L234.175,49.95 L226.075,59.25 L212.575,59.25 L204.4,49.95 Z M253.45,22.35 L253.45,46.95 L259.975,46.95 L270.925,59.25 L242.05,59.25 L242.05,9.3 L253.45,22.35 Z M285.475,22.35 L285.475,46.95 L292,46.95 L302.95,59.25 L274.075,59.25 L274.075,9.3 L285.475,22.35 Z M323.05,40.125 L317.425,46.5 L323.05,53.025 L323.05,40.125 Z M325.75,59.25 L319.375,66.525 L301.675,46.5 L334.525,9.225 L334.525,59.25 L325.75,59.25 Z M355.375,63.075 L355.375,25.425 L338.35,25.425 L349.225,13.125 L366.775,13.125 L366.775,50.025 L355.375,63.075 Z M385,36.225 C385,37.7250075 385.287497,39.1249935 385.8625,40.425 C386.437503,41.7250065 387.212495,42.8624951 388.1875,43.8375 C389.162505,44.8125049 390.312493,45.5749973 391.6375,46.125 C392.962507,46.6750028 394.399992,46.95 395.95,46.95 C397.5,46.95 398.949993,46.6750028 400.3,46.125 C401.650007,45.5749973 402.824995,44.8125049 403.825,43.8375 C404.825005,42.8624951 405.612497,41.7250065 406.1875,40.425 C406.762503,39.1249935 407.05,37.7250075 407.05,36.225 C407.05,34.7249925 406.762503,33.3250065 406.1875,32.025 C405.612497,30.7249935 404.825005,29.5875049 403.825,28.6125 C402.824995,27.6374951 401.650007,26.8625029 400.3,26.2875 C398.949993,25.7124971 397.5,25.425 395.95,25.425 C394.399992,25.425 392.962507,25.7124971 391.6375,26.2875 C390.312493,26.8625029 389.162505,27.6374951 388.1875,28.6125 C387.212495,29.5875049 386.437503,30.7249935 385.8625,32.025 C385.287497,33.3250065 385,34.7249925 385,36.225 Z M372.625,36.225 C372.625,33.024984 373.249994,30.025014 374.5,27.225 C375.750006,24.424986 377.437489,21.9750105 379.5625,19.875 C381.687511,17.7749895 384.187486,16.125 387.0625,14.925 C389.937514,13.724994 392.999984,13.125 396.25,13.125 C399.450016,13.125 402.487486,13.724994 405.3625,14.925 C408.237514,16.125 410.749989,17.7749895 412.9,19.875 C415.050011,21.9750105 416.749994,24.424986 418,27.225 C419.250006,30.025014 419.875,33.024984 419.875,36.225 C419.875,39.425016 419.250006,42.424986 418,45.225 C416.749994,48.025014 415.050011,50.4749895 412.9,52.575 C410.749989,54.6750105 408.237514,56.3374939 405.3625,57.5625 C402.487486,58.7875061 399.450016,59.4 396.25,59.4 C392.999984,59.4 389.937514,58.7875061 387.0625,57.5625 C384.187486,56.3374939 381.687511,54.6750105 379.5625,52.575 C377.437489,50.4749895 375.750006,48.025014 374.5,45.225 C373.249994,42.424986 372.625,39.425016 372.625,36.225 Z M437.65,32.25 L439.6,29.925 L437.65,27.75 L437.65,32.25 Z M455.575,51.45 L447.7,60.45 L438.175,49.575 L426.25,62.925 L426.25,12.975 L437.65,12.975 L437.65,13.725 L439.375,11.775 L455.275,29.925 L445.9,40.65 L455.575,51.45 Z" id="JAIRASULLATOR" fill="#663346" fill-rule="nonzero"></path>
        <path d="M19.3,61.875 L29.275,50.4 L29.275,16.35 L34.225,16.35 L34.225,53.1 L22.9,65.925 L19.3,61.875 Z M64.825,56.025 L64.825,31.425 L51.625,46.5 L61.375,57.675 L57.925,61.65 L44.5,46.5 L69.775,17.85 L69.775,56.025 L64.825,56.025 Z M84.025,54.45 L84.025,16.35 L88.975,16.35 L88.975,48.9 L84.025,54.45 Z M107.425,16.2 L107.425,40.725 L116.95,29.925 L108.85,20.775 L112.375,16.725 L124,29.925 L114.625,40.65 L124.3,51.45 L120.7,55.575 L111.175,44.7 L102.475,54.45 L102.475,16.2 L107.425,16.2 Z M153.775,56.025 L153.775,31.425 L140.575,46.5 L150.325,57.675 L146.875,61.65 L133.45,46.5 L158.725,17.85 L158.725,56.025 L153.775,56.025 Z M183.85,51.525 L188.875,45.9 L171.625,26.55 L183.85,12.75 L193.3,23.325 L189.7,27.375 L183.85,20.85 L178.825,26.475 L195.925,45.975 L183.85,59.7 L173.35,47.925 L176.95,43.8 L183.85,51.525 Z M212.65,45.6 L216.775,50.175 L221.95,50.175 L226,45.525 L226,16.35 L230.875,16.35 L230.875,48.9 L224.575,56.025 L214,56.025 L207.7,48.9 L207.7,16.35 L212.65,16.35 L212.65,45.6 Z M245.275,56.025 L245.275,17.925 L250.225,23.475 L250.225,50.175 L258.475,50.175 L263.65,56.025 L245.275,56.025 Z M277.3,56.025 L277.3,17.925 L282.25,23.475 L282.25,50.175 L290.5,50.175 L295.675,56.025 L277.3,56.025 Z M326.275,56.025 L326.275,31.425 L313.075,46.5 L322.825,57.675 L319.375,61.65 L305.95,46.5 L331.225,17.85 L331.225,56.025 L326.275,56.025 Z M358.6,54.45 L358.6,22.2 L345.55,22.2 L350.65,16.35 L363.475,16.35 L363.475,48.9 L358.6,54.45 Z M381.775,36.225 C381.775,38.1750098 382.149996,39.9999915 382.9,41.7 C383.650004,43.4000085 384.662494,44.8874936 385.9375,46.1625 C387.212506,47.4375064 388.712491,48.4374964 390.4375,49.1625 C392.162509,49.8875036 393.99999,50.25 395.95,50.25 C397.95001,50.25 399.824991,49.8875036 401.575,49.1625 C403.325009,48.4374964 404.849993,47.4375064 406.15,46.1625 C407.450007,44.8874936 408.462496,43.4000085 409.1875,41.7 C409.912504,39.9999915 410.275,38.1750098 410.275,36.225 C410.275,34.2749903 409.912504,32.4500085 409.1875,30.75 C408.462496,29.0499915 407.450007,27.5625064 406.15,26.2875 C404.849993,25.0124936 403.325009,24.0125036 401.575,23.2875 C399.824991,22.5624964 397.95001,22.2 395.95,22.2 C393.99999,22.2 392.162509,22.5624964 390.4375,23.2875 C388.712491,24.0125036 387.212506,25.0124936 385.9375,26.2875 C384.662494,27.5625064 383.650004,29.0499915 382.9,30.75 C382.149996,32.4500085 381.775,34.2749903 381.775,36.225 Z M413.2,25.35 C414.300005,26.9000078 415.137497,28.5999907 415.7125,30.45 C416.287503,32.3000093 416.575,34.22499 416.575,36.225 C416.575,38.9750138 416.037505,41.5624879 414.9625,43.9875 C413.887495,46.4125121 412.425,48.524991 410.575,50.325 C408.724991,52.125009 406.562512,53.5499948 404.0875,54.6 C401.612488,55.6500053 399.000014,56.175 396.25,56.175 C393.449986,56.175 390.812512,55.6500053 388.3375,54.6 C385.862488,53.5499948 383.712509,52.125009 381.8875,50.325 C380.062491,48.524991 378.612505,46.4125121 377.5375,43.9875 C376.462495,41.5624879 375.925,38.9750138 375.925,36.225 C375.925,33.5249865 376.462495,30.9625121 377.5375,28.5375 C378.612505,26.1124879 380.062491,24.000009 381.8875,22.2 C383.712509,20.399991 385.862488,18.9750053 388.3375,17.925 C390.812512,16.8749947 393.449986,16.35 396.25,16.35 C399.750017,16.35 402.974985,17.1374921 405.925,18.7125 C408.875015,20.2875079 411.274991,22.4249865 413.125,25.125 L413.2,25.35 Z M434.425,16.2 L434.425,40.725 L443.95,29.925 L435.85,20.775 L439.375,16.725 L451,29.925 L441.625,40.65 L451.3,51.45 L447.7,55.575 L438.175,44.7 L429.475,54.45 L429.475,16.2 L434.425,16.2 Z" id="JAIRASULLATOR" fill="#CB014D" fill-rule="nonzero"></path>
    </g>
</svg>