<?xml version="1.0" encoding="UTF-8"?>
<svg width="470px" height="70px" viewBox="0 0 470 70" version="1.1" xmlns="http://www.w3.org/2000/svg" xmlns:xlink="http://www.w3.org/1999/xlink">
    <!-- Generator: Sketch 61.2 (89653) - https://sketch.com -->
    <title>Logo</title>
    <desc>Created with Sketch.</desc>
    <g id="Logo" stroke="none" stroke-width="1" fill="none" fill-rule="evenodd">
        <path d="M61.57,65 L78.85,15.68 C78.97,15.28 79.33,14.92 79.93,14.6 C80.53,14.28 81.11,14.12 81.67,14.12 C82.31,14.12 82.89,14.28 83.41,14.6 C83.93,14.92 84.27,15.28 84.43,15.68 L84.43,15.68 L93.01,38.66 L101.59,15.68 C101.75,15.28 102.09,14.92 102.61,14.6 C103.13,14.28 103.71,14.12 104.35,14.12 C104.91,14.12 105.49,14.28 106.09,14.6 C106.69,14.92 107.05,15.28 107.17,15.68 L107.17,15.68 L124.45,65 L132.43,65 L113.89,12.68 C113.61,11.84 113.2,11.03 112.66,10.25 C112.12,9.47 111.46,8.77 110.68,8.15 C109.9,7.53 108.98,7.04 107.92,6.68 C106.86,6.32 105.67,6.14 104.35,6.14 C102.99,6.14 101.81,6.32 100.81,6.68 C99.81,7.04 98.94,7.53 98.2,8.15 C97.46,8.77 96.82,9.47 96.28,10.25 C95.74,11.03 95.25,11.84 94.81,12.68 L94.81,12.68 L93.01,16.28 L91.21,12.68 C90.81,11.84 90.34,11.03 89.8,10.25 C89.26,9.47 88.61,8.77 87.85,8.15 C87.09,7.53 86.21,7.04 85.21,6.68 C84.21,6.32 83.03,6.14 81.67,6.14 C80.31,6.14 79.11,6.32 78.07,6.68 C77.03,7.04 76.12,7.53 75.34,8.15 C74.56,8.77 73.91,9.47 73.39,10.25 C72.87,11.03 72.45,11.84 72.13,12.68 L72.13,12.68 L53.59,65 L61.57,65 Z M71.71,65 L81.67,34.76 L93.01,65 L104.35,34.76 L114.61,65 L122.29,65 L105.85,17.18 C105.77,16.94 105.57,16.73 105.25,16.55 C104.93,16.37 104.63,16.28 104.35,16.28 C104.07,16.28 103.78,16.37 103.48,16.55 C103.18,16.73 102.99,16.94 102.91,17.18 L102.91,17.18 L93.01,44.48 L83.11,17.18 C83.03,16.94 82.84,16.73 82.54,16.55 C82.24,16.37 81.95,16.28 81.67,16.28 C81.39,16.28 81.09,16.37 80.77,16.55 C80.45,16.73 80.25,16.94 80.17,17.18 L80.17,17.18 L63.73,65 L71.71,65 Z M140.23,65 L140.23,6.14 L132.25,6.14 L132.25,65 L140.23,65 Z M150.37,65 L150.37,6.14 L142.39,6.14 L142.39,65 L150.37,65 Z M196.87,65 L196.87,24.26 C196.87,20.94 196.55,18.13 195.91,15.83 C195.27,13.53 194.27,11.66 192.91,10.22 C191.55,8.78 189.82,7.74 187.72,7.1 C185.62,6.46 183.11,6.14 180.19,6.14 L180.19,6.14 L156.25,6.14 L156.25,14.12 L180.97,14.12 C182.49,14.12 183.78,14.33 184.84,14.75 C185.9,15.17 186.76,15.76 187.42,16.52 C188.08,17.28 188.56,18.18 188.86,19.22 C189.16,20.26 189.31,21.38 189.31,22.58 L189.31,22.58 L189.31,65 L196.87,65 Z M187.15,65 L187.15,23.78 C187.15,22.74 187.05,21.76 186.85,20.84 C186.65,19.92 186.29,19.12 185.77,18.44 C185.25,17.76 184.54,17.23 183.64,16.85 C182.74,16.47 181.59,16.28 180.19,16.28 L180.19,16.28 L156.25,16.28 L156.25,24.26 L178.03,24.26 C178.51,24.26 178.9,24.4 179.2,24.68 C179.5,24.96 179.65,25.34 179.65,25.82 L179.65,25.82 L179.65,65 L187.15,65 Z M174.37,65 L174.37,26.18 L165.97,26.18 L165.97,65 L174.37,65 Z M163.81,65 L163.81,26.18 L156.25,26.18 L156.25,65 L163.81,65 Z M210.97,65 L210.97,6.14 L202.99,6.14 L202.99,65 L210.97,65 Z M221.11,65 L221.11,6.14 L213.13,6.14 L213.13,65 L221.11,65 Z M262.15,65 C264.79,65 267.27,64.5 269.59,63.5 C271.91,62.5 273.93,61.12 275.65,59.36 C277.37,57.6 278.72,55.54 279.7,53.18 C280.68,50.82 281.17,48.28 281.17,45.56 C281.17,43.76 280.81,42.02 280.09,40.34 C279.37,38.66 278.47,37.08 277.39,35.6 C278.47,34.2 279.37,32.64 280.09,30.92 C280.81,29.2 281.17,27.42 281.17,25.58 C281.17,22.86 280.68,20.32 279.7,17.96 C278.72,15.6 277.37,13.54 275.65,11.78 C273.93,10.02 271.91,8.64 269.59,7.64 C267.27,6.64 264.79,6.14 262.15,6.14 L262.15,6.14 L238.69,6.14 L238.69,14.24 L262.15,14.24 C263.83,14.24 265.34,14.52 266.68,15.08 C268.02,15.64 269.17,16.42 270.13,17.42 C271.09,18.42 271.83,19.62 272.35,21.02 C272.87,22.42 273.13,23.94 273.13,25.58 C273.13,27.9 272.65,29.84 271.69,31.4 C270.73,32.96 269.35,34.36 267.55,35.6 C269.35,36.8 270.73,38.18 271.69,39.74 C272.65,41.3 273.13,43.24 273.13,45.56 C273.13,47.2 272.87,48.72 272.35,50.12 C271.83,51.52 271.09,52.72 270.13,53.72 C269.17,54.72 268.02,55.5 266.68,56.06 C265.34,56.62 263.83,56.9 262.15,56.9 L262.15,56.9 L238.69,56.9 L238.69,65 L262.15,65 Z M262.15,34.76 C264.67,34.76 266.76,34 268.42,32.48 C270.08,30.96 270.91,28.66 270.91,25.58 C270.91,22.5 270.08,20.2 268.42,18.68 C266.76,17.16 264.67,16.4 262.15,16.4 L262.15,16.4 L238.69,16.4 L238.69,24.44 L262.15,24.44 C262.39,24.44 262.57,24.57 262.69,24.83 C262.81,25.09 262.87,25.34 262.87,25.58 C262.87,25.82 262.81,26.07 262.69,26.33 C262.57,26.59 262.39,26.72 262.15,26.72 L262.15,26.72 L238.69,26.72 L238.69,34.76 L262.15,34.76 Z M262.15,54.74 C264.67,54.74 266.76,53.98 268.42,52.46 C270.08,50.94 270.91,48.64 270.91,45.56 C270.91,42.48 270.08,40.18 268.42,38.66 C266.76,37.14 264.67,36.38 262.15,36.38 L262.15,36.38 L238.69,36.38 L238.69,44.42 L262.15,44.42 C262.39,44.42 262.57,44.55 262.69,44.81 C262.81,45.07 262.87,45.32 262.87,45.56 C262.87,45.8 262.81,46.05 262.69,46.31 C262.57,46.57 262.39,46.7 262.15,46.7 L262.15,46.7 L238.69,46.7 L238.69,54.74 L262.15,54.74 Z M308.23,65 C311.15,65 313.66,64.66 315.76,63.98 C317.86,63.3 319.59,62.23 320.95,60.77 C322.31,59.31 323.31,57.43 323.95,55.13 C324.59,52.83 324.91,50.08 324.91,46.88 L324.91,46.88 L324.91,24.26 C324.91,20.94 324.59,18.13 323.95,15.83 C323.31,13.53 322.31,11.66 320.95,10.22 C319.59,8.78 317.86,7.74 315.76,7.1 C313.66,6.46 311.15,6.14 308.23,6.14 L308.23,6.14 L300.55,6.14 C297.67,6.14 295.19,6.46 293.11,7.1 C291.03,7.74 289.3,8.78 287.92,10.22 C286.54,11.66 285.52,13.53 284.86,15.83 C284.2,18.13 283.87,20.94 283.87,24.26 L283.87,24.26 L283.87,46.88 C283.87,50.08 284.2,52.83 284.86,55.13 C285.52,57.43 286.54,59.31 287.92,60.77 C289.3,62.23 291.03,63.3 293.11,63.98 C295.19,64.66 297.67,65 300.55,65 L300.55,65 L308.23,65 Z M309.07,57.02 L299.71,57.02 C298.19,57.02 296.91,56.81 295.87,56.39 C294.83,55.97 293.98,55.38 293.32,54.62 C292.66,53.86 292.18,52.96 291.88,51.92 C291.58,50.88 291.43,49.76 291.43,48.56 L291.43,48.56 L291.43,22.58 C291.43,21.38 291.58,20.26 291.88,19.22 C292.18,18.18 292.66,17.28 293.32,16.52 C293.98,15.76 294.84,15.17 295.9,14.75 C296.96,14.33 298.25,14.12 299.77,14.12 L299.77,14.12 L309.01,14.12 C310.53,14.12 311.82,14.33 312.88,14.75 C313.94,15.17 314.8,15.76 315.46,16.52 C316.12,17.28 316.6,18.18 316.9,19.22 C317.2,20.26 317.35,21.38 317.35,22.58 L317.35,22.58 L317.35,48.56 C317.35,49.76 317.2,50.88 316.9,51.92 C316.6,52.96 316.12,53.86 315.46,54.62 C314.8,55.38 313.95,55.97 312.91,56.39 C311.87,56.81 310.59,57.02 309.07,57.02 L309.07,57.02 Z M308.29,54.86 C309.69,54.86 310.84,54.73 311.74,54.47 C312.64,54.21 313.34,53.78 313.84,53.18 C314.34,52.58 314.69,51.81 314.89,50.87 C315.09,49.93 315.19,48.76 315.19,47.36 L315.19,47.36 L315.19,23.78 C315.19,22.74 315.09,21.76 314.89,20.84 C314.69,19.92 314.33,19.12 313.81,18.44 C313.29,17.76 312.58,17.23 311.68,16.85 C310.78,16.47 309.63,16.28 308.23,16.28 L308.23,16.28 L300.55,16.28 C299.15,16.28 298,16.47 297.1,16.85 C296.2,17.23 295.49,17.76 294.97,18.44 C294.45,19.12 294.09,19.92 293.89,20.84 C293.69,21.76 293.59,22.74 293.59,23.78 L293.59,23.78 L293.59,47.36 C293.59,48.76 293.69,49.93 293.89,50.87 C294.09,51.81 294.44,52.58 294.94,53.18 C295.44,53.78 296.14,54.21 297.04,54.47 C297.94,54.73 299.09,54.86 300.49,54.86 L300.49,54.86 L308.29,54.86 Z M306.31,46.88 L302.47,46.88 C301.99,46.88 301.68,46.74 301.54,46.46 C301.4,46.18 301.33,45.8 301.33,45.32 L301.33,45.32 L301.33,25.82 C301.33,25.34 301.4,24.96 301.54,24.68 C301.68,24.4 301.99,24.26 302.47,24.26 L302.47,24.26 L306.31,24.26 C306.79,24.26 307.1,24.4 307.24,24.68 C307.38,24.96 307.45,25.34 307.45,25.82 L307.45,25.82 L307.45,45.32 C307.45,45.8 307.38,46.18 307.24,46.46 C307.1,46.74 306.79,46.88 306.31,46.88 L306.31,46.88 Z M347.83,54.86 C349.07,54.86 350.24,54.67 351.34,54.29 C352.44,53.91 353.41,53.34 354.25,52.58 C355.09,51.82 355.75,50.87 356.23,49.73 C356.71,48.59 356.95,47.26 356.95,45.74 C356.95,44.02 356.59,42.6 355.87,41.48 C355.15,40.36 354.25,39.47 353.17,38.81 C352.09,38.15 350.91,37.65 349.63,37.31 C348.35,36.97 347.17,36.7 346.09,36.5 C344.97,36.3 343.83,35.93 342.67,35.39 C341.51,34.85 340.46,34.12 339.52,33.2 C338.58,32.28 337.81,31.18 337.21,29.9 C336.61,28.62 336.31,27.12 336.31,25.4 C336.31,23.76 336.57,22.25 337.09,20.87 C337.61,19.49 338.34,18.3 339.28,17.3 C340.22,16.3 341.36,15.52 342.7,14.96 C344.04,14.4 345.53,14.12 347.17,14.12 L347.17,14.12 L367.03,14.12 L367.03,6.14 L347.17,6.14 C344.53,6.14 342.06,6.64 339.76,7.64 C337.46,8.64 335.47,10 333.79,11.72 C332.11,13.44 330.78,15.48 329.8,17.84 C328.82,20.2 328.33,22.72 328.33,25.4 C328.33,27.72 328.59,29.77 329.11,31.55 C329.63,33.33 330.32,34.89 331.18,36.23 C332.04,37.57 333.03,38.72 334.15,39.68 C335.27,40.64 336.41,41.44 337.57,42.08 C338.13,42.4 338.93,42.71 339.97,43.01 C341.01,43.31 342.06,43.58 343.12,43.82 C344.18,44.06 345.13,44.26 345.97,44.42 C346.81,44.58 347.29,44.68 347.41,44.72 C347.89,44.92 348.13,45.3 348.13,45.86 C348.13,46.1 348.04,46.33 347.86,46.55 C347.68,46.77 347.43,46.88 347.11,46.88 L347.11,46.88 L327.49,46.88 L327.49,54.86 L347.83,54.86 Z M347.83,65 C350.47,65 352.94,64.5 355.24,63.5 C357.54,62.5 359.53,61.14 361.21,59.42 C362.89,57.7 364.22,55.67 365.2,53.33 C366.18,50.99 366.67,48.46 366.67,45.74 C366.67,43.46 366.39,41.43 365.83,39.65 C365.27,37.87 364.53,36.31 363.61,34.97 C362.69,33.63 361.65,32.48 360.49,31.52 C359.33,30.56 358.15,29.74 356.95,29.06 C356.39,28.78 355.58,28.49 354.52,28.19 C353.46,27.89 352.41,27.62 351.37,27.38 C350.33,27.14 349.4,26.93 348.58,26.75 C347.76,26.57 347.29,26.46 347.17,26.42 C346.93,26.38 346.75,26.25 346.63,26.03 C346.51,25.81 346.45,25.58 346.45,25.34 C346.45,25.06 346.54,24.82 346.72,24.62 C346.9,24.42 347.15,24.32 347.47,24.32 L347.47,24.32 L367.03,24.26 L367.03,16.28 L347.17,16.28 C345.93,16.28 344.78,16.47 343.72,16.85 C342.66,17.23 341.74,17.8 340.96,18.56 C340.18,19.32 339.57,20.27 339.13,21.41 C338.69,22.55 338.47,23.88 338.47,25.4 C338.47,27 338.74,28.34 339.28,29.42 C339.82,30.5 340.53,31.4 341.41,32.12 C342.29,32.84 343.3,33.41 344.44,33.83 C345.58,34.25 346.75,34.58 347.95,34.82 C349.03,35.06 350.22,35.37 351.52,35.75 C352.82,36.13 354.03,36.71 355.15,37.49 C356.27,38.27 357.21,39.32 357.97,40.64 C358.73,41.96 359.11,43.66 359.11,45.74 C359.11,47.38 358.84,48.89 358.3,50.27 C357.76,51.65 356.99,52.84 355.99,53.84 C354.99,54.84 353.8,55.62 352.42,56.18 C351.04,56.74 349.51,57.02 347.83,57.02 L347.83,57.02 L327.49,57.02 L327.49,65 L347.83,65 Z M389.59,54.86 C390.83,54.86 392,54.67 393.1,54.29 C394.2,53.91 395.17,53.34 396.01,52.58 C396.85,51.82 397.51,50.87 397.99,49.73 C398.47,48.59 398.71,47.26 398.71,45.74 C398.71,44.02 398.35,42.6 397.63,41.48 C396.91,40.36 396.01,39.47 394.93,38.81 C393.85,38.15 392.67,37.65 391.39,37.31 C390.11,36.97 388.93,36.7 387.85,36.5 C386.73,36.3 385.59,35.93 384.43,35.39 C383.27,34.85 382.22,34.12 381.28,33.2 C380.34,32.28 379.57,31.18 378.97,29.9 C378.37,28.62 378.07,27.12 378.07,25.4 C378.07,23.76 378.33,22.25 378.85,20.87 C379.37,19.49 380.1,18.3 381.04,17.3 C381.98,16.3 383.12,15.52 384.46,14.96 C385.8,14.4 387.29,14.12 388.93,14.12 L388.93,14.12 L408.79,14.12 L408.79,6.14 L388.93,6.14 C386.29,6.14 383.82,6.64 381.52,7.64 C379.22,8.64 377.23,10 375.55,11.72 C373.87,13.44 372.54,15.48 371.56,17.84 C370.58,20.2 370.09,22.72 370.09,25.4 C370.09,27.72 370.35,29.77 370.87,31.55 C371.39,33.33 372.08,34.89 372.94,36.23 C373.8,37.57 374.79,38.72 375.91,39.68 C377.03,40.64 378.17,41.44 379.33,42.08 C379.89,42.4 380.69,42.71 381.73,43.01 C382.77,43.31 383.82,43.58 384.88,43.82 C385.94,44.06 386.89,44.26 387.73,44.42 C388.57,44.58 389.05,44.68 389.17,44.72 C389.65,44.92 389.89,45.3 389.89,45.86 C389.89,46.1 389.8,46.33 389.62,46.55 C389.44,46.77 389.19,46.88 388.87,46.88 L388.87,46.88 L369.25,46.88 L369.25,54.86 L389.59,54.86 Z M389.59,65 C392.23,65 394.7,64.5 397,63.5 C399.3,62.5 401.29,61.14 402.97,59.42 C404.65,57.7 405.98,55.67 406.96,53.33 C407.94,50.99 408.43,48.46 408.43,45.74 C408.43,43.46 408.15,41.43 407.59,39.65 C407.03,37.87 406.29,36.31 405.37,34.97 C404.45,33.63 403.41,32.48 402.25,31.52 C401.09,30.56 399.91,29.74 398.71,29.06 C398.15,28.78 397.34,28.49 396.28,28.19 C395.22,27.89 394.17,27.62 393.13,27.38 C392.09,27.14 391.16,26.93 390.34,26.75 C389.52,26.57 389.05,26.46 388.93,26.42 C388.69,26.38 388.51,26.25 388.39,26.03 C388.27,25.81 388.21,25.58 388.21,25.34 C388.21,25.06 388.3,24.82 388.48,24.62 C388.66,24.42 388.91,24.32 389.23,24.32 L389.23,24.32 L408.79,24.26 L408.79,16.28 L388.93,16.28 C387.69,16.28 386.54,16.47 385.48,16.85 C384.42,17.23 383.5,17.8 382.72,18.56 C381.94,19.32 381.33,20.27 380.89,21.41 C380.45,22.55 380.23,23.88 380.23,25.4 C380.23,27 380.5,28.34 381.04,29.42 C381.58,30.5 382.29,31.4 383.17,32.12 C384.05,32.84 385.06,33.41 386.2,33.83 C387.34,34.25 388.51,34.58 389.71,34.82 C390.79,35.06 391.98,35.37 393.28,35.75 C394.58,36.13 395.79,36.71 396.91,37.49 C398.03,38.27 398.97,39.32 399.73,40.64 C400.49,41.96 400.87,43.66 400.87,45.74 C400.87,47.38 400.6,48.89 400.06,50.27 C399.52,51.65 398.75,52.84 397.75,53.84 C396.75,54.84 395.56,55.62 394.18,56.18 C392.8,56.74 391.27,57.02 389.59,57.02 L389.59,57.02 L369.25,57.02 L369.25,65 L389.59,65 Z" id="MINIBOSS" fill="#0D3B99" fill-rule="nonzero"></path>
    </g>
</svg>